<svg xmlns="http://www.w3.org/2000/svg" xmlns:xlink="http://www.w3.org/1999/xlink" width="412" height="847" viewBox="0 0 412 847">
  <defs>
    <linearGradient id="linear-gradient" x1="0.5" x2="0.5" y2="1" gradientUnits="objectBoundingBox">
      <stop offset="0" stop-color="#37aadd"/>
      <stop offset="1" stop-color="#1f64cc"/>
    </linearGradient>
    <filter id="Rectangle_1570" x="-24" y="84" width="460" height="786" filterUnits="userSpaceOnUse">
      <feOffset dy="-3" input="SourceAlpha"/>
      <feGaussianBlur stdDeviation="8" result="blur"/>
      <feFlood flood-opacity="0.039"/>
      <feComposite operator="in" in2="blur"/>
      <feComposite in="SourceGraphic"/>
    </filter>
    <clipPath id="clip-Add_Addiction_7">
      <rect width="412" height="847"/>
    </clipPath>
  </defs>
  <g id="Add_Addiction_7" data-name="Add Addiction 7" clip-path="url(#clip-Add_Addiction_7)">
    <rect width="412" height="847" fill="url(#linear-gradient)"/>
    <g transform="matrix(1, 0, 0, 1, 0, 0)" filter="url(#Rectangle_1570)">
      <path id="Rectangle_1570-2" data-name="Rectangle 1570" d="M30,0H382a30,30,0,0,1,30,30V738a0,0,0,0,1,0,0H0a0,0,0,0,1,0,0V30A30,30,0,0,1,30,0Z" transform="translate(0 111)" fill="#102646"/>
    </g>
    <text id="Enter_Mobile_Number" data-name="Enter Mobile Number" transform="translate(29 378)" fill="#fff" font-size="18" font-family="ArialMT, Arial"><tspan x="0" y="16">Enter Mobile Number</tspan></text>
    <g id="Group_3380" data-name="Group 3380">
      <path id="Path_4714" data-name="Path 4714" d="M1053,4508.186h411.151" transform="translate(-1052.5 -3729)" fill="none" stroke="#fff" stroke-width="2" opacity="0.206"/>
      <g id="Group_3224" data-name="Group 3224" transform="translate(128.47 786.262)">
        <g id="Group_3212" data-name="Group 3212" transform="translate(34.47 14.737)">
          <text id="Close" transform="translate(19.06 18)" fill="#fff" font-size="18" font-family="ArialMT, Arial"><tspan x="0" y="0">Close</tspan></text>
        </g>
      </g>
    </g>
    <text id="Session_3_Invite_Guardian" data-name="Session 3
Invite Guardian" transform="translate(29 26)" fill="#fff" font-size="16" font-family="ArialMT, Arial"><tspan x="0" y="14">Session 3</tspan><tspan font-size="24" font-family="Arial-BoldMT, Arial" font-weight="700"><tspan x="0" y="49">Invite Guardian</tspan></tspan></text>
    <g id="CTA" transform="translate(51 692.438)">
      <path id="Path_7" data-name="Path 7" d="M7.473,5H304.527C308.654,5,312,9,312,13.942v30.18c0,4.939-3.346,8.942-7.473,8.942H7.473c-4.127,0-7.473-4-7.473-8.942V13.942C0,9,3.346,5,7.473,5Z" transform="translate(0 -5)" fill="#ff9241"/>
      <text id="Send_Invite" data-name="Send Invite" transform="translate(76 12.563)" fill="#fff" font-size="16" font-family="ArialMT, Arial"><tspan x="39.473" y="14">Send Invite</tspan></text>
    </g>
    <g id="Group_3234" data-name="Group 3234" transform="translate(-4.848 -10.262)">
      <path id="Icon_ionic-ios-arrow-back" data-name="Icon ionic-ios-arrow-back" d="M15.217,17.7,23.926,9A1.645,1.645,0,1,0,21.6,6.674l-9.867,9.86a1.642,1.642,0,0,0-.048,2.268l9.908,9.929a1.645,1.645,0,0,0,2.33-2.323Z" transform="translate(362.579 30.069)" fill="#fff"/>
      <path id="Icon_ionic-ios-arrow-back-2" data-name="Icon ionic-ios-arrow-back" d="M3.967,11.506l8.709-8.7A1.645,1.645,0,1,0,10.346.481L.479,10.341a1.642,1.642,0,0,0-.048,2.268l9.908,9.929a1.645,1.645,0,1,0,2.33-2.323Z" transform="translate(377.472 59.28) rotate(180)" fill="#fff"/>
    </g>
    <rect id="Rectangle_1949" data-name="Rectangle 1949" width="366" height="55" rx="10" transform="translate(29 419)" fill="#edf4fd"/>
    <text id="_91-383393949494" data-name="+91-383393949494" transform="translate(42 436)" fill="#2e5b9f" font-size="15" font-family="ArialMT, Arial" opacity="0.5"><tspan x="0" y="14">+91-383393949494</tspan></text>
  </g>
</svg>
