<svg xmlns="http://www.w3.org/2000/svg" xmlns:xlink="http://www.w3.org/1999/xlink" width="412" height="1351" viewBox="0 0 412 1351">
  <defs>
    <linearGradient id="linear-gradient" x1="0.5" x2="0.5" y2="1" gradientUnits="objectBoundingBox">
      <stop offset="0" stop-color="#37aadd"/>
      <stop offset="1" stop-color="#1f64cc"/>
    </linearGradient>
    <clipPath id="clip-Addiction_Summary">
      <rect width="412" height="1351"/>
    </clipPath>
  </defs>
  <g id="Addiction_Summary" data-name="Addiction &gt;Summary" clip-path="url(#clip-Addiction_Summary)">
    <rect width="412" height="1351" fill="url(#linear-gradient)"/>
    <g id="Background" transform="translate(-0.372)" style="isolation: isolate">
      <path id="Mask" d="M0,0H414a0,0,0,0,1,0,0V392a34,34,0,0,1-34,34H34A34,34,0,0,1,0,392V0A0,0,0,0,1,0,0Z" transform="translate(0.372)" fill="#102646"/>
      <text id="Canabis" transform="translate(32.372 83)" fill="#fff" font-size="29" font-family="Arial-BoldMT, Arial" font-weight="700"><tspan x="0" y="0">Canabis</tspan></text>
      <text id="At_least_10_joints_day" data-name="At least 10 joints / day" transform="translate(233.372 63)" fill="#fff" font-size="16" font-family="Arial-BoldMT, Arial" font-weight="700"><tspan x="0" y="14">At least 10 joints / </tspan><tspan x="0" y="39">day</tspan></text>
      <text id="Reduce_10_joints_day" data-name="Reduce 10 joints / day" transform="translate(32.372 159)" fill="#fff" font-size="16" font-family="Arial-BoldMT, Arial" font-weight="700"><tspan x="0" y="14">Reduce 10 joints / day</tspan></text>
      <text id="Substance_name" data-name="Substance name" transform="translate(32.372 52)" fill="#d2dff1" font-size="14" font-family="ArialMT, Arial" opacity="0.5"><tspan x="0" y="0">Substance name</tspan></text>
      <text id="Consumed_" data-name="Consumed " transform="translate(234.372 52)" fill="#d2dff1" font-size="14" font-family="ArialMT, Arial" opacity="0.5"><tspan x="0" y="0">Consumed </tspan></text>
      <text id="Changing_plan" data-name="Changing plan" transform="translate(32.372 148)" fill="#d2dff1" font-size="14" font-family="ArialMT, Arial" opacity="0.5"><tspan x="0" y="0">Changing plan</tspan></text>
    </g>
    <g id="Group_3513" data-name="Group 3513" transform="translate(21 236)">
      <rect id="Rectangle_1950" data-name="Rectangle 1950" width="173" height="143" rx="12" fill="#153669"/>
      <text id="_1968_hrs" data-name="1968 hrs" transform="translate(21 107)" fill="#fff" font-size="16" font-family="Arial-BoldMT, Arial" font-weight="700"><tspan x="0" y="0">1968 </tspan><tspan y="0" fill="#d2dff2" font-size="14" font-family="ArialMT, Arial" font-weight="400">hrs</tspan></text>
      <text id="_82_days" data-name="82 days" transform="translate(21 37)" fill="#fff" font-size="29" font-family="Arial-BoldMT, Arial" font-weight="700"><tspan x="0" y="0">82 days</tspan></text>
      <text id="Total_Time_spent" data-name="Total Time spent" transform="translate(21 129)" fill="#d2dff1" font-size="14" font-family="ArialMT, Arial" opacity="0.5"><tspan x="0" y="0">Total Time spent</tspan></text>
      <text id="Total_days_spent" data-name="Total days spent" transform="translate(21 62)" fill="#d2dff1" font-size="14" font-family="ArialMT, Arial" opacity="0.5"><tspan x="0" y="0">Total days spent</tspan></text>
    </g>
    <g id="Group_3512" data-name="Group 3512" transform="translate(217.852 236)">
      <rect id="Rectangle_1951" data-name="Rectangle 1951" width="173" height="143" rx="12" transform="translate(0.147)" fill="#153669"/>
      <text id="_4.5k_per_month" data-name="4.5k per month" transform="translate(20.147 107)" fill="#fff" font-size="16" font-family="Arial-BoldMT, Arial" font-weight="700"><tspan x="0" y="0">4.5k </tspan><tspan y="0" fill="#d2dff2" font-size="14" font-family="ArialMT, Arial" font-weight="400">per month</tspan></text>
      <text id="_100k" data-name="100k" transform="translate(20.147 37)" fill="#fff" font-size="29" font-family="Arial-BoldMT, Arial" font-weight="700"><tspan x="0" y="0">100k</tspan></text>
      <text id="Total_Time_spent-2" data-name="Total Time spent" transform="translate(20.147 129)" fill="#d2dff1" font-size="14" font-family="ArialMT, Arial" opacity="0.5"><tspan x="0" y="0">Total Time spent</tspan></text>
      <text id="Total_Money_spent" data-name="Total Money spent" transform="translate(20.147 62)" fill="#d2dff1" font-size="14" font-family="ArialMT, Arial" opacity="0.5"><tspan x="0" y="0">Total Money spent</tspan></text>
    </g>
    <g id="Group_3510" data-name="Group 3510" transform="translate(21 466)">
      <g id="Group_3506" data-name="Group 3506" transform="translate(0)">
        <rect id="Rectangle_1952" data-name="Rectangle 1952" width="370" height="161" rx="15" fill="#102646"/>
        <text id="The_change_I_want_to_make" data-name="The change “I” want to make" transform="translate(25 37)" fill="#fff" font-size="18" font-family="Arial-BoldMT, Arial" font-weight="700"><tspan x="0" y="0">The change “I” want to make</tspan></text>
        <text id="Alexis_Balencesco" data-name="Alexis Balencesco" transform="translate(25 56)" fill="#d2dff2" font-size="16" font-family="ArialMT, Arial"><tspan x="0" y="14">Telling someone about the violent thought </tspan><tspan x="0" y="39">(like accidently harming someone)….</tspan></text>
      </g>
    </g>
    <g id="Group_3515" data-name="Group 3515" transform="translate(21 836)">
      <g id="Group_3506-2" data-name="Group 3506" transform="translate(0)">
        <rect id="Rectangle_1952-2" data-name="Rectangle 1952" width="370" height="161" rx="15" fill="#102646"/>
        <text id="Potential_roadblocks_to_this_plan" data-name="Potential roadblocks to this plan" transform="translate(25 37)" fill="#fff" font-size="18" font-family="Arial-BoldMT, Arial" font-weight="700"><tspan x="0" y="0">Potential roadblocks to this plan</tspan></text>
        <text id="Alexis_Balencesco-2" data-name="Alexis Balencesco" transform="translate(25 56)" fill="#d2dff2" font-size="16" font-family="ArialMT, Arial"><tspan x="0" y="14">Telling someone about the violent thought </tspan><tspan x="0" y="39">(like accidently harming someone)….</tspan></text>
      </g>
    </g>
    <g id="Group_3511" data-name="Group 3511" transform="translate(21 635)">
      <g id="Group_3506-3" data-name="Group 3506" transform="translate(0)">
        <rect id="Rectangle_1952-3" data-name="Rectangle 1952" width="370" height="161" rx="15" fill="#102646"/>
        <text id="The_most_important_reasons_why_I_want_to_make_these_changes_are" data-name="The most important reasons why I want to make these changes are" transform="translate(25 19)" fill="#fff" font-size="18" font-family="Arial-BoldMT, Arial" font-weight="700"><tspan x="0" y="16">The most important reasons why I </tspan><tspan x="0" y="41">want to make these changes are</tspan></text>
        <text id="Alexis_Balencesco-3" data-name="Alexis Balencesco" transform="translate(25 86)" fill="#d2dff2" font-size="16" font-family="ArialMT, Arial"><tspan x="0" y="14">Telling someone about the violent thought </tspan><tspan x="0" y="39">(like accidently harming someone)….</tspan></text>
      </g>
    </g>
    <g id="Group_3516" data-name="Group 3516" transform="translate(21 1005)">
      <g id="Group_3506-4" data-name="Group 3506" transform="translate(0)">
        <rect id="Rectangle_1952-4" data-name="Rectangle 1952" width="370" height="161" rx="15" fill="#102646"/>
        <text id="Last_intake" data-name="Last intake" transform="translate(25 37)" fill="#fff" font-size="18" font-family="Arial-BoldMT, Arial" font-weight="700"><tspan x="0" y="0">Last intake</tspan></text>
        <text id="Alexis_Balencesco-4" data-name="Alexis Balencesco" transform="translate(25 56)" fill="#d2dff2" font-size="16" font-family="ArialMT, Arial"><tspan x="0" y="14">Telling someone about the violent thought </tspan><tspan x="0" y="39">(like accidently harming someone)….</tspan></text>
      </g>
    </g>
    <g id="Group_3380" data-name="Group 3380">
      <rect id="Rectangle_1927" data-name="Rectangle 1927" width="411" height="67" transform="translate(0 780)" fill="#102646"/>
      <path id="Path_4714" data-name="Path 4714" d="M1053,4508.186h411.151" transform="translate(-1053 -3729)" fill="none" stroke="#fff" stroke-width="2" opacity="0.206"/>
      <g id="Group_3224" data-name="Group 3224" transform="translate(0 786.262)">
        <g id="Group_3212" data-name="Group 3212" transform="translate(34.47 14.737)">
          <text id="Back" transform="translate(19.06 18)" fill="#fff" font-size="18" font-family="ArialMT, Arial"><tspan x="0" y="0">Back</tspan></text>
          <path id="Icon_ionic-ios-arrow-back" data-name="Icon ionic-ios-arrow-back" d="M14.033,14.264l6.109-6.1a1.154,1.154,0,0,0-1.634-1.629l-6.921,6.916a1.152,1.152,0,0,0-.034,1.591L18.5,22a1.154,1.154,0,1,0,1.634-1.629Z" transform="translate(-11.251 -3.193)" fill="#fff"/>
        </g>
      </g>
      <g id="Group_3096" data-name="Group 3096" transform="translate(-15 -219)">
        <text id="Next" transform="translate(310 1038)" fill="#f2f5f7" font-size="20" font-family="ArialMT, Arial"><tspan x="0" y="0">Next</tspan></text>
        <path id="Icon_ionic-ios-arrow-back-2" data-name="Icon ionic-ios-arrow-back" d="M14.033,14.264l6.109-6.1a1.154,1.154,0,0,0-1.634-1.629l-6.921,6.916a1.152,1.152,0,0,0-.034,1.591L18.5,22a1.154,1.154,0,1,0,1.634-1.629Z" transform="translate(389.251 1046.266) rotate(180)" fill="#f2f5f7"/>
      </g>
    </g>
  </g>
</svg>
