<svg xmlns="http://www.w3.org/2000/svg" xmlns:xlink="http://www.w3.org/1999/xlink" width="6794" height="3996" viewBox="0 0 6794 3996">
  <defs>
    <linearGradient id="linear-gradient" x1="0.5" x2="0.5" y2="1" gradientUnits="objectBoundingBox">
      <stop offset="0" stop-color="#fd5900"/>
      <stop offset="1" stop-color="#ffde00"/>
    </linearGradient>
    <linearGradient id="linear-gradient-2" x1="0.5" x2="0.5" y2="1" gradientUnits="objectBoundingBox">
      <stop offset="0" stop-color="#37aadd"/>
      <stop offset="1" stop-color="#1f64cc"/>
    </linearGradient>
    <linearGradient id="linear-gradient-5" x1="0.5" x2="0.5" y2="1" gradientUnits="objectBoundingBox">
      <stop offset="0" stop-color="#5558ff"/>
      <stop offset="1" stop-color="#00c0ff"/>
    </linearGradient>
    <linearGradient id="linear-gradient-7" x1="0.5" x2="0.5" y2="1" gradientUnits="objectBoundingBox">
      <stop offset="0" stop-color="#fd3a84"/>
      <stop offset="1" stop-color="#ffa68d"/>
    </linearGradient>
    <linearGradient id="linear-gradient-9" x1="0.5" x2="0.5" y2="1" gradientUnits="objectBoundingBox">
      <stop offset="0" stop-color="#a93aff"/>
      <stop offset="1" stop-color="#ff81ff"/>
    </linearGradient>
    <linearGradient id="linear-gradient-13" x1="0.5" x2="0.5" y2="1" gradientUnits="objectBoundingBox">
      <stop offset="0" stop-color="#00b59c"/>
      <stop offset="1" stop-color="#9cffac"/>
    </linearGradient>
    <clipPath id="clip-Artboard_1">
      <rect width="6794" height="3996"/>
    </clipPath>
  </defs>
  <g id="Artboard_1" data-name="Artboard – 1" clip-path="url(#clip-Artboard_1)">
    <rect width="6794" height="3996" fill="#e4e4e4"/>
    <g id="_032-diet" data-name="032-diet" transform="translate(175 525)">
      <g id="Group_2864" data-name="Group 2864">
        <circle id="Ellipse_460" data-name="Ellipse 460" cx="31.5" cy="31.5" r="31.5" fill="#fff"/>
      </g>
      <g id="Group_2866" data-name="Group 2866" transform="translate(19.19 12.866)">
        <g id="Group_2865" data-name="Group 2865">
          <path id="Path_4742" data-name="Path 4742" d="M127.851,109.354H115.879V114.8a3.265,3.265,0,1,1-6.53,0,1.088,1.088,0,0,1,2.177,0,1.088,1.088,0,1,0,2.177,0v-5.442h-2.177v-1.088a1.088,1.088,0,0,1,2.177,0v1.088h2.177v-1.088a3.265,3.265,0,1,0-6.53,0v1.088h-3.265A1.078,1.078,0,0,0,105,110.442v30.475a1.078,1.078,0,0,0,1.088,1.088h21.768a1.078,1.078,0,0,0,1.088-1.088V110.442A1.077,1.077,0,0,0,127.851,109.354Zm-12.3,25.795-2.177,2.177a1.052,1.052,0,0,1-1.524,0l-2.177-2.177a1.077,1.077,0,1,1,1.524-1.524l1.415,1.393,1.415-1.393a1.077,1.077,0,0,1,1.524,1.524Zm0-6.53-2.177,2.177a1.052,1.052,0,0,1-1.524,0l-2.177-2.177a1.077,1.077,0,0,1,1.524-1.524l1.415,1.393,1.415-1.393a1.077,1.077,0,0,1,1.524,1.524Zm0-6.53-2.177,2.177a1.052,1.052,0,0,1-1.524,0l-2.177-2.177a1.077,1.077,0,1,1,1.524-1.524l1.415,1.393,1.415-1.393a1.077,1.077,0,0,1,1.524,1.524Zm7.945,15.564h-4.354a1.088,1.088,0,1,1,0-2.177H123.5a1.088,1.088,0,1,1,0,2.177Zm0-6.53h-4.354a1.088,1.088,0,0,1,0-2.177H123.5a1.088,1.088,0,1,1,0,2.177Zm0-6.53h-4.354a1.088,1.088,0,0,1,0-2.177H123.5a1.088,1.088,0,0,1,0,2.177Z" transform="translate(-104.995 -105)" fill="url(#linear-gradient)"/>
        </g>
      </g>
    </g>
    <g id="_032-diet-2" data-name="032-diet" transform="translate(1107 525)">
      <g id="Group_2864-2" data-name="Group 2864">
        <circle id="Ellipse_460-2" data-name="Ellipse 460" cx="31.5" cy="31.5" r="31.5" fill="#fff"/>
      </g>
      <g id="Group_2866-2" data-name="Group 2866" transform="translate(19.19 12.866)">
        <g id="Group_2865-2" data-name="Group 2865">
          <path id="Path_4742-2" data-name="Path 4742" d="M127.851,109.354H115.879V114.8a3.265,3.265,0,1,1-6.53,0,1.088,1.088,0,0,1,2.177,0,1.088,1.088,0,1,0,2.177,0v-5.442h-2.177v-1.088a1.088,1.088,0,0,1,2.177,0v1.088h2.177v-1.088a3.265,3.265,0,1,0-6.53,0v1.088h-3.265A1.078,1.078,0,0,0,105,110.442v30.475a1.078,1.078,0,0,0,1.088,1.088h21.768a1.078,1.078,0,0,0,1.088-1.088V110.442A1.077,1.077,0,0,0,127.851,109.354Zm-12.3,25.795-2.177,2.177a1.052,1.052,0,0,1-1.524,0l-2.177-2.177a1.077,1.077,0,1,1,1.524-1.524l1.415,1.393,1.415-1.393a1.077,1.077,0,0,1,1.524,1.524Zm0-6.53-2.177,2.177a1.052,1.052,0,0,1-1.524,0l-2.177-2.177a1.077,1.077,0,0,1,1.524-1.524l1.415,1.393,1.415-1.393a1.077,1.077,0,0,1,1.524,1.524Zm0-6.53-2.177,2.177a1.052,1.052,0,0,1-1.524,0l-2.177-2.177a1.077,1.077,0,1,1,1.524-1.524l1.415,1.393,1.415-1.393a1.077,1.077,0,0,1,1.524,1.524Zm7.945,15.564h-4.354a1.088,1.088,0,1,1,0-2.177H123.5a1.088,1.088,0,1,1,0,2.177Zm0-6.53h-4.354a1.088,1.088,0,0,1,0-2.177H123.5a1.088,1.088,0,1,1,0,2.177Zm0-6.53h-4.354a1.088,1.088,0,0,1,0-2.177H123.5a1.088,1.088,0,0,1,0,2.177Z" transform="translate(-104.995 -105)" fill="url(#linear-gradient-2)"/>
        </g>
      </g>
    </g>
    <g id="_045-meditation" data-name="045-meditation" transform="translate(342.63 525)">
      <g id="Group_2858" data-name="Group 2858" transform="translate(0)">
        <ellipse id="Ellipse_458" data-name="Ellipse 458" cx="31" cy="31.5" rx="31" ry="31.5" transform="translate(0.369)" fill="#fff"/>
      </g>
      <g id="Group_2860" data-name="Group 2860" transform="translate(12.919 12.848)">
        <g id="Group_2859" data-name="Group 2859">
          <path id="Path_4740" data-name="Path 4740" d="M127.825,109.348a4.348,4.348,0,1,0-4.348,4.348A4.352,4.352,0,0,0,127.825,109.348Zm13.043,30.433H106.087a1.087,1.087,0,1,0,0,2.174h34.781a1.087,1.087,0,0,0,0-2.174Zm-28.259-8.7a3.261,3.261,0,1,0,0,6.521h21.738a3.261,3.261,0,1,0,0-6.521Zm-4.348-6.521h7.608a3.261,3.261,0,0,0,3.261-3.261v7.608h8.7V121.3a3.261,3.261,0,0,0,3.261,3.261h7.608a1.087,1.087,0,0,0,1.087-1.087,3.261,3.261,0,0,0-3.261-3.261h-4.348a6.528,6.528,0,0,0-6.521-6.521H121.3a6.528,6.528,0,0,0-6.521,6.521h-4.348a3.261,3.261,0,0,0-3.261,3.261A1.087,1.087,0,0,0,108.261,124.564Z" transform="translate(-105 -105)" fill="url(#linear-gradient)"/>
        </g>
      </g>
    </g>
    <g id="_045-meditation-2" data-name="045-meditation" transform="translate(1274.63 525)">
      <g id="Group_2858-2" data-name="Group 2858" transform="translate(0)">
        <ellipse id="Ellipse_458-2" data-name="Ellipse 458" cx="31" cy="31.5" rx="31" ry="31.5" transform="translate(0.369)" fill="#fff"/>
      </g>
      <g id="Group_2860-2" data-name="Group 2860" transform="translate(12.919 12.848)">
        <g id="Group_2859-2" data-name="Group 2859">
          <path id="Path_4740-2" data-name="Path 4740" d="M127.825,109.348a4.348,4.348,0,1,0-4.348,4.348A4.352,4.352,0,0,0,127.825,109.348Zm13.043,30.433H106.087a1.087,1.087,0,1,0,0,2.174h34.781a1.087,1.087,0,0,0,0-2.174Zm-28.259-8.7a3.261,3.261,0,1,0,0,6.521h21.738a3.261,3.261,0,1,0,0-6.521Zm-4.348-6.521h7.608a3.261,3.261,0,0,0,3.261-3.261v7.608h8.7V121.3a3.261,3.261,0,0,0,3.261,3.261h7.608a1.087,1.087,0,0,0,1.087-1.087,3.261,3.261,0,0,0-3.261-3.261h-4.348a6.528,6.528,0,0,0-6.521-6.521H121.3a6.528,6.528,0,0,0-6.521,6.521h-4.348a3.261,3.261,0,0,0-3.261,3.261A1.087,1.087,0,0,0,108.261,124.564Z" transform="translate(-105 -105)" fill="url(#linear-gradient-2)"/>
        </g>
      </g>
    </g>
    <g id="_017-jogging" data-name="017-jogging" transform="translate(512.259 525)">
      <g id="Group_2828" data-name="Group 2828" transform="translate(0)">
        <ellipse id="Ellipse_448" data-name="Ellipse 448" cx="31" cy="31.5" rx="31" ry="31.5" transform="translate(-0.259)" fill="#fff"/>
      </g>
      <g id="Group_2830" data-name="Group 2830" transform="translate(12.675 12.849)">
        <g id="Group_2829" data-name="Group 2829">
          <path id="Path_4730" data-name="Path 4730" d="M112.982,133.26a1.087,1.087,0,1,0,0-2.174h-2.547a1.087,1.087,0,1,0,0,2.174Zm-5.808,3.261a1.086,1.086,0,0,0,1.087,1.087h9.069a1.087,1.087,0,0,0,0-2.174h-9.069A1.086,1.086,0,0,0,107.174,136.521Zm14.551,3.261H106.087a1.087,1.087,0,0,0,0,2.174h15.638a1.087,1.087,0,1,0,0-2.174Zm3.541-24.59a5.052,5.052,0,0,0,3.646-1.5l6.84-6.84a1.087,1.087,0,0,0-.768-1.855H123.734a1.087,1.087,0,0,0-.771.321l-3.486,3.5a2.242,2.242,0,0,0-.421,2.587,7.2,7.2,0,0,0,6.209,3.779Zm15.1,19.613-4.943-3.718H127.78a1.087,1.087,0,0,1,0-2.174h5.335l-.312-2.174h-5.644a1.087,1.087,0,0,1,0-2.174h5.332l-.312-2.174h-5.642a1.087,1.087,0,0,1,0-2.174h5.33l-.357-2.493a6.114,6.114,0,0,0-.905-2.648,7.234,7.234,0,0,1-5.34,2.29,9.3,9.3,0,0,1-8.217-5.121,4.468,4.468,0,0,1,.171-3.982,3.217,3.217,0,0,0-2.684.883l-5.374,5.375,6.917,6.917a1.087,1.087,0,1,1-1.537,1.537l-6.84-6.84a5.429,5.429,0,0,0,.683,6.831l14.846,14.846a14.059,14.059,0,0,0,10.007,4.145h4.739a3.974,3.974,0,0,0,2.393-7.151Z" transform="translate(-105 -105.001)" fill="url(#linear-gradient-5)"/>
        </g>
      </g>
    </g>
    <g id="_017-jogging-2" data-name="017-jogging" transform="translate(1444.259 525)">
      <g id="Group_2828-2" data-name="Group 2828" transform="translate(0)">
        <ellipse id="Ellipse_448-2" data-name="Ellipse 448" cx="31" cy="31.5" rx="31" ry="31.5" transform="translate(-0.259)" fill="#fff"/>
      </g>
      <g id="Group_2830-2" data-name="Group 2830" transform="translate(12.675 12.849)">
        <g id="Group_2829-2" data-name="Group 2829">
          <path id="Path_4730-2" data-name="Path 4730" d="M112.982,133.26a1.087,1.087,0,1,0,0-2.174h-2.547a1.087,1.087,0,1,0,0,2.174Zm-5.808,3.261a1.086,1.086,0,0,0,1.087,1.087h9.069a1.087,1.087,0,0,0,0-2.174h-9.069A1.086,1.086,0,0,0,107.174,136.521Zm14.551,3.261H106.087a1.087,1.087,0,0,0,0,2.174h15.638a1.087,1.087,0,1,0,0-2.174Zm3.541-24.59a5.052,5.052,0,0,0,3.646-1.5l6.84-6.84a1.087,1.087,0,0,0-.768-1.855H123.734a1.087,1.087,0,0,0-.771.321l-3.486,3.5a2.242,2.242,0,0,0-.421,2.587,7.2,7.2,0,0,0,6.209,3.779Zm15.1,19.613-4.943-3.718H127.78a1.087,1.087,0,0,1,0-2.174h5.335l-.312-2.174h-5.644a1.087,1.087,0,0,1,0-2.174h5.332l-.312-2.174h-5.642a1.087,1.087,0,0,1,0-2.174h5.33l-.357-2.493a6.114,6.114,0,0,0-.905-2.648,7.234,7.234,0,0,1-5.34,2.29,9.3,9.3,0,0,1-8.217-5.121,4.468,4.468,0,0,1,.171-3.982,3.217,3.217,0,0,0-2.684.883l-5.374,5.375,6.917,6.917a1.087,1.087,0,1,1-1.537,1.537l-6.84-6.84a5.429,5.429,0,0,0,.683,6.831l14.846,14.846a14.059,14.059,0,0,0,10.007,4.145h4.739a3.974,3.974,0,0,0,2.393-7.151Z" transform="translate(-105 -105.001)" fill="url(#linear-gradient-2)"/>
        </g>
      </g>
    </g>
    <g id="_021-family" data-name="021-family" transform="translate(682.708 525)">
      <g id="Group_2834" data-name="Group 2834" transform="translate(0)">
        <circle id="Ellipse_450" data-name="Ellipse 450" cx="31.5" cy="31.5" r="31.5" transform="translate(0.292)" fill="#fff"/>
      </g>
      <g id="Group_2836" data-name="Group 2836" transform="translate(13.121 15.022)">
        <g id="Group_2835" data-name="Group 2835">
          <path id="Path_4732" data-name="Path 4732" d="M116.956,135.808a1.087,1.087,0,1,0,1.087,1.087A1.088,1.088,0,0,0,116.956,135.808Zm13.043,0a1.087,1.087,0,1,0,1.087,1.087A1.088,1.088,0,0,0,130,135.808Zm-13.043,6.521a3.264,3.264,0,0,0-3.261,3.261v3.651a47.667,47.667,0,0,0,6.521,4.5V145.59A3.264,3.264,0,0,0,116.956,142.329Zm25-8.333c0-6.3-4.3-11.231-9.782-11.231a11.717,11.717,0,0,0-8.7,3.912,11.719,11.719,0,0,0-8.7-3.912C109.3,122.765,105,127.7,105,134c0,3,1.076,7.917,6.521,13.275V145.59a5.441,5.441,0,0,1,5.434-5.435,3.261,3.261,0,1,1,3.261-3.261,3.264,3.264,0,0,1-3.261,3.261,5.441,5.441,0,0,1,5.435,5.435v9.338c.2.107.381.215.587.322a1.085,1.085,0,0,0,1,0c.206-.107.385-.215.587-.322V145.59A5.441,5.441,0,0,1,130,140.155a3.261,3.261,0,1,1,3.261-3.261A3.264,3.264,0,0,1,130,140.155a5.441,5.441,0,0,1,5.435,5.435v1.681c5.445-5.358,6.521-10.274,6.521-13.275ZM130,142.329a3.264,3.264,0,0,0-3.261,3.261v8.147a47.665,47.665,0,0,0,6.521-4.5V145.59A3.264,3.264,0,0,0,130,142.329Z" transform="translate(-105 -122.765)" fill="url(#linear-gradient-7)"/>
        </g>
      </g>
    </g>
    <g id="_021-family-2" data-name="021-family" transform="translate(1614.708 525)">
      <g id="Group_2834-2" data-name="Group 2834" transform="translate(0)">
        <circle id="Ellipse_450-2" data-name="Ellipse 450" cx="31.5" cy="31.5" r="31.5" transform="translate(0.292)" fill="#fff"/>
      </g>
      <g id="Group_2836-2" data-name="Group 2836" transform="translate(13.121 15.022)">
        <g id="Group_2835-2" data-name="Group 2835">
          <path id="Path_4732-2" data-name="Path 4732" d="M116.956,135.808a1.087,1.087,0,1,0,1.087,1.087A1.088,1.088,0,0,0,116.956,135.808Zm13.043,0a1.087,1.087,0,1,0,1.087,1.087A1.088,1.088,0,0,0,130,135.808Zm-13.043,6.521a3.264,3.264,0,0,0-3.261,3.261v3.651a47.667,47.667,0,0,0,6.521,4.5V145.59A3.264,3.264,0,0,0,116.956,142.329Zm25-8.333c0-6.3-4.3-11.231-9.782-11.231a11.717,11.717,0,0,0-8.7,3.912,11.719,11.719,0,0,0-8.7-3.912C109.3,122.765,105,127.7,105,134c0,3,1.076,7.917,6.521,13.275V145.59a5.441,5.441,0,0,1,5.434-5.435,3.261,3.261,0,1,1,3.261-3.261,3.264,3.264,0,0,1-3.261,3.261,5.441,5.441,0,0,1,5.435,5.435v9.338c.2.107.381.215.587.322a1.085,1.085,0,0,0,1,0c.206-.107.385-.215.587-.322V145.59A5.441,5.441,0,0,1,130,140.155a3.261,3.261,0,1,1,3.261-3.261A3.264,3.264,0,0,1,130,140.155a5.441,5.441,0,0,1,5.435,5.435v1.681c5.445-5.358,6.521-10.274,6.521-13.275ZM130,142.329a3.264,3.264,0,0,0-3.261,3.261v8.147a47.665,47.665,0,0,0,6.521-4.5V145.59A3.264,3.264,0,0,0,130,142.329Z" transform="translate(-105 -122.765)" fill="url(#linear-gradient-2)"/>
        </g>
      </g>
    </g>
    <g id="_033-green_tea" data-name="033-green tea" transform="translate(175 693.376)">
      <g id="Group_2843" data-name="Group 2843" transform="translate(0)">
        <ellipse id="Ellipse_453" data-name="Ellipse 453" cx="31.5" cy="31" rx="31.5" ry="31" transform="translate(0 -0.376)" fill="#fff"/>
      </g>
      <g id="Group_2845" data-name="Group 2845" transform="translate(12.753 12.5)">
        <g id="Group_2844" data-name="Group 2844">
          <path id="Path_4735" data-name="Path 4735" d="M130,139.78H110.435a1.087,1.087,0,1,0,0,2.174H130a1.087,1.087,0,1,0,0-2.174Zm-10.55-25.767a1.087,1.087,0,0,0,1.537,1.537,4.165,4.165,0,0,0,0-5.885,1.99,1.99,0,0,1,0-2.811,1.087,1.087,0,1,0-1.537-1.537,4.165,4.165,0,0,0,0,5.885A1.99,1.99,0,0,1,119.448,114.013Zm-5.621,2.174a1.087,1.087,0,0,0,1.537,1.537,4.165,4.165,0,0,0,0-5.884,1.99,1.99,0,0,1,0-2.811,1.087,1.087,0,1,0-1.537-1.537,4.165,4.165,0,0,0,0,5.885A1.989,1.989,0,0,1,113.827,116.187Zm11.243,0a1.087,1.087,0,0,0,1.537,1.537,4.165,4.165,0,0,0,0-5.884,1.99,1.99,0,0,1,0-2.811,1.087,1.087,0,1,0-1.537-1.537,4.165,4.165,0,0,0,0,5.885A1.99,1.99,0,0,1,125.069,116.187Zm11.451,4.029H106.087A1.086,1.086,0,0,0,105,121.3v2.174a14.146,14.146,0,0,0,14.13,14.13H121.3a14.079,14.079,0,0,0,10.172-4.348h1.556c5.338,0,8.923-3.934,8.923-7.608A5.377,5.377,0,0,0,136.52,120.216Zm-10.869,7.608a5.435,5.435,0,0,1-10.869,0V125.65a1.086,1.086,0,0,1,1.087-1.087,5.414,5.414,0,0,1,4.348,2.207,5.414,5.414,0,0,1,4.348-2.207,1.086,1.086,0,0,1,1.087,1.087v2.174Zm7.549,3.246a14.031,14.031,0,0,0,2.233-7.593V122.39h1.087a3.19,3.19,0,0,1,3.261,3.261C139.781,128.183,137.083,130.987,133.2,131.07ZM121.3,130v.9a3.267,3.267,0,0,0,2.174-3.075v-.9A3.267,3.267,0,0,0,121.3,130Zm-4.348-3.075v.9a3.267,3.267,0,0,0,2.174,3.075V130A3.268,3.268,0,0,0,116.956,126.923Z" transform="translate(-105 -104.999)" fill="url(#linear-gradient-9)"/>
        </g>
      </g>
    </g>
    <g id="_033-green_tea-2" data-name="033-green tea" transform="translate(1107 693.376)">
      <g id="Group_2843-2" data-name="Group 2843" transform="translate(0)">
        <ellipse id="Ellipse_453-2" data-name="Ellipse 453" cx="31.5" cy="31" rx="31.5" ry="31" transform="translate(0 -0.376)" fill="#fff"/>
      </g>
      <g id="Group_2845-2" data-name="Group 2845" transform="translate(12.753 12.5)">
        <g id="Group_2844-2" data-name="Group 2844">
          <path id="Path_4735-2" data-name="Path 4735" d="M130,139.78H110.435a1.087,1.087,0,1,0,0,2.174H130a1.087,1.087,0,1,0,0-2.174Zm-10.55-25.767a1.087,1.087,0,0,0,1.537,1.537,4.165,4.165,0,0,0,0-5.885,1.99,1.99,0,0,1,0-2.811,1.087,1.087,0,1,0-1.537-1.537,4.165,4.165,0,0,0,0,5.885A1.99,1.99,0,0,1,119.448,114.013Zm-5.621,2.174a1.087,1.087,0,0,0,1.537,1.537,4.165,4.165,0,0,0,0-5.884,1.99,1.99,0,0,1,0-2.811,1.087,1.087,0,1,0-1.537-1.537,4.165,4.165,0,0,0,0,5.885A1.989,1.989,0,0,1,113.827,116.187Zm11.243,0a1.087,1.087,0,0,0,1.537,1.537,4.165,4.165,0,0,0,0-5.884,1.99,1.99,0,0,1,0-2.811,1.087,1.087,0,1,0-1.537-1.537,4.165,4.165,0,0,0,0,5.885A1.99,1.99,0,0,1,125.069,116.187Zm11.451,4.029H106.087A1.086,1.086,0,0,0,105,121.3v2.174a14.146,14.146,0,0,0,14.13,14.13H121.3a14.079,14.079,0,0,0,10.172-4.348h1.556c5.338,0,8.923-3.934,8.923-7.608A5.377,5.377,0,0,0,136.52,120.216Zm-10.869,7.608a5.435,5.435,0,0,1-10.869,0V125.65a1.086,1.086,0,0,1,1.087-1.087,5.414,5.414,0,0,1,4.348,2.207,5.414,5.414,0,0,1,4.348-2.207,1.086,1.086,0,0,1,1.087,1.087v2.174Zm7.549,3.246a14.031,14.031,0,0,0,2.233-7.593V122.39h1.087a3.19,3.19,0,0,1,3.261,3.261C139.781,128.183,137.083,130.987,133.2,131.07ZM121.3,130v.9a3.267,3.267,0,0,0,2.174-3.075v-.9A3.267,3.267,0,0,0,121.3,130Zm-4.348-3.075v.9a3.267,3.267,0,0,0,2.174,3.075V130A3.268,3.268,0,0,0,116.956,126.923Z" transform="translate(-105 -104.999)" fill="url(#linear-gradient-2)"/>
        </g>
      </g>
    </g>
    <g id="_036-detox" data-name="036-detox" transform="translate(341.903 693.376)">
      <g id="Group_2849" data-name="Group 2849" transform="translate(0)">
        <ellipse id="Ellipse_455" data-name="Ellipse 455" cx="31.5" cy="31" rx="31.5" ry="31" transform="translate(0.097 -0.376)" fill="#fff"/>
      </g>
      <g id="Group_2851" data-name="Group 2851" transform="translate(16.44 12.5)">
        <g id="Group_2850" data-name="Group 2850">
          <path id="Path_4737" data-name="Path 4737" d="M160.881,105h-7.117a5.451,5.451,0,0,0-5.376,4.674l-.566,4.022h2.2l.522-3.717a3.256,3.256,0,0,1,3.221-2.8h7.117a1.087,1.087,0,1,0,0-2.174Zm-24.745,9.043a1.215,1.215,0,0,0-.283.848l.7,7.5H137.7a15.6,15.6,0,0,0,7.465-2.065c.587-.3,1.175-.587,1.828-.87l.827-5.76H136.941A1.139,1.139,0,0,0,136.136,114.043Zm17.8,4h1.219l.283-3.152a1.214,1.214,0,0,0-.283-.848,1.139,1.139,0,0,0-.805-.348h-4.331l-.718,4.956A19.038,19.038,0,0,1,153.938,118.043Zm-7.805,4.233a17.724,17.724,0,0,1-8.366,2.289H136.74l1.289,14.129a3.266,3.266,0,0,0,3.265,3.261H150a3.24,3.24,0,0,0,3.26-3.162l1.691-18.576h-.978A15.736,15.736,0,0,0,146.133,122.276Zm-4.867-10.754a5.422,5.422,0,1,0-7.182,7.865l-.395-4.308a3.263,3.263,0,0,1,3.252-3.557h4.325Z" transform="translate(-131.5 -105)" fill="url(#linear-gradient)"/>
        </g>
      </g>
    </g>
    <g id="_036-detox-2" data-name="036-detox" transform="translate(1273.903 693.376)">
      <g id="Group_2849-2" data-name="Group 2849" transform="translate(0)">
        <ellipse id="Ellipse_455-2" data-name="Ellipse 455" cx="31.5" cy="31" rx="31.5" ry="31" transform="translate(0.097 -0.376)" fill="#fff"/>
      </g>
      <g id="Group_2851-2" data-name="Group 2851" transform="translate(16.44 12.5)">
        <g id="Group_2850-2" data-name="Group 2850">
          <path id="Path_4737-2" data-name="Path 4737" d="M160.881,105h-7.117a5.451,5.451,0,0,0-5.376,4.674l-.566,4.022h2.2l.522-3.717a3.256,3.256,0,0,1,3.221-2.8h7.117a1.087,1.087,0,1,0,0-2.174Zm-24.745,9.043a1.215,1.215,0,0,0-.283.848l.7,7.5H137.7a15.6,15.6,0,0,0,7.465-2.065c.587-.3,1.175-.587,1.828-.87l.827-5.76H136.941A1.139,1.139,0,0,0,136.136,114.043Zm17.8,4h1.219l.283-3.152a1.214,1.214,0,0,0-.283-.848,1.139,1.139,0,0,0-.805-.348h-4.331l-.718,4.956A19.038,19.038,0,0,1,153.938,118.043Zm-7.805,4.233a17.724,17.724,0,0,1-8.366,2.289H136.74l1.289,14.129a3.266,3.266,0,0,0,3.265,3.261H150a3.24,3.24,0,0,0,3.26-3.162l1.691-18.576h-.978A15.736,15.736,0,0,0,146.133,122.276Zm-4.867-10.754a5.422,5.422,0,1,0-7.182,7.865l-.395-4.308a3.263,3.263,0,0,1,3.252-3.557h4.325Z" transform="translate(-131.5 -105)" fill="url(#linear-gradient-2)"/>
        </g>
      </g>
    </g>
    <g id="_040-cycling" data-name="040-cycling" transform="translate(682.708 693.376)">
      <g id="Group_2855" data-name="Group 2855" transform="translate(0)">
        <ellipse id="Ellipse_457" data-name="Ellipse 457" cx="31.5" cy="31" rx="31.5" ry="31" transform="translate(0.292 -0.376)" fill="#fff"/>
      </g>
      <g id="Group_2857" data-name="Group 2857" transform="translate(12.963 19.021)">
        <g id="Group_2856" data-name="Group 2856">
          <path id="Path_4739" data-name="Path 4739" d="M134.358,166.99l-1.109-7.763a1.087,1.087,0,0,0-1.076-.933h-4.348a1.087,1.087,0,0,0,0,2.174h3.405l.31,2.174H119.866l-.87-2.174H121.3a1.087,1.087,0,0,0,0-2.174h-6.521a1.087,1.087,0,0,0,0,2.174h1.873l1.266,3.163-2.371,3.952a7.615,7.615,0,1,0,4.557,8.1h3.37a1.147,1.147,0,0,0,.9-.478c.006-.009,6.237-10.391,6.237-10.391h1.237l.359,2.517a7.5,7.5,0,1,0,2.148-.342Zm-21.749,13.041a5.435,5.435,0,1,1,0-10.869,5.368,5.368,0,0,1,1.8.329l-2.728,4.546a1.087,1.087,0,0,0,.932,1.646h5.325A5.443,5.443,0,0,1,112.608,180.032Zm1.92-6.521,1.741-2.9a5.415,5.415,0,0,1,1.663,2.9Zm5.578,0a7.558,7.558,0,0,0-2.712-4.778l1.54-2.566,2.938,7.344h-1.766Zm3.566-1.351-2.937-7.344h7.343Zm10.673,7.873A5.421,5.421,0,0,1,132.52,169.5l.75,5.25a1.087,1.087,0,1,0,2.153-.308l-.75-5.248a5.423,5.423,0,0,1-.327,10.836Z" transform="translate(-105 -158.294)" fill="url(#linear-gradient-13)"/>
        </g>
      </g>
    </g>
    <g id="_040-cycling-2" data-name="040-cycling" transform="translate(1614.708 693.376)">
      <g id="Group_2855-2" data-name="Group 2855" transform="translate(0)">
        <ellipse id="Ellipse_457-2" data-name="Ellipse 457" cx="31.5" cy="31" rx="31.5" ry="31" transform="translate(0.292 -0.376)" fill="#fff"/>
      </g>
      <g id="Group_2857-2" data-name="Group 2857" transform="translate(12.963 19.021)">
        <g id="Group_2856-2" data-name="Group 2856">
          <path id="Path_4739-2" data-name="Path 4739" d="M134.358,166.99l-1.109-7.763a1.087,1.087,0,0,0-1.076-.933h-4.348a1.087,1.087,0,0,0,0,2.174h3.405l.31,2.174H119.866l-.87-2.174H121.3a1.087,1.087,0,0,0,0-2.174h-6.521a1.087,1.087,0,0,0,0,2.174h1.873l1.266,3.163-2.371,3.952a7.615,7.615,0,1,0,4.557,8.1h3.37a1.147,1.147,0,0,0,.9-.478c.006-.009,6.237-10.391,6.237-10.391h1.237l.359,2.517a7.5,7.5,0,1,0,2.148-.342Zm-21.749,13.041a5.435,5.435,0,1,1,0-10.869,5.368,5.368,0,0,1,1.8.329l-2.728,4.546a1.087,1.087,0,0,0,.932,1.646h5.325A5.443,5.443,0,0,1,112.608,180.032Zm1.92-6.521,1.741-2.9a5.415,5.415,0,0,1,1.663,2.9Zm5.578,0a7.558,7.558,0,0,0-2.712-4.778l1.54-2.566,2.938,7.344h-1.766Zm3.566-1.351-2.937-7.344h7.343Zm10.673,7.873A5.421,5.421,0,0,1,132.52,169.5l.75,5.25a1.087,1.087,0,1,0,2.153-.308l-.75-5.248a5.423,5.423,0,0,1-.327,10.836Z" transform="translate(-105 -158.294)" fill="url(#linear-gradient-2)"/>
        </g>
      </g>
    </g>
    <g id="_001-reading_book" data-name="001-reading book" transform="translate(509.736 692.042)">
      <g id="Group_2816" data-name="Group 2816">
        <circle id="Ellipse_444" data-name="Ellipse 444" cx="32.5" cy="32.5" r="32.5" transform="translate(0.263 -0.042)" fill="#fff"/>
      </g>
      <g id="Group_2818" data-name="Group 2818" transform="translate(13.053 16.307)">
        <g id="Group_2817" data-name="Group 2817">
          <path id="Path_4726" data-name="Path 4726" d="M142.085,133.895h-3.371v21.351a1.123,1.123,0,0,1-1.124,1.124H126.353a1.124,1.124,0,0,0-1.124,1.124,1.124,1.124,0,0,1-2.247,0,1.124,1.124,0,0,0-1.124-1.124H110.621a1.123,1.123,0,0,1-1.124-1.124V133.895h-3.371A1.123,1.123,0,0,0,105,135.018V159.74a1.123,1.123,0,0,0,1.124,1.124h13.485a1.124,1.124,0,0,1,1.124,1.124,1.123,1.123,0,0,0,1.124,1.124h4.495a1.123,1.123,0,0,0,1.124-1.124,1.124,1.124,0,0,1,1.124-1.124h13.485a1.123,1.123,0,0,0,1.124-1.124V135.018A1.123,1.123,0,0,0,142.085,133.895Zm-5.619,20.227V132.771a1.124,1.124,0,0,0-1.124-1.124h-8.99a1.124,1.124,0,0,0-1.124,1.124v21.562a3.33,3.33,0,0,1,1.124-.211h10.114Zm-7.866-19.1H133.1a1.124,1.124,0,1,1,0,2.247H128.6a1.124,1.124,0,0,1,0-2.247Zm0,4.495H133.1a1.124,1.124,0,0,1,0,2.247H128.6a1.124,1.124,0,0,1,0-2.247Zm0,4.5H133.1a1.124,1.124,0,0,1,0,2.247H128.6a1.124,1.124,0,0,1,0-2.247Zm0,4.495H133.1a1.124,1.124,0,0,1,0,2.247H128.6a1.124,1.124,0,0,1,0-2.247Zm-5.619,5.83V132.771a1.124,1.124,0,0,0-1.124-1.124h-8.99a1.124,1.124,0,0,0-1.124,1.124v21.351h10.114A3.327,3.327,0,0,1,122.982,154.333Zm-3.371-3.582h-4.495a1.124,1.124,0,1,1,0-2.247h4.495a1.124,1.124,0,1,1,0,2.247Zm0-4.495h-4.495a1.124,1.124,0,1,1,0-2.247h4.495a1.124,1.124,0,1,1,0,2.247Zm0-4.5h-4.495a1.124,1.124,0,0,1,0-2.247h4.495a1.124,1.124,0,0,1,0,2.247Zm0-4.495h-4.495a1.124,1.124,0,1,1,0-2.247h4.495a1.124,1.124,0,1,1,0,2.247Z" transform="translate(-105.002 -131.647)" fill="url(#linear-gradient-9)"/>
        </g>
      </g>
    </g>
    <g id="_001-reading_book-2" data-name="001-reading book" transform="translate(1441.736 692.042)">
      <g id="Group_2816-2" data-name="Group 2816">
        <circle id="Ellipse_444-2" data-name="Ellipse 444" cx="32.5" cy="32.5" r="32.5" transform="translate(0.263 -0.042)" fill="#fff"/>
      </g>
      <g id="Group_2818-2" data-name="Group 2818" transform="translate(13.053 16.307)">
        <g id="Group_2817-2" data-name="Group 2817">
          <path id="Path_4726-2" data-name="Path 4726" d="M142.085,133.895h-3.371v21.351a1.123,1.123,0,0,1-1.124,1.124H126.353a1.124,1.124,0,0,0-1.124,1.124,1.124,1.124,0,0,1-2.247,0,1.124,1.124,0,0,0-1.124-1.124H110.621a1.123,1.123,0,0,1-1.124-1.124V133.895h-3.371A1.123,1.123,0,0,0,105,135.018V159.74a1.123,1.123,0,0,0,1.124,1.124h13.485a1.124,1.124,0,0,1,1.124,1.124,1.123,1.123,0,0,0,1.124,1.124h4.495a1.123,1.123,0,0,0,1.124-1.124,1.124,1.124,0,0,1,1.124-1.124h13.485a1.123,1.123,0,0,0,1.124-1.124V135.018A1.123,1.123,0,0,0,142.085,133.895Zm-5.619,20.227V132.771a1.124,1.124,0,0,0-1.124-1.124h-8.99a1.124,1.124,0,0,0-1.124,1.124v21.562a3.33,3.33,0,0,1,1.124-.211h10.114Zm-7.866-19.1H133.1a1.124,1.124,0,1,1,0,2.247H128.6a1.124,1.124,0,0,1,0-2.247Zm0,4.495H133.1a1.124,1.124,0,0,1,0,2.247H128.6a1.124,1.124,0,0,1,0-2.247Zm0,4.5H133.1a1.124,1.124,0,0,1,0,2.247H128.6a1.124,1.124,0,0,1,0-2.247Zm0,4.495H133.1a1.124,1.124,0,0,1,0,2.247H128.6a1.124,1.124,0,0,1,0-2.247Zm-5.619,5.83V132.771a1.124,1.124,0,0,0-1.124-1.124h-8.99a1.124,1.124,0,0,0-1.124,1.124v21.351h10.114A3.327,3.327,0,0,1,122.982,154.333Zm-3.371-3.582h-4.495a1.124,1.124,0,1,1,0-2.247h4.495a1.124,1.124,0,1,1,0,2.247Zm0-4.495h-4.495a1.124,1.124,0,1,1,0-2.247h4.495a1.124,1.124,0,1,1,0,2.247Zm0-4.5h-4.495a1.124,1.124,0,0,1,0-2.247h4.495a1.124,1.124,0,0,1,0,2.247Zm0-4.495h-4.495a1.124,1.124,0,1,1,0-2.247h4.495a1.124,1.124,0,1,1,0,2.247Z" transform="translate(-105.002 -131.647)" fill="url(#linear-gradient-2)"/>
        </g>
      </g>
    </g>
    <g id="_004-morning" data-name="004-morning" transform="translate(175 865.088)">
      <g id="Group_2819" data-name="Group 2819" transform="translate(0)">
        <ellipse id="Ellipse_445" data-name="Ellipse 445" cx="31.5" cy="32" rx="31.5" ry="32" transform="translate(0 -0.087)" fill="#fff"/>
      </g>
      <g id="Group_2821" data-name="Group 2821" transform="translate(12.686 21.175)">
        <g id="Group_2820" data-name="Group 2820">
          <path id="Path_4727" data-name="Path 4727" d="M141.374,187.018h-8.3a9.92,9.92,0,1,0-18.665,0h-8.3a1.1,1.1,0,1,0,0,2.2h35.272a1.1,1.1,0,0,0,0-2.2Zm-17.636-15.432a1.1,1.1,0,0,0,1.1-1.1v-2.2a1.1,1.1,0,0,0-2.2,0v2.2A1.1,1.1,0,0,0,123.738,171.586Zm-15.432,13.227h2.2a1.1,1.1,0,1,0,0-2.2h-2.2a1.1,1.1,0,1,0,0,2.2Zm27.556-1.1a1.1,1.1,0,0,0,1.1,1.1h2.2a1.1,1.1,0,1,0,0-2.2h-2.2A1.1,1.1,0,0,0,135.863,183.711Zm-.118-5.659,1.908-1.1a1.1,1.1,0,0,0-1.1-1.91l-1.908,1.1a1.1,1.1,0,0,0,1.1,1.91ZM129.8,173.21a1.1,1.1,0,0,0,1.506-.4l1.1-1.908a1.1,1.1,0,0,0-1.91-1.1l-1.1,1.908A1.1,1.1,0,0,0,129.8,173.21Zm-13.631-.4a1.1,1.1,0,0,0,1.91-1.1l-1.1-1.908a1.1,1.1,0,0,0-1.91,1.1Zm-6.347,4.143,1.908,1.1a1.1,1.1,0,0,0,1.1-1.91l-1.908-1.1a1.1,1.1,0,0,0-1.1,1.91Z" transform="translate(-105 -167.177)" fill="url(#linear-gradient)"/>
        </g>
      </g>
    </g>
    <g id="_004-morning-2" data-name="004-morning" transform="translate(1107 865.088)">
      <g id="Group_2819-2" data-name="Group 2819" transform="translate(0)">
        <ellipse id="Ellipse_445-2" data-name="Ellipse 445" cx="31.5" cy="32" rx="31.5" ry="32" transform="translate(0 -0.087)" fill="#fff"/>
      </g>
      <g id="Group_2821-2" data-name="Group 2821" transform="translate(12.686 21.175)">
        <g id="Group_2820-2" data-name="Group 2820">
          <path id="Path_4727-2" data-name="Path 4727" d="M141.374,187.018h-8.3a9.92,9.92,0,1,0-18.665,0h-8.3a1.1,1.1,0,1,0,0,2.2h35.272a1.1,1.1,0,0,0,0-2.2Zm-17.636-15.432a1.1,1.1,0,0,0,1.1-1.1v-2.2a1.1,1.1,0,0,0-2.2,0v2.2A1.1,1.1,0,0,0,123.738,171.586Zm-15.432,13.227h2.2a1.1,1.1,0,1,0,0-2.2h-2.2a1.1,1.1,0,1,0,0,2.2Zm27.556-1.1a1.1,1.1,0,0,0,1.1,1.1h2.2a1.1,1.1,0,1,0,0-2.2h-2.2A1.1,1.1,0,0,0,135.863,183.711Zm-.118-5.659,1.908-1.1a1.1,1.1,0,0,0-1.1-1.91l-1.908,1.1a1.1,1.1,0,0,0,1.1,1.91ZM129.8,173.21a1.1,1.1,0,0,0,1.506-.4l1.1-1.908a1.1,1.1,0,0,0-1.91-1.1l-1.1,1.908A1.1,1.1,0,0,0,129.8,173.21Zm-13.631-.4a1.1,1.1,0,0,0,1.91-1.1l-1.1-1.908a1.1,1.1,0,0,0-1.91,1.1Zm-6.347,4.143,1.908,1.1a1.1,1.1,0,0,0,1.1-1.91l-1.908-1.1a1.1,1.1,0,0,0-1.1,1.91Z" transform="translate(-105 -167.177)" fill="url(#linear-gradient-2)"/>
        </g>
      </g>
    </g>
    <g id="_020-treadmill" data-name="020-treadmill" transform="translate(510.464 864.088)">
      <g id="Group_2831" data-name="Group 2831" transform="translate(0)">
        <circle id="Ellipse_449" data-name="Ellipse 449" cx="33" cy="33" r="33" transform="translate(-0.465 -0.087)" fill="#fff"/>
      </g>
      <g id="Group_2833" data-name="Group 2833" transform="translate(12.786 16.403)">
        <g id="Group_2832" data-name="Group 2832">
          <path id="Path_4731" data-name="Path 4731" d="M143.309,124.715a1.129,1.129,0,0,0-1.027-.156l-5.337,1.778h-9.116a2.279,2.279,0,1,0,0,4.558h8.931a1.137,1.137,0,0,0,.361-.059L143,128.876a1.138,1.138,0,0,0,.779-1.081V125.64A1.141,1.141,0,0,0,143.309,124.715ZM137.842,133a3.413,3.413,0,0,1-1.082.176H133.07l-2.283,9.116h7.046l2.525-10.13Zm.242,11.57H110.737a5.7,5.7,0,0,0-1.139,11.279V157.1a1.139,1.139,0,0,0,2.279,0v-1.139h25.068V157.1a1.139,1.139,0,0,0,2.279,0v-1.255a5.7,5.7,0,0,0-1.139-11.279Zm-27.347,6.837a1.139,1.139,0,1,1,1.139-1.139A1.139,1.139,0,0,1,110.737,151.406Zm27.347,0a1.139,1.139,0,1,1,1.139-1.139A1.139,1.139,0,0,1,138.085,151.406Z" transform="translate(-105.04 -124.5)" fill="url(#linear-gradient-5)"/>
        </g>
      </g>
    </g>
    <g id="_020-treadmill-2" data-name="020-treadmill" transform="translate(1442.464 864.088)">
      <g id="Group_2831-2" data-name="Group 2831" transform="translate(0)">
        <circle id="Ellipse_449-2" data-name="Ellipse 449" cx="33" cy="33" r="33" transform="translate(-0.465 -0.087)" fill="#fff"/>
      </g>
      <g id="Group_2833-2" data-name="Group 2833" transform="translate(12.786 16.403)">
        <g id="Group_2832-2" data-name="Group 2832">
          <path id="Path_4731-2" data-name="Path 4731" d="M143.309,124.715a1.129,1.129,0,0,0-1.027-.156l-5.337,1.778h-9.116a2.279,2.279,0,1,0,0,4.558h8.931a1.137,1.137,0,0,0,.361-.059L143,128.876a1.138,1.138,0,0,0,.779-1.081V125.64A1.141,1.141,0,0,0,143.309,124.715ZM137.842,133a3.413,3.413,0,0,1-1.082.176H133.07l-2.283,9.116h7.046l2.525-10.13Zm.242,11.57H110.737a5.7,5.7,0,0,0-1.139,11.279V157.1a1.139,1.139,0,0,0,2.279,0v-1.139h25.068V157.1a1.139,1.139,0,0,0,2.279,0v-1.255a5.7,5.7,0,0,0-1.139-11.279Zm-27.347,6.837a1.139,1.139,0,1,1,1.139-1.139A1.139,1.139,0,0,1,110.737,151.406Zm27.347,0a1.139,1.139,0,1,1,1.139-1.139A1.139,1.139,0,0,1,138.085,151.406Z" transform="translate(-105.04 -124.5)" fill="url(#linear-gradient-2)"/>
        </g>
      </g>
    </g>
    <g id="_035-sleep" data-name="035-sleep" transform="translate(342.631 866.088)">
      <g id="Group_2846" data-name="Group 2846" transform="translate(0)">
        <circle id="Ellipse_454" data-name="Ellipse 454" cx="31" cy="31" r="31" transform="translate(0.369 -0.087)" fill="#fff"/>
      </g>
      <g id="Group_2848" data-name="Group 2848" transform="translate(13.341 13.032)">
        <g id="Group_2847" data-name="Group 2847">
          <path id="Path_4736" data-name="Path 4736" d="M140.608,125.521a9.595,9.595,0,0,1,0-17.587,1.066,1.066,0,0,0,0-1.954,11.727,11.727,0,1,0,0,21.495,1.066,1.066,0,0,0,0-1.953Zm-18.55-8.794a13.864,13.864,0,0,1,.275-2.742,13.851,13.851,0,1,0,10.112,16.143A13.871,13.871,0,0,1,122.058,116.727Zm-2.132,10.661a1.079,1.079,0,0,1-.314.755l-4.263,4.263a1.066,1.066,0,0,1-1.508-1.507l3.952-3.952v-5.955a1.066,1.066,0,1,1,2.132,0v6.4Z" transform="translate(-105 -105)" fill="url(#linear-gradient)"/>
        </g>
      </g>
    </g>
    <g id="_035-sleep-2" data-name="035-sleep" transform="translate(1274.631 866.088)">
      <g id="Group_2846-2" data-name="Group 2846" transform="translate(0)">
        <circle id="Ellipse_454-2" data-name="Ellipse 454" cx="31" cy="31" r="31" transform="translate(0.369 -0.087)" fill="#fff"/>
      </g>
      <g id="Group_2848-2" data-name="Group 2848" transform="translate(13.341 13.032)">
        <g id="Group_2847-2" data-name="Group 2847">
          <path id="Path_4736-2" data-name="Path 4736" d="M140.608,125.521a9.595,9.595,0,0,1,0-17.587,1.066,1.066,0,0,0,0-1.954,11.727,11.727,0,1,0,0,21.495,1.066,1.066,0,0,0,0-1.953Zm-18.55-8.794a13.864,13.864,0,0,1,.275-2.742,13.851,13.851,0,1,0,10.112,16.143A13.871,13.871,0,0,1,122.058,116.727Zm-2.132,10.661a1.079,1.079,0,0,1-.314.755l-4.263,4.263a1.066,1.066,0,0,1-1.508-1.507l3.952-3.952v-5.955a1.066,1.066,0,1,1,2.132,0v6.4Z" transform="translate(-105 -105)" fill="url(#linear-gradient-2)"/>
        </g>
      </g>
    </g>
    <g id="_025-no_fast_food" data-name="025-no fast food" transform="translate(682.708 866.088)">
      <g id="Group_2837" data-name="Group 2837" transform="translate(0)">
        <circle id="Ellipse_451" data-name="Ellipse 451" cx="31.5" cy="31.5" r="31.5" transform="translate(0.292 -0.087)" fill="#fff"/>
      </g>
      <g id="Group_2839" data-name="Group 2839" transform="translate(12.893 13.249)">
        <g id="Group_2838" data-name="Group 2838">
          <path id="Path_4733" data-name="Path 4733" d="M106.084,111.506h28.2a1.085,1.085,0,0,0,1.084-1.085A5.422,5.422,0,0,0,129.943,105h-19.52A5.422,5.422,0,0,0,105,110.422,1.084,1.084,0,0,0,106.084,111.506Zm27.112,4.338v-2.169H107.169v2.169Zm-26.027,6.507H133.2a2.169,2.169,0,1,0,0-4.338H107.169a2.169,2.169,0,0,0,0,4.338Zm27.112,4.338a7.591,7.591,0,1,0,7.591,7.591A7.608,7.608,0,0,0,134.281,126.689Zm0,13.014a5.414,5.414,0,0,1-4.519-8.408l7.5,7.5A5.385,5.385,0,0,1,134.281,139.7Zm4.519-2.437-7.5-7.5a5.414,5.414,0,0,1,7.5,7.5Zm-32.715-8.408A1.084,1.084,0,0,0,105,129.942a5.422,5.422,0,0,0,5.422,5.422H124.63a9.546,9.546,0,0,1-.11-1.084,9.7,9.7,0,0,1,1.652-5.422H106.084Zm1.085-2.169h21.053a9.65,9.65,0,0,1,4.975-2.059v-.11H107.169Z" transform="translate(-105 -104.999)" fill="url(#linear-gradient)"/>
        </g>
      </g>
    </g>
    <g id="_025-no_fast_food-2" data-name="025-no fast food" transform="translate(1614.708 866.088)">
      <g id="Group_2837-2" data-name="Group 2837" transform="translate(0)">
        <circle id="Ellipse_451-2" data-name="Ellipse 451" cx="31.5" cy="31.5" r="31.5" transform="translate(0.292 -0.087)" fill="#fff"/>
      </g>
      <g id="Group_2839-2" data-name="Group 2839" transform="translate(12.893 13.249)">
        <g id="Group_2838-2" data-name="Group 2838">
          <path id="Path_4733-2" data-name="Path 4733" d="M106.084,111.506h28.2a1.085,1.085,0,0,0,1.084-1.085A5.422,5.422,0,0,0,129.943,105h-19.52A5.422,5.422,0,0,0,105,110.422,1.084,1.084,0,0,0,106.084,111.506Zm27.112,4.338v-2.169H107.169v2.169Zm-26.027,6.507H133.2a2.169,2.169,0,1,0,0-4.338H107.169a2.169,2.169,0,0,0,0,4.338Zm27.112,4.338a7.591,7.591,0,1,0,7.591,7.591A7.608,7.608,0,0,0,134.281,126.689Zm0,13.014a5.414,5.414,0,0,1-4.519-8.408l7.5,7.5A5.385,5.385,0,0,1,134.281,139.7Zm4.519-2.437-7.5-7.5a5.414,5.414,0,0,1,7.5,7.5Zm-32.715-8.408A1.084,1.084,0,0,0,105,129.942a5.422,5.422,0,0,0,5.422,5.422H124.63a9.546,9.546,0,0,1-.11-1.084,9.7,9.7,0,0,1,1.652-5.422H106.084Zm1.085-2.169h21.053a9.65,9.65,0,0,1,4.975-2.059v-.11H107.169Z" transform="translate(-105 -104.999)" fill="url(#linear-gradient-2)"/>
        </g>
      </g>
    </g>
    <text id="Task" transform="translate(184 621)" fill="#2e5b9f" font-size="18" font-family="Poppins-Bold, Poppins" font-weight="700"><tspan x="0" y="0">Task</tspan></text>
    <text id="Task-2" data-name="Task" transform="translate(1116 621)" fill="#2e5b9f" font-size="18" font-family="Poppins-Bold, Poppins" font-weight="700"><tspan x="0" y="0">Task</tspan></text>
    <text id="Meditation_" data-name="Meditation " transform="translate(321 621)" fill="#2e5b9f" font-size="18" font-family="Poppins-Bold, Poppins" font-weight="700"><tspan x="0" y="0">Meditation </tspan></text>
    <text id="Meditation_2" data-name="Meditation " transform="translate(1253 621)" fill="#2e5b9f" font-size="18" font-family="Poppins-Bold, Poppins" font-weight="700"><tspan x="0" y="0">Meditation </tspan></text>
    <text id="Track_pill" data-name="Track pill" transform="translate(164 1134)" fill="#2e5b9f" font-size="18" font-family="Poppins-Bold, Poppins" font-weight="700"><tspan x="0" y="0">Track pill</tspan></text>
    <text id="Track_pill-2" data-name="Track pill" transform="translate(1096 1134)" fill="#2e5b9f" font-size="18" font-family="Poppins-Bold, Poppins" font-weight="700"><tspan x="0" y="0">Track pill</tspan></text>
    <text id="Detox" transform="translate(347 1134)" fill="#2e5b9f" font-size="18" font-family="Poppins-Bold, Poppins" font-weight="700"><tspan x="0" y="0">Detox</tspan></text>
    <text id="Detox-2" data-name="Detox" transform="translate(1279 1134)" fill="#2e5b9f" font-size="18" font-family="Poppins-Bold, Poppins" font-weight="700"><tspan x="0" y="0">Detox</tspan></text>
    <text id="Social" transform="translate(687 621)" fill="#2e5b9f" font-size="18" font-family="Poppins-Bold, Poppins" font-weight="700"><tspan x="0" y="0">Social</tspan></text>
    <text id="Social-2" data-name="Social" transform="translate(1619 621)" fill="#2e5b9f" font-size="18" font-family="Poppins-Bold, Poppins" font-weight="700"><tspan x="0" y="0">Social</tspan></text>
    <text id="Mental_compulsion" data-name="Mental compulsion" transform="translate(3580 551)" fill="#2e5b9f" font-size="18" font-family="Poppins-Bold, Poppins" font-weight="700"><tspan x="0" y="0">Mental compulsion</tspan></text>
    <text id="Cost_analysis" data-name="Cost analysis" transform="translate(3964 551)" fill="#2e5b9f" font-size="18" font-family="Poppins-Bold, Poppins" font-weight="700"><tspan x="0" y="0">Cost analysis</tspan></text>
    <text id="Compulsion" transform="translate(3284 551)" fill="#2e5b9f" font-size="18" font-family="Poppins-Bold, Poppins" font-weight="700"><tspan x="0" y="0">Compulsion</tspan></text>
    <text id="Obsession_" data-name="Obsession " transform="translate(3004 551)" fill="#2e5b9f" font-size="18" font-family="Poppins-Bold, Poppins" font-weight="700"><tspan x="0" y="0">Obsession </tspan></text>
    <text id="Health" transform="translate(176 789)" fill="#2e5b9f" font-size="18" font-family="Poppins-Bold, Poppins" font-weight="700"><tspan x="0" y="0">Health</tspan></text>
    <text id="Health-2" data-name="Health" transform="translate(1108 789)" fill="#2e5b9f" font-size="18" font-family="Poppins-Bold, Poppins" font-weight="700"><tspan x="0" y="0">Health</tspan></text>
    <text id="Nutrition" transform="translate(333 789)" fill="#2e5b9f" font-size="18" font-family="Poppins-Bold, Poppins" font-weight="700"><tspan x="0" y="0">Nutrition</tspan></text>
    <text id="Nutrition-2" data-name="Nutrition" transform="translate(1265 789)" fill="#2e5b9f" font-size="18" font-family="Poppins-Bold, Poppins" font-weight="700"><tspan x="0" y="0">Nutrition</tspan></text>
    <text id="Study" transform="translate(516 789)" fill="#2e5b9f" font-size="18" font-family="Poppins-Bold, Poppins" font-weight="700"><tspan x="0" y="0">Study</tspan></text>
    <text id="Study-2" data-name="Study" transform="translate(1448 789)" fill="#2e5b9f" font-size="18" font-family="Poppins-Bold, Poppins" font-weight="700"><tspan x="0" y="0">Study</tspan></text>
    <text id="Outdoor" transform="translate(677 789)" fill="#2e5b9f" font-size="18" font-family="Poppins-Bold, Poppins" font-weight="700"><tspan x="0" y="0">Outdoor</tspan></text>
    <text id="Outdoor-2" data-name="Outdoor" transform="translate(1609 789)" fill="#2e5b9f" font-size="18" font-family="Poppins-Bold, Poppins" font-weight="700"><tspan x="0" y="0">Outdoor</tspan></text>
    <text id="Wake_up" data-name="Wake up" transform="translate(165 960)" fill="#2e5b9f" font-size="18" font-family="Poppins-Bold, Poppins" font-weight="700"><tspan x="0" y="0">Wake up</tspan></text>
    <text id="Wake_up-2" data-name="Wake up" transform="translate(1097 960)" fill="#2e5b9f" font-size="18" font-family="Poppins-Bold, Poppins" font-weight="700"><tspan x="0" y="0">Wake up</tspan></text>
    <text id="Sleep" transform="translate(348 960)" fill="#2e5b9f" font-size="18" font-family="Poppins-Bold, Poppins" font-weight="700"><tspan x="0" y="0">Sleep</tspan></text>
    <text id="Sleep-2" data-name="Sleep" transform="translate(1280 960)" fill="#2e5b9f" font-size="18" font-family="Poppins-Bold, Poppins" font-weight="700"><tspan x="0" y="0">Sleep</tspan></text>
    <text id="Running" transform="translate(504 960)" fill="#2e5b9f" font-size="18" font-family="Poppins-Bold, Poppins" font-weight="700"><tspan x="0" y="0">Running</tspan></text>
    <text id="Running-2" data-name="Running" transform="translate(1436 960)" fill="#2e5b9f" font-size="18" font-family="Poppins-Bold, Poppins" font-weight="700"><tspan x="0" y="0">Running</tspan></text>
    <text id="No_junk_food" data-name="No junk food" transform="translate(657 960)" fill="#2e5b9f" font-size="18" font-family="Poppins-Bold, Poppins" font-weight="700"><tspan x="0" y="0">No junk food</tspan></text>
    <text id="No_junk_food-2" data-name="No junk food" transform="translate(1589 960)" fill="#2e5b9f" font-size="18" font-family="Poppins-Bold, Poppins" font-weight="700"><tspan x="0" y="0">No junk food</tspan></text>
    <text id="Sports" transform="translate(513 621)" fill="#2e5b9f" font-size="18" font-family="Poppins-Bold, Poppins" font-weight="700"><tspan x="0" y="0">Sports</tspan></text>
    <text id="Sports-2" data-name="Sports" transform="translate(1445 621)" fill="#2e5b9f" font-size="18" font-family="Poppins-Bold, Poppins" font-weight="700"><tspan x="0" y="0">Sports</tspan></text>
    <g id="_003-medicine" data-name="003-medicine" transform="translate(175 1035)">
      <g id="Group_3802" data-name="Group 3802">
        <g id="Group_3801" data-name="Group 3801">
          <circle id="Ellipse_743" data-name="Ellipse 743" cx="31.5" cy="31.5" r="31.5" fill="#fff"/>
        </g>
      </g>
      <g id="Group_3804" data-name="Group 3804" transform="translate(19.429 12.885)">
        <g id="Group_3803" data-name="Group 3803">
          <path id="Path_9488" data-name="Path 9488" d="M165.952,131.16a1.09,1.09,0,1,0,1.09,1.09A1.091,1.091,0,0,0,165.952,131.16Zm8.717-8.72a1.09,1.09,0,1,0,1.09,1.09,1.091,1.091,0,0,0-1.09-1.09Zm-8.717,0a1.09,1.09,0,1,0,1.09,1.09,1.091,1.091,0,0,0-1.09-1.09Zm0-8.72a1.09,1.09,0,1,0,1.09,1.09A1.091,1.091,0,0,0,165.952,113.72Zm8.717,17.44a1.09,1.09,0,1,0,1.09,1.09A1.091,1.091,0,0,0,174.669,131.16Zm0-17.44a1.09,1.09,0,1,0,1.09,1.09A1.091,1.091,0,0,0,174.669,113.72Zm4.359-8.72H161.593a3.273,3.273,0,0,0-3.269,3.27v30.52a3.273,3.273,0,0,0,3.269,3.27h17.435a3.273,3.273,0,0,0,3.269-3.27V108.27a3.273,3.273,0,0,0-3.269-3.27Zm-13.076,30.52a3.27,3.27,0,1,1,3.269-3.27A3.273,3.273,0,0,1,165.952,135.52Zm0-8.72a3.27,3.27,0,1,1,3.269-3.27A3.273,3.273,0,0,1,165.952,126.8Zm0-8.72a3.27,3.27,0,1,1,3.269-3.27A3.273,3.273,0,0,1,165.952,118.08Zm8.717,17.44a3.27,3.27,0,1,1,3.269-3.27A3.273,3.273,0,0,1,174.669,135.52Zm0-8.72a3.27,3.27,0,1,1,3.269-3.27A3.273,3.273,0,0,1,174.669,126.8Zm0-8.72a3.27,3.27,0,1,1,3.269-3.27A3.273,3.273,0,0,1,174.669,118.08Z" transform="translate(-158.324 -105)" fill="url(#linear-gradient-13)"/>
        </g>
      </g>
    </g>
    <g id="_003-medicine-2" data-name="003-medicine" transform="translate(1107 1035)">
      <g id="Group_3802-2" data-name="Group 3802">
        <g id="Group_3801-2" data-name="Group 3801">
          <circle id="Ellipse_743-2" data-name="Ellipse 743" cx="31.5" cy="31.5" r="31.5" fill="#fff"/>
        </g>
      </g>
      <g id="Group_3804-2" data-name="Group 3804" transform="translate(19.429 12.885)">
        <g id="Group_3803-2" data-name="Group 3803">
          <path id="Path_9488-2" data-name="Path 9488" d="M165.952,131.16a1.09,1.09,0,1,0,1.09,1.09A1.091,1.091,0,0,0,165.952,131.16Zm8.717-8.72a1.09,1.09,0,1,0,1.09,1.09,1.091,1.091,0,0,0-1.09-1.09Zm-8.717,0a1.09,1.09,0,1,0,1.09,1.09,1.091,1.091,0,0,0-1.09-1.09Zm0-8.72a1.09,1.09,0,1,0,1.09,1.09A1.091,1.091,0,0,0,165.952,113.72Zm8.717,17.44a1.09,1.09,0,1,0,1.09,1.09A1.091,1.091,0,0,0,174.669,131.16Zm0-17.44a1.09,1.09,0,1,0,1.09,1.09A1.091,1.091,0,0,0,174.669,113.72Zm4.359-8.72H161.593a3.273,3.273,0,0,0-3.269,3.27v30.52a3.273,3.273,0,0,0,3.269,3.27h17.435a3.273,3.273,0,0,0,3.269-3.27V108.27a3.273,3.273,0,0,0-3.269-3.27Zm-13.076,30.52a3.27,3.27,0,1,1,3.269-3.27A3.273,3.273,0,0,1,165.952,135.52Zm0-8.72a3.27,3.27,0,1,1,3.269-3.27A3.273,3.273,0,0,1,165.952,126.8Zm0-8.72a3.27,3.27,0,1,1,3.269-3.27A3.273,3.273,0,0,1,165.952,118.08Zm8.717,17.44a3.27,3.27,0,1,1,3.269-3.27A3.273,3.273,0,0,1,174.669,135.52Zm0-8.72a3.27,3.27,0,1,1,3.269-3.27A3.273,3.273,0,0,1,174.669,126.8Zm0-8.72a3.27,3.27,0,1,1,3.269-3.27A3.273,3.273,0,0,1,174.669,118.08Z" transform="translate(-158.324 -105)" fill="url(#linear-gradient-2)"/>
        </g>
      </g>
    </g>
    <g id="_046-no_smoking" data-name="046-no smoking" transform="translate(342.163 1035)">
      <g id="Group_3805" data-name="Group 3805" transform="translate(-0.162)">
        <circle id="Ellipse_744" data-name="Ellipse 744" cx="31.5" cy="31.5" r="31.5" transform="translate(0)" fill="#fff"/>
      </g>
      <g id="Group_3807" data-name="Group 3807" transform="translate(12.893 12.885)">
        <g id="Group_3806" data-name="Group 3806">
          <path id="Path_9489" data-name="Path 9489" d="M123.53,105a18.53,18.53,0,1,0,18.53,18.53A18.553,18.553,0,0,0,123.53,105Zm0,34.88a16.325,16.325,0,0,1-12.293-27.1l9.655,9.655h-.632v6.54h7.172l6.843,6.843A16.264,16.264,0,0,1,123.53,139.88Zm12.293-5.6-23.038-23.038a16.325,16.325,0,0,1,23.038,23.038ZM111.54,123.53v4.36a1.079,1.079,0,0,0,1.09,1.09h5.45v-6.54h-5.45A1.079,1.079,0,0,0,111.54,123.53Zm22.89-1.09h-7.368l6.54,6.54h.828a1.079,1.079,0,0,0,1.09-1.09v-4.36A1.079,1.079,0,0,0,134.43,122.44Zm-4.36-8.72h-4.36a1.056,1.056,0,0,1-1.091-1.039,1.09,1.09,0,1,0-2.179-.051v1.09a4.36,4.36,0,0,0,4.36,4.36h3.27a3.265,3.265,0,0,1,3.069,2.18h1.291a3.233,3.233,0,0,1,1.09.2V119.17A5.45,5.45,0,0,0,130.07,113.72Z" transform="translate(-105 -105)" fill="url(#linear-gradient-7)"/>
        </g>
      </g>
    </g>
    <g id="_046-no_smoking-2" data-name="046-no smoking" transform="translate(1274.163 1035)">
      <g id="Group_3805-2" data-name="Group 3805" transform="translate(-0.162)">
        <circle id="Ellipse_744-2" data-name="Ellipse 744" cx="31.5" cy="31.5" r="31.5" transform="translate(0)" fill="#fff"/>
      </g>
      <g id="Group_3807-2" data-name="Group 3807" transform="translate(12.893 12.885)">
        <g id="Group_3806-2" data-name="Group 3806">
          <path id="Path_9489-2" data-name="Path 9489" d="M123.53,105a18.53,18.53,0,1,0,18.53,18.53A18.553,18.553,0,0,0,123.53,105Zm0,34.88a16.325,16.325,0,0,1-12.293-27.1l9.655,9.655h-.632v6.54h7.172l6.843,6.843A16.264,16.264,0,0,1,123.53,139.88Zm12.293-5.6-23.038-23.038a16.325,16.325,0,0,1,23.038,23.038ZM111.54,123.53v4.36a1.079,1.079,0,0,0,1.09,1.09h5.45v-6.54h-5.45A1.079,1.079,0,0,0,111.54,123.53Zm22.89-1.09h-7.368l6.54,6.54h.828a1.079,1.079,0,0,0,1.09-1.09v-4.36A1.079,1.079,0,0,0,134.43,122.44Zm-4.36-8.72h-4.36a1.056,1.056,0,0,1-1.091-1.039,1.09,1.09,0,1,0-2.179-.051v1.09a4.36,4.36,0,0,0,4.36,4.36h3.27a3.265,3.265,0,0,1,3.069,2.18h1.291a3.233,3.233,0,0,1,1.09.2V119.17A5.45,5.45,0,0,0,130.07,113.72Z" transform="translate(-105 -105)" fill="url(#linear-gradient-2)"/>
        </g>
      </g>
    </g>
    <text id="Habit_and_task_icons" data-name="Habit and task icons" transform="translate(149 309)" fill="#0e58c7" font-size="185" font-family="Arial-BoldMT, Arial" font-weight="700"><tspan x="0" y="0">Habit and task icons</tspan></text>
    <text id="Exerscise" transform="translate(3035 332)" fill="#0e58c7" font-size="185" font-family="Arial-BoldMT, Arial" font-weight="700"><tspan x="0" y="0">Exerscise</tspan></text>
    <g id="Group_3368" data-name="Group 3368" transform="translate(3627 475)">
      <circle id="Ellipse_616" data-name="Ellipse 616" cx="23.5" cy="23.5" r="23.5" fill="#edf4fd"/>
      <g id="_017-confusion" data-name="017-confusion" transform="translate(10 7)">
        <g id="Group_3228" data-name="Group 3228" transform="translate(0 0)">
          <path id="Path_6415" data-name="Path 6415" d="M145.2,255.147a.617.617,0,1,0,.617.617.617.617,0,0,0-.617-.617Z" transform="translate(-139.736 -239.403)" fill="#1e64cc"/>
          <path id="Path_6416" data-name="Path 6416" d="M89.443,5.478a5.363,5.363,0,0,0-1.666-3.913A5.7,5.7,0,0,0,83.812,0a5.759,5.759,0,0,0-5.621,4.463,10.6,10.6,0,0,0-6.918,3.124,10.381,10.381,0,0,0-3.059,7.361A7.06,7.06,0,0,1,66.687,18.1a2.435,2.435,0,0,0-.5,2.623c.278.541.965,1.175,2.649,1.3v2.7a3.33,3.33,0,0,0,3.341,3.312c1.611,0,2.5.06,2.875.386s.487,1.126.583,2.6a.617.617,0,0,0,.616.577H85.1a.617.617,0,0,0,.616-.657c-.078-1.193-.111-2.073-.105-2.851A.617.617,0,0,0,85,27.463h0a.617.617,0,0,0-.617.613c0,.657.017,1.378.068,2.282H76.828c-.107-1.343-.289-2.289-.966-2.874-.741-.64-1.886-.687-3.682-.687a2.1,2.1,0,0,1-2.107-2.078v-.827a3.347,3.347,0,0,1,1.543.534.617.617,0,1,0,.617-1.069,4.459,4.459,0,0,0-2.16-.7V21.425a.617.617,0,0,0-.617-.617c-1.148,0-1.959-.243-2.168-.651-.148-.289,0-.777.4-1.34.8-1.117,1.757-2.695,1.757-3.869a9.363,9.363,0,0,1,8.57-9.235c0,.085-.005.17-.005.255a1.851,1.851,0,0,0,3.695.16,9.467,9.467,0,0,1,3.059,1.659c-.235.349-.482.682-.7.982l-.179.243a7.438,7.438,0,0,0-1.921,5.18,1.851,1.851,0,0,0,3.7,0,4.32,4.32,0,0,1,1.2-2.994l.063-.086.261-.355a9.115,9.115,0,0,1-.353,9.008,18.67,18.67,0,0,0-1.387,2.649.617.617,0,1,0,1.139.475,17.454,17.454,0,0,1,1.3-2.474,10.355,10.355,0,0,0,.09-10.784,7.613,7.613,0,0,0,1.47-4.153Zm-7.507-.571a2.014,2.014,0,0,1,1.877-1.2A1.8,1.8,0,0,1,85.74,5.478,2.956,2.956,0,0,1,85.4,6.713,10.7,10.7,0,0,0,81.935,4.906Zm3.933,5.561a5.458,5.458,0,0,0-1.439,3.725.617.617,0,1,1-1.234,0,6.229,6.229,0,0,1,1.682-4.45l.176-.239c.811-1.094,1.921-2.593,1.921-4.026a3.021,3.021,0,0,0-3.162-3.009,3.344,3.344,0,0,0-3.332,3.5.617.617,0,0,1-1.234,0,4.6,4.6,0,0,1,4.566-4.734,4.276,4.276,0,0,1,4.4,4.244c0,1.806-1.158,3.381-2.277,4.9Z" transform="translate(-65.994 0)" fill="#1e64cc"/>
          <path id="Path_6417" data-name="Path 6417" d="M328.457,271.852a1.851,1.851,0,1,0-1.851,1.851A1.853,1.853,0,0,0,328.457,271.852Zm-1.851.617a.617.617,0,1,1,.617-.617A.618.618,0,0,1,326.606,272.469Z" transform="translate(-308.788 -253.341)" fill="#1e64cc"/>
          <path id="Path_6418" data-name="Path 6418" d="M368.3,401.473a.617.617,0,0,0,0-1.234h0a.617.617,0,0,0,0,1.234Z" transform="translate(-349.067 -375.542)" fill="#1e64cc"/>
        </g>
      </g>
      <path id="Path_6423" data-name="Path 6423" d="M55.835,578.614a3.589,3.589,0,0,1,3.639-4.011,3.8,3.8,0,0,1,3.916,5.49c-1.109,1.656-3.771,4.219-3.52,6.964" transform="translate(-32 -565.745)" fill="none" stroke="#ff7600" stroke-linecap="round" stroke-width="2"/>
    </g>
    <g id="Group_3808" data-name="Group 3808" transform="translate(3312 475)">
      <circle id="Ellipse_616-2" data-name="Ellipse 616" cx="23.5" cy="23.5" r="23.5" fill="#edf4fd"/>
      <g id="_017-confusion-2" data-name="017-confusion" transform="translate(10 7)">
        <g id="Group_3228-2" data-name="Group 3228" transform="translate(0 0)">
          <path id="Path_6415-2" data-name="Path 6415" d="M145.2,255.147a.617.617,0,1,0,.617.617.617.617,0,0,0-.617-.617Z" transform="translate(-139.736 -239.403)" fill="#1e64cc"/>
          <path id="Path_6416-2" data-name="Path 6416" d="M89.443,5.478a5.363,5.363,0,0,0-1.666-3.913A5.7,5.7,0,0,0,83.812,0a5.759,5.759,0,0,0-5.621,4.463,10.6,10.6,0,0,0-6.918,3.124,10.381,10.381,0,0,0-3.059,7.361A7.06,7.06,0,0,1,66.687,18.1a2.435,2.435,0,0,0-.5,2.623c.278.541.965,1.175,2.649,1.3v2.7a3.33,3.33,0,0,0,3.341,3.312c1.611,0,2.5.06,2.875.386s.487,1.126.583,2.6a.617.617,0,0,0,.616.577H85.1a.617.617,0,0,0,.616-.657c-.078-1.193-.111-2.073-.105-2.851A.617.617,0,0,0,85,27.463h0a.617.617,0,0,0-.617.613c0,.657.017,1.378.068,2.282H76.828c-.107-1.343-.289-2.289-.966-2.874-.741-.64-1.886-.687-3.682-.687a2.1,2.1,0,0,1-2.107-2.078v-.827a3.347,3.347,0,0,1,1.543.534.617.617,0,1,0,.617-1.069,4.459,4.459,0,0,0-2.16-.7V21.425a.617.617,0,0,0-.617-.617c-1.148,0-1.959-.243-2.168-.651-.148-.289,0-.777.4-1.34.8-1.117,1.757-2.695,1.757-3.869a9.363,9.363,0,0,1,8.57-9.235c0,.085-.005.17-.005.255a1.851,1.851,0,0,0,3.695.16,9.467,9.467,0,0,1,3.059,1.659c-.235.349-.482.682-.7.982l-.179.243a7.438,7.438,0,0,0-1.921,5.18,1.851,1.851,0,0,0,3.7,0,4.32,4.32,0,0,1,1.2-2.994l.063-.086.261-.355a9.115,9.115,0,0,1-.353,9.008,18.67,18.67,0,0,0-1.387,2.649.617.617,0,1,0,1.139.475,17.454,17.454,0,0,1,1.3-2.474,10.355,10.355,0,0,0,.09-10.784,7.613,7.613,0,0,0,1.47-4.153Zm-7.507-.571a2.014,2.014,0,0,1,1.877-1.2A1.8,1.8,0,0,1,85.74,5.478,2.956,2.956,0,0,1,85.4,6.713,10.7,10.7,0,0,0,81.935,4.906Zm3.933,5.561a5.458,5.458,0,0,0-1.439,3.725.617.617,0,1,1-1.234,0,6.229,6.229,0,0,1,1.682-4.45l.176-.239c.811-1.094,1.921-2.593,1.921-4.026a3.021,3.021,0,0,0-3.162-3.009,3.344,3.344,0,0,0-3.332,3.5.617.617,0,0,1-1.234,0,4.6,4.6,0,0,1,4.566-4.734,4.276,4.276,0,0,1,4.4,4.244c0,1.806-1.158,3.381-2.277,4.9Z" transform="translate(-65.994 0)" fill="#1e64cc"/>
          <path id="Path_6417-2" data-name="Path 6417" d="M328.457,271.852a1.851,1.851,0,1,0-1.851,1.851A1.853,1.853,0,0,0,328.457,271.852Zm-1.851.617a.617.617,0,1,1,.617-.617A.618.618,0,0,1,326.606,272.469Z" transform="translate(-308.788 -253.341)" fill="#1e64cc"/>
          <path id="Path_6418-2" data-name="Path 6418" d="M368.3,401.473a.617.617,0,0,0,0-1.234h0a.617.617,0,0,0,0,1.234Z" transform="translate(-349.067 -375.542)" fill="#1e64cc"/>
        </g>
      </g>
      <path id="Path_6423-2" data-name="Path 6423" d="M55.835,578.614a3.589,3.589,0,0,1,3.639-4.011,3.8,3.8,0,0,1,3.916,5.49c-1.109,1.656-3.771,4.219-3.52,6.964" transform="translate(-32 -565.745)" fill="none" stroke="#ff7600" stroke-linecap="round" stroke-width="2"/>
    </g>
    <g id="Group_3368-2" data-name="Group 3368" transform="translate(2998 -91)">
      <circle id="Ellipse_616-3" data-name="Ellipse 616" cx="23.5" cy="23.5" r="23.5" transform="translate(32 566)" fill="#edf4fd"/>
      <g id="_001-obsession" data-name="001-obsession" transform="translate(42.901 575.478)">
        <path id="Path_6412" data-name="Path 6412" d="M105.132,255.148a.548.548,0,1,0,.548.548.548.548,0,0,0-.548-.548Z" transform="translate(-100.279 -241.172)" fill="#1e64cc"/>
        <path id="Path_6413" data-name="Path 6413" d="M51.19,7.121A7.12,7.12,0,0,0,37.7,3.95c-.1,0-.207-.006-.31-.006a9.406,9.406,0,0,0-6.653,2.737,9.211,9.211,0,0,0-2.77,6.589,6.267,6.267,0,0,1-1.355,2.8,2.161,2.161,0,0,0-.442,2.329c.246.48.856,1.043,2.351,1.154v2.4a2.956,2.956,0,0,0,2.966,2.94c1.43,0,2.217.053,2.552.343s.432,1,.518,2.306a.548.548,0,0,0,.547.512h7.854a.548.548,0,0,0,.547-.584c-.069-1.059-.1-1.84-.094-2.531a.548.548,0,0,0-.544-.551h0a.548.548,0,0,0-.548.544c0,.583.015,1.224.06,2.026H35.61a3.555,3.555,0,0,0-.858-2.551c-.658-.568-1.674-.609-3.269-.609a1.86,1.86,0,0,1-1.871-1.844V21.21a3.106,3.106,0,0,1,1.369.474.548.548,0,1,0,.548-.949,4.226,4.226,0,0,0-1.917-.621v-1.1a.548.548,0,0,0-.548-.548c-1.019,0-1.739-.216-1.924-.578-.132-.256,0-.69.357-1.19a7.2,7.2,0,0,0,1.56-3.434,8.287,8.287,0,0,1,8.2-8.229,7.113,7.113,0,0,0,1.406,6.71l-.239.239-1.248-.312a.548.548,0,0,0-.52.144l-1.937,1.937a.548.548,0,0,0,.254.919l1.23.308.308,1.23a.548.548,0,0,0,.919.254l1.937-1.937a.548.548,0,0,0,.144-.52L39.2,12.765l.239-.239a7.117,7.117,0,0,0,6.234,1.534,8.12,8.12,0,0,1-1.181,3.485A16.564,16.564,0,0,0,43.261,19.9a.548.548,0,1,0,1.011.422,15.494,15.494,0,0,1,1.151-2.2A9.21,9.21,0,0,0,46.8,13.7,7.132,7.132,0,0,0,51.19,7.121Zm-13.849,7.89-.153-.611a.548.548,0,0,0-.4-.4l-.611-.153,1.033-1.033.93.232.232.93Zm6.728-1.865a6,6,0,0,1-3.853-1.4l.778-.778a4.935,4.935,0,1,0-.775-.775l-.778.778a6.023,6.023,0,1,1,4.628,2.172ZM40.235,7.121a3.838,3.838,0,1,1,1.539,3.07L42.56,9.4a2.742,2.742,0,1,0-.775-.775L41,9.416A3.814,3.814,0,0,1,40.235,7.121Zm2.191,0A1.644,1.644,0,1,1,43.362,8.6l1.1-1.1a.548.548,0,0,0-.775-.775l-1.1,1.1A1.634,1.634,0,0,1,42.426,7.121Z" transform="translate(-25.993)" fill="#1e64cc"/>
        <g id="Ellipse_614" data-name="Ellipse 614" transform="translate(12.253 0.778)" fill="none" stroke="#fe7614" stroke-width="1">
          <circle cx="6.214" cy="6.214" r="6.214" stroke="none"/>
          <circle cx="6.214" cy="6.214" r="5.714" fill="none"/>
        </g>
        <path id="Path_6414" data-name="Path 6414" d="M328.222,400.239h0a.548.548,0,1,0,.548.548A.548.548,0,0,0,328.222,400.239Z" transform="translate(-311.15 -378.316)" fill="#1e64cc"/>
      </g>
    </g>
    <text id="Pro_and_Cons" data-name="Pro and Cons" transform="translate(2952 797)" fill="#2e5b9f" font-size="18" font-family="Poppins-Bold, Poppins" font-weight="700"><tspan x="0" y="0">Pro and Cons</tspan></text>
    <text id="Dopamine_Detox" data-name="Dopamine Detox" transform="translate(3303 797)" fill="#2e5b9f" font-size="18" font-family="Poppins-Bold, Poppins" font-weight="700"><tspan x="0" y="0">Dopamine Detox</tspan></text>
    <text id="Change_blueprint" data-name="Change blueprint" transform="translate(3604 797)" fill="#2e5b9f" font-size="18" font-family="Poppins-Bold, Poppins" font-weight="700"><tspan x="0" y="0">Change blueprint</tspan></text>
    <text id="Identification_of_Risk_situations" data-name="Identification of Risk situations" transform="translate(3929 797)" fill="#2e5b9f" font-size="18" font-family="Poppins-Bold, Poppins" font-weight="700"><tspan x="0" y="0">Identification of Risk situations</tspan></text>
    <text id="_4-D_s" data-name="4-D’s" transform="translate(2987 1068)" fill="#2e5b9f" font-size="18" font-family="Poppins-Bold, Poppins" font-weight="700"><tspan x="0" y="0">4-D’s</tspan></text>
    <text id="Making_amends" data-name="Making amends" transform="translate(3305 1068)" fill="#2e5b9f" font-size="18" font-family="Poppins-Bold, Poppins" font-weight="700"><tspan x="0" y="0">Making amends</tspan></text>
    <text id="Increase_Pleasant_activities" data-name="Increase Pleasant activities" transform="translate(3558 1080)" fill="#2e5b9f" font-size="18" font-family="Poppins-Bold, Poppins" font-weight="700"><tspan x="0" y="0">Increase Pleasant activities</tspan></text>
    <text id="Increase_your_Job_skills" data-name="Increase your Job skills" transform="translate(3964 1059)" fill="#2e5b9f" font-size="18" font-family="Poppins-Bold, Poppins" font-weight="700"><tspan x="0" y="0">Increase your Job skills</tspan></text>
    <text id="Alternative_negative_thoughts" data-name="Alternative negative thoughts" transform="translate(2873 1338)" fill="#2e5b9f" font-size="18" font-family="Poppins-Bold, Poppins" font-weight="700"><tspan x="0" y="0">Alternative negative thoughts</tspan></text>
    <text id="Find_What_you_can_control" data-name="Find What you can control" transform="translate(3259 1338)" fill="#2e5b9f" font-size="18" font-family="Poppins-Bold, Poppins" font-weight="700"><tspan x="0" y="0">Find What you can control</tspan></text>
    <text id="Compare_with_yourself" data-name="Compare with yourself" transform="translate(3580 1363)" fill="#2e5b9f" font-size="18" font-family="Poppins-Bold, Poppins" font-weight="700"><tspan x="0" y="0">Compare with yourself</tspan></text>
  </g>
</svg>
