<svg xmlns="http://www.w3.org/2000/svg" xmlns:xlink="http://www.w3.org/1999/xlink" width="412" height="1264" viewBox="0 0 412 1264">
  <defs>
    <linearGradient id="linear-gradient" x1="0.5" x2="0.5" y2="1" gradientUnits="objectBoundingBox">
      <stop offset="0" stop-color="#37aadd"/>
      <stop offset="1" stop-color="#1f64cc"/>
    </linearGradient>
    <clipPath id="clip-Automatic_Thoughts-_review_1">
      <rect width="412" height="1264"/>
    </clipPath>
  </defs>
  <g id="Automatic_Thoughts-_review_1" data-name="Automatic Thoughts- review – 1" clip-path="url(#clip-Automatic_Thoughts-_review_1)">
    <rect width="412" height="1264" fill="url(#linear-gradient)"/>
    <g id="Group_3510" data-name="Group 3510" transform="translate(21 114)">
      <g id="Group_3506" data-name="Group 3506" transform="translate(0)">
        <rect id="Rectangle_1952" data-name="Rectangle 1952" width="370" height="175" rx="15" fill="#102646"/>
        <text id="Activating_Factors_Stress_causing_incidents_Event" data-name="Activating Factors/Stress causing
incidents/Event" transform="translate(25 37)" fill="#fff" font-size="18" font-family="Arial-BoldMT, Arial" font-weight="700"><tspan x="0" y="0">Activating Factors/Stress causing</tspan><tspan x="0" y="25">incidents/Event</tspan></text>
        <text id="Alexis_Balencesco" data-name="Alexis Balencesco" transform="translate(25 76)" fill="#d2dff2" font-size="16" font-family="ArialMT, Arial"><tspan x="0" y="14">Telling someone about the violent thought </tspan><tspan x="0" y="39">(like accidently harming someone)….</tspan></text>
      </g>
    </g>
    <g id="Group_3515" data-name="Group 3515" transform="translate(21 536)">
      <g id="Group_3506-2" data-name="Group 3506" transform="translate(0)">
        <rect id="Rectangle_1952-2" data-name="Rectangle 1952" width="370" height="161" rx="15" fill="#102646"/>
        <text id="Behaviour" transform="translate(25 37)" fill="#fff" font-size="18" font-family="Arial-BoldMT, Arial" font-weight="700"><tspan x="0" y="0">Behaviour</tspan></text>
        <text id="Alexis_Balencesco-2" data-name="Alexis Balencesco" transform="translate(25 56)" fill="#d2dff2" font-size="16" font-family="ArialMT, Arial"><tspan x="0" y="14">Telling someone about the violent thought </tspan><tspan x="0" y="39">(like accidently harming someone)….</tspan></text>
      </g>
    </g>
    <g id="Group_3511" data-name="Group 3511" transform="translate(21 313)">
      <g id="Group_3506-3" data-name="Group 3506" transform="translate(0)">
        <rect id="Rectangle_1952-3" data-name="Rectangle 1952" width="370" height="161" rx="15" fill="#102646"/>
        <text id="Automatic_Thought" data-name="Automatic Thought" transform="translate(25 37)" fill="#fff" font-size="18" font-family="Arial-BoldMT, Arial" font-weight="700"><tspan x="0" y="0">Automatic Thought</tspan></text>
        <text id="Alexis_Balencesco-3" data-name="Alexis Balencesco" transform="translate(25 56)" fill="#d2dff2" font-size="16" font-family="ArialMT, Arial"><tspan x="0" y="14">Telling someone about the violent thought </tspan><tspan x="0" y="39">(like accidently harming someone)….</tspan></text>
      </g>
    </g>
    <g id="Group_3616" data-name="Group 3616" transform="translate(21 890)">
      <g id="Group_3506-4" data-name="Group 3506" transform="translate(0)">
        <rect id="Rectangle_1952-4" data-name="Rectangle 1952" width="370" height="110" rx="15" fill="#102646"/>
        <text id="Cognitive_Distortions_" data-name="Cognitive Distortions " transform="translate(25 37)" fill="#fff" font-size="18" font-family="Arial-BoldMT, Arial" font-weight="700"><tspan x="0" y="0">Cognitive Distortions </tspan></text>
        <text id="Alexis_Balencesco-4" data-name="Alexis Balencesco" transform="translate(25 56)" fill="#d2dff2" font-size="16" font-family="ArialMT, Arial"><tspan x="0" y="14">Discounting the positive aspects</tspan></text>
      </g>
    </g>
    <g id="Group_3516" data-name="Group 3516" transform="translate(21 705)">
      <g id="Group_3506-5" data-name="Group 3506" transform="translate(0)">
        <rect id="Rectangle_1952-5" data-name="Rectangle 1952" width="370" height="161" rx="15" fill="#102646"/>
        <text id="Emotions" transform="translate(25 37)" fill="#fff" font-size="18" font-family="Arial-BoldMT, Arial" font-weight="700"><tspan x="0" y="0">Emotions</tspan></text>
        <text id="Alexis_Balencesco-5" data-name="Alexis Balencesco" transform="translate(25 56)" fill="#d2dff2" font-size="16" font-family="ArialMT, Arial"><tspan x="0" y="14">Telling someone about the violent thought </tspan><tspan x="0" y="39">(like accidently harming someone)….</tspan></text>
      </g>
    </g>
    <text id="Consequences" transform="translate(21 516)" fill="#fff" font-size="18" font-family="Arial-BoldMT, Arial" font-weight="700"><tspan x="0" y="0">Consequences</tspan></text>
    <g id="Group_3380" data-name="Group 3380">
      <rect id="Rectangle_1927" data-name="Rectangle 1927" width="411" height="67" transform="translate(0 780)" fill="#102646"/>
      <path id="Path_4714" data-name="Path 4714" d="M1053,4508.186h411.151" transform="translate(-1053 -3729)" fill="none" stroke="#fff" stroke-width="2" opacity="0.206"/>
      <g id="Group_3224" data-name="Group 3224" transform="translate(0 786.262)">
        <g id="Group_3212" data-name="Group 3212" transform="translate(34.47 14.737)">
          <text id="Back" transform="translate(19.06 18)" fill="#fff" font-size="18" font-family="ArialMT, Arial"><tspan x="0" y="0">Back</tspan></text>
          <path id="Icon_ionic-ios-arrow-back" data-name="Icon ionic-ios-arrow-back" d="M14.033,14.264l6.109-6.1a1.154,1.154,0,0,0-1.634-1.629l-6.921,6.916a1.152,1.152,0,0,0-.034,1.591L18.5,22a1.154,1.154,0,1,0,1.634-1.629Z" transform="translate(-11.251 -3.193)" fill="#fff"/>
        </g>
      </g>
      <g id="Group_3096" data-name="Group 3096" transform="translate(18 -219)">
        <text id="Done" transform="translate(310 1038)" fill="#f2f5f7" font-size="20" font-family="ArialMT, Arial"><tspan x="0" y="0">Done</tspan></text>
      </g>
    </g>
    <text id="Session_4_Automatic_Thoughts" data-name="Session 4
Automatic Thoughts" transform="translate(21 26)" fill="#fff" font-size="16" font-family="ArialMT, Arial"><tspan x="0" y="14">Session 4</tspan><tspan font-size="24" font-family="Arial-BoldMT, Arial" font-weight="700"><tspan x="0" y="49">Automatic Thoughts</tspan></tspan></text>
    <g id="CTA" transform="translate(21 1029.438)">
      <path id="Path_7" data-name="Path 7" d="M8.862,5H361.138A8.9,8.9,0,0,1,370,13.942v30.18a8.9,8.9,0,0,1-8.862,8.942H8.862A8.9,8.9,0,0,1,0,44.122V13.942A8.9,8.9,0,0,1,8.862,5Z" transform="translate(0 -5)" fill="#ff9241"/>
      <text id="Find_Core_beliefs" data-name="Find Core beliefs" transform="translate(105 12.563)" fill="#fff" font-size="16" font-family="ArialMT, Arial"><tspan x="19.027" y="14">Find Core beliefs</tspan></text>
    </g>
  </g>
</svg>
