<svg xmlns="http://www.w3.org/2000/svg" xmlns:xlink="http://www.w3.org/1999/xlink" width="412" height="1264" viewBox="0 0 412 1264">
  <defs>
    <linearGradient id="linear-gradient" x1="0.5" x2="0.5" y2="1" gradientUnits="objectBoundingBox">
      <stop offset="0" stop-color="#37aadd"/>
      <stop offset="1" stop-color="#1f64cc"/>
    </linearGradient>
    <filter id="Rectangle_1570" x="-24" y="84" width="460" height="1201" filterUnits="userSpaceOnUse">
      <feOffset dy="-3" input="SourceAlpha"/>
      <feGaussianBlur stdDeviation="8" result="blur"/>
      <feFlood flood-opacity="0.039"/>
      <feComposite operator="in" in2="blur"/>
      <feComposite in="SourceGraphic"/>
    </filter>
    <clipPath id="clip-Automatic_Thoughts">
      <rect width="412" height="1264"/>
    </clipPath>
  </defs>
  <g id="Automatic_Thoughts" data-name="Automatic Thoughts" clip-path="url(#clip-Automatic_Thoughts)">
    <rect width="412" height="1264" fill="url(#linear-gradient)"/>
    <g transform="matrix(1, 0, 0, 1, 0, 0)" filter="url(#Rectangle_1570)">
      <path id="Rectangle_1570-2" data-name="Rectangle 1570" d="M30,0H382a30,30,0,0,1,30,30V1153a0,0,0,0,1,0,0H0a0,0,0,0,1,0,0V30A30,30,0,0,1,30,0Z" transform="translate(0 111)" fill="#102646"/>
    </g>
    <g id="Group_3617" data-name="Group 3617" transform="translate(21 972)">
      <rect id="Rectangle_1845" data-name="Rectangle 1845" width="370" height="50" rx="6" fill="#edf4fd"/>
      <text id="Cognitive_Distortions_" data-name="Cognitive Distortions " transform="translate(16 15)" fill="#2e5b9f" stroke="rgba(0,0,0,0)" stroke-width="1" font-size="16" font-family="ArialMT, Arial"><tspan x="0" y="14">Cognitive Distortions </tspan></text>
      <path id="Icon_feather-chevron-down" data-name="Icon feather-chevron-down" d="M9,13.5l6.994,6.994L22.988,13.5" transform="translate(328.023 8.503)" fill="none" stroke="#2e5b9f" stroke-linecap="round" stroke-linejoin="round" stroke-width="2"/>
    </g>
    <g id="Group_3234" data-name="Group 3234" transform="translate(4.012 -10.262)">
      <path id="Icon_ionic-ios-arrow-back" data-name="Icon ionic-ios-arrow-back" d="M15.217,17.7,23.926,9A1.645,1.645,0,1,0,21.6,6.674l-9.867,9.86a1.642,1.642,0,0,0-.048,2.268l9.908,9.929a1.645,1.645,0,0,0,2.33-2.323Z" transform="translate(362.579 30.069)" fill="#fff"/>
      <path id="Icon_ionic-ios-arrow-back-2" data-name="Icon ionic-ios-arrow-back" d="M3.967,11.506l8.709-8.7A1.645,1.645,0,1,0,10.346.481L.479,10.341a1.642,1.642,0,0,0-.048,2.268l9.908,9.929a1.645,1.645,0,1,0,2.33-2.323Z" transform="translate(377.472 59.28) rotate(180)" fill="#fff"/>
    </g>
    <text id="Session_4_Automatic_Thoughts" data-name="Session 4
Automatic Thoughts" transform="translate(21 26)" fill="#fff" font-size="16" font-family="ArialMT, Arial"><tspan x="0" y="14">Session 4</tspan><tspan font-size="24" font-family="Arial-BoldMT, Arial" font-weight="700"><tspan x="0" y="49">Automatic Thoughts</tspan></tspan></text>
    <g id="Component_119_159" data-name="Component 119 – 159" transform="translate(21 143)">
      <rect id="Rectangle_1845-2" data-name="Rectangle 1845" width="370" height="208" rx="7" fill="#edf4fd"/>
      <g id="Group_3505" data-name="Group 3505" transform="translate(162 152.612)">
        <circle id="Ellipse_550" data-name="Ellipse 550" cx="21" cy="21" r="21" transform="translate(2 2.388)" fill="#dbecff" opacity="0.354"/>
        <circle id="Ellipse_430" data-name="Ellipse 430" cx="19" cy="19" r="19" transform="translate(4 4.387)" fill="#fff"/>
        <path id="Icon_awesome-microphone" data-name="Icon awesome-microphone" d="M4.892,9.783A2.668,2.668,0,0,0,7.56,7.115V2.668a2.668,2.668,0,0,0-5.336,0V7.115A2.668,2.668,0,0,0,4.892,9.783ZM9.339,5.336H8.894a.445.445,0,0,0-.445.445V7.115a3.562,3.562,0,0,1-3.913,3.54,3.666,3.666,0,0,1-3.2-3.7V5.781a.445.445,0,0,0-.445-.445H.445A.445.445,0,0,0,0,5.781V6.9a5.045,5.045,0,0,0,4.225,5.05V12.9H2.668a.445.445,0,0,0-.445.445v.445a.445.445,0,0,0,.445.445H7.115a.445.445,0,0,0,.445-.445v-.445a.445.445,0,0,0-.445-.445H5.559v-.939A4.9,4.9,0,0,0,9.783,7.115V5.781A.445.445,0,0,0,9.339,5.336Z" transform="translate(18.109 16.27)" fill="#0e58c7"/>
      </g>
      <path id="Path_9510" data-name="Path 9510" d="M1053,4508.186h348" transform="translate(-1042 -4363.186)" fill="none" stroke="#8eb1e5" stroke-width="1" opacity="0"/>
      <text id="Write_about_the_problem" data-name="Write about the problem" transform="translate(22 69)" fill="#254069" font-size="14" font-family="ArialMT, Arial" opacity="0.5"><tspan x="0" y="13">Write about the problem</tspan></text>
      <path id="Path_9503" data-name="Path 9503" d="M1053,4508.186h326" transform="translate(-1031 -4449.186)" fill="none" stroke="#8eb1e5" stroke-width="1"/>
      <text id="Activating_Factors_Stress_causing_incidents_Event" data-name="Activating Factors/Stress causing incidents/
Event" transform="translate(22 27)" fill="#254069" font-size="16" font-family="ArialMT, Arial"><tspan x="0" y="0">Activating Factors/Stress causing incidents/</tspan><tspan x="0" y="18">Event</tspan></text>
    </g>
    <g id="Component_119_160" data-name="Component 119 – 160" transform="translate(21 365)">
      <rect id="Rectangle_1845-3" data-name="Rectangle 1845" width="370" height="189" rx="7" fill="#edf4fd"/>
      <g id="Group_3505-2" data-name="Group 3505" transform="translate(162 133.612)">
        <circle id="Ellipse_550-2" data-name="Ellipse 550" cx="21" cy="21" r="21" transform="translate(2 2.388)" fill="#dbecff" opacity="0.354"/>
        <circle id="Ellipse_430-2" data-name="Ellipse 430" cx="19" cy="19" r="19" transform="translate(4 4.387)" fill="#fff"/>
        <path id="Icon_awesome-microphone-2" data-name="Icon awesome-microphone" d="M4.892,9.783A2.668,2.668,0,0,0,7.56,7.115V2.668a2.668,2.668,0,0,0-5.336,0V7.115A2.668,2.668,0,0,0,4.892,9.783ZM9.339,5.336H8.894a.445.445,0,0,0-.445.445V7.115a3.562,3.562,0,0,1-3.913,3.54,3.666,3.666,0,0,1-3.2-3.7V5.781a.445.445,0,0,0-.445-.445H.445A.445.445,0,0,0,0,5.781V6.9a5.045,5.045,0,0,0,4.225,5.05V12.9H2.668a.445.445,0,0,0-.445.445v.445a.445.445,0,0,0,.445.445H7.115a.445.445,0,0,0,.445-.445v-.445a.445.445,0,0,0-.445-.445H5.559v-.939A4.9,4.9,0,0,0,9.783,7.115V5.781A.445.445,0,0,0,9.339,5.336Z" transform="translate(18.109 16.27)" fill="#0e58c7"/>
      </g>
      <path id="Path_9510-2" data-name="Path 9510" d="M1053,4508.186h348" transform="translate(-1042 -4382.186)" fill="none" stroke="#8eb1e5" stroke-width="1" opacity="0"/>
      <text id="Write_about_the_problem-2" data-name="Write about the problem" transform="translate(22 50)" fill="#254069" font-size="14" font-family="ArialMT, Arial" opacity="0.5"><tspan x="0" y="13">Write about the problem</tspan></text>
      <path id="Path_9503-2" data-name="Path 9503" d="M1053,4508.186h326" transform="translate(-1031 -4468.186)" fill="none" stroke="#8eb1e5" stroke-width="1"/>
      <text id="_Automatic_Thought" data-name=" Automatic Thought" transform="translate(22 27)" fill="#254069" font-size="16" font-family="ArialMT, Arial"><tspan x="0" y="0" xml:space="preserve"> Automatic Thought</tspan></text>
    </g>
    <g id="Component_119_161" data-name="Component 119 – 161" transform="translate(21 568)">
      <rect id="Rectangle_1845-4" data-name="Rectangle 1845" width="370" height="189" rx="7" fill="#edf4fd"/>
      <g id="Group_3505-3" data-name="Group 3505" transform="translate(162 133.612)">
        <circle id="Ellipse_550-3" data-name="Ellipse 550" cx="21" cy="21" r="21" transform="translate(2 2.388)" fill="#dbecff" opacity="0.354"/>
        <circle id="Ellipse_430-3" data-name="Ellipse 430" cx="19" cy="19" r="19" transform="translate(4 4.387)" fill="#fff"/>
        <path id="Icon_awesome-microphone-3" data-name="Icon awesome-microphone" d="M4.892,9.783A2.668,2.668,0,0,0,7.56,7.115V2.668a2.668,2.668,0,0,0-5.336,0V7.115A2.668,2.668,0,0,0,4.892,9.783ZM9.339,5.336H8.894a.445.445,0,0,0-.445.445V7.115a3.562,3.562,0,0,1-3.913,3.54,3.666,3.666,0,0,1-3.2-3.7V5.781a.445.445,0,0,0-.445-.445H.445A.445.445,0,0,0,0,5.781V6.9a5.045,5.045,0,0,0,4.225,5.05V12.9H2.668a.445.445,0,0,0-.445.445v.445a.445.445,0,0,0,.445.445H7.115a.445.445,0,0,0,.445-.445v-.445a.445.445,0,0,0-.445-.445H5.559v-.939A4.9,4.9,0,0,0,9.783,7.115V5.781A.445.445,0,0,0,9.339,5.336Z" transform="translate(18.109 16.27)" fill="#0e58c7"/>
      </g>
      <path id="Path_9510-3" data-name="Path 9510" d="M1053,4508.186h348" transform="translate(-1042 -4382.186)" fill="none" stroke="#8eb1e5" stroke-width="1" opacity="0"/>
      <text id="Write_about_the_problem-3" data-name="Write about the problem" transform="translate(22 50)" fill="#254069" font-size="14" font-family="ArialMT, Arial" opacity="0.5"><tspan x="0" y="13">Write about the problem</tspan></text>
      <path id="Path_9503-3" data-name="Path 9503" d="M1053,4508.186h326" transform="translate(-1031 -4468.186)" fill="none" stroke="#8eb1e5" stroke-width="1"/>
      <text id="Consequences_-_Behaviour" data-name="Consequences - Behaviour" transform="translate(22 27)" fill="#254069" font-size="16" font-family="ArialMT, Arial"><tspan x="0" y="0">Consequences - Behaviour</tspan></text>
    </g>
    <g id="Component_119_162" data-name="Component 119 – 162" transform="translate(21 771)">
      <rect id="Rectangle_1845-5" data-name="Rectangle 1845" width="370" height="189" rx="7" fill="#edf4fd"/>
      <g id="Group_3505-4" data-name="Group 3505" transform="translate(162 133.612)">
        <circle id="Ellipse_550-4" data-name="Ellipse 550" cx="21" cy="21" r="21" transform="translate(2 2.388)" fill="#dbecff" opacity="0.354"/>
        <circle id="Ellipse_430-4" data-name="Ellipse 430" cx="19" cy="19" r="19" transform="translate(4 4.387)" fill="#fff"/>
        <path id="Icon_awesome-microphone-4" data-name="Icon awesome-microphone" d="M4.892,9.783A2.668,2.668,0,0,0,7.56,7.115V2.668a2.668,2.668,0,0,0-5.336,0V7.115A2.668,2.668,0,0,0,4.892,9.783ZM9.339,5.336H8.894a.445.445,0,0,0-.445.445V7.115a3.562,3.562,0,0,1-3.913,3.54,3.666,3.666,0,0,1-3.2-3.7V5.781a.445.445,0,0,0-.445-.445H.445A.445.445,0,0,0,0,5.781V6.9a5.045,5.045,0,0,0,4.225,5.05V12.9H2.668a.445.445,0,0,0-.445.445v.445a.445.445,0,0,0,.445.445H7.115a.445.445,0,0,0,.445-.445v-.445a.445.445,0,0,0-.445-.445H5.559v-.939A4.9,4.9,0,0,0,9.783,7.115V5.781A.445.445,0,0,0,9.339,5.336Z" transform="translate(18.109 16.27)" fill="#0e58c7"/>
      </g>
      <path id="Path_9510-4" data-name="Path 9510" d="M1053,4508.186h348" transform="translate(-1042 -4382.186)" fill="none" stroke="#8eb1e5" stroke-width="1" opacity="0"/>
      <text id="Write_about_the_problem-4" data-name="Write about the problem" transform="translate(22 50)" fill="#254069" font-size="14" font-family="ArialMT, Arial" opacity="0.5"><tspan x="0" y="13">Write about the problem</tspan></text>
      <path id="Path_9503-4" data-name="Path 9503" d="M1053,4508.186h326" transform="translate(-1031 -4468.186)" fill="none" stroke="#8eb1e5" stroke-width="1"/>
      <text id="Consequences_-_Emotions" data-name="Consequences - Emotions" transform="translate(22 27)" fill="#254069" font-size="16" font-family="ArialMT, Arial"><tspan x="0" y="0">Consequences - Emotions</tspan></text>
    </g>
    <g id="Component_119_250" data-name="Component 119 – 250" transform="translate(0 779.278)">
      <rect id="Rectangle_1927" data-name="Rectangle 1927" width="412" height="67" transform="translate(0 0.722)" fill="#102646"/>
      <path id="Path_4714" data-name="Path 4714" d="M1053,4508.186h411.151" transform="translate(-1053 -4508.186)" fill="none" stroke="#fff" stroke-width="2" opacity="0.206"/>
      <g id="Group_3096" data-name="Group 3096" transform="translate(-3 -997.186)">
        <text id="Next" transform="translate(318 1038)" fill="#f2f5f7" font-size="18" font-family="ArialMT, Arial"><tspan x="0" y="0">Next</tspan></text>
        <path id="Icon_ionic-ios-arrow-back-3" data-name="Icon ionic-ios-arrow-back" d="M14.033,14.264l6.109-6.1a1.154,1.154,0,0,0-1.634-1.629l-6.921,6.916a1.152,1.152,0,0,0-.034,1.591L18.5,22a1.154,1.154,0,1,0,1.634-1.629Z" transform="translate(389.251 1046.266) rotate(180)" fill="#f2f5f7"/>
      </g>
      <g id="Group_3224" data-name="Group 3224" transform="translate(2.529 7.076)">
        <g id="Group_3212" data-name="Group 3212" transform="translate(34.47 14.737)">
          <text id="Back" transform="translate(19.06 18)" fill="#fff" font-size="18" font-family="ArialMT, Arial"><tspan x="0" y="0">Back</tspan></text>
          <path id="Icon_ionic-ios-arrow-back-4" data-name="Icon ionic-ios-arrow-back" d="M14.033,14.264l6.109-6.1a1.154,1.154,0,0,0-1.634-1.629l-6.921,6.916a1.152,1.152,0,0,0-.034,1.591L18.5,22a1.154,1.154,0,1,0,1.634-1.629Z" transform="translate(-11.251 -3.193)" fill="#fff"/>
        </g>
      </g>
    </g>
  </g>
</svg>
