<svg xmlns="http://www.w3.org/2000/svg" xmlns:xlink="http://www.w3.org/1999/xlink" width="412" height="1323" viewBox="0 0 412 1323">
  <defs>
    <linearGradient id="linear-gradient" x1="0.5" x2="0.5" y2="1" gradientUnits="objectBoundingBox">
      <stop offset="0" stop-color="#37aadd"/>
      <stop offset="1" stop-color="#1f64cc"/>
    </linearGradient>
    <filter id="Rectangle_1534" x="-9" y="775" width="430" height="78" filterUnits="userSpaceOnUse">
      <feOffset dy="-3" input="SourceAlpha"/>
      <feGaussianBlur stdDeviation="3" result="blur"/>
      <feFlood flood-opacity="0.059"/>
      <feComposite operator="in" in2="blur"/>
      <feComposite in="SourceGraphic"/>
    </filter>
    <clipPath id="clip-Bbq-44_8">
      <rect width="412" height="1323"/>
    </clipPath>
  </defs>
  <g id="Bbq-44_8" data-name="Bbq-44 – 8" clip-path="url(#clip-Bbq-44_8)">
    <rect width="412" height="1323" fill="#102646"/>
    <path id="Path_8481" data-name="Path 8481" d="M968,7672.5v650.732" transform="translate(-889 -7095.188)" fill="none" stroke="#fff" stroke-width="1" stroke-dasharray="6"/>
    <circle id="Ellipse_701" data-name="Ellipse 701" cx="114" cy="114" r="114" transform="translate(-49 -100)" fill="url(#linear-gradient)"/>
    <g id="Group_3602" data-name="Group 3602" transform="translate(-1 267)">
      <text id="Automatic_thoughts" data-name="Automatic thoughts" transform="translate(118 299)" fill="#fff" font-size="16" font-family="Arial-BoldMT, Arial" font-weight="700"><tspan x="0" y="14">Automatic thoughts</tspan></text>
      <text id="what_it_means_to_you_" data-name="what it means to you ?" transform="translate(118 432)" fill="#fff" font-size="16" font-family="Arial-BoldMT, Arial" font-weight="700"><tspan x="0" y="14">what it means to you ?</tspan></text>
      <text id="what_it_means_to_you_2" data-name="what it means to you ?" transform="translate(118 734)" fill="#fff" font-size="16" font-family="Arial-BoldMT, Arial" font-weight="700"><tspan x="0" y="14">what it means to you ?</tspan></text>
      <text id="Core_beliefs" data-name="Core beliefs" transform="translate(118 867)" fill="#fff" font-size="16" font-family="Arial-BoldMT, Arial" font-weight="700"><tspan x="0" y="14">Core beliefs</tspan></text>
      <text id="Resultant_behaviour" data-name="Resultant behaviour" transform="translate(118 948)" fill="#fff" font-size="16" font-family="Arial-BoldMT, Arial" font-weight="700"><tspan x="0" y="14">Resultant behaviour</tspan></text>
      <text id="why_doesnt_he_ever_listen_too_me_Can_t_he_see_I_am_saying_ffor_his_welfare" data-name="why doesnt he ever listen too me ? Can’t he see I am saying ffor his welfare" transform="translate(118 331)" fill="#fff" font-size="16" font-family="ArialMT, Arial"><tspan x="0" y="14">why doesnt he ever listen too me ? </tspan><tspan x="0" y="37">Can’t he see I am saying ffor his </tspan><tspan x="0" y="60">welfare</tspan></text>
      <text id="what_if_he_never_listens_and_doesnt_study_at_all_what_if_thinking_fortune_teelling_" data-name="what if he never listens and doesnt study at all (what if thinking/fortune teelling)" transform="translate(118 464)" fill="#fff" font-size="16" font-family="ArialMT, Arial"><tspan x="0" y="14">what if he never listens and doesnt </tspan><tspan x="0" y="37">study at all (what if thinking/fortune </tspan><tspan x="0" y="60">teelling)</tspan></text>
      <text id="what_if_he_never_listens_and_doesnt_study_at_all_what_if_thinking_fortune_telling_" data-name="what if he never listens and doesnt study at all (what if thinking/fortune telling)" transform="translate(118 766)" fill="#fff" font-size="16" font-family="ArialMT, Arial"><tspan x="0" y="14">what if he never listens and doesnt </tspan><tspan x="0" y="37">study at all (what if thinking/fortune </tspan><tspan x="0" y="60">telling)</tspan></text>
      <text id="I_will_be_failure_as_a_mother" data-name="I will be failure as a mother" transform="translate(118 899)" fill="#fff" font-size="16" font-family="ArialMT, Arial"><tspan x="0" y="14">I will be failure as a mother</tspan></text>
      <text id="You_started_yell_at_him" data-name="You started yell at him" transform="translate(118 980)" fill="#fff" font-size="16" font-family="ArialMT, Arial"><tspan x="0" y="14">You started yell at him</tspan></text>
      <text id="what_if_he_never_listens_and_doesnt_study_at_all_what_if_thinking_fortune_teelling_2" data-name="what if he never listens and doesnt study at all (what if thinking/fortune teelling)" transform="translate(118 638)" fill="#fff" font-size="16" font-family="ArialMT, Arial"><tspan x="0" y="14">what if he never listens and doesnt </tspan><tspan x="0" y="37">study at all (what if thinking/fortune </tspan><tspan x="0" y="60">teelling)</tspan></text>
      <text id="Immediate_thought_So_what_is_the_worst_thing_that_could_happen_" data-name="Immediate thought So what is the worst thing that could happen ?" transform="translate(118 559)" fill="#fff" font-size="16" font-family="Arial-BoldMT, Arial" font-weight="700"><tspan x="0" y="14">Immediate thought So what </tspan><tspan x="0" y="39">is the worst thing that could </tspan><tspan x="0" y="64">happen ?</tspan></text>
      <g id="Group_3610" data-name="Group 3610" transform="translate(9 90)">
        <circle id="Ellipse_702" data-name="Ellipse 702" cx="19" cy="19" r="19" transform="translate(53 209)" fill="#d2dff2"/>
        <text id="_1" data-name="1" transform="translate(72 235)" fill="#1e64cc" font-size="16" font-family="ArialMT, Arial"><tspan x="-4.449" y="0">1</tspan></text>
      </g>
      <g id="Group_3611" data-name="Group 3611" transform="translate(9 214)">
        <circle id="Ellipse_702-2" data-name="Ellipse 702" cx="19" cy="19" r="19" transform="translate(53 209)" fill="#d2dff2"/>
        <text id="_2" data-name="2" transform="translate(72 235)" fill="#1e64cc" font-size="16" font-family="ArialMT, Arial"><tspan x="-4.449" y="0">2</tspan></text>
      </g>
      <g id="Group_3619" data-name="Group 3619" transform="translate(9 516)">
        <circle id="Ellipse_702-3" data-name="Ellipse 702" cx="19" cy="19" r="19" transform="translate(53 209)" fill="#d2dff2"/>
        <text id="_4" data-name="4" transform="translate(72 235)" fill="#1e64cc" font-size="16" font-family="ArialMT, Arial"><tspan x="-4.449" y="0">4</tspan></text>
      </g>
      <g id="Group_3620" data-name="Group 3620" transform="translate(9 649)">
        <circle id="Ellipse_702-4" data-name="Ellipse 702" cx="19" cy="19" r="19" transform="translate(53 209)" fill="#d2dff2"/>
        <text id="_5" data-name="5" transform="translate(72 235)" fill="#1e64cc" font-size="16" font-family="ArialMT, Arial"><tspan x="-4.449" y="0">5</tspan></text>
      </g>
      <g id="Group_3621" data-name="Group 3621" transform="translate(9 730)">
        <circle id="Ellipse_702-5" data-name="Ellipse 702" cx="19" cy="19" r="19" transform="translate(53 209)" fill="#d2dff2"/>
        <text id="_6" data-name="6" transform="translate(72 235)" fill="#1e64cc" font-size="16" font-family="ArialMT, Arial"><tspan x="-4.449" y="0">6</tspan></text>
      </g>
      <g id="Group_3612" data-name="Group 3612" transform="translate(9 342)">
        <circle id="Ellipse_702-6" data-name="Ellipse 702" cx="19" cy="19" r="19" transform="translate(53 209)" fill="#d2dff2"/>
        <text id="_3" data-name="3" transform="translate(72 235)" fill="#1e64cc" font-size="16" font-family="ArialMT, Arial"><tspan x="-4.449" y="0">3</tspan></text>
      </g>
    </g>
    <text id="How_it_works_and_how_to_find_it" data-name="How it works and how to find it" transform="translate(21 31)" fill="#fff" font-size="24" font-family="Arial-BoldMT, Arial" font-weight="700"><tspan x="0" y="22">How it works and how to find it</tspan></text>
    <text id="A_mother_ask_her_son_to_study_for_a_test_and_he_doesn_t_listen_" data-name="A mother ask her son to study for a test and he doesn’t listen " transform="translate(38 450)" fill="#fff" font-size="22" font-family="Arial-BoldMT, Arial" font-weight="700"><tspan x="8.601" y="20">A mother ask her son to study </tspan><tspan x="7.585" y="51">for a test and he doesn’t listen </tspan></text>
    <text id="Example" transform="translate(38 399)" fill="#fff" font-size="16" font-family="Arial-BoldMT, Arial" font-weight="700"><tspan x="133.594" y="14">Example</tspan></text>
    <text id="All_these_core_beliefs_are_root_cause_for_our_negative_emotions_and_actions_and_that_why_I_compared_it_to_the_root_as_it_is_equivalent_to_root_which_give_rise_to_the_whole_tree._" data-name="All these core beliefs are root cause for our negative emotions and actions and that’ why I compared it to the root as it is equivalent to root which give rise to the whole tree. " transform="translate(23 222)" fill="#fff" font-size="18" font-family="ArialMT, Arial"><tspan x="0" y="16">All these core beliefs are root cause for our </tspan><tspan x="0" y="46">negative emotions and actions and that’ why I </tspan><tspan x="0" y="76">compared it to the root as it is equivalent to </tspan><tspan x="0" y="106">root which give rise to the whole tree. </tspan></text>
    <text id="Why_do_we_need_to_find_these_beliefs_" data-name="Why do we need to find these beliefs?" transform="translate(23 182)" fill="#fff" font-size="18" font-family="Arial-BoldMT, Arial" font-weight="700"><tspan x="0" y="16">Why do we need to find these beliefs?</tspan></text>
    <g id="Component_119_252" data-name="Component 119 – 252" transform="translate(0 787)">
      <g transform="matrix(1, 0, 0, 1, 0, -787)" filter="url(#Rectangle_1534)">
        <rect id="Rectangle_1534-2" data-name="Rectangle 1534" width="412" height="60" transform="translate(0 787)" fill="#102646"/>
      </g>
      <g id="Group_2755" data-name="Group 2755" transform="translate(0 -779)">
        <g id="Rectangle_1564" data-name="Rectangle 1564" transform="translate(12 789)" fill="#fff" stroke="#707070" stroke-width="1" opacity="0">
          <rect width="50" height="45" stroke="none"/>
          <rect x="0.5" y="0.5" width="49" height="44" fill="none"/>
        </g>
        <path id="Path_4565" data-name="Path 4565" d="M35.606,24.011l-7.368-7.1,7.368-7.1a1.37,1.37,0,0,0,.424-.982,1.4,1.4,0,0,0-.4-1,1.369,1.369,0,0,0-.982-.424h-.022a1.385,1.385,0,0,0-.982.4l-8.417,8.1a1.42,1.42,0,0,0-.424,1,1.382,1.382,0,0,0,.424,1l8.439,8.1a1.443,1.443,0,0,0,.982.4,1.42,1.42,0,0,0,1-.424,1.4,1.4,0,0,0,.4-1A1.274,1.274,0,0,0,35.606,24.011Z" transform="translate(5.036 792.435)" fill="#fff"/>
      </g>
    </g>
  </g>
</svg>
