<svg xmlns="http://www.w3.org/2000/svg" xmlns:xlink="http://www.w3.org/1999/xlink" width="412" height="844" viewBox="0 0 412 844">
  <defs>
    <linearGradient id="linear-gradient" x1="0.5" x2="0.5" y2="1" gradientUnits="objectBoundingBox">
      <stop offset="0" stop-color="#37aadd"/>
      <stop offset="1" stop-color="#1f64cc"/>
    </linearGradient>
    <filter id="Rectangle_1534" x="-9" y="775" width="430" height="78" filterUnits="userSpaceOnUse">
      <feOffset dy="-3" input="SourceAlpha"/>
      <feGaussianBlur stdDeviation="3" result="blur"/>
      <feFlood flood-opacity="0.059"/>
      <feComposite operator="in" in2="blur"/>
      <feComposite in="SourceGraphic"/>
    </filter>
    <clipPath id="clip-Bbq-44_7">
      <rect width="412" height="844"/>
    </clipPath>
  </defs>
  <g id="Bbq-44_7" data-name="Bbq-44 – 7" clip-path="url(#clip-Bbq-44_7)">
    <rect width="412" height="844" fill="#102646"/>
    <path id="Path_8481" data-name="Path 8481" d="M968,7672.5v229.836" transform="translate(-889 -7312.335)" fill="none" stroke="#fff" stroke-width="1" stroke-dasharray="6"/>
    <circle id="Ellipse_701" data-name="Ellipse 701" cx="114" cy="114" r="114" transform="translate(-49 -100)" fill="url(#linear-gradient)"/>
    <g id="Group_3602" data-name="Group 3602" transform="translate(-1 157)">
      <g id="Group_3103" data-name="Group 3103" transform="translate(39 114)">
        <g id="Group_1500" data-name="Group 1500" transform="translate(0)">
          <text id="Want_to_be_a_Good_husband" data-name="Want to be a Good husband" transform="translate(0 20)" fill="#fff" font-size="22" font-family="Arial-BoldMT, Arial" font-weight="700"><tspan x="20.863" y="20">Want to be a Good husband</tspan></text>
          <text id="Example" transform="translate(0 -31)" fill="#fff" font-size="16" font-family="Arial-BoldMT, Arial" font-weight="700"><tspan x="133.594" y="14">Example</tspan></text>
        </g>
      </g>
      <text id="Find_one_characteristics_of_a_good_husband_" data-name="Find one characteristics of a good husband?" transform="translate(118 189)" fill="#fff" font-size="16" font-family="Arial-BoldMT, Arial" font-weight="700"><tspan x="0" y="14">Find one characteristics of a </tspan><tspan x="0" y="40">good husband?</tspan></text>
      <text id="Eg._To_Be_responsible" data-name="Eg. To Be responsible" transform="translate(118 244)" fill="#fff" font-size="14" font-family="ArialMT, Arial"><tspan x="0" y="13">Eg. To Be responsible</tspan></text>
      <text id="Eg._I_can_help_wash_dishes_at_night_" data-name="Eg. “I can help wash dishes at night”" transform="translate(118 316)" fill="#fff" font-size="14" font-family="ArialMT, Arial"><tspan x="0" y="13">Eg. “I can help wash dishes at night”</tspan></text>
      <text id="Eg._I_can_make_breakfast_and_drop_kids_to_school_" data-name="Eg. “I can make breakfast and drop kids to school” " transform="translate(118 343)" fill="#fff" font-size="14" font-family="ArialMT, Arial"><tspan x="0" y="13">Eg. “I can make breakfast and drop </tspan><tspan x="0" y="38">kids to school” </tspan></text>
      <text id="Complete_it_to_achieve_your_bigger_goal" data-name="Complete it to achieve your bigger goal" transform="translate(118 439)" fill="#fff" font-size="14" font-family="ArialMT, Arial"><tspan x="0" y="13">Complete it to achieve your bigger </tspan><tspan x="0" y="38">goal</tspan></text>
      <text id="Now_add_it_to_Habit_tracker" data-name="Now add it to Habit tracker" transform="translate(118 410)" fill="#fff" font-size="16" font-family="ArialMT, Arial"><tspan x="0" y="14">Now add it to Habit tracker</tspan></text>
      <text id="Write_How_to_be_responsible." data-name="Write How to be responsible." transform="translate(118 287)" fill="#fff" font-size="16" font-family="Arial-BoldMT, Arial" font-weight="700"><tspan x="0" y="14">Write How to be responsible.</tspan></text>
      <g id="Group_3610" data-name="Group 3610" transform="translate(9 -20)">
        <circle id="Ellipse_702" data-name="Ellipse 702" cx="19" cy="19" r="19" transform="translate(53 209)" fill="#d2dff2"/>
        <text id="_1st" data-name="1st" transform="translate(64 235)" fill="#1e64cc" font-size="16" font-family="ArialMT, Arial"><tspan x="0" y="0">1</tspan><tspan y="0" font-size="9.333" baseline-shift="5.33279994943018">st</tspan></text>
      </g>
      <g id="Group_3611" data-name="Group 3611" transform="translate(9 72)">
        <circle id="Ellipse_702-2" data-name="Ellipse 702" cx="19" cy="19" r="19" transform="translate(53 209)" fill="#d2dff2"/>
        <text id="_2nd" data-name="2nd" transform="translate(72 235)" fill="#1e64cc" font-size="16" font-family="ArialMT, Arial"><tspan x="-9.64" y="0">2</tspan><tspan y="0" font-size="9.333" baseline-shift="5.33279994943018">nd</tspan></text>
      </g>
      <g id="Group_3612" data-name="Group 3612" transform="translate(9 193)">
        <circle id="Ellipse_702-3" data-name="Ellipse 702" cx="19" cy="19" r="19" transform="translate(53 209)" fill="#d2dff2"/>
        <text id="_3rd" data-name="3rd" transform="translate(72 235)" fill="#1e64cc" font-size="16" font-family="ArialMT, Arial"><tspan x="-8.598" y="0">3</tspan><tspan y="0" font-size="9.333" baseline-shift="5.33279994943018">rd</tspan></text>
      </g>
    </g>
    <text id="How_to_break_big_goals_in_to_small_sub-parts" data-name="How to break big goals in to small sub-parts" transform="translate(21 31)" fill="#fff" font-size="24" font-family="Arial-BoldMT, Arial" font-weight="700"><tspan x="0" y="22">How to break big goals in to </tspan><tspan x="0" y="53">small sub-parts</tspan></text>
    <g id="Component_119_232" data-name="Component 119 – 232" transform="translate(0 787)">
      <g transform="matrix(1, 0, 0, 1, 0, -787)" filter="url(#Rectangle_1534)">
        <rect id="Rectangle_1534-2" data-name="Rectangle 1534" width="412" height="60" transform="translate(0 787)" fill="#102646"/>
      </g>
      <g id="Group_2755" data-name="Group 2755" transform="translate(0 -779)">
        <g id="Rectangle_1564" data-name="Rectangle 1564" transform="translate(12 789)" fill="#fff" stroke="#707070" stroke-width="1" opacity="0">
          <rect width="50" height="45" stroke="none"/>
          <rect x="0.5" y="0.5" width="49" height="44" fill="none"/>
        </g>
        <path id="Path_4565" data-name="Path 4565" d="M35.606,24.011l-7.368-7.1,7.368-7.1a1.37,1.37,0,0,0,.424-.982,1.4,1.4,0,0,0-.4-1,1.369,1.369,0,0,0-.982-.424h-.022a1.385,1.385,0,0,0-.982.4l-8.417,8.1a1.42,1.42,0,0,0-.424,1,1.382,1.382,0,0,0,.424,1l8.439,8.1a1.443,1.443,0,0,0,.982.4,1.42,1.42,0,0,0,1-.424,1.4,1.4,0,0,0,.4-1A1.274,1.274,0,0,0,35.606,24.011Z" transform="translate(5.036 792.435)" fill="#fff"/>
      </g>
    </g>
  </g>
</svg>
