<svg xmlns="http://www.w3.org/2000/svg" xmlns:xlink="http://www.w3.org/1999/xlink" width="412" height="1315" viewBox="0 0 412 1315">
  <defs>
    <linearGradient id="linear-gradient" x1="0.5" x2="0.5" y2="1" gradientUnits="objectBoundingBox">
      <stop offset="0" stop-color="#37aadd"/>
      <stop offset="1" stop-color="#1f64cc"/>
    </linearGradient>
    <filter id="Rectangle_1534" x="-9" y="775" width="430" height="78" filterUnits="userSpaceOnUse">
      <feOffset dy="-3" input="SourceAlpha"/>
      <feGaussianBlur stdDeviation="3" result="blur"/>
      <feFlood flood-opacity="0.059"/>
      <feComposite operator="in" in2="blur"/>
      <feComposite in="SourceGraphic"/>
    </filter>
    <clipPath id="clip-Bbq-44_20">
      <rect width="412" height="1315"/>
    </clipPath>
  </defs>
  <g id="Bbq-44_20" data-name="Bbq-44 – 20" clip-path="url(#clip-Bbq-44_20)">
    <rect width="412" height="1315" fill="#102646"/>
    <path id="Path_8481" data-name="Path 8481" d="M968,7672.5v862.621" transform="translate(-929 -7443.188)" fill="none" stroke="#fff" stroke-width="1" stroke-dasharray="6"/>
    <circle id="Ellipse_701" data-name="Ellipse 701" cx="114" cy="114" r="114" transform="translate(-49 -100)" fill="url(#linear-gradient)"/>
    <g id="Group_3602" data-name="Group 3602" transform="translate(-41 -81)">
      <text id="Realistic" transform="translate(118 299)" fill="#fff" font-size="16" font-family="Arial-BoldMT, Arial" font-weight="700"><tspan x="0" y="14">Realistic</tspan></text>
      <text id="Meaningful_Goal" data-name="Meaningful Goal" transform="translate(118 856)" fill="#fff" font-size="16" font-family="Arial-BoldMT, Arial" font-weight="700"><tspan x="0" y="14">Meaningful Goal</tspan></text>
      <text id="Rate_every_goal" data-name="Rate every goal" transform="translate(118 1145)" fill="#fff" font-size="16" font-family="Arial-BoldMT, Arial" font-weight="700"><tspan x="0" y="14">Rate every goal</tspan></text>
      <text id="Be_compassionate_to_yourself" data-name="Be compassionate to yourself" transform="translate(118 1003)" fill="#fff" font-size="16" font-family="Arial-BoldMT, Arial" font-weight="700"><tspan x="0" y="14">Be compassionate to yourself</tspan></text>
      <text id="First_rule_according_to_Carl_Rogers_the_difference_between_reality_and_our_expectation_produces_a_very_uncomfortable_feeling._So_instead_of_making_huge_ambitious_targets_at_this_point_of_time_we_will_make_targets_better_suited_to_your_current_situation_" data-name="First rule according to Carl Rogers the difference between reality and our expectation produces a very uncomfortable feeling. So instead of making huge ambitious targets at this point of time, we will make targets better suited to your current situation &amp; " transform="translate(118 331)" fill="#fff" font-size="16" font-family="ArialMT, Arial"><tspan x="0" y="14">First rule according to Carl Rogers the </tspan><tspan x="0" y="37">difference between reality and our </tspan><tspan x="0" y="60">expectation produces a very uncomfortable </tspan><tspan x="0" y="83">feeling. So instead of making huge </tspan><tspan x="0" y="106">ambitious targets at this point of time, we </tspan><tspan x="0" y="129">will make targets better suited to your </tspan><tspan x="0" y="152">current situation &amp; that’s why I have used </tspan><tspan x="0" y="175">the word “Realistic”</tspan></text>
      <text id="Second_thing_to_keep_in_mind_is_that_goals_should_have_something_meaning_in_your_life_so_that_you_enjoy_that_while_doing_it." data-name="Second thing to keep in mind is that goals should have something meaning in your life so that you enjoy that while doing it." transform="translate(118 888)" fill="#fff" font-size="16" font-family="ArialMT, Arial"><tspan x="0" y="14">Second thing to keep in mind is that goals </tspan><tspan x="0" y="37">should have something meaning in your life </tspan><tspan x="0" y="60">so that you enjoy that while doing it.</tspan></text>
      <text id="Execute_the_goal_according_to_difficulty._Start_with_lowest_and_move_upwards." data-name="Execute the goal according to difficulty. Start with lowest and move upwards." transform="translate(118 1177)" fill="#fff" font-size="16" font-family="ArialMT, Arial"><tspan x="0" y="14">Execute the goal according to difficulty. </tspan><tspan x="0" y="37">Start with lowest and move upwards.</tspan></text>
      <text id="Even_if_you_fail_just_be_kind_to_yourself_otherwise_everything_can_go_spiraling_downwards_in_a_trajectory._" data-name="Even if you fail; just be kind to yourself otherwise everything can go spiraling downwards in a trajectory. " transform="translate(118 1035)" fill="#fff" font-size="16" font-family="ArialMT, Arial"><tspan x="0" y="14">Even if you fail; just be kind to yourself </tspan><tspan x="0" y="37">otherwise everything can go spiraling </tspan><tspan x="0" y="60">downwards in a trajectory. </tspan></text>
      <g id="Group_3610" data-name="Group 3610" transform="translate(9 90)">
        <circle id="Ellipse_702" data-name="Ellipse 702" cx="19" cy="19" r="19" transform="translate(53 209)" fill="#d2dff2"/>
        <text id="_1" data-name="1" transform="translate(72 235)" fill="#1e64cc" font-size="16" font-family="ArialMT, Arial"><tspan x="-4.449" y="0">1</tspan></text>
      </g>
      <g id="Group_3619" data-name="Group 3619" transform="translate(9 794)">
        <circle id="Ellipse_702-2" data-name="Ellipse 702" cx="19" cy="19" r="19" transform="translate(53 209)" fill="#d2dff2"/>
        <text id="_4" data-name="4" transform="translate(72 235)" fill="#1e64cc" font-size="16" font-family="ArialMT, Arial"><tspan x="-4.449" y="0">4</tspan></text>
      </g>
      <g id="Group_3621" data-name="Group 3621" transform="translate(9 936)">
        <circle id="Ellipse_702-3" data-name="Ellipse 702" cx="19" cy="19" r="19" transform="translate(53 209)" fill="#d2dff2"/>
        <text id="_6" data-name="6" transform="translate(72 235)" fill="#1e64cc" font-size="16" font-family="ArialMT, Arial"><tspan x="-4.449" y="0">6</tspan></text>
      </g>
      <g id="Group_3612" data-name="Group 3612" transform="translate(9 647)">
        <circle id="Ellipse_702-4" data-name="Ellipse 702" cx="19" cy="19" r="19" transform="translate(53 209)" fill="#d2dff2"/>
        <text id="_2" data-name="2" transform="translate(72 235)" fill="#1e64cc" font-size="16" font-family="ArialMT, Arial"><tspan x="-4.449" y="0">2</tspan></text>
      </g>
    </g>
    <text id="Rules_for_setting_of_goals_" data-name="Rules for setting of goals 
" transform="translate(21 31)" fill="#fff" font-size="24" font-family="Arial-BoldMT, Arial" font-weight="700"><tspan x="0" y="22">Rules for setting of goals </tspan><tspan font-family="HelveticaNeue-Bold, Helvetica Neue"><tspan x="0" y="53"></tspan></tspan></text>
    <text id="Rules" transform="translate(21 164)" fill="#fff" font-size="16" font-family="Arial-BoldMT, Arial" font-weight="700"><tspan x="0" y="14">Rules</tspan></text>
    <g id="Group_3380" data-name="Group 3380" transform="translate(0 115)">
      <rect id="Rectangle_1984" data-name="Rectangle 1984" width="412" height="68" transform="translate(0 779)" fill="#102646"/>
      <path id="Path_4714" data-name="Path 4714" d="M1053,4508.186h411.151" transform="translate(-1053 -3729)" fill="none" stroke="#fff" stroke-width="2" opacity="0.206"/>
      <g id="Group_3224" data-name="Group 3224" transform="translate(0 786.262)">
        <g id="Group_3212" data-name="Group 3212" transform="translate(34.47 14.737)">
          <text id="Back" transform="translate(19.06 18)" fill="#fff" font-size="18" font-family="ArialMT, Arial"><tspan x="0" y="0">Back</tspan></text>
          <path id="Icon_ionic-ios-arrow-back" data-name="Icon ionic-ios-arrow-back" d="M14.033,14.264l6.109-6.1a1.154,1.154,0,0,0-1.634-1.629l-6.921,6.916a1.152,1.152,0,0,0-.034,1.591L18.5,22a1.154,1.154,0,1,0,1.634-1.629Z" transform="translate(-11.251 -3.193)" fill="#fff"/>
        </g>
      </g>
    </g>
    <g id="Group_3655" data-name="Group 3655" transform="translate(0 194)">
      <rect id="Rectangle_1845" data-name="Rectangle 1845" width="318" height="289" rx="6" transform="translate(73 252)" fill="#153669"/>
      <text id="Example" transform="translate(122 283)" fill="#8eb1e5" font-size="16" font-family="ArialMT, Arial"><tspan x="0" y="0">Example</tspan></text>
      <g id="Group_3637" data-name="Group 3637" transform="translate(67.402 -340)">
        <text id="when_you_make_a_goal_to_go_to_gym_every_day_for_1_hour_but_after_few_days_your_motivation_come_down_and_you_start_to_procrastinate_it_and_subsequently_just_completely_stop_it._Rather_than_this_approach_start_with_less_difficult_goal_let_say_3_times_a_wee" data-name="when you make a goal to go to gym every day for 1 hour but after few days your motivation come down and you start to procrastinate it and subsequently just completely stop it. 

Rather than this approach start with less difficult goal let say 3 times a wee" transform="translate(20.597 652)" fill="#fff" font-size="16" font-family="ArialMT, Arial"><tspan x="0" y="14">when you make a goal to go to gym </tspan><tspan x="0" y="37">every day for 1 hour but after few days </tspan><tspan x="0" y="60">your motivation come down and you start </tspan><tspan x="0" y="83">to procrastinate it and subsequently just </tspan><tspan x="0" y="106">completely stop it. </tspan><tspan x="0" y="129"></tspan><tspan x="0" y="152">Rather than this approach start with less </tspan><tspan x="0" y="175">difficult goal let say 3 times a week and </tspan><tspan x="0" y="198">then try to be better than yourself. </tspan></text>
      </g>
      <g id="Group_3639" data-name="Group 3639" transform="translate(54.309 -271.69)">
        <circle id="Ellipse_705" data-name="Ellipse 705" cx="12" cy="12" r="12" transform="translate(33.691 536.691)" fill="#edf4fd"/>
        <g id="Group_3638" data-name="Group 3638" transform="translate(39.284 541.152)">
          <path id="Icon_material-highlight" data-name="Icon material-highlight" d="M7.135,8.277ZM10.9,3h1.508V5.262H10.9ZM5.25,5.921,6.316,4.855l1.6,1.6L6.848,7.521ZM15.4,6.456l1.6-1.6,1.066,1.066-1.6,1.6Z" transform="translate(-5.25 -3)" fill="#1e64cc"/>
          <path id="Icon_material-lightbulb-outline" data-name="Icon material-lightbulb-outline" d="M9.582,12.889a.522.522,0,0,0,.52.52h2.082a.522.522,0,0,0,.52-.52v-.52H9.582ZM11.143,3A3.642,3.642,0,0,0,9.061,9.631v1.176a.522.522,0,0,0,.52.52H12.7a.522.522,0,0,0,.52-.52V9.631A3.642,3.642,0,0,0,11.143,3Zm1.483,5.777-.442.312v1.2H10.1V9.09L9.66,8.777a2.6,2.6,0,1,1,2.967,0Z" transform="translate(-4.737 1.667)" fill="#1e64cc"/>
        </g>
      </g>
    </g>
    <g id="Component_119_269" data-name="Component 119 – 269" transform="translate(0 787)">
      <g transform="matrix(1, 0, 0, 1, 0, -787)" filter="url(#Rectangle_1534)">
        <rect id="Rectangle_1534-2" data-name="Rectangle 1534" width="412" height="60" transform="translate(0 787)" fill="#102646"/>
      </g>
      <g id="Group_2755" data-name="Group 2755" transform="translate(0 -779)">
        <g id="Rectangle_1564" data-name="Rectangle 1564" transform="translate(12 789)" fill="#fff" stroke="#707070" stroke-width="1" opacity="0">
          <rect width="50" height="45" stroke="none"/>
          <rect x="0.5" y="0.5" width="49" height="44" fill="none"/>
        </g>
        <path id="Path_4565" data-name="Path 4565" d="M35.606,24.011l-7.368-7.1,7.368-7.1a1.37,1.37,0,0,0,.424-.982,1.4,1.4,0,0,0-.4-1,1.369,1.369,0,0,0-.982-.424h-.022a1.385,1.385,0,0,0-.982.4l-8.417,8.1a1.42,1.42,0,0,0-.424,1,1.382,1.382,0,0,0,.424,1l8.439,8.1a1.443,1.443,0,0,0,.982.4,1.42,1.42,0,0,0,1-.424,1.4,1.4,0,0,0,.4-1A1.274,1.274,0,0,0,35.606,24.011Z" transform="translate(5.036 792.435)" fill="#fff"/>
      </g>
    </g>
  </g>
</svg>
