<svg xmlns="http://www.w3.org/2000/svg" xmlns:xlink="http://www.w3.org/1999/xlink" width="412" height="847" viewBox="0 0 412 847">
  <defs>
    <clipPath id="clip-Bbq-44_2">
      <rect width="412" height="847"/>
    </clipPath>
  </defs>
  <g id="Bbq-44_2" data-name="Bbq-44 – 2" clip-path="url(#clip-Bbq-44_2)">
    <rect width="412" height="847" fill="#fff"/>
    <g id="Group_3527" data-name="Group 3527">
      <rect id="Rectangle_1722" data-name="Rectangle 1722" width="371" height="666" rx="16" transform="translate(22 26)" fill="#f2f5f7"/>
      <g id="Group_3103" data-name="Group 3103" transform="translate(-4 -12)">
        <text id="This_inventory_lists_different_attitudes_or_beliefs_that_people_sometimes_hold._Read_each_statement_carefully_and_decide_how_much_you_agree_or_disagree_with_it._For_each_of_the_statements_choose_the_number_matching_the_answer_that_best_describes_how_you_" data-name="This inventory lists different attitudes or beliefs that people sometimes hold. 
Read each statement carefully and decide how much you agree or disagree with it. For each of the statements, choose the number matching the answer that best describes how you " transform="translate(39 368)" fill="#808495" font-size="16" font-family="ArialMT, Arial"><tspan x="7.07" y="14">This inventory lists different attitudes or beliefs </tspan><tspan x="70.941" y="49">that people sometimes hold. </tspan><tspan x="4.676" y="84">Read each statement carefully and decide how </tspan><tspan x="3.805" y="119">much you agree or disagree with it. For each of </tspan><tspan x="10.91" y="154">the statements, choose the number matching </tspan><tspan x="9.133" y="189">the answer that best describes how you think. </tspan><tspan x="3.48" y="224">Because people are different, there are no right </tspan><tspan x="105.641" y="259">or wrong answers. </tspan></text>
        <g id="Group_1500" data-name="Group 1500" transform="translate(71 65)">
          <text id="OBQ-44_Questionnaire" data-name="OBQ-44 Questionnaire" fill="#1e64cc" font-size="24" font-family="Arial-BoldMT, Arial" font-weight="700"><tspan x="0" y="22">OBQ-44 Questionnaire</tspan></text>
        </g>
      </g>
    </g>
    <g id="Taking_notes-pana-2" data-name="Taking notes-pana-2" transform="translate(51.538 60.121)">
      <g id="freepik--background-complete--inject-5" transform="translate(42.6 56.104)">
        <path id="Path_5301" data-name="Path 5301" d="M53.4,120.18,45.68,157.454c3.437,3.49,7.079,6.783,12.959,8.026l28.286,4.97,6.646-43.814Z" transform="translate(-44.052 -90.847)" fill="#fafafa"/>
        <path id="Path_5302" data-name="Path 5302" d="M50.354,115.83,42.63,153.1l12.959,8.026,28.286,4.97,8.354-42.059Z" transform="translate(-42.614 -88.797)" fill="#f5f5f5"/>
        <path id="Path_5303" data-name="Path 5303" d="M47.887,182.57,42.6,184.558a16.088,16.088,0,0,0,4.679,4.758,23.67,23.67,0,0,0,8.28,3.241A15.649,15.649,0,0,1,47.887,182.57Z" transform="translate(-42.6 -120.251)" fill="#e0e0e0"/>
        <path id="Path_5304" data-name="Path 5304" d="M47.719,121.987l19.335-6-1.232-4.071L46.17,117.635Z" transform="translate(-44.283 -86.954)" fill="#ebebeb"/>
        <path id="Path_5305" data-name="Path 5305" d="M128.608,136.208l-12.536-15.9-3.352,2.612L125.1,139.217Z" transform="translate(-75.647 -90.908)" fill="#ebebeb"/>
        <path id="Path_5306" data-name="Path 5306" d="M94.3,149.225c0,.074-7.153-1.258-15.946-2.977S62.444,143.076,62.46,143s7.153,1.258,15.946,2.977S94.315,149.151,94.3,149.225Z" transform="translate(-51.96 -101.599)" fill="#e0e0e0"/>
        <path id="Path_5307" data-name="Path 5307" d="M91.909,160.034c0,.074-7.153-1.258-15.946-2.982s-15.93-3.146-15.893-3.246,7.153,1.258,15.946,2.977S91.925,159.96,91.909,160.034Z" transform="translate(-50.833 -106.692)" fill="#e0e0e0"/>
        <path id="Path_5308" data-name="Path 5308" d="M90.359,169.725c0,.074-7.153-1.258-15.941-2.977s-15.909-3.172-15.9-3.252,7.153,1.258,15.951,2.982S90.375,169.651,90.359,169.725Z" transform="translate(-50.103 -111.26)" fill="#e0e0e0"/>
        <path id="Path_5309" data-name="Path 5309" d="M88.489,178.986c0,.074-7.153-1.258-15.946-2.982s-15.909-3.172-15.893-3.246,7.153,1.258,15.946,2.977S88.5,178.912,88.489,178.986Z" transform="translate(-49.222 -115.625)" fill="#e0e0e0"/>
        <path id="Path_5310" data-name="Path 5310" d="M368.146,77.2l-10,24.368c-3.315.671-6.683,1.153-10.537-.407L329.46,93.07l13.149-27.71Z" transform="translate(-177.794 -65.011)" fill="#fafafa"/>
        <path id="Path_5311" data-name="Path 5311" d="M371.576,76.194l-9.993,24.374-10.543-.412L332.89,92.061,344.379,64.7Z" transform="translate(-179.41 -64.7)" fill="#f5f5f5"/>
        <path id="Path_5312" data-name="Path 5312" d="M375.5,126.52l2.258,3.172a11.394,11.394,0,0,1-4.536.936,16.453,16.453,0,0,1-6.006-1.348A10.729,10.729,0,0,0,375.5,126.52Z" transform="translate(-195.59 -93.835)" fill="#e0e0e0"/>
        <path id="Path_5313" data-name="Path 5313" d="M397.051,86.879,388.28,75.961l2.284-1.861,9.062,10.881Z" transform="translate(-205.515 -69.13)" fill="#ebebeb"/>
        <path id="Path_5314" data-name="Path 5314" d="M343.63,69.362l13.339-4.272.915,2.8-13.408,4.557Z" transform="translate(-184.472 -64.884)" fill="#ebebeb"/>
        <path id="Path_5315" data-name="Path 5315" d="M353.45,83.458c.026-.069,4.679,1.835,10.389,4.23s10.315,4.431,10.283,4.5-4.679-1.829-10.389-4.23S353.418,83.527,353.45,83.458Z" transform="translate(-189.1 -73.54)" fill="#e0e0e0"/>
        <path id="Path_5316" data-name="Path 5316" d="M350.64,90.588c.026-.074,4.679,1.829,10.389,4.23s10.31,4.431,10.283,4.5-4.684-1.829-10.389-4.23S350.608,90.657,350.64,90.588Z" transform="translate(-187.776 -76.9)" fill="#e0e0e0"/>
        <path id="Path_5317" data-name="Path 5317" d="M347.77,96.748c.032-.074,4.684,1.829,10.389,4.23s10.315,4.431,10.283,4.5-4.679-1.829-10.389-4.23S347.743,96.817,347.77,96.748Z" transform="translate(-186.423 -79.803)" fill="#e0e0e0"/>
        <path id="Path_5318" data-name="Path 5318" d="M345.27,102.778c.026-.069,4.679,1.835,10.389,4.23s10.31,4.431,10.283,4.5-4.684-1.829-10.394-4.23S345.238,102.847,345.27,102.778Z" transform="translate(-185.245 -82.645)" fill="#e0e0e0"/>
        <path id="Path_5319" data-name="Path 5319" d="M374.509,233.667c-8.1-6.6-9.215-17.818-8.137-27.747.18-1.66.127-3.421,1.026-4.822s2.818-2.258,4.23-1.449c1.19.671,1.623,2.147,2.226,3.384a9.728,9.728,0,0,0,3.622,4.013,3.711,3.711,0,0,0,3.389.56c1.491-.682,1.808-2.644,1.919-4.3q.317-4.621.629-9.247a15.439,15.439,0,0,1,.862-4.869,5.14,5.14,0,0,1,3.479-3.23,3.127,3.127,0,0,1,3.7,2.374,15.817,15.817,0,0,1-.106,2.057,1.744,1.744,0,0,0,.894,1.713,2.014,2.014,0,0,0,1.872-.624,22.042,22.042,0,0,0,4.388-5.663,30.834,30.834,0,0,1,4.135-5.874,8.966,8.966,0,0,1,6.308-2.95,5.355,5.355,0,0,1,5.213,4.061c.423,2.369-1.1,4.637-2.723,6.413a36.953,36.953,0,0,1-8.227,6.752,3.056,3.056,0,0,0-1.385,1.285c-.439,1.057.529,2.247,1.586,2.691a18.9,18.9,0,0,0,3.828.719,3.7,3.7,0,0,1,3.03,2.173c.529,1.739-.994,3.41-2.469,4.462a31.543,31.543,0,0,1-9.755,4.706,10.755,10.755,0,0,0-3.6,1.433,3.08,3.08,0,0,0-1.242,3.431,3.133,3.133,0,0,0,3.294,1.554,22.481,22.481,0,0,0,3.727-1.116c2.337-.693,5.255-.317,6.567,1.755a5.236,5.236,0,0,1,.211,4.663,12.161,12.161,0,0,1-2.807,3.9,31.9,31.9,0,0,1-14.275,8.528c-5.4,1.438-10.32,1.586-15.417-.735" transform="translate(-195.027 -117.62)" fill="#f5f5f5"/>
        <path id="Path_5320" data-name="Path 5320" d="M380.79,242.457a72.282,72.282,0,0,1,3.7-13.419,147.955,147.955,0,0,1,7.058-15.507l2.062-3.971c.677-1.3,1.348-2.6,2.088-3.817a74.438,74.438,0,0,1,4.632-6.778c1.586-2.083,3.172-4,4.637-5.816s2.908-3.415,4.267-4.854a58.687,58.687,0,0,1,6.9-6.286c.872-.677,1.586-1.179,2.036-1.512l.529-.381a1.111,1.111,0,0,1,.19-.116,1.58,1.58,0,0,1-.174.143l-.529.4c-.46.349-1.142.867-2,1.56a61.366,61.366,0,0,0-6.815,6.345c-1.348,1.438-2.755,3.077-4.23,4.864s-3.04,3.7-4.61,5.816a75.493,75.493,0,0,0-4.6,6.762c-.73,1.216-1.4,2.5-2.078,3.8s-1.359,2.644-2.057,3.965a151.988,151.988,0,0,0-7.069,15.47,73.939,73.939,0,0,0-3.759,13.355" transform="translate(-201.985 -119.04)" fill="#e0e0e0"/>
        <path id="Path_5321" data-name="Path 5321" d="M408.218,212.312a3.174,3.174,0,0,1-.106-.714c-.053-.465-.111-1.137-.164-1.967-.111-1.665-.19-3.965-.264-6.5s-.18-4.832-.317-6.493c-.063-.825-.127-1.5-.174-1.962a3.4,3.4,0,0,1-.037-.724,3.351,3.351,0,0,1,.153.708c.085.46.18,1.131.275,1.956.19,1.66.333,3.96.407,6.5s.127,4.758.174,6.5c0,.777.048,1.438.063,1.967a3.08,3.08,0,0,1-.011.724Z" transform="translate(-214.408 -125.614)" fill="#e0e0e0"/>
        <path id="Path_5322" data-name="Path 5322" d="M430.715,224.051a4.4,4.4,0,0,1-.857.042c-.529,0-1.343,0-2.321.053-1.962.069-4.669.254-7.645.587s-5.662.767-7.592,1.126c-.968.174-1.745.338-2.284.449a4.23,4.23,0,0,1-.846.137,4.556,4.556,0,0,1,.819-.259c.529-.143,1.306-.338,2.268-.529,1.924-.418,4.61-.878,7.6-1.221a76.257,76.257,0,0,1,7.677-.5c.983,0,1.782,0,2.332.042a4.636,4.636,0,0,1,.851.069Z" transform="translate(-215.36 -139.748)" fill="#e0e0e0"/>
        <path id="Path_5323" data-name="Path 5323" d="M380.6,247.152a1.4,1.4,0,0,1-.122-.27l-.307-.8c-.264-.693-.619-1.7-1.057-2.961-.846-2.506-1.9-6.011-3.019-9.892s-2.115-7.4-2.929-9.919c-.386-1.227-.708-2.236-.946-2.987-.1-.328-.185-.6-.249-.814a.968.968,0,0,1-.069-.291,1.351,1.351,0,0,1,.127.27l.3.793c.264.693.619,1.7,1.057,2.961.846,2.511,1.9,6.011,3.019,9.9s2.115,7.4,2.929,9.919c.386,1.227.708,2.236.946,2.982l.254.819A.973.973,0,0,1,380.6,247.152Z" transform="translate(-197.795 -137.524)" fill="#e0e0e0"/>
        <path id="Path_5324" data-name="Path 5324" d="M417.225,258.79a1.274,1.274,0,0,1-.291.1l-.841.217-3.1.756c-2.612.64-6.212,1.56-10.188,2.585s-7.592,1.919-10.22,2.5c-1.316.3-2.379.529-3.119.661l-.851.159a1.293,1.293,0,0,1-.307.037,1.275,1.275,0,0,1,.291-.1l.841-.217,3.1-.756c2.612-.634,6.212-1.56,10.194-2.585s7.619-1.919,10.262-2.506c1.316-.291,2.379-.529,3.119-.656l.857-.159a1.262,1.262,0,0,1,.254-.037Z" transform="translate(-205.529 -156.172)" fill="#e0e0e0"/>
      </g>
      <g id="freepik--Floor--inject-5" transform="translate(42.88 264.358)">
        <path id="Path_5325" data-name="Path 5325" d="M266.574,458.727c0,.079-50.027.137-111.717.137s-111.727-.058-111.727-.137,50.011-.137,111.727-.137S266.574,458.653,266.574,458.727Z" transform="translate(-43.13 -458.59)" fill="#263238"/>
      </g>
      <g id="freepik--Note--inject-5" transform="translate(104.131 46.46)">
        <path id="Path_5326" data-name="Path 5326" d="M170.77,63.977l12.758,38.892c5.065,1.412,10.225,2.533,16.39.529l29.037-10.505L211.692,48.48Z" transform="translate(-164.536 -47.412)" fill="#e0e0e0"/>
        <path id="Path_5327" data-name="Path 5327" d="M165.6,62.212,178.358,101.1l16.374.55,29.037-10.511L209.039,47.45Z" transform="translate(-162.1 -46.927)" fill="#b0bec5"/>
        <path id="Path_5328" data-name="Path 5328" d="M193.569,140.08l-3.849,4.674a17.545,17.545,0,0,0,6.921,1.956,25.473,25.473,0,0,0,9.459-1.385A17.006,17.006,0,0,1,193.569,140.08Z" transform="translate(-173.467 -90.582)" fill="#b0bec5"/>
        <path id="Path_5329" data-name="Path 5329" d="M193.569,140.08c-1.168,2.363-2.353,5.139-3.849,4.674a17.545,17.545,0,0,0,6.921,1.956,25.473,25.473,0,0,0,9.459-1.385A17.006,17.006,0,0,1,193.569,140.08Z" transform="translate(-173.467 -90.582)" opacity="0.3"/>
        <path id="Path_5330" data-name="Path 5330" d="M162.755,76.831,177.569,60.9l-3.326-3.135L158.98,73.605Z" transform="translate(-158.98 -51.786)" fill="#e0e0e0"/>
        <path id="Path_5331" data-name="Path 5331" d="M244.3,54.57,224.1,46.46l-1.734,4.23,20.266,8.565Z" transform="translate(-188.855 -46.46)" fill="#e0e0e0"/>
        <path id="Path_5332" data-name="Path 5332" d="M218.029,76.659c0,.069-7.349,2.644-16.464,5.747S185.032,87.968,185,87.894s7.344-2.644,16.464-5.747S218,76.585,218.029,76.659Z" transform="translate(-171.243 -60.691)" fill="#263238"/>
        <path id="Path_5333" data-name="Path 5333" d="M221.568,88c0,.074-7.349,2.644-16.464,5.752s-16.533,5.557-16.554,5.488,7.344-2.644,16.464-5.752S221.568,87.935,221.568,88Z" transform="translate(-172.916 -66.036)" fill="#263238"/>
        <path id="Path_5334" data-name="Path 5334" d="M225.338,97.879c0,.069-7.344,2.644-16.464,5.747s-16.528,5.562-16.554,5.488,7.349-2.644,16.469-5.747S225.317,97.8,225.338,97.879Z" transform="translate(-174.693 -70.692)" fill="#263238"/>
        <path id="Path_5335" data-name="Path 5335" d="M228.568,107.509c0,.074-7.349,2.644-16.464,5.752s-16.527,5.557-16.554,5.488,7.344-2.644,16.464-5.752S228.531,107.44,228.568,107.509Z" transform="translate(-176.215 -75.231)" fill="#263238"/>
      </g>
      <g id="freepik--character-2--inject-5" transform="translate(141.969 103.567)">
        <path id="Path_5336" data-name="Path 5336" d="M277.341,302.171l-2.559,23.792s-4.986-7.534-8.359-4.177c-3.215,3.2-8.893,26.568-8.893,26.568s-.074,7.619,3.976,9.633c12.99,6.471,27.467-5.689,27.467-5.689l-2.067-68.1h0A27.3,27.3,0,0,0,277.341,302.171Z" transform="translate(-243.263 -215.611)" fill="#b0bec5"/>
        <path id="Path_5337" data-name="Path 5337" d="M349.457,234.462l-22.476-1.792c-.137-2.644.048-12.779.048-12.779s-9.353-1.454-9.464-10.8,1.5-30.824,1.5-30.824h0a32.484,32.484,0,0,1,32.653,4.108l1.385,1.057Z" transform="translate(-271.554 -164.44)" fill="#b78876"/>
        <path id="Path_5338" data-name="Path 5338" d="M335.421,256.013a21.751,21.751,0,0,0,12.192-3.463s-2.881,6.725-12.213,5.885Z" transform="translate(-279.962 -200.695)" fill="#aa6550"/>
        <path id="Path_5339" data-name="Path 5339" d="M382.295,208.458c.159-.069,6.424-1.9,6.218,4.494s-6.577,4.869-6.582,4.684S382.295,208.458,382.295,208.458Z" transform="translate(-301.891 -179.776)" fill="#b78876"/>
        <path id="Path_5340" data-name="Path 5340" d="M385.755,217.158c.032,0,.111.079.3.174a1.1,1.1,0,0,0,.83.042,2.754,2.754,0,0,0,1.359-2.432,3.732,3.732,0,0,0-.264-1.586,1.28,1.28,0,0,0-.809-.883.56.56,0,0,0-.666.285c-.09.174-.058.3-.09.312s-.132-.111-.074-.375a.751.751,0,0,1,.264-.391.862.862,0,0,1,.619-.143,1.586,1.586,0,0,1,1.137,1.057,3.865,3.865,0,0,1,.328,1.792,2.9,2.9,0,0,1-1.713,2.707,1.184,1.184,0,0,1-1.015-.2C385.766,217.311,385.734,217.168,385.755,217.158Z" transform="translate(-303.691 -181.655)" fill="#aa6550"/>
        <path id="Path_5341" data-name="Path 5341" d="M324.31,206.922a1.338,1.338,0,0,0,1.29,1.348,1.274,1.274,0,0,0,1.375-1.205,1.338,1.338,0,0,0-1.285-1.348,1.285,1.285,0,0,0-1.38,1.205Z" transform="translate(-274.735 -178.621)" fill="#263238"/>
        <path id="Path_5342" data-name="Path 5342" d="M323.742,204.232c.164.174,1.179-.576,2.612-.571s2.49.724,2.644.529c.074-.079-.1-.4-.529-.73a3.669,3.669,0,0,0-2.115-.65,3.527,3.527,0,0,0-2.083.671C323.811,203.841,323.663,204.153,323.742,204.232Z" transform="translate(-274.458 -177.253)" fill="#263238"/>
        <path id="Path_5343" data-name="Path 5343" d="M350.93,207.922a1.338,1.338,0,0,0,1.285,1.348,1.285,1.285,0,0,0,1.38-1.205,1.343,1.343,0,0,0-1.29-1.348,1.28,1.28,0,0,0-1.375,1.205Z" transform="translate(-287.281 -179.092)" fill="#263238"/>
        <path id="Path_5344" data-name="Path 5344" d="M350.452,204.732c.169.174,1.179-.576,2.617-.571s2.49.724,2.644.529c.079-.074-.09-.391-.529-.724a3.7,3.7,0,0,0-2.115-.656,3.553,3.553,0,0,0-2.083.671C350.526,204.346,350.373,204.658,350.452,204.732Z" transform="translate(-287.047 -177.489)" fill="#263238"/>
        <path id="Path_5345" data-name="Path 5345" d="M337.344,215.489a9.894,9.894,0,0,0-2.332-.418c-.37-.037-.714-.111-.777-.365a1.893,1.893,0,0,1,.243-1.084q.529-1.332,1.084-2.8c1.512-3.976,2.6-7.249,2.437-7.307s-1.512,3.119-3.019,7.1c-.36.978-.708,1.914-1.057,2.813a2.078,2.078,0,0,0-.19,1.438.9.9,0,0,0,.6.529,2.364,2.364,0,0,0,.624.09A9.028,9.028,0,0,0,337.344,215.489Z" transform="translate(-279.152 -177.587)" fill="#263238"/>
        <path id="Path_5346" data-name="Path 5346" d="M349.764,194.412c.143.391,1.586.206,3.262.407s3.051.661,3.273.312c.1-.169-.137-.529-.687-.915a5.736,5.736,0,0,0-4.975-.529C350.018,193.921,349.706,194.222,349.764,194.412Z" transform="translate(-286.728 -172.794)" fill="#263238"/>
        <path id="Path_5347" data-name="Path 5347" d="M324.727,196.309c.254.323,1.242,0,2.432-.032s2.2.222,2.432-.122c.1-.164-.058-.492-.5-.8a3.511,3.511,0,0,0-3.918.116C324.754,195.812,324.616,196.146,324.727,196.309Z" transform="translate(-274.915 -173.486)" fill="#263238"/>
        <path id="Path_5348" data-name="Path 5348" d="M311.78,162.4a3.452,3.452,0,0,1,1.274-3.088,2.458,2.458,0,0,1,3.172.238,2.855,2.855,0,0,1,2.453-3.463c1.528-.1,2.829,1.057,4.3,1.459a6.887,6.887,0,0,0,4.367-.5c1.385-.555,2.675-1.327,4.076-1.84a11.959,11.959,0,0,1,15.3,7.021,5.331,5.331,0,0,1,5.631,2.115,8.655,8.655,0,0,1,1.332,6.133,19.65,19.65,0,0,1-1.057,4.2c0,.122,0,.238,0,.36-.1,5.139-.682,11.177-2.876,11.214-3.823.058-2.908-7.148-2.908-7.148-4.695-1.808-2.945-8.84-4.119-9.908s-3.627-3.542-13.45,1.475a19.024,19.024,0,0,1-11.658,1.264l-.243-.053h-.058a.826.826,0,0,1-.079-.032,8.813,8.813,0,0,1-2.522-1.057,4.986,4.986,0,0,1-2.073-2.31,2.712,2.712,0,0,1,.529-2.924A6,6,0,0,1,311.78,162.4Z" transform="translate(-268.82 -154.471)" fill="#263238"/>
        <path id="Path_5349" data-name="Path 5349" d="M358.924,340.751l.7,13.276,1.586,19.034H301.136l2.612-28.159L298.63,300.41c.444-15.724,6.482-22.259,18.833-23.76l-.973.122c1.7-.2,0,0,.973-.122a39.78,39.78,0,0,0,23.966,0h0c3.7.159,6.773,1.3,9.924,1.9,9.924,1.9,18.092,9.564,20.091,16.242,1.634,5.493,13.45,53.141,13.45,53.141H361.372Z" transform="translate(-262.633 -212.053)" fill="#b0bec5"/>
        <path id="Path_5350" data-name="Path 5350" d="M338.126,233.091a6.529,6.529,0,0,0,.835,1.634,2.173,2.173,0,0,0,1.544.9,1.967,1.967,0,0,0,1.644-.9,3.093,3.093,0,0,0,.46-1.872c0-.592-.3-1.3-.883-1.364a1.475,1.475,0,0,0-.714.153L337.93,232.9" transform="translate(-281.154 -190.768)" fill="#aa6550"/>
        <path id="Path_5351" data-name="Path 5351" d="M338.814,235.352a4.436,4.436,0,0,0,1.65-.2,2.364,2.364,0,0,0,1.242-1.131,2.469,2.469,0,0,0,.037-2.014,2.217,2.217,0,0,0-.264-.465c-.127-.127-.1-.122-.233-.1a4.536,4.536,0,0,0-.5.2l-.529.206c-.661.264-1.258.5-1.761.687a7.525,7.525,0,0,1-1.681.529,6.361,6.361,0,0,1,1.528-.867c.486-.233,1.057-.529,1.718-.8l.5-.222a5.823,5.823,0,0,1,.566-.233.714.714,0,0,1,.455,0,.783.783,0,0,1,.338.27,2.5,2.5,0,0,1,.349.582,2.887,2.887,0,0,1-.1,2.469,2.612,2.612,0,0,1-1.586,1.264,2.448,2.448,0,0,1-1.338.053C338.947,235.489,338.8,235.383,338.814,235.352Z" transform="translate(-280.611 -190.491)" fill="#263238"/>
        <path id="Path_5352" data-name="Path 5352" d="M266.773,329.822l-14.148-43.439-1.28-7.291s-3.849-16.263-4.023-17.87c-.2-1.861-1.142-2.21-1.819-2.115-1.057.19-1.676,1.586-1.554,3.172.042.529,1.057,9.252,1.057,9.252a20.737,20.737,0,0,0-1.94-2.168c-1.465-1.491-4.589-2.115-7.682-1.665s-3.923.83-3.807,2.041a1.533,1.533,0,0,0,.735,1.1,3.03,3.03,0,0,0,2.115.486c4.965-.629,6.588,1.888,6.588,1.888l.169.952s-3.257-1.829-5.562-.661a2.977,2.977,0,0,0-.9.7,3.912,3.912,0,0,0-2.744,6.165,1.66,1.66,0,0,0,1.665.809,2.115,2.115,0,0,0,.825-.629,3.034,3.034,0,0,1,.407-.375l.841,2.607s2.21,5.758,2.887,8.37l6.873,43.74A10.987,10.987,0,0,0,258.224,344h0a10.981,10.981,0,0,0,8.549-14.18Z" transform="translate(-230.876 -203.779)" fill="#b78876"/>
        <path id="Path_5353" data-name="Path 5353" d="M259.593,300.611a2.289,2.289,0,0,1-2.474-.973c-.582-.751-.883-1.687-1.406-2.48-1.586-2.379-4.832-3.241-6.281-5.689-.206-.344-.349-.825-.058-1.094s.7-.122,1.057,0l8.692,3.653" transform="translate(-239.341 -218.45)" fill="#b78876"/>
        <path id="Path_5354" data-name="Path 5354" d="M258.871,293.848a4.081,4.081,0,0,0-.9-.492c-.592-.285-1.459-.677-2.533-1.158l-3.775-1.65-1.1-.471a1.856,1.856,0,0,0-1.391-.238.788.788,0,0,0-.465.761,1.682,1.682,0,0,0,.217.74,6.346,6.346,0,0,0,.835,1.11,36.854,36.854,0,0,0,4.034,3.082,7.053,7.053,0,0,1,1.48,1.528,18.79,18.79,0,0,1,.931,1.655,3.331,3.331,0,0,0,2.115,1.84c.7.132,1.057-.138,1.026-.148a2.644,2.644,0,0,1-.973-.053,3.209,3.209,0,0,1-1.84-1.819c-.27-.529-.529-1.116-.9-1.724a7.306,7.306,0,0,0-1.539-1.66,42.263,42.263,0,0,1-3.949-3.072,5.614,5.614,0,0,1-.761-1c-.2-.338-.211-.7,0-.761a1.925,1.925,0,0,1,.983.227l1.1.455,3.823,1.549c1.094.428,1.983.772,2.6,1a3.7,3.7,0,0,0,.983.3Z" transform="translate(-239.105 -218.248)" fill="#aa6550"/>
        <path id="Path_5355" data-name="Path 5355" d="M241.511,283.263a3.812,3.812,0,0,0-.751-1.618,2.987,2.987,0,0,0-1.634-.936,7.7,7.7,0,0,0-2.39-.085,12.267,12.267,0,0,1-2.48.048,4.007,4.007,0,0,1-1.93-.714,1.586,1.586,0,0,1-.629-1.237.857.857,0,0,1,.116-.492c.032,0,0,.18,0,.486a1.465,1.465,0,0,0,.645,1.057,3.87,3.87,0,0,0,1.813.592,13.1,13.1,0,0,0,2.416-.079,7.477,7.477,0,0,1,2.5.127,3.141,3.141,0,0,1,1.745,1.089,2.818,2.818,0,0,1,.56,1.264A.994.994,0,0,1,241.511,283.263Z" transform="translate(-231.088 -212.798)" fill="#aa6550"/>
        <path id="Path_5356" data-name="Path 5356" d="M255.139,264a10.246,10.246,0,0,1,.211,1.729c.111,1.19.249,2.607.4,4.172s.333,2.977.465,4.166a9.925,9.925,0,0,1,.153,1.734,7.693,7.693,0,0,1-.4-1.7c-.185-1.057-.4-2.533-.566-4.166s-.27-3.119-.307-4.193a7.841,7.841,0,0,1,.037-1.745Z" transform="translate(-242.103 -206.091)" fill="#aa6550"/>
        <path id="Path_5357" data-name="Path 5357" d="M241.793,290.328a2.353,2.353,0,0,1-.529-.143,1.586,1.586,0,0,0-1.348.079.857.857,0,0,0-.37.772,4.415,4.415,0,0,0,.2,1.116,1.94,1.94,0,0,1-.058,1.385,1.66,1.66,0,0,1-1.253.835,1.9,1.9,0,0,1-1.428-.444,2.4,2.4,0,0,1-.772-1.142,7.677,7.677,0,0,1-.206-2.231,4.3,4.3,0,0,1,.291-1.48,1.057,1.057,0,0,1,.307-.465,3.585,3.585,0,0,0-.18.529,5.187,5.187,0,0,0-.169,1.443,8.026,8.026,0,0,0,.264,2.115,1.877,1.877,0,0,0,1.851,1.338,1.343,1.343,0,0,0,.994-.65,1.655,1.655,0,0,0,.048-1.153,4.669,4.669,0,0,1-.174-1.2,1.11,1.11,0,0,1,.529-.968,1.666,1.666,0,0,1,1.517,0C241.64,290.2,241.825,290.307,241.793,290.328Z" transform="translate(-233.125 -217.689)" fill="#aa6550"/>
        <path id="Path_5358" data-name="Path 5358" d="M234.55,293.345a.768.768,0,0,1,0,.5,1.533,1.533,0,0,1-.915,1,2.03,2.03,0,0,1-1.972-.386,3.3,3.3,0,0,1-1.094-2.2,4.023,4.023,0,0,1,.492-2.406,3.77,3.77,0,0,1,1.422-1.412,3.653,3.653,0,0,1,1.264-.449,1.057,1.057,0,0,1,.492,0,6.42,6.42,0,0,0-1.628.661,3.7,3.7,0,0,0-1.7,3.574,3.067,3.067,0,0,0,.957,1.993,1.792,1.792,0,0,0,1.681.4,1.449,1.449,0,0,0,.872-.814C234.534,293.524,234.518,293.345,234.55,293.345Z" transform="translate(-230.545 -217.386)" fill="#aa6550"/>
        <path id="Path_5359" data-name="Path 5359" d="M250.65,304.3a1.374,1.374,0,0,1,.83-.079,3.246,3.246,0,0,1,1.93.9l-.28.116a8.461,8.461,0,0,1,.069-1.184,7.473,7.473,0,0,1,1.4-3.828,16.942,16.942,0,0,0-1.057,3.87,11.025,11.025,0,0,0-.079,1.142v.4l-.275-.28a3.442,3.442,0,0,0-1.729-.931A6.871,6.871,0,0,1,250.65,304.3Z" transform="translate(-240.02 -223.164)" fill="#aa6550"/>
        <path id="Path_5360" data-name="Path 5360" d="M245.246,279.926c.085.032-.185.693-.915,1.1s-1.428.312-1.412.222.613-.159,1.242-.529S245.156,279.874,245.246,279.926Z" transform="translate(-236.377 -213.595)" fill="#aa6550"/>
        <path id="Path_5361" data-name="Path 5361" d="M307.09,279.92s-.2.211-.529.619a6.252,6.252,0,0,0-1.227,1.967,2.59,2.59,0,0,0-.138.767,1.7,1.7,0,0,0,.2.8,2.8,2.8,0,0,0,1.523,1.131,14.968,14.968,0,0,0,4.838.682c.909,0,1.893.053,2.9.111l1.539.18c.529.058,1.057.2,1.586.3a16.1,16.1,0,0,1,6.345,2.823,11.633,11.633,0,0,1,2.644,2.755,9.813,9.813,0,0,1,.5.857c.153.312.259.613.386.92a10.771,10.771,0,0,1,.529,1.93,12.277,12.277,0,0,1-1.243,8.126,11.849,11.849,0,0,1-6.249,5.335,12.215,12.215,0,0,1-3.891.772,15.109,15.109,0,0,1-3.764-.455,23.491,23.491,0,0,0-3.458-.619,5.953,5.953,0,0,0-3.141.555,8.068,8.068,0,0,0-2.353,1.909c-.661.74-1.221,1.517-1.776,2.252a11.189,11.189,0,0,1-3.611,3.458,4.468,4.468,0,0,1-2.014.529,4.526,4.526,0,0,1-1.718-.317,3.8,3.8,0,0,1-1.179-.745,2.818,2.818,0,0,1-.592-.835,1.829,1.829,0,0,1-.185-.814,7.821,7.821,0,0,0,.286.767,2.909,2.909,0,0,0,.6.761,3.7,3.7,0,0,0,1.142.666,4.2,4.2,0,0,0,3.516-.28A11.038,11.038,0,0,0,302,313.4c.529-.74,1.1-1.533,1.771-2.305a8.422,8.422,0,0,1,2.453-2.057,6.424,6.424,0,0,1,3.378-.634,24.384,24.384,0,0,1,3.537.608,14.665,14.665,0,0,0,3.638.428,11.9,11.9,0,0,0,3.7-.751,11.367,11.367,0,0,0,5.959-5.1,11.78,11.78,0,0,0,1.195-7.761,10.971,10.971,0,0,0-.529-1.845c-.127-.3-.233-.6-.365-.867a7.568,7.568,0,0,0-.465-.8,11.219,11.219,0,0,0-2.5-2.644,15.767,15.767,0,0,0-6.144-2.781c-.529-.1-1.057-.243-1.549-.3l-1.512-.2c-.994-.069-1.946-.111-2.871-.143a15.063,15.063,0,0,1-4.938-.788,3.066,3.066,0,0,1-1.6-1.274,1.9,1.9,0,0,1-.206-.925,2.723,2.723,0,0,1,.174-.83,5.863,5.863,0,0,1,1.348-1.972A2.92,2.92,0,0,1,307.09,279.92Z" transform="translate(-259.984 -213.594)" fill="#fafafa"/>
        <path id="Path_5362" data-name="Path 5362" d="M395.435,332.6a3.976,3.976,0,0,1-.254-1.19,9.76,9.76,0,0,1,.217-3.315,12.8,12.8,0,0,1,2.057-4.489,14.761,14.761,0,0,1,4.436-4.092,18.606,18.606,0,0,1,5.647-2.115,24.318,24.318,0,0,1,4.891-.5,27.233,27.233,0,0,1,3.3.164,4.478,4.478,0,0,1,1.19.211c0,.1-1.718-.1-4.483,0a26.747,26.747,0,0,0-4.79.613A19.035,19.035,0,0,0,402.171,320a14.747,14.747,0,0,0-4.309,3.918,12.938,12.938,0,0,0-2.083,4.283,10.986,10.986,0,0,0-.386,3.2,7.968,7.968,0,0,1,.042,1.195Z" transform="translate(-308.111 -231.021)" fill="#fafafa"/>
        <path id="Path_5363" data-name="Path 5363" d="M427.94,364a3.821,3.821,0,0,1-.624.931,15.049,15.049,0,0,1-2.115,2.184,17.33,17.33,0,0,1-3.812,2.453,17.03,17.03,0,0,1-10.891,1.317,17.251,17.251,0,0,1-4.288-1.48,15.113,15.113,0,0,1-2.585-1.613,3.653,3.653,0,0,1-.825-.756,38.933,38.933,0,0,0,3.579,2.02,17.759,17.759,0,0,0,18.574-2.242C426.936,365.229,427.856,363.918,427.94,364Z" transform="translate(-311.727 -253.217)" fill="#fafafa"/>
        <path id="Path_5364" data-name="Path 5364" d="M372.266,360.78a2.382,2.382,0,0,1-.481.2,3.658,3.658,0,0,0-1.211.8,5.858,5.858,0,0,0-1.216,1.951,18.359,18.359,0,0,0-.856,2.977,34.575,34.575,0,0,1-.857,3.7,8.829,8.829,0,0,1-.915,1.972,7.788,7.788,0,0,1-1.544,1.724,12.034,12.034,0,0,1-4.367,2.2c-1.628.486-3.352.751-5.086,1.089a21.328,21.328,0,0,0-9.036,3.764,14.735,14.735,0,0,0-3.014,3.035,13.312,13.312,0,0,0-1.718,3.31,11.409,11.409,0,0,0-.56,5.351c.19,1.274.481,1.94.423,1.962a2.114,2.114,0,0,1-.222-.476,4.9,4.9,0,0,1-.206-.6,7.373,7.373,0,0,1-.206-.846,11.134,11.134,0,0,1,.4-5.509,13.451,13.451,0,0,1,1.713-3.452,15.121,15.121,0,0,1,3.077-3.172,21.45,21.45,0,0,1,9.242-3.9c1.75-.344,3.458-.6,5.039-1.057a11.632,11.632,0,0,0,4.2-2.078,7.281,7.281,0,0,0,1.459-1.586,8.486,8.486,0,0,0,.888-1.85,36.212,36.212,0,0,0,.909-3.664,17.632,17.632,0,0,1,.946-3.024,5.816,5.816,0,0,1,1.359-1.983,3.3,3.3,0,0,1,1.316-.756A1.585,1.585,0,0,1,372.266,360.78Z" transform="translate(-282.61 -251.702)" fill="#fafafa"/>
        <path id="Path_5365" data-name="Path 5365" d="M365.4,353.658a2.221,2.221,0,0,1,.275,1.084,4.668,4.668,0,0,1-.846,2.924,4.5,4.5,0,0,1-1.586,1.443,4.067,4.067,0,0,1-1.147.418,4.558,4.558,0,0,1-1.29.053,5.028,5.028,0,0,1-2.538-1.026,4.489,4.489,0,0,1-1.639-2.453,4.177,4.177,0,0,1-.026-1.946,4.262,4.262,0,0,1,.846-1.66,8.536,8.536,0,0,1,1.158-1.264,4.111,4.111,0,0,1,.671-.5,1.771,1.771,0,0,1,.83-.291l.069.471-.259.063-.132-.455a4.489,4.489,0,0,1,2.913.159,4.716,4.716,0,0,1,1.84,1.274,3.976,3.976,0,0,1,.751,1.216c.111.312.137.486.116.492a7.33,7.33,0,0,0-1.057-1.517,4.706,4.706,0,0,0-1.771-1.1,4.172,4.172,0,0,0-2.644-.069l-.132-.455.259-.074.074.476a2.39,2.39,0,0,0-1.184.687,8.554,8.554,0,0,0-1.057,1.211,3.484,3.484,0,0,0-.708,3.172,4.05,4.05,0,0,0,1.433,2.162,4.653,4.653,0,0,0,2.263.946,4.151,4.151,0,0,0,1.147-.026,3.843,3.843,0,0,0,1.026-.344,4.23,4.23,0,0,0,1.486-1.269,4.673,4.673,0,0,0,.946-2.691C365.466,354.055,365.344,353.674,365.4,353.658Z" transform="translate(-289.905 -246.786)" fill="#fafafa"/>
        <path id="Path_5366" data-name="Path 5366" d="M307.565,324a.37.37,0,0,1,0,.143v.412c0,.386-.048.92-.079,1.586-.085,1.385-.164,3.389-.275,5.863-.206,4.954-.412,11.8-.571,19.361s-.259,14.413-.333,19.367c-.037,2.464-.069,4.462-.09,5.874,0,.671-.026,1.205-.032,1.586v.418a.5.5,0,0,1,0,.143.424.424,0,0,1,0-.143v-7.873c0-4.959.09-11.806.254-19.377s.391-14.407.65-19.361c.137-2.474.249-4.478.365-5.858.053-.677.1-1.211.127-1.586a3.556,3.556,0,0,1,.042-.418A.587.587,0,0,1,307.565,324Z" transform="translate(-266.19 -234.368)" fill="#263238"/>
        <g id="Group_3119" data-name="Group 3119" transform="translate(31.27 106.815)" opacity="0.2">
          <path id="Path_5367" data-name="Path 5367" d="M289.69,388.45c2.95,1.412,6.8-1.3,8.311-4.2a87.433,87.433,0,0,0,.682-9.665c-.206-6.048.238-12.039.032-18.087a18.975,18.975,0,0,1-4.314,9.823,6.614,6.614,0,0,0-1.623,2.5c-.434,1.745.9,4.88,1.755,6.461,2.644,4.832-3.119,13.218-4.653,13.043" transform="translate(-289.69 -356.5)"/>
        </g>
        <g id="Group_3120" data-name="Group 3120" transform="translate(86.484 99.296)" opacity="0.2">
          <path id="Path_5368" data-name="Path 5368" d="M394.12,342.28q1.443,18.082,2.9,36.169a10.523,10.523,0,0,0,.634,3.347,3.616,3.616,0,0,0,2.432,2.221c1.713.349,3.378-1.126,3.86-2.807a10.1,10.1,0,0,0-.322-5.171c-.719-2.892-1.528-5.758-2.342-8.623q-3.537-12.478-7.079-24.95" transform="translate(-394.12 -342.28)"/>
        </g>
        <path id="Path_5369" data-name="Path 5369" d="M319.936,418.291a6.9,6.9,0,0,0,.809-1.919,9.056,9.056,0,0,0-.9-5.509c-.5-1.094-1.2-2.231-1.909-3.479a15.227,15.227,0,0,1-1.787-4.272,10.178,10.178,0,0,1,.37-5.118c.529-1.7,1.3-3.357,1.914-5.091a15.19,15.19,0,0,0,.264-10.114,14.8,14.8,0,0,0-2-4.008,15.6,15.6,0,0,0-2.67-2.871,15.861,15.861,0,0,0-4.965-2.77c-1.285-.428-2.036-.529-2.025-.592a1.8,1.8,0,0,1,.529.048,10.424,10.424,0,0,1,1.539.344,15.063,15.063,0,0,1,5.144,2.644,15.466,15.466,0,0,1,2.8,2.9,15.211,15.211,0,0,1,2.115,4.119,15.539,15.539,0,0,1-.233,10.458c-.634,1.766-1.406,3.41-1.914,5.065a9.681,9.681,0,0,0-.391,4.854,14.686,14.686,0,0,0,1.692,4.156c.682,1.253,1.375,2.406,1.866,3.542a8.991,8.991,0,0,1,.751,5.721,5.186,5.186,0,0,1-.65,1.449C320.078,418.165,319.952,418.3,319.936,418.291Z" transform="translate(-266.592 -257.247)" fill="#fafafa"/>
        <path id="Path_5370" data-name="Path 5370" d="M407.325,288.12a2.928,2.928,0,0,1-.529,1.057,7.751,7.751,0,0,1-2.295,2.231,9.85,9.85,0,0,1-4.51,1.491,15,15,0,0,1-5.758-.735,12.086,12.086,0,0,1-5.028-2.918,7.45,7.45,0,0,1-1.465-2.115,6.953,6.953,0,0,1-.571-2.168,5.472,5.472,0,0,1,.592-3.146,3.364,3.364,0,0,1,.264-.428,1.8,1.8,0,0,1,.233-.291c.132-.143.211-.217.227-.2s-.238.349-.529,1.015a5.652,5.652,0,0,0-.391,3.008,6.7,6.7,0,0,0,.592,2.02,7.248,7.248,0,0,0,1.417,1.951,11.832,11.832,0,0,0,4.827,2.749,15.031,15.031,0,0,0,5.557.756,9.713,9.713,0,0,0,4.341-1.316,8.5,8.5,0,0,0,2.326-2.02,11.339,11.339,0,0,1,.7-.941Z" transform="translate(-304.345 -214.054)" fill="#fafafa"/>
        <path id="Path_5371" data-name="Path 5371" d="M400.241,350.849a.885.885,0,0,1-.058-.148c-.032-.1-.079-.259-.137-.444-.116-.407-.285-.978-.5-1.708l-1.8-6.308c-1.5-5.345-3.564-12.689-5.816-20.831-1.131-4.071-2.2-7.931-3.172-11.478a38.942,38.942,0,0,1-1.126-5.086,15.57,15.57,0,0,1,0-4.542,9.791,9.791,0,0,1,2.992-5.752,7.075,7.075,0,0,1,1.486-1l.428-.18a.487.487,0,0,1,.148-.053,8.369,8.369,0,0,0-1.993,1.311,9.765,9.765,0,0,0-2.866,5.7,15.38,15.38,0,0,0,.048,4.478,38.988,38.988,0,0,0,1.142,5.049c.983,3.532,2.067,7.4,3.2,11.473,2.247,8.137,4.283,15.5,5.758,20.852.724,2.644,1.306,4.817,1.718,6.345.19.735.344,1.316.449,1.729.048.185.085.333.111.449a.577.577,0,0,1-.016.137Z" transform="translate(-304.5 -219.909)" fill="#263238"/>
        <path id="Path_5372" data-name="Path 5372" d="M348.457,175.827a4.933,4.933,0,0,0,0-1.131A4.415,4.415,0,0,0,347,172.052a5.943,5.943,0,0,0-4.23-1.391,17.951,17.951,0,0,0-5.472,1.221c-.952.312-1.9.613-2.829.82a14.334,14.334,0,0,1-2.733.333,14.957,14.957,0,0,1-4.61-.6,14.274,14.274,0,0,1-2.881-1.227,7.449,7.449,0,0,1-.724-.444,1.226,1.226,0,0,1-.238-.18s.36.2,1.015.529a15.481,15.481,0,0,0,2.887,1.126,15.01,15.01,0,0,0,4.542.529,14.756,14.756,0,0,0,2.686-.338c.915-.206,1.845-.529,2.8-.819a18.068,18.068,0,0,1,5.551-1.216,6.086,6.086,0,0,1,4.346,1.5,4.426,4.426,0,0,1,1.438,2.755,2.554,2.554,0,0,1-.09,1.179Z" transform="translate(-274.25 -161.97)" fill="#455a64"/>
        <path id="Path_5373" data-name="Path 5373" d="M379.466,194.308a1.408,1.408,0,0,1-.127-.2c-.074-.132-.169-.333-.291-.6a11.936,11.936,0,0,1-.74-2.321,12.689,12.689,0,0,1-.243-3.616,31.721,31.721,0,0,1,.835-4.346,8.486,8.486,0,0,0,0-4.293,4.325,4.325,0,0,0-.894-1.634,3.288,3.288,0,0,0-1.343-.878,3.056,3.056,0,0,0-2.31.058,4.124,4.124,0,0,0-.714.5,1.755,1.755,0,0,1,.666-.6,3.114,3.114,0,0,1,2.421-.148,3.474,3.474,0,0,1,1.449.909,4.589,4.589,0,0,1,.968,1.708,8.66,8.66,0,0,1,0,4.431,33.77,33.77,0,0,0-.851,4.309,13.261,13.261,0,0,0,.18,3.553,13.876,13.876,0,0,0,.65,2.321A6.827,6.827,0,0,1,379.466,194.308Z" transform="translate(-297.984 -164.648)" fill="#455a64"/>
        <path id="Path_5374" data-name="Path 5374" d="M348.489,169.881a2.008,2.008,0,0,1,0-.375,10.317,10.317,0,0,1,.042-1.057,12.6,12.6,0,0,0-.434-3.886,6.942,6.942,0,0,0-1.248-2.358,4.843,4.843,0,0,0-2.506-1.655,6.3,6.3,0,0,0-3.347.137,15.332,15.332,0,0,0-3.347,1.517,27.01,27.01,0,0,1-3.32,1.7,10.083,10.083,0,0,1-3.421.687,10.812,10.812,0,0,1-3.13-.381,12.284,12.284,0,0,1-2.538-1.057,10.326,10.326,0,0,1-3.008-2.57,6.716,6.716,0,0,1-.613-.888,1.847,1.847,0,0,1-.18-.328,1.706,1.706,0,0,1,.227.3,7.648,7.648,0,0,0,.645.851,10.78,10.78,0,0,0,3.019,2.464,12.2,12.2,0,0,0,2.506,1,10.806,10.806,0,0,0,3.066.349,9.908,9.908,0,0,0,3.326-.682,27.345,27.345,0,0,0,3.283-1.7,15.683,15.683,0,0,1,3.41-1.533,6.582,6.582,0,0,1,3.484-.127,5.033,5.033,0,0,1,2.617,1.761,6.937,6.937,0,0,1,1.258,2.448,11.769,11.769,0,0,1,.354,3.939c-.026.471-.063.83-.1,1.057A1.543,1.543,0,0,1,348.489,169.881Z" transform="translate(-273.383 -156.78)" fill="#455a64"/>
        <path id="Path_5375" data-name="Path 5375" d="M345.1,420.906l39.553-5.9-.634-3.521h21.254l.619,5.414a16.353,16.353,0,0,1-15.9,19.446l-46.114-.529Z" transform="translate(-283.959 -275.601)" fill="#b78876"/>
        <path id="Path_5376" data-name="Path 5376" d="M326.136,427.169a42.066,42.066,0,0,1-5.261-2.231,17.241,17.241,0,0,0-8.1-1.586l-10.992.56a5.369,5.369,0,0,0,1.845,2.458c1.168.645,8,.782,8,.782l-.354.36a7.894,7.894,0,0,1-5.467,2.4l-1.057.026a10.25,10.25,0,0,1-2.295-.449l-2.712-1.094c-.82-.37-1.687-.312-2.046.529-.323.745-.085,1.776,2.157,2.9,1.248.629,5.89,2.236,5.89,2.236a10.833,10.833,0,0,0,.27,1.956c.2.677,2.025,1.348,2.025,1.348a24.6,24.6,0,0,0,1.618,2.908,17.284,17.284,0,0,0,3.622,1.248,15.56,15.56,0,0,0,8.66-.069l4.193-1.248V427.444" transform="translate(-262.138 -281.182)" fill="#b78876"/>
        <path id="Path_5377" data-name="Path 5377" d="M318.2,445.042a12.52,12.52,0,0,1-5.546-1.459c.032-.074,1.232.391,2.76.788S318.207,444.963,318.2,445.042Z" transform="translate(-269.24 -290.723)" fill="#aa6550"/>
        <path id="Path_5378" data-name="Path 5378" d="M319.794,450.508a2.754,2.754,0,0,1-1.544-.111,2.807,2.807,0,0,1-1.391-.687,48.866,48.866,0,0,0,2.934.8Z" transform="translate(-271.224 -293.614)" fill="#aa6550"/>
        <path id="Path_5379" data-name="Path 5379" d="M431.389,427.2c-.053,0-.312-.767-.946-1.925a14.8,14.8,0,0,0-1.269-1.935,16.415,16.415,0,0,0-1.919-2.078,16.777,16.777,0,0,0-2.273-1.687,15.245,15.245,0,0,0-2.057-1.057c-1.221-.5-2.03-.682-2.014-.735a2.483,2.483,0,0,1,.576.116,5.14,5.14,0,0,1,.656.174c.254.079.529.159.857.286a13.486,13.486,0,0,1,2.115,1.015,15.691,15.691,0,0,1,2.326,1.7,16.21,16.21,0,0,1,1.94,2.115,13.549,13.549,0,0,1,1.232,2c.164.291.27.576.381.819a5.231,5.231,0,0,1,.238.634A2.344,2.344,0,0,1,431.389,427.2Z" transform="translate(-320.262 -278.566)" fill="#aa6550"/>
        <path id="Path_5380" data-name="Path 5380" d="M319.715,428.72a4.949,4.949,0,0,1-.846.9,13.859,13.859,0,0,1-2.4,1.813,9.516,9.516,0,0,1-2.807,1.084,3.929,3.929,0,0,1-1.237.132,15.921,15.921,0,0,0,3.9-1.454,18.264,18.264,0,0,0,2.406-1.724A6.4,6.4,0,0,1,319.715,428.72Z" transform="translate(-269.136 -283.722)" fill="#aa6550"/>
      </g>
      <g id="freepik--character-1--inject-5" transform="translate(52.401 109.564)">
        <path id="Path_5381" data-name="Path 5381" d="M102.441,346.054c.941,0-7.2,21.878-9.3,27.467-.233.619-.391,1.163-.391,1.163l57.006.1-.671-53.046a.794.794,0,0,0,0-.106l-4.758-37.94a.941.941,0,0,0-.682-.788c-2.258-.608-10.394-2.707-16.617-2.94a129.175,129.175,0,0,0-17.844,1.179s-9.48.941-14.714,2.844a.931.931,0,0,0-.608,1.01Z" transform="translate(-76.036 -219.594)" fill="#b0bec5"/>
        <path id="Path_5382" data-name="Path 5382" d="M147.481,360.5a3.885,3.885,0,0,1-.285.693,6.542,6.542,0,0,1-.4.777,10.627,10.627,0,0,1-.6.989,12.363,12.363,0,0,1-.835,1.137,14.381,14.381,0,0,1-1.057,1.211,18.559,18.559,0,0,1-2.855,2.353,19.084,19.084,0,0,1-3.3,1.681c-.529.185-1.057.375-1.539.5a12.412,12.412,0,0,1-1.375.307,10.937,10.937,0,0,1-1.147.159,6.282,6.282,0,0,1-.878.058,3.4,3.4,0,0,1-.745,0c0-.058,1.057-.053,2.733-.391a16.318,16.318,0,0,0,2.855-.867,19.562,19.562,0,0,0,3.241-1.676,19.208,19.208,0,0,0,2.829-2.3,13.106,13.106,0,0,0,1.057-1.179,12.685,12.685,0,0,0,.851-1.1C147.021,361.457,147.428,360.473,147.481,360.5Z" transform="translate(-94.751 -257.567)" fill="#263238"/>
        <g id="Group_3121" data-name="Group 3121" transform="translate(18.649 133.491)" opacity="0.2">
          <path id="Path_5383" data-name="Path 5383" d="M96.41,434.583a16.776,16.776,0,0,0,16.353-2.046c2.057-1.491,3.78-3.442,6-4.684,3.077-1.713,6.741-1.877,10.257-2.115a50.053,50.053,0,0,0,13.863-2.554,5.541,5.541,0,0,0,2.427-1.465,2.174,2.174,0,0,0,.217-2.644,3.25,3.25,0,0,0-2.712-.772c-14.74.434-28.212,1.613-42.561,5.023" transform="translate(-96.41 -418.297)"/>
        </g>
        <path id="Path_5384" data-name="Path 5384" d="M126.46,171.6c4.557-4.642,11.748-7.4,17.7-4.758,4.008,1.755,6.725,5.514,10.241,8.11,2.559,1.893,5.721,3.357,7.064,6.244,1.184,2.543.613,5.509.328,8.3s-.085,6.011,2.078,7.8c1.131.936,2.644,1.311,3.907,2.041a10.453,10.453,0,0,1,4.653,7.259,31.181,31.181,0,0,1-.042,8.872l-12.271,2.337-2.014-3.389-.693,5.314-15.66,1.412Z" transform="translate(-91.923 -165.814)" fill="#263238"/>
        <path id="Path_5385" data-name="Path 5385" d="M121.767,185.1v3.41L120.8,239.7c-.085,5.932,5.594,10.981,11.949,11.024h0c6.413.042,9.03-4.758,9.215-10.77.19-6.286.529-12.906.529-12.906s8.137-1.121,10.109-11.632c.978-5.234.952-13.858.7-20.916a11.172,11.172,0,0,0-12.028-10.749Z" transform="translate(-89.255 -174.251)" fill="#ffbe9d"/>
        <path id="Path_5386" data-name="Path 5386" d="M174.507,215.812a1.348,1.348,0,0,1-1.343,1.327,1.3,1.3,0,0,1-1.364-1.258,1.359,1.359,0,0,1,1.343-1.332,1.3,1.3,0,0,1,1.364,1.264Z" transform="translate(-113.292 -188.781)" fill="#263238"/>
        <path id="Path_5387" data-name="Path 5387" d="M173.651,211.124c-.174.174-1.179-.619-2.644-.65s-2.548.661-2.7.476c-.074-.079.106-.391.582-.719a3.669,3.669,0,0,1,2.168-.6,3.558,3.558,0,0,1,2.115.74C173.593,210.722,173.736,211.044,173.651,211.124Z" transform="translate(-111.637 -186.461)" fill="#263238"/>
        <path id="Path_5388" data-name="Path 5388" d="M147.327,215.812a1.353,1.353,0,0,1-1.343,1.327,1.3,1.3,0,0,1-1.364-1.258,1.359,1.359,0,0,1,1.343-1.332,1.3,1.3,0,0,1,1.364,1.264Z" transform="translate(-100.482 -188.781)" fill="#263238"/>
        <path id="Path_5389" data-name="Path 5389" d="M146.511,210.889c-.174.169-1.179-.619-2.644-.656s-2.548.666-2.7.481c-.074-.079.106-.4.582-.719a3.7,3.7,0,0,1,2.168-.608,3.579,3.579,0,0,1,2.115.74C146.453,210.488,146.6,210.81,146.511,210.889Z" transform="translate(-98.846 -186.349)" fill="#263238"/>
        <path id="Path_5390" data-name="Path 5390" d="M160.428,222.145a9.605,9.605,0,0,1,2.379-.365c.375-.026.73-.09.8-.344a1.882,1.882,0,0,0-.217-1.11c-.323-.915-.666-1.866-1.026-2.871-1.417-4.076-2.432-7.4-2.268-7.487s1.449,3.209,2.866,7.291c.344,1,.671,1.962.978,2.881a2.115,2.115,0,0,1,.153,1.465.931.931,0,0,1-.629.529,2.364,2.364,0,0,1-.634.069A12.1,12.1,0,0,1,160.428,222.145Z" transform="translate(-107.767 -186.623)" fill="#263238"/>
        <path id="Path_5391" data-name="Path 5391" d="M149.223,261.956a26.879,26.879,0,0,1-14.053-4.166s3.23,7.354,13.842,6.656Z" transform="translate(-96.028 -209.161)" fill="#eb996e"/>
        <path id="Path_5392" data-name="Path 5392" d="M155.492,238.63a2.644,2.644,0,0,0-2.332-1.057,2.406,2.406,0,0,0-1.681.846,1.528,1.528,0,0,0-.164,1.734,1.776,1.776,0,0,0,1.9.529,5.6,5.6,0,0,0,1.893-1.057,1.554,1.554,0,0,0,.428-.423.481.481,0,0,0,0-.529" transform="translate(-103.545 -199.629)" fill="#eb996e"/>
        <path id="Path_5393" data-name="Path 5393" d="M152.337,234.65c.238,0,.2,1.586,1.517,2.739s3.019,1.031,3.024,1.253c0,.1-.386.3-1.1.3a3.912,3.912,0,0,1-2.522-.957,3.421,3.421,0,0,1-1.174-2.289C152.036,235.025,152.226,234.639,152.337,234.65Z" transform="translate(-103.996 -198.255)" fill="#263238"/>
        <path id="Path_5394" data-name="Path 5394" d="M146.219,203.155c-.159.391-1.586.164-3.326.323s-3.114.587-3.331.227c-.1-.174.153-.529.724-.909a5.816,5.816,0,0,1,5.07-.418C145.976,202.648,146.282,202.97,146.219,203.155Z" transform="translate(-98.089 -182.86)" fill="#263238"/>
        <path id="Path_5395" data-name="Path 5395" d="M173.146,205.46c-.323.323-1.533-.058-3.008-.116s-2.718.148-3-.206c-.122-.169.085-.5.64-.793a4.811,4.811,0,0,1,2.459-.476,4.758,4.758,0,0,1,2.379.73C173.125,204.953,173.289,205.3,173.146,205.46Z" transform="translate(-111.079 -183.743)" fill="#263238"/>
        <path id="Path_5396" data-name="Path 5396" d="M82.742,285.77s-17,3.986-20.3,20.091c-1.517,7.4-3.638,49.947,6.271,56.572,12.79,8.533,29.079.772,29.079.772l-2.115-20.577H85.1l-1.422-22.544C84.09,321.844,82.742,285.77,82.742,285.77Z" transform="translate(-61.138 -222.348)" fill="#b0bec5"/>
        <path id="Path_5397" data-name="Path 5397" d="M204.015,356.623a13.149,13.149,0,0,0,11.8-13.646l-6.947-29.518s-4.5-25.325-18.743-27.609l4.854,38.6-.465,8.137s.222,5.382.767,15.47Z" transform="translate(-121.926 -222.386)" fill="#b0bec5"/>
        <path id="Path_5398" data-name="Path 5398" d="M210.032,384.738a17.806,17.806,0,0,0-2.559.28,10.416,10.416,0,0,0-8.174,8.343,17.7,17.7,0,0,0-.227,2.57,2.8,2.8,0,0,1-.079-.7,9.1,9.1,0,0,1,.116-1.909,10.252,10.252,0,0,1,8.343-8.47,9.668,9.668,0,0,1,1.909-.159A2.752,2.752,0,0,1,210.032,384.738Z" transform="translate(-126.103 -268.968)" fill="#263238"/>
        <path id="Path_5399" data-name="Path 5399" d="M109.068,173.866c1.914,2.57,2.823,4.542,3.971,9.115.566,2.236-1.258,3.817-3.067,5.187a1.454,1.454,0,0,1-2.3-.846h0s.624,7.005-1.909,10.146a6.083,6.083,0,0,0-.957,4.954,8.406,8.406,0,0,0,2.263,4.283,10.573,10.573,0,0,1,1.729,11.912,31.963,31.963,0,0,0-1.613,2.876,4.336,4.336,0,0,0-.333,1.861,1.48,1.48,0,0,1-1.253,1.586,115.888,115.888,0,0,1-26.277.788,1.443,1.443,0,0,1-1.285-1.089c-.687-2.94.46-6.112,1.925-8.755,1.639-2.987,3.7-5.853,4.288-9.21.529-3.172-.333-6.567.936-9.517,1.586-3.611,5.816-5.319,7.931-8.634,2-3.125,1.84-7.222,3.632-10.468a10.01,10.01,0,0,1,12.335-4.193" transform="translate(-69.006 -169.258)" fill="#263238"/>
        <path id="Path_5400" data-name="Path 5400" d="M137.467,178.183c3.326,1.713,4.864,5.779,8.095,7.661,2.94,1.713,6.609,1.264,9.977.756-.122-.745-.249-1.5-.375-2.242a6.129,6.129,0,0,0,1.248,1.813,2.046,2.046,0,0,0,2.046.486c1.131-.455,1.279-2.009.994-3.172a10.976,10.976,0,0,0-2.94-4.98,14.915,14.915,0,0,0-19.451-1.554" transform="translate(-96.919 -169.7)" fill="#263238"/>
        <path id="Path_5401" data-name="Path 5401" d="M196.794,324.21a2.116,2.116,0,0,1,.032.418c0,.3,0,.693.037,1.19,0,1.057.074,2.533.153,4.378.153,3.7.5,8.8.915,14.429s.73,10.738.83,14.439c.053,1.851.079,3.347.063,4.383v1.19a2.309,2.309,0,0,1,0,.418,2.116,2.116,0,0,1-.032-.418c0-.3,0-.693-.037-1.19,0-1.057-.074-2.527-.153-4.378-.148-3.7-.5-8.792-.909-14.429s-.735-10.733-.835-14.434c-.053-1.85-.074-3.352-.063-4.388v-1.19a3.174,3.174,0,0,1,0-.418Z" transform="translate(-125.068 -240.464)" fill="#263238"/>
        <path id="Path_5402" data-name="Path 5402" d="M104.8,367.357a1.253,1.253,0,0,1-.037-.3c0-.227-.032-.529-.058-.851-.042-.777-.1-1.829-.169-3.119-.153-2.644-.386-6.276-.661-10.3s-.529-7.624-.714-10.294c-.085-1.285-.153-2.342-.206-3.119,0-.344-.032-.624-.042-.846a1.206,1.206,0,0,1,0-.3,1.486,1.486,0,0,1,.048.3c0,.222.058.5.1.846.074.772.174,1.824.3,3.114.233,2.644.529,6.265.793,10.289s.476,7.666.576,10.3c.048,1.322.085,2.39.09,3.125v.851A1.121,1.121,0,0,1,104.8,367.357Z" transform="translate(-80.821 -247.072)" fill="#263238"/>
        <path id="Path_5403" data-name="Path 5403" d="M101.346,393.3c0,.048-.529.074-1.385.354A6.165,6.165,0,0,0,95.8,398.6c-.132.867-.063,1.417-.111,1.422s-.053-.132-.085-.381a4.758,4.758,0,0,1,0-1.057,5.98,5.98,0,0,1,1.364-3.22,6.1,6.1,0,0,1,2.94-1.893,5.165,5.165,0,0,1,1.057-.18C101.208,393.27,101.346,393.28,101.346,393.3Z" transform="translate(-77.367 -273.016)" fill="#263238"/>
        <path id="Path_5404" data-name="Path 5404" d="M118.029,413.836a1.486,1.486,0,0,1-.063-.328c-.032-.243-.069-.555-.122-.941-.1-.851-.227-2.02-.391-3.458-.312-2.95-.735-6.974-1.2-11.415-.153-1.544-.307-3.04-.444-4.425l.132.122-8.459-.053-2.459-.037h-.656a.97.97,0,0,1-.227,0,.788.788,0,0,1,.227-.026h.656l2.459-.037,8.459-.048h.116v.122l.455,4.42c.434,4.446.825,8.459,1.116,11.431.127,1.438.233,2.612.307,3.463.032.386.053.7.074.946A1.585,1.585,0,0,1,118.029,413.836Z" transform="translate(-81.404 -272.974)" fill="#263238"/>
        <path id="Path_5405" data-name="Path 5405" d="M99.8,422.461a3.375,3.375,0,0,1-.4.143l-1.158.37c-1.01.317-2.474.761-4.3,1.248a53.8,53.8,0,0,1-6.514,1.354,22.469,22.469,0,0,1-8.121-.386,34.716,34.716,0,0,1-4.071-1.142c-.64-.233-1.269-.465-1.877-.719-.3-.127-.6-.248-.888-.4l-.434-.217-.407-.259a9.9,9.9,0,0,1-2.548-2.5,17.391,17.391,0,0,1-1.586-2.681,31.291,31.291,0,0,1-1.586-4.193c-.159-.529-.275-.9-.344-1.168a3.1,3.1,0,0,1-.1-.418,2.363,2.363,0,0,1,.153.4L66,413.044a35.249,35.249,0,0,0,1.671,4.135,17.7,17.7,0,0,0,1.586,2.644,9.7,9.7,0,0,0,2.506,2.421l.391.249.418.211c.275.148.576.264.878.391.6.249,1.227.481,1.866.7a34.478,34.478,0,0,0,4.039,1.131,22.612,22.612,0,0,0,8.031.407,57.562,57.562,0,0,0,6.5-1.29c1.829-.465,3.3-.883,4.32-1.163l1.174-.322a2.115,2.115,0,0,1,.418-.1Z" transform="translate(-63.175 -281.598)" fill="#263238"/>
        <path id="Path_5406" data-name="Path 5406" d="M102.022,189.847a6.768,6.768,0,0,0-1.549-7.4,7.6,7.6,0,0,0-7.481-1.618,5.752,5.752,0,0,0-2.924,2.03,5.317,5.317,0,0,0,.3,6.181,7.788,7.788,0,0,0,5.779,2.807,14.8,14.8,0,0,0,6.44-1.332" transform="translate(-74.369 -172.714)" fill="#263238"/>
        <path id="Path_5407" data-name="Path 5407" d="M146.054,353.726c3.7,3.051,12.4,10.273,12.4,10.273l4.869-.867-14.762-12.419a1.962,1.962,0,0,0-2.681.153h0a1.951,1.951,0,0,0,.169,2.86Z" transform="translate(-100.821 -252.739)" fill="#455a64"/>
        <path id="Path_5408" data-name="Path 5408" d="M144.019,350.826,142.1,349.1a.941.941,0,0,1-.09-1.3h0a.941.941,0,0,1,1.348-.085l1.845,1.692Z" transform="translate(-99.151 -251.425)" fill="#455a64"/>
        <path id="Path_5409" data-name="Path 5409" d="M154.445,355.58a6.508,6.508,0,0,1-1.19,1.454,6.758,6.758,0,0,1-1.385,1.269,6.6,6.6,0,0,1,1.19-1.459A6.457,6.457,0,0,1,154.445,355.58Z" transform="translate(-103.899 -255.249)" fill="#263238"/>
        <path id="Path_5410" data-name="Path 5410" d="M151.147,359.391a9.356,9.356,0,0,1-1.475-.962c-.878-.634-2.067-1.554-3.32-2.644a5.531,5.531,0,0,1-1.554-1.792,2.554,2.554,0,0,1-.048-1.94,2.469,2.469,0,0,1,.782-1.057c.249-.185.412-.243.418-.227s-.132.106-.349.312a2.522,2.522,0,0,0-.666,1.057,2.4,2.4,0,0,0,.1,1.771,5.568,5.568,0,0,0,1.507,1.687c1.242,1.084,2.406,2.025,3.257,2.7A14,14,0,0,1,151.147,359.391Z" transform="translate(-100.464 -252.979)" fill="#263238"/>
        <path id="Path_5411" data-name="Path 5411" d="M126.77,386c3.511-1.174,7.233-.381,10.738-1.56a9.264,9.264,0,0,0,3.315-1.634c1.116-.989,1.681-2.443,2.57-3.638,2.644-3.574,7.608-4.314,12.039-4.758a8.988,8.988,0,0,1,3.1.042,3.03,3.03,0,0,1,2.252,1.946,1.864,1.864,0,0,1-1.4,2.353,2.24,2.24,0,0,1,1.829,1.983c.18.957,0,1.94.148,2.9.18,1.353.92,2.617.878,3.981a4.987,4.987,0,0,1-3.331,4.124,21.425,21.425,0,0,1-5.477,1.057c-9.094,1.28-15.967,6.434-24.738,10.331" transform="translate(-92.069 -264.068)" fill="#ffbe9d"/>
        <path id="Path_5412" data-name="Path 5412" d="M188.743,383.339a1.248,1.248,0,0,0,1.787.365,1.909,1.909,0,0,0,.687-1.845A4.32,4.32,0,0,0,190.34,380a24.534,24.534,0,0,0-2.538-2.807l-2.8,2.358Z" transform="translate(-119.513 -265.433)" fill="#ffbe9d"/>
        <path id="Path_5413" data-name="Path 5413" d="M183.432,382.855c0,.09-1.724-.053-3.8.27s-3.7.946-3.7.867a3.824,3.824,0,0,1,1.026-.476,14.524,14.524,0,0,1,2.644-.666,13.924,13.924,0,0,1,2.723-.143A3.881,3.881,0,0,1,183.432,382.855Z" transform="translate(-115.238 -268.026)" fill="#eb996e"/>
        <path id="Path_5414" data-name="Path 5414" d="M186.72,393.031c0,.085-1.443-.211-3.225-.159s-3.2.4-3.215.317a10.368,10.368,0,0,1,6.44-.159Z" transform="translate(-117.288 -272.693)" fill="#eb996e"/>
        <path id="Path_5415" data-name="Path 5415" d="M190.679,384.293c-.048,0,0-.412-.079-1.057a5.546,5.546,0,0,0-.851-2.347,5.125,5.125,0,0,0-.36-.492l-.079-.1.085-.085a2.559,2.559,0,0,0,.735-1.861,5.205,5.205,0,0,0-.122-.841,1.348,1.348,0,0,1,.3.83,2.559,2.559,0,0,1-.719,2.067v-.185a5.638,5.638,0,0,1,.386.529,5.1,5.1,0,0,1,.814,2.485,2.469,2.469,0,0,1-.106,1.057Z" transform="translate(-121.544 -265.584)" fill="#eb996e"/>
        <path id="Path_5416" data-name="Path 5416" d="M192.071,388.25l4.61,4.325.587,2.57-4.261-.962A18.3,18.3,0,0,1,192.071,388.25Z" transform="translate(-122.835 -270.646)" fill="#455a64"/>
        <path id="Path_5417" data-name="Path 5417" d="M158.092,397.638c-.1.169-24.892,12.393-24.892,12.393v2.644l25.3-13.165,31.39-1.168V396.48Z" transform="translate(-95.1 -274.524)" fill="#f5f5f5"/>
        <path id="Path_5418" data-name="Path 5418" d="M133.2,414.67c.174-.116,27.377-2.57,27.377-2.57l29.317-12.16-31.39,1.184-25.3,13.165Z" transform="translate(-95.1 -276.155)" fill="#263238"/>
        <path id="Path_5419" data-name="Path 5419" d="M182.44,409.872c-.217-1.428,1.147-2.644,2.538-3.03s2.876-.227,4.283-.529a18.742,18.742,0,0,0,2.612-.931c4.335-1.66,9.094-1.75,13.746-1.813a2.95,2.95,0,0,1-1.057,3.606,4.854,4.854,0,0,1-.143,3.479,10.9,10.9,0,0,1-1.94,2.977,6.656,6.656,0,0,1-2.289,1.919,7.566,7.566,0,0,1-2.94.455c-3.119.063-6.461.069-9.036-1.681-2-1.364-3.389-3.7-5.71-4.388h.529" transform="translate(-118.295 -277.866)" fill="#ffbe9d"/>
        <path id="Path_5420" data-name="Path 5420" d="M210.122,409.962a2.406,2.406,0,0,1-.592.058l-1.628.053c-1.375.032-3.273.053-5.366.063h-2.961a4.066,4.066,0,0,1-1.306-.2,2.036,2.036,0,0,1-.946-.693,1.242,1.242,0,0,1-.243-.936,1.205,1.205,0,0,1,.328-.65.661.661,0,0,1,.529-.233,1.2,1.2,0,0,0-.476.307,1.057,1.057,0,0,0,0,1.4,1.84,1.84,0,0,0,.862.592,3.986,3.986,0,0,0,1.237.159h8.322l1.628.032A2.338,2.338,0,0,1,210.122,409.962Z" transform="translate(-125.199 -279.684)" fill="#eb996e"/>
        <path id="Path_5421" data-name="Path 5421" d="M201.609,416.09a4.3,4.3,0,0,1-.745.143c-.486.079-1.19.18-2.062.264a19.908,19.908,0,0,1-3.093.069,22.444,22.444,0,0,1-3.733-.624,29.131,29.131,0,0,0-6.752-.83c-.872,0-1.586.032-2.067.058a4.448,4.448,0,0,1-.767,0,3.915,3.915,0,0,1,.756-.127,20.158,20.158,0,0,1,2.073-.148,26.208,26.208,0,0,1,6.815.756,24.441,24.441,0,0,0,3.7.645,22.424,22.424,0,0,0,3.061,0c.872-.058,1.586-.132,2.062-.174a3.756,3.756,0,0,1,.751-.032Z" transform="translate(-118.283 -283.2)" fill="#eb996e"/>
        <path id="Path_5422" data-name="Path 5422" d="M200.885,420.214a2.534,2.534,0,0,1-.587.106c-.375.053-.925.122-1.586.18a19.475,19.475,0,0,1-5.329-.174,23.736,23.736,0,0,1-4.954-1.956,12.33,12.33,0,0,0-2.088-.64,1.687,1.687,0,0,1,.592.032,7.174,7.174,0,0,1,1.586.428,28.045,28.045,0,0,0,4.938,1.866,22.026,22.026,0,0,0,5.287.248l1.586-.09A2.512,2.512,0,0,1,200.885,420.214Z" transform="translate(-120.144 -284.532)" fill="#eb996e"/>
        <g id="Group_3122" data-name="Group 3122" transform="translate(73.709 111.254)" opacity="0.2">
          <path id="Path_5423" data-name="Path 5423" d="M200.55,386.47a17.722,17.722,0,0,1,1.544-5.6,8.634,8.634,0,0,1,3.981-4.071,5.737,5.737,0,0,1,5.557.338,2.913,2.913,0,0,1,1.11,1.327,1.586,1.586,0,0,1-.27,1.639c-.582.624-1.586.529-2.422.486a10.2,10.2,0,0,0-9.427,5.678" transform="translate(-200.55 -376.24)"/>
        </g>
        <g id="Group_3123" data-name="Group 3123" transform="translate(22.259 95.441)" opacity="0.2">
          <path id="Path_5424" data-name="Path 5424" d="M108.774,370.767c2.115-3.791,1.353-8.544-.259-12.562s-4.018-7.719-5.25-11.875a73.268,73.268,0,0,0,3.622,24.849" transform="translate(-103.238 -346.33)"/>
        </g>
        <path id="Path_5425" data-name="Path 5425" d="M115.538,281.183s2.564,6.043,11.817,5.657,9.549-7.561,9.549-7.561l6.191,6.582-5.879,12.113-7.9,5.9-10.759-4.42-8.866-6.873Z" transform="translate(-84.02 -219.289)" fill="#b0bec5"/>
        <g id="Group_3124" data-name="Group 3124" transform="translate(4.099 87.716)" opacity="0.5">
          <path id="Path_5426" data-name="Path 5426" d="M74.642,331.731a12.515,12.515,0,0,1-2.7,2.522,12.47,12.47,0,0,1-3.045,2.088,12.468,12.468,0,0,1,2.7-2.517A12.449,12.449,0,0,1,74.642,331.731Z" transform="translate(-68.89 -331.72)" fill="#fafafa"/>
        </g>
        <path id="Path_5427" data-name="Path 5427" d="M83,316.334a6.828,6.828,0,0,1-3.088-1.253,6.973,6.973,0,0,1-2.511-2.189,22.348,22.348,0,0,1,2.8,1.724A19.933,19.933,0,0,1,83,316.334Z" transform="translate(-68.801 -235.126)" fill="#fafafa"/>
        <path id="Path_5428" data-name="Path 5428" d="M98.664,320.746a33.766,33.766,0,0,1-2.374,3.949,29.372,29.372,0,0,1-2.474,3.886,13.869,13.869,0,0,1,2.009-4.177A14.492,14.492,0,0,1,98.664,320.746Z" transform="translate(-76.531 -238.83)" fill="#fafafa"/>
        <path id="Path_5429" data-name="Path 5429" d="M86.742,349.646a13.009,13.009,0,0,1-3.812-6.567,32.088,32.088,0,0,1,1.893,3.289A25.069,25.069,0,0,1,86.742,349.646Z" transform="translate(-71.397 -249.356)" fill="#fafafa"/>
        <path id="Path_5430" data-name="Path 5430" d="M75.929,366.885a17.274,17.274,0,0,1-.83-6.085,8.846,8.846,0,0,1,.687,3.008A9.247,9.247,0,0,1,75.929,366.885Z" transform="translate(-67.68 -257.708)" fill="#fafafa"/>
        <g id="Group_3125" data-name="Group 3125" transform="translate(14.915 105.531)" opacity="0.5">
          <path id="Path_5431" data-name="Path 5431" d="M89.365,371.482a10.855,10.855,0,0,1,1.517-3.172,11.809,11.809,0,0,1,1.993-2.892,10.79,10.79,0,0,1-1.517,3.172A12.357,12.357,0,0,1,89.365,371.482Z" transform="translate(-89.348 -365.414)" fill="#fafafa"/>
        </g>
        <path id="Path_5432" data-name="Path 5432" d="M71.024,388.967a14.407,14.407,0,0,1-4.108-5.98,18.18,18.18,0,0,1,2.115,2.94A19.787,19.787,0,0,1,71.024,388.967Z" transform="translate(-63.854 -268.164)" fill="#fafafa"/>
        <path id="Path_5433" data-name="Path 5433" d="M89.46,391.424a15.987,15.987,0,0,1-2.712,3.125,15.767,15.767,0,0,1-3.1,2.744,15.662,15.662,0,0,1,2.712-3.13A15.582,15.582,0,0,1,89.46,391.424Z" transform="translate(-71.741 -272.139)" fill="#fafafa"/>
        <g id="Group_3126" data-name="Group 3126" transform="translate(7.903 132.861)" opacity="0.5">
          <path id="Path_5434" data-name="Path 5434" d="M79.9,422.528a6.994,6.994,0,0,1-2.342-2.4,7.277,7.277,0,0,1-1.459-3.019,21.9,21.9,0,0,1,1.914,2.7A18.183,18.183,0,0,1,79.9,422.528Z" transform="translate(-76.084 -417.106)" fill="#fafafa"/>
        </g>
        <path id="Path_5435" data-name="Path 5435" d="M103.633,420.075a11.431,11.431,0,0,1-2.9,1.972,11.468,11.468,0,0,1-3.172,1.5,11.555,11.555,0,0,1,2.9-1.972A11.4,11.4,0,0,1,103.633,420.075Z" transform="translate(-78.301 -285.637)" fill="#fafafa"/>
        <path id="Path_5436" data-name="Path 5436" d="M115.536,406.978a9.972,9.972,0,0,1-3.955-5.419,25.786,25.786,0,0,1,1.951,2.728A21.882,21.882,0,0,1,115.536,406.978Z" transform="translate(-84.901 -276.917)" fill="#fafafa"/>
        <path id="Path_5437" data-name="Path 5437" d="M130.9,354.212a15.284,15.284,0,0,1-3.125,2.686,15.545,15.545,0,0,1-3.458,2.242,15.49,15.49,0,0,1,3.13-2.681A16.119,16.119,0,0,1,130.9,354.212Z" transform="translate(-90.911 -254.599)" fill="#fafafa"/>
        <path id="Path_5438" data-name="Path 5438" d="M118.041,347.288a18.88,18.88,0,0,1,.656-6.408,18.88,18.88,0,0,1-.656,6.408Z" transform="translate(-87.908 -248.321)" fill="#fafafa"/>
        <g id="Group_3127" data-name="Group 3127" transform="translate(32.743 81.065)" opacity="0.5">
          <path id="Path_5439" data-name="Path 5439" d="M129.546,324.665a12.916,12.916,0,0,1-3.521-2.427,13.23,13.23,0,0,1-2.95-3.093,24.626,24.626,0,0,1,3.31,2.675A23.07,23.07,0,0,1,129.546,324.665Z" transform="translate(-123.068 -319.139)" fill="#fafafa"/>
        </g>
        <path id="Path_5440" data-name="Path 5440" d="M117.426,300.366a17.934,17.934,0,0,1-2.58,3.474,16.526,16.526,0,0,1-3,3.114,18.118,18.118,0,0,1,2.58-3.474A16.526,16.526,0,0,1,117.426,300.366Z" transform="translate(-85.031 -229.225)" fill="#fafafa"/>
        <g id="Group_3128" data-name="Group 3128" transform="translate(18.961 67.494)" opacity="0.5">
          <path id="Path_5441" data-name="Path 5441" d="M102.615,295.464a18.71,18.71,0,0,1-2.8-.983,17.378,17.378,0,0,1-2.813-.92,7.759,7.759,0,0,1,5.615,1.9Z" transform="translate(-97 -293.472)" fill="#fafafa"/>
        </g>
        <path id="Path_5442" data-name="Path 5442" d="M145.174,305.728a8.043,8.043,0,0,1,.56-2.871,9.129,9.129,0,0,1,1.057-2.718,9.078,9.078,0,0,1-.529,2.871A7.282,7.282,0,0,1,145.174,305.728Z" transform="translate(-100.724 -229.119)" fill="#fafafa"/>
        <path id="Path_5443" data-name="Path 5443" d="M154.057,328.744a7.255,7.255,0,0,1-.116-2.813,7.529,7.529,0,0,1,.434-2.781,7.4,7.4,0,0,1,.116,2.813A7.5,7.5,0,0,1,154.057,328.744Z" transform="translate(-104.854 -239.965)" fill="#fafafa"/>
        <path id="Path_5444" data-name="Path 5444" d="M164.692,347.535a8.789,8.789,0,0,1-2.585-1.724,9.071,9.071,0,0,1-2.242-2.152,8.92,8.92,0,0,1,2.585,1.724A9.437,9.437,0,0,1,164.692,347.535Z" transform="translate(-107.664 -249.625)" fill="#fafafa"/>
        <path id="Path_5445" data-name="Path 5445" d="M180.3,326.881a10.251,10.251,0,0,1-2.305,2.4,10.549,10.549,0,0,1-2.644,1.988,10.6,10.6,0,0,1,2.305-2.4A10.351,10.351,0,0,1,180.3,326.881Z" transform="translate(-114.961 -241.718)" fill="#fafafa"/>
        <g id="Group_3129" data-name="Group 3129" transform="translate(56.454 74.951)" opacity="0.5">
          <path id="Path_5446" data-name="Path 5446" d="M172.972,311.766a7.824,7.824,0,0,1-2.8-1.761,8.077,8.077,0,0,1-2.252-2.421,14.437,14.437,0,0,1,2.6,1.993A13.536,13.536,0,0,1,172.972,311.766Z" transform="translate(-167.915 -307.576)" fill="#fafafa"/>
        </g>
        <path id="Path_5447" data-name="Path 5447" d="M192.1,295.193a7.746,7.746,0,0,1-3.986,3.749c-.079-.127.872-.888,1.956-1.909S191.975,295.087,192.1,295.193Z" transform="translate(-120.979 -226.785)" fill="#fafafa"/>
        <g id="Group_3130" data-name="Group 3130" transform="translate(57.307 65.547)" opacity="0.5">
          <path id="Path_5448" data-name="Path 5448" d="M176.735,291.646a9.831,9.831,0,0,1-3.7-.486,10.232,10.232,0,0,1-3.505-1.343,18.93,18.93,0,0,1,3.643.809A16.794,16.794,0,0,1,176.735,291.646Z" transform="translate(-169.528 -289.79)" fill="#fafafa"/>
        </g>
        <g id="Group_3131" data-name="Group 3131" transform="translate(76.759 75.629)" opacity="0.5">
          <path id="Path_5449" data-name="Path 5449" d="M206.351,317.72a15.4,15.4,0,0,1,.941-4.557,16.1,16.1,0,0,1,1.766-4.3,28.548,28.548,0,0,1-1.237,4.462A26.5,26.5,0,0,1,206.351,317.72Z" transform="translate(-206.318 -308.858)" fill="#fafafa"/>
        </g>
        <path id="Path_5450" data-name="Path 5450" d="M206.681,342.542a14.594,14.594,0,0,1-2.918-2.691c-1.5-1.591-2.644-2.961-2.511-3.067a13.851,13.851,0,0,1,2.913,2.691A14.427,14.427,0,0,1,206.681,342.542Z" transform="translate(-127.166 -246.387)" fill="#fafafa"/>
        <g id="Group_3132" data-name="Group 3132" transform="translate(83.508 95.028)" opacity="0.5">
          <path id="Path_5451" data-name="Path 5451" d="M219.3,353.28a27.05,27.05,0,0,1,.132-7.73,13.784,13.784,0,0,1,.206,3.87A14.05,14.05,0,0,1,219.3,353.28Z" transform="translate(-219.085 -345.55)" fill="#fafafa"/>
        </g>
        <path id="Path_5452" data-name="Path 5452" d="M208.046,374.565a10.593,10.593,0,0,1-2.3-3.236,10.765,10.765,0,0,1-1.454-3.7,24.57,24.57,0,0,1,1.94,3.431A21.476,21.476,0,0,1,208.046,374.565Z" transform="translate(-128.596 -260.926)" fill="#fafafa"/>
        <path id="Path_5453" data-name="Path 5453" d="M228.79,384.5c.111.106-.624.994-1.634,1.983s-1.919,1.7-2.025,1.586.629-1,1.639-1.988S228.684,384.389,228.79,384.5Z" transform="translate(-138.421 -268.873)" fill="#fafafa"/>
        <g id="Group_3133" data-name="Group 3133" transform="translate(63.762 96.87)" opacity="0.5">
          <path id="Path_5454" data-name="Path 5454" d="M181.76,355.392a7.955,7.955,0,0,1,1.586-3.585,7.782,7.782,0,0,1,2.781-2.765c.09.116-1.131,1.332-2.326,3.082S181.908,355.45,181.76,355.392Z" transform="translate(-181.737 -349.034)" fill="#fafafa"/>
        </g>
        <path id="Path_5455" data-name="Path 5455" d="M123.433,382.344a11.758,11.758,0,0,1,.576-3.511,11.215,11.215,0,0,1,1.121-3.384,23,23,0,0,1-1.7,6.894Z" transform="translate(-90.477 -264.612)" fill="#fafafa"/>
        <path id="Path_5456" data-name="Path 5456" d="M143.02,387.689a20.411,20.411,0,0,1-5.583-3.632,10.381,10.381,0,0,1,2.94,1.586A9.98,9.98,0,0,1,143.02,387.689Z" transform="translate(-97.095 -268.662)" fill="#fafafa"/>
        <path id="Path_5457" data-name="Path 5457" d="M144.719,370.127c-.127.085-.745-.619-1.385-1.586s-1.057-1.792-.925-1.877.745.619,1.385,1.586S144.824,370.042,144.719,370.127Z" transform="translate(-99.428 -260.469)" fill="#fafafa"/>
        <path id="Path_5458" data-name="Path 5458" d="M155.124,377.233c.085.122-.471.661-1.242,1.205s-1.47.883-1.56.761.471-.666,1.242-1.211S155.034,377.1,155.124,377.233Z" transform="translate(-104.107 -265.439)" fill="#fafafa"/>
        <g id="Group_3134" data-name="Group 3134" transform="translate(36.017 144.373)" opacity="0.5">
          <path id="Path_5459" data-name="Path 5459" d="M129.308,444.31a10.353,10.353,0,0,1,.312-2.728,10.083,10.083,0,0,1,.5-2.7,5.313,5.313,0,0,1,.048,2.781A5.481,5.481,0,0,1,129.308,444.31Z" transform="translate(-129.26 -438.88)" fill="#fafafa"/>
        </g>
        <g id="Group_3135" data-name="Group 3135" transform="translate(45.218 138.449)" opacity="0.5">
          <path id="Path_5460" data-name="Path 5460" d="M150.685,434.72a30,30,0,0,1-4.008-7.042,15.079,15.079,0,0,1,2.242,3.384A15.61,15.61,0,0,1,150.685,434.72Z" transform="translate(-146.663 -427.675)" fill="#fafafa"/>
        </g>
        <g id="Group_3136" data-name="Group 3136" transform="translate(56.851 139.616)" opacity="0.5">
          <path id="Path_5461" data-name="Path 5461" d="M175.028,429.887a25,25,0,0,1-2.955,4.32,25.069,25.069,0,0,1-3.4,3.986,50.154,50.154,0,0,1,6.355-8.306Z" transform="translate(-168.665 -429.883)" fill="#fafafa"/>
        </g>
        <g id="Group_3137" data-name="Group 3137" transform="translate(59.259 150.781)" opacity="0.5">
          <path id="Path_5462" data-name="Path 5462" d="M181.113,451.063a15,15,0,0,1-3.907.841,15.048,15.048,0,0,1-3.986.3,14.783,14.783,0,0,1,3.907-.846A14.4,14.4,0,0,1,181.113,451.063Z" transform="translate(-173.22 -450.999)" fill="#fafafa"/>
        </g>
        <path id="Path_5463" data-name="Path 5463" d="M189.24,435.881a10.722,10.722,0,0,1,.037-2.548c.037-1.385,0-2.522.185-2.543s.434,1.121.365,2.564A4.685,4.685,0,0,1,189.24,435.881Z" transform="translate(-121.48 -290.694)" fill="#fafafa"/>
        <path id="Path_5464" data-name="Path 5464" d="M148.908,449.505a6.445,6.445,0,0,1-2.977-1.417,6.571,6.571,0,0,1-2.289-2.363,26.13,26.13,0,0,1,2.612,1.914A19.815,19.815,0,0,1,148.908,449.505Z" transform="translate(-100.017 -297.73)" fill="#fafafa"/>
        <path id="Path_5465" data-name="Path 5465" d="M111.15,446.61a6.331,6.331,0,0,1,.391-2.7,7.514,7.514,0,0,1,.931-2.564,13.633,13.633,0,0,1-1.322,5.261Z" transform="translate(-84.681 -295.67)" fill="#fafafa"/>
        <path id="Path_5466" data-name="Path 5466" d="M106.589,198.358c.032-.042.634.476,1.739,1.057a13.288,13.288,0,0,0,2.025.883,14.455,14.455,0,0,0,2.644.587,14.063,14.063,0,0,0,2.7.026,12.161,12.161,0,0,0,2.178-.4c1.216-.338,1.914-.7,1.94-.656a2.336,2.336,0,0,1-.481.28,5,5,0,0,1-.592.27,8.241,8.241,0,0,1-.814.3,11.453,11.453,0,0,1-2.2.465,13.377,13.377,0,0,1-2.76,0,13.163,13.163,0,0,1-2.686-.624,11.579,11.579,0,0,1-2.041-.952,6.661,6.661,0,0,1-.724-.471,4.976,4.976,0,0,1-.529-.4C106.721,198.506,106.573,198.374,106.589,198.358Z" transform="translate(-82.558 -181.15)" fill="#455a64"/>
        <path id="Path_5467" data-name="Path 5467" d="M120.534,206.246a2.706,2.706,0,0,1-.576.174c-.375.1-.92.222-1.586.338a14.545,14.545,0,0,1-5.414.032,8.46,8.46,0,0,1-4.679-2.644,5.863,5.863,0,0,1-.888-1.4,1.92,1.92,0,0,1-.19-.571,9.364,9.364,0,0,0,1.227,1.84,8.644,8.644,0,0,0,4.589,2.522,15.861,15.861,0,0,0,5.329.048c.682-.1,1.232-.19,1.586-.254A2.606,2.606,0,0,1,120.534,206.246Z" transform="translate(-82.846 -182.953)" fill="#455a64"/>
        <path id="Path_5468" data-name="Path 5468" d="M96.167,243.052a.529.529,0,0,1-.069-.074c-.037-.053-.106-.127-.18-.238a3.019,3.019,0,0,1-.418-1.057,4.838,4.838,0,0,1,1.158-3.928,10.046,10.046,0,0,1,2.215-1.866c.867-.571,1.84-1.094,2.8-1.739a8.507,8.507,0,0,0,2.543-2.49,4.473,4.473,0,0,0,.634-1.745,5.393,5.393,0,0,0-.1-1.924,24.069,24.069,0,0,0-1.338-3.643,10.046,10.046,0,0,1-.894-3.564,9.459,9.459,0,0,1,1.813-5.858,8.824,8.824,0,0,1,3.114-2.749l.592-.286.455-.159a2.2,2.2,0,0,1,.381-.111,2.368,2.368,0,0,1-.36.164l-.439.185-.576.3a9.03,9.03,0,0,0-3.008,2.765,9.379,9.379,0,0,0-1.718,5.737,9.808,9.808,0,0,0,.888,3.468,23.966,23.966,0,0,1,1.359,3.7,5.779,5.779,0,0,1,.1,2.02,4.7,4.7,0,0,1-.671,1.85,8.729,8.729,0,0,1-2.644,2.559c-.973.645-1.951,1.163-2.813,1.724a9.83,9.83,0,0,0-2.189,1.8,4.806,4.806,0,0,0-1.205,3.78,3.759,3.759,0,0,0,.571,1.38Z" transform="translate(-77.307 -187.402)" fill="#455a64"/>
        <path id="Path_5469" data-name="Path 5469" d="M120.114,244.411a1.523,1.523,0,0,1-.307-.174,2.5,2.5,0,0,1-.682-.74,3.542,3.542,0,0,1-.476-1.523,5.689,5.689,0,0,1,.233-2.115c.428-1.549,1.724-2.961,2.7-4.758a5.937,5.937,0,0,0,.8-3.014,8.174,8.174,0,0,0-.851-3.262c-1-2.115-2.548-3.817-3.616-5.583a11.711,11.711,0,0,1-1.248-2.644,6.445,6.445,0,0,1-.259-2.548,5.017,5.017,0,0,1,1.544-3.3,3.453,3.453,0,0,1,.846-.529,1.586,1.586,0,0,1,.328-.116,5.107,5.107,0,0,0-1.1.74,5.033,5.033,0,0,0-1.417,3.241,6.249,6.249,0,0,0,.285,2.464,11.272,11.272,0,0,0,1.242,2.6c.529.862,1.184,1.724,1.835,2.644a18.966,18.966,0,0,1,1.813,2.966,8.237,8.237,0,0,1,.872,3.378,6.228,6.228,0,0,1-.841,3.135c-1.015,1.8-2.31,3.172-2.739,4.674a5.726,5.726,0,0,0-.264,2.036,3.59,3.59,0,0,0,.412,1.48,3.141,3.141,0,0,0,.9.957Z" transform="translate(-87.168 -188.571)" fill="#455a64"/>
        <path id="Path_5470" data-name="Path 5470" d="M149.672,184.677a.414.414,0,0,1-.2-.085,4.76,4.76,0,0,1-.529-.333,6.281,6.281,0,0,1-1.517-1.7,18.732,18.732,0,0,1-1.465-3.035c-.243-.582-.529-1.19-.825-1.787A11.007,11.007,0,0,0,143.972,176a11.944,11.944,0,0,0-6.112-3.939,16.231,16.231,0,0,0-3.04-.434,3.834,3.834,0,0,1,.83-.048,11.1,11.1,0,0,1,2.258.291,11.737,11.737,0,0,1,6.276,3.955,11.245,11.245,0,0,1,1.2,1.792c.323.613.576,1.232.814,1.819a20.916,20.916,0,0,0,1.4,3.03,6.926,6.926,0,0,0,1.422,1.713C149.423,184.518,149.687,184.656,149.672,184.677Z" transform="translate(-95.863 -168.527)" fill="#455a64"/>
        <path id="Path_5471" data-name="Path 5471" d="M157.221,184.124a.973.973,0,0,1-.286-.032,4.087,4.087,0,0,1-.793-.206,6.873,6.873,0,0,1-2.522-1.634,15.27,15.27,0,0,1-2.612-3.616,27.948,27.948,0,0,0-2.876-4.579,9.041,9.041,0,0,0-4.489-2.8,17.528,17.528,0,0,0-4.362-.587c-1.264-.026-2.284,0-2.993.053l-.814.032a1.057,1.057,0,0,1-.285,0,1,1,0,0,1,.28-.048l.814-.085c.7-.058,1.729-.143,3-.137a16.919,16.919,0,0,1,4.431.529,9.157,9.157,0,0,1,4.626,2.866,26.02,26.02,0,0,1,2.887,4.637,15.618,15.618,0,0,0,2.533,3.6,7.068,7.068,0,0,0,2.422,1.676C156.835,184.045,157.227,184.092,157.221,184.124Z" transform="translate(-96.038 -168.016)" fill="#455a64"/>
        <path id="Path_5472" data-name="Path 5472" d="M192.693,238.591c-.026,0,.137-.375.312-1.057a10.1,10.1,0,0,0,.317-2.982,9.992,9.992,0,0,0-1.121-4.272,10.2,10.2,0,0,0-1.512-2.141c-.613-.682-1.316-1.327-2.02-2a17.807,17.807,0,0,1-1.962-2.115,13.116,13.116,0,0,1-1.412-2.279,13.424,13.424,0,0,1-1.248-4.346,12.26,12.26,0,0,1,.032-3.051,6.469,6.469,0,0,1,.143-.814,1.1,1.1,0,0,1,.079-.28c.026,0-.058.4-.116,1.11a13.324,13.324,0,0,0,.053,3.008,13.974,13.974,0,0,0,1.285,4.261,13.283,13.283,0,0,0,1.4,2.226,18.556,18.556,0,0,0,1.935,2.067c.708.677,1.412,1.327,2.036,2.025a10.215,10.215,0,0,1,1.533,2.2,10.013,10.013,0,0,1,1.094,4.383,9.628,9.628,0,0,1-.407,3.019,5.429,5.429,0,0,1-.291.777.958.958,0,0,1-.127.259Z" transform="translate(-119.026 -188.17)" fill="#455a64"/>
        <path id="Path_5473" data-name="Path 5473" d="M90.92,191.191a1.962,1.962,0,0,1,.069-.529,5.2,5.2,0,0,1,.5-1.316,5.657,5.657,0,0,1,8.216-1.962,4.954,4.954,0,0,1,1.057.946,1.586,1.586,0,0,1,.3.434,9.691,9.691,0,0,0-1.465-1.216,5.62,5.62,0,0,0-7.931,1.9A9.817,9.817,0,0,0,90.92,191.191Z" transform="translate(-75.174 -175.501)" fill="#455a64"/>
        <path id="Path_5474" data-name="Path 5474" d="M100.61,195.537a4.6,4.6,0,0,1,.148-1.2,5.324,5.324,0,0,1,1.253-2.644,2.818,2.818,0,0,1,2.8-.708,1.745,1.745,0,0,1,.751.529c.132.169.169.285.159.291a2.47,2.47,0,0,0-.968-.619,2.718,2.718,0,0,0-2.548.719,5.747,5.747,0,0,0-1.258,2.5A6.471,6.471,0,0,1,100.61,195.537Z" transform="translate(-79.74 -177.621)" fill="#455a64"/>
        <path id="Path_5475" data-name="Path 5475" d="M111.429,185.05a22.868,22.868,0,0,0-1.391,2.881,25.017,25.017,0,0,0-.719,3.114,8.317,8.317,0,0,1,2.115-6Z" transform="translate(-83.84 -174.88)" fill="#b0bec5"/>
      </g>
      <g id="freepik--speech-bubble--inject-5" transform="translate(140.173 113.379)">
        <path id="Path_5476" data-name="Path 5476" d="M273.3,207.964a1.644,1.644,0,1,0,1.644-1.644A1.644,1.644,0,0,0,273.3,207.964Z" transform="translate(-248.899 -188.719)" fill="#455a64"/>
        <circle id="Ellipse_584" data-name="Ellipse 584" cx="1.644" cy="1.644" r="1.644" transform="translate(17.813 17.601)" fill="#455a64"/>
        <path id="Path_5477" data-name="Path 5477" d="M248.224,207.136a1.644,1.644,0,1,0,2.247-.6,1.644,1.644,0,0,0-2.247.6Z" transform="translate(-236.978 -188.716)" fill="#455a64"/>
        <path id="Path_5478" data-name="Path 5478" d="M246.506,173.056a1.437,1.437,0,0,0-.333,0l-.978.026a5.865,5.865,0,0,0-.719.032l-.862.122-1,.143-1.126.28a18.251,18.251,0,0,0-5.425,2.369,19.256,19.256,0,0,0-8.835,14.46,19.791,19.791,0,0,0-.053,2.644,11.54,11.54,0,0,0,.085,1.348l.206,1.359a19.483,19.483,0,0,0,1.829,5.366,20.8,20.8,0,0,0,3.505,4.817,20.17,20.17,0,0,0,5.049,3.627,18.346,18.346,0,0,0,6.144,1.877,13.105,13.105,0,0,0,1.644.143,15.7,15.7,0,0,0,1.655,0,19.725,19.725,0,0,0,3.326-.418,19.43,19.43,0,0,0,6.593-2.755h-.2l6.736,2.707.4.159-.116-.412c-.677-2.474-1.343-4.88-1.977-7.206l-.037.18a19.272,19.272,0,0,0,3.6-8.232,17.555,17.555,0,0,0,.264-4.23,13.411,13.411,0,0,0-.2-2.025c-.048-.333-.1-.661-.148-.989s-.164-.634-.238-.952a19.277,19.277,0,0,0-7.518-10.96,18.383,18.383,0,0,0-4.473-2.358l-1-.36-.957-.243-.878-.217c-.28-.058-.529-.085-.8-.122-.529-.069-.957-.153-1.348-.174l-.994-.032h-.6l.6.048.983.063c.386.032.83.132,1.338.206a19.161,19.161,0,0,1,15.333,14.212c.074.312.169.619.227.936s.1.645.148.968a13.747,13.747,0,0,1,.174,1.993,17.121,17.121,0,0,1-.27,4.129,19.034,19.034,0,0,1-3.563,8.095l-.058.079.026.1q.952,3.49,1.961,7.206l.286-.254-6.73-2.712-.106-.042-.1.063a19.034,19.034,0,0,1-6.466,2.718,19.341,19.341,0,0,1-3.246.412,13.839,13.839,0,0,1-1.623-.032,12.509,12.509,0,0,1-1.586-.132,18.108,18.108,0,0,1-6.017-1.84,18.812,18.812,0,0,1-8.385-8.253,19.034,19.034,0,0,1-1.829-5.245c-.069-.449-.137-.888-.2-1.332s-.058-.883-.1-1.322a20.021,20.021,0,0,1,.042-2.585,19.034,19.034,0,0,1,8.607-14.275,18.325,18.325,0,0,1,5.361-2.416l1.11-.3,1-.164.851-.143a6.812,6.812,0,0,0,.714-.053l.973-.069a2.02,2.02,0,0,0,.333-.037Z" transform="translate(-227.149 -173.03)" fill="#455a64"/>
      </g>
    </g>
    <g id="Group_1193" data-name="Group 1193" transform="translate(17.371 -44.643)">
      <g id="Ellipse_12" data-name="Ellipse 12" transform="translate(177.629 798.642)" fill="#1e64cc" stroke="#0e58c7" stroke-width="1">
        <circle cx="4" cy="4" r="4" stroke="none"/>
        <circle cx="4" cy="4" r="3.5" fill="none"/>
      </g>
      <g id="Ellipse_13" data-name="Ellipse 13" transform="translate(191.629 798.642)" fill="none" stroke="#0e58c7" stroke-width="1">
        <circle cx="4" cy="4" r="4" stroke="none"/>
        <circle cx="4" cy="4" r="3.5" fill="none"/>
      </g>
    </g>
    <g id="Component_119_377" data-name="Component 119 – 377" transform="translate(0 779.138)">
      <rect id="Rectangle_1927" data-name="Rectangle 1927" width="412" height="67" transform="translate(0 0.722)" fill="#edf4fd"/>
      <path id="Path_4714" data-name="Path 4714" d="M1053,4508.186h411.151" transform="translate(-1053 -4508.186)" fill="none" stroke="#fff" stroke-width="2" opacity="0.206"/>
      <g id="Group_3096" data-name="Group 3096" transform="translate(-3 -997.186)">
        <text id="Next" transform="translate(318 1038)" fill="#102646" font-size="18" font-family="ArialMT, Arial"><tspan x="0" y="0">Next</tspan></text>
        <path id="Icon_ionic-ios-arrow-back" data-name="Icon ionic-ios-arrow-back" d="M14.033,14.264l6.109-6.1a1.154,1.154,0,0,0-1.634-1.629l-6.921,6.916a1.152,1.152,0,0,0-.034,1.591L18.5,22a1.154,1.154,0,1,0,1.634-1.629Z" transform="translate(389.251 1046.266) rotate(180)" fill="#102646"/>
      </g>
      <g id="Group_3224" data-name="Group 3224" transform="translate(2.529 7.076)">
        <g id="Group_3212" data-name="Group 3212" transform="translate(34.47 14.737)">
          <text id="Back" transform="translate(19.06 18)" fill="#102646" font-size="18" font-family="ArialMT, Arial"><tspan x="0" y="0">Back</tspan></text>
          <path id="Icon_ionic-ios-arrow-back-2" data-name="Icon ionic-ios-arrow-back" d="M14.033,14.264l6.109-6.1a1.154,1.154,0,0,0-1.634-1.629l-6.921,6.916a1.152,1.152,0,0,0-.034,1.591L18.5,22a1.154,1.154,0,1,0,1.634-1.629Z" transform="translate(-11.251 -3.193)" fill="#102646"/>
        </g>
      </g>
    </g>
  </g>
</svg>
