<svg xmlns="http://www.w3.org/2000/svg" xmlns:xlink="http://www.w3.org/1999/xlink" width="412" height="847" viewBox="0 0 412 847">
  <defs>
    <linearGradient id="linear-gradient" x1="0.5" x2="0.5" y2="1" gradientUnits="objectBoundingBox">
      <stop offset="0" stop-color="#37aadd"/>
      <stop offset="1" stop-color="#1f64cc"/>
    </linearGradient>
    <clipPath id="clip-Bbq-44_4">
      <rect width="412" height="847"/>
    </clipPath>
  </defs>
  <g id="Bbq-44_4" data-name="Bbq-44 – 4" clip-path="url(#clip-Bbq-44_4)">
    <rect width="412" height="847" fill="#102646"/>
    <rect id="Rectangle_1722" data-name="Rectangle 1722" width="371" height="567" rx="16" transform="translate(22 140)" fill="url(#linear-gradient)"/>
    <g id="Group_3103" data-name="Group 3103" transform="translate(-4 49)">
      <g id="Group_1500" data-name="Group 1500" transform="translate(71 65)">
        <text id="_6_stages_of_de-addiction" data-name="6 stages of de-addiction" transform="translate(-16 92)" fill="#fff" font-size="24" font-family="Arial-BoldMT, Arial" font-weight="700"><tspan x="17.645" y="22">6 stages of de-addiction</tspan></text>
      </g>
    </g>
    <g id="Group_3383" data-name="Group 3383" transform="translate(-4 443)">
      <g id="Group_1500-2" data-name="Group 1500" transform="translate(71 65)">
        <text id="See_what_are_the_6_stage_of_de-addiction_and_select_your_current_stage" data-name="See what are the 6 stage of de-addiction and select your current stage" transform="translate(-27 92)" fill="#fff" font-size="16" font-family="ArialMT, Arial"><tspan x="6.777" y="14">See what are the 6 stage of de-addiction and </tspan><tspan x="78.402" y="45">select your current stage</tspan></text>
      </g>
    </g>
    <g id="Personality_disorder-rafiki" data-name="Personality disorder-rafiki" transform="translate(80.592 280.814)">
      <g id="freepik--Shadow--inject-145" transform="translate(0 234.025)">
        <ellipse id="freepik--path--inject-145" cx="125.408" cy="7.322" rx="125.408" ry="7.322" fill="#f5f5f5"/>
      </g>
      <g id="freepik--Leaves--inject-145" transform="translate(30.684 41.77)">
        <path id="Path_7699" data-name="Path 7699" d="M151.323,315.065c-25.671-14.294-47.773-9.2-47.773-9.2s33.718,33.634,60.152,35.5C164.168,331.6,159.828,319.8,151.323,315.065Z" transform="translate(-103.55 -177.368)" fill="#b0bec5"/>
        <path id="Path_7700" data-name="Path 7700" d="M151.323,315.065c-25.671-14.294-47.773-9.2-47.773-9.2s33.718,33.634,60.152,35.5C164.168,331.6,159.828,319.8,151.323,315.065Z" transform="translate(-103.55 -177.368)" fill="#fff" opacity="0.5"/>
        <path id="Path_7701" data-name="Path 7701" d="M103.55,306.35s33.718,33.634,60.152,35.5C157.965,326.368,133.8,312.41,103.55,306.35Z" transform="translate(-103.55 -177.85)" fill="#fff" opacity="0.5"/>
        <path id="Path_7702" data-name="Path 7702" d="M258.159,126.644c-6.086-14.061-16.849-18.964-16.849-18.964s3.279,24.617,13.628,33.782C258.23,137.562,260.177,131.308,258.159,126.644Z" transform="translate(-152.207 -107.68)" fill="#b0bec5"/>
        <path id="Path_7703" data-name="Path 7703" d="M258.159,126.644c-6.086-14.061-16.849-18.964-16.849-18.964s3.279,24.617,13.628,33.782C258.23,137.562,260.177,131.308,258.159,126.644Z" transform="translate(-152.207 -107.68)" fill="#fff" opacity="0.5"/>
        <path id="Path_7704" data-name="Path 7704" d="M241.31,107.68s3.279,24.617,13.628,33.782C257.474,133.229,251.9,119.788,241.31,107.68Z" transform="translate(-152.207 -107.68)" fill="#fff" opacity="0.5"/>
        <path id="Path_7705" data-name="Path 7705" d="M318.393,287.131c19.2-11.565,36.182-8.26,36.182-8.26s-24.831,26.519-44.946,28.64C309.027,300.073,312.028,290.966,318.393,287.131Z" transform="translate(-176.31 -167.99)" fill="#b0bec5"/>
        <path id="Path_7706" data-name="Path 7706" d="M318.393,287.131c19.2-11.565,36.182-8.26,36.182-8.26s-24.831,26.519-44.946,28.64C309.027,300.073,312.028,290.966,318.393,287.131Z" transform="translate(-176.31 -167.99)" fill="#fff" opacity="0.5"/>
        <path id="Path_7707" data-name="Path 7707" d="M354.616,279.11s-24.831,26.519-44.946,28.64C313.648,295.8,331.707,284.524,354.616,279.11Z" transform="translate(-176.352 -168.229)" fill="#fff" opacity="0.5"/>
        <path id="Path_7708" data-name="Path 7708" d="M328.431,308.881c13.835-1.455,22.515,4.87,22.515,4.87s-20.937,8.408-32.806,4.288C319.763,313.713,323.871,309.379,328.431,308.881Z" transform="translate(-179.343 -178.668)" fill="#b0bec5"/>
        <path id="Path_7709" data-name="Path 7709" d="M328.431,308.881c13.835-1.455,22.515,4.87,22.515,4.87s-20.937,8.408-32.806,4.288C319.763,313.713,323.871,309.379,328.431,308.881Z" transform="translate(-179.343 -178.668)" fill="#fff" opacity="0.5"/>
        <path id="Path_7710" data-name="Path 7710" d="M350.946,315.755s-20.937,8.408-32.806,4.288C323.521,314.37,336.638,312.812,350.946,315.755Z" transform="translate(-179.343 -180.657)" fill="#fff" opacity="0.5"/>
        <path id="Path_7711" data-name="Path 7711" d="M201.166,304.418a42.955,42.955,0,0,1-16.759-3.357c-15.394-6.468-25.089-20.529-29.035-31.551-4.528-12.664-6.235-27.677-4.528-40.147,2.277-16.888,10.569-29.242,23.99-35.716,7.335-3.538,15.465-8.589,24.067-13.939,26.59-16.532,56.724-35.27,72.228-13.007,13.964,20.051,16.552,56.369,5.886,82.674-4.838,11.823-14.4,26.693-32.515,30.225-11.067,2.16-11.869,5.595-12.8,9.579-.75,3.234-1.6,6.843-8.3,9.948l-.136-.291.136.291A53.006,53.006,0,0,1,201.166,304.418Zm50.58-147.276c-15.374,0-34.733,12.037-52.5,23.084-8.622,5.355-16.765,10.42-24.132,13.971-13.214,6.377-21.383,18.557-23.628,35.218-1.662,12.38.032,27.269,4.528,39.843,3.881,10.892,13.473,24.8,28.673,31.169,11.966,5.019,24.9,4.379,38.459-1.889h0c6.423-2.969,7.2-6.293,7.949-9.508.938-4.023,1.824-7.826,13.3-10.064,17.865-3.473,27.276-18.162,32.017-29.863,10.595-26.124,8.033-62.17-5.821-82.066-4.961-7.082-11.455-9.9-18.88-9.9Z" transform="translate(-120.025 -124.924)" fill="#b0bec5"/>
        <path id="Path_7712" data-name="Path 7712" d="M147.235,286.7c-5.388-10.025-7.218-4.308-5.821-2.044S147.235,286.7,147.235,286.7Z" transform="translate(-116.765 -168.888)" fill="#b0bec5"/>
        <path id="Path_7713" data-name="Path 7713" d="M157.312,334.343c-7.115-8.874-7.891-2.924-6.1-.957S157.312,334.343,157.312,334.343Z" transform="translate(-120.095 -186.064)" fill="#b0bec5"/>
        <path id="Path_7714" data-name="Path 7714" d="M152.94,305.6c5.595-9.915,7.309-4.165,5.86-1.94S152.94,305.6,152.94,305.6Z" transform="translate(-120.995 -175.597)" fill="#b0bec5"/>
        <path id="Path_7715" data-name="Path 7715" d="M181.835,362.609c-5.174-10.135.556-8.408,1.623-5.957S181.835,362.609,181.835,362.609Z" transform="translate(-130.447 -194.952)" fill="#b0bec5"/>
        <path id="Path_7716" data-name="Path 7716" d="M331.44,323.344c9.993-5.446,8.408.343,5.989,1.468S331.44,323.344,331.44,323.344Z" transform="translate(-184.041 -183.041)" fill="#b0bec5"/>
        <path id="Path_7717" data-name="Path 7717" d="M320.584,157.124c-9.7-5.931-3.881-7.445-1.72-5.925S320.584,157.124,320.584,157.124Z" transform="translate(-178.288 -122.856)" fill="#b0bec5"/>
        <path id="Path_7718" data-name="Path 7718" d="M348.56,281.141c-.349-11.377-4.527-7.115-4.295-4.431S348.56,281.141,348.56,281.141Z" transform="translate(-188.567 -166.301)" fill="#b0bec5"/>
        <path id="Path_7719" data-name="Path 7719" d="M151.61,265.687c5.595-9.915,7.309-4.165,5.86-1.94S151.61,265.687,151.61,265.687Z" transform="translate(-120.525 -161.501)" fill="#b0bec5"/>
      </g>
      <g id="freepik--character-1--inject-145" transform="translate(161.549 74.204)">
        <path id="Path_7720" data-name="Path 7720" d="M96.729,149l2.3.569a12.063,12.063,0,0,0,.951,4.308c-.828-.091-1.119-.291-1.222-.446.116.53.252,2.134-1.863,3.376A7.71,7.71,0,0,1,96.729,149Z" transform="translate(-28.99 -139.156)" fill="#e0e0e0"/>
        <path id="Path_7721" data-name="Path 7721" d="M184.381,236.49l-15.142-9.98h0l-9.4-6.39c-4.87,4.068-9.463,9.7-14.152,16.086l24.449,27.6C177.221,254.051,184.381,236.49,184.381,236.49Z" transform="translate(-145.69 -164.275)" fill="#263238"/>
        <path id="Path_7722" data-name="Path 7722" d="M84.466,186.63c.757,1.856,1.552,3.544,2.419,5.278s1.772,3.415,2.781,5.09a53.035,53.035,0,0,0,3.305,4.974,31.109,31.109,0,0,0,2.018,2.451,19.054,19.054,0,0,0,2.639,2.406l.22.168a3.693,3.693,0,0,0,3.79.362,8.517,8.517,0,0,0,2.587-1.908,14.228,14.228,0,0,0,1.514-1.94,23.007,23.007,0,0,0,1.94-3.758,35.289,35.289,0,0,0,1.294-3.745,31.793,31.793,0,0,0,.86-3.836,2.219,2.219,0,0,0-4.062-1.546l-.052.084-1.94,2.988c-.647.99-1.294,1.94-1.94,2.865a22.417,22.417,0,0,1-2.005,2.445,5.68,5.68,0,0,1-.931.828c-.272.188-.492.265-.427.188l4.01.524a12.29,12.29,0,0,1-1.294-1.481c-.459-.608-.925-1.261-1.378-1.94-.893-1.4-1.753-2.9-2.587-4.443s-1.63-3.124-2.406-4.728-1.565-3.234-2.283-4.786V183.1a4.405,4.405,0,0,0-8.072,3.531Z" transform="translate(-31.332 -150.266)" fill="#ffc3bd"/>
        <path id="Path_7723" data-name="Path 7723" d="M81.3,195.677l.349-5.427,5.769,2.38s-.647,5.174-3.629,5.006Z" transform="translate(-7.08 -153.725)" fill="#ffc3bd"/>
        <path id="Path_7724" data-name="Path 7724" d="M83.217,185.507l2.626.99a1.5,1.5,0,0,1,.951,1.636l-.453,2.788-5.769-2.38.692-2.1a1.5,1.5,0,0,1,1.953-.931Z" transform="translate(-6.002 -152.016)" fill="#ffc3bd"/>
        <path id="Path_7725" data-name="Path 7725" d="M109.881,178.8c4.152,2.93,6.843,11.985,6.843,11.985l-9.01,6.817a26.144,26.144,0,0,1-4.456-8.13C102.721,187.869,104.953,175.334,109.881,178.8Z" transform="translate(-50.538 -149.468)" fill="#263238"/>
        <path id="Path_7726" data-name="Path 7726" d="M156.133,173.856A82.051,82.051,0,0,0,138.67,163.7a7.354,7.354,0,0,0-8.408,2.147c-4.735,5.763-8.738,14.424-20.232,34.209,1.617,2.341,7.969,7.186,13.272,10.7.576.382,2.9.136,2.9.136s.395,1.94,1.158,2.426c3.635,2.173,6.992,3.965,8.1,3.784,1.94-5.116,9.514-14.54,14.449-22.1,2.141-2.827,5.821-8.234,7.057-12.018C158.106,179.406,159.089,176.178,156.133,173.856Z" transform="translate(-96.33 -144.162)" fill="#263238"/>
        <path id="Path_7727" data-name="Path 7727" d="M124.513,155.54c-2.147,3.234-5.343,7.386-7.865,8.771-.265,2.82,1.417,6.565,3.667,9.586,3.564-.686,5.006-2.924,5.174-4.773-.7-2.516,1.009-4.094,2.083-5.291Z" transform="translate(-70.078 -141.466)" fill="#ffc3bd"/>
        <path id="Path_7728" data-name="Path 7728" d="M121.74,183.19a4.715,4.715,0,0,0,2.063-1.125c.8-.828,1.882,1.035,1.882,1.035A7.762,7.762,0,0,1,121.74,183.19Z" transform="translate(-71.503 -150.759)" fill="#e0e0e0"/>
        <path id="Path_7729" data-name="Path 7729" d="M130.526,181.72a2.109,2.109,0,0,0-.459-2.361,6.746,6.746,0,0,0-2.5-1.669A14.509,14.509,0,0,0,130.526,181.72Z" transform="translate(-80.289 -149.289)" fill="#e0e0e0"/>
        <path id="Path_7730" data-name="Path 7730" d="M117.358,160.392c.129-.207.272-.407.408-.6l2.121,5.55a9.262,9.262,0,0,0-1.94,2.678C116.627,165.747,116.1,162.358,117.358,160.392Z" transform="translate(-62.406 -142.967)" opacity="0.2"/>
        <path id="Path_7731" data-name="Path 7731" d="M100.035,146.036c-1.656,4.825-2.872,7.568-1.481,10.944,2.089,5.077,8.822,5.278,11.888,1.035,2.762-3.823,5.006-11.067,1.151-14.8a7.024,7.024,0,0,0-11.558,2.82Z" transform="translate(-44.08 -136.411)" fill="#ffc3bd"/>
        <path id="Path_7732" data-name="Path 7732" d="M87.3,138.929c1.824,3.234,7.936,6.843,12.658,6.364a1.8,1.8,0,0,1-.886-1.429s3.2.42,4.657-1.423c-3.415.175-4.9-2.348-6.009-3.6-1.462-1.643-2.7-2.956-5.692-3.118,2.5-.712,2.587-1.94,2.587-1.94S85.915,136.509,87.3,138.929Z" transform="translate(-27.173 -133.78)" fill="#e0e0e0"/>
        <path id="Path_7733" data-name="Path 7733" d="M118.109,140.227c-1.242-3.2-1.662-5.071-1.294-6.067a3.628,3.628,0,0,0-1.539,2.167,4.528,4.528,0,0,0-4.34.045c-2.367,1.261-1.889,7.762-.893,9.094,2.736,2.264,3.5,2.367,3.5,2.367s1.1-2.917.647-4.34c.647,1.378,1.565.9,1.565.9s-.906-1.643-.084-2.665C116.544,142.588,118.769,142.038,118.109,140.227Z" transform="translate(-55.952 -133.914)" fill="#e0e0e0"/>
        <path id="Path_7734" data-name="Path 7734" d="M110.887,164.609a30.046,30.046,0,0,0-4.825-3.3,3.661,3.661,0,0,0,2.024,3.971,1.9,1.9,0,0,0,2.8-.673Z" transform="translate(-46.524 -143.504)" fill="#263238"/>
        <path id="Path_7735" data-name="Path 7735" d="M109.548,165.026a4.133,4.133,0,0,1,1.759,1.792,2.231,2.231,0,0,1-1.365-.349,4.081,4.081,0,0,1-1.753-1.792A2.167,2.167,0,0,1,109.548,165.026Z" transform="translate(-48.361 -144.69)" fill="#ed847e"/>
        <path id="Path_7736" data-name="Path 7736" d="M110.715,164.526a.834.834,0,0,1-.88.239,22.269,22.269,0,0,1-3.1-2.238,1.294,1.294,0,0,1-.53-1.067A34.28,34.28,0,0,1,110.715,164.526Z" transform="translate(-46.481 -143.557)" fill="#fff"/>
        <path id="Path_7737" data-name="Path 7737" d="M114.344,160.032s-.964-.7-1.294.226A2.534,2.534,0,0,1,114.344,160.032Z" transform="translate(-54.541 -142.963)" opacity="0.2"/>
        <path id="Path_7738" data-name="Path 7738" d="M112.83,153.59a2.775,2.775,0,0,0-1.83-1.08A5.523,5.523,0,0,0,112.83,153.59Z" transform="translate(-51.702 -140.395)" opacity="0.2"/>
        <path id="Path_7739" data-name="Path 7739" d="M113.26,154.515a2.277,2.277,0,0,0-1.85-.53A4.489,4.489,0,0,0,113.26,154.515Z" transform="translate(-52.396 -140.906)" opacity="0.2"/>
        <path id="Path_7740" data-name="Path 7740" d="M99.19,158.312s.77-.259,1.028.116A1.831,1.831,0,0,1,99.19,158.312Z" transform="translate(-31.451 -142.414)" opacity="0.2"/>
        <path id="Path_7741" data-name="Path 7741" d="M99.97,158.858s.647-.078.711.414A1.08,1.08,0,0,1,99.97,158.858Z" transform="translate(-32.418 -142.636)" opacity="0.2"/>
        <path id="Path_7742" data-name="Path 7742" d="M117.123,150.756a4.819,4.819,0,0,0,.815,3.6c1,1.378,2.587.75,3.176-.731.556-1.339.705-3.661-.718-4.528a2.193,2.193,0,0,0-3.273,1.656Z" transform="translate(-64.299 -139.088)" fill="#ffc3bd"/>
        <path id="Path_7743" data-name="Path 7743" d="M108.657,154.708c-.162.382-.084.776.168.88s.582-.129.744-.511.078-.776-.175-.88S108.812,154.339,108.657,154.708Z" transform="translate(-46.952 -140.983)" fill="#263238"/>
        <path id="Path_7744" data-name="Path 7744" d="M101.244,157.708c-.155.388-.078.776.175.88s.582-.129.737-.511.084-.776-.168-.88S101.405,157.339,101.244,157.708Z" transform="translate(-34.746 -142.042)" fill="#263238"/>
        <path id="Path_7745" data-name="Path 7745" d="M106.2,157.12a14.585,14.585,0,0,0,.233,4.042,2.413,2.413,0,0,1-1.94-.517Z" transform="translate(-41.091 -142.024)" fill="#ed847e"/>
        <path id="Path_7746" data-name="Path 7746" d="M106.712,150.4a.188.188,0,0,1-.091-.084.246.246,0,0,1,.084-.336,2.458,2.458,0,0,1,2.225-.188.239.239,0,0,1,.11.33.246.246,0,0,1-.323.11h0a1.941,1.941,0,0,0-1.759.168A.239.239,0,0,1,106.712,150.4Z" transform="translate(-45.085 -139.371)" fill="#263238"/>
        <path id="Path_7747" data-name="Path 7747" d="M99.829,154.476a.233.233,0,0,1-.168-.162,1.94,1.94,0,0,0-1.2-1.294.242.242,0,1,1,.129-.466,2.4,2.4,0,0,1,1.539,1.591.246.246,0,0,1-.155.31A.265.265,0,0,1,99.829,154.476Z" transform="translate(-30.784 -140.408)" fill="#263238"/>
        <path id="Path_7748" data-name="Path 7748" d="M163.695,163.742c-1.843.75-3.551,1.533-5.291,2.374s-3.441,1.72-5.129,2.678c-.847.466-1.695.964-2.535,1.455s-1.675,1.035-2.5,1.6a37.625,37.625,0,0,0-4.974,3.881l-.207.194a3.6,3.6,0,0,0-1.138,2.684,11.642,11.642,0,0,0,.459,3.066,21.078,21.078,0,0,0,.88,2.464,32.68,32.68,0,0,0,2.238,4.2q1.232,1.94,2.62,3.719a41.756,41.756,0,0,0,2.956,3.422,2.212,2.212,0,0,0,3.616-2.432l-.039-.078-1.682-3.816c-.543-1.294-1.074-2.548-1.546-3.8a34.656,34.656,0,0,1-1.2-3.68,12.811,12.811,0,0,1-.323-1.656,4.215,4.215,0,0,1,0-1.2l-1.345,2.878a37.886,37.886,0,0,1,4.139-2.665c1.513-.86,3.1-1.688,4.7-2.5s3.234-1.6,4.877-2.367l4.909-2.283h.058a4.411,4.411,0,0,0-3.519-8.085Z" transform="translate(-128.625 -144.273)" fill="#ffc3bd"/>
        <path id="Path_7749" data-name="Path 7749" d="M152.622,163.5c-5.42-2.406-15.122,3.325-15.122,3.325l.944,11.862a12.444,12.444,0,0,0,8.842-2.865C150.649,173.135,158.152,165.936,152.622,163.5Z" transform="translate(-110.606 -144.068)" fill="#263238"/>
        <path id="Path_7750" data-name="Path 7750" d="M164.507,206.33l4.075,3.234-5.1,3.609s-3.331-3.376-1.824-5.44Z" transform="translate(-139.968 -159.405)" fill="#ffc3bd"/>
        <path id="Path_7751" data-name="Path 7751" d="M164.427,216.7l-2,.964a1.811,1.811,0,0,1-2.257-.589l-1.5-2.134,5.1-3.609,1.488,2.924a1.811,1.811,0,0,1-.828,2.445Z" transform="translate(-135.153 -161.171)" fill="#ffc3bd"/>
        <path id="Path_7752" data-name="Path 7752" d="M133.89,166.15a7.555,7.555,0,0,0,1.093,9.133c-3.008-1.733-6.4.213-6.4.213s-.614-6.8,3.234-9.159Z" transform="translate(-85.205 -145.213)" fill="#fff"/>
        <path id="Path_7753" data-name="Path 7753" d="M120.5,173.16c-.647.977-.647,3.564-3.176,5.821,1.695.854,2.283,3.538,2.283,3.538a11.837,11.837,0,0,0,2.458-7.309A5.75,5.75,0,0,0,120.5,173.16Z" transform="translate(-65.019 -147.689)" fill="#fff"/>
      </g>
      <g id="freepik--character-2--inject-145" transform="translate(60.553 0)">
        <path id="Path_7754" data-name="Path 7754" d="M221.483,141.43l-3.383,3.952,5.692,2.587s2.626-3.952.75-5.685Z" transform="translate(-173.878 -77.83)" fill="#ffc3bd"/>
        <path id="Path_7755" data-name="Path 7755" d="M217.959,152.92l2.141.563a1.817,1.817,0,0,0,2.109-1.015l1.054-2.38-5.692-2.587-.893,3.156a1.8,1.8,0,0,0,1.281,2.264Z" transform="translate(-173.349 -79.974)" fill="#ffc3bd"/>
        <path id="Path_7756" data-name="Path 7756" d="M184.87,53.624l1.986-1.294a12.14,12.14,0,0,0,3.81,2.225c-.647.55-.977.647-1.151.6.466.272,1.733,1.294,1.21,3.654A7.71,7.71,0,0,1,184.87,53.624Z" transform="translate(-162.141 -46.36)" fill="#e0e0e0"/>
        <path id="Path_7757" data-name="Path 7757" d="M209.535,152.79l-17.612,4.347h0l-11.073,2.587c-.317,6.332.731,13.583,2.212,21.306l36.868.783C217.568,169.963,209.535,152.79,209.535,152.79Z" transform="translate(-160.701 -81.843)" fill="#263238"/>
        <path id="Path_7758" data-name="Path 7758" d="M207.237,88.807c1.669,1.074,3.143,2.147,4.657,3.305s2.969,2.348,4.392,3.629a52.936,52.936,0,0,1,4.152,4.114,27.368,27.368,0,0,1,3.764,5.174l.129.233a3.073,3.073,0,0,1,.343,1,16.714,16.714,0,0,1-.3,6.138,33.543,33.543,0,0,1-1.565,5.084,49.364,49.364,0,0,1-2.134,4.625,44.91,44.91,0,0,1-2.587,4.346,2.206,2.206,0,0,1-3.939-1.85v-.091c.408-1.455.86-2.995,1.248-4.482s.757-2.988,1.048-4.463a35.237,35.237,0,0,0,.647-4.282,10.93,10.93,0,0,0-.207-3.454l.466,1.235a24.152,24.152,0,0,0-2.969-3.357c-1.177-1.125-2.458-2.225-3.777-3.312s-2.684-2.141-4.075-3.176-2.833-2.089-4.165-3.046l-.071-.045a4.419,4.419,0,0,1,4.942-7.328Z" transform="translate(-167.608 -58.977)" fill="#ffc3bd"/>
        <path id="Path_7759" data-name="Path 7759" d="M200.219,84.168c5.084.194,14.495,8.958,14.495,8.958l-5.349,10a26.222,26.222,0,0,1-8.143-4.418C199.876,97.674,194.2,83.936,200.219,84.168Z" transform="translate(-166.605 -57.604)" fill="#263238"/>
        <path id="Path_7760" data-name="Path 7760" d="M186.256,84.158a82.144,82.144,0,0,0-19.32,5.938,7.367,7.367,0,0,0-4.152,7.652c1.022,7.386,4.67,16.209,11.39,38.077,2.82.407,10.692-.977,16.875-2.484.647-.162,2.07-2.037,2.07-2.037s1.714,1.048,2.587.8c4.062-1.2,7.244-2.471,7.872-3.415-2.426-4.916-3.81-16.817-6.015-25.587-.647-3.486-2.076-9.877-4.036-13.337C191.656,86.493,189.962,83.563,186.256,84.158Z" transform="translate(-154.317 -57.574)" fill="#263238"/>
        <path id="Path_7761" data-name="Path 7761" d="M175.74,73.9c.9,3.758,1.8,8.939,1.1,11.733,1.9,2.1,5.789,3.409,9.534,3.81,1.94-3.085,1.248-5.659,0-7.031-2.329-1.2-2.329-3.525-2.471-5.123Z" transform="translate(-158.917 -53.979)" fill="#ffc3bd"/>
        <path id="Path_7762" data-name="Path 7762" d="M192.18,96.261a4.838,4.838,0,0,0,.576-2.277c-.065-1.151,2.037-.686,2.037-.686A7.891,7.891,0,0,1,192.18,96.261Z" transform="translate(-164.723 -60.797)" fill="#e0e0e0"/>
        <path id="Path_7763" data-name="Path 7763" d="M189.46,97.246A2.121,2.121,0,0,0,187.4,96a6.791,6.791,0,0,0-2.924.7A14.33,14.33,0,0,0,189.46,97.246Z" transform="translate(-162.004 -61.782)" fill="#e0e0e0"/>
        <path id="Path_7764" data-name="Path 7764" d="M180,76.441c-.065-.233-.116-.479-.168-.711l5.517,2.212a9.315,9.315,0,0,0,.647,3.234C183.446,80.62,180.587,78.705,180,76.441Z" transform="translate(-160.361 -54.625)" opacity="0.2"/>
        <path id="Path_7765" data-name="Path 7765" d="M171.783,61.852c2.419,4.489,3.6,7.238,7.031,8.512,5.174,1.94,9.857-2.9,8.829-8.027-.931-4.625-4.728-11.19-10.09-10.892a7.024,7.024,0,0,0-5.769,10.407Z" transform="translate(-157.21 -46.044)" fill="#ffc3bd"/>
        <path id="Path_7766" data-name="Path 7766" d="M189.409,70.689a4.418,4.418,0,0,0-3.279,1.294.162.162,0,1,0,.239.213,4.269,4.269,0,0,1,3.7-1.132.155.155,0,0,0,.181-.136.162.162,0,0,0-.136-.181,6.893,6.893,0,0,0-.705-.058Z" transform="translate(-162.566 -52.843)" fill="#263238"/>
        <path id="Path_7767" data-name="Path 7767" d="M171.051,52.783c3.6.847,10.407-1.184,13.266-4.974a1.83,1.83,0,0,1-1.649-.317s2.477-2.063,2.115-4.392c-2.193,2.632-5.051,2.005-6.727,1.94-2.193-.045-4,0-6.151,2.063,1.171-2.322.336-3.234.336-3.234S168.315,52.142,171.051,52.783Z" transform="translate(-156.918 -43.1)" fill="#e0e0e0"/>
        <path id="Path_7768" data-name="Path 7768" d="M170.763,55.266c-3.2-1.294-4.851-2.225-5.336-3.176a3.648,3.648,0,0,0,.543,2.587,4.528,4.528,0,0,0-2.911,3.234c-.647,2.587,4.437,6.675,6.073,6.824,3.519-.472,4.114-.957,4.114-.957s-1.4-2.788-2.755-3.428c1.436.485,1.733-.537,1.733-.537s-1.824-.446-2.018-1.746C171.455,58.008,172.561,56,170.763,55.266Z" transform="translate(-154.418 -46.275)" fill="#e0e0e0"/>
        <path id="Path_7769" data-name="Path 7769" d="M184.27,73.88s.375,1.132,1.158.55C185,74.475,184.27,73.88,184.27,73.88Z" transform="translate(-161.93 -53.972)" opacity="0.2"/>
        <path id="Path_7770" data-name="Path 7770" d="M193.457,71.14s.226,1.048-.647.957C193.166,71.936,193.457,71.14,193.457,71.14Z" transform="translate(-164.946 -53.004)" opacity="0.2"/>
        <path id="Path_7771" data-name="Path 7771" d="M180.681,65.342a2.775,2.775,0,0,0-2.031.608A5.536,5.536,0,0,0,180.681,65.342Z" transform="translate(-159.945 -50.951)" opacity="0.2"/>
        <path id="Path_7772" data-name="Path 7772" d="M181.1,66.11a2.3,2.3,0,0,0-1.649,1A4.488,4.488,0,0,0,181.1,66.11Z" transform="translate(-160.227 -51.227)" opacity="0.2"/>
        <path id="Path_7773" data-name="Path 7773" d="M191.77,60.353s.336-.737.783-.647A1.824,1.824,0,0,1,191.77,60.353Z" transform="translate(-164.579 -48.962)" opacity="0.2"/>
        <path id="Path_7774" data-name="Path 7774" d="M192,61.081s.375-.524.783-.246A1.048,1.048,0,0,1,192,61.081Z" transform="translate(-164.66 -49.335)" opacity="0.2"/>
        <path id="Path_7775" data-name="Path 7775" d="M171.036,71.242a4.812,4.812,0,0,0,3.234,1.843c1.688.2,2.29-1.371,1.617-2.833-.608-1.294-2.212-3-3.81-2.535a2.2,2.2,0,0,0-1.041,3.525Z" transform="translate(-157.071 -51.767)" fill="#ffc3bd"/>
        <path id="Path_7776" data-name="Path 7776" d="M182.943,64.8c.175.375.511.582.757.472s.3-.517.129-.893-.511-.589-.757-.472S182.762,64.414,182.943,64.8Z" transform="translate(-161.424 -50.436)" fill="#263238"/>
        <path id="Path_7777" data-name="Path 7777" d="M190.181,61.385c.175.375.511.582.757.472s.3-.517.129-.893-.511-.589-.757-.472S190.032,61,190.181,61.385Z" transform="translate(-163.986 -49.232)" fill="#263238"/>
        <path id="Path_7778" data-name="Path 7778" d="M188.1,62.86a14.573,14.573,0,0,0,3.131,2.587,2.419,2.419,0,0,1-1.708,1.087Z" transform="translate(-163.282 -50.079)" fill="#ed847e"/>
        <path id="Path_7779" data-name="Path 7779" d="M183.128,63.259a.213.213,0,0,1,.078.091.239.239,0,0,1-.11.323,2.419,2.419,0,0,1-2.231,0,.233.233,0,0,1-.084-.33.239.239,0,0,1,.33-.091h0a1.94,1.94,0,0,0,1.772,0A.239.239,0,0,1,183.128,63.259Z" transform="translate(-160.684 -50.206)" fill="#263238"/>
        <path id="Path_7780" data-name="Path 7780" d="M188.937,59.943a.239.239,0,0,1,.149-.175,1.94,1.94,0,0,0,1.209-1.294.242.242,0,1,1,.472.1,2.374,2.374,0,0,1-1.507,1.623.252.252,0,0,1-.317-.142A.22.22,0,0,1,188.937,59.943Z" transform="translate(-163.576 -48.462)" fill="#263238"/>
        <path id="Path_7781" data-name="Path 7781" d="M165.486,103.433c-.783,1.746-1.643,3.59-2.413,5.414s-1.546,3.648-2.277,5.472-1.4,3.648-1.94,5.44c-.285.893-.53,1.785-.744,2.639a15.716,15.716,0,0,0-.42,2.354l-.188-1.294a6.377,6.377,0,0,0,1.339,2.477c.382.459.8.938,1.261,1.4s.97.918,1.488,1.378c1.041.906,2.18,1.779,3.35,2.626s2.432,1.682,3.6,2.464l.11.071a2.206,2.206,0,0,1-1.753,3.971,35.048,35.048,0,0,1-4.657-1.533,36.6,36.6,0,0,1-4.45-2.167,24.579,24.579,0,0,1-4.275-3.1,13.428,13.428,0,0,1-3.59-5.174,3.144,3.144,0,0,1-.194-1.074v-.233a29.157,29.157,0,0,1,1.015-7.07c.53-2.154,1.171-4.211,1.882-6.222s1.475-3.991,2.3-5.931,1.662-3.836,2.658-5.782a4.411,4.411,0,0,1,7.956,3.8Z" transform="translate(-149.73 -62.212)" fill="#ffc3bd"/>
        <path id="Path_7782" data-name="Path 7782" d="M163.74,93.51c-5.666,1.74-9.23,12.425-9.23,12.425L163,114.273a12.477,12.477,0,0,0,4.8-7.962C168.571,102.08,169.5,91.744,163.74,93.51Z" transform="translate(-151.418 -60.834)" fill="#263238"/>
        <path id="Path_7783" data-name="Path 7783" d="M175.216,152.35l4.877,1.811-3.719,5.006s-4.224-2.173-3.428-4.605Z" transform="translate(-157.894 -81.687)" fill="#ffc3bd"/>
        <path id="Path_7784" data-name="Path 7784" d="M184.315,160.046l-1.6,1.533a1.8,1.8,0,0,1-2.329.142l-2.083-1.565,3.719-5.006,2.322,2.316a1.811,1.811,0,0,1-.026,2.581Z" transform="translate(-159.821 -82.676)" fill="#ffc3bd"/>
        <path id="Path_7785" data-name="Path 7785" d="M176.748,87.63a7.58,7.58,0,0,0,7.445,5.414c-3.312,1.028-4.178,4.845-4.178,4.845s-5.414-4.165-4.528-8.59Z" transform="translate(-158.793 -58.828)" fill="#fff"/>
        <path id="Path_7786" data-name="Path 7786" d="M189.77,84.653c.3,1.113,2.173,2.9,2.134,6.293,1.772-.647,4.146.724,4.146.724a11.843,11.843,0,0,0-3.7-6.772A5.782,5.782,0,0,0,189.77,84.653Z" transform="translate(-163.872 -57.759)" fill="#fff"/>
      </g>
      <g id="freepik--character-3--inject-145" transform="translate(130.892 8.391)">
        <path id="Path_7787" data-name="Path 7787" d="M292.908,55.45l-2.037-1.21a12.108,12.108,0,0,1-3.706,2.393c.647.517,1,.576,1.177.543-.453.291-1.675,1.339-1.048,3.706A7.71,7.71,0,0,0,292.908,55.45Z" transform="translate(-260.594 -48.425)" fill="#e0e0e0"/>
        <path id="Path_7788" data-name="Path 7788" d="M255.2,156.28l17.781,3.551h0l11.177,2.089c.6,6.313-.123,13.583-1.248,21.39l-36.8,2.432C247.979,173.8,255.2,156.28,255.2,156.28Z" transform="translate(-246.11 -84.466)" fill="#263238"/>
        <path id="Path_7789" data-name="Path 7789" d="M274.84,86.558a82.525,82.525,0,0,1,19.566,5.071,7.361,7.361,0,0,1,4.489,7.49c-.692,7.425-3.933,16.4-9.67,38.549-2.8.53-10.724-.5-16.966-1.72-.679-.136-2.16-1.94-2.16-1.94s-1.669,1.125-2.529.912c-4.114-1.009-7.354-2.141-8.02-3.053,2.2-5.019,3.053-16.985,4.864-25.833.466-3.512,1.63-9.961,3.435-13.505C269.543,89.139,271.108,86.138,274.84,86.558Z" transform="translate(-250.857 -59.826)" fill="#263238"/>
        <path id="Path_7790" data-name="Path 7790" d="M299.9,75.25c-.731,3.79-1.4,9.01-.576,11.765-1.8,2.193-5.627,3.674-9.346,4.237-2.05-2.995-1.507-5.595-.317-7.018,2.27-1.294,2.167-3.629,2.238-5.233Z" transform="translate(-261.119 -55.846)" fill="#ffc3bd"/>
        <path id="Path_7791" data-name="Path 7791" d="M289.232,98.375a4.728,4.728,0,0,1-.679-2.244c0-1.158-2.063-.6-2.063-.6A7.762,7.762,0,0,0,289.232,98.375Z" transform="translate(-260.372 -62.963)" fill="#e0e0e0"/>
        <path id="Path_7792" data-name="Path 7792" d="M290.73,99.26a2.108,2.108,0,0,1,1.986-1.352,6.746,6.746,0,0,1,2.956.569A14.174,14.174,0,0,1,290.73,99.26Z" transform="translate(-261.87 -63.847)" fill="#e0e0e0"/>
        <path id="Path_7793" data-name="Path 7793" d="M298.713,77.984c.052-.239.1-.485.136-.724l-5.414,2.458A9.329,9.329,0,0,1,292.95,83C295.453,82.312,298.228,80.268,298.713,77.984Z" transform="translate(-262.654 -56.556)" opacity="0.2"/>
        <path id="Path_7794" data-name="Path 7794" d="M300.574,63.205c-2.212,4.592-3.273,7.393-6.636,8.816-5.064,2.141-9.98-2.445-9.185-7.619.724-4.663,4.224-11.39,9.592-11.332a7.024,7.024,0,0,1,6.229,10.135Z" transform="translate(-259.729 -48.012)" fill="#ffc3bd"/>
        <path id="Path_7795" data-name="Path 7795" d="M301.781,54.305c-3.557,1.009-10.452-.718-13.473-4.379a1.817,1.817,0,0,0,1.63-.388s-2.587-1.94-2.309-4.288c2.3,2.529,5.142,1.779,6.8,1.669,2.193-.149,4-.2,6.242,1.785-1.294-2.264-.485-3.2-.485-3.2S304.484,53.542,301.781,54.305Z" transform="translate(-260.767 -45.25)" fill="#e0e0e0"/>
        <path id="Path_7796" data-name="Path 7796" d="M304.845,56.462c3.137-1.4,4.741-2.432,5.174-3.4a3.661,3.661,0,0,1-.427,2.626,4.528,4.528,0,0,1,3.053,3.085c.789,2.587-4.133,6.863-5.763,7.115-3.538-.317-4.152-.77-4.152-.77s1.294-2.852,2.587-3.551c-1.41.55-1.753-.459-1.753-.459s1.8-.524,1.94-1.837C304.315,59.243,303.112,57.284,304.845,56.462Z" transform="translate(-266.108 -48.008)" fill="#e0e0e0"/>
        <path id="Path_7797" data-name="Path 7797" d="M296.91,72.71s1.177.181.737,1.048C297.615,73.324,296.91,72.71,296.91,72.71Z" transform="translate(-264.053 -54.949)" opacity="0.2"/>
        <path id="Path_7798" data-name="Path 7798" d="M299.64,66.984a2.781,2.781,0,0,1,2.063.517A5.53,5.53,0,0,1,299.64,66.984Z" transform="translate(-265.017 -52.916)" opacity="0.2"/>
        <path id="Path_7799" data-name="Path 7799" d="M299.5,67.75a2.3,2.3,0,0,1,1.695.925A4.612,4.612,0,0,1,299.5,67.75Z" transform="translate(-264.967 -53.197)" opacity="0.2"/>
        <path id="Path_7800" data-name="Path 7800" d="M289.019,62.434s-.362-.724-.809-.647a1.824,1.824,0,0,0,.809.647Z" transform="translate(-260.98 -51.089)" opacity="0.2"/>
        <path id="Path_7801" data-name="Path 7801" d="M288.879,63.184s-.4-.511-.789-.207A1.061,1.061,0,0,0,288.879,63.184Z" transform="translate(-260.937 -51.477)" opacity="0.2"/>
        <path id="Path_7802" data-name="Path 7802" d="M307.681,72.433a4.806,4.806,0,0,1-3.111,1.986c-1.675.278-2.348-1.294-1.74-2.755.543-1.339,2.07-3.1,3.687-2.7a2.193,2.193,0,0,1,1.164,3.473Z" transform="translate(-266.066 -53.604)" fill="#ffc3bd"/>
        <path id="Path_7803" data-name="Path 7803" d="M297.91,66.5c-.162.382-.492.608-.737.5s-.33-.5-.168-.886.485-.608.737-.5S298.065,66.108,297.91,66.5Z" transform="translate(-264.057 -52.434)" fill="#263238"/>
        <path id="Path_7804" data-name="Path 7804" d="M291.018,73.151c-.226.55-.647,0-1.19-.22s-1.171-.149-.944-.7a1.164,1.164,0,0,1,2.134.918Z" transform="translate(-261.201 -54.555)" fill="#263238"/>
        <path id="Path_7805" data-name="Path 7805" d="M290.521,63.4c-.155.382-.485.608-.737.5s-.323-.5-.168-.886.485-.608.737-.5S290.676,63.021,290.521,63.4Z" transform="translate(-261.447 -51.34)" fill="#263238"/>
        <path id="Path_7806" data-name="Path 7806" d="M291.588,64.78a14.808,14.808,0,0,1-3.008,2.73,2.387,2.387,0,0,0,1.753,1Z" transform="translate(-261.11 -52.148)" fill="#ed847e"/>
        <path id="Path_7807" data-name="Path 7807" d="M300.192,61.515a.2.2,0,0,0-.123,0,.246.246,0,0,0-.2.278,2.438,2.438,0,0,0,1.294,1.824.233.233,0,0,0,.317-.123.246.246,0,0,0-.123-.323h0a1.94,1.94,0,0,1-1-1.455A.259.259,0,0,0,300.192,61.515Z" transform="translate(-265.097 -50.991)" fill="#263238"/>
        <path id="Path_7808" data-name="Path 7808" d="M292.158,58.245a.265.265,0,0,0-.233,0,1.94,1.94,0,0,1-1.746.149.239.239,0,0,0-.323.11.246.246,0,0,0,.11.33,2.4,2.4,0,0,0,2.212-.168.246.246,0,0,0,0-.427Z" transform="translate(-261.552 -49.83)" fill="#263238"/>
        <path id="Path_7809" data-name="Path 7809" d="M307.476,105.737c-.045,1.986-.181,3.881-.349,5.789s-.388,3.823-.686,5.744c-.136.957-.3,1.94-.466,2.885s-.375,1.94-.608,2.911a37.839,37.839,0,0,1-1.837,6.009l-.11.265a3.622,3.622,0,0,1-2.109,2.012,11.454,11.454,0,0,1-3.034.647,21,21,0,0,1-2.587.045,30.967,30.967,0,0,1-4.722-.6c-1.513-.31-2.975-.686-4.411-1.132a41.384,41.384,0,0,1-4.243-1.559,2.212,2.212,0,0,1,1-4.237h.084l4.165.22c1.384.058,2.762.11,4.107.1a36.816,36.816,0,0,0,3.881-.181,12.933,12.933,0,0,0,1.617-.259,4.321,4.321,0,0,0,1.125-.4l-2.218,2.277a36.757,36.757,0,0,0,1.028-4.819c.272-1.714.479-3.486.647-5.271s.349-3.6.485-5.407l.4-5.394v-.065a4.411,4.411,0,0,1,8.8.433Z" transform="translate(-258.429 -65.053)" fill="#ffc3bd"/>
        <path id="Path_7810" data-name="Path 7810" d="M312.568,97.489c4.165,4.217,2.238,15.323,2.238,15.323l-11.429,3.312a12.431,12.431,0,0,1-.453-9.282C304.25,102.748,308.338,93.208,312.568,97.489Z" transform="translate(-265.934 -63.319)" fill="#263238"/>
        <path id="Path_7811" data-name="Path 7811" d="M284.7,136.935l-4.469-2.665-1.572,6.041s4.34,1.94,5.737-.213Z" transform="translate(-257.607 -76.692)" fill="#ffc3bd"/>
        <path id="Path_7812" data-name="Path 7812" d="M272.888,135.367l-.194,2.206a1.8,1.8,0,0,0,1.352,1.94l2.523.647,1.572-6.041-3.234-.356a1.8,1.8,0,0,0-2.018,1.6Z" transform="translate(-255.496 -76.508)" fill="#ffc3bd"/>
        <path id="Path_7813" data-name="Path 7813" d="M272.948,97.191l-1.294,1.94-1.294,2c-.847,1.339-1.649,2.7-2.426,4.042-.382.647-.75,1.358-1.093,2.037s-.692,1.352-1,2.024a22.9,22.9,0,0,0-1.41,3.881l-.776-3.079c-.1-.065-.116,0,.091.168a3.376,3.376,0,0,0,1.035.446,15.193,15.193,0,0,0,3.363.446c1.248.058,2.587,0,3.881-.032s2.7-.188,3.991-.285h.129a2.206,2.206,0,0,1,1.132,4.191,33.25,33.25,0,0,1-4.2,1.656,31.159,31.159,0,0,1-4.456,1.093,19.281,19.281,0,0,1-5.032.226,11.713,11.713,0,0,1-3-.712,7.9,7.9,0,0,1-3.234-2.335,3.674,3.674,0,0,1-.783-2.865v-.246a26.592,26.592,0,0,1,1.462-5.718,44.138,44.138,0,0,1,2.173-5c.8-1.6,1.675-3.137,2.587-4.644.459-.744.925-1.488,1.423-2.219s.977-1.423,1.559-2.206a4.412,4.412,0,1,1,7.225,5.064Z" transform="translate(-249.793 -61.099)" fill="#ffc3bd"/>
        <path id="Path_7814" data-name="Path 7814" d="M274.95,86.58c-5.892.718-11.28,10.608-11.28,10.608l6.895,9.7A12.457,12.457,0,0,0,276.69,99.9C278.2,95.894,280.927,85.855,274.95,86.58Z" transform="translate(-252.312 -59.834)" fill="#263238"/>
        <path id="Path_7815" data-name="Path 7815" d="M283.66,121.614l4.644-2.354,1.151,6.132s-4.463,1.623-5.7-.608Z" transform="translate(-259.373 -71.39)" fill="#ffc3bd"/>
        <path id="Path_7816" data-name="Path 7816" d="M295.974,120.824l.045,2.219a1.8,1.8,0,0,1-1.481,1.8l-2.587.472-1.151-6.132,3.279-.129a1.792,1.792,0,0,1,1.9,1.766Z" transform="translate(-261.895 -71.318)" fill="#ffc3bd"/>
        <path id="Path_7817" data-name="Path 7817" d="M301.005,89.05a7.574,7.574,0,0,1-7.205,5.724c3.357.88,4.4,4.65,4.4,4.65s5.22-4.4,4.146-8.784C301.743,89.936,301.005,89.05,301.005,89.05Z" transform="translate(-262.954 -60.72)" fill="#fff"/>
        <path id="Path_7818" data-name="Path 7818" d="M289.277,86.638c-.246,1.125-2.037,2.995-1.843,6.384-1.8-.589-4.114.906-4.114.906a11.888,11.888,0,0,1,3.4-6.927A5.737,5.737,0,0,1,289.277,86.638Z" transform="translate(-259.253 -59.861)" fill="#fff"/>
      </g>
      <g id="freepik--character-4--inject-145" transform="translate(0 77.482) rotate(-8)">
        <path id="Path_7819" data-name="Path 7819" d="M2.387,0,0,4.625l6.125,1.19s1.656-4.45-.569-5.7Z" transform="translate(14.78 79.835)" fill="#ffc3bd"/>
        <path id="Path_7820" data-name="Path 7820" d="M1.756,5.187l2.219.058A1.8,1.8,0,0,0,5.792,3.777L6.277,1.19.152,0,0,3.279A1.8,1.8,0,0,0,1.756,5.187Z" transform="translate(14.653 84.434)" fill="#ffc3bd"/>
        <path id="Path_7821" data-name="Path 7821" d="M3.771,0,1.417.317A11.9,11.9,0,0,1,0,4.5c.834,0,1.145-.168,1.294-.31C1.125,4.7.815,6.274,2.781,7.742A7.71,7.71,0,0,0,3.771,0Z" transform="translate(4.877 9.708)" fill="#e0e0e0"/>
        <path id="Path_7822" data-name="Path 7822" d="M0,13.589,16.17,5.323h0L26.215,0C30.607,4.573,34.552,10.711,38.5,17.535L11.19,42.3C5.207,31.823,0,13.589,0,13.589Z" transform="translate(30.691 61.31)" fill="#263238"/>
        <path id="Path_7823" data-name="Path 7823" d="M.144,5.557l1.2,5.064L2.53,15.7c.375,1.688.75,3.37,1.074,5.032A48.549,48.549,0,0,1,4.387,25.6v-.323l.1,5.045c.032,1.688.1,3.383.149,5.077.129,3.4.291,6.8.608,10.2h0a2.212,2.212,0,0,0,4.366.239c.686-3.37,1.2-6.74,1.649-10.129.214-1.688.44-3.383.608-5.084s.356-3.4.479-5.123v-.323a52.246,52.246,0,0,0-.42-5.737c-.213-1.856-.5-3.667-.821-5.472s-.692-3.583-1.08-5.355S9.192,5.1,8.681,3.3A4.412,4.412,0,0,0,.144,5.525Z" transform="translate(11.292 36.756)" fill="#ffc3bd"/>
        <path id="Path_7824" data-name="Path 7824" d="M1.72,1.279c-3.726,7.044-.239,18.279-.239,18.279l11.339.239a26.074,26.074,0,0,0,.136-9.256C12.716,8.86,4.534-4.044,1.72,1.279Z" transform="translate(10.679 31.21)" fill="#263238"/>
        <path id="Path_7825" data-name="Path 7825" d="M2.406,8.461A81.651,81.651,0,0,1,20.885.279a7.354,7.354,0,0,1,8.156,3.046c4.075,6.248,7.115,15.3,16.377,36.221-1.863,2.154-8.706,6.274-14.365,9.191-.647.317-2.9-.181-2.9-.181s-.608,1.94-1.41,2.29c-3.881,1.759-7.548,3.583-8.635,3.279-1.4-5.291-7.71-15.9-11.791-23.932C4.5,27.147,1.41,21.371.614,17.477-.136,13.765-.783,10.447,2.406,8.461Z" transform="translate(11.947 21.868)" fill="#263238"/>
        <path id="Path_7826" data-name="Path 7826" d="M3.933,0C5.724,3.422,8.46,7.93,10.8,9.579c-.045,2.826-2.128,6.371-4.689,9.126-3.467-1.074-4.657-3.447-4.612-5.31C2.464,10.97.938,9.21,0,7.91Z" transform="translate(17.457 15.387)" fill="#ffc3bd"/>
        <path id="Path_7827" data-name="Path 7827" d="M3.926,1.6A4.8,4.8,0,0,1,1.986.266C1.274-.646,0,1.081,0,1.081A7.762,7.762,0,0,0,3.926,1.6Z" transform="translate(19.637 32.488)" fill="#e0e0e0"/>
        <path id="Path_7828" data-name="Path 7828" d="M.1,3.687a2.128,2.128,0,0,1,.718-2.3A6.8,6.8,0,0,1,3.478,0,14.08,14.08,0,0,1,.1,3.687Z" transform="translate(23.468 30.406)" fill="#e0e0e0"/>
        <path id="Path_7829" data-name="Path 7829" d="M3.053.647C2.943.427,2.827.213,2.71,0L0,5.284A9.58,9.58,0,0,1,1.656,8.163C3.189,6.067,4.088,2.742,3.053.647Z" transform="translate(17.464 18.013)" opacity="0.2"/>
        <path id="Path_7830" data-name="Path 7830" d="M13.893,5.546c1.119,4.974,2.031,7.833.278,11.041-2.633,4.819-9.34,4.282-11.934-.272-2.329-4.1-3.764-11.545.479-14.838A7.024,7.024,0,0,1,13.893,5.546Z" transform="translate(6.5 5.256)" fill="#ffc3bd"/>
        <path id="Path_7831" data-name="Path 7831" d="M.522,1.189A4.385,4.385,0,0,1,3.847.012a.162.162,0,0,1,.136.181.155.155,0,0,1-.175.136A4.262,4.262,0,0,0,.27,1.9a.155.155,0,0,1-.226,0,.168.168,0,0,1,0-.226A5.249,5.249,0,0,1,.522,1.189Z" transform="translate(11.948 19.205)" fill="#263238"/>
        <path id="Path_7832" data-name="Path 7832" d="M16.713,5.892c-2.167,3-8.635,5.938-13.279,4.942A1.811,1.811,0,0,0,4.469,9.54S1.235,9.605,0,7.6c3.376.556,5.129-1.8,6.365-2.917,1.63-1.481,3.008-2.645,6-2.484C9.954,1.222,10,0,10,0S18.35,3.616,16.713,5.892Z" transform="translate(0 0)" fill="#e0e0e0"/>
        <path id="Path_7833" data-name="Path 7833" d="M.2,5.892C1.783,2.839,2.4,1.035,2.139,0A3.641,3.641,0,0,1,3.433,2.322s1.94-1.565,4.308.524c2.005,1.779,1.028,7.943-.1,9.133C4.668,13.919,3.9,13.951,3.9,13.951s-.776-3.021-.175-4.385a1.649,1.649,0,0,1-2.121.647s1.552-1.481.841-2.587C1.492,8.408-.662,7.619.2,5.892Z" transform="translate(14.367 0.938)" fill="#e0e0e0"/>
        <path id="Path_7834" data-name="Path 7834" d="M0,.777S.259-.381,1.093.13C.647.117,0,.777,0,.777Z" transform="translate(13.822 20.677)" opacity="0.2"/>
        <path id="Path_7835" data-name="Path 7835" d="M0,.656A2.749,2.749,0,0,1,2.011.01,5.543,5.543,0,0,1,0,.656Z" transform="translate(14.831 13.153)" opacity="0.2"/>
        <path id="Path_7836" data-name="Path 7836" d="M0,.287A2.283,2.283,0,0,1,1.94.157,4.585,4.585,0,0,1,0,.287Z" transform="translate(15.019 13.988)" opacity="0.2"/>
        <path id="Path_7837" data-name="Path 7837" d="M1,.03s-.8-.155-1,.246A1.843,1.843,0,0,0,1,.03Z" transform="translate(6.966 15.72)" opacity="0.2"/>
        <path id="Path_7838" data-name="Path 7838" d="M.647,0S0,0,0,.472A1.055,1.055,0,0,0,.647,0Z" transform="translate(7.406 16.177)" opacity="0.2"/>
        <path id="Path_7839" data-name="Path 7839" d="M4.487,2.179a4.806,4.806,0,0,1-1.21,3.486C2.139,6.927.651,6.131.2,4.592-.2,3.2-.1.873,1.414.181a2.2,2.2,0,0,1,3.072,2Z" transform="translate(18.772 10.996)" fill="#ffc3bd"/>
        <path id="Path_7840" data-name="Path 7840" d="M.989.6c.116.395,0,.776-.259.854S.161,1.26.045.866.045.083.31.012.879.2.989.6Z" transform="translate(13.214 13.662)" fill="#263238"/>
        <path id="Path_7841" data-name="Path 7841" d="M.989.6c.116.4,0,.783-.265.854S.161,1.267.045.866.045.09.31.012.873.232.989.6Z" transform="translate(8.234 15.065)" fill="#263238"/>
        <path id="Path_7842" data-name="Path 7842" d="M.647,0A14.484,14.484,0,0,1,0,3.991a2.413,2.413,0,0,0,2-.3Z" transform="translate(10.025 15.239)" fill="#ed847e"/>
        <path id="Path_7843" data-name="Path 7843" d="M.1.078A.213.213,0,0,0,.024.168.239.239,0,0,0,.141.492,2.464,2.464,0,0,0,2.379.453.246.246,0,0,0,2.114.039h0a1.94,1.94,0,0,1-1.766,0A.239.239,0,0,0,.1.078Z" transform="translate(11.877 11.545)" fill="#263238"/>
        <path id="Path_7844" data-name="Path 7844" d="M1.468.016a.233.233,0,0,0-.155.162A1.94,1.94,0,0,1,.168,1.51a.246.246,0,0,0-.155.31.252.252,0,0,0,.31.155A2.425,2.425,0,0,0,1.785.307a.246.246,0,0,0-.175-.3A.213.213,0,0,0,1.468.016Z" transform="translate(6.158 12.804)" fill="#263238"/>
        <path id="Path_7845" data-name="Path 7845" d="M2.589,8.4c1.733.8,3.6,1.636,5.368,2.5s3.564,1.74,5.31,2.639,3.447,1.843,5.058,2.82c.8.485,1.565,1,2.283,1.5a15.745,15.745,0,0,1,1.863,1.507l-.712-1.112a6.466,6.466,0,0,1,.614,2.749c0,.6,0,1.235-.032,1.889s-.129,1.326-.22,2.012c-.194,1.371-.479,2.775-.809,4.185s-.731,2.865-1.1,4.217l-.032.123a2.2,2.2,0,0,0,3.926,1.85,35.57,35.57,0,0,0,2.51-4.185,36.45,36.45,0,0,0,1.94-4.56,24.421,24.421,0,0,0,1.19-5.142,13.39,13.39,0,0,0-.647-6.248,3.047,3.047,0,0,0-.563-.938l-.149-.175a29.628,29.628,0,0,0-5.407-4.67,62.19,62.19,0,0,0-5.5-3.46q-2.785-1.581-5.621-2.969c-1.9-.925-3.771-1.8-5.821-2.626A4.411,4.411,0,0,0,2.518,8.4Z" transform="translate(33.58 22.359)" fill="#ffc3bd"/>
        <path id="Path_7846" data-name="Path 7846" d="M1.962.59c5.42-2.406,15.122,3.325,15.122,3.325L16.14,15.777A12.451,12.451,0,0,1,7.3,12.918C3.935,10.227-3.542,3.035,1.962.59Z" transform="translate(31.193 21.472)" fill="#263238"/>
        <path id="Path_7847" data-name="Path 7847" d="M2.5,0,0,4.566,6.093,5.912S7.852,1.5,5.66.188Z" transform="translate(51.803 54.014)" fill="#ffc3bd"/>
        <path id="Path_7848" data-name="Path 7848" d="M1.718,5.2l2.212.11A1.817,1.817,0,0,0,5.787,3.887L6.33,1.339.237,0,0,3.273A1.8,1.8,0,0,0,1.718,5.2Z" transform="translate(51.559 58.607)" fill="#ffc3bd"/>
        <path id="Path_7849" data-name="Path 7849" d="M2.083,0A7.561,7.561,0,0,1,0,8.958c3.176-1.391,6.332.918,6.332.918S7.684,3.182,4.12.42Z" transform="translate(24.281 22.832)" fill="#fff"/>
        <path id="Path_7850" data-name="Path 7850" d="M1.86,0c.5,1.041.265,3.609,2.523,6.151C2.6,6.8,1.725,9.385,1.725,9.385A11.842,11.842,0,0,1,.082,1.843,5.762,5.762,0,0,1,1.86,0Z" transform="translate(17.253 26.603)" fill="#fff"/>
      </g>
      <g id="Time_management-bro" data-name="Time management-bro" transform="translate(5.25 106.063)">
        <g id="freepik--Clock--inject-441" transform="translate(39.618 -34.545)">
          <ellipse id="Ellipse_663" data-name="Ellipse 663" cx="79.79" cy="79.79" rx="79.79" ry="79.79" fill="#263238" opacity="0.2"/>
          <ellipse id="Ellipse_664" data-name="Ellipse 664" cx="73.528" cy="73.528" rx="73.528" ry="73.528" transform="translate(6.261 6.261)" fill="#b0bec5" stroke="#263238" stroke-miterlimit="10" stroke-width="1"/>
          <g id="Group_3498" data-name="Group 3498" transform="translate(31.185 29.948)" opacity="0.2">
            <path id="Path_8137" data-name="Path 8137" d="M234.505,200.2a2.391,2.391,0,0,1-1.723-.718l-46.25-47.5a2.405,2.405,0,0,1,3.447-3.353L236.236,196.1a2.406,2.406,0,0,1-1.723,4.086Z" transform="translate(-185.901 -147.958)" fill="#263238"/>
          </g>
          <path id="Path_8138" data-name="Path 8138" d="M223.751,232.722a2.405,2.405,0,0,1-1.343-4.409l20.752-13.88a2.405,2.405,0,0,1,2.671,4l-20.745,13.88a2.413,2.413,0,0,1-1.336.409Z" transform="translate(-164.706 -136.647)" fill="#263238" opacity="0.2"/>
          <path id="Path_8139" data-name="Path 8139" d="M255.4,216.2a2.98,2.98,0,1,0-2.98,2.973A2.98,2.98,0,0,0,255.4,216.2Z" transform="translate(-172.63 -136.407)" fill="#263238" stroke="#263238" stroke-linecap="round" stroke-miterlimit="10" stroke-width="1"/>
          <line id="Line_14" data-name="Line 14" y2="9.938" transform="translate(79.847 12.839)" fill="#fff" stroke="#263238" stroke-linecap="round" stroke-miterlimit="10" stroke-width="2"/>
          <line id="Line_15" data-name="Line 15" y2="9.938" transform="translate(79.847 136.027)" fill="#fff" stroke="#263238" stroke-linecap="round" stroke-miterlimit="10" stroke-width="2"/>
          <line id="Line_16" data-name="Line 16" x1="9.945" transform="translate(136.466 79.402)" fill="#fff" stroke="#263238" stroke-linecap="round" stroke-miterlimit="10" stroke-width="2"/>
          <line id="Line_17" data-name="Line 17" x1="9.938" transform="translate(13.284 79.402)" fill="#fff" stroke="#263238" stroke-linecap="round" stroke-miterlimit="10" stroke-width="2"/>
          <line id="Line_18" data-name="Line 18" x1="5.213" y2="8.466" transform="translate(109.539 22.726)" fill="#fff" stroke="#263238" stroke-linecap="round" stroke-miterlimit="10" stroke-width="2"/>
          <line id="Line_19" data-name="Line 19" x1="5.213" y2="8.466" transform="translate(44.936 127.612)" fill="#fff" stroke="#263238" stroke-linecap="round" stroke-miterlimit="10" stroke-width="2"/>
          <line id="Line_20" data-name="Line 20" x1="8.746" y2="4.725" transform="translate(129.658 47.758)" fill="#fff" stroke="#263238" stroke-linecap="round" stroke-miterlimit="10" stroke-width="2"/>
          <line id="Line_21" data-name="Line 21" x1="8.746" y2="4.725" transform="translate(21.283 106.322)" fill="#fff" stroke="#263238" stroke-linecap="round" stroke-miterlimit="10" stroke-width="2"/>
          <line id="Line_22" data-name="Line 22" x1="8.466" y1="5.22" transform="translate(128.057 109.093)" fill="#fff" stroke="#263238" stroke-linecap="round" stroke-miterlimit="10" stroke-width="2"/>
          <line id="Line_23" data-name="Line 23" x1="8.466" y1="5.213" transform="translate(23.172 44.498)" fill="#fff" stroke="#263238" stroke-linecap="round" stroke-miterlimit="10" stroke-width="2"/>
          <line id="Line_24" data-name="Line 24" x1="4.725" y1="8.753" transform="translate(106.767 129.213)" fill="#fff" stroke="#263238" stroke-linecap="round" stroke-miterlimit="10" stroke-width="2"/>
          <line id="Line_25" data-name="Line 25" x1="4.725" y1="8.746" transform="translate(48.203 20.845)" fill="#fff" stroke="#263238" stroke-linecap="round" stroke-miterlimit="10" stroke-width="2"/>
        </g>
      </g>
    </g>
    <g id="Group_3234" data-name="Group 3234" transform="translate(4.012 -10.262)">
      <path id="Icon_ionic-ios-arrow-back" data-name="Icon ionic-ios-arrow-back" d="M15.217,17.7,23.926,9A1.645,1.645,0,1,0,21.6,6.674l-9.867,9.86a1.642,1.642,0,0,0-.048,2.268l9.908,9.929a1.645,1.645,0,0,0,2.33-2.323Z" transform="translate(362.579 30.069)" fill="#fff"/>
      <path id="Icon_ionic-ios-arrow-back-2" data-name="Icon ionic-ios-arrow-back" d="M3.967,11.506l8.709-8.7A1.645,1.645,0,1,0,10.346.481L.479,10.341a1.642,1.642,0,0,0-.048,2.268l9.908,9.929a1.645,1.645,0,1,0,2.33-2.323Z" transform="translate(377.472 59.28) rotate(180)" fill="#fff"/>
    </g>
    <text id="Session_3_De-addiction_stage" data-name="Session 3
De-addiction stage" transform="translate(21 26)" fill="#fff" font-size="16" font-family="ArialMT, Arial"><tspan x="0" y="14">Session 3</tspan><tspan font-size="24" font-family="Arial-BoldMT, Arial" font-weight="700"><tspan x="0" y="49">De-addiction stage</tspan></tspan></text>
    <g id="Component_119_307" data-name="Component 119 – 307" transform="translate(0 779.278)">
      <rect id="Rectangle_1927" data-name="Rectangle 1927" width="412" height="67" transform="translate(0 0.722)" fill="#102646"/>
      <path id="Path_4714" data-name="Path 4714" d="M1053,4508.186h411.151" transform="translate(-1053 -4508.186)" fill="none" stroke="#fff" stroke-width="2" opacity="0.206"/>
      <g id="Group_3096" data-name="Group 3096" transform="translate(-3 -997.186)">
        <text id="Next" transform="translate(318 1038)" fill="#f2f5f7" font-size="18" font-family="ArialMT, Arial"><tspan x="0" y="0">Next</tspan></text>
        <path id="Icon_ionic-ios-arrow-back-3" data-name="Icon ionic-ios-arrow-back" d="M14.033,14.264l6.109-6.1a1.154,1.154,0,0,0-1.634-1.629l-6.921,6.916a1.152,1.152,0,0,0-.034,1.591L18.5,22a1.154,1.154,0,1,0,1.634-1.629Z" transform="translate(389.251 1046.266) rotate(180)" fill="#f2f5f7"/>
      </g>
      <g id="Group_3224" data-name="Group 3224" transform="translate(2.529 7.076)">
        <g id="Group_3212" data-name="Group 3212" transform="translate(34.47 14.737)">
          <text id="Back" transform="translate(19.06 18)" fill="#fff" font-size="18" font-family="ArialMT, Arial"><tspan x="0" y="0">Back</tspan></text>
          <path id="Icon_ionic-ios-arrow-back-4" data-name="Icon ionic-ios-arrow-back" d="M14.033,14.264l6.109-6.1a1.154,1.154,0,0,0-1.634-1.629l-6.921,6.916a1.152,1.152,0,0,0-.034,1.591L18.5,22a1.154,1.154,0,1,0,1.634-1.629Z" transform="translate(-11.251 -3.193)" fill="#fff"/>
        </g>
      </g>
    </g>
  </g>
</svg>
