<svg xmlns="http://www.w3.org/2000/svg" xmlns:xlink="http://www.w3.org/1999/xlink" width="412" height="847" viewBox="0 0 412 847">
  <defs>
    <linearGradient id="linear-gradient" x1="0.5" x2="0.5" y2="1" gradientUnits="objectBoundingBox">
      <stop offset="0" stop-color="#37aadd"/>
      <stop offset="1" stop-color="#1f64cc"/>
    </linearGradient>
    <filter id="Rectangle_1534" x="-9" y="775" width="430" height="78" filterUnits="userSpaceOnUse">
      <feOffset dy="-3" input="SourceAlpha"/>
      <feGaussianBlur stdDeviation="3" result="blur"/>
      <feFlood flood-opacity="0.059"/>
      <feComposite operator="in" in2="blur"/>
      <feComposite in="SourceGraphic"/>
    </filter>
    <clipPath id="clip-CBT_S8_">
      <rect width="412" height="847"/>
    </clipPath>
  </defs>
  <g id="CBT_S8_" data-name="CBT /  S8 " clip-path="url(#clip-CBT_S8_)">
    <rect width="412" height="847" fill="url(#linear-gradient)"/>
    <text id="Exercise" transform="translate(21 118)" fill="#fff" font-size="18" font-family="Arial-BoldMT, Arial" font-weight="700"><tspan x="0" y="16">Exercise</tspan></text>
    <g id="Component_119_111" data-name="Component 119 – 111" transform="translate(0 787)">
      <g transform="matrix(1, 0, 0, 1, 0, -787)" filter="url(#Rectangle_1534)">
        <rect id="Rectangle_1534-2" data-name="Rectangle 1534" width="412" height="60" transform="translate(0 787)" fill="#102646"/>
      </g>
      <g id="Group_2755" data-name="Group 2755" transform="translate(0 -779)">
        <g id="Rectangle_1564" data-name="Rectangle 1564" transform="translate(12 789)" fill="#fff" stroke="#707070" stroke-width="1" opacity="0">
          <rect width="50" height="45" stroke="none"/>
          <rect x="0.5" y="0.5" width="49" height="44" fill="none"/>
        </g>
        <path id="Path_4565" data-name="Path 4565" d="M35.606,24.011l-7.368-7.1,7.368-7.1a1.37,1.37,0,0,0,.424-.982,1.4,1.4,0,0,0-.4-1,1.369,1.369,0,0,0-.982-.424h-.022a1.385,1.385,0,0,0-.982.4l-8.417,8.1a1.42,1.42,0,0,0-.424,1,1.382,1.382,0,0,0,.424,1l8.439,8.1a1.443,1.443,0,0,0,.982.4,1.42,1.42,0,0,0,1-.424,1.4,1.4,0,0,0,.4-1A1.274,1.274,0,0,0,35.606,24.011Z" transform="translate(5.036 792.435)" fill="#fff"/>
      </g>
    </g>
    <text id="Session_8_Positive_Self_Affirmation" data-name="Session 8
Positive Self Affirmation" transform="translate(22 26)" fill="#fff" font-size="16" font-family="ArialMT, Arial"><tspan x="0" y="14">Session 8</tspan><tspan font-size="24" font-family="Arial-BoldMT, Arial" font-weight="700"><tspan x="0" y="49">Positive Self Affirmation</tspan></tspan></text>
    <g id="Group_3370" data-name="Group 3370" transform="translate(-6 -318)">
      <rect id="Rectangle_1841" data-name="Rectangle 1841" width="367" height="162" rx="15" transform="translate(27 478)" fill="#102646"/>
      <g id="Group_3368" data-name="Group 3368" transform="translate(54 505)">
        <circle id="Ellipse_616" data-name="Ellipse 616" cx="23.5" cy="23.5" r="23.5" fill="#edf4fd"/>
        <g id="_017-confusion" data-name="017-confusion" transform="translate(10 7)">
          <g id="Group_3228" data-name="Group 3228" transform="translate(0 0)">
            <path id="Path_6415" data-name="Path 6415" d="M145.2,255.147a.617.617,0,1,0,.617.617.617.617,0,0,0-.617-.617Z" transform="translate(-139.736 -239.403)" fill="#1e64cc"/>
            <path id="Path_6416" data-name="Path 6416" d="M89.443,5.478a5.363,5.363,0,0,0-1.666-3.913A5.7,5.7,0,0,0,83.812,0a5.759,5.759,0,0,0-5.621,4.463,10.6,10.6,0,0,0-6.918,3.124,10.381,10.381,0,0,0-3.059,7.361A7.06,7.06,0,0,1,66.687,18.1a2.435,2.435,0,0,0-.5,2.623c.278.541.965,1.175,2.649,1.3v2.7a3.33,3.33,0,0,0,3.341,3.312c1.611,0,2.5.06,2.875.386s.487,1.126.583,2.6a.617.617,0,0,0,.616.577H85.1a.617.617,0,0,0,.616-.657c-.078-1.193-.111-2.073-.105-2.851A.617.617,0,0,0,85,27.463h0a.617.617,0,0,0-.617.613c0,.657.017,1.378.068,2.282H76.828c-.107-1.343-.289-2.289-.966-2.874-.741-.64-1.886-.687-3.682-.687a2.1,2.1,0,0,1-2.107-2.078v-.827a3.347,3.347,0,0,1,1.543.534.617.617,0,1,0,.617-1.069,4.459,4.459,0,0,0-2.16-.7V21.425a.617.617,0,0,0-.617-.617c-1.148,0-1.959-.243-2.168-.651-.148-.289,0-.777.4-1.34.8-1.117,1.757-2.695,1.757-3.869a9.363,9.363,0,0,1,8.57-9.235c0,.085-.005.17-.005.255a1.851,1.851,0,0,0,3.695.16,9.467,9.467,0,0,1,3.059,1.659c-.235.349-.482.682-.7.982l-.179.243a7.438,7.438,0,0,0-1.921,5.18,1.851,1.851,0,0,0,3.7,0,4.32,4.32,0,0,1,1.2-2.994l.063-.086.261-.355a9.115,9.115,0,0,1-.353,9.008,18.67,18.67,0,0,0-1.387,2.649.617.617,0,1,0,1.139.475,17.454,17.454,0,0,1,1.3-2.474,10.355,10.355,0,0,0,.09-10.784,7.613,7.613,0,0,0,1.47-4.153Zm-7.507-.571a2.014,2.014,0,0,1,1.877-1.2A1.8,1.8,0,0,1,85.74,5.478,2.956,2.956,0,0,1,85.4,6.713,10.7,10.7,0,0,0,81.935,4.906Zm3.933,5.561a5.458,5.458,0,0,0-1.439,3.725.617.617,0,1,1-1.234,0,6.229,6.229,0,0,1,1.682-4.45l.176-.239c.811-1.094,1.921-2.593,1.921-4.026a3.021,3.021,0,0,0-3.162-3.009,3.344,3.344,0,0,0-3.332,3.5.617.617,0,0,1-1.234,0,4.6,4.6,0,0,1,4.566-4.734,4.276,4.276,0,0,1,4.4,4.244c0,1.806-1.158,3.381-2.277,4.9Z" transform="translate(-65.994 0)" fill="#1e64cc"/>
            <path id="Path_6417" data-name="Path 6417" d="M328.457,271.852a1.851,1.851,0,1,0-1.851,1.851A1.853,1.853,0,0,0,328.457,271.852Zm-1.851.617a.617.617,0,1,1,.617-.617A.618.618,0,0,1,326.606,272.469Z" transform="translate(-308.788 -253.341)" fill="#1e64cc"/>
            <path id="Path_6418" data-name="Path 6418" d="M368.3,401.473a.617.617,0,0,0,0-1.234h0a.617.617,0,0,0,0,1.234Z" transform="translate(-349.067 -375.542)" fill="#1e64cc"/>
          </g>
        </g>
        <path id="Path_6423" data-name="Path 6423" d="M55.835,578.614a3.589,3.589,0,0,1,3.639-4.011,3.8,3.8,0,0,1,3.916,5.49c-1.109,1.656-3.771,4.219-3.52,6.964" transform="translate(-32 -565.745)" fill="none" stroke="#ff7600" stroke-linecap="round" stroke-width="2"/>
      </g>
      <g id="Group_3369" data-name="Group 3369" transform="translate(55 529)">
        <text id="Exercise_Type_-_Severity_meter" data-name="Exercise Type - Severity meter" transform="translate(70 40)" fill="#fff" font-size="14" font-family="ArialMT, Arial"><tspan x="0" y="13">Exercise Type - Severity meter</tspan></text>
        <text id="Why_-_Helps_to_find_your_obsession" data-name="Why - Helps to find your obsession" transform="translate(70 70)" fill="#fff" font-size="14" font-family="ArialMT, Arial"><tspan x="0" y="13">Why - Helps to find your obsession</tspan></text>
      </g>
      <text id="Find_What_you_can_control" data-name="Find What you can control" transform="translate(125 505)" fill="#fff" font-size="18" font-family="Arial-BoldMT, Arial" font-weight="700"><tspan x="0" y="16">Find What you can control</tspan></text>
    </g>
    <g id="Group_3689" data-name="Group 3689" transform="translate(-6 -140)">
      <rect id="Rectangle_1841-2" data-name="Rectangle 1841" width="367" height="162" rx="15" transform="translate(27 478)" fill="#102646"/>
      <g id="Group_3368-2" data-name="Group 3368" transform="translate(54 505)">
        <circle id="Ellipse_616-2" data-name="Ellipse 616" cx="23.5" cy="23.5" r="23.5" fill="#edf4fd"/>
        <g id="_017-confusion-2" data-name="017-confusion" transform="translate(10 7)">
          <g id="Group_3228-2" data-name="Group 3228" transform="translate(0 0)">
            <path id="Path_6415-2" data-name="Path 6415" d="M145.2,255.147a.617.617,0,1,0,.617.617.617.617,0,0,0-.617-.617Z" transform="translate(-139.736 -239.403)" fill="#1e64cc"/>
            <path id="Path_6416-2" data-name="Path 6416" d="M89.443,5.478a5.363,5.363,0,0,0-1.666-3.913A5.7,5.7,0,0,0,83.812,0a5.759,5.759,0,0,0-5.621,4.463,10.6,10.6,0,0,0-6.918,3.124,10.381,10.381,0,0,0-3.059,7.361A7.06,7.06,0,0,1,66.687,18.1a2.435,2.435,0,0,0-.5,2.623c.278.541.965,1.175,2.649,1.3v2.7a3.33,3.33,0,0,0,3.341,3.312c1.611,0,2.5.06,2.875.386s.487,1.126.583,2.6a.617.617,0,0,0,.616.577H85.1a.617.617,0,0,0,.616-.657c-.078-1.193-.111-2.073-.105-2.851A.617.617,0,0,0,85,27.463h0a.617.617,0,0,0-.617.613c0,.657.017,1.378.068,2.282H76.828c-.107-1.343-.289-2.289-.966-2.874-.741-.64-1.886-.687-3.682-.687a2.1,2.1,0,0,1-2.107-2.078v-.827a3.347,3.347,0,0,1,1.543.534.617.617,0,1,0,.617-1.069,4.459,4.459,0,0,0-2.16-.7V21.425a.617.617,0,0,0-.617-.617c-1.148,0-1.959-.243-2.168-.651-.148-.289,0-.777.4-1.34.8-1.117,1.757-2.695,1.757-3.869a9.363,9.363,0,0,1,8.57-9.235c0,.085-.005.17-.005.255a1.851,1.851,0,0,0,3.695.16,9.467,9.467,0,0,1,3.059,1.659c-.235.349-.482.682-.7.982l-.179.243a7.438,7.438,0,0,0-1.921,5.18,1.851,1.851,0,0,0,3.7,0,4.32,4.32,0,0,1,1.2-2.994l.063-.086.261-.355a9.115,9.115,0,0,1-.353,9.008,18.67,18.67,0,0,0-1.387,2.649.617.617,0,1,0,1.139.475,17.454,17.454,0,0,1,1.3-2.474,10.355,10.355,0,0,0,.09-10.784,7.613,7.613,0,0,0,1.47-4.153Zm-7.507-.571a2.014,2.014,0,0,1,1.877-1.2A1.8,1.8,0,0,1,85.74,5.478,2.956,2.956,0,0,1,85.4,6.713,10.7,10.7,0,0,0,81.935,4.906Zm3.933,5.561a5.458,5.458,0,0,0-1.439,3.725.617.617,0,1,1-1.234,0,6.229,6.229,0,0,1,1.682-4.45l.176-.239c.811-1.094,1.921-2.593,1.921-4.026a3.021,3.021,0,0,0-3.162-3.009,3.344,3.344,0,0,0-3.332,3.5.617.617,0,0,1-1.234,0,4.6,4.6,0,0,1,4.566-4.734,4.276,4.276,0,0,1,4.4,4.244c0,1.806-1.158,3.381-2.277,4.9Z" transform="translate(-65.994 0)" fill="#1e64cc"/>
            <path id="Path_6417-2" data-name="Path 6417" d="M328.457,271.852a1.851,1.851,0,1,0-1.851,1.851A1.853,1.853,0,0,0,328.457,271.852Zm-1.851.617a.617.617,0,1,1,.617-.617A.618.618,0,0,1,326.606,272.469Z" transform="translate(-308.788 -253.341)" fill="#1e64cc"/>
            <path id="Path_6418-2" data-name="Path 6418" d="M368.3,401.473a.617.617,0,0,0,0-1.234h0a.617.617,0,0,0,0,1.234Z" transform="translate(-349.067 -375.542)" fill="#1e64cc"/>
          </g>
        </g>
        <path id="Path_6423-2" data-name="Path 6423" d="M55.835,578.614a3.589,3.589,0,0,1,3.639-4.011,3.8,3.8,0,0,1,3.916,5.49c-1.109,1.656-3.771,4.219-3.52,6.964" transform="translate(-32 -565.745)" fill="none" stroke="#ff7600" stroke-linecap="round" stroke-width="2"/>
      </g>
      <g id="Group_3369-2" data-name="Group 3369" transform="translate(55 529)">
        <text id="Exercise_Type_-_Severity_meter-2" data-name="Exercise Type - Severity meter" transform="translate(70 40)" fill="#fff" font-size="14" font-family="ArialMT, Arial"><tspan x="0" y="13">Exercise Type - Severity meter</tspan></text>
        <text id="Why_-_Helps_to_find_your_obsession-2" data-name="Why - Helps to find your obsession" transform="translate(70 70)" fill="#fff" font-size="14" font-family="ArialMT, Arial"><tspan x="0" y="13">Why - Helps to find your obsession</tspan></text>
      </g>
      <text id="Self_Comparison" data-name="Self Comparison" transform="translate(125 505)" fill="#fff" font-size="18" font-family="Arial-BoldMT, Arial" font-weight="700"><tspan x="0" y="16">Self Comparison</tspan></text>
    </g>
  </g>
</svg>
