<svg xmlns="http://www.w3.org/2000/svg" xmlns:xlink="http://www.w3.org/1999/xlink" width="412" height="847" viewBox="0 0 412 847">
  <defs>
    <clipPath id="clip-CBT_S8_E1_5">
      <rect width="412" height="847"/>
    </clipPath>
  </defs>
  <g id="CBT_S8_E1_5" data-name="CBT /  S8 / E1 –5" clip-path="url(#clip-CBT_S8_E1_5)">
    <rect width="412" height="847" fill="#102646"/>
    <text id="Release_your_hold_on_reality" data-name="Release your hold on reality" transform="translate(35 101)" fill="#fff" font-size="24" font-family="Arial-BoldMT, Arial" font-weight="700"><tspan x="6.951" y="22">Release your hold on reality</tspan></text>
    <g id="Dreamer-rafiki" transform="translate(17.583 146.282)">
      <g id="freepik--background-complete--inject-138" transform="translate(0 55)">
        <rect id="Rectangle_2000" data-name="Rectangle 2000" width="376.833" height="0.188" transform="translate(0 246.75)" fill="#ebebeb"/>
        <rect id="Rectangle_2001" data-name="Rectangle 2001" width="24.961" height="0.188" transform="translate(314.113 258.877)" fill="#ebebeb"/>
        <rect id="Rectangle_2002" data-name="Rectangle 2002" width="6.549" height="0.188" transform="translate(243.08 260.927)" fill="#ebebeb"/>
        <rect id="Rectangle_2003" data-name="Rectangle 2003" width="14.463" height="0.188" transform="translate(298.897 251.883)" fill="#ebebeb"/>
        <rect id="Rectangle_2004" data-name="Rectangle 2004" width="32.551" height="0.188" transform="translate(39.537 253.149)" fill="#ebebeb"/>
        <rect id="Rectangle_2005" data-name="Rectangle 2005" width="4.771" height="0.188" transform="translate(78.803 253.149)" fill="#ebebeb"/>
        <rect id="Rectangle_2006" data-name="Rectangle 2006" width="70.604" height="0.188" transform="translate(99.085 256.33)" fill="#ebebeb"/>
        <path id="Path_8757" data-name="Path 8757" d="M188.031,268.137H42.506a4.3,4.3,0,0,1-4.3-4.3V59.266A4.3,4.3,0,0,1,42.506,55H188.031a4.3,4.3,0,0,1,4.3,4.3v204.53A4.3,4.3,0,0,1,188.031,268.137ZM42.506,55.151A4.115,4.115,0,0,0,38.4,59.266V263.833a4.115,4.115,0,0,0,4.107,4.115H188.031a4.123,4.123,0,0,0,4.115-4.115V59.266a4.123,4.123,0,0,0-4.115-4.115Z" transform="translate(-9.412 -55)" fill="#ebebeb"/>
        <path id="Path_8758" data-name="Path 8758" d="M404.336,268.137H258.8a4.311,4.311,0,0,1-4.3-4.3V59.266A4.311,4.311,0,0,1,258.8,55H404.336a4.3,4.3,0,0,1,4.288,4.266V263.833A4.3,4.3,0,0,1,404.336,268.137ZM258.8,55.151a4.123,4.123,0,0,0-4.115,4.115V263.833a4.123,4.123,0,0,0,4.115,4.115H404.336a4.123,4.123,0,0,0,4.115-4.115V59.266a4.123,4.123,0,0,0-4.115-4.115Z" transform="translate(-62.692 -55)" fill="#ebebeb"/>
        <rect id="Rectangle_2007" data-name="Rectangle 2007" width="132.864" height="168.241" transform="translate(334.96 247.188) rotate(180)" fill="#f0f0f0"/>
        <rect id="Rectangle_2008" data-name="Rectangle 2008" width="123.473" height="35.98" transform="translate(330.264 121.046) rotate(180)" fill="#e0e0e0"/>
        <rect id="Rectangle_2009" data-name="Rectangle 2009" width="7.017" height="30.154" transform="translate(330.264 121.046) rotate(180)" fill="#ebebeb"/>
        <rect id="Rectangle_2010" data-name="Rectangle 2010" width="7.017" height="30.154" transform="translate(296.349 121.046) rotate(180)" fill="#ebebeb"/>
        <rect id="Rectangle_2011" data-name="Rectangle 2011" width="7.048" height="30.29" transform="translate(251.523 120.415) rotate(-170.256)" fill="#ebebeb"/>
        <rect id="Rectangle_2012" data-name="Rectangle 2012" width="7.017" height="26.182" transform="translate(321.574 121.046) rotate(180)" fill="#ebebeb"/>
        <rect id="Rectangle_2013" data-name="Rectangle 2013" width="7.017" height="26.182" transform="translate(305.454 121.046) rotate(180)" fill="#ebebeb"/>
        <rect id="Rectangle_2014" data-name="Rectangle 2014" width="7.017" height="26.182" transform="translate(264.756 121.046) rotate(180)" fill="#ebebeb"/>
        <rect id="Rectangle_2015" data-name="Rectangle 2015" width="7.017" height="26.182" transform="translate(281.301 121.039) rotate(-167.47)" fill="#ebebeb"/>
        <rect id="Rectangle_2016" data-name="Rectangle 2016" width="3.505" height="31.646" transform="translate(312.003 121.054) rotate(180)" fill="#ebebeb"/>
        <rect id="Rectangle_2017" data-name="Rectangle 2017" width="3.505" height="31.646" transform="translate(270.28 121.054) rotate(180)" fill="#ebebeb"/>
        <rect id="Rectangle_2018" data-name="Rectangle 2018" width="123.473" height="35.98" transform="translate(206.791 126.744)" fill="#e0e0e0"/>
        <rect id="Rectangle_2019" data-name="Rectangle 2019" width="7.017" height="30.154" transform="translate(206.791 132.57)" fill="#ebebeb"/>
        <rect id="Rectangle_2020" data-name="Rectangle 2020" width="7.017" height="30.154" transform="translate(240.706 132.57)" fill="#ebebeb"/>
        <rect id="Rectangle_2021" data-name="Rectangle 2021" width="7.017" height="30.154" transform="matrix(0.985, -0.17, 0.17, 0.985, 279.313, 133.002)" fill="#ebebeb"/>
        <rect id="Rectangle_2022" data-name="Rectangle 2022" width="7.017" height="26.182" transform="translate(215.481 136.542)" fill="#ebebeb"/>
        <rect id="Rectangle_2023" data-name="Rectangle 2023" width="7.017" height="26.182" transform="translate(231.602 136.542)" fill="#ebebeb"/>
        <rect id="Rectangle_2024" data-name="Rectangle 2024" width="7.017" height="26.182" transform="translate(272.3 136.542)" fill="#ebebeb"/>
        <rect id="Rectangle_2025" data-name="Rectangle 2025" width="7.017" height="26.182" transform="translate(250.088 137.157) rotate(-12.53)" fill="#ebebeb"/>
        <rect id="Rectangle_2026" data-name="Rectangle 2026" width="3.505" height="31.646" transform="translate(225.052 131.07)" fill="#ebebeb"/>
        <rect id="Rectangle_2027" data-name="Rectangle 2027" width="3.505" height="31.646" transform="translate(266.775 131.07)" fill="#ebebeb"/>
        <rect id="Rectangle_2028" data-name="Rectangle 2028" width="7.017" height="30.154" transform="translate(330.264 162.724) rotate(180)" fill="#ebebeb"/>
        <rect id="Rectangle_2029" data-name="Rectangle 2029" width="7.017" height="26.182" transform="translate(321.574 162.724) rotate(180)" fill="#ebebeb"/>
        <rect id="Rectangle_2030" data-name="Rectangle 2030" width="7.017" height="26.182" transform="translate(305.454 162.724) rotate(180)" fill="#ebebeb"/>
        <rect id="Rectangle_2031" data-name="Rectangle 2031" width="3.505" height="31.646" transform="translate(312.003 162.724) rotate(180)" fill="#ebebeb"/>
        <rect id="Rectangle_2032" data-name="Rectangle 2032" width="123.473" height="35.98" transform="translate(330.264 204.394) rotate(180)" fill="#e0e0e0"/>
        <rect id="Rectangle_2033" data-name="Rectangle 2033" width="7.017" height="30.154" transform="translate(259.397 204.394) rotate(180)" fill="#ebebeb"/>
        <rect id="Rectangle_2034" data-name="Rectangle 2034" width="7.017" height="30.154" transform="matrix(-0.985, -0.17, 0.17, -0.985, 215.681, 204.389)" fill="#ebebeb"/>
        <rect id="Rectangle_2035" data-name="Rectangle 2035" width="7.017" height="26.182" transform="translate(284.622 204.394) rotate(180)" fill="#ebebeb"/>
        <rect id="Rectangle_2036" data-name="Rectangle 2036" width="7.017" height="26.182" transform="translate(268.494 204.394) rotate(180)" fill="#ebebeb"/>
        <rect id="Rectangle_2037" data-name="Rectangle 2037" width="7.017" height="26.182" transform="translate(227.803 204.394) rotate(180)" fill="#ebebeb"/>
        <rect id="Rectangle_2038" data-name="Rectangle 2038" width="7.017" height="26.182" transform="translate(244.352 204.388) rotate(-167.47)" fill="#ebebeb"/>
        <rect id="Rectangle_2039" data-name="Rectangle 2039" width="3.505" height="31.646" transform="translate(275.051 204.394) rotate(180)" fill="#ebebeb"/>
        <rect id="Rectangle_2040" data-name="Rectangle 2040" width="3.505" height="31.646" transform="translate(233.328 204.394) rotate(180)" fill="#ebebeb"/>
        <rect id="Rectangle_2041" data-name="Rectangle 2041" width="7.017" height="30.154" transform="matrix(-0.985, -0.17, 0.17, -0.985, 296.365, 204.383)" fill="#ebebeb"/>
        <rect id="Rectangle_2042" data-name="Rectangle 2042" width="7.017" height="26.182" transform="translate(308.498 204.394) rotate(180)" fill="#ebebeb"/>
        <rect id="Rectangle_2043" data-name="Rectangle 2043" width="7.017" height="26.182" transform="translate(325.04 204.389) rotate(-167.47)" fill="#ebebeb"/>
        <rect id="Rectangle_2044" data-name="Rectangle 2044" width="3.505" height="31.646" transform="translate(314.023 204.394) rotate(180)" fill="#ebebeb"/>
        <rect id="Rectangle_2045" data-name="Rectangle 2045" width="84.878" height="93.922" transform="translate(41.723 30.32)" fill="#e9e9e9"/>
        <rect id="Rectangle_2046" data-name="Rectangle 2046" width="77.628" height="86.672" transform="translate(45.454 34.036)" fill="#f4f4f4"/>
        <path id="Path_8759" data-name="Path 8759" d="M82.249,100.16,60.31,182.325V137.843L70.349,100.16Z" transform="translate(-14.856 -66.124)" fill="#fff"/>
        <path id="Path_8760" data-name="Path 8760" d="M93.441,100.16,70.3,186.832H65.94L89.078,100.16Z" transform="translate(-16.243 -66.124)" fill="#fff"/>
        <path id="Path_8761" data-name="Path 8761" d="M157.814,131.52v44.489L152.9,194.557H141Z" transform="translate(-34.733 -73.849)" fill="#fff"/>
        <rect id="Rectangle_2047" data-name="Rectangle 2047" width="3.015" height="93.922" transform="translate(82.647 30.32)" fill="#e9e9e9"/>
        <rect id="Rectangle_2048" data-name="Rectangle 2048" width="81.773" height="3.015" transform="translate(43.193 49.373)" fill="#e9e9e9"/>
      </g>
      <g id="freepik--Lamp--inject-138" transform="translate(33.742 194.421)">
        <path id="Path_8762" data-name="Path 8762" d="M88.769,321.1H66.31a2.615,2.615,0,0,1,1.937-2.525l7.785-2.088V273.24h3.015v43.245l7.778,2.088a2.608,2.608,0,0,1,1.944,2.525Z" transform="translate(-50.076 -248.181)" fill="#263238"/>
        <path id="Path_8763" data-name="Path 8763" d="M96.892,278.924H50.3l3.768-38.934H93.116Z" transform="translate(-46.132 -239.99)" fill="#1e64cc"/>
        <g id="Group_3662" data-name="Group 3662" transform="translate(4.168)" opacity="0.4" style="isolation: isolate">
          <path id="Path_8764" data-name="Path 8764" d="M96.892,278.924H50.3l3.768-38.934H93.116Z" transform="translate(-50.3 -239.99)" fill="#fff"/>
        </g>
        <path id="Path_8765" data-name="Path 8765" d="M88.769,329.476H66.31a2.615,2.615,0,0,1,1.937-2.525l7.785-2.088V308.622l3.015-1.372v17.613l7.778,2.088a2.608,2.608,0,0,1,1.944,2.525Z" transform="translate(-50.076 -256.558)" fill="#fff" opacity="0.2"/>
        <path id="Path_8766" data-name="Path 8766" d="M111.76,414.964h-3.113l-1.507-9.1h4.62Z" transform="translate(-60.134 -280.849)" fill="#263238"/>
        <path id="Path_8767" data-name="Path 8767" d="M49.14,414.964h3.113l1.507-9.1H49.14Z" transform="translate(-45.846 -280.849)" fill="#263238"/>
        <rect id="Rectangle_2049" data-name="Rectangle 2049" width="52.418" height="53.096" transform="translate(1.251 74.236)" fill="#1e64cc"/>
        <path id="Path_8768" data-name="Path 8768" d="M47.031,336.74H97.436A2.261,2.261,0,0,1,99.7,339h0a2.261,2.261,0,0,1-2.261,2.261H47.031A2.261,2.261,0,0,1,44.77,339h0a2.261,2.261,0,0,1,2.261-2.261Z" transform="translate(-44.77 -263.823)" fill="#1e64cc"/>
        <path id="Path_8769" data-name="Path 8769" d="M47.031,336.74H97.436A2.261,2.261,0,0,1,99.7,339h0a2.261,2.261,0,0,1-2.261,2.261H47.031A2.261,2.261,0,0,1,44.77,339h0a2.261,2.261,0,0,1,2.261-2.261Z" transform="translate(-44.77 -263.823)" fill="#fff" opacity="0.4" style="isolation: isolate"/>
        <rect id="Rectangle_2050" data-name="Rectangle 2050" width="45.966" height="12.006" transform="translate(4.477 80.846)" fill="#fff" opacity="0.4" style="isolation: isolate"/>
        <circle id="Ellipse_707" data-name="Ellipse 707" cx="1.568" cy="1.568" r="1.568" transform="translate(25.896 85.194)" opacity="0.2" style="isolation: isolate"/>
        <rect id="Rectangle_2051" data-name="Rectangle 2051" width="45.966" height="12.006" transform="translate(4.477 95.919)" fill="#fff" opacity="0.4" style="isolation: isolate"/>
        <circle id="Ellipse_708" data-name="Ellipse 708" cx="1.568" cy="1.568" r="1.568" transform="translate(25.896 100.268)" opacity="0.2" style="isolation: isolate"/>
        <rect id="Rectangle_2052" data-name="Rectangle 2052" width="45.966" height="12.006" transform="translate(4.477 110.993)" fill="#fff" opacity="0.4" style="isolation: isolate"/>
        <circle id="Ellipse_709" data-name="Ellipse 709" cx="1.568" cy="1.568" r="1.568" transform="translate(25.896 115.341)" opacity="0.2" style="isolation: isolate"/>
      </g>
      <g id="freepik--Sofa--inject-138" transform="translate(93.055 209.434)">
        <path id="Path_8770" data-name="Path 8770" d="M147.91,268.2v85.7H358.077V268.2a8.29,8.29,0,0,0-8.29-8.29h-193.6a8.29,8.29,0,0,0-8.275,8.29Z" transform="translate(-129.49 -259.91)" fill="#1e64cc"/>
        <path id="Path_8771" data-name="Path 8771" d="M147.91,268.2v85.7H358.077V268.2a8.29,8.29,0,0,0-8.29-8.29h-193.6a8.29,8.29,0,0,0-8.275,8.29Z" transform="translate(-129.49 -259.91)" fill="#fff" opacity="0.4" style="isolation: isolate"/>
        <rect id="Rectangle_2053" data-name="Rectangle 2053" width="199.812" height="28.082" transform="translate(223.409 116.291) rotate(180)" fill="#1e64cc"/>
        <rect id="Rectangle_2054" data-name="Rectangle 2054" width="199.812" height="28.082" transform="translate(223.409 116.291) rotate(180)" fill="#fff" opacity="0.4" style="isolation: isolate"/>
        <path id="Path_8772" data-name="Path 8772" d="M408.47,322.876V389.1a4.349,4.349,0,0,0,4.356,4.349h23.5a4.349,4.349,0,0,0,4.356-4.349V322.876a4.356,4.356,0,0,0-4.356-4.356h-23.5a4.356,4.356,0,0,0-4.356,4.356Z" transform="translate(-193.675 -274.348)" fill="#1e64cc"/>
        <path id="Path_8773" data-name="Path 8773" d="M123.47,322.876V389.1a4.349,4.349,0,0,0,4.356,4.349h23.5a4.349,4.349,0,0,0,4.356-4.349V322.876a4.356,4.356,0,0,0-4.356-4.356h-23.5a4.356,4.356,0,0,0-4.356,4.356Z" transform="translate(-123.47 -274.348)" fill="#1e64cc"/>
        <path id="Path_8774" data-name="Path 8774" d="M408.47,322.876V389.1a4.349,4.349,0,0,0,4.356,4.349h23.5a4.349,4.349,0,0,0,4.356-4.349V322.876a4.356,4.356,0,0,0-4.356-4.356h-23.5a4.356,4.356,0,0,0-4.356,4.356Z" transform="translate(-193.675 -274.348)" fill="#fff" opacity="0.5" style="isolation: isolate"/>
        <path id="Path_8775" data-name="Path 8775" d="M123.47,322.876V389.1a4.349,4.349,0,0,0,4.356,4.349h23.5a4.349,4.349,0,0,0,4.356-4.349V322.876a4.356,4.356,0,0,0-4.356-4.356h-23.5a4.356,4.356,0,0,0-4.356,4.356Z" transform="translate(-123.47 -274.348)" fill="#fff" opacity="0.5" style="isolation: isolate"/>
        <path id="Path_8776" data-name="Path 8776" d="M157.32,354.522v17.063a4.522,4.522,0,0,0,4.522,4.522H348.751a4.522,4.522,0,0,0,4.522-4.522V354.522A4.522,4.522,0,0,0,348.751,350H161.842a4.394,4.394,0,0,0-1.809.384,4.522,4.522,0,0,0-2.713,4.138Z" transform="translate(-131.808 -282.102)" fill="#1e64cc"/>
        <path id="Path_8777" data-name="Path 8777" d="M157.32,354.522v17.063a4.522,4.522,0,0,0,4.522,4.522H348.751a4.522,4.522,0,0,0,4.522-4.522V354.522A4.522,4.522,0,0,0,348.751,350H161.842a4.394,4.394,0,0,0-1.809.384,4.522,4.522,0,0,0-2.713,4.138Z" transform="translate(-131.808 -282.102)" fill="#fff" opacity="0.6" style="isolation: isolate"/>
      </g>
      <g id="freepik--Space--inject-138" transform="translate(81.04 70.975)">
        <path id="Path_8778" data-name="Path 8778" d="M223.293,78.03c-24.977-3.429-45.974-1.877-63.007,3.2-21.773,6.489-36.93,18.759-45.22,33.712a59.931,59.931,0,0,0-7.537,28.926c-.241,35.558,32.83,43.713,64.634,27.848,14.568-7.28,28.963-10.491,42.205-10.084,15.646.475,29.619,6.029,40.231,15.865,12.466,11.584,25.5,17.681,36.349,12.918,6.18-2.728,11.637-8.969,15.895-19.731C318.519,141.022,299.315,88.461,223.293,78.03Z" transform="translate(-107.528 -76.196)" fill="#263238"/>
        <path id="Path_8779" data-name="Path 8779" d="M241.975,151.652c9.391-12.594-5.05-33.244-40.11-45.378A115.794,115.794,0,0,1,162.75,82.91c-21.773,6.489-36.93,18.759-45.22,33.712a87.023,87.023,0,0,0,18.789,7.657c33.855,10.122,52.953,1.892,65.637,10.386S205.566,146.6,216,162.211c.249.362.512.754.754,1.1,15.646.475,29.619,6.029,40.231,15.865,12.466,11.584,25.5,17.681,36.349,12.918C276.034,183.525,234.514,161.661,241.975,151.652Z" transform="translate(-109.992 -77.85)" fill="#fff" opacity="0.1" style="isolation: isolate"/>
        <path id="Path_8780" data-name="Path 8780" d="M341.836,181.15a1.982,1.982,0,1,0-.847,1.276,1.982,1.982,0,0,0,.847-1.276Z" transform="translate(-164.278 -101.469)" fill="#fff" opacity="0.2" style="isolation: isolate"/>
        <path id="Path_8781" data-name="Path 8781" d="M341.192,181.268a.987.987,0,1,0-1.168.754.987.987,0,0,0,1.168-.754Z" transform="translate(-164.607 -101.783)" fill="#fff" opacity="0.2" style="isolation: isolate"/>
        <path id="Path_8782" data-name="Path 8782" d="M130.777,169.112a1.982,1.982,0,1,0-2.336,1.545A1.982,1.982,0,0,0,130.777,169.112Z" transform="translate(-112.289 -98.498)" fill="#fff" opacity="0.2" style="isolation: isolate"/>
        <path id="Path_8783" data-name="Path 8783" d="M130.13,169.241a.98.98,0,1,0-.428.636A.989.989,0,0,0,130.13,169.241Z" transform="translate(-112.614 -98.823)" fill="#fff" opacity="0.2" style="isolation: isolate"/>
        <circle id="Ellipse_710" data-name="Ellipse 710" cx="1.982" cy="1.982" r="1.982" transform="translate(124.723 34.278) rotate(-64.74)" fill="#fff" opacity="0.2" style="isolation: isolate"/>
        <path id="Path_8784" data-name="Path 8784" d="M277.157,120.282a1,1,0,0,0-.754-1.168.979.979,0,1,0,.754,1.168Z" transform="translate(-148.837 -86.763)" fill="#fff" opacity="0.2" style="isolation: isolate"/>
        <path id="Path_8785" data-name="Path 8785" d="M194.034,103.085a1.975,1.975,0,1,0-2.329,1.507,1.975,1.975,0,0,0,2.329-1.507Z" transform="translate(-127.876 -82.228)" fill="#fff" opacity="0.2" style="isolation: isolate"/>
        <path id="Path_8786" data-name="Path 8786" d="M193.352,103.236a.995.995,0,1,0-.646.815A.995.995,0,0,0,193.352,103.236Z" transform="translate(-128.181 -82.582)" fill="#fff" opacity="0.2" style="isolation: isolate"/>
        <path id="Path_8787" data-name="Path 8787" d="M263.617,183.222a1.982,1.982,0,1,0-2.336,1.545,1.982,1.982,0,0,0,2.336-1.545Z" transform="translate(-145.011 -101.974)" fill="#fff" opacity="0.2" style="isolation: isolate"/>
        <path id="Path_8788" data-name="Path 8788" d="M262.97,183.293a.988.988,0,1,0-1.164.773.988.988,0,0,0,1.164-.773Z" transform="translate(-145.337 -102.286)" fill="#fff" opacity="0.2" style="isolation: isolate"/>
        <path id="Path_8789" data-name="Path 8789" d="M326.863,136.669a1.2,1.2,0,1,0-1.417.935A1.206,1.206,0,0,0,326.863,136.669Z" transform="translate(-160.973 -90.737)" fill="#fff" opacity="0.2" style="isolation: isolate"/>
        <path id="Path_8790" data-name="Path 8790" d="M326.47,136.762a.6.6,0,1,0-.708.467.6.6,0,0,0,.708-.467Z" transform="translate(-161.167 -90.936)" fill="#fff" opacity="0.2" style="isolation: isolate"/>
        <path id="Path_8791" data-name="Path 8791" d="M261.665,88.78a1.2,1.2,0,1,0-1.409.935,1.2,1.2,0,0,0,1.409-.935Z" transform="translate(-144.913 -78.941)" fill="#fff" opacity="0.2" style="isolation: isolate"/>
        <path id="Path_8792" data-name="Path 8792" d="M261.27,88.852a.6.6,0,1,0-.708.467.6.6,0,0,0,.708-.467Z" transform="translate(-145.106 -79.134)" fill="#fff" opacity="0.2" style="isolation: isolate"/>
        <path id="Path_8793" data-name="Path 8793" d="M146.064,132.53a1.2,1.2,0,1,0-.514.761A1.2,1.2,0,0,0,146.064,132.53Z" transform="translate(-116.436 -89.719)" fill="#fff" opacity="0.2" style="isolation: isolate"/>
        <path id="Path_8794" data-name="Path 8794" d="M145.67,132.612a.6.6,0,1,0-.708.467A.6.6,0,0,0,145.67,132.612Z" transform="translate(-116.63 -89.914)" fill="#fff" opacity="0.2" style="isolation: isolate"/>
        <path id="Path_8795" data-name="Path 8795" d="M311.644,187.96a1.2,1.2,0,1,0-1.413.938A1.2,1.2,0,0,0,311.644,187.96Z" transform="translate(-157.224 -103.373)" fill="#fff" opacity="0.2" style="isolation: isolate"/>
        <path id="Path_8796" data-name="Path 8796" d="M311.25,188.032a.6.6,0,1,0-.708.467.6.6,0,0,0,.708-.467Z" transform="translate(-157.418 -103.566)" fill="#fff" opacity="0.2" style="isolation: isolate"/>
        <path id="Path_8797" data-name="Path 8797" d="M160.474,199.44a1.2,1.2,0,1,0-1.413.938A1.2,1.2,0,0,0,160.474,199.44Z" transform="translate(-119.985 -106.201)" fill="#fff" opacity="0.2" style="isolation: isolate"/>
        <path id="Path_8798" data-name="Path 8798" d="M160.08,199.522a.6.6,0,1,0-.708.467.6.6,0,0,0,.708-.467Z" transform="translate(-120.18 -106.396)" fill="#fff" opacity="0.2" style="isolation: isolate"/>
        <path id="Path_8799" data-name="Path 8799" d="M174.113,214.68c-1.824-1.718-7.25-2.547-9.587,1.605s3.587,7.491,7.054,5.163S175.357,215.855,174.113,214.68Z" transform="translate(-121.438 -109.962)" fill="#263238"/>
        <path id="Path_8800" data-name="Path 8800" d="M178.332,225.51c-1.357-1.507-6.029-.716-3.2,2.585S180.027,227.424,178.332,225.51Z" transform="translate(-123.961 -112.796)" fill="#263238"/>
        <path id="Path_8801" data-name="Path 8801" d="M184.787,228.031c-.61-.686-2.721-.324-1.44,1.161S185.556,228.89,184.787,228.031Z" transform="translate(-126.105 -113.515)" fill="#263238"/>
        <path id="Path_8802" data-name="Path 8802" d="M174.113,214.68c-1.824-1.718-7.25-2.547-9.587,1.605s3.587,7.491,7.054,5.163S175.357,215.855,174.113,214.68Z" transform="translate(-121.438 -109.962)" fill="#fff" opacity="0.1" style="isolation: isolate"/>
        <path id="Path_8803" data-name="Path 8803" d="M178.332,225.51c-1.357-1.507-6.029-.716-3.2,2.585S180.027,227.424,178.332,225.51Z" transform="translate(-123.961 -112.796)" fill="#fff" opacity="0.2" style="isolation: isolate"/>
        <path id="Path_8804" data-name="Path 8804" d="M184.787,228.031c-.61-.686-2.721-.324-1.44,1.161S185.556,228.89,184.787,228.031Z" transform="translate(-126.105 -113.515)" fill="#fff" opacity="0.3" style="isolation: isolate"/>
        <path id="Path_8805" data-name="Path 8805" d="M323.689,161.455a11.614,11.614,0,0,1-2.645-4.793c-1.907-7.13,3.407-14.749,11.87-17.01s16.875,1.681,18.781,8.8a11.531,11.531,0,0,1,.106,5.479Z" transform="translate(-160.029 -91.67)" fill="#1e64cc"/>
        <path id="Path_8806" data-name="Path 8806" d="M323.689,161.455a11.614,11.614,0,0,1-2.645-4.793c-1.907-7.13,3.407-14.749,11.87-17.01s16.875,1.681,18.781,8.8a11.531,11.531,0,0,1,.106,5.479Z" transform="translate(-160.029 -91.67)" fill="#fff" opacity="0.4" style="isolation: isolate"/>
        <path id="Path_8807" data-name="Path 8807" d="M296.521,166.523a1.884,1.884,0,0,0,.633.957c3.354,3.015,18.585,1.907,36.093-2.773S364.5,153.364,365.9,149.083a1.884,1.884,0,0,0,.068-1.146c-1.108-4.13-17.545-3.324-36.726,1.809S295.421,162.408,296.521,166.523Z" transform="translate(-154.069 -93.218)" fill="#1e64cc"/>
        <path id="Path_8808" data-name="Path 8808" d="M297.38,168.166c3.354,3.015,18.585,1.907,36.093-2.773s31.255-11.343,32.656-15.623c-3.346-3.015-18.578-1.922-36.093,2.766S298.789,163.893,297.38,168.166Z" transform="translate(-154.295 -93.904)" opacity="0.2" style="isolation: isolate"/>
        <path id="Path_8809" data-name="Path 8809" d="M328.234,167.729a.754.754,0,0,0,.211.332c1.146,1.017,6.316.648,12.262-.942s10.619-3.851,11.094-5.276a.671.671,0,0,0,0-.384c-.128-.46-.822-.754-1.929-.844a34.5,34.5,0,0,0-10.551,1.47c-4.371,1.168-8.034,2.683-9.865,3.987C328.573,166.674,328.113,167.27,328.234,167.729Z" transform="translate(-161.891 -96.98)" fill="#1e64cc"/>
        <path id="Path_8810" data-name="Path 8810" d="M329.9,166.021c2.261.226,6.18-.286,10.551-1.455s8.034-2.691,9.865-4a34.5,34.5,0,0,0-10.551,1.47C335.394,163.2,331.731,164.718,329.9,166.021Z" transform="translate(-162.306 -96.967)" fill="#fff" opacity="0.4" style="isolation: isolate"/>
        <path id="Path_8811" data-name="Path 8811" d="M337.493,158.313c.188.686,1.507.942,2.887.565s2.4-1.244,2.208-1.929-1.47-.942-2.879-.565S337.312,157.627,337.493,158.313Z" transform="translate(-164.171 -95.906)" fill="#1e64cc"/>
        <path id="Path_8812" data-name="Path 8812" d="M319.773,164.835c.188.693,1.507.942,2.887.573s2.4-1.244,2.208-1.929-1.507-.942-2.879-.565S319.592,164.149,319.773,164.835Z" transform="translate(-159.806 -97.514)" fill="#1e64cc"/>
        <path id="Path_8813" data-name="Path 8813" d="M308.643,172.833c.181.686,1.507.942,2.879.565s2.4-1.244,2.216-1.929-1.507-.942-2.879-.565S308.462,172.139,308.643,172.833Z" transform="translate(-157.064 -99.482)" fill="#1e64cc"/>
        <path id="Path_8814" data-name="Path 8814" d="M360.63,153.168c.188.693-.806,1.553-2.208,1.929s-2.7.128-2.879-.565.806-1.553,2.208-1.929S360.449,152.483,360.63,153.168Z" transform="translate(-168.617 -94.975)" fill="#1e64cc"/>
        <path id="Path_8815" data-name="Path 8815" d="M374.267,154.536c.188.686-.806,1.553-2.208,1.922s-2.7.128-2.887-.565.806-1.553,2.216-1.929S374.086,153.843,374.267,154.536Z" transform="translate(-171.974 -95.31)" fill="#1e64cc"/>
        <path id="Path_8816" data-name="Path 8816" d="M330.969,144.159a.535.535,0,0,0,.136-.06,15.007,15.007,0,0,1,3.158-1.741.407.407,0,0,0-.3-.754,15.4,15.4,0,0,0-3.331,1.831.413.413,0,1,0,.339.754Z" transform="translate(-162.426 -92.303)" fill="#fff"/>
        <path id="Path_8817" data-name="Path 8817" d="M350.963,144.068a.415.415,0,0,0,.151-.708,14.893,14.893,0,0,0-12.669-2.969.415.415,0,0,0-.317.482.407.407,0,0,0,.482.317,14.094,14.094,0,0,1,11.983,2.8.415.415,0,0,0,.369.083Z" transform="translate(-164.331 -91.919)" fill="#fff"/>
        <path id="Path_8818" data-name="Path 8818" d="M125.717,110.4s-1.952-8.614-2.811-9.044-5.6,7.921-5.6,7.921-8.177-.49-8.916.09,5.381,6.783,5.381,6.783-4.236,7.966-3.768,8.637,10.355-3.354,10.355-3.354,6.677,6.353,7.469,6.218-1.123-9.986-1.123-9.986,7.793-3.881,7.68-4.628S125.717,110.4,125.717,110.4Z" transform="translate(-107.725 -82.389)" fill="#1e64cc"/>
        <path id="Path_8819" data-name="Path 8819" d="M136.3,113.2l-10.762.761L126.9,102.78l2.608,8.132Z" transform="translate(-111.965 -82.744)" fill="#fff" opacity="0.2" style="isolation: isolate"/>
        <path id="Path_8820" data-name="Path 8820" d="M110,112.586l11.727,3.7-3.987-3.851S110.618,111.832,110,112.586Z" transform="translate(-108.137 -85.067)" fill="#fff" opacity="0.2" style="isolation: isolate"/>
        <path id="Path_8821" data-name="Path 8821" d="M125.54,117.62l6.308,13.121-1.816-9.27Z" transform="translate(-111.965 -86.4)" fill="#fff" opacity="0.2" style="isolation: isolate"/>
        <path id="Path_8822" data-name="Path 8822" d="M121.689,118.36l-9.609,9.956,8.743-3.6Z" transform="translate(-108.649 -86.582)" opacity="0.2" style="isolation: isolate"/>
        <path id="Path_8823" data-name="Path 8823" d="M115.05,118.506l5.7-1.846L110,112.71A21.47,21.47,0,0,0,115.05,118.506Z" transform="translate(-108.137 -85.19)" opacity="0.2" style="isolation: isolate"/>
        <path id="Path_8824" data-name="Path 8824" d="M335.021,202.926s-.241-4.1-.6-4.371-3.173,3.2-3.173,3.2-3.716-.844-4.092-.641,1.944,3.535,1.944,3.535-2.547,3.324-2.4,3.67,5.019-.754,5.019-.754,2.578,3.422,2.947,3.414.249-4.65.249-4.65,3.866-1.183,3.866-1.507S335.021,202.926,335.021,202.926Z" transform="translate(-161.518 -106.333)" fill="#1e64cc"/>
        <path id="Path_8825" data-name="Path 8825" d="M339.719,204.694l-4.989-.467,1.47-5.027.58,3.927Z" transform="translate(-163.496 -106.496)" fill="#fff" opacity="0.2" style="isolation: isolate"/>
        <path id="Path_8826" data-name="Path 8826" d="M328,202.406,333.095,205l-1.507-2.073S328.324,202.082,328,202.406Z" transform="translate(-161.838 -107.267)" fill="#fff" opacity="0.2" style="isolation: isolate"/>
        <path id="Path_8827" data-name="Path 8827" d="M334.73,205.87l1.892,6.5-.128-4.394Z" transform="translate(-163.496 -108.139)" fill="#fff" opacity="0.2" style="isolation: isolate"/>
        <path id="Path_8828" data-name="Path 8828" d="M332.66,206.15l-5.17,3.836,4.281-.987Z" transform="translate(-161.712 -108.208)" opacity="0.2" style="isolation: isolate"/>
        <path id="Path_8829" data-name="Path 8829" d="M329.854,205.475l2.751-.415-4.6-2.63a10.2,10.2,0,0,0,1.854,3.045Z" transform="translate(-161.838 -107.291)" opacity="0.2" style="isolation: isolate"/>
        <circle id="Ellipse_711" data-name="Ellipse 711" cx="7.816" cy="7.816" r="7.816" transform="translate(27.97 79.566) rotate(-49.24)" fill="#1e64cc"/>
        <path id="Path_8830" data-name="Path 8830" d="M152.7,176.093a5.426,5.426,0,1,0,5.012-5.818A5.426,5.426,0,0,0,152.7,176.093Z" transform="translate(-118.651 -99.367)" fill="#fff" opacity="0.2" style="isolation: isolate"/>
      </g>
      <g id="freepik--character-2--inject-138" transform="translate(114.58 59.262)">
        <g id="freepik--group--inject-138" transform="translate(0 0)">
          <path id="Path_8831" data-name="Path 8831" d="M230.2,123.875l-2.969,3.949s4.748,16.136.678,24-32.9,2.261-32.9,2.261l.166-4.4s16.739-.693,18.337-4.356-2.155-15.51-2.155-15.51-13.905,5.336-23.462,4.929-24.4-16.415-24.4-16.415l3.015-3.384s20.688,7.537,23.055,6.655,22.052-13.792,26.944-13.747S230.2,123.875,230.2,123.875Z" transform="translate(-154.853 -72.283)" fill="#1e64cc"/>
          <path id="Path_8832" data-name="Path 8832" d="M163.47,118.3s14.855,16.038,24.4,16.415,23.477-4.9,23.477-4.9a74.821,74.821,0,0,1,2.186,8.954c.43,2.638.588,5.185,0,6.564-1.6,3.655-18.344,4.356-18.344,4.356l-.158,4.4s28.828,5.63,32.9-2.261-.678-24-.678-24l2.969-3.949s-8.682-15.744-13.566-16.038h-.121c-4.891-.045-24.577,12.85-26.936,13.747-1.8.686-14.109-3.489-19.965-5.555-1.877-.663-3.1-1.108-3.1-1.108Z" transform="translate(-154.849 -72.278)" fill="#fff" opacity="0.7" style="isolation: isolate"/>
          <path id="Path_8833" data-name="Path 8833" d="M227,136.919a73.959,73.959,0,0,1,2.178,8.954,62.992,62.992,0,0,0,5.441-9.2Z" transform="translate(-170.498 -79.38)" opacity="0.2" style="isolation: isolate"/>
          <path id="Path_8834" data-name="Path 8834" d="M231.26,108.182a6.671,6.671,0,0,1,1.914-.362h.151l2.1,3.135a29.779,29.779,0,0,0-3.248.844,29.582,29.582,0,0,0-.919-3.618Z" transform="translate(-171.547 -72.273)" opacity="0.2" style="isolation: isolate"/>
          <path id="Path_8835" data-name="Path 8835" d="M225.72,110.1a37.072,37.072,0,0,1,3.422-1.462,27.825,27.825,0,0,1,.882,3.618c-1.063.354-2.261.814-3.557,1.387C226.2,112.469,225.969,111.285,225.72,110.1Z" transform="translate(-170.183 -72.475)" opacity="0.2" style="isolation: isolate"/>
          <path id="Path_8836" data-name="Path 8836" d="M219.334,117.29c-.234-1.266-.5-2.532-.754-3.768,1.613-.882,3.2-1.718,4.665-2.442.249,1.176.482,2.359.754,3.535A31.138,31.138,0,0,0,219.334,117.29Z" transform="translate(-168.424 -73.076)" opacity="0.2" style="isolation: isolate"/>
          <path id="Path_8837" data-name="Path 8837" d="M207.856,119.807c1.07-.633,2.193-1.3,3.354-1.967.045,1.658.038,3.324.106,4.982-1.115.671-2.223,1.251-3.3,1.764a40.6,40.6,0,0,1-.158-4.778Z" transform="translate(-165.779 -74.741)" opacity="0.2" style="isolation: isolate"/>
          <path id="Path_8838" data-name="Path 8838" d="M203.226,126.474a14.447,14.447,0,0,0-.166-3.768l2.819-1.666c0,1.507.113,3.09.211,4.643-1.01.445-1.982.822-2.894,1.131C203.2,126.723,203.218,126.595,203.226,126.474Z" transform="translate(-164.601 -75.53)" opacity="0.2" style="isolation: isolate"/>
          <path id="Path_8839" data-name="Path 8839" d="M198.175,125.483c.535-.241,1.507-.814,2.849-1.583a14.192,14.192,0,0,1,.09,3.437l-.045.52a24.117,24.117,0,0,1-3.339.821C197.866,127.578,198.016,126.508,198.175,125.483Z" transform="translate(-163.288 -76.234)" opacity="0.2" style="isolation: isolate"/>
          <path id="Path_8840" data-name="Path 8840" d="M187.067,123.9c1.349.4,2.63.754,3.768,1.048a18.842,18.842,0,0,1-.754,2.932c-1.153-.407-2.48-.919-3.851-1.507C186.494,125.566,186.765,124.729,187.067,123.9Z" transform="translate(-160.455 -76.234)" opacity="0.2" style="isolation: isolate"/>
          <path id="Path_8841" data-name="Path 8841" d="M173.855,121.411c-1.877-.844-3.135-1.44-3.135-1.44l.641-1.281,3.248,1.131C174.368,120.356,174.119,120.883,173.855,121.411Z" transform="translate(-156.634 -74.951)" opacity="0.2" style="isolation: isolate"/>
          <path id="Path_8842" data-name="Path 8842" d="M176.624,120.53l2.766.927a14.952,14.952,0,0,0-1.146,1.809l-2.4-1.07C176.111,121.638,176.375,121.088,176.624,120.53Z" transform="translate(-157.896 -75.404)" opacity="0.2" style="isolation: isolate"/>
          <path id="Path_8843" data-name="Path 8843" d="M181.213,122.1c1.191.384,2.389.754,3.557,1.123-.286.806-.543,1.628-.822,2.434-1.319-.543-2.668-1.123-3.949-1.681A13.293,13.293,0,0,1,181.213,122.1Z" transform="translate(-158.92 -75.791)" opacity="0.2" style="isolation: isolate"/>
          <path id="Path_8844" data-name="Path 8844" d="M193.094,125.53a15.638,15.638,0,0,0,2.917.475c-.151,1.048-.294,2.1-.43,3.15h-.46a9.8,9.8,0,0,1-2.811-.648A20.747,20.747,0,0,0,193.094,125.53Z" transform="translate(-161.953 -76.636)" opacity="0.2" style="isolation: isolate"/>
          <path id="Path_8845" data-name="Path 8845" d="M213.34,116.644c1.063-.61,2.14-1.228,3.211-1.824q.43,1.952.791,3.927c-.234.181-.467.347-.7.535a33.154,33.154,0,0,1-3.2,2.314C213.385,119.945,213.4,118.294,213.34,116.644Z" transform="translate(-167.133 -73.997)" opacity="0.2" style="isolation: isolate"/>
          <path id="Path_8846" data-name="Path 8846" d="M169.342,117.01l-5.095,7.409-5.125-4.831s-4.582.6-6.173,2.042-.965-1.846.716-3.768,4.017-5.924,5.434-6.451,3.286,2.645,3.286,2.645Z" transform="translate(-152.031 -73.143)" fill="#1e64cc"/>
          <path id="Path_8847" data-name="Path 8847" d="M207.823,160.25l.656,8.969-7.024-.573s-3.2,3.331-3.542,5.457-1.907-.844-1.786-3.391-.565-7.13.211-8.426,4.221,0,4.221,0Z" transform="translate(-162.852 -85.188)" fill="#1e64cc"/>
          <path id="Path_8848" data-name="Path 8848" d="M281.394,99.81s6.406,7.461,13.513,7.416,12.616-6.9,12.616-6.9l2.8,2.472s-3.256,13.054-14.32,14.267S272.41,109,272.41,109Z" transform="translate(-181.684 -70.3)" fill="#1e64cc"/>
          <path id="Path_8849" data-name="Path 8849" d="M272.42,109a50.812,50.812,0,0,0,8.109,4.733c4.432,2.088,10.084,3.942,15.42,3.354,11.086-1.213,14.32-14.267,14.32-14.267l-2.743-2.48a21.917,21.917,0,0,1-8.072,5.969,12.466,12.466,0,0,1-4.522.919c-7.107.045-13.521-7.409-13.521-7.409l-1.349,1.372-3.912,3.994Z" transform="translate(-181.687 -70.302)" fill="#fff" opacity="0.7" style="isolation: isolate"/>
          <path id="Path_8850" data-name="Path 8850" d="M319.16,98.238s1.628-2.261,1.424-2.593-.754-1.7-.513-2.216.693-3.587,1.168-3.633,3.942.09,4.123.61a17.876,17.876,0,0,1-1.507,5.524,5.766,5.766,0,0,0-.754.9l-1.319,3.467Z" transform="translate(-193.2 -67.832)" fill="#1e64cc"/>
          <path id="Path_8851" data-name="Path 8851" d="M319.16,98.238s1.628-2.261,1.424-2.593-.754-1.7-.513-2.216.693-3.587,1.168-3.633,3.942.09,4.123.61a17.876,17.876,0,0,1-1.507,5.524,5.766,5.766,0,0,0-.754.9l-1.319,3.467Z" transform="translate(-193.2 -67.832)" opacity="0.2" style="isolation: isolate"/>
          <path id="Path_8852" data-name="Path 8852" d="M321.872,102.774l-3.52-2.924-1.613.821,4.665,3.7Z" transform="translate(-192.604 -70.31)" fill="#1e64cc"/>
          <path id="Path_8853" data-name="Path 8853" d="M285.441,104.593a14.216,14.216,0,0,1-1.251-1.3l.068-.143a7.121,7.121,0,0,1,1.191-1.726c.286.279.618.588.987.919a16.638,16.638,0,0,1-.995,2.253Z" transform="translate(-184.586 -70.697)" opacity="0.2" style="isolation: isolate"/>
          <path id="Path_8854" data-name="Path 8854" d="M288.2,106.716a14.393,14.393,0,0,1-1.507-1.115,17.629,17.629,0,0,0,1.025-2.261c.4.332.837.686,1.3,1.033C288.725,105.171,288.431,105.94,288.2,106.716Z" transform="translate(-185.202 -71.17)" opacity="0.2" style="isolation: isolate"/>
          <path id="Path_8855" data-name="Path 8855" d="M291,108.309a13.391,13.391,0,0,1-1.4-.678c.256-.754.52-1.507.754-2.261.445.309.919.61,1.409.9C291.56,106.968,291.266,107.631,291,108.309Z" transform="translate(-185.919 -71.67)" opacity="0.2" style="isolation: isolate"/>
          <path id="Path_8856" data-name="Path 8856" d="M294.219,109.507a13.61,13.61,0,0,1-1.779-.49l.136-.354c.211-.512.422-1.025.6-1.553q.656.362,1.357.678Q294.369,108.647,294.219,109.507Z" transform="translate(-186.618 -72.098)" opacity="0.2" style="isolation: isolate"/>
          <path id="Path_8857" data-name="Path 8857" d="M301.61,109.588a5.467,5.467,0,0,0,.927-.053c.06.211.128.422.2.633a14.394,14.394,0,0,1-2.887.271c-.075-.347-.143-.693-.226-1.04a11.7,11.7,0,0,0,1.99.188Z" transform="translate(-188.387 -72.662)" opacity="0.2" style="isolation: isolate"/>
          <path id="Path_8858" data-name="Path 8858" d="M304.716,109.744l-.166-.55a13.12,13.12,0,0,0,2.789-.754,6.994,6.994,0,0,1-2.623,1.3Z" transform="translate(-189.601 -72.426)" opacity="0.2" style="isolation: isolate"/>
          <path id="Path_8859" data-name="Path 8859" d="M297.827,108.995c.1.4.188.806.271,1.213a15.748,15.748,0,0,1-2.042-.181h-.226c.09-.512.188-1.033.286-1.507A15.072,15.072,0,0,0,297.827,108.995Z" transform="translate(-187.453 -72.446)" opacity="0.2" style="isolation: isolate"/>
          <path id="Path_8860" data-name="Path 8860" d="M283.879,99.82s.219.249.61.648a7.719,7.719,0,0,0-1.251,1.749c-.286-.377-.52-.754-.708-1.025Z" transform="translate(-184.177 -70.302)" opacity="0.2" style="isolation: isolate"/>
          <path id="Path_8861" data-name="Path 8861" d="M272.41,110.758a51.122,51.122,0,0,0,8.117,4.733,93.322,93.322,0,0,1-4.394-8.531Z" transform="translate(-181.684 -72.061)" opacity="0.2" style="isolation: isolate"/>
          <path id="Path_8862" data-name="Path 8862" d="M252.16,119.306l-4.688,3.768s-11.652-7.378-13.852-15.33l3.105-3.015Z" transform="translate(-172.129 -71.512)" fill="#1e64cc"/>
          <path id="Path_8863" data-name="Path 8863" d="M271.4,97.691s-11.433,15.073-18.337,16.656c-5.276,1.2-13.076-8.411-16.475-13.038a3.444,3.444,0,0,1,.339-4.522c4.522-4.522,15.6-14.87,23.68-15.827Z" transform="translate(-172.689 -65.657)" fill="#1e64cc"/>
          <path id="Path_8864" data-name="Path 8864" d="M236.626,101.349c3.4,4.628,11.2,14.237,16.468,13.038C260,112.8,271.438,97.731,271.438,97.731l-9.8-15.073L260.645,81h0a12.669,12.669,0,0,0-2.457.543,27.523,27.523,0,0,0-5.743,2.66,51.517,51.517,0,0,0-4.424,2.969c-1.168.859-2.314,1.764-3.407,2.66-3.165,2.615-5.9,5.276-7.65,6.987a3.467,3.467,0,0,0-.339,4.53Z" transform="translate(-172.701 -65.667)" fill="#fff" opacity="0.7" style="isolation: isolate"/>
          <circle id="Ellipse_712" data-name="Ellipse 712" cx="12.353" cy="12.353" r="12.353" transform="matrix(0.627, -0.779, 0.779, 0.627, 84.639, 19.254)" fill="#1e64cc"/>
          <circle id="Ellipse_713" data-name="Ellipse 713" cx="12.353" cy="12.353" r="12.353" transform="matrix(0.627, -0.779, 0.779, 0.627, 84.639, 19.254)" fill="#fff" opacity="0.4" style="isolation: isolate"/>
          <path id="Path_8865" data-name="Path 8865" d="M273.65,87.938c-.339,2.216,2.374,5.276,2.374,5.276s1.975,1.726,2.344.844a2.814,2.814,0,0,1,.136-3.113,4.394,4.394,0,0,1,1.334-1.07c.279-.151.573-.294.867-.422l.317-6.233C279.341,85.142,276.024,88.33,273.65,87.938Z" transform="translate(-181.982 -66.213)" fill="#ebb376"/>
          <path id="Path_8866" data-name="Path 8866" d="M280.888,85.89a4.243,4.243,0,0,0-1.651,5.359,4.333,4.333,0,0,1,1.417-.95Z" transform="translate(-183.274 -66.871)" opacity="0.2" style="isolation: isolate"/>
          <path id="Path_8867" data-name="Path 8867" d="M293.857,80.217s-.437,4.718-3.286,5.871-.754-7.318-.754-7.318Z" transform="translate(-185.789 -65.117)" fill="#263238"/>
          <path id="Path_8868" data-name="Path 8868" d="M280.442,87.626a4.258,4.258,0,0,0,4.341,2.781,4.733,4.733,0,0,0,3.158-1.507,3.971,3.971,0,0,0,.324-.384c1.884-2.48,3.467-7.25.987-9.8a4.6,4.6,0,0,0-6.512-.128,4.522,4.522,0,0,0-1.161,1.8C280.4,83.534,279.567,85.365,280.442,87.626Z" transform="translate(-183.573 -64.756)" fill="#ebb376"/>
          <path id="Path_8869" data-name="Path 8869" d="M289.938,86.54a9.694,9.694,0,0,0,.256,2.676,1.583,1.583,0,0,1-1.3-.3Z" transform="translate(-185.744 -67.031)" fill="#a24e3f"/>
          <path id="Path_8870" data-name="Path 8870" d="M287.117,83.356a.181.181,0,0,0,.173,0,1.311,1.311,0,0,1,1.161-.075.158.158,0,0,0,.211-.068.151.151,0,0,0-.068-.219h0a1.59,1.59,0,0,0-1.462.083.166.166,0,0,0-.068.219h0Z" transform="translate(-185.29 -66.123)" fill="#263238"/>
          <path id="Path_8871" data-name="Path 8871" d="M293.5,85.839a.173.173,0,0,0,.09.045.158.158,0,0,0,.151-.166h0a1.6,1.6,0,0,0-.693-1.3.166.166,0,0,0-.226.053h0a.166.166,0,0,0,.06.219h0a1.312,1.312,0,0,1,.535,1.04.2.2,0,0,0,.083.106Z" transform="translate(-186.708 -66.504)" fill="#263238"/>
          <path id="Path_8872" data-name="Path 8872" d="M285.408,77.292l-.362,1.455a1.1,1.1,0,0,0-1.017,1.115,4.055,4.055,0,0,1-2.525,3.271s.166-.513-.309-.558-1.357,2.63-1.01,4.205a8.78,8.78,0,0,1-.475-4.65c.317-2.8,1.055-4.967,1.952-5.75Z" transform="translate(-183.452 -64.528)" fill="#263238"/>
          <path id="Path_8873" data-name="Path 8873" d="M283.812,77.134s1.507,2.608,3.482,2.623a3.015,3.015,0,0,1-1.447-1.394s2.495,2.412,3.678,2.11,1.507.935,2.57.324.279-2.871.279-2.871.7,0,.249-1.221-.987-1.3-1.62-1.681.3-1.635-.686-2.63-4.7-2.359-5.449.151a2.4,2.4,0,0,0-3.324.151c-.874.791-.317,1.432-.317,1.432s-1.1-.671-2.562,1.146-.543,4.4-.543,4.4-.678,0-.173,1.553a3.527,3.527,0,0,0,1.568,2.1S280.383,78.053,283.812,77.134Z" transform="translate(-183.002 -63.232)" fill="#263238"/>
          <path id="Path_8874" data-name="Path 8874" d="M278.808,83.493a3.173,3.173,0,0,0,1.033,2.261c.829.754,1.749.136,1.937-.919.166-.927-.06-2.472-1.1-2.819a1.424,1.424,0,0,0-1.869,1.477Z" transform="translate(-183.259 -65.899)" fill="#ebb376"/>
          <path id="Path_8875" data-name="Path 8875" d="M294.81,76s1.718.271,1.733-.852" transform="translate(-187.202 -64.225)" fill="none" stroke="#263238" stroke-linecap="round" stroke-linejoin="round" stroke-width="0.5"/>
          <path id="Path_8876" data-name="Path 8876" d="M296.25,79.64a2.427,2.427,0,0,1,1.2,2.6" transform="translate(-187.557 -65.331)" fill="none" stroke="#263238" stroke-linecap="round" stroke-linejoin="round" stroke-width="0.5"/>
          <path id="Path_8877" data-name="Path 8877" d="M282.473,74.921a2.329,2.329,0,0,1-.754-1.831" transform="translate(-183.977 -63.718)" fill="none" stroke="#263238" stroke-linecap="round" stroke-linejoin="round" stroke-width="0.5"/>
          <path id="Path_8878" data-name="Path 8878" d="M281.1,75.1a3.527,3.527,0,0,0-3.844,3.015" transform="translate(-182.879 -64.21)" fill="none" stroke="#263238" stroke-linecap="round" stroke-linejoin="round" stroke-width="0.5"/>
          <path id="Path_8879" data-name="Path 8879" d="M287.529,84.882a.43.43,0,0,0,.121.58c.173.06.384-.09.49-.347s.045-.512-.121-.58S287.634,84.633,287.529,84.882Z" transform="translate(-185.392 -66.534)" fill="#263238"/>
          <path id="Path_8880" data-name="Path 8880" d="M291.358,86.412a.422.422,0,0,0,.121.58c.166.06.384-.09.482-.347s.045-.512-.121-.58S291.456,86.171,291.358,86.412Z" transform="translate(-186.335 -66.911)" fill="#263238"/>
          <path id="Path_8881" data-name="Path 8881" d="M287.41,90.3a8.729,8.729,0,0,0-.822.912L286.4,91.1c-.852-.5-1.078-1.025-1.07-1.447a1.32,1.32,0,0,1,.166-.58,1.13,1.13,0,0,1,.2-.279,4.522,4.522,0,0,0,1.455,1.342Z" transform="translate(-184.867 -67.585)" fill="#263238"/>
          <path id="Path_8882" data-name="Path 8882" d="M287.168,90.112l-.256.264c-.8-.482-1.3-.935-1.4-1.326a1.132,1.132,0,0,1,.2-.279A4.523,4.523,0,0,0,287.168,90.112Z" transform="translate(-184.911 -67.581)" fill="#fff"/>
          <path id="Path_8883" data-name="Path 8883" d="M286.36,91.357c-.852-.5-1.078-1.025-1.07-1.447a3.376,3.376,0,0,1,.829.754A1.244,1.244,0,0,1,286.36,91.357Z" transform="translate(-184.857 -67.861)" fill="#de5753"/>
          <path id="Path_8884" data-name="Path 8884" d="M294.15,71.16s4.989,3.015,4.921,8.622-3.316,9.157-6.391,10.1" transform="translate(-186.677 -63.243)" fill="none" stroke="#fff" stroke-linecap="round" stroke-linejoin="round" stroke-width="1"/>
          <path id="Path_8885" data-name="Path 8885" d="M291.44,69.887a10.371,10.371,0,0,0-2.6-.837" transform="translate(-185.731 -62.723)" fill="none" stroke="#fff" stroke-linecap="round" stroke-linejoin="round" stroke-width="1"/>
          <path id="Path_8886" data-name="Path 8886" d="M270.647,80.65a20.069,20.069,0,0,0,9.8,14.44l-.972,2.525s-10.461-4.522-10.792-16.7Z" transform="translate(-180.765 -65.58)" fill="#1e64cc"/>
          <path id="Path_8887" data-name="Path 8887" d="M270.748,105.866s-7.107-5.969-7.341-6.5-7.288,5.328-7.167,5.69,6.391,7.243,7.808,7.537S271.207,106.242,270.748,105.866Z" transform="translate(-177.7 -70.183)" opacity="0.2" style="isolation: isolate"/>
          <path id="Path_8888" data-name="Path 8888" d="M271.187,106.844s-6.534-5.494-6.783-5.984-6.708,4.914-6.595,5.276,5.879,6.662,7.182,6.911S271.617,107.221,271.187,106.844Z" transform="translate(-178.087 -70.551)" fill="#fff" style="isolation: isolate"/>
          <path id="Path_8889" data-name="Path 8889" d="M264.8,104.523a1.078,1.078,0,1,0,1.259-.859,1.078,1.078,0,0,0-1.259.859Z" transform="translate(-179.806 -71.245)" fill="#263238"/>
          <path id="Path_8890" data-name="Path 8890" d="M265.425,104.706a.837.837,0,1,0,.35-.539A.837.837,0,0,0,265.425,104.706Z" transform="translate(-179.96 -71.337)" fill="#fff" opacity="0.2" style="isolation: isolate"/>
          <path id="Path_8891" data-name="Path 8891" d="M261.194,108.143a1.078,1.078,0,1,0,.454-.693,1.078,1.078,0,0,0-.454.693Z" transform="translate(-178.917 -72.136)" fill="#1e64cc"/>
          <path id="Path_8892" data-name="Path 8892" d="M261.815,108.32a.852.852,0,0,0,.671.987.837.837,0,1,0-.671-.987Z" transform="translate(-179.071 -72.231)" opacity="0.2" style="isolation: isolate"/>
          <path id="Path_8893" data-name="Path 8893" d="M271.154,109.424a1.078,1.078,0,1,0,1.262-.855A1.078,1.078,0,0,0,271.154,109.424Z" transform="translate(-181.37 -72.453)" fill="#263238"/>
          <path id="Path_8894" data-name="Path 8894" d="M271.775,109.609a.837.837,0,1,0,.98-.663.837.837,0,0,0-.98.663Z" transform="translate(-181.524 -72.547)" fill="#fff" opacity="0.2" style="isolation: isolate"/>
          <path id="Path_8895" data-name="Path 8895" d="M267.064,113.063a1.042,1.042,0,1,0,1.266-.859A1.093,1.093,0,0,0,267.064,113.063Z" transform="translate(-180.363 -73.349)" fill="#1e64cc"/>
          <path id="Path_8896" data-name="Path 8896" d="M267.7,113.247a.84.84,0,1,0,.983-.667A.844.844,0,0,0,267.7,113.247Z" transform="translate(-180.519 -73.442)" opacity="0.2" style="isolation: isolate"/>
          <path id="Path_8897" data-name="Path 8897" d="M247.44,90.88C256.326,94,258.1,87.428,258.1,87.428l-2.834-2.178a65.274,65.274,0,0,0-7.831,5.63Z" transform="translate(-175.533 -66.713)" opacity="0.2" style="isolation: isolate"/>
          <path id="Path_8898" data-name="Path 8898" d="M214.207,76.993s-2.5,1.191-2.487,1.6-.136,1.854-.61,2.186-2.314,2.826-2.758,2.638-3.422-1.952-3.331-2.495a18.226,18.226,0,0,1,3.949-4.145,5.781,5.781,0,0,0,1.085-.445l2.811-2.419Z" transform="translate(-165.083 -63.92)" fill="#1e64cc"/>
          <path id="Path_8899" data-name="Path 8899" d="M214.207,76.993s-2.5,1.191-2.487,1.6-.136,1.854-.61,2.186-2.314,2.826-2.758,2.638-3.422-1.952-3.331-2.495a18.226,18.226,0,0,1,3.949-4.145,5.781,5.781,0,0,0,1.085-.445l2.811-2.419Z" transform="translate(-165.083 -63.92)" opacity="0.2" style="isolation: isolate"/>
          <path id="Path_8900" data-name="Path 8900" d="M255.42,77.423s-14.109-12.654-26.333-10.747-14.357,4.439-14.357,4.439l1.221,5.1s16.46-1.884,21.1,1.409,6.09,6.685,6.09,6.685S250.853,87.394,255.42,77.423Z" transform="translate(-167.476 -62.09)" fill="#1e64cc"/>
          <path id="Path_8901" data-name="Path 8901" d="M214.73,71.13l1.221,5.1s16.46-1.884,21.1,1.409a19.392,19.392,0,0,1,5.766,5.969,5.09,5.09,0,0,1,.377.754s6.7,2.691,11.305-5.065c.324-.55.641-1.161.95-1.816h0c-.362-.317-14.32-12.631-26.326-10.747-.8.128-1.553.249-2.261.377C216.629,68.914,214.73,71.13,214.73,71.13Z" transform="translate(-167.476 -62.105)" fill="#fff" opacity="0.7" style="isolation: isolate"/>
          <path id="Path_8902" data-name="Path 8902" d="M214.573,71.59l1.809,6.723-1.492-.279-1.409-5.17Z" transform="translate(-167.168 -63.349)" fill="#1e64cc"/>
          <path id="Path_8903" data-name="Path 8903" d="M268.244,80.66l.294.256h0l1.025,1.583-.121,1.9s-.528-.5-1.432-1.289C268.085,82.3,268.146,81.474,268.244,80.66Z" transform="translate(-180.6 -65.583)" opacity="0.2" style="isolation: isolate"/>
          <path id="Path_8904" data-name="Path 8904" d="M264.524,77.85c.8.6,1.462,1.115,1.96,1.507-.121.8-.188,1.605-.249,2.4-.362-.317-.754-.648-1.2-1.01L263.77,79.7C264,79.086,264.245,78.46,264.524,77.85Z" transform="translate(-179.556 -64.891)" opacity="0.2" style="isolation: isolate"/>
          <path id="Path_8905" data-name="Path 8905" d="M260.481,75c.882.573,1.688,1.131,2.4,1.651-.271.6-.528,1.213-.754,1.831-.754-.588-1.507-1.191-2.351-1.8C260,76.131,260.232,75.565,260.481,75Z" transform="translate(-178.573 -64.189)" opacity="0.2" style="isolation: isolate"/>
          <path id="Path_8906" data-name="Path 8906" d="M256.578,72.62c.8.46,1.568.919,2.261,1.372-.241.543-.467,1.085-.678,1.643-.754-.52-1.455-1.025-2.2-1.507A13.377,13.377,0,0,1,256.578,72.62Z" transform="translate(-177.632 -63.602)" opacity="0.2" style="isolation: isolate"/>
          <path id="Path_8907" data-name="Path 8907" d="M253.225,70.83q.965.475,1.877.972a12.488,12.488,0,0,0-.58,1.44c-.6-.377-1.2-.754-1.8-1.078C252.878,71.712,253.044,71.267,253.225,70.83Z" transform="translate(-176.834 -63.161)" opacity="0.2" style="isolation: isolate"/>
          <path id="Path_8908" data-name="Path 8908" d="M249.43,69.15c.754.286,1.455.6,2.155.927-.173.422-.339.844-.49,1.274q-1.07-.588-2.125-1.063C249.143,69.919,249.294,69.534,249.43,69.15Z" transform="translate(-175.91 -62.747)" opacity="0.2" style="isolation: isolate"/>
          <path id="Path_8909" data-name="Path 8909" d="M244.242,67.45a33.084,33.084,0,0,1,3.18.995c-.136.377-.286.754-.452,1.115a15.072,15.072,0,0,0-3.18-.942Z" transform="translate(-174.634 -62.329)" opacity="0.2" style="isolation: isolate"/>
          <path id="Path_8910" data-name="Path 8910" d="M234.419,66.6a16.844,16.844,0,0,1,2.894-.09l-.407,1.507c-1.176-.06-2.088-.09-2.8-.106C234.216,67.484,234.321,67.047,234.419,66.6Z" transform="translate(-172.25 -62.091)" opacity="0.2" style="isolation: isolate"/>
          <path id="Path_8911" data-name="Path 8911" d="M239.289,66.59a23.366,23.366,0,0,1,2.969.46c-.158.422-.324.837-.482,1.251-1.093-.09-2.042-.151-2.887-.2Z" transform="translate(-173.427 -62.117)" opacity="0.2" style="isolation: isolate"/>
        </g>
      </g>
      <g id="freepik--character-shadow--inject-138" transform="translate(122.914 262.856)">
        <path id="Path_8912" data-name="Path 8912" d="M167.928,337.905a7.974,7.974,0,0,0-4.673,5.4,6.074,6.074,0,0,0,.52,4.221c.663,1.326,5,2.954,6.414,2.8a46.73,46.73,0,0,0,7.439-1.447,8.237,8.237,0,0,1,4.808.136c8.072,2.706,37.834,10.016,105.152.754a3.249,3.249,0,0,1,2.555.754c3.866,3.316,16.679,13.121,18.359,12.616,1.342-.4,10.981-10.37,16.92-17.613,2.261-2.789,1.379-6.029-2.042-7.175-25.233-8.539-63.082-5.087-95.218-5.8a2.92,2.92,0,0,1-.362,0c-17.771-2.314-33.086-2.871-49.418,1.507a79.878,79.878,0,0,0-10.453,3.836Z" transform="translate(-163.088 -330.793)" opacity="0.2" style="isolation: isolate"/>
      </g>
      <g id="freepik--Cushions--inject-138" transform="translate(105.984 223.216)">
        <path id="Path_8913" data-name="Path 8913" d="M313.38,324.131c2.027,2.879,39.809,14.176,44.61,11.893s22.5-37.141,20.545-41.391l-.121-.188c-3.211-3.836-40.08-16.2-41.5-16.234-.867,0-9.677,15.111-16.294,28.029C316.078,315.11,312.551,322.955,313.38,324.131Z" transform="translate(-183.15 -278.2)" fill="#fff"/>
        <path id="Path_8914" data-name="Path 8914" d="M313.38,329.437c2.027,2.879,39.809,14.176,44.609,11.893s22.5-37.141,20.545-41.391l-.121-.188s-11.086,6.971-16.769,13.634a40.284,40.284,0,0,0-7.68,14.44l-18.842.317s-7.891-11.426-14.523-16.581C316.078,320.416,312.551,328.261,313.38,329.437Z" transform="translate(-183.15 -283.506)" opacity="0.1" style="isolation: isolate"/>
        <path id="Path_8915" data-name="Path 8915" d="M161.565,334.393c2.133,1.123,29.393-11.26,31.978-14.063s-.467-6.783-.467-6.783-3.957-9.044-7.883-17.915c-3.165-7.137-6.316-14.131-7.363-16.144-2.344-4.522-30.991,4.228-36.176,4.967-.543.075-.859.633-.98,1.575C139.709,294.041,152.966,329.871,161.565,334.393Z" transform="translate(-140.624 -278.197)" fill="#fff"/>
        <path id="Path_8916" data-name="Path 8916" d="M161.568,336.438c2.133,1.123,29.393-11.26,31.978-14.063s-.467-6.783-.467-6.783-3.957-9.044-7.883-17.915c-13.981-2.495-30.78-4.4-30.772.829,0,8.946,10.129,32.151,10.129,32.151a2.947,2.947,0,0,1-3.768,1.764s-4.175-15.435-8.109-26.378A74.741,74.741,0,0,0,141.663,286.5l-.98,1.575C139.711,296.087,152.968,331.916,161.568,336.438Z" transform="translate(-140.626 -280.242)" opacity="0.1" style="isolation: isolate"/>
      </g>
      <g id="freepik--character-1--inject-138" transform="translate(117.326 181.503)">
        <g id="freepik--group--inject-138-2" data-name="freepik--group--inject-138">
          <path id="Path_8917" data-name="Path 8917" d="M216.479,272.52a33.873,33.873,0,0,0-5.524,3.949c-1.53,1.62-3.369,9.572-4.062,11.644s5.374,5.472,6.564,5.472,2.751-10.257,2.789-11.75a5.374,5.374,0,0,0-1.085-2.947l4.6-3.316Z" transform="translate(-168.277 -235.085)" fill="#ebb376"/>
          <path id="Path_8918" data-name="Path 8918" d="M203.7,247.7s33.071-5.969,34.5,4.1-21.1,21.035-21.1,21.035l-5.848-4.673s13.234-9.5,12.737-11.674-20.779,4.16-20.779,4.16Z" transform="translate(-167.383 -228.538)" fill="#1e64cc"/>
          <path id="Path_8919" data-name="Path 8919" d="M212.442,267.3l-1.176.859.068.053,5.788,4.62s22.527-10.958,21.1-21.035c-.565-3.972-6.029-5.449-12.5-5.781-9.881-.5-22.007,1.681-22.007,1.681l-.482,12.948s12.812-3.987,18.291-4.522c1.432-.151,2.374-.06,2.48.384C224.418,258.255,215.676,264.91,212.442,267.3Z" transform="translate(-167.391 -228.538)" opacity="0.2" style="isolation: isolate"/>
          <path id="Path_8920" data-name="Path 8920" d="M203.23,260.634s12.812-3.987,18.291-4.522a48.642,48.642,0,0,0,4.2-10.137c-9.881-.5-22.007,1.681-22.007,1.681Z" transform="translate(-167.388 -228.528)" opacity="0.2" style="isolation: isolate"/>
          <path id="Path_8921" data-name="Path 8921" d="M372.43,345.056l-1.522-5.916-13.837,3.037,1.53,5.931Z" transform="translate(-205.284 -251.496)" fill="#ebb376"/>
          <path id="Path_8922" data-name="Path 8922" d="M374.227,334.262l1.854,7.19a.535.535,0,0,0,.535.4l5.57-.188a.9.9,0,0,0,.859-.942.588.588,0,0,0,0-.2c-.633-2.314-1.213-3.972-1.967-6.9-.46-1.794-1.673-7.273-2.314-9.76s-3.18-2.171-3.143-1.1c.181,4.816-.309,8.607-1.244,10.408A1.507,1.507,0,0,0,374.227,334.262Z" transform="translate(-209.5 -247.266)" fill="#263238"/>
          <path id="Path_8923" data-name="Path 8923" d="M374.555,336.545a.151.151,0,0,1-.09.136.128.128,0,0,1-.158,0c-.188-.173-1.854-1.786-1.681-2.525a.429.429,0,0,1,.324-.347.844.844,0,0,1,.829.105,1.817,1.817,0,0,1,.6,1.055,7.236,7.236,0,0,1,.181,1.575Zm-.3-.354a2.962,2.962,0,0,0-.648-2.08.618.618,0,0,0-.55-.06c-.113.038-.151.1-.143.136a.325.325,0,0,0,0,.188,5.872,5.872,0,0,0,1.342,1.824Z" transform="translate(-209.113 -250.167)" fill="#1e64cc"/>
          <path id="Path_8924" data-name="Path 8924" d="M374.255,337.082a.166.166,0,0,1-.106.106c-.09,0-1.824.309-2.562-.234a.8.8,0,0,1-.332-.55.475.475,0,0,1,.256-.543c.588-.286,2.2.558,2.683,1.085v.068a.121.121,0,0,1,.06.068Zm-2.547-.354a3.429,3.429,0,0,0,2.035.226c-.618-.49-1.794-.995-2.163-.821-.038,0-.136.06-.09.241v.068a.527.527,0,0,0,.219.264Z" transform="translate(-208.775 -250.674)" fill="#1e64cc"/>
          <path id="Path_8925" data-name="Path 8925" d="M358.61,348.584l-1.53-5.924,7.137-1.56,1.53,5.924Z" transform="translate(-205.287 -251.979)" opacity="0.2" style="isolation: isolate"/>
          <path id="Path_8926" data-name="Path 8926" d="M353.491,364.345l3.708-4.854L346.248,350.5l-3.708,4.861Z" transform="translate(-201.705 -254.294)" fill="#ebb376"/>
          <path id="Path_8927" data-name="Path 8927" d="M360.4,358.973l-4.522,5.9a.52.52,0,0,0,0,.663l3.595,4.258a.889.889,0,0,0,1.266.1.806.806,0,0,0,.136-.143c1.432-1.937,2.374-3.414,4.205-5.811,1.123-1.507,4.68-5.818,6.24-7.853s-.219-3.9-1.063-3.143c-3.678,3.12-6.956,5.072-8.946,5.457A1.44,1.44,0,0,0,360.4,358.973Z" transform="translate(-204.962 -254.854)" fill="#263238"/>
          <path id="Path_8928" data-name="Path 8928" d="M363.073,360.2a.166.166,0,0,1-.166,0,.151.151,0,0,1-.068-.143c0-.256.256-2.562.942-2.887a.452.452,0,0,1,.475.045.889.889,0,0,1,.437.716,1.831,1.831,0,0,1-.467,1.123,7.158,7.158,0,0,1-1.153,1.146Zm.1-.46a2.947,2.947,0,0,0,1.228-1.794.6.6,0,0,0-.294-.475c-.1-.06-.166-.06-.188,0a.415.415,0,0,0-.151.128,6.03,6.03,0,0,0-.6,2.14Z" transform="translate(-206.705 -255.927)" fill="#1e64cc"/>
          <path id="Path_8929" data-name="Path 8929" d="M362.645,360.309a.159.159,0,0,1-.143,0c-.068-.06-1.372-1.244-1.4-2.155a.8.8,0,0,1,.226-.6.49.49,0,0,1,.588-.136c.588.294.912,2.08.806,2.789l-.045.053A.1.1,0,0,1,362.645,360.309Zm-1.3-2.223a3.5,3.5,0,0,0,1.085,1.741c0-.791-.332-2.027-.693-2.208a.2.2,0,0,0-.249.083l-.038.053a.49.49,0,0,0-.106.332Z" transform="translate(-206.276 -255.986)" fill="#1e64cc"/>
          <path id="Path_8930" data-name="Path 8930" d="M342.54,355.371l3.716-4.861,5.637,4.635-3.708,4.861Z" transform="translate(-201.705 -254.297)" opacity="0.2" style="isolation: isolate"/>
          <path id="Path_8931" data-name="Path 8931" d="M173.88,316.79l3.768,15.827c1.259,22.241,73.482,13.83,98.2,12.534,1.311-.068,3.143-.151,5.276-.241,10.28-.452,28.1-1.123,33.666-1.326l1.718-.068-.234-9.986c-2.261.06-5.05,0-8.29-.09l-3.429-.136c-10.747-.482-25.187-1.613-40.261-2.977l-1.259-.113c-36.485-3.331-76.226-7.936-76.226-7.936Z" transform="translate(-160.158 -245.991)" fill="#263238"/>
          <path id="Path_8932" data-name="Path 8932" d="M362.3,336.15l3.286,12.767-3.814.98-3.663-13.182Z" transform="translate(-205.54 -250.76)" fill="#1e64cc"/>
          <path id="Path_8933" data-name="Path 8933" d="M362.3,336.15l3.286,12.767-3.814.98-3.663-13.182Z" transform="translate(-205.54 -250.76)" fill="#fff" opacity="0.6" style="isolation: isolate"/>
          <path id="Path_8934" data-name="Path 8934" d="M292.19,334.6c5.1,3.768,12.564,9.994,18.088,14.674,10.28-.452,28.1-1.123,33.666-1.326L333.71,337.69c-10.747-.482-25.188-1.613-40.261-2.977Z" transform="translate(-189.302 -250.378)" opacity="0.2" style="isolation: isolate"/>
          <path id="Path_8935" data-name="Path 8935" d="M178.89,328.4c15.073,21.773,51.129-4.974,51.136-4.974.4-.181.814-.362,1.251-.535h0c5.034-2.042,12.179-3.829,16.053-4.921.543-.151,1.01-.294,1.409-.414a10.193,10.193,0,0,1,4.718-.686,22.975,22.975,0,0,1,4.01,1.462c14,6.233,47.858,28.737,47.858,28.737l6.029-8.034s-7.084-6.5-16.844-14.222c-14.229-11.245-34.141-25.059-46.094-25.052-20.138,0-46.351,12.111-46.351,12.111l-14.478-7.861Z" transform="translate(-161.392 -241.796)" fill="#263238"/>
          <path id="Path_8936" data-name="Path 8936" d="M353.422,350.379l-8,10.476-3.135-2.389,8.094-11.026Z" transform="translate(-201.643 -253.541)" fill="#1e64cc"/>
          <path id="Path_8937" data-name="Path 8937" d="M353.422,350.379l-8,10.476-3.135-2.389,8.094-11.026Z" transform="translate(-201.643 -253.541)" fill="#fff" opacity="0.6" style="isolation: isolate"/>
          <path id="Path_8938" data-name="Path 8938" d="M219.33,327.281l21.909,1.56h0c5.034-2.042,12.179-3.829,16.053-4.921a216.465,216.465,0,0,0-37.914,3.353Z" transform="translate(-171.354 -247.747)" opacity="0.2" style="isolation: isolate"/>
          <path id="Path_8939" data-name="Path 8939" d="M174.45,322.857l24.57-25.2a13.619,13.619,0,0,1-7.589-6.979c-2.133-4.409-2.329-9.941-1.7-14.975a46.277,46.277,0,0,1,1.326-6.647,51.309,51.309,0,0,0,1.063-18.676c-16.3-3.414-34.623,5.012-35.724,12.443C151.7,294.414,174.45,322.857,174.45,322.857Z" transform="translate(-155.694 -229.44)" fill="#1e64cc"/>
          <path id="Path_8940" data-name="Path 8940" d="M214.16,256.038l3.158-5.411a24.236,24.236,0,0,1,.965-4.092c.55-1.342,8.087-3.143,10.272-1.96a10.409,10.409,0,0,0,2.758,1.251s-3.015,5.276-4.62,6.029a10.008,10.008,0,0,1-3.957.678l-4.454,6.4Z" transform="translate(-170.081 -228.107)" fill="#ebb376"/>
          <path id="Path_8941" data-name="Path 8941" d="M178.362,258.073c2.065,1.892,5.924,2.058,8.042,1.99a10.38,10.38,0,0,0,1.507-.1c-.264-1.6,4.288-3.768,4.288-3.768l-4.115-7.589-.173-.317-.43.384h0a9.542,9.542,0,0,1-1.711,1.161,7.273,7.273,0,0,1-4.763.874S173.553,253.649,178.362,258.073Z" transform="translate(-160.864 -229.117)" fill="#ebb376"/>
          <path id="Path_8942" data-name="Path 8942" d="M189.046,260.166a10.376,10.376,0,0,0,1.507-.1c-.264-1.6,4.288-3.768,4.288-3.768l-4.115-7.589-.6.068h0l-1.334.158s-.166.377-.377,1C187.682,252.019,186.453,256.895,189.046,260.166Z" transform="translate(-163.507 -229.22)" opacity="0.2" style="isolation: isolate"/>
          <path id="Path_8943" data-name="Path 8943" d="M217.186,245.234s-5.012,6.889-10.461,6.029,5.562-11.983,5.562-11.983Z" transform="translate(-167.876 -226.897)" fill="#263238"/>
          <path id="Path_8944" data-name="Path 8944" d="M188.686,245.466a7.65,7.65,0,0,0,4.153,8.29,8.494,8.494,0,0,0,6.24.6,7.719,7.719,0,0,0,.859-.294c5.178-2.11,12.006-8.019,10.551-14.244a8.29,8.29,0,0,0-13.43-4.462C192.357,239.128,189.41,241.17,188.686,245.466Z" transform="translate(-163.773 -225.449)" fill="#ebb376"/>
          <path id="Path_8945" data-name="Path 8945" d="M206.551,251.49a17.411,17.411,0,0,0-2.05,4.371,2.834,2.834,0,0,1-1.741-1.673Z" transform="translate(-167.272 -229.905)" fill="#a24e3f"/>
          <path id="Path_8946" data-name="Path 8946" d="M205.72,243.8a.294.294,0,0,0,.256.166,2.306,2.306,0,0,1,1.862.942.294.294,0,0,0,.4.09.279.279,0,0,0,.09-.392h0a2.856,2.856,0,0,0-2.336-1.221.286.286,0,0,0-.3.271h0A.294.294,0,0,0,205.72,243.8Z" transform="translate(-167.994 -227.91)" fill="#263238"/>
          <path id="Path_8947" data-name="Path 8947" d="M213.333,253.407a.249.249,0,0,0,.09.143.279.279,0,0,0,.384-.113h0a2.879,2.879,0,0,0,.106-2.645.294.294,0,0,0-.392-.113h0a.3.3,0,0,0-.113.392h0a2.321,2.321,0,0,1-.121,2.088A.324.324,0,0,0,213.333,253.407Z" transform="translate(-169.864 -229.697)" fill="#263238"/>
          <path id="Path_8948" data-name="Path 8948" d="M205.944,233.341l-1.892,1.907a2,2,0,0,0-2.585.754c-1.221,2.065-4.741,3.226-6.9,2.736,0,0,.754-.641.045-1.146s-4.522,2.819-5.419,5.577c0,0,.211-3.256,3.527-7.627,3.067-4.04,6.188-6.708,8.29-7.092Z" transform="translate(-163.93 -224.229)" fill="#263238"/>
          <path id="Path_8949" data-name="Path 8949" d="M205.428,248.288s-1.673.2-2.118-1.108" transform="translate(-167.408 -228.843)" fill="none" stroke="#263238" stroke-linecap="round" stroke-linejoin="round" stroke-width="0.5"/>
          <path id="Path_8950" data-name="Path 8950" d="M210.265,252.73s-.354,1.394.889,1.7" transform="translate(-169.11 -230.21)" fill="none" stroke="#263238" stroke-linecap="round" stroke-linejoin="round" stroke-width="0.5"/>
          <path id="Path_8951" data-name="Path 8951" d="M196.4,253.109a2.48,2.48,0,0,1,.678.573c.384.5,1.191,1.447.889,2.148s-1.507-.844-1.681-1.033a2.479,2.479,0,0,1-.648-1.161C195.617,252.89,196.009,252.89,196.4,253.109Z" transform="translate(-165.518 -230.273)" fill="#263238"/>
          <path id="Path_8952" data-name="Path 8952" d="M203.446,232.917s0,5.434,2.954,7.25a5.464,5.464,0,0,1-.942-3.49s1.635,6.029,3.768,6.64,1.507,2.849,3.67,2.856S215.965,242,215.965,242s1.055.678,1.507-1.658-.324-2.924-.95-4.085,1.96-2.261,1.349-4.688-5.095-7.959-8.547-4.771a4.308,4.308,0,0,0-5.276-2.819c-2.065.415-1.8,1.929-1.8,1.929s-1.085-2.05-5-.6-4.876,6.3-4.876,6.3-1.025-.656-1.7,2.261a6.263,6.263,0,0,0,.5,4.665S197.3,231.191,203.446,232.917Z" transform="translate(-164.236 -223.097)" fill="#263238"/>
          <path id="Path_8953" data-name="Path 8953" d="M192.225,236.5a5.751,5.751,0,0,0-.445,4.379c.588,1.929,2.585,1.809,3.836.362,1.108-1.289,2.186-3.881.889-5.374A2.558,2.558,0,0,0,192.225,236.5Z" transform="translate(-164.508 -225.834)" fill="#ebb376"/>
          <path id="Path_8954" data-name="Path 8954" d="M224.21,239.8s2.412,2,3.467.271" transform="translate(-172.556 -227.025)" fill="none" stroke="#263238" stroke-linecap="round" stroke-linejoin="round" stroke-width="0.5"/>
          <path id="Path_8955" data-name="Path 8955" d="M223.183,246.32a4.346,4.346,0,0,1-.543,5.11" transform="translate(-172.17 -228.631)" fill="none" stroke="#263238" stroke-linecap="round" stroke-linejoin="round" stroke-width="0.5"/>
          <path id="Path_8956" data-name="Path 8956" d="M206.17,226.385a4.168,4.168,0,0,1,.512-3.535" transform="translate(-168.067 -222.85)" fill="none" stroke="#263238" stroke-linecap="round" stroke-linejoin="round" stroke-width="0.5"/>
          <path id="Path_8957" data-name="Path 8957" d="M203.2,226.168a6.331,6.331,0,0,0-8.712,1.153" transform="translate(-165.235 -223.356)" fill="none" stroke="#263238" stroke-linecap="round" stroke-linejoin="round" stroke-width="0.5"/>
          <path id="Path_8958" data-name="Path 8958" d="M215.066,274.28l-1.176.859.068.053C214.335,274.89,214.727,274.589,215.066,274.28Z" transform="translate(-170.014 -235.519)" opacity="0.2" style="isolation: isolate"/>
          <path id="Path_8959" data-name="Path 8959" d="M161,283.56s13.913,21.962,29.619,16.3q1.108-.4,2.08-.814c-2.133-4.409-2.329-9.941-1.7-14.975-1.9,2.08-4.522,4.183-7,3.9C179.209,287.434,161,283.56,161,283.56Z" transform="translate(-156.986 -237.805)" opacity="0.2" style="isolation: isolate"/>
          <path id="Path_8960" data-name="Path 8960" d="M156.364,264.157c2.909-5.125,26.062,13.415,28.564,12.059S200.695,255,200.695,255l6.693,3.316s-11.305,23.891-15.827,28.293c-5.781,5.66-28.2-3.927-31.435-7.876S154.412,267.594,156.364,264.157Z" transform="translate(-155.673 -230.77)" fill="#1e64cc"/>
          <path id="Path_8961" data-name="Path 8961" d="M156.364,264.157c2.909-5.125,26.062,13.415,28.564,12.059S200.695,255,200.695,255l6.693,3.316s-11.305,23.891-15.827,28.293c-5.781,5.66-28.2-3.927-31.435-7.876S154.412,267.594,156.364,264.157Z" transform="translate(-155.673 -230.77)" opacity="0.1" style="isolation: isolate"/>
          <path id="Path_8962" data-name="Path 8962" d="M206.55,306.57l18.088,3.391s-5.9,7.748-7.469,13.423c0,0-8.908,3.685-11.606,10.868l-16.973-6.218s2.261-6.58,12.164-10.423C200.724,317.611,201.711,309.306,206.55,306.57Z" transform="translate(-163.782 -243.473)" fill="#1e64cc"/>
          <path id="Path_8963" data-name="Path 8963" d="M206.55,306.57l18.088,3.391s-5.9,7.748-7.469,13.423c0,0-8.908,3.685-11.606,10.868l-16.973-6.218s2.261-6.58,12.164-10.423C200.724,317.611,201.711,309.306,206.55,306.57Z" transform="translate(-163.782 -243.473)" opacity="0.3" style="isolation: isolate"/>
          <path id="Path_8964" data-name="Path 8964" d="M222.02,307.344l.173,1.357.806-.219-.3,1.568a27.018,27.018,0,0,0-6.5,12.745s-8.192,4.635-11.147,10.453l-17.3-6.376.347-.52-.927-.173,13.883-9.481,3.263-10.107Z" transform="translate(-163.432 -243.478)" fill="#fff"/>
          <path id="Path_8965" data-name="Path 8965" d="M222.02,307.344l.173,1.357.806-.219-.3,1.568a27.018,27.018,0,0,0-6.5,12.745s-8.192,4.635-11.147,10.453l-17.3-6.376.347-.52-.927-.173,13.883-9.481,3.263-10.107Z" transform="translate(-163.432 -243.478)" opacity="0.2" style="isolation: isolate"/>
          <path id="Path_8966" data-name="Path 8966" d="M216.041,322.286s-5.411,1.507-10.755,10.107l-18.736-7.439s4.2-7.537,12.368-9.119c0,0,.852-7.612,4.989-11.3l1.568.2,16.392,2.118S215.973,317.606,216.041,322.286Z" transform="translate(-163.279 -242.971)" fill="#fff"/>
          <path id="Path_8967" data-name="Path 8967" d="M220.093,322.286,203,315.835s.852-7.612,4.989-11.3l1.568.2a8.846,8.846,0,0,0-.1,7.024C211.569,316.091,220.093,322.286,220.093,322.286Z" transform="translate(-167.332 -242.971)" opacity="0.1" style="isolation: isolate"/>
        </g>
      </g>
    </g>
    <text id="Letting_go_of_the_real_world_so_that_you_can_enter_into_the_world_of_imagery_takes_more_than_simply_closing_your_eyes." data-name="Letting go of the real world so that you can enter into the world of imagery takes more than simply closing your eyes." transform="translate(30 564)" fill="#fff" font-size="18" font-family="ArialMT, Arial"><tspan x="6.393" y="16">Letting go of the real world so that you can </tspan><tspan x="7.922" y="47">enter into the world of imagery takes more </tspan><tspan x="55.946" y="78">than simply closing your eyes.</tspan></text>
    <g id="Component_119_274" data-name="Component 119 – 274" transform="translate(0 779.277)">
      <rect id="Rectangle_1927" data-name="Rectangle 1927" width="412" height="67" transform="translate(0 0.722)" fill="#102646"/>
      <path id="Path_4714" data-name="Path 4714" d="M1053,4508.186h411.151" transform="translate(-1053 -4508.186)" fill="none" stroke="#fff" stroke-width="2" opacity="0.206"/>
      <g id="Group_3096" data-name="Group 3096" transform="translate(-3 -997.186)">
        <text id="Next" transform="translate(318 1038)" fill="#f2f5f7" font-size="18" font-family="ArialMT, Arial"><tspan x="0" y="0">Next</tspan></text>
        <path id="Icon_ionic-ios-arrow-back" data-name="Icon ionic-ios-arrow-back" d="M14.033,14.264l6.109-6.1a1.154,1.154,0,0,0-1.634-1.629l-6.921,6.916a1.152,1.152,0,0,0-.034,1.591L18.5,22a1.154,1.154,0,1,0,1.634-1.629Z" transform="translate(389.251 1046.266) rotate(180)" fill="#f2f5f7"/>
      </g>
      <g id="Group_3224" data-name="Group 3224" transform="translate(2.529 7.076)">
        <g id="Group_3212" data-name="Group 3212" transform="translate(34.47 14.737)">
          <text id="Back" transform="translate(19.06 18)" fill="#fff" font-size="18" font-family="ArialMT, Arial"><tspan x="0" y="0">Back</tspan></text>
          <path id="Icon_ionic-ios-arrow-back-2" data-name="Icon ionic-ios-arrow-back" d="M14.033,14.264l6.109-6.1a1.154,1.154,0,0,0-1.634-1.629l-6.921,6.916a1.152,1.152,0,0,0-.034,1.591L18.5,22a1.154,1.154,0,1,0,1.634-1.629Z" transform="translate(-11.251 -3.193)" fill="#fff"/>
        </g>
      </g>
    </g>
    <g id="Group_3234" data-name="Group 3234" transform="translate(4.012 -10.262)">
      <path id="Icon_ionic-ios-arrow-back-3" data-name="Icon ionic-ios-arrow-back" d="M15.217,17.7,23.926,9A1.645,1.645,0,1,0,21.6,6.674l-9.867,9.86a1.642,1.642,0,0,0-.048,2.268l9.908,9.929a1.645,1.645,0,0,0,2.33-2.323Z" transform="translate(362.579 30.069)" fill="#fff"/>
      <path id="Icon_ionic-ios-arrow-back-4" data-name="Icon ionic-ios-arrow-back" d="M3.967,11.506l8.709-8.7A1.645,1.645,0,1,0,10.346.481L.479,10.341a1.642,1.642,0,0,0-.048,2.268l9.908,9.929a1.645,1.645,0,1,0,2.33-2.323Z" transform="translate(377.472 59.28) rotate(180)" fill="#fff"/>
    </g>
  </g>
</svg>
