<svg xmlns="http://www.w3.org/2000/svg" xmlns:xlink="http://www.w3.org/1999/xlink" width="412" height="847" viewBox="0 0 412 847">
  <defs>
    <clipPath id="clip-CBT_S8_E1_4">
      <rect width="412" height="847"/>
    </clipPath>
  </defs>
  <g id="CBT_S8_E1_4" data-name="CBT /  S8 / E1 –4" clip-path="url(#clip-CBT_S8_E1_4)">
    <rect width="412" height="847" fill="#102646"/>
    <text id="Imagery_is_about_visualizing._Imagine_the_worst_that_could_happen" data-name="Imagery is about visualizing. Imagine the worst that could happen" transform="translate(26 561)" fill="#fff" font-size="18" font-family="ArialMT, Arial"><tspan x="13.416" y="16">Imagery is about visualizing. Imagine the </tspan><tspan x="80.437" y="47">worst that could happen</tspan></text>
    <text id="Close_your_eyes" data-name="Close your eyes" transform="translate(35 101)" fill="#fff" font-size="24" font-family="Arial-BoldMT, Arial" font-weight="700"><tspan x="74.955" y="22">Close your eyes</tspan></text>
    <g id="Thoughts-pana" transform="translate(41.24 158.095)">
      <g id="freepik--background-complete--inject-112" transform="translate(26.76 37.506)">
        <path id="Path_9126" data-name="Path 9126" d="M295.245,135.2a1.265,1.265,0,0,0-1.062.765l-2.289,5.641a1.22,1.22,0,0,0,1,1.676,3.794,3.794,0,0,1,2.593,1.543,3.434,3.434,0,0,1,.689,2.624,3.516,3.516,0,0,1-1.581,2.232,3.921,3.921,0,0,1-2.921.569,4.572,4.572,0,0,1-3.269-4.673,1.227,1.227,0,0,0-2.441-.183,7.051,7.051,0,0,0,5.16,7.24,6.323,6.323,0,0,0,4.85-.936,5.976,5.976,0,0,0,2.637-3.838,5.874,5.874,0,0,0-1.132-4.521,6.368,6.368,0,0,0-2.757-2.131l1.764-4.351a1.227,1.227,0,0,0-.677-1.594A1.3,1.3,0,0,0,295.245,135.2Z" transform="translate(-122.051 -76.995)" fill="#e0e0e0"/>
        <path id="Path_9127" data-name="Path 9127" d="M303.525,131.639a1,1,0,1,0-1.322.519A1,1,0,0,0,303.525,131.639Z" transform="translate(-127.809 -75.177)" fill="#e0e0e0"/>
        <path id="Path_9128" data-name="Path 9128" d="M235.98,57.015a1.2,1.2,0,0,0-.19-1.265l-3.927-4.6a1.212,1.212,0,0,0-1.935.12,3.75,3.75,0,0,1-2.529,1.575,3.377,3.377,0,0,1-2.631-.588A3.459,3.459,0,0,1,223.5,49.85a3.864,3.864,0,0,1,.822-2.877,4.534,4.534,0,0,1,5.615-.752,1.214,1.214,0,1,0,1.265-2.068,7.006,7.006,0,0,0-8.745,1.265,6.254,6.254,0,0,0-1.385,4.7,5.913,5.913,0,0,0,2.175,4.079,5.837,5.837,0,0,0,4.509,1.062,6.324,6.324,0,0,0,3.162-1.454l3.029,3.541a1.214,1.214,0,0,0,1.707.133A1.189,1.189,0,0,0,235.98,57.015Z" transform="translate(-98.185 -43.16)" fill="#e0e0e0"/>
        <path id="Path_9129" data-name="Path 9129" d="M245.149,68.9a1,1,0,1,0,.139-1.4,1,1,0,0,0-.139,1.4Z" transform="translate(-106.968 -52.025)" fill="#e0e0e0"/>
        <rect id="Rectangle_2062" data-name="Rectangle 2062" width="56.171" height="81.421" transform="translate(218.938 17.2)" fill="#e0e0e0"/>
        <rect id="Rectangle_2063" data-name="Rectangle 2063" width="56.171" height="81.421" transform="translate(216.124 17.2)" fill="#f5f5f5"/>
        <rect id="Rectangle_2064" data-name="Rectangle 2064" width="42.216" height="63.785" transform="translate(223.105 26.014)" fill="#fff"/>
        <path id="Path_9130" data-name="Path 9130" d="M421.744,147.923v-4.711c0-3.061,0-7.512-.038-13.14,0-11.249-.038-27.191-.063-45.934l.139.145H379.566l.152-.158c0,24.067,0,46.25-.032,63.785l-.12-.12,30.726.063h.076l-30.8.07h-.126V83.86h42.506V84c-.032,18.793-.051,34.779-.07,46.022,0,5.615-.032,10.061-.038,13.109v4.363A1.275,1.275,0,0,1,421.744,147.923Z" transform="translate(-156.424 -58.124)" fill="#e0e0e0"/>
        <path id="Path_9131" data-name="Path 9131" d="M453.157,70.36a9.849,9.849,0,0,1-1,1.454c-.632.873-1.581,2.061-2.637,3.345s-2.042,2.416-2.776,3.225a9.32,9.32,0,0,1-1.265,1.265,10.539,10.539,0,0,1,1.069-1.4l2.706-3.282,2.7-3.282A10.62,10.62,0,0,1,453.157,70.36Z" transform="translate(-180.703 -53.16)" fill="#e0e0e0"/>
        <path id="Path_9132" data-name="Path 9132" d="M446.68,184.85a52.163,52.163,0,0,0,7.361,9.207" transform="translate(-181.145 -95.253)" fill="#fff"/>
        <path id="Path_9133" data-name="Path 9133" d="M454.052,194.057a7.994,7.994,0,0,1-1.265-1.17,41.117,41.117,0,0,1-2.776-3.13,39.548,39.548,0,0,1-2.447-3.4,7.885,7.885,0,0,1-.854-1.5,11.091,11.091,0,0,1,1.031,1.385c.632.873,1.492,2.061,2.529,3.332s1.979,2.378,2.694,3.162a12.2,12.2,0,0,1,1.088,1.328Z" transform="translate(-181.156 -95.253)" fill="#e0e0e0"/>
        <path id="Path_9134" data-name="Path 9134" d="M368.53,193.721l7.354-9.081" transform="translate(-152.413 -95.176)" fill="#fff"/>
        <path id="Path_9135" data-name="Path 9135" d="M375.884,184.66a53.81,53.81,0,0,1-3.56,4.635,56.654,56.654,0,0,1-3.794,4.426,52.685,52.685,0,0,1,3.56-4.635,56.642,56.642,0,0,1,3.794-4.426Z" transform="translate(-152.413 -95.183)" fill="#e0e0e0"/>
        <path id="Path_9136" data-name="Path 9136" d="M368.54,70.36a52.559,52.559,0,0,1,3.573,4.268,52.587,52.587,0,0,1,3.332,4.426,49.678,49.678,0,0,1-3.573-4.268,50.984,50.984,0,0,1-3.332-4.426Z" transform="translate(-152.416 -53.16)" fill="#e0e0e0"/>
        <rect id="Rectangle_2065" data-name="Rectangle 2065" width="14.133" height="40.135" transform="translate(238.028 38.965)" fill="#e0e0e0"/>
        <rect id="Rectangle_2066" data-name="Rectangle 2066" width="4.496" height="22.36" transform="matrix(1, -0.005, 0.005, 1, 54.085, 20.798)" fill="#e0e0e0"/>
        <rect id="Rectangle_2067" data-name="Rectangle 2067" width="11.635" height="12.343" transform="matrix(1, -0.005, 0.005, 1, 15.152, 20.895)" fill="#ebebeb"/>
        <rect id="Rectangle_2068" data-name="Rectangle 2068" width="11.635" height="12.343" transform="matrix(1, -0.005, 0.005, 1, 26.736, 20.833)" fill="#f5f5f5"/>
        <path id="Path_9137" data-name="Path 9137" d="M50.689,81.387q11.6.095,23.22-.107a.126.126,0,0,0,0-.247c-7.74-.025-15.474-.025-23.22.145a.1.1,0,0,0,0,.209Z" transform="translate(-35.519 -57.08)" fill="#e0e0e0"/>
        <rect id="Rectangle_2069" data-name="Rectangle 2069" width="21.146" height="10.061" transform="matrix(1, -0.005, 0.005, 1, 7.902, 33.088)" fill="#ebebeb"/>
        <rect id="Rectangle_2070" data-name="Rectangle 2070" width="21.146" height="10.061" transform="matrix(1, -0.005, 0.005, 1, 28.939, 32.974)" fill="#f5f5f5"/>
        <path id="Path_9138" data-name="Path 9138" d="M39.209,99.623c14.044.158,28.139,0,42.184-.209a.126.126,0,0,0,0-.247c-14.044-.076-28.146-.063-42.184.247a.1.1,0,0,0,0,.209Z" transform="translate(-31.299 -63.737)" fill="#e0e0e0"/>
        <rect id="Rectangle_2071" data-name="Rectangle 2071" width="81.914" height="3.604" transform="translate(0 43.151)" fill="#e0e0e0"/>
        <rect id="Rectangle_2072" data-name="Rectangle 2072" width="3.326" height="12.299" transform="translate(13.412 44.884)" fill="#e0e0e0"/>
        <rect id="Rectangle_2073" data-name="Rectangle 2073" width="3.326" height="12.299" transform="translate(63.051 44.884)" fill="#e0e0e0"/>
        <rect id="Rectangle_2074" data-name="Rectangle 2074" width="4.496" height="30.757" transform="matrix(1, -0.005, 0.005, 1, 58.466, 12.459)" fill="#ebebeb"/>
        <rect id="Rectangle_2075" data-name="Rectangle 2075" width="6.981" height="24.921" transform="matrix(1, -0.005, 0.005, 1, 62.999, 18.202)" fill="#f5f5f5"/>
        <path id="Path_9139" data-name="Path 9139" d="M133.291,79.4a24.852,24.852,0,0,1-3.491.12,24.853,24.853,0,0,1-3.491-.12,24.852,24.852,0,0,1,3.491-.12A24.852,24.852,0,0,1,133.291,79.4Z" transform="translate(-63.36 -56.434)" fill="#e0e0e0"/>
        <path id="Path_9140" data-name="Path 9140" d="M133.291,77.742a24.238,24.238,0,0,1-3.491.126,24.236,24.236,0,0,1-3.491-.126,26.058,26.058,0,0,1,3.491-.12A26.058,26.058,0,0,1,133.291,77.742Z" transform="translate(-63.36 -55.825)" fill="#e0e0e0"/>
        <path id="Path_9141" data-name="Path 9141" d="M133.291,105.291a24.853,24.853,0,0,1-3.491.12,24.853,24.853,0,0,1-3.491-.12,24.851,24.851,0,0,1,3.491-.12,24.851,24.851,0,0,1,3.491.12Z" transform="translate(-63.36 -65.953)" fill="#e0e0e0"/>
        <path id="Path_9142" data-name="Path 9142" d="M133.291,103.632a24.237,24.237,0,0,1-3.491.126,24.24,24.24,0,0,1-3.491-.126,26.06,26.06,0,0,1,3.491-.12,26.058,26.058,0,0,1,3.491.12Z" transform="translate(-63.36 -65.344)" fill="#e0e0e0"/>
        <path id="Path_9143" data-name="Path 9143" d="M131.93,93.57c-.063,0-.12-2.529-.12-5.615s.057-5.615.12-5.615.12,2.529.12,5.615S132.006,93.57,131.93,93.57Z" transform="translate(-65.382 -57.565)" fill="#e0e0e0"/>
        <rect id="Rectangle_2076" data-name="Rectangle 2076" width="7.601" height="18.812" transform="translate(70.007 24.288)" fill="#ebebeb"/>
        <path id="Path_9144" data-name="Path 9144" d="M123.239,70.4a1.265,1.265,0,1,1-1.265-1.265A1.265,1.265,0,0,1,123.239,70.4Z" transform="translate(-61.301 -52.712)" fill="#e0e0e0"/>
        <rect id="Rectangle_2077" data-name="Rectangle 2077" width="0.797" height="18.294" transform="translate(60.25 21.247)" fill="#e0e0e0"/>
      </g>
      <g id="freepik--Floor--inject-112" transform="translate(32.603 312.823)">
        <path id="Path_9145" data-name="Path 9145" d="M306.645,478.714c0,.095-60.592.164-135.322.164S36,478.835,36,478.714s60.579-.164,135.322-.164S306.645,478.626,306.645,478.714Z" transform="translate(-36 -478.55)" fill="#263238"/>
      </g>
      <g id="freepik--Character--inject-112" transform="translate(63.126 57.979)">
        <rect id="Rectangle_2078" data-name="Rectangle 2078" width="183.514" height="5.875" transform="translate(0 103.555)" fill="#e0e0e0"/>
        <path id="Path_9146" data-name="Path 9146" d="M107.137,394.024,101.18,394V247.37h5.957Z" transform="translate(-90.487 -138.712)" fill="#e0e0e0"/>
        <path id="Path_9147" data-name="Path 9147" d="M357.184,394.011H351.17l.057-146.641h5.957Z" transform="translate(-182.396 -138.712)" fill="#e0e0e0"/>
        <path id="Path_9148" data-name="Path 9148" d="M196.73,153.86s32.756,34.318,32.18,41.937-7.911,9.264-10.3,8.967S198.2,184.415,198.2,184.415Z" transform="translate(-125.616 -104.333)" fill="#1e64cc"/>
        <g id="Group_3675" data-name="Group 3675" transform="translate(71.114 49.527)" opacity="0.4">
          <path id="Path_9149" data-name="Path 9149" d="M196.73,153.86s32.756,34.318,32.18,41.937-7.911,9.264-10.3,8.967S198.2,184.415,198.2,184.415Z" transform="translate(-196.73 -153.86)"/>
        </g>
        <path id="Path_9150" data-name="Path 9150" d="M224.33,420.289,233.214,450l9.978-5.419-5.672-27.2Z" transform="translate(-135.763 -201.217)" fill="#ffbe9d"/>
        <path id="Path_9151" data-name="Path 9151" d="M244.351,439.72l3.054,14.089s15.328,1.619,16.144,4.161l-27.058,6.886L230.8,443.135Z" transform="translate(-138.142 -209.43)" fill="#1e64cc"/>
        <path id="Path_9152" data-name="Path 9152" d="M243.041,463.417a1.138,1.138,0,0,0-.443,1.454,1.088,1.088,0,0,0,1.435.449,1.2,1.2,0,0,0,.462-1.543,1.138,1.138,0,0,0-1.549-.3" transform="translate(-142.441 -218.097)" fill="#e0e0e0"/>
        <g id="Group_3676" data-name="Group 3676" transform="translate(97.843 247.433)" opacity="0.4">
          <path id="Path_9153" data-name="Path 9153" d="M239.506,474.823,239,472.629l26.129-5.8s1.334.221,1.416,1.1Z" transform="translate(-239 -466.83)"/>
        </g>
        <path id="Path_9154" data-name="Path 9154" d="M256.476,461.538c.032.133-.632.36-1.157.955s-.746,1.233-.879,1.208-.133-.835.531-1.537S256.476,461.412,256.476,461.538Z" transform="translate(-146.808 -217.432)" fill="#263238"/>
        <path id="Path_9155" data-name="Path 9155" d="M261.852,462.262c.063.12-.449.493-.759,1.164s-.285,1.3-.417,1.328-.4-.7,0-1.53S261.821,462.136,261.852,462.262Z" transform="translate(-149.048 -217.707)" fill="#263238"/>
        <path id="Path_9156" data-name="Path 9156" d="M266.378,465.524c-.114.057-.462-.556-.31-1.366s.7-1.265.784-1.157-.2.582-.316,1.265S266.511,465.48,266.378,465.524Z" transform="translate(-151.095 -217.984)" fill="#263238"/>
        <path id="Path_9157" data-name="Path 9157" d="M254.383,456.491c0,.139-.683.108-1.416.348s-1.265.632-1.353.531.341-.708,1.214-.98S254.446,456.37,254.383,456.491Z" transform="translate(-145.79 -215.514)" fill="#263238"/>
        <path id="Path_9158" data-name="Path 9158" d="M252.364,451.359a2.592,2.592,0,0,1-1.36.341,6.229,6.229,0,0,1-1.53-.076,5.233,5.233,0,0,1-.879-.215,1.662,1.662,0,0,1-.493-.209.594.594,0,0,1-.24-.689.74.74,0,0,1,.5-.449,1.859,1.859,0,0,1,.531-.063,5.254,5.254,0,0,1,.911.076,4.82,4.82,0,0,1,1.461.5c.778.424,1.119.86,1.081.9s-.462-.278-1.22-.594a5.766,5.766,0,0,0-1.385-.373,5.22,5.22,0,0,0-.841-.038c-.3,0-.55.057-.588.2s0,.076.07.145a1.3,1.3,0,0,0,.36.158,7.159,7.159,0,0,0,.816.221,8.052,8.052,0,0,0,1.442.171A10.669,10.669,0,0,1,252.364,451.359Z" transform="translate(-144.403 -213.209)" fill="#263238"/>
        <path id="Path_9159" data-name="Path 9159" d="M254.263,449.858c-.038.032-.424-.373-.689-1.214a4.5,4.5,0,0,1-.2-1.53,4.786,4.786,0,0,1,.133-.917,1.176,1.176,0,0,1,.7-.9.632.632,0,0,1,.632.234,1.86,1.86,0,0,1,.266.462,2.884,2.884,0,0,1,.234.917,3.162,3.162,0,0,1-.221,1.543c-.348.841-.86,1.138-.879,1.094a11.2,11.2,0,0,0,.563-1.2,3.251,3.251,0,0,0,.108-1.385,2.946,2.946,0,0,0-.228-.778c-.114-.278-.285-.481-.379-.424a1.043,1.043,0,0,0-.36.563,4.352,4.352,0,0,0-.152.822,5.015,5.015,0,0,0,.082,1.416C254.06,449.364,254.332,449.82,254.263,449.858Z" transform="translate(-146.441 -211.474)" fill="#263238"/>
        <path id="Path_9160" data-name="Path 9160" d="M186.2,284.357c.329,1.315,23.523,95.959,23.523,95.959l21.063-6.361L210.9,278.09Z" transform="translate(-121.745 -150.006)" fill="#263238"/>
        <path id="Path_9161" data-name="Path 9161" d="M179.109,89.561l-3.68,28.279a8.486,8.486,0,0,0,7.734,9.548h0a8.486,8.486,0,0,0,9.093-7.373c.272-2.131.506-3.9.55-4.123,0,0,7.291.266,8.733-6.791.7-3.415,1.568-10.554,2.283-17.023a13.418,13.418,0,0,0-10.813-14.639l-.683-.133C184.883,76.32,179.893,82.093,179.109,89.561Z" transform="translate(-117.759 -76.147)" fill="#ffbe9d"/>
        <path id="Path_9162" data-name="Path 9162" d="M197.93,135.666a16.8,16.8,0,0,1-8.72-4.426s1.2,5.508,8.385,6.229Z" transform="translate(-122.851 -96.017)" fill="#eb996e"/>
        <path id="Path_9163" data-name="Path 9163" d="M216,106.4a1.031,1.031,0,0,1-1.17.828.986.986,0,0,1-.835-1.113,1.024,1.024,0,0,1,1.17-.828A.986.986,0,0,1,216,106.4Z" transform="translate(-131.96 -86.468)" fill="#263238"/>
        <path id="Path_9164" data-name="Path 9164" d="M214.936,104.239c-.145.107-.8-.632-1.9-.809s-1.992.183-2.08,0,.126-.285.519-.468a2.864,2.864,0,0,1,1.7-.183,2.662,2.662,0,0,1,1.473.809C214.942,103.935,215.012,104.195,214.936,104.239Z" transform="translate(-130.84 -85.532)" fill="#263238"/>
        <path id="Path_9165" data-name="Path 9165" d="M198.687,103.94a1.037,1.037,0,0,1-1.176.835.986.986,0,0,1-.866-1.113,1.031,1.031,0,0,1,1.17-.828.986.986,0,0,1,.873,1.107Z" transform="translate(-125.582 -85.568)" fill="#263238"/>
        <path id="Path_9166" data-name="Path 9166" d="M197.741,101.539c-.152.107-.809-.632-1.9-.809s-1.992.183-2.087,0,.126-.278.525-.468a2.839,2.839,0,0,1,1.695-.183,2.726,2.726,0,0,1,1.48.809C197.747,101.235,197.817,101.494,197.741,101.539Z" transform="translate(-124.515 -84.54)" fill="#263238"/>
        <path id="Path_9167" data-name="Path 9167" d="M203.74,111.445a7.279,7.279,0,0,1,1.828,0c.278,0,.556,0,.632-.164a1.467,1.467,0,0,0,0-.854l-.417-2.276A37.559,37.559,0,0,1,205,102.27a37.921,37.921,0,0,1,1.265,5.8c.126.8.253,1.556.373,2.283a1.625,1.625,0,0,1-.063,1.113.721.721,0,0,1-.538.322,2.275,2.275,0,0,1-.481,0A7.929,7.929,0,0,1,203.74,111.445Z" transform="translate(-128.193 -85.366)" fill="#263238"/>
        <path id="Path_9168" data-name="Path 9168" d="M198.3,98.163c-.164.278-1.22-.07-2.529-.164s-2.4.057-2.529-.24c-.057-.139.177-.386.632-.588a4.167,4.167,0,0,1,1.96-.291,4.218,4.218,0,0,1,1.9.594C198.184,97.759,198.38,98.03,198.3,98.163Z" transform="translate(-124.332 -83.377)" fill="#263238"/>
        <path id="Path_9169" data-name="Path 9169" d="M215.926,97.97c-.24.209-.942-.2-1.84-.379s-1.695-.152-1.821-.443c-.051-.139.114-.367.493-.537a2.725,2.725,0,0,1,2.947.632C215.977,97.59,216.034,97.862,215.926,97.97Z" transform="translate(-131.324 -83.215)" fill="#263238"/>
        <path id="Path_9170" data-name="Path 9170" d="M177.455,104.857c-.114-.076-4.585-2.371-5.362,2.491s4.268,4.641,4.3,4.5S177.455,104.857,177.455,104.857Z" transform="translate(-116.528 -86.094)" fill="#ffbe9d"/>
        <path id="Path_9171" data-name="Path 9171" d="M175.921,110.673a1.523,1.523,0,0,1-.247.089.822.822,0,0,1-.632-.089,2.1,2.1,0,0,1-.67-2.036,2.82,2.82,0,0,1,.43-1.176.974.974,0,0,1,.74-.544.436.436,0,0,1,.462.31.418.418,0,0,1,0,.253c0,.013.114-.07.107-.272a.569.569,0,0,0-.145-.341.689.689,0,0,0-.449-.2,1.214,1.214,0,0,0-1.005.632,2.9,2.9,0,0,0-.506,1.309,2.231,2.231,0,0,0,.9,2.3.949.949,0,0,0,.8,0C175.89,110.78,175.94,110.673,175.921,110.673Z" transform="translate(-117.252 -86.983)" fill="#eb996e"/>
        <path id="Path_9172" data-name="Path 9172" d="M176.383,93.618a2.593,2.593,0,0,1,2.1,1.644c.183.746.1,1.543.278,2.3s.771,1.511,1.543,1.48a1.524,1.524,0,0,0,1.22-.911,4.193,4.193,0,0,0,.316-1.556c.145-2.314.1-4.648.449-6.956a11.85,11.85,0,0,1,2.694-6.323A6.467,6.467,0,0,1,191.25,81.2c1.48.4,2.706,1.454,4.161,1.954a6.014,6.014,0,0,0,5.223-.7,1.618,1.618,0,0,1,.266-.139,1.322,1.322,0,0,0,.753-1.423,1.214,1.214,0,0,0-.2-.519c-2.435-3.288-7.626-5.059-11.724-4.825a14.389,14.389,0,0,0-10.693,5.634c-2.39,3.345-2.871,8.537-2.656,12.426" transform="translate(-118.119 -75.537)" fill="#263238"/>
        <path id="Path_9173" data-name="Path 9173" d="M205.472,121.364a7.677,7.677,0,0,1-2.972-1.094,3.851,3.851,0,0,1,1.543.392A3.9,3.9,0,0,1,205.472,121.364Z" transform="translate(-127.738 -91.983)" fill="#263238"/>
        <path id="Path_9174" data-name="Path 9174" d="M210.928,130.619a3.093,3.093,0,0,1-.6,1.315,7.38,7.38,0,0,1-2.643,2.276,12.457,12.457,0,0,1-3.295,1.126,5.014,5.014,0,0,1-1.429.183,8.582,8.582,0,0,1,1.372-.411,16.144,16.144,0,0,0,3.2-1.189,8.094,8.094,0,0,0,2.605-2.125C210.675,131.106,210.877,130.594,210.928,130.619Z" transform="translate(-127.907 -95.788)" fill="#eb996e"/>
        <path id="Path_9175" data-name="Path 9175" d="M207.324,136.33c-1.714.854-2.972,3.162-4.06,4.692a3.737,3.737,0,0,0-.771,1.511,3.51,3.51,0,0,0,.31,1.764c.31.841.632,1.669,1.012,2.491.1.24.234.5.487.556s.582-.24.715-.537a8.744,8.744,0,0,0,.4-2.378,2.472,2.472,0,0,1,1.189-1.986" transform="translate(-127.73 -97.888)" fill="#eb996e"/>
        <path id="Path_9176" data-name="Path 9176" d="M210.91,142.4l-1.663-1.265a.5.5,0,0,0-.7.057l-.885,1.024h0l.468,2.586c.544,3.32-1.9,2.8-1.9,2.8l-.2-.632-1.081-4.047a3.806,3.806,0,0,1,.879-3.56l2.061-2.947a1.657,1.657,0,0,1,1.954-.632c2.959,1.094,9.34,3.067,10.061,5.577,1.309,4.566,2.365,16.22,2.384,16.441h0l-9.036.841h0l.044-7.772a4.053,4.053,0,0,1-1.695-2.137,58.184,58.184,0,0,1-.7-6.323" transform="translate(-128.61 -97.651)" fill="#ffbe9d"/>
        <path id="Path_9177" data-name="Path 9177" d="M218.766,146.576a1.693,1.693,0,0,1-.341.367,2.89,2.89,0,0,1-1.227.632,2.232,2.232,0,0,1-.98,0,1.752,1.752,0,0,1-.961-.632c-.531-.632-.632-1.53-1.075-2.182a4.231,4.231,0,0,0-.93-.765,8.992,8.992,0,0,0-1.012-.563,1.821,1.821,0,0,0-.923-.259,1.9,1.9,0,0,0-.733.436c-.816.752-1.265,1.322-1.309,1.265s.082-.158.272-.417a9.107,9.107,0,0,1,.879-1.031,2.055,2.055,0,0,1,.835-.525.8.8,0,0,1,.3,0,2,2,0,0,1,.278.07,3.327,3.327,0,0,1,.525.2,7.423,7.423,0,0,1,1.056.563,4.192,4.192,0,0,1,1.024.841c.531.771.594,1.65,1.043,2.188a1.726,1.726,0,0,0,1.663.569,3.162,3.162,0,0,0,1.2-.493C218.583,146.664,218.747,146.557,218.766,146.576Z" transform="translate(-130.225 -100.299)" fill="#eb996e"/>
        <path id="Path_9178" data-name="Path 9178" d="M219.846,152.233a11.623,11.623,0,0,1-4.926-1.423,15.234,15.234,0,0,1,2.479.67,15.552,15.552,0,0,1,2.447.753Z" transform="translate(-132.304 -103.212)" fill="#eb996e"/>
        <path id="Path_9179" data-name="Path 9179" d="M213.377,146.348c-2.365,0-2.643-.107-5.318.038a3.882,3.882,0,0,0-1.176.19,1.265,1.265,0,0,0-.809.822c-.183.734.556,1.4,1.265,1.568s1.518.038,2.251.209a4.945,4.945,0,0,1,2.966,1.739c1.543,2.182,3.162,1.132,4.211,1.9l2.757-1.745-.974-4.072-5.2-.632" transform="translate(-129.041 -101.557)" fill="#ffbe9d"/>
        <path id="Path_9180" data-name="Path 9180" d="M217.08,152.763a3,3,0,0,0-.752-.234,6.886,6.886,0,0,1-2.188-.386,3.529,3.529,0,0,1-1.2-.993,4.136,4.136,0,0,0-1.22-1.163,6.215,6.215,0,0,0-1.733-.7,15.265,15.265,0,0,0-2.042-.177,1.973,1.973,0,0,1-1.726-1.265,1.113,1.113,0,0,1,.266-1.062,1.745,1.745,0,0,1,.879-.512,11.3,11.3,0,0,1,1.771-.145h1.524c.936,0,1.682.063,2.2.089a4.212,4.212,0,0,1,.809.063,3.218,3.218,0,0,1-.809.063h-2.2a14.166,14.166,0,0,0-1.511.057,10.6,10.6,0,0,0-1.707.164c-.538.114-1.088.632-.911,1.189a1.663,1.663,0,0,0,1.461,1.012,14.544,14.544,0,0,1,2.074.19,6.323,6.323,0,0,1,1.821.759,4.249,4.249,0,0,1,1.265,1.265,3.339,3.339,0,0,0,1.094.955,7.836,7.836,0,0,0,2.106.468,1.644,1.644,0,0,1,.575.221C217.036,152.706,217.087,152.751,217.08,152.763Z" transform="translate(-129.089 -101.491)" fill="#eb996e"/>
        <path id="Path_9181" data-name="Path 9181" d="M217.22,143.429c0-.038.171-.07.417.038a1.081,1.081,0,0,1,.253,1.777c-.2.177-.373.19-.392.152s.1-.126.221-.3a1.138,1.138,0,0,0,.2-.759,1.075,1.075,0,0,0-.4-.632C217.353,143.53,217.214,143.48,217.22,143.429Z" transform="translate(-133.149 -100.485)" fill="#eb996e"/>
        <path id="Path_9182" data-name="Path 9182" d="M218.884,311.08,207.35,339.871l11.193,1.967,12.483-24.832Z" transform="translate(-129.521 -162.135)" fill="#ffbe9d"/>
        <path id="Path_9183" data-name="Path 9183" d="M223.739,338.974l-6.323,12.919s10.99,10.794,10.048,13.279L201.98,353.746l9.074-20.526Z" transform="translate(-127.546 -170.275)" fill="#1e64cc"/>
        <path id="Path_9184" data-name="Path 9184" d="M213.924,355.413a1.132,1.132,0,0,0-1.265.86,1.094,1.094,0,0,0,.841,1.265,1.2,1.2,0,0,0,1.322-.923,1.132,1.132,0,0,0-1.024-1.2" transform="translate(-131.466 -178.43)" fill="#e0e0e0"/>
        <g id="Group_3677" data-name="Group 3677" transform="translate(74.408 181.422)" opacity="0.4">
          <path id="Path_9185" data-name="Path 9185" d="M201.94,364.508l.917-2.068L227,374.176s.911,1,.424,1.745Z" transform="translate(-201.94 -362.44)"/>
        </g>
        <path id="Path_9186" data-name="Path 9186" d="M225.375,362.558c-.057.126-.708-.095-1.5.032s-1.353.5-1.442.4.411-.734,1.372-.873S225.45,362.457,225.375,362.558Z" transform="translate(-135.063 -180.889)" fill="#263238"/>
        <path id="Path_9187" data-name="Path 9187" d="M229.079,366.363c0,.133-.632.1-1.315.436s-1.031.841-1.151.778.114-.8.942-1.2S229.13,366.243,229.079,366.363Z" transform="translate(-136.592 -182.386)" fill="#263238"/>
        <path id="Path_9188" data-name="Path 9188" d="M230.644,371.589c-.126,0,0-.721.632-1.265s1.334-.55,1.341-.424-.519.329-1.024.778S230.771,371.633,230.644,371.589Z" transform="translate(-138.069 -183.736)" fill="#263238"/>
        <path id="Path_9189" data-name="Path 9189" d="M227.286,357.2c-.1.089-.594-.341-1.322-.632s-1.372-.291-1.385-.43.708-.341,1.556,0S227.375,357.127,227.286,357.2Z" transform="translate(-135.855 -178.633)" fill="#263238"/>
        <path id="Path_9190" data-name="Path 9190" d="M228.926,351.7a2.668,2.668,0,0,1-1.265-.582,6.158,6.158,0,0,1-1.151-1.005,6.028,6.028,0,0,1-.556-.721,1.581,1.581,0,0,1-.253-.474.582.582,0,0,1,.24-.683.746.746,0,0,1,.67-.044,1.966,1.966,0,0,1,.449.285,5.4,5.4,0,0,1,.677.632,4.939,4.939,0,0,1,.828,1.3,2.27,2.27,0,0,1,.285,1.372c-.076,0-.19-.506-.588-1.227a5.337,5.337,0,0,0-.847-1.151,6.111,6.111,0,0,0-.632-.556c-.24-.19-.468-.3-.588-.2s-.057.051-.038.152a1.334,1.334,0,0,0,.183.348,8.392,8.392,0,0,0,.5.689,8.221,8.221,0,0,0,1.024,1.024C228.49,351.379,228.958,351.626,228.926,351.7Z" transform="translate(-136.256 -175.755)" fill="#263238"/>
        <path id="Path_9191" data-name="Path 9191" d="M230.412,351.807a2.22,2.22,0,0,1,.215-1.379,4.491,4.491,0,0,1,.8-1.322,4.593,4.593,0,0,1,.67-.632,1.17,1.17,0,0,1,1.107-.278.677.677,0,0,1,.373.594,1.9,1.9,0,0,1-.082.531,3.118,3.118,0,0,1-.379.86,3.352,3.352,0,0,1-1.138,1.075,1.815,1.815,0,0,1-1.372.3,12.274,12.274,0,0,0,1.2-.588,3.313,3.313,0,0,0,.942-1.024,3.023,3.023,0,0,0,.3-.746c.082-.285.076-.55-.038-.569a.828.828,0,0,0-.632.215,4.859,4.859,0,0,0-.632.55,5.1,5.1,0,0,0-.816,1.164C230.564,351.3,230.488,351.852,230.412,351.807Z" transform="translate(-137.989 -175.766)" fill="#263238"/>
        <path id="Path_9192" data-name="Path 9192" d="M171.661,245.443l35.513-17.377a15.739,15.739,0,0,1,18.49,3.459h0a15.745,15.745,0,0,1,2.586,17.56l-23.561,48.45-19.71-6.235,17.333-36.929-19.5,14.86a30.643,30.643,0,0,1-18.306,6.26l-5.109.044A24.516,24.516,0,0,1,138.95,262.89h0Z" transform="translate(-104.373 -131.025)" fill="#263238"/>
        <path id="Path_9193" data-name="Path 9193" d="M222.5,313.454a1.131,1.131,0,0,1-.367-.095l-1.043-.31-3.977-1.214-14.367-4.471-.139-.044.063-.139c3.478-7.436,7.816-16.7,12.5-26.723,1.663-3.528,3.276-6.956,4.806-10.219l.24.2c-8.941,6.665-16.947,12.2-22.853,15.84a61.929,61.929,0,0,1-7.146,3.908,11.176,11.176,0,0,1-2.074.7,3.011,3.011,0,0,1-.563.076h-.19a2.987,2.987,0,0,0,.74-.139,12.52,12.52,0,0,0,2.042-.746,66.315,66.315,0,0,0,7.082-3.984c5.868-3.687,13.842-9.251,22.765-15.916l.519-.386-.272.582c-1.53,3.257-3.162,6.69-4.793,10.219-4.711,10.016-9.068,19.268-12.565,26.7l-.082-.183,14.329,4.578,3.958,1.265,1.031.348Z" transform="translate(-122.182 -146.955)" fill="#455a64"/>
        <path id="Path_9194" data-name="Path 9194" d="M245.732,257.92a20.793,20.793,0,0,0-4.091,3.522,20.456,20.456,0,0,0-2.751,4.648,5.261,5.261,0,0,1,.468-1.537,13.172,13.172,0,0,1,4.939-5.9,5.18,5.18,0,0,1,1.435-.734Z" transform="translate(-141.116 -142.591)" fill="#455a64"/>
        <path id="Path_9195" data-name="Path 9195" d="M129.889,366.34H180.97a1.309,1.309,0,0,1,1.315,1.265h0a1.322,1.322,0,0,1-1.315,1.353H129.889a1.315,1.315,0,0,1-1.309-1.315h0a1.309,1.309,0,0,1,1.309-1.3Z" transform="translate(-100.561 -182.452)" fill="#e0e0e0"/>
        <path id="Path_9196" data-name="Path 9196" d="M177.578,310.41H137.62a7.74,7.74,0,0,1,7.74-7.74h24.472A7.74,7.74,0,0,1,177.578,310.41Z" transform="translate(-103.884 -159.043)" fill="#455a64"/>
        <rect id="Rectangle_2079" data-name="Rectangle 2079" width="42.152" height="2.346" transform="translate(32.794 151.367)" fill="#e0e0e0"/>
        <path id="Path_9197" data-name="Path 9197" d="M136.067,318.63,125.76,420.223h2.428L140.766,318.63Z" transform="translate(-99.524 -164.911)" fill="#e0e0e0"/>
        <path id="Path_9198" data-name="Path 9198" d="M193.632,318.63l10.3,101.542-2.422.013L188.94,318.668Z" transform="translate(-122.752 -164.911)" fill="#e0e0e0"/>
        <path id="Path_9199" data-name="Path 9199" d="M170.572,317.048l-1.739,102.485h-2.485L165.26,316.77Z" transform="translate(-114.046 -164.227)" fill="#e0e0e0"/>
        <path id="Path_9200" data-name="Path 9200" d="M172.38,136.651l2.5-7.6,16.523,7.645-.759,8.043-8.233,2.34-8.081-4.951Z" transform="translate(-116.664 -95.211)" fill="#1e64cc"/>
        <path id="Path_9201" data-name="Path 9201" d="M137.653,230.68a5.489,5.489,0,0,1-2.314-4.61c0-3.048,2.719-3.3,2.808-4.989.9-17.421,2.877-53.509,4.18-64.9,1.638-14.354,18.458-17.383,18.458-17.383l13.88,3.408v1.05c4.806,6.178,6.886,15.493,6.893,23.321l-.632,41.469Z" transform="translate(-103.045 -98.796)" fill="#1e64cc"/>
        <path id="Path_9202" data-name="Path 9202" d="M154.306,247.37a4.719,4.719,0,0,1-.519.708c-.341.443-.866,1.069-1.524,1.827-1.315,1.524-3.206,3.566-5.432,5.691s-4.351,3.921-5.931,5.16c-.8.632-1.442,1.113-1.9,1.442a4.1,4.1,0,0,1-.734.481,4.286,4.286,0,0,1,.632-.582l1.827-1.518c1.543-1.265,3.642-3.1,5.856-5.223s4.129-4.123,5.489-5.6l1.6-1.764A4.217,4.217,0,0,1,154.306,247.37Z" transform="translate(-104.123 -138.712)" fill="#263238"/>
        <g id="Group_3678" data-name="Group 3678" transform="translate(36.505 109.986)" opacity="0.2">
          <path id="Path_9203" data-name="Path 9203" d="M142,261.712c.051-2.624,2.017-4.787,3.965-6.551a64.08,64.08,0,0,1,7.247-5.691c.126,1.265-.746,2.422-1.594,3.4a68.35,68.35,0,0,1-9.409,8.884" transform="translate(-142 -249.47)"/>
        </g>
        <path id="Path_9204" data-name="Path 9204" d="M180.43,136.573a7.72,7.72,0,0,1,.512-2.207,7.828,7.828,0,0,1,.822-2.106,7.72,7.72,0,0,1-.512,2.207A8.08,8.08,0,0,1,180.43,136.573Z" transform="translate(-119.623 -96.392)" fill="#263238"/>
        <path id="Path_9205" data-name="Path 9205" d="M190.057,135.67a7.4,7.4,0,0,1-.335,2.194,7.638,7.638,0,0,1-.632,2.118,7.423,7.423,0,0,1,.335-2.194A7.639,7.639,0,0,1,190.057,135.67Z" transform="translate(-122.807 -97.645)" fill="#263238"/>
        <path id="Path_9206" data-name="Path 9206" d="M197.879,139.46a8.638,8.638,0,0,1-.171,1.992,8.853,8.853,0,0,1-.291,1.986,4.818,4.818,0,0,1,0-2.024,4.9,4.9,0,0,1,.462-1.954Z" transform="translate(-125.829 -99.039)" fill="#263238"/>
        <path id="Path_9207" data-name="Path 9207" d="M161.459,203.4a2.776,2.776,0,0,1-.7.051h-1.9c-1.612,0-3.838,0-6.323-.07s-4.692-.107-6.323-.171c-.809,0-1.461-.057-1.9-.089a2.681,2.681,0,0,1-.7-.076,3.383,3.383,0,0,1,.7-.051h1.9c1.612,0,3.838,0,6.323.07s4.692.1,6.323.164l1.9.089A2.6,2.6,0,0,1,161.459,203.4Z" transform="translate(-106.09 -122.398)" fill="#fafafa"/>
        <path id="Path_9208" data-name="Path 9208" d="M158.032,195.025c0,.095-3.162.095-7.082,0s-7.07-.221-7.07-.316,3.162-.095,7.076,0S158.032,194.936,158.032,195.025Z" transform="translate(-106.186 -119.325)" fill="#fafafa"/>
        <g id="Group_3679" data-name="Group 3679" transform="translate(45.833 67.524)" opacity="0.2">
          <path id="Path_9209" data-name="Path 9209" d="M156.75,182.32a172.589,172.589,0,0,0,18.433,30.656c1.853,2.529,3.838,5.059,6.513,6.633s4.426,1.157,7.127-.455a16.923,16.923,0,0,1-6.323-3.092,30.252,30.252,0,0,1-6.38-6.81c-6.323-8.7-12.5-17.661-18.831-26.363" transform="translate(-156.75 -182.32)"/>
        </g>
        <path id="Path_9210" data-name="Path 9210" d="M239.92,205.189a6.146,6.146,0,0,1,.588-2.106,2.087,2.087,0,0,1,1.745-1.163,1.265,1.265,0,0,1,1.265,1.435,3.162,3.162,0,0,1-.7,1.075c-.8,1.1-.727,2.586-.721,3.946s-.164,2.915-1.265,3.731" transform="translate(-141.495 -122.002)" fill="#ffbe9d"/>
        <path id="Path_9211" data-name="Path 9211" d="M157.728,155.685a11.483,11.483,0,0,0-2.567,16.359l23.106,30.429a17.32,17.32,0,0,0,21.342,5h0a17.326,17.326,0,0,0,9.675-16.485l-5.09-32-12.432.771,1.176,26.059L173.7,158.487A11.49,11.49,0,0,0,157.728,155.685Z" transform="translate(-109.473 -104.242)" fill="#1e64cc"/>
        <path id="Path_9212" data-name="Path 9212" d="M233.365,220.481c-3.061-.715-3.579-1.265-6.633-1.954-.911-.215-2.08-.8-1.676-1.771a1.309,1.309,0,0,1,1.3-.759c1.189.1,3.1.809,4.256.917.285,0,.278-.259.152-.455a36.1,36.1,0,0,0-5.691-1.227,1.4,1.4,0,0,1-.7-2.479,2.194,2.194,0,0,1,.816-.234c1.227.177,1.227.177,2.529.4,3.661.632,3.162-.089,3.162-.089,0-.278-4.167-.683-6.323-.942a1.859,1.859,0,0,1-1.265-.481,1.214,1.214,0,0,1,.145-1.524,2.137,2.137,0,0,1,1.473-.74c2.384-.044,10.212.828,10.212.828a6.3,6.3,0,0,1,.708,4.243A16.029,16.029,0,0,1,233.365,220.481Z" transform="translate(-135.307 -124.66)" fill="#ffbe9d"/>
        <path id="Path_9213" data-name="Path 9213" d="M196.4,208.232a1.612,1.612,0,0,0-.329.051l-.974.1c-.86.076-2.125.2-3.794.215a18.3,18.3,0,0,1-5.893-.816,16.612,16.612,0,0,1-6.507-4.426A86.37,86.37,0,0,1,172.8,196c-2.08-2.738-4.256-5.691-6.52-8.821s-4.6-6.437-7.013-9.884l-3.649-5.267c-.31-.449-.632-.9-.923-1.353l-.443-.7a6.322,6.322,0,0,1-.4-.734,11.186,11.186,0,0,1-1.037-3.193,10.882,10.882,0,0,1-.063-3.358,13.138,13.138,0,0,1,.316-1.638,13.41,13.41,0,0,1,.563-1.556,12.2,12.2,0,0,1,.759-1.454,11.742,11.742,0,0,1,.967-1.315,11.3,11.3,0,0,1,2.384-2.15,12.173,12.173,0,0,1,2.833-1.4,11.756,11.756,0,0,1,3.048-.55,11.578,11.578,0,0,1,5.811,1.265,11.812,11.812,0,0,1,4.243,3.743q1.568,2.251,3.029,4.376l5.438,7.854L190,181.243l2.125,3.1c.234.348.411.632.544.809l.177.285a3.2,3.2,0,0,1-.209-.266l-.569-.79-2.137-3.073L181.96,170l-5.47-7.835-3.048-4.363a11.54,11.54,0,0,0-4.142-3.636,11.313,11.313,0,0,0-8.619-.632,11.875,11.875,0,0,0-2.751,1.366,10.687,10.687,0,0,0-2.321,2.087,11.608,11.608,0,0,0-.936,1.265,11.131,11.131,0,0,0-.734,1.416,11.662,11.662,0,0,0-.55,1.511,12.227,12.227,0,0,0-.31,1.594,11.18,11.18,0,0,0,1.075,6.324,23.084,23.084,0,0,0,1.733,2.751l3.649,5.274c2.4,3.446,4.743,6.753,6.994,9.884s4.426,6.1,6.488,8.853a88.091,88.091,0,0,0,6.058,7.367,16.562,16.562,0,0,0,6.393,4.426,18.42,18.42,0,0,0,5.837.86c1.631,0,2.9-.1,3.756-.158l.974-.063A1.833,1.833,0,0,1,196.4,208.232Z" transform="translate(-109.41 -103.874)" fill="#263238"/>
        <path id="Path_9214" data-name="Path 9214" d="M217.424,213.834a13.431,13.431,0,0,0-1.594-10,4.559,4.559,0,0,1,.892,1.265,10.788,10.788,0,0,1,1.208,3.535,10.909,10.909,0,0,1-.051,3.731,4.579,4.579,0,0,1-.455,1.473Z" transform="translate(-132.638 -122.705)" fill="#263238"/>
        <path id="Path_9215" data-name="Path 9215" d="M218.553,166.7a3.4,3.4,0,0,1-.443-1.707,3.433,3.433,0,0,1,.152-1.758,7.842,7.842,0,0,1,.177,1.733,7.7,7.7,0,0,1,.114,1.733Z" transform="translate(-133.458 -107.778)" fill="#263238"/>
        <path id="Path_9216" data-name="Path 9216" d="M223.937,166.236a5.135,5.135,0,0,1-.443-3.4,7.406,7.406,0,0,1,.253,1.695,7.626,7.626,0,0,1,.19,1.7Z" transform="translate(-135.415 -107.634)" fill="#263238"/>
        <path id="Path_9217" data-name="Path 9217" d="M229.465,165.371a3,3,0,0,1-.24-1.391,3.124,3.124,0,0,1,.089-1.41,3.105,3.105,0,0,1,.24,1.391A3.231,3.231,0,0,1,229.465,165.371Z" transform="translate(-137.547 -107.535)" fill="#263238"/>
        <path id="Path_9218" data-name="Path 9218" d="M186.225,178.189c.051.07-3.87,2.877-8.758,6.267s-8.891,6.077-8.948,6,3.87-2.884,8.758-6.273S186.175,178.113,186.225,178.189Z" transform="translate(-115.244 -113.277)" fill="#fafafa"/>
        <path id="Path_9219" data-name="Path 9219" d="M181.393,170.93a4.313,4.313,0,0,1-.689.531l-1.929,1.353c-1.638,1.138-3.883,2.732-6.323,4.534s-4.616,3.5-6.184,4.724c-.746.588-1.366,1.075-1.859,1.454a4.154,4.154,0,0,1-.708.506,4.162,4.162,0,0,1,.632-.632c.417-.373,1.031-.9,1.8-1.537,1.53-1.265,3.687-3,6.134-4.806s4.717-3.377,6.387-4.471c.835-.544,1.511-.98,1.992-1.265a4.282,4.282,0,0,1,.752-.392Z" transform="translate(-113.473 -110.609)" fill="#fafafa"/>
      </g>
      <g id="freepik--Plant--inject-112" transform="translate(220.02 196.305)">
        <rect id="Rectangle_2080" data-name="Rectangle 2080" width="43.025" height="5.912" transform="translate(19.847 80.538)" fill="#263238"/>
        <path id="Path_9220" data-name="Path 9220" d="M406.82,427.588H363.65V421.53h43.17Zm-43-.145H406.7v-5.767H363.8Z" transform="translate(-343.879 -341.068)" fill="#263238"/>
        <path id="Path_9221" data-name="Path 9221" d="M370.07,427.88l6.2,30.555h22.916l5.982-28.582Z" transform="translate(-346.239 -343.403)" fill="#263238"/>
        <path id="Path_9222" data-name="Path 9222" d="M370.07,471.63l3.307,4.54h27.855l3.933-4.54Z" transform="translate(-346.239 -359.488)" fill="#455a64"/>
        <path id="Path_9223" data-name="Path 9223" d="M395.078,392.535c-.082,0-.19-14.158-.24-31.617s0-31.617.063-31.617.2,14.152.24,31.617S395.167,392.528,395.078,392.535Z" transform="translate(-355.337 -307.16)" fill="#263238"/>
        <path id="Path_9224" data-name="Path 9224" d="M408.1,373.28a2,2,0,0,1-.114.329l-.386.917c-.089.2-.183.417-.285.632l-.285.8c-.1.291-.215.6-.329.923s-.209.683-.323,1.05a43.49,43.49,0,0,0-1.2,5.267,63.9,63.9,0,0,0-.632,6.589,89.991,89.991,0,0,0,.335,12.015c.139,1.537.278,2.776.386,3.636.044.4.076.727.107.986a1.311,1.311,0,0,1,0,.348,2.538,2.538,0,0,1-.076-.335c-.044-.259-.095-.588-.164-.986-.139-.854-.31-2.093-.481-3.63a79.919,79.919,0,0,1-.43-12.065,60.715,60.715,0,0,1,.7-6.621,40.19,40.19,0,0,1,1.265-5.286c.12-.367.215-.721.341-1.05s.24-.632.354-.917l.31-.8c.107-.24.215-.455.31-.632l.436-.892A1.263,1.263,0,0,1,408.1,373.28Z" transform="translate(-358.772 -323.329)" fill="#263238"/>
        <path id="Path_9225" data-name="Path 9225" d="M405.388,355.17a3.312,3.312,0,0,1-.139.468l-.449,1.315c-.095.291-.209.632-.329.949s-.221.734-.341,1.145c-.253.822-.544,1.752-.8,2.795l-.436,1.638c-.126.575-.259,1.17-.4,1.79-.3,1.233-.519,2.574-.8,3.971-.474,2.808-.892,5.919-1.182,9.194s-.386,6.418-.43,9.27,0,5.419.145,7.588c.038,1.081.108,2.055.164,2.909s.1,1.594.158,2.194.076,1.037.1,1.385a2.356,2.356,0,0,1,0,.487,2.478,2.478,0,0,1-.076-.481c-.044-.341-.095-.8-.164-1.378s-.145-1.341-.209-2.194-.158-1.827-.209-2.909c-.145-2.156-.2-4.73-.215-7.588s.139-6.007.411-9.3.715-6.406,1.208-9.22c.285-1.4.512-2.744.822-3.977.145-.632.291-1.214.424-1.79l.455-1.638c.272-1.043.575-1.973.847-2.789.133-.4.253-.784.367-1.138l.36-.942.5-1.3A3.013,3.013,0,0,1,405.388,355.17Z" transform="translate(-357.161 -316.671)" fill="#263238"/>
        <path id="Path_9226" data-name="Path 9226" d="M386.173,396.138a.721.721,0,0,1,0-.171,2.114,2.114,0,0,0-.044-.487c0-.449-.07-1.075-.126-1.9-.1-1.65-.247-4-.43-6.893-.373-5.824-.911-13.867-1.9-22.708-.5-4.426-1.081-8.619-1.682-12.426-.323-1.9-.632-3.712-.942-5.394s-.632-3.25-.93-4.673-.6-2.713-.854-3.845-.493-2.1-.689-2.89l-.449-1.821c-.044-.2-.082-.354-.108-.474a1.266,1.266,0,0,1-.032-.171.924.924,0,0,1,.063.158c.032.126.076.278.133.468l.506,1.815c.221.784.474,1.752.74,2.877s.6,2.4.9,3.832.632,2.991.967,4.679.632,3.491.974,5.394c.632,3.794,1.208,8.012,1.707,12.438.98,8.853,1.486,16.9,1.8,22.727.158,2.909.272,5.267.335,6.9.032.8.057,1.423.07,1.9v.487A.738.738,0,0,1,386.173,396.138Z" transform="translate(-349.151 -308.259)" fill="#263238"/>
        <path id="Path_9227" data-name="Path 9227" d="M386.81,338.011a4.268,4.268,0,0,0-4.23-3.541,6.665,6.665,0,0,0-5.122,2.782,16.024,16.024,0,0,0-2.466,5.476,37.018,37.018,0,0,0-1.518,14.544,22.132,22.132,0,0,0,6.064,13.134,2.494,2.494,0,0,0,2.087.955,2.529,2.529,0,0,0,1.1-.683,32.585,32.585,0,0,0,10.611-24.769,10.035,10.035,0,0,0-1.322-5.331c-1.024-1.537-3.427-3.162-5.173-2.567" transform="translate(-347.417 -309.06)" fill="#1e64cc"/>
        <path id="Path_9228" data-name="Path 9228" d="M364.515,310.4l-2.833,5.135c-.07.12-.152.253-.291.266s-.259-.126-.341-.253l-7.5-11.509,1.726-.98Z" transform="translate(-340.165 -297.512)" fill="#1e64cc"/>
        <g id="Group_3680" data-name="Group 3680" transform="translate(13.385 5.548)" opacity="0.2">
          <path id="Path_9229" data-name="Path 9229" d="M364.515,310.4l-2.833,5.135c-.07.12-.152.253-.291.266s-.259-.126-.341-.253l-7.5-11.509,1.726-.98Z" transform="translate(-353.55 -303.06)"/>
        </g>
        <path id="Path_9230" data-name="Path 9230" d="M379.73,316.434,354.12,301.34a1.22,1.22,0,0,1-.632-.632c-.1-.379.183-.74.455-1.024a17.624,17.624,0,0,1,13.671-5.369A15.613,15.613,0,0,1,379.971,302a14.143,14.143,0,0,1-.278,14.436" transform="translate(-340.135 -294.287)" fill="#1e64cc"/>
        <path id="Path_9231" data-name="Path 9231" d="M360.33,297.767a1.265,1.265,0,0,1,.335-.044c.221,0,.544-.051.967-.044a18.834,18.834,0,0,1,3.547.278,20.735,20.735,0,0,1,16.555,14.98,18.937,18.937,0,0,1,.632,3.51,6.811,6.811,0,0,1,.044.74,1.3,1.3,0,0,1-.2.563,4.137,4.137,0,0,0,.044-1.265,21.876,21.876,0,0,0-.727-3.459A20.867,20.867,0,0,0,365.142,298.2a22.225,22.225,0,0,0-3.516-.379C360.792,297.78,360.33,297.792,360.33,297.767Z" transform="translate(-342.658 -295.533)" fill="#263238"/>
        <path id="Path_9232" data-name="Path 9232" d="M384.132,312.83a6.043,6.043,0,0,1-1.265.588c-.816.323-1.954.734-3.231,1.138s-2.441.727-3.288.936a6.754,6.754,0,0,1-1.4.266,6.889,6.889,0,0,1,1.341-.481l3.257-1.012,3.244-1.05A7.082,7.082,0,0,1,384.132,312.83Z" transform="translate(-348.033 -301.104)" fill="#263238"/>
        <path id="Path_9233" data-name="Path 9233" d="M383.069,295.72a17.819,17.819,0,0,1,.145,5.691,18.218,18.218,0,0,1-.145-2.858A18.854,18.854,0,0,1,383.069,295.72Z" transform="translate(-350.998 -294.814)" fill="#263238"/>
        <path id="Path_9234" data-name="Path 9234" d="M354.14,303.173A12.018,12.018,0,0,1,356,302.54c1.164-.36,2.782-.809,4.585-1.265s3.453-.771,4.654-.98a12.123,12.123,0,0,1,1.948-.266,12.932,12.932,0,0,1-1.9.481c-1.183.259-2.82.632-4.616,1.062s-3.427.854-4.6,1.157A13.142,13.142,0,0,1,354.14,303.173Z" transform="translate(-340.382 -296.398)" fill="#263238"/>
        <path id="Path_9235" data-name="Path 9235" d="M361.159,332.077c-2.2-1.669-4.528-2-7.291-1.9a22.233,22.233,0,0,0-7.968,2.061c-4.319,1.9-8.372,4.673-10.946,8.613s-3.446,9.163-1.549,13.463a1.9,1.9,0,0,0,.879,1.056,2.08,2.08,0,0,0,1.442-.108,80.793,80.793,0,0,0,14.354-5.723c4.509-2.5,8.619-5.988,11.041-10.548a9.036,9.036,0,0,0,1.164-3.5,4.344,4.344,0,0,0-1.126-3.415" transform="translate(-332.383 -307.477)" fill="#1e64cc"/>
        <path id="Path_9236" data-name="Path 9236" d="M362.228,332.37a1.575,1.575,0,0,1-.348.145l-1.031.348-.746.253c-.266.095-.556.215-.866.335-.632.253-1.341.506-2.1.873l-1.208.55c-.411.19-.828.424-1.265.632-.892.436-1.79.993-2.744,1.562a43.258,43.258,0,0,0-10.826,9.523c-.683.879-1.353,1.695-1.9,2.529-.278.411-.569.79-.809,1.182s-.474.765-.7,1.119c-.462.708-.8,1.391-1.126,1.973-.164.3-.316.569-.449.822l-.341.708-.481.974a1.4,1.4,0,0,1-.19.329,2.44,2.44,0,0,1,.133-.354l.43-1,.316-.721c.126-.259.272-.538.43-.835.31-.594.632-1.265,1.094-2,.215-.367.449-.746.683-1.138s.525-.784.8-1.2a29.935,29.935,0,0,1,1.9-2.529,46.1,46.1,0,0,1,5.059-5.261,45.19,45.19,0,0,1,5.862-4.319c.967-.563,1.9-1.119,2.776-1.549.449-.221.873-.449,1.265-.632l1.22-.531c.771-.36,1.5-.6,2.125-.835.316-.114.632-.228.885-.316l.753-.221,1.05-.3A1.651,1.651,0,0,1,362.228,332.37Z" transform="translate(-333.382 -308.288)" fill="#263238"/>
        <path id="Path_9237" data-name="Path 9237" d="M344.5,347.09a50.508,50.508,0,0,1-5.35,1.72,53.553,53.553,0,0,1-5.438,1.435A101.907,101.907,0,0,1,344.5,347.09Z" transform="translate(-332.871 -313.7)" fill="#263238"/>
        <path id="Path_9238" data-name="Path 9238" d="M350.346,359.146a7.855,7.855,0,0,1-.12-1.663c-.032-1.031-.032-2.46,0-4.034s.126-2.991.215-4.022a8.048,8.048,0,0,1,.209-1.657,9.171,9.171,0,0,1,0,1.669c-.038,1.132-.076,2.529-.126,4.022s-.07,2.89-.1,4.022a10.3,10.3,0,0,1-.076,1.663Z" transform="translate(-338.935 -313.95)" fill="#263238"/>
        <path id="Path_9239" data-name="Path 9239" d="M365.886,350.077c-.082,0-.354-2.89-.6-6.463s-.379-6.488-.291-6.494.354,2.89.6,6.469S365.974,350.07,365.886,350.077Z" transform="translate(-344.363 -310.035)" fill="#263238"/>
        <path id="Path_9240" data-name="Path 9240" d="M346.51,336.64a9.488,9.488,0,0,1,1.714-.051c1.056,0,2.529.038,4.129.089s3.073.12,4.129.183a9.414,9.414,0,0,1,1.707.164,9.406,9.406,0,0,1-1.714.051c-1.056,0-2.529-.038-4.129-.089s-3.073-.12-4.129-.183a9.41,9.41,0,0,1-1.707-.164Z" transform="translate(-337.577 -309.833)" fill="#263238"/>
        <path id="Path_9241" data-name="Path 9241" d="M384.844,373.2a1.581,1.581,0,0,1-.038-.341,8.509,8.509,0,0,0-.044-.986c-.038-.854-.044-2.093,0-3.623s.133-3.345.316-5.362.487-4.224.9-6.526.936-4.471,1.454-6.425,1.088-3.7,1.6-5.147.955-2.605,1.265-3.389l.392-.911a1.7,1.7,0,0,1,.152-.31,1.4,1.4,0,0,1-.095.335c-.089.24-.2.544-.335.923-.3.8-.715,1.973-1.2,3.421s-1.005,3.193-1.524,5.147-1.005,4.117-1.429,6.412-.721,4.515-.911,6.494-.323,3.794-.379,5.35-.063,2.789-.063,3.611v.986a1.33,1.33,0,0,1-.057.341Z" transform="translate(-351.629 -311.16)" fill="#263238"/>
        <path id="Path_9242" data-name="Path 9242" d="M382.528,365.91a7.267,7.267,0,0,1-1.024,1.126c-.664.632-1.6,1.543-2.675,2.485s-2.074,1.752-2.814,2.327a6.589,6.589,0,0,1-1.265.86,8.607,8.607,0,0,1,1.107-1.031l2.751-2.39,2.732-2.409a8.256,8.256,0,0,1,1.189-.967Z" transform="translate(-347.959 -320.619)" fill="#263238"/>
        <path id="Path_9243" data-name="Path 9243" d="M395.648,370.189a11.55,11.55,0,0,1-1.088-1.5c-.7-1.024-1.568-2.289-2.529-3.693l-2.58-3.649a11.594,11.594,0,0,1-1.031-1.543,10.464,10.464,0,0,1,1.208,1.41c.708.9,1.657,2.175,2.656,3.611s1.859,2.77,2.46,3.744a9.692,9.692,0,0,1,.9,1.625Z" transform="translate(-352.985 -318.373)" fill="#263238"/>
        <path id="Path_9244" data-name="Path 9244" d="M386.059,343.789c.044.07-2.643,1.9-6.007,4.047s-6.127,3.857-6.172,3.794,2.643-1.9,6.007-4.041S386.014,343.719,386.059,343.789Z" transform="translate(-347.639 -312.486)" fill="#263238"/>
        <path id="Path_9245" data-name="Path 9245" d="M400.533,352.24a99.515,99.515,0,0,1-7.923-7.74A99.447,99.447,0,0,1,400.533,352.24Z" transform="translate(-354.526 -312.748)" fill="#263238"/>
        <path id="Path_9246" data-name="Path 9246" d="M408.15,346.654l2.308-.2a11.465,11.465,0,0,0,4.667-1.423,18.815,18.815,0,0,1,2.169-1.094c2.858-1.145,6.039-.942,9.112-1.094a37.764,37.764,0,0,0,14.531-3.706,1.416,1.416,0,0,0,.632-.575c.481-.866-.4-1.631-1.164-2.1-3.889-2.4-7.847-4.825-12.261-6.014s-9.416-.993-13.178,1.6c-4.426,3.042-6.033,9.289-6.779,14.6" transform="translate(-360.239 -307.326)" fill="#1e64cc"/>
        <path id="Path_9247" data-name="Path 9247" d="M441.588,339.565a1.739,1.739,0,0,1-.392-.183l-1.094-.569c-.949-.5-2.314-1.265-4.041-2.068a38.574,38.574,0,0,0-6.26-2.409,20.658,20.658,0,0,0-8.107-.632,13.912,13.912,0,0,0-7.4,3.162,16.44,16.44,0,0,0-3.845,5.407,43.557,43.557,0,0,0-1.676,4.211l-.411,1.164a1.7,1.7,0,0,1-.164.4,2.6,2.6,0,0,1,.107-.417c.089-.3.209-.689.354-1.182a37.764,37.764,0,0,1,1.594-4.262,16.22,16.22,0,0,1,3.857-5.527,14.025,14.025,0,0,1,7.538-3.269,20.614,20.614,0,0,1,8.221.689,36.339,36.339,0,0,1,6.279,2.491c1.72.854,3.067,1.619,4,2.15l1.069.632a2.658,2.658,0,0,1,.367.215Z" transform="translate(-360.258 -308.61)" fill="#263238"/>
        <path id="Path_9248" data-name="Path 9248" d="M444.517,342.778c-.051.07-3.067-1.9-6.747-4.363s-6.621-4.547-6.57-4.616,3.067,1.9,6.741,4.363S444.561,342.677,444.517,342.778Z" transform="translate(-368.713 -308.813)" fill="#263238"/>
        <path id="Path_9249" data-name="Path 9249" d="M444.579,333.5a7.172,7.172,0,0,1-2.194.4,7.457,7.457,0,0,1-2.245-.032,13.906,13.906,0,0,1,2.22-.228A15.512,15.512,0,0,1,444.579,333.5Z" transform="translate(-372 -308.703)" fill="#263238"/>
        <path id="Path_9250" data-name="Path 9250" d="M424.947,330.78a5.976,5.976,0,0,1-.993,1.543,6.855,6.855,0,0,1-1.265,1.429,5.692,5.692,0,0,1,.993-1.549,6.324,6.324,0,0,1,1.265-1.423Z" transform="translate(-365.585 -307.704)" fill="#263238"/>
        <path id="Path_9251" data-name="Path 9251" d="M425.194,346.991a8.3,8.3,0,0,1-1.454-.79c-.873-.531-2.049-1.3-3.313-2.22s-2.365-1.783-3.162-2.416A8.5,8.5,0,0,1,416,340.49a9.042,9.042,0,0,1,1.385.9l3.219,2.34c1.265.911,2.409,1.707,3.25,2.283a10.436,10.436,0,0,1,1.341.974Z" transform="translate(-363.125 -311.274)" fill="#263238"/>
        <path id="Path_9252" data-name="Path 9252" d="M410.387,371.393c-2.2-.582-4.831,1.562-5.28,3.794s.379,4.515,1.36,6.57a33.515,33.515,0,0,0,9.106,11.913,22.537,22.537,0,0,0,13.912,5.128c-.936-4.325.247-8.853-.278-13.235a17.225,17.225,0,0,0-15.246-15.1c-1.4-.152-3.029-.367-3.592.93" transform="translate(-359.074 -322.251)" fill="#1e64cc"/>
        <path id="Path_9253" data-name="Path 9253" d="M432.646,399.389a1.98,1.98,0,0,1-.316-.145,5.525,5.525,0,0,1-.822-.556,8.544,8.544,0,0,1-2.175-2.9c-.354-.683-.746-1.423-1.126-2.245l-1.189-2.618a24.713,24.713,0,0,0-1.454-2.8,21.966,21.966,0,0,0-2-2.725c-1.505-1.771-3.124-3.3-4.528-4.768a30.86,30.86,0,0,1-3.453-4.142,15.121,15.121,0,0,1-1.688-3.231c-.139-.411-.24-.727-.291-.949a1.22,1.22,0,0,1-.07-.335s.152.449.474,1.265a16.586,16.586,0,0,0,1.752,3.162,32.8,32.8,0,0,0,3.478,4.066c1.41,1.448,3.035,2.978,4.559,4.768a22.247,22.247,0,0,1,2.03,2.763,26.28,26.28,0,0,1,1.454,2.839c.4.93.8,1.809,1.157,2.631s.752,1.562,1.088,2.251a8.891,8.891,0,0,0,2.062,2.915A11.014,11.014,0,0,0,432.646,399.389Z" transform="translate(-362.217 -322.847)" fill="#263238"/>
        <path id="Path_9254" data-name="Path 9254" d="M425.75,403.955a6.052,6.052,0,0,1,.2-1.486c.171-.9.455-2.15.835-3.51s.79-2.561,1.119-3.427a6.447,6.447,0,0,1,.6-1.372,8.5,8.5,0,0,1-.4,1.442c-.272.879-.632,2.093-1.024,3.446s-.7,2.58-.923,3.472a9.061,9.061,0,0,1-.411,1.435Z" transform="translate(-366.71 -331.005)" fill="#263238"/>
        <path id="Path_9255" data-name="Path 9255" d="M436.949,391.473a8.712,8.712,0,0,1-1.556-.354c-.948-.253-2.257-.588-3.718-.917s-2.782-.588-3.75-.765a8.893,8.893,0,0,1-1.556-.348,7.536,7.536,0,0,1,1.593.133c.974.126,2.314.348,3.794.677s2.776.708,3.712,1.012A7.278,7.278,0,0,1,436.949,391.473Z" transform="translate(-366.938 -329.14)" fill="#263238"/>
        <path id="Path_9256" data-name="Path 9256" d="M412.82,391.108a9.1,9.1,0,0,1,.24-1.72c.2-1.05.5-2.491.911-4.072s.854-2.991,1.2-4a9.221,9.221,0,0,1,.632-1.612,10.21,10.21,0,0,1-.424,1.676c-.291,1.024-.7,2.441-1.107,4.015s-.746,3-1,4.041A10.4,10.4,0,0,1,412.82,391.108Z" transform="translate(-361.956 -325.689)" fill="#263238"/>
        <path id="Path_9257" data-name="Path 9257" d="M427.989,377.476c0,.082-2.763-.139-6.14-.5s-6.121-.715-6.108-.8a61.377,61.377,0,0,1,6.14.493C425.263,377.034,427.995,377.394,427.989,377.476Z" transform="translate(-363.03 -324.395)" fill="#263238"/>
        <path id="Path_9258" data-name="Path 9258" d="M406.82,430.908c0,.082-9.662.152-21.582.152s-21.588-.07-21.588-.152,9.662-.158,21.588-.158S406.82,430.794,406.82,430.908Z" transform="translate(-343.879 -344.458)" fill="#455a64"/>
        <path id="Path_9259" data-name="Path 9259" d="M404.378,450.532c0,.089-6.513.158-14.544.158s-14.544-.07-14.544-.158,6.513-.152,14.544-.152S404.378,450.45,404.378,450.532Z" transform="translate(-348.158 -351.675)" fill="#455a64"/>
        <path id="Path_9260" data-name="Path 9260" d="M404.272,453.348c0,.082-6.4.152-14.291.152s-14.291-.07-14.291-.152,6.4-.158,14.291-.158S404.272,453.26,404.272,453.348Z" transform="translate(-348.305 -352.708)" fill="#455a64"/>
        <path id="Path_9261" data-name="Path 9261" d="M404.2,448.218c0,.082-6.734.152-15.044.152s-15.044-.07-15.044-.152,6.734-.158,15.044-.158S404.2,448.13,404.2,448.218Z" transform="translate(-347.724 -350.822)" fill="#455a64"/>
      </g>
      <g id="freepik--speech-bubble--inject-112" transform="translate(153.26 27.78)">
        <path id="Path_9262" data-name="Path 9262" d="M275.954,40.078c-5.641-1.265-12.881,2.656-14.829,7.93s.164,11.8,4.426,15.486a13.733,13.733,0,0,0-.632,15.214,16.025,16.025,0,0,0,13.627,7.354,19.173,19.173,0,0,0,14.146-6.817A13.829,13.829,0,0,0,312.4,64.322c6.374-2.333,9.89-10.51,7.183-16.782s-11.079-9.277-17.156-6.2a13.259,13.259,0,0,0-26.476-1.258h0" transform="translate(-239.157 -27.798)" fill="#fafafa"/>
        <path id="Path_9263" data-name="Path 9263" d="M275.891,40.06h.133c0,.051-.07,0-.108.044h0a12.212,12.212,0,0,1,.942-3.965,13.868,13.868,0,0,1,1.935-3.162,14.279,14.279,0,0,1,3.56-3.162,13.1,13.1,0,0,1,5.375-1.948l.778-.089h.8a12.109,12.109,0,0,1,1.638.12,12.6,12.6,0,0,1,3.282.949,5.882,5.882,0,0,1,.8.392c.259.145.531.285.79.443a15.279,15.279,0,0,1,1.5,1.088,17.836,17.836,0,0,1,1.4,1.265,18.094,18.094,0,0,1,1.227,1.518,13.108,13.108,0,0,1,2.529,7.759l-.19-.12a12.647,12.647,0,0,1,9.011-.677,13.045,13.045,0,0,1,7.784,5.824A12.274,12.274,0,0,1,319.8,56.6a13.911,13.911,0,0,1-2.808,4.7,11.9,11.9,0,0,1-4.616,3.162l.107-.183a14.177,14.177,0,0,1-.917,7.961,13.817,13.817,0,0,1-5.274,6.323,14.361,14.361,0,0,1-13.754.79l.2-.038a19.761,19.761,0,0,1-11.553,6.627A16.612,16.612,0,0,1,269,83.243a14.98,14.98,0,0,1-4.173-4.319,13.873,13.873,0,0,1-1.948-5.407,14.266,14.266,0,0,1,.266-5.47,12.9,12.9,0,0,1,2.245-4.667v.171a15.524,15.524,0,0,1-4.287-6.393,14.379,14.379,0,0,1-.79-3.478,12.648,12.648,0,0,1,.057-3.358,10.421,10.421,0,0,1,2.447-5.451,14.507,14.507,0,0,1,3.927-3.193,15.582,15.582,0,0,1,3.762-1.511,13,13,0,0,1,2.947-.392,9.637,9.637,0,0,1,1.828.145c.4.07.632.12.632.12l-.632-.082a10.257,10.257,0,0,0-1.821-.107,13.071,13.071,0,0,0-2.921.424,15.561,15.561,0,0,0-3.712,1.556,14.424,14.424,0,0,0-3.864,3.162,10.25,10.25,0,0,0-2.378,5.369,12.489,12.489,0,0,0-.051,3.3,14.622,14.622,0,0,0,.816,3.44,15.246,15.246,0,0,0,4.237,6.279l.089.076-.07.095a12.646,12.646,0,0,0-2.188,4.578,14.12,14.12,0,0,0-.253,5.369,13.664,13.664,0,0,0,1.9,5.293,14.708,14.708,0,0,0,4.1,4.224,16.34,16.34,0,0,0,11.964,2.637A19.464,19.464,0,0,0,292.5,79.12l.082-.095.114.057A14.051,14.051,0,0,0,306.13,78.3a13.52,13.52,0,0,0,5.147-6.2,13.735,13.735,0,0,0,.9-7.772V64.2l.133-.044a12.609,12.609,0,0,0,7.215-7.651,11.932,11.932,0,0,0-.677-10,12.761,12.761,0,0,0-7.588-5.691,12.337,12.337,0,0,0-8.809.651l-.2.095v-.215a12.887,12.887,0,0,0-2.466-7.588,17.608,17.608,0,0,0-1.208-1.5,16.162,16.162,0,0,0-1.372-1.265,14.828,14.828,0,0,0-1.473-1.075c-.259-.158-.519-.3-.778-.443a6.127,6.127,0,0,0-.79-.392,12.564,12.564,0,0,0-3.231-.98,12.736,12.736,0,0,0-1.606-.12h-.79l-.771.082a12.843,12.843,0,0,0-5.305,1.9,14.19,14.19,0,0,0-5.514,6.184,12.888,12.888,0,0,0-1.056,3.921h0c.044,0,.1-.044.12,0h-.12Z" transform="translate(-239.094 -27.78)" fill="#263238"/>
        <path id="Path_9264" data-name="Path 9264" d="M299.649,80.517a7.057,7.057,0,0,0,4.338.873,6.81,6.81,0,0,0,4.5-2.8,6.374,6.374,0,0,0,1.176-4.844A6.273,6.273,0,0,0,306.8,69.66a6.811,6.811,0,0,0-3.965-1.075l.114-5.691a1.012,1.012,0,0,0-2.017-.044l-.145,6.905a1.024,1.024,0,0,0,.386.816,1,1,0,0,0,.879.183,4.654,4.654,0,0,1,3.668.632,4.262,4.262,0,0,1,1.96,2.744,4.332,4.332,0,0,1-.835,3.295,4.736,4.736,0,0,1-3.162,1.979,5.572,5.572,0,0,1-5.767-3.889,1.012,1.012,0,1,0-1.941.575A7.683,7.683,0,0,0,299.649,80.517Z" transform="translate(-252.222 -40.338)" fill="#1e64cc"/>
        <path id="Path_9265" data-name="Path 9265" d="M306.317,56.166a1.138,1.138,0,1,0-1.189,1.081A1.138,1.138,0,0,0,306.317,56.166Z" transform="translate(-255.203 -37.777)" fill="#1e64cc"/>
        <path id="Path_9266" data-name="Path 9266" d="M244.673,97.2a5.527,5.527,0,1,0,4.882,6.127,5.748,5.748,0,0,0-4.882-6.127" transform="translate(-231.12 -53.29)" fill="#fafafa"/>
        <path id="Path_9267" data-name="Path 9267" d="M244.626,97.18a3.863,3.863,0,0,1,1.328.285,5.944,5.944,0,0,1,3.668,4.812,5.179,5.179,0,0,1-.588,2.9,5.691,5.691,0,0,1-.949,1.309,5.824,5.824,0,0,1-1.322,1.05,5.274,5.274,0,0,1-6.576-.753,5.5,5.5,0,0,1-1.05-1.322,5.369,5.369,0,0,1-.632-1.486,5.1,5.1,0,0,1,.082-2.959,5.925,5.925,0,0,1,4.654-3.864,3.756,3.756,0,0,1,1.353,0c0,.044-.487-.038-1.334.107a5.837,5.837,0,0,0-3.13,1.714,5.533,5.533,0,0,0-1.265,2.106,4.869,4.869,0,0,0-.051,2.795,5.773,5.773,0,0,0,1.612,2.656,4.983,4.983,0,0,0,6.191.708,5.387,5.387,0,0,0,1.265-.993,5.287,5.287,0,0,0,.9-1.233,4.819,4.819,0,0,0,.588-2.732,5.692,5.692,0,0,0-.778-2.346,5.875,5.875,0,0,0-2.662-2.371,11.128,11.128,0,0,0-1.309-.386Z" transform="translate(-231.042 -53.263)" fill="#263238"/>
        <path id="Path_9268" data-name="Path 9268" d="M229.681,116.231a2.384,2.384,0,1,0,2.106,2.643,2.479,2.479,0,0,0-2.106-2.643" transform="translate(-226.891 -60.294)" fill="#fafafa"/>
        <path id="Path_9269" data-name="Path 9269" d="M229.611,116.209a1.037,1.037,0,0,1,.588.089,2.58,2.58,0,0,1,1.644,2.1,2.3,2.3,0,0,1-.259,1.3,2.529,2.529,0,0,1-4.7-.537,2.3,2.3,0,0,1,.044-1.328,2.605,2.605,0,0,1,.632-.961,2.529,2.529,0,0,1,1.454-.715,1.157,1.157,0,0,1,.594.044c0,.032-.215,0-.569.082a2.58,2.58,0,0,0-1.309.752,2.1,2.1,0,0,0-.537,2.042,2.207,2.207,0,0,0,4.136.474,2.1,2.1,0,0,0-.063-2.112,2.454,2.454,0,0,0-1.107-1.024C229.819,116.26,229.6,116.234,229.611,116.209Z" transform="translate(-226.808 -60.265)" fill="#263238"/>
      </g>
    </g>
    <g id="Component_119_273" data-name="Component 119 – 273" transform="translate(0 779.277)">
      <rect id="Rectangle_1927" data-name="Rectangle 1927" width="412" height="67" transform="translate(0 0.722)" fill="#102646"/>
      <path id="Path_4714" data-name="Path 4714" d="M1053,4508.186h411.151" transform="translate(-1053 -4508.186)" fill="none" stroke="#fff" stroke-width="2" opacity="0.206"/>
      <g id="Group_3096" data-name="Group 3096" transform="translate(-3 -997.186)">
        <text id="Next" transform="translate(318 1038)" fill="#f2f5f7" font-size="18" font-family="ArialMT, Arial"><tspan x="0" y="0">Next</tspan></text>
        <path id="Icon_ionic-ios-arrow-back" data-name="Icon ionic-ios-arrow-back" d="M14.033,14.264l6.109-6.1a1.154,1.154,0,0,0-1.634-1.629l-6.921,6.916a1.152,1.152,0,0,0-.034,1.591L18.5,22a1.154,1.154,0,1,0,1.634-1.629Z" transform="translate(389.251 1046.266) rotate(180)" fill="#f2f5f7"/>
      </g>
      <g id="Group_3224" data-name="Group 3224" transform="translate(2.529 7.076)">
        <g id="Group_3212" data-name="Group 3212" transform="translate(34.47 14.737)">
          <text id="Back" transform="translate(19.06 18)" fill="#fff" font-size="18" font-family="ArialMT, Arial"><tspan x="0" y="0">Back</tspan></text>
          <path id="Icon_ionic-ios-arrow-back-2" data-name="Icon ionic-ios-arrow-back" d="M14.033,14.264l6.109-6.1a1.154,1.154,0,0,0-1.634-1.629l-6.921,6.916a1.152,1.152,0,0,0-.034,1.591L18.5,22a1.154,1.154,0,1,0,1.634-1.629Z" transform="translate(-11.251 -3.193)" fill="#fff"/>
        </g>
      </g>
    </g>
    <g id="Group_3234" data-name="Group 3234" transform="translate(4.012 -10.262)">
      <path id="Icon_ionic-ios-arrow-back-3" data-name="Icon ionic-ios-arrow-back" d="M15.217,17.7,23.926,9A1.645,1.645,0,1,0,21.6,6.674l-9.867,9.86a1.642,1.642,0,0,0-.048,2.268l9.908,9.929a1.645,1.645,0,0,0,2.33-2.323Z" transform="translate(362.579 30.069)" fill="#fff"/>
      <path id="Icon_ionic-ios-arrow-back-4" data-name="Icon ionic-ios-arrow-back" d="M3.967,11.506l8.709-8.7A1.645,1.645,0,1,0,10.346.481L.479,10.341a1.642,1.642,0,0,0-.048,2.268l9.908,9.929a1.645,1.645,0,1,0,2.33-2.323Z" transform="translate(377.472 59.28) rotate(180)" fill="#fff"/>
    </g>
  </g>
</svg>
