<svg xmlns="http://www.w3.org/2000/svg" xmlns:xlink="http://www.w3.org/1999/xlink" width="412" height="843" viewBox="0 0 412 843">
  <defs>
    <linearGradient id="linear-gradient" x1="0.5" x2="0.5" y2="1" gradientUnits="objectBoundingBox">
      <stop offset="0" stop-color="#37aadd"/>
      <stop offset="1" stop-color="#1f64cc"/>
    </linearGradient>
    <filter id="Path_7" x="26" y="467" width="360" height="96.064" filterUnits="userSpaceOnUse">
      <feOffset dy="3" input="SourceAlpha"/>
      <feGaussianBlur stdDeviation="8" result="blur"/>
      <feFlood flood-opacity="0.078"/>
      <feComposite operator="in" in2="blur"/>
      <feComposite in="SourceGraphic"/>
    </filter>
    <filter id="Rectangle_1534" x="-9" y="771" width="430" height="78" filterUnits="userSpaceOnUse">
      <feOffset dy="-3" input="SourceAlpha"/>
      <feGaussianBlur stdDeviation="3" result="blur-2"/>
      <feFlood flood-opacity="0.059"/>
      <feComposite operator="in" in2="blur-2"/>
      <feComposite in="SourceGraphic"/>
    </filter>
    <clipPath id="clip-CBT_5">
      <rect width="412" height="843"/>
    </clipPath>
  </defs>
  <g id="CBT_5" data-name="CBT – 5" clip-path="url(#clip-CBT_5)">
    <rect width="412" height="843" fill="url(#linear-gradient)"/>
    <rect id="Rectangle_1987" data-name="Rectangle 1987" width="368" height="398" rx="10" transform="translate(21 164)" fill="#102646"/>
    <text id="Session_6_Understanding_Problem_statement" data-name="Session 6
Understanding Problem statement" transform="translate(22 26)" fill="#fff" font-size="16" font-family="ArialMT, Arial"><tspan x="0" y="14">Session 6</tspan><tspan font-size="24" font-family="Arial-BoldMT, Arial" font-weight="700"><tspan x="0" y="49">Understanding Problem </tspan><tspan x="0" y="84">statement</tspan></tspan></text>
    <text id="To_master_any_given_situation_We_need_a_clear_cut_definition_of_the_problem." data-name="To master any given situation, We need a clear cut definition of the problem." transform="translate(39 185)" fill="#fff" font-size="25" font-family="Arial-BoldMT, Arial" font-weight="700"><tspan x="0" y="23">To master any given </tspan><tspan x="0" y="63">situation, We need a clear </tspan><tspan x="0" y="103">cut definition of the </tspan><tspan x="0" y="143">problem.</tspan></text>
    <g id="Group_3148" data-name="Group 3148" transform="translate(-1 -15)">
      <rect id="Rectangle_1728" data-name="Rectangle 1728" width="368" height="203" rx="10" transform="translate(22 374)" fill="#102646"/>
      <g id="Group_3154" data-name="Group 3154" transform="translate(3.547 -78.5)">
        <text id="Examine_your_statement" data-name="Examine your statement" transform="translate(37 469)" fill="#edf4fd" font-size="16" font-family="Arial-BoldMT, Arial" font-weight="700"><tspan x="0" y="14">Examine your statement</tspan></text>
        <text id="Exercise_Type_-_write_note_or_record_voice" data-name="Exercise Type - write note or record voice" transform="translate(37 507)" fill="#edf4fd" font-size="14" font-family="ArialMT, Arial"><tspan x="0" y="13">Exercise Type - write note or record voice</tspan></text>
        <text id="Why_-_To_know_your_problem_better" data-name="Why - To know your problem better" transform="translate(37 534)" fill="#edf4fd" font-size="14" font-family="ArialMT, Arial"><tspan x="0" y="13">Why - To know your problem better</tspan></text>
      </g>
      <g id="CTA" transform="translate(51 503.438)">
        <g transform="matrix(1, 0, 0, 1, -50, -488.44)" filter="url(#Path_7)">
          <path id="Path_7-2" data-name="Path 7" d="M7.473,5H304.527C308.654,5,312,9,312,13.942v30.18c0,4.939-3.346,8.942-7.473,8.942H7.473c-4.127,0-7.473-4-7.473-8.942V13.942C0,9,3.346,5,7.473,5Z" transform="translate(50 483)" fill="#ff9241"/>
        </g>
        <text id="Get_started" data-name="Get started" transform="translate(156 30.095)" fill="#fff" font-size="16" font-family="ArialMT, Arial"><tspan x="-39.574" y="0">Get started</tspan></text>
      </g>
    </g>
    <g id="Component_119_101" data-name="Component 119 – 101" transform="translate(0 783)">
      <g transform="matrix(1, 0, 0, 1, 0, -783)" filter="url(#Rectangle_1534)">
        <rect id="Rectangle_1534-2" data-name="Rectangle 1534" width="412" height="60" transform="translate(0 783)" fill="#102646"/>
      </g>
      <g id="Group_2755" data-name="Group 2755" transform="translate(0 -779)">
        <g id="Rectangle_1564" data-name="Rectangle 1564" transform="translate(12 789)" fill="#fff" stroke="#707070" stroke-width="1" opacity="0">
          <rect width="50" height="45" stroke="none"/>
          <rect x="0.5" y="0.5" width="49" height="44" fill="none"/>
        </g>
        <path id="Path_4565" data-name="Path 4565" d="M35.606,24.011l-7.368-7.1,7.368-7.1a1.37,1.37,0,0,0,.424-.982,1.4,1.4,0,0,0-.4-1,1.369,1.369,0,0,0-.982-.424h-.022a1.385,1.385,0,0,0-.982.4l-8.417,8.1a1.42,1.42,0,0,0-.424,1,1.382,1.382,0,0,0,.424,1l8.439,8.1a1.443,1.443,0,0,0,.982.4,1.42,1.42,0,0,0,1-.424,1.4,1.4,0,0,0,.4-1A1.274,1.274,0,0,0,35.606,24.011Z" transform="translate(5.036 792.435)" fill="#fff"/>
      </g>
    </g>
    <path id="Path_6642" data-name="Path 6642" d="M6861,14832.731h368" transform="translate(-6838.999 -14527.731)" fill="none" stroke="#2e5b9f" stroke-width="1" opacity="0.573"/>
  </g>
</svg>
