<svg xmlns="http://www.w3.org/2000/svg" xmlns:xlink="http://www.w3.org/1999/xlink" width="412" height="1030" viewBox="0 0 412 1030">
  <defs>
    <filter id="bg" x="-2" y="622" width="416" height="253" filterUnits="userSpaceOnUse">
      <feOffset dy="4" input="SourceAlpha"/>
      <feGaussianBlur stdDeviation="8" result="blur"/>
      <feFlood flood-color="#455b63" flood-opacity="0.078"/>
      <feComposite operator="in" in2="blur"/>
      <feComposite in="SourceGraphic"/>
    </filter>
    <filter id="Path_7" x="40.646" y="746.036" width="329.117" height="95.559" filterUnits="userSpaceOnUse">
      <feOffset dy="3" input="SourceAlpha"/>
      <feGaussianBlur stdDeviation="8" result="blur-2"/>
      <feFlood flood-opacity="0.078"/>
      <feComposite operator="in" in2="blur-2"/>
      <feComposite in="SourceGraphic"/>
    </filter>
    <filter id="bg-2" x="-2" y="148" width="416" height="253" filterUnits="userSpaceOnUse">
      <feOffset dy="4" input="SourceAlpha"/>
      <feGaussianBlur stdDeviation="8" result="blur-3"/>
      <feFlood flood-color="#455b63" flood-opacity="0.078"/>
      <feComposite operator="in" in2="blur-3"/>
      <feComposite in="SourceGraphic"/>
    </filter>
    <filter id="Path_7-2" x="40.646" y="272.036" width="329.117" height="95.559" filterUnits="userSpaceOnUse">
      <feOffset dy="3" input="SourceAlpha"/>
      <feGaussianBlur stdDeviation="8" result="blur-4"/>
      <feFlood flood-opacity="0.078"/>
      <feComposite operator="in" in2="blur-4"/>
      <feComposite in="SourceGraphic"/>
    </filter>
    <filter id="bg-3" x="-2" y="385" width="416" height="253" filterUnits="userSpaceOnUse">
      <feOffset dy="4" input="SourceAlpha"/>
      <feGaussianBlur stdDeviation="8" result="blur-5"/>
      <feFlood flood-color="#455b63" flood-opacity="0.078"/>
      <feComposite operator="in" in2="blur-5"/>
      <feComposite in="SourceGraphic"/>
    </filter>
    <filter id="Path_7-3" x="40.646" y="509.036" width="329.117" height="95.559" filterUnits="userSpaceOnUse">
      <feOffset dy="3" input="SourceAlpha"/>
      <feGaussianBlur stdDeviation="8" result="blur-6"/>
      <feFlood flood-opacity="0.078"/>
      <feComposite operator="in" in2="blur-6"/>
      <feComposite in="SourceGraphic"/>
    </filter>
    <filter id="Rectangle_1534" x="-9" y="775" width="430" height="78" filterUnits="userSpaceOnUse">
      <feOffset dy="-3" input="SourceAlpha"/>
      <feGaussianBlur stdDeviation="3" result="blur-7"/>
      <feFlood flood-opacity="0.059"/>
      <feComposite operator="in" in2="blur-7"/>
      <feComposite in="SourceGraphic"/>
    </filter>
    <clipPath id="clip-CBT_1">
      <rect width="412" height="1030"/>
    </clipPath>
  </defs>
  <g id="CBT_1" data-name="CBT – 1" clip-path="url(#clip-CBT_1)">
    <rect width="412" height="1030" fill="#102646"/>
    <g id="card" transform="translate(22 642)">
      <g transform="matrix(1, 0, 0, 1, -22, -642)" filter="url(#bg)">
        <rect id="bg-4" data-name="bg" width="368" height="205" rx="12" transform="translate(22 642)" fill="#153669"/>
      </g>
      <g id="Languages" transform="translate(20 15)">
        <text id="Education_and_work" data-name="Education and work" fill="#d2dff2" font-size="24" font-family="Arial-BoldMT, Arial" font-weight="700"><tspan x="0" y="22">Education and work</tspan></text>
      </g>
      <text id="We_seen_a_certain_negative_in_your_Mood._zenquip_will_helps_to_Boost_your_mood" data-name="We seen a certain negative in your Mood. 
zenquip will helps to Boost your mood" transform="translate(19 69)" fill="#8eb1e5" font-size="15" font-family="ArialMT, Arial"><tspan x="0" y="0">We seen a certain negative in your Mood. </tspan><tspan x="0" y="21">zenquip will helps to Boost your mood</tspan></text>
      <g id="Search" transform="translate(42.646 125.036)">
        <g transform="matrix(1, 0, 0, 1, -64.65, -767.04)" filter="url(#Path_7)">
          <path id="Path_7-4" data-name="Path 7" d="M6.733,5H274.384c3.719,0,6.733,3.961,6.733,8.848V43.71c0,4.887-3.015,8.848-6.733,8.848H6.733C3.015,52.558,0,48.6,0,43.71V13.848C0,8.961,3.015,5,6.733,5Z" transform="translate(64.65 762.04)" fill="#ff9241"/>
        </g>
        <text id="Get_Started" data-name="Get Started" transform="translate(42.354 11.964)" fill="#fff" font-size="16" font-family="Lato-Regular, Lato"><tspan x="57.624" y="16">Get Started</tspan></text>
      </g>
    </g>
    <g id="card-2" data-name="card" transform="translate(22 168)">
      <g transform="matrix(1, 0, 0, 1, -22, -168)" filter="url(#bg-2)">
        <rect id="bg-5" data-name="bg" width="368" height="205" rx="12" transform="translate(22 168)" fill="#153669"/>
      </g>
      <g id="Languages-2" data-name="Languages" transform="translate(20 15)">
        <text id="Relationship" fill="#d2dff2" font-size="24" font-family="Arial-BoldMT, Arial" font-weight="700"><tspan x="0" y="22">Relationship</tspan></text>
      </g>
      <text id="We_seen_a_certain_negative_in_your_Mood._zenquip_will_helps_to_Boost_your_mood-2" data-name="We seen a certain negative in your Mood. 
zenquip will helps to Boost your mood" transform="translate(19 69)" fill="#8eb1e5" font-size="15" font-family="ArialMT, Arial"><tspan x="0" y="0">We seen a certain negative in your Mood. </tspan><tspan x="0" y="21">zenquip will helps to Boost your mood</tspan></text>
      <g id="Search-2" data-name="Search" transform="translate(42.646 125.036)">
        <g transform="matrix(1, 0, 0, 1, -64.65, -293.04)" filter="url(#Path_7-2)">
          <path id="Path_7-5" data-name="Path 7" d="M6.733,5H274.384c3.719,0,6.733,3.961,6.733,8.848V43.71c0,4.887-3.015,8.848-6.733,8.848H6.733C3.015,52.558,0,48.6,0,43.71V13.848C0,8.961,3.015,5,6.733,5Z" transform="translate(64.65 288.04)" fill="#ff9241"/>
        </g>
        <text id="Get_Started-2" data-name="Get Started" transform="translate(42.354 11.964)" fill="#fff" font-size="16" font-family="Lato-Regular, Lato"><tspan x="57.624" y="16">Get Started</tspan></text>
      </g>
    </g>
    <g id="card-3" data-name="card" transform="translate(22 405)">
      <g transform="matrix(1, 0, 0, 1, -22, -405)" filter="url(#bg-3)">
        <rect id="bg-6" data-name="bg" width="368" height="205" rx="12" transform="translate(22 405)" fill="#153669"/>
      </g>
      <g id="Languages-3" data-name="Languages" transform="translate(20 15)">
        <text id="Meaning_in_life" data-name="Meaning in life" fill="#d2dff2" font-size="24" font-family="Arial-BoldMT, Arial" font-weight="700"><tspan x="0" y="22">Meaning in life</tspan></text>
      </g>
      <text id="We_seen_a_certain_negative_in_your_Mood._zenquip_will_helps_to_Boost_your_mood-3" data-name="We seen a certain negative in your Mood. 
zenquip will helps to Boost your mood" transform="translate(19 69)" fill="#8eb1e5" font-size="15" font-family="ArialMT, Arial"><tspan x="0" y="0">We seen a certain negative in your Mood. </tspan><tspan x="0" y="21">zenquip will helps to Boost your mood</tspan></text>
      <g id="Search-3" data-name="Search" transform="translate(42.646 125.036)">
        <g transform="matrix(1, 0, 0, 1, -64.65, -530.04)" filter="url(#Path_7-3)">
          <path id="Path_7-6" data-name="Path 7" d="M6.733,5H274.384c3.719,0,6.733,3.961,6.733,8.848V43.71c0,4.887-3.015,8.848-6.733,8.848H6.733C3.015,52.558,0,48.6,0,43.71V13.848C0,8.961,3.015,5,6.733,5Z" transform="translate(64.65 525.04)" fill="#ff9241"/>
        </g>
        <text id="Get_Started-3" data-name="Get Started" transform="translate(42.354 11.964)" fill="#fff" font-size="16" font-family="Lato-Regular, Lato"><tspan x="57.624" y="16">Get Started</tspan></text>
      </g>
    </g>
    <g id="Component_119_107" data-name="Component 119 – 107" transform="translate(0 787)">
      <g transform="matrix(1, 0, 0, 1, 0, -787)" filter="url(#Rectangle_1534)">
        <rect id="Rectangle_1534-2" data-name="Rectangle 1534" width="412" height="60" transform="translate(0 787)" fill="#102646"/>
      </g>
      <g id="Group_2755" data-name="Group 2755" transform="translate(0 -779)">
        <g id="Rectangle_1564" data-name="Rectangle 1564" transform="translate(12 789)" fill="#fff" stroke="#707070" stroke-width="1" opacity="0">
          <rect width="50" height="45" stroke="none"/>
          <rect x="0.5" y="0.5" width="49" height="44" fill="none"/>
        </g>
        <path id="Path_4565" data-name="Path 4565" d="M35.606,24.011l-7.368-7.1,7.368-7.1a1.37,1.37,0,0,0,.424-.982,1.4,1.4,0,0,0-.4-1,1.369,1.369,0,0,0-.982-.424h-.022a1.385,1.385,0,0,0-.982.4l-8.417,8.1a1.42,1.42,0,0,0-.424,1,1.382,1.382,0,0,0,.424,1l8.439,8.1a1.443,1.443,0,0,0,.982.4,1.42,1.42,0,0,0,1-.424,1.4,1.4,0,0,0,.4-1A1.274,1.274,0,0,0,35.606,24.011Z" transform="translate(5.036 792.435)" fill="#fff"/>
      </g>
    </g>
    <text id="_Areas_for_Goal_Setting" data-name=" Areas for Goal Setting" transform="translate(21 122.747)" fill="#fff" font-size="16" font-family="Arial-BoldMT, Arial" font-weight="700"><tspan x="0" y="14" xml:space="preserve"> Areas for Goal Setting</tspan></text>
    <text id="Add_new" data-name="Add new" transform="translate(304 122.747)" fill="#ff9241" font-size="16" font-family="Arial-BoldMT, Arial" font-weight="700"><tspan x="19.336" y="14">Add new</tspan></text>
    <text id="Session_3_Realistic_Goal_setting_" data-name="Session 3
Realistic Goal setting " transform="translate(22 26)" fill="#fff" font-size="16" font-family="ArialMT, Arial"><tspan x="0" y="14">Session 3</tspan><tspan font-size="24" font-family="Arial-BoldMT, Arial" font-weight="700"><tspan x="0" y="49">Realistic Goal setting </tspan></tspan></text>
  </g>
</svg>
