<svg xmlns="http://www.w3.org/2000/svg" xmlns:xlink="http://www.w3.org/1999/xlink" width="412" height="846" viewBox="0 0 412 846">
  <defs>
    <linearGradient id="linear-gradient" x1="0.5" x2="0.5" y2="1" gradientUnits="objectBoundingBox">
      <stop offset="0" stop-color="#37aadd"/>
      <stop offset="1" stop-color="#1f64cc"/>
    </linearGradient>
    <filter id="Rectangle_1570" x="-24" y="537" width="460" height="330" filterUnits="userSpaceOnUse">
      <feOffset dy="-3" input="SourceAlpha"/>
      <feGaussianBlur stdDeviation="8" result="blur"/>
      <feFlood flood-opacity="0.039"/>
      <feComposite operator="in" in2="blur"/>
      <feComposite in="SourceGraphic"/>
    </filter>
    <filter id="Rectangle_20" x="1" y="479" width="88" height="63" filterUnits="userSpaceOnUse">
      <feOffset dy="10" input="SourceAlpha"/>
      <feGaussianBlur stdDeviation="5" result="blur-2"/>
      <feFlood flood-opacity="0.09"/>
      <feComposite operator="in" in2="blur-2"/>
      <feComposite in="SourceGraphic"/>
    </filter>
    <clipPath id="clip-path">
      <rect width="356" height="242" fill="none"/>
    </clipPath>
    <clipPath id="clip-path-2">
      <rect width="379" height="12.698" fill="none"/>
    </clipPath>
    <filter id="Path_7" x="-3" y="668.936" width="418" height="96.064" filterUnits="userSpaceOnUse">
      <feOffset dy="3" input="SourceAlpha"/>
      <feGaussianBlur stdDeviation="8" result="blur-3"/>
      <feFlood flood-opacity="0.078"/>
      <feComposite operator="in" in2="blur-3"/>
      <feComposite in="SourceGraphic"/>
    </filter>
    <filter id="Path_7-2" x="-3" y="737" width="418" height="96.064" filterUnits="userSpaceOnUse">
      <feOffset dy="3" input="SourceAlpha"/>
      <feGaussianBlur stdDeviation="8" result="blur-4"/>
      <feFlood flood-opacity="0.078"/>
      <feComposite operator="in" in2="blur-4"/>
      <feComposite in="SourceGraphic"/>
    </filter>
    <clipPath id="clip-CBT_-_Goal_rating_">
      <rect width="412" height="846"/>
    </clipPath>
  </defs>
  <g id="CBT_-_Goal_rating_" data-name="CBT - Goal rating " clip-path="url(#clip-CBT_-_Goal_rating_)">
    <rect width="412" height="846" fill="url(#linear-gradient)"/>
    <g transform="matrix(1, 0, 0, 1, 0, 0)" filter="url(#Rectangle_1570)">
      <path id="Rectangle_1570-2" data-name="Rectangle 1570" d="M30,0H382a30,30,0,0,1,30,30V282a0,0,0,0,1,0,0H0a0,0,0,0,1,0,0V30A30,30,0,0,1,30,0Z" transform="translate(0 564)" fill="#102646"/>
    </g>
    <text id="Rate_your_difficulty_level" data-name="Rate your difficulty level" transform="translate(104 49)" fill="#fff" font-size="18" font-family="Arial-BoldMT, Arial" font-weight="700"><tspan x="0" y="0">Rate your difficulty level</tspan></text>
    <g id="Group_3390" data-name="Group 3390" transform="translate(-5 60)">
      <g id="fri_card" data-name="fri card" transform="translate(277.643 384)">
        <rect id="Rectangle_20-2" data-name="Rectangle 20" width="58" height="33" rx="5" transform="translate(0.358 40)" fill="#fff"/>
        <text id="_17_10" data-name="17/10" transform="translate(29.358 61)" fill="#2e5b9f" font-size="12" font-family="Arial-BoldMT, Arial" font-weight="700" letter-spacing="0.015em"><tspan x="-15.375" y="0">17/10</tspan></text>
      </g>
      <g id="fri_card-2" data-name="fri card" transform="translate(341.643 384)">
        <rect id="Rectangle_20-3" data-name="Rectangle 20" width="58" height="33" rx="5" transform="translate(0.358 40)" fill="#fff"/>
        <text id="_18_10" data-name="18/10" transform="translate(29.358 61)" fill="#2e5b9f" font-size="12" font-family="Arial-BoldMT, Arial" font-weight="700" letter-spacing="0.015em"><tspan x="-15.375" y="0">18/10</tspan></text>
      </g>
      <g id="thu_card" data-name="thu card" transform="translate(213.482 384)">
        <rect id="Rectangle_20-4" data-name="Rectangle 20" width="58" height="33" rx="5" transform="translate(-0.482 40)" fill="#fff"/>
        <text id="_16_10" data-name="16/10" transform="translate(28.518 61)" fill="#2e5b9f" font-size="12" font-family="Arial-BoldMT, Arial" font-weight="700" letter-spacing="0.015em"><tspan x="-15.375" y="0">16/10</tspan></text>
      </g>
      <g id="wed_card" data-name="wed card" transform="translate(149.32 384)">
        <rect id="Rectangle_20-5" data-name="Rectangle 20" width="58" height="33" rx="5" transform="translate(-0.321 40)" fill="#fff"/>
        <text id="_15_10" data-name="15/10" transform="translate(28.679 61)" fill="#2e5b9f" font-size="12" font-family="Arial-BoldMT, Arial" font-weight="700" letter-spacing="0.015em"><tspan x="-15.375" y="0">15/10</tspan></text>
      </g>
      <g id="tue_card" data-name="tue card" transform="translate(85.16 384)">
        <rect id="Rectangle_20-6" data-name="Rectangle 20" width="58" height="33" rx="5" transform="translate(-0.161 40)" fill="#fff"/>
        <text id="_13_10" data-name="13/10" transform="translate(28.839 61)" fill="#2e5b9f" font-size="12" font-family="Arial-BoldMT, Arial" font-weight="700" letter-spacing="0.015em"><tspan x="-15.375" y="0">13/10</tspan></text>
      </g>
      <g id="mon_card" data-name="mon card" transform="translate(21 384)">
        <g transform="matrix(1, 0, 0, 1, -16, -444)" filter="url(#Rectangle_20)">
          <rect id="Rectangle_20-7" data-name="Rectangle 20" width="58" height="33" rx="5" transform="translate(16 484)" fill="#102646"/>
        </g>
        <text id="_12_10" data-name="12/10" transform="translate(28 61)" fill="#fff" font-size="12" font-family="Arial-BoldMT, Arial" font-weight="700" letter-spacing="0.015em"><tspan x="-15.375" y="0">12/10</tspan></text>
      </g>
    </g>
    <g id="Repeat_Grid_18" data-name="Repeat Grid 18" transform="translate(28 225)" clip-path="url(#clip-path)">
      <g transform="translate(-31 -132)">
        <path id="Rectangle_1848" data-name="Rectangle 1848" d="M5.5,0h0A5.5,5.5,0,0,1,11,5.5V242a0,0,0,0,1,0,0H0a0,0,0,0,1,0,0V5.5A5.5,5.5,0,0,1,5.5,0Z" transform="translate(45 132)" fill="#2e5b9f" opacity="0.5"/>
      </g>
      <g transform="translate(33 -132)">
        <path id="Rectangle_1848-2" data-name="Rectangle 1848" d="M5.5,0h0A5.5,5.5,0,0,1,11,5.5V242a0,0,0,0,1,0,0H0a0,0,0,0,1,0,0V5.5A5.5,5.5,0,0,1,5.5,0Z" transform="translate(45 132)" fill="#2e5b9f" opacity="0.5"/>
      </g>
      <g transform="translate(97 -132)">
        <path id="Rectangle_1848-3" data-name="Rectangle 1848" d="M5.5,0h0A5.5,5.5,0,0,1,11,5.5V242a0,0,0,0,1,0,0H0a0,0,0,0,1,0,0V5.5A5.5,5.5,0,0,1,5.5,0Z" transform="translate(45 132)" fill="#2e5b9f" opacity="0.5"/>
      </g>
      <g transform="translate(161 -132)">
        <path id="Rectangle_1848-4" data-name="Rectangle 1848" d="M5.5,0h0A5.5,5.5,0,0,1,11,5.5V242a0,0,0,0,1,0,0H0a0,0,0,0,1,0,0V5.5A5.5,5.5,0,0,1,5.5,0Z" transform="translate(45 132)" fill="#2e5b9f" opacity="0.5"/>
      </g>
      <g transform="translate(225 -132)">
        <path id="Rectangle_1848-5" data-name="Rectangle 1848" d="M5.5,0h0A5.5,5.5,0,0,1,11,5.5V242a0,0,0,0,1,0,0H0a0,0,0,0,1,0,0V5.5A5.5,5.5,0,0,1,5.5,0Z" transform="translate(45 132)" fill="#2e5b9f" opacity="0.5"/>
      </g>
      <g transform="translate(289 -132)">
        <path id="Rectangle_1848-6" data-name="Rectangle 1848" d="M5.5,0h0A5.5,5.5,0,0,1,11,5.5V242a0,0,0,0,1,0,0H0a0,0,0,0,1,0,0V5.5A5.5,5.5,0,0,1,5.5,0Z" transform="translate(45 132)" fill="#2e5b9f" opacity="0.5"/>
      </g>
    </g>
    <path id="Path_6725" data-name="Path 6725" d="M-20026,14996h378.117" transform="translate(20042.5 -14529)" fill="none" stroke="#fff" stroke-width="2"/>
    <g id="Repeat_Grid_19" data-name="Repeat Grid 19" transform="translate(17 467)" clip-path="url(#clip-path-2)">
      <g transform="translate(-49.5 -374)">
        <path id="Path_6726" data-name="Path 6726" d="M-19997,14996v7.649" transform="translate(20047 -14622)" fill="none" stroke="#fff" stroke-width="1"/>
      </g>
      <g transform="translate(-28.5 -374)">
        <path id="Path_6726-2" data-name="Path 6726" d="M-19997,14996v7.649" transform="translate(20047 -14622)" fill="none" stroke="#fff" stroke-width="1"/>
      </g>
      <g transform="translate(-7.5 -374)">
        <path id="Path_6726-3" data-name="Path 6726" d="M-19997,14996v7.649" transform="translate(20047 -14622)" fill="none" stroke="#fff" stroke-width="1"/>
      </g>
      <g transform="translate(13.5 -374)">
        <path id="Path_6726-4" data-name="Path 6726" d="M-19997,14996v7.649" transform="translate(20047 -14622)" fill="none" stroke="#fff" stroke-width="1"/>
      </g>
      <g transform="translate(34.5 -374)">
        <path id="Path_6726-5" data-name="Path 6726" d="M-19997,14996v7.649" transform="translate(20047 -14622)" fill="none" stroke="#fff" stroke-width="1"/>
      </g>
      <g transform="translate(55.5 -374)">
        <path id="Path_6726-6" data-name="Path 6726" d="M-19997,14996v7.649" transform="translate(20047 -14622)" fill="none" stroke="#fff" stroke-width="1"/>
      </g>
      <g transform="translate(76.5 -374)">
        <path id="Path_6726-7" data-name="Path 6726" d="M-19997,14996v7.649" transform="translate(20047 -14622)" fill="none" stroke="#fff" stroke-width="1"/>
      </g>
      <g transform="translate(97.5 -374)">
        <path id="Path_6726-8" data-name="Path 6726" d="M-19997,14996v7.649" transform="translate(20047 -14622)" fill="none" stroke="#fff" stroke-width="1"/>
      </g>
      <g transform="translate(118.5 -374)">
        <path id="Path_6726-9" data-name="Path 6726" d="M-19997,14996v7.649" transform="translate(20047 -14622)" fill="none" stroke="#fff" stroke-width="1"/>
      </g>
      <g transform="translate(139.5 -374)">
        <path id="Path_6726-10" data-name="Path 6726" d="M-19997,14996v7.649" transform="translate(20047 -14622)" fill="none" stroke="#fff" stroke-width="1"/>
      </g>
      <g transform="translate(160.5 -374)">
        <path id="Path_6726-11" data-name="Path 6726" d="M-19997,14996v7.649" transform="translate(20047 -14622)" fill="none" stroke="#fff" stroke-width="1"/>
      </g>
      <g transform="translate(181.5 -374)">
        <path id="Path_6726-12" data-name="Path 6726" d="M-19997,14996v7.649" transform="translate(20047 -14622)" fill="none" stroke="#fff" stroke-width="1"/>
      </g>
      <g transform="translate(202.5 -374)">
        <path id="Path_6726-13" data-name="Path 6726" d="M-19997,14996v7.649" transform="translate(20047 -14622)" fill="none" stroke="#fff" stroke-width="1"/>
      </g>
      <g transform="translate(223.5 -374)">
        <path id="Path_6726-14" data-name="Path 6726" d="M-19997,14996v7.649" transform="translate(20047 -14622)" fill="none" stroke="#fff" stroke-width="1"/>
      </g>
      <g transform="translate(244.5 -374)">
        <path id="Path_6726-15" data-name="Path 6726" d="M-19997,14996v7.649" transform="translate(20047 -14622)" fill="none" stroke="#fff" stroke-width="1"/>
      </g>
      <g transform="translate(265.5 -374)">
        <path id="Path_6726-16" data-name="Path 6726" d="M-19997,14996v7.649" transform="translate(20047 -14622)" fill="none" stroke="#fff" stroke-width="1"/>
      </g>
      <g transform="translate(286.5 -374)">
        <path id="Path_6726-17" data-name="Path 6726" d="M-19997,14996v7.649" transform="translate(20047 -14622)" fill="none" stroke="#fff" stroke-width="1"/>
      </g>
      <g transform="translate(307.5 -374)">
        <path id="Path_6726-18" data-name="Path 6726" d="M-19997,14996v7.649" transform="translate(20047 -14622)" fill="none" stroke="#fff" stroke-width="1"/>
      </g>
      <g transform="translate(328.5 -374)">
        <path id="Path_6726-19" data-name="Path 6726" d="M-19997,14996v7.649" transform="translate(20047 -14622)" fill="none" stroke="#fff" stroke-width="1"/>
      </g>
    </g>
    <path id="Rectangle_1850" data-name="Rectangle 1850" d="M5.5,0h0A5.5,5.5,0,0,1,11,5.5V151a0,0,0,0,1,0,0H0a0,0,0,0,1,0,0V5.5A5.5,5.5,0,0,1,5.5,0Z" transform="translate(42.499 315)" fill="#102646"/>
    <g id="Ellipse_641" data-name="Ellipse 641" transform="translate(37.499 305)" fill="#fff" stroke="#1e64c9" stroke-width="6">
      <circle cx="11" cy="11" r="11" stroke="none"/>
      <circle cx="11" cy="11" r="8" fill="none"/>
    </g>
    <text id="View_Details" data-name="View Details" transform="translate(153 593)" fill="#d2dff2" font-size="18" font-family="ArialMT, Arial" text-decoration="underline"><tspan x="4.145" y="16">View Details</tspan></text>
    <g id="CTA" transform="translate(21 690.373)">
      <g transform="matrix(1, 0, 0, 1, -21, -690.37)" filter="url(#Path_7)">
        <path id="Path_7-3" data-name="Path 7" d="M8.862,5H361.138A8.9,8.9,0,0,1,370,13.942v30.18a8.9,8.9,0,0,1-8.862,8.942H8.862A8.9,8.9,0,0,1,0,44.122V13.942A8.9,8.9,0,0,1,8.862,5Z" transform="translate(21 684.94)" fill="#ff9241"/>
      </g>
      <text id="Submit" transform="translate(185 28.563)" fill="#fff" font-size="14" font-family="ArialMT, Arial"><tspan x="-21.786" y="0">Submit</tspan></text>
    </g>
    <g id="CTA-2" data-name="CTA" transform="translate(21 758.438)">
      <g transform="matrix(1, 0, 0, 1, -21, -758.44)" filter="url(#Path_7-2)">
        <g id="Path_7-4" data-name="Path 7" transform="translate(21 753)" fill="none">
          <path d="M8.862,5H361.138A8.9,8.9,0,0,1,370,13.942v30.18a8.9,8.9,0,0,1-8.862,8.942H8.862A8.9,8.9,0,0,1,0,44.122V13.942A8.9,8.9,0,0,1,8.862,5Z" stroke="none"/>
          <path d="M 8.86224365234375 5.999980926513672 C 4.527008056640625 5.999980926513672 1 9.562831878662109 1 13.94218063354492 L 1 44.1220817565918 C 1 48.50143051147461 4.527008056640625 52.06428146362305 8.86224365234375 52.06428146362305 L 361.13818359375 52.06428146362305 C 365.4734802246094 52.06428146362305 369.00048828125 48.50143051147461 369.00048828125 44.1220817565918 L 369.00048828125 13.94218063354492 C 369.00048828125 9.562831878662109 365.4734802246094 5.999980926513672 361.13818359375 5.999980926513672 L 8.86224365234375 5.999980926513672 M 8.86224365234375 4.999980926513672 L 361.13818359375 4.999980926513672 C 366.0326843261719 4.999980926513672 370.00048828125 9.003532409667969 370.00048828125 13.94218063354492 L 370.00048828125 44.1220817565918 C 370.00048828125 49.06072998046875 366.0326843261719 53.06428146362305 361.13818359375 53.06428146362305 L 8.86224365234375 53.06428146362305 C 3.967742919921875 53.06428146362305 0 49.06072998046875 0 44.1220817565918 L 0 13.94218063354492 C 0 9.003532409667969 3.967742919921875 4.999980926513672 8.86224365234375 4.999980926513672 Z" stroke="none" fill="#edf4fd"/>
        </g>
      </g>
      <text id="Cancel" transform="translate(185 28.563)" fill="#edf4fd" font-size="14" font-family="ArialMT, Arial"><tspan x="-21.79" y="0">Cancel</tspan></text>
    </g>
    <g id="Group_3391" data-name="Group 3391" transform="translate(153.363 122)">
      <rect id="Rectangle_1847" data-name="Rectangle 1847" width="108" height="34" rx="17" transform="translate(-14.363)" fill="#102646"/>
      <text id="Last_7days" data-name="Last 7days" transform="translate(39.637 22)" fill="#fff" font-size="15" font-family="ArialMT, Arial" letter-spacing="0.015em"><tspan x="-37.286" y="0">Last 7days</tspan></text>
    </g>
    <g id="Group_3392" data-name="Group 3392" transform="translate(273.729 122)">
      <rect id="Rectangle_1847-2" data-name="Rectangle 1847" width="107" height="34" rx="17" transform="translate(-12.729)" fill="#fff"/>
      <text id="Last_30days" data-name="Last 30days" transform="translate(41.271 22)" fill="#2e5b9f" font-size="15" font-family="ArialMT, Arial" letter-spacing="0.015em"><tspan x="-41.569" y="0">Last 30days</tspan></text>
    </g>
    <g id="tue_card-2" data-name="tue card" transform="translate(44 122)">
      <rect id="Rectangle_20-8" data-name="Rectangle 20" width="81" height="34" rx="17" transform="translate(0)" fill="#fff"/>
      <text id="All" transform="translate(41 22)" fill="#2e5b9f" font-size="15" font-family="ArialMT, Arial" letter-spacing="0.015em"><tspan x="-8.56" y="0">All</tspan></text>
    </g>
  </g>
</svg>
