<svg xmlns="http://www.w3.org/2000/svg" xmlns:xlink="http://www.w3.org/1999/xlink" width="412" height="847" viewBox="0 0 412 847">
  <defs>
    <clipPath id="clip-CBT_S8_E1_2">
      <rect width="412" height="847"/>
    </clipPath>
  </defs>
  <g id="CBT_S8_E1_2" data-name="CBT /  S8 / E1 – 2" clip-path="url(#clip-CBT_S8_E1_2)">
    <rect width="412" height="847" fill="#102646"/>
    <g id="Group_3103" data-name="Group 3103" transform="translate(657 -220)">
      <text id="You_can_t_engage_in_imagery_if_you_re_distracted._Find_a_quiet_place_where_you_can_be_alone_for_at_least_ten_minutes." data-name="You can’t engage in imagery if you’re distracted. Find a quiet place where you can be alone for at least ten minutes." transform="translate(-627 781)" fill="#fff" font-size="18" font-family="ArialMT, Arial"><tspan x="28.739" y="16">You can’t engage in imagery if you’re </tspan><tspan x="16.909" y="47">distracted. Find a quiet place where you </tspan><tspan x="28.41" y="78">can be alone for at least ten minutes.</tspan></text>
      <text id="Find_a_quiet_setting" data-name="Find a quiet setting" transform="translate(-618 321)" fill="#fff" font-size="24" font-family="Arial-BoldMT, Arial" font-weight="700"><tspan x="57.002" y="22">Find a quiet setting</tspan></text>
    </g>
    <g id="Mindfulness-pana-3" transform="translate(13.129 144.713)">
      <g id="freepik--background-complete--inject-14" transform="translate(43.834 52.27)">
        <path id="Path_8968" data-name="Path 8968" d="M358.578,357.4c0,.1-69.4.186-154.987.186s-155-.086-155-.186,69.389-.186,155-.186S358.578,357.289,358.578,357.4Z" transform="translate(-48.59 -139.274)" fill="#e0e0e0"/>
        <path id="Path_8969" data-name="Path 8969" d="M414.573,281.579c.236-.229,1.822.915,3.917,3.266a37.541,37.541,0,0,1,3.316,4.41,43.968,43.968,0,0,1,3.188,5.975,44.455,44.455,0,0,1,2.18,6.432,36.872,36.872,0,0,1,.943,5.432c.286,3.138,0,5.074-.286,5.089-.758.057-1.429-7.526-5.146-15.937C419.09,287.775,414.023,282.086,414.573,281.579Z" transform="translate(-152.998 -117.687)" fill="#ebebeb"/>
        <path id="Path_8970" data-name="Path 8970" d="M435,303.124c-.329.043-1.229-4.1-2.058-10.906s-1.551-16.23-1.822-26.665-.164-19.868.036-26.694.536-11.049.879-11.049.658,4.217.9,11.042.414,16.245.715,26.636.715,19.775,1.079,26.572S435.353,303.074,435,303.124Z" transform="translate(-157.683 -102.354)" fill="#ebebeb"/>
        <path id="Path_8971" data-name="Path 8971" d="M451.689,250.237c.322.179-.993,3.08-2.716,7.926s-3.916,11.592-6.039,19.154-3.723,14.487-4.7,19.525-1.394,8.2-1.765,8.19-.579-3.266,0-8.462a143.4,143.4,0,0,1,10.856-39.086C449.509,252.731,451.41,250.065,451.689,250.237Z" transform="translate(-159.154 -108.75)" fill="#ebebeb"/>
        <path id="Path_8972" data-name="Path 8972" d="M409.2,321.06v8.3a17.724,17.724,0,0,0,17.724,17.724h0a17.717,17.717,0,0,0,17.717-17.724v-8.3Z" transform="translate(-151.477 -128.96)" fill="#e0e0e0"/>
        <path id="Path_8973" data-name="Path 8973" d="M444.974,330.78c0,.143-8,.257-17.867.257s-17.867-.114-17.867-.257,8-.25,17.867-.25S444.974,330.644,444.974,330.78Z" transform="translate(-151.488 -131.661)" fill="#fafafa"/>
        <path id="Path_8974" data-name="Path 8974" d="M444.974,334.01c0,.136-8,.25-17.867.25s-17.867-.114-17.867-.25,8-.25,17.867-.25S444.974,333.874,444.974,334.01Z" transform="translate(-151.488 -132.583)" fill="#fafafa"/>
        <rect id="Rectangle_2055" data-name="Rectangle 2055" width="67.781" height="70.654" transform="translate(223.804)" fill="#e0e0e0"/>
        <rect id="Rectangle_2056" data-name="Rectangle 2056" width="67.781" height="70.654" transform="translate(219.209)" fill="#ebebeb"/>
        <rect id="Rectangle_2057" data-name="Rectangle 2057" width="49.556" height="51.658" transform="translate(228.321 9.498)" fill="#fafafa"/>
        <path id="Path_8975" data-name="Path 8975" d="M364.445,138.32a8.939,8.939,0,0,1-1.236,1.429c-.793.829-1.908,1.958-3.159,3.188s-2.387,2.323-3.23,3.1a9.387,9.387,0,0,1-1.429,1.215,9.172,9.172,0,0,1,1.229-1.429c.8-.829,1.915-1.958,3.166-3.195s2.394-2.33,3.238-3.109A10.266,10.266,0,0,1,364.445,138.32Z" transform="translate(-136.124 -76.821)" fill="#e0e0e0"/>
        <path id="Path_8976" data-name="Path 8976" d="M437.4,138.15a9.332,9.332,0,0,1,1.429,1.236c.829.793,1.958,1.908,3.188,3.159s2.323,2.387,3.1,3.23a8.984,8.984,0,0,1,1.215,1.429,8.641,8.641,0,0,1-1.429-1.236c-.829-.793-1.965-1.908-3.195-3.159s-2.33-2.394-3.109-3.238a10.264,10.264,0,0,1-1.2-1.422Z" transform="translate(-159.523 -76.773)" fill="#e0e0e0"/>
        <path id="Path_8977" data-name="Path 8977" d="M437.21,62.184a9.934,9.934,0,0,1,1.243-1.429c.793-.829,1.908-1.958,3.152-3.187s2.394-2.323,3.23-3.109a8.955,8.955,0,0,1,1.429-1.208,9.541,9.541,0,0,1-1.236,1.429c-.793.829-1.915,1.958-3.166,3.187s-2.394,2.337-3.23,3.116A8.676,8.676,0,0,1,437.21,62.184Z" transform="translate(-159.469 -52.55)" fill="#e0e0e0"/>
        <path id="Path_8978" data-name="Path 8978" d="M364.3,62.315a9.543,9.543,0,0,1-1.429-1.236c-.829-.793-1.958-1.908-3.187-3.159s-2.33-2.387-3.109-3.23a9.553,9.553,0,0,1-1.208-1.429,9.6,9.6,0,0,1,1.429,1.229c.829.8,1.958,1.915,3.188,3.166s2.33,2.394,3.116,3.238a8.857,8.857,0,0,1,1.2,1.422Z" transform="translate(-136.119 -52.552)" fill="#e0e0e0"/>
        <path id="Path_8979" data-name="Path 8979" d="M417.429,117.143v-3.752c0-2.444,0-6-.043-10.527,0-9.041-.05-21.941-.079-37.378l.157.164H368.051l.186-.186v51.658l-.164-.157,35.791.079,10.048.043h.029l-10.006.043-35.9.086h-.157V65.3h49.771v.164c-.036,15.48-.064,28.416-.086,37.485,0,4.5,0,8.055-.036,10.484v3.473C417.529,117.093,417.429,117.143,417.429,117.143Z" transform="translate(-139.688 -55.988)" fill="#e0e0e0"/>
        <path id="Path_8980" data-name="Path 8980" d="M386.353,95.76s-1.058,12.786,12.793,12.786C399.145,101.72,393.514,96.332,386.353,95.76Z" transform="translate(-144.953 -64.678)" fill="#ebebeb"/>
        <path id="Path_8981" data-name="Path 8981" d="M416.723,95.763S403.93,94.7,403.93,108.555C410.755,108.555,416.13,102.924,416.723,95.763Z" transform="translate(-149.973 -64.674)" fill="#ebebeb"/>
        <path id="Path_8982" data-name="Path 8982" d="M401.612,86s-10.449,9.377.572,19.775C407.308,100.337,406.872,91.818,401.612,86Z" transform="translate(-148.034 -61.894)" fill="#e0e0e0"/>
        <rect id="Rectangle_2058" data-name="Rectangle 2058" width="57.475" height="59.912" transform="translate(26.393 23.213)" fill="#e0e0e0"/>
        <rect id="Rectangle_2059" data-name="Rectangle 2059" width="57.475" height="59.912" transform="translate(22.498 23.213)" fill="#fafafa"/>
        <path id="Path_8983" data-name="Path 8983" d="M137.561,144.678H80.05V84.73h57.511Zm-57.475-.036h57.439V84.766H80.086Z" transform="translate(-57.566 -61.531)" fill="#e0e0e0"/>
        <rect id="Rectangle_2060" data-name="Rectangle 2060" width="42.024" height="43.803" transform="translate(30.231 31.268)" fill="#fafafa"/>
        <path id="Path_8984" data-name="Path 8984" d="M87.829,157.72a7.1,7.1,0,0,1-1.043,1.208c-.665.715-1.608,1.665-2.666,2.709s-2.03,1.965-2.744,2.63a6.868,6.868,0,0,1-1.215,1.008,6.6,6.6,0,0,1,1.029-1.2c.672-.715,1.615-1.665,2.673-2.716s2.037-1.973,2.752-2.63a6.867,6.867,0,0,1,1.215-1.008Z" transform="translate(-57.597 -82.356)" fill="#e0e0e0"/>
        <path id="Path_8985" data-name="Path 8985" d="M149.68,157.57a6.826,6.826,0,0,1,1.208,1.036c.715.672,1.665,1.615,2.709,2.673s1.973,2.03,2.63,2.744a6.87,6.87,0,0,1,1.008,1.215,6.6,6.6,0,0,1-1.2-1.029c-.715-.672-1.665-1.615-2.709-2.68s-1.98-2.03-2.637-2.752a6.7,6.7,0,0,1-1.008-1.208Z" transform="translate(-77.432 -82.314)" fill="#e0e0e0"/>
        <path id="Path_8986" data-name="Path 8986" d="M149.52,93.166a6.826,6.826,0,0,1,1.058-1.208c.672-.715,1.615-1.665,2.673-2.709s2.008-1.937,2.723-2.651a6.868,6.868,0,0,1,1.215-1.008,6.6,6.6,0,0,1-1.029,1.2c-.672.715-1.615,1.665-2.68,2.709s-2.03,1.98-2.752,2.637A6.7,6.7,0,0,1,149.52,93.166Z" transform="translate(-77.387 -61.777)" fill="#e0e0e0"/>
        <path id="Path_8987" data-name="Path 8987" d="M87.7,93.279a7.3,7.3,0,0,1-1.229-1.036c-.715-.672-1.665-1.615-2.709-2.673s-1.973-2.03-2.63-2.744A6.482,6.482,0,0,1,80.12,85.61a6.9,6.9,0,0,1,1.2,1.029c.715.672,1.665,1.615,2.709,2.68s1.973,2.03,2.637,2.752A6.089,6.089,0,0,1,87.7,93.279Z" transform="translate(-57.586 -61.782)" fill="#e0e0e0"/>
        <path id="Path_8988" data-name="Path 8988" d="M132.752,139.688v-3.195c0-2.073,0-5.089-.043-8.926,0-7.669-.05-18.582-.079-31.689l.157.164h-41.9l.186-.186v43.81l-.157-.164,30.338.086h.1l-30.438.086H90.75V95.52h42.259v.343c-.036,13.129-.064,24.1-.086,31.8v11.814a1.036,1.036,0,0,1-.172.214Z" transform="translate(-60.619 -64.61)" fill="#e0e0e0"/>
        <rect id="Rectangle_2061" data-name="Rectangle 2061" width="14.022" height="14.022" transform="translate(44.225 46.162)" fill="#ebebeb"/>
        <path id="Path_8989" data-name="Path 8989" d="M286.573,418.793a.894.894,0,0,0-.264-.529,4.246,4.246,0,0,0-1.522-.872,35.528,35.528,0,0,0-6.632-1.551,235.528,235.528,0,0,0-25.014-2.194c-10.606-.472-23.249-.672-37.285-.35-7.011.172-14.372.472-21.984,1.051-3.809.3-7.676.658-11.578,1.194-1.951.272-3.916.579-5.86,1a26.852,26.852,0,0,0-2.859.772,8.219,8.219,0,0,0-1.365.572c-.415.214-.865.543-.886.9s.465.715.879.908a8.211,8.211,0,0,0,1.365.572,26.913,26.913,0,0,0,2.859.779c1.944.422,3.909.715,5.86,1,3.9.529,7.769.893,11.578,1.194,7.611.579,15.008.879,21.991,1.051,14.036.322,26.686.122,37.292-.35a237.449,237.449,0,0,0,25.014-2.194,35.434,35.434,0,0,0,6.632-1.558,4.145,4.145,0,0,0,1.522-.872.872.872,0,0,0,.264-.522.715.715,0,0,1-.236.55,4.116,4.116,0,0,1-1.522.915,34.422,34.422,0,0,1-6.639,1.629,228.334,228.334,0,0,1-25.014,2.308c-10.606.515-23.263.715-37.307.436-7.018-.164-14.387-.457-22.012-1.036-3.809-.293-7.69-.65-11.6-1.186-1.958-.272-3.931-.579-5.889-1.008a28.1,28.1,0,0,1-2.93-.779,9.4,9.4,0,0,1-1.429-.6,3.073,3.073,0,0,1-.658-.45.943.943,0,0,1,0-1.565,2.857,2.857,0,0,1,.658-.45,9.363,9.363,0,0,1,1.429-.593,26.9,26.9,0,0,1,2.93-.786c1.965-.422,3.931-.715,5.889-1.008,3.909-.529,7.79-.893,11.6-1.186,7.619-.572,15.008-.865,22.005-1.029,14.044-.307,26.694-.079,37.307.429a228.184,228.184,0,0,1,25.014,2.316,33.887,33.887,0,0,1,6.639,1.629,4.024,4.024,0,0,1,1.522.915A.715.715,0,0,1,286.573,418.793Z" transform="translate(-83.494 -155.139)" fill="#fafafa"/>
        <path id="Path_8990" data-name="Path 8990" d="M307.246,416.445a2.016,2.016,0,0,0-.3-.908,5.661,5.661,0,0,0-2.194-1.765,43.631,43.631,0,0,0-10.463-3.238c-9.348-1.958-23.1-3.573-40.137-4.553s-37.385-1.429-59.948-.758c-11.278.343-23.113.951-35.334,2.144-6.111.607-12.314,1.351-18.582,2.437-3.123.557-6.254,1.194-9.341,2.058a33.7,33.7,0,0,0-4.5,1.594,11.193,11.193,0,0,0-2.08,1.172,2.587,2.587,0,0,0-1.229,1.815,2.544,2.544,0,0,0,1.215,1.815,11.226,11.226,0,0,0,2.08,1.179,33.719,33.719,0,0,0,4.531,1.594,95.308,95.308,0,0,0,9.341,2.058c6.239,1.093,12.45,1.837,18.582,2.437,12.221,1.186,24.063,1.794,35.341,2.144,22.563.65,42.881.229,59.948-.765s30.8-2.587,40.137-4.553a42.878,42.878,0,0,0,10.463-3.237,5.66,5.66,0,0,0,2.194-1.758,2.016,2.016,0,0,0,.3-.908s0,.079,0,.243a2.029,2.029,0,0,1-.25.715,5.718,5.718,0,0,1-2.194,1.808,42.9,42.9,0,0,1-10.47,3.309c-9.348,2.008-23.106,3.645-40.151,4.674s-37.392,1.472-59.969.843c-11.285-.336-23.134-.936-35.37-2.144-6.118-.6-12.328-1.344-18.582-2.437-3.13-.557-6.268-1.186-9.377-2.065a33.65,33.65,0,0,1-4.588-1.615,11.17,11.17,0,0,1-2.144-1.215,4.466,4.466,0,0,1-.915-.886,1.887,1.887,0,0,1,0-2.466,4.4,4.4,0,0,1,.915-.872,11.834,11.834,0,0,1,2.144-1.222,34.6,34.6,0,0,1,4.588-1.608c3.109-.872,6.246-1.508,9.377-2.065,6.253-1.093,12.471-1.83,18.582-2.43,12.235-1.186,24.078-1.787,35.363-2.144,22.57-.629,42.924-.179,59.969.843s30.8,2.666,40.151,4.674a42.584,42.584,0,0,1,10.47,3.309,5.718,5.718,0,0,1,2.194,1.808,2,2,0,0,1,.25.679C307.246,416.36,307.246,416.445,307.246,416.445Z" transform="translate(-69.763 -152.791)" fill="#fafafa"/>
        <path id="Path_8991" data-name="Path 8991" d="M332.9,413.022a3.68,3.68,0,0,0-.336-1.379,7.8,7.8,0,0,0-2.894-2.98c-3.08-2.065-8.262-3.988-15.073-5.717-13.643-3.466-33.883-6.275-58.983-8.04a866.5,866.5,0,0,0-88.342-1.358c-16.624.6-34.069,1.665-52.051,3.745-8.984,1.058-18.11,2.358-27.258,4.288A116.616,116.616,0,0,0,74.382,405.2a40.663,40.663,0,0,0-6.511,2.809,14.6,14.6,0,0,0-2.859,2.044A3.658,3.658,0,0,0,65,416.01a14.35,14.35,0,0,0,2.859,2.044,39.423,39.423,0,0,0,6.511,2.809,116.429,116.429,0,0,0,13.622,3.631c9.148,1.915,18.275,3.209,27.265,4.288,17.981,2.08,35.434,3.145,52.058,3.738a862.449,862.449,0,0,0,88.35-1.358c25.1-1.758,45.34-4.574,58.983-8.033,6.8-1.737,11.985-3.652,15.073-5.717a7.762,7.762,0,0,0,2.859-2.973,3.681,3.681,0,0,0,.336-1.379v.357a1.381,1.381,0,0,1-.079.443,2.635,2.635,0,0,1-.2.593,7.719,7.719,0,0,1-2.859,3.023c-3.08,2.1-8.269,4.045-15.073,5.8-13.651,3.516-33.9,6.368-59,8.162a859.051,859.051,0,0,1-88.385,1.429c-16.631-.586-34.091-1.644-52.086-3.716-9-1.065-18.132-2.358-27.3-4.288a116.856,116.856,0,0,1-13.665-3.638,40.98,40.98,0,0,1-6.575-2.859,14.882,14.882,0,0,1-2.945-2.144,4.009,4.009,0,0,1,0-6.5,15.068,15.068,0,0,1,2.952-2.094,40.393,40.393,0,0,1,6.575-2.859,117.5,117.5,0,0,1,13.665-3.631c9.162-1.915,18.3-3.216,27.287-4.288,18-2.08,35.448-3.13,52.079-3.724a856.738,856.738,0,0,1,88.378,1.43c25.05,1.9,45.332,4.76,58.947,8.247,6.811,1.758,12,3.7,15.08,5.8a7.719,7.719,0,0,1,2.859,3.023,2.589,2.589,0,0,1,.2.586,1.428,1.428,0,0,1,.079.443A1.965,1.965,0,0,1,332.9,413.022Z" transform="translate(-52.727 -149.367)" fill="#fafafa"/>
        <path id="Path_8992" data-name="Path 8992" d="M229.309,396.874c-11.714-.765-23.485-1.529-35.227-1.036s-23.585,2.294-33.962,6.432c-4.088,1.615-8.29,3.959-9.012,7.376-.779,3.688,2.937,7.147,7.34,8.926,9.077,3.573,20.29,1.708,29.738-1.322s18.582-7.147,28.766-7.983c8.49-.715,17,1.008,25.014,3.2s15.809,4.917,24.1,6.432,17.36,1.722,25.071-1.008c4.124-1.429,8.012-4.138,8.247-7.547.172-2.423-1.579-4.746-4.009-6.346a29.35,29.35,0,0,0-8.519-3.395c-19.561-5.217-40.923-4.588-61.67-3.888" transform="translate(-77.81 -150.25)" fill="#e0e0e0"/>
        <path id="Path_8993" data-name="Path 8993" d="M54.643,419.372,49.7,422.946c-.493.357-1.043.843-.958,1.429.1.75,1.065,1,1.822,1.043,5.3.279,8.912-.279,13.579-2.73a23.192,23.192,0,0,0,2.373-1.394c.364-.272,1.908-1.429,1.622-1.808a1.622,1.622,0,0,0-1.351-.386c-4.217.093-7.969.122-12.15.222" transform="translate(-48.632 -156.925)" fill="#e0e0e0"/>
      </g>
      <g id="freepik--Character--inject-14" transform="translate(94.406 59.939)">
        <path id="Path_8994" data-name="Path 8994" d="M323.5,198.915a4.538,4.538,0,0,0-7.061-3.881,8.454,8.454,0,0,0-3.052,3.345c-1.915,3.516-2.144,7.669-2.544,11.649a28.43,28.43,0,0,1-3.473,11.278l14.637-17.438A8.534,8.534,0,0,0,323.5,198.915Z" transform="translate(-172.996 -100.452)" fill="#1e64cc"/>
        <g id="Group_3663" data-name="Group 3663" transform="translate(134.374 93.815)" opacity="0.2">
          <path id="Path_8995" data-name="Path 8995" d="M323.5,198.915a4.538,4.538,0,0,0-7.061-3.881,8.454,8.454,0,0,0-3.052,3.345c-1.915,3.516-2.144,7.669-2.544,11.649a28.43,28.43,0,0,1-3.473,11.278l14.637-17.438A8.534,8.534,0,0,0,323.5,198.915Z" transform="translate(-307.37 -194.267)"/>
        </g>
        <path id="Path_8996" data-name="Path 8996" d="M304.232,187.44c.865.715,29.366,33.433,29.366,33.433l-15.416,12.243L298.6,208.709Z" transform="translate(-170.494 -98.504)" fill="#ffbe9d"/>
        <path id="Path_8997" data-name="Path 8997" d="M178.145,202.91c-.758.843-23.785,31.446-23.785,31.446l14.415,15.623,17.688-26.708Z" transform="translate(-129.34 -102.918)" fill="#ffbe9d"/>
        <path id="Path_8998" data-name="Path 8998" d="M188,230.764c1.68.772,2.63,2.566,3.266,4.288s1.108,3.573,2.3,5,3.423,2.194,4.924,1.108,1.5-3.18.858-4.817a9.891,9.891,0,0,0-4.181-4.653,20.662,20.662,0,0,0-5.946-2.223" transform="translate(-138.938 -110.496)" fill="#1e64cc"/>
        <g id="Group_3664" data-name="Group 3664" transform="translate(49.062 118.974)" opacity="0.2">
          <path id="Path_8999" data-name="Path 8999" d="M188,230.764c1.68.772,2.63,2.566,3.266,4.288s1.108,3.573,2.3,5,3.423,2.194,4.924,1.108,1.5-3.18.858-4.817a9.891,9.891,0,0,0-4.181-4.653,20.662,20.662,0,0,0-5.946-2.223" transform="translate(-188 -229.47)"/>
        </g>
        <path id="Path_9000" data-name="Path 9000" d="M302.4,308.132a10.415,10.415,0,0,0-1.572-.3L243.384,283.74h-57.1l-56.317,22.248c-5.717,1.9-13.872,13.057-9.248,26.386.129.372.264.715.4,1.079A19.812,19.812,0,0,0,144.7,344.974c7.783-2.08,18.961-5.124,30.467-8.276h1.294l35.827-10.163c5.61,1.551,17.4,4.8,30.51,8.4h0c15.93,4.381,33.8,9.291,44.825,12.214a19.8,19.8,0,0,0,23.585-11.521c.143-.35.272-.715.4-1.079C316.275,321.19,308.121,310.033,302.4,308.132Z" transform="translate(-119.352 -125.98)" fill="#455a64"/>
        <path id="Path_9001" data-name="Path 9001" d="M217.477,333.954l.2-.071.579-.179,2.273-.665,8.576-2.444-.1.172-5.717-21.012.193.15h-5.839c-2.023,0-4.1.186-6.211.272l-13.222.715c-16.338.951-31.1,2.058-41.788,2.923l-12.686,1.029-3.445.279-.893.064a.154.154,0,1,1-.007-.057l.893-.1,3.43-.372c2.987-.3,7.3-.715,12.643-1.186,10.677-.951,25.45-2.108,41.788-3.059l13.229-.715c2.144-.086,4.2-.236,6.218-.257h6.061v.157c2.223,8.362,4.145,15.6,5.589,21.048l.036.129-.129.036-8.576,2.323-2.294.593-.593.143a.565.565,0,0,1-.207.086Z" transform="translate(-124.983 -133.313)" fill="#263238"/>
        <path id="Path_9002" data-name="Path 9002" d="M220.267,308.779a12.668,12.668,0,0,1-3.373-2.244,13.314,13.314,0,0,1-2.816-2.916,35.843,35.843,0,0,1,3.109,2.566A35.392,35.392,0,0,1,220.267,308.779Z" transform="translate(-146.377 -131.651)" fill="#263238"/>
        <path id="Path_9003" data-name="Path 9003" d="M335.16,318.807a5.434,5.434,0,0,1-.786,0l-2.251-.136-8.276-.565-27.28-1.858L269.245,314.6l-8.283-.486-2.273-.15a5.108,5.108,0,0,1-.779-.079,4.141,4.141,0,0,1,.786,0l2.258.072,8.283.343c7,.322,16.666.836,27.337,1.522s20.319,1.394,27.3,1.965l8.269.715,2.244.214a4.146,4.146,0,0,1,.772.093Z" transform="translate(-158.884 -134.575)" fill="#263238"/>
        <path id="Path_9004" data-name="Path 9004" d="M250.1,318.638a4,4,0,0,1,2.358-1.322,4.482,4.482,0,0,1,2.7,0c-.036.086-1.2.05-2.587.414S250.177,318.745,250.1,318.638Z" transform="translate(-156.654 -135.507)" fill="#263238"/>
        <path id="Path_9005" data-name="Path 9005" d="M252.28,324.063A12.546,12.546,0,0,1,257,323.5a6.349,6.349,0,0,1-2.33.507A6.657,6.657,0,0,1,252.28,324.063Z" transform="translate(-157.278 -137.302)" fill="#263238"/>
        <path id="Path_9006" data-name="Path 9006" d="M253.26,329.587c0-.136,1.279-.172,2.766-.615s2.58-1.072,2.659-.958a5,5,0,0,1-2.537,1.429A5.083,5.083,0,0,1,253.26,329.587Z" transform="translate(-157.558 -138.608)" fill="#263238"/>
        <path id="Path_9007" data-name="Path 9007" d="M255.22,335.8c0-.136,1.222-.229,2.609-.765s2.387-1.244,2.466-1.136a4.287,4.287,0,0,1-2.3,1.565A4.59,4.59,0,0,1,255.22,335.8Z" transform="translate(-158.117 -140.287)" fill="#263238"/>
        <path id="Path_9008" data-name="Path 9008" d="M290.284,307.788a21.59,21.59,0,0,1-1.93,2.659,19.546,19.546,0,0,1-1.98,2.623,8.191,8.191,0,0,1,1.608-2.895A8.773,8.773,0,0,1,290.284,307.788Z" transform="translate(-167.002 -132.84)" fill="#263238"/>
        <path id="Path_9009" data-name="Path 9009" d="M240.053,307.425l-13.686-2.073s-1.244-3.223-3.352-3.388-4.059,2.144-5.6,2.023-19.918-6.325-20.969,2l7.647,3.152" transform="translate(-141.349 -131.091)" fill="#ffbe9d"/>
        <path id="Path_9010" data-name="Path 9010" d="M302.566,316.8l-40.737,8.733L258.17,311.55l15.073-.715s1.808-2.952,3.909-2.73,3.573,2.859,5.146,2.987S303.024,308.427,302.566,316.8Z" transform="translate(-158.959 -132.929)" fill="#ffbe9d"/>
        <path id="Path_9011" data-name="Path 9011" d="M189.112,285.72s-.114.064-.35.172l-1.051.486c-.922.429-2.294,1.036-4.067,1.8-3.573,1.529-8.712,3.638-15.123,6.189s-14.051,5.539-22.455,9.084a112.8,112.8,0,0,0-12.993,5.9l-.8.479a.767.767,0,0,0-.143.1h0v-.05a1.093,1.093,0,0,0,.364.114,12.913,12.913,0,0,0,1.844.157c1.258.036,2.523,0,3.8,0,2.559-.064,5.16-.179,7.783-.314,10.513-.557,20.512-1.308,29.6-2l24.156-1.923,16.281-1.358,4.431-.357,1.151-.086h.393a2.035,2.035,0,0,0-.393.057l-1.143.122-4.424.429L199.7,306.2c-6.868.6-15.051,1.294-24.149,2.008s-19.1,1.472-29.609,2.03c-2.63.136-5.231.25-7.79.307-1.286,0-2.559.043-3.831,0a13.282,13.282,0,0,1-1.9-.157,1.387,1.387,0,0,1-.522-.193.314.314,0,0,1-.121-.243.336.336,0,0,1,.093-.222,1.273,1.273,0,0,1,.236-.172l.8-.479a111.961,111.961,0,0,1,13.05-5.9c8.412-3.531,16.073-6.489,22.491-9.012s11.607-4.6,15.159-6.082l4.1-1.73,1.058-.45Z" transform="translate(-122.898 -126.545)" fill="#fff"/>
        <path id="Path_9012" data-name="Path 9012" d="M290.84,285.72a1.022,1.022,0,0,1,.264.093l.765.322,2.916,1.258,10.72,4.567L341.032,306.8a90.053,90.053,0,0,1,10.006,4.574c.393.214.779.436,1.151.665a4.894,4.894,0,0,1,.579.372,1.5,1.5,0,0,1,.143.157.372.372,0,0,1,.064.286c0,.129-.086.172-.15.243a1.472,1.472,0,0,1-.179.107,9.62,9.62,0,0,1-2.623.322c-1.715.036-3.388,0-5-.093-6.511-.314-12.357-.85-17.267-1.3s-8.869-.886-11.606-1.186L313,310.577l-.822-.107a1.506,1.506,0,0,1-.272-.05h.279l.822.064,3.159.3,11.621,1.065c4.91.415,10.756.929,17.26,1.222,1.622.064,3.288.121,5,.079a9.448,9.448,0,0,0,2.487-.293l.1-.057h0c-.043.036,0-.05-.086-.107s-.336-.222-.529-.336c-.372-.222-.75-.443-1.136-.658a93.065,93.065,0,0,0-9.963-4.545c-13.879-5.789-26.443-11.049-35.491-14.937-4.524-1.944-8.176-3.573-10.72-4.681l-2.859-1.315-.75-.357Z" transform="translate(-168.28 -126.545)" fill="#fff"/>
        <path id="Path_9013" data-name="Path 9013" d="M243.241,146.342h0A11.764,11.764,0,0,0,255.8,133.921c-.172-2.959-.322-5.217-.322-5.217s9.327-1.429,9.441-10.77-1.5-30.731-1.5-30.731h0a32.39,32.39,0,0,0-32.547,4.109l-1.387,1.065,2.859,43.01A11.771,11.771,0,0,0,243.241,146.342Z" transform="translate(-150.776 -69.156)" fill="#ffbe9d"/>
        <path id="Path_9014" data-name="Path 9014" d="M261.04,144.782a21.7,21.7,0,0,1-12.15-3.452s2.859,6.711,12.15,5.868Z" transform="translate(-156.311 -85.349)" fill="#eb996e"/>
        <path id="Path_9015" data-name="Path 9015" d="M228.624,108.882c-.157-.071-6.432-1.894-6.2,4.474s6.554,4.853,6.561,4.674S228.624,108.882,228.624,108.882Z" transform="translate(-148.759 -76.007)" fill="#ffbe9d"/>
        <path id="Path_9016" data-name="Path 9016" d="M227.613,116.531a2.223,2.223,0,0,1-.293.172,1.122,1.122,0,0,1-.829.043,2.684,2.684,0,0,1-1.351-2.423,3.738,3.738,0,0,1,.257-1.6,1.3,1.3,0,0,1,.808-.879.565.565,0,0,1,.665.286c.093.172.057.3.093.314s.129-.114.071-.372a.665.665,0,0,0-.264-.393.808.808,0,0,0-.615-.143,1.551,1.551,0,0,0-1.129,1.022,3.738,3.738,0,0,0-.329,1.787,2.877,2.877,0,0,0,1.708,2.7,1.165,1.165,0,0,0,1.008-.2C227.606,116.681,227.634,116.538,227.613,116.531Z" transform="translate(-149.406 -76.844)" fill="#eb996e"/>
        <path id="Path_9017" data-name="Path 9017" d="M247.612,107.619c.164-.179,1.172.572,2.609.565s2.48-.715,2.637-.543-.093.393-.55.715a3.609,3.609,0,0,1-2.144.65,3.5,3.5,0,0,1-2.073-.665C247.683,108,247.533,107.69,247.612,107.619Z" transform="translate(-155.94 -75.723)" fill="#263238"/>
        <path id="Path_9018" data-name="Path 9018" d="M267.312,107.24c.164-.172,1.172.572,2.609.572s2.48-.715,2.637-.543c.071.071-.093.386-.55.715a3.716,3.716,0,0,1-2.144.65,3.573,3.573,0,0,1-2.073-.672C267.383,107.633,267.233,107.318,267.312,107.24Z" transform="translate(-161.561 -75.615)" fill="#263238"/>
        <path id="Path_9019" data-name="Path 9019" d="M261.8,117.115a9.376,9.376,0,0,1,2.33-.422c.365-.036.715-.107.772-.357a1.865,1.865,0,0,0-.243-1.086l-1.079-2.787c-1.5-3.959-2.594-7.225-2.43-7.283s1.508,3.109,3.009,7.075l1.036,2.8a2.08,2.08,0,0,1,.186,1.429.893.893,0,0,1-.6.536,2.308,2.308,0,0,1-.622.086A9.612,9.612,0,0,1,261.8,117.115Z" transform="translate(-159.805 -75.034)" fill="#263238"/>
        <path id="Path_9020" data-name="Path 9020" d="M256.087,123.26c.229,0,.236,1.544,1.565,2.644s2.987.936,2.995,1.151c0,.1-.364.307-1.065.322a3.816,3.816,0,0,1-2.5-.872,3.338,3.338,0,0,1-1.215-2.216C255.808,123.639,255.958,123.253,256.087,123.26Z" transform="translate(-158.297 -80.193)" fill="#263238"/>
        <path id="Path_9021" data-name="Path 9021" d="M252.71,100.77c-.143.393-1.572.207-3.252.407s-3.037.665-3.266.314c-.093-.172.143-.536.715-.915a5.717,5.717,0,0,1,5-.543C252.481,100.284,252.767,100.584,252.71,100.77Z" transform="translate(-155.535 -73.469)" fill="#263238"/>
        <path id="Path_9022" data-name="Path 9022" d="M271.814,102.537c-.25.322-1.236,0-2.423,0s-2.194.214-2.423-.121c-.1-.172.057-.493.493-.8a3.5,3.5,0,0,1,3.909.121C271.793,102.037,271.928,102.373,271.814,102.537Z" transform="translate(-161.461 -73.864)" fill="#263238"/>
        <path id="Path_9023" data-name="Path 9023" d="M266.6,76.9a3.438,3.438,0,0,0-1.272-3.073,2.437,2.437,0,0,0-3.159.236,2.859,2.859,0,0,0-2.451-3.452c-1.515-.093-2.816,1.051-4.288,1.429a6.911,6.911,0,0,1-4.352-.507c-1.379-.55-2.666-1.322-4.067-1.83a11.921,11.921,0,0,0-15.244,7,5.275,5.275,0,0,0-5.61,2.144,8.655,8.655,0,0,0-1.329,6.111,19.724,19.724,0,0,0,1.065,4.181v.357c.093,5.124.679,11.149,2.859,11.178,3.816.057,2.909-7.147,2.909-7.147,4.674-1.808,2.93-8.819,4.1-9.877s3.616-3.573,13.408,1.472a18.924,18.924,0,0,0,11.614,1.251l.243-.043h.057a.307.307,0,0,0,.086-.036,8.7,8.7,0,0,0,2.509-1.065,5,5,0,0,0,2.073-2.3,2.73,2.73,0,0,0-.536-2.916A5.982,5.982,0,0,0,266.6,76.9Z" transform="translate(-149.416 -64.704)" fill="#263238"/>
        <path id="Path_9024" data-name="Path 9024" d="M261.748,63a2.561,2.561,0,0,1,.179.257,4.011,4.011,0,0,1,.372.793,5.974,5.974,0,0,1,.2,3.209,6.31,6.31,0,0,1-2.573,3.981,8.24,8.24,0,0,1-5.717.929c-2.023-.307-3.931-.972-5.667-1.329a10.377,10.377,0,0,0-4.638-.114,6.161,6.161,0,0,0-2.773,1.429c-.543.515-.715.886-.779.865s0-.1.136-.279a3.994,3.994,0,0,1,.543-.715,5.889,5.889,0,0,1,2.816-1.544,10.22,10.22,0,0,1,4.767,0c1.765.343,3.631,1.008,5.646,1.294a7.976,7.976,0,0,0,5.5-.843,6.075,6.075,0,0,0,2.494-3.738,6.153,6.153,0,0,0-.079-3.109C261.941,63.372,261.712,63,261.748,63Z" transform="translate(-153.867 -63)" fill="#455a64"/>
        <path id="Path_9025" data-name="Path 9025" d="M264.438,65.43a1.98,1.98,0,0,1,.6,1.429,3.26,3.26,0,0,1-.314,1.687,3.631,3.631,0,0,1-1.429,1.529,4.324,4.324,0,0,1-2.015.579,5,5,0,0,1-1.687-.229,3.116,3.116,0,0,1-1.372-.715c0-.05.543.236,1.429.457a4.674,4.674,0,0,0,3.445-.422,3.5,3.5,0,0,0,1.329-1.358,3.23,3.23,0,0,0,.357-1.522,4.93,4.93,0,0,0-.343-1.437Z" transform="translate(-158.973 -63.693)" fill="#263238"/>
        <path id="Path_9026" data-name="Path 9026" d="M301.959,276.114a7.068,7.068,0,0,1-3.888,6.861l-10.184-4.288-12.557.843,4.953-13.45s14.108,1.73,16.1,3.33S302.116,274,301.959,276.114Z" transform="translate(-163.855 -120.942)" fill="#1e64cc"/>
        <g id="Group_3665" data-name="Group 3665" transform="translate(111.476 145.138)" opacity="0.4">
          <path id="Path_9027" data-name="Path 9027" d="M301.959,276.114a7.068,7.068,0,0,1-3.888,6.861l-10.184-4.288-12.557.843,4.953-13.45s14.108,1.73,16.1,3.33S302.116,274,301.959,276.114Z" transform="translate(-275.33 -266.08)"/>
        </g>
        <path id="Path_9028" data-name="Path 9028" d="M301.959,276.114a7.068,7.068,0,0,1-3.888,6.861l-10.184-4.288-12.557.843,4.953-13.45s14.108,1.73,16.1,3.33S302.116,274,301.959,276.114Z" transform="translate(-163.855 -120.942)" fill="#1e64cc"/>
        <g id="Group_3666" data-name="Group 3666" transform="translate(111.476 145.138)" opacity="0.4">
          <path id="Path_9029" data-name="Path 9029" d="M301.959,276.114a7.068,7.068,0,0,1-3.888,6.861l-10.184-4.288-12.557.843,4.953-13.45s14.108,1.73,16.1,3.33S302.116,274,301.959,276.114Z" transform="translate(-275.33 -266.08)"/>
        </g>
        <path id="Path_9030" data-name="Path 9030" d="M283.221,184.332l-.993-.886-21.548-16.874c-6.654-7.068-11.492-9.2-20.847-10.306-1.529-.179.879.114,0,0-7.147,2.208-16.788,2.423-23.971.207h0c-3.323.136-6.082,1.165-8.912,1.708-8.919,1.708-13.686,8-17.117,14.2L172.58,201.32l.715,1.144a19.868,19.868,0,0,0,10.191,7.983h0l1.158.579a26.493,26.493,0,0,1,10.177,8.526h0l7.6-13.272-2.144,21.269-1.472,20.89a104.143,104.143,0,0,0,31.175,3.974c15.008.071,35.92-18.217,42.667-7.647.093-5.417-6.725-12.864-8.619-16.438-5.868-11.171-4.767-15.687-5.189-24.071l10.077,6.182,1.808-3.538a70.225,70.225,0,0,0,5.532-14.823C276.252,192.086,277.439,182.41,283.221,184.332Z" transform="translate(-134.538 -89.593)" fill="#1e64cc"/>
        <path id="Path_9031" data-name="Path 9031" d="M214.278,196.28a3.416,3.416,0,0,1,.079.872c0,.565.043,1.379.057,2.387,0,2.008.043,4.788,0,7.862s-.05,5.853-.1,7.862c0,1.008-.05,1.822-.079,2.387a3.645,3.645,0,0,1-.086.872,3.473,3.473,0,0,1-.079-.872c0-.565-.043-1.379-.057-2.387,0-2.008-.036-4.788,0-7.862s.05-5.846.093-7.862c0-1,.05-1.815.079-2.38A3.573,3.573,0,0,1,214.278,196.28Z" transform="translate(-146.356 -101.027)" fill="#263238"/>
        <path id="Path_9032" data-name="Path 9032" d="M294.016,229.7a8.283,8.283,0,0,1-.179-1.351c-.086-.943-.193-2.187-.329-3.695-.264-3.116-.593-7.433-.929-12.2s-.622-9.084-.8-12.207c-.086-1.508-.15-2.759-.2-3.7a8.659,8.659,0,0,1,0-1.365,8.276,8.276,0,0,1,.179,1.351c.086.943.2,2.187.329,3.695.264,3.123.593,7.433.929,12.2s.622,9.084.808,12.207c.079,1.508.143,2.759.193,3.709a8.573,8.573,0,0,1,0,1.358Z" transform="translate(-168.483 -100.713)" fill="#263238"/>
        <g id="Group_3667" data-name="Group 3667" transform="translate(78.579 67.516)" opacity="0.2">
          <path id="Path_9033" data-name="Path 9033" d="M229.3,157.577a55.424,55.424,0,0,0,17.388,15.809,19.933,19.933,0,0,0,8.076,2.952c4.967.4,9.648-2.308,13.5-5.467a10.762,10.762,0,0,0,3.674-4.517c.643-1.858.143-4.288-1.594-5.174a4.5,4.5,0,0,0-3.916.129,21.116,21.116,0,0,0-3.388,2.223,22.748,22.748,0,0,1-32.075-6.061" transform="translate(-229.3 -157.47)"/>
        </g>
        <path id="Path_9034" data-name="Path 9034" d="M261.048,224.537a20.238,20.238,0,0,0-.457-3,11.721,11.721,0,0,0-1.379-3.259,12.45,12.45,0,0,0-3.123-3.459,12.15,12.15,0,0,0-11.542-1.722,12.184,12.184,0,0,0-5.653,4.245,12.15,12.15,0,0,0,0,14.387,12.184,12.184,0,0,0,5.653,4.245,12.15,12.15,0,0,0,11.5-1.722,12.45,12.45,0,0,0,3.123-3.459,11.721,11.721,0,0,0,1.379-3.259,20.378,20.378,0,0,0,.457-2.995.83.83,0,0,1,0,.2c0,.15,0,.343,0,.586a5.632,5.632,0,0,1-.079.958,8.742,8.742,0,0,1-.236,1.286,11.512,11.512,0,0,1-1.336,3.323,12.438,12.438,0,0,1-14.966,5.4,11.648,11.648,0,0,1-3.173-1.694,11.513,11.513,0,0,1-2.651-2.659,12.45,12.45,0,0,1,0-14.815,14.167,14.167,0,0,1,1.229-1.429,14.967,14.967,0,0,1,1.429-1.208,11.749,11.749,0,0,1,3.173-1.694,12.438,12.438,0,0,1,14.966,5.4,11.514,11.514,0,0,1,1.336,3.323,8.742,8.742,0,0,1,.236,1.286,5.641,5.641,0,0,1,.079.958v.593A.88.88,0,0,1,261.048,224.537Z" transform="translate(-152.668 -105.527)" fill="#fff"/>
        <path id="Path_9035" data-name="Path 9035" d="M253.066,236.928c-.107,0-.186-5.525-.186-12.343s.079-12.335.186-12.335.186,5.517.186,12.335S253.166,236.928,253.066,236.928Z" transform="translate(-157.449 -105.583)" fill="#fff"/>
        <path id="Path_9036" data-name="Path 9036" d="M259.689,236.668a5.493,5.493,0,0,1-.829-.572l-2.144-1.658c-1.83-1.429-4.331-3.395-7.075-5.6l-.222-.172h.243c-2.516,2.366-4.8,4.488-6.468,6l-1.987,1.787a4.837,4.837,0,0,1-.758.615,4.872,4.872,0,0,1,.658-.715l1.88-1.837c1.615-1.565,3.874-3.724,6.432-6.089l.114-.114.129.1.214.179c2.752,2.2,5.224,4.21,7.011,5.675.836.715,1.544,1.294,2.094,1.751A5.419,5.419,0,0,1,259.689,236.668Z" transform="translate(-153.903 -110.168)" fill="#fff"/>
        <g id="Group_3668" data-name="Group 3668" transform="translate(83.889 133.488)" opacity="0.2">
          <path id="Path_9037" data-name="Path 9037" d="M238.274,268.311A29.023,29.023,0,0,0,266.418,257.3c1.029-1.379,1.972-3.073,1.544-4.738a4.208,4.208,0,0,0-4.138-2.78,7.861,7.861,0,0,0-4.8,2.194c-3.273,2.859-5.146,7.068-8.412,9.948a15.008,15.008,0,0,1-10.72,3.695,7.927,7.927,0,0,0-1.794.071,1.608,1.608,0,0,0-1.365,1.429c0,.715.557,1.015,1.537,1.2" transform="translate(-236.73 -249.778)"/>
        </g>
        <g id="Group_3669" data-name="Group 3669" transform="translate(123.404 101.657)" opacity="0.2">
          <path id="Path_9038" data-name="Path 9038" d="M292.02,205.24l.886,13.014,10.084,6.175,2.108-3.924Z" transform="translate(-292.02 -205.24)"/>
        </g>
        <path id="Path_9039" data-name="Path 9039" d="M321.891,195.7a5.44,5.44,0,0,0-1.208-.236,4.545,4.545,0,0,0-3.052,1.143,8.3,8.3,0,0,0-2.38,4.288c-.493,1.822-.965,3.874-1.622,5.975a80.564,80.564,0,0,1-4.031,10.513c-.607,1.308-1.143,2.344-1.522,3.052a6.867,6.867,0,0,1-.636,1.079,9.914,9.914,0,0,1,.507-1.143c.336-.715.836-1.78,1.429-3.095a94.774,94.774,0,0,0,3.909-10.513c.658-2.094,1.129-4.117,1.651-5.968a8.362,8.362,0,0,1,2.544-4.374,4.6,4.6,0,0,1,3.223-1.079,2.738,2.738,0,0,1,.915.222A1.258,1.258,0,0,1,321.891,195.7Z" transform="translate(-173.016 -100.758)" fill="#263238"/>
        <path id="Path_9040" data-name="Path 9040" d="M194.8,237.559a10.178,10.178,0,0,1-.715-.886A29.876,29.876,0,0,0,192,234.35a19.676,19.676,0,0,0-3.609-2.859c-1.472-.929-3.195-1.772-5-2.687a47.084,47.084,0,0,1-4.946-2.859,20.76,20.76,0,0,1-3.573-3.023,12.862,12.862,0,0,1-1.844-2.551,7.234,7.234,0,0,1-.379-.772c-.079-.179-.114-.272-.1-.279a18.582,18.582,0,0,0,2.516,3.423,21.513,21.513,0,0,0,3.573,2.916,50.8,50.8,0,0,0,4.924,2.809,56.446,56.446,0,0,1,5,2.73,18.652,18.652,0,0,1,3.6,2.973,22.457,22.457,0,0,1,2.015,2.416c.214.3.379.536.479.715A1.2,1.2,0,0,1,194.8,237.559Z" transform="translate(-134.529 -107.6)" fill="#263238"/>
        <path id="Path_9041" data-name="Path 9041" d="M269.924,250.89a1.672,1.672,0,0,1-.122.407c-.107.264-.229.665-.457,1.151a26.057,26.057,0,0,1-2.144,4,28.666,28.666,0,0,1-25.5,13.157,26.678,26.678,0,0,1-4.5-.579c-.522-.1-.922-.229-1.194-.293a2.091,2.091,0,0,1-.415-.136,1.593,1.593,0,0,1,.429.064c.279.043.715.15,1.208.229a31.166,31.166,0,0,0,4.481.45,29.109,29.109,0,0,0,25.271-13.036,30.174,30.174,0,0,0,2.23-3.917c.243-.479.386-.865.515-1.122a2.145,2.145,0,0,1,.2-.379Z" transform="translate(-152.516 -116.608)" fill="#263238"/>
        <g id="Group_3670" data-name="Group 3670" transform="translate(60.911 98.119)" opacity="0.2">
          <path id="Path_9042" data-name="Path 9042" d="M204.58,230.628a105.723,105.723,0,0,1,7.011-30.338v18.5Z" transform="translate(-204.58 -200.29)"/>
        </g>
        <path id="Path_9043" data-name="Path 9043" d="M228.79,145.257c3.13,6.711,11.435,10.52,18.682,11.921a23.928,23.928,0,0,0,20.561-5.953c4.574-4.288,7.268-10.241,11.528-14.851a29.3,29.3,0,0,1,29.424-7.983l.565-10.149c-3.473-2.251-12.414-3.066-16.5-2.451a32.532,32.532,0,0,0-20.6,12.057c-4.488,5.775-7.147,13.2-13.086,17.445-4.288,3.066-9.641,3.087-14.851,2.208s-8.726-5.646-12.75-9.069Z" transform="translate(-150.576 -78.005)" fill="#263238"/>
        <path id="Path_9044" data-name="Path 9044" d="M232.87,147.56a16.738,16.738,0,0,0,23.52,2.787c.929-.715,2.144-1.622,3.166-1.072a2.9,2.9,0,0,1,1.122,2.387c.25,2.1.45,4.424-.786,6.139s-3.345,2.223-5.346,2.566c-4.746.786-9.784.715-14.187-1.222s-7.111-6.782-7.49-11.585" transform="translate(-151.74 -87.126)" fill="#263238"/>
        <path id="Path_9045" data-name="Path 9045" d="M262.591,152.7a1.369,1.369,0,0,1-.236.264c-.164.157-.393.407-.715.715a16.922,16.922,0,0,1-3.052,2.094,17.152,17.152,0,0,1-5.189,1.787,16.617,16.617,0,0,1-6.711-.207,22.349,22.349,0,0,1-6.161-2.694c-.886-.529-1.715-1.036-2.487-1.544a19.077,19.077,0,0,1-2.03-1.565,13.579,13.579,0,0,1-2.451-2.766,7.473,7.473,0,0,1-.493-.879c-.1-.207-.143-.322-.129-.329s.243.422.715,1.122a14.888,14.888,0,0,0,2.5,2.659,23.066,23.066,0,0,0,2.03,1.5c.765.486,1.608.986,2.494,1.508a22.727,22.727,0,0,0,6.068,2.623,16.587,16.587,0,0,0,6.568.236,17.531,17.531,0,0,0,5.124-1.687,18.322,18.322,0,0,0,3.08-1.973,13.1,13.1,0,0,1,1.072-.865Z" transform="translate(-151.759 -87.132)" fill="#455a64"/>
        <path id="Path_9046" data-name="Path 9046" d="M288.325,153.05a37.745,37.745,0,0,1-4.174-2.144,37.713,37.713,0,0,1-4.081-2.316,23.89,23.89,0,0,1,4.288,1.987,24.669,24.669,0,0,1,3.966,2.473Z" transform="translate(-165.207 -87.42)" fill="#455a64"/>
        <path id="Path_9047" data-name="Path 9047" d="M295,143.77a70.46,70.46,0,0,1-8.984-4.96,34.5,34.5,0,0,1,4.581,2.316,35.447,35.447,0,0,1,4.4,2.644Z" transform="translate(-166.905 -84.63)" fill="#455a64"/>
        <path id="Path_9048" data-name="Path 9048" d="M302.231,135.3a6.968,6.968,0,0,1-1.186-1.029l-2.737-2.6-2.744-2.58a7.32,7.32,0,0,1-1.093-1.122,6.819,6.819,0,0,1,1.265.922c.715.615,1.765,1.494,2.859,2.509s2.015,1.973,2.666,2.687A6.317,6.317,0,0,1,302.231,135.3Z" transform="translate(-169.315 -81.537)" fill="#455a64"/>
        <path id="Path_9049" data-name="Path 9049" d="M306.35,119.52a9.572,9.572,0,0,1,1.022,1.472c.715,1.036,1.465,2.266,2.344,3.616s1.694,2.566,2.38,3.573a8.705,8.705,0,0,1,.929,1.537,8.209,8.209,0,0,1-1.151-1.379c-.665-.886-1.544-2.144-2.473-3.573s-1.708-2.73-2.251-3.688a7.476,7.476,0,0,1-.8-1.558Z" transform="translate(-172.705 -79.126)" fill="#455a64"/>
        <path id="Path_9050" data-name="Path 9050" d="M322.049,116.56a8.119,8.119,0,0,1,.415,1.594c.257,1.136.55,2.437.879,3.881s.665,2.73.943,3.859a7.478,7.478,0,0,1,.336,1.615,6.8,6.8,0,0,1-.586-1.544c-.314-.972-.715-2.33-1.058-3.845s-.615-2.909-.772-3.916A6.473,6.473,0,0,1,322.049,116.56Z" transform="translate(-177.183 -78.281)" fill="#455a64"/>
        <path id="Path_9051" data-name="Path 9051" d="M334.257,116.38c.107,0,.064,2.416.214,5.382s.422,5.36.314,5.374a6.013,6.013,0,0,1-.329-1.551c-.143-.972-.286-2.316-.357-3.809a35.388,35.388,0,0,1,0-3.816,6.31,6.31,0,0,1,.157-1.579Z" transform="translate(-180.608 -78.23)" fill="#455a64"/>
        <path id="Path_9052" data-name="Path 9052" d="M279.791,163.4a34.258,34.258,0,0,1-3.738-3.38,35.01,35.01,0,0,1-3.473-3.652,34.822,34.822,0,0,1,3.738,3.388,33.666,33.666,0,0,1,3.473,3.645Z" transform="translate(-163.07 -89.64)" fill="#455a64"/>
        <path id="Path_9053" data-name="Path 9053" d="M267.452,169.835a31.9,31.9,0,0,1-1.551-4.524,30.261,30.261,0,0,1-1.2-4.631,30.973,30.973,0,0,1,1.558,4.524,30.473,30.473,0,0,1,1.194,4.631Z" transform="translate(-160.822 -90.869)" fill="#455a64"/>
        <path id="Path_9054" data-name="Path 9054" d="M252.84,169.959a24.038,24.038,0,0,1,.679-4.2,24.741,24.741,0,0,1,1.043-4.124,24.877,24.877,0,0,1-.679,4.2A24.742,24.742,0,0,1,252.84,169.959Z" transform="translate(-157.438 -91.143)" fill="#455a64"/>
        <path id="Path_9055" data-name="Path 9055" d="M241,165.924a13.579,13.579,0,0,1,1.358-3.724,13.907,13.907,0,0,1,2.08-3.38c.093.064-.8,1.587-1.744,3.573A39,39,0,0,1,241,165.924Z" transform="translate(-154.06 -90.339)" fill="#455a64"/>
        <path id="Path_9056" data-name="Path 9056" d="M236.2,153.65a12.949,12.949,0,0,1-1.637,3.238,13.529,13.529,0,0,1-2.144,2.9,27.643,27.643,0,0,1,1.858-3.1,27.206,27.206,0,0,1,1.922-3.037Z" transform="translate(-151.612 -88.864)" fill="#455a64"/>
        <path id="Path_9057" data-name="Path 9057" d="M250.767,156.66c.1,0,.036.593-.036,1.286s-.129,1.258-.236,1.265-.214-.586-.136-1.308S250.667,156.631,250.767,156.66Z" transform="translate(-156.722 -89.722)" fill="#455a64"/>
        <path id="Path_9058" data-name="Path 9058" d="M260.467,159.471a6.3,6.3,0,0,1-.493-2.294,6.009,6.009,0,0,1,0-2.337,9.4,9.4,0,0,1,.357,2.3,9.147,9.147,0,0,1,.136,2.33Z" transform="translate(-159.441 -89.203)" fill="#455a64"/>
        <path id="Path_9059" data-name="Path 9059" d="M267.718,150.74a19.142,19.142,0,0,1,.507,2.859,18.788,18.788,0,0,1,.443,2.859,12.564,12.564,0,0,1-.95-5.718Z" transform="translate(-161.675 -88.033)" fill="#455a64"/>
        <path id="Path_9060" data-name="Path 9060" d="M170.234,241.746l44.847-26.015a11.564,11.564,0,0,0,5.76-9.505l1.186-27.308a1.429,1.429,0,0,0-1.272-1.429h0a1.429,1.429,0,0,0-1.479,1.022L213.559,199l-53.394,22.613a11.285,11.285,0,0,0-5.682,15.444h0a11.285,11.285,0,0,0,15.752,4.688Z" transform="translate(-129.034 -95.664)" fill="#ffbe9d"/>
        <path id="Path_9061" data-name="Path 9061" d="M216.592,207.57a4.691,4.691,0,0,1-.515.272l-1.5.715-5.56,2.544c-4.71,2.144-11.242,5-18.5,8.076s-13.886,5.717-18.7,7.611c-2.4.936-4.36,1.68-5.717,2.144l-1.565.572a2.588,2.588,0,0,1-.557.172,5.278,5.278,0,0,1,.529-.243l1.537-.636c1.379-.55,3.3-1.336,5.675-2.294,4.788-1.93,11.392-4.638,18.653-7.7s13.808-5.91,18.539-7.976l5.61-2.437,1.537-.65A2.953,2.953,0,0,1,216.592,207.57Z" transform="translate(-132.082 -104.248)" fill="#eb996e"/>
        <path id="Path_9062" data-name="Path 9062" d="M156.72,258.557c0-.036.6-.1,1.651-.357a9.74,9.74,0,0,0,1.851-.672,14.514,14.514,0,0,0,2.2-1.394c.779-.586,1.637-1.229,2.53-1.937s1.83-1.508,2.809-2.344a33.434,33.434,0,0,1,6.868-4.86,23.363,23.363,0,0,1,8.09-2.294,24.071,24.071,0,0,1,6.868.35,22.4,22.4,0,0,1,4.424,1.387c.5.214.872.422,1.129.55a1.429,1.429,0,0,1,.379.222,2.637,2.637,0,0,1-.407-.157c-.272-.1-.65-.293-1.158-.486a24.849,24.849,0,0,0-4.417-1.251,24.3,24.3,0,0,0-6.782-.272,23.492,23.492,0,0,0-7.962,2.287,34.226,34.226,0,0,0-6.811,4.788c-.986.829-1.93,1.615-2.859,2.323s-1.772,1.329-2.573,1.9a14.058,14.058,0,0,1-2.266,1.379,9.852,9.852,0,0,1-1.9.622c-.536.107-.958.164-1.251.193A1.68,1.68,0,0,1,156.72,258.557Z" transform="translate(-130.013 -114.812)" fill="#263238"/>
        <path id="Path_9063" data-name="Path 9063" d="M168.743,258.15s.043.257.15.715a3.817,3.817,0,0,0,.893,1.615,5.653,5.653,0,0,0,2.287,1.5,4.738,4.738,0,0,0,3.28-.122l.307-.143-.086.236A6.225,6.225,0,0,0,173.6,259.4a6.081,6.081,0,0,0-2.4-1.1,9.9,9.9,0,0,0-2.459-.121,1.857,1.857,0,0,1,.65-.172,5.874,5.874,0,0,1,1.858.036,6.11,6.11,0,0,1,2.551,1.086,6.318,6.318,0,0,1,2.144,2.68l.071.164-.157.071-.336.157a5,5,0,0,1-3.573.107,5.718,5.718,0,0,1-2.373-1.658,3.709,3.709,0,0,1-.836-1.758A1.637,1.637,0,0,1,168.743,258.15Z" transform="translate(-133.432 -118.622)" fill="#263238"/>
        <path id="Path_9064" data-name="Path 9064" d="M168.76,258.23a8.576,8.576,0,0,1,2.216,1.065,7.961,7.961,0,0,1,2.03,1.394,8.574,8.574,0,0,1-2.216-1.065A7.961,7.961,0,0,1,168.76,258.23Z" transform="translate(-133.449 -118.702)" fill="#263238"/>
        <path id="Path_9065" data-name="Path 9065" d="M178.21,250.173a5.926,5.926,0,0,1,.307.629,3.9,3.9,0,0,0,1.236,1.372,5.789,5.789,0,0,0,2.573.936,4.753,4.753,0,0,0,3.166-.872l.264-.214v.25a6.268,6.268,0,0,0-2.5-2.03,6.168,6.168,0,0,0-2.594-.522,9.463,9.463,0,0,0-2.423.45,1.815,1.815,0,0,1,.6-.314,5.66,5.66,0,0,1,1.815-.393,5.96,5.96,0,0,1,2.73.472,6.332,6.332,0,0,1,2.68,2.144l.1.143-.136.107c-.093.071-.186.157-.293.229a5,5,0,0,1-3.416.915,5.789,5.789,0,0,1-2.687-1.065,3.731,3.731,0,0,1-1.215-1.522,1.844,1.844,0,0,1-.207-.715Z" transform="translate(-136.145 -116.198)" fill="#263238"/>
        <path id="Path_9066" data-name="Path 9066" d="M178.21,250.454a8.126,8.126,0,0,1,2.408.529,8.325,8.325,0,0,1,2.294.886,16.345,16.345,0,0,1-4.7-1.429Z" transform="translate(-136.145 -116.479)" fill="#263238"/>
        <path id="Path_9067" data-name="Path 9067" d="M160.68,259.43s.172-.193.443-.543a3.8,3.8,0,0,0,.715-1.694,5.617,5.617,0,0,0-.207-2.723,4.717,4.717,0,0,0-2.1-2.523l-.3-.157.236-.079a6.153,6.153,0,0,0-.222,5.718,9.793,9.793,0,0,0,1.429,2.023,1.837,1.837,0,0,1-.536-.414,6.1,6.1,0,0,1-1.808-4.174,6.382,6.382,0,0,1,.829-3.316l.086-.157.157.086.329.172a5,5,0,0,1,2.244,2.73,5.717,5.717,0,0,1,.136,2.859,3.667,3.667,0,0,1-.872,1.737,1.765,1.765,0,0,1-.557.457Z" transform="translate(-130.472 -116.75)" fill="#263238"/>
        <path id="Path_9068" data-name="Path 9068" d="M161.344,260.7a7.932,7.932,0,0,1-.515-2.408,8.426,8.426,0,0,1-.143-2.458,7.933,7.933,0,0,1,.515,2.408A8.426,8.426,0,0,1,161.344,260.7Z" transform="translate(-131.136 -118.017)" fill="#263238"/>
        <path id="Path_9069" data-name="Path 9069" d="M184.756,244.107s.214-.086.579-.272a3.445,3.445,0,0,0,1.279-1.108,5.146,5.146,0,0,0,.915-2.33,4.288,4.288,0,0,0-.715-2.909c-.057-.093-.129-.172-.186-.257l.25.036a5.653,5.653,0,0,0-1.915,2.251,5.581,5.581,0,0,0-.543,2.358,8.891,8.891,0,0,0,.336,2.23,2.236,2.236,0,0,1-.286-.55,5.4,5.4,0,0,1-.322-1.68,5.517,5.517,0,0,1,.493-2.5,5.8,5.8,0,0,1,2.015-2.416l.143-.1.1.136c.064.093.143.179.207.279a4.574,4.574,0,0,1,.765,3.166,5.3,5.3,0,0,1-1.043,2.451,3.373,3.373,0,0,1-1.429,1.079A1.429,1.429,0,0,1,184.756,244.107Z" transform="translate(-137.838 -112.605)" fill="#263238"/>
        <path id="Path_9070" data-name="Path 9070" d="M185,245.288a6.883,6.883,0,0,1,.522-2.194,7.347,7.347,0,0,1,.908-2.094,6.868,6.868,0,0,1-.522,2.2,7.24,7.24,0,0,1-.908,2.087Z" transform="translate(-138.082 -113.786)" fill="#263238"/>
        <path id="Path_9071" data-name="Path 9071" d="M192.966,244.909a5.757,5.757,0,0,1-.05.643,3.616,3.616,0,0,0,.343,1.658,5.253,5.253,0,0,0,1.594,1.93,4.288,4.288,0,0,0,2.9.779l.307-.036-.15.2a5.717,5.717,0,0,0-1.029-2.773,5.6,5.6,0,0,0-1.83-1.637,9.422,9.422,0,0,0-2.144-.786,1.544,1.544,0,0,1,.622,0,5.567,5.567,0,0,1,3.573,2.187,5.853,5.853,0,0,1,1.129,2.93v.179h-.164l-.343.043a4.588,4.588,0,0,1-3.137-.872,5.2,5.2,0,0,1-1.629-2.144,3.33,3.33,0,0,1-.25-1.772A1.329,1.329,0,0,1,192.966,244.909Z" transform="translate(-140.273 -114.886)" fill="#263238"/>
        <path id="Path_9072" data-name="Path 9072" d="M193.08,244.93a7.147,7.147,0,0,1,1.665,1.529,6.94,6.94,0,0,1,1.386,1.78,7,7,0,0,1-1.665-1.529A6.683,6.683,0,0,1,193.08,244.93Z" transform="translate(-140.387 -114.907)" fill="#263238"/>
        <path id="Path_9073" data-name="Path 9073" d="M198.888,242.783a3.731,3.731,0,0,0,1.98-.35A4.589,4.589,0,0,0,202.476,241a3.773,3.773,0,0,0,.572-2.53,1.574,1.574,0,0,0-.05-.264l.207.143a4.931,4.931,0,0,0-2.351.986,4.817,4.817,0,0,0-1.344,1.608,8.425,8.425,0,0,0-.622,1.858,1.294,1.294,0,0,1,0-.543,4.617,4.617,0,0,1,.4-1.429,4.924,4.924,0,0,1,1.365-1.758,5.153,5.153,0,0,1,2.516-1.094h.179v.172a1.927,1.927,0,0,1,.05.293,4.024,4.024,0,0,1-.65,2.773,4.667,4.667,0,0,1-1.78,1.494,2.988,2.988,0,0,1-1.544.272A1.4,1.4,0,0,1,198.888,242.783Z" transform="translate(-142.036 -112.924)" fill="#263238"/>
        <path id="Path_9074" data-name="Path 9074" d="M198.9,243.6a10.32,10.32,0,0,1,2.766-2.766,5.324,5.324,0,0,1-1.265,1.551C199.686,243.1,198.971,243.674,198.9,243.6Z" transform="translate(-142.048 -113.737)" fill="#263238"/>
        <path id="Path_9075" data-name="Path 9075" d="M172.55,250.525s.172-.186.45-.536a3.873,3.873,0,0,0,.715-1.694,5.718,5.718,0,0,0-.207-2.73,4.746,4.746,0,0,0-2.1-2.523l-.307-.157.243-.079a6.151,6.151,0,0,0-.222,5.7,9.625,9.625,0,0,0,1.429,2.023,1.951,1.951,0,0,1-.536-.414,5.618,5.618,0,0,1-1.1-1.494,5.96,5.96,0,0,1-.715-2.68,6.332,6.332,0,0,1,.829-3.316l.086-.15.15.079.336.172a4.953,4.953,0,0,1,2.237,2.73,5.653,5.653,0,0,1,.143,2.894,3.631,3.631,0,0,1-.886,1.737A1.587,1.587,0,0,1,172.55,250.525Z" transform="translate(-133.858 -114.205)" fill="#263238"/>
        <path id="Path_9076" data-name="Path 9076" d="M173.217,251.8a8.334,8.334,0,0,1-.507-2.408,8.426,8.426,0,0,1-.143-2.459,8.469,8.469,0,0,1,.515,2.409A7.989,7.989,0,0,1,173.217,251.8Z" transform="translate(-134.525 -115.478)" fill="#263238"/>
        <path id="Path_9077" data-name="Path 9077" d="M306.076,234.1l-45.74-20.433a11.185,11.185,0,0,1-6.489-8.576l-3.852-26.072a1.365,1.365,0,0,1,1.079-1.529h0a1.351,1.351,0,0,1,1.522.829l7.569,19.1,53.544,16.331c6.7,2.144,9.291,8.4,7.018,14.294h0a10.892,10.892,0,0,1-14.651,6.061Z" transform="translate(-156.622 -95.658)" fill="#ffbe9d"/>
        <path id="Path_9078" data-name="Path 9078" d="M264.21,205.38a2.894,2.894,0,0,1,.543.136l1.537.472,5.639,1.772c4.753,1.5,11.328,3.573,18.582,5.782s13.893,4.145,18.689,5.525l5.675,1.63,1.544.457a4.577,4.577,0,0,1,.529.179,2.573,2.573,0,0,1-.55-.107l-1.558-.386c-1.351-.343-3.3-.865-5.717-1.522-4.81-1.308-11.435-3.2-18.725-5.417s-13.843-4.324-18.582-5.889l-5.6-1.887-1.515-.536a3,3,0,0,1-.493-.207Z" transform="translate(-160.682 -103.623)" fill="#eb996e"/>
        <path id="Path_9079" data-name="Path 9079" d="M332.243,247.247a1.6,1.6,0,0,1-.422,0,10.621,10.621,0,0,1-1.215-.057,8.825,8.825,0,0,1-1.894-.407A13.485,13.485,0,0,1,326.4,245.7c-.822-.472-1.708-.986-2.659-1.572s-1.93-1.244-2.959-1.944a32.8,32.8,0,0,0-7.025-3.888,22.562,22.562,0,0,0-7.862-1.429,23.8,23.8,0,0,0-6.482.943,23.4,23.4,0,0,0-4.117,1.651c-.472.236-.815.457-1.065.579a1.429,1.429,0,0,1-.379.186,2.582,2.582,0,0,1,.343-.25c.236-.143.572-.386,1.029-.643a21.52,21.52,0,0,1,4.109-1.772,23.5,23.5,0,0,1,6.554-1.036,22.491,22.491,0,0,1,8,1.429,32.248,32.248,0,0,1,7.09,3.974c1.029.715,2,1.372,2.93,1.965s1.822,1.122,2.623,1.6a14.342,14.342,0,0,0,2.258,1.122,9.639,9.639,0,0,0,1.837.457C331.664,247.2,332.25,247.212,332.243,247.247Z" transform="translate(-169.138 -112.508)" fill="#263238"/>
        <path id="Path_9080" data-name="Path 9080" d="M332.781,247.051a1.479,1.479,0,0,1,.064.715,3.574,3.574,0,0,1-.622,1.78,5.524,5.524,0,0,1-2.144,1.83,4.846,4.846,0,0,1-3.409.257l-.343-.122-.157-.05.05-.172a6.189,6.189,0,0,1,1.765-2.794,5.918,5.918,0,0,1,4.124-1.515,1.651,1.651,0,0,1,.643.1,9.95,9.95,0,0,0-2.351.365,5.86,5.86,0,0,0-2.187,1.3,5.932,5.932,0,0,0-1.637,2.644l-.114-.222.314.107a4.56,4.56,0,0,0,3.159-.214,5.468,5.468,0,0,0,2.044-1.665,3.766,3.766,0,0,0,.715-1.644C332.767,247.3,332.752,247.058,332.781,247.051Z" transform="translate(-178.36 -115.491)" fill="#263238"/>
        <path id="Path_9081" data-name="Path 9081" d="M333.891,247.08a7.454,7.454,0,0,1-1.808,1.544,7.611,7.611,0,0,1-2.023,1.244,7.64,7.64,0,0,1,1.808-1.544A7.862,7.862,0,0,1,333.891,247.08Z" transform="translate(-179.47 -115.521)" fill="#263238"/>
        <path id="Path_9082" data-name="Path 9082" d="M322.6,240.408a1.729,1.729,0,0,1-.1.715,3.573,3.573,0,0,1-1.008,1.587,5.525,5.525,0,0,1-2.48,1.294,4.774,4.774,0,0,1-3.373-.536c-.114-.057-.214-.129-.307-.186l-.143-.093.086-.157a6.175,6.175,0,0,1,2.358-2.308,5.868,5.868,0,0,1,2.58-.715,5.789,5.789,0,0,1,1.78.2,1.644,1.644,0,0,1,.608.243,9.585,9.585,0,0,0-2.373-.186,5.946,5.946,0,0,0-4.631,2.966l-.057-.243c.093.057.186.121.286.172a4.531,4.531,0,0,0,3.116.522,5.51,5.51,0,0,0,2.373-1.158,3.738,3.738,0,0,0,1.051-1.429,4.328,4.328,0,0,1,.236-.686Z" transform="translate(-175.227 -113.501)" fill="#263238"/>
        <path id="Path_9083" data-name="Path 9083" d="M323.8,240.559a7.7,7.7,0,0,1-2.144,1.086,7.426,7.426,0,0,1-2.258.715,15.216,15.216,0,0,1,4.374-1.83Z" transform="translate(-176.428 -113.652)" fill="#263238"/>
        <path id="Path_9084" data-name="Path 9084" d="M341.971,247.44a1.579,1.579,0,0,1-.579-.372,3.574,3.574,0,0,1-1.029-1.572,5.5,5.5,0,0,1-.157-2.794,4.853,4.853,0,0,1,1.88-2.859l.3-.193.143-.1.107.15a6.19,6.19,0,0,1,1.129,3.095,5.911,5.911,0,0,1-.407,2.652,5.461,5.461,0,0,1-.908,1.544c-.279.322-.465.465-.479.45a9.175,9.175,0,0,0,1.151-2.087,5.925,5.925,0,0,0-.793-5.439l.25.05c-.086.057-.186.114-.279.186a4.589,4.589,0,0,0-1.758,2.63,5.475,5.475,0,0,0,.071,2.637,3.737,3.737,0,0,0,.879,1.551C341.785,247.276,341.993,247.412,341.971,247.44Z" transform="translate(-182.333 -113.372)" fill="#263238"/>
        <path id="Path_9085" data-name="Path 9085" d="M342.657,248.7a7.661,7.661,0,0,1-.114-2.373,7.861,7.861,0,0,1,.25-2.366,7.554,7.554,0,0,1,.122,2.373,7.72,7.72,0,0,1-.257,2.366Z" transform="translate(-183.018 -114.63)" fill="#263238"/>
        <path id="Path_9086" data-name="Path 9086" d="M317.278,235.3a1.293,1.293,0,0,1-.629-.064,3.216,3.216,0,0,1-1.487-.893,5.089,5.089,0,0,1-1.251-2.251,4.4,4.4,0,0,1,.407-3.116c.057-.107.122-.2.172-.286l.086-.15.157.086a5.6,5.6,0,0,1,2.18,2.144,5.332,5.332,0,0,1,.715,2.358,5.052,5.052,0,0,1-.143,1.644,1.479,1.479,0,0,1-.214.557,9.065,9.065,0,0,0,.1-2.144,5.36,5.36,0,0,0-.758-2.208,5.5,5.5,0,0,0-2.058-1.958l.243-.064c-.05.086-.107.172-.157.264a4.217,4.217,0,0,0-.407,2.859,5.168,5.168,0,0,0,1.115,2.144,3.388,3.388,0,0,0,1.336.929,5.383,5.383,0,0,1,.593.15Z" transform="translate(-174.828 -110.231)" fill="#263238"/>
        <path id="Path_9087" data-name="Path 9087" d="M317.96,236.417a12.935,12.935,0,0,1-1.78-3.966A12.935,12.935,0,0,1,317.96,236.417Z" transform="translate(-175.51 -111.346)" fill="#263238"/>
        <path id="Path_9088" data-name="Path 9088" d="M308.9,236.76a1.429,1.429,0,0,1,.25.586,3.28,3.28,0,0,1-.057,1.73,5.067,5.067,0,0,1-1.358,2.194,4.417,4.417,0,0,1-2.923,1.151,2.6,2.6,0,0,1-.336,0H304.3v-.179a5.675,5.675,0,0,1,.786-2.937,5.461,5.461,0,0,1,1.708-1.78,5.154,5.154,0,0,1,1.508-.672,1.544,1.544,0,0,1,.593-.086,9.49,9.49,0,0,0-1.951.972,5.432,5.432,0,0,0-2.273,4.5l-.172-.186a2.075,2.075,0,0,0,.3,0,4.188,4.188,0,0,0,2.7-1.036A5.138,5.138,0,0,0,308.838,239a3.43,3.43,0,0,0,.164-1.622,5.241,5.241,0,0,1-.107-.615Z" transform="translate(-172.12 -112.576)" fill="#263238"/>
        <path id="Path_9089" data-name="Path 9089" d="M309.7,236.76a6.489,6.489,0,0,1-1.151,1.858,6.361,6.361,0,0,1-1.429,1.63,6.71,6.71,0,0,1,1.151-1.851,6.639,6.639,0,0,1,1.429-1.637Z" transform="translate(-172.925 -112.576)" fill="#263238"/>
        <path id="Path_9090" data-name="Path 9090" d="M303.2,235.45a1.55,1.55,0,0,1-.515.207,2.78,2.78,0,0,1-1.508-.107,4.345,4.345,0,0,1-1.865-1.251,3.909,3.909,0,0,1-.915-2.6v-.457h.179a4.931,4.931,0,0,1,2.53.8,4.6,4.6,0,0,1,1.487,1.551,4.46,4.46,0,0,1,.529,1.336,1.215,1.215,0,0,1,.043.522,9.478,9.478,0,0,0-.793-1.722,4.717,4.717,0,0,0-3.809-2.108l.193-.172v.264a3.645,3.645,0,0,0,.8,2.366,4.4,4.4,0,0,0,1.687,1.229,3.666,3.666,0,0,0,1.958.143Z" transform="translate(-170.436 -111.001)" fill="#263238"/>
        <path id="Path_9091" data-name="Path 9091" d="M303.945,236.18a4.917,4.917,0,0,1-1.587-1.043c-.815-.658-1.429-1.258-1.351-1.336a5,5,0,0,1,1.587,1.043C303.4,235.5,304.009,236.087,303.945,236.18Z" transform="translate(-171.179 -111.732)" fill="#263238"/>
        <path id="Path_9092" data-name="Path 9092" d="M329.671,240.1a1.716,1.716,0,0,1-.579-.372,3.509,3.509,0,0,1-1.029-1.579,5.5,5.5,0,0,1-.157-2.794,4.839,4.839,0,0,1,1.88-2.859l.3-.2.143-.093.1.143a6.181,6.181,0,0,1,1.136,3.1,5.924,5.924,0,0,1-.407,2.651,5.4,5.4,0,0,1-.915,1.537c-.272.329-.457.472-.472.457A9.177,9.177,0,0,0,330.822,238a5.925,5.925,0,0,0-.793-5.439l.25.05-.279.179a4.61,4.61,0,0,0-1.758,2.63,5.474,5.474,0,0,0,.071,2.637,3.609,3.609,0,0,0,.879,1.551C329.485,239.919,329.692,240.069,329.671,240.1Z" transform="translate(-178.823 -111.275)" fill="#263238"/>
        <path id="Path_9093" data-name="Path 9093" d="M330.357,241.358a7.718,7.718,0,0,1-.114-2.373,7.81,7.81,0,0,1,.25-2.366,7.784,7.784,0,0,1,.122,2.373A7.991,7.991,0,0,1,330.357,241.358Z" transform="translate(-179.509 -112.536)" fill="#263238"/>
      </g>
      <g id="freepik--Plant--inject-14" transform="translate(31.92 169.729)">
        <path id="Path_9094" data-name="Path 9094" d="M57.334,342.984a1.524,1.524,0,0,1,.129-.314l.422-.908a22.155,22.155,0,0,0,1.244-3.616,31.852,31.852,0,0,0-.1-13.965,75.653,75.653,0,0,0-2.594-9.377c-1.093-3.33-2.366-6.861-3.409-10.677a41.294,41.294,0,0,1-1.658-12.278,47.526,47.526,0,0,1,2.859-13c1.429-4.317,2.859-8.541,3.309-12.793a19.547,19.547,0,0,0-2.344-11.821c-1.872-3.445-4.224-6.4-5.989-9.448a33.018,33.018,0,0,1-3.573-9.091,33.912,33.912,0,0,1-.229-14.072,26.572,26.572,0,0,1,1.472-5,1.93,1.93,0,0,1-.086.329l-.3.951a38.286,38.286,0,0,0-.915,3.724,34.412,34.412,0,0,0,.372,13.972,32.633,32.633,0,0,0,3.609,8.976c1.758,3.016,4.124,5.953,6.032,9.441A19.861,19.861,0,0,1,58,266.069c-.436,4.288-1.908,8.576-3.316,12.864S52,287.51,51.824,291.8a41.094,41.094,0,0,0,1.644,12.15c1.022,3.8,2.28,7.333,3.366,10.677a75.039,75.039,0,0,1,2.5,9.47A31.487,31.487,0,0,1,59.3,338.16a20.726,20.726,0,0,1-1.329,3.573l-.465.943a2.459,2.459,0,0,1-.172.307Z" transform="translate(-35.586 -216.62)" fill="#263238"/>
        <path id="Path_9095" data-name="Path 9095" d="M53.885,252.943s-3.573-11.435,2.859-18.146a.4.4,0,0,1,.715.193C57.744,236.884,58.173,242.638,53.885,252.943Z" transform="translate(-37.904 -221.762)" fill="#1e64cc"/>
        <path id="Path_9096" data-name="Path 9096" d="M56.373,240.19a10.928,10.928,0,0,1-.243,2.144c-.236,1.429-.507,3.159-.815,5.046s-.572,3.573-.8,5.046a11.992,11.992,0,0,1-.379,2.087,8.992,8.992,0,0,1,.064-2.144c.114-1.308.35-3.109.672-5.081s.665-3.752.951-5A9.433,9.433,0,0,1,56.373,240.19Z" transform="translate(-38.248 -223.345)" fill="#263238"/>
        <path id="Path_9097" data-name="Path 9097" d="M60.16,292.119s2.187-11.792,11-14.708a.393.393,0,0,1,.507.493C71.088,279.74,68.772,285.029,60.16,292.119Z" transform="translate(-39.977 -233.958)" fill="#1e64cc"/>
        <path id="Path_9098" data-name="Path 9098" d="M68.732,281.69a10.805,10.805,0,0,1-1.2,1.751l-3.08,4.081-3.073,4.088a10.863,10.863,0,0,1-1.308,1.665,8.989,8.989,0,0,1,1.051-1.851c.715-1.1,1.758-2.58,2.973-4.174s2.344-3,3.187-4A9.155,9.155,0,0,1,68.732,281.69Z" transform="translate(-39.951 -235.185)" fill="#263238"/>
        <path id="Path_9099" data-name="Path 9099" d="M56.8,332.465s-1.308-11.914,6.254-17.267a.393.393,0,0,1,.629.322C63.649,317.436,62.978,323.167,56.8,332.465Z" transform="translate(-38.993 -244.723)" fill="#1e64cc"/>
        <path id="Path_9100" data-name="Path 9100" d="M61.634,320.28A10.305,10.305,0,0,1,61,322.3c-.515,1.387-1.108,3.009-1.765,4.8s-1.251,3.416-1.751,4.8a10.778,10.778,0,0,1-.772,1.973,8.812,8.812,0,0,1,.472-2.073c.364-1.265.936-2.98,1.629-4.86s1.372-3.573,1.887-4.76a9.293,9.293,0,0,1,.936-1.908Z" transform="translate(-38.993 -246.196)" fill="#263238"/>
        <path id="Path_9101" data-name="Path 9101" d="M66.1,374.174s-.9-11.957,6.868-17.031a.393.393,0,0,1,.615.343C73.487,359.408,72.608,365.111,66.1,374.174Z" transform="translate(-41.662 -256.693)" fill="#1e64cc"/>
        <path id="Path_9102" data-name="Path 9102" d="M71.4,362.15a10.2,10.2,0,0,1-.715,2l-1.937,4.738-1.923,4.731A11.206,11.206,0,0,1,66,375.572a8.912,8.912,0,0,1,.543-2.058c.407-1.244,1.036-2.944,1.8-4.8s1.5-3.509,2.058-4.688A10.006,10.006,0,0,1,71.4,362.15Z" transform="translate(-41.643 -258.142)" fill="#263238"/>
        <path id="Path_9103" data-name="Path 9103" d="M42.755,240.1s-10.627-5.553-10.835-14.83a.4.4,0,0,1,.622-.343C34.121,226.017,38.5,229.783,42.755,240.1Z" transform="translate(-31.92 -218.97)" fill="#1e64cc"/>
        <path id="Path_9104" data-name="Path 9104" d="M35,229.89a10.39,10.39,0,0,1,1.322,1.665l3,4.131,3.009,4.131a11.436,11.436,0,0,1,1.244,1.751,8.5,8.5,0,0,1-1.429-1.544c-.843-1.008-1.951-2.444-3.123-4.067s-2.144-3.123-2.859-4.224A9.469,9.469,0,0,1,35,229.89Z" transform="translate(-32.799 -220.406)" fill="#263238"/>
        <path id="Path_9105" data-name="Path 9105" d="M58.373,274.743s-10.942-4.888-11.714-14.137a.393.393,0,0,1,.593-.379C48.9,261.221,53.492,264.709,58.373,274.743Z" transform="translate(-36.125 -229.046)" fill="#1e64cc"/>
        <path id="Path_9106" data-name="Path 9106" d="M50,265a10.456,10.456,0,0,1,1.429,1.579l3.245,3.952,3.252,3.945a11.82,11.82,0,0,1,1.315,1.665,9.133,9.133,0,0,1-1.551-1.429c-.908-.951-2.1-2.316-3.366-3.866s-2.373-2.987-3.145-4.045A9.765,9.765,0,0,1,50,265Z" transform="translate(-37.078 -230.423)" fill="#263238"/>
        <path id="Path_9107" data-name="Path 9107" d="M52.271,311.658s-7.518-9.341-3.988-17.924A.393.393,0,0,1,49,293.67C50,295.278,52.5,300.5,52.271,311.658Z" transform="translate(-36.32 -238.546)" fill="#1e64cc"/>
        <path id="Path_9108" data-name="Path 9108" d="M49.7,299.16a11.258,11.258,0,0,1,.55,2.051c.307,1.429.715,3.13,1.079,5s.786,3.573,1.1,5a11.2,11.2,0,0,1,.415,2.08,8.8,8.8,0,0,1-.715-2c-.364-1.265-.808-3.023-1.229-5s-.715-3.738-.958-5a9.341,9.341,0,0,1-.243-2.13Z" transform="translate(-36.993 -240.17)" fill="#263238"/>
        <path id="Path_9109" data-name="Path 9109" d="M60.07,358.164S49.214,353.118,48.6,343.828a.393.393,0,0,1,.6-.372C50.829,344.478,55.367,348.044,60.07,358.164Z" transform="translate(-36.678 -252.791)" fill="#1e64cc"/>
        <path id="Path_9110" data-name="Path 9110" d="M51.88,348.32a10.12,10.12,0,0,1,1.394,1.6l3.173,4,3.188,4a11.437,11.437,0,0,1,1.286,1.687,8.911,8.911,0,0,1-1.529-1.515c-.886-.965-2.058-2.351-3.295-3.924s-2.323-3.023-3.073-4.1a9.456,9.456,0,0,1-1.144-1.758Z" transform="translate(-37.615 -254.196)" fill="#263238"/>
        <path id="Path_9111" data-name="Path 9111" d="M86.653,298.1a.95.95,0,0,1,0,.264v.765c0,.715-.079,1.694-.129,2.909-.143,2.551-.336,6.118-.572,10.377h0c-.779,4.338-2.987,9.148-5.953,13.815-2.144,3.438-4.46,6.568-6.432,9.477a66.771,66.771,0,0,0-4.817,7.962,34.169,34.169,0,0,0-2.251,5.846c-.193.715-.336,1.272-.422,1.658a3.051,3.051,0,0,1-.157.579,3.574,3.574,0,0,1,.071-.593c.057-.393.172-.958.336-1.687a31.1,31.1,0,0,1,2.144-5.939,63.994,63.994,0,0,1,4.767-8.062c1.951-2.923,4.224-6.061,6.389-9.477,2.952-4.645,5.146-9.384,5.953-13.65h0c.3-4.288.55-7.819.715-10.37.1-1.215.179-2.144.236-2.9a6.19,6.19,0,0,1,.079-.765C86.632,298.1,86.639,298.1,86.653,298.1Z" transform="translate(-41.621 -239.867)" fill="#263238"/>
        <path id="Path_9112" data-name="Path 9112" d="M84.917,328.867s4.6-11.07-1.186-18.325a.4.4,0,0,0-.715.136C82.522,312.53,81.572,318.219,84.917,328.867Z" transform="translate(-46.352 -243.369)" fill="#1e64cc"/>
        <path id="Path_9113" data-name="Path 9113" d="M84.689,316a8.977,8.977,0,0,1,.364,2.094c.164,1.3.35,3.1.493,5.1s.207,3.8.207,5.117a8.719,8.719,0,0,1-.129,2.144,11.849,11.849,0,0,1-.186-2.144c-.1-1.465-.214-3.187-.343-5.1s-.25-3.631-.357-5.1A11.314,11.314,0,0,1,84.689,316Z" transform="translate(-46.968 -244.975)" fill="#263238"/>
        <g id="Group_3671" data-name="Group 3671" transform="translate(36.151 67.005)" opacity="0.3">
          <path id="Path_9114" data-name="Path 9114" d="M84.917,328.867s4.6-11.07-1.186-18.325a.4.4,0,0,0-.715.136C82.522,312.53,81.572,318.219,84.917,328.867Z" transform="translate(-82.504 -310.374)"/>
        </g>
        <path id="Path_9115" data-name="Path 9115" d="M64.508,366.272S68.2,354.837,61.842,348.1a.4.4,0,0,0-.715.193C60.8,350.177,60.312,355.93,64.508,366.272Z" transform="translate(-40.194 -254.088)" fill="#1e64cc"/>
        <path id="Path_9116" data-name="Path 9116" d="M63.13,353.51a9.354,9.354,0,0,1,.536,2.058c.264,1.279.593,3.059.9,5.039s.515,3.781.622,5.089a8.684,8.684,0,0,1,.043,2.144,12.185,12.185,0,0,1-.357-2.094c-.214-1.429-.472-3.166-.715-5.053s-.55-3.573-.772-5.06a11.028,11.028,0,0,1-.257-2.123Z" transform="translate(-40.825 -255.677)" fill="#263238"/>
        <g id="Group_3672" data-name="Group 3672" transform="translate(20.725 93.853)" opacity="0.3">
          <path id="Path_9117" data-name="Path 9117" d="M64.508,366.272S68.2,354.837,61.842,348.1a.4.4,0,0,0-.715.193C60.8,350.177,60.312,355.93,64.508,366.272Z" transform="translate(-60.919 -347.941)"/>
        </g>
        <path id="Path_9118" data-name="Path 9118" d="M94.07,310.748s9.827-6.875,8.834-16.1a.393.393,0,0,0-.658-.257C100.817,295.675,96.964,299.97,94.07,310.748Z" transform="translate(-49.652 -238.779)" fill="#1e64cc"/>
        <g id="Group_3673" data-name="Group 3673" transform="translate(44.418 55.506)" opacity="0.3">
          <path id="Path_9119" data-name="Path 9119" d="M94.07,310.748s9.827-6.875,8.834-16.1a.393.393,0,0,0-.658-.257C100.817,295.675,96.964,299.97,94.07,310.748Z" transform="translate(-94.07 -294.285)"/>
        </g>
        <path id="Path_9120" data-name="Path 9120" d="M101.178,299.61a9.105,9.105,0,0,1-.815,1.965c-.557,1.179-1.372,2.8-2.323,4.56s-1.865,3.33-2.537,4.474a9.006,9.006,0,0,1-1.244,1.722,11.579,11.579,0,0,1,.972-1.887l2.416-4.524,2.437-4.5a10.856,10.856,0,0,1,1.093-1.815Z" transform="translate(-49.706 -240.298)" fill="#263238"/>
        <path id="Path_9121" data-name="Path 9121" d="M71.48,353.326s11.849-1.844,15.008-10.563a.4.4,0,0,0-.479-.529C84.18,342.778,78.827,344.922,71.48,353.326Z" transform="translate(-43.207 -252.456)" fill="#1e64cc"/>
        <g id="Group_3674" data-name="Group 3674" transform="translate(28.273 89.765)" opacity="0.3">
          <path id="Path_9122" data-name="Path 9122" d="M71.48,353.326s11.849-1.844,15.008-10.563a.4.4,0,0,0-.479-.529C84.18,342.778,78.827,344.922,71.48,353.326Z" transform="translate(-71.48 -342.22)"/>
        </g>
        <path id="Path_9123" data-name="Path 9123" d="M83.407,346.21a9.225,9.225,0,0,1-1.594,1.429c-1.029.815-2.466,1.915-4.1,3.073s-3.145,2.144-4.288,2.859a8.921,8.921,0,0,1-1.88.993,11.618,11.618,0,0,1,1.751-1.294l4.152-2.923,4.167-2.959A10.08,10.08,0,0,1,83.407,346.21Z" transform="translate(-43.227 -253.594)" fill="#263238"/>
        <path id="Path_9124" data-name="Path 9124" d="M51.87,388.26l3.395,22.291,13.572-.021,4.574-22.27Z" transform="translate(-37.612 -265.591)" fill="#455a64"/>
        <path id="Path_9125" data-name="Path 9125" d="M72.069,398.123l-.114.079a3.033,3.033,0,0,1-.357.207,5,5,0,0,1-1.522.45,5.525,5.525,0,0,1-2.459-.236,5.239,5.239,0,0,1-2.68-1.944,3.724,3.724,0,0,1-.629-1.865,2.015,2.015,0,0,1,.886-1.908,2.18,2.18,0,0,1,2.273.186,3.3,3.3,0,0,1,1.3,2.044,8.7,8.7,0,0,1,.164,2.516,8.062,8.062,0,0,1-.55,2.58,5.718,5.718,0,0,1-1.572,2.244,4.353,4.353,0,0,1-2.609,1.086,4.774,4.774,0,0,1-2.716-.786,8.3,8.3,0,0,1-2.03-1.83,4.488,4.488,0,0,1-1.022-2.451,2.859,2.859,0,0,1,.958-2.358,2.208,2.208,0,0,1,2.408-.15,2.58,2.58,0,0,1,1.387,1.815,3.481,3.481,0,0,1-1.715,3.531,4.774,4.774,0,0,1-3.273.472,7.31,7.31,0,0,1-2.337-.915,12.5,12.5,0,0,1-1.308-.879,3,3,0,0,1-.422-.357,2.388,2.388,0,0,1,.465.293,13.574,13.574,0,0,0,1.336.822,7.662,7.662,0,0,0,2.3.836,4.617,4.617,0,0,0,3.1-.5,3.209,3.209,0,0,0,1.551-3.238,2.265,2.265,0,0,0-1.236-1.587,1.88,1.88,0,0,0-2.044.121,2.509,2.509,0,0,0-.822,2.073,4.109,4.109,0,0,0,.972,2.237,7.934,7.934,0,0,0,1.937,1.744,4.4,4.4,0,0,0,2.509.715,4.045,4.045,0,0,0,2.387-1,5.3,5.3,0,0,0,1.472-2.094,8.026,8.026,0,0,0,.536-2.466,8.448,8.448,0,0,0-.15-2.416,2.966,2.966,0,0,0-1.151-1.851,1.88,1.88,0,0,0-1.937-.193,1.737,1.737,0,0,0-.786,1.637,3.473,3.473,0,0,0,.565,1.729,5,5,0,0,0,2.53,1.9,5.547,5.547,0,0,0,2.408.286A6.647,6.647,0,0,0,72.069,398.123Z" transform="translate(-38.257 -266.85)" fill="#263238"/>
      </g>
    </g>
    <g id="Component_119_271" data-name="Component 119 – 271" transform="translate(0 779.277)">
      <rect id="Rectangle_1927" data-name="Rectangle 1927" width="412" height="67" transform="translate(0 0.722)" fill="#102646"/>
      <path id="Path_4714" data-name="Path 4714" d="M1053,4508.186h411.151" transform="translate(-1053 -4508.186)" fill="none" stroke="#fff" stroke-width="2" opacity="0.206"/>
      <g id="Group_3096" data-name="Group 3096" transform="translate(-3 -997.186)">
        <text id="Next" transform="translate(318 1038)" fill="#f2f5f7" font-size="18" font-family="ArialMT, Arial"><tspan x="0" y="0">Next</tspan></text>
        <path id="Icon_ionic-ios-arrow-back" data-name="Icon ionic-ios-arrow-back" d="M14.033,14.264l6.109-6.1a1.154,1.154,0,0,0-1.634-1.629l-6.921,6.916a1.152,1.152,0,0,0-.034,1.591L18.5,22a1.154,1.154,0,1,0,1.634-1.629Z" transform="translate(389.251 1046.266) rotate(180)" fill="#f2f5f7"/>
      </g>
      <g id="Group_3224" data-name="Group 3224" transform="translate(2.529 7.076)">
        <g id="Group_3212" data-name="Group 3212" transform="translate(34.47 14.737)">
          <text id="Back" transform="translate(19.06 18)" fill="#fff" font-size="18" font-family="ArialMT, Arial"><tspan x="0" y="0">Back</tspan></text>
          <path id="Icon_ionic-ios-arrow-back-2" data-name="Icon ionic-ios-arrow-back" d="M14.033,14.264l6.109-6.1a1.154,1.154,0,0,0-1.634-1.629l-6.921,6.916a1.152,1.152,0,0,0-.034,1.591L18.5,22a1.154,1.154,0,1,0,1.634-1.629Z" transform="translate(-11.251 -3.193)" fill="#fff"/>
        </g>
      </g>
    </g>
    <g id="Group_3234" data-name="Group 3234" transform="translate(4.012 -10.262)">
      <path id="Icon_ionic-ios-arrow-back-3" data-name="Icon ionic-ios-arrow-back" d="M15.217,17.7,23.926,9A1.645,1.645,0,1,0,21.6,6.674l-9.867,9.86a1.642,1.642,0,0,0-.048,2.268l9.908,9.929a1.645,1.645,0,0,0,2.33-2.323Z" transform="translate(362.579 30.069)" fill="#fff"/>
      <path id="Icon_ionic-ios-arrow-back-4" data-name="Icon ionic-ios-arrow-back" d="M3.967,11.506l8.709-8.7A1.645,1.645,0,1,0,10.346.481L.479,10.341a1.642,1.642,0,0,0-.048,2.268l9.908,9.929a1.645,1.645,0,1,0,2.33-2.323Z" transform="translate(377.472 59.28) rotate(180)" fill="#fff"/>
    </g>
  </g>
</svg>
