<svg xmlns="http://www.w3.org/2000/svg" xmlns:xlink="http://www.w3.org/1999/xlink" width="412" height="847" viewBox="0 0 412 847">
  <defs>
    <filter id="Path_7" x="27" y="521.438" width="360" height="96.064" filterUnits="userSpaceOnUse">
      <feOffset dy="3" input="SourceAlpha"/>
      <feGaussianBlur stdDeviation="8" result="blur"/>
      <feFlood flood-opacity="0.078"/>
      <feComposite operator="in" in2="blur"/>
      <feComposite in="SourceGraphic"/>
    </filter>
    <filter id="Rectangle_1534" x="-9" y="775" width="430" height="78" filterUnits="userSpaceOnUse">
      <feOffset dy="-3" input="SourceAlpha"/>
      <feGaussianBlur stdDeviation="3" result="blur-2"/>
      <feFlood flood-opacity="0.059"/>
      <feComposite operator="in" in2="blur-2"/>
      <feComposite in="SourceGraphic"/>
    </filter>
    <clipPath id="clip-CBT_S8_E1">
      <rect width="412" height="847"/>
    </clipPath>
  </defs>
  <g id="CBT_S8_E1" data-name="CBT /  S8 / E1" clip-path="url(#clip-CBT_S8_E1)">
    <rect width="412" height="847" fill="#102646"/>
    <g id="CTA" transform="translate(51 542.438)">
      <g transform="matrix(1, 0, 0, 1, -51, -542.44)" filter="url(#Path_7)">
        <path id="Path_7-2" data-name="Path 7" d="M7.473,5H304.527C308.654,5,312,9,312,13.942v30.18c0,4.939-3.346,8.942-7.473,8.942H7.473c-4.127,0-7.473-4-7.473-8.942V13.942C0,9,3.346,5,7.473,5Z" transform="translate(51 537.44)" fill="#ff9241"/>
      </g>
      <text id="Get_Started" data-name="Get Started" transform="translate(76 12.563)" fill="#fff" font-size="16" font-family="ArialMT, Arial"><tspan x="38.59" y="14">Get Started</tspan></text>
    </g>
    <g id="Group_3601" data-name="Group 3601" transform="translate(661 -482)">
      <g id="Group_3103" data-name="Group 3103" transform="translate(-4 158)">
        <g id="Group_1500" data-name="Group 1500" transform="translate(71 65)">
          <text id="Practice_the_worst_scenario_by_following_these_steps" data-name="Practice the worst scenario by following these steps" transform="translate(-689 360)" fill="#fff" font-size="24" font-family="Arial-BoldMT, Arial" font-weight="700"><tspan x="10.936" y="22">Practice the worst scenario </tspan><tspan x="27.646" y="53">by following these steps</tspan></text>
        </g>
      </g>
    </g>
    <g id="Accept_terms-pana" data-name="Accept terms-pana" transform="translate(1.527 128.256)">
      <g id="freepik--background-complete--inject-62" transform="translate(37.473 92.805)">
        <path id="Path_8488" data-name="Path 8488" d="M79.8,95.458a12.259,12.259,0,0,1,9.455,1.724,21.522,21.522,0,0,1,6.7,7.141c3.356,5.417,4.49,12.665,4.6,19.032-7.072-.352-13.025-5.969-15.921-9C80.1,109.54,74.894,98.1,79.8,95.458" transform="translate(-46.907 -95.156)" fill="#f5f5f5"/>
        <path id="Path_8489" data-name="Path 8489" d="M121.154,131.526a10.466,10.466,0,0,1-3.509-9.914,13.929,13.929,0,0,1,6.068-8.865c1.417-.942,3.157-1.693,4.789-1.2a4.49,4.49,0,0,1,2.866,3.517,9.194,9.194,0,0,1-.59,4.681c-1.839,5.133-4.551,9.769-9.623,11.776" transform="translate(-56.176 -98.952)" fill="#f5f5f5"/>
        <path id="Path_8490" data-name="Path 8490" d="M126.3,149.479a20.823,20.823,0,0,1-2-3.708,19.154,19.154,0,0,1-1.41-4.383,42.524,42.524,0,0,1-.912-5.532,21.086,21.086,0,0,1,1.594-10.06,15.5,15.5,0,0,1,1.532-2.682,4.576,4.576,0,0,1,.766-.835,21.382,21.382,0,0,0-3.226,13.523,49.721,49.721,0,0,0,.812,5.471,21.515,21.515,0,0,0,1.226,4.314A24.313,24.313,0,0,1,126.3,149.479Z" transform="translate(-57.212 -101.497)" fill="#e0e0e0"/>
        <path id="Path_8491" data-name="Path 8491" d="M86.63,106.45a11.906,11.906,0,0,1,1.486,1.532c.912,1.019,2.222,2.513,3.831,4.367,3.195,3.716,7.555,8.9,12.259,14.726s8.758,11.248,11.592,15.216c1.433,1.992,2.574,3.609,3.341,4.743a12.534,12.534,0,0,1,1.142,1.808,12.7,12.7,0,0,1-1.364-1.64l-3.524-4.6c-2.973-3.892-7.11-9.24-11.784-15.071l-12.06-14.864L87.9,108.166A13.438,13.438,0,0,1,86.63,106.45Z" transform="translate(-48.967 -97.796)" fill="#e0e0e0"/>
        <path id="Path_8492" data-name="Path 8492" d="M108.021,145.354a24.518,24.518,0,0,0-22.219-2.8c-1.854.69-3.831,1.984-3.923,3.961s1.885,3.387,3.716,4.153a20.925,20.925,0,0,0,22.694-4.881" transform="translate(-47.855 -105.892)" fill="#f5f5f5"/>
        <path id="Path_8493" data-name="Path 8493" d="M93.47,146.535a3.57,3.57,0,0,1,1.065-.368c.69-.192,1.709-.414,2.973-.651a27.8,27.8,0,0,1,10.075-.084,17.377,17.377,0,0,1,5.225,2,16.757,16.757,0,0,1,5.455,5.264,3.509,3.509,0,0,1,.544.981c-.115.084-.988-1.257-2.8-3.065a17.017,17.017,0,0,0-8.574-4.521,31.176,31.176,0,0,0-9.853-.115C95.056,146.306,93.493,146.612,93.47,146.535Z" transform="translate(-50.566 -106.813)" fill="#e0e0e0"/>
        <path id="Path_8494" data-name="Path 8494" d="M108.006,302.779c22.848-11.094,31.758-37.015,34.754-61.111.506-4.022,1.617-8.168.268-11.983s-5.4-6.9-9.256-5.8c-3.187.919-5.034,4.176-7.149,6.765a23.752,23.752,0,0,1-10.811,7.47c-2.758.912-6.038,1.218-8.336-.567-3.149-2.452-2.8-7.286-2.138-11.263l3.678-22.219c.659-3.977,1.318-8.037.682-12.014s-2.812-7.915-6.428-9.577-8.643-.222-10.06,3.54c-.6,1.571-.529,3.3-.9,4.942s-1.433,3.333-3.065,3.547-3.065-1.165-4.076-2.521c-3.463-4.674-5.432-10.29-7.217-15.852s-3.471-11.232-6.5-16.2-7.662-9.271-13.278-10.5-12.259,1.326-14.6,6.689,0,11.592,2.866,16.7a89.913,89.913,0,0,0,15.692,20.564c1.111,1.1,2.3,2.3,2.559,3.831.444,2.789-2.49,5.026-5.248,5.478-3.118.513-6.29-.306-9.455-.429s-6.735.7-8.374,3.448c-2.3,3.831.444,8.612,3.348,11.937a76.917,76.917,0,0,0,20.434,16.573c2.751,1.532,5.685,2.965,7.715,5.4s2.889,6.237,1.019,8.811-5.677,2.889-8.65,1.831-5.455-3.164-8.206-4.7c-5.133-2.934-12.259-3.685-16.511.483-2.8,2.743-3.685,7.034-3.111,10.926s2.429,7.447,4.467,10.788c7.126,11.677,17.025,21.744,29.016,28.157s23.545,9.485,36.884,6.9" transform="translate(-37.473 -107.774)" fill="#ebebeb"/>
        <path id="Path_8495" data-name="Path 8495" d="M108.636,304.8c.644-9.631,1.073-4.635-.552-17.285a364.934,364.934,0,0,0-8.045-40.608l-2.659-10.55c-.881-3.456-1.747-6.9-2.812-10.19a179.61,179.61,0,0,0-7.179-18.626c-2.567-5.815-5.218-11.24-7.739-16.289s-4.957-9.738-7.378-13.891a143.385,143.385,0,0,0-12.818-18.741c-1.678-2.084-3.065-3.655-3.969-4.712l-1.073-1.2a2.627,2.627,0,0,0-.383-.391,2.919,2.919,0,0,0,.329.444c.253.306.59.713,1.011,1.241.9,1.08,2.214,2.689,3.831,4.8A151.706,151.706,0,0,1,71.79,177.627c2.375,4.16,4.781,8.826,7.286,13.876s5.11,10.489,7.662,16.3a180.444,180.444,0,0,1,7.11,18.6c1.05,3.287,1.908,6.689,2.789,10.16s1.755,6.98,2.651,10.535a370.671,370.671,0,0,1,8.091,40.547c1.64,12.611,1.28,7.562.7,17.163" transform="translate(-41.344 -108.521)" fill="#e0e0e0"/>
        <path id="Path_8496" data-name="Path 8496" d="M106.68,235.513a8.635,8.635,0,0,0,.659-1.64c.383-1.065.889-2.62,1.479-4.559,1.2-3.877,2.659-9.279,4.252-15.239s3.134-11.34,4.383-15.178c.613-1.923,1.134-3.478,1.532-4.543a7.984,7.984,0,0,0,.5-1.693,8.428,8.428,0,0,0-.766,1.586c-.452,1.042-1.05,2.567-1.732,4.482-1.379,3.831-3,9.194-4.6,15.148s-2.965,11.217-4.045,15.324c-.49,1.831-.912,3.379-1.249,4.6a7.324,7.324,0,0,0-.414,1.716Z" transform="translate(-53.655 -117.953)" fill="#e0e0e0"/>
        <path id="Path_8497" data-name="Path 8497" d="M41.89,225.48a10.926,10.926,0,0,0,2.007.575c1.287.322,3.164.766,5.463,1.425,4.6,1.257,10.9,3.2,17.76,5.662s12.964,4.973,17.331,6.9c2.191.958,3.946,1.778,5.156,2.3a10.665,10.665,0,0,0,1.923.812,11.165,11.165,0,0,0-1.793-1.073c-1.18-.636-2.9-1.532-5.072-2.551-4.321-2.061-10.42-4.651-17.293-7.126a182.639,182.639,0,0,0-17.883-5.471c-2.3-.575-4.222-.965-5.54-1.2A11.638,11.638,0,0,0,41.89,225.48Z" transform="translate(-38.506 -125.627)" fill="#e0e0e0"/>
        <path id="Path_8498" data-name="Path 8498" d="M124,308.724a4.755,4.755,0,0,0,.452-.567l1.172-1.709c1-1.494,2.406-3.685,4.107-6.421,3.4-5.471,7.861-13.171,12.665-21.737s9.194-16.3,12.474-21.829c1.609-2.682,2.927-4.9,3.908-6.536.421-.713.766-1.3,1.057-1.785a2.7,2.7,0,0,0,.322-.651,4.752,4.752,0,0,0-.452.567l-1.226,1.709c-1.011,1.494-2.413,3.685-4.114,6.421-3.379,5.486-7.838,13.148-12.642,21.737s-9.194,16.3-12.474,21.829c-1.609,2.682-2.927,4.9-3.908,6.536l-1.05,1.785a2.6,2.6,0,0,0-.291.651Z" transform="translate(-57.704 -130.773)" fill="#e0e0e0"/>
        <path id="Path_8499" data-name="Path 8499" d="M39.78,284.7a2.721,2.721,0,0,0,.628.383l1.839.973,6.9,3.517c5.831,2.973,13.837,7.172,22.671,11.822S88.67,310.168,94.6,313.026c2.942,1.425,5.363,2.551,7.011,3.3l1.931.85a2.8,2.8,0,0,0,.69.245,2.721,2.721,0,0,0-.628-.383l-1.869-.973-6.9-3.517c-5.831-2.973-13.837-7.172-22.671-11.822S55.311,291.948,49.388,289.1c-2.95-1.425-5.363-2.551-7.018-3.3l-1.9-.866a2.8,2.8,0,0,0-.69-.23Z" transform="translate(-38.013 -139.474)" fill="#e0e0e0"/>
      </g>
      <g id="freepik--Floor--inject-62" transform="translate(41.325 352.99)">
        <path id="Path_8500" data-name="Path 8500" d="M366.49,434.939c0,.107-72.535.2-161.987.2s-162-.084-162-.2,72.52-.2,162-.2S366.49,434.832,366.49,434.939Z" transform="translate(-42.5 -434.74)" fill="#263238"/>
      </g>
      <g id="freepik--Plant--inject-62" transform="translate(56.572 225.837)">
        <path id="Path_8501" data-name="Path 8501" d="M64.951,269.248s5.287-3.57,11.891,9.095a165.641,165.641,0,0,1,9.133,19.982s1.739,2.651,3.555.889,4.275-6.727,7.4-5.861,4.337,4.482,3.77,9.784S99.323,320.1,99.254,321.15s.536,2.551,1.961,1.532,9.616-10.29,13.791-6.13.176,18.657-.23,20.25-.092,2.3.667,2.659,3.218-3,5.654-5.54,5.708-5.08,7.915-2.482,3.011,13.447-7.156,31.176l-5.248,7.907-9.524-.437c-20.327-2.184-28.64-9.194-29.437-12.512s3.157-4.475,6.651-4.95,7.662-.483,7.807-1.326-.23-1.494-1.762-2.1-15.623-5.884-16.527-11.7,11.416-6.988,13.071-7.562.766-1.946-.107-2.5-10.811-6.75-15.431-9.409-6.9-5.647-5.708-8.8c1.134-3.065,6.6-2.107,9.095-2.544s1.364-3.4,1.364-3.4a162.957,162.957,0,0,1-10.811-19.155c-6.367-12.818-.222-14.994-.222-14.994" transform="translate(-62.4 -268.784)" fill="#1e64cc"/>
        <path id="Path_8502" data-name="Path 8502" d="M73.48,284.18a2.3,2.3,0,0,1,.13.222l.36.682,1.341,2.613,4.9,9.639c4.176,8.137,9.96,19.346,16.281,31.735s12.121,23.622,16.2,31.789c2.023,4.076,3.655,7.386,4.8,9.692l1.28,2.643.329.7c.069.153.1.237.1.237a1.859,1.859,0,0,1-.138-.222l-.352-.674c-.322-.621-.766-1.532-1.341-2.62-1.172-2.3-2.843-5.578-4.9-9.639-4.107-8.137-9.907-19.354-16.289-31.728s-12.113-23.629-16.167-31.8l-4.827-9.692c-.544-1.134-.973-2.023-1.28-2.643-.138-.291-.245-.521-.322-.7A.9.9,0,0,1,73.48,284.18Z" transform="translate(-64.991 -272.384)" fill="#263238"/>
        <path id="Path_8503" data-name="Path 8503" d="M102.089,310.1a18.9,18.9,0,0,1-.529,2.5c-.368,1.632-.843,3.7-1.371,6s-1.027,4.452-1.425,5.984c-.207.766-.383,1.371-.521,1.793a2.3,2.3,0,0,1-.253.636,24.472,24.472,0,0,1,.521-2.5l1.326-6.007c.536-2.345,1.057-4.459,1.479-5.984.215-.766.4-1.371.536-1.785A2.337,2.337,0,0,1,102.089,310.1Z" transform="translate(-70.721 -278.444)" fill="#263238"/>
        <path id="Path_8504" data-name="Path 8504" d="M90.944,330.779c0,.092-4.383-1.027-9.731-2.513s-9.654-2.758-9.623-2.858,4.375,1.027,9.723,2.505S90.967,330.68,90.944,330.779Z" transform="translate(-64.549 -282.022)" fill="#263238"/>
        <path id="Path_8505" data-name="Path 8505" d="M107.473,360.085a2.628,2.628,0,0,1-.7.1c-.444.046-1.1.092-1.9.13-1.609.077-3.831.13-6.3.061s-4.674-.245-6.275-.414c-.766-.084-1.448-.169-1.9-.238a2.519,2.519,0,0,1-.682-.146,20.789,20.789,0,0,1,2.6.123c1.609.107,3.831.238,6.275.307s4.666.061,6.275.046a20.253,20.253,0,0,1,2.605.031Z" transform="translate(-68.788 -290.013)" fill="#263238"/>
        <path id="Path_8506" data-name="Path 8506" d="M120.75,341.34a15.634,15.634,0,0,1-1.065,2.161c-.7,1.31-1.693,3.111-2.8,5.087s-2.138,3.762-2.9,5.042a15.32,15.32,0,0,1-1.295,2.03,15.629,15.629,0,0,1,1.065-2.161c.7-1.31,1.693-3.111,2.8-5.087s2.138-3.762,2.9-5.034a15.813,15.813,0,0,1,1.295-2.038Z" transform="translate(-74.158 -285.749)" fill="#263238"/>
        <path id="Path_8507" data-name="Path 8507" d="M137.287,364.1a3.334,3.334,0,0,1-.345.766l-1.08,1.984c-.919,1.663-2.214,3.954-3.662,6.474s-2.781,4.8-3.762,6.428c-.46.766-.858,1.4-1.172,1.931a3.4,3.4,0,0,1-.475.674,3.577,3.577,0,0,1,.345-.766l1.08-1.984c.919-1.67,2.214-3.961,3.662-6.482s2.781-4.789,3.762-6.421l1.172-1.931A4.167,4.167,0,0,1,137.287,364.1Z" transform="translate(-77.455 -291.07)" fill="#263238"/>
        <path id="Path_8508" data-name="Path 8508" d="M120.133,386.873a3.565,3.565,0,0,1-.881.077c-.575,0-1.4.038-2.421.046-2.038,0-4.865,0-7.976-.207s-5.93-.437-7.953-.674c-1.019-.115-1.839-.23-2.4-.314a3.832,3.832,0,0,1-.873-.176,4.86,4.86,0,0,1,.889,0l2.406.2c2.03.176,4.842.4,7.945.567s5.923.26,7.961.314l2.421.069a4.54,4.54,0,0,1,.881.1Z" transform="translate(-70.637 -296.098)" fill="#263238"/>
      </g>
      <g id="freepik--Character--inject-62" transform="translate(107.117 85.1)">
        <path id="Path_8509" data-name="Path 8509" d="M399.426,236.866l-25.644,24.97-23.629,45.09-26.571,50.99-32.647-15.324-35.291-18.067L278.216,281.4l14.029-48.27c-9.914,6.574-28.349,15.531-50.339,10.857-23.859-5.057-12.4-95.007-12.4-95.007l26.219-.674,2.636,63.417,29.613-13.086.046.107c1.785-.766,3.348-1.532,4.176-1.954,16.389-8.941,27.146-10.022,44.73-3.747h0l25.368,8.428c6.52,3.065,30.556,14.9,37.137,35.39" transform="translate(-151.373 -99.879)" fill="#1e64cc"/>
        <path id="Path_8510" data-name="Path 8510" d="M329.484,204.24s-.59.337-1.586,1.05a17.568,17.568,0,0,0-3.678,3.609,26.051,26.051,0,0,0-3.616,6.735,91.8,91.8,0,0,0-2.7,9.033l-4.505,16.573c-.59,2.076-1.065,3.777-1.417,5-.161.559-.3,1.011-.4,1.356a2.078,2.078,0,0,1-.169.467,1.931,1.931,0,0,1,.092-.483c.084-.36.192-.812.329-1.379.314-1.241.766-2.95,1.287-5.042,1.134-4.291,2.682-10.137,4.4-16.6a87.886,87.886,0,0,1,2.743-9.056A25.6,25.6,0,0,1,324,208.73a16.557,16.557,0,0,1,3.831-3.57,11.119,11.119,0,0,1,1.226-.72,3.309,3.309,0,0,1,.429-.2Z" transform="translate(-171.167 -112.956)" fill="#263238"/>
        <g id="Group_3657" data-name="Group 3657" transform="translate(109.557 103.995)" opacity="0.3">
          <path id="Path_8511" data-name="Path 8511" d="M310.551,220.83c-7.332,19.852-20.518,30.946-39.19,40.891a68.765,68.765,0,0,0,30.793-11.278" transform="translate(-271.36 -220.83)"/>
        </g>
        <g id="Group_3658" data-name="Group 3658" transform="translate(172.109 89.866)" opacity="0.3">
          <path id="Path_8512" data-name="Path 8512" d="M353,202.39q4.658,74.611,9.317,149.215l-9.194,18.955Z" transform="translate(-353 -202.39)"/>
        </g>
        <path id="Path_8513" data-name="Path 8513" d="M389.236,266.612c-.107.046-1.042-2.3-2.352-5.126s-2.475-5.072-2.375-5.126a6.59,6.59,0,0,1,.912,1.387c.513.889,1.172,2.145,1.824,3.57s1.188,2.735,1.532,3.7A6.068,6.068,0,0,1,389.236,266.612Z" transform="translate(-188.257 -125.143)" fill="#fafafa"/>
        <path id="Path_8514" data-name="Path 8514" d="M414.815,256.05a42.821,42.821,0,0,1-4.98,3.341,44.936,44.936,0,0,1-5.195,3,46.8,46.8,0,0,1,4.988-3.341,45.241,45.241,0,0,1,5.187-3Z" transform="translate(-192.965 -125.07)" fill="#fafafa"/>
        <path id="Path_8515" data-name="Path 8515" d="M405.944,243.7a40.417,40.417,0,0,1-.414-8.168,20.329,20.329,0,0,1,.414,4.076,20.963,20.963,0,0,1,0,4.091Z" transform="translate(-193.151 -120.272)" fill="#fafafa"/>
        <path id="Path_8516" data-name="Path 8516" d="M431.059,242.913a46.445,46.445,0,0,1-7.309-4.513,23.415,23.415,0,0,1,3.762,2.084,22.989,22.989,0,0,1,3.547,2.429Z" transform="translate(-197.434 -120.943)" fill="#fafafa"/>
        <path id="Path_8517" data-name="Path 8517" d="M391.72,295.043a41.05,41.05,0,0,1,2.069-5.3,41.682,41.682,0,0,1,2.436-5.141,40.193,40.193,0,0,1-2.069,5.3,41.039,41.039,0,0,1-2.436,5.141Z" transform="translate(-189.945 -131.746)" fill="#fafafa"/>
        <path id="Path_8518" data-name="Path 8518" d="M378.572,308.423a18.2,18.2,0,0,1-1.87-3.295,18.473,18.473,0,0,1-1.532-3.478,18.488,18.488,0,0,1,1.877,3.295,17.9,17.9,0,0,1,1.525,3.478Z" transform="translate(-186.075 -135.732)" fill="#fafafa"/>
        <path id="Path_8519" data-name="Path 8519" d="M387.3,326.993a12.849,12.849,0,0,1-3.938,1,12.689,12.689,0,0,1-4.061.123c0-.115,1.8-.2,4.007-.513S387.268,326.871,387.3,326.993Z" transform="translate(-187.041 -141.653)" fill="#fafafa"/>
        <path id="Path_8520" data-name="Path 8520" d="M402.73,306.719A20.369,20.369,0,0,1,404.094,303a19.575,19.575,0,0,1,1.724-3.563,19.969,19.969,0,0,1-1.356,3.716A18.735,18.735,0,0,1,402.73,306.719Z" transform="translate(-192.519 -135.215)" fill="#fafafa"/>
        <path id="Path_8521" data-name="Path 8521" d="M369.425,345.1c-.1.061-1.226-1.494-2.774-3.279s-2.927-3.126-2.843-3.21a20.909,20.909,0,0,1,5.616,6.49Z" transform="translate(-183.418 -144.374)" fill="#fafafa"/>
        <path id="Path_8522" data-name="Path 8522" d="M364.082,306.07a22.6,22.6,0,0,1-2,3.831,23.426,23.426,0,0,1-2.352,3.647,24.212,24.212,0,0,1,2.007-3.831A23.607,23.607,0,0,1,364.082,306.07Z" transform="translate(-182.465 -136.766)" fill="#fafafa"/>
        <path id="Path_8523" data-name="Path 8523" d="M366.906,291.331a24.924,24.924,0,0,1-4.283-.9,24.11,24.11,0,0,1-4.183-1.287,24.069,24.069,0,0,1,4.283.9A23.6,23.6,0,0,1,366.906,291.331Z" transform="translate(-182.163 -132.807)" fill="#fafafa"/>
        <path id="Path_8524" data-name="Path 8524" d="M369.25,263a26.212,26.212,0,0,1,2.3,3.126,25.812,25.812,0,0,1,2.13,3.218,15.041,15.041,0,0,1-2.452-3A14.64,14.64,0,0,1,369.25,263Z" transform="translate(-184.691 -126.695)" fill="#fafafa"/>
        <path id="Path_8525" data-name="Path 8525" d="M358.3,261.55a33.913,33.913,0,0,1-5.563,4.842,16.858,16.858,0,0,1,2.651-2.574,17.422,17.422,0,0,1,2.911-2.268Z" transform="translate(-180.83 -126.356)" fill="#fafafa"/>
        <path id="Path_8526" data-name="Path 8526" d="M365.374,244.1a24.878,24.878,0,0,1-6.344-7.455c.1-.061,1.356,1.732,3.111,3.785S365.458,244.02,365.374,244.1Z" transform="translate(-182.301 -120.534)" fill="#fafafa"/>
        <path id="Path_8527" data-name="Path 8527" d="M390.232,241.71a25.931,25.931,0,0,1-4.3,1.532,25.545,25.545,0,0,1-4.413,1.134,27.254,27.254,0,0,1,4.3-1.532A25.853,25.853,0,0,1,390.232,241.71Z" transform="translate(-187.56 -121.717)" fill="#fafafa"/>
        <path id="Path_8528" data-name="Path 8528" d="M356.578,215c-.115,0-.061-1.755-.337-3.885s-.766-3.831-.628-3.831a14.159,14.159,0,0,1,.965,7.738Z" transform="translate(-181.497 -113.667)" fill="#fafafa"/>
        <path id="Path_8529" data-name="Path 8529" d="M330.454,289.86a14.5,14.5,0,0,1-1.8,1.333c-1.134.766-2.682,1.908-4.337,3.21s-3.111,2.536-4.153,3.44a15.524,15.524,0,0,1-1.724,1.44,10.588,10.588,0,0,1,1.532-1.647,52.1,52.1,0,0,1,4.1-3.547,54.156,54.156,0,0,1,4.421-3.134A11.9,11.9,0,0,1,330.454,289.86Z" transform="translate(-172.811 -132.975)" fill="#fafafa"/>
        <path id="Path_8530" data-name="Path 8530" d="M330.84,279.252c-.1.054-1.387-1.946-3.172-4.283s-3.364-4.114-3.279-4.2a5.364,5.364,0,0,1,1.157,1.065,37.4,37.4,0,0,1,2.444,2.889c.889,1.18,1.632,2.3,2.13,3.126A5.654,5.654,0,0,1,330.84,279.252Z" transform="translate(-174.201 -128.512)" fill="#fafafa"/>
        <path id="Path_8531" data-name="Path 8531" d="M336.609,250.23a46.294,46.294,0,0,1-7.509,4.145,23.44,23.44,0,0,1,3.662-2.245,22.78,22.78,0,0,1,3.846-1.9Z" transform="translate(-175.303 -123.709)" fill="#fafafa"/>
        <path id="Path_8532" data-name="Path 8532" d="M330.679,233.762a6.031,6.031,0,0,1-1.31-1.034A27.333,27.333,0,0,1,326.6,229.8a28,28,0,0,1-2.337-3.295,6.038,6.038,0,0,1-.766-1.486c.107-.061,1.417,2.115,3.4,4.528S330.779,233.67,330.679,233.762Z" transform="translate(-173.994 -117.815)" fill="#fafafa"/>
        <path id="Path_8533" data-name="Path 8533" d="M343.25,234.148a16.974,16.974,0,0,1,1.41-3.348,16.793,16.793,0,0,1,1.77-3.18,33.251,33.251,0,0,1-3.18,6.528Z" transform="translate(-178.612 -118.423)" fill="#fafafa"/>
        <path id="Path_8534" data-name="Path 8534" d="M339.981,217.177c-.123,0,0-2.383-.444-5.256s-1.295-5.1-1.18-5.141a5.1,5.1,0,0,1,.651,1.425,20.075,20.075,0,0,1,.927,3.655,21.208,21.208,0,0,1,.237,3.762A4.9,4.9,0,0,1,339.981,217.177Z" transform="translate(-177.465 -113.55)" fill="#fafafa"/>
        <path id="Path_8535" data-name="Path 8535" d="M342.875,295.359a16.432,16.432,0,0,1,0-2.245c.054-1.379.092-3.287.038-5.363s-.192-4.007-.306-5.363a14.4,14.4,0,0,1-.138-2.237,11.5,11.5,0,0,1,.421,2.207,49.807,49.807,0,0,1,.421,5.409,49.23,49.23,0,0,1-.153,5.417A10.552,10.552,0,0,1,342.875,295.359Z" transform="translate(-178.429 -130.705)" fill="#fafafa"/>
        <path id="Path_8536" data-name="Path 8536" d="M339.294,323.466a33.194,33.194,0,0,0-3.394-2.735A33.709,33.709,0,0,0,332,318.8a11.133,11.133,0,0,1,7.309,4.666Z" transform="translate(-175.981 -139.742)" fill="#fafafa"/>
        <path id="Path_8537" data-name="Path 8537" d="M350.731,340.29a45.346,45.346,0,0,1-5.264,2.95,44.331,44.331,0,0,1-5.448,2.59,46.87,46.87,0,0,1,5.264-2.942A45.144,45.144,0,0,1,350.731,340.29Z" transform="translate(-177.856 -144.767)" fill="#fafafa"/>
        <path id="Path_8538" data-name="Path 8538" d="M316.552,344.038a48.118,48.118,0,0,1-3.877-4.927,49.4,49.4,0,0,1-3.555-5.172A49.87,49.87,0,0,1,313,338.874a50.786,50.786,0,0,1,3.555,5.164Z" transform="translate(-170.632 -143.282)" fill="#fafafa"/>
        <path id="Path_8539" data-name="Path 8539" d="M307.936,315.395a5.632,5.632,0,0,1-.176-1.571c-.038-.973-.054-2.3,0-3.831s.207-2.827.337-3.831a5.929,5.929,0,0,1,.314-1.532c.115,0-.115,2.406-.253,5.363S308.012,315.395,307.936,315.395Z" transform="translate(-170.305 -136.429)" fill="#fafafa"/>
        <path id="Path_8540" data-name="Path 8540" d="M293.566,365.023a40.981,40.981,0,0,1-4.475-3.463,40.375,40.375,0,0,1-4.222-3.77,80.6,80.6,0,0,1,8.7,7.233Z" transform="translate(-164.962 -148.858)" fill="#fafafa"/>
        <path id="Path_8541" data-name="Path 8541" d="M303.133,362.071a45.425,45.425,0,0,1-.345-6.007,46.05,46.05,0,0,1,.061-6.015,45.426,45.426,0,0,1,.345,6.007,46.045,46.045,0,0,1-.061,6.015Z" transform="translate(-169.135 -147.049)" fill="#fafafa"/>
        <path id="Path_8542" data-name="Path 8542" d="M311.806,394.973c0,.061-.958-.314-2.5-.812a35.827,35.827,0,0,0-12.428-1.693c-1.617.061-2.613.176-2.62.107a2.46,2.46,0,0,1,.69-.161c.444-.084,1.1-.161,1.915-.23a30.073,30.073,0,0,1,12.52,1.716,16.612,16.612,0,0,1,1.785.766,2.3,2.3,0,0,1,.636.306Z" transform="translate(-167.157 -156.88)" fill="#fafafa"/>
        <path id="Path_8543" data-name="Path 8543" d="M328.61,401.35a8.8,8.8,0,0,1,1.732,1.188,43.809,43.809,0,0,1,7.149,7.148,8.8,8.8,0,0,1,1.188,1.732,14.217,14.217,0,0,1-1.41-1.532c-.843-.973-2.038-2.3-3.425-3.685s-2.712-2.574-3.685-3.425a14.216,14.216,0,0,1-1.548-1.425Z" transform="translate(-175.189 -159.043)" fill="#fafafa"/>
        <path id="Path_8544" data-name="Path 8544" d="M332.5,346.484a31,31,0,0,1-1.984-4.467,30.28,30.28,0,0,1-1.617-4.6,31.008,31.008,0,0,1,1.984,4.467A30.282,30.282,0,0,1,332.5,346.484Z" transform="translate(-175.256 -144.096)" fill="#fafafa"/>
        <path id="Path_8545" data-name="Path 8545" d="M290.456,247.9a5.954,5.954,0,0,1-1.172,1.28,25.923,25.923,0,0,1-3.279,2.59,25.377,25.377,0,0,1-3.662,2.038,6.13,6.13,0,0,1-1.632.59c-.046-.115,2.383-1.157,5.072-2.957S290.371,247.807,290.456,247.9Z" transform="translate(-163.989 -123.164)" fill="#fafafa"/>
        <path id="Path_8546" data-name="Path 8546" d="M295.978,235.219a29.324,29.324,0,0,1,.322-6.819,29.322,29.322,0,0,1-.322,6.819Z" transform="translate(-167.542 -118.605)" fill="#fafafa"/>
        <path id="Path_8547" data-name="Path 8547" d="M273.667,245.11a22.923,22.923,0,0,1-3.977-1.6,23.386,23.386,0,0,1-3.831-1.969,23.692,23.692,0,0,1,3.977,1.6,23.384,23.384,0,0,1,3.831,1.969Z" transform="translate(-160.517 -121.678)" fill="#fafafa"/>
        <path id="Path_8548" data-name="Path 8548" d="M311.626,230.063a22.69,22.69,0,0,1,.13-4.237,21.781,21.781,0,0,1,.521-4.206,23.046,23.046,0,0,1-.123,4.237A22.37,22.37,0,0,1,311.626,230.063Z" transform="translate(-171.207 -117.02)" fill="#fafafa"/>
        <path id="Path_8549" data-name="Path 8549" d="M262.974,265.912A14.419,14.419,0,0,1,258.607,264a14.013,14.013,0,0,1-3.747-2.957c.077-.092,1.709,1.28,3.946,2.62S263.02,265.8,262.974,265.912Z" transform="translate(-157.945 -126.236)" fill="#fafafa"/>
        <path id="Path_8550" data-name="Path 8550" d="M248.539,247.038a32.333,32.333,0,0,1-3.264,3.831,32.947,32.947,0,0,1-3.555,3.6,64.713,64.713,0,0,1,6.819-7.47Z" transform="translate(-154.873 -122.954)" fill="#fafafa"/>
        <path id="Path_8551" data-name="Path 8551" d="M247.367,227.334a11.225,11.225,0,0,1-3.578-2,11.592,11.592,0,0,1-2.919-2.866c.084-.084,1.371,1.211,3.164,2.544S247.421,227.235,247.367,227.334Z" transform="translate(-154.674 -117.218)" fill="#fafafa"/>
        <path id="Path_8552" data-name="Path 8552" d="M238.91,232.64a9.677,9.677,0,0,1-1.632,2.237,9.96,9.96,0,0,1-1.938,1.984,19.338,19.338,0,0,1,3.57-4.222Z" transform="translate(-153.381 -119.597)" fill="#fafafa"/>
        <path id="Path_8553" data-name="Path 8553" d="M258.078,198.8a31.366,31.366,0,0,1-3,3.969,30.3,30.3,0,0,1-3.3,3.724,31.731,31.731,0,0,1,3-3.977,31.318,31.318,0,0,1,3.3-3.716Z" transform="translate(-157.225 -111.684)" fill="#fafafa"/>
        <path id="Path_8554" data-name="Path 8554" d="M240.971,200.483a28.352,28.352,0,0,1-3.264-3.425,28.394,28.394,0,0,1-2.957-3.678,27.855,27.855,0,0,1,3.264,3.417A28.351,28.351,0,0,1,240.971,200.483Z" transform="translate(-153.243 -110.417)" fill="#fafafa"/>
        <path id="Path_8555" data-name="Path 8555" d="M250.157,178.653a22.8,22.8,0,0,1-2.3-3.632,24.034,24.034,0,0,1-1.938-3.831,23.118,23.118,0,0,1,2.3,3.639A23.8,23.8,0,0,1,250.157,178.653Z" transform="translate(-155.855 -105.229)" fill="#fafafa"/>
        <path id="Path_8558" data-name="Path 8558" d="M378.6,134.783a48.658,48.658,0,0,1-.115-9.562,16.312,16.312,0,0,1,3.524-8.758,9.893,9.893,0,0,1,8.474-3.57c1.961.253,3.831,1.218,5.785,1.165,2.3-.069,4.268-1.479,6.344-2.421a16.618,16.618,0,0,1,10.451-1.1,9.961,9.961,0,0,1,4.942,2.5,5.532,5.532,0,0,1,1.6,5.118,26.411,26.411,0,0,1,6.9.605,8.911,8.911,0,0,1,5.509,3.831,5.429,5.429,0,0,1-.575,6.4,4.413,4.413,0,0,1,4.873,3.325,5.685,5.685,0,0,1-2.3,5.7,10.627,10.627,0,0,1-7.164,1.44,15.514,15.514,0,0,1-6.306-2.3" transform="translate(-186.807 -90.957)" fill="#263238"/>
        <path id="Path_8559" data-name="Path 8559" d="M372.712,211.2h0a16.534,16.534,0,0,0,20.1-11.784c1.295-4.911,2.352-9.026,2.352-9.026s12.8,2.2,17.04-9.96,11.493-40.769,11.493-40.769h0a44.63,44.63,0,0,0-44.293-8.926l-2.3.766-16.266,59.249a16.534,16.534,0,0,0,11.876,20.45Z" transform="translate(-182.583 -95.201)" fill="#b78876"/>
        <path id="Path_8560" data-name="Path 8560" d="M401.541,206.12a29.881,29.881,0,0,1-14.351-9.83S388,206.3,400.514,209.315Z" transform="translate(-188.885 -111.098)" fill="#aa6550"/>
        <path id="Path_8561" data-name="Path 8561" d="M375.536,149.145c-.176-.161-7.532-5.279-10.052,3.134s6.436,9.194,6.52,8.972S375.536,149.145,375.536,149.145Z" transform="translate(-183.706 -99.68)" fill="#b78876"/>
        <path id="Path_8562" data-name="Path 8562" d="M371.087,158.105a2.6,2.6,0,0,1-.46.1,1.532,1.532,0,0,1-1.073-.322c-.766-.59-1.111-2.23-.7-3.754a5.018,5.018,0,0,1,1.034-1.977,1.778,1.778,0,0,1,1.44-.766.766.766,0,0,1,.766.659c.046.268-.061.421,0,.452s.222-.092.253-.46a.965.965,0,0,0-.169-.621,1.142,1.142,0,0,0-.766-.46,2.138,2.138,0,0,0-1.923.843,5.134,5.134,0,0,0-1.211,2.191c-.46,1.709-.069,3.555,1.042,4.275a1.647,1.647,0,0,0,1.41.176C371.033,158.3,371.133,158.136,371.087,158.105Z" transform="translate(-184.42 -100.496)" fill="#aa6550"/>
        <path id="Path_8563" data-name="Path 8563" d="M428.5,165.364a1.839,1.839,0,0,1-2.3,1.188,1.755,1.755,0,0,1-1.264-2.168,1.839,1.839,0,0,1,2.26-1.2,1.762,1.762,0,0,1,1.3,2.176Z" transform="translate(-197.697 -103.341)" fill="#263238"/>
        <path id="Path_8564" data-name="Path 8564" d="M430.482,163.522c-.291.153-1.28-1.257-3.149-1.885s-3.563-.146-3.685-.444c-.069-.13.291-.467,1.034-.7a5,5,0,0,1,3.065.077,4.812,4.812,0,0,1,2.413,1.785C430.566,162.985,430.62,163.46,430.482,163.522Z" transform="translate(-197.408 -102.679)" fill="#263238"/>
        <path id="Path_8565" data-name="Path 8565" d="M404.515,157.315a1.839,1.839,0,0,1-2.26,1.2,1.755,1.755,0,0,1-1.264-2.168,1.831,1.831,0,0,1,2.26-1.2,1.754,1.754,0,0,1,1.264,2.168Z" transform="translate(-192.097 -101.46)" fill="#263238"/>
        <path id="Path_8566" data-name="Path 8566" d="M406.34,155.924c-.291.161-1.287-1.257-3.157-1.885s-3.555-.146-3.685-.444c-.061-.13.291-.467,1.042-.7a5.026,5.026,0,0,1,3.065.069,4.873,4.873,0,0,1,2.421,1.785C406.417,155.387,406.478,155.862,406.34,155.924Z" transform="translate(-191.761 -100.904)" fill="#263238"/>
        <path id="Path_8567" data-name="Path 8567" d="M411.21,173.153a13.17,13.17,0,0,1,3.218.467c.5.115.981.169,1.172-.13a2.6,2.6,0,0,0,.153-1.532c-.061-1.31-.123-2.682-.192-4.114-.222-5.831-.215-10.566,0-10.573s.605,4.72.827,10.55c.046,1.433.084,2.8.123,4.114a2.889,2.889,0,0,1-.375,1.954,1.264,1.264,0,0,1-1.019.437,3.172,3.172,0,0,1-.85-.161A13.581,13.581,0,0,1,411.21,173.153Z" transform="translate(-194.501 -101.974)" fill="#263238"/>
        <path id="Path_8568" data-name="Path 8568" d="M403.207,177.268c.306.084-.368,2.115.889,4.137s3.486,2.528,3.41,2.812c0,.138-.621.238-1.532-.046a5.31,5.31,0,0,1-2.881-2.237,4.6,4.6,0,0,1-.613-3.425C402.678,177.636,403.069,177.207,403.207,177.268Z" transform="translate(-192.436 -106.649)" fill="#263238"/>
        <path id="Path_8569" data-name="Path 8569" d="M431.2,158.918c-.467.314-1.609-.559-3.149-1.1s-2.957-.674-3.111-1.218c-.061-.26.291-.621,1-.827a4.835,4.835,0,0,1,5.049,1.87C431.382,158.259,431.412,158.757,431.2,158.918Z" transform="translate(-197.71 -101.592)" fill="#263238"/>
        <path id="Path_8570" data-name="Path 8570" d="M406.015,145.783c-.283.153-.766-.1-1.31-.429a14.851,14.851,0,0,0-2.207-1.08,14.05,14.05,0,0,0-2.383-.628c-.651-.13-1.157-.23-1.272-.536s.253-.766,1.08-1.073a5.187,5.187,0,0,1,5.976,2.222C406.322,145.063,406.283,145.66,406.015,145.783Z" transform="translate(-191.605 -98.356)" fill="#263238"/>
        <path id="Path_8571" data-name="Path 8571" d="M426.765,142.8a30.149,30.149,0,0,1-17.454-6.857c-5.5-4.505-12.389-7.662-14.266-6.773s-3.662,7.2-10.236,7.662c0,0-2.345,12.3-7.11,10.727s2.567-19.745,2.567-19.745l13.217-3.111,13.539.5,12.159,2.758L429.7,134Z" transform="translate(-186.29 -94.359)" fill="#263238"/>
        <rect id="Rectangle_1988" data-name="Rectangle 1988" width="172.032" height="267.89" transform="translate(0.176 0.207)" fill="#fafafa"/>
        <path id="Path_8572" data-name="Path 8572" d="M300.578,353.189c0-1.647-.077-110.446-.184-267.89l.184.184H128.569l.207-.2c0,101.351,0,194.673-.046,267.89l-.161-.161,172.032.161-172.032.153h-.153v-.138c0-73.217,0-166.539-.046-267.89v-.2H300.785v.184C300.655,242.751,300.578,351.549,300.578,353.189Z" transform="translate(-128.37 -85.1)" fill="#263238"/>
        <path id="Path_8573" data-name="Path 8573" d="M181.221,152.253H159.208a2.758,2.758,0,0,1-2.758-2.751V119.031a2.758,2.758,0,0,1,2.758-2.751h13.96l10.8,11.133V149.5a2.751,2.751,0,0,1-2.751,2.751Z" transform="translate(-134.935 -92.39)" fill="#1e64cc"/>
        <path id="Path_8574" data-name="Path 8574" d="M178.27,116.28v8.574a2.567,2.567,0,0,0,2.559,2.559h8.244Z" transform="translate(-140.037 -92.39)" fill="#1e64cc"/>
        <g id="Group_3659" data-name="Group 3659" transform="translate(38.348 33.214)" opacity="0.2">
          <path id="Path_8575" data-name="Path 8575" d="M178.42,128.45a2.843,2.843,0,0,0,2.253,2.766l.276.061c1.073.192,8.16,1.448,8.16,1.287v-2.3h-8.244S178.811,130.189,178.42,128.45Z" transform="translate(-178.42 -128.45)"/>
        </g>
        <g id="Group_3660" data-name="Group 3660" transform="translate(38.233 23.89)" opacity="0.3">
          <path id="Path_8576" data-name="Path 8576" d="M178.27,116.28v8.574a2.567,2.567,0,0,0,2.559,2.559h8.244Z" transform="translate(-178.27 -116.28)" fill="#fff"/>
        </g>
        <path id="Path_8577" data-name="Path 8577" d="M172.753,126.932a33.19,33.19,0,0,1-5.1.2,33.046,33.046,0,0,1-5.087-.2,33.046,33.046,0,0,1,5.087-.2,33.192,33.192,0,0,1,5.1.2Z" transform="translate(-136.366 -94.829)" fill="#fafafa"/>
        <path id="Path_8578" data-name="Path 8578" d="M179.327,133.279c0,.107-3.747.2-8.374.2s-8.382-.092-8.382-.2,3.754-.2,8.382-.2S179.327,133.164,179.327,133.279Z" transform="translate(-136.366 -96.318)" fill="#fafafa"/>
        <path id="Path_8579" data-name="Path 8579" d="M180.836,138.559c0,.115-4.084.2-9.133.2s-9.133-.084-9.133-.2,4.091-.2,9.133-.2S180.836,138.452,180.836,138.559Z" transform="translate(-136.366 -97.553)" fill="#fafafa"/>
        <path id="Path_8580" data-name="Path 8580" d="M180.836,143.549c0,.107-4.084.2-9.133.2s-9.133-.092-9.133-.2,4.091-.2,9.133-.2S180.836,143.434,180.836,143.549Z" transform="translate(-136.366 -98.72)" fill="#fafafa"/>
        <path id="Path_8581" data-name="Path 8581" d="M180.836,148.529c0,.115-4.084.2-9.133.2s-9.133-.084-9.133-.2,4.091-.2,9.133-.2S180.836,148.422,180.836,148.529Z" transform="translate(-136.366 -99.884)" fill="#fafafa"/>
        <path id="Path_8582" data-name="Path 8582" d="M180.836,153.519c0,.107-4.084.2-9.133.2s-9.133-.092-9.133-.2,4.091-.2,9.133-.2S180.836,153.4,180.836,153.519Z" transform="translate(-136.366 -101.051)" fill="#fafafa"/>
        <rect id="Rectangle_1989" data-name="Rectangle 1989" width="2.942" height="224.93" rx="1.33" transform="translate(159.244 16.695)" fill="#e0e0e0"/>
        <rect id="Rectangle_1990" data-name="Rectangle 1990" width="2.942" height="115.962" rx="1.33" transform="translate(159.244 16.695)" fill="#1e64cc"/>
        <path id="Path_8620" data-name="Path 8620" d="M279.188,217.329c0,.115-26.441.2-59.05.2s-59.058-.084-59.058-.2,26.441-.2,59.058-.2S279.188,217.222,279.188,217.329Z" transform="translate(-136.018 -115.97)" fill="#263238"/>
        <path id="Path_8621" data-name="Path 8621" d="M279.188,229c0,.107-26.441.2-59.05.2s-59.058-.092-59.058-.2,26.441-.2,59.058-.2S279.188,228.884,279.188,229Z" transform="translate(-136.018 -118.699)" fill="#263238"/>
        <path id="Path_8622" data-name="Path 8622" d="M279.188,240.659c0,.115-26.441.2-59.05.2s-59.058-.084-59.058-.2,26.441-.2,59.058-.2S279.188,240.552,279.188,240.659Z" transform="translate(-136.018 -121.425)" fill="#263238"/>
        <path id="Path_8623" data-name="Path 8623" d="M279.188,252.329c0,.107-26.441.2-59.05.2s-59.058-.092-59.058-.2,26.441-.2,59.058-.2S279.188,252.214,279.188,252.329Z" transform="translate(-136.018 -124.154)" fill="#263238"/>
        <path id="Path_8624" data-name="Path 8624" d="M279.188,263.989c0,.115-26.441.2-59.05.2s-59.058-.084-59.058-.2,26.441-.2,59.058-.2S279.188,263.882,279.188,263.989Z" transform="translate(-136.018 -126.88)" fill="#263238"/>
        <path id="Path_8625" data-name="Path 8625" d="M279.188,275.659c0,.107-26.441.2-59.05.2s-59.058-.092-59.058-.2,26.441-.2,59.058-.2S279.188,275.544,279.188,275.659Z" transform="translate(-136.018 -129.609)" fill="#263238"/>
        <path id="Path_8626" data-name="Path 8626" d="M279.188,319.939c0,.107-26.441.2-59.05.2s-59.058-.092-59.058-.2,26.441-.2,59.058-.2S279.188,319.847,279.188,319.939Z" transform="translate(-136.018 -139.962)" fill="#263238"/>
        <path id="Path_8627" data-name="Path 8627" d="M279.188,329.939c0,.115-26.441.2-59.05.2s-59.058-.084-59.058-.2,26.441-.2,59.058-.2S279.188,329.832,279.188,329.939Z" transform="translate(-136.018 -142.3)" fill="#e0e0e0"/>
        <path id="Path_8628" data-name="Path 8628" d="M279.188,339.939c0,.107-26.441.2-59.05.2s-59.058-.092-59.058-.2,26.441-.2,59.058-.2S279.188,339.817,279.188,339.939Z" transform="translate(-136.018 -144.638)" fill="#ebebeb"/>
        <line id="Line_26" data-name="Line 26" x2="2.421" y2="2.329" transform="translate(82.197 239.288)" fill="#fff"/>
        <path id="Path_8645" data-name="Path 8645" d="M344.829,384.171l8.918-4.291-4.9-14.5-10.773-2.49c-1-.23-2.122-.5-3.364-.843a13.485,13.485,0,0,1-4.084-1.923,20.5,20.5,0,0,1-4.275-3.624c-1.019-1.387-3.18-.866-3.18.674s2.72,5.425,7.555,8.175-3.716,4.076-6.811,4.6-12.611,2.659-13.178,3.739c-.827,1.578.766,2.789,3.831,2.184s12.481-1.8,12.726-.161v.046a6.727,6.727,0,0,0,.406,7.815c1.732,2.168,4.329,4.888,6.237,4.475C337.52,387.29,344.829,384.171,344.829,384.171Z" transform="translate(-170.958 -148.369)" fill="#b78876"/>
        <path id="Path_8646" data-name="Path 8646" d="M354.59,336.991l8.359,28.265,64.9-19.722A26.05,26.05,0,0,0,445,312.519L429.086,263l-34.563,8.581L413.495,317.4Z" transform="translate(-181.263 -126.695)" fill="#1e64cc"/>
        <path id="Path_8647" data-name="Path 8647" d="M429.246,350.526l-.314.115-.935.3-3.632,1.126-13.6,4.168-47.243,14.335-.176.046-.061-.169c-2.889-8.643-5.693-18.143-8.934-27.9l-.061-.184.192-.069,1.632-.536,57.28-19.024-.092.207c-4.6-11.11-8.321-20.212-10.926-26.556-1.287-3.157-2.3-5.624-2.988-7.317-.329-.835-.59-1.479-.766-1.923s-.245-.659-.245-.659.107.215.291.644l.812,1.9c.7,1.686,1.739,4.145,3.065,7.286,2.636,6.329,6.421,15.416,11.048,26.51l.061.153-.161.054-57.28,19.1-1.632.544.123-.253c3.249,9.769,6.038,19.27,8.918,27.9l-.23-.123,47.281-14.19,13.653-4.068,3.647-1.065.95-.268Z" transform="translate(-181.193 -132.185)" fill="#263238"/>
        <path id="Path_8648" data-name="Path 8648" d="M443.349,342.233c-.061,0-.49-.713-1.356-1.793a17.553,17.553,0,0,0-8.849-5.869c-1.333-.383-2.191-.49-2.184-.559a1.732,1.732,0,0,1,.613,0,11.287,11.287,0,0,1,1.64.276,15.881,15.881,0,0,1,5.026,2.191,15.706,15.706,0,0,1,3.977,3.777,11.028,11.028,0,0,1,.889,1.41A1.709,1.709,0,0,1,443.349,342.233Z" transform="translate(-199.119 -143.292)" fill="#263238"/>
        <path id="Path_8649" data-name="Path 8649" d="M426.531,274.782a44.184,44.184,0,0,1,0-8.382,44.186,44.186,0,0,1,0,8.382Z" transform="translate(-198.031 -127.49)" fill="#fafafa"/>
        <path id="Path_8650" data-name="Path 8650" d="M442.866,275.725a45.28,45.28,0,0,1-2.436-8.145,45.275,45.275,0,0,1,2.436,8.145Z" transform="translate(-201.334 -127.766)" fill="#fafafa"/>
        <path id="Path_8651" data-name="Path 8651" d="M430.748,292.879a14.412,14.412,0,0,1-7.578-2.222c.054-.107,1.655.651,3.747,1.257S430.755,292.764,430.748,292.879Z" transform="translate(-197.298 -133.159)" fill="#fafafa"/>
        <path id="Path_8652" data-name="Path 8652" d="M452.3,299.578a20.29,20.29,0,0,1,.49-4,20.557,20.557,0,0,1,.881-3.938,21.044,21.044,0,0,1-.49,4.007A20.2,20.2,0,0,1,452.3,299.578Z" transform="translate(-204.109 -133.392)" fill="#fafafa"/>
        <path id="Path_8653" data-name="Path 8653" d="M444.37,313.484a42.328,42.328,0,0,1-3.44-7.524,43.139,43.139,0,0,1,3.44,7.524Z" transform="translate(-201.45 -136.74)" fill="#fafafa"/>
        <path id="Path_8654" data-name="Path 8654" d="M440.435,326.793a19.435,19.435,0,0,1-3.639-1.532,19.091,19.091,0,0,1-3.456-1.9,20.818,20.818,0,0,1,3.632,1.532,19.394,19.394,0,0,1,3.463,1.9Z" transform="translate(-199.676 -140.808)" fill="#fafafa"/>
        <path id="Path_8655" data-name="Path 8655" d="M463.326,324.63a184.486,184.486,0,0,1-3,7A20.165,20.165,0,0,1,463.326,324.63Z" transform="translate(-205.986 -141.105)" fill="#fafafa"/>
        <path id="Path_8656" data-name="Path 8656" d="M457.96,351.054a45.928,45.928,0,0,1-.85-8.6,24.414,24.414,0,0,1,.621,4.283A23.751,23.751,0,0,1,457.96,351.054Z" transform="translate(-205.234 -145.272)" fill="#fafafa"/>
        <path id="Path_8657" data-name="Path 8657" d="M441.158,361.218a19.346,19.346,0,0,1-3.065-2.528,19.844,19.844,0,0,1-2.774-2.82,19.341,19.341,0,0,1,3.065,2.528,19.84,19.84,0,0,1,2.774,2.82Z" transform="translate(-200.139 -148.409)" fill="#fafafa"/>
        <path id="Path_8658" data-name="Path 8658" d="M415.011,365.48A44.494,44.494,0,0,1,410,372.314a21.889,21.889,0,0,1,2.345-3.532A22.641,22.641,0,0,1,415.011,365.48Z" transform="translate(-194.219 -150.656)" fill="#fafafa"/>
        <path id="Path_8659" data-name="Path 8659" d="M423.206,351.271a14.057,14.057,0,0,1-3.1-2.728,13.624,13.624,0,0,1-2.482-3.295c.092-.069,1.234,1.372,2.774,3.026S423.274,351.187,423.206,351.271Z" transform="translate(-196 -145.926)" fill="#fafafa"/>
        <path id="Path_8660" data-name="Path 8660" d="M403.158,355.781a5.984,5.984,0,0,1-3.065.375,6.129,6.129,0,0,1-2.973-.812c.046-.115,1.341.3,3,.414S403.158,355.666,403.158,355.781Z" transform="translate(-191.207 -148.282)" fill="#fafafa"/>
        <path id="Path_8661" data-name="Path 8661" d="M392.042,375.768a14.556,14.556,0,0,1-.766-3.295,14.175,14.175,0,0,1-.375-3.364,28.856,28.856,0,0,1,1.142,6.658Z" transform="translate(-189.753 -151.505)" fill="#fafafa"/>
        <path id="Path_8662" data-name="Path 8662" d="M375.216,383.893a49.231,49.231,0,0,1-7.516-4.743,25.06,25.06,0,0,1,3.869,2.207,25.336,25.336,0,0,1,3.647,2.536Z" transform="translate(-184.328 -153.853)" fill="#fafafa"/>
        <path id="Path_8663" data-name="Path 8663" d="M381.443,358.72c.084.077-1.027,1.394-2.26,3.111a35.97,35.97,0,0,1-2.253,3.126,12.52,12.52,0,0,1,1.923-3.364,12.258,12.258,0,0,1,2.59-2.873Z" transform="translate(-186.486 -149.076)" fill="#fafafa"/>
        <path id="Path_8664" data-name="Path 8664" d="M370.008,363.113a7.456,7.456,0,0,1-2.245-.9,7.255,7.255,0,0,1-2.053-1.257,14.511,14.511,0,0,1,4.3,2.153Z" transform="translate(-183.863 -149.599)" fill="#fafafa"/>
        <g id="Group_3661" data-name="Group 3661" transform="translate(231.687 188.98)" opacity="0.2">
          <path id="Path_8665" data-name="Path 8665" d="M430.76,332.3c3.463.352,6.934.713,10.39,1.149a12.8,12.8,0,0,1,3.524.766,4.482,4.482,0,0,1,2.513,2.459,2.751,2.751,0,0,1-.958,3.21,3.18,3.18,0,0,1-3.141-.138,16.776,16.776,0,0,1-2.59-2.03,14.451,14.451,0,0,0-5.317-2.781,9.118,9.118,0,0,1-2.544-.889,2.207,2.207,0,0,1-1.1-2.3" transform="translate(-430.76 -331.75)"/>
        </g>
        <text id="Steps_to_follow" data-name="Steps to follow" transform="translate(61.356 45.645)" fill="#102646" font-size="11" font-family="Arial-BoldMT, Arial" font-weight="700"><tspan x="0" y="0">Steps to follow</tspan></text>
        <text id="Step_1" data-name="Step 1" transform="translate(23.356 91.645)" fill="#2e5b9f" font-size="8" font-family="ArialMT, Arial"><tspan x="0" y="0">Step 1</tspan></text>
        <text id="Step_2" data-name="Step 2" transform="translate(23.356 174.645)" fill="#2e5b9f" font-size="8" font-family="ArialMT, Arial"><tspan x="0" y="0">Step 2</tspan></text>
        <rect id="Rectangle_2113" data-name="Rectangle 2113" width="106" height="23" transform="translate(32.356 217.645)" fill="#1e64cc"/>
        <text id="Start" transform="translate(76.356 232.645)" fill="#fff" font-size="8" font-family="ArialMT, Arial"><tspan x="0" y="0">Start</tspan></text>
      </g>
    </g>
    <g id="Component_119_281" data-name="Component 119 – 281" transform="translate(0 787)">
      <g transform="matrix(1, 0, 0, 1, 0, -787)" filter="url(#Rectangle_1534)">
        <rect id="Rectangle_1534-2" data-name="Rectangle 1534" width="412" height="60" transform="translate(0 787)" fill="#102646"/>
      </g>
      <g id="Group_2755" data-name="Group 2755" transform="translate(0 -779)">
        <g id="Rectangle_1564" data-name="Rectangle 1564" transform="translate(12 789)" fill="#fff" stroke="#707070" stroke-width="1" opacity="0">
          <rect width="50" height="45" stroke="none"/>
          <rect x="0.5" y="0.5" width="49" height="44" fill="none"/>
        </g>
        <path id="Path_4565" data-name="Path 4565" d="M35.606,24.011l-7.368-7.1,7.368-7.1a1.37,1.37,0,0,0,.424-.982,1.4,1.4,0,0,0-.4-1,1.369,1.369,0,0,0-.982-.424h-.022a1.385,1.385,0,0,0-.982.4l-8.417,8.1a1.42,1.42,0,0,0-.424,1,1.382,1.382,0,0,0,.424,1l8.439,8.1a1.443,1.443,0,0,0,.982.4,1.42,1.42,0,0,0,1-.424,1.4,1.4,0,0,0,.4-1A1.274,1.274,0,0,0,35.606,24.011Z" transform="translate(5.036 792.435)" fill="#fff"/>
      </g>
    </g>
    <g id="Group_3234" data-name="Group 3234" transform="translate(4.012 -10.262)">
      <path id="Icon_ionic-ios-arrow-back" data-name="Icon ionic-ios-arrow-back" d="M15.217,17.7,23.926,9A1.645,1.645,0,1,0,21.6,6.674l-9.867,9.86a1.642,1.642,0,0,0-.048,2.268l9.908,9.929a1.645,1.645,0,0,0,2.33-2.323Z" transform="translate(362.579 30.069)" fill="#fff"/>
      <path id="Icon_ionic-ios-arrow-back-2" data-name="Icon ionic-ios-arrow-back" d="M3.967,11.506l8.709-8.7A1.645,1.645,0,1,0,10.346.481L.479,10.341a1.642,1.642,0,0,0-.048,2.268l9.908,9.929a1.645,1.645,0,1,0,2.33-2.323Z" transform="translate(377.472 59.28) rotate(180)" fill="#fff"/>
    </g>
  </g>
</svg>
