<svg xmlns="http://www.w3.org/2000/svg" xmlns:xlink="http://www.w3.org/1999/xlink" width="412" height="847" viewBox="0 0 412 847">
  <defs>
    <filter id="Rectangle_1728" x="-2" y="111" width="416" height="447" filterUnits="userSpaceOnUse">
      <feOffset dy="3" input="SourceAlpha"/>
      <feGaussianBlur stdDeviation="8" result="blur"/>
      <feFlood flood-opacity="0.078"/>
      <feComposite operator="in" in2="blur"/>
      <feComposite in="SourceGraphic"/>
    </filter>
    <filter id="Path_7" x="27" y="139" width="360" height="96.064" filterUnits="userSpaceOnUse">
      <feOffset dy="3" input="SourceAlpha"/>
      <feGaussianBlur stdDeviation="8" result="blur-2"/>
      <feFlood flood-opacity="0.078"/>
      <feComposite operator="in" in2="blur-2"/>
      <feComposite in="SourceGraphic"/>
    </filter>
    <filter id="Rectangle_1534" x="-9" y="775" width="430" height="78" filterUnits="userSpaceOnUse">
      <feOffset dy="-3" input="SourceAlpha"/>
      <feGaussianBlur stdDeviation="3" result="blur-3"/>
      <feFlood flood-opacity="0.059"/>
      <feComposite operator="in" in2="blur-3"/>
      <feComposite in="SourceGraphic"/>
    </filter>
    <clipPath id="clip-CBT_8">
      <rect width="412" height="847"/>
    </clipPath>
  </defs>
  <g id="CBT_8" data-name="CBT – 8" clip-path="url(#clip-CBT_8)">
    <rect width="412" height="847" fill="#102646"/>
    <g id="Group_3651" data-name="Group 3651" transform="translate(0 -242)">
      <g transform="matrix(1, 0, 0, 1, 0, 242)" filter="url(#Rectangle_1728)">
        <rect id="Rectangle_1728-2" data-name="Rectangle 1728" width="368" height="399" rx="10" transform="translate(22 132)" fill="#153669"/>
      </g>
      <g id="Group_3652" data-name="Group 3652" transform="translate(0 -15)">
        <text id="All_Negative_Thoughts_" data-name="All Negative Thoughts " transform="translate(41 505)" fill="#8eb1e5" font-size="14" font-family="Arial-BoldMT, Arial" font-weight="700"><tspan x="0" y="13">All Negative Thoughts </tspan></text>
      </g>
      <g id="CTA" transform="translate(51 402.438)">
        <g transform="matrix(1, 0, 0, 1, -51, -160.44)" filter="url(#Path_7)">
          <path id="Path_7-2" data-name="Path 7" d="M7.473,5H304.527C308.654,5,312,9,312,13.942v30.18c0,4.939-3.346,8.942-7.473,8.942H7.473c-4.127,0-7.473-4-7.473-8.942V13.942C0,9,3.346,5,7.473,5Z" transform="translate(51 155)" fill="#ff9241"/>
        </g>
        <text id="Write_New_thought" data-name="Write New thought" transform="translate(156 28.563)" fill="#fff" font-size="14" font-family="ArialMT, Arial"><tspan x="-57.453" y="0">Write New thought</tspan></text>
      </g>
      <path id="Path_8483" data-name="Path 8483" d="M1053,4508.186h368" transform="translate(-1031 -3828.371)" fill="none" stroke="#fff" stroke-width="2" opacity="0.11"/>
      <path id="Path_8484" data-name="Path 8484" d="M1053,4508.186h368" transform="translate(-1031 -3906.371)" fill="none" stroke="#fff" stroke-width="2" opacity="0.11"/>
      <g id="card" transform="translate(22 520)">
        <g id="Languages" transform="translate(20 20)">
          <text id="Thought_1" data-name="Thought 1" fill="#d2dff2" font-size="15" font-family="Arial-BoldMT, Arial" font-weight="700"><tspan x="0" y="14">Thought 1</tspan></text>
        </g>
        <text id="Created_on_12_03_2021" data-name="Created on 12/03/2021" transform="translate(19 62)" fill="#8eb1e5" font-size="14" font-family="ArialMT, Arial"><tspan x="0" y="0">Created on 12/03/2021</tspan></text>
      </g>
      <g id="card-2" data-name="card" transform="translate(22 598)">
        <g id="Languages-2" data-name="Languages" transform="translate(20 20)">
          <text id="Thought_2" data-name="Thought 2" fill="#d2dff2" font-size="15" font-family="Arial-BoldMT, Arial" font-weight="700"><tspan x="0" y="14">Thought 2</tspan></text>
        </g>
        <text id="Created_on_12_03_2021-2" data-name="Created on 12/03/2021" transform="translate(19 62)" fill="#8eb1e5" font-size="14" font-family="ArialMT, Arial"><tspan x="0" y="0">Created on 12/03/2021</tspan></text>
      </g>
      <g id="card-3" data-name="card" transform="translate(22 676)">
        <g id="Languages-3" data-name="Languages" transform="translate(20 20)">
          <text id="Thought_3" data-name="Thought 3" fill="#d2dff2" font-size="15" font-family="Arial-BoldMT, Arial" font-weight="700"><tspan x="0" y="14">Thought 3</tspan></text>
        </g>
        <text id="Created_on_12_03_2021-3" data-name="Created on 12/03/2021" transform="translate(19 62)" fill="#8eb1e5" font-size="14" font-family="ArialMT, Arial"><tspan x="0" y="0">Created on 12/03/2021</tspan></text>
      </g>
      <path id="Path_8485" data-name="Path 8485" d="M33.555,20.858l-5.969-5.752,5.969-5.752a1.11,1.11,0,0,0,.344-.8,1.134,1.134,0,0,0-.326-.814,1.11,1.11,0,0,0-.8-.344h-.018a1.122,1.122,0,0,0-.8.326l-6.82,6.566a1.151,1.151,0,0,0-.344.814,1.12,1.12,0,0,0,.344.814l6.838,6.566a1.17,1.17,0,0,0,.8.326,1.151,1.151,0,0,0,.814-.344,1.134,1.134,0,0,0,.326-.814A1.032,1.032,0,0,0,33.555,20.858Z" transform="translate(386.732 577.606) rotate(180)" fill="#8eb1e5"/>
      <path id="Path_8486" data-name="Path 8486" d="M33.555,20.858l-5.969-5.752,5.969-5.752a1.11,1.11,0,0,0,.344-.8,1.134,1.134,0,0,0-.326-.814,1.11,1.11,0,0,0-.8-.344h-.018a1.122,1.122,0,0,0-.8.326l-6.82,6.566a1.151,1.151,0,0,0-.344.814,1.12,1.12,0,0,0,.344.814l6.838,6.566a1.17,1.17,0,0,0,.8.326,1.151,1.151,0,0,0,.814-.344,1.134,1.134,0,0,0,.326-.814A1.032,1.032,0,0,0,33.555,20.858Z" transform="translate(386.732 655.606) rotate(180)" fill="#8eb1e5"/>
      <path id="Path_8487" data-name="Path 8487" d="M33.555,20.858l-5.969-5.752,5.969-5.752a1.11,1.11,0,0,0,.344-.8,1.134,1.134,0,0,0-.326-.814,1.11,1.11,0,0,0-.8-.344h-.018a1.122,1.122,0,0,0-.8.326l-6.82,6.566a1.151,1.151,0,0,0-.344.814,1.12,1.12,0,0,0,.344.814l6.838,6.566a1.17,1.17,0,0,0,.8.326,1.151,1.151,0,0,0,.814-.344,1.134,1.134,0,0,0,.326-.814A1.032,1.032,0,0,0,33.555,20.858Z" transform="translate(386.732 733.606) rotate(180)" fill="#8eb1e5"/>
    </g>
    <g id="Component_119_117" data-name="Component 119 – 117" transform="translate(0 787)">
      <g transform="matrix(1, 0, 0, 1, 0, -787)" filter="url(#Rectangle_1534)">
        <rect id="Rectangle_1534-2" data-name="Rectangle 1534" width="412" height="60" transform="translate(0 787)" fill="#102646"/>
      </g>
      <g id="Group_2755" data-name="Group 2755" transform="translate(0 -779)">
        <g id="Rectangle_1564" data-name="Rectangle 1564" transform="translate(12 789)" fill="#fff" stroke="#707070" stroke-width="1" opacity="0">
          <rect width="50" height="45" stroke="none"/>
          <rect x="0.5" y="0.5" width="49" height="44" fill="none"/>
        </g>
        <path id="Path_4565" data-name="Path 4565" d="M35.606,24.011l-7.368-7.1,7.368-7.1a1.37,1.37,0,0,0,.424-.982,1.4,1.4,0,0,0-.4-1,1.369,1.369,0,0,0-.982-.424h-.022a1.385,1.385,0,0,0-.982.4l-8.417,8.1a1.42,1.42,0,0,0-.424,1,1.382,1.382,0,0,0,.424,1l8.439,8.1a1.443,1.443,0,0,0,.982.4,1.42,1.42,0,0,0,1-.424,1.4,1.4,0,0,0,.4-1A1.274,1.274,0,0,0,35.606,24.011Z" transform="translate(5.036 792.435)" fill="#fff"/>
      </g>
    </g>
    <text id="CBT_tool" data-name="CBT tool" transform="translate(22 26)" fill="#fff" font-size="24" font-family="Arial-BoldMT, Arial" font-weight="700"><tspan x="0" y="22">CBT tool</tspan></text>
    <text id="Control_Negative_Thoughts" data-name="Control Negative Thoughts" transform="translate(22 91.747)" fill="#fff" font-size="16" font-family="Arial-BoldMT, Arial" font-weight="700"><tspan x="0" y="14">Control Negative Thoughts</tspan></text>
  </g>
</svg>
