<svg xmlns="http://www.w3.org/2000/svg" xmlns:xlink="http://www.w3.org/1999/xlink" width="412" height="847" viewBox="0 0 412 847">
  <defs>
    <clipPath id="clip-CBT_S8_E1_7">
      <rect width="412" height="847"/>
    </clipPath>
  </defs>
  <g id="CBT_S8_E1_7" data-name="CBT /  S8 / E1 –7" clip-path="url(#clip-CBT_S8_E1_7)">
    <rect width="412" height="847" fill="#102646"/>
    <g id="Group_3601" data-name="Group 3601" transform="translate(657 -378)">
      <g id="Group_3103" data-name="Group 3103" transform="translate(-4 158)">
        <g id="Group_1500" data-name="Group 1500" transform="translate(71 65)">
          <text id="Stay_with_the_image_for_at_least_five_minutes_for_problem_as_well_as_for_solution._" data-name="Stay with the image for at least five minutes for problem as well as for solution. 
" transform="translate(-697 256)" fill="#fff" font-size="24" font-family="Arial-BoldMT, Arial" font-weight="700"><tspan x="29.641" y="22">Stay with the image for at </tspan><tspan x="4.293" y="53">least five minutes for problem </tspan><tspan x="46.305" y="84">as well as for solution. </tspan><tspan font-family="HelveticaNeue-Bold, Helvetica Neue"><tspan x="175" y="115"></tspan></tspan></text>
        </g>
      </g>
    </g>
    <g id="Group_3946" data-name="Group 3946">
      <g id="Group_3682" data-name="Group 3682" transform="translate(-68.695 -119)">
        <circle id="Ellipse_714" data-name="Ellipse 714" cx="52.42" cy="52.42" r="52.42" transform="translate(157.73 371.17)" fill="#e0e0e0"/>
        <circle id="Ellipse_715" data-name="Ellipse 715" cx="52.42" cy="52.42" r="52.42" transform="translate(153.75 371.17)" fill="#f5f5f5"/>
        <circle id="Ellipse_716" data-name="Ellipse 716" cx="48.45" cy="48.45" r="48.45" transform="translate(137.657 423.596) rotate(-45)" fill="#fff"/>
        <path id="Path_9363" data-name="Path 9363" d="M363.6,173.09a1.17,1.17,0,0,1-1.14-.9l-8.26-34.08a1.18,1.18,0,0,1,2.29-.56l8.25,34.09a1.18,1.18,0,0,1-.87,1.42,1.24,1.24,0,0,1-.27.03Z" transform="translate(-149.17 285.76)" fill="#f5f5f5"/>
        <path id="Path_9364" data-name="Path 9364" d="M355.34,140.18a2.34,2.34,0,0,1-1.66-.69l-28.35-28.35a2.351,2.351,0,0,1,3.33-3.32l26.68,26.69,15.57-15.57a2.351,2.351,0,1,1,3.32,3.33L357,139.49a2.35,2.35,0,0,1-1.66.69Z" transform="translate(-149.17 285.76)" fill="#ebebeb"/>
      </g>
      <g id="Mindfulness-pana-3" transform="translate(21.304 221.486)">
        <g id="freepik--background-complete--inject-14" transform="translate(27.696 53.27)">
          <path id="Path_8968" data-name="Path 8968" d="M347.529,357.389c0,.1-66.929.179-149.462.179s-149.476-.083-149.476-.179,66.916-.179,149.476-.179S347.529,357.286,347.529,357.389Z" transform="translate(-48.59 -147.042)" fill="#e0e0e0"/>
          <path id="Path_8969" data-name="Path 8969" d="M414.572,281.578c.227-.221,1.757.882,3.777,3.15a36.2,36.2,0,0,1,3.2,4.252,42.4,42.4,0,0,1,3.074,5.762,42.869,42.869,0,0,1,2.1,6.2,35.555,35.555,0,0,1,.91,5.238c.276,3.026,0,4.893-.276,4.907-.731.055-1.378-7.257-4.962-15.369C418.928,287.553,414.041,282.067,414.572,281.578Z" transform="translate(-162.321 -123.528)" fill="#ebebeb"/>
          <path id="Path_8970" data-name="Path 8970" d="M434.852,300.439c-.317.041-1.185-3.956-1.985-10.517s-1.5-15.652-1.757-25.715-.159-19.16.034-25.742.517-10.655.848-10.655.634,4.066.868,10.648.4,15.666.689,25.687.689,19.07,1.041,25.625S435.2,300.391,434.852,300.439Z" transform="translate(-167.424 -106.826)" fill="#ebebeb"/>
          <path id="Path_8971" data-name="Path 8971" d="M451.133,250.237c.31.172-.958,2.97-2.619,7.643s-3.777,11.179-5.824,18.471-3.591,13.97-4.535,18.829-1.344,7.905-1.7,7.9-.558-3.15,0-8.16a138.289,138.289,0,0,1,10.469-37.693C449.031,252.642,450.865,250.071,451.133,250.237Z" transform="translate(-169.025 -113.793)" fill="#ebebeb"/>
          <path id="Path_8972" data-name="Path 8972" d="M409.2,321.06v8a17.092,17.092,0,0,0,17.092,17.092h0a17.086,17.086,0,0,0,17.086-17.092v-8Z" transform="translate(-160.663 -135.807)" fill="#e0e0e0"/>
          <path id="Path_8973" data-name="Path 8973" d="M443.7,330.771c0,.138-7.719.248-17.23.248s-17.23-.11-17.23-.248,7.719-.241,17.23-.241S443.7,330.64,443.7,330.771Z" transform="translate(-160.676 -138.75)" fill="#fafafa"/>
          <path id="Path_8974" data-name="Path 8974" d="M443.7,334c0,.131-7.719.241-17.23.241s-17.23-.11-17.23-.241,7.719-.241,17.23-.241S443.7,333.87,443.7,334Z" transform="translate(-160.676 -139.754)" fill="#fafafa"/>
          <rect id="Rectangle_2058" data-name="Rectangle 2058" width="72.411" height="75.48" transform="translate(240.875 -18.468)" fill="#e0e0e0"/>
          <rect id="Rectangle_2059" data-name="Rectangle 2059" width="72.411" height="75.48" transform="translate(235.968 -18.468)" fill="#fafafa"/>
          <path id="Path_8983" data-name="Path 8983" d="M152.506,160.255H80.05V84.73h72.456ZM80.1,160.21h72.366V84.775H80.1Z" transform="translate(155.899 -103.217)" fill="#e0e0e0"/>
          <rect id="Rectangle_2060" data-name="Rectangle 2060" width="52.944" height="55.185" transform="translate(245.71 -8.321)" fill="#fafafa"/>
          <path id="Path_8984" data-name="Path 8984" d="M89.821,157.72a8.95,8.95,0,0,1-1.315,1.522c-.837.9-2.026,2.1-3.359,3.413s-2.557,2.476-3.458,3.313a8.652,8.652,0,0,1-1.531,1.27,8.31,8.31,0,0,1,1.3-1.513c.846-.9,2.035-2.1,3.368-3.421s2.566-2.485,3.467-3.313a8.652,8.652,0,0,1,1.531-1.27Z" transform="translate(155.888 -110.486)" fill="#e0e0e0"/>
          <path id="Path_8985" data-name="Path 8985" d="M149.68,157.57a8.6,8.6,0,0,1,1.522,1.306c.9.846,2.1,2.035,3.413,3.368s2.485,2.557,3.314,3.458a8.654,8.654,0,0,1,1.27,1.531,8.311,8.311,0,0,1-1.513-1.3c-.9-.846-2.1-2.035-3.413-3.376s-2.494-2.557-3.323-3.467A8.448,8.448,0,0,1,149.68,157.57Z" transform="translate(148.965 -110.47)" fill="#e0e0e0"/>
          <path id="Path_8986" data-name="Path 8986" d="M149.52,95.134a8.6,8.6,0,0,1,1.333-1.522c.846-.9,2.035-2.1,3.367-3.413s2.53-2.44,3.431-3.34a8.652,8.652,0,0,1,1.531-1.27,8.311,8.311,0,0,1-1.3,1.513c-.846.9-2.035,2.1-3.377,3.412s-2.557,2.494-3.467,3.322A8.447,8.447,0,0,1,149.52,95.134Z" transform="translate(148.981 -103.303)" fill="#e0e0e0"/>
          <path id="Path_8987" data-name="Path 8987" d="M89.664,95.271a9.192,9.192,0,0,1-1.549-1.306c-.9-.846-2.1-2.035-3.413-3.367s-2.485-2.557-3.313-3.458a8.166,8.166,0,0,1-1.27-1.531,8.689,8.689,0,0,1,1.513,1.3c.9.846,2.1,2.035,3.413,3.377s2.485,2.557,3.323,3.467a7.672,7.672,0,0,1,1.3,1.522Z" transform="translate(155.893 -103.304)" fill="#e0e0e0"/>
          <path id="Path_8988" data-name="Path 8988" d="M143.667,151.165V147.14c0-2.611,0-6.411-.054-11.246,0-9.661-.063-23.41-.1-39.924l.2.207H90.921l.234-.234v55.194l-.2-.207,38.222.108h.126l-38.348.108H90.75V95.52h53.241v.432c-.045,16.54-.081,30.361-.108,40.059v14.884a1.3,1.3,0,0,1-.216.27Z" transform="translate(154.834 -104.292)" fill="#e0e0e0"/>
          <rect id="Rectangle_2061" data-name="Rectangle 2061" width="17.666" height="17.666" transform="translate(263.34 10.444)" fill="#ebebeb"/>
          <path id="Path_8989" data-name="Path 8989" d="M282.45,418.58a.861.861,0,0,0-.255-.51,4.094,4.094,0,0,0-1.468-.841,34.266,34.266,0,0,0-6.4-1.5,227.133,227.133,0,0,0-24.122-2.116c-10.228-.455-22.42-.648-35.956-.338-6.761.165-13.86.455-21.2,1.013-3.674.289-7.4.634-11.165,1.151-1.882.262-3.777.558-5.652.965a25.9,25.9,0,0,0-2.757.744,7.921,7.921,0,0,0-1.316.551c-.4.207-.834.524-.855.868s.448.689.848.875a7.916,7.916,0,0,0,1.316.551,25.951,25.951,0,0,0,2.757.751c1.875.407,3.77.689,5.652.965,3.763.51,7.492.862,11.165,1.151,7.34.558,14.473.848,21.207,1.013,13.536.31,25.735.117,35.963-.338a229,229,0,0,0,24.122-2.116,34.174,34.174,0,0,0,6.4-1.5,4,4,0,0,0,1.468-.841.841.841,0,0,0,.255-.5.689.689,0,0,1-.227.531,3.97,3.97,0,0,1-1.468.882,33.2,33.2,0,0,1-6.4,1.571,220.171,220.171,0,0,1-24.122,2.226c-10.228.5-22.434.689-35.977.42-6.768-.159-13.874-.441-21.228-1-3.674-.283-7.416-.627-11.186-1.144-1.888-.262-3.791-.558-5.679-.972a27.105,27.105,0,0,1-2.826-.751,9.065,9.065,0,0,1-1.378-.579,2.966,2.966,0,0,1-.634-.434.91.91,0,0,1,0-1.509,2.759,2.759,0,0,1,.634-.434,9.025,9.025,0,0,1,1.378-.572,25.941,25.941,0,0,1,2.826-.758c1.9-.407,3.791-.689,5.679-.972,3.77-.51,7.512-.862,11.186-1.144,7.347-.551,14.473-.834,21.221-.992,13.543-.3,25.742-.076,35.977.414a220.041,220.041,0,0,1,24.122,2.233,32.677,32.677,0,0,1,6.4,1.571,3.88,3.88,0,0,1,1.468.882A.689.689,0,0,1,282.45,418.58Z" transform="translate(-86.611 -164.323)" fill="#fafafa"/>
          <path id="Path_8990" data-name="Path 8990" d="M300.671,416.023a1.944,1.944,0,0,0-.29-.875,5.458,5.458,0,0,0-2.116-1.7,42.073,42.073,0,0,0-10.09-3.122c-9.015-1.888-22.275-3.446-38.706-4.39s-36.053-1.378-57.811-.731c-10.876.331-22.289.917-34.075,2.068-5.893.586-11.875,1.3-17.92,2.35-3.012.538-6.031,1.151-9.008,1.985a32.514,32.514,0,0,0-4.342,1.537,10.8,10.8,0,0,0-2.006,1.13,2.5,2.5,0,0,0-1.185,1.751,2.454,2.454,0,0,0,1.172,1.751,10.827,10.827,0,0,0,2.006,1.137,32.516,32.516,0,0,0,4.37,1.537,91.9,91.9,0,0,0,9.008,1.985c6.017,1.054,12.006,1.771,17.919,2.35,11.786,1.144,23.206,1.73,34.082,2.068,21.758.627,41.353.221,57.811-.737s29.7-2.495,38.706-4.39a41.353,41.353,0,0,0,10.09-3.122,5.458,5.458,0,0,0,2.116-1.7,1.944,1.944,0,0,0,.289-.875s0,.076,0,.234a1.957,1.957,0,0,1-.241.689,5.514,5.514,0,0,1-2.116,1.744,41.365,41.365,0,0,1-10.1,3.191c-9.015,1.937-22.282,3.515-38.72,4.507s-36.06,1.42-57.832.813c-10.883-.324-22.31-.9-34.109-2.068-5.9-.579-11.889-1.3-17.919-2.35-3.019-.538-6.044-1.144-9.042-1.992a32.448,32.448,0,0,1-4.425-1.558,10.772,10.772,0,0,1-2.068-1.172,4.308,4.308,0,0,1-.882-.855,1.82,1.82,0,0,1,0-2.378,4.246,4.246,0,0,1,.882-.841,11.413,11.413,0,0,1,2.068-1.178,33.37,33.37,0,0,1,4.425-1.551c3-.841,6.024-1.454,9.042-1.992,6.031-1.054,12.027-1.764,17.919-2.343,11.8-1.144,23.22-1.723,34.1-2.068,21.765-.607,41.394-.172,57.832.813s29.705,2.571,38.72,4.507a41.065,41.065,0,0,1,10.1,3.191,5.514,5.514,0,0,1,2.116,1.744,1.93,1.93,0,0,1,.241.655C300.671,415.94,300.671,416.023,300.671,416.023Z" transform="translate(-71.653 -161.766)" fill="#fafafa"/>
          <path id="Path_8991" data-name="Path 8991" d="M323.281,412.294a3.549,3.549,0,0,0-.324-1.33,7.519,7.519,0,0,0-2.791-2.874c-2.971-1.992-7.967-3.846-14.535-5.514-13.157-3.343-32.676-6.051-56.881-7.754a835.624,835.624,0,0,0-85.193-1.309c-16.031.579-32.855,1.606-50.2,3.611-8.663,1.02-17.465,2.274-26.287,4.135a112.455,112.455,0,0,0-13.1,3.487,39.217,39.217,0,0,0-6.279,2.709,14.079,14.079,0,0,0-2.757,1.971,3.528,3.528,0,0,0-.014,5.748,13.839,13.839,0,0,0,2.757,1.971,38.018,38.018,0,0,0,6.279,2.709,112.281,112.281,0,0,0,13.136,3.5c8.822,1.847,17.623,3.095,26.293,4.135,17.341,2.006,34.171,3.033,50.2,3.6a831.721,831.721,0,0,0,85.2-1.309c24.2-1.7,43.723-4.411,56.881-7.747,6.561-1.675,11.558-3.522,14.535-5.514a7.485,7.485,0,0,0,2.757-2.867,3.549,3.549,0,0,0,.324-1.33v.345a1.331,1.331,0,0,1-.076.427,2.541,2.541,0,0,1-.193.572,7.443,7.443,0,0,1-2.757,2.915c-2.97,2.026-7.974,3.9-14.535,5.59-13.164,3.391-32.689,6.141-56.894,7.871a828.437,828.437,0,0,1-85.235,1.378c-16.038-.565-32.876-1.585-50.23-3.584-8.677-1.027-17.485-2.274-26.328-4.135A112.688,112.688,0,0,1,73.869,420.2a39.52,39.52,0,0,1-6.341-2.757,14.351,14.351,0,0,1-2.84-2.068,3.866,3.866,0,0,1,0-6.265,14.529,14.529,0,0,1,2.846-2.019,38.946,38.946,0,0,1,6.341-2.757,113.3,113.3,0,0,1,13.178-3.5c8.836-1.847,17.644-3.1,26.314-4.135,17.354-2.006,34.185-3.019,50.223-3.591a826.206,826.206,0,0,1,85.228,1.379c24.157,1.833,43.717,4.59,56.846,7.953,6.568,1.7,11.572,3.57,14.542,5.6a7.443,7.443,0,0,1,2.757,2.915,2.5,2.5,0,0,1,.193.565,1.377,1.377,0,0,1,.076.427A1.894,1.894,0,0,1,323.281,412.294Z" transform="translate(-53.096 -158.037)" fill="#fafafa"/>
          <path id="Path_8992" data-name="Path 8992" d="M226.518,396.831c-11.3-.737-22.647-1.475-33.971-1s-22.744,2.212-32.751,6.2c-3.942,1.558-7.995,3.818-8.691,7.113-.751,3.556,2.833,6.892,7.078,8.608,8.753,3.446,19.567,1.647,28.678-1.275s17.919-6.892,27.741-7.7c8.188-.689,16.4.972,24.122,3.088s15.245,4.742,23.24,6.2,16.741,1.661,24.178-.972c3.977-1.378,7.726-3.991,7.954-7.278.165-2.336-1.523-4.576-3.866-6.12a28.3,28.3,0,0,0-8.215-3.274C263.15,395.4,242.549,396,222.542,396.68" transform="translate(-80.419 -158.998)" fill="#e0e0e0"/>
          <path id="Path_8993" data-name="Path 8993" d="M54.432,419.362l-4.762,3.446c-.476.345-1.006.813-.924,1.378.1.724,1.027.965,1.757,1.006,5.107.269,8.594-.269,13.1-2.633a22.366,22.366,0,0,0,2.288-1.344c.352-.262,1.84-1.378,1.565-1.744a1.564,1.564,0,0,0-1.3-.372c-4.066.09-7.685.117-11.717.214" transform="translate(-48.636 -166.269)" fill="#e0e0e0"/>
          <g id="freepik--Hourglass--inject-274" transform="translate(251.119 -6.791)">
            <path id="Path_9306" data-name="Path 9306" d="M217.717,320.73S196.1,333.493,196.1,345.586h43.24C239.338,333.493,217.717,320.73,217.717,320.73Z" transform="translate(-191.744 -291.606)" fill="#1e64cc" opacity="0.2"/>
            <path id="Path_9307" data-name="Path 9307" d="M221.691,372.5s-19.961,4.945-19.961,9.627h39.922C241.652,377.445,221.691,372.5,221.691,372.5Z" transform="translate(-195.717 -328.148)" fill="#1e64cc" opacity="0.2"/>
            <path id="Path_9308" data-name="Path 9308" d="M278.51,332.71c4.059,3.992,11.948,12.837,11.948,21.332h-5.409C285.049,345.547,280.731,336.7,278.51,332.71Z" transform="translate(-249.912 -300.062)" fill="#fff" opacity="0.3"/>
            <path id="Path_9309" data-name="Path 9309" d="M217.717,261.086S196.1,248.323,196.1,236.23h43.24C239.338,248.323,217.717,261.086,217.717,261.086Z" transform="translate(-191.744 -231.962)" fill="#1e64cc" opacity="0.2"/>
            <path id="Path_9310" data-name="Path 9310" d="M243.107,291.995S232.07,286.7,232.07,281.67h22.076C254.146,286.691,243.107,291.995,243.107,291.995Z" transform="translate(-217.133 -264.036)" fill="#1e64cc" opacity="0.2"/>
            <path id="Path_9311" data-name="Path 9311" d="M232.937,257.562C228.88,253.57,221,244.725,221,236.23h5.409C226.4,244.725,230.707,253.57,232.937,257.562Z" transform="translate(-209.319 -231.962)" fill="#fff" opacity="0.3"/>
            <path id="Path_9312" data-name="Path 9312" d="M278.51,257.562c4.059-3.992,11.751-13.86,11.948-21.332h-1.441C288.341,245.34,281.722,253.7,278.51,257.562Z" transform="translate(-249.912 -231.962)" fill="#fff" opacity="0.3"/>
            <rect id="Rectangle_2110" data-name="Rectangle 2110" width="2.45" height="0.294" transform="translate(42.208 0)" fill="#1e64cc"/>
            <path id="Path_9313" data-name="Path 9313" d="M345.494,225.762H345.2a3.75,3.75,0,0,0-3.745-3.747H338.87v-.294h2.586A4.048,4.048,0,0,1,345.494,225.762Z" transform="translate(-292.517 -221.72)" fill="#1e64cc"/>
            <rect id="Rectangle_2111" data-name="Rectangle 2111" width="51.947" height="6.477" rx="3.239" transform="translate(0 1.03)" fill="#1e64cc"/>
            <rect id="Rectangle_2112" data-name="Rectangle 2112" width="51.947" height="6.477" rx="3.239" transform="translate(0 50.741)" fill="#1e64cc"/>
          </g>
        </g>
        <g id="freepik--Character--inject-14" transform="translate(92.179 59.665)">
          <path id="Path_8994" data-name="Path 8994" d="M322.926,198.749a4.376,4.376,0,0,0-6.809-3.742,8.153,8.153,0,0,0-2.943,3.226c-1.847,3.391-2.068,7.4-2.454,11.234a27.417,27.417,0,0,1-3.35,10.876l14.115-16.817A8.229,8.229,0,0,0,322.926,198.749Z" transform="translate(-177.786 -103.796)" fill="#1e64cc"/>
          <g id="Group_3663" data-name="Group 3663" transform="translate(129.584 90.471)" opacity="0.2">
            <path id="Path_8995" data-name="Path 8995" d="M322.926,198.749a4.376,4.376,0,0,0-6.809-3.742,8.153,8.153,0,0,0-2.943,3.226c-1.847,3.391-2.068,7.4-2.454,11.234a27.417,27.417,0,0,1-3.35,10.876l14.115-16.817A8.229,8.229,0,0,0,322.926,198.749Z" transform="translate(-307.37 -194.267)"/>
          </g>
          <path id="Path_8996" data-name="Path 8996" d="M304.031,187.44c.834.689,28.32,32.241,28.32,32.241l-14.866,11.806L298.6,207.951Z" transform="translate(-175.06 -101.675)" fill="#ffbe9d"/>
          <path id="Path_8997" data-name="Path 8997" d="M177.3,202.91c-.731.813-22.937,30.325-22.937,30.325l13.9,15.066,17.058-25.756Z" transform="translate(-130.232 -106.482)" fill="#ffbe9d"/>
          <path id="Path_8998" data-name="Path 8998" d="M188,230.717c1.62.744,2.536,2.474,3.15,4.135a15.614,15.614,0,0,0,2.219,4.824c1.151,1.378,3.3,2.116,4.749,1.068s1.447-3.067.827-4.645a9.539,9.539,0,0,0-4.032-4.487,19.926,19.926,0,0,0-5.734-2.143" transform="translate(-140.687 -114.737)" fill="#1e64cc"/>
          <g id="Group_3664" data-name="Group 3664" transform="translate(47.313 114.733)" opacity="0.2">
            <path id="Path_8999" data-name="Path 8999" d="M188,230.717c1.62.744,2.536,2.474,3.15,4.135a15.614,15.614,0,0,0,2.219,4.824c1.151,1.378,3.3,2.116,4.749,1.068s1.447-3.067.827-4.645a9.539,9.539,0,0,0-4.032-4.487,19.926,19.926,0,0,0-5.734-2.143" transform="translate(-188 -229.47)"/>
          </g>
          <path id="Path_9000" data-name="Path 9000" d="M295.878,307.263a10.045,10.045,0,0,0-1.516-.289l-55.4-23.233H183.9L129.585,305.2c-5.514,1.833-13.378,12.592-8.918,25.446.124.358.255.689.386,1.041a19.106,19.106,0,0,0,22.744,11.11c7.506-2.006,18.285-4.942,29.381-7.981h1.247l34.55-9.8c5.41,1.5,16.782,4.632,29.422,8.105h0c15.363,4.225,32.593,8.96,43.227,11.779a19.089,19.089,0,0,0,22.744-11.11c.138-.338.262-.689.386-1.041C309.256,319.855,301.392,309.1,295.878,307.263Z" transform="translate(-119.352 -131.603)" fill="#455a64"/>
          <path id="Path_9001" data-name="Path 9001" d="M214.683,333.08l.193-.069.558-.172,2.192-.641,8.271-2.357-.1.165-5.514-20.263.186.145h-5.631c-1.95,0-3.949.179-5.989.262l-12.75.689c-15.755.917-29.994,1.985-40.3,2.819l-12.234.992-3.322.269-.862.062a.148.148,0,1,1-.007-.055l.862-.1,3.308-.358c2.881-.289,7.044-.689,12.192-1.144,10.3-.917,24.543-2.033,40.3-2.95l12.757-.689c2.068-.083,4.046-.227,6-.248h5.845v.152c2.143,8.064,4,15.045,5.39,20.3l.034.124-.124.034-8.271,2.24-2.212.572-.572.138A.545.545,0,0,1,214.683,333.08Z" transform="translate(-125.486 -139.591)" fill="#263238"/>
          <path id="Path_9002" data-name="Path 9002" d="M220.047,308.6a12.216,12.216,0,0,1-3.253-2.164,12.843,12.843,0,0,1-2.715-2.812,34.563,34.563,0,0,1,3,2.474A34.134,34.134,0,0,1,220.047,308.6Z" transform="translate(-148.79 -137.781)" fill="#263238"/>
          <path id="Path_9003" data-name="Path 9003" d="M332.407,318.631a5.238,5.238,0,0,1-.758,0l-2.171-.131-7.981-.544-26.307-1.792-26.349-1.592-7.988-.469-2.192-.145a4.924,4.924,0,0,1-.751-.076,3.993,3.993,0,0,1,.758,0l2.178.069,7.988.331c6.754.31,16.072.806,26.362,1.468s19.594,1.344,26.328,1.9l7.974.689,2.164.207a4,4,0,0,1,.744.09Z" transform="translate(-162.414 -140.966)" fill="#263238"/>
          <path id="Path_9004" data-name="Path 9004" d="M250.1,318.584a3.862,3.862,0,0,1,2.274-1.275,4.323,4.323,0,0,1,2.605,0c-.034.083-1.158.048-2.495.4S250.174,318.688,250.1,318.584Z" transform="translate(-159.985 -141.981)" fill="#263238"/>
          <path id="Path_9005" data-name="Path 9005" d="M252.28,324.041a12.1,12.1,0,0,1,4.549-.544,6.122,6.122,0,0,1-2.247.489A6.42,6.42,0,0,1,252.28,324.041Z" transform="translate(-160.664 -143.936)" fill="#263238"/>
          <path id="Path_9006" data-name="Path 9006" d="M253.26,329.53c0-.131,1.234-.165,2.667-.593s2.488-1.034,2.564-.924a4.825,4.825,0,0,1-2.447,1.378A4.9,4.9,0,0,1,253.26,329.53Z" transform="translate(-160.969 -145.359)" fill="#263238"/>
          <path id="Path_9007" data-name="Path 9007" d="M255.22,335.729c0-.131,1.179-.221,2.516-.737s2.3-1.2,2.378-1.1a4.135,4.135,0,0,1-2.219,1.509A4.427,4.427,0,0,1,255.22,335.729Z" transform="translate(-161.578 -147.188)" fill="#263238"/>
          <path id="Path_9008" data-name="Path 9008" d="M290.144,307.788a20.819,20.819,0,0,1-1.861,2.564,18.844,18.844,0,0,1-1.909,2.529,7.9,7.9,0,0,1,1.551-2.791A8.462,8.462,0,0,1,290.144,307.788Z" transform="translate(-171.256 -139.076)" fill="#263238"/>
          <path id="Path_9009" data-name="Path 9009" d="M238.5,307.22l-13.2-2s-1.2-3.108-3.232-3.267-3.915,2.068-5.4,1.95-19.208-6.1-20.221,1.93l7.375,3.039" transform="translate(-143.313 -137.17)" fill="#ffbe9d"/>
          <path id="Path_9010" data-name="Path 9010" d="M300.984,316.493,261.7,324.915l-3.529-13.488,14.535-.689s1.744-2.846,3.77-2.633,3.446,2.757,4.962,2.881S301.425,308.415,300.984,316.493Z" transform="translate(-162.495 -139.172)" fill="#ffbe9d"/>
          <path id="Path_9011" data-name="Path 9011" d="M187.069,285.72s-.11.062-.338.165l-1.013.469c-.889.414-2.212,1-3.922,1.737-3.446,1.475-8.4,3.508-14.584,5.969s-13.55,5.341-21.655,8.76a108.789,108.789,0,0,0-12.53,5.693l-.772.462a.737.737,0,0,0-.138.1h0v-.048a1.054,1.054,0,0,0,.352.11,12.457,12.457,0,0,0,1.778.152c1.213.034,2.433,0,3.667,0,2.467-.062,4.976-.172,7.506-.3,10.138-.538,19.78-1.261,28.547-1.93l23.3-1.854,15.7-1.309,4.273-.345,1.11-.083h.379a1.962,1.962,0,0,0-.379.055l-1.1.117-4.266.414-15.693,1.42c-6.623.579-14.515,1.247-23.288,1.937s-18.416,1.42-28.554,1.957c-2.536.131-5.045.241-7.512.3-1.241,0-2.467.041-3.694,0a12.811,12.811,0,0,1-1.833-.152,1.338,1.338,0,0,1-.5-.186.3.3,0,0,1-.117-.234.324.324,0,0,1,.09-.214,1.227,1.227,0,0,1,.227-.165l.772-.462a107.969,107.969,0,0,1,12.585-5.693c8.112-3.4,15.5-6.258,21.689-8.691s11.193-4.432,14.618-5.865l3.949-1.668,1.02-.434Z" transform="translate(-123.214 -132.219)" fill="#fff"/>
          <path id="Path_9012" data-name="Path 9012" d="M290.84,285.72a.985.985,0,0,1,.255.09l.737.31,2.812,1.213,10.338,4.4,34.261,14.308a86.836,86.836,0,0,1,9.649,4.411c.379.207.751.42,1.11.641a4.718,4.718,0,0,1,.558.358,1.441,1.441,0,0,1,.138.152.358.358,0,0,1,.062.276c0,.124-.083.165-.145.234a1.423,1.423,0,0,1-.172.1,9.277,9.277,0,0,1-2.529.31c-1.654.034-3.267,0-4.824-.09-6.279-.3-11.917-.82-16.651-1.254s-8.553-.855-11.193-1.144l-3.039-.352-.793-.1a1.454,1.454,0,0,1-.262-.048h.269l.793.062,3.046.289,11.207,1.027c4.735.4,10.373.9,16.644,1.179,1.565.062,3.17.117,4.824.076a9.111,9.111,0,0,0,2.4-.283l.1-.055h0c-.041.034,0-.048-.083-.1s-.324-.214-.51-.324c-.358-.214-.724-.427-1.1-.634a89.742,89.742,0,0,0-9.608-4.383c-13.384-5.583-25.5-10.655-34.226-14.4-4.363-1.875-7.885-3.446-10.338-4.514l-2.757-1.268-.724-.345Z" transform="translate(-172.648 -132.219)" fill="#fff"/>
          <path id="Path_9013" data-name="Path 9013" d="M242.75,144.14h0a11.344,11.344,0,0,0,12.116-11.978c-.165-2.853-.31-5.031-.31-5.031s8.994-1.378,9.1-10.386-1.447-29.636-1.447-29.636h0a31.235,31.235,0,0,0-31.387,3.963L229.49,92.1l2.757,41.477a11.351,11.351,0,0,0,10.5,10.566Z" transform="translate(-153.581 -69.705)" fill="#ffbe9d"/>
          <path id="Path_9014" data-name="Path 9014" d="M260.607,144.659a20.925,20.925,0,0,1-11.717-3.329s2.757,6.472,11.717,5.658Z" transform="translate(-159.611 -87.344)" fill="#eb996e"/>
          <path id="Path_9015" data-name="Path 9015" d="M228.4,108.872c-.152-.069-6.2-1.826-5.975,4.314s6.32,4.68,6.327,4.507S228.4,108.872,228.4,108.872Z" transform="translate(-151.384 -77.168)" fill="#ffbe9d"/>
          <path id="Path_9016" data-name="Path 9016" d="M227.509,116.352a2.143,2.143,0,0,1-.283.165,1.082,1.082,0,0,1-.8.041,2.588,2.588,0,0,1-1.3-2.336,3.6,3.6,0,0,1,.248-1.544,1.254,1.254,0,0,1,.779-.848.545.545,0,0,1,.641.276c.09.165.055.289.09.3s.124-.11.069-.358a.641.641,0,0,0-.255-.379.779.779,0,0,0-.593-.138,1.5,1.5,0,0,0-1.089.986,3.6,3.6,0,0,0-.317,1.723,2.774,2.774,0,0,0,1.647,2.605,1.123,1.123,0,0,0,.972-.193C227.5,116.5,227.529,116.359,227.509,116.352Z" transform="translate(-152.089 -78.08)" fill="#eb996e"/>
          <path id="Path_9017" data-name="Path 9017" d="M247.611,107.618c.159-.172,1.13.551,2.516.544s2.392-.689,2.543-.524-.09.379-.531.689a3.48,3.48,0,0,1-2.068.627,3.37,3.37,0,0,1-2-.641C247.68,107.99,247.535,107.687,247.611,107.618Z" transform="translate(-159.207 -76.859)" fill="#263238"/>
          <path id="Path_9018" data-name="Path 9018" d="M267.311,107.239c.159-.165,1.13.551,2.516.551s2.392-.689,2.543-.524c.069.069-.09.372-.531.689a3.584,3.584,0,0,1-2.068.627,3.446,3.446,0,0,1-2-.648C267.38,107.618,267.235,107.315,267.311,107.239Z" transform="translate(-165.33 -76.741)" fill="#263238"/>
          <path id="Path_9019" data-name="Path 9019" d="M261.78,116.689a9.043,9.043,0,0,1,2.247-.407c.352-.034.689-.1.744-.345a1.8,1.8,0,0,0-.234-1.048L263.5,112.2c-1.447-3.818-2.5-6.968-2.343-7.023s1.454,3,2.9,6.823l1,2.7a2.006,2.006,0,0,1,.179,1.378.862.862,0,0,1-.579.517,2.226,2.226,0,0,1-.6.083A9.271,9.271,0,0,1,261.78,116.689Z" transform="translate(-163.417 -76.109)" fill="#263238"/>
          <path id="Path_9020" data-name="Path 9020" d="M256.078,123.26c.221,0,.227,1.489,1.509,2.55s2.881.9,2.888,1.11c0,.1-.352.3-1.027.31a3.68,3.68,0,0,1-2.412-.841,3.219,3.219,0,0,1-1.172-2.137C255.809,123.625,255.954,123.253,256.078,123.26Z" transform="translate(-161.775 -81.728)" fill="#263238"/>
          <path id="Path_9021" data-name="Path 9021" d="M252.477,100.731c-.138.379-1.516.2-3.136.393s-2.929.641-3.15.3c-.09-.165.138-.517.689-.882a5.514,5.514,0,0,1,4.824-.524C252.257,100.263,252.532,100.552,252.477,100.731Z" transform="translate(-158.766 -74.403)" fill="#263238"/>
          <path id="Path_9022" data-name="Path 9022" d="M271.64,102.485c-.241.31-1.192,0-2.336,0s-2.116.207-2.336-.117c-.1-.165.055-.476.476-.772a3.377,3.377,0,0,1,3.77.117C271.62,102,271.75,102.327,271.64,102.485Z" transform="translate(-165.22 -74.834)" fill="#263238"/>
          <path id="Path_9023" data-name="Path 9023" d="M265.109,76.615a3.315,3.315,0,0,0-1.227-2.964,2.35,2.35,0,0,0-3.046.227,2.757,2.757,0,0,0-2.364-3.329c-1.461-.09-2.715,1.013-4.135,1.378a6.665,6.665,0,0,1-4.2-.489c-1.33-.531-2.571-1.275-3.922-1.764a11.5,11.5,0,0,0-14.7,6.747,5.087,5.087,0,0,0-5.41,2.068,8.346,8.346,0,0,0-1.282,5.893,19.023,19.023,0,0,0,1.027,4.032v.345c.09,4.942.655,10.752,2.757,10.779,3.68.055,2.805-6.892,2.805-6.892,4.507-1.744,2.826-8.5,3.956-9.525s3.487-3.446,12.93,1.42a18.25,18.25,0,0,0,11.2,1.206l.234-.041h.055a.3.3,0,0,0,.083-.034,8.388,8.388,0,0,0,2.419-1.027,4.824,4.824,0,0,0,2-2.219,2.633,2.633,0,0,0-.517-2.812,5.769,5.769,0,0,0,1.337-3Z" transform="translate(-152.1 -64.857)" fill="#263238"/>
          <path id="Path_9024" data-name="Path 9024" d="M260.984,63a2.474,2.474,0,0,1,.172.248,3.867,3.867,0,0,1,.358.765,5.761,5.761,0,0,1,.193,3.095,6.086,6.086,0,0,1-2.481,3.839,7.946,7.946,0,0,1-5.514.9c-1.95-.3-3.791-.937-5.465-1.282a10.007,10.007,0,0,0-4.473-.11,5.941,5.941,0,0,0-2.674,1.378c-.524.5-.689.855-.751.834s0-.1.131-.269A3.851,3.851,0,0,1,241,71.7a5.679,5.679,0,0,1,2.716-1.489,9.856,9.856,0,0,1,4.6,0c1.7.331,3.5.972,5.445,1.247a7.692,7.692,0,0,0,5.3-.813,5.858,5.858,0,0,0,2.405-3.6,5.934,5.934,0,0,0-.076-3C261.17,63.358,260.95,63,260.984,63Z" transform="translate(-156.949 -63)" fill="#455a64"/>
          <path id="Path_9025" data-name="Path 9025" d="M264.216,65.43a1.909,1.909,0,0,1,.579,1.378,3.143,3.143,0,0,1-.3,1.627,3.5,3.5,0,0,1-1.378,1.475,4.17,4.17,0,0,1-1.944.558,4.824,4.824,0,0,1-1.627-.221,3,3,0,0,1-1.323-.689c0-.048.524.227,1.378.441a4.507,4.507,0,0,0,3.322-.407,3.377,3.377,0,0,0,1.282-1.31,3.115,3.115,0,0,0,.345-1.468A4.755,4.755,0,0,0,264.216,65.43Z" transform="translate(-162.51 -63.755)" fill="#263238"/>
          <path id="Path_9026" data-name="Path 9026" d="M301.01,275.757a6.816,6.816,0,0,1-3.749,6.616l-9.821-4.135-12.109.813,4.776-12.971s13.605,1.668,15.528,3.212S301.162,273.716,301.01,275.757Z" transform="translate(-167.828 -126.115)" fill="#1e64cc"/>
          <g id="Group_3665" data-name="Group 3665" transform="translate(107.502 139.965)" opacity="0.4">
            <path id="Path_9027" data-name="Path 9027" d="M301.01,275.757a6.816,6.816,0,0,1-3.749,6.616l-9.821-4.135-12.109.813,4.776-12.971s13.605,1.668,15.528,3.212S301.162,273.716,301.01,275.757Z" transform="translate(-275.33 -266.08)"/>
          </g>
          <path id="Path_9028" data-name="Path 9028" d="M301.01,275.757a6.816,6.816,0,0,1-3.749,6.616l-9.821-4.135-12.109.813,4.776-12.971s13.605,1.668,15.528,3.212S301.162,273.716,301.01,275.757Z" transform="translate(-167.828 -126.115)" fill="#1e64cc"/>
          <g id="Group_3666" data-name="Group 3666" transform="translate(107.502 139.965)" opacity="0.4">
            <path id="Path_9029" data-name="Path 9029" d="M301.01,275.757a6.816,6.816,0,0,1-3.749,6.616l-9.821-4.135-12.109.813,4.776-12.971s13.605,1.668,15.528,3.212S301.162,273.716,301.01,275.757Z" transform="translate(-275.33 -266.08)"/>
          </g>
          <path id="Path_9030" data-name="Path 9030" d="M279.277,183.33l-.958-.855L257.539,166.2c-6.417-6.816-11.083-8.87-20.1-9.938-1.475-.172.848.11,0,0a42.553,42.553,0,0,1-23.116.2h0c-3.2.131-5.865,1.123-8.594,1.647-8.6,1.647-13.2,7.719-16.507,13.695L172.58,199.712l.689,1.1a19.16,19.16,0,0,0,9.828,7.7h0l1.117.558a25.549,25.549,0,0,1,9.814,8.222h0l7.326-12.8-2.068,20.511-1.42,20.146a100.431,100.431,0,0,0,30.063,3.832c14.473.069,34.64-17.568,41.146-7.375.09-5.224-6.485-12.406-8.312-15.852-5.658-10.772-4.6-15.128-5-23.213l9.718,5.962,1.744-3.412a67.72,67.72,0,0,0,5.334-14.294C272.557,190.807,273.7,181.476,279.277,183.33Z" transform="translate(-135.894 -91.968)" fill="#1e64cc"/>
          <path id="Path_9031" data-name="Path 9031" d="M214.268,196.28a3.3,3.3,0,0,1,.076.841c0,.544.041,1.33.055,2.3,0,1.937.041,4.618,0,7.581s-.048,5.645-.1,7.581c0,.972-.048,1.757-.076,2.3a3.515,3.515,0,0,1-.083.841,3.349,3.349,0,0,1-.076-.841c0-.544-.041-1.33-.055-2.3,0-1.937-.034-4.618,0-7.581s.048-5.638.09-7.581c0-.965.048-1.751.076-2.3A3.446,3.446,0,0,1,214.268,196.28Z" transform="translate(-148.767 -104.422)" fill="#263238"/>
          <path id="Path_9032" data-name="Path 9032" d="M293.928,228.469a7.982,7.982,0,0,1-.172-1.3c-.083-.91-.186-2.109-.317-3.563-.255-3-.572-7.168-.9-11.765s-.6-8.76-.772-11.772c-.083-1.454-.145-2.66-.193-3.57a8.351,8.351,0,0,1,0-1.316,7.982,7.982,0,0,1,.172,1.3c.083.91.193,2.109.317,3.563.255,3.012.572,7.168.9,11.765s.6,8.76.779,11.772c.076,1.454.138,2.66.186,3.577a8.268,8.268,0,0,1,0,1.31Z" transform="translate(-172.87 -104.08)" fill="#263238"/>
          <g id="Group_3667" data-name="Group 3667" transform="translate(75.778 65.11)" opacity="0.2">
            <path id="Path_9033" data-name="Path 9033" d="M229.3,157.573a53.449,53.449,0,0,0,16.769,15.245,19.223,19.223,0,0,0,7.788,2.846c4.79.386,9.3-2.226,13.019-5.272a10.378,10.378,0,0,0,3.543-4.356c.62-1.792.138-4.135-1.537-4.99a4.335,4.335,0,0,0-3.777.124,20.363,20.363,0,0,0-3.267,2.143,21.938,21.938,0,0,1-30.932-5.844" transform="translate(-229.3 -157.47)"/>
          </g>
          <path id="Path_9034" data-name="Path 9034" d="M260.16,224.092a19.518,19.518,0,0,0-.441-2.895,11.3,11.3,0,0,0-1.33-3.143,12.006,12.006,0,0,0-3.012-3.336,11.717,11.717,0,0,0-11.131-1.661,11.749,11.749,0,0,0-5.452,4.094,11.717,11.717,0,0,0,0,13.874,11.749,11.749,0,0,0,5.452,4.094,11.716,11.716,0,0,0,11.089-1.661,12.006,12.006,0,0,0,3.012-3.336,11.3,11.3,0,0,0,1.33-3.143,19.65,19.65,0,0,0,.441-2.888.8.8,0,0,1,0,.193c0,.145,0,.331,0,.565a5.435,5.435,0,0,1-.076.924,8.434,8.434,0,0,1-.227,1.241,11.1,11.1,0,0,1-1.289,3.2,11.994,11.994,0,0,1-14.432,5.21,11.234,11.234,0,0,1-3.06-1.633,11.1,11.1,0,0,1-2.557-2.564,12.006,12.006,0,0,1,0-14.287,13.661,13.661,0,0,1,1.185-1.378,14.436,14.436,0,0,1,1.378-1.165,11.331,11.331,0,0,1,3.06-1.633,11.994,11.994,0,0,1,14.432,5.21,11.1,11.1,0,0,1,1.289,3.2,8.435,8.435,0,0,1,.227,1.241,5.438,5.438,0,0,1,.076.924v.572A.848.848,0,0,1,260.16,224.092Z" transform="translate(-155.642 -109.324)" fill="#fff"/>
          <path id="Path_9035" data-name="Path 9035" d="M253.059,236.048c-.1,0-.179-5.328-.179-11.9s.076-11.9.179-11.9.179,5.321.179,11.9S253.156,236.048,253.059,236.048Z" transform="translate(-160.851 -109.385)" fill="#fff"/>
          <path id="Path_9036" data-name="Path 9036" d="M259,236.37a5.3,5.3,0,0,1-.8-.551l-2.068-1.6c-1.764-1.378-4.177-3.274-6.823-5.4l-.214-.165h.234c-2.426,2.281-4.632,4.328-6.237,5.789l-1.916,1.723a4.666,4.666,0,0,1-.731.593,4.7,4.7,0,0,1,.634-.689L242.9,234.3c1.558-1.509,3.736-3.591,6.2-5.872l.11-.11.124.1.207.172c2.653,2.123,5.038,4.059,6.761,5.472.806.689,1.489,1.247,2.019,1.689A5.225,5.225,0,0,1,259,236.37Z" transform="translate(-156.988 -114.38)" fill="#fff"/>
          <g id="Group_3668" data-name="Group 3668" transform="translate(80.898 128.73)" opacity="0.2">
            <path id="Path_9037" data-name="Path 9037" d="M238.219,267.651A27.989,27.989,0,0,0,265.36,257.03c.992-1.33,1.9-2.964,1.489-4.569a4.058,4.058,0,0,0-3.991-2.681,7.581,7.581,0,0,0-4.632,2.116c-3.157,2.757-4.962,6.816-8.112,9.594a14.473,14.473,0,0,1-10.338,3.563,7.643,7.643,0,0,0-1.73.069,1.551,1.551,0,0,0-1.316,1.378c0,.689.538.979,1.482,1.158" transform="translate(-236.73 -249.778)"/>
          </g>
          <g id="Group_3669" data-name="Group 3669" transform="translate(119.005 98.033)" opacity="0.2">
            <path id="Path_9038" data-name="Path 9038" d="M292.02,205.24l.855,12.551,9.725,5.955,2.033-3.784Z" transform="translate(-292.02 -205.24)"/>
          </g>
          <path id="Path_9039" data-name="Path 9039" d="M321.376,195.691a5.245,5.245,0,0,0-1.165-.227,4.383,4.383,0,0,0-2.943,1.1,8.009,8.009,0,0,0-2.3,4.135c-.476,1.758-.93,3.736-1.564,5.762a77.7,77.7,0,0,1-3.887,10.138c-.586,1.261-1.1,2.261-1.468,2.943a6.628,6.628,0,0,1-.613,1.041,9.553,9.553,0,0,1,.489-1.1c.324-.689.806-1.716,1.378-2.984a91.4,91.4,0,0,0,3.77-10.138c.634-2.019,1.089-3.97,1.592-5.755a8.064,8.064,0,0,1,2.454-4.218,4.432,4.432,0,0,1,3.108-1.041,2.64,2.64,0,0,1,.882.214A1.214,1.214,0,0,1,321.376,195.691Z" transform="translate(-177.807 -104.13)" fill="#263238"/>
          <path id="Path_9040" data-name="Path 9040" d="M194.011,236.909a9.808,9.808,0,0,1-.689-.855,28.817,28.817,0,0,0-2.013-2.24,18.975,18.975,0,0,0-3.481-2.757c-1.42-.9-3.081-1.709-4.824-2.591a45.407,45.407,0,0,1-4.769-2.757,20.021,20.021,0,0,1-3.446-2.915,12.405,12.405,0,0,1-1.778-2.46,6.985,6.985,0,0,1-.365-.744c-.076-.172-.11-.262-.1-.269a17.919,17.919,0,0,0,2.426,3.3,20.746,20.746,0,0,0,3.446,2.812,48.979,48.979,0,0,0,4.749,2.709,54.436,54.436,0,0,1,4.824,2.633,17.988,17.988,0,0,1,3.474,2.867,21.654,21.654,0,0,1,1.944,2.33c.207.289.365.517.462.689A1.159,1.159,0,0,1,194.011,236.909Z" transform="translate(-135.884 -111.582)" fill="#263238"/>
          <path id="Path_9041" data-name="Path 9041" d="M268.7,250.89a1.612,1.612,0,0,1-.117.393c-.1.255-.221.641-.441,1.11a25.127,25.127,0,0,1-2.068,3.86,27.644,27.644,0,0,1-24.591,12.688,25.72,25.72,0,0,1-4.342-.558c-.5-.1-.889-.221-1.151-.283a2.019,2.019,0,0,1-.4-.131,1.535,1.535,0,0,1,.414.062c.269.041.689.145,1.165.221a30.058,30.058,0,0,0,4.321.434,28.072,28.072,0,0,0,24.371-12.571,29.1,29.1,0,0,0,2.15-3.777c.234-.462.372-.834.5-1.082A2.068,2.068,0,0,1,268.7,250.89Z" transform="translate(-155.477 -121.394)" fill="#263238"/>
          <g id="Group_3670" data-name="Group 3670" transform="translate(58.74 94.622)" opacity="0.2">
            <path id="Path_9042" data-name="Path 9042" d="M204.58,229.547a101.954,101.954,0,0,1,6.761-29.257v17.837Z" transform="translate(-204.58 -200.29)"/>
          </g>
          <path id="Path_9043" data-name="Path 9043" d="M228.79,144.2c3.019,6.472,11.027,10.145,18.016,11.5a23.075,23.075,0,0,0,19.829-5.741c4.411-4.135,7.009-9.876,11.117-14.322a28.258,28.258,0,0,1,28.375-7.7l.544-9.787c-3.35-2.171-11.972-2.957-15.914-2.364a31.373,31.373,0,0,0-19.863,11.627c-4.328,5.569-6.892,12.73-12.619,16.824-4.135,2.957-9.3,2.977-14.322,2.13s-8.415-5.445-12.3-8.746Z" transform="translate(-153.364 -79.345)" fill="#263238"/>
          <path id="Path_9044" data-name="Path 9044" d="M232.87,147.56a16.141,16.141,0,0,0,22.682,2.688c.9-.689,2.068-1.564,3.053-1.034a2.8,2.8,0,0,1,1.082,2.3c.241,2.026.434,4.266-.758,5.92s-3.225,2.143-5.155,2.474c-4.576.758-9.435.689-13.681-1.179s-6.858-6.541-7.223-11.172" transform="translate(-154.632 -89.28)" fill="#263238"/>
          <path id="Path_9045" data-name="Path 9045" d="M261.534,152.522a1.324,1.324,0,0,1-.227.255c-.159.152-.379.393-.689.689a16.32,16.32,0,0,1-2.943,2.019,16.541,16.541,0,0,1-5,1.723,16.024,16.024,0,0,1-6.472-.2,21.552,21.552,0,0,1-5.941-2.6c-.855-.51-1.654-1-2.4-1.489a18.4,18.4,0,0,1-1.957-1.509,13.1,13.1,0,0,1-2.364-2.667,7.208,7.208,0,0,1-.476-.848c-.1-.2-.138-.31-.124-.317s.234.407.689,1.082a14.356,14.356,0,0,0,2.412,2.564A22.243,22.243,0,0,0,238,152.673c.737.469,1.551.951,2.405,1.454a21.917,21.917,0,0,0,5.851,2.529,16,16,0,0,0,6.334.227,16.907,16.907,0,0,0,4.942-1.627,17.673,17.673,0,0,0,2.97-1.9,12.637,12.637,0,0,1,1.034-.834Z" transform="translate(-154.652 -89.286)" fill="#455a64"/>
          <path id="Path_9046" data-name="Path 9046" d="M288.03,152.891a36.4,36.4,0,0,1-4.025-2.068,36.368,36.368,0,0,1-3.935-2.233,23.041,23.041,0,0,1,4.135,1.916,23.793,23.793,0,0,1,3.825,2.385Z" transform="translate(-169.301 -89.6)" fill="#455a64"/>
          <path id="Path_9047" data-name="Path 9047" d="M294.683,143.593a67.944,67.944,0,0,1-8.663-4.783,33.269,33.269,0,0,1,4.418,2.233,34.186,34.186,0,0,1,4.246,2.55Z" transform="translate(-171.15 -86.561)" fill="#455a64"/>
          <path id="Path_9048" data-name="Path 9048" d="M301.955,135.041a6.718,6.718,0,0,1-1.144-.992l-2.64-2.509-2.647-2.488a7.059,7.059,0,0,1-1.054-1.082,6.575,6.575,0,0,1,1.22.889c.689.593,1.7,1.44,2.757,2.419s1.944,1.9,2.571,2.591A6.093,6.093,0,0,1,301.955,135.041Z" transform="translate(-173.776 -83.192)" fill="#455a64"/>
          <path id="Path_9049" data-name="Path 9049" d="M306.35,119.52a9.231,9.231,0,0,1,.986,1.42c.689,1,1.413,2.185,2.261,3.487s1.633,2.474,2.3,3.446a8.394,8.394,0,0,1,.9,1.482,7.919,7.919,0,0,1-1.11-1.33c-.641-.855-1.489-2.068-2.385-3.446s-1.647-2.633-2.171-3.556a7.208,7.208,0,0,1-.772-1.5Z" transform="translate(-177.469 -80.566)" fill="#455a64"/>
          <path id="Path_9050" data-name="Path 9050" d="M322.048,116.56a7.831,7.831,0,0,1,.4,1.537c.248,1.1.531,2.35.848,3.742s.641,2.633.91,3.722a7.209,7.209,0,0,1,.324,1.558,6.553,6.553,0,0,1-.565-1.489c-.3-.937-.689-2.247-1.02-3.708s-.593-2.805-.744-3.777A6.242,6.242,0,0,1,322.048,116.56Z" transform="translate(-182.346 -79.646)" fill="#455a64"/>
          <path id="Path_9051" data-name="Path 9051" d="M334.249,116.38c.1,0,.062,2.33.207,5.19s.407,5.169.3,5.183a5.8,5.8,0,0,1-.317-1.5c-.138-.937-.276-2.233-.345-3.674a34.114,34.114,0,0,1,0-3.68A6.085,6.085,0,0,1,334.249,116.38Z" transform="translate(-186.077 -79.59)" fill="#455a64"/>
          <path id="Path_9052" data-name="Path 9052" d="M279.534,163.152a33.042,33.042,0,0,1-3.6-3.26,33.769,33.769,0,0,1-3.35-3.522,33.587,33.587,0,0,1,3.6,3.267A32.466,32.466,0,0,1,279.534,163.152Z" transform="translate(-166.973 -92.018)" fill="#455a64"/>
          <path id="Path_9053" data-name="Path 9053" d="M267.353,169.509a30.765,30.765,0,0,1-1.5-4.363,29.188,29.188,0,0,1-1.158-4.466,29.871,29.871,0,0,1,1.5,4.363A29.389,29.389,0,0,1,267.353,169.509Z" transform="translate(-164.524 -93.358)" fill="#455a64"/>
          <path id="Path_9054" data-name="Path 9054" d="M252.84,169.662a23.183,23.183,0,0,1,.655-4.046,23.862,23.862,0,0,1,1.006-3.977,23.99,23.99,0,0,1-.655,4.046A23.862,23.862,0,0,1,252.84,169.662Z" transform="translate(-160.838 -93.656)" fill="#455a64"/>
          <path id="Path_9055" data-name="Path 9055" d="M241,165.671a13.1,13.1,0,0,1,1.31-3.591,13.413,13.413,0,0,1,2.006-3.26c.09.062-.772,1.53-1.682,3.446A37.6,37.6,0,0,1,241,165.671Z" transform="translate(-157.159 -92.78)" fill="#455a64"/>
          <path id="Path_9056" data-name="Path 9056" d="M236.066,153.65a12.487,12.487,0,0,1-1.578,3.122,13.047,13.047,0,0,1-2.068,2.8,26.658,26.658,0,0,1,1.792-2.991,26.241,26.241,0,0,1,1.854-2.929Z" transform="translate(-154.492 -91.173)" fill="#455a64"/>
          <path id="Path_9057" data-name="Path 9057" d="M250.751,156.66c.1,0,.034.572-.034,1.241s-.124,1.213-.227,1.22-.207-.565-.131-1.261S250.655,156.632,250.751,156.66Z" transform="translate(-160.059 -92.108)" fill="#455a64"/>
          <path id="Path_9058" data-name="Path 9058" d="M260.446,159.306a6.072,6.072,0,0,1-.476-2.212,5.8,5.8,0,0,1,0-2.254,9.065,9.065,0,0,1,.345,2.219,8.823,8.823,0,0,1,.131,2.247Z" transform="translate(-163.02 -91.543)" fill="#455a64"/>
          <path id="Path_9059" data-name="Path 9059" d="M267.717,150.74a18.452,18.452,0,0,1,.489,2.757,18.12,18.12,0,0,1,.427,2.757A12.116,12.116,0,0,1,267.717,150.74Z" transform="translate(-165.453 -90.269)" fill="#455a64"/>
          <path id="Path_9060" data-name="Path 9060" d="M169.63,239.455l43.248-25.087a11.151,11.151,0,0,0,5.555-9.167l1.144-26.335a1.378,1.378,0,0,0-1.227-1.378h0a1.378,1.378,0,0,0-1.427.986l-5.514,19.76L159.919,220.04a10.883,10.883,0,0,0-5.479,14.894h0a10.883,10.883,0,0,0,15.19,4.521Z" transform="translate(-129.898 -98.58)" fill="#ffbe9d"/>
          <path id="Path_9061" data-name="Path 9061" d="M214.717,207.57a4.531,4.531,0,0,1-.5.262l-1.447.689-5.362,2.454c-4.542,2.068-10.841,4.824-17.844,7.788s-13.391,5.514-18.037,7.34c-2.316.9-4.2,1.62-5.514,2.068l-1.509.551a2.5,2.5,0,0,1-.538.165,5.083,5.083,0,0,1,.51-.234l1.482-.613c1.33-.531,3.184-1.289,5.472-2.212,4.618-1.861,10.986-4.473,17.988-7.43s13.316-5.7,17.878-7.692l5.41-2.35,1.482-.627A2.845,2.845,0,0,1,214.717,207.57Z" transform="translate(-133.219 -107.931)" fill="#eb996e"/>
          <path id="Path_9062" data-name="Path 9062" d="M156.72,258.059c0-.034.579-.1,1.592-.345a9.392,9.392,0,0,0,1.785-.648,13.994,13.994,0,0,0,2.123-1.344c.751-.565,1.578-1.185,2.44-1.868s1.764-1.454,2.709-2.261a32.24,32.24,0,0,1,6.623-4.687,22.53,22.53,0,0,1,7.8-2.212,23.213,23.213,0,0,1,6.623.338,21.6,21.6,0,0,1,4.266,1.337c.482.207.841.407,1.089.531a1.378,1.378,0,0,1,.365.214,2.545,2.545,0,0,1-.393-.152c-.262-.1-.627-.283-1.117-.469a23.963,23.963,0,0,0-4.259-1.206,23.433,23.433,0,0,0-6.541-.262,22.655,22.655,0,0,0-7.678,2.205,33.006,33.006,0,0,0-6.568,4.618c-.951.8-1.861,1.558-2.757,2.24s-1.709,1.282-2.481,1.833a13.559,13.559,0,0,1-2.185,1.33,9.5,9.5,0,0,1-1.833.6c-.517.1-.924.159-1.206.186A1.62,1.62,0,0,1,156.72,258.059Z" transform="translate(-130.965 -119.438)" fill="#263238"/>
          <path id="Path_9063" data-name="Path 9063" d="M168.741,258.143s.041.248.145.689a3.68,3.68,0,0,0,.862,1.558,5.452,5.452,0,0,0,2.205,1.447,4.569,4.569,0,0,0,3.163-.117l.3-.138-.083.227a6,6,0,0,0-1.9-2.461,5.865,5.865,0,0,0-2.316-1.061,9.553,9.553,0,0,0-2.371-.117,1.792,1.792,0,0,1,.627-.165,5.665,5.665,0,0,1,1.792.034,5.893,5.893,0,0,1,2.46,1.048,6.093,6.093,0,0,1,2.068,2.585l.069.159-.152.069-.324.152a4.824,4.824,0,0,1-3.446.1,5.514,5.514,0,0,1-2.288-1.6,3.577,3.577,0,0,1-.806-1.7A1.578,1.578,0,0,1,168.741,258.143Z" transform="translate(-134.689 -123.588)" fill="#263238"/>
          <path id="Path_9064" data-name="Path 9064" d="M168.76,258.23a8.271,8.271,0,0,1,2.137,1.027,7.678,7.678,0,0,1,1.957,1.344,8.269,8.269,0,0,1-2.137-1.027A7.677,7.677,0,0,1,168.76,258.23Z" transform="translate(-134.707 -123.675)" fill="#263238"/>
          <path id="Path_9065" data-name="Path 9065" d="M178.21,250.147a5.712,5.712,0,0,1,.3.607,3.756,3.756,0,0,0,1.192,1.323,5.583,5.583,0,0,0,2.481.9,4.583,4.583,0,0,0,3.053-.841l.255-.207v.241a6.044,6.044,0,0,0-2.412-1.957,5.948,5.948,0,0,0-2.5-.5,9.126,9.126,0,0,0-2.336.434,1.75,1.75,0,0,1,.579-.3,5.459,5.459,0,0,1,1.751-.379,5.748,5.748,0,0,1,2.633.455,6.106,6.106,0,0,1,2.585,2.068l.1.138-.131.1c-.09.069-.179.152-.283.221a4.824,4.824,0,0,1-3.294.882,5.583,5.583,0,0,1-2.591-1.027,3.6,3.6,0,0,1-1.172-1.468,1.779,1.779,0,0,1-.2-.689Z" transform="translate(-137.644 -120.947)" fill="#263238"/>
          <path id="Path_9066" data-name="Path 9066" d="M178.21,250.454a7.836,7.836,0,0,1,2.323.51,8.03,8.03,0,0,1,2.212.855,15.763,15.763,0,0,1-4.535-1.378Z" transform="translate(-137.644 -121.254)" fill="#263238"/>
          <path id="Path_9067" data-name="Path 9067" d="M160.6,259.144s.165-.186.427-.524a3.66,3.66,0,0,0,.689-1.633,5.417,5.417,0,0,0-.2-2.626,4.549,4.549,0,0,0-2.026-2.433l-.289-.152.227-.076a5.934,5.934,0,0,0-.214,5.514,9.442,9.442,0,0,0,1.378,1.95,1.771,1.771,0,0,1-.517-.4,5.879,5.879,0,0,1-1.744-4.025,6.155,6.155,0,0,1,.8-3.2l.083-.152.152.083.317.165a4.824,4.824,0,0,1,2.164,2.633,5.514,5.514,0,0,1,.131,2.757,3.536,3.536,0,0,1-.841,1.675,1.7,1.7,0,0,1-.538.441Z" transform="translate(-131.465 -121.549)" fill="#263238"/>
          <path id="Path_9068" data-name="Path 9068" d="M161.32,260.524a7.65,7.65,0,0,1-.5-2.323,8.126,8.126,0,0,1-.138-2.371,7.651,7.651,0,0,1,.5,2.323A8.126,8.126,0,0,1,161.32,260.524Z" transform="translate(-132.188 -122.929)" fill="#263238"/>
          <path id="Path_9069" data-name="Path 9069" d="M184.734,243.849s.207-.083.558-.262a3.322,3.322,0,0,0,1.234-1.068,4.962,4.962,0,0,0,.882-2.247,4.135,4.135,0,0,0-.689-2.805c-.055-.09-.124-.165-.179-.248l.241.034a5.452,5.452,0,0,0-1.847,2.171,5.382,5.382,0,0,0-.524,2.274,8.574,8.574,0,0,0,.324,2.15,2.155,2.155,0,0,1-.276-.531,5.2,5.2,0,0,1-.31-1.62,5.321,5.321,0,0,1,.476-2.412,5.6,5.6,0,0,1,1.944-2.33l.138-.1.1.131c.062.09.138.172.2.269a4.411,4.411,0,0,1,.737,3.053,5.107,5.107,0,0,1-1.006,2.364,3.253,3.253,0,0,1-1.378,1.041A1.378,1.378,0,0,1,184.734,243.849Z" transform="translate(-139.488 -117.034)" fill="#263238"/>
          <path id="Path_9070" data-name="Path 9070" d="M185,245.135a6.637,6.637,0,0,1,.5-2.116,7.086,7.086,0,0,1,.875-2.019,6.623,6.623,0,0,1-.5,2.123,6.982,6.982,0,0,1-.875,2.013Z" transform="translate(-139.754 -118.32)" fill="#263238"/>
          <path id="Path_9071" data-name="Path 9071" d="M192.956,244.907a5.543,5.543,0,0,1-.048.62,3.487,3.487,0,0,0,.331,1.6,5.066,5.066,0,0,0,1.537,1.861,4.136,4.136,0,0,0,2.8.751l.3-.034-.145.193a5.513,5.513,0,0,0-.992-2.674,5.4,5.4,0,0,0-1.764-1.578,9.083,9.083,0,0,0-2.068-.758,1.489,1.489,0,0,1,.6,0A5.369,5.369,0,0,1,196.946,247a5.645,5.645,0,0,1,1.089,2.826v.172h-.159l-.331.041a4.425,4.425,0,0,1-3.026-.841,5.011,5.011,0,0,1-1.571-2.068,3.212,3.212,0,0,1-.241-1.709A1.282,1.282,0,0,1,192.956,244.907Z" transform="translate(-142.141 -119.519)" fill="#263238"/>
          <path id="Path_9072" data-name="Path 9072" d="M193.08,244.93a6.892,6.892,0,0,1,1.606,1.475,6.692,6.692,0,0,1,1.337,1.716,6.748,6.748,0,0,1-1.606-1.475A6.444,6.444,0,0,1,193.08,244.93Z" transform="translate(-142.266 -119.542)" fill="#263238"/>
          <path id="Path_9073" data-name="Path 9073" d="M198.887,242.611a3.6,3.6,0,0,0,1.909-.338,4.425,4.425,0,0,0,1.551-1.378,3.639,3.639,0,0,0,.551-2.44,1.517,1.517,0,0,0-.048-.255l.2.138a4.755,4.755,0,0,0-2.268.951,4.645,4.645,0,0,0-1.3,1.551,8.125,8.125,0,0,0-.6,1.792,1.248,1.248,0,0,1,0-.524,4.453,4.453,0,0,1,.386-1.378,4.749,4.749,0,0,1,1.316-1.7,4.969,4.969,0,0,1,2.426-1.055h.172v.165a1.861,1.861,0,0,1,.048.283,3.88,3.88,0,0,1-.627,2.674,4.5,4.5,0,0,1-1.716,1.44,2.881,2.881,0,0,1-1.489.262A1.355,1.355,0,0,1,198.887,242.611Z" transform="translate(-144.062 -117.382)" fill="#263238"/>
          <path id="Path_9074" data-name="Path 9074" d="M198.9,243.5a9.952,9.952,0,0,1,2.667-2.667,5.135,5.135,0,0,1-1.22,1.5C199.658,243.015,198.969,243.573,198.9,243.5Z" transform="translate(-144.074 -118.268)" fill="#263238"/>
          <path id="Path_9075" data-name="Path 9075" d="M172.466,250.237s.165-.179.434-.517a3.736,3.736,0,0,0,.689-1.633,5.514,5.514,0,0,0-.2-2.633,4.576,4.576,0,0,0-2.026-2.433l-.3-.152.234-.076a5.932,5.932,0,0,0-.214,5.493,9.282,9.282,0,0,0,1.378,1.95,1.881,1.881,0,0,1-.517-.4,5.417,5.417,0,0,1-1.061-1.44,5.748,5.748,0,0,1-.689-2.585,6.106,6.106,0,0,1,.8-3.2l.083-.145.145.076.324.165a4.776,4.776,0,0,1,2.157,2.633,5.452,5.452,0,0,1,.138,2.791,3.5,3.5,0,0,1-.855,1.675A1.53,1.53,0,0,1,172.466,250.237Z" transform="translate(-135.154 -118.777)" fill="#263238"/>
          <path id="Path_9076" data-name="Path 9076" d="M173.193,251.624a8.036,8.036,0,0,1-.489-2.323,8.126,8.126,0,0,1-.138-2.371,8.168,8.168,0,0,1,.5,2.323,7.7,7.7,0,0,1,.131,2.371Z" transform="translate(-135.88 -120.163)" fill="#263238"/>
          <path id="Path_9077" data-name="Path 9077" d="M304.076,232.081l-44.11-19.7a10.786,10.786,0,0,1-6.258-8.271l-3.715-25.142a1.316,1.316,0,0,1,1.041-1.475h0a1.3,1.3,0,0,1,1.468.8l7.3,18.416,51.636,15.749c6.465,2.068,8.96,8.1,6.768,13.784h0a10.5,10.5,0,0,1-14.129,5.844Z" transform="translate(-159.95 -98.574)" fill="#ffbe9d"/>
          <path id="Path_9078" data-name="Path 9078" d="M264.21,205.38a2.79,2.79,0,0,1,.524.131l1.482.455,5.438,1.709c4.583,1.447,10.924,3.446,17.92,5.576s13.4,4,18.023,5.328l5.472,1.571,1.489.441a4.408,4.408,0,0,1,.51.172,2.483,2.483,0,0,1-.531-.1l-1.5-.372c-1.3-.331-3.184-.834-5.514-1.468-4.638-1.261-11.027-3.088-18.057-5.224s-13.35-4.17-17.919-5.679l-5.4-1.82-1.461-.517A2.892,2.892,0,0,1,264.21,205.38Z" transform="translate(-164.372 -107.25)" fill="#eb996e"/>
          <path id="Path_9079" data-name="Path 9079" d="M330.874,246.865a1.538,1.538,0,0,1-.407,0,10.243,10.243,0,0,1-1.172-.055,8.511,8.511,0,0,1-1.826-.393,13,13,0,0,1-2.233-1.048c-.793-.455-1.647-.951-2.564-1.516s-1.861-1.2-2.853-1.875a31.636,31.636,0,0,0-6.775-3.749,21.758,21.758,0,0,0-7.581-1.378,22.952,22.952,0,0,0-6.251.91,22.565,22.565,0,0,0-3.97,1.592c-.455.227-.786.441-1.027.558a1.378,1.378,0,0,1-.365.179,2.489,2.489,0,0,1,.331-.241c.227-.138.551-.372.992-.62a20.753,20.753,0,0,1,3.963-1.709,22.662,22.662,0,0,1,6.32-1,21.689,21.689,0,0,1,7.719,1.378,31.1,31.1,0,0,1,6.837,3.832c.992.689,1.93,1.323,2.826,1.9s1.757,1.082,2.529,1.544a13.834,13.834,0,0,0,2.178,1.082,9.3,9.3,0,0,0,1.771.441C330.316,246.824,330.881,246.83,330.874,246.865Z" transform="translate(-173.584 -116.928)" fill="#263238"/>
          <path id="Path_9080" data-name="Path 9080" d="M332.545,247.048a1.427,1.427,0,0,1,.062.689,3.446,3.446,0,0,1-.6,1.716,5.328,5.328,0,0,1-2.068,1.764,4.673,4.673,0,0,1-3.288.248l-.331-.117-.152-.048.048-.165a5.968,5.968,0,0,1,1.7-2.695,5.706,5.706,0,0,1,3.977-1.461,1.592,1.592,0,0,1,.62.1,9.594,9.594,0,0,0-2.268.352,5.652,5.652,0,0,0-2.109,1.254,5.72,5.72,0,0,0-1.578,2.55l-.11-.214.3.1a4.4,4.4,0,0,0,3.046-.207,5.272,5.272,0,0,0,1.971-1.606,3.632,3.632,0,0,0,.689-1.585C332.531,247.289,332.518,247.055,332.545,247.048Z" transform="translate(-183.628 -120.178)" fill="#263238"/>
          <path id="Path_9081" data-name="Path 9081" d="M333.754,247.08a7.189,7.189,0,0,1-1.744,1.489,7.34,7.34,0,0,1-1.95,1.2,7.367,7.367,0,0,1,1.744-1.489A7.582,7.582,0,0,1,333.754,247.08Z" transform="translate(-184.837 -120.21)" fill="#263238"/>
          <path id="Path_9082" data-name="Path 9082" d="M322.337,240.394a1.668,1.668,0,0,1-.1.689,3.446,3.446,0,0,1-.972,1.53,5.328,5.328,0,0,1-2.392,1.247,4.6,4.6,0,0,1-3.253-.517c-.11-.055-.207-.124-.3-.179l-.138-.09.083-.152a5.955,5.955,0,0,1,2.274-2.226,5.659,5.659,0,0,1,2.488-.689,5.583,5.583,0,0,1,1.716.193,1.586,1.586,0,0,1,.586.234,9.243,9.243,0,0,0-2.288-.179,5.734,5.734,0,0,0-4.466,2.86l-.055-.234c.09.055.179.117.276.165a4.37,4.37,0,0,0,3,.5,5.315,5.315,0,0,0,2.288-1.117,3.6,3.6,0,0,0,1.013-1.378,4.172,4.172,0,0,1,.227-.662Z" transform="translate(-180.216 -118.01)" fill="#263238"/>
          <path id="Path_9083" data-name="Path 9083" d="M323.646,240.558a7.422,7.422,0,0,1-2.068,1.048,7.161,7.161,0,0,1-2.178.689,14.673,14.673,0,0,1,4.218-1.764Z" transform="translate(-181.524 -118.174)" fill="#263238"/>
          <path id="Path_9084" data-name="Path 9084" d="M341.9,247.159a1.523,1.523,0,0,1-.558-.358,3.446,3.446,0,0,1-.992-1.516,5.306,5.306,0,0,1-.152-2.695,4.68,4.68,0,0,1,1.813-2.757l.289-.186.138-.1.1.145a5.968,5.968,0,0,1,1.089,2.984,5.7,5.7,0,0,1-.393,2.557,5.267,5.267,0,0,1-.875,1.489c-.269.31-.448.448-.462.434a8.848,8.848,0,0,0,1.11-2.012,5.714,5.714,0,0,0-.765-5.245l.241.048c-.083.055-.179.11-.269.179a4.425,4.425,0,0,0-1.7,2.536,5.279,5.279,0,0,0,.069,2.543,3.6,3.6,0,0,0,.848,1.5C341.725,247,341.925,247.131,341.9,247.159Z" transform="translate(-187.956 -117.87)" fill="#263238"/>
          <path id="Path_9085" data-name="Path 9085" d="M342.651,248.529a7.388,7.388,0,0,1-.11-2.288,7.581,7.581,0,0,1,.241-2.281,7.285,7.285,0,0,1,.117,2.288,7.442,7.442,0,0,1-.248,2.281Z" transform="translate(-188.703 -119.24)" fill="#263238"/>
          <path id="Path_9086" data-name="Path 9086" d="M317.153,235.06a1.247,1.247,0,0,1-.607-.062,3.1,3.1,0,0,1-1.434-.862,4.907,4.907,0,0,1-1.206-2.171,4.239,4.239,0,0,1,.393-3c.055-.1.117-.193.165-.276l.083-.145.152.083a5.4,5.4,0,0,1,2.1,2.068,5.141,5.141,0,0,1,.689,2.274,4.873,4.873,0,0,1-.138,1.585,1.426,1.426,0,0,1-.207.538,8.739,8.739,0,0,0,.1-2.068,5.169,5.169,0,0,0-.731-2.13A5.3,5.3,0,0,0,314.527,229l.234-.062c-.048.083-.1.165-.152.255a4.067,4.067,0,0,0-.393,2.757,4.983,4.983,0,0,0,1.075,2.068,3.267,3.267,0,0,0,1.289.9,5.2,5.2,0,0,1,.572.145Z" transform="translate(-179.781 -114.448)" fill="#263238"/>
          <path id="Path_9087" data-name="Path 9087" d="M317.9,236.275a12.474,12.474,0,0,1-1.716-3.825A12.475,12.475,0,0,1,317.9,236.275Z" transform="translate(-180.524 -115.663)" fill="#263238"/>
          <path id="Path_9088" data-name="Path 9088" d="M308.732,236.76a1.378,1.378,0,0,1,.241.565,3.163,3.163,0,0,1-.055,1.668,4.887,4.887,0,0,1-1.31,2.116,4.259,4.259,0,0,1-2.819,1.11,2.517,2.517,0,0,1-.324,0H304.3v-.172a5.472,5.472,0,0,1,.758-2.833,5.266,5.266,0,0,1,1.647-1.716,4.97,4.97,0,0,1,1.454-.648,1.489,1.489,0,0,1,.572-.083,9.151,9.151,0,0,0-1.882.937,5.238,5.238,0,0,0-2.192,4.335l-.165-.179a2,2,0,0,0,.289,0,4.039,4.039,0,0,0,2.605-1,4.955,4.955,0,0,0,1.289-1.944,3.309,3.309,0,0,0,.159-1.565,5.05,5.05,0,0,1-.1-.593Z" transform="translate(-176.831 -117.003)" fill="#263238"/>
          <path id="Path_9089" data-name="Path 9089" d="M309.608,236.76a6.259,6.259,0,0,1-1.11,1.792,6.134,6.134,0,0,1-1.378,1.571,6.472,6.472,0,0,1,1.11-1.785A6.4,6.4,0,0,1,309.608,236.76Z" transform="translate(-177.708 -117.003)" fill="#263238"/>
          <path id="Path_9090" data-name="Path 9090" d="M303.031,235.3a1.5,1.5,0,0,1-.5.2,2.681,2.681,0,0,1-1.454-.1,4.19,4.19,0,0,1-1.8-1.206,3.77,3.77,0,0,1-.882-2.509v-.441h.172a4.756,4.756,0,0,1,2.44.772,4.432,4.432,0,0,1,1.434,1.5,4.3,4.3,0,0,1,.51,1.289,1.171,1.171,0,0,1,.041.5,9.137,9.137,0,0,0-.765-1.661,4.549,4.549,0,0,0-3.673-2.033l.186-.165v.255a3.515,3.515,0,0,0,.772,2.281,4.239,4.239,0,0,0,1.627,1.185A3.536,3.536,0,0,0,303.031,235.3Z" transform="translate(-174.997 -115.287)" fill="#263238"/>
          <path id="Path_9091" data-name="Path 9091" d="M303.84,236.1a4.742,4.742,0,0,1-1.53-1.006c-.786-.634-1.378-1.213-1.3-1.289a4.825,4.825,0,0,1,1.53,1.006C303.316,235.44,303.9,236.005,303.84,236.1Z" transform="translate(-175.806 -116.083)" fill="#263238"/>
          <path id="Path_9092" data-name="Path 9092" d="M329.6,239.816a1.654,1.654,0,0,1-.558-.358,3.384,3.384,0,0,1-.992-1.523,5.3,5.3,0,0,1-.152-2.695,4.666,4.666,0,0,1,1.813-2.757l.289-.193.138-.09.1.138a5.961,5.961,0,0,1,1.1,2.991,5.714,5.714,0,0,1-.393,2.557,5.2,5.2,0,0,1-.882,1.482c-.262.317-.441.455-.455.441a8.849,8.849,0,0,0,1.11-2.013,5.714,5.714,0,0,0-.765-5.245l.241.048-.269.172a4.445,4.445,0,0,0-1.7,2.536,5.28,5.28,0,0,0,.069,2.543,3.48,3.48,0,0,0,.848,1.5C329.425,239.643,329.625,239.788,329.6,239.816Z" transform="translate(-184.133 -115.585)" fill="#263238"/>
          <path id="Path_9093" data-name="Path 9093" d="M330.351,241.189a7.444,7.444,0,0,1-.11-2.288,7.533,7.533,0,0,1,.241-2.281,7.506,7.506,0,0,1,.117,2.288A7.707,7.707,0,0,1,330.351,241.189Z" transform="translate(-184.881 -116.959)" fill="#263238"/>
        </g>
        <g id="freepik--Plant--inject-14" transform="translate(31.92 165.542)">
          <path id="Path_9094" data-name="Path 9094" d="M56.887,338.479a1.468,1.468,0,0,1,.124-.3l.407-.875a21.365,21.365,0,0,0,1.2-3.487,30.717,30.717,0,0,0-.1-13.467,72.958,72.958,0,0,0-2.5-9.042c-1.054-3.212-2.281-6.616-3.288-10.3a39.823,39.823,0,0,1-1.6-11.841,45.832,45.832,0,0,1,2.757-12.537,60.385,60.385,0,0,0,3.191-12.337,18.85,18.85,0,0,0-2.261-11.4c-1.806-3.322-4.073-6.168-5.776-9.111a31.841,31.841,0,0,1-3.446-8.767,32.7,32.7,0,0,1-.221-13.571,25.625,25.625,0,0,1,1.42-4.824,1.862,1.862,0,0,1-.083.317l-.289.917a36.918,36.918,0,0,0-.882,3.591,33.186,33.186,0,0,0,.358,13.474,31.47,31.47,0,0,0,3.481,8.656c1.7,2.908,3.977,5.741,5.817,9.1a19.153,19.153,0,0,1,2.33,11.627c-.42,4.135-1.84,8.271-3.2,12.406a46.46,46.46,0,0,0-2.757,12.406,39.629,39.629,0,0,0,1.585,11.717c.986,3.667,2.2,7.071,3.246,10.3a72.366,72.366,0,0,1,2.412,9.132,30.365,30.365,0,0,1-.034,13.564,19.987,19.987,0,0,1-1.282,3.446l-.448.91a2.373,2.373,0,0,1-.165.3Z" transform="translate(-35.914 -216.62)" fill="#263238"/>
          <path id="Path_9095" data-name="Path 9095" d="M53.85,252.291s-3.446-11.027,2.757-17.5a.386.386,0,0,1,.689.186C57.571,236.8,57.985,242.352,53.85,252.291Z" transform="translate(-38.439 -222.221)" fill="#1e64cc"/>
          <path id="Path_9096" data-name="Path 9096" d="M56.292,240.19a10.538,10.538,0,0,1-.234,2.068c-.227,1.378-.489,3.046-.786,4.866s-.551,3.446-.772,4.866A11.564,11.564,0,0,1,54.134,254a8.671,8.671,0,0,1,.062-2.068c.11-1.261.338-3,.648-4.9s.641-3.618.917-4.824A9.1,9.1,0,0,1,56.292,240.19Z" transform="translate(-38.813 -223.945)" fill="#263238"/>
          <path id="Path_9097" data-name="Path 9097" d="M60.16,291.594s2.109-11.372,10.607-14.184a.379.379,0,0,1,.489.476C70.7,279.657,68.465,284.757,60.16,291.594Z" transform="translate(-40.697 -235.506)" fill="#1e64cc"/>
          <path id="Path_9098" data-name="Path 9098" d="M68.423,281.69a10.42,10.42,0,0,1-1.158,1.689l-2.971,3.935-2.964,3.942a10.475,10.475,0,0,1-1.261,1.606,8.669,8.669,0,0,1,1.013-1.785c.689-1.061,1.7-2.488,2.867-4.025s2.261-2.895,3.074-3.86A8.829,8.829,0,0,1,68.423,281.69Z" transform="translate(-40.669 -236.843)" fill="#263238"/>
          <path id="Path_9099" data-name="Path 9099" d="M56.792,331.847s-1.261-11.489,6.031-16.651a.379.379,0,0,1,.606.31C63.4,317.353,62.754,322.88,56.792,331.847Z" transform="translate(-39.624 -247.233)" fill="#1e64cc"/>
          <path id="Path_9100" data-name="Path 9100" d="M61.459,320.28a9.938,9.938,0,0,1-.613,1.95c-.5,1.337-1.068,2.9-1.7,4.632s-1.206,3.294-1.689,4.632a10.394,10.394,0,0,1-.744,1.9,8.5,8.5,0,0,1,.455-2c.351-1.22.9-2.874,1.571-4.687s1.323-3.446,1.82-4.59A8.959,8.959,0,0,1,61.459,320.28Z" transform="translate(-39.624 -248.836)" fill="#263238"/>
          <path id="Path_9101" data-name="Path 9101" d="M66.1,373.564s-.868-11.531,6.623-16.424a.379.379,0,0,1,.593.331C73.223,359.325,72.375,364.825,66.1,373.564Z" transform="translate(-42.532 -260.271)" fill="#1e64cc"/>
          <path id="Path_9102" data-name="Path 9102" d="M71.21,362.15a9.835,9.835,0,0,1-.689,1.93l-1.868,4.569L66.8,373.212a10.808,10.808,0,0,1-.8,1.882,8.6,8.6,0,0,1,.524-1.985c.393-1.2,1-2.84,1.737-4.625s1.447-3.384,1.985-4.521A9.649,9.649,0,0,1,71.21,362.15Z" transform="translate(-42.512 -261.849)" fill="#263238"/>
          <path id="Path_9103" data-name="Path 9103" d="M42.368,239.553S32.12,234.2,31.92,225.252a.386.386,0,0,1,.6-.331C34.043,225.975,38.261,229.608,42.368,239.553Z" transform="translate(-31.92 -219.18)" fill="#1e64cc"/>
          <path id="Path_9104" data-name="Path 9104" d="M35,229.89a10.02,10.02,0,0,1,1.275,1.606l2.895,3.984,2.9,3.984a11.027,11.027,0,0,1,1.2,1.689,8.2,8.2,0,0,1-1.378-1.489c-.813-.972-1.882-2.357-3.012-3.922s-2.068-3.012-2.757-4.073A9.131,9.131,0,0,1,35,229.89Z" transform="translate(-32.877 -220.744)" fill="#263238"/>
          <path id="Path_9105" data-name="Path 9105" d="M57.955,274.224s-10.552-4.714-11.3-13.633a.379.379,0,0,1,.572-.365C48.816,261.184,53.248,264.547,57.955,274.224Z" transform="translate(-36.5 -230.155)" fill="#1e64cc"/>
          <path id="Path_9106" data-name="Path 9106" d="M50,265a10.083,10.083,0,0,1,1.378,1.523l3.129,3.811,3.136,3.8a11.4,11.4,0,0,1,1.268,1.606,8.808,8.808,0,0,1-1.5-1.378c-.875-.917-2.026-2.233-3.246-3.729s-2.288-2.881-3.033-3.9A9.415,9.415,0,0,1,50,265Z" transform="translate(-37.539 -231.656)" fill="#263238"/>
          <path id="Path_9107" data-name="Path 9107" d="M52.1,311.01S44.845,302,48.25,293.725a.379.379,0,0,1,.689-.062C49.9,295.213,52.316,300.251,52.1,311.01Z" transform="translate(-36.712 -240.504)" fill="#1e64cc"/>
          <path id="Path_9108" data-name="Path 9108" d="M49.7,299.16a10.856,10.856,0,0,1,.531,1.978c.3,1.378.689,3.019,1.041,4.824s.758,3.446,1.061,4.824a10.8,10.8,0,0,1,.4,2.006,8.485,8.485,0,0,1-.689-1.93c-.352-1.22-.779-2.915-1.185-4.824s-.689-3.6-.924-4.824a9.008,9.008,0,0,1-.234-2.054Z" transform="translate(-37.446 -242.272)" fill="#263238"/>
          <path id="Path_9109" data-name="Path 9109" d="M59.661,357.638S49.192,352.772,48.6,343.812a.379.379,0,0,1,.579-.358C50.75,344.439,55.126,347.879,59.661,357.638Z" transform="translate(-37.103 -256.02)" fill="#1e64cc"/>
          <path id="Path_9110" data-name="Path 9110" d="M51.88,348.32a9.759,9.759,0,0,1,1.344,1.544l3.06,3.86,3.074,3.86A11.028,11.028,0,0,1,60.6,359.21a8.6,8.6,0,0,1-1.475-1.461c-.855-.93-1.985-2.268-3.177-3.784s-2.24-2.915-2.964-3.949a9.119,9.119,0,0,1-1.1-1.7Z" transform="translate(-38.123 -257.551)" fill="#263238"/>
          <path id="Path_9111" data-name="Path 9111" d="M85.914,298.1a.916.916,0,0,1,0,.255v.737c0,.689-.076,1.633-.124,2.805-.138,2.461-.324,5.9-.551,10.007h0c-.751,4.184-2.881,8.822-5.741,13.322-2.068,3.315-4.3,6.334-6.2,9.139a64.393,64.393,0,0,0-4.645,7.678,32.951,32.951,0,0,0-2.171,5.638c-.186.689-.324,1.227-.407,1.6a2.944,2.944,0,0,1-.152.558,3.447,3.447,0,0,1,.069-.572c.055-.379.165-.924.324-1.627a29.988,29.988,0,0,1,2.068-5.727,61.712,61.712,0,0,1,4.6-7.774c1.882-2.819,4.073-5.845,6.162-9.139a39.489,39.489,0,0,0,5.741-13.164h0c.289-4.135.531-7.54.689-10,.1-1.172.172-2.068.227-2.8a5.972,5.972,0,0,1,.076-.737C85.893,298.1,85.9,298.1,85.914,298.1Z" transform="translate(-42.487 -241.943)" fill="#263238"/>
          <path id="Path_9112" data-name="Path 9112" d="M84.831,328.208s4.432-10.676-1.144-17.671a.386.386,0,0,0-.689.131C82.522,312.453,81.605,317.939,84.831,328.208Z" transform="translate(-47.641 -245.758)" fill="#1e64cc"/>
          <path id="Path_9113" data-name="Path 9113" d="M84.688,316a8.656,8.656,0,0,1,.351,2.019c.159,1.254.338,2.991.476,4.921s.2,3.667.2,4.935a8.409,8.409,0,0,1-.124,2.068,11.427,11.427,0,0,1-.179-2.068c-.1-1.413-.207-3.074-.331-4.914s-.241-3.5-.345-4.921A10.911,10.911,0,0,1,84.688,316Z" transform="translate(-48.311 -247.506)" fill="#263238"/>
          <g id="Group_3671" data-name="Group 3671" transform="translate(34.863 64.617)" opacity="0.3">
            <path id="Path_9114" data-name="Path 9114" d="M84.831,328.208s4.432-10.676-1.144-17.671a.386.386,0,0,0-.689.131C82.522,312.453,81.605,317.939,84.831,328.208Z" transform="translate(-82.504 -310.374)"/>
          </g>
          <path id="Path_9115" data-name="Path 9115" d="M64.38,365.618s3.556-11.027-2.571-17.527a.386.386,0,0,0-.689.186C60.8,350.1,60.334,355.646,64.38,365.618Z" transform="translate(-40.933 -257.433)" fill="#1e64cc"/>
          <path id="Path_9116" data-name="Path 9116" d="M63.13,353.51a9.022,9.022,0,0,1,.517,1.985c.255,1.234.572,2.95.868,4.859s.5,3.646.6,4.907a8.374,8.374,0,0,1,.041,2.068,11.751,11.751,0,0,1-.345-2.019c-.207-1.378-.455-3.053-.689-4.873s-.531-3.446-.744-4.88a10.634,10.634,0,0,1-.248-2.047Z" transform="translate(-41.62 -259.164)" fill="#263238"/>
          <g id="Group_3672" data-name="Group 3672" transform="translate(19.987 90.508)" opacity="0.3">
            <path id="Path_9117" data-name="Path 9117" d="M64.38,365.618s3.556-11.027-2.571-17.527a.386.386,0,0,0-.689.186C60.8,350.1,60.334,355.646,64.38,365.618Z" transform="translate(-60.919 -347.941)"/>
          </g>
          <path id="Path_9118" data-name="Path 9118" d="M94.07,310.161s9.477-6.63,8.519-15.528a.379.379,0,0,0-.634-.248C100.576,295.626,96.861,299.768,94.07,310.161Z" transform="translate(-51.235 -240.757)" fill="#1e64cc"/>
          <g id="Group_3673" data-name="Group 3673" transform="translate(42.835 53.528)" opacity="0.3">
            <path id="Path_9119" data-name="Path 9119" d="M94.07,310.161s9.477-6.63,8.519-15.528a.379.379,0,0,0-.634-.248C100.576,295.626,96.861,299.768,94.07,310.161Z" transform="translate(-94.07 -294.285)"/>
          </g>
          <path id="Path_9120" data-name="Path 9120" d="M100.932,299.61a8.78,8.78,0,0,1-.786,1.9c-.538,1.137-1.323,2.7-2.24,4.4s-1.8,3.212-2.447,4.314a8.685,8.685,0,0,1-1.2,1.661,11.166,11.166,0,0,1,.937-1.82l2.33-4.363,2.35-4.335A10.469,10.469,0,0,1,100.932,299.61Z" transform="translate(-51.294 -242.412)" fill="#263238"/>
          <path id="Path_9121" data-name="Path 9121" d="M71.48,352.93s11.427-1.778,14.473-10.187a.386.386,0,0,0-.462-.51C83.727,342.758,78.565,344.825,71.48,352.93Z" transform="translate(-44.215 -255.655)" fill="#1e64cc"/>
          <g id="Group_3674" data-name="Group 3674" transform="translate(27.265 86.565)" opacity="0.3">
            <path id="Path_9122" data-name="Path 9122" d="M71.48,352.93s11.427-1.778,14.473-10.187a.386.386,0,0,0-.462-.51C83.727,342.758,78.565,344.825,71.48,352.93Z" transform="translate(-71.48 -342.22)"/>
          </g>
          <path id="Path_9123" data-name="Path 9123" d="M82.984,346.21a8.9,8.9,0,0,1-1.537,1.378c-.992.786-2.378,1.847-3.949,2.964s-3.033,2.068-4.135,2.757a8.6,8.6,0,0,1-1.813.958,11.208,11.208,0,0,1,1.689-1.247l4-2.819,4.018-2.853a9.724,9.724,0,0,1,1.723-1.137Z" transform="translate(-44.236 -256.895)" fill="#263238"/>
          <path id="Path_9124" data-name="Path 9124" d="M51.87,388.26l3.274,21.5,13.088-.021,4.411-21.476Z" transform="translate(-38.12 -269.964)" fill="#455a64"/>
          <path id="Path_9125" data-name="Path 9125" d="M71.429,397.929l-.11.076a2.925,2.925,0,0,1-.345.2,4.825,4.825,0,0,1-1.468.434,5.328,5.328,0,0,1-2.371-.227,5.052,5.052,0,0,1-2.585-1.875,3.591,3.591,0,0,1-.607-1.8,1.944,1.944,0,0,1,.855-1.84,2.1,2.1,0,0,1,2.192.179,3.177,3.177,0,0,1,1.254,1.971,8.388,8.388,0,0,1,.159,2.426,7.775,7.775,0,0,1-.531,2.488,5.514,5.514,0,0,1-1.516,2.164,4.2,4.2,0,0,1-2.516,1.048,4.6,4.6,0,0,1-2.619-.758,8.008,8.008,0,0,1-1.957-1.764,4.328,4.328,0,0,1-.986-2.364,2.757,2.757,0,0,1,.924-2.274,2.13,2.13,0,0,1,2.323-.145,2.488,2.488,0,0,1,1.337,1.751,3.356,3.356,0,0,1-1.654,3.4,4.6,4.6,0,0,1-3.157.455A7.051,7.051,0,0,1,55.8,400.6a12.054,12.054,0,0,1-1.261-.848,2.887,2.887,0,0,1-.407-.345,2.3,2.3,0,0,1,.448.283,13.091,13.091,0,0,0,1.289.793,7.388,7.388,0,0,0,2.219.806,4.452,4.452,0,0,0,2.991-.482,3.1,3.1,0,0,0,1.5-3.122,2.185,2.185,0,0,0-1.192-1.53,1.813,1.813,0,0,0-1.971.117,2.419,2.419,0,0,0-.793,2,3.963,3.963,0,0,0,.937,2.157,7.651,7.651,0,0,0,1.868,1.682,4.239,4.239,0,0,0,2.419.689,3.9,3.9,0,0,0,2.3-.965,5.114,5.114,0,0,0,1.42-2.019,7.74,7.74,0,0,0,.517-2.378,8.147,8.147,0,0,0-.145-2.33,2.86,2.86,0,0,0-1.11-1.785,1.813,1.813,0,0,0-1.868-.186,1.675,1.675,0,0,0-.758,1.578,3.35,3.35,0,0,0,.544,1.668,4.824,4.824,0,0,0,2.44,1.833,5.349,5.349,0,0,0,2.323.276A6.409,6.409,0,0,0,71.429,397.929Z" transform="translate(-38.822 -271.335)" fill="#263238"/>
        </g>
      </g>
    </g>
    <g id="Component_119_276" data-name="Component 119 – 276" transform="translate(0 779.277)">
      <rect id="Rectangle_1927" data-name="Rectangle 1927" width="412" height="67" transform="translate(0 0.722)" fill="#102646"/>
      <path id="Path_4714" data-name="Path 4714" d="M1053,4508.186h411.151" transform="translate(-1053 -4508.186)" fill="none" stroke="#fff" stroke-width="2" opacity="0.206"/>
      <g id="Group_3096" data-name="Group 3096" transform="translate(-3 -997.186)">
        <text id="Next" transform="translate(318 1038)" fill="#f2f5f7" font-size="18" font-family="ArialMT, Arial"><tspan x="0" y="0">Next</tspan></text>
        <path id="Icon_ionic-ios-arrow-back" data-name="Icon ionic-ios-arrow-back" d="M14.033,14.264l6.109-6.1a1.154,1.154,0,0,0-1.634-1.629l-6.921,6.916a1.152,1.152,0,0,0-.034,1.591L18.5,22a1.154,1.154,0,1,0,1.634-1.629Z" transform="translate(389.251 1046.266) rotate(180)" fill="#f2f5f7"/>
      </g>
      <g id="Group_3224" data-name="Group 3224" transform="translate(2.529 7.076)">
        <g id="Group_3212" data-name="Group 3212" transform="translate(34.47 14.737)">
          <text id="Back" transform="translate(19.06 18)" fill="#fff" font-size="18" font-family="ArialMT, Arial"><tspan x="0" y="0">Back</tspan></text>
          <path id="Icon_ionic-ios-arrow-back-2" data-name="Icon ionic-ios-arrow-back" d="M14.033,14.264l6.109-6.1a1.154,1.154,0,0,0-1.634-1.629l-6.921,6.916a1.152,1.152,0,0,0-.034,1.591L18.5,22a1.154,1.154,0,1,0,1.634-1.629Z" transform="translate(-11.251 -3.193)" fill="#fff"/>
        </g>
      </g>
    </g>
    <g id="Group_3234" data-name="Group 3234" transform="translate(4.012 -10.262)">
      <path id="Icon_ionic-ios-arrow-back-3" data-name="Icon ionic-ios-arrow-back" d="M15.217,17.7,23.926,9A1.645,1.645,0,1,0,21.6,6.674l-9.867,9.86a1.642,1.642,0,0,0-.048,2.268l9.908,9.929a1.645,1.645,0,0,0,2.33-2.323Z" transform="translate(362.579 30.069)" fill="#fff"/>
      <path id="Icon_ionic-ios-arrow-back-4" data-name="Icon ionic-ios-arrow-back" d="M3.967,11.506l8.709-8.7A1.645,1.645,0,1,0,10.346.481L.479,10.341a1.642,1.642,0,0,0-.048,2.268l9.908,9.929a1.645,1.645,0,1,0,2.33-2.323Z" transform="translate(377.472 59.28) rotate(180)" fill="#fff"/>
    </g>
  </g>
</svg>
