<svg xmlns="http://www.w3.org/2000/svg" xmlns:xlink="http://www.w3.org/1999/xlink" width="412" height="847" viewBox="0 0 412 847">
  <defs>
    <filter id="bg" x="-2" y="112" width="416" height="165" filterUnits="userSpaceOnUse">
      <feOffset dy="4" input="SourceAlpha"/>
      <feGaussianBlur stdDeviation="8" result="blur"/>
      <feFlood flood-color="#455b63" flood-opacity="0.078"/>
      <feComposite operator="in" in2="blur"/>
      <feComposite in="SourceGraphic"/>
    </filter>
    <filter id="bg-2" x="-2" y="250" width="416" height="165" filterUnits="userSpaceOnUse">
      <feOffset dy="4" input="SourceAlpha"/>
      <feGaussianBlur stdDeviation="8" result="blur-2"/>
      <feFlood flood-color="#455b63" flood-opacity="0.078"/>
      <feComposite operator="in" in2="blur-2"/>
      <feComposite in="SourceGraphic"/>
    </filter>
    <filter id="Rectangle_1534" x="-9" y="775" width="430" height="78" filterUnits="userSpaceOnUse">
      <feOffset dy="-3" input="SourceAlpha"/>
      <feGaussianBlur stdDeviation="3" result="blur-3"/>
      <feFlood flood-opacity="0.059"/>
      <feComposite operator="in" in2="blur-3"/>
      <feComposite in="SourceGraphic"/>
    </filter>
    <clipPath id="clip-CBT_7">
      <rect width="412" height="847"/>
    </clipPath>
  </defs>
  <g id="CBT_7" data-name="CBT – 7" clip-path="url(#clip-CBT_7)">
    <rect width="412" height="847" fill="#102646"/>
    <g id="card" transform="translate(22 132)">
      <g transform="matrix(1, 0, 0, 1, -22, -132)" filter="url(#bg)">
        <rect id="bg-3" data-name="bg" width="368" height="117" rx="12" transform="translate(22 132)" fill="#153669"/>
      </g>
      <g id="Languages" transform="translate(20 15)">
        <text id="Control_Negative_Thoughts" data-name="Control Negative Thoughts" fill="#d2dff2" font-size="24" font-family="Arial-BoldMT, Arial" font-weight="700"><tspan x="0" y="22">Control Negative Thoughts</tspan></text>
      </g>
      <text id="We_seen_a_certain_negative_in_your_Mood._zenquip_will_helps_to_Boost_your_mood" data-name="We seen a certain negative in your Mood. 
zenquip will helps to Boost your mood" transform="translate(19 69)" fill="#8eb1e5" font-size="15" font-family="ArialMT, Arial"><tspan x="0" y="0">We seen a certain negative in your Mood. </tspan><tspan x="0" y="21">zenquip will helps to Boost your mood</tspan></text>
    </g>
    <g id="card-2" data-name="card" transform="translate(22 270)">
      <g transform="matrix(1, 0, 0, 1, -22, -270)" filter="url(#bg-2)">
        <rect id="bg-4" data-name="bg" width="368" height="117" rx="12" transform="translate(22 270)" fill="#153669"/>
      </g>
      <g id="Languages-2" data-name="Languages" transform="translate(20 15)">
        <text id="Compare_yourself" data-name="Compare yourself" fill="#d2dff2" font-size="24" font-family="Arial-BoldMT, Arial" font-weight="700"><tspan x="0" y="22">Compare yourself</tspan></text>
      </g>
      <text id="We_seen_a_certain_negative_in_your_Mood._zenquip_will_helps_to_Boost_your_mood-2" data-name="We seen a certain negative in your Mood. 
zenquip will helps to Boost your mood" transform="translate(19 69)" fill="#8eb1e5" font-size="15" font-family="ArialMT, Arial"><tspan x="0" y="0">We seen a certain negative in your Mood. </tspan><tspan x="0" y="21">zenquip will helps to Boost your mood</tspan></text>
    </g>
    <g id="Component_119_116" data-name="Component 119 – 116" transform="translate(0 787)">
      <g transform="matrix(1, 0, 0, 1, 0, -787)" filter="url(#Rectangle_1534)">
        <rect id="Rectangle_1534-2" data-name="Rectangle 1534" width="412" height="60" transform="translate(0 787)" fill="#102646"/>
      </g>
      <g id="Group_2755" data-name="Group 2755" transform="translate(0 -779)">
        <g id="Rectangle_1564" data-name="Rectangle 1564" transform="translate(12 789)" fill="#fff" stroke="#707070" stroke-width="1" opacity="0">
          <rect width="50" height="45" stroke="none"/>
          <rect x="0.5" y="0.5" width="49" height="44" fill="none"/>
        </g>
        <path id="Path_4565" data-name="Path 4565" d="M35.606,24.011l-7.368-7.1,7.368-7.1a1.37,1.37,0,0,0,.424-.982,1.4,1.4,0,0,0-.4-1,1.369,1.369,0,0,0-.982-.424h-.022a1.385,1.385,0,0,0-.982.4l-8.417,8.1a1.42,1.42,0,0,0-.424,1,1.382,1.382,0,0,0,.424,1l8.439,8.1a1.443,1.443,0,0,0,.982.4,1.42,1.42,0,0,0,1-.424,1.4,1.4,0,0,0,.4-1A1.274,1.274,0,0,0,35.606,24.011Z" transform="translate(5.036 792.435)" fill="#fff"/>
      </g>
    </g>
    <text id="Positive_self_affirmation" data-name="Positive self affirmation" transform="translate(22 91.747)" fill="#fff" font-size="16" font-family="Arial-BoldMT, Arial" font-weight="700"><tspan x="0" y="14">Positive self </tspan></text>
    <text id="CBT_tool" data-name="CBT tool" transform="translate(22 26)" fill="#fff" font-size="24" font-family="Arial-BoldMT, Arial" font-weight="700"><tspan x="0" y="22">CBT tool</tspan></text>
  </g>
</svg>
