<svg xmlns="http://www.w3.org/2000/svg" xmlns:xlink="http://www.w3.org/1999/xlink" width="412" height="847" viewBox="0 0 412 847">
  <defs>
    <clipPath id="clip-CBT_S8_E1_6">
      <rect width="412" height="847"/>
    </clipPath>
  </defs>
  <g id="CBT_S8_E1_6" data-name="CBT /  S8 / E1 –6" clip-path="url(#clip-CBT_S8_E1_6)">
    <rect width="412" height="847" fill="#102646"/>
    <g id="Group_3601" data-name="Group 3601" transform="translate(657 -378)">
      <g id="Group_3103" data-name="Group 3103" transform="translate(-4 158)">
        <g id="Group_1500" data-name="Group 1500" transform="translate(71 65)">
          <text id="Be_specific_in_your_imagination" data-name="Be specific in your imagination" transform="translate(-689 256)" fill="#fff" font-size="24" font-family="Arial-BoldMT, Arial" font-weight="700"><tspan x="60.301" y="22">Be specific in your </tspan></text>
        </g>
      </g>
    </g>
    <g id="Curious-rafiki" transform="translate(0.849 151.338)">
      <g id="freepik--background-complete--inject-165" transform="translate(0 54.026)">
        <rect id="Rectangle_1994" data-name="Rectangle 1994" width="21.336" height="0.205" transform="translate(143.146 276.478)" fill="#ebebeb"/>
        <rect id="Rectangle_1995" data-name="Rectangle 1995" width="44.395" height="0.205" transform="translate(43.049 274.254)" fill="#ebebeb"/>
        <rect id="Rectangle_1996" data-name="Rectangle 1996" width="21.598" height="0.205" transform="translate(120.727 284.101)" fill="#ebebeb"/>
        <rect id="Rectangle_1997" data-name="Rectangle 1997" width="31.864" height="0.205" transform="translate(211.905 282.723)" fill="#ebebeb"/>
        <rect id="Rectangle_1998" data-name="Rectangle 1998" width="8.772" height="0.205" transform="translate(251.072 282.723)" fill="#ebebeb"/>
        <rect id="Rectangle_1999" data-name="Rectangle 1999" width="44.772" height="0.205" transform="translate(324.426 279.26)" fill="#ebebeb"/>
        <path id="Path_8666" data-name="Path 8666" d="M201.338,287.067H42.887a4.686,4.686,0,0,1-4.677-4.686V59.645A4.686,4.686,0,0,1,42.887,55h158.45a4.686,4.686,0,0,1,4.686,4.686v222.7A4.686,4.686,0,0,1,201.338,287.067ZM42.887,55.164a4.481,4.481,0,0,0-4.472,4.481V282.381a4.481,4.481,0,0,0,4.472,4.48h158.45a4.489,4.489,0,0,0,4.48-4.481V59.645a4.489,4.489,0,0,0-4.48-4.48Z" transform="translate(-6.855 -55)" fill="#ebebeb"/>
        <path id="Path_8667" data-name="Path 8667" d="M417.644,287.067H259.186a4.694,4.694,0,0,1-4.686-4.686V59.645A4.694,4.694,0,0,1,259.186,55H417.644a4.686,4.686,0,0,1,4.669,4.645V282.381A4.686,4.686,0,0,1,417.644,287.067ZM259.186,55.164a4.489,4.489,0,0,0-4.48,4.48V282.381a4.489,4.489,0,0,0,4.48,4.48H417.644a4.489,4.489,0,0,0,4.48-4.481V59.645a4.489,4.489,0,0,0-4.48-4.48Z" transform="translate(-45.656 -55)" fill="#ebebeb"/>
        <path id="Path_8668" data-name="Path 8668" d="M208.941,366.278s-13.015-15.542-14.533-31.905c-2.207-23.7,21.516,4.973,28.573-1.124s-15.271-34.334,2.815-39.816,22.46,15.255,29.616,30.42c11.726,24.864,12.49-38.257,32.184-7.96,12.842,19.76,5.925,50.377,5.925,50.377Z" transform="translate(-34.85 -97.613)" fill="#f5f5f5"/>
        <path id="Path_8669" data-name="Path 8669" d="M310.951,367.793s-13.794-14.049-9.921-28.877c5.613-21.5,14.771,4.513,22.025-1.018s-1.026-31.134,14.377-36.107,12.358,13.835,13.13,27.6c1.256,22.534,21.2-34.687,26.834-7.2,3.668,17.914-12.309,45.593-12.309,45.593Z" transform="translate(-53.881 -99.127)" fill="#f5f5f5"/>
        <path id="Path_8670" data-name="Path 8670" d="M353.76,377.66c.632-1.567,2.585-12.777,20.6-21.68-7.738,10.331-9.847,18.053-9.445,21.68Z" transform="translate(-63.463 -108.995)" fill="#e0e0e0"/>
        <path id="Path_8671" data-name="Path 8671" d="M101.3,375.262c-.049-2.363-1.945-22.5-20.121-32.652,5.514,15.591,4.3,27.252,1.805,32.652Z" transform="translate(-14.563 -106.596)" fill="#f5f5f5"/>
        <path id="Path_8672" data-name="Path 8672" d="M89.274,377.716c-.451-1.551-.9-12.629-18.874-21.426,6.778,10.208,7.886,17.881,6.951,21.426Z" transform="translate(-12.629 -109.05)" fill="#f5f5f5"/>
        <path id="Path_8673" data-name="Path 8673" d="M169.58,378.039c0-1.444.952-13.745,9.847-19.949-2.7,9.5-2.1,16.65-.878,19.949Z" transform="translate(-30.422 -109.373)" fill="#f5f5f5"/>
        <path id="Path_8674" data-name="Path 8674" d="M175.6,379.539c.213-.952.435-7.714,9.24-13.089-3.282,6.237-3.857,10.922-3.4,13.089Z" transform="translate(-31.502 -110.873)" fill="#f5f5f5"/>
        <path id="Path_8675" data-name="Path 8675" d="M235.825,376.74c-.5-1.879-1-15.255-21.065-25.89,7.558,12.309,8.789,21.607,7.755,25.89Z" transform="translate(-38.527 -108.074)" fill="#e0e0e0"/>
        <path id="Path_8676" data-name="Path 8676" d="M245.949,378.121c.148-1.42,3.488-11.538-8.715-19.571,2.273,9.33.624,16.338-1.354,19.571Z" transform="translate(-42.316 -109.456)" fill="#e0e0e0"/>
        <path id="Path_8677" data-name="Path 8677" d="M359.274,378.936c-.148-1.149.656-9.338-10.733-15.846,3.594,7.549,3.578,13.228,2.585,15.846Z" transform="translate(-62.527 -110.27)" fill="#fff"/>
        <path id="Path_8678" data-name="Path 8678" d="M350.762,142.877c14.894-4.513-6.253-14.771-29.583-15.772-55.1-2.413-68.57-14.771-107.614-19.071-12.161-1.338-3.775,16.773,24.38,24.749,35.663,10.1,97.463,4.21,82.348,10.553s.919,25.275,32.709,19.506c24.618-4.464,59.28,15.534,46.84-1.773-7.87-10.947-26.358-6.959-34.9-7.746S328.729,149.557,350.762,142.877Z" transform="translate(-37.341 -64.502)" fill="#f5f5f5"/>
        <path id="Path_8679" data-name="Path 8679" d="M350.5,193.52c-5.219,2.06-18.316-2.4-26.637-2.257s-21.229,3.282-27.958-3.422,28.114-2.831,35.286-2.183C344.49,186.848,358.137,190.557,350.5,193.52Z" transform="translate(-52.93 -78.135)" fill="#fafafa"/>
        <path id="Path_8680" data-name="Path 8680" d="M396.431,78.907c2.856-2.815,10.725,2.4,15.509,1.9s12-4.924,16.363,3.348-16,4.645-20.179,4.1C400.378,87.22,392.246,83.034,396.431,78.907Z" transform="translate(-70.914 -59.138)" fill="#f5f5f5"/>
        <path id="Path_8681" data-name="Path 8681" d="M68.691,148.207c2.856-2.815,10.725,2.4,15.509,1.9s12-4.965,16.363,3.348-15.994,4.645-20.179,4.1C72.638,156.52,64.506,152.334,68.691,148.207Z" transform="translate(-12.119 -71.571)" fill="#f5f5f5"/>
        <path id="Path_8682" data-name="Path 8682" d="M98.288,74.987c7.467,5.793,28.45,1.157,41.079,4.16s31.552,13.417,43.369,2.265S140.59,66.641,129.528,65.583C109.013,63.638,87.349,66.51,98.288,74.987Z" transform="translate(-17.106 -56.794)" fill="#fafafa"/>
        <path id="Path_8683" data-name="Path 8683" d="M185.524,233.021c10.627-15.066-6.483-120.358-29.492-127.194S131.66,217.331,140,231.38C149.41,247.242,173.962,249.433,185.524,233.021Z" transform="translate(-24.276 -64.067)" fill="#ebebeb"/>
        <path id="Path_8684" data-name="Path 8684" d="M169.55,224h0a3.66,3.66,0,0,1,3.643,3.282,690.422,690.422,0,0,1-.312,126.668H165.57a691.291,691.291,0,0,0,.353-125.979A3.635,3.635,0,0,1,169.55,224Z" transform="translate(-29.703 -85.318)" fill="#e0e0e0"/>
        <path id="Path_8685" data-name="Path 8685" d="M401.686,298.953c-5.933-8.411,3.627-67.224,16.478-71.048s13.614,62.284,8.961,70.137C421.865,306.9,408.185,308.127,401.686,298.953Z" transform="translate(-71.738 -85.99)" fill="#ebebeb"/>
        <path id="Path_8686" data-name="Path 8686" d="M426.021,285.512a1.641,1.641,0,0,1-.7-2.683l3.086-3.545a1.684,1.684,0,0,1,2.544,2.207l-3.086,3.545A1.641,1.641,0,0,1,426.021,285.512Z" transform="translate(-76.222 -95.131)" fill="#fff"/>
        <path id="Path_8687" data-name="Path 8687" d="M411.527,264.206a1.641,1.641,0,0,1-1.493-1.173l-1.641-5.063a1.684,1.684,0,0,1,3.209-1.026l1.641,5.071a1.691,1.691,0,0,1-1.083,2.15A1.807,1.807,0,0,1,411.527,264.206Z" transform="translate(-73.25 -91.018)" fill="#fff"/>
        <path id="Path_8688" data-name="Path 8688" d="M415.868,293.92h0a2.051,2.051,0,0,0-2.035,1.855,385.928,385.928,0,0,0,.172,70.752h4.1a385.683,385.683,0,0,1-.2-70.392,2.035,2.035,0,0,0-2.043-2.215Z" transform="translate(-73.964 -97.861)" fill="#e0e0e0"/>
        <path id="Path_8689" data-name="Path 8689" d="M156.182,215.05a2.8,2.8,0,0,1-1.083-.213L140.91,209.01a2.874,2.874,0,1,1,2.183-5.318l14.188,5.826a2.872,2.872,0,0,1-1.1,5.531Z" transform="translate(-24.959 -81.636)" fill="#fff"/>
        <path id="Path_8690" data-name="Path 8690" d="M182.235,197.564a2.832,2.832,0,0,1-1.026-.189,2.88,2.88,0,0,1-1.641-3.709l2.872-7.5a2.873,2.873,0,1,1,5.367,2.052l-2.872,7.5a2.872,2.872,0,0,1-2.7,1.846Z" transform="translate(-32.18 -78.199)" fill="#fff"/>
        <path id="Path_8691" data-name="Path 8691" d="M155.544,174.127a2.872,2.872,0,0,1-2.675-1.822l-3.282-8.452a2.872,2.872,0,1,1,5.35-2.093l3.282,8.452a2.864,2.864,0,0,1-1.641,3.717,2.758,2.758,0,0,1-1.034.2Z" transform="translate(-26.8 -73.825)" fill="#fff"/>
      </g>
      <g id="freepik--Plant--inject-165" transform="translate(87.542 227.058)">
        <path id="Path_8692" data-name="Path 8692" d="M157.67,393.5a.435.435,0,0,1-.246-.074c-8.354-5.572-5.268-11.907-1.7-19.243,4.628-9.527,10.4-21.385-4.924-37.51-13.039-13.7-19.374-26.834-17.832-36.976a17.011,17.011,0,0,1,8.928-12.621.464.464,0,0,1,.435.821,16.149,16.149,0,0,0-8.493,11.973c-1.494,9.847,4.759,22.739,17.61,36.238,15.764,16.568,9.847,28.721,5.1,38.5-3.529,7.254-6.319,12.982,1.4,18.119a.451.451,0,0,1,.123.615.468.468,0,0,1-.394.156Z" transform="translate(-111.356 -269.657)" fill="#263238"/>
        <path id="Path_8693" data-name="Path 8693" d="M139.749,285.719c5.473-6.072,3.389-15.083,1.485-19.859C136.943,267.616,133.455,278.949,139.749,285.719Z" transform="translate(-111.997 -265.86)" fill="#263238"/>
        <path id="Path_8694" data-name="Path 8694" d="M134.425,324.944c-7.1-13.466-20.3-15.14-27.745-15.764C111.087,318.059,122.674,329.1,134.425,324.944Z" transform="translate(-106.68 -273.631)" fill="#263238"/>
        <path id="Path_8695" data-name="Path 8695" d="M154.479,391.233c9.429-15.477-6.86-26.661-15.427-37.953C135.753,364.686,138.19,384.3,154.479,391.233Z" transform="translate(-112.259 -281.543)" fill="#263238"/>
        <path id="Path_8696" data-name="Path 8696" d="M154.5,342.049c-11.439-13.392-8.821-23.1-5.744-29.369C154.933,320.615,164.23,334.689,154.5,342.049Z" transform="translate(-113.755 -274.259)" fill="#263238"/>
        <path id="Path_8697" data-name="Path 8697" d="M136.37,293.792c3.332-3.955,9.1-3.373,12.227-2.552C147.85,294.1,141.1,297.222,136.37,293.792Z" transform="translate(-112.006 -270.306)" fill="#263238"/>
        <path id="Path_8698" data-name="Path 8698" d="M166.41,377.95c1.256-10.216,5.744-9.421,9.191-13.95a11.037,11.037,0,0,1-9.191,13.95Z" transform="translate(-117.395 -283.466)" fill="#263238"/>
      </g>
      <g id="freepik--Character--inject-165" transform="translate(83.209 81.81)">
        <path id="Path_8699" data-name="Path 8699" d="M322.249,137.743c-5.531,1.272-13.384,4.382-20.351,7.164a9.368,9.368,0,0,0,.181-1.584c-.361.648-.722,1.288-1.075,1.945l-.263.107a9.5,9.5,0,0,0-.148-2.1,6.048,6.048,0,0,1-1.173,2.552,1.1,1.1,0,0,1-.09.115l-1.4.566a17.751,17.751,0,0,0,0-4.226,29.315,29.315,0,0,1-.64,3.964c-.049.2-.09.394-.148.6l-1.814.747c-.123-.5-.254-1-.386-1.5l-.657,1.969-.755.312a12.869,12.869,0,0,0-.517-2.224,16.715,16.715,0,0,1-.443,2.626l-.615.263a21.262,21.262,0,0,0-.476-4c-.123,1.026-.246,2.035-.361,3.053l-.172,1.37c-2.7,1.149-4.39,1.9-4.39,1.9s-.2-9.765,0-24.569,3.143-26.916,9.183-32.824,18.923-6.951,25-1.7,7.8,17.577,5.49,29.616C324.9,128.84,337.783,134.165,322.249,137.743Z" transform="translate(-134.601 -88.858)" fill="#263238"/>
        <path id="Path_8700" data-name="Path 8700" d="M264.157,228.478l.574-1.748a4.924,4.924,0,0,1,2.88-3.044l7.591-3,3.8,1.855c-1.018,4.144-5.695,8.329-5.695,8.329l-1.19,1.3a3.373,3.373,0,0,1-4.1.771l-2.856-1.641A2.33,2.33,0,0,1,264.157,228.478Z" transform="translate(-130.571 -112.509)" fill="#b55b52"/>
        <path id="Path_8701" data-name="Path 8701" d="M308.685,170.156c-.148,1.387-.3,2.6-.492,3.873s-.41,2.519-.632,3.767c-.468,2.462-1,4.989-1.641,7.467s-1.329,4.924-2.125,7.385-1.723,4.883-2.733,7.3l-.14.336a4.006,4.006,0,0,1-.821,1.239,41.933,41.933,0,0,1-5.531,4.653c-1.838,1.362-3.726,2.577-5.6,3.758s-3.8,2.273-5.744,3.282-3.881,2.052-5.933,2.971a2.823,2.823,0,0,1-3.053-4.669h.041c1.584-1.42,3.225-2.831,4.833-4.226s3.233-2.79,4.809-4.193,3.135-2.806,4.62-4.2a44.322,44.322,0,0,0,3.955-4.152l-.952,1.567c.7-2.191,1.329-4.415,1.912-6.68s1.1-4.563,1.567-6.877.919-4.636,1.321-6.975l.583-3.5.533-3.422V168.7a5.639,5.639,0,1,1,11.185,1.452Z" transform="translate(-132.239 -102.299)" fill="#b55b52"/>
        <path id="Path_8702" data-name="Path 8702" d="M313.009,152.29c-15.37,1.887-18,31.183-16.6,37.067,2.166,5.063,11.6,2.462,11.6,2.462S322.947,169.6,313.009,152.29Z" transform="translate(-136.325 -100.238)" fill="#263238"/>
        <path id="Path_8703" data-name="Path 8703" d="M309.428,198.747a9.74,9.74,0,0,1-1.379,2.355.369.369,0,0,1-.172.123c-.821.353-6.729,2.61-11.677-.747a.476.476,0,0,1-.189-.23,10.192,10.192,0,0,1-.624-3.972.484.484,0,0,1,.64-.443c1.871.673,7.722,2.568,12.925,2.24a.484.484,0,0,1,.476.673Z" transform="translate(-136.199 -108.045)" fill="#fff"/>
        <path id="Path_8704" data-name="Path 8704" d="M388.954,414.005c7.492,0,6.942-.115,11.144-.263,3.594-.123,4.5.328,7.385.263,2.421-.057,2.158-2.372,1.206-5.039-.476-1.338-1.173-2.979-1.855-5.137h-11.39c-1.321,2.946-4.234,5.162-8.411,5.744C383.038,410.1,385.959,414.005,388.954,414.005Z" transform="translate(-152.292 -145.363)" fill="#263238"/>
        <path id="Path_8705" data-name="Path 8705" d="M313.733,412.133c9.527,0,10.438-4.1,13.95-6.278,3.036-1.855,4.243-1.338,7.385-3.11,2.076-1.165,1.157-3.734-.509-5.1a22.421,22.421,0,0,1-4.046-4.251l-9.289,4.1c-.509,3.742-2.265,10.044-7.861,10.438C309.384,408.251,310.787,412.133,313.733,412.133Z" transform="translate(-138.985 -143.49)" fill="#263238"/>
        <path id="Path_8706" data-name="Path 8706" d="M312.169,221.85S294.116,267.8,291.72,290.592c-.066,18.874,26.087,75.077,26.087,75.077.821,1.4,8.321-2.634,9.289-4.1-9.634-23.519-4.571-52.945-13.261-70.211,18.628-26.489,33.079-75.5,33.079-75.5Z" transform="translate(-135.543 -111.642)" fill="#1e64cc"/>
        <path id="Path_8707" data-name="Path 8707" d="M312.819,236.191a.207.207,0,1,1-.049-.41,9.421,9.421,0,0,0,5.621-3.652.205.205,0,0,1,.279-.066.2.2,0,0,1,.066.279,9.617,9.617,0,0,1-5.876,3.84Z" transform="translate(-139.286 -114.544)" fill="#fff" opacity="0.2"/>
        <path id="Path_8708" data-name="Path 8708" d="M336.3,248.3c-4.021,8.14-4.653,20.285-4.333,29.591A319.961,319.961,0,0,0,345.4,246.657l-.041-.041A5.744,5.744,0,0,0,336.3,248.3Z" transform="translate(-142.749 -116.885)" opacity="0.2"/>
        <path id="Path_8709" data-name="Path 8709" d="M329.33,219.877s4.8,42.926,14.328,72.213c4.76,14.607,31.922,47.784,41.785,77.842,1.838,1.018,8.009,1.083,11.39,0,0,0-15.157-66.067-31.478-79.968-.049-35.7,1.231-52.937-6.565-75.225Z" transform="translate(-142.29 -111.441)" fill="#1e64cc"/>
        <path id="Path_8710" data-name="Path 8710" d="M396.735,368.684a.205.205,0,0,1-.205-.164c-6.745-39.89-30.9-74.675-31.183-75a.27.27,0,0,1,0-.14c0-.041.419-4.924.821-23.059.394-17.069-1.182-35.59-1.379-37.822-1.28.213-7.738,1.091-12.629-2.117a.205.205,0,0,1-.057-.287.213.213,0,0,1,.287-.057c5.276,3.463,12.473,2.035,12.547,2.019a.181.181,0,0,1,.156,0,.222.222,0,0,1,.09.148c0,.2,1.813,19.965,1.4,38.092-.4,16.937-.821,22.337-.821,23.018,1.149,1.641,24.536,35.91,31.183,75.093a.205.205,0,0,1-.172.238Z" transform="translate(-146.369 -114.181)" fill="#fff" opacity="0.2"/>
        <path id="Path_8711" data-name="Path 8711" d="M395.072,398.4a31.42,31.42,0,0,1,.821,4.21,1.247,1.247,0,0,0,1.034,1.034c4.357.665,10.11-.3,11.923-.648a.6.6,0,0,0,.492-.722l-.509-3.939a1.231,1.231,0,0,0-1.173-1.009l-11.973.23a.632.632,0,0,0-.615.845Z" transform="translate(-154.077 -144.195)" fill="#1e64cc"/>
        <path id="Path_8712" data-name="Path 8712" d="M395.072,398.4a31.42,31.42,0,0,1,.821,4.21,1.247,1.247,0,0,0,1.034,1.034c4.357.665,10.11-.3,11.923-.648a.6.6,0,0,0,.492-.722l-.509-3.939a1.231,1.231,0,0,0-1.173-1.009l-11.973.23a.632.632,0,0,0-.615.845Z" transform="translate(-154.077 -144.195)" opacity="0.2"/>
        <path id="Path_8713" data-name="Path 8713" d="M320.238,392.743c.369,1.034,1.018,2.889,1.452,4.275a.87.87,0,0,0,1.083.574,60.722,60.722,0,0,0,10.2-4.661A.87.87,0,0,0,333.4,392l-.739-3.98a.87.87,0,0,0-1.182-.648l-10.742,4.259A.87.87,0,0,0,320.238,392.743Z" transform="translate(-140.649 -142.4)" fill="#1e64cc"/>
        <path id="Path_8714" data-name="Path 8714" d="M320.238,392.743c.369,1.034,1.018,2.889,1.452,4.275a.87.87,0,0,0,1.083.574,60.722,60.722,0,0,0,10.2-4.661A.87.87,0,0,0,333.4,392l-.739-3.98a.87.87,0,0,0-1.182-.648l-10.742,4.259A.87.87,0,0,0,320.238,392.743Z" transform="translate(-140.649 -142.4)" opacity="0.2"/>
        <path id="Path_8715" data-name="Path 8715" d="M316.1,218.927a14.982,14.982,0,0,1-1.288,4.85c1.477,1,6.565,2.109,12.99,2.388.607-.993.985-3.611,1.461-4.677a9.56,9.56,0,0,0,2.872,4.735,65.181,65.181,0,0,0,10.733-1.059c12.514-2.347,15.468-6.237,15.468-6.237s-2.4-7.221-3.077-9.847C348.783,209.564,316.435,210.508,316.1,218.927Z" transform="translate(-139.685 -110.426)" fill="#fff"/>
        <path id="Path_8716" data-name="Path 8716" d="M301.983,170.635a183.067,183.067,0,0,0,6.36,17.413c4.883,12.555,3.734,15.321,5,20.474a31.248,31.248,0,0,0,10.971,2.109,16.931,16.931,0,0,1,2.232-3.66c.993.665,4.062,2.577,5.826,2.692,7.976-1.231,18.267-4.325,21.877-8.149-2.749-11.095-3.742-23.19-5.35-49.8a9.444,9.444,0,0,0-11.669-8.912c-1.567.377-3.217.821-4.924,1.3a127.516,127.516,0,0,0-17.348,6.072c-1.822.821-3.693,1.748-5.473,2.659a15.239,15.239,0,0,0-7.5,17.8Z" transform="translate(-137.271 -98.486)" fill="#263238"/>
        <path id="Path_8717" data-name="Path 8717" d="M384.732,226.671l-1.239-1.362a4.924,4.924,0,0,1-1.214-4l1.173-8.083,3.5-2.372c3.085,2.938,4.4,9.068,4.4,9.068l.542,1.641a3.4,3.4,0,0,1-1.346,3.922l-2.864,1.641a2.322,2.322,0,0,1-2.946-.451Z" transform="translate(-151.779 -110.743)" fill="#b55b52"/>
        <path id="Path_8718" data-name="Path 8718" d="M362.224,151.973c1.059.985,1.945,1.855,2.872,2.806s1.789,1.9,2.667,2.856c1.731,1.937,3.405,3.922,5.006,5.99s3.135,4.169,4.587,6.36,2.815,4.456,4.1,6.778l.164.3a3.606,3.606,0,0,1,.287.689,43.216,43.216,0,0,1,1.3,7.115c.263,2.265.377,4.505.468,6.721s.09,4.431.041,6.639-.148,4.39-.361,6.63a2.823,2.823,0,0,1-5.572.328v-.049c-.451-2.084-.821-4.21-1.272-6.3s-.821-4.185-1.255-6.253-.878-4.1-1.354-6.1a42.723,42.723,0,0,0-1.641-5.49l.451.977c-1.313-1.945-2.667-3.865-4.1-5.744s-2.938-3.734-4.489-5.556-3.126-3.619-4.751-5.375l-2.462-2.618c-.821-.821-1.641-1.756-2.421-2.5l-.09-.1a5.638,5.638,0,1,1,7.845-8.1Z" transform="translate(-146.479 -99.896)" fill="#b55b52"/>
        <path id="Path_8719" data-name="Path 8719" d="M344.216,142.83c14.5-5.449,30.362,19.284,31.872,25.176.418,5.49-9.158,7.525-9.158,7.525S343.42,162.8,344.216,142.83Z" transform="translate(-144.957 -98.401)" fill="#263238"/>
        <path id="Path_8720" data-name="Path 8720" d="M321.418,164.344a.517.517,0,0,1-.443-.254.509.509,0,0,1,.189-.7,33.414,33.414,0,0,0,8.206-9.675.509.509,0,0,1,.689-.23.517.517,0,0,1,.23.689,35.372,35.372,0,0,1-8.649,10.1.5.5,0,0,1-.222.066Z" transform="translate(-140.779 -100.443)" fill="#1e64cc"/>
        <path id="Path_8721" data-name="Path 8721" d="M318.46,164.255a.591.591,0,0,1-.263-.066c-1.535-.9-4.267-4.554-3.914-9.306a.517.517,0,1,1,1.026.074c-.336,4.587,2.421,7.763,3.414,8.346a.509.509,0,0,1-.263.952Z" transform="translate(-139.585 -100.607)" fill="#1e64cc"/>
        <path id="Path_8722" data-name="Path 8722" d="M325.643,121.55c.96,6.048,3.5,16.65,8.428,19.1,0,0-5.564,1.05-14.352,11.923-4.883-3.529-2.987-5.859-2.987-5.859,5.81-3.7,4.513-7.615,1.9-11.488Z" transform="translate(-139.965 -94.723)" fill="#b55b52"/>
        <path id="Path_8723" data-name="Path 8723" d="M322.73,154.182c3.881-.771,6.991,4.407,6.991,4.407s6.68-9.379,7.943-14.771a38.571,38.571,0,0,1-3.963-.927S324.141,151.293,322.73,154.182Z" transform="translate(-141.106 -98.552)" fill="#fff"/>
        <path id="Path_8724" data-name="Path 8724" d="M317.271,156.256s-2.889,1.978-2.462,6.877c-3.693-7.845-.369-10.561-.369-10.561a5.006,5.006,0,0,1,3.168-1.641A4.193,4.193,0,0,0,317.271,156.256Z" transform="translate(-139.372 -99.994)" fill="#fff"/>
        <path id="Path_8725" data-name="Path 8725" d="M323.282,128.35l-4.152,8.1a18.649,18.649,0,0,1,1.641,2.848c2.175-1.37,4.39-5.391,3.742-7.993A9.025,9.025,0,0,0,323.282,128.35Z" transform="translate(-140.46 -95.943)" opacity="0.2"/>
        <path id="Path_8726" data-name="Path 8726" d="M300.864,130.943h-1.912a.218.218,0,0,1-.213-.271l.952-4.39a.213.213,0,0,1,.213-.172h0a.23.23,0,0,1,.221.172l.952,4.39a.23.23,0,0,1-.041.189A.246.246,0,0,1,300.864,130.943Zm-1.641-.451h1.37l-.673-3.1Z" transform="translate(-136.801 -95.541)" fill="#fff"/>
        <path id="Path_8727" data-name="Path 8727" d="M321.8,103.671c2.265,9.445,3.414,13.384.32,19.785-4.669,9.634-16.412,10.914-21.385,2.462-4.472-7.6-7.385-21.771.271-28.664S319.534,94.225,321.8,103.671Z" transform="translate(-136.359 -89.736)" fill="#b55b52"/>
        <path id="Path_8728" data-name="Path 8728" d="M295.1,107.234c8.69-1.7,13.95-10.118,18.053-9.847-.624,6.384,4.382,13.6,9.314,13.77,6.672.23.492-16.166-3.988-18.759C313.754,89.633,293.567,89.436,295.1,107.234Z" transform="translate(-136.134 -89.246)" fill="#263238"/>
        <path id="Path_8729" data-name="Path 8729" d="M322.213,112.8a3.5,3.5,0,0,1-2.043-.714c-3.012-2.158-4.833-8.863-3.676-13.532a.451.451,0,1,1,.87.213c-1.059,4.292.615,10.668,3.323,12.588a2.462,2.462,0,0,0,2.938.09.443.443,0,0,1,.615.131.451.451,0,0,1-.131.624A3.553,3.553,0,0,1,322.213,112.8Z" transform="translate(-139.924 -90.526)" fill="#263238"/>
        <path id="Path_8730" data-name="Path 8730" d="M310.945,114.892c.222.821,0,1.559-.476,1.74s-1.067-.32-1.288-1.1,0-1.567.476-1.74S310.724,114.1,310.945,114.892Z" transform="translate(-138.66 -93.325)" fill="#263238"/>
        <ellipse id="Ellipse_706" data-name="Ellipse 706" cx="0.935" cy="1.477" rx="0.935" ry="1.477" transform="matrix(0.973, -0.23, 0.23, 0.973, 161.024, 24.118)" fill="#263238"/>
        <path id="Path_8731" data-name="Path 8731" d="M298.5,118l-1.945.107S297.9,119.223,298.5,118Z" transform="translate(-136.411 -94.086)" fill="#263238"/>
        <path id="Path_8732" data-name="Path 8732" d="M303.521,119.79a24.036,24.036,0,0,1-1.231,5.974,3.242,3.242,0,0,0,2.806-.443Z" transform="translate(-137.439 -94.407)" fill="#a02724"/>
        <path id="Path_8733" data-name="Path 8733" d="M311.251,127.193a7.288,7.288,0,0,1-1.3.353.222.222,0,0,1-.254-.2.254.254,0,0,1,.205-.279,6.753,6.753,0,0,0,4.759-3.422.246.246,0,0,1,.312-.131.238.238,0,0,1,.107.32,7.156,7.156,0,0,1-3.832,3.356Z" transform="translate(-138.768 -95.073)" fill="#263238"/>
        <path id="Path_8734" data-name="Path 8734" d="M331.649,115.635a6.7,6.7,0,0,1-3.061,4.456c-2,1.116-3.57-1.116-3.479-3.758.082-2.388,1.223-5.843,3.463-5.843S332.175,113.2,331.649,115.635Z" transform="translate(-141.532 -92.739)" fill="#b55b52"/>
        <path id="Path_8735" data-name="Path 8735" d="M305.375,110.461a.451.451,0,0,1,.3-.205,3.479,3.479,0,0,0,2.659-1.978.427.427,0,0,1,.591-.238.517.517,0,0,1,.263.64,4.365,4.365,0,0,1-3.332,2.536.476.476,0,0,1-.533-.4A.509.509,0,0,1,305.375,110.461Z" transform="translate(-137.98 -92.292)" fill="#263238"/>
        <path id="Path_8736" data-name="Path 8736" d="M295.195,114.682a.419.419,0,0,1-.345,0,.468.468,0,0,1-.23-.624,5,5,0,0,1,3.233-3.02.443.443,0,0,1,.525.377.517.517,0,0,1-.386.574,3.972,3.972,0,0,0-2.536,2.413.476.476,0,0,1-.263.279Z" transform="translate(-136.055 -92.836)" fill="#263238"/>
        <path id="Path_8737" data-name="Path 8737" d="M309.635,113.75l-1.945.107S309.028,115,309.635,113.75Z" transform="translate(-138.408 -93.324)" fill="#263238"/>
        <path id="Path_8738" data-name="Path 8738" d="M319.143,162.173a11.8,11.8,0,0,1,2.24-.213.878.878,0,0,1,.821.64c.238.821.681,2.314.944,3.028.369,1.026-2.536,3.135-2.536,3.135s-2.4-1.141-2.462-2.651a19.776,19.776,0,0,1,.238-3.192.878.878,0,0,1,.755-.747Z" transform="translate(-140.284 -101.973)" fill="#1e64cc"/>
        <path id="Path_8739" data-name="Path 8739" d="M325.064,193.068c-.2-4.735-3.282-26.358-3.282-26.358l-2.306.287c-.172,3.077-1.805,21.565-1.805,26.464s4.185,10.372,4.185,10.372S325.261,197.794,325.064,193.068Z" transform="translate(-140.198 -102.825)" fill="#1e64cc"/>
        <path id="Path_8740" data-name="Path 8740" d="M369.695,180.881a9.846,9.846,0,0,0,2.314,1.452.468.468,0,0,0,.213,0c.9-.074,7.172-.821,10-6.064a.541.541,0,0,0,.066-.3A10.289,10.289,0,0,0,381,172.166a.484.484,0,0,0-.771-.1c-1.346,1.461-5.654,5.843-10.422,7.96a.484.484,0,0,0-.115.853Z" transform="translate(-149.494 -103.759)" fill="#fff"/>
        <path id="Path_8741" data-name="Path 8741" d="M278.8,241.984l-4.029,8.206a3.176,3.176,0,0,1-4.407,1.362L218.43,222.281,223,213l54.267,24.733a3.176,3.176,0,0,1,1.534,4.251Z" transform="translate(-122.395 -111.129)" fill="#1e64cc"/>
        <path id="Path_8742" data-name="Path 8742" d="M278.8,241.984l-4.029,8.206a3.176,3.176,0,0,1-4.407,1.362L218.43,222.281,223,213l54.267,24.733a3.176,3.176,0,0,1,1.534,4.251Z" transform="translate(-122.395 -111.129)" opacity="0.4"/>
        <path id="Path_8743" data-name="Path 8743" d="M205.691,165.863c-.066-.164-.123-.32-.181-.476-.222-.574-.46-1.141-.706-1.707l-.107-.222c-.213-.492-.443-.977-.681-1.461-.082-.172-.172-.336-.263-.509-.205-.41-.419-.821-.64-1.223-.09-.148-.172-.3-.254-.46-.3-.542-.624-1.075-.952-1.641l-.115-.181c-.3-.468-.6-.935-.911-1.4l-.336-.476c-.263-.377-.542-.755-.821-1.132l-.32-.435c-.386-.5-.78-1-1.182-1.485l-.123-.139c-.369-.443-.755-.878-1.141-1.3l-.394-.427c-.328-.345-.656-.689-.993-1.026l-.394-.4q-.689-.681-1.4-1.329l-.1-.09c-.451-.41-.911-.821-1.387-1.2l-.451-.369-1.149-.9-.46-.353q-.821-.591-1.641-1.157h-.057c-.533-.353-1.075-.706-1.641-1.042l-.525-.32c-.419-.254-.821-.5-1.288-.747l-.533-.3c-.6-.328-1.2-.648-1.822-.952-21.935-10.766-47.792-3.061-57.729,17.233L121.71,164.8c9.938-20.253,35.795-27.958,57.738-17.192.615.3,1.223.624,1.814.944.181.1.361.2.533.3.435.238.87.492,1.3.747l.517.312c.55.345,1.091.689,1.641,1.05l.057.041c.558.378,1.091.763,1.641,1.157l.46.353c.386.3.771.591,1.141.894l.468.377c.468.394.927.821,1.379,1.19l.1.09c.484.435.944.886,1.4,1.338.139.131.263.263.394.394.336.336.665.681.993,1.026l.394.435c.394.427.771.821,1.141,1.3l.123.14q.607.73,1.182,1.477l.328.443c.279.369.55.747.821,1.132.107.156.222.312.328.476.312.46.615.919.911,1.387.041.066.082.123.115.189.328.525.648,1.067.952,1.641l.254.468c.222.4.435.821.648,1.223l.254.509c.238.484.468.968.681,1.452.041.074.074.156.107.23.246.558.484,1.132.706,1.7l.181.476c.164.435.312.821.46,1.288.066.181.123.361.181.542.164.492.312.985.46,1.485a1.326,1.326,0,0,0,.082.279c.164.583.312,1.173.443,1.756a2.642,2.642,0,0,0,.107.492q.148.665.271,1.329a4.543,4.543,0,0,0,.1.566c.09.492.164.993.23,1.494a.818.818,0,0,0,.041.312c.082.6.139,1.2.189,1.8v.492q.049.681.074,1.354v2.954c0,.55-.049,1.108-.1,1.641,0,.263-.057.525-.082.821q-.074.7-.172,1.4a4.175,4.175,0,0,1-.139.821c-.074.451-.156.9-.246,1.346-.057.287-.123.574-.181.821-.107.46-.222.919-.345,1.37-.082.287-.156.574-.238.87l-.2.632c-.123.4-.254.821-.394,1.2-.074.222-.156.435-.238.656-.148.41-.312.821-.484,1.231-.074.189-.148.377-.23.566-.254.591-.517,1.182-.821,1.764l3.241-6.606c.287-.583.55-1.173.821-1.764.082-.189.156-.377.23-.566.172-.41.328-.821.484-1.231.082-.213.156-.435.238-.648.14-.4.271-.821.394-1.2l.2-.64.1-.312c.049-.181.09-.369.139-.558.115-.451.238-.9.336-1.362.066-.287.131-.566.189-.821.09-.451.172-.9.246-1.346.049-.287.1-.574.139-.821.066-.468.123-.935.172-1.411,0-.263.057-.525.082-.821.049-.55.074-1.1.1-1.641v-2.954a8.428,8.428,0,0,0-.074-1.362v-.484a14.781,14.781,0,0,0-.181-1.805.839.839,0,0,0-.041-.312c-.066-.492-.14-.993-.23-1.494l-.1-.558q-.123-.665-.271-1.329a2.118,2.118,0,0,0-.107-.492c-.14-.591-.287-1.182-.443-1.764a2.781,2.781,0,0,1-.082-.279c-.148-.492-.3-.985-.46-1.477-.057-.181-.115-.361-.181-.542A12.011,12.011,0,0,0,205.691,165.863Z" transform="translate(-105.044 -97.341)" fill="#1e64cc"/>
        <path id="Path_8744" data-name="Path 8744" d="M205.691,165.863c-.066-.164-.123-.32-.181-.476-.222-.574-.46-1.141-.706-1.707l-.107-.222c-.213-.492-.443-.977-.681-1.461-.082-.172-.172-.336-.263-.509-.205-.41-.419-.821-.64-1.223-.09-.148-.172-.3-.254-.46-.3-.542-.624-1.075-.952-1.641l-.115-.181c-.3-.468-.6-.935-.911-1.4l-.336-.476c-.263-.377-.542-.755-.821-1.132l-.32-.435c-.386-.5-.78-1-1.182-1.485l-.123-.139c-.369-.443-.755-.878-1.141-1.3l-.394-.427c-.328-.345-.656-.689-.993-1.026l-.394-.4q-.689-.681-1.4-1.329l-.1-.09c-.451-.41-.911-.821-1.387-1.2l-.451-.369-1.149-.9-.46-.353q-.821-.591-1.641-1.157h-.057c-.533-.353-1.075-.706-1.641-1.042l-.525-.32c-.419-.254-.821-.5-1.288-.747l-.533-.3c-.6-.328-1.2-.648-1.822-.952-21.935-10.766-47.792-3.061-57.729,17.233L121.71,164.8c9.938-20.253,35.795-27.958,57.738-17.192.615.3,1.223.624,1.814.944.181.1.361.2.533.3.435.238.87.492,1.3.747l.517.312c.55.345,1.091.689,1.641,1.05l.057.041c.558.378,1.091.763,1.641,1.157l.46.353c.386.3.771.591,1.141.894l.468.377c.468.394.927.821,1.379,1.19l.1.09c.484.435.944.886,1.4,1.338.139.131.263.263.394.394.336.336.665.681.993,1.026l.394.435c.394.427.771.821,1.141,1.3l.123.14q.607.73,1.182,1.477l.328.443c.279.369.55.747.821,1.132.107.156.222.312.328.476.312.46.615.919.911,1.387.041.066.082.123.115.189.328.525.648,1.067.952,1.641l.254.468c.222.4.435.821.648,1.223l.254.509c.238.484.468.968.681,1.452.041.074.074.156.107.23.246.558.484,1.132.706,1.7l.181.476c.164.435.312.821.46,1.288.066.181.123.361.181.542.164.492.312.985.46,1.485a1.326,1.326,0,0,0,.082.279c.164.583.312,1.173.443,1.756a2.642,2.642,0,0,0,.107.492q.148.665.271,1.329a4.543,4.543,0,0,0,.1.566c.09.492.164.993.23,1.494a.818.818,0,0,0,.041.312c.082.6.139,1.2.189,1.8v.492q.049.681.074,1.354v2.954c0,.55-.049,1.108-.1,1.641,0,.263-.057.525-.082.821q-.074.7-.172,1.4a4.175,4.175,0,0,1-.139.821c-.074.451-.156.9-.246,1.346-.057.287-.123.574-.181.821-.107.46-.222.919-.345,1.37-.082.287-.156.574-.238.87l-.2.632c-.123.4-.254.821-.394,1.2-.074.222-.156.435-.238.656-.148.41-.312.821-.484,1.231-.074.189-.148.377-.23.566-.254.591-.517,1.182-.821,1.764l3.241-6.606c.287-.583.55-1.173.821-1.764.082-.189.156-.377.23-.566.172-.41.328-.821.484-1.231.082-.213.156-.435.238-.648.14-.4.271-.821.394-1.2l.2-.64.1-.312c.049-.181.09-.369.139-.558.115-.451.238-.9.336-1.362.066-.287.131-.566.189-.821.09-.451.172-.9.246-1.346.049-.287.1-.574.139-.821.066-.468.123-.935.172-1.411,0-.263.057-.525.082-.821.049-.55.074-1.1.1-1.641v-2.954a8.428,8.428,0,0,0-.074-1.362v-.484a14.781,14.781,0,0,0-.181-1.805.839.839,0,0,0-.041-.312c-.066-.492-.14-.993-.23-1.494l-.1-.558q-.123-.665-.271-1.329a2.118,2.118,0,0,0-.107-.492c-.14-.591-.287-1.182-.443-1.764a2.781,2.781,0,0,1-.082-.279c-.148-.492-.3-.985-.46-1.477-.057-.181-.115-.361-.181-.542A12.011,12.011,0,0,0,205.691,165.863Z" transform="translate(-105.044 -97.341)" opacity="0.4"/>
        <path id="Path_8745" data-name="Path 8745" d="M137.761,228.82c-.821-.394-1.584-.821-2.355-1.223l-.689-.386c-.566-.32-1.124-.64-1.641-.977l-.673-.4c-.714-.443-1.42-.894-2.109-1.362l-.082-.049q-1.075-.739-2.093-1.5l-.607-.46c-.5-.377-.993-.771-1.485-1.165l-.591-.484c-.607-.509-1.206-1.018-1.789-1.543l-.131-.115c-.624-.566-1.231-1.141-1.822-1.731l-.517-.517c-.435-.435-.821-.878-1.272-1.329l-.517-.558c-.509-.558-1-1.124-1.485-1.69l-.148-.181c-.533-.632-1.042-1.272-1.535-1.92l-.427-.566c-.361-.484-.714-.977-1.059-1.469l-.427-.615c-.41-.6-.821-1.2-1.182-1.805l-.156-.246c-.427-.681-.821-1.379-1.231-2.076-.115-.2-.222-.4-.328-.607q-.435-.78-.821-1.576c-.115-.222-.23-.443-.336-.665-.3-.624-.6-1.247-.886-1.879,0-.1-.09-.2-.139-.3-.32-.722-.624-1.461-.911-2.2-.082-.205-.156-.418-.23-.624-.213-.55-.41-1.108-.6-1.641-.082-.238-.164-.468-.238-.706q-.3-.952-.591-1.92a1.625,1.625,0,0,0-.107-.361c-.213-.755-.4-1.518-.574-2.281-.049-.213-.1-.427-.14-.632-.131-.574-.246-1.157-.353-1.731a4.455,4.455,0,0,0-.131-.722q-.156-.977-.3-1.945a.978.978,0,0,0-.057-.4c-.1-.771-.172-1.551-.23-2.331v-.632c-.041-.591-.074-1.173-.09-1.764V175.7c0-.714.066-1.436.131-2.15,0-.336.074-.681.107-1.026q.1-.911.222-1.822c.057-.361.115-.73.181-1.1q.148-.87.32-1.748c.074-.369.156-.739.238-1.108q.205-.886.443-1.773c.107-.377.2-.755.312-1.124s.164-.55.254-.821c.164-.517.328-1.034.509-1.551.107-.287.205-.566.3-.821.205-.542.41-1.067.632-1.641l.3-.73c.336-.771.681-1.535,1.05-2.289l-3.282,6.565c-.369.763-.714,1.526-1.042,2.289-.107.246-.205.492-.3.73-.222.533-.427,1.067-.624,1.641-.107.279-.205.566-.3.821-.181.517-.353,1.034-.517,1.559-.09.271-.172.55-.254.821a1.951,1.951,0,0,1-.123.41c-.033.14-.123.476-.181.722-.164.591-.312,1.173-.451,1.764-.082.369-.156.739-.238,1.108q-.172.87-.32,1.748c-.066.369-.123.739-.181,1.108q-.123.911-.222,1.822c0,.336-.074.681-.107,1.026-.057.714-.1,1.428-.131,2.142v3.832c0,.583.049,1.173.09,1.756v.632c.057.821.14,1.559.23,2.339a1,1,0,0,0,.057.4c.09.648.189,1.3.3,1.937.041.246.09.484.131.73.107.574.222,1.149.353,1.723a2.982,2.982,0,0,0,.14.64c.172.763.369,1.526.574,2.281l.107.353c.189.648.386,1.288.591,1.928.074.238.156.468.238.7.189.558.386,1.116.6,1.641.074.213.156.418.23.632.3.739.591,1.469.911,2.2.049.1.1.2.14.3.287.632.583,1.264.886,1.887l.336.665q.41.821.821,1.576l.328.607c.394.7.821,1.387,1.231,2.076l.156.246q.566.911,1.182,1.8l.427.615c.345.492.7.985,1.059,1.469l.427.566c.5.648,1.009,1.3,1.535,1.928l.148.172c.484.574.977,1.141,1.485,1.7l.517.55c.419.451.821.894,1.28,1.338l.509.517c.6.583,1.2,1.165,1.822,1.723l.123.115q.886.821,1.8,1.551l.6.484c.484.394.977.78,1.477,1.165l.607.46c.681.509,1.379,1.009,2.093,1.493l.082.049c.689.468,1.4.919,2.109,1.362l.673.41c.55.328,1.108.656,1.641.968l.689.386q1.157.64,2.363,1.231c28.434,13.95,61.939,3.972,74.839-22.3l3.233-6.606C199.708,232.8,166.2,242.779,137.761,228.82Z" transform="translate(-101.4 -100.903)" fill="#1e64cc"/>
        <path id="Path_8746" data-name="Path 8746" d="M137.761,228.82c-.821-.394-1.584-.821-2.355-1.223l-.689-.386c-.566-.32-1.124-.64-1.641-.977l-.673-.4c-.714-.443-1.42-.894-2.109-1.362l-.082-.049q-1.075-.739-2.093-1.5l-.607-.46c-.5-.377-.993-.771-1.485-1.165l-.591-.484c-.607-.509-1.206-1.018-1.789-1.543l-.131-.115c-.624-.566-1.231-1.141-1.822-1.731l-.517-.517c-.435-.435-.821-.878-1.272-1.329l-.517-.558c-.509-.558-1-1.124-1.485-1.69l-.148-.181c-.533-.632-1.042-1.272-1.535-1.92l-.427-.566c-.361-.484-.714-.977-1.059-1.469l-.427-.615c-.41-.6-.821-1.2-1.182-1.805l-.156-.246c-.427-.681-.821-1.379-1.231-2.076-.115-.2-.222-.4-.328-.607q-.435-.78-.821-1.576c-.115-.222-.23-.443-.336-.665-.3-.624-.6-1.247-.886-1.879,0-.1-.09-.2-.139-.3-.32-.722-.624-1.461-.911-2.2-.082-.205-.156-.418-.23-.624-.213-.55-.41-1.108-.6-1.641-.082-.238-.164-.468-.238-.706q-.3-.952-.591-1.92a1.625,1.625,0,0,0-.107-.361c-.213-.755-.4-1.518-.574-2.281-.049-.213-.1-.427-.14-.632-.131-.574-.246-1.157-.353-1.731a4.455,4.455,0,0,0-.131-.722q-.156-.977-.3-1.945a.978.978,0,0,0-.057-.4c-.1-.771-.172-1.551-.23-2.331v-.632c-.041-.591-.074-1.173-.09-1.764V175.7c0-.714.066-1.436.131-2.15,0-.336.074-.681.107-1.026q.1-.911.222-1.822c.057-.361.115-.73.181-1.1q.148-.87.32-1.748c.074-.369.156-.739.238-1.108q.205-.886.443-1.773c.107-.377.2-.755.312-1.124s.164-.55.254-.821c.164-.517.328-1.034.509-1.551.107-.287.205-.566.3-.821.205-.542.41-1.067.632-1.641l.3-.73c.336-.771.681-1.535,1.05-2.289l-3.282,6.565c-.369.763-.714,1.526-1.042,2.289-.107.246-.205.492-.3.73-.222.533-.427,1.067-.624,1.641-.107.279-.205.566-.3.821-.181.517-.353,1.034-.517,1.559-.09.271-.172.55-.254.821a1.951,1.951,0,0,1-.123.41c-.033.14-.123.476-.181.722-.164.591-.312,1.173-.451,1.764-.082.369-.156.739-.238,1.108q-.172.87-.32,1.748c-.066.369-.123.739-.181,1.108q-.123.911-.222,1.822c0,.336-.074.681-.107,1.026-.057.714-.1,1.428-.131,2.142v3.832c0,.583.049,1.173.09,1.756v.632c.057.821.14,1.559.23,2.339a1,1,0,0,0,.057.4c.09.648.189,1.3.3,1.937.041.246.09.484.131.73.107.574.222,1.149.353,1.723a2.982,2.982,0,0,0,.14.64c.172.763.369,1.526.574,2.281l.107.353c.189.648.386,1.288.591,1.928.074.238.156.468.238.7.189.558.386,1.116.6,1.641.074.213.156.418.23.632.3.739.591,1.469.911,2.2.049.1.1.2.14.3.287.632.583,1.264.886,1.887l.336.665q.41.821.821,1.576l.328.607c.394.7.821,1.387,1.231,2.076l.156.246q.566.911,1.182,1.8l.427.615c.345.492.7.985,1.059,1.469l.427.566c.5.648,1.009,1.3,1.535,1.928l.148.172c.484.574.977,1.141,1.485,1.7l.517.55c.419.451.821.894,1.28,1.338l.509.517c.6.583,1.2,1.165,1.822,1.723l.123.115q.886.821,1.8,1.551l.6.484c.484.394.977.78,1.477,1.165l.607.46c.681.509,1.379,1.009,2.093,1.493l.082.049c.689.468,1.4.919,2.109,1.362l.673.41c.55.328,1.108.656,1.641.968l.689.386q1.157.64,2.363,1.231c28.434,13.95,61.939,3.972,74.839-22.3l3.233-6.606C199.708,232.8,166.2,242.779,137.761,228.82Z" transform="translate(-101.4 -100.903)" opacity="0.4"/>
        <path id="Path_8747" data-name="Path 8747" d="M131.151,127.729l-.451-.689a56.534,56.534,0,0,1,6.343-3.586l.361.739a54.252,54.252,0,0,0-6.253,3.537Zm12.4-6.072-.271-.771a61.094,61.094,0,0,1,30.362-2.265l-.14.821A60.421,60.421,0,0,0,143.551,121.657Z" transform="translate(-106.656 -94.026)" fill="#1e64cc"/>
        <path id="Path_8748" data-name="Path 8748" d="M110.3,149.75c12.892-26.259,46.389-36.238,74.831-22.279s41.03,46.561,28.155,72.82-46.4,36.254-74.839,22.3S97.412,176.009,110.3,149.75Zm91.218,44.764c9.938-20.253.222-45.42-21.721-56.187s-47.792-3.061-57.729,17.233-.213,45.42,21.721,56.187,47.776,3.069,57.729-17.233" transform="translate(-102.09 -94.654)" fill="#1e64cc"/>
        <path id="Path_8749" data-name="Path 8749" d="M282.622,233.928l-4.1,8.3a3.168,3.168,0,0,1-4.325,1.4L221.43,215.85l5.391-10.93,54.258,24.733a3.167,3.167,0,0,1,1.543,4.275Z" transform="translate(-122.933 -109.679)" fill="#1e64cc"/>
        <path id="Path_8750" data-name="Path 8750" d="M204.915,197.4c10.134-20.638.23-46.282-22.156-57.254s-48.7-3.118-58.837,17.52-.213,46.29,22.156,57.262,48.695,3.135,58.829-17.528" transform="translate(-104.727 -97.17)" fill="#fff" opacity="0.1"/>
        <path id="Path_8751" data-name="Path 8751" d="M182.79,140.157a48.161,48.161,0,0,0-17.618-4.817L120.457,168.8a40.514,40.514,0,0,0,1.075,17.233Z" transform="translate(-104.735 -97.197)" fill="#fff" opacity="0.1"/>
        <path id="Path_8752" data-name="Path 8752" d="M275.369,221.495c-3.332-1.2-5.621,1.018-7.927,2.166-.394.2-.279,1.362.509,1.477a3.619,3.619,0,0,0,2.8-.484,4.384,4.384,0,0,0,5.908-.254A4.489,4.489,0,0,0,275.369,221.495Z" transform="translate(-131.148 -112.591)" fill="#b55b52"/>
        <path id="Path_8753" data-name="Path 8753" d="M330.334,125.723h-1.9a.222.222,0,0,1-.222-.271l.952-4.382a.23.23,0,0,1,.222-.181h0a.213.213,0,0,1,.213.181l.952,4.382a.222.222,0,0,1-.041.189.205.205,0,0,1-.172.082Zm-1.641-.443h1.346l-.673-3.1Z" transform="translate(-142.088 -94.605)" fill="#fff"/>
      </g>
      <g id="freepik--question-marks--inject-165" transform="translate(191.917 49.57)">
        <path id="Path_8754" data-name="Path 8754" d="M258.382,93.487l-4.653,7.385-.739-.468a10.832,10.832,0,0,1-2.8-2.355,8.206,8.206,0,0,1-1.346-2.634,47.6,47.6,0,0,1-1.026-5.958c-.189-1.584-.648-2.61-1.362-3.053a2.544,2.544,0,0,0-2.06-.386,3.233,3.233,0,0,0-1.8,1.543,3.619,3.619,0,0,0-.525,2.856,6.31,6.31,0,0,0,2.462,3.168l-5.695,6.959a12.186,12.186,0,0,1-4.792-7.246q-.878-4.234,2.56-9.675a14.193,14.193,0,0,1,6.081-5.744,8.7,8.7,0,0,1,8.608.476,7.386,7.386,0,0,1,2.61,2.921,18.66,18.66,0,0,1,1.4,6.1,11.981,11.981,0,0,0,.935,4.054,5.99,5.99,0,0,0,2.134,2.06Zm-2.847,8.879,4.981-7.911,6.983,4.4-4.989,7.919Z" transform="translate(-233.872 -54.484)" fill="#1e64cc"/>
        <path id="Path_8755" data-name="Path 8755" d="M341.723,69.281l-6.155-3.348.336-.615a8.706,8.706,0,0,1,1.74-2.355,6.564,6.564,0,0,1,2.035-1.214,38.518,38.518,0,0,1,4.735-1.157,3.213,3.213,0,0,0,2.372-1.247,2.027,2.027,0,0,0,.23-1.641,2.552,2.552,0,0,0-1.329-1.362,2.921,2.921,0,0,0-2.314-.279,5.129,5.129,0,0,0-2.4,2.134l-5.859-4.169a9.757,9.757,0,0,1,5.547-4.21q3.348-.911,7.878,1.551a11.4,11.4,0,0,1,4.924,4.571,6.992,6.992,0,0,1,.057,6.909,5.843,5.843,0,0,1-2.208,2.24,14.7,14.7,0,0,1-4.809,1.436,9.4,9.4,0,0,0-3.192.96A4.735,4.735,0,0,0,341.723,69.281Zm-7.254-1.83,6.565,3.586-3.159,5.81-6.565-3.586Z" transform="translate(-251.352 -49.57)" fill="#1e64cc"/>
        <path id="Path_8756" data-name="Path 8756" d="M354.4,91.933,352.76,86.7l.525-.164a6.8,6.8,0,0,1,2.265-.369,4.924,4.924,0,0,1,1.8.427,28.962,28.962,0,0,1,3.282,1.937,2.511,2.511,0,0,0,2.01.591,1.641,1.641,0,0,0,1.042-.821,2.043,2.043,0,0,0,0-1.485,2.281,2.281,0,0,0-1.149-1.42,4.021,4.021,0,0,0-2.511-.115l-1.009-5.547a7.648,7.648,0,0,1,5.416.665q2.372,1.3,3.578,5.162a8.871,8.871,0,0,1,.254,5.235,5.457,5.457,0,0,1-3.75,3.89,4.513,4.513,0,0,1-2.462.057,11.718,11.718,0,0,1-3.488-1.814,7.386,7.386,0,0,0-2.314-1.206,3.791,3.791,0,0,0-1.846.213Zm-3.077-4.981,1.748,5.6L348.148,94.1,346.4,88.5Z" transform="translate(-254.059 -54.941)" fill="#1e64cc"/>
      </g>
    </g>
    <text id="If_you_think_that_your_worst_can_happen_through_multiple_ways_in_one_single_session_focus_on_only_a_single_way." data-name="If you think that your worst can happen through multiple ways; in one single session focus on only a single way." transform="translate(26 564)" fill="#fff" font-size="18" font-family="ArialMT, Arial"><tspan x="21.409" y="16">If you think that your worst can happen </tspan><tspan x="0.403" y="47">through multiple ways; in one single session </tspan><tspan x="69.107" y="78">focus on only a single way.</tspan></text>
    <g id="Component_119_275" data-name="Component 119 – 275" transform="translate(0 779.277)">
      <rect id="Rectangle_1927" data-name="Rectangle 1927" width="412" height="67" transform="translate(0 0.722)" fill="#102646"/>
      <path id="Path_4714" data-name="Path 4714" d="M1053,4508.186h411.151" transform="translate(-1053 -4508.186)" fill="none" stroke="#fff" stroke-width="2" opacity="0.206"/>
      <g id="Group_3096" data-name="Group 3096" transform="translate(-3 -997.186)">
        <text id="Next" transform="translate(318 1038)" fill="#f2f5f7" font-size="18" font-family="ArialMT, Arial"><tspan x="0" y="0">Next</tspan></text>
        <path id="Icon_ionic-ios-arrow-back" data-name="Icon ionic-ios-arrow-back" d="M14.033,14.264l6.109-6.1a1.154,1.154,0,0,0-1.634-1.629l-6.921,6.916a1.152,1.152,0,0,0-.034,1.591L18.5,22a1.154,1.154,0,1,0,1.634-1.629Z" transform="translate(389.251 1046.266) rotate(180)" fill="#f2f5f7"/>
      </g>
      <g id="Group_3224" data-name="Group 3224" transform="translate(2.529 7.076)">
        <g id="Group_3212" data-name="Group 3212" transform="translate(34.47 14.737)">
          <text id="Back" transform="translate(19.06 18)" fill="#fff" font-size="18" font-family="ArialMT, Arial"><tspan x="0" y="0">Back</tspan></text>
          <path id="Icon_ionic-ios-arrow-back-2" data-name="Icon ionic-ios-arrow-back" d="M14.033,14.264l6.109-6.1a1.154,1.154,0,0,0-1.634-1.629l-6.921,6.916a1.152,1.152,0,0,0-.034,1.591L18.5,22a1.154,1.154,0,1,0,1.634-1.629Z" transform="translate(-11.251 -3.193)" fill="#fff"/>
        </g>
      </g>
    </g>
    <g id="Group_3234" data-name="Group 3234" transform="translate(4.012 -10.262)">
      <path id="Icon_ionic-ios-arrow-back-3" data-name="Icon ionic-ios-arrow-back" d="M15.217,17.7,23.926,9A1.645,1.645,0,1,0,21.6,6.674l-9.867,9.86a1.642,1.642,0,0,0-.048,2.268l9.908,9.929a1.645,1.645,0,0,0,2.33-2.323Z" transform="translate(362.579 30.069)" fill="#fff"/>
      <path id="Icon_ionic-ios-arrow-back-4" data-name="Icon ionic-ios-arrow-back" d="M3.967,11.506l8.709-8.7A1.645,1.645,0,1,0,10.346.481L.479,10.341a1.642,1.642,0,0,0-.048,2.268l9.908,9.929a1.645,1.645,0,1,0,2.33-2.323Z" transform="translate(377.472 59.28) rotate(180)" fill="#fff"/>
    </g>
  </g>
</svg>
