<svg xmlns="http://www.w3.org/2000/svg" xmlns:xlink="http://www.w3.org/1999/xlink" width="412" height="847" viewBox="0 0 412 847">
  <defs>
    <clipPath id="clip-CBT_S8_E1_3">
      <rect width="412" height="847"/>
    </clipPath>
  </defs>
  <g id="CBT_S8_E1_3" data-name="CBT /  S8 / E1 – 3" clip-path="url(#clip-CBT_S8_E1_3)">
    <rect width="412" height="847" fill="#102646"/>
    <g id="Group_3601" data-name="Group 3601" transform="translate(657 -378)">
      <g id="Group_3103" data-name="Group 3103" transform="translate(-4 158)">
        <g id="Group_1500" data-name="Group 1500" transform="translate(71 65)">
          <text id="You_can_t_engage_in_imagery_if_you_re_distracted._Find_a_quiet_place_where_you_can_be_alone_for_at_least_ten_minutes." data-name="You can’t engage in imagery if you’re distracted. Find a quiet place where you can be alone for at least ten minutes." transform="translate(-698 311)" fill="#fff" font-size="18" font-family="ArialMT, Arial"><tspan x="28.739" y="16">You can’t engage in imagery if you’re </tspan><tspan x="16.909" y="47">distracted. Find a quiet place where you </tspan><tspan x="28.41" y="78">can be alone for at least ten minutes.</tspan></text>
          <text id="Find_a_quiet_setting" data-name="Find a quiet setting" transform="translate(-689 256)" fill="#fff" font-size="24" font-family="Arial-BoldMT, Arial" font-weight="700"><tspan x="57.002" y="22">Find a quiet setting</tspan></text>
        </g>
      </g>
    </g>
    <g id="Group_3088" data-name="Group 3088" transform="translate(20 472.516)">
      <text id="Rate_your_pre-imagery_level" data-name="Rate your pre-imagery level" transform="translate(68 -31.516)" fill="#fff" font-size="19" font-family="SegoeUI-Bold, Segoe UI" font-weight="700"><tspan x="0" y="0">Rate your pre-imagery level</tspan></text>
      <text id="_03" data-name="03" transform="translate(88 37.484)" fill="#fff" font-size="23" font-family="SegoeUI-Bold, Segoe UI" font-weight="700"><tspan x="-26.459" y="0">03</tspan></text>
      <text id="Severity" transform="translate(98 57.484)" fill="#fff" font-size="14" font-family="SegoeUI, Segoe UI"><tspan x="-48.563" y="0">Severity</tspan></text>
      <g id="Group_3102" data-name="Group 3102" transform="translate(14 100.483)">
        <rect id="Rectangle_1708" data-name="Rectangle 1708" width="346" height="5" rx="2.5" fill="#dce9f5"/>
      </g>
      <circle id="Ellipse_571" data-name="Ellipse 571" cx="16" cy="16" r="16" transform="translate(57 86.483)" fill="#d2dff2"/>
    </g>
    <g id="Component_119_272" data-name="Component 119 – 272" transform="translate(0 779.277)">
      <rect id="Rectangle_1927" data-name="Rectangle 1927" width="412" height="67" transform="translate(0 0.722)" fill="#102646"/>
      <path id="Path_4714" data-name="Path 4714" d="M1053,4508.186h411.151" transform="translate(-1053 -4508.186)" fill="none" stroke="#fff" stroke-width="2" opacity="0.206"/>
      <g id="Group_3096" data-name="Group 3096" transform="translate(-3 -997.186)">
        <text id="Next" transform="translate(318 1038)" fill="#f2f5f7" font-size="18" font-family="ArialMT, Arial"><tspan x="0" y="0">Next</tspan></text>
        <path id="Icon_ionic-ios-arrow-back" data-name="Icon ionic-ios-arrow-back" d="M14.033,14.264l6.109-6.1a1.154,1.154,0,0,0-1.634-1.629l-6.921,6.916a1.152,1.152,0,0,0-.034,1.591L18.5,22a1.154,1.154,0,1,0,1.634-1.629Z" transform="translate(389.251 1046.266) rotate(180)" fill="#f2f5f7"/>
      </g>
      <g id="Group_3224" data-name="Group 3224" transform="translate(2.529 7.076)">
        <g id="Group_3212" data-name="Group 3212" transform="translate(34.47 14.737)">
          <text id="Back" transform="translate(19.06 18)" fill="#fff" font-size="18" font-family="ArialMT, Arial"><tspan x="0" y="0">Back</tspan></text>
          <path id="Icon_ionic-ios-arrow-back-2" data-name="Icon ionic-ios-arrow-back" d="M14.033,14.264l6.109-6.1a1.154,1.154,0,0,0-1.634-1.629l-6.921,6.916a1.152,1.152,0,0,0-.034,1.591L18.5,22a1.154,1.154,0,1,0,1.634-1.629Z" transform="translate(-11.251 -3.193)" fill="#fff"/>
        </g>
      </g>
    </g>
    <g id="Group_3234" data-name="Group 3234" transform="translate(4.012 -10.262)">
      <path id="Icon_ionic-ios-arrow-back-3" data-name="Icon ionic-ios-arrow-back" d="M15.217,17.7,23.926,9A1.645,1.645,0,1,0,21.6,6.674l-9.867,9.86a1.642,1.642,0,0,0-.048,2.268l9.908,9.929a1.645,1.645,0,0,0,2.33-2.323Z" transform="translate(362.579 30.069)" fill="#fff"/>
      <path id="Icon_ionic-ios-arrow-back-4" data-name="Icon ionic-ios-arrow-back" d="M3.967,11.506l8.709-8.7A1.645,1.645,0,1,0,10.346.481L.479,10.341a1.642,1.642,0,0,0-.048,2.268l9.908,9.929a1.645,1.645,0,1,0,2.33-2.323Z" transform="translate(377.472 59.28) rotate(180)" fill="#fff"/>
    </g>
  </g>
</svg>
