<svg xmlns="http://www.w3.org/2000/svg" xmlns:xlink="http://www.w3.org/1999/xlink" width="412" height="847" viewBox="0 0 412 847">
  <defs>
    <linearGradient id="linear-gradient" x1="0.5" x2="0.5" y2="1" gradientUnits="objectBoundingBox">
      <stop offset="0" stop-color="#37aadd"/>
      <stop offset="1" stop-color="#1f64cc"/>
    </linearGradient>
    <clipPath id="clip-CBT_S8_Success_page_2_4">
      <rect width="412" height="847"/>
    </clipPath>
  </defs>
  <g id="CBT_S8_Success_page_2_4" data-name="CBT /  S8 Success page 2 – 4" clip-path="url(#clip-CBT_S8_Success_page_2_4)">
    <rect width="412" height="847" fill="url(#linear-gradient)"/>
    <g id="Background" transform="translate(-0.372)" style="isolation: isolate">
      <path id="Mask" d="M0,0H414a0,0,0,0,1,0,0V423a34,34,0,0,1-34,34H34A34,34,0,0,1,0,423V0A0,0,0,0,1,0,0Z" transform="translate(0.372)" fill="#102646"/>
      <g id="Group_3448" data-name="Group 3448" transform="translate(-115.609 265.891)">
        <g id="Group_3441" data-name="Group 3441" transform="translate(181.002 83.291)">
          <path id="Path_7460" data-name="Path 7460" d="M304.17,249.542s1.512-14.554,27.217-15.31,35.345,23.815,35.345,34.211-4.347,19.468-10.4,26.461a3.315,3.315,0,0,0,2.079,2.835c2.079.945-.756,6.8-6.237,5.67Z" transform="translate(-304.17 -227.732)" fill="#7c3314"/>
          <path id="Path_7461" data-name="Path 7461" d="M539.594,286a4.6,4.6,0,0,1-3.193.624s-.162-.043-.33-.092c-2.7-.794-4.11-2.8-5.819-5.232-2.191-3.114-4.293-6.1-3.2-8.9,1.023-2.633,4.113-3.453,4.344-3.511,4.026-1,8.083,2.247,9.761,5.49a10.475,10.475,0,0,1,.992,6.1C542.005,281.735,541.663,284.8,539.594,286Z" transform="translate(-479.395 -254.882)" fill="#964526"/>
          <path id="Path_7462" data-name="Path 7462" d="M539.98,379.821c-.625,1.557-3.2,1.777-4.678,1.559-.582-.086-2.785-.411-3.609-2.2-.94-2.036.38-4.971,2.333-5.459,1.65-.412,3.172,1.068,3.969,1.843C538.592,376.149,540.651,378.151,539.98,379.821Z" transform="translate(-483.041 -337.504)" fill="#964526"/>
          <path id="Path_7463" data-name="Path 7463" d="M422.568,215.722c-.378.406-1.214,1.109-7.748.97-4.7-.1-7.074-.173-8.516-1.277-2-1.531-3.663-4.64-2.692-7.391.936-2.652,3.838-3.6,4.7-3.882,2.616-.854,4.853-.19,7.655.643,3.288.977,5.243,1.558,6.524,3.516C423.909,210.466,424.245,213.922,422.568,215.722Z" transform="translate(-382.23 -203.744)" fill="#964526"/>
          <path id="Path_7464" data-name="Path 7464" d="M505.4,317.612a3.212,3.212,0,0,1-2.909,1.735c-1.941-.044-3.384-2.048-3.439-3.863-.049-1.616.99-3.529,2.419-3.691,1.121-.127,2.033.874,2.565,1.458C504.449,313.705,506.287,315.725,505.4,317.612Z" transform="translate(-457.587 -288.796)" fill="#964526"/>
          <path id="Path_7465" data-name="Path 7465" d="M330.114,254.2c.461,1.361-4.147,4.7-5.234,3.908-.618-.453-.018-2.188.02-2.294a3.5,3.5,0,0,1,1.985-2.126C328.159,253.2,329.869,253.476,330.114,254.2Z" transform="translate(-320.255 -242.868)" fill="#964526"/>
          <path id="Path_7466" data-name="Path 7466" d="M561.9,451.639c-.995.726-3.3,1.926-4.9,1.032-2.168-1.208-2.127-5.72-.271-8.48.945-1.406,3.148-3.528,5.111-2.855,2.153.737,2.434,4.292,2.462,4.653A6.479,6.479,0,0,1,561.9,451.639Z" transform="translate(-501.907 -390.683)" fill="#964526"/>
          <path id="Path_7467" data-name="Path 7467" d="M512.851,496.581s.185,7.112,6.437,9.817c0,0-.415,5.118-8.354,3.7S512.851,496.581,512.851,496.581Z" transform="translate(-464.508 -434.276)" fill="#965626"/>
          <path id="Path_7468" data-name="Path 7468" d="M565.586,284.3a3.212,3.212,0,0,1-2.909,1.735c-1.941-.044-3.384-2.048-3.439-3.863-.049-1.616.99-3.529,2.419-3.691,1.121-.127,2.033.874,2.565,1.458C564.635,280.392,566.473,282.411,565.586,284.3Z" transform="translate(-504.967 -262.57)" fill="#aa623d"/>
          <path id="Path_7469" data-name="Path 7469" d="M410.456,211.726c1.324.344,3.878,1.341,3.816,2.761-.084,1.919-4.908,3.783-8.874,3.731-2.02-.027-5.5-.573-5.871-2.133-.409-1.711,3.219-3.384,3.587-3.554A11.719,11.719,0,0,1,410.456,211.726Z" transform="translate(-379.212 -209.798)" fill="#aa623d"/>
          <path id="Path_7470" data-name="Path 7470" d="M541.447,378.525c.648-.392,2.06.278,2.8.789.291.2,1.394.964,1.47,1.862.086,1.025-1.21,1.723-2.345,1.334a3.44,3.44,0,0,1-1.733-1.837C541.439,380.285,540.753,378.946,541.447,378.525Z" transform="translate(-490.724 -341.245)" fill="#aa623d"/>
          <path id="Path_7471" data-name="Path 7471" d="M565.135,452.491c-.695.585-1.4.74-1.733.456-.553-.474.025-2.1.92-3.291.8-1.058,2.064-2.058,2.569-1.835.4.175.163,1.033.027,1.533A6.477,6.477,0,0,1,565.135,452.491Z" transform="translate(-508.076 -395.866)" fill="#aa623d"/>
          <path id="Path_7472" data-name="Path 7472" d="M333.139,257.195c.355.544-3.193,1.882-4.03,1.563-.476-.181-.014-.875.015-.918a2.241,2.241,0,0,1,1.528-.85C331.633,256.8,332.95,256.906,333.139,257.195Z" transform="translate(-323.634 -245.584)" fill="#aa623d"/>
          <path id="Path_7473" data-name="Path 7473" d="M517.468,526.227s2.564,1.1,4.471-2.55C521.939,523.677,521.736,527.918,517.468,526.227Z" transform="translate(-472.086 -455.607)" fill="#613314"/>
          <path id="Path_7474" data-name="Path 7474" d="M533.891,464.53a89.6,89.6,0,0,1-2.41-13.254S528.079,457.868,533.891,464.53Z" transform="translate(-482.338 -398.61)" fill="#612214"/>
        </g>
        <g id="Group_3442" data-name="Group 3442" transform="translate(202.986 159.716)">
          <path id="Path_7475" data-name="Path 7475" d="M407.492,565.574a7.985,7.985,0,0,0,6.376,6.083,12.608,12.608,0,0,1-2.339-8.488S407.879,561.857,407.492,565.574Z" transform="translate(-407.492 -562.944)" fill="#a4c53a"/>
          <path id="Path_7476" data-name="Path 7476" d="M419.3,573.33a5.839,5.839,0,0,0,2.4,5.14A48.092,48.092,0,0,1,419.3,573.33Z" transform="translate(-416.774 -571.12)" fill="#a2b33a"/>
        </g>
        <g id="Group_3443" data-name="Group 3443" transform="translate(216.44 53.691)">
          <path id="Path_7477" data-name="Path 7477" d="M470.73,111.54s15.972-3.826,20.319-15.733,4.158-31.187,4.158-31.187,11.53,13.987,11.53,28.54-15.729,25.27-32.719,20.668C474.018,113.828,470.682,113.948,470.73,111.54Z" transform="translate(-470.73 -64.62)" fill="#a4c53a"/>
          <path id="Path_7478" data-name="Path 7478" d="M517.153,172.838s26.32-9.072,20.555-31.376C537.708,141.462,551.978,171.231,517.153,172.838Z" transform="translate(-507.276 -125.113)" fill="#a2b33a"/>
          <path id="Path_7479" data-name="Path 7479" d="M551.9,117.571s8.713-.756,8.15-35.628C560.048,81.943,569.419,113.071,551.9,117.571Z" transform="translate(-534.628 -78.257)" fill="#b6db3a"/>
          <path id="Path_7480" data-name="Path 7480" d="M597.826,124.408a1.446,1.446,0,0,1-.565-2.837,1.378,1.378,0,0,1,1.273.923A1.481,1.481,0,0,1,597.826,124.408Z" transform="translate(-569.424 -109.451)" fill="#7fac27"/>
          <path id="Path_7481" data-name="Path 7481" d="M608.182,151.35c-1-.054-1.781-1.69-1.418-2.174.274-.365,1.3-.2,1.9.323.079.069.761.661.558,1.245A1.067,1.067,0,0,1,608.182,151.35Z" transform="translate(-577.749 -131.031)" fill="#7fac27"/>
          <path id="Path_7482" data-name="Path 7482" d="M583.138,161.326c-.4.25-1.044.4-1.295.117-.318-.357.187-1.2.237-1.279.463-.771,1.443-1.393,1.794-1.143C584.266,159.3,584.022,160.767,583.138,161.326Z" transform="translate(-558.12 -138.893)" fill="#7fac27"/>
          <path id="Path_7483" data-name="Path 7483" d="M596,174.8c-1.057-.791-.476-3.4.5-3.678.667-.193,1.625.669,1.985,1.559a1.877,1.877,0,0,1,.037,1.615A1.908,1.908,0,0,1,596,174.8Z" transform="translate(-568.907 -148.44)" fill="#7fac27"/>
          <path id="Path_7484" data-name="Path 7484" d="M590.207,231.312c-.606.007-1.342-.253-1.36-.568s.711-.625,1.19-.734c.822-.187,1.873-.021,1.937.331S591.111,231.3,590.207,231.312Z" transform="translate(-563.715 -194.76)" fill="#7fac27"/>
          <path id="Path_7485" data-name="Path 7485" d="M537.707,254.106c-.373.176-.98.306-1.132.075s.172-.73.531-1c.547-.417,1.407-.46,1.546-.19S538.267,253.842,537.707,254.106Z" transform="translate(-522.537 -212.776)" fill="#7fac27"/>
          <path id="Path_7486" data-name="Path 7486" d="M597.826,124.408a1.446,1.446,0,0,1-.565-2.837,1.378,1.378,0,0,1,1.273.923A1.481,1.481,0,0,1,597.826,124.408Z" transform="translate(-569.424 -109.451)" fill="#89b633"/>
        </g>
        <g id="Group_3444" data-name="Group 3444" transform="translate(172.219 155.851)">
          <path id="Path_7487" data-name="Path 7487" d="M272.877,546.688s-6.088,5.216-5.1,15.281,4.552,13.75,4.552,13.75-6.49.458-9.147,2.883c-2.477,2.261,11.133,2.574,17.371,2.291a33.7,33.7,0,0,0,10.914-2.339c-2.347-3.781-6.047-9.145-4.678-19.137a69.107,69.107,0,0,1,2.268-8.364C287.653,550.087,284.2,549.133,272.877,546.688Z" transform="translate(-262.888 -546.281)" fill="#a4c53a"/>
          <path id="Path_7488" data-name="Path 7488" d="M355.607,583.418s-4.631,11.341.945,19.468C356.552,602.886,345.306,596.365,355.607,583.418Z" transform="translate(-332.459 -575.196)" fill="#a2b33a"/>
          <path id="Path_7489" data-name="Path 7489" d="M298.962,544.775s-10.1,10.112-1.214,27.69c0,0-2.277-20.775,7.088-24.426Z" transform="translate(-287.453 -544.775)" fill="#b6db3a"/>
          <path id="Path_7490" data-name="Path 7490" d="M280.025,686.135s-12.262,2.268-1.772,3.19C278.253,689.325,274.5,688.049,280.025,686.135Z" transform="translate(-271.644 -656.059)" fill="#b6db3a"/>
          <path id="Path_7491" data-name="Path 7491" d="M309.294,684.691s.611,1.7,8.927,1.7A34.2,34.2,0,0,0,309.294,684.691Z" transform="translate(-299.421 -654.922)" fill="#a2b33a"/>
          <path id="Path_7492" data-name="Path 7492" d="M292.437,605.284a1.215,1.215,0,0,1-.815,1.106c-.9.238-2.073-1.1-1.808-1.886.158-.47.781-.6.822-.61A1.559,1.559,0,0,1,292.437,605.284Z" transform="translate(-284.055 -591.297)" fill="#7fac27"/>
          <path id="Path_7493" data-name="Path 7493" d="M316.458,621.948c.138.134.549.53.425.921a.9.9,0,0,1-1.133.433,1.238,1.238,0,0,1-.178-1.745C315.877,621.4,316.422,621.913,316.458,621.948Z" transform="translate(-304.143 -605.197)" fill="#7fac27"/>
          <path id="Path_7494" data-name="Path 7494" d="M322.637,595.266c-.429-.05-.831-1.02-.582-1.792s1.15-1.322,1.522-1.111c.424.241.107,1.436.094,1.487C323.511,594.432,323.069,595.317,322.637,595.266Z" transform="translate(-309.406 -582.202)" fill="#7fac27"/>
          <path id="Path_7495" data-name="Path 7495" d="M302.123,637.2c-.409.111-.976-.487-1.076-1.1-.06-.369.022-.91.319-1.028.394-.155,1.149.437,1.216,1.132C302.62,636.6,302.444,637.11,302.123,637.2Z" transform="translate(-292.914 -615.841)" fill="#7fac27"/>
          <path id="Path_7496" data-name="Path 7496" d="M336.672,630.078c-.228-.044-.376-.47-.332-.806.009-.067.079-.538.4-.606a.591.591,0,0,1,.606.4C337.512,629.529,336.977,630.137,336.672,630.078Z" transform="translate(-320.707 -610.811)" fill="#7fac27"/>
        </g>
        <g id="Group_3445" data-name="Group 3445" transform="translate(208.976 153.396)">
          <path id="Path_7497" data-name="Path 7497" d="M452.025,533.271s4.074,2.232,5.921,12.722a34.9,34.9,0,0,1-1.98,18.854s13.183,3.908,5.954,5.427-22.3.385-26.272-2.45a129.124,129.124,0,0,0,2.551-13.7c.709-6.237-.788-13.172-.661-14.365S447.234,532.74,452.025,533.271Z" transform="translate(-435.647 -533.237)" fill="#a4c53a"/>
          <path id="Path_7498" data-name="Path 7498" d="M512.489,543s7.277,13.136,2.079,27.123C514.568,570.121,515.608,555.851,512.489,543Z" transform="translate(-496.14 -540.921)" fill="#a2b33a"/>
          <path id="Path_7499" data-name="Path 7499" d="M447.2,556.663s5.812,10.053,0,25.646c0,0,15.874-10.582,6.592-27.25Z" transform="translate(-444.738 -550.416)" fill="#b6db3a"/>
          <path id="Path_7500" data-name="Path 7500" d="M476.511,685.492s7.629,1.7,10.949-.85A53.38,53.38,0,0,0,476.511,685.492Z" transform="translate(-467.817 -652.417)" fill="#a2b33a"/>
          <path id="Path_7501" data-name="Path 7501" d="M513.652,592.754c-.688-.105-.95-1.54-.992-1.772-.03-.163-.313-1.718.319-2.056.6-.322,2.031.473,2.209,1.636C515.361,591.685,514.324,592.856,513.652,592.754Z" transform="translate(-496.205 -577.021)" fill="#7fac27"/>
          <path id="Path_7502" data-name="Path 7502" d="M509.182,617.2c-.31-.157-.271-.756-.186-1.078.131-.5.56-1.037.873-.967.356.08.621.962.282,1.537C509.945,617.042,509.473,617.347,509.182,617.2Z" transform="translate(-493.342 -597.72)" fill="#7fac27"/>
          <path id="Path_7503" data-name="Path 7503" d="M529.526,625.683c-.36.135-1-.724-1.276-1.24-.152-.279-.551-1.014-.292-1.294.243-.263,1.015-.067,1.439.377C530.058,624.216,529.913,625.539,529.526,625.683Z" transform="translate(-508.25 -603.926)" fill="#7fac27"/>
          <path id="Path_7504" data-name="Path 7504" d="M491.88,637.122c.1-.279.741-.275,1.077-.224.511.078,1.159.389,1.134.673-.027.313-.872.649-1.514.394C492.171,637.8,491.786,637.379,491.88,637.122Z" transform="translate(-479.905 -614.821)" fill="#7fac27"/>
          <path id="Path_7505" data-name="Path 7505" d="M499.078,605.708c-.181.062-.5-.23-.6-.549-.175-.515.171-1.15.393-1.142s.342.641.354.709C499.284,605.061,499.3,605.633,499.078,605.708Z" transform="translate(-485.069 -588.957)" fill="#7fac27"/>
          <path id="Path_7506" data-name="Path 7506" d="M454.08,694.241s5.292,3.024,19.373,2.362C473.453,696.6,458.238,694.288,454.08,694.241Z" transform="translate(-450.158 -659.985)" fill="#b6db3a"/>
        </g>
        <g id="Group_3446" data-name="Group 3446" transform="translate(171.475 96.866)">
          <path id="Path_7507" data-name="Path 7507" d="M291.031,333.239s-24.76,1.89-30.053-21.547,2.646-42.149,23.626-43.962c20.5-1.771,31.615,9.231,34.022,29.6C320.638,314.338,318.513,330.215,291.031,333.239Z" transform="translate(-259.39 -267.545)" fill="#deeebb"/>
          <path id="Path_7508" data-name="Path 7508" d="M356.176,304.7s30.658,49.331-31.574,50.466c0,0,28.069,13.891,41.535-7.655,2.127-3.4,4.395-13.325,1.134-23.957S356.176,304.7,356.176,304.7Z" transform="translate(-310.727 -296.793)" fill="#c4e2aa"/>
          <path id="Path_7509" data-name="Path 7509" d="M285.885,323.08c5.658,3.3,13.734,5.526,22.928,5.108,8.506-.538,14.923-2.555,23.155-5.723a43.809,43.809,0,0,1-23.03,8.271C298.368,331.217,289.845,327.192,285.885,323.08Z" transform="translate(-280.248 -310.78)" fill="#92a16f"/>
          <path id="Path_7510" data-name="Path 7510" d="M267.3,377.723c7.2,5.435,17.048,8.992,26.407,8.656,9.716-.26,18.246-3.869,26.752-8.656-7.1,6.4-16.679,10.952-26.69,11.206C282.872,389.25,272.493,383.992,267.3,377.723Z" transform="translate(-265.62 -354.281)" fill="#92a16f"/>
          <path id="Path_7511" data-name="Path 7511" d="M273.3,447.188c6.85,5.981,16.5,10.268,25.873,9.865,9.666-.326,18.138-4.926,26.01-10.432-6.569,7.186-15.94,12.66-25.924,12.981C288.652,460.056,278.182,454.039,273.3,447.188Z" transform="translate(-270.34 -408.52)" fill="#92a16f"/>
          <path id="Path_7512" data-name="Path 7512" d="M293.954,502.963a41.024,41.024,0,0,0,11,5.819,31.884,31.884,0,0,0,11.969,1.771,34.893,34.893,0,0,0,11.828-2.744,65.509,65.509,0,0,0,10.994-6,37.016,37.016,0,0,1-10.148,7.822,29.523,29.523,0,0,1-12.56,3.473,28.811,28.811,0,0,1-23.08-10.138Z" transform="translate(-286.6 -451.964)" fill="#92a16f"/>
          <path id="Path_7513" data-name="Path 7513" d="M463.279,371.1c.2.763-.873,1.714-2.406,2.124s-2.942.125-3.146-.637.873-1.714,2.406-2.124S463.075,370.334,463.279,371.1Z" transform="translate(-415.509 -348.415)" fill="#f2f8e4"/>
          <path id="Path_7514" data-name="Path 7514" d="M356.321,395.3c-.183.654-1.38.89-2.675.528s-2.2-1.185-2.013-1.839,1.38-.89,2.675-.528S356.5,394.643,356.321,395.3Z" transform="translate(-331.988 -366.535)" fill="#f2f8e4"/>
          <path id="Path_7515" data-name="Path 7515" d="M340.285,332.727a1.385,1.385,0,1,1-1.012-1.357A1.217,1.217,0,0,1,340.285,332.727Z" transform="translate(-321.018 -317.741)" fill="#f2f8e4"/>
          <path id="Path_7516" data-name="Path 7516" d="M412.908,470.6c.193.72-1.017,1.668-2.7,2.12s-3.206.234-3.4-.486,1.017-1.669,2.7-2.12S412.715,469.884,412.908,470.6Z" transform="translate(-375.427 -426.832)" fill="#f2f8e4"/>
          <path id="Path_7517" data-name="Path 7517" d="M489.854,409.29a1.59,1.59,0,1,1-1.9-.46A1.406,1.406,0,0,1,489.854,409.29Z" transform="translate(-438.54 -378.634)" fill="#f2f8e4"/>
          <path id="Path_7518" data-name="Path 7518" d="M303.276,493.777c-.34.588-1.558.519-2.723-.153s-1.833-1.694-1.493-2.281,1.558-.519,2.723.153S303.616,493.19,303.276,493.777Z" transform="translate(-290.55 -443.412)" fill="#f2f8e4"/>
          <path id="Path_7519" data-name="Path 7519" d="M489.186,529.914c.171.545-.294,1.177-1.039,1.411a1.27,1.27,0,0,1-1.659-.562c-.171-.545.294-1.177,1.039-1.411A1.27,1.27,0,0,1,489.186,529.914Z" transform="translate(-438.142 -473.579)" fill="#f2f8e4"/>
          <path id="Path_7520" data-name="Path 7520" d="M432.844,280.082a.811.811,0,0,1-1.11.113c-.433-.25-.638-.706-.458-1.018a.811.811,0,0,1,1.11-.113C432.819,279.314,433.024,279.77,432.844,280.082Z" transform="translate(-394.653 -276.488)" fill="#f2f8e4"/>
        </g>
        <path id="Path_7521" data-name="Path 7521" d="M331.153,285.892s11.742-7.088,23.839-1.323C354.992,284.569,341.643,292.223,331.153,285.892Z" transform="translate(-144.41 -182.302)" fill="#592614"/>
        <path id="Path_7522" data-name="Path 7522" d="M277.18,105.019s-.4-14.477-6.391-21.37c-2.835-3.26-10.342-4.344-11.89-12.9-.821-4.536,2.393-7.088,3.385-8.364s5.812-11.341,15.594-11.624,19.846,1.843,24.382,10.773,1.134,13.892-4.961,22.54-2.234,19.583-2.234,19.583S287.67,112.307,277.18,105.019Z" transform="translate(-87.424 0)" fill="#a4c53a"/>
        <path id="Path_7523" data-name="Path 7523" d="M276.7,113.851c-2.011,1.225-3.971,8.426,7.354,15.632,3.086,1.963,8.925,9.072,7.279,25.08,0,0,9.367,6.784,15.038-.709,0,0-4.41-14.183-1.345-21.822A17.468,17.468,0,0,1,309,126.222c2.263-2.127,7.4-9.324-.713-12.248-3.615-1.3-10.732,6.67-16.19,5.639C283.805,118.046,283.749,109.555,276.7,113.851Z" transform="translate(-100.326 -48.74)" fill="#c8dc89"/>
        <g id="Group_3447" data-name="Group 3447" transform="translate(147.714 101.132)">
          <path id="Path_7524" data-name="Path 7524" d="M183.728,287.64s-14.507-2.042-30.107,21.148c-2.761,4.1-7.241,16.47-5.527,27.145,0,0,1.25-11.057,13.5-17.061S180.723,301.714,183.728,287.64Z" transform="translate(-147.714 -287.594)" fill="#a4c53a"/>
          <path id="Path_7525" data-name="Path 7525" d="M160.038,334.672a31.919,31.919,0,0,1,15.031-17.336c11.751-6.264,16.156-19.307,16.156-19.307s-3.168,15.385-14.306,23.137S164.533,327.421,160.038,334.672Z" transform="translate(-157.416 -295.809)" fill="#a2b33a"/>
          <path id="Path_7526" data-name="Path 7526" d="M174.356,334.956s4.5-10.866,18.088-19.546C192.444,315.41,181.465,325.067,174.356,334.956Z" transform="translate(-168.688 -309.492)" fill="#b6db3a"/>
          <path id="Path_7527" data-name="Path 7527" d="M168.416,415.654c-.118.7-.554,1.938-1.246,1.968-.666.029-1.382-1.072-1.349-2.057.044-1.3,1.4-2.451,2.064-2.215C168.471,413.558,168.553,414.848,168.416,415.654Z" transform="translate(-161.968 -386.57)" fill="#7fac27"/>
          <path id="Path_7528" data-name="Path 7528" d="M193.926,368.453a.757.757,0,1,1-.494-.751A.828.828,0,0,1,193.926,368.453Z" transform="translate(-182.906 -350.638)" fill="#7fac27"/>
          <path id="Path_7529" data-name="Path 7529" d="M231.511,355.935c-.071.2-.651.163-.937.145-.316-.021-.784-.051-.83-.234-.05-.205.424-.623.916-.6S231.582,355.734,231.511,355.935Z" transform="translate(-212.288 -340.852)" fill="#7fac27"/>
          <path id="Path_7530" data-name="Path 7530" d="M294.539,299.5a.81.81,0,0,1-.366,1.084c-.3.069-.632-.294-.76-.591-.1-.237-.181-.669.042-.859A.81.81,0,0,1,294.539,299.5Z" transform="translate(-262.333 -296.599)" fill="#7fac27"/>
          <path id="Path_7531" data-name="Path 7531" d="M267.484,350.238c-.9.446-2.2.2-2.423-.42-.213-.6.6-1.442,1.336-1.8s1.879-.488,2.223.041C268.98,348.611,268.385,349.793,267.484,350.238Z" transform="translate(-240.066 -334.915)" fill="#7fac27"/>
          <path id="Path_7532" data-name="Path 7532" d="M187.208,402.931a.894.894,0,1,1,.8-1.192A.946.946,0,0,1,187.208,402.931Z" transform="translate(-178.158 -376.978)" fill="#7fac27"/>
          <path id="Path_7533" data-name="Path 7533" d="M210.929,409.759c.053.294-.859.883-1.78.836s-1.769-.728-1.686-1.012c.072-.247.853-.217,1.635-.187C209.839,409.424,210.875,409.463,210.929,409.759Z" transform="translate(-194.746 -383.465)" fill="#7fac27"/>
        </g>
        <path id="Path_7534" data-name="Path 7534" d="M338.927,201.759a12.5,12.5,0,0,0,12.977,0S344.739,209.91,338.927,201.759Z" transform="translate(-150.53 -118.89)" fill="#b6d170"/>
        <path id="Path_7535" data-name="Path 7535" d="M424.542,132.027s.452-3.951,5.754-9.485,1.688-16.285,1.688-16.285,1.988,10.766-3.828,16.789A12.71,12.71,0,0,0,424.542,132.027Z" transform="translate(-217.928 -43.706)" fill="#a2b33a"/>
        <path id="Path_7536" data-name="Path 7536" d="M263.806,110.155a7.312,7.312,0,0,1,5.564-5.535S267.669,104.627,263.806,110.155Z" transform="translate(-91.392 -42.419)" fill="#b6db3a"/>
        <path id="Path_7537" data-name="Path 7537" d="M289.948,60.78c-.11.095,3.782-11.587,23.987-7.087C313.935,53.694,299.8,52.274,289.948,60.78Z" transform="translate(-111.97 -1.515)" fill="#b6db3a"/>
        <path id="Path_7538" data-name="Path 7538" d="M315.607,82.48c-.544,1.052-1.866,2.3-2.99,1.983-1.162-.328-1.613-2.187-1.474-3.434.225-2.017,2.16-3.92,3.4-3.588C315.816,77.785,316.59,80.576,315.607,82.48Z" transform="translate(-128.637 -20.993)" fill="#313a18"/>
        <path id="Path_7539" data-name="Path 7539" d="M389.649,86.487c-.2,1.094-1.031,2.68-2.321,2.736-1.157.051-2.084-1.157-2.42-2.081-.8-2.2.867-5.189,2.315-5.2C388.539,81.936,390.041,84.387,389.649,86.487Z" transform="translate(-186.563 -24.567)" fill="#313a18"/>
        <path id="Path_7540" data-name="Path 7540" d="M315.578,84.117c.022.131.176.988.594,1.065.512.094,1.26-1.011,1.441-2.079.137-.81.012-1.972-.425-2.079C316.6,80.88,315.323,82.584,315.578,84.117Z" transform="translate(-132.122 -23.836)" fill="#dfd1cc"/>
        <path id="Path_7541" data-name="Path 7541" d="M389.126,88.715c.036.128.282.963.707.994.52.038,1.143-1.143,1.206-2.224.048-.82-.2-1.961-.649-2.02C389.794,85.386,388.706,87.219,389.126,88.715Z" transform="translate(-189.974 -27.337)" fill="#dfd1cc"/>
        <path id="Path_7542" data-name="Path 7542" d="M294.214,106.256a17.665,17.665,0,0,1,3.727,2.068,16.106,16.106,0,0,1,1.672,1.377c.53.5,1,.991,1.5,1.39.249.206.511.389.788.577s.556.37.839.535a11.14,11.14,0,0,0,1.744.84,9.035,9.035,0,0,0,3.716.591,11.419,11.419,0,0,0,3.743-.9,14.354,14.354,0,0,0,1.79-.82c.553-.31,1.1-.713,1.718-1.111a16.645,16.645,0,0,1,8.14-2.576,24.154,24.154,0,0,0-7.265,3.8c-.523.415-1.063.9-1.7,1.321a13.532,13.532,0,0,1-1.964,1.054,14.5,14.5,0,0,1-2.1.775,11.116,11.116,0,0,1-2.262.368,10.136,10.136,0,0,1-2.3-.15,10.542,10.542,0,0,1-2.193-.673,11.216,11.216,0,0,1-1.973-1.1c-.306-.213-.6-.437-.884-.666s-.573-.482-.839-.749a19.447,19.447,0,0,1-1.4-1.646c-.427-.529-.881-1.03-1.364-1.522A32.538,32.538,0,0,0,294.214,106.256Z" transform="translate(-115.33 -43.706)" fill="#313a18"/>
        <path id="Path_7543" data-name="Path 7543" d="M334.307,107.632a7.369,7.369,0,0,1,2.267-1.154,7.916,7.916,0,0,1,2.553-.376c.217.015.435.019.651.046l.645.111a6.411,6.411,0,0,1,.627.185l.31.1.294.143a5.788,5.788,0,0,1,2.023,1.555,10.217,10.217,0,0,0-2.208-1.093,7.632,7.632,0,0,0-2.359-.41,10.977,10.977,0,0,0-2.411.219A17,17,0,0,0,334.307,107.632Z" transform="translate(-146.893 -43.584)" fill="#a2b33a"/>
        <path id="Path_7544" data-name="Path 7544" d="M345.828,115.61a1.492,1.492,0,0,1,0,1.146c-.069.208-.176.533-.38.559-.184.023-.347-.21-.483-.405a1.512,1.512,0,0,1-.354-1.075c.034-.27.194-.773.521-.816C345.51,114.968,345.81,115.572,345.828,115.61Z" transform="translate(-154.997 -50.602)" fill="#313a18"/>
        <path id="Path_7545" data-name="Path 7545" d="M359.116,117.25a1.49,1.49,0,0,1-.506,1.028c-.153.156-.393.4-.587.334-.175-.061-.218-.341-.255-.577a1.512,1.512,0,0,1,.157-1.121c.15-.227.515-.608.828-.5C359.114,116.535,359.116,117.209,359.116,117.25Z" transform="translate(-165.33 -51.688)" fill="#313a18"/>
        <path id="Path_7546" data-name="Path 7546" d="M380.382,105.652s4.939.7,6.85-1.032C387.232,104.62,384.779,110.693,380.382,105.652Z" transform="translate(-183.164 -42.419)" fill="#a4c53a"/>
        <path id="Path_7547" data-name="Path 7547" d="M304.517,98.1s4.446,2.263,6.815,1.242C311.332,99.345,307.044,104.3,304.517,98.1Z" transform="translate(-123.441 -37.288)" fill="#a4c53a"/>
        <path id="Path_7548" data-name="Path 7548" d="M379.873,108.427a7.835,7.835,0,0,1,1.724-.784,10.909,10.909,0,0,1,1.845-.436,9.368,9.368,0,0,1,1.9-.081,6.207,6.207,0,0,1,1.86.391c-.637.034-1.245.052-1.855.107s-1.212.126-1.816.214-1.207.183-1.814.286S380.5,108.336,379.873,108.427Z" transform="translate(-182.764 -44.38)" fill="#a2b33a"/>
        <path id="Path_7549" data-name="Path 7549" d="M303.148,100.16a7.838,7.838,0,0,1,1.89-.114,10.924,10.924,0,0,1,1.878.254,9.369,9.369,0,0,1,1.8.606,6.2,6.2,0,0,1,1.6,1.031c-.607-.2-1.181-.4-1.77-.565s-1.177-.317-1.772-.45-1.193-.263-1.8-.384S303.767,100.3,303.148,100.16Z" transform="translate(-122.363 -38.809)" fill="#a2b33a"/>
        <path id="Path_7550" data-name="Path 7550" d="M421.356,75.179c-1.232-.422-1.88-2.171-1.185-2.441a3.41,3.41,0,0,1,2.346.841c.2.155.77.612.736,1.049C423.207,75.2,422.138,75.447,421.356,75.179Z" transform="translate(-214.264 -17.288)" fill="#7fac27"/>
        <path id="Path_7551" data-name="Path 7551" d="M320.186,62.37c-.29-.571.953-1.721,1.581-1.683.43.027.641.614.519,1.108a1.18,1.18,0,0,1-.556.785A1.257,1.257,0,0,1,320.186,62.37Z" transform="translate(-135.742 -7.833)" fill="#7fac27"/>
        <path id="Path_7552" data-name="Path 7552" d="M341.37,56.4a2.2,2.2,0,0,1-.857-4.305,2.086,2.086,0,0,1,1.92,1.4A2.248,2.248,0,0,1,341.37,56.4Z" transform="translate(-150.401 -1.062)" fill="#7fac27"/>
        <path id="Path_7553" data-name="Path 7553" d="M361.22,58.212c-.505-.438-.132-1.553.682-2.212s1.989-.783,2.306-.206c.254.461-.119,1.219-.591,1.7C362.937,58.2,361.736,58.659,361.22,58.212Z" transform="translate(-167.898 -3.689)" fill="#7fac27"/>
        <path id="Path_7554" data-name="Path 7554" d="M395.417,61.774c-.511.136-1.063-.043-1.122-.336s.392-.671.907-.74a.846.846,0,0,1,.835.28C396.183,61.23,395.94,61.635,395.417,61.774Z" transform="translate(-194.114 -7.833)" fill="#7fac27"/>
        <path id="Path_7555" data-name="Path 7555" d="M377.244,77.016a.606.606,0,1,1,.759-.9.641.641,0,0,1,.122.717A.613.613,0,0,1,377.244,77.016Z" transform="translate(-180.451 -19.813)" fill="#7fac27"/>
      </g>
      <g id="Group_3901" data-name="Group 3901" transform="translate(114.338 9.299)">
        <circle id="Ellipse_618" data-name="Ellipse 618" cx="31.384" cy="31.384" r="31.384" transform="translate(58.643 82.63)" fill="#ff9241"/>
        <path id="Path_6594" data-name="Path 6594" d="M277.683,205.512c.4.324-5.466,8.212-13.091,17.61l-4.627,5.61-.635.767-.671-.7c-5.994-6.15-10.034-10.705-9.746-10.993s4.855,3.776,10.993,9.734l-1.295.132,4.531-5.67C270.766,212.549,277.276,205.188,277.683,205.512Z" transform="translate(-172.201 -104.744)" fill="#fff"/>
        <path id="Path_6595" data-name="Path 6595" d="M298.075,206.494c-.935-3.3-5.215-2.973-5.215-2.973l.108,2.29c2.482-.432,4.016,2.469,4.016,2.469Z" transform="translate(-163.464 -105.14)" fill="#4b8ceb"/>
        <path id="Path_6596" data-name="Path 6596" d="M222.235,212.276c-.923-3.3-5.215-2.985-5.215-2.985l.12,2.3c2.482-.432,4.016,2.47,4.016,2.47Z" transform="translate(-178.54 -103.993)" fill="#e0e0e0"/>
        <path id="Path_6597" data-name="Path 6597" d="M263.373,174.716c4.975,1.51,8.068-4.22,8.068-4.22l-3.021-1.726c-1.486,3.512-6.449,3.1-6.449,3.1Z" transform="translate(-169.603 -112.046)" fill="#e0e0e0"/>
        <path id="Path_6598" data-name="Path 6598" d="M240.559,178.88c-2.314.252-2.589,3.153-2.589,3.153l1.546.18c0-1.7,2.122-2.4,2.122-2.4Z" transform="translate(-174.377 -110.036)" fill="#4b8ceb"/>
        <path id="Path_6599" data-name="Path 6599" d="M320.161,197.147c.336-2.3-2.4-3.3-2.4-3.3L317.2,195.3c1.654.42,1.81,2.649,1.81,2.649Z" transform="translate(-158.624 -107.061)" fill="#e0e0e0"/>
        <path id="Path_6600" data-name="Path 6600" d="M251.881,154.157c.336-2.3-2.4-3.3-2.4-3.3l-.563,1.463c1.654.42,1.81,2.637,1.81,2.637Z" transform="translate(-172.2 -115.606)" fill="#4b8ceb"/>
        <path id="Path_6601" data-name="Path 6601" d="M203.714,184.83c-.408,3.6,4.364,4.483,4.364,4.483l.863-2.4c-2.865-.264-3.273-3.6-3.273-3.6Z" transform="translate(-181.189 -109.154)" fill="#4b8ceb"/>
        <path id="Path_6602" data-name="Path 6602" d="M292.621,174.187c2.326.132,3.069-2.685,3.069-2.685l-1.5-.432c-.276,1.678-2.482,2.026-2.482,2.026Z" transform="translate(-163.693 -111.589)" fill="#4b8ceb"/>
        <path id="Path_6603" data-name="Path 6603" d="M303.7,181.6a5.382,5.382,0,0,1-1.918.18,5.322,5.322,0,0,1-1.918-.18A9.687,9.687,0,0,1,303.7,181.6Z" transform="translate(-162.072 -109.533)" fill="#e0e0e0"/>
        <path id="Path_6604" data-name="Path 6604" d="M304.792,177.22a10.571,10.571,0,0,1,0,3.884,9.925,9.925,0,0,1,0-3.884Z" transform="translate(-161.132 -110.366)" fill="#e0e0e0"/>
        <path id="Path_6605" data-name="Path 6605" d="M306.56,181.493a5.384,5.384,0,0,1,1.918-.18,5.324,5.324,0,0,1,1.918.18A9.686,9.686,0,0,1,306.56,181.493Z" transform="translate(-160.74 -109.557)" fill="#e0e0e0"/>
        <path id="Path_6606" data-name="Path 6606" d="M304.9,186.466a9.986,9.986,0,0,1,0-3.9A10.645,10.645,0,0,1,304.9,186.466Z" transform="translate(-161.109 -109.303)" fill="#e0e0e0"/>
        <path id="Path_6607" data-name="Path 6607" d="M307.679,184.272c-.072.06-.444-.252-.827-.7s-.611-.875-.539-.935.456.24.827.7S307.763,184.14,307.679,184.272Z" transform="translate(-160.793 -109.29)" fill="#e0e0e0"/>
        <path id="Path_6608" data-name="Path 6608" d="M307.537,179c.072.084-.18.456-.575.851s-.767.659-.839.587.18-.456.575-.851A2.232,2.232,0,0,1,307.537,179Z" transform="translate(-160.829 -110.012)" fill="#e0e0e0"/>
        <path id="Path_6609" data-name="Path 6609" d="M303.866,180.457c-.072.084-.432-.108-.8-.42s-.611-.623-.551-.7.42.108.791.408S303.926,180.386,303.866,180.457Z" transform="translate(-161.546 -109.948)" fill="#e0e0e0"/>
        <path id="Path_6610" data-name="Path 6610" d="M303.7,182.452c.084.06-.144.432-.5.827s-.707.647-.779.575.144-.444.5-.827S303.633,182.38,303.7,182.452Z" transform="translate(-161.565 -109.329)" fill="#e0e0e0"/>
        <path id="Path_6611" data-name="Path 6611" d="M216.576,172.683a9.687,9.687,0,0,1-3.836,0,5.383,5.383,0,0,1,1.918-.18A5.323,5.323,0,0,1,216.576,172.683Z" transform="translate(-179.39 -111.308)" fill="#4b8ceb"/>
        <path id="Path_6612" data-name="Path 6612" d="M217.672,168.3a9.985,9.985,0,0,1,0,3.9A9.987,9.987,0,0,1,217.672,168.3Z" transform="translate(-178.449 -112.14)" fill="#4b8ceb"/>
        <path id="Path_6613" data-name="Path 6613" d="M219.45,172.582a9.686,9.686,0,0,1,3.836,0A9.686,9.686,0,0,1,219.45,172.582Z" transform="translate(-178.056 -111.327)" fill="#4b8ceb"/>
        <path id="Path_6614" data-name="Path 6614" d="M217.782,177.544a9.924,9.924,0,0,1,0-3.884A9.926,9.926,0,0,1,217.782,177.544Z" transform="translate(-178.426 -111.074)" fill="#4b8ceb"/>
        <path id="Path_6615" data-name="Path 6615" d="M220.569,175.272c-.084.072-.456-.24-.827-.7s-.623-.863-.539-.935.444.252.827.7S220.641,175.272,220.569,175.272Z" transform="translate(-178.108 -111.08)" fill="#4b8ceb"/>
        <path id="Path_6616" data-name="Path 6616" d="M220.427,170.1c.072.072-.192.456-.575.851s-.767.647-.839.575.18-.444.575-.839S220.355,169.984,220.427,170.1Z" transform="translate(-178.145 -111.786)" fill="#4b8ceb"/>
        <path id="Path_6617" data-name="Path 6617" d="M216.745,171.55c-.06.072-.42-.108-.791-.42s-.623-.623-.551-.707.42.108.791.42S216.817,171.466,216.745,171.55Z" transform="translate(-178.864 -111.721)" fill="#4b8ceb"/>
        <path id="Path_6618" data-name="Path 6618" d="M216.6,173.532c.072.072-.156.444-.5.839s-.707.647-.791.575.156-.444.5-.827S216.514,173.46,216.6,173.532Z" transform="translate(-178.884 -111.102)" fill="#4b8ceb"/>
      </g>
      <text id="Session_Completed_successfully" data-name="Session Completed successfully" transform="translate(27.371 190)" fill="#fff" font-size="22" font-family="Arial-BoldMT, Arial" font-weight="700"><tspan x="8.329" y="20">Session Completed successfully</tspan></text>
      <g id="Group_3902" data-name="Group 3902" transform="translate(57.277 151.39)">
        <g id="freepik--Floor--inject-1" transform="translate(34.59 301.314)">
          <path id="Path_6476" data-name="Path 6476" d="M302.879,463.652c0,.093-60.063.162-134.138.162s-134.151-.069-134.151-.162,60.051-.162,134.151-.162S302.879,463.565,302.879,463.652Z" transform="translate(-34.59 -463.49)" fill="#263238"/>
        </g>
        <g id="freepik--Plant--inject-1" transform="translate(261.027 260.402)">
          <path id="Path_6636" data-name="Path 6636" d="M419.409,397.8a7.728,7.728,0,0,1,4,4.534,13.589,13.589,0,0,1,.529,6.146c-.448,3.986-2.715,8.008-5.15,11.209-3.357-2.927-4.129-8.04-4.359-10.655-.361-4.135,1.495-11.832,4.982-11.209" transform="translate(-404.311 -397.793)" fill="#d2dff2"/>
          <path id="Path_6637" data-name="Path 6637" d="M427.642,438.459a6.589,6.589,0,0,1,2.13-6.265,8.719,8.719,0,0,1,6.452-2.018,3.743,3.743,0,0,1,2.833,1.245,2.815,2.815,0,0,1,.044,2.858,5.686,5.686,0,0,1-2.111,2.08c-2.908,1.825-6.059,3.058-9.341,2.074" transform="translate(-409.262 -409.995)" fill="#d2dff2"/>
          <path id="Path_6638" data-name="Path 6638" d="M420.81,453.068a4.754,4.754,0,0,1,.118-.816c.106-.579.243-1.32.4-2.217a23.162,23.162,0,0,1,2.285-7.068,14.168,14.168,0,0,1,5.075-5.393,9.674,9.674,0,0,1,2.068-.915,5.267,5.267,0,0,1,.623-.156c.162-.037.212-.037.212,0a13.121,13.121,0,0,0-7.7,6.626,24.826,24.826,0,0,0-2.335,6.975c-.206.928-.374,1.681-.5,2.192a4.693,4.693,0,0,1-.255.772Z" transform="translate(-406.733 -412.386)" fill="#263238"/>
          <path id="Path_6639" data-name="Path 6639" d="M420.9,407.42a1.526,1.526,0,0,1,.044.361c0,.262.037.623.062,1.028.044.891.1,2.18.149,3.78.1,3.195.181,7.61.162,12.455s-.137,9.291-.274,12.486c-.062,1.6-.125,2.89-.181,3.78-.031.423-.05.76-.069,1.028h0c.044-.355-.062.23-.062,0V441.3c0-.928.05-2.211.087-3.78.081-3.195.168-7.6.193-12.455s-.031-9.285-.081-12.455c0-1.569-.044-2.858-.062-3.786V407.8A2.716,2.716,0,0,1,420.9,407.42Z" transform="translate(-406.703 -401.425)" fill="#263238"/>
          <path id="Path_6640" data-name="Path 6640" d="M410.781,440.215a15.432,15.432,0,0,0-8.419-11.29c-1.121-.536-2.584-.891-3.506-.056s-.722,2.335-.268,3.5a13.177,13.177,0,0,0,12.112,8.177" transform="translate(-398.206 -409.329)" fill="#d2dff2"/>
          <path id="Path_6641" data-name="Path 6641" d="M405.75,435.33a3.857,3.857,0,0,1,.716.311,7.1,7.1,0,0,1,.8.43,10.986,10.986,0,0,1,1.021.623,12.9,12.9,0,0,1,1.177.884,14.568,14.568,0,0,1,1.245,1.133,17.087,17.087,0,0,1,2.373,3.045,16.813,16.813,0,0,1,1.557,3.531,14.164,14.164,0,0,1,.4,1.638,12.389,12.389,0,0,1,.2,1.451c.062.448.037.853.056,1.208a6.849,6.849,0,0,1,0,.915,4.162,4.162,0,0,1-.087.772c-.068,0,.044-1.108-.149-2.871a13.857,13.857,0,0,0-.23-1.432c-.093-.511-.255-1.046-.417-1.607a17.106,17.106,0,0,0-1.557-3.456,17.553,17.553,0,0,0-2.31-3.008,15.576,15.576,0,0,0-1.208-1.14c-.386-.349-.785-.623-1.14-.9C406.733,435.847,405.718,435.386,405.75,435.33Z" transform="translate(-401.051 -411.954)" fill="#263238"/>
        </g>
      </g>
    </g>
    <text id="Alexis_Balencesco" data-name="Alexis Balencesco" transform="translate(59 240)" fill="#fff" font-size="14" font-family="Arial-BoldItalicMT, Arial" font-weight="700" font-style="italic"><tspan x="-122.415" y="13">“Success is the sum of small efforts, </tspan><tspan x="-96.076" y="38">repeated day in and day out”</tspan></text>
    <g id="CTA" transform="translate(51 571)">
      <path id="Path_7" data-name="Path 7" d="M7.473,5H304.527C308.654,5,312,9,312,13.942v30.18c0,4.939-3.346,8.942-7.473,8.942H7.473c-4.127,0-7.473-4-7.473-8.942V13.942C0,9,3.346,5,7.473,5Z" transform="translate(0 -5)" fill="#ff9241"/>
      <text id="Next_Exercise" data-name="Next Exercise" transform="translate(72 12.563)" fill="#fff" font-size="16" font-family="ArialMT, Arial"><tspan x="34.652" y="14">Next Exercise</tspan></text>
    </g>
    <g id="CTA-2" data-name="CTA" transform="translate(51 644)">
      <g id="Path_7-2" data-name="Path 7" transform="translate(0 -5)" fill="none">
        <path d="M7.473,5H304.527C308.654,5,312,9,312,13.942v30.18c0,4.939-3.346,8.942-7.473,8.942H7.473c-4.127,0-7.473-4-7.473-8.942V13.942C0,9,3.346,5,7.473,5Z" stroke="none"/>
        <path d="M 7.473052978515625 6.000007629394531 C 3.903778076171875 6.000007629394531 1 9.562839508056641 1 13.94217300415039 L 1 44.12208938598633 C 1 48.50142288208008 3.903778076171875 52.06425476074219 7.473052978515625 52.06425476074219 L 304.5269470214844 52.06425476074219 C 308.0962219238281 52.06425476074219 311 48.50142288208008 311 44.12208938598633 L 311 13.94217300415039 C 311 9.562839508056641 308.0962219238281 6.000007629394531 304.5269470214844 6.000007629394531 L 7.473052978515625 6.000007629394531 M 7.473052978515625 5.000007629394531 L 304.5269470214844 5.000007629394531 C 308.6542358398438 5.000007629394531 312 9.003547668457031 312 13.94217300415039 L 312 44.12208938598633 C 312 49.06071472167969 308.6542358398438 53.06425476074219 304.5269470214844 53.06425476074219 L 7.473052978515625 53.06425476074219 C 3.345794677734375 53.06425476074219 0 49.06071472167969 0 44.12208938598633 L 0 13.94217300415039 C 0 9.003547668457031 3.345794677734375 5.000007629394531 7.473052978515625 5.000007629394531 Z" stroke="none" fill="#fff"/>
      </g>
      <text id="Close_Exercise" data-name="Close Exercise" transform="translate(76 12.563)" fill="#fff" font-size="16" font-family="Lato-Regular, Lato"><tspan x="29.172" y="16">Close Exercise</tspan></text>
    </g>
  </g>
</svg>
