<svg xmlns="http://www.w3.org/2000/svg" xmlns:xlink="http://www.w3.org/1999/xlink" width="412" height="924" viewBox="0 0 412 924">
  <defs>
    <clipPath id="clip-Cog_thinking_traps">
      <rect width="412" height="924"/>
    </clipPath>
  </defs>
  <g id="Cog_thinking_traps" data-name="Cog/thinking traps" clip-path="url(#clip-Cog_thinking_traps)">
    <rect width="412" height="924" fill="#102646"/>
    <text id="Fortune_telling_Jumping_to_conclusions_Catastrophizing" data-name="Fortune telling/Jumping to conclusions/Catastrophizing" transform="translate(21 185)" fill="#fff" font-size="20" font-family="Arial-BoldMT, Arial" font-weight="700"><tspan x="0" y="18">Fortune telling/Jumping to </tspan><tspan x="0" y="49">conclusions/Catastrophizing</tspan></text>
    <text id="_1_out_of_12" data-name="1 out of 12" transform="translate(21 142)" fill="#fff" font-size="14" font-family="ArialMT, Arial"><tspan x="0" y="0">1 out of 12</tspan></text>
    <g id="Group_3655" data-name="Group 3655" transform="translate(0 75)">
      <rect id="Rectangle_1845" data-name="Rectangle 1845" width="371" height="165" rx="6" transform="translate(20 252)" fill="#153669"/>
      <text id="Example" transform="translate(75 294)" fill="#8eb1e5" font-size="16" font-family="ArialMT, Arial"><tspan x="0" y="0">Example</tspan></text>
      <g id="Group_3637" data-name="Group 3637" transform="translate(20.403 -340)">
        <text id="I_will_focus_on_all_positive_things_and_will_be_grateful_to_them._I_can_achieve_anything_if_I_put_my_mind_on_it." data-name="I will focus on all positive things and will be grateful to them. 
I can achieve anything if I put my mind on it." transform="translate(20.597 661)" fill="#fff" font-size="16" font-family="ArialMT, Arial"><tspan x="0" y="14">I will focus on all positive things and will be </tspan><tspan x="0" y="37">grateful to them. </tspan><tspan x="0" y="60">I can achieve anything if I put my mind on it.</tspan></text>
      </g>
      <g id="Group_3639" data-name="Group 3639" transform="translate(7.309 -260.69)">
        <circle id="Ellipse_705" data-name="Ellipse 705" cx="12" cy="12" r="12" transform="translate(33.691 536.691)" fill="#edf4fd"/>
        <g id="Group_3638" data-name="Group 3638" transform="translate(39.284 541.152)">
          <path id="Icon_material-highlight" data-name="Icon material-highlight" d="M7.135,8.277ZM10.9,3h1.508V5.262H10.9ZM5.25,5.921,6.316,4.855l1.6,1.6L6.848,7.521ZM15.4,6.456l1.6-1.6,1.066,1.066-1.6,1.6Z" transform="translate(-5.25 -3)" fill="#1e64cc"/>
          <path id="Icon_material-lightbulb-outline" data-name="Icon material-lightbulb-outline" d="M9.582,12.889a.522.522,0,0,0,.52.52h2.082a.522.522,0,0,0,.52-.52v-.52H9.582ZM11.143,3A3.642,3.642,0,0,0,9.061,9.631v1.176a.522.522,0,0,0,.52.52H12.7a.522.522,0,0,0,.52-.52V9.631A3.642,3.642,0,0,0,11.143,3Zm1.483,5.777-.442.312v1.2H10.1V9.09L9.66,8.777a2.6,2.6,0,1,1,2.967,0Z" transform="translate(-4.737 1.667)" fill="#1e64cc"/>
        </g>
      </g>
    </g>
    <g id="Group_3656" data-name="Group 3656" transform="translate(0 378)">
      <rect id="Rectangle_1845-2" data-name="Rectangle 1845" width="371" height="162" rx="6" transform="translate(20 252)" fill="#153669"/>
      <text id="Example-2" data-name="Example" transform="translate(75 294)" fill="#8eb1e5" font-size="16" font-family="ArialMT, Arial"><tspan x="0" y="0">Example</tspan></text>
      <g id="Group_3637-2" data-name="Group 3637" transform="translate(20.403 -340)">
        <text id="If_I_don_t_get_good_numbers_in_test_some_of_my_classmates_will_think_badly_of_me_and_some_will_be_neutral_or_may_not_notice." data-name="If I don’t get good numbers in test, some of my classmates will think badly of me and some will be neutral or may not notice." transform="translate(20.597 665)" fill="#fff" font-size="16" font-family="ArialMT, Arial"><tspan x="0" y="14">If I don’t get good numbers in test, some of </tspan><tspan x="0" y="37">my classmates will think badly of me and </tspan><tspan x="0" y="60">some will be neutral or may not notice.</tspan></text>
      </g>
      <g id="Group_3639-2" data-name="Group 3639" transform="translate(7.309 -260.69)">
        <circle id="Ellipse_705-2" data-name="Ellipse 705" cx="12" cy="12" r="12" transform="translate(33.691 536.691)" fill="#edf4fd"/>
        <g id="Group_3638-2" data-name="Group 3638" transform="translate(39.284 541.152)">
          <path id="Icon_material-highlight-2" data-name="Icon material-highlight" d="M7.135,8.277ZM10.9,3h1.508V5.262H10.9ZM5.25,5.921,6.316,4.855l1.6,1.6L6.848,7.521ZM15.4,6.456l1.6-1.6,1.066,1.066-1.6,1.6Z" transform="translate(-5.25 -3)" fill="#1e64cc"/>
          <path id="Icon_material-lightbulb-outline-2" data-name="Icon material-lightbulb-outline" d="M9.582,12.889a.522.522,0,0,0,.52.52h2.082a.522.522,0,0,0,.52-.52v-.52H9.582ZM11.143,3A3.642,3.642,0,0,0,9.061,9.631v1.176a.522.522,0,0,0,.52.52H12.7a.522.522,0,0,0,.52-.52V9.631A3.642,3.642,0,0,0,11.143,3Zm1.483,5.777-.442.312v1.2H10.1V9.09L9.66,8.777a2.6,2.6,0,1,1,2.967,0Z" transform="translate(-4.737 1.667)" fill="#1e64cc"/>
        </g>
      </g>
    </g>
    <text id="Predicting_the_future_negatively_without_considering_other_more_likely_outcomes." data-name="Predicting the future negatively without considering other more likely outcomes." transform="translate(21 268)" fill="#fff" font-size="16" font-family="ArialMT, Arial"><tspan x="0" y="14">Predicting the future negatively without considering </tspan><tspan x="0" y="39">other more likely outcomes.</tspan></text>
    <text id="Make_reasonable_assumptions_on_the_basis_of_data_and_facts_in_hand." data-name="Make reasonable assumptions on the basis of data and facts in hand." transform="translate(21 571)" fill="#fff" font-size="16" font-family="ArialMT, Arial"><tspan x="0" y="14">Make reasonable assumptions on the basis of data </tspan><tspan x="0" y="39">and facts in hand.</tspan></text>
    <text id="Alternative" transform="translate(21 532)" fill="#fff" font-size="18" font-family="Arial-BoldMT, Arial" font-weight="700"><tspan x="0" y="16">Alternative</tspan></text>
    <g id="Group_3076" data-name="Group 3076" transform="translate(-45.008 -275)">
      <rect id="Rectangle_1708" data-name="Rectangle 1708" width="370" height="5" rx="2.5" transform="translate(66.008 391)" fill="#dce9f5"/>
      <rect id="Rectangle_1709" data-name="Rectangle 1709" width="88" height="5" rx="2.5" transform="translate(66.008 391)" fill="#1e64cc"/>
    </g>
    <text id="_12_Cognitive_Distortions_Thinking_Traps" data-name="12 Cognitive Distortions/Thinking Traps" transform="translate(20 26)" fill="#fff" font-size="24" font-family="Arial-BoldMT, Arial" font-weight="700"><tspan x="0" y="22">12 Cognitive Distortions/</tspan><tspan x="0" y="57">Thinking Traps</tspan></text>
    <g id="Group_3234" data-name="Group 3234" transform="translate(4.012 -10.262)">
      <path id="Icon_ionic-ios-arrow-back" data-name="Icon ionic-ios-arrow-back" d="M15.217,17.7,23.926,9A1.645,1.645,0,1,0,21.6,6.674l-9.867,9.86a1.642,1.642,0,0,0-.048,2.268l9.908,9.929a1.645,1.645,0,0,0,2.33-2.323Z" transform="translate(362.579 30.069)" fill="#fff"/>
      <path id="Icon_ionic-ios-arrow-back-2" data-name="Icon ionic-ios-arrow-back" d="M3.967,11.506l8.709-8.7A1.645,1.645,0,1,0,10.346.481L.479,10.341a1.642,1.642,0,0,0-.048,2.268l9.908,9.929a1.645,1.645,0,1,0,2.33-2.323Z" transform="translate(377.472 59.28) rotate(180)" fill="#fff"/>
    </g>
    <g id="Component_119_248" data-name="Component 119 – 248" transform="translate(0 779.278)">
      <rect id="Rectangle_1927" data-name="Rectangle 1927" width="412" height="67" transform="translate(0 0.722)" fill="#102646"/>
      <path id="Path_4714" data-name="Path 4714" d="M1053,4508.186h411.151" transform="translate(-1053 -4508.186)" fill="none" stroke="#fff" stroke-width="2" opacity="0.206"/>
      <g id="Group_3096" data-name="Group 3096" transform="translate(-3 -997.186)">
        <text id="Next" transform="translate(318 1038)" fill="#f2f5f7" font-size="18" font-family="ArialMT, Arial"><tspan x="0" y="0">Next</tspan></text>
        <path id="Icon_ionic-ios-arrow-back-3" data-name="Icon ionic-ios-arrow-back" d="M14.033,14.264l6.109-6.1a1.154,1.154,0,0,0-1.634-1.629l-6.921,6.916a1.152,1.152,0,0,0-.034,1.591L18.5,22a1.154,1.154,0,1,0,1.634-1.629Z" transform="translate(389.251 1046.266) rotate(180)" fill="#f2f5f7"/>
      </g>
      <g id="Group_3224" data-name="Group 3224" transform="translate(2.529 7.076)">
        <g id="Group_3212" data-name="Group 3212" transform="translate(34.47 14.737)">
          <text id="Back" transform="translate(19.06 18)" fill="#fff" font-size="18" font-family="ArialMT, Arial"><tspan x="0" y="0">Back</tspan></text>
          <path id="Icon_ionic-ios-arrow-back-4" data-name="Icon ionic-ios-arrow-back" d="M14.033,14.264l6.109-6.1a1.154,1.154,0,0,0-1.634-1.629l-6.921,6.916a1.152,1.152,0,0,0-.034,1.591L18.5,22a1.154,1.154,0,1,0,1.634-1.629Z" transform="translate(-11.251 -3.193)" fill="#fff"/>
        </g>
      </g>
    </g>
  </g>
</svg>
