<svg xmlns="http://www.w3.org/2000/svg" xmlns:xlink="http://www.w3.org/1999/xlink" width="412" height="847" viewBox="0 0 412 847">
  <defs>
    <linearGradient id="linear-gradient" x1="0.5" x2="0.5" y2="1" gradientUnits="objectBoundingBox">
      <stop offset="0" stop-color="#37aadd"/>
      <stop offset="1" stop-color="#1f64cc"/>
    </linearGradient>
    <filter id="Rectangle_1570" x="-24" y="84" width="460" height="786" filterUnits="userSpaceOnUse">
      <feOffset dy="-3" input="SourceAlpha"/>
      <feGaussianBlur stdDeviation="8" result="blur"/>
      <feFlood flood-opacity="0.039"/>
      <feComposite operator="in" in2="blur"/>
      <feComposite in="SourceGraphic"/>
    </filter>
    <clipPath id="clip-De-addiction_Session_4_6">
      <rect width="412" height="847"/>
    </clipPath>
  </defs>
  <g id="De-addiction_Session_4_6" data-name="De-addiction Session 4 – 6" clip-path="url(#clip-De-addiction_Session_4_6)">
    <rect width="412" height="847" fill="url(#linear-gradient)"/>
    <g transform="matrix(1, 0, 0, 1, 0, 0)" filter="url(#Rectangle_1570)">
      <path id="Rectangle_1570-2" data-name="Rectangle 1570" d="M30,0H382a30,30,0,0,1,30,30V738a0,0,0,0,1,0,0H0a0,0,0,0,1,0,0V30A30,30,0,0,1,30,0Z" transform="translate(0 111)" fill="#102646"/>
    </g>
    <g id="Group_3377" data-name="Group 3377" transform="translate(0 -287)">
      <rect id="Rectangle_1845" data-name="Rectangle 1845" width="353" height="183" rx="6" transform="translate(29 494)" fill="#153669"/>
      <rect id="Rectangle_1844" data-name="Rectangle 1844" width="353" height="89" rx="6" transform="translate(29 450)" fill="#153669"/>
      <text id="What_I_learned_So_that_I_can_apply_in_future_eg._I_felt_guilt_about_drinking_too_much_" data-name="What I learned? ( So that I can apply in future)

eg. I felt guilt about drinking too much " transform="translate(48 464)" fill="#d2dff2" font-size="16" font-family="Arial-BoldMT, Arial" font-weight="700"><tspan x="0" y="14">What I learned? ( So that I can apply in </tspan><tspan x="0" y="32">future)</tspan><tspan x="0" y="50"></tspan><tspan font-size="14" font-family="ArialMT, Arial" font-weight="400"><tspan x="0" y="67">eg. I felt guilt about drinking too much </tspan></tspan></text>
      <text id="Write_about_the_problem" data-name="Write about the problem" transform="translate(48 576)" fill="#fff" font-size="16" font-family="ArialMT, Arial" opacity="0.5"><tspan x="0" y="14">Write about the problem</tspan></text>
      <path id="Path_6727" data-name="Path 6727" d="M1053,4508.186h353.14" transform="translate(-1024 -3952)" fill="none" stroke="#fff" stroke-width="2" opacity="0.206"/>
    </g>
    <g id="Group_3380" data-name="Group 3380">
      <path id="Path_4714" data-name="Path 4714" d="M1053,4508.186h411.151" transform="translate(-1053 -3729)" fill="none" stroke="#fff" stroke-width="2" opacity="0.206"/>
      <g id="Group_3096" data-name="Group 3096" transform="translate(-15 -218)">
        <text id="Next" transform="translate(310 1038)" fill="#f2f5f7" font-size="20" font-family="ArialMT, Arial"><tspan x="0" y="0">Next</tspan></text>
        <path id="Icon_ionic-ios-arrow-back" data-name="Icon ionic-ios-arrow-back" d="M14.033,14.264l6.109-6.1a1.154,1.154,0,0,0-1.634-1.629l-6.921,6.916a1.152,1.152,0,0,0-.034,1.591L18.5,22a1.154,1.154,0,1,0,1.634-1.629Z" transform="translate(389.251 1046.266) rotate(180)" fill="#f2f5f7"/>
      </g>
      <g id="Group_3224" data-name="Group 3224" transform="translate(0 786.262)">
        <g id="Group_3212" data-name="Group 3212" transform="translate(34.47 14.737)">
          <text id="Back" transform="translate(19.06 18)" fill="#fff" font-size="18" font-family="ArialMT, Arial"><tspan x="0" y="0">Back</tspan></text>
          <path id="Icon_ionic-ios-arrow-back-2" data-name="Icon ionic-ios-arrow-back" d="M14.033,14.264l6.109-6.1a1.154,1.154,0,0,0-1.634-1.629l-6.921,6.916a1.152,1.152,0,0,0-.034,1.591L18.5,22a1.154,1.154,0,1,0,1.634-1.629Z" transform="translate(-11.251 -3.193)" fill="#fff"/>
        </g>
      </g>
    </g>
    <text id="De-addiction_Relapse" data-name="De-addiction
Relapse" transform="translate(29 26)" fill="#fff" font-size="24" font-family="Arial-BoldMT, Arial" font-weight="700"><tspan x="0" y="22">De-addiction</tspan><tspan x="0" y="57">Relapse</tspan></text>
    <g id="Group_3234" data-name="Group 3234" transform="translate(-4.848 -10.262)">
      <path id="Icon_ionic-ios-arrow-back-3" data-name="Icon ionic-ios-arrow-back" d="M15.217,17.7,23.926,9A1.645,1.645,0,1,0,21.6,6.674l-9.867,9.86a1.642,1.642,0,0,0-.048,2.268l9.908,9.929a1.645,1.645,0,0,0,2.33-2.323Z" transform="translate(362.579 30.069)" fill="#fff"/>
      <path id="Icon_ionic-ios-arrow-back-4" data-name="Icon ionic-ios-arrow-back" d="M3.967,11.506l8.709-8.7A1.645,1.645,0,1,0,10.346.481L.479,10.341a1.642,1.642,0,0,0-.048,2.268l9.908,9.929a1.645,1.645,0,1,0,2.33-2.323Z" transform="translate(377.472 59.28) rotate(180)" fill="#fff"/>
    </g>
  </g>
</svg>
