<svg xmlns="http://www.w3.org/2000/svg" xmlns:xlink="http://www.w3.org/1999/xlink" width="412" height="1256" viewBox="0 0 412 1256">
  <defs>
    <clipPath id="clip-De-addictions_S2_Diagnosed_Addiction_1">
      <rect width="412" height="1256"/>
    </clipPath>
  </defs>
  <g id="De-addictions_S2_Diagnosed_Addiction_1" data-name="De-addictions / S2 / Diagnosed Addiction – 1" clip-path="url(#clip-De-addictions_S2_Diagnosed_Addiction_1)">
    <rect width="412" height="1256" fill="#e7eef8"/>
    <g id="Group_3370" data-name="Group 3370" transform="translate(-6 -313)">
      <rect id="Rectangle_1841" data-name="Rectangle 1841" width="367" height="561" rx="15" transform="translate(27 478)" fill="#fcfdff"/>
      <text id="It_means_that_you_probably_have_craving_and_when_you_start_to_use_the_drug_you_either_take_larger_amount_than_you_intended_before_starting" data-name="It means that you probably have craving and when you start to use the drug you either take larger amount than you intended before starting" transform="translate(51 530)" fill="#254069" font-size="16" font-family="ArialMT, Arial"><tspan x="0" y="14">It means that you probably have craving and </tspan><tspan x="0" y="40">when you start to use the drug you either </tspan><tspan x="0" y="66">take larger amount than you intended before </tspan><tspan x="0" y="92">starting</tspan></text>
      <text id="Also_I_will_not_going_to_take_alcohol_heroin_cannabis._But_as_soon_as_you_get_contextual_environmental_cues_like_a_friend_coming_over_or_when_usual_time_comes_your_motivation_decreases_and_your_body_automatically_comes_in_a_drug_seeking_mode._" data-name="Also I will not going to take alcohol/heroin/cannabis. But as soon as you get contextual / environmental cues like a friend coming over or when usual time comes your motivation decreases and your body automatically comes in a drug seeking mode. " transform="translate(51 836)" fill="#254069" font-size="16" font-family="ArialMT, Arial"><tspan x="0" y="14">Also I will not going to take alcohol/heroin/</tspan><tspan x="0" y="40">cannabis. But as soon as you get </tspan><tspan x="0" y="66">contextual / environmental cues like a friend </tspan><tspan x="0" y="92">coming over or when usual time comes your </tspan><tspan x="0" y="118">motivation decreases and your body </tspan><tspan x="0" y="144">automatically comes in a drug seeking </tspan><tspan x="0" y="170">mode. </tspan></text>
      <g id="Group_3693" data-name="Group 3693" transform="translate(0 4)">
        <rect id="Rectangle_2115" data-name="Rectangle 2115" width="325" height="171" rx="15" transform="translate(48 645)" fill="#d2dff2"/>
        <text id="I_am_going_to_a_party_and_I_will_not_indulge_in_drinking._But_when_you_reach_there_you_think_what_is_one_drink_going_to_make_a_difference_and_then_that_one_drink_becomes_2_or_so_on._" data-name="I am going to a party and I will not indulge in drinking. But when you reach there you think what is one drink going to make a difference and then that one drink becomes 2 or so on. 
" transform="translate(63 697)" fill="#102646" font-size="14" font-family="ArialMT, Arial"><tspan x="0" y="13">I am going to a party and I will not indulge in </tspan><tspan x="0" y="39">drinking. But when you reach there you think </tspan><tspan x="0" y="65">what is one drink going to make a difference </tspan><tspan x="0" y="91">and then that one drink becomes 2 or so on. </tspan></text>
        <text id="Example" transform="translate(97 675)" fill="#102646" font-size="16" font-family="ArialMT, Arial"><tspan x="0" y="0">Example</tspan></text>
        <g id="Group_3639" data-name="Group 3639" transform="translate(29.309 120.31)">
          <circle id="Ellipse_705" data-name="Ellipse 705" cx="12" cy="12" r="12" transform="translate(33.691 536.691)" fill="#edf4fd"/>
          <g id="Group_3638" data-name="Group 3638" transform="translate(39.284 541.152)">
            <path id="Icon_material-highlight" data-name="Icon material-highlight" d="M7.135,8.277ZM10.9,3h1.508V5.262H10.9ZM5.25,5.921,6.316,4.855l1.6,1.6L6.848,7.521ZM15.4,6.456l1.6-1.6,1.066,1.066-1.6,1.6Z" transform="translate(-5.25 -3)" fill="#1e64cc"/>
            <path id="Icon_material-lightbulb-outline" data-name="Icon material-lightbulb-outline" d="M9.582,12.889a.522.522,0,0,0,.52.52h2.082a.522.522,0,0,0,.52-.52v-.52H9.582ZM11.143,3A3.642,3.642,0,0,0,9.061,9.631v1.176a.522.522,0,0,0,.52.52H12.7a.522.522,0,0,0,.52-.52V9.631A3.642,3.642,0,0,0,11.143,3Zm1.483,5.777-.442.312v1.2H10.1V9.09L9.66,8.777a2.6,2.6,0,1,1,2.967,0Z" transform="translate(-4.737 1.667)" fill="#1e64cc"/>
          </g>
        </g>
      </g>
      <text id="Impaired_control" data-name="Impaired control" transform="translate(48 493)" fill="#254069" font-size="18" font-family="Arial-BoldMT, Arial" font-weight="700"><tspan x="0" y="16">Impaired control</tspan></text>
    </g>
    <g id="Group_3380" data-name="Group 3380">
      <rect id="Rectangle_1927" data-name="Rectangle 1927" width="411" height="67" transform="translate(0 780)" fill="#254069"/>
      <path id="Path_4714" data-name="Path 4714" d="M1053,4508.186h411.151" transform="translate(-1053 -3729)" fill="none" stroke="#fff" stroke-width="2" opacity="0.206"/>
      <g id="Group_3224" data-name="Group 3224" transform="translate(0 786.262)">
        <g id="Group_3212" data-name="Group 3212" transform="translate(34.47 14.737)">
          <text id="Back" transform="translate(19.06 18)" fill="#fff" font-size="18" font-family="ArialMT, Arial"><tspan x="0" y="0">Back</tspan></text>
          <path id="Icon_ionic-ios-arrow-back" data-name="Icon ionic-ios-arrow-back" d="M14.033,14.264l6.109-6.1a1.154,1.154,0,0,0-1.634-1.629l-6.921,6.916a1.152,1.152,0,0,0-.034,1.591L18.5,22a1.154,1.154,0,1,0,1.634-1.629Z" transform="translate(-11.251 -3.193)" fill="#fff"/>
        </g>
      </g>
    </g>
    <text id="Classifications_:_High_risk_Group" data-name="Classifications : High risk Group" transform="translate(21 118)" fill="#254069" font-size="20" font-family="Lato-Regular, Lato"><tspan x="0" y="20">Classifications</tspan><tspan y="20" xml:space="preserve" font-family="Lato-Bold, Lato" font-weight="700"> : High risk Group</tspan></text>
    <text id="Your_Addiction_profile_Summary" data-name="Your Addiction profile 
Summary" transform="translate(91 58)" fill="#1e64cc" font-size="24" font-family="SegoeUI-Bold, Segoe UI" font-weight="700"><tspan x="0" y="0">Your Addiction profile </tspan><tspan x="0" y="30">Summary</tspan></text>
    <g id="Group_3864" data-name="Group 3864" transform="translate(-6)">
      <circle id="Ellipse_750" data-name="Ellipse 750" cx="29" cy="29" r="29" transform="translate(27 33)" fill="#fff"/>
      <path id="Icon_ionic-md-list-box" data-name="Icon ionic-md-list-box" d="M23.685,4.5H6.731A2.231,2.231,0,0,0,4.5,6.731V23.685a2.231,2.231,0,0,0,2.231,2.231H23.685a2.231,2.231,0,0,0,2.231-2.231V6.731A2.231,2.231,0,0,0,23.685,4.5Zm-5.8,16.954H8.962V18.777h8.923Zm3.569-4.908H8.962V13.87H21.454Zm0-4.908H8.962V8.962H21.454Z" transform="translate(40.792 46.792)" fill="#1e64cc"/>
    </g>
  </g>
</svg>
