<svg xmlns="http://www.w3.org/2000/svg" xmlns:xlink="http://www.w3.org/1999/xlink" width="412" height="847" viewBox="0 0 412 847">
  <defs>
    <linearGradient id="linear-gradient" x1="0.5" x2="0.5" y2="1" gradientUnits="objectBoundingBox">
      <stop offset="0" stop-color="#37aadd"/>
      <stop offset="1" stop-color="#1f64cc"/>
    </linearGradient>
    <clipPath id="clip-De-addictions_S2_Qus">
      <rect width="412" height="847"/>
    </clipPath>
  </defs>
  <g id="De-addictions_S2_Qus" data-name="De-addictions / S2 / Qus" clip-path="url(#clip-De-addictions_S2_Qus)">
    <rect width="412" height="847" fill="url(#linear-gradient)"/>
    <text id="Session_2_Questionnaire_-_11" data-name="Session 2
Questionnaire - 11" transform="translate(21 26)" fill="#fff" font-size="16" font-family="ArialMT, Arial"><tspan x="0" y="14">Session 2</tspan><tspan font-size="24" font-family="Arial-BoldMT, Arial" font-weight="700"><tspan x="0" y="49">Questionnaire - 11</tspan></tspan></text>
    <text id="Questions_2_11" data-name="Questions 2/11" transform="translate(21 113)" fill="#fff" font-size="14" font-family="ArialMT, Arial"><tspan x="0" y="13">Questions 2/11</tspan></text>
    <g id="Group_3076" data-name="Group 3076" transform="translate(20.999 100)">
      <rect id="Rectangle_1708" data-name="Rectangle 1708" width="357" height="5" rx="2.5" transform="translate(0.001)" fill="#dce9f5"/>
      <rect id="Rectangle_1709" data-name="Rectangle 1709" width="136" height="5" rx="2.5" transform="translate(0.001)" fill="#254069"/>
    </g>
    <g id="Group_3331" data-name="Group 3331" transform="translate(-378)">
      <g id="Group_3327" data-name="Group 3327" transform="translate(23.474 77.842)">
        <g id="Group_3078" data-name="Group 3078" transform="translate(20.107 155.236)">
          <rect id="Rectangle_1710" data-name="Rectangle 1710" width="348" height="443" rx="15" transform="translate(0.419 -0.079)" fill="#102646"/>
          <text id="Have_you_continued_your_drug_use_despite_knowledge_of_developing_a_persistent_or_recurring_physical_or_psychological_problem_" data-name="Have you continued your drug use despite knowledge of developing a persistent or recurring physical or psychological problem? " transform="translate(25.419 22.922)" fill="#fff" font-size="18" font-family="ArialMT, Arial"><tspan x="0" y="16">Have you continued your drug use </tspan><tspan x="0" y="46">despite knowledge of developing a </tspan><tspan x="0" y="76">persistent or recurring physical or </tspan><tspan x="0" y="106">psychological problem? </tspan></text>
          <g id="Group_3333" data-name="Group 3333" transform="translate(25.774 147.959)">
            <rect id="Rectangle_1708-2" data-name="Rectangle 1708" width="293" height="4" rx="2" transform="translate(2.646 14.962)" fill="#dce9f5"/>
            <rect id="Rectangle_1709-2" data-name="Rectangle 1709" width="206" height="4" rx="2" transform="translate(2.646 14.962)" fill="#1e64cc"/>
            <g id="Group_3077" data-name="Group 3077" transform="translate(0 0)">
              <ellipse id="Ellipse_550" data-name="Ellipse 550" cx="17" cy="16" rx="17" ry="16" transform="translate(-0.355 -0.037)" fill="#dbecff" opacity="0.354"/>
              <ellipse id="Ellipse_430" data-name="Ellipse 430" cx="15" cy="14.5" rx="15" ry="14.5" transform="translate(1.645 1.962)" fill="#fff"/>
              <path id="Icon_awesome-play" data-name="Icon awesome-play" d="M9.883,5,1.686.155A1.112,1.112,0,0,0,0,1.117v9.69a1.117,1.117,0,0,0,1.686.962l8.2-4.844A1.117,1.117,0,0,0,9.883,5Z" transform="translate(12.457 10.167)" fill="#0e58c7"/>
            </g>
          </g>
          <g id="Component_123_12" data-name="Component 123 – 12" transform="translate(24.419 282.921)">
            <g id="Rectangle_1812" data-name="Rectangle 1812" fill="none" stroke="#edf4fd" stroke-width="1">
              <rect width="83" height="84" rx="10" stroke="none"/>
              <rect x="0.5" y="0.5" width="82" height="83" rx="9.5" fill="none"/>
            </g>
            <g id="Group_3314" data-name="Group 3314" transform="translate(12.193 19.15)">
              <circle id="Ellipse_619" data-name="Ellipse 619" cx="9.864" cy="9.864" r="9.864" transform="translate(33.128 26.186) rotate(-72.081)" fill="#fff"/>
              <circle id="Ellipse_620" data-name="Ellipse 620" cx="9.864" cy="9.864" r="9.864" transform="matrix(0.231, -0.973, 0.973, 0.231, 1.223, 27.151)" fill="#fff"/>
              <path id="Path_6656" data-name="Path 6656" d="M223.747,215.621a9.862,9.862,0,0,1-14.083,13.343,9.862,9.862,0,1,0,14.083-13.343Z" transform="translate(-204.846 -203.75)" fill="#f2f5f7"/>
              <path id="Path_6657" data-name="Path 6657" d="M474.433,215.621a9.862,9.862,0,0,1-14.083,13.343,9.862,9.862,0,1,0,14.083-13.343Z" transform="translate(-423.085 -203.75)" fill="#f2f5f7"/>
              <g id="Group_3309" data-name="Group 3309" transform="translate(2.783 9.519)">
                <path id="Path_6658" data-name="Path 6658" d="M204.266,218.078a10.317,10.317,0,1,1,10.317-10.316A10.328,10.328,0,0,1,204.266,218.078Zm0-19.727a9.411,9.411,0,1,0,9.41,9.411A9.421,9.421,0,0,0,204.266,198.351Z" transform="translate(-193.949 -197.445)" fill="#fff"/>
              </g>
              <circle id="Ellipse_621" data-name="Ellipse 621" cx="4.779" cy="4.779" r="4.779" transform="matrix(0.612, -0.791, 0.791, 0.612, 6.396, 22.102)" fill="#254069"/>
              <circle id="Ellipse_622" data-name="Ellipse 622" cx="1.956" cy="1.956" r="1.956" transform="translate(9.971 18.424)" fill="#fff"/>
              <g id="Group_3310" data-name="Group 3310" transform="translate(35.231 9.519)">
                <path id="Path_6659" data-name="Path 6659" d="M454.952,218.078a10.317,10.317,0,1,1,10.316-10.316A10.328,10.328,0,0,1,454.952,218.078Zm0-19.727a9.411,9.411,0,1,0,9.41,9.411A9.421,9.421,0,0,0,454.952,198.351Z" transform="translate(-444.635 -197.445)" fill="#fff"/>
              </g>
              <circle id="Ellipse_623" data-name="Ellipse 623" cx="4.779" cy="4.779" r="4.779" transform="translate(38.79 21.247) rotate(-45)" fill="#254069"/>
              <circle id="Ellipse_624" data-name="Ellipse 624" cx="1.956" cy="1.956" r="1.956" transform="translate(42.419 18.424)" fill="#fff"/>
              <path id="Path_6660" data-name="Path 6660" d="M172.922,132.021c1.67,1.919,3.166-1.55,8.336-2.638,4.311-.908,7.006,1.251,7.755-.381s-2.687-3.9-9.033-2.9C175.257,126.846,170.983,129.793,172.922,132.021Z" transform="translate(-172.443 -125.601)" fill="#fff"/>
              <path id="Path_6661" data-name="Path 6661" d="M513.405,130.633c-1.772,1.826-3.077-1.72-8.18-3.089-4.255-1.141-7.064.868-7.723-.8s2.9-3.752,9.178-2.4C511.355,125.339,515.462,128.514,513.405,130.633Z" transform="translate(-455.361 -123.904)" fill="#fff"/>
              <g id="Group_3311" data-name="Group 3311" transform="translate(12.453 35.651)">
                <path id="Path_6662" data-name="Path 6662" d="M285.647,409.132h-.021a20.844,20.844,0,0,1-12.637-4.25,19.385,19.385,0,0,1-4.228-4.272.647.647,0,0,1,1.08-.714,18.5,18.5,0,0,0,3.97,3.984,19.559,19.559,0,0,0,11.817,3.957h.02a20.073,20.073,0,0,0,12.429-4.077,16.848,16.848,0,0,0,3.9-4.11.647.647,0,0,1,1.112.663,17.762,17.762,0,0,1-4.173,4.436A21.349,21.349,0,0,1,285.647,409.132Z" transform="translate(-268.653 -399.335)" fill="#fff"/>
              </g>
              <g id="Group_3312" data-name="Group 3312" transform="translate(10.053 34.05)">
                <path id="Path_6663" data-name="Path 6663" d="M250.741,390.516a3.743,3.743,0,0,1,2.407-2.908c.415-.126.479-.725-.172-.624a4.6,4.6,0,0,0-2.859,3.36.332.332,0,0,0,.226.4.327.327,0,0,0,.4-.226Z" transform="translate(-250.11 -386.973)" fill="#fff"/>
              </g>
              <g id="Group_3313" data-name="Group 3313" transform="translate(46.242 33.868)">
                <path id="Path_6664" data-name="Path 6664" d="M529.94,386.2a3.112,3.112,0,0,1,1.924,3.331.333.333,0,0,0,.226.4.326.326,0,0,0,.4-.226,3.774,3.774,0,0,0-2.376-4.128.327.327,0,0,0-.4.226.331.331,0,0,0,.226.4Z" transform="translate(-529.702 -385.563)" fill="#fff"/>
              </g>
            </g>
          </g>
          <g id="Component_122_13" data-name="Component 122 – 13" transform="translate(134.419 282.921)">
            <g id="Rectangle_1813" data-name="Rectangle 1813" transform="translate(0 -0.001)" fill="none" stroke="#edf4fd" stroke-width="1">
              <rect width="77" height="78" rx="10" stroke="none"/>
              <rect x="0.5" y="0.5" width="76" height="77" rx="9.5" fill="none"/>
            </g>
            <g id="Group_3320" data-name="Group 3320" transform="translate(11.763 14.095)">
              <circle id="Ellipse_625" data-name="Ellipse 625" cx="9.241" cy="9.241" r="9.241" transform="translate(32.352 31.975) rotate(-76.718)" fill="#fff"/>
              <circle id="Ellipse_626" data-name="Ellipse 626" cx="9.241" cy="9.241" r="9.241" transform="translate(0 25.105) rotate(-45)" fill="#fff"/>
              <path id="Path_6665" data-name="Path 6665" d="M828.858,238.667a9.239,9.239,0,0,1-13.194,12.5,9.24,9.24,0,1,0,13.194-12.5Z" transform="translate(-810.355 -221.024)" fill="#efefef"/>
              <path id="Path_6666" data-name="Path 6666" d="M1079.544,238.667a9.239,9.239,0,0,1-13.194,12.5,9.24,9.24,0,1,0,13.194-12.5Z" transform="translate(-1030.641 -221.024)" fill="#efefef"/>
              <g id="Group_3315" data-name="Group 3315" transform="translate(3.403 15.439)">
                <path id="Path_6667" data-name="Path 6667" d="M809.614,239.823a9.665,9.665,0,1,1,9.665-9.666A9.676,9.676,0,0,1,809.614,239.823Zm0-18.482a8.817,8.817,0,1,0,8.817,8.817A8.827,8.827,0,0,0,809.614,221.341Z" transform="translate(-799.949 -220.492)" fill="#fff"/>
              </g>
              <circle id="Ellipse_627" data-name="Ellipse 627" cx="4.477" cy="4.477" r="4.477" transform="translate(5.74 16.995)" fill="#254069"/>
              <path id="Path_6668" data-name="Path 6668" d="M835.624,250.262a1.832,1.832,0,1,1-1.832-1.832A1.832,1.832,0,0,1,835.624,250.262Z" transform="translate(-824.674 -229.603)" fill="#fff"/>
              <g id="Group_3316" data-name="Group 3316" transform="translate(33.803 15.439)">
                <path id="Path_6669" data-name="Path 6669" d="M1060.3,239.823a9.665,9.665,0,1,1,9.666-9.666A9.676,9.676,0,0,1,1060.3,239.823Zm0-18.482a8.817,8.817,0,1,0,8.817,8.817A8.826,8.826,0,0,0,1060.3,221.341Z" transform="translate(-1050.635 -220.492)" fill="#fff"/>
              </g>
              <circle id="Ellipse_628" data-name="Ellipse 628" cx="4.477" cy="4.477" r="4.477" transform="translate(36.538 16.82)" fill="#254069"/>
              <circle id="Ellipse_629" data-name="Ellipse 629" cx="1.832" cy="1.832" r="1.832" transform="translate(38.083 18.652)" fill="#fff"/>
              <path id="Path_6670" data-name="Path 6670" d="M800.276,103.321c1.825,1.25,1.8-2.2,5.2-4.52,2.837-1.935,5.483-.744,5.5-2.379s-3.2-2.73-7.482-.175C800.316,98.149,798.157,101.869,800.276,103.321Z" transform="translate(-796.09 -94.54)" fill="#fff"/>
              <path id="Path_6671" data-name="Path 6671" d="M1129.138,102.173c-1.911,1.173-1.818-2.291-5.287-4.777-2.893-2.073-5.65-1-5.639-2.64s3.358-2.6,7.733.166C1129.2,96.977,1131.356,100.812,1129.138,102.173Z" transform="translate(-1076.214 -93.174)" fill="#fff"/>
              <g id="Group_3317" data-name="Group 3317" transform="translate(12.463 39.308)">
                <path id="Path_6672" data-name="Path 6672" d="M907.032,429.282a.605.605,0,0,1-.464-.215,31.177,31.177,0,0,0-5.022-4.462,32.3,32.3,0,0,0-13.6-5.824c-7.744-1.244-12.226,2.78-12.27,2.82a.606.606,0,0,1-.824-.89c.2-.183,4.932-4.471,13.287-3.128a33.525,33.525,0,0,1,14.154,6.062,31.7,31.7,0,0,1,5.205,4.639.606.606,0,0,1-.463,1Z" transform="translate(-874.655 -417.324)" fill="#fff"/>
              </g>
              <g id="Group_3318" data-name="Group 3318" transform="translate(10.092 42.095)">
                <path id="Path_6673" data-name="Path 6673" d="M855.329,440.526a3.684,3.684,0,0,0,1.062,4.013,3.386,3.386,0,0,0,1.1.637.3.3,0,0,0,.161-.585,3.063,3.063,0,0,1-1.74-3.9.305.305,0,0,0-.212-.373.31.31,0,0,0-.373.212Z" transform="translate(-855.106 -440.303)" fill="#fff"/>
              </g>
              <g id="Group_3319" data-name="Group 3319" transform="translate(44.043 47.947)">
                <path id="Path_6674" data-name="Path 6674" d="M1135.431,493.926a4.446,4.446,0,0,0,3.031-3.649,4.921,4.921,0,0,0,.012-1.514.286.286,0,0,0-.349-.2.291.291,0,0,0-.2.349,4.315,4.315,0,0,1-1.6,3.962,2.987,2.987,0,0,1-1.05.5.284.284,0,0,0,.151.546Z" transform="translate(-1135.079 -488.556)" fill="#fff"/>
              </g>
            </g>
          </g>
          <g id="Component_121_13" data-name="Component 121 – 13" transform="translate(245.419 282.921)">
            <g id="Rectangle_1814" data-name="Rectangle 1814" transform="translate(0 -0.001)" fill="none" stroke="#edf4fd" stroke-width="1">
              <rect width="77" height="78" rx="10" stroke="none"/>
              <rect x="0.5" y="0.5" width="76" height="77" rx="9.5" fill="none"/>
            </g>
            <g id="Group_3326" data-name="Group 3326" transform="translate(11.998 14.094)">
              <circle id="Ellipse_630" data-name="Ellipse 630" cx="9.16" cy="9.16" r="9.16" transform="matrix(0.161, -0.987, 0.987, 0.161, 31.149, 34.605)" fill="#fff"/>
              <circle id="Ellipse_631" data-name="Ellipse 631" cx="9.16" cy="9.16" r="9.16" transform="matrix(0.231, -0.973, 0.973, 0.231, 0.499, 33.832)" fill="#fff"/>
              <path id="Path_6675" data-name="Path 6675" d="M216.935,830.5a9.159,9.159,0,0,1-13.079,12.392A9.16,9.16,0,1,0,216.935,830.5Z" transform="translate(-200.019 -810.859)" fill="#efefef"/>
              <path id="Path_6676" data-name="Path 6676" d="M467.621,830.5a9.159,9.159,0,0,1-13.079,12.392A9.16,9.16,0,1,0,467.621,830.5Z" transform="translate(-420.57 -810.859)" fill="#efefef"/>
              <g id="Group_3321" data-name="Group 3321" transform="translate(1.948 17.457)">
                <path id="Path_6677" data-name="Path 6677" d="M197.722,831.487a9.581,9.581,0,1,1,9.581-9.581A9.592,9.592,0,0,1,197.722,831.487Zm0-18.321a8.74,8.74,0,1,0,8.74,8.74A8.75,8.75,0,0,0,197.722,813.167Z" transform="translate(-188.141 -812.325)" fill="#fff"/>
              </g>
              <path id="Path_6678" data-name="Path 6678" d="M239.909,893.767a4.438,4.438,0,1,1-4.438-4.438A4.438,4.438,0,0,1,239.909,893.767Z" transform="translate(-223.929 -862.616)" fill="#254069"/>
              <path id="Path_6679" data-name="Path 6679" d="M247.41,906.254a1.816,1.816,0,1,1-1.816-1.816A1.816,1.816,0,0,1,247.41,906.254Z" transform="translate(-235.141 -875.908)" fill="#fff"/>
              <g id="Group_3322" data-name="Group 3322" transform="translate(32.083 17.457)">
                <path id="Path_6680" data-name="Path 6680" d="M448.408,831.487a9.581,9.581,0,1,1,9.581-9.581A9.592,9.592,0,0,1,448.408,831.487Zm0-18.321a8.74,8.74,0,1,0,8.74,8.74A8.75,8.75,0,0,0,448.408,813.167Z" transform="translate(-438.827 -812.325)" fill="#fff"/>
              </g>
              <circle id="Ellipse_632" data-name="Ellipse 632" cx="4.438" cy="4.438" r="4.438" transform="translate(36.385 34.546) rotate(-77.741)" fill="#254069"/>
              <path id="Path_6681" data-name="Path 6681" d="M497.989,906.254a1.816,1.816,0,1,1-1.816-1.816A1.816,1.816,0,0,1,497.989,906.254Z" transform="translate(-455.598 -875.908)" fill="#fff"/>
              <path id="Path_6682" data-name="Path 6682" d="M172.672,679.134c1.928,1.366,2.518-2.093,6.945-4.208,3.692-1.764,6.6-.406,6.915-2.044s-3.281-2.935-8.789-.638C173.645,673.953,170.434,677.548,172.672,679.134Z" transform="translate(-171.937 -670.535)" fill="#fff"/>
              <path id="Path_6683" data-name="Path 6683" d="M511.86,675.639c-2.048,1.469-2.736-2.2-7.522-4.4-3.991-1.837-7.09-.367-7.456-2.1s3.477-3.148,9.426-.763C510.734,670.146,514.237,673.933,511.86,675.639Z" transform="translate(-457.799 -667.107)" fill="#fff"/>
              <g id="Group_3323" data-name="Group 3323" transform="translate(11.655 42.911)">
                <path id="Path_6684" data-name="Path 6684" d="M297.809,1032.129a.6.6,0,0,1-.514-.288,12.889,12.889,0,0,0-2.988-3.069,17.8,17.8,0,0,0-9.823-3.467c-9.051-.544-14.461,6.513-14.514,6.584a.6.6,0,0,1-.961-.722,18.919,18.919,0,0,1,4.1-3.758,18.194,18.194,0,0,1,11.447-3.3,18.976,18.976,0,0,1,10.527,3.747,13.76,13.76,0,0,1,3.238,3.363.6.6,0,0,1-.513.914Z" transform="translate(-268.889 -1024.074)" fill="#fff"/>
              </g>
              <g id="Group_3324" data-name="Group 3324" transform="translate(9.322 47.807)">
                <path id="Path_6685" data-name="Path 6685" d="M250.337,1064.945a5.755,5.755,0,0,0-.436,5.156.311.311,0,0,0,.37.21.3.3,0,0,0,.21-.37,5.19,5.19,0,0,1,.375-4.692c.2-.329-.315-.632-.519-.3Z" transform="translate(-249.486 -1064.803)" fill="#fff"/>
              </g>
              <g id="Group_3325" data-name="Group 3325" transform="translate(41.457 47.91)">
                <path id="Path_6686" data-name="Path 6686" d="M516.9,1066.169a4.358,4.358,0,0,1,1.1,4.365c-.116.37.464.528.58.16a4.965,4.965,0,0,0-1.259-4.95c-.278-.27-.7.155-.425.425Z" transform="translate(-516.809 -1065.658)" fill="#fff"/>
              </g>
            </g>
          </g>
          <text id="Never_or_almost_never" data-name="Never or almost never" transform="translate(17.021 372.827)" fill="#fff" font-size="12" font-family="ArialMT, Arial"><tspan x="1.429" y="11">Never Or Almost </tspan><tspan x="29.434" y="25">Never</tspan></text>
          <text id="Sometimes" transform="translate(128.719 372.827)" fill="#fff" font-size="12" font-family="ArialMT, Arial"><tspan x="15.43" y="11">Sometimes</tspan></text>
          <text id="Select_suitable_option" data-name="Select suitable option" transform="translate(72.506 242.6)" fill="#d2dff2" font-size="12" font-family="ArialMT, Arial"><tspan x="42.282" y="11">Select Suitable Option</tspan></text>
          <text id="Many_times_Almost_always" data-name="Many times/Almost always" transform="translate(238.803 372.827)" fill="#fff" font-size="12" font-family="ArialMT, Arial"><tspan x="11.431" y="11">Many Times/</tspan><tspan x="6.761" y="25">Almost Always</tspan></text>
        </g>
      </g>
      <g id="Group_3336" data-name="Group 3336" transform="translate(569.578 44.83)">
        <g id="Group_3334" data-name="Group 3334" transform="translate(-172.295 173.898)">
          <g id="Group_3327-2" data-name="Group 3327" transform="translate(0.422 0.353)">
            <g id="Group_3078-2" data-name="Group 3078" transform="translate(0 0)">
              <rect id="Rectangle_1710-2" data-name="Rectangle 1710" width="370" height="471" rx="15" transform="translate(0.295 -0.082)" fill="#102646"/>
              <text id="Do_you_want_to_change_your_use_of_drug_right_now_" data-name="Do you want to change your use of (drug) right now?" transform="translate(28.296 23.92)" fill="#fff" font-size="18" font-family="ArialMT, Arial"><tspan x="0" y="16">Do you want to change your use of </tspan><tspan x="0" y="46">(drug) right now?</tspan></text>
              <g id="Group_3333-2" data-name="Group 3333" transform="translate(28.175 103.973)">
                <rect id="Rectangle_1708-3" data-name="Rectangle 1708" width="310" height="5" rx="2.5" transform="translate(3.121 16.946)" fill="#dce9f5"/>
                <rect id="Rectangle_1709-3" data-name="Rectangle 1709" width="218" height="5" rx="2.5" transform="translate(3.121 16.946)" fill="#1e64cc"/>
                <g id="Group_3077-2" data-name="Group 3077" transform="translate(0 0)">
                  <ellipse id="Ellipse_550-2" data-name="Ellipse 550" cx="17" cy="17.5" rx="17" ry="17.5" transform="translate(0.12 -0.053)" fill="#dbecff" opacity="0.354"/>
                  <ellipse id="Ellipse_430-2" data-name="Ellipse 430" cx="15" cy="15.5" rx="15" ry="15.5" transform="translate(2.12 1.945)" fill="#fff"/>
                  <path id="Icon_awesome-play-2" data-name="Icon awesome-play" d="M10.521,5.324,1.795.165A1.183,1.183,0,0,0,0,1.189V11.5a1.189,1.189,0,0,0,1.795,1.024l8.726-5.156A1.189,1.189,0,0,0,10.521,5.324Z" transform="translate(12.183 11.225)" fill="#0e58c7"/>
                </g>
              </g>
              <text id="No" transform="translate(13.925 381.753)" fill="#fff" font-size="12" font-family="ArialMT, Arial"><tspan x="27.701" y="11">No</tspan></text>
              <text id="Probably_not" data-name="Probably not" transform="translate(87.924 381.753)" fill="#fff" font-size="12" font-family="ArialMT, Arial"><tspan x="5.69" y="11">Probably </tspan><tspan x="20.034" y="25">Not</tspan></text>
              <text id="Possibly" transform="translate(224.926 381.753)" fill="#fff" font-size="12" font-family="ArialMT, Arial"><tspan x="7.029" y="11">Possibly</tspan></text>
              <text id="Unsure" transform="translate(156.925 381.753)" fill="#fff" font-size="12" font-family="ArialMT, Arial"><tspan x="10.029" y="11">Unsure</tspan></text>
              <text id="Definitely" transform="translate(292.927 381.753)" fill="#fff" font-size="12" font-family="ArialMT, Arial"><tspan x="4.694" y="11">Definitely</tspan></text>
              <text id="Select_suitable_option-2" data-name="Select suitable option" transform="translate(76.845 278.123)" fill="#d2dff2" font-size="12" font-family="ArialMT, Arial"><tspan x="48.841" y="11">Select Suitable Option</tspan></text>
              <g id="Group_3354" data-name="Group 3354" transform="translate(229.295 316.92)">
                <g id="Rectangle_1812-2" data-name="Rectangle 1812" fill="none" stroke="#edf4fd" stroke-width="1">
                  <rect width="50" height="51" rx="10" stroke="none"/>
                  <rect x="0.5" y="0.5" width="49" height="50" rx="9.5" fill="none"/>
                </g>
                <g id="Group_3314-2" data-name="Group 3314" transform="translate(7.226 11.349)">
                  <circle id="Ellipse_619-2" data-name="Ellipse 619" cx="5.845" cy="5.845" r="5.845" transform="translate(19.633 15.519) rotate(-72.081)" fill="#fff"/>
                  <circle id="Ellipse_620-2" data-name="Ellipse 620" cx="5.845" cy="5.845" r="5.845" transform="matrix(0.231, -0.973, 0.973, 0.231, 0.725, 16.09)" fill="#fff"/>
                  <path id="Path_6656-2" data-name="Path 6656" d="M218.01,215.621a5.844,5.844,0,0,1-8.346,7.907,5.845,5.845,0,1,0,8.346-7.907Z" transform="translate(-206.809 -208.586)" fill="#f2f5f7"/>
                  <path id="Path_6657-2" data-name="Path 6657" d="M468.7,215.621a5.844,5.844,0,0,1-8.346,7.907,5.845,5.845,0,1,0,8.346-7.907Z" transform="translate(-438.265 -208.586)" fill="#f2f5f7"/>
                  <g id="Group_3309-2" data-name="Group 3309" transform="translate(1.65 5.641)">
                    <path id="Path_6658-2" data-name="Path 6658" d="M200.063,209.673a6.114,6.114,0,1,1,6.114-6.114A6.121,6.121,0,0,1,200.063,209.673Zm0-11.691a5.577,5.577,0,1,0,5.577,5.577A5.583,5.583,0,0,0,200.063,197.982Z" transform="translate(-193.949 -197.445)" fill="#fff"/>
                  </g>
                  <circle id="Ellipse_621-2" data-name="Ellipse 621" cx="2.832" cy="2.832" r="2.832" transform="matrix(0.612, -0.791, 0.791, 0.612, 3.791, 13.098)" fill="#254069"/>
                  <circle id="Ellipse_622-2" data-name="Ellipse 622" cx="1.159" cy="1.159" r="1.159" transform="translate(5.909 10.919)" fill="#fff"/>
                  <g id="Group_3310-2" data-name="Group 3310" transform="translate(20.879 5.641)">
                    <path id="Path_6659-2" data-name="Path 6659" d="M450.749,209.673a6.114,6.114,0,1,1,6.114-6.114A6.121,6.121,0,0,1,450.749,209.673Zm0-11.691a5.577,5.577,0,1,0,5.577,5.577A5.583,5.583,0,0,0,450.749,197.982Z" transform="translate(-444.635 -197.445)" fill="#fff"/>
                  </g>
                  <circle id="Ellipse_623-2" data-name="Ellipse 623" cx="2.832" cy="2.832" r="2.832" transform="translate(22.988 12.592) rotate(-45)" fill="#254069"/>
                  <circle id="Ellipse_624-2" data-name="Ellipse 624" cx="1.159" cy="1.159" r="1.159" transform="translate(25.139 10.919)" fill="#fff"/>
                  <path id="Path_6660-2" data-name="Path 6660" d="M172.727,129.508c.99,1.137,1.876-.919,4.94-1.563,2.555-.538,4.152.742,4.6-.226S180.67,125.4,176.909,126C174.111,126.442,171.578,128.188,172.727,129.508Z" transform="translate(-172.443 -125.703)" fill="#fff"/>
                  <path id="Path_6661-2" data-name="Path 6661" d="M506.9,127.891c-1.05,1.082-1.824-1.019-4.848-1.831-2.522-.676-4.187.514-4.577-.476s1.716-2.224,5.439-1.425C505.68,124.754,508.114,126.636,506.9,127.891Z" transform="translate(-472.496 -123.903)" fill="#fff"/>
                  <g id="Group_3311-2" data-name="Group 3311" transform="translate(7.38 21.128)">
                    <path id="Path_6662-2" data-name="Path 6662" d="M278.724,405.141h-.012a12.353,12.353,0,0,1-7.489-2.519,11.488,11.488,0,0,1-2.506-2.531.384.384,0,0,1,.64-.423,10.966,10.966,0,0,0,2.353,2.361,11.592,11.592,0,0,0,7,2.345h.012a11.9,11.9,0,0,0,7.366-2.416,9.985,9.985,0,0,0,2.311-2.436.384.384,0,0,1,.659.393,10.526,10.526,0,0,1-2.473,2.629A12.652,12.652,0,0,1,278.724,405.141Z" transform="translate(-268.653 -399.335)" fill="#fff"/>
                  </g>
                  <g id="Group_3312-2" data-name="Group 3312" transform="translate(5.958 20.179)">
                    <path id="Path_6663-2" data-name="Path 6663" d="M250.484,389.073a2.218,2.218,0,0,1,1.426-1.723c.246-.075.284-.43-.1-.37a2.726,2.726,0,0,0-1.694,1.991.2.2,0,0,0,.134.236.194.194,0,0,0,.236-.134Z" transform="translate(-250.11 -386.973)" fill="#fff"/>
                  </g>
                  <g id="Group_3313-2" data-name="Group 3313" transform="translate(27.404 20.071)">
                    <path id="Path_6664-2" data-name="Path 6664" d="M529.843,385.942a1.845,1.845,0,0,1,1.14,1.974.2.2,0,0,0,.134.236.193.193,0,0,0,.236-.134,2.237,2.237,0,0,0-1.408-2.446.193.193,0,0,0-.236.134.2.2,0,0,0,.134.236Z" transform="translate(-529.702 -385.563)" fill="#fff"/>
                  </g>
                </g>
              </g>
              <g id="Group_3358" data-name="Group 3358" transform="translate(297.295 316.92)">
                <g id="Rectangle_1812-3" data-name="Rectangle 1812" fill="none" stroke="#edf4fd" stroke-width="1">
                  <rect width="50" height="51" rx="10" stroke="none"/>
                  <rect x="0.5" y="0.5" width="49" height="50" rx="9.5" fill="none"/>
                </g>
                <g id="Group_3364" data-name="Group 3364" transform="matrix(0.966, 0.259, -0.259, 0.966, -493.14, -1429.256)">
                  <g id="Group_3365" data-name="Group 3365" transform="translate(-1.014 -1.014)">
                    <circle id="Ellipse_636" data-name="Ellipse 636" cx="4.898" cy="4.898" r="4.898" transform="translate(864.789 1275.791) rotate(-78.825)" fill="#fff"/>
                    <path id="Path_6699" data-name="Path 6699" d="M913.692,1445.376A4.9,4.9,0,0,1,906.7,1452a4.9,4.9,0,1,0,6.993-6.625Z" transform="translate(-40.269 -177.396)" fill="#efefef"/>
                    <g id="Group_3359" data-name="Group 3359" transform="translate(865.421 1266.813)">
                      <path id="Path_6700" data-name="Path 6700" d="M896.106,1437.445a5.122,5.122,0,1,1,5.122-5.123A5.128,5.128,0,0,1,896.106,1437.445Zm0-9.8a4.673,4.673,0,1,0,4.673,4.673A4.678,4.678,0,0,0,896.106,1427.65Z" transform="translate(-890.984 -1427.2)" fill="#fff"/>
                    </g>
                    <circle id="Ellipse_637" data-name="Ellipse 637" cx="2.373" cy="2.373" r="2.373" transform="translate(868.094 1270.343) rotate(-1.871)" fill="#254069"/>
                    <path id="Path_6701" data-name="Path 6701" d="M948.455,1496.97a.971.971,0,1,1-.971-.971A.971.971,0,0,1,948.455,1496.97Z" transform="translate(-77.524 -224.765)" fill="#fff"/>
                  </g>
                  <path id="Path_6702" data-name="Path 6702" d="M863.348,1257.558c.683.785,1.3-.634,3.41-1.079,1.763-.371,2.866.512,3.172-.156s-1.1-1.6-3.7-1.187C864.3,1255.441,862.555,1256.646,863.348,1257.558Z" transform="translate(1.077 5.717)" fill="#fff"/>
                  <path id="Path_6703" data-name="Path 6703" d="M1237.9,1330.264c-.572.87-1.369-.454-3.524-.612-1.8-.131-2.772.891-3.164.271s.875-1.73,3.5-1.671C1236.668,1328.295,1238.562,1329.255,1237.9,1330.264Z" transform="translate(-351.571 -70.603)" fill="#fff"/>
                  <path id="Path_6707" data-name="Path 6707" d="M966.722,1606.206a28.975,28.975,0,0,0,9.381,1.167c6.223-.376,10.6-7.859,10.6-7.859s2.476,12.313-6.762,13.9S966.722,1606.206,966.722,1606.206Z" transform="translate(-98.086 -326.241)" fill="#fff"/>
                  <path id="Path_6708" data-name="Path 6708" d="M1023.433,1643.194c-1.82,2.232-5.015,5.309-8.949,5.546a27.617,27.617,0,0,1-7.214-.617,3.26,3.26,0,0,0,.623,2.5,3.908,3.908,0,0,0,2.326,1.038,18.3,18.3,0,0,0,9.024-.71,8.677,8.677,0,0,0,2.106-.994A5.868,5.868,0,0,0,1023.433,1643.194Z" transform="translate(-136.467 -367.608)" fill="#254069"/>
                  <g id="Group_3362" data-name="Group 3362" transform="translate(887.8 1272.085)">
                    <path id="Path_6709" data-name="Path 6709" d="M1328.885,1577.5a1.372,1.372,0,0,1,1.106-.1,1.347,1.347,0,0,1,.888,1.318c-.006.175.265.174.271,0a1.646,1.646,0,0,0-.452-1.178,1.59,1.59,0,0,0-1.205-.484,1.632,1.632,0,0,0-.745.208.136.136,0,0,0,.137.234Z" transform="translate(-1328.682 -1577.059)" fill="#fff"/>
                  </g>
                  <g id="Group_3363" data-name="Group 3363" transform="translate(867.565 1278.373)">
                    <path id="Path_6710" data-name="Path 6710" d="M948.51,1695.841a1.872,1.872,0,0,0-1.57.626,1.848,1.848,0,0,0,.1,2.49.136.136,0,0,0,.192-.192,1.6,1.6,0,0,1-.438-1.382,1.578,1.578,0,0,1,1.717-1.271.137.137,0,0,0,.136-.136.139.139,0,0,0-.136-.136Z" transform="translate(-946.504 -1695.831)" fill="#fff"/>
                  </g>
                  <g id="Group_3366" data-name="Group 3366" transform="translate(-0.806 -0.806)">
                    <circle id="Ellipse_639" data-name="Ellipse 639" cx="4.72" cy="4.72" r="4.72" transform="translate(876.971 1271.76) rotate(-78.825)" fill="#fff"/>
                    <path id="Path_6711" data-name="Path 6711" d="M913.439,1445.376a4.719,4.719,0,0,1-6.74,6.385,4.72,4.72,0,1,0,6.74-6.385Z" transform="translate(-28.147 -181.143)" fill="#efefef"/>
                    <circle id="Ellipse_638" data-name="Ellipse 638" cx="2.287" cy="2.287" r="2.287" transform="translate(880.156 1266.509) rotate(-1.871)" fill="#254069"/>
                    <path id="Path_6712" data-name="Path 6712" d="M948.385,1496.935a.936.936,0,1,1-.936-.936A.936.936,0,0,1,948.385,1496.935Z" transform="translate(-65.605 -228.156)" fill="#fff"/>
                  </g>
                </g>
              </g>
              <g id="Group_3355" data-name="Group 3355" transform="translate(92.526 316.92)">
                <g id="Rectangle_1813-2" data-name="Rectangle 1813" transform="translate(-0.231)" fill="none" stroke="#edf4fd" stroke-width="1">
                  <rect width="50" height="51" rx="10" stroke="none"/>
                  <rect x="0.5" y="0.5" width="49" height="50" rx="9.5" fill="none"/>
                </g>
                <g id="Group_3320-2" data-name="Group 3320" transform="translate(6.732 8.915)">
                  <circle id="Ellipse_625-2" data-name="Ellipse 625" cx="5.845" cy="5.845" r="5.845" transform="translate(20.464 20.226) rotate(-76.718)" fill="#fff"/>
                  <circle id="Ellipse_626-2" data-name="Ellipse 626" cx="5.845" cy="5.845" r="5.845" transform="translate(0 15.88) rotate(-45)" fill="#fff"/>
                  <path id="Path_6665-2" data-name="Path 6665" d="M824.01,238.667a5.844,5.844,0,0,1-8.346,7.908,5.845,5.845,0,1,0,8.346-7.908Z" transform="translate(-812.306 -227.507)" fill="#efefef"/>
                  <path id="Path_6666-2" data-name="Path 6666" d="M1074.7,238.667a5.844,5.844,0,0,1-8.346,7.908,5.845,5.845,0,1,0,8.346-7.908Z" transform="translate(-1043.762 -227.507)" fill="#efefef"/>
                  <g id="Group_3315-2" data-name="Group 3315" transform="translate(2.153 9.766)">
                    <path id="Path_6667-2" data-name="Path 6667" d="M806.063,232.72a6.114,6.114,0,1,1,6.114-6.114A6.121,6.121,0,0,1,806.063,232.72Zm0-11.691a5.577,5.577,0,1,0,5.577,5.577A5.583,5.583,0,0,0,806.063,221.029Z" transform="translate(-799.949 -220.492)" fill="#fff"/>
                  </g>
                  <circle id="Ellipse_627-2" data-name="Ellipse 627" cx="2.832" cy="2.832" r="2.832" transform="translate(3.631 10.75)" fill="#254069"/>
                  <path id="Path_6668-2" data-name="Path 6668" d="M834.277,249.589a1.159,1.159,0,1,1-1.159-1.159A1.159,1.159,0,0,1,834.277,249.589Z" transform="translate(-827.351 -236.521)" fill="#fff"/>
                  <g id="Group_3316-2" data-name="Group 3316" transform="translate(21.382 9.766)">
                    <path id="Path_6669-2" data-name="Path 6669" d="M1056.749,232.72a6.114,6.114,0,1,1,6.114-6.114A6.121,6.121,0,0,1,1056.749,232.72Zm0-11.691a5.577,5.577,0,1,0,5.577,5.577A5.583,5.583,0,0,0,1056.749,221.029Z" transform="translate(-1050.635 -220.492)" fill="#fff"/>
                  </g>
                  <circle id="Ellipse_628-2" data-name="Ellipse 628" cx="2.832" cy="2.832" r="2.832" transform="translate(23.112 10.639)" fill="#254069"/>
                  <circle id="Ellipse_629-2" data-name="Ellipse 629" cx="1.159" cy="1.159" r="1.159" transform="translate(24.09 11.798)" fill="#fff"/>
                  <path id="Path_6670-2" data-name="Path 6670" d="M799.966,100.164c1.155.791,1.14-1.391,3.292-2.859,1.795-1.224,3.469-.471,3.482-1.5s-2.023-1.727-4.733-.111C799.991,96.892,798.625,99.245,799.966,100.164Z" transform="translate(-797.318 -94.609)" fill="#fff"/>
                  <path id="Path_6671-2" data-name="Path 6671" d="M1125.123,98.867c-1.209.742-1.15-1.449-3.344-3.022-1.83-1.311-3.574-.631-3.567-1.67s2.124-1.642,4.892.1C1125.162,95.58,1126.526,98.006,1125.123,98.867Z" transform="translate(-1091.646 -93.174)" fill="#fff"/>
                  <g id="Group_3317-2" data-name="Group 3317" transform="translate(7.883 24.865)">
                    <path id="Path_6672-2" data-name="Path 6672" d="M895.135,424.888a.383.383,0,0,1-.293-.136,19.733,19.733,0,0,0-3.177-2.823,20.43,20.43,0,0,0-8.6-3.684,9.658,9.658,0,0,0-7.762,1.784.384.384,0,0,1-.521-.563,10.23,10.23,0,0,1,8.4-1.978,21.207,21.207,0,0,1,8.953,3.835,20.048,20.048,0,0,1,3.292,2.935.384.384,0,0,1-.293.631Z" transform="translate(-874.655 -417.323)" fill="#fff"/>
                  </g>
                  <g id="Group_3318-2" data-name="Group 3318" transform="translate(6.384 26.627)">
                    <path id="Path_6673-2" data-name="Path 6673" d="M855.247,440.444a2.331,2.331,0,0,0,.672,2.539,2.141,2.141,0,0,0,.7.4.192.192,0,1,0,.1-.37,1.938,1.938,0,0,1-1.1-2.47.193.193,0,0,0-.134-.236.2.2,0,0,0-.236.134Z" transform="translate(-855.106 -440.303)" fill="#fff"/>
                  </g>
                  <g id="Group_3319-2" data-name="Group 3319" transform="translate(27.86 30.329)">
                    <path id="Path_6674-2" data-name="Path 6674" d="M1135.3,491.953a2.812,2.812,0,0,0,1.917-2.308,3.115,3.115,0,0,0,.007-.958.18.18,0,0,0-.22-.125.184.184,0,0,0-.125.221,2.73,2.73,0,0,1-1.01,2.506,1.891,1.891,0,0,1-.664.318.179.179,0,0,0,.1.346Z" transform="translate(-1135.079 -488.556)" fill="#fff"/>
                  </g>
                </g>
              </g>
              <g id="Group_3356" data-name="Group 3356" transform="translate(160.948 316.92)">
                <g id="Rectangle_1814-2" data-name="Rectangle 1814" transform="translate(0.347)" fill="none" stroke="#edf4fd" stroke-width="1">
                  <rect width="50" height="51" rx="10" stroke="none"/>
                  <rect x="0.5" y="0.5" width="49" height="50" rx="9.5" fill="none"/>
                </g>
                <g id="Group_3357" data-name="Group 3357" transform="translate(-2853.327 -1344.736)">
                  <circle id="Ellipse_633" data-name="Ellipse 633" cx="5.291" cy="5.291" r="5.291" transform="translate(2882.617 1363.764)" fill="#fff"/>
                  <circle id="Ellipse_634" data-name="Ellipse 634" cx="5.291" cy="5.291" r="5.291" transform="translate(2865.211 1363.764)" fill="#fff"/>
                  <path id="Path_6687" data-name="Path 6687" d="M2902.467,1498.1a5.29,5.29,0,0,1-7.554,7.158,5.29,5.29,0,1,0,7.554-7.158Z" transform="translate(-28.853 -133.319)" fill="#efefef"/>
                  <path id="Path_6688" data-name="Path 6688" d="M3153.154,1498.1a5.29,5.29,0,0,1-7.554,7.158,5.29,5.29,0,1,0,7.554-7.158Z" transform="translate(-262.134 -133.319)" fill="#efefef"/>
                  <g id="Group_3343" data-name="Group 3343" transform="translate(2864.968 1363.521)">
                    <path id="Path_6689" data-name="Path 6689" d="M2884.731,1491a5.534,5.534,0,1,1,5.534-5.534A5.54,5.54,0,0,1,2884.731,1491Zm0-10.582a5.048,5.048,0,1,0,5.048,5.048A5.054,5.054,0,0,0,2884.731,1480.413Z" transform="translate(-2879.197 -1479.927)" fill="#fff"/>
                  </g>
                  <path id="Path_6690" data-name="Path 6690" d="M2927.109,1536.18a2.564,2.564,0,1,1-2.563-2.563A2.564,2.564,0,0,1,2927.109,1536.18Z" transform="translate(-54.043 -166.368)" fill="#254069"/>
                  <circle id="Ellipse_635" data-name="Ellipse 635" cx="1.049" cy="1.049" r="1.049" transform="translate(2868.824 1368.298)" fill="#fff"/>
                  <g id="Group_3344" data-name="Group 3344" transform="translate(2882.374 1363.521)">
                    <path id="Path_6691" data-name="Path 6691" d="M3135.418,1491a5.534,5.534,0,1,1,5.534-5.534A5.54,5.54,0,0,1,3135.418,1491Zm0-10.582a5.048,5.048,0,1,0,5.048,5.048A5.054,5.054,0,0,0,3135.418,1480.413Z" transform="translate(-3129.884 -1479.927)" fill="#fff"/>
                  </g>
                  <path id="Path_6692" data-name="Path 6692" d="M3177.795,1536.18a2.563,2.563,0,1,1-2.563-2.563A2.564,2.564,0,0,1,3177.795,1536.18Z" transform="translate(-287.323 -166.368)" fill="#254069"/>
                  <path id="Path_6693" data-name="Path 6693" d="M3187.51,1549.775a1.049,1.049,0,1,1-1.049-1.049A1.049,1.049,0,0,1,3187.51,1549.775Z" transform="translate(-299.183 -180.428)" fill="#fff"/>
                  <path id="Path_6694" data-name="Path 6694" d="M2864.206,1357.915c1.083,1.068,2.152-.756,5.638-1.218,2.907-.385,4.673.836,5.206-.022s-1.728-2.156-6-1.768C2865.868,1355.2,2862.948,1356.675,2864.206,1357.915Z" fill="#fff"/>
                  <path id="Path_6695" data-name="Path 6695" d="M3135.25,1390c-1.354-.761-1.98,1.278-5.378,2.61-2.833,1.11-4.913.375-5.238,1.341s2.272,1.652,6.481.192C3134.246,1393.054,3136.822,1390.88,3135.25,1390Z" transform="translate(-242.598 -32.566)" fill="#fff"/>
                  <path id="Path_6696" data-name="Path 6696" d="M2937.592,1705.971s3.881-7.807,10.761-7.627,9.216,4.956,9.216,4.956-2.943-2.807-8.612-2.376A17.936,17.936,0,0,0,2937.592,1705.971Z" transform="translate(-68.569 -319.655)" fill="#fff"/>
                  <g id="Group_3345" data-name="Group 3345" transform="translate(2888.249 1381.264)">
                    <path id="Path_6697" data-name="Path 6697" d="M3214.9,1735.763a3.541,3.541,0,0,1,.753,1.536,1.8,1.8,0,0,1-.228,1.591.748.748,0,0,1-.713.247.178.178,0,0,0-.094.343,1.054,1.054,0,0,0,.888-.19,1.407,1.407,0,0,0,.522-.83,3.294,3.294,0,0,0-.271-1.984,3.891,3.891,0,0,0-.606-.965.18.18,0,0,0-.252,0,.182.182,0,0,0,0,.252Z" transform="translate(-3214.494 -1735.46)" fill="#fff"/>
                  </g>
                  <g id="Group_3346" data-name="Group 3346" transform="translate(2867.516 1384.81)">
                    <path id="Path_6698" data-name="Path 6698" d="M2917.838,1788.9a1.419,1.419,0,0,1-1.427-2.094c.109-.2-.2-.381-.307-.18a1.82,1.82,0,0,0-.1,1.513,1.78,1.78,0,0,0,1.075,1.025,1.8,1.8,0,0,0,.853.079.179.179,0,0,0,.124-.219.183.183,0,0,0-.219-.124Z" transform="translate(-2915.885 -1786.539)" fill="#fff"/>
                  </g>
                </g>
              </g>
              <g id="Group_3353" data-name="Group 3353" transform="translate(23.948 316.92)">
                <g id="Rectangle_1814-3" data-name="Rectangle 1814" transform="translate(0.347)" fill="none" stroke="#edf4fd" stroke-width="1">
                  <rect width="50" height="51" rx="10" stroke="none"/>
                  <rect x="0.5" y="0.5" width="49" height="50" rx="9.5" fill="none"/>
                </g>
                <g id="Group_3326-2" data-name="Group 3326" transform="translate(8.387 8.915)">
                  <circle id="Ellipse_630-2" data-name="Ellipse 630" cx="5.794" cy="5.794" r="5.794" transform="matrix(0.161, -0.987, 0.987, 0.161, 19.703, 21.889)" fill="#fff"/>
                  <circle id="Ellipse_631-2" data-name="Ellipse 631" cx="5.794" cy="5.794" r="5.794" transform="matrix(0.231, -0.973, 0.973, 0.231, 0.315, 21.4)" fill="#fff"/>
                  <path id="Path_6675-2" data-name="Path 6675" d="M212.129,830.5a5.793,5.793,0,0,1-8.273,7.839,5.794,5.794,0,1,0,8.273-7.839Z" transform="translate(-201.429 -818.076)" fill="#efefef"/>
                  <path id="Path_6676-2" data-name="Path 6676" d="M462.815,830.5a5.793,5.793,0,0,1-8.273,7.839,5.794,5.794,0,1,0,8.273-7.839Z" transform="translate(-433.053 -818.076)" fill="#efefef"/>
                  <g id="Group_3321-2" data-name="Group 3321" transform="translate(1.232 11.042)">
                    <path id="Path_6677-2" data-name="Path 6677" d="M194.2,824.446a6.061,6.061,0,1,1,6.061-6.061A6.067,6.067,0,0,1,194.2,824.446Zm0-11.589a5.528,5.528,0,1,0,5.528,5.528A5.535,5.535,0,0,0,194.2,812.857Z" transform="translate(-188.141 -812.325)" fill="#fff"/>
                  </g>
                  <path id="Path_6678-2" data-name="Path 6678" d="M236.648,892.136a2.807,2.807,0,1,1-2.807-2.807A2.807,2.807,0,0,1,236.648,892.136Z" transform="translate(-226.539 -872.431)" fill="#254069"/>
                  <path id="Path_6679-2" data-name="Path 6679" d="M246.075,905.587a1.149,1.149,0,1,1-1.149-1.149A1.149,1.149,0,0,1,246.075,905.587Z" transform="translate(-238.314 -886.392)" fill="#fff"/>
                  <g id="Group_3322-2" data-name="Group 3322" transform="translate(20.294 11.042)">
                    <path id="Path_6680-2" data-name="Path 6680" d="M444.888,824.446a6.061,6.061,0,1,1,6.061-6.061A6.068,6.068,0,0,1,444.888,824.446Zm0-11.589a5.528,5.528,0,1,0,5.528,5.528A5.534,5.534,0,0,0,444.888,812.857Z" transform="translate(-438.827 -812.325)" fill="#fff"/>
                  </g>
                  <circle id="Ellipse_632-2" data-name="Ellipse 632" cx="2.807" cy="2.807" r="2.807" transform="translate(23.015 21.852) rotate(-77.741)" fill="#254069"/>
                  <path id="Path_6681-2" data-name="Path 6681" d="M496.654,905.587a1.149,1.149,0,1,1-1.149-1.149A1.149,1.149,0,0,1,496.654,905.587Z" transform="translate(-469.84 -886.392)" fill="#fff"/>
                  <path id="Path_6682-2" data-name="Path 6682" d="M172.4,676.147c1.219.864,1.593-1.324,4.393-2.662,2.335-1.116,4.173-.257,4.374-1.293s-2.075-1.856-5.559-.4C173.017,672.869,170.986,675.143,172.4,676.147Z" transform="translate(-171.937 -670.708)" fill="#fff"/>
                  <path id="Path_6683-2" data-name="Path 6683" d="M506.347,672.5c-1.3.929-1.731-1.39-4.758-2.784-2.524-1.162-4.485-.232-4.716-1.33s2.2-1.991,5.962-.483C505.635,669.029,507.851,671.425,506.347,672.5Z" transform="translate(-472.151 -667.107)" fill="#fff"/>
                  <g id="Group_3323-2" data-name="Group 3323" transform="translate(7.372 27.143)">
                    <path id="Path_6684-2" data-name="Path 6684" d="M287.182,1029.17a.38.38,0,0,1-.325-.183,8.156,8.156,0,0,0-1.89-1.941,11.259,11.259,0,0,0-6.213-2.193,11.438,11.438,0,0,0-9.181,4.165.38.38,0,1,1-.608-.457,11.975,11.975,0,0,1,2.594-2.377,11.509,11.509,0,0,1,7.241-2.09,12,12,0,0,1,6.659,2.37,8.708,8.708,0,0,1,2.048,2.127.381.381,0,0,1-.324.578Z" transform="translate(-268.889 -1024.074)" fill="#fff"/>
                  </g>
                  <g id="Group_3324-2" data-name="Group 3324" transform="translate(5.897 30.24)">
                    <path id="Path_6685-2" data-name="Path 6685" d="M250.024,1064.893a3.641,3.641,0,0,0-.275,3.261.2.2,0,0,0,.234.133.192.192,0,0,0,.133-.234,3.283,3.283,0,0,1,.237-2.968c.129-.208-.2-.4-.328-.192Z" transform="translate(-249.486 -1064.803)" fill="#fff"/>
                  </g>
                  <g id="Group_3325-2" data-name="Group 3325" transform="translate(26.224 30.305)">
                    <path id="Path_6686-2" data-name="Path 6686" d="M516.866,1065.981a2.757,2.757,0,0,1,.7,2.761c-.073.234.294.334.367.1a3.14,3.14,0,0,0-.8-3.131c-.175-.17-.445.1-.269.269Z" transform="translate(-516.809 -1065.658)" fill="#fff"/>
                  </g>
                </g>
              </g>
            </g>
          </g>
        </g>
        <g id="Group_3335" data-name="Group 3335" transform="translate(206.172 187)">
          <g id="Group_3327-3" data-name="Group 3327" transform="translate(0 0)">
            <g id="Group_3078-3" data-name="Group 3078">
              <rect id="Rectangle_1710-3" data-name="Rectangle 1710" width="348" height="443" rx="15" transform="translate(0.251 0.17)" fill="#102646"/>
              <text id="Have_you_continued_your_drug_use_despite_knowledge_of_developing_a_persistent_or_recurring_physical_or_psychological_problem_2" data-name="Have you continued your drug use despite knowledge of developing a persistent or recurring physical or psychological problem? " transform="translate(26.251 23.17)" fill="#fff" font-size="18" font-family="ArialMT, Arial"><tspan x="0" y="16">Have you continued your drug use </tspan><tspan x="0" y="46">despite knowledge of developing a </tspan><tspan x="0" y="76">persistent or recurring physical or </tspan><tspan x="0" y="106">psychological problem? </tspan></text>
              <g id="Group_3333-3" data-name="Group 3333" transform="translate(26.244 148.091)">
                <rect id="Rectangle_1708-4" data-name="Rectangle 1708" width="292" height="5" rx="2.5" transform="translate(3.007 15.078)" fill="#dce9f5"/>
                <rect id="Rectangle_1709-4" data-name="Rectangle 1709" width="206" height="5" rx="2.5" transform="translate(3.007 15.078)" fill="#1e64cc"/>
                <g id="Group_3077-3" data-name="Group 3077">
                  <circle id="Ellipse_550-3" data-name="Ellipse 550" cx="16.5" cy="16.5" r="16.5" transform="translate(0.007 0.079)" fill="#dbecff" opacity="0.354"/>
                  <circle id="Ellipse_430-3" data-name="Ellipse 430" cx="14.5" cy="14.5" r="14.5" transform="translate(2.007 2.078)" fill="#fff"/>
                  <path id="Icon_awesome-play-3" data-name="Icon awesome-play" d="M9.888,5,1.687.155A1.112,1.112,0,0,0,0,1.117v9.694a1.117,1.117,0,0,0,1.687.962l8.2-4.846A1.117,1.117,0,0,0,9.888,5Z" transform="translate(12.106 10.329)" fill="#0e58c7"/>
                </g>
              </g>
              <g id="Component_123_13" data-name="Component 123 – 13" transform="translate(25.251 283.17)">
                <g id="Rectangle_1812-4" data-name="Rectangle 1812" fill="none" stroke="#edf4fd" stroke-width="1">
                  <rect width="83" height="84" rx="10" stroke="none"/>
                  <rect x="0.5" y="0.5" width="82" height="83" rx="9.5" fill="none"/>
                </g>
                <g id="Group_3314-3" data-name="Group 3314" transform="translate(12.193 19.15)">
                  <circle id="Ellipse_619-3" data-name="Ellipse 619" cx="9.864" cy="9.864" r="9.864" transform="translate(33.128 26.186) rotate(-72.081)" fill="#fff"/>
                  <circle id="Ellipse_620-3" data-name="Ellipse 620" cx="9.864" cy="9.864" r="9.864" transform="matrix(0.231, -0.973, 0.973, 0.231, 1.223, 27.151)" fill="#fff"/>
                  <path id="Path_6656-3" data-name="Path 6656" d="M223.747,215.621a9.862,9.862,0,0,1-14.083,13.343,9.862,9.862,0,1,0,14.083-13.343Z" transform="translate(-204.846 -203.75)" fill="#f2f5f7"/>
                  <path id="Path_6657-3" data-name="Path 6657" d="M474.433,215.621a9.862,9.862,0,0,1-14.083,13.343,9.862,9.862,0,1,0,14.083-13.343Z" transform="translate(-423.085 -203.75)" fill="#f2f5f7"/>
                  <g id="Group_3309-3" data-name="Group 3309" transform="translate(2.783 9.519)">
                    <path id="Path_6658-3" data-name="Path 6658" d="M204.266,218.078a10.317,10.317,0,1,1,10.317-10.316A10.328,10.328,0,0,1,204.266,218.078Zm0-19.727a9.411,9.411,0,1,0,9.41,9.411A9.421,9.421,0,0,0,204.266,198.351Z" transform="translate(-193.949 -197.445)" fill="#fff"/>
                  </g>
                  <circle id="Ellipse_621-3" data-name="Ellipse 621" cx="4.779" cy="4.779" r="4.779" transform="matrix(0.612, -0.791, 0.791, 0.612, 6.396, 22.102)" fill="#254069"/>
                  <circle id="Ellipse_622-3" data-name="Ellipse 622" cx="1.956" cy="1.956" r="1.956" transform="translate(9.971 18.424)" fill="#fff"/>
                  <g id="Group_3310-3" data-name="Group 3310" transform="translate(35.231 9.519)">
                    <path id="Path_6659-3" data-name="Path 6659" d="M454.952,218.078a10.317,10.317,0,1,1,10.316-10.316A10.328,10.328,0,0,1,454.952,218.078Zm0-19.727a9.411,9.411,0,1,0,9.41,9.411A9.421,9.421,0,0,0,454.952,198.351Z" transform="translate(-444.635 -197.445)" fill="#fff"/>
                  </g>
                  <circle id="Ellipse_623-3" data-name="Ellipse 623" cx="4.779" cy="4.779" r="4.779" transform="translate(38.79 21.247) rotate(-45)" fill="#254069"/>
                  <circle id="Ellipse_624-3" data-name="Ellipse 624" cx="1.956" cy="1.956" r="1.956" transform="translate(42.419 18.424)" fill="#fff"/>
                  <path id="Path_6660-3" data-name="Path 6660" d="M172.922,132.021c1.67,1.919,3.166-1.55,8.336-2.638,4.311-.908,7.006,1.251,7.755-.381s-2.687-3.9-9.033-2.9C175.257,126.846,170.983,129.793,172.922,132.021Z" transform="translate(-172.443 -125.601)" fill="#fff"/>
                  <path id="Path_6661-3" data-name="Path 6661" d="M513.405,130.633c-1.772,1.826-3.077-1.72-8.18-3.089-4.255-1.141-7.064.868-7.723-.8s2.9-3.752,9.178-2.4C511.355,125.339,515.462,128.514,513.405,130.633Z" transform="translate(-455.361 -123.904)" fill="#fff"/>
                  <g id="Group_3311-3" data-name="Group 3311" transform="translate(12.453 35.651)">
                    <path id="Path_6662-3" data-name="Path 6662" d="M285.647,409.132h-.021a20.844,20.844,0,0,1-12.637-4.25,19.385,19.385,0,0,1-4.228-4.272.647.647,0,0,1,1.08-.714,18.5,18.5,0,0,0,3.97,3.984,19.559,19.559,0,0,0,11.817,3.957h.02a20.073,20.073,0,0,0,12.429-4.077,16.848,16.848,0,0,0,3.9-4.11.647.647,0,0,1,1.112.663,17.762,17.762,0,0,1-4.173,4.436A21.349,21.349,0,0,1,285.647,409.132Z" transform="translate(-268.653 -399.335)" fill="#fff"/>
                  </g>
                  <g id="Group_3312-3" data-name="Group 3312" transform="translate(10.053 34.05)">
                    <path id="Path_6663-3" data-name="Path 6663" d="M250.741,390.516a3.743,3.743,0,0,1,2.407-2.908c.415-.126.479-.725-.172-.624a4.6,4.6,0,0,0-2.859,3.36.332.332,0,0,0,.226.4.327.327,0,0,0,.4-.226Z" transform="translate(-250.11 -386.973)" fill="#fff"/>
                  </g>
                  <g id="Group_3313-3" data-name="Group 3313" transform="translate(46.242 33.868)">
                    <path id="Path_6664-3" data-name="Path 6664" d="M529.94,386.2a3.112,3.112,0,0,1,1.924,3.331.333.333,0,0,0,.226.4.326.326,0,0,0,.4-.226,3.774,3.774,0,0,0-2.376-4.128.327.327,0,0,0-.4.226.331.331,0,0,0,.226.4Z" transform="translate(-529.702 -385.563)" fill="#fff"/>
                  </g>
                </g>
              </g>
              <g id="Component_122_14" data-name="Component 122 – 14" transform="translate(135.251 283.17)">
                <g id="Rectangle_1813-3" data-name="Rectangle 1813" transform="translate(0.001 0)" fill="none" stroke="#edf4fd" stroke-width="1">
                  <rect width="78" height="79" rx="10" stroke="none"/>
                  <rect x="0.5" y="0.5" width="77" height="78" rx="9.5" fill="none"/>
                </g>
                <g id="Group_3320-3" data-name="Group 3320" transform="translate(11.768 14.101)">
                  <circle id="Ellipse_625-3" data-name="Ellipse 625" cx="9.245" cy="9.245" r="9.245" transform="translate(32.366 31.989) rotate(-76.718)" fill="#fff"/>
                  <circle id="Ellipse_626-3" data-name="Ellipse 626" cx="9.245" cy="9.245" r="9.245" transform="translate(0 25.116) rotate(-45)" fill="#fff"/>
                  <path id="Path_6665-3" data-name="Path 6665" d="M828.864,238.667a9.243,9.243,0,0,1-13.2,12.506,9.244,9.244,0,1,0,13.2-12.506Z" transform="translate(-810.353 -221.016)" fill="#efefef"/>
                  <path id="Path_6666-3" data-name="Path 6666" d="M1079.55,238.667a9.243,9.243,0,0,1-13.2,12.506,9.244,9.244,0,1,0,13.2-12.506Z" transform="translate(-1030.626 -221.016)" fill="#efefef"/>
                  <g id="Group_3315-3" data-name="Group 3315" transform="translate(3.405 15.446)">
                    <path id="Path_6667-3" data-name="Path 6667" d="M809.619,239.831a9.67,9.67,0,1,1,9.67-9.67A9.681,9.681,0,0,1,809.619,239.831Zm0-18.49a8.82,8.82,0,1,0,8.82,8.82A8.83,8.83,0,0,0,809.619,221.341Z" transform="translate(-799.949 -220.492)" fill="#fff"/>
                  </g>
                  <circle id="Ellipse_627-3" data-name="Ellipse 627" cx="4.479" cy="4.479" r="4.479" transform="translate(5.742 17.002)" fill="#254069"/>
                  <path id="Path_6668-3" data-name="Path 6668" d="M835.625,250.263a1.833,1.833,0,1,1-1.833-1.833A1.833,1.833,0,0,1,835.625,250.263Z" transform="translate(-824.671 -229.595)" fill="#fff"/>
                  <g id="Group_3316-3" data-name="Group 3316" transform="translate(33.818 15.446)">
                    <path id="Path_6669-3" data-name="Path 6669" d="M1060.3,239.831a9.67,9.67,0,1,1,9.67-9.67A9.681,9.681,0,0,1,1060.3,239.831Zm0-18.49a8.82,8.82,0,1,0,8.82,8.82A8.83,8.83,0,0,0,1060.3,221.341Z" transform="translate(-1050.635 -220.492)" fill="#fff"/>
                  </g>
                  <circle id="Ellipse_628-3" data-name="Ellipse 628" cx="4.479" cy="4.479" r="4.479" transform="translate(36.554 16.827)" fill="#254069"/>
                  <circle id="Ellipse_629-3" data-name="Ellipse 629" cx="1.833" cy="1.833" r="1.833" transform="translate(38.1 18.66)" fill="#fff"/>
                  <path id="Path_6670-3" data-name="Path 6670" d="M800.277,103.324c1.826,1.251,1.8-2.2,5.206-4.522,2.839-1.936,5.486-.744,5.507-2.38s-3.2-2.731-7.485-.175C800.316,98.15,798.157,101.872,800.277,103.324Z" transform="translate(-796.089 -94.54)" fill="#fff"/>
                  <path id="Path_6671-3" data-name="Path 6671" d="M1129.143,102.177c-1.912,1.173-1.818-2.292-5.289-4.779-2.894-2.074-5.653-1-5.642-2.641s3.36-2.6,7.736.166C1129.2,96.978,1131.361,100.815,1129.143,102.177Z" transform="translate(-1076.196 -93.174)" fill="#fff"/>
                  <g id="Group_3317-3" data-name="Group 3317" transform="translate(12.468 39.325)">
                    <path id="Path_6672-3" data-name="Path 6672" d="M907.046,429.288a.606.606,0,0,1-.464-.215,31.19,31.19,0,0,0-5.024-4.464,32.311,32.311,0,0,0-13.609-5.826c-7.747-1.245-12.232,2.781-12.276,2.822a.607.607,0,0,1-.824-.891c.2-.183,4.934-4.473,13.293-3.129a33.54,33.54,0,0,1,14.16,6.065,31.717,31.717,0,0,1,5.207,4.641.607.607,0,0,1-.463,1Z" transform="translate(-874.655 -417.324)" fill="#fff"/>
                  </g>
                  <g id="Group_3318-3" data-name="Group 3318" transform="translate(10.096 42.113)">
                    <path id="Path_6673-3" data-name="Path 6673" d="M855.329,440.526a3.686,3.686,0,0,0,1.062,4.015,3.387,3.387,0,0,0,1.1.637.3.3,0,0,0,.161-.585,3.065,3.065,0,0,1-1.74-3.906.305.305,0,0,0-.212-.373.311.311,0,0,0-.373.212Z" transform="translate(-855.106 -440.303)" fill="#fff"/>
                  </g>
                  <g id="Group_3319-3" data-name="Group 3319" transform="translate(44.062 47.967)">
                    <path id="Path_6674-3" data-name="Path 6674" d="M1135.432,493.928a4.448,4.448,0,0,0,3.032-3.65,4.922,4.922,0,0,0,.012-1.515.286.286,0,0,0-.349-.2.291.291,0,0,0-.2.349,4.317,4.317,0,0,1-1.6,3.964,2.99,2.99,0,0,1-1.05.5.284.284,0,0,0,.151.547Z" transform="translate(-1135.079 -488.556)" fill="#fff"/>
                  </g>
                </g>
              </g>
              <g id="Component_121_14" data-name="Component 121 – 14" transform="translate(245.251 283.17)">
                <g id="Rectangle_1814-4" data-name="Rectangle 1814" transform="translate(0.001 0)" fill="none" stroke="#edf4fd" stroke-width="1">
                  <rect width="78" height="79" rx="10" stroke="none"/>
                  <rect x="0.5" y="0.5" width="77" height="78" rx="9.5" fill="none"/>
                </g>
                <g id="Group_3326-3" data-name="Group 3326" transform="translate(12.003 14.101)">
                  <circle id="Ellipse_630-3" data-name="Ellipse 630" cx="9.164" cy="9.164" r="9.164" transform="matrix(0.161, -0.987, 0.987, 0.161, 31.162, 34.62)" fill="#fff"/>
                  <circle id="Ellipse_631-3" data-name="Ellipse 631" cx="9.164" cy="9.164" r="9.164" transform="matrix(0.231, -0.973, 0.973, 0.231, 0.499, 33.846)" fill="#fff"/>
                  <path id="Path_6675-3" data-name="Path 6675" d="M216.941,830.5a9.163,9.163,0,0,1-13.085,12.4,9.163,9.163,0,1,0,13.085-12.4Z" transform="translate(-200.017 -810.85)" fill="#efefef"/>
                  <path id="Path_6676-3" data-name="Path 6676" d="M467.627,830.5a9.163,9.163,0,0,1-13.085,12.4,9.164,9.164,0,1,0,13.085-12.4Z" transform="translate(-420.555 -810.85)" fill="#efefef"/>
                  <g id="Group_3321-3" data-name="Group 3321" transform="translate(1.949 17.464)">
                    <path id="Path_6677-3" data-name="Path 6677" d="M197.726,831.5a9.585,9.585,0,1,1,9.585-9.585A9.6,9.6,0,0,1,197.726,831.5Zm0-18.329a8.743,8.743,0,1,0,8.744,8.744A8.753,8.753,0,0,0,197.726,813.167Z" transform="translate(-188.141 -812.325)" fill="#fff"/>
                  </g>
                  <path id="Path_6678-3" data-name="Path 6678" d="M239.913,893.769a4.44,4.44,0,1,1-4.44-4.44A4.44,4.44,0,0,1,239.913,893.769Z" transform="translate(-223.926 -862.604)" fill="#254069"/>
                  <path id="Path_6679-3" data-name="Path 6679" d="M247.411,906.255a1.817,1.817,0,1,1-1.817-1.817A1.817,1.817,0,0,1,247.411,906.255Z" transform="translate(-235.137 -875.896)" fill="#fff"/>
                  <g id="Group_3322-3" data-name="Group 3322" transform="translate(32.097 17.464)">
                    <path id="Path_6680-3" data-name="Path 6680" d="M448.413,831.5A9.585,9.585,0,1,1,458,821.91,9.6,9.6,0,0,1,448.413,831.5Zm0-18.329a8.743,8.743,0,1,0,8.744,8.744A8.753,8.753,0,0,0,448.413,813.167Z" transform="translate(-438.827 -812.325)" fill="#fff"/>
                  </g>
                  <circle id="Ellipse_632-3" data-name="Ellipse 632" cx="4.44" cy="4.44" r="4.44" transform="translate(36.401 34.561) rotate(-77.741)" fill="#254069"/>
                  <path id="Path_6681-3" data-name="Path 6681" d="M497.99,906.255a1.817,1.817,0,1,1-1.817-1.817A1.817,1.817,0,0,1,497.99,906.255Z" transform="translate(-455.581 -875.896)" fill="#fff"/>
                  <path id="Path_6682-3" data-name="Path 6682" d="M172.672,679.138c1.929,1.367,2.519-2.094,6.948-4.21,3.693-1.765,6.6-.407,6.918-2.045s-3.282-2.936-8.792-.639C173.646,673.954,170.433,677.551,172.672,679.138Z" transform="translate(-171.937 -670.535)" fill="#fff"/>
                  <path id="Path_6683-3" data-name="Path 6683" d="M511.866,675.643c-2.049,1.47-2.737-2.2-7.525-4.4-3.992-1.838-7.093-.368-7.459-2.1s3.478-3.15,9.43-.763C510.74,670.148,514.245,673.936,511.866,675.643Z" transform="translate(-457.782 -667.107)" fill="#fff"/>
                  <g id="Group_3323-3" data-name="Group 3323" transform="translate(11.66 42.93)">
                    <path id="Path_6684-3" data-name="Path 6684" d="M297.822,1032.133a.6.6,0,0,1-.514-.288,12.9,12.9,0,0,0-2.989-3.07,17.805,17.805,0,0,0-9.827-3.469c-9.055-.544-14.467,6.516-14.521,6.587a.6.6,0,0,1-.961-.723,18.928,18.928,0,0,1,4.1-3.76,18.2,18.2,0,0,1,11.452-3.305,18.985,18.985,0,0,1,10.531,3.749,13.771,13.771,0,0,1,3.24,3.364.6.6,0,0,1-.513.914Z" transform="translate(-268.889 -1024.073)" fill="#fff"/>
                  </g>
                  <g id="Group_3324-3" data-name="Group 3324" transform="translate(9.326 47.828)">
                    <path id="Path_6685-3" data-name="Path 6685" d="M250.337,1064.945a5.758,5.758,0,0,0-.436,5.158.311.311,0,0,0,.37.21.3.3,0,0,0,.21-.37,5.192,5.192,0,0,1,.375-4.694c.2-.329-.315-.632-.519-.3Z" transform="translate(-249.486 -1064.803)" fill="#fff"/>
                  </g>
                  <g id="Group_3325-3" data-name="Group 3325" transform="translate(41.475 47.931)">
                    <path id="Path_6686-3" data-name="Path 6686" d="M516.9,1066.169a4.36,4.36,0,0,1,1.1,4.367c-.116.37.465.529.58.16a4.967,4.967,0,0,0-1.26-4.952c-.278-.27-.7.155-.425.425Z" transform="translate(-516.809 -1065.658)" fill="#fff"/>
                  </g>
                </g>
              </g>
              <text id="Never_or_almost_never-2" data-name="Never or almost never" transform="translate(17.131 373.215)" fill="#fff" font-size="12" font-family="ArialMT, Arial"><tspan x="1.449" y="11">Never Or Almost </tspan><tspan x="29.454" y="25">Never</tspan></text>
              <text id="Sometimes-2" data-name="Sometimes" transform="translate(128.878 373.215)" fill="#fff" font-size="12" font-family="ArialMT, Arial"><tspan x="15.45" y="11">Sometimes</tspan></text>
              <text id="Select_suitable_option-3" data-name="Select suitable option" transform="translate(72.64 242.931)" fill="#d2dff2" font-size="12" font-family="ArialMT, Arial"><tspan x="42.326" y="11">Select Suitable Option</tspan></text>
              <text id="Many_times_Almost_always-2" data-name="Many times/Almost always" transform="translate(239.01 373.215)" fill="#fff" font-size="12" font-family="ArialMT, Arial"><tspan x="11.451" y="11">Many Times/</tspan><tspan x="6.781" y="25">Almost Always</tspan></text>
            </g>
          </g>
        </g>
      </g>
    </g>
    <g id="Group_3234" data-name="Group 3234" transform="translate(4.012 -10.262)">
      <path id="Icon_ionic-ios-arrow-back" data-name="Icon ionic-ios-arrow-back" d="M15.217,17.7,23.926,9A1.645,1.645,0,1,0,21.6,6.674l-9.867,9.86a1.642,1.642,0,0,0-.048,2.268l9.908,9.929a1.645,1.645,0,0,0,2.33-2.323Z" transform="translate(362.579 30.069)" fill="#fff"/>
      <path id="Icon_ionic-ios-arrow-back-2" data-name="Icon ionic-ios-arrow-back" d="M3.967,11.506l8.709-8.7A1.645,1.645,0,1,0,10.346.481L.479,10.341a1.642,1.642,0,0,0-.048,2.268l9.908,9.929a1.645,1.645,0,1,0,2.33-2.323Z" transform="translate(377.472 59.28) rotate(180)" fill="#fff"/>
    </g>
    <g id="Component_119_290" data-name="Component 119 – 290" transform="translate(0 779.278)">
      <rect id="Rectangle_1927" data-name="Rectangle 1927" width="412" height="67" transform="translate(0 0.722)" fill="#102646"/>
      <path id="Path_4714" data-name="Path 4714" d="M1053,4508.186h411.151" transform="translate(-1053 -4508.186)" fill="none" stroke="#fff" stroke-width="2" opacity="0.206"/>
      <g id="Group_3096" data-name="Group 3096" transform="translate(-3 -997.186)">
        <text id="Next" transform="translate(318 1038)" fill="#f2f5f7" font-size="18" font-family="ArialMT, Arial"><tspan x="0" y="0">Next</tspan></text>
        <path id="Icon_ionic-ios-arrow-back-3" data-name="Icon ionic-ios-arrow-back" d="M14.033,14.264l6.109-6.1a1.154,1.154,0,0,0-1.634-1.629l-6.921,6.916a1.152,1.152,0,0,0-.034,1.591L18.5,22a1.154,1.154,0,1,0,1.634-1.629Z" transform="translate(389.251 1046.266) rotate(180)" fill="#f2f5f7"/>
      </g>
      <g id="Group_3224" data-name="Group 3224" transform="translate(2.529 7.076)">
        <g id="Group_3212" data-name="Group 3212" transform="translate(34.47 14.737)">
          <text id="Back" transform="translate(19.06 18)" fill="#fff" font-size="18" font-family="ArialMT, Arial"><tspan x="0" y="0">Back</tspan></text>
          <path id="Icon_ionic-ios-arrow-back-4" data-name="Icon ionic-ios-arrow-back" d="M14.033,14.264l6.109-6.1a1.154,1.154,0,0,0-1.634-1.629l-6.921,6.916a1.152,1.152,0,0,0-.034,1.591L18.5,22a1.154,1.154,0,1,0,1.634-1.629Z" transform="translate(-11.251 -3.193)" fill="#fff"/>
        </g>
      </g>
    </g>
  </g>
</svg>
