<svg xmlns="http://www.w3.org/2000/svg" xmlns:xlink="http://www.w3.org/1999/xlink" width="412" height="847" viewBox="0 0 412 847">
  <defs>
    <linearGradient id="linear-gradient" x1="0.5" x2="0.5" y2="1" gradientUnits="objectBoundingBox">
      <stop offset="0" stop-color="#37aadd"/>
      <stop offset="1" stop-color="#1f64cc"/>
    </linearGradient>
    <filter id="Rectangle_1570" x="-24" y="566" width="460" height="304" filterUnits="userSpaceOnUse">
      <feOffset dy="-3" input="SourceAlpha"/>
      <feGaussianBlur stdDeviation="8" result="blur"/>
      <feFlood flood-opacity="0.039"/>
      <feComposite operator="in" in2="blur"/>
      <feComposite in="SourceGraphic"/>
    </filter>
    <filter id="Rectangle_20" x="6" y="533" width="88" height="63" filterUnits="userSpaceOnUse">
      <feOffset dy="10" input="SourceAlpha"/>
      <feGaussianBlur stdDeviation="5" result="blur-2"/>
      <feFlood flood-opacity="0.09"/>
      <feComposite operator="in" in2="blur-2"/>
      <feComposite in="SourceGraphic"/>
    </filter>
    <clipPath id="clip-path">
      <rect width="381" height="242" fill="none"/>
    </clipPath>
    <clipPath id="clip-path-2">
      <rect width="379" height="12.698" fill="none"/>
    </clipPath>
    <clipPath id="clip-De-addiction_Session_4_4">
      <rect width="412" height="847"/>
    </clipPath>
  </defs>
  <g id="De-addiction_Session_4_4" data-name="De-addiction Session 4 – 4" clip-path="url(#clip-De-addiction_Session_4_4)">
    <rect width="412" height="847" fill="url(#linear-gradient)"/>
    <g transform="matrix(1, 0, 0, 1, 0, 0)" filter="url(#Rectangle_1570)">
      <path id="Rectangle_1570-2" data-name="Rectangle 1570" d="M30,0H382a30,30,0,0,1,30,30V256a0,0,0,0,1,0,0H0a0,0,0,0,1,0,0V30A30,30,0,0,1,30,0Z" transform="translate(0 593)" fill="#102646"/>
    </g>
    <g id="Group_3234" data-name="Group 3234" transform="translate(4.012 -10.262)">
      <path id="Icon_ionic-ios-arrow-back" data-name="Icon ionic-ios-arrow-back" d="M15.217,17.7,23.926,9A1.645,1.645,0,1,0,21.6,6.674l-9.867,9.86a1.642,1.642,0,0,0-.048,2.268l9.908,9.929a1.645,1.645,0,0,0,2.33-2.323Z" transform="translate(362.579 30.069)" fill="#fff"/>
      <path id="Icon_ionic-ios-arrow-back-2" data-name="Icon ionic-ios-arrow-back" d="M3.967,11.506l8.709-8.7A1.645,1.645,0,1,0,10.346.481L.479,10.341a1.642,1.642,0,0,0-.048,2.268l9.908,9.929a1.645,1.645,0,1,0,2.33-2.323Z" transform="translate(377.472 59.28) rotate(180)" fill="#fff"/>
    </g>
    <g id="Group_3390" data-name="Group 3390" transform="translate(0 114)">
      <g id="fri_card" data-name="fri card" transform="translate(277.643 384)">
        <rect id="Rectangle_20-2" data-name="Rectangle 20" width="58" height="33" rx="5" transform="translate(0.358 40)" fill="#fff"/>
        <text id="_4pm" data-name="4pm" transform="translate(29.358 62)" fill="#2e5b9f" font-size="12" font-family="Arial-BoldMT, Arial" font-weight="700" letter-spacing="0.015em"><tspan x="-12.517" y="0">4pm</tspan></text>
      </g>
      <g id="fri_card-2" data-name="fri card" transform="translate(341.643 384)">
        <rect id="Rectangle_20-3" data-name="Rectangle 20" width="58" height="33" rx="5" transform="translate(0.358 40)" fill="#fff"/>
        <text id="_5pm" data-name="5pm" transform="translate(29.358 62)" fill="#2e5b9f" font-size="12" font-family="Arial-BoldMT, Arial" font-weight="700" letter-spacing="0.015em"><tspan x="-12.517" y="0">5pm</tspan></text>
      </g>
      <g id="thu_card" data-name="thu card" transform="translate(213.482 384)">
        <rect id="Rectangle_20-4" data-name="Rectangle 20" width="58" height="33" rx="5" transform="translate(-0.482 40)" fill="#102646"/>
        <text id="_3pm" data-name="3pm" transform="translate(28.518 62)" fill="#fff" font-size="12" font-family="Arial-BoldMT, Arial" font-weight="700" letter-spacing="0.015em"><tspan x="-12.517" y="0">3pm</tspan></text>
      </g>
      <g id="wed_card" data-name="wed card" transform="translate(149.32 384)">
        <rect id="Rectangle_20-5" data-name="Rectangle 20" width="58" height="33" rx="5" transform="translate(-0.321 40)" fill="#254069"/>
        <text id="_2pm" data-name="2pm" transform="translate(28.679 62)" fill="#fff" font-size="12" font-family="Arial-BoldMT, Arial" font-weight="700" letter-spacing="0.015em"><tspan x="-12.517" y="0">2pm</tspan></text>
      </g>
      <g id="tue_card" data-name="tue card" transform="translate(85.16 384)">
        <rect id="Rectangle_20-6" data-name="Rectangle 20" width="58" height="33" rx="5" transform="translate(-0.161 40)" fill="#254069"/>
        <text id="_1pm" data-name="1pm" transform="translate(28.839 62)" fill="#fff" font-size="12" font-family="Arial-BoldMT, Arial" font-weight="700" letter-spacing="0.015em"><tspan x="-12.517" y="0">1pm</tspan></text>
      </g>
      <g id="mon_card" data-name="mon card" transform="translate(21 384)">
        <g transform="matrix(1, 0, 0, 1, -21, -498)" filter="url(#Rectangle_20)">
          <rect id="Rectangle_20-7" data-name="Rectangle 20" width="58" height="33" rx="5" transform="translate(21 538)" fill="#102646"/>
        </g>
        <text id="_12pm" data-name="12pm" transform="translate(28 61)" fill="#fff" font-size="12" font-family="Arial-BoldMT, Arial" font-weight="700" letter-spacing="0.015em"><tspan x="-15.944" y="0">12pm</tspan></text>
      </g>
    </g>
    <g id="Group_3391" data-name="Group 3391" transform="translate(166.364 185)">
      <rect id="Rectangle_1847" data-name="Rectangle 1847" width="80" height="34" rx="17" transform="translate(-0.363)" fill="#102646"/>
      <text id="Hour" transform="translate(39.637 22)" fill="#fff" font-size="15" font-family="ArialMT, Arial" letter-spacing="0.015em"><tspan x="-16.594" y="0">Hour</tspan></text>
    </g>
    <g id="Group_3392" data-name="Group 3392" transform="translate(263.728 185)">
      <rect id="Rectangle_1847-2" data-name="Rectangle 1847" width="81" height="34" rx="17" transform="translate(0.271)" fill="#fff"/>
      <text id="Mins" transform="translate(41.271 22)" fill="#2e5b9f" font-size="15" font-family="ArialMT, Arial" letter-spacing="0.015em"><tspan x="-16.172" y="0">Mins</tspan></text>
    </g>
    <g id="tue_card-2" data-name="tue card" transform="translate(68 185)">
      <rect id="Rectangle_20-8" data-name="Rectangle 20" width="81" height="34" rx="17" transform="translate(0)" fill="#fff"/>
      <text id="Day" transform="translate(41 22)" fill="#2e5b9f" font-size="15" font-family="ArialMT, Arial" letter-spacing="0.015em"><tspan x="-13.562" y="0">Day</tspan></text>
    </g>
    <g id="Repeat_Grid_18" data-name="Repeat Grid 18" transform="translate(31 279)" clip-path="url(#clip-path)">
      <g transform="translate(-31 -132)">
        <path id="Rectangle_1848" data-name="Rectangle 1848" d="M5.5,0h0A5.5,5.5,0,0,1,11,5.5V242a0,0,0,0,1,0,0H0a0,0,0,0,1,0,0V5.5A5.5,5.5,0,0,1,5.5,0Z" transform="translate(45 132)" fill="#2e5b9f" opacity="0.5"/>
      </g>
      <g transform="translate(33 -132)">
        <path id="Rectangle_1848-2" data-name="Rectangle 1848" d="M5.5,0h0A5.5,5.5,0,0,1,11,5.5V242a0,0,0,0,1,0,0H0a0,0,0,0,1,0,0V5.5A5.5,5.5,0,0,1,5.5,0Z" transform="translate(45 132)" fill="#2e5b9f" opacity="0.5"/>
      </g>
      <g transform="translate(97 -132)">
        <path id="Rectangle_1848-3" data-name="Rectangle 1848" d="M5.5,0h0A5.5,5.5,0,0,1,11,5.5V242a0,0,0,0,1,0,0H0a0,0,0,0,1,0,0V5.5A5.5,5.5,0,0,1,5.5,0Z" transform="translate(45 132)" fill="#2e5b9f" opacity="0.5"/>
      </g>
      <g transform="translate(161 -132)">
        <path id="Rectangle_1848-4" data-name="Rectangle 1848" d="M5.5,0h0A5.5,5.5,0,0,1,11,5.5V242a0,0,0,0,1,0,0H0a0,0,0,0,1,0,0V5.5A5.5,5.5,0,0,1,5.5,0Z" transform="translate(45 132)" fill="#2e5b9f" opacity="0.5"/>
      </g>
      <g transform="translate(225 -132)">
        <path id="Rectangle_1848-5" data-name="Rectangle 1848" d="M5.5,0h0A5.5,5.5,0,0,1,11,5.5V242a0,0,0,0,1,0,0H0a0,0,0,0,1,0,0V5.5A5.5,5.5,0,0,1,5.5,0Z" transform="translate(45 132)" fill="#2e5b9f" opacity="0.5"/>
      </g>
      <g transform="translate(289 -132)">
        <path id="Rectangle_1848-6" data-name="Rectangle 1848" d="M5.5,0h0A5.5,5.5,0,0,1,11,5.5V242a0,0,0,0,1,0,0H0a0,0,0,0,1,0,0V5.5A5.5,5.5,0,0,1,5.5,0Z" transform="translate(45 132)" fill="#2e5b9f" opacity="0.5"/>
      </g>
    </g>
    <path id="Path_6725" data-name="Path 6725" d="M-20026,14996h378.117" transform="translate(20047 -14475)" fill="none" stroke="#fff" stroke-width="2"/>
    <g id="Repeat_Grid_19" data-name="Repeat Grid 19" transform="translate(21 521)" clip-path="url(#clip-path-2)">
      <g transform="translate(-49.5 -374)">
        <path id="Path_6726" data-name="Path 6726" d="M-19997,14996v7.649" transform="translate(20047 -14622)" fill="none" stroke="#fff" stroke-width="1"/>
      </g>
      <g transform="translate(-28.5 -374)">
        <path id="Path_6726-2" data-name="Path 6726" d="M-19997,14996v7.649" transform="translate(20047 -14622)" fill="none" stroke="#fff" stroke-width="1"/>
      </g>
      <g transform="translate(-7.5 -374)">
        <path id="Path_6726-3" data-name="Path 6726" d="M-19997,14996v7.649" transform="translate(20047 -14622)" fill="none" stroke="#fff" stroke-width="1"/>
      </g>
      <g transform="translate(13.5 -374)">
        <path id="Path_6726-4" data-name="Path 6726" d="M-19997,14996v7.649" transform="translate(20047 -14622)" fill="none" stroke="#fff" stroke-width="1"/>
      </g>
      <g transform="translate(34.5 -374)">
        <path id="Path_6726-5" data-name="Path 6726" d="M-19997,14996v7.649" transform="translate(20047 -14622)" fill="none" stroke="#fff" stroke-width="1"/>
      </g>
      <g transform="translate(55.5 -374)">
        <path id="Path_6726-6" data-name="Path 6726" d="M-19997,14996v7.649" transform="translate(20047 -14622)" fill="none" stroke="#fff" stroke-width="1"/>
      </g>
      <g transform="translate(76.5 -374)">
        <path id="Path_6726-7" data-name="Path 6726" d="M-19997,14996v7.649" transform="translate(20047 -14622)" fill="none" stroke="#fff" stroke-width="1"/>
      </g>
      <g transform="translate(97.5 -374)">
        <path id="Path_6726-8" data-name="Path 6726" d="M-19997,14996v7.649" transform="translate(20047 -14622)" fill="none" stroke="#fff" stroke-width="1"/>
      </g>
      <g transform="translate(118.5 -374)">
        <path id="Path_6726-9" data-name="Path 6726" d="M-19997,14996v7.649" transform="translate(20047 -14622)" fill="none" stroke="#fff" stroke-width="1"/>
      </g>
      <g transform="translate(139.5 -374)">
        <path id="Path_6726-10" data-name="Path 6726" d="M-19997,14996v7.649" transform="translate(20047 -14622)" fill="none" stroke="#fff" stroke-width="1"/>
      </g>
      <g transform="translate(160.5 -374)">
        <path id="Path_6726-11" data-name="Path 6726" d="M-19997,14996v7.649" transform="translate(20047 -14622)" fill="none" stroke="#fff" stroke-width="1"/>
      </g>
      <g transform="translate(181.5 -374)">
        <path id="Path_6726-12" data-name="Path 6726" d="M-19997,14996v7.649" transform="translate(20047 -14622)" fill="none" stroke="#fff" stroke-width="1"/>
      </g>
      <g transform="translate(202.5 -374)">
        <path id="Path_6726-13" data-name="Path 6726" d="M-19997,14996v7.649" transform="translate(20047 -14622)" fill="none" stroke="#fff" stroke-width="1"/>
      </g>
      <g transform="translate(223.5 -374)">
        <path id="Path_6726-14" data-name="Path 6726" d="M-19997,14996v7.649" transform="translate(20047 -14622)" fill="none" stroke="#fff" stroke-width="1"/>
      </g>
      <g transform="translate(244.5 -374)">
        <path id="Path_6726-15" data-name="Path 6726" d="M-19997,14996v7.649" transform="translate(20047 -14622)" fill="none" stroke="#fff" stroke-width="1"/>
      </g>
      <g transform="translate(265.5 -374)">
        <path id="Path_6726-16" data-name="Path 6726" d="M-19997,14996v7.649" transform="translate(20047 -14622)" fill="none" stroke="#fff" stroke-width="1"/>
      </g>
      <g transform="translate(286.5 -374)">
        <path id="Path_6726-17" data-name="Path 6726" d="M-19997,14996v7.649" transform="translate(20047 -14622)" fill="none" stroke="#fff" stroke-width="1"/>
      </g>
      <g transform="translate(307.5 -374)">
        <path id="Path_6726-18" data-name="Path 6726" d="M-19997,14996v7.649" transform="translate(20047 -14622)" fill="none" stroke="#fff" stroke-width="1"/>
      </g>
      <g transform="translate(328.5 -374)">
        <path id="Path_6726-19" data-name="Path 6726" d="M-19997,14996v7.649" transform="translate(20047 -14622)" fill="none" stroke="#fff" stroke-width="1"/>
      </g>
    </g>
    <g id="Group_3393" data-name="Group 3393" transform="translate(9 143)">
      <g id="Rectangle_1849" data-name="Rectangle 1849" transform="translate(31 171)" fill="#1e64cc" stroke="#d2dff2" stroke-width="1">
        <rect width="59" height="35" rx="6" stroke="none"/>
        <rect x="0.5" y="0.5" width="58" height="34" rx="5.5" fill="none"/>
      </g>
      <text id="_08" data-name="08" transform="translate(59 194)" fill="#fff" font-size="15" font-family="Arial-BoldMT, Arial" font-weight="700" letter-spacing="0.015em"><tspan x="-8.455" y="0">08</tspan></text>
    </g>
    <g id="Group_3395" data-name="Group 3395" transform="translate(203 235)">
      <g id="Rectangle_1849-2" data-name="Rectangle 1849" transform="translate(31 171)" fill="#1e64cc" stroke="#d2dff2" stroke-width="1">
        <rect width="59" height="35" rx="6" stroke="none"/>
        <rect x="0.5" y="0.5" width="58" height="34" rx="5.5" fill="none"/>
      </g>
      <text id="_03" data-name="03" transform="translate(59 194)" fill="#fff" font-size="15" font-family="Arial-BoldMT, Arial" font-weight="700" letter-spacing="0.015em"><tspan x="-8.455" y="0">03</tspan></text>
    </g>
    <path id="Rectangle_1850" data-name="Rectangle 1850" d="M5.5,0h0A5.5,5.5,0,0,1,11,5.5V151a0,0,0,0,1,0,0H0a0,0,0,0,1,0,0V5.5A5.5,5.5,0,0,1,5.5,0Z" transform="translate(45 369)" fill="#102646"/>
    <path id="Rectangle_1851" data-name="Rectangle 1851" d="M5.5,0h0A5.5,5.5,0,0,1,11,5.5V59a0,0,0,0,1,0,0H0a0,0,0,0,1,0,0V5.5A5.5,5.5,0,0,1,5.5,0Z" transform="translate(237 461)" fill="#102646"/>
    <g id="Ellipse_641" data-name="Ellipse 641" transform="translate(40 359)" fill="#fff" stroke="#1e64c9" stroke-width="6">
      <circle cx="11" cy="11" r="11" stroke="none"/>
      <circle cx="11" cy="11" r="8" fill="none"/>
    </g>
    <g id="Ellipse_642" data-name="Ellipse 642" transform="translate(232 451)" fill="#fff" stroke="#1e64c9" stroke-width="6">
      <circle cx="11" cy="11" r="11" stroke="none"/>
      <circle cx="11" cy="11" r="8" fill="none"/>
    </g>
    <text id="Urge_Time_-_disappearance_Rating" data-name="Urge Time - disappearance &amp; Rating" transform="translate(49 143)" fill="#fff" font-size="18" font-family="ArialMT, Arial"><tspan x="11.927" y="16">Urge Time - disappearance &amp; Rating</tspan></text>
    <text id="Time_of_disappearance" data-name="Time of disappearance" transform="translate(40 658)" fill="#fff" font-size="18" font-family="ArialMT, Arial"><tspan x="0" y="16">Time of disappearance</tspan></text>
    <text id="_12pm-2" data-name="12pm" transform="translate(257 658)" fill="#fff" font-size="18" font-family="ArialMT, Arial"><tspan x="0" y="16">12pm</tspan></text>
    <text id="Rating_1-10" data-name="Rating 1-10" transform="translate(40 707)" fill="#fff" font-size="18" font-family="ArialMT, Arial"><tspan x="0" y="16">Rating 1-10</tspan></text>
    <text id="_9_10" data-name="9/10" transform="translate(257 707)" fill="#fff" font-size="18" font-family="ArialMT, Arial"><tspan x="0" y="16">9/10</tspan></text>
    <g id="Component_119_333" data-name="Component 119 – 333" transform="translate(0 779.278)">
      <rect id="Rectangle_1927" data-name="Rectangle 1927" width="412" height="67" transform="translate(0 0.722)" fill="#102646"/>
      <path id="Path_4714" data-name="Path 4714" d="M1053,4508.186h411.151" transform="translate(-1053 -4508.186)" fill="none" stroke="#fff" stroke-width="2" opacity="0.206"/>
      <g id="Group_3096" data-name="Group 3096" transform="translate(-3 -997.186)">
        <text id="Next" transform="translate(318 1038)" fill="#f2f5f7" font-size="18" font-family="ArialMT, Arial"><tspan x="0" y="0">Next</tspan></text>
        <path id="Icon_ionic-ios-arrow-back-3" data-name="Icon ionic-ios-arrow-back" d="M14.033,14.264l6.109-6.1a1.154,1.154,0,0,0-1.634-1.629l-6.921,6.916a1.152,1.152,0,0,0-.034,1.591L18.5,22a1.154,1.154,0,1,0,1.634-1.629Z" transform="translate(389.251 1046.266) rotate(180)" fill="#f2f5f7"/>
      </g>
      <g id="Group_3224" data-name="Group 3224" transform="translate(2.529 7.076)">
        <g id="Group_3212" data-name="Group 3212" transform="translate(34.47 14.737)">
          <text id="Back" transform="translate(19.06 18)" fill="#fff" font-size="18" font-family="ArialMT, Arial"><tspan x="0" y="0">Back</tspan></text>
          <path id="Icon_ionic-ios-arrow-back-4" data-name="Icon ionic-ios-arrow-back" d="M14.033,14.264l6.109-6.1a1.154,1.154,0,0,0-1.634-1.629l-6.921,6.916a1.152,1.152,0,0,0-.034,1.591L18.5,22a1.154,1.154,0,1,0,1.634-1.629Z" transform="translate(-11.251 -3.193)" fill="#fff"/>
        </g>
      </g>
    </g>
    <text id="Session_4_Identification_of_Risk_situations" data-name="Session 4
Identification of Risk situations" transform="translate(21 26)" fill="#fff" font-size="16" font-family="ArialMT, Arial"><tspan x="0" y="14">Session 4</tspan><tspan font-size="24" font-family="Arial-BoldMT, Arial" font-weight="700"><tspan x="0" y="49">Identification of Risk </tspan><tspan x="0" y="84">situations</tspan></tspan></text>
  </g>
</svg>
