<svg xmlns="http://www.w3.org/2000/svg" xmlns:xlink="http://www.w3.org/1999/xlink" width="412" height="847" viewBox="0 0 412 847">
  <defs>
    <linearGradient id="linear-gradient" x1="0.5" x2="0.5" y2="1" gradientUnits="objectBoundingBox">
      <stop offset="0" stop-color="#37aadd"/>
      <stop offset="1" stop-color="#1f64cc"/>
    </linearGradient>
    <filter id="Rectangle_1570" x="-24" y="84" width="460" height="786" filterUnits="userSpaceOnUse">
      <feOffset dy="-3" input="SourceAlpha"/>
      <feGaussianBlur stdDeviation="8" result="blur"/>
      <feFlood flood-opacity="0.039"/>
      <feComposite operator="in" in2="blur"/>
      <feComposite in="SourceGraphic"/>
    </filter>
    <clipPath id="clip-deaddicSession_2_2">
      <rect width="412" height="847"/>
    </clipPath>
  </defs>
  <g id="deaddicSession_2_2" data-name="deaddicSession 2 – 2" clip-path="url(#clip-deaddicSession_2_2)">
    <rect width="412" height="847" fill="url(#linear-gradient)"/>
    <g transform="matrix(1, 0, 0, 1, 0, 0)" filter="url(#Rectangle_1570)">
      <path id="Rectangle_1570-2" data-name="Rectangle 1570" d="M30,0H382a30,30,0,0,1,30,30V738a0,0,0,0,1,0,0H0a0,0,0,0,1,0,0V30A30,30,0,0,1,30,0Z" transform="translate(0 111)" fill="#102646"/>
    </g>
    <text id="Select_or_type_your_addictive_substance_Examples_Alcohol_Canabis_Cigarette_internet_addiction_" data-name="Select or type your addictive substance

Examples
Alcohol, Canabis, Cigarette, internet addiction 
" transform="translate(21 142)" fill="#fff" font-size="18" font-family="ArialMT, Arial"><tspan x="0" y="16">Select or type your addictive substance</tspan><tspan x="0" y="41"></tspan><tspan fill="#8eb1e5" font-size="14"><tspan x="0" y="66">Examples</tspan></tspan><tspan font-size="14"><tspan x="0" y="91">Alcohol, Canabis, Cigarette, internet addiction </tspan></tspan></text>
    <text id="Session_1_Add_your_addiction" data-name="Session 1
Add your addiction" transform="translate(21 26)" fill="#fff" font-size="16" font-family="ArialMT, Arial"><tspan x="0" y="14">Session 1</tspan><tspan font-size="24" font-family="Arial-BoldMT, Arial" font-weight="700"><tspan x="0" y="49">Add your addiction</tspan></tspan></text>
    <g id="Group_3234" data-name="Group 3234" transform="translate(4.012 -10.262)">
      <path id="Icon_ionic-ios-arrow-back" data-name="Icon ionic-ios-arrow-back" d="M15.217,17.7,23.926,9A1.645,1.645,0,1,0,21.6,6.674l-9.867,9.86a1.642,1.642,0,0,0-.048,2.268l9.908,9.929a1.645,1.645,0,0,0,2.33-2.323Z" transform="translate(362.579 30.069)" fill="#fff"/>
      <path id="Icon_ionic-ios-arrow-back-2" data-name="Icon ionic-ios-arrow-back" d="M3.967,11.506l8.709-8.7A1.645,1.645,0,1,0,10.346.481L.479,10.341a1.642,1.642,0,0,0-.048,2.268l9.908,9.929a1.645,1.645,0,1,0,2.33-2.323Z" transform="translate(377.472 59.28) rotate(180)" fill="#fff"/>
    </g>
    <text id="I_Consume_atleast_500_ml_a_day_" data-name="I Consume atleast 500 ml a day
" transform="translate(29 592)" fill="#fff" font-size="14" font-family="ArialMT, Arial"><tspan x="0" y="13">I Consume </tspan><tspan y="13" font-family="Arial-BoldMT, Arial" font-weight="700">atleast 500 ml a day</tspan></text>
    <g id="Group_3379" data-name="Group 3379" transform="translate(21 400)">
      <g id="Group_3374" data-name="Group 3374" transform="translate(0)">
        <rect id="Rectangle_1845" data-name="Rectangle 1845" width="370" height="142" rx="6" transform="translate(0 34)" fill="#edf4fd"/>
        <g id="Group_3384" data-name="Group 3384" transform="translate(22.195 62.5)">
          <path id="Path_6722" data-name="Path 6722" d="M1053,4508.186h174.151" transform="translate(-898.859 -4480)" fill="none" stroke="#2e5b9f" stroke-width="1"/>
          <path id="Path_6723" data-name="Path 6723" d="M1053,4508.186h103.457" transform="translate(-1052.873 -4422)" fill="none" stroke="#2e5b9f" stroke-width="1"/>
          <text id="_500" data-name="500" transform="translate(154.141)" fill="#2e5b9f" font-size="16" font-family="ArialMT, Arial"><tspan x="0" y="14">500</tspan></text>
          <text id="ml" transform="translate(0 58)" fill="#2e5b9f" font-size="16" font-family="ArialMT, Arial"><tspan x="0" y="14">ml</tspan></text>
          <g id="Group_3385" data-name="Group 3385" transform="translate(0)">
            <text id="At_least" data-name="At least" fill="#2e5b9f" font-size="18" font-family="Arial-BoldMT, Arial" font-weight="700"><tspan x="0" y="16">At least</tspan></text>
            <path id="Icon_feather-chevron-down" data-name="Icon feather-chevron-down" d="M9,13.5l6.994,6.994L22.988,13.5" transform="translate(72.006 -3.997)" fill="none" stroke="#2e5b9f" stroke-linecap="round" stroke-linejoin="round" stroke-width="2"/>
          </g>
          <g id="Group_3387" data-name="Group 3387" transform="translate(123.828 58.186)">
            <text id="A_day" data-name="A day" fill="#2e5b9f" font-size="18" font-family="Arial-BoldMT, Arial" font-weight="700"><tspan x="0" y="16">A day</tspan></text>
            <path id="Icon_feather-chevron-down-2" data-name="Icon feather-chevron-down" d="M9,13.5l6.994,6.994L22.988,13.5" transform="translate(65 -3.997)" fill="none" stroke="#2e5b9f" stroke-linecap="round" stroke-linejoin="round" stroke-width="2"/>
          </g>
        </g>
        <text id="Consumption" transform="translate(2 1)" fill="#fff" font-size="18" font-family="ArialMT, Arial"><tspan x="0" y="16">Consumption</tspan></text>
      </g>
    </g>
    <g id="Group_3868" data-name="Group 3868" transform="translate(0 17)">
      <text id="Substance_Name" data-name="Substance Name" transform="translate(23 271)" fill="#fff" font-size="18" font-family="ArialMT, Arial"><tspan x="0" y="16">Substance Name</tspan></text>
      <rect id="Rectangle_1949" data-name="Rectangle 1949" width="366" height="55" rx="10" transform="translate(23 304)" fill="#edf4fd"/>
      <text id="Liquor" transform="translate(36 321)" fill="#2e5b9f" font-size="16" font-family="ArialMT, Arial"><tspan x="0" y="14">Liquor</tspan></text>
    </g>
    <g id="Component_120_30" data-name="Component 120 – 30" transform="translate(0 780)">
      <rect id="Rectangle_1927" data-name="Rectangle 1927" width="412" height="67" fill="#102646"/>
      <g id="Group_3224" data-name="Group 3224" transform="translate(-13.471 6.262)">
        <g id="Group_3212" data-name="Group 3212" transform="translate(34.47 14.737)">
          <text id="Back" transform="translate(19.06 18)" fill="#fff" font-size="18" font-family="ArialMT, Arial"><tspan x="0" y="0">Back</tspan></text>
          <path id="Icon_ionic-ios-arrow-back-3" data-name="Icon ionic-ios-arrow-back" d="M14.033,14.264l6.109-6.1a1.154,1.154,0,0,0-1.634-1.629l-6.921,6.916a1.152,1.152,0,0,0-.034,1.591L18.5,22a1.154,1.154,0,1,0,1.634-1.629Z" transform="translate(-11.251 -3.193)" fill="#fff"/>
        </g>
      </g>
      <g id="Group_3096" data-name="Group 3096" transform="translate(-14 -999)">
        <text id="Submit" transform="translate(405 1038)" fill="#fff" font-size="20" font-family="ArialMT, Arial"><tspan x="-62.246" y="0">Submit</tspan></text>
      </g>
    </g>
  </g>
</svg>
