<svg xmlns="http://www.w3.org/2000/svg" xmlns:xlink="http://www.w3.org/1999/xlink" width="412" height="847" viewBox="0 0 412 847">
  <defs>
    <linearGradient id="linear-gradient" x1="0.5" x2="0.5" y2="1" gradientUnits="objectBoundingBox">
      <stop offset="0" stop-color="#37aadd"/>
      <stop offset="1" stop-color="#1f64cc"/>
    </linearGradient>
    <filter id="Rectangle_1570" x="-24" y="84" width="460" height="786" filterUnits="userSpaceOnUse">
      <feOffset dy="-3" input="SourceAlpha"/>
      <feGaussianBlur stdDeviation="8" result="blur"/>
      <feFlood flood-opacity="0.039"/>
      <feComposite operator="in" in2="blur"/>
      <feComposite in="SourceGraphic"/>
    </filter>
    <clipPath id="clip-Edit_Addiction_2">
      <rect width="412" height="847"/>
    </clipPath>
  </defs>
  <g id="Edit_Addiction_2" data-name="Edit Addiction 2" clip-path="url(#clip-Edit_Addiction_2)">
    <rect width="412" height="847" fill="url(#linear-gradient)"/>
    <g transform="matrix(1, 0, 0, 1, 0, 0)" filter="url(#Rectangle_1570)">
      <path id="Rectangle_1570-2" data-name="Rectangle 1570" d="M30,0H382a30,30,0,0,1,30,30V738a0,0,0,0,1,0,0H0a0,0,0,0,1,0,0V30A30,30,0,0,1,30,0Z" transform="translate(0 111)" fill="#102646"/>
    </g>
    <g id="Group_3380" data-name="Group 3380">
      <path id="Path_4714" data-name="Path 4714" d="M1053,4508.186h411.151" transform="translate(-1053 -3729)" fill="none" stroke="#fff" stroke-width="2" opacity="0.206"/>
      <g id="Group_3096" data-name="Group 3096" transform="translate(-15 -218)">
        <text id="Next" transform="translate(310 1038)" fill="#f2f5f7" font-size="20" font-family="ArialMT, Arial"><tspan x="0" y="0">Next</tspan></text>
        <path id="Icon_ionic-ios-arrow-back" data-name="Icon ionic-ios-arrow-back" d="M14.033,14.264l6.109-6.1a1.154,1.154,0,0,0-1.634-1.629l-6.921,6.916a1.152,1.152,0,0,0-.034,1.591L18.5,22a1.154,1.154,0,1,0,1.634-1.629Z" transform="translate(389.251 1046.266) rotate(180)" fill="#f2f5f7"/>
      </g>
      <g id="Group_3224" data-name="Group 3224" transform="translate(0 786.262)">
        <g id="Group_3212" data-name="Group 3212" transform="translate(34.47 14.737)">
          <text id="Back" transform="translate(19.06 18)" fill="#fff" font-size="18" font-family="ArialMT, Arial"><tspan x="0" y="0">Back</tspan></text>
          <path id="Icon_ionic-ios-arrow-back-2" data-name="Icon ionic-ios-arrow-back" d="M14.033,14.264l6.109-6.1a1.154,1.154,0,0,0-1.634-1.629l-6.921,6.916a1.152,1.152,0,0,0-.034,1.591L18.5,22a1.154,1.154,0,1,0,1.634-1.629Z" transform="translate(-11.251 -3.193)" fill="#fff"/>
        </g>
      </g>
    </g>
    <text id="De-addiction_Reduce_liquor" data-name="De-addiction
Reduce liquor" transform="translate(58 26)" fill="#fff" font-size="16" font-family="ArialMT, Arial"><tspan x="0" y="14">De-addiction</tspan><tspan font-size="24" font-family="Arial-BoldMT, Arial" font-weight="700"><tspan x="0" y="49">Reduce liquor</tspan></tspan></text>
    <text id="Save" transform="translate(382 76)" fill="#fff" font-size="24" font-family="ArialMT, Arial"><tspan x="-54.703" y="0">Save</tspan></text>
    <g id="Group_2755" data-name="Group 2755" transform="translate(-1 -767)">
      <g id="Rectangle_1564" data-name="Rectangle 1564" transform="translate(12 789)" fill="#fff" stroke="#707070" stroke-width="1" opacity="0">
        <rect width="50" height="45" stroke="none"/>
        <rect x="0.5" y="0.5" width="49" height="44" fill="none"/>
      </g>
      <path id="Path_4565" data-name="Path 4565" d="M35.606,24.011l-7.368-7.1,7.368-7.1a1.37,1.37,0,0,0,.424-.982,1.4,1.4,0,0,0-.4-1,1.369,1.369,0,0,0-.982-.424h-.022a1.385,1.385,0,0,0-.982.4l-8.417,8.1a1.42,1.42,0,0,0-.424,1,1.382,1.382,0,0,0,.424,1l8.439,8.1a1.443,1.443,0,0,0,.982.4,1.42,1.42,0,0,0,1-.424,1.4,1.4,0,0,0,.4-1A1.274,1.274,0,0,0,35.606,24.011Z" transform="translate(5.036 792.435)" fill="#fff"/>
    </g>
    <g id="Group_3375" data-name="Group 3375" transform="translate(21 525)">
      <rect id="Rectangle_1842" data-name="Rectangle 1842" width="370" height="55" rx="6" fill="#edf4fd"/>
      <text id="Time_spent" data-name="Time spent" transform="translate(9 34)" fill="#2e5b9f" font-size="16" font-family="ArialMT, Arial"><tspan x="0" y="0">Time spent</tspan></text>
      <text id="_00_:_00" data-name="00 : 00" transform="translate(132 34)" fill="#2e5b9f" font-size="16" font-family="ArialMT, Arial" opacity="0.5"><tspan x="0" y="0">00 : 00</tspan></text>
      <path id="Path_6714" data-name="Path 6714" d="M0,0H19.817" transform="translate(113.065 17.5) rotate(90)" fill="none" stroke="#8eb1e5" stroke-width="1"/>
    </g>
    <g id="Group_3876" data-name="Group 3876" transform="translate(21 262)">
      <rect id="Rectangle_1842-2" data-name="Rectangle 1842" width="370" height="55" rx="6" fill="#edf4fd"/>
      <text id="From" transform="translate(9 34)" fill="#2e5b9f" font-size="16" font-family="ArialMT, Arial"><tspan x="0" y="0">From</tspan></text>
      <text id="_2012" data-name="2012" transform="translate(122 34)" fill="#2e5b9f" font-size="16" font-family="ArialMT, Arial" opacity="0.5"><tspan x="0" y="0">2012</tspan></text>
      <path id="Path_6714-2" data-name="Path 6714" d="M0,0H19.817" transform="translate(103.065 17.5) rotate(90)" fill="none" stroke="#8eb1e5" stroke-width="1"/>
    </g>
    <g id="Group_3376" data-name="Group 3376" transform="translate(21 606)">
      <rect id="Rectangle_1843" data-name="Rectangle 1843" width="370" height="55" rx="6" fill="#edf4fd"/>
      <text id="Money_spent" data-name="Money spent" transform="translate(9 34)" fill="#2e5b9f" font-size="16" font-family="ArialMT, Arial"><tspan x="0" y="0">Money spent</tspan></text>
      <text id="_0.00" data-name="0.00" transform="translate(132 34)" fill="#2e5b9f" font-size="16" font-family="ArialMT, Arial" opacity="0.5"><tspan x="0" y="0">0.00</tspan></text>
      <path id="Path_6715" data-name="Path 6715" d="M0,0H19.817" transform="translate(113.065 17.5) rotate(90)" fill="none" stroke="#8eb1e5" stroke-width="1"/>
    </g>
    <g id="Group_3877" data-name="Group 3877" transform="translate(21 343)">
      <rect id="Rectangle_1843-2" data-name="Rectangle 1843" width="370" height="55" rx="6" fill="#edf4fd"/>
      <text id="To" transform="translate(9 34)" fill="#2e5b9f" font-size="16" font-family="ArialMT, Arial"><tspan x="0" y="0">To</tspan></text>
      <text id="Still_Continuing_" data-name="Still Continuing " transform="translate(122 34)" fill="#2e5b9f" font-size="16" font-family="ArialMT, Arial" opacity="0.5"><tspan x="0" y="0">Still Continuing </tspan></text>
      <path id="Path_6715-2" data-name="Path 6715" d="M0,0H19.817" transform="translate(103.065 17.5) rotate(90)" fill="none" stroke="#8eb1e5" stroke-width="1"/>
    </g>
    <text id="Enter_Time_Period_from_when_you_started_to_use_the_substance" data-name="Enter Time Period from when you started to use the substance" transform="translate(21 187)" fill="#fff" font-size="18" font-family="ArialMT, Arial"><tspan x="0" y="16">Enter Time Period from when you started to </tspan><tspan x="0" y="46">use the substance</tspan></text>
    <text id="Enter_Time_and_money_spent_on_the_substance" data-name="Enter Time and money spent on the substance" transform="translate(21 458)" fill="#fff" font-size="18" font-family="ArialMT, Arial"><tspan x="0" y="16">Enter Time and money spent on the </tspan><tspan x="0" y="46">substance</tspan></text>
  </g>
</svg>
