<svg xmlns="http://www.w3.org/2000/svg" xmlns:xlink="http://www.w3.org/1999/xlink" width="412" height="847" viewBox="0 0 412 847">
  <defs>
    <linearGradient id="linear-gradient" x1="0.5" x2="0.5" y2="1" gradientUnits="objectBoundingBox">
      <stop offset="0" stop-color="#37aadd"/>
      <stop offset="1" stop-color="#1f64cc"/>
    </linearGradient>
    <filter id="Rectangle_1570" x="-24" y="84" width="460" height="786" filterUnits="userSpaceOnUse">
      <feOffset dy="-3" input="SourceAlpha"/>
      <feGaussianBlur stdDeviation="8" result="blur"/>
      <feFlood flood-opacity="0.039"/>
      <feComposite operator="in" in2="blur"/>
      <feComposite in="SourceGraphic"/>
    </filter>
    <clipPath id="clip-Emergency_plan">
      <rect width="412" height="847"/>
    </clipPath>
  </defs>
  <g id="Emergency_plan" data-name="Emergency plan" clip-path="url(#clip-Emergency_plan)">
    <rect width="412" height="847" fill="url(#linear-gradient)"/>
    <g transform="matrix(1, 0, 0, 1, 0, 0)" filter="url(#Rectangle_1570)">
      <path id="Rectangle_1570-2" data-name="Rectangle 1570" d="M30,0H382a30,30,0,0,1,30,30V738a0,0,0,0,1,0,0H0a0,0,0,0,1,0,0V30A30,30,0,0,1,30,0Z" transform="translate(0 111)" fill="#102646"/>
    </g>
    <text id="By_pressing_the_panic_button_preferential_exercises_for_relapse_prevention_will_be_activated_serially_" data-name="By pressing the panic button preferential exercises for relapse prevention will be activated serially " transform="translate(21 142)" fill="#fff" font-size="18" font-family="ArialMT, Arial"><tspan x="0" y="16">By pressing the panic button preferential </tspan><tspan x="0" y="41">exercises for relapse prevention will be </tspan><tspan x="0" y="66">activated serially </tspan></text>
    <text id="_2._you_can_self_talk" data-name="2. you can self talk" transform="translate(21 499)" fill="#fff" font-size="18" font-family="ArialMT, Arial"><tspan x="0" y="16">2. you can self talk</tspan></text>
    <text id="_3._Listen_to_Soothing_mindful_music" data-name="3. Listen to Soothing mindful music" transform="translate(21 554)" fill="#fff" font-size="18" font-family="ArialMT, Arial"><tspan x="0" y="16">3. Listen to Soothing mindful music</tspan></text>
    <g id="Group_3380" data-name="Group 3380">
      <path id="Path_4714" data-name="Path 4714" d="M1053,4508.186h411.151" transform="translate(-1053 -3729)" fill="none" stroke="#fff" stroke-width="2" opacity="0.206"/>
      <g id="Group_3096" data-name="Group 3096" transform="translate(-15 -218)">
        <text id="Done" transform="translate(334 1038)" fill="#f2f5f7" font-size="20" font-family="ArialMT, Arial"><tspan x="0" y="0">Done</tspan></text>
      </g>
      <g id="Group_3224" data-name="Group 3224" transform="translate(0 786.262)">
        <g id="Group_3212" data-name="Group 3212" transform="translate(34.47 14.737)">
          <text id="Back" transform="translate(19.06 18)" fill="#fff" font-size="18" font-family="ArialMT, Arial"><tspan x="0" y="0">Back</tspan></text>
          <path id="Icon_ionic-ios-arrow-back" data-name="Icon ionic-ios-arrow-back" d="M14.033,14.264l6.109-6.1a1.154,1.154,0,0,0-1.634-1.629l-6.921,6.916a1.152,1.152,0,0,0-.034,1.591L18.5,22a1.154,1.154,0,1,0,1.634-1.629Z" transform="translate(-11.251 -3.193)" fill="#fff"/>
        </g>
      </g>
    </g>
    <text id="Session_3_Make_an_Emergency_Plan" data-name="Session 3
Make an Emergency Plan" transform="translate(21 26)" fill="#fff" font-size="16" font-family="ArialMT, Arial"><tspan x="0" y="14">Session 3</tspan><tspan font-size="24" font-family="Arial-BoldMT, Arial" font-weight="700"><tspan x="0" y="49">Make an Emergency Plan</tspan></tspan></text>
    <g id="Group_3234" data-name="Group 3234" transform="translate(4.012 -10.262)">
      <path id="Icon_ionic-ios-arrow-back-2" data-name="Icon ionic-ios-arrow-back" d="M15.217,17.7,23.926,9A1.645,1.645,0,1,0,21.6,6.674l-9.867,9.86a1.642,1.642,0,0,0-.048,2.268l9.908,9.929a1.645,1.645,0,0,0,2.33-2.323Z" transform="translate(362.579 30.069)" fill="#fff"/>
      <path id="Icon_ionic-ios-arrow-back-3" data-name="Icon ionic-ios-arrow-back" d="M3.967,11.506l8.709-8.7A1.645,1.645,0,1,0,10.346.481L.479,10.341a1.642,1.642,0,0,0-.048,2.268l9.908,9.929a1.645,1.645,0,1,0,2.33-2.323Z" transform="translate(377.472 59.28) rotate(180)" fill="#fff"/>
    </g>
    <g id="Group_3379" data-name="Group 3379" transform="translate(21 255)">
      <g id="Group_3374" data-name="Group 3374" transform="translate(1)">
        <rect id="Rectangle_1845" data-name="Rectangle 1845" width="369" height="206" rx="6" fill="#edf4fd"/>
        <text id="Add_emergency_contact" data-name="Add emergency contact" transform="translate(19 12)" fill="#2e5b9f" font-size="16" font-family="Arial-BoldMT, Arial" font-weight="700"><tspan x="0" y="14">Add emergency contact</tspan></text>
        <text id="Enter_Name" data-name="Enter Name" transform="translate(146 61)" fill="#2e5b9f" font-size="14" font-family="ArialMT, Arial" opacity="0.5"><tspan x="0" y="13">Enter Name</tspan></text>
        <text id="Name" transform="translate(19 61)" fill="#2e5b9f" font-size="16" font-family="ArialMT, Arial"><tspan x="0" y="14">Name</tspan></text>
        <text id="Enter_number" data-name="Enter number" transform="translate(146 105)" fill="#2e5b9f" font-size="14" font-family="ArialMT, Arial" opacity="0.5"><tspan x="0" y="13">Enter number</tspan></text>
        <text id="Eg._Friend_father_mother" data-name="Eg. Friend, father, mother" transform="translate(146 149)" fill="#2e5b9f" font-size="14" font-family="ArialMT, Arial" opacity="0.5"><tspan x="0" y="13">Eg. Friend, father, mother</tspan></text>
        <text id="Mobile_no" data-name="Mobile no" transform="translate(19 105)" fill="#2e5b9f" font-size="16" font-family="ArialMT, Arial"><tspan x="0" y="14">Mobile no</tspan></text>
        <text id="Relationship" transform="translate(19 148)" fill="#2e5b9f" font-size="16" font-family="ArialMT, Arial"><tspan x="0" y="14">Relationship</tspan></text>
      </g>
      <path id="Path_6718" data-name="Path 6718" d="M1053,4508.186h369.14" transform="translate(-1053 -4462)" fill="none" stroke="#8eb1e5" stroke-width="1"/>
      <path id="Path_6728" data-name="Path 6728" d="M1053,4508.186H1253.65" transform="translate(-905.86 -4421)" fill="none" stroke="#8eb1e5" stroke-width="1"/>
      <path id="Path_6729" data-name="Path 6729" d="M1053,4508.186H1253.65" transform="translate(-905.86 -4377)" fill="none" stroke="#8eb1e5" stroke-width="1"/>
      <path id="Path_8389" data-name="Path 8389" d="M1053,4508.186H1253.65" transform="translate(-905.86 -4333)" fill="none" stroke="#8eb1e5" stroke-width="1"/>
    </g>
  </g>
</svg>
