<svg xmlns="http://www.w3.org/2000/svg" xmlns:xlink="http://www.w3.org/1999/xlink" width="412" height="895" viewBox="0 0 412 895">
  <defs>
    <filter id="Path_7" x="-4" y="98" width="419.5" height="91" filterUnits="userSpaceOnUse">
      <feOffset dy="3" input="SourceAlpha"/>
      <feGaussianBlur stdDeviation="8" result="blur"/>
      <feFlood flood-opacity="0.078"/>
      <feComposite operator="in" in2="blur"/>
      <feComposite in="SourceGraphic"/>
    </filter>
    <linearGradient id="linear-gradient" x1="0.5" x2="0.5" y2="1" gradientUnits="objectBoundingBox">
      <stop offset="0" stop-color="#37aadd"/>
      <stop offset="1" stop-color="#1f64cc"/>
    </linearGradient>
    <filter id="Rectangle_1534" x="-9" y="775" width="430" height="78" filterUnits="userSpaceOnUse">
      <feOffset dy="-3" input="SourceAlpha"/>
      <feGaussianBlur stdDeviation="3" result="blur-2"/>
      <feFlood flood-opacity="0.059"/>
      <feComposite operator="in" in2="blur-2"/>
      <feComposite in="SourceGraphic"/>
    </filter>
    <linearGradient id="linear-gradient-2" x1="0.5" x2="0.5" y2="1" gradientUnits="objectBoundingBox">
      <stop offset="0" stop-color="#4b8ceb"/>
      <stop offset="1" stop-color="#1f64cc"/>
    </linearGradient>
    <clipPath id="clip-Habit_1">
      <rect width="412" height="895"/>
    </clipPath>
  </defs>
  <g id="Habit_1" data-name="Habit – 1" clip-path="url(#clip-Habit_1)">
    <rect width="412" height="895" fill="#e9eff4"/>
    <g id="Search" transform="translate(-0.5 -60)">
      <g transform="matrix(1, 0, 0, 1, 0.5, 60)" filter="url(#Path_7)">
        <path id="Path_7-2" data-name="Path 7" d="M8.9,5H362.6c4.914,0,8.9,3.582,8.9,8V40c0,4.418-3.984,8-8.9,8H8.9C3.984,48,0,44.418,0,40V13C0,8.582,3.984,5,8.9,5Z" transform="translate(20 114)" fill="#f4f9fa"/>
      </g>
      <text id="Search-2" data-name="Search" transform="translate(36 190)" fill="#1c1c1c" font-size="16" font-family="Lato-Regular, Lato" opacity="0.2"><tspan x="0" y="16">Search</tspan></text>
      <g id="noun_Search_860389" transform="translate(358.227 192)">
        <g id="Group_5" data-name="Group 5">
          <g id="Group_4" data-name="Group 4">
            <path id="Path_8" data-name="Path 8" d="M12.9,11.737l4.091,4.091a.819.819,0,0,1-1.158,1.158L11.737,12.9A6.549,6.549,0,1,1,12.9,11.737Zm-1.7-.543a4.912,4.912,0,1,0-6.947,0A4.912,4.912,0,0,0,11.194,11.194Z" transform="translate(-1.172 -1.172)" fill="#1c1c1c" fill-rule="evenodd" opacity="0.2"/>
          </g>
        </g>
      </g>
    </g>
    <path id="Path_4578" data-name="Path 4578" d="M-1789,6345.073h372" transform="translate(1810 -6156)" fill="none" stroke="#707070" stroke-width="1" opacity="0.2"/>
    <g id="Group_2723" data-name="Group 2723" transform="translate(2 -1021)">
      <g id="card" transform="translate(21 1280)">
        <rect id="bg" width="370" height="103" rx="12" fill="#f4f8fa"/>
        <text id="Waking_Up_Early" data-name="Waking Up Early" transform="translate(63 16)" fill="#1e64cc" font-size="16" font-family="ArialMT, Arial"><tspan x="0" y="14">Waking Up Early</tspan></text>
        <text id="Created_on_14th_nov_2021_-_7:34pm" data-name="Created on 14th nov 2021 - 7:34pm" transform="translate(63 45)" fill="#254069" font-size="12" font-family="ArialMT, Arial"><tspan x="0" y="11">Created on 14th nov 2021 - 7:34pm</tspan></text>
        <text id="Pages_-_12" data-name="Pages - 12" transform="translate(63 89)" fill="#2e5b9f" font-size="12" font-family="Arial-BoldMT, Arial" font-weight="700"><tspan x="0" y="0">Pages - 12</tspan></text>
        <text id="Target" transform="translate(22 89)" fill="#254069" font-size="12" font-family="ArialMT, Arial" opacity="0.5"><tspan x="0" y="0">Target</tspan></text>
        <g id="Group_2749" data-name="Group 2749" transform="translate(-4 12)">
          <rect id="Rectangle_1560" data-name="Rectangle 1560" width="38" height="38" rx="5" transform="translate(17 6)" fill="#d2dff2"/>
          <path id="Icon_awesome-book" data-name="Icon awesome-book" d="M16.34,13.13V.875A.873.873,0,0,0,15.464,0H3.5A3.5,3.5,0,0,0,0,3.5V15.173a3.5,3.5,0,0,0,3.5,3.5H15.464a.873.873,0,0,0,.875-.875v-.584a.882.882,0,0,0-.325-.682,8.134,8.134,0,0,1,0-2.725A.869.869,0,0,0,16.34,13.13ZM4.669,4.887a.219.219,0,0,1,.219-.219H12.62a.219.219,0,0,1,.219.219v.729a.219.219,0,0,1-.219.219H4.887a.219.219,0,0,1-.219-.219Zm0,2.334A.219.219,0,0,1,4.887,7H12.62a.219.219,0,0,1,.219.219v.729a.219.219,0,0,1-.219.219H4.887a.219.219,0,0,1-.219-.219Zm9.242,9.118H3.5a1.167,1.167,0,1,1,0-2.334H13.911A13.131,13.131,0,0,0,13.911,16.34Z" transform="translate(27.829 14.663)" fill="#8eb1e5"/>
        </g>
      </g>
    </g>
    <g id="Group_3401" data-name="Group 3401" transform="translate(2 -910)">
      <g id="card-2" data-name="card" transform="translate(21 1280)">
        <rect id="bg-2" data-name="bg" width="370" height="103" rx="12" fill="#f4f8fa"/>
        <text id="Waking_Up_Early-2" data-name="Waking Up Early" transform="translate(63 16)" fill="#1e64cc" font-size="16" font-family="ArialMT, Arial"><tspan x="0" y="14">Waking Up Early</tspan></text>
        <text id="Created_on_14th_nov_2021_-_7:34pm-2" data-name="Created on 14th nov 2021 - 7:34pm" transform="translate(63 45)" fill="#254069" font-size="12" font-family="ArialMT, Arial"><tspan x="0" y="11">Created on 14th nov 2021 - 7:34pm</tspan></text>
        <text id="Pages_-_12-2" data-name="Pages - 12" transform="translate(63 89)" fill="#2e5b9f" font-size="12" font-family="Arial-BoldMT, Arial" font-weight="700"><tspan x="0" y="0">Pages - 12</tspan></text>
        <text id="Target-2" data-name="Target" transform="translate(22 89)" fill="#254069" font-size="12" font-family="ArialMT, Arial" opacity="0.5"><tspan x="0" y="0">Target</tspan></text>
        <g id="Group_2749-2" data-name="Group 2749" transform="translate(-4 12)">
          <rect id="Rectangle_1560-2" data-name="Rectangle 1560" width="38" height="38" rx="5" transform="translate(17 6)" fill="#d2dff2"/>
          <path id="Icon_awesome-book-2" data-name="Icon awesome-book" d="M16.34,13.13V.875A.873.873,0,0,0,15.464,0H3.5A3.5,3.5,0,0,0,0,3.5V15.173a3.5,3.5,0,0,0,3.5,3.5H15.464a.873.873,0,0,0,.875-.875v-.584a.882.882,0,0,0-.325-.682,8.134,8.134,0,0,1,0-2.725A.869.869,0,0,0,16.34,13.13ZM4.669,4.887a.219.219,0,0,1,.219-.219H12.62a.219.219,0,0,1,.219.219v.729a.219.219,0,0,1-.219.219H4.887a.219.219,0,0,1-.219-.219Zm0,2.334A.219.219,0,0,1,4.887,7H12.62a.219.219,0,0,1,.219.219v.729a.219.219,0,0,1-.219.219H4.887a.219.219,0,0,1-.219-.219Zm9.242,9.118H3.5a1.167,1.167,0,1,1,0-2.334H13.911A13.131,13.131,0,0,0,13.911,16.34Z" transform="translate(27.829 14.663)" fill="#8eb1e5"/>
        </g>
      </g>
    </g>
    <g id="Component_119_67" data-name="Component 119 – 67" transform="translate(0 787)">
      <g transform="matrix(1, 0, 0, 1, 0, -787)" filter="url(#Rectangle_1534)">
        <rect id="Rectangle_1534-2" data-name="Rectangle 1534" width="412" height="60" transform="translate(0 787)" fill="url(#linear-gradient)"/>
      </g>
      <g id="Group_2755" data-name="Group 2755" transform="translate(0 -779)">
        <g id="Rectangle_1564" data-name="Rectangle 1564" transform="translate(12 789)" fill="#fff" stroke="#707070" stroke-width="1" opacity="0">
          <rect width="50" height="45" stroke="none"/>
          <rect x="0.5" y="0.5" width="49" height="44" fill="none"/>
        </g>
        <path id="Path_4565" data-name="Path 4565" d="M35.606,24.011l-7.368-7.1,7.368-7.1a1.37,1.37,0,0,0,.424-.982,1.4,1.4,0,0,0-.4-1,1.369,1.369,0,0,0-.982-.424h-.022a1.385,1.385,0,0,0-.982.4l-8.417,8.1a1.42,1.42,0,0,0-.424,1,1.382,1.382,0,0,0,.424,1l8.439,8.1a1.443,1.443,0,0,0,.982.4,1.42,1.42,0,0,0,1-.424,1.4,1.4,0,0,0,.4-1A1.274,1.274,0,0,0,35.606,24.011Z" transform="translate(5.036 792.435)" fill="#fff"/>
      </g>
    </g>
    <text id="Active_3_" data-name="Active (3)" transform="translate(328 235)" fill="#102646" font-size="14" font-family="ArialMT, Arial"><tspan x="0" y="0">Active (3)</tspan></text>
    <text id="Overview" transform="translate(23 216)" fill="#1e64cc" font-size="18" font-family="Arial-BoldMT, Arial" font-weight="700"><tspan x="0" y="16">Overview</tspan></text>
    <g id="Group_2750" data-name="Group 2750" transform="translate(39.03 124.03)">
      <text id="_" data-name="+" transform="translate(253.97 700.97)" fill="#fff" font-size="28" font-family="ArialMT, Arial"><tspan x="0" y="0">+</tspan></text>
      <text id="Create" transform="translate(283.971 699.97)" fill="#fff" font-size="20" font-family="ArialMT, Arial"><tspan x="0" y="0">Create</tspan></text>
    </g>
    <g id="Group_3526" data-name="Group 3526" transform="translate(26.03 44.03)">
      <circle id="Ellipse_430" data-name="Ellipse 430" cx="30" cy="30" r="30" transform="translate(306.97 662.97)" fill="#1e64cc"/>
      <path id="Icon_awesome-paint-brush" data-name="Icon awesome-paint-brush" d="M6.9,12.775a4.18,4.18,0,0,0-4.014,2.986.63.63,0,0,1-.6.412C1.822,16.173.4,15.03,0,14.754c0,3.4,1.567,6.39,5.286,6.39,3.133,0,5.286-1.808,5.286-4.964a3.578,3.578,0,0,0-.04-.377ZM18.909,0a2.522,2.522,0,0,0-1.661.679C8.807,8.22,7.929,8.4,7.929,10.617a3.823,3.823,0,0,0,.361,1.6l2.636,2.2a3.8,3.8,0,0,0,.925.125c2.565,0,4.052-1.878,8.72-10.591a4.249,4.249,0,0,0,.574-1.9A2.15,2.15,0,0,0,18.909,0Z" transform="translate(326.399 682.398)" fill="#fff"/>
    </g>
    <g id="Group_1500" data-name="Group 1500" transform="translate(0 -5)">
      <text id="Let_the_thoughts_flow_:_" data-name="Let the thoughts flow : )" transform="translate(23 29)" fill="#0e58c7" font-size="24" font-family="Arial-BoldMT, Arial" font-weight="700"><tspan x="0" y="22">Let the thoughts </tspan><tspan x="0" y="53">flow : )</tspan></text>
      <g id="Group_2650" data-name="Group 2650" transform="translate(322.479 29)">
        <g id="Icon_ionic-ios-notifications" data-name="Icon ionic-ios-notifications" transform="translate(11 3)">
          <circle id="Ellipse_746" data-name="Ellipse 746" cx="23" cy="23" r="23" transform="translate(-0.478 11)" fill="#fff"/>
          <path id="Path_9493" data-name="Path 9493" d="M18.8,32.954c2.71,0,4.191-1.917,4.191-4.618H14.6C14.6,31.037,16.085,32.954,18.8,32.954Z" transform="translate(4.722 17.933)" fill="#ff9241"/>
          <path id="Path_9494" data-name="Path 9494" d="M34.279,29.746C32.938,27.977,30.3,26.941,30.3,19.021c0-8.129-3.59-11.4-6.935-12.18-.314-.078-.54-.183-.54-.514V6.074a2.126,2.126,0,1,0-4.252,0v.253c0,.322-.227.436-.54.514-3.354.793-6.935,4.051-6.935,12.18,0,7.92-2.64,8.948-3.982,10.725A1.729,1.729,0,0,0,8.5,32.517H32.9A1.73,1.73,0,0,0,34.279,29.746Z" transform="translate(2.846 12.097)" fill="url(#linear-gradient-2)"/>
          <circle id="Ellipse_747" data-name="Ellipse 747" cx="12" cy="12" r="12" transform="translate(30.522)" fill="#ff9241"/>
          <text id="_1" data-name="1" transform="translate(38.521 18)" fill="#fff" font-size="16" font-family="ArialMT, Arial"><tspan x="0" y="0">1</tspan></text>
        </g>
      </g>
    </g>
  </g>
</svg>
