<svg xmlns="http://www.w3.org/2000/svg" xmlns:xlink="http://www.w3.org/1999/xlink" width="412" height="847" viewBox="0 0 412 847">
  <defs>
    <filter id="Path_7" x="-5" y="743.438" width="423.572" height="96.064" filterUnits="userSpaceOnUse">
      <feOffset dy="3" input="SourceAlpha"/>
      <feGaussianBlur stdDeviation="8" result="blur"/>
      <feFlood flood-opacity="0.078"/>
      <feComposite operator="in" in2="blur"/>
      <feComposite in="SourceGraphic"/>
    </filter>
    <filter id="Path_7-2" x="-5" y="672.438" width="423.572" height="96.064" filterUnits="userSpaceOnUse">
      <feOffset dy="3" input="SourceAlpha"/>
      <feGaussianBlur stdDeviation="8" result="blur-2"/>
      <feFlood flood-opacity="0.078"/>
      <feComposite operator="in" in2="blur-2"/>
      <feComposite in="SourceGraphic"/>
    </filter>
    <linearGradient id="linear-gradient" x1="0.5" x2="0.5" y2="1" gradientUnits="objectBoundingBox">
      <stop offset="0" stop-color="#37aadd"/>
      <stop offset="1" stop-color="#1f64cc"/>
    </linearGradient>
    <clipPath id="clip-Home_3">
      <rect width="412" height="847"/>
    </clipPath>
  </defs>
  <g id="Home_3" data-name="Home – 3" clip-path="url(#clip-Home_3)">
    <rect width="412" height="847" fill="#e9eff4"/>
    <g id="CTA" transform="translate(19 764.437)">
      <g transform="matrix(1, 0, 0, 1, -19, -764.44)" filter="url(#Path_7)">
        <g id="Path_7-3" data-name="Path 7" transform="translate(19 759.44)" fill="none">
          <path d="M9,5h357.58a8.969,8.969,0,0,1,9,8.942v30.18a8.969,8.969,0,0,1-9,8.942H9a8.969,8.969,0,0,1-9-8.942V13.942A8.969,8.969,0,0,1,9,5Z" stroke="none"/>
          <path d="M 8.995697021484375 5.999980926513672 C 4.58685302734375 5.999980926513672 1 9.562831878662109 1 13.94218063354492 L 1 44.1220817565918 C 1 48.50143051147461 4.58685302734375 52.06428146362305 8.995697021484375 52.06428146362305 L 366.5761413574219 52.06428146362305 C 370.9849853515625 52.06428146362305 374.5718994140625 48.50143051147461 374.5718994140625 44.1220817565918 L 374.5718994140625 13.94218063354492 C 374.5718994140625 9.562831878662109 370.9849853515625 5.999980926513672 366.5761413574219 5.999980926513672 L 8.995697021484375 5.999980926513672 M 8.995697021484375 4.999980926513672 L 366.5761413574219 4.999980926513672 C 371.5443420410156 4.999980926513672 375.5718994140625 9.003532409667969 375.5718994140625 13.94218063354492 L 375.5718994140625 44.1220817565918 C 375.5718994140625 49.06072998046875 371.5443420410156 53.06428146362305 366.5761413574219 53.06428146362305 L 8.995697021484375 53.06428146362305 C 4.027496337890625 53.06428146362305 0 49.06072998046875 0 44.1220817565918 L 0 13.94218063354492 C 0 9.003532409667969 4.027496337890625 4.999980926513672 8.995697021484375 4.999980926513672 Z" stroke="none" fill="#2e5b9f"/>
        </g>
      </g>
      <text id="Cancel_and_Go_back" data-name="Cancel and Go back" transform="translate(108 12.563)" fill="#2e5b9f" font-size="16" font-family="Lato-Regular, Lato"><tspan x="10.12" y="16">Cancel and Go back</tspan></text>
    </g>
    <g id="CTA-2" data-name="CTA" transform="translate(19 693.437)">
      <g transform="matrix(1, 0, 0, 1, -19, -693.44)" filter="url(#Path_7-2)">
        <path id="Path_7-4" data-name="Path 7" d="M9,5h357.58a8.969,8.969,0,0,1,9,8.942v30.18a8.969,8.969,0,0,1-9,8.942H9a8.969,8.969,0,0,1-9-8.942V13.942A8.969,8.969,0,0,1,9,5Z" transform="translate(19 688.44)" fill="#4b8cee"/>
      </g>
      <text id="Confirm_and_Pay" data-name="Confirm and Pay" transform="translate(108 12.563)" fill="#fff" font-size="16" font-family="Lato-Regular, Lato"><tspan x="21.532" y="16">Confirm and Pay</tspan></text>
    </g>
    <text id="Dr._Clara_Odding" data-name="Dr. Clara Odding" transform="translate(21 122)" fill="#2e5b9f" font-size="16" font-family="Arial-BoldMT, Arial" font-weight="700"><tspan x="0" y="14">Dr. Clara Odding</tspan></text>
    <text id="Message" transform="translate(18 349)" fill="#2e5b9f" font-size="16" font-family="ArialMT, Arial"><tspan x="0" y="14">Message</tspan></text>
    <text id="Reason_to_visit" data-name="Reason to visit" transform="translate(18 450)" fill="#2e5b9f" font-size="16" font-family="ArialMT, Arial"><tspan x="0" y="14">Reason to visit</tspan></text>
    <g id="Group_52" data-name="Group 52" transform="translate(4 212.3)">
      <text id="Thu_09_Apr" data-name="Thu, 09 Apr" transform="translate(15 37.7)" fill="#2e5b9f" font-size="27" font-family="ArialMT, Arial"><tspan x="0" y="0">Thu, 09 Apr</tspan></text>
      <text id="_08:00" data-name="08:00" transform="translate(167 40.7)" fill="#2ac052" font-size="28" font-family="Lato-Bold, Lato" font-weight="700"><tspan x="0" y="0">08:00</tspan></text>
    </g>
    <g id="Group_2145" data-name="Group 2145" transform="translate(0 -82)">
      <text id="_1st_Main_road_Square_Hal_M.G_road_Bengaluru_-_3_km" data-name="1st Main road Square Hal
M.G road, Bengaluru - 3 km" transform="translate(51 251)" fill="#1c1c1c" font-size="14" font-family="ArialMT, Arial" opacity="0.4"><tspan x="0" y="13">1st Main road Square Hal</tspan><tspan x="0" y="29">M.G road, Bengaluru - 3 km</tspan></text>
      <g id="Group_53" data-name="Group 53" transform="translate(-30 -3)">
        <g id="noun_Search_860389" transform="translate(49.751 251.473)">
          <g id="Group_5" data-name="Group 5" transform="translate(-6 2)">
            <g id="Group_4" data-name="Group 4">
              <g id="noun_Map_2404959" transform="translate(-294 147.464)">
                <g id="Group_24" data-name="Group 24" transform="translate(299.249 -146.937)">
                  <g id="Group_23" data-name="Group 23">
                    <g id="Group_21" data-name="Group 21">
                      <path id="Path_222" data-name="Path 222" d="M86.8,48.7h0a.392.392,0,0,1-.333-.185,34.938,34.938,0,0,0-2.622-3.466c-.624-.76-1.269-1.546-1.838-2.317-.969-1.314-2.082-3.043-2.082-4.765a6.9,6.9,0,0,1,13.8,0c0,1.845-1.182,3.681-2.955,5.871-.311.384-.637.775-.951,1.154a33.921,33.921,0,0,0-2.688,3.523A.392.392,0,0,1,86.8,48.7Zm.025-16.849a6.123,6.123,0,0,0-6.116,6.116c0,1.165.595,2.491,1.929,4.3.557.755,1.2,1.533,1.813,2.285.82,1,1.664,2.026,2.349,3.038.707-1.042,1.575-2.086,2.418-3.1.313-.376.637-.765.945-1.146,1.669-2.06,2.781-3.763,2.781-5.378A6.124,6.124,0,0,0,86.823,31.847Z" transform="translate(-79.923 -31.063)" fill="#0e58c7"/>
                    </g>
                    <g id="Group_22" data-name="Group 22" transform="translate(3.258 3.178)">
                      <path id="Path_223" data-name="Path 223" d="M166.7,119.619a3.737,3.737,0,1,1,3.642-3.737A3.7,3.7,0,0,1,166.7,119.619Zm0-6.687a2.953,2.953,0,1,0,2.858,2.951A2.91,2.91,0,0,0,166.7,112.932Z" transform="translate(-163.052 -112.148)" fill="#0e58c7"/>
                    </g>
                  </g>
                </g>
              </g>
            </g>
          </g>
        </g>
      </g>
    </g>
    <g id="Group_2144" data-name="Group 2144" transform="translate(-824.451 -259)">
      <text id="Virtual_consulting" data-name="Virtual consulting" transform="translate(879.451 561)" fill="#272727" font-size="18" font-family="ArialMT, Arial"><tspan x="0" y="0">Virtual consulting</tspan></text>
      <g id="Group_1897" data-name="Group 1897" transform="translate(845.904 547.494)">
        <g id="Group_1891" data-name="Group 1891">
          <g id="video">
            <path id="Path_2163" data-name="Path 2163" d="M28.761,18.417a1.112,1.112,0,0,1-.47-.157l-5.479-3.913a.966.966,0,0,1-.313-.626.966.966,0,0,1,.313-.626l5.479-3.913a.926.926,0,0,1,.783-.078.752.752,0,0,1,.47.7v7.827a.822.822,0,0,1-.391.7A.706.706,0,0,1,28.761,18.417Zm-4.148-4.7,3.366,2.426V11.294Z" transform="translate(-10.76 -7.459)" fill="#257d79"/>
            <path id="Path_2164" data-name="Path 2164" d="M10.957,18.523H2.348A2.306,2.306,0,0,1,0,16.175V8.348A2.306,2.306,0,0,1,2.348,6h8.609a2.306,2.306,0,0,1,2.348,2.348v7.827A2.306,2.306,0,0,1,10.957,18.523ZM2.348,7.565a.739.739,0,0,0-.783.783v7.827a.739.739,0,0,0,.783.783h8.609a.739.739,0,0,0,.783-.783V8.348a.739.739,0,0,0-.783-.783Z" transform="translate(0 -6)" fill="#257d79"/>
          </g>
        </g>
      </g>
    </g>
    <text id="As_am_in_out_of_station_and_my_condition_seems_to_be_critical_I_need_to_consult_virtually." data-name="As am in out of station and my condition seems to be critical I need to consult virtually." transform="translate(18 380)" fill="#606060" font-size="14" font-family="ArialMT, Arial" opacity="0.996"><tspan x="0" y="13">As am in out of station and my condition seems to be </tspan><tspan x="0" y="35">critical I need to consult virtually.</tspan></text>
    <text id="When_you_have_a_family_member_or_friend_who_is_recovering_from_an_addiction_you_might_not_know_exactly_what_to_say_to_them_as_they_approach_a_sobriety_milestone._It_doesn_t_matter_whether_it_s_been_one_year_or_ten_since_they_have_been_sober." data-name="When you have a family member or friend who is recovering from an addiction, you might not know exactly what to say to them as they approach a sobriety milestone. It doesn’t matter whether it’s been one year or ten since they have been sober." transform="translate(18 481)" fill="#606060" font-size="14" font-family="ArialMT, Arial" opacity="0.996"><tspan x="0" y="13">When you have a family member or friend who is </tspan><tspan x="0" y="35">recovering from an addiction, you might not know </tspan><tspan x="0" y="57">exactly what to say to them as they approach a sobriety </tspan><tspan x="0" y="79">milestone. It doesn’t matter whether it’s been one year </tspan><tspan x="0" y="101">or ten since they have been sober.</tspan></text>
    <g id="Group_1500" data-name="Group 1500">
      <path id="Rectangle_293" data-name="Rectangle 293" d="M0,0H412a0,0,0,0,1,0,0V75a10,10,0,0,1-10,10H10A10,10,0,0,1,0,75V0A0,0,0,0,1,0,0Z" fill="url(#linear-gradient)"/>
    </g>
    <text id="Confirm_booking" data-name="Confirm booking" transform="translate(29 26)" fill="#fff" font-size="22" font-family="Arial-BoldMT, Arial" font-weight="700"><tspan x="0" y="20">Confirm booking</tspan></text>
  </g>
</svg>
