<svg xmlns="http://www.w3.org/2000/svg" xmlns:xlink="http://www.w3.org/1999/xlink" width="412" height="847" viewBox="0 0 412 847">
  <defs>
    <linearGradient id="linear-gradient" x1="0.5" x2="0.5" y2="1" gradientUnits="objectBoundingBox">
      <stop offset="0" stop-color="#37aadd"/>
      <stop offset="1" stop-color="#1f64cc"/>
    </linearGradient>
    <filter id="Cirlce_Background" x="-32.5" y="225.5" width="477" height="464" filterUnits="userSpaceOnUse">
      <feOffset dy="34" input="SourceAlpha"/>
      <feGaussianBlur stdDeviation="27.5" result="blur"/>
      <feFlood flood-color="#282828" flood-opacity="0.078"/>
      <feComposite operator="in" in2="blur"/>
      <feComposite in="SourceGraphic"/>
    </filter>
    <clipPath id="clip-Home_31">
      <rect width="412" height="847"/>
    </clipPath>
  </defs>
  <g id="Home_31" data-name="Home – 31" clip-path="url(#clip-Home_31)">
    <rect id="Rectangle_1978" data-name="Rectangle 1978" width="412" height="847" fill="#272727" opacity="0.6"/>
    <g id="Group_3563" data-name="Group 3563" transform="translate(-1 -28)">
      <g id="Big_Card" data-name="Big Card" transform="translate(51 302)">
        <g transform="matrix(1, 0, 0, 1, -50, -274)" filter="url(#Cirlce_Background)">
          <rect id="Cirlce_Background-2" data-name="Cirlce Background" width="312" height="299" rx="21" transform="translate(50 274)" fill="url(#linear-gradient)"/>
        </g>
        <text id="Pill_Reminder" data-name="Pill Reminder" transform="translate(51 219)" fill="#f2f5f7" font-size="24" font-family="Arial-BoldMT, Arial" font-weight="700"><tspan x="28.813" y="22">Pill Reminder</tspan></text>
        <text id="Alexis_Balencesco" data-name="Alexis Balencesco" transform="translate(53 255)" fill="#f2f5f7" font-size="13" font-family="ArialMT, Arial"><tspan x="63.402" y="12">by Dr. Gaurav</tspan></text>
        <text id="Alexis_Balencesco-2" data-name="Alexis Balencesco" transform="translate(53 19)" fill="#f2f5f7" font-size="13" font-family="ArialMT, Arial"><tspan x="58.695" y="12">Voice recording</tspan></text>
        <g id="Group_3505" data-name="Group 3505" transform="translate(104.585 76.198)">
          <circle id="Ellipse_748" data-name="Ellipse 748" cx="56" cy="56" r="56" transform="translate(-4.586 -4.199)" fill="#dbecff" opacity="0.354"/>
          <circle id="Ellipse_550" data-name="Ellipse 550" cx="49" cy="49" r="49" transform="translate(2.415 2.803)" fill="#dbecff" opacity="0.354"/>
          <circle id="Ellipse_430" data-name="Ellipse 430" cx="42" cy="42" r="42" transform="translate(9.415 9.802)" fill="#fff"/>
          <g id="Icon_ionic-ios-pause" data-name="Icon ionic-ios-pause" transform="translate(33.414 33.801)">
            <path id="Path_9495" data-name="Path 9495" d="M14.055,29.25H9.57A.566.566,0,0,1,9,28.688V7.313a.566.566,0,0,1,.57-.562h4.486a.566.566,0,0,1,.57.563V28.688A.566.566,0,0,1,14.055,29.25Z" fill="#1e64cc"/>
            <path id="Path_9496" data-name="Path 9496" d="M26.43,29.25H21.945a.566.566,0,0,1-.57-.562V7.313a.566.566,0,0,1,.57-.562H26.43a.566.566,0,0,1,.57.563V28.688A.566.566,0,0,1,26.43,29.25Z" fill="#1e64cc"/>
          </g>
        </g>
      </g>
    </g>
  </g>
</svg>
