<svg xmlns="http://www.w3.org/2000/svg" xmlns:xlink="http://www.w3.org/1999/xlink" width="412" height="847" viewBox="0 0 412 847">
  <defs>
    <filter id="Path_7" x="14" y="631" width="384" height="91" filterUnits="userSpaceOnUse">
      <feOffset dy="3" input="SourceAlpha"/>
      <feGaussianBlur stdDeviation="8" result="blur"/>
      <feFlood flood-opacity="0.078"/>
      <feComposite operator="in" in2="blur"/>
      <feComposite in="SourceGraphic"/>
    </filter>
    <linearGradient id="linear-gradient" x1="0.5" y1="1" x2="0.5" gradientUnits="objectBoundingBox">
      <stop offset="0" stop-color="gray" stop-opacity="0.251"/>
      <stop offset="0.54" stop-color="gray" stop-opacity="0.122"/>
      <stop offset="1" stop-color="gray" stop-opacity="0.102"/>
    </linearGradient>
    <linearGradient id="linear-gradient-2" x1="0.5" y1="1" x2="0.5" y2="0" xlink:href="#linear-gradient"/>
    <linearGradient id="linear-gradient-3" x1="1.241" y1="1.124" x2="1.241" y2="0.124" xlink:href="#linear-gradient"/>
    <linearGradient id="linear-gradient-4" x1="0.5" x2="0.5" y2="1" gradientUnits="objectBoundingBox">
      <stop offset="0" stop-color="#4b8ceb"/>
      <stop offset="1" stop-color="#1f64cc"/>
    </linearGradient>
    <linearGradient id="linear-gradient-5" x1="0.5" y1="1" x2="0.5" y2="0" xlink:href="#linear-gradient"/>
    <linearGradient id="linear-gradient-6" x1="1.307" y1="2.047" x2="1.307" y2="1.047" xlink:href="#linear-gradient"/>
    <linearGradient id="linear-gradient-7" x1="0.5" y1="1" x2="0.5" y2="0" xlink:href="#linear-gradient"/>
    <linearGradient id="linear-gradient-8" x1="0.5" y1="1" x2="0.5" y2="0" xlink:href="#linear-gradient"/>
    <linearGradient id="linear-gradient-9" x1="0.5" y1="1" x2="0.5" y2="0" xlink:href="#linear-gradient"/>
    <linearGradient id="linear-gradient-10" x1="0.5" y1="1" x2="0.5" y2="0" xlink:href="#linear-gradient"/>
    <clipPath id="clip-Home_5">
      <rect width="412" height="847"/>
    </clipPath>
  </defs>
  <g id="Home_5" data-name="Home – 5" clip-path="url(#clip-Home_5)">
    <rect width="412" height="847" fill="#e9eff4"/>
    <text id="Dr._Clara_Odding" data-name="Dr. Clara Odding" transform="translate(21 42)" fill="#2e5b9f" font-size="16" font-family="Arial-BoldMT, Arial" font-weight="700"><tspan x="0" y="14">Dr. Clara Odding</tspan></text>
    <g id="Group_52" data-name="Group 52" transform="translate(4 132.3)">
      <text id="Thu_09_Apr" data-name="Thu, 09 Apr" transform="translate(15 37.7)" fill="#2e5b9f" font-size="27" font-family="ArialMT, Arial"><tspan x="0" y="0">Thu, 09 Apr</tspan></text>
      <text id="_08:00" data-name="08:00" transform="translate(167 40.7)" fill="#2ac052" font-size="28" font-family="Arial-BoldMT, Arial" font-weight="700"><tspan x="0" y="0">08:00</tspan></text>
    </g>
    <g id="Group_2145" data-name="Group 2145" transform="translate(0 -162)">
      <text id="_1st_Main_road_Square_Hal_M.G_road_Bengaluru_-_3_km" data-name="1st Main road Square Hal
M.G road, Bengaluru - 3 km" transform="translate(51 251)" fill="#1c1c1c" font-size="14" font-family="ArialMT, Arial" opacity="0.4"><tspan x="0" y="13">1st Main road Square Hal</tspan><tspan x="0" y="29">M.G road, Bengaluru - 3 km</tspan></text>
      <g id="Group_53" data-name="Group 53" transform="translate(-30 -3)">
        <g id="noun_Search_860389" transform="translate(49.751 251.473)">
          <g id="Group_5" data-name="Group 5" transform="translate(-6 2)">
            <g id="Group_4" data-name="Group 4">
              <g id="noun_Map_2404959" transform="translate(-294 147.464)">
                <g id="Group_24" data-name="Group 24" transform="translate(299.249 -146.937)">
                  <g id="Group_23" data-name="Group 23">
                    <g id="Group_21" data-name="Group 21">
                      <path id="Path_222" data-name="Path 222" d="M86.8,48.7h0a.392.392,0,0,1-.333-.185,34.938,34.938,0,0,0-2.622-3.466c-.624-.76-1.269-1.546-1.838-2.317-.969-1.314-2.082-3.043-2.082-4.765a6.9,6.9,0,0,1,13.8,0c0,1.845-1.182,3.681-2.955,5.871-.311.384-.637.775-.951,1.154a33.921,33.921,0,0,0-2.688,3.523A.392.392,0,0,1,86.8,48.7Zm.025-16.849a6.123,6.123,0,0,0-6.116,6.116c0,1.165.595,2.491,1.929,4.3.557.755,1.2,1.533,1.813,2.285.82,1,1.664,2.026,2.349,3.038.707-1.042,1.575-2.086,2.418-3.1.313-.376.637-.765.945-1.146,1.669-2.06,2.781-3.763,2.781-5.378A6.124,6.124,0,0,0,86.823,31.847Z" transform="translate(-79.923 -31.063)" fill="#0e58c7"/>
                    </g>
                    <g id="Group_22" data-name="Group 22" transform="translate(3.258 3.178)">
                      <path id="Path_223" data-name="Path 223" d="M166.7,119.619a3.737,3.737,0,1,1,3.642-3.737A3.7,3.7,0,0,1,166.7,119.619Zm0-6.687a2.953,2.953,0,1,0,2.858,2.951A2.91,2.91,0,0,0,166.7,112.932Z" transform="translate(-163.052 -112.148)" fill="#0e58c7"/>
                    </g>
                  </g>
                </g>
              </g>
            </g>
          </g>
        </g>
      </g>
    </g>
    <g id="Group_2144" data-name="Group 2144" transform="translate(-824.451 -339)">
      <text id="Virtual_consulting" data-name="Virtual consulting" transform="translate(879.451 561)" fill="#2e5b9f" font-size="18" font-family="ArialMT, Arial"><tspan x="0" y="0">Virtual consulting</tspan></text>
      <g id="Group_1897" data-name="Group 1897" transform="translate(845.904 547.494)">
        <g id="Group_1891" data-name="Group 1891">
          <g id="video">
            <path id="Path_2163" data-name="Path 2163" d="M28.761,18.417a1.112,1.112,0,0,1-.47-.157l-5.479-3.913a.966.966,0,0,1-.313-.626.966.966,0,0,1,.313-.626l5.479-3.913a.926.926,0,0,1,.783-.078.752.752,0,0,1,.47.7v7.827a.822.822,0,0,1-.391.7A.706.706,0,0,1,28.761,18.417Zm-4.148-4.7,3.366,2.426V11.294Z" transform="translate(-10.76 -7.459)" fill="#257d79"/>
            <path id="Path_2164" data-name="Path 2164" d="M10.957,18.523H2.348A2.306,2.306,0,0,1,0,16.175V8.348A2.306,2.306,0,0,1,2.348,6h8.609a2.306,2.306,0,0,1,2.348,2.348v7.827A2.306,2.306,0,0,1,10.957,18.523ZM2.348,7.565a.739.739,0,0,0-.783.783v7.827a.739.739,0,0,0,.783.783h8.609a.739.739,0,0,0,.783-.783V8.348a.739.739,0,0,0-.783-.783Z" transform="translate(0 -6)" fill="#257d79"/>
          </g>
        </g>
      </g>
    </g>
    <g id="CTA" transform="translate(17 473)">
      <g transform="matrix(1, 0, 0, 1, -17, -473)" filter="url(#Path_7)">
        <path id="Path_7-2" data-name="Path 7" d="M8.048,5h319.9A8.024,8.024,0,0,1,336,13V40a8.024,8.024,0,0,1-8.048,8H8.048A8.024,8.024,0,0,1,0,40V13A8.024,8.024,0,0,1,8.048,5Z" transform="translate(38 647)" fill="#4b8cee"/>
      </g>
      <text id="Done" transform="translate(118 190)" fill="#fff" font-size="16" font-family="Lato-Regular, Lato"><tspan x="51.748" y="16">Done</tspan></text>
    </g>
    <g id="undraw_confirmed_81ex" transform="translate(88.574 292.219)">
      <circle id="Ellipse_44" data-name="Ellipse 44" cx="90.101" cy="90.101" r="90.101" transform="translate(20.112 29.903)" fill="#0e58c4" opacity="0.143"/>
      <circle id="Ellipse_45" data-name="Ellipse 45" cx="109.213" cy="109.213" r="109.213" transform="translate(1 10.791)" fill="#0e58c4" opacity="0.149"/>
      <path id="Path_251" data-name="Path 251" d="M554.91,525.879a24.637,24.637,0,0,0-48.842-4.593l-75.718-2.054.831,13.008s-10.8,24.913,45.948,31.55v25.18h65.6V547.106A24.621,24.621,0,0,0,554.91,525.879Z" transform="translate(-371.604 -371.082)" fill="url(#linear-gradient)"/>
      <path id="Path_252" data-name="Path 252" d="M439.807,576.629s-10.339,23.857,44,30.222v24.124h62.825V567.088L439,564.17Z" transform="translate(-377.629 -414.924)" fill="#be7c5e"/>
      <path id="Path_253" data-name="Path 253" d="M418.765,185.414h0a11.583,11.583,0,0,1-15.927,3.619l-33.732-22.228a11.583,11.583,0,0,1-3.619-15.927h0A11.583,11.583,0,0,1,381.4,147.26l33.732,22.228a11.583,11.583,0,0,1,3.631,15.927Z" transform="translate(-325.189 -123.266)" fill="url(#linear-gradient-2)"/>
      <path id="Path_254" data-name="Path 254" d="M421.487,187.825h0a10.767,10.767,0,0,1-14.8,3.364l-31.365-20.678a10.767,10.767,0,0,1-3.364-14.8h0a10.767,10.767,0,0,1,14.8-3.364l31.359,20.666A10.767,10.767,0,0,1,421.487,187.825Z" transform="translate(-329.78 -126.89)" fill="#be7c5e"/>
      <circle id="Ellipse_46" data-name="Ellipse 46" cx="23.593" cy="23.593" r="23.593" transform="translate(133.487 132.017)" fill="#be7c5e"/>
      <rect id="Rectangle_29" data-name="Rectangle 29" width="97.812" height="176.549" rx="12.25" transform="translate(58.737)" fill="url(#linear-gradient-3)"/>
      <rect id="Rectangle_30" data-name="Rectangle 30" width="95.167" height="171.78" rx="13.64" transform="translate(60.057 2.388)" fill="#fff"/>
      <path id="Path_255" data-name="Path 255" d="M511.645,94.28a7.715,7.715,0,0,1-7.605,6.562H471.172a7.715,7.715,0,0,1-7.6-6.562H446.156a3.613,3.613,0,0,0-3.616,3.613V253.825a3.613,3.613,0,0,0,3.613,3.616h83.166a3.613,3.613,0,0,0,3.616-3.613V97.9a3.613,3.613,0,0,0-3.613-3.616Z" transform="translate(-380.096 -87.585)" fill="url(#linear-gradient-4)"/>
      <rect id="Rectangle_31" data-name="Rectangle 31" width="21.209" height="1.326" rx="0.663" transform="translate(97.171 8.749)" fill="#dbdbdb"/>
      <circle id="Ellipse_47" data-name="Ellipse 47" cx="0.795" cy="0.795" r="0.795" transform="translate(122.09 8.485)" fill="#dbdbdb"/>
      <path id="Path_256" data-name="Path 256" d="M737.741,406.457h0c-6.847,1.584-11.546-2.882-13.13-9.726l-15.733-58.42a12.814,12.814,0,0,1,9.571-15.323h0a12.814,12.814,0,0,1,15.323,9.571l12.839,59.928C748.2,399.334,744.585,404.874,737.741,406.457Z" transform="translate(-565.41 -246.685)" fill="url(#linear-gradient-5)"/>
      <rect id="Rectangle_32" data-name="Rectangle 32" width="21.472" height="85.735" rx="10.736" transform="translate(143.259 81.678) rotate(-13.01)" fill="#be7c5e"/>
      <rect id="Rectangle_33" data-name="Rectangle 33" width="89.797" height="20.932" transform="translate(90.776 208.157)" fill="url(#linear-gradient-6)"/>
      <rect id="Rectangle_34" data-name="Rectangle 34" width="84.943" height="16.382" transform="translate(93.203 210.584)" fill="#1e64cc"/>
      <path id="Path_257" data-name="Path 257" d="M401.7,409.9h0a11.443,11.443,0,0,1-15.736,3.577l-22.622-14.638a11.443,11.443,0,0,1-3.577-15.736h0a11.443,11.443,0,0,1,15.736-3.577l22.622,14.638A11.443,11.443,0,0,1,401.7,409.9Z" transform="translate(-321.218 -285.081)" fill="url(#linear-gradient-7)"/>
      <path id="Path_258" data-name="Path 258" d="M402.311,521.816h0a11.546,11.546,0,0,1-15.878,3.61L372.42,515.208a11.546,11.546,0,0,1-3.61-15.878h0a11.546,11.546,0,0,1,15.878-3.61L398.7,505.94A11.546,11.546,0,0,1,402.311,521.816Z" transform="translate(-327.507 -366.014)" fill="url(#linear-gradient-8)"/>
      <g id="Group_59" data-name="Group 59" transform="translate(80.355 60.992)" opacity="0.5">
        <circle id="Ellipse_48" data-name="Ellipse 48" cx="27.285" cy="27.285" r="27.285" fill="url(#linear-gradient-9)"/>
      </g>
      <circle id="Ellipse_49" data-name="Ellipse 49" cx="25.68" cy="25.68" r="25.68" transform="translate(81.96 62.597)" fill="#2ac052"/>
      <path id="Path_259" data-name="Path 259" d="M306.564,253.894l9.629,8.828,13.642-20.062,4.818,4.014-18.46,24.075L302.55,255.5Z" transform="translate(-210.069 -169.044)" fill="#fff"/>
      <path id="Path_260" data-name="Path 260" d="M404.051,523.661h0a10.767,10.767,0,0,1-14.8,3.364l-13.069-9.514a10.767,10.767,0,0,1-3.364-14.8h0a10.767,10.767,0,0,1,14.8-3.364l13.066,9.532A10.767,10.767,0,0,1,404.051,523.661Z" transform="translate(-330.379 -368.621)" fill="#be7c5e"/>
      <path id="Path_261" data-name="Path 261" d="M403.536,411.611h0a10.767,10.767,0,0,1-14.8,3.364L367.448,401.2a10.767,10.767,0,0,1-3.364-14.8h0a10.767,10.767,0,0,1,14.8-3.364l21.284,13.773A10.767,10.767,0,0,1,403.536,411.611Z" transform="translate(-324.297 -287.596)" fill="#be7c5e"/>
      <path id="Path_262" data-name="Path 262" d="M406.877,298.813h0a11.5,11.5,0,0,1-15.809,3.592L362.4,283.738a11.5,11.5,0,0,1-3.592-15.809h0a11.5,11.5,0,0,1,15.809-3.592L403.285,283A11.5,11.5,0,0,1,406.877,298.813Z" transform="translate(-320.545 -204.832)" fill="url(#linear-gradient-10)"/>
      <path id="Path_263" data-name="Path 263" d="M409.113,300.891h0a10.767,10.767,0,0,1-14.8,3.364l-26.851-17.483a10.767,10.767,0,0,1-3.364-14.8h0a10.767,10.767,0,0,1,14.8-3.364l26.848,17.483A10.767,10.767,0,0,1,409.113,300.891Z" transform="translate(-324.304 -207.881)" fill="#be7c5e"/>
    </g>
    <text id="Request_has_been_sent_Once_confirmed_we_will_update_you." data-name="Request has been sent, Once confirmed we will update you." transform="translate(90 547)" fill="#808495" font-size="14" font-family="Arial-BoldMT, Arial" font-weight="700"><tspan x="15.359" y="13">Request has been sent, Once </tspan><tspan x="13.431" y="40">confirmed we will update you.</tspan></text>
  </g>
</svg>
