<svg xmlns="http://www.w3.org/2000/svg" xmlns:xlink="http://www.w3.org/1999/xlink" width="412" height="847" viewBox="0 0 412 847">
  <defs>
    <linearGradient id="linear-gradient" x1="0.5" x2="0.5" y2="1" gradientUnits="objectBoundingBox">
      <stop offset="0" stop-color="#4b8ceb"/>
      <stop offset="1" stop-color="#1f64cc"/>
    </linearGradient>
    <linearGradient id="linear-gradient-2" x1="0.5" x2="0.5" y2="1" gradientUnits="objectBoundingBox">
      <stop offset="0" stop-color="#37aadd"/>
      <stop offset="1" stop-color="#1f64cc"/>
    </linearGradient>
    <filter id="bg" x="-3" y="147" width="418" height="167" filterUnits="userSpaceOnUse">
      <feOffset dy="4" input="SourceAlpha"/>
      <feGaussianBlur stdDeviation="8" result="blur"/>
      <feFlood flood-color="#455b63" flood-opacity="0.078"/>
      <feComposite operator="in" in2="blur"/>
      <feComposite in="SourceGraphic"/>
    </filter>
    <filter id="bg-2" x="-3" y="311" width="418" height="167" filterUnits="userSpaceOnUse">
      <feOffset dy="4" input="SourceAlpha"/>
      <feGaussianBlur stdDeviation="8" result="blur-2"/>
      <feFlood flood-color="#455b63" flood-opacity="0.078"/>
      <feComposite operator="in" in2="blur-2"/>
      <feComposite in="SourceGraphic"/>
    </filter>
    <clipPath id="clip-Home_25">
      <rect width="412" height="847"/>
    </clipPath>
  </defs>
  <g id="Home_25" data-name="Home – 25" clip-path="url(#clip-Home_25)">
    <rect width="412" height="847" fill="#e9eff4"/>
    <g id="Group_1500" data-name="Group 1500">
      <g id="Group_1500-2" data-name="Group 1500" transform="translate(23 24)">
        <text id="Your_daily_reminder" data-name="Your daily reminder" transform="translate(0 0)" fill="#1e64cc" font-size="24" font-family="Arial-BoldMT, Arial" font-weight="700"><tspan x="0" y="22">Your daily </tspan><tspan x="0" y="50">reminder</tspan></text>
        <g id="Group_2650" data-name="Group 2650" transform="translate(299.479)">
          <g id="Icon_ionic-ios-notifications" data-name="Icon ionic-ios-notifications" transform="translate(11 3)">
            <circle id="Ellipse_746" data-name="Ellipse 746" cx="23" cy="23" r="23" transform="translate(-0.478 11)" fill="#fff"/>
            <path id="Path_9493" data-name="Path 9493" d="M18.8,32.954c2.71,0,4.191-1.917,4.191-4.618H14.6C14.6,31.037,16.085,32.954,18.8,32.954Z" transform="translate(4.722 17.933)" fill="#ff9241"/>
            <path id="Path_9494" data-name="Path 9494" d="M34.279,29.746C32.938,27.977,30.3,26.941,30.3,19.021c0-8.129-3.59-11.4-6.935-12.18-.314-.078-.54-.183-.54-.514V6.074a2.126,2.126,0,1,0-4.252,0v.253c0,.322-.227.436-.54.514-3.354.793-6.935,4.051-6.935,12.18,0,7.92-2.64,8.948-3.982,10.725A1.729,1.729,0,0,0,8.5,32.517H32.9A1.73,1.73,0,0,0,34.279,29.746Z" transform="translate(2.846 12.097)" fill="url(#linear-gradient)"/>
            <circle id="Ellipse_747" data-name="Ellipse 747" cx="12" cy="12" r="12" transform="translate(30.522)" fill="#ff9241"/>
            <text id="_1" data-name="1" transform="translate(38.521 18)" fill="#fff" font-size="16" font-family="ArialMT, Arial"><tspan x="0" y="0">1</tspan></text>
          </g>
        </g>
      </g>
    </g>
    <path id="Path_4578" data-name="Path 4578" d="M-1789,6345.073h372" transform="translate(1810 -6234)" fill="none" stroke="#707070" stroke-width="1" opacity="0.2"/>
    <g id="trips" transform="translate(21 146)">
      <g id="card" transform="translate(0 21)">
        <g transform="matrix(1, 0, 0, 1, -21, -167)" filter="url(#bg)">
          <rect id="bg-3" data-name="bg" width="370" height="119" rx="12" transform="translate(21 167)" fill="url(#linear-gradient-2)"/>
        </g>
        <g id="Languages" transform="translate(19 15)">
          <text id="Helpful_Positive_thought_" data-name="Helpful Positive thought " fill="#fff" font-size="14" font-family="ArialMT, Arial"><tspan x="0" y="13">Helpful Positive thought </tspan></text>
          <text id="I_can_achieve_anything_if_I_put_my_mind_on_it._" data-name="I can achieve anything if I put my mind on it. " transform="translate(0 31)" fill="#fff" font-size="14" font-family="Arial-BoldMT, Arial" font-weight="700"><tspan x="0" y="13">I can achieve anything if I put my mind on it. </tspan></text>
        </g>
        <path id="Icon_ionic-md-close" data-name="Icon ionic-md-close" d="M19.691,8.74,18.475,7.523l-4.867,4.867L8.74,7.523,7.523,8.74l4.867,4.867L7.523,18.475,8.74,19.691l4.867-4.867,4.867,4.867,1.217-1.217-4.867-4.867Z" transform="translate(329.014 8.307)" fill="#fff"/>
      </g>
      <text id="Positive_Self_Affirmation" data-name="Positive Self Affirmation" fill="#78849e" font-size="12" font-family="SegoeUI, Segoe UI"><tspan x="0" y="13">Positive Self Affirmation</tspan></text>
    </g>
    <g id="trips-2" data-name="trips" transform="translate(21 310)">
      <g id="card-2" data-name="card" transform="translate(0 21)">
        <g transform="matrix(1, 0, 0, 1, -21, -331)" filter="url(#bg-2)">
          <rect id="bg-4" data-name="bg" width="370" height="119" rx="12" transform="translate(21 331)" fill="url(#linear-gradient-2)"/>
        </g>
        <g id="Languages-2" data-name="Languages" transform="translate(19 15)">
          <text id="Things_which_you_can_control_" data-name="Things which you can control " fill="#fff" font-size="14" font-family="ArialMT, Arial"><tspan x="0" y="13">Things which you can control </tspan></text>
          <text id="Preparing_for_exam_perform_it_well" data-name="Preparing for exam, perform it well" transform="translate(0 31)" fill="#fff" font-size="14" font-family="Arial-BoldMT, Arial" font-weight="700"><tspan x="0" y="13">Preparing for exam, perform it well</tspan></text>
        </g>
        <path id="Icon_ionic-md-close-2" data-name="Icon ionic-md-close" d="M19.691,8.74,18.475,7.523l-4.867,4.867L8.74,7.523,7.523,8.74l4.867,4.867L7.523,18.475,8.74,19.691l4.867-4.867,4.867,4.867,1.217-1.217-4.867-4.867Z" transform="translate(329.014 8.307)" fill="#fff"/>
      </g>
      <text id="Know_yourself_better" data-name="Know yourself better" fill="#78849e" font-size="12" font-family="SegoeUI, Segoe UI"><tspan x="0" y="13">Know yourself better</tspan></text>
    </g>
  </g>
</svg>
