<svg xmlns="http://www.w3.org/2000/svg" xmlns:xlink="http://www.w3.org/1999/xlink" width="412" height="847" viewBox="0 0 412 847">
  <defs>
    <filter id="bg" x="14" y="304" width="385" height="301" filterUnits="userSpaceOnUse">
      <feOffset dy="4" input="SourceAlpha"/>
      <feGaussianBlur stdDeviation="8" result="blur"/>
      <feFlood flood-color="#455b63" flood-opacity="0.078"/>
      <feComposite operator="in" in2="blur"/>
      <feComposite in="SourceGraphic"/>
    </filter>
    <filter id="bg-2" x="14" y="503" width="385" height="102" filterUnits="userSpaceOnUse">
      <feOffset dy="4" input="SourceAlpha"/>
      <feGaussianBlur stdDeviation="8" result="blur-2"/>
      <feFlood flood-color="#455b63" flood-opacity="0.078"/>
      <feComposite operator="in" in2="blur-2"/>
      <feComposite in="SourceGraphic"/>
    </filter>
    <clipPath id="clip-Home_35">
      <rect width="412" height="847"/>
    </clipPath>
  </defs>
  <g id="Home_35" data-name="Home – 35" clip-path="url(#clip-Home_35)">
    <rect id="Rectangle_1978" data-name="Rectangle 1978" width="412" height="847" fill="#272727" opacity="0.6"/>
    <g id="card" transform="translate(-13 236)">
      <g transform="matrix(1, 0, 0, 1, 13, -236)" filter="url(#bg)">
        <rect id="bg-3" data-name="bg" width="337" height="253" rx="12" transform="translate(38 324)" fill="#fff"/>
      </g>
      <g id="Group_2225" data-name="Group 2225" transform="translate(40 -79)">
        <g id="Rectangle_1704" data-name="Rectangle 1704" transform="translate(32 251)" fill="#f0f6ff" stroke="rgba(112,112,112,0.1)" stroke-width="1">
          <rect width="301" height="58" rx="5" stroke="none"/>
          <rect x="0.5" y="0.5" width="300" height="57" rx="4.5" fill="none"/>
        </g>
        <text id="_5" data-name="5" transform="translate(174 285)" fill="#254069" font-size="18" font-family="ArialMT, Arial"><tspan x="0" y="0">5</tspan></text>
        <text id="Enter_OTP" data-name="Enter OTP" transform="translate(32 241)" fill="#2e5b9f" font-size="18" font-family="ArialMT, Arial"><tspan x="0" y="0">Enter OTP</tspan></text>
        <text id="OTP_Sent_successfully" data-name="OTP Sent successfully" transform="translate(32 328)" fill="#009d42" font-size="14" font-family="ArialMT, Arial"><tspan x="0" y="0">OTP Sent successfully</tspan></text>
      </g>
      <path id="Path_4596" data-name="Path 4596" d="M280.907,241.5H597.8" transform="translate(-218.907 -115)" fill="none" stroke="#707070" stroke-width="1" opacity="0.2"/>
      <g id="Group_3068" data-name="Group 3068" transform="translate(0 40)">
        <g transform="matrix(1, 0, 0, 1, 13, -276)" filter="url(#bg-2)">
          <path id="bg-4" data-name="bg" d="M0,0H337a0,0,0,0,1,0,0V42a12,12,0,0,1-12,12H12A12,12,0,0,1,0,42V0A0,0,0,0,1,0,0Z" transform="translate(38 523)" fill="#ff9241"/>
        </g>
        <text id="Submit" transform="translate(219 282)" fill="#fff" font-size="20" font-family="ArialMT, Arial"><tspan x="-31.123" y="0">Submit</tspan></text>
      </g>
      <path id="Icon_ionic-md-close" data-name="Icon ionic-md-close" d="M19.691,8.74,18.475,7.523l-4.867,4.867L8.74,7.523,7.523,8.74l4.867,4.867L7.523,18.475,8.74,19.691l4.867-4.867,4.867,4.867,1.217-1.217-4.867-4.867Z" transform="translate(344.869 94.307)" fill="#272727"/>
      <text id="Session_08" data-name="Session 08" transform="translate(70 98)" fill="#2e5b9f" font-size="16" font-family="Arial-BoldMT, Arial" font-weight="700"><tspan x="0" y="14">Session 08</tspan></text>
    </g>
  </g>
</svg>
