<svg xmlns="http://www.w3.org/2000/svg" xmlns:xlink="http://www.w3.org/1999/xlink" width="412" height="1263" viewBox="0 0 412 1263">
  <defs>
    <linearGradient id="linear-gradient" x1="0.5" x2="0.5" y2="1" gradientUnits="objectBoundingBox">
      <stop offset="0" stop-color="#37aadd"/>
      <stop offset="1" stop-color="#1f64cc"/>
    </linearGradient>
    <filter id="Rectangle_1534" x="-9" y="775" width="430" height="78" filterUnits="userSpaceOnUse">
      <feOffset dy="-3" input="SourceAlpha"/>
      <feGaussianBlur stdDeviation="3" result="blur"/>
      <feFlood flood-opacity="0.059"/>
      <feComposite operator="in" in2="blur"/>
      <feComposite in="SourceGraphic"/>
    </filter>
    <clipPath id="clip-Info_centre_4_1">
      <rect width="412" height="1263"/>
    </clipPath>
  </defs>
  <g id="Info_centre_4_1" data-name="Info centre 4 – 1" clip-path="url(#clip-Info_centre_4_1)">
    <rect width="412" height="1263" fill="#e9eff4"/>
    <rect id="Rectangle_2128" data-name="Rectangle 2128" width="370" height="563" rx="10" transform="translate(21 213)" fill="#fff"/>
    <g id="Group_1500" data-name="Group 1500">
      <path id="Rectangle_293" data-name="Rectangle 293" d="M0,0H412a0,0,0,0,1,0,0V131a20,20,0,0,1-20,20H20A20,20,0,0,1,0,131V0A0,0,0,0,1,0,0Z" fill="url(#linear-gradient)"/>
      <text id="FAQ" transform="translate(21 99)" fill="#fff" font-size="24" font-family="Arial-BoldMT, Arial" font-weight="700"><tspan x="0" y="22">FAQ</tspan></text>
    </g>
    <text id="Recent_discussions" data-name="Recent discussions" transform="translate(21 193.145)" fill="#0e58c7" font-size="20" font-family="ArialMT, Arial"><tspan x="0" y="0">Recent discussions</tspan></text>
    <g id="post" transform="translate(12.471 301.976)">
      <g id="content" transform="translate(27 23.712)">
        <text id="When_one_door_of_happiness_closes_another_opens_but_often_we_look_so_long_at_the_closed_door_that_we_do_not_see_the_one_that_has_been_opened_for_us._" data-name="When one door of happiness closes, another opens, but often we look so long at the closed door that we do not see the one that has been opened for us. " transform="translate(0 32)" fill="#78849e" font-size="16" font-family="ArialMT, Arial"><tspan x="0" y="14">When one door of happiness closes, another </tspan><tspan x="0" y="39">opens, but often we look so long at the closed </tspan><tspan x="0" y="64">door that we do not see the one that has been </tspan></text>
        <text id="When_one_door_of_happiness_closes_another_opens_but_often_we_look_so_long_at_the_closed_door_that_we_do_not_see_the_one_that_has_been_opened_for_us._2" data-name="When one door of happiness closes, another opens, but often we look so long at the closed door that we do not see the one that has been opened for us. " transform="translate(0 176)" fill="#78849e" font-size="16" font-family="ArialMT, Arial"><tspan x="0" y="14">When one door of happiness closes, another </tspan><tspan x="0" y="39">opens, but often we look so long at the closed </tspan><tspan x="0" y="64">door that we do not see the one that has been </tspan></text>
        <text id="When_one_door_of_happiness_closes_another_opens_but_often_we_look_so_long_at_the_closed_door_that_we_do_not_see_the_one_that_has_been_opened_for_us._3" data-name="When one door of happiness closes, another opens, but often we look so long at the closed door that we do not see the one that has been opened for us. " transform="translate(0 320)" fill="#78849e" font-size="16" font-family="ArialMT, Arial"><tspan x="0" y="14">When one door of happiness closes, another </tspan><tspan x="0" y="39">opens, but often we look so long at the closed </tspan><tspan x="0" y="64">door that we do not see the one that has been </tspan></text>
        <text id="Troubleshoot_problems_playing_videos_" data-name="Troubleshoot problems playing videos ?" transform="translate(0 13)" fill="#454f63" font-size="16" font-family="ArialMT, Arial"><tspan x="0" y="0">Troubleshoot problems playing videos ?</tspan></text>
        <text id="Troubleshoot_problems_playing_videos_2" data-name="Troubleshoot problems playing videos ?" transform="translate(0 157)" fill="#454f63" font-size="16" font-family="ArialMT, Arial"><tspan x="0" y="0">Troubleshoot problems playing videos ?</tspan></text>
        <text id="Troubleshoot_problems_playing_videos" data-name="Troubleshoot problems playing videos" transform="translate(0 301)" fill="#454f63" font-size="16" font-family="ArialMT, Arial"><tspan x="0" y="0">Troubleshoot problems playing videos</tspan></text>
        <g id="Group_3705" data-name="Group 3705">
          <text id="Troubleshoot_problems_playing_videos-2" data-name="Troubleshoot problems playing videos" transform="translate(0 -49)" fill="#454f63" font-size="16" font-family="ArialMT, Arial"><tspan x="0" y="0">Troubleshoot problems playing videos</tspan></text>
          <text id="Alcool_-_Tabac_Drogues" data-name="Alcool - Tabac Drogues" transform="translate(0 -77)" fill="#454f63" font-size="17" font-family="Arial-BoldMT, Arial" font-weight="700"><tspan x="0" y="0">Alcool - Tabac Drogues</tspan></text>
        </g>
      </g>
    </g>
    <g id="Group_3706" data-name="Group 3706" transform="translate(0 -46)">
      <text id="Related_discussion" data-name="Related discussion" transform="translate(21 879)" fill="#0e58c7" font-size="16" font-family="Arial-BoldMT, Arial" font-weight="700"><tspan x="0" y="0">Related discussion</tspan></text>
      <rect id="Rectangle_2131" data-name="Rectangle 2131" width="370" height="221" rx="10" transform="translate(21 899)" fill="#fff"/>
      <g id="Languages" transform="translate(35 913)">
        <text id="Alcool_-_Tabac_Drogues-2" data-name="Alcool - Tabac Drogues" transform="translate(1 19)" fill="#454f63" font-size="14" font-family="ArialMT, Arial"><tspan x="0" y="13">Alcool - Tabac Drogues</tspan></text>
        <text id="See_more" data-name="See more" transform="translate(261 19)" fill="#1e64cc" font-size="14" font-family="Lato-Bold, Lato" font-weight="700"><tspan x="8.725" y="14">See more</tspan></text>
        <g id="Group_45" data-name="Group 45" transform="translate(0)">
          <text id="_18_02_2020" data-name="18/02/2020" fill="#1c1c1c" font-size="12" font-family="Lato-Regular, Lato" opacity="0.4"><tspan x="0" y="12">18/02/2020</tspan></text>
          <text id="_203_" data-name="203 " transform="translate(324)" fill="#1c1c1c" font-size="12" font-family="Lato-Regular, Lato" opacity="0.4"><tspan x="5.08" y="12">20</tspan></text>
          <g id="_27-message" data-name="27-message" transform="translate(308.581 1.051)" opacity="0.3">
            <path id="Path_415" data-name="Path 415" d="M14.562,5.018h-.5V2.507A1.509,1.509,0,0,0,12.553,1H2.507A1.509,1.509,0,0,0,1,2.507v8.406a.5.5,0,0,0,.845.367L3.71,9.539H5.018v2.01a1.509,1.509,0,0,0,1.507,1.507H13.35l1.862,1.862a.5.5,0,0,0,.857-.355V6.525A1.509,1.509,0,0,0,14.562,5.018ZM3.512,8.534a.5.5,0,0,0-.343.136L2,9.757V2.507a.5.5,0,0,1,.5-.5H12.553a.5.5,0,0,1,.5.5V8.032a.5.5,0,0,1-.5.5ZM15.065,13.35,13.913,12.2a.5.5,0,0,0-.355-.147H6.525a.5.5,0,0,1-.5-.5V9.539h6.53A1.509,1.509,0,0,0,14.06,8.032V6.023h.5a.5.5,0,0,1,.5.5Z" transform="translate(-1 -1)" fill="#1c1c1c"/>
          </g>
        </g>
        <line id="Line_4" data-name="Line 4" x2="342" transform="translate(1 52)" fill="none" stroke="#1c1c1c" stroke-linecap="round" stroke-width="0.5" opacity="0.2"/>
        <path id="Path_414" data-name="Path 414" d="M7.285,11.2,2.318,6.412,7.285,1.626A.923.923,0,0,0,7.571.963.943.943,0,0,0,7.3.286.923.923,0,0,0,6.638,0H6.623a.934.934,0,0,0-.662.271L.286,5.735A.958.958,0,0,0,0,6.412a.932.932,0,0,0,.286.677l5.69,5.464a.973.973,0,0,0,.662.271.958.958,0,0,0,.677-.286.943.943,0,0,0,.271-.677A.859.859,0,0,0,7.285,11.2Z" transform="translate(342.65 34.824) rotate(180)" fill="#1e64cc"/>
      </g>
      <g id="Languages-2" data-name="Languages" transform="translate(35 981)">
        <text id="Cardiologie_et_circulation" data-name="Cardiologie et circulation" transform="translate(1 19)" fill="#454f63" font-size="14" font-family="ArialMT, Arial"><tspan x="0" y="13">Cardiologie et circulation</tspan></text>
        <text id="See_more-2" data-name="See more" transform="translate(261 19)" fill="#1e64cc" font-size="14" font-family="Lato-Bold, Lato" font-weight="700"><tspan x="8.725" y="14">See more</tspan></text>
        <g id="Group_45-2" data-name="Group 45" transform="translate(0)">
          <text id="_17_02_2020" data-name="17/02/2020" fill="#1c1c1c" font-size="12" font-family="Lato-Regular, Lato" opacity="0.4"><tspan x="0" y="12">17/02/2020</tspan></text>
          <text id="_12" data-name="12" transform="translate(324)" fill="#1c1c1c" font-size="12" font-family="Lato-Regular, Lato" opacity="0.4"><tspan x="5.08" y="12">12</tspan></text>
          <g id="_27-message-2" data-name="27-message" transform="translate(308.581 1.051)" opacity="0.3">
            <path id="Path_415-2" data-name="Path 415" d="M14.562,5.018h-.5V2.507A1.509,1.509,0,0,0,12.553,1H2.507A1.509,1.509,0,0,0,1,2.507v8.406a.5.5,0,0,0,.845.367L3.71,9.539H5.018v2.01a1.509,1.509,0,0,0,1.507,1.507H13.35l1.862,1.862a.5.5,0,0,0,.857-.355V6.525A1.509,1.509,0,0,0,14.562,5.018ZM3.512,8.534a.5.5,0,0,0-.343.136L2,9.757V2.507a.5.5,0,0,1,.5-.5H12.553a.5.5,0,0,1,.5.5V8.032a.5.5,0,0,1-.5.5ZM15.065,13.35,13.913,12.2a.5.5,0,0,0-.355-.147H6.525a.5.5,0,0,1-.5-.5V9.539h6.53A1.509,1.509,0,0,0,14.06,8.032V6.023h.5a.5.5,0,0,1,.5.5Z" transform="translate(-1 -1)" fill="#1c1c1c"/>
          </g>
        </g>
        <line id="Line_4-2" data-name="Line 4" x2="342" transform="translate(1 52)" fill="none" stroke="#1c1c1c" stroke-linecap="round" stroke-width="0.5" opacity="0.2"/>
        <path id="Path_414-2" data-name="Path 414" d="M7.285,11.2,2.318,6.412,7.285,1.626A.923.923,0,0,0,7.571.963.943.943,0,0,0,7.3.286.923.923,0,0,0,6.638,0H6.623a.934.934,0,0,0-.662.271L.286,5.735A.958.958,0,0,0,0,6.412a.932.932,0,0,0,.286.677l5.69,5.464a.973.973,0,0,0,.662.271.958.958,0,0,0,.677-.286.943.943,0,0,0,.271-.677A.859.859,0,0,0,7.285,11.2Z" transform="translate(342.65 34.824) rotate(180)" fill="#1e64cc"/>
      </g>
      <g id="Languages-3" data-name="Languages" transform="translate(35 1049)">
        <text id="Cardiologie_et_circulation-2" data-name="Cardiologie et circulation" transform="translate(1 19)" fill="#454f63" font-size="14" font-family="ArialMT, Arial"><tspan x="0" y="13">Cardiologie et circulation</tspan></text>
        <text id="See_more-3" data-name="See more" transform="translate(261 19)" fill="#1e64cc" font-size="14" font-family="Lato-Bold, Lato" font-weight="700"><tspan x="8.725" y="14">See more</tspan></text>
        <g id="Group_45-3" data-name="Group 45" transform="translate(0)">
          <text id="_17_02_2020-2" data-name="17/02/2020" fill="#1c1c1c" font-size="12" font-family="Lato-Regular, Lato" opacity="0.4"><tspan x="0" y="12">17/02/2020</tspan></text>
          <text id="_12-2" data-name="12" transform="translate(324)" fill="#1c1c1c" font-size="12" font-family="Lato-Regular, Lato" opacity="0.4"><tspan x="5.08" y="12">12</tspan></text>
          <g id="_27-message-3" data-name="27-message" transform="translate(308.581 1.051)" opacity="0.3">
            <path id="Path_415-3" data-name="Path 415" d="M14.562,5.018h-.5V2.507A1.509,1.509,0,0,0,12.553,1H2.507A1.509,1.509,0,0,0,1,2.507v8.406a.5.5,0,0,0,.845.367L3.71,9.539H5.018v2.01a1.509,1.509,0,0,0,1.507,1.507H13.35l1.862,1.862a.5.5,0,0,0,.857-.355V6.525A1.509,1.509,0,0,0,14.562,5.018ZM3.512,8.534a.5.5,0,0,0-.343.136L2,9.757V2.507a.5.5,0,0,1,.5-.5H12.553a.5.5,0,0,1,.5.5V8.032a.5.5,0,0,1-.5.5ZM15.065,13.35,13.913,12.2a.5.5,0,0,0-.355-.147H6.525a.5.5,0,0,1-.5-.5V9.539h6.53A1.509,1.509,0,0,0,14.06,8.032V6.023h.5a.5.5,0,0,1,.5.5Z" transform="translate(-1 -1)" fill="#1c1c1c"/>
          </g>
        </g>
        <line id="Line_4-3" data-name="Line 4" x2="342" transform="translate(1 52)" fill="none" stroke="#1c1c1c" stroke-linecap="round" stroke-width="0.5" opacity="0.2"/>
        <path id="Path_414-3" data-name="Path 414" d="M7.285,11.2,2.318,6.412,7.285,1.626A.923.923,0,0,0,7.571.963.943.943,0,0,0,7.3.286.923.923,0,0,0,6.638,0H6.623a.934.934,0,0,0-.662.271L.286,5.735A.958.958,0,0,0,0,6.412a.932.932,0,0,0,.286.677l5.69,5.464a.973.973,0,0,0,.662.271.958.958,0,0,0,.677-.286.943.943,0,0,0,.271-.677A.859.859,0,0,0,7.285,11.2Z" transform="translate(342.65 34.824) rotate(180)" fill="#1e64cc"/>
      </g>
    </g>
    <g id="Component_119_120" data-name="Component 119 – 120" transform="translate(0 787)">
      <g transform="matrix(1, 0, 0, 1, 0, -787)" filter="url(#Rectangle_1534)">
        <rect id="Rectangle_1534-2" data-name="Rectangle 1534" width="412" height="60" transform="translate(0 787)" fill="#102646"/>
      </g>
      <g id="Group_2755" data-name="Group 2755" transform="translate(0 -779)">
        <g id="Rectangle_1564" data-name="Rectangle 1564" transform="translate(12 789)" fill="#fff" stroke="#707070" stroke-width="1" opacity="0">
          <rect width="50" height="45" stroke="none"/>
          <rect x="0.5" y="0.5" width="49" height="44" fill="none"/>
        </g>
        <path id="Path_4565" data-name="Path 4565" d="M35.606,24.011l-7.368-7.1,7.368-7.1a1.37,1.37,0,0,0,.424-.982,1.4,1.4,0,0,0-.4-1,1.369,1.369,0,0,0-.982-.424h-.022a1.385,1.385,0,0,0-.982.4l-8.417,8.1a1.42,1.42,0,0,0-.424,1,1.382,1.382,0,0,0,.424,1l8.439,8.1a1.443,1.443,0,0,0,.982.4,1.42,1.42,0,0,0,1-.424,1.4,1.4,0,0,0,.4-1A1.274,1.274,0,0,0,35.606,24.011Z" transform="translate(5.036 792.435)" fill="#fff"/>
      </g>
    </g>
  </g>
</svg>
