<svg xmlns="http://www.w3.org/2000/svg" xmlns:xlink="http://www.w3.org/1999/xlink" width="412" height="847" viewBox="0 0 412 847">
  <defs>
    <linearGradient id="linear-gradient" x1="0.5" x2="0.5" y2="1" gradientUnits="objectBoundingBox">
      <stop offset="0" stop-color="#37aadd"/>
      <stop offset="1" stop-color="#1f64cc"/>
    </linearGradient>
    <filter id="Rectangle_1534" x="-9" y="775" width="430" height="78" filterUnits="userSpaceOnUse">
      <feOffset dy="-3" input="SourceAlpha"/>
      <feGaussianBlur stdDeviation="3" result="blur"/>
      <feFlood flood-opacity="0.059"/>
      <feComposite operator="in" in2="blur"/>
      <feComposite in="SourceGraphic"/>
    </filter>
    <clipPath id="clip-Info_centre_6">
      <rect width="412" height="847"/>
    </clipPath>
  </defs>
  <g id="Info_centre_6" data-name="Info centre 6" clip-path="url(#clip-Info_centre_6)">
    <rect width="412" height="847" fill="#e9eff4"/>
    <g id="Group_1500" data-name="Group 1500">
      <path id="Rectangle_293" data-name="Rectangle 293" d="M0,0H412a0,0,0,0,1,0,0V131a20,20,0,0,1-20,20H20A20,20,0,0,1,0,131V0A0,0,0,0,1,0,0Z" fill="url(#linear-gradient)"/>
      <text id="Information_Center" data-name="Information Center" transform="translate(21 99)" fill="#fff" font-size="24" font-family="Arial-BoldMT, Arial" font-weight="700"><tspan x="0" y="22">Information Center</tspan></text>
    </g>
    <g id="Search" transform="translate(85.295 349.012)">
      <path id="Path_7" data-name="Path 7" d="M5.65,5h224.6c3.121,0,5.65,3.25,5.65,7.259v24.5c0,4.009-2.53,7.259-5.65,7.259H5.65C2.53,44.017,0,40.767,0,36.758v-24.5C0,8.25,2.53,5,5.65,5Z" transform="translate(2.566 -5)" fill="#1e64cc"/>
      <text id="_11" data-name="11" transform="translate(20.153 9.816)" fill="#edf4fd" font-size="14" font-family="Arial-BoldMT, Arial" font-weight="700"><tspan x="0" y="13">11</tspan></text>
    </g>
    <g id="Search-2" data-name="Search" transform="translate(85.295 398.012)">
      <path id="Path_7-2" data-name="Path 7" d="M5.65,5h224.6c3.121,0,5.65,3.25,5.65,7.259v24.5c0,4.009-2.53,7.259-5.65,7.259H5.65C2.53,44.017,0,40.767,0,36.758v-24.5C0,8.25,2.53,5,5.65,5Z" transform="translate(2.566 -5)" fill="#f7fafd"/>
      <text id="_22" data-name="22" transform="translate(20.153 9.816)" fill="#808495" font-size="14" font-family="ArialMT, Arial"><tspan x="0" y="13">22</tspan></text>
    </g>
    <g id="Search-3" data-name="Search" transform="translate(85.295 447.012)">
      <path id="Path_7-3" data-name="Path 7" d="M5.65,5h224.6c3.121,0,5.65,3.25,5.65,7.259v24.5c0,4.009-2.53,7.259-5.65,7.259H5.65C2.53,44.017,0,40.767,0,36.758v-24.5C0,8.25,2.53,5,5.65,5Z" transform="translate(2.566 -5)" fill="#f7fafd"/>
      <text id="_5" data-name="5" transform="translate(20.153 9.816)" fill="#808495" font-size="14" font-family="ArialMT, Arial"><tspan x="0" y="13">5</tspan></text>
    </g>
    <g id="Search-4" data-name="Search" transform="translate(85.295 496.012)">
      <path id="Path_7-4" data-name="Path 7" d="M5.65,5h224.6c3.121,0,5.65,3.25,5.65,7.259v24.5c0,4.009-2.53,7.259-5.65,7.259H5.65C2.53,44.017,0,40.767,0,36.758v-24.5C0,8.25,2.53,5,5.65,5Z" transform="translate(2.566 -5)" fill="#f7fafd"/>
      <text id="_1" data-name="1" transform="translate(20.153 9.816)" fill="#808495" font-size="14" font-family="ArialMT, Arial"><tspan x="0" y="13">1</tspan></text>
    </g>
    <g id="Search-5" data-name="Search" transform="translate(85.295 545.012)">
      <path id="Path_7-5" data-name="Path 7" d="M5.65,5h224.6c3.121,0,5.65,3.25,5.65,7.259v24.5c0,4.009-2.53,7.259-5.65,7.259H5.65C2.53,44.017,0,40.767,0,36.758v-24.5C0,8.25,2.53,5,5.65,5Z" transform="translate(2.566 -5)" fill="#f7fafd"/>
      <text id="None" transform="translate(20.153 9.816)" fill="#808495" font-size="14" font-family="ArialMT, Arial"><tspan x="0" y="13">None</tspan></text>
    </g>
    <text id="How_many_time_zones_are_there_in_Russia_" data-name="How many time zones are there in Russia? " transform="translate(21 272.972)" fill="#1e64cc" font-size="16" font-family="ArialMT, Arial"><tspan x="32.488" y="14">How many time zones are there in Russia? </tspan></text>
    <g id="Component_119_127" data-name="Component 119 – 127" transform="translate(0 787)">
      <g transform="matrix(1, 0, 0, 1, 0, -787)" filter="url(#Rectangle_1534)">
        <rect id="Rectangle_1534-2" data-name="Rectangle 1534" width="412" height="60" transform="translate(0 787)" fill="#102646"/>
      </g>
      <g id="Group_2755" data-name="Group 2755" transform="translate(0 -779)">
        <g id="Rectangle_1564" data-name="Rectangle 1564" transform="translate(12 789)" fill="#fff" stroke="#707070" stroke-width="1" opacity="0">
          <rect width="50" height="45" stroke="none"/>
          <rect x="0.5" y="0.5" width="49" height="44" fill="none"/>
        </g>
        <path id="Path_4565" data-name="Path 4565" d="M35.606,24.011l-7.368-7.1,7.368-7.1a1.37,1.37,0,0,0,.424-.982,1.4,1.4,0,0,0-.4-1,1.369,1.369,0,0,0-.982-.424h-.022a1.385,1.385,0,0,0-.982.4l-8.417,8.1a1.42,1.42,0,0,0-.424,1,1.382,1.382,0,0,0,.424,1l8.439,8.1a1.443,1.443,0,0,0,.982.4,1.42,1.42,0,0,0,1-.424,1.4,1.4,0,0,0,.4-1A1.274,1.274,0,0,0,35.606,24.011Z" transform="translate(5.036 792.435)" fill="#fff"/>
      </g>
    </g>
  </g>
</svg>
