<svg xmlns="http://www.w3.org/2000/svg" xmlns:xlink="http://www.w3.org/1999/xlink" width="412" height="847" viewBox="0 0 412 847">
  <defs>
    <linearGradient id="linear-gradient" x1="0.5" x2="0.5" y2="1" gradientUnits="objectBoundingBox">
      <stop offset="0" stop-color="#37aadd"/>
      <stop offset="1" stop-color="#1f64cc"/>
    </linearGradient>
    <filter id="Rectangle_1534" x="-9" y="775" width="430" height="78" filterUnits="userSpaceOnUse">
      <feOffset dy="-3" input="SourceAlpha"/>
      <feGaussianBlur stdDeviation="3" result="blur"/>
      <feFlood flood-opacity="0.059"/>
      <feComposite operator="in" in2="blur"/>
      <feComposite in="SourceGraphic"/>
    </filter>
    <clipPath id="clip-Intro_19">
      <rect width="412" height="847"/>
    </clipPath>
  </defs>
  <g id="Intro_19" data-name="Intro – 19" clip-path="url(#clip-Intro_19)">
    <rect width="412" height="847" fill="#e9eff4"/>
    <g id="Component_119_349" data-name="Component 119 – 349" transform="translate(0 787)">
      <g transform="matrix(1, 0, 0, 1, 0, -787)" filter="url(#Rectangle_1534)">
        <rect id="Rectangle_1534-2" data-name="Rectangle 1534" width="412" height="60" transform="translate(0 787)" fill="url(#linear-gradient)"/>
      </g>
      <g id="Group_2755" data-name="Group 2755" transform="translate(0 -779)">
        <g id="Rectangle_1564" data-name="Rectangle 1564" transform="translate(12 789)" fill="#fff" stroke="#707070" stroke-width="1" opacity="0">
          <rect width="50" height="45" stroke="none"/>
          <rect x="0.5" y="0.5" width="49" height="44" fill="none"/>
        </g>
        <path id="Path_4565" data-name="Path 4565" d="M35.606,24.011l-7.368-7.1,7.368-7.1a1.37,1.37,0,0,0,.424-.982,1.4,1.4,0,0,0-.4-1,1.369,1.369,0,0,0-.982-.424h-.022a1.385,1.385,0,0,0-.982.4l-8.417,8.1a1.42,1.42,0,0,0-.424,1,1.382,1.382,0,0,0,.424,1l8.439,8.1a1.443,1.443,0,0,0,.982.4,1.42,1.42,0,0,0,1-.424,1.4,1.4,0,0,0,.4-1A1.274,1.274,0,0,0,35.606,24.011Z" transform="translate(5.036 792.435)" fill="#fff"/>
      </g>
    </g>
    <text id="OCD_session_1" data-name="OCD session 1" transform="translate(21 24)" fill="#1e64cc" font-size="24" font-family="Arial-BoldMT, Arial" font-weight="700"><tspan x="0" y="22">OCD session 1</tspan></text>
    <text id="Assesments" transform="translate(21 107)" fill="#1e64cc" font-size="16" font-family="Arial-BoldMT, Arial" font-weight="700"><tspan x="0" y="14">Assesments</tspan></text>
    <g id="Group_3587" data-name="Group 3587" transform="translate(-6 -329)">
      <rect id="Rectangle_1841" data-name="Rectangle 1841" width="169" height="224" rx="15" transform="translate(27 478)" fill="url(#linear-gradient)"/>
      <g id="Group_3368" data-name="Group 3368" transform="translate(7 -67)">
        <circle id="Ellipse_616" data-name="Ellipse 616" cx="23.5" cy="23.5" r="23.5" transform="translate(32 566)" fill="#edf4fd"/>
        <g id="_001-obsession" data-name="001-obsession" transform="translate(42.901 575.478)">
          <path id="Path_6412" data-name="Path 6412" d="M105.132,255.148a.548.548,0,1,0,.548.548.548.548,0,0,0-.548-.548Z" transform="translate(-100.279 -241.172)" fill="#1e64cc"/>
          <path id="Path_6413" data-name="Path 6413" d="M51.19,7.121A7.12,7.12,0,0,0,37.7,3.95c-.1,0-.207-.006-.31-.006a9.406,9.406,0,0,0-6.653,2.737,9.211,9.211,0,0,0-2.77,6.589,6.267,6.267,0,0,1-1.355,2.8,2.161,2.161,0,0,0-.442,2.329c.246.48.856,1.043,2.351,1.154v2.4a2.956,2.956,0,0,0,2.966,2.94c1.43,0,2.217.053,2.552.343s.432,1,.518,2.306a.548.548,0,0,0,.547.512h7.854a.548.548,0,0,0,.547-.584c-.069-1.059-.1-1.84-.094-2.531a.548.548,0,0,0-.544-.551h0a.548.548,0,0,0-.548.544c0,.583.015,1.224.06,2.026H35.61a3.555,3.555,0,0,0-.858-2.551c-.658-.568-1.674-.609-3.269-.609a1.86,1.86,0,0,1-1.871-1.844V21.21a3.106,3.106,0,0,1,1.369.474.548.548,0,1,0,.548-.949,4.226,4.226,0,0,0-1.917-.621v-1.1a.548.548,0,0,0-.548-.548c-1.019,0-1.739-.216-1.924-.578-.132-.256,0-.69.357-1.19a7.2,7.2,0,0,0,1.56-3.434,8.287,8.287,0,0,1,8.2-8.229,7.113,7.113,0,0,0,1.406,6.71l-.239.239-1.248-.312a.548.548,0,0,0-.52.144l-1.937,1.937a.548.548,0,0,0,.254.919l1.23.308.308,1.23a.548.548,0,0,0,.919.254l1.937-1.937a.548.548,0,0,0,.144-.52L39.2,12.765l.239-.239a7.117,7.117,0,0,0,6.234,1.534,8.12,8.12,0,0,1-1.181,3.485A16.564,16.564,0,0,0,43.261,19.9a.548.548,0,1,0,1.011.422,15.494,15.494,0,0,1,1.151-2.2A9.21,9.21,0,0,0,46.8,13.7,7.132,7.132,0,0,0,51.19,7.121Zm-13.849,7.89-.153-.611a.548.548,0,0,0-.4-.4l-.611-.153,1.033-1.033.93.232.232.93Zm6.728-1.865a6,6,0,0,1-3.853-1.4l.778-.778a4.935,4.935,0,1,0-.775-.775l-.778.778a6.023,6.023,0,1,1,4.628,2.172ZM40.235,7.121a3.838,3.838,0,1,1,1.539,3.07L42.56,9.4a2.742,2.742,0,1,0-.775-.775L41,9.416A3.814,3.814,0,0,1,40.235,7.121Zm2.191,0A1.644,1.644,0,1,1,43.362,8.6l1.1-1.1a.548.548,0,0,0-.775-.775l-1.1,1.1A1.634,1.634,0,0,1,42.426,7.121Z" transform="translate(-25.993)" fill="#1e64cc"/>
          <g id="Ellipse_614" data-name="Ellipse 614" transform="translate(12.253 0.778)" fill="none" stroke="#fe7614" stroke-width="1">
            <circle cx="6.214" cy="6.214" r="6.214" stroke="none"/>
            <circle cx="6.214" cy="6.214" r="5.714" fill="none"/>
          </g>
          <path id="Path_6414" data-name="Path 6414" d="M328.222,400.239h0a.548.548,0,1,0,.548.548A.548.548,0,0,0,328.222,400.239Z" transform="translate(-311.15 -378.316)" fill="#1e64cc"/>
        </g>
      </g>
      <g id="Group_3369" data-name="Group 3369" transform="translate(-48 110)">
        <text id="Obsession" transform="translate(87 445)" fill="#fff" font-size="14" font-family="Arial-BoldMT, Arial" font-weight="700"><tspan x="0" y="13">Obsession</tspan></text>
        <text id="Exercise_Type_-_Checklist" data-name="Exercise Type - Checklist" transform="translate(87 506)" fill="#fff" font-size="12" font-family="ArialMT, Arial"><tspan x="0" y="11">Exercise Type - Checklist</tspan></text>
        <text id="Why_-_Helps_to_find_your_obsession" data-name="Why - Helps to find your obsession" transform="translate(87 546)" fill="#fff" font-size="12" font-family="ArialMT, Arial"><tspan x="0" y="11">Why - Helps to find your </tspan><tspan x="0" y="27">obsession</tspan></text>
      </g>
    </g>
    <g id="Group_3589" data-name="Group 3589" transform="translate(-6 -87)">
      <rect id="Rectangle_1841-2" data-name="Rectangle 1841" width="169" height="224" rx="15" transform="translate(27 478)" fill="url(#linear-gradient)"/>
      <g id="Group_3368-2" data-name="Group 3368" transform="translate(7 -67)">
        <circle id="Ellipse_616-2" data-name="Ellipse 616" cx="23.5" cy="23.5" r="23.5" transform="translate(32 566)" fill="#edf4fd"/>
        <g id="_017-confusion" data-name="017-confusion" transform="translate(42 573)">
          <g id="Group_3228" data-name="Group 3228" transform="translate(0 0)">
            <path id="Path_6415" data-name="Path 6415" d="M145.2,255.147a.617.617,0,1,0,.617.617.617.617,0,0,0-.617-.617Z" transform="translate(-139.736 -239.403)" fill="#1e64cc"/>
            <path id="Path_6416" data-name="Path 6416" d="M89.443,5.478a5.363,5.363,0,0,0-1.666-3.913A5.7,5.7,0,0,0,83.812,0a5.759,5.759,0,0,0-5.621,4.463,10.6,10.6,0,0,0-6.918,3.124,10.381,10.381,0,0,0-3.059,7.361A7.06,7.06,0,0,1,66.687,18.1a2.435,2.435,0,0,0-.5,2.623c.278.541.965,1.175,2.649,1.3v2.7a3.33,3.33,0,0,0,3.341,3.312c1.611,0,2.5.06,2.875.386s.487,1.126.583,2.6a.617.617,0,0,0,.616.577H85.1a.617.617,0,0,0,.616-.657c-.078-1.193-.111-2.073-.105-2.851A.617.617,0,0,0,85,27.463h0a.617.617,0,0,0-.617.613c0,.657.017,1.378.068,2.282H76.828c-.107-1.343-.289-2.289-.966-2.874-.741-.64-1.886-.687-3.682-.687a2.1,2.1,0,0,1-2.107-2.078v-.827a3.347,3.347,0,0,1,1.543.534.617.617,0,1,0,.617-1.069,4.459,4.459,0,0,0-2.16-.7V21.425a.617.617,0,0,0-.617-.617c-1.148,0-1.959-.243-2.168-.651-.148-.289,0-.777.4-1.34.8-1.117,1.757-2.695,1.757-3.869a9.363,9.363,0,0,1,8.57-9.235c0,.085-.005.17-.005.255a1.851,1.851,0,0,0,3.695.16,9.467,9.467,0,0,1,3.059,1.659c-.235.349-.482.682-.7.982l-.179.243a7.438,7.438,0,0,0-1.921,5.18,1.851,1.851,0,0,0,3.7,0,4.32,4.32,0,0,1,1.2-2.994l.063-.086.261-.355a9.115,9.115,0,0,1-.353,9.008,18.67,18.67,0,0,0-1.387,2.649.617.617,0,1,0,1.139.475,17.454,17.454,0,0,1,1.3-2.474,10.355,10.355,0,0,0,.09-10.784,7.613,7.613,0,0,0,1.47-4.153Zm-7.507-.571a2.014,2.014,0,0,1,1.877-1.2A1.8,1.8,0,0,1,85.74,5.478,2.956,2.956,0,0,1,85.4,6.713,10.7,10.7,0,0,0,81.935,4.906Zm3.933,5.561a5.458,5.458,0,0,0-1.439,3.725.617.617,0,1,1-1.234,0,6.229,6.229,0,0,1,1.682-4.45l.176-.239c.811-1.094,1.921-2.593,1.921-4.026a3.021,3.021,0,0,0-3.162-3.009,3.344,3.344,0,0,0-3.332,3.5.617.617,0,0,1-1.234,0,4.6,4.6,0,0,1,4.566-4.734,4.276,4.276,0,0,1,4.4,4.244c0,1.806-1.158,3.381-2.277,4.9Z" transform="translate(-65.994 0)" fill="#1e64cc"/>
            <path id="Path_6417" data-name="Path 6417" d="M328.457,271.852a1.851,1.851,0,1,0-1.851,1.851A1.853,1.853,0,0,0,328.457,271.852Zm-1.851.617a.617.617,0,1,1,.617-.617A.618.618,0,0,1,326.606,272.469Z" transform="translate(-308.788 -253.341)" fill="#1e64cc"/>
            <path id="Path_6418" data-name="Path 6418" d="M368.3,401.473a.617.617,0,0,0,0-1.234h0a.617.617,0,0,0,0,1.234Z" transform="translate(-349.067 -375.542)" fill="#1e64cc"/>
          </g>
        </g>
        <path id="Path_6423" data-name="Path 6423" d="M55.835,578.614a3.589,3.589,0,0,1,3.639-4.011,3.8,3.8,0,0,1,3.916,5.49c-1.109,1.656-3.771,4.219-3.52,6.964" transform="translate(0 0.255)" fill="none" stroke="#ff7600" stroke-linecap="round" stroke-width="2"/>
      </g>
      <g id="Group_3369-2" data-name="Group 3369" transform="translate(-48 110)">
        <text id="Mental_compulsion" data-name="Mental compulsion" transform="translate(87 445)" fill="#fff" font-size="14" font-family="Arial-BoldMT, Arial" font-weight="700"><tspan x="0" y="13">Mental compulsion</tspan></text>
        <text id="Exercise_Type_-_Checklist-2" data-name="Exercise Type - Checklist" transform="translate(87 506)" fill="#fff" font-size="12" font-family="ArialMT, Arial"><tspan x="0" y="11">Exercise Type - Checklist</tspan></text>
        <text id="Why_-_Helps_to_find_your_obsession-2" data-name="Why - Helps to find your obsession" transform="translate(87 546)" fill="#fff" font-size="12" font-family="ArialMT, Arial"><tspan x="0" y="11">Why - Helps to find your </tspan><tspan x="0" y="27">obsession</tspan></text>
      </g>
    </g>
    <g id="Group_3588" data-name="Group 3588" transform="translate(193 -329)">
      <rect id="Rectangle_1841-3" data-name="Rectangle 1841" width="169" height="224" rx="15" transform="translate(27 478)" fill="url(#linear-gradient)"/>
      <g id="Group_3369-3" data-name="Group 3369" transform="translate(-48 110)">
        <text id="Compulsion" transform="translate(87 445)" fill="#fff" font-size="14" font-family="Arial-BoldMT, Arial" font-weight="700"><tspan x="0" y="13">Compulsion</tspan></text>
        <text id="Exercise_Type_-_Checklist-3" data-name="Exercise Type - Checklist" transform="translate(87 506)" fill="#fff" font-size="12" font-family="ArialMT, Arial"><tspan x="0" y="11">Exercise Type - Checklist</tspan></text>
        <text id="Why_-_Helps_to_find_your_obsession-3" data-name="Why - Helps to find your obsession" transform="translate(87 546)" fill="#fff" font-size="12" font-family="ArialMT, Arial"><tspan x="0" y="11">Why - Helps to find your </tspan><tspan x="0" y="27">obsession</tspan></text>
      </g>
      <g id="Group_3590" data-name="Group 3590" transform="translate(9 120)">
        <circle id="Ellipse_613" data-name="Ellipse 613" cx="23.5" cy="23.5" r="23.5" transform="translate(30 379)" fill="#edf4fd"/>
        <g id="_001-obsession-2" data-name="001-obsession" transform="translate(39 387)">
          <path id="Path_6412-2" data-name="Path 6412" d="M105.2,255.148a.617.617,0,1,0,.617.617.617.617,0,0,0-.617-.617Z" transform="translate(-99.735 -239.404)" fill="#1e64cc"/>
          <path id="Path_6413-2" data-name="Path 6413" d="M54.378,8.022a8.021,8.021,0,0,0-15.2-3.572c-.117,0-.234-.006-.349-.006a10.6,10.6,0,0,0-7.495,3.083,10.377,10.377,0,0,0-3.12,7.422A7.06,7.06,0,0,1,26.686,18.1a2.435,2.435,0,0,0-.5,2.623c.278.541.965,1.175,2.649,1.3v2.7a3.33,3.33,0,0,0,3.341,3.312c1.611,0,2.5.06,2.875.386s.487,1.126.583,2.6a.617.617,0,0,0,.616.577H45.1a.617.617,0,0,0,.616-.657c-.078-1.193-.111-2.073-.105-2.851A.617.617,0,0,0,45,27.463h0a.617.617,0,0,0-.617.613c0,.657.017,1.378.068,2.282H36.827c-.107-1.343-.289-2.289-.966-2.874-.741-.64-1.885-.687-3.682-.687a2.1,2.1,0,0,1-2.107-2.078v-.827a3.5,3.5,0,0,1,1.543.534.617.617,0,1,0,.617-1.069,4.761,4.761,0,0,0-2.16-.7V21.425a.617.617,0,0,0-.617-.617c-1.148,0-1.959-.243-2.168-.651-.148-.289,0-.777.4-1.34.8-1.117,1.757-2.695,1.757-3.869a9.335,9.335,0,0,1,9.238-9.27,8.012,8.012,0,0,0,1.583,7.559L40,13.507l-1.406-.352a.617.617,0,0,0-.586.162L35.825,15.5a.617.617,0,0,0,.287,1.035l1.386.347.347,1.386a.617.617,0,0,0,1.035.287l2.182-2.182a.617.617,0,0,0,.162-.586l-.352-1.406.269-.269a8.018,8.018,0,0,0,7.022,1.728,9.147,9.147,0,0,1-1.33,3.926,18.659,18.659,0,0,0-1.387,2.649.617.617,0,1,0,1.139.475,17.454,17.454,0,0,1,1.3-2.474,10.375,10.375,0,0,0,1.548-4.983A8.034,8.034,0,0,0,54.378,8.022Zm-15.6,8.888-.172-.688a.617.617,0,0,0-.449-.449l-.688-.172,1.164-1.164,1.047.262.262,1.047Zm7.58-2.1a6.756,6.756,0,0,1-4.341-1.574l.877-.877a5.559,5.559,0,1,0-.873-.873l-.877.877a6.785,6.785,0,1,1,5.214,2.446ZM42.037,8.022a4.324,4.324,0,1,1,1.734,3.458l.885-.885a3.089,3.089,0,1,0-.873-.873l-.885.885A4.3,4.3,0,0,1,42.037,8.022Zm2.468,0a1.852,1.852,0,1,1,1.054,1.67l1.234-1.234a.617.617,0,0,0-.873-.873L44.686,8.819A1.84,1.84,0,0,1,44.505,8.022Z" transform="translate(-25.993)" fill="#1e64cc"/>
          <g id="Ellipse_614-2" data-name="Ellipse 614" transform="translate(13.803 0.877)" fill="none" stroke="#fe7614" stroke-width="1">
            <circle cx="7" cy="7" r="7" stroke="none"/>
            <circle cx="7" cy="7" r="6.5" fill="none"/>
          </g>
          <path id="Path_6414-2" data-name="Path 6414" d="M328.291,400.239h0a.617.617,0,1,0,.617.617A.617.617,0,0,0,328.291,400.239Z" transform="translate(-309.059 -375.543)" fill="#1e64cc"/>
        </g>
      </g>
    </g>
  </g>
</svg>
