<svg xmlns="http://www.w3.org/2000/svg" xmlns:xlink="http://www.w3.org/1999/xlink" width="412" height="893" viewBox="0 0 412 893">
  <defs>
    <clipPath id="clip-path">
      <rect width="360" height="603" fill="none"/>
    </clipPath>
    <clipPath id="clip-path-2">
      <rect width="360" height="673" fill="none"/>
    </clipPath>
    <clipPath id="clip-Intro_25">
      <rect width="412" height="893"/>
    </clipPath>
  </defs>
  <g id="Intro_25" data-name="Intro – 25" clip-path="url(#clip-Intro_25)">
    <rect width="412" height="893" fill="#e9eff4"/>
    <g id="Group_3217" data-name="Group 3217" transform="translate(0 89)">
      <rect id="Rectangle_1727" data-name="Rectangle 1727" width="390" height="759" rx="10" transform="translate(11 19)" fill="#fff"/>
      <text id="Enter_Severity_rating" data-name="Enter Severity rating" transform="translate(26 38)" fill="#1e64cc" font-size="15" font-family="Arial-BoldMT, Arial" font-weight="700"><tspan x="0" y="14">Enter Severity Rating</tspan></text>
      <g id="Scroll_Group_10" data-name="Scroll Group 10" transform="translate(26 325)" clip-path="url(#clip-path)" style="isolation: isolate">
        <g id="Repeat_Grid_14" data-name="Repeat Grid 14" clip-path="url(#clip-path-2)">
          <g id="Group_3222" data-name="Group 3222" transform="translate(-26 -156)">
            <g id="Group_3305" data-name="Group 3305">
              <rect id="Rectangle_1758" data-name="Rectangle 1758" width="360" height="74" rx="5" transform="translate(26 156)" fill="#f7fafe"/>
              <text id="Telling_someone_about_the_violent_thought_like_accidently_harming_someone_." data-name="Telling someone about the violent thought (like accidently harming someone)…." transform="translate(51 162)" fill="#2e5b9f" font-size="14" font-family="ArialMT, Arial"><tspan x="0" y="13">Telling someone about the violent </tspan><tspan x="0" y="33">thought (like accidently harming </tspan><tspan x="0" y="53">someone)….</tspan></text>
            </g>
            <g id="Group_3220" data-name="Group 3220" transform="translate(6 3)">
              <circle id="Ellipse_604" data-name="Ellipse 604" cx="14" cy="14" r="14" transform="translate(290 167)" fill="#d2dff2"/>
              <text id="_9" data-name="9" transform="translate(308 186)" fill="#1e64cc" font-size="14" font-family="ArialMT, Arial"><tspan x="-7.786" y="0">9</tspan></text>
            </g>
            <g id="Group_3221" data-name="Group 3221" transform="translate(52 3)">
              <circle id="Ellipse_604-2" data-name="Ellipse 604" cx="14" cy="14" r="14" transform="translate(290 167)" fill="#d2dff2"/>
              <text id="_8" data-name="8" transform="translate(308 186)" fill="#1e64cc" font-size="14" font-family="ArialMT, Arial"><tspan x="-7.786" y="0">8</tspan></text>
            </g>
            <text id="SUDS" transform="translate(297 215)" fill="#8eb1e5" font-size="10" font-family="ArialMT, Arial"><tspan x="0" y="0">SUDS</tspan></text>
            <text id="Avoidance" transform="translate(334 215)" fill="#8eb1e5" font-size="10" font-family="ArialMT, Arial"><tspan x="0" y="0">Avoidance</tspan></text>
            <g id="Group_3153" data-name="Group 3153" transform="translate(510.346 150) rotate(90)" opacity="0.4" style="isolation: isolate">
              <circle id="Ellipse_586" data-name="Ellipse 586" cx="1.5" cy="1.5" r="1.5" transform="translate(34 469.345)" fill="#1e64cc"/>
              <circle id="Ellipse_591" data-name="Ellipse 591" cx="1.5" cy="1.5" r="1.5" transform="translate(34 474.345)" fill="#1e64cc"/>
              <circle id="Ellipse_587" data-name="Ellipse 587" cx="1.5" cy="1.5" r="1.5" transform="translate(39 469.345)" fill="#1e64cc"/>
              <circle id="Ellipse_590" data-name="Ellipse 590" cx="1.5" cy="1.5" r="1.5" transform="translate(39 474.345)" fill="#1e64cc"/>
              <circle id="Ellipse_588" data-name="Ellipse 588" cx="1.5" cy="1.5" r="1.5" transform="translate(44 469.345)" fill="#1e64cc"/>
              <circle id="Ellipse_589" data-name="Ellipse 589" cx="1.5" cy="1.5" r="1.5" transform="translate(44 474.345)" fill="#1e64cc"/>
            </g>
          </g>
          <g id="Group_3222-2" data-name="Group 3222" transform="translate(-26 -71)">
            <g id="Group_3305-2" data-name="Group 3305">
              <rect id="Rectangle_1758-2" data-name="Rectangle 1758" width="360" height="74" rx="5" transform="translate(26 156)" fill="#f7fafe"/>
              <text id="Telling_someone_about_the_violent_thought_like_accidently_harming_someone_" data-name="Telling someone about the violent thought (like accidently harming someone)" transform="translate(51 162)" fill="#2e5b9f" font-size="14" font-family="ArialMT, Arial"><tspan x="0" y="13">Telling someone about the violent </tspan><tspan x="0" y="33">thought (like accidently harming </tspan><tspan x="0" y="53">someone)</tspan></text>
            </g>
            <g id="Group_3220-2" data-name="Group 3220" transform="translate(6 3)">
              <circle id="Ellipse_604-3" data-name="Ellipse 604" cx="14" cy="14" r="14" transform="translate(290 167)" fill="#d2dff2"/>
              <text id="_9-2" data-name="9" transform="translate(308 186)" fill="#1e64cc" font-size="14" font-family="ArialMT, Arial"><tspan x="-7.786" y="0">9</tspan></text>
            </g>
            <g id="Group_3221-2" data-name="Group 3221" transform="translate(52 3)">
              <circle id="Ellipse_604-4" data-name="Ellipse 604" cx="14" cy="14" r="14" transform="translate(290 167)" fill="#d2dff2"/>
              <text id="_8-2" data-name="8" transform="translate(308 186)" fill="#1e64cc" font-size="14" font-family="ArialMT, Arial"><tspan x="-7.786" y="0">8</tspan></text>
            </g>
            <text id="SUDS-2" data-name="SUDS" transform="translate(297 215)" fill="#8eb1e5" font-size="10" font-family="ArialMT, Arial"><tspan x="0" y="0">SUDS</tspan></text>
            <text id="Avoidance-2" data-name="Avoidance" transform="translate(334 215)" fill="#8eb1e5" font-size="10" font-family="ArialMT, Arial"><tspan x="0" y="0">Avoidance</tspan></text>
            <g id="Group_3153-2" data-name="Group 3153" transform="translate(510.346 150) rotate(90)" opacity="0.4" style="isolation: isolate">
              <circle id="Ellipse_586-2" data-name="Ellipse 586" cx="1.5" cy="1.5" r="1.5" transform="translate(34 469.345)" fill="#1e64cc"/>
              <circle id="Ellipse_591-2" data-name="Ellipse 591" cx="1.5" cy="1.5" r="1.5" transform="translate(34 474.345)" fill="#1e64cc"/>
              <circle id="Ellipse_587-2" data-name="Ellipse 587" cx="1.5" cy="1.5" r="1.5" transform="translate(39 469.345)" fill="#1e64cc"/>
              <circle id="Ellipse_590-2" data-name="Ellipse 590" cx="1.5" cy="1.5" r="1.5" transform="translate(39 474.345)" fill="#1e64cc"/>
              <circle id="Ellipse_588-2" data-name="Ellipse 588" cx="1.5" cy="1.5" r="1.5" transform="translate(44 469.345)" fill="#1e64cc"/>
              <circle id="Ellipse_589-2" data-name="Ellipse 589" cx="1.5" cy="1.5" r="1.5" transform="translate(44 474.345)" fill="#1e64cc"/>
            </g>
          </g>
          <g id="Group_3222-3" data-name="Group 3222" transform="translate(-26 14)">
            <g id="Group_3305-3" data-name="Group 3305">
              <rect id="Rectangle_1758-3" data-name="Rectangle 1758" width="360" height="74" rx="5" transform="translate(26 156)" fill="#f7fafe"/>
              <text id="Telling_someone_about_the_violent_thought_like_accidently_harming_someone_2" data-name="Telling someone about the violent thought (like accidently harming someone)" transform="translate(51 162)" fill="#2e5b9f" font-size="14" font-family="ArialMT, Arial"><tspan x="0" y="13">Telling someone about the violent </tspan><tspan x="0" y="33">thought (like accidently harming </tspan><tspan x="0" y="53">someone)</tspan></text>
            </g>
            <g id="Group_3220-3" data-name="Group 3220" transform="translate(6 3)">
              <circle id="Ellipse_604-5" data-name="Ellipse 604" cx="14" cy="14" r="14" transform="translate(290 167)" fill="#d2dff2"/>
              <text id="_9-3" data-name="9" transform="translate(308 186)" fill="#1e64cc" font-size="14" font-family="ArialMT, Arial"><tspan x="-7.786" y="0">9</tspan></text>
            </g>
            <g id="Group_3221-3" data-name="Group 3221" transform="translate(52 3)">
              <circle id="Ellipse_604-6" data-name="Ellipse 604" cx="14" cy="14" r="14" transform="translate(290 167)" fill="#d2dff2"/>
              <text id="_8-3" data-name="8" transform="translate(308 186)" fill="#1e64cc" font-size="14" font-family="ArialMT, Arial"><tspan x="-7.786" y="0">8</tspan></text>
            </g>
            <text id="SUDS-3" data-name="SUDS" transform="translate(297 215)" fill="#8eb1e5" font-size="10" font-family="ArialMT, Arial"><tspan x="0" y="0">SUDS</tspan></text>
            <text id="Avoidance-3" data-name="Avoidance" transform="translate(334 215)" fill="#8eb1e5" font-size="10" font-family="ArialMT, Arial"><tspan x="0" y="0">Avoidance</tspan></text>
            <g id="Group_3153-3" data-name="Group 3153" transform="translate(510.346 150) rotate(90)" opacity="0.4" style="isolation: isolate">
              <circle id="Ellipse_586-3" data-name="Ellipse 586" cx="1.5" cy="1.5" r="1.5" transform="translate(34 469.345)" fill="#1e64cc"/>
              <circle id="Ellipse_591-3" data-name="Ellipse 591" cx="1.5" cy="1.5" r="1.5" transform="translate(34 474.345)" fill="#1e64cc"/>
              <circle id="Ellipse_587-3" data-name="Ellipse 587" cx="1.5" cy="1.5" r="1.5" transform="translate(39 469.345)" fill="#1e64cc"/>
              <circle id="Ellipse_590-3" data-name="Ellipse 590" cx="1.5" cy="1.5" r="1.5" transform="translate(39 474.345)" fill="#1e64cc"/>
              <circle id="Ellipse_588-3" data-name="Ellipse 588" cx="1.5" cy="1.5" r="1.5" transform="translate(44 469.345)" fill="#1e64cc"/>
              <circle id="Ellipse_589-3" data-name="Ellipse 589" cx="1.5" cy="1.5" r="1.5" transform="translate(44 474.345)" fill="#1e64cc"/>
            </g>
          </g>
          <g id="Group_3222-4" data-name="Group 3222" transform="translate(-26 99)">
            <g id="Group_3305-4" data-name="Group 3305">
              <rect id="Rectangle_1758-4" data-name="Rectangle 1758" width="360" height="74" rx="5" transform="translate(26 156)" fill="#f7fafe"/>
              <text id="Telling_someone_about_the_violent_thought_like_accidently_harming_someone_3" data-name="Telling someone about the violent thought (like accidently harming someone)" transform="translate(51 162)" fill="#2e5b9f" font-size="14" font-family="ArialMT, Arial"><tspan x="0" y="13">Telling someone about the violent </tspan><tspan x="0" y="33">thought (like accidently harming </tspan><tspan x="0" y="53">someone)</tspan></text>
            </g>
            <g id="Group_3220-4" data-name="Group 3220" transform="translate(6 3)">
              <circle id="Ellipse_604-7" data-name="Ellipse 604" cx="14" cy="14" r="14" transform="translate(290 167)" fill="#d2dff2"/>
              <text id="_9-4" data-name="9" transform="translate(308 186)" fill="#1e64cc" font-size="14" font-family="ArialMT, Arial"><tspan x="-7.786" y="0">9</tspan></text>
            </g>
            <g id="Group_3221-4" data-name="Group 3221" transform="translate(52 3)">
              <circle id="Ellipse_604-8" data-name="Ellipse 604" cx="14" cy="14" r="14" transform="translate(290 167)" fill="#d2dff2"/>
              <text id="_8-4" data-name="8" transform="translate(308 186)" fill="#1e64cc" font-size="14" font-family="ArialMT, Arial"><tspan x="-7.786" y="0">8</tspan></text>
            </g>
            <text id="SUDS-4" data-name="SUDS" transform="translate(297 215)" fill="#8eb1e5" font-size="10" font-family="ArialMT, Arial"><tspan x="0" y="0">SUDS</tspan></text>
            <text id="Avoidance-4" data-name="Avoidance" transform="translate(334 215)" fill="#8eb1e5" font-size="10" font-family="ArialMT, Arial"><tspan x="0" y="0">Avoidance</tspan></text>
            <g id="Group_3153-4" data-name="Group 3153" transform="translate(510.346 150) rotate(90)" opacity="0.4" style="isolation: isolate">
              <circle id="Ellipse_586-4" data-name="Ellipse 586" cx="1.5" cy="1.5" r="1.5" transform="translate(34 469.345)" fill="#1e64cc"/>
              <circle id="Ellipse_591-4" data-name="Ellipse 591" cx="1.5" cy="1.5" r="1.5" transform="translate(34 474.345)" fill="#1e64cc"/>
              <circle id="Ellipse_587-4" data-name="Ellipse 587" cx="1.5" cy="1.5" r="1.5" transform="translate(39 469.345)" fill="#1e64cc"/>
              <circle id="Ellipse_590-4" data-name="Ellipse 590" cx="1.5" cy="1.5" r="1.5" transform="translate(39 474.345)" fill="#1e64cc"/>
              <circle id="Ellipse_588-4" data-name="Ellipse 588" cx="1.5" cy="1.5" r="1.5" transform="translate(44 469.345)" fill="#1e64cc"/>
              <circle id="Ellipse_589-4" data-name="Ellipse 589" cx="1.5" cy="1.5" r="1.5" transform="translate(44 474.345)" fill="#1e64cc"/>
            </g>
          </g>
          <g id="Group_3222-5" data-name="Group 3222" transform="translate(-26 184)">
            <g id="Group_3305-5" data-name="Group 3305">
              <rect id="Rectangle_1758-5" data-name="Rectangle 1758" width="360" height="74" rx="5" transform="translate(26 156)" fill="#f7fafe"/>
              <text id="Telling_someone_about_the_violent_thought_like_accidently_harming_someone_4" data-name="Telling someone about the violent thought (like accidently harming someone)" transform="translate(51 162)" fill="#2e5b9f" font-size="14" font-family="ArialMT, Arial"><tspan x="0" y="13">Telling someone about the violent </tspan><tspan x="0" y="33">thought (like accidently harming </tspan><tspan x="0" y="53">someone)</tspan></text>
            </g>
            <g id="Group_3220-5" data-name="Group 3220" transform="translate(6 3)">
              <circle id="Ellipse_604-9" data-name="Ellipse 604" cx="14" cy="14" r="14" transform="translate(290 167)" fill="#d2dff2"/>
              <text id="_5" data-name="5" transform="translate(308 186)" fill="#1e64cc" font-size="14" font-family="ArialMT, Arial"><tspan x="-7.786" y="0">5</tspan></text>
            </g>
            <g id="Group_3221-5" data-name="Group 3221" transform="translate(52 3)">
              <circle id="Ellipse_604-10" data-name="Ellipse 604" cx="14" cy="14" r="14" transform="translate(290 167)" fill="#d2dff2"/>
              <text id="_8-5" data-name="8" transform="translate(308 186)" fill="#1e64cc" font-size="14" font-family="ArialMT, Arial"><tspan x="-7.786" y="0">8</tspan></text>
            </g>
            <text id="SUDS-5" data-name="SUDS" transform="translate(297 215)" fill="#8eb1e5" font-size="10" font-family="ArialMT, Arial"><tspan x="0" y="0">SUDS</tspan></text>
            <text id="Avoidance-5" data-name="Avoidance" transform="translate(334 215)" fill="#8eb1e5" font-size="10" font-family="ArialMT, Arial"><tspan x="0" y="0">Avoidance</tspan></text>
            <g id="Group_3153-5" data-name="Group 3153" transform="translate(510.346 150) rotate(90)" opacity="0.4" style="isolation: isolate">
              <circle id="Ellipse_586-5" data-name="Ellipse 586" cx="1.5" cy="1.5" r="1.5" transform="translate(34 469.345)" fill="#1e64cc"/>
              <circle id="Ellipse_591-5" data-name="Ellipse 591" cx="1.5" cy="1.5" r="1.5" transform="translate(34 474.345)" fill="#1e64cc"/>
              <circle id="Ellipse_587-5" data-name="Ellipse 587" cx="1.5" cy="1.5" r="1.5" transform="translate(39 469.345)" fill="#1e64cc"/>
              <circle id="Ellipse_590-5" data-name="Ellipse 590" cx="1.5" cy="1.5" r="1.5" transform="translate(39 474.345)" fill="#1e64cc"/>
              <circle id="Ellipse_588-5" data-name="Ellipse 588" cx="1.5" cy="1.5" r="1.5" transform="translate(44 469.345)" fill="#1e64cc"/>
              <circle id="Ellipse_589-5" data-name="Ellipse 589" cx="1.5" cy="1.5" r="1.5" transform="translate(44 474.345)" fill="#1e64cc"/>
            </g>
          </g>
          <g id="Group_3222-6" data-name="Group 3222" transform="translate(-26 269)">
            <g id="Group_3305-6" data-name="Group 3305">
              <rect id="Rectangle_1758-6" data-name="Rectangle 1758" width="360" height="74" rx="5" transform="translate(26 156)" fill="#f7fafe"/>
              <text id="Telling_someone_about_the_violent_thought_like_accidently_harming_someone_5" data-name="Telling someone about the violent thought (like accidently harming someone)" transform="translate(51 162)" fill="#2e5b9f" font-size="14" font-family="ArialMT, Arial"><tspan x="0" y="13">Telling someone about the violent </tspan><tspan x="0" y="33">thought (like accidently harming </tspan><tspan x="0" y="53">someone)</tspan></text>
            </g>
            <g id="Group_3220-6" data-name="Group 3220" transform="translate(6 3)">
              <circle id="Ellipse_604-11" data-name="Ellipse 604" cx="14" cy="14" r="14" transform="translate(290 167)" fill="#d2dff2"/>
              <text id="_5-2" data-name="5" transform="translate(308 186)" fill="#1e64cc" font-size="14" font-family="ArialMT, Arial"><tspan x="-7.786" y="0">5</tspan></text>
            </g>
            <g id="Group_3221-6" data-name="Group 3221" transform="translate(52 3)">
              <circle id="Ellipse_604-12" data-name="Ellipse 604" cx="14" cy="14" r="14" transform="translate(290 167)" fill="#d2dff2"/>
              <text id="_8-6" data-name="8" transform="translate(308 186)" fill="#1e64cc" font-size="14" font-family="ArialMT, Arial"><tspan x="-7.786" y="0">8</tspan></text>
            </g>
            <text id="SUDS-6" data-name="SUDS" transform="translate(297 215)" fill="#8eb1e5" font-size="10" font-family="ArialMT, Arial"><tspan x="0" y="0">SUDS</tspan></text>
            <text id="Avoidance-6" data-name="Avoidance" transform="translate(334 215)" fill="#8eb1e5" font-size="10" font-family="ArialMT, Arial"><tspan x="0" y="0">Avoidance</tspan></text>
            <g id="Group_3153-6" data-name="Group 3153" transform="translate(510.346 150) rotate(90)" opacity="0.4" style="isolation: isolate">
              <circle id="Ellipse_586-6" data-name="Ellipse 586" cx="1.5" cy="1.5" r="1.5" transform="translate(34 469.345)" fill="#1e64cc"/>
              <circle id="Ellipse_591-6" data-name="Ellipse 591" cx="1.5" cy="1.5" r="1.5" transform="translate(34 474.345)" fill="#1e64cc"/>
              <circle id="Ellipse_587-6" data-name="Ellipse 587" cx="1.5" cy="1.5" r="1.5" transform="translate(39 469.345)" fill="#1e64cc"/>
              <circle id="Ellipse_590-6" data-name="Ellipse 590" cx="1.5" cy="1.5" r="1.5" transform="translate(39 474.345)" fill="#1e64cc"/>
              <circle id="Ellipse_588-6" data-name="Ellipse 588" cx="1.5" cy="1.5" r="1.5" transform="translate(44 469.345)" fill="#1e64cc"/>
              <circle id="Ellipse_589-6" data-name="Ellipse 589" cx="1.5" cy="1.5" r="1.5" transform="translate(44 474.345)" fill="#1e64cc"/>
            </g>
          </g>
          <g id="Group_3222-7" data-name="Group 3222" transform="translate(-26 354)">
            <g id="Group_3305-7" data-name="Group 3305">
              <rect id="Rectangle_1758-7" data-name="Rectangle 1758" width="360" height="74" rx="5" transform="translate(26 156)" fill="#f7fafe"/>
              <text id="Telling_someone_about_the_violent_thought_like_accidently_harming_someone_6" data-name="Telling someone about the violent thought (like accidently harming someone)" transform="translate(51 162)" fill="#2e5b9f" font-size="14" font-family="ArialMT, Arial"><tspan x="0" y="13">Telling someone about the violent </tspan><tspan x="0" y="33">thought (like accidently harming </tspan><tspan x="0" y="53">someone)</tspan></text>
            </g>
            <g id="Group_3220-7" data-name="Group 3220" transform="translate(6 3)">
              <circle id="Ellipse_604-13" data-name="Ellipse 604" cx="14" cy="14" r="14" transform="translate(290 167)" fill="#d2dff2"/>
              <text id="_7" data-name="7" transform="translate(308 186)" fill="#1e64cc" font-size="14" font-family="ArialMT, Arial"><tspan x="-7.786" y="0">7</tspan></text>
            </g>
            <g id="Group_3221-7" data-name="Group 3221" transform="translate(52 3)">
              <circle id="Ellipse_604-14" data-name="Ellipse 604" cx="14" cy="14" r="14" transform="translate(290 167)" fill="#d2dff2"/>
              <text id="_8-7" data-name="8" transform="translate(308 186)" fill="#1e64cc" font-size="14" font-family="ArialMT, Arial"><tspan x="-7.786" y="0">8</tspan></text>
            </g>
            <text id="SUDS-7" data-name="SUDS" transform="translate(297 215)" fill="#8eb1e5" font-size="10" font-family="ArialMT, Arial"><tspan x="0" y="0">SUDS</tspan></text>
            <text id="Avoidance-7" data-name="Avoidance" transform="translate(334 215)" fill="#8eb1e5" font-size="10" font-family="ArialMT, Arial"><tspan x="0" y="0">Avoidance</tspan></text>
            <g id="Group_3153-7" data-name="Group 3153" transform="translate(510.346 150) rotate(90)" opacity="0.4" style="isolation: isolate">
              <circle id="Ellipse_586-7" data-name="Ellipse 586" cx="1.5" cy="1.5" r="1.5" transform="translate(34 469.345)" fill="#1e64cc"/>
              <circle id="Ellipse_591-7" data-name="Ellipse 591" cx="1.5" cy="1.5" r="1.5" transform="translate(34 474.345)" fill="#1e64cc"/>
              <circle id="Ellipse_587-7" data-name="Ellipse 587" cx="1.5" cy="1.5" r="1.5" transform="translate(39 469.345)" fill="#1e64cc"/>
              <circle id="Ellipse_590-7" data-name="Ellipse 590" cx="1.5" cy="1.5" r="1.5" transform="translate(39 474.345)" fill="#1e64cc"/>
              <circle id="Ellipse_588-7" data-name="Ellipse 588" cx="1.5" cy="1.5" r="1.5" transform="translate(44 469.345)" fill="#1e64cc"/>
              <circle id="Ellipse_589-7" data-name="Ellipse 589" cx="1.5" cy="1.5" r="1.5" transform="translate(44 474.345)" fill="#1e64cc"/>
            </g>
          </g>
          <g id="Group_3222-8" data-name="Group 3222" transform="translate(-26 439)">
            <g id="Group_3305-8" data-name="Group 3305">
              <rect id="Rectangle_1758-8" data-name="Rectangle 1758" width="360" height="74" rx="5" transform="translate(26 156)" fill="#f7fafe"/>
              <text id="Telling_someone_about_the_violent_thought_like_accidently_harming_someone_7" data-name="Telling someone about the violent thought (like accidently harming someone)" transform="translate(51 162)" fill="#2e5b9f" font-size="14" font-family="ArialMT, Arial"><tspan x="0" y="13">Telling someone about the violent </tspan><tspan x="0" y="33">thought (like accidently harming </tspan><tspan x="0" y="53">someone)</tspan></text>
            </g>
            <g id="Group_3220-8" data-name="Group 3220" transform="translate(6 3)">
              <circle id="Ellipse_604-15" data-name="Ellipse 604" cx="14" cy="14" r="14" transform="translate(290 167)" fill="#d2dff2"/>
              <text id="_9-5" data-name="9" transform="translate(308 186)" fill="#1e64cc" font-size="14" font-family="ArialMT, Arial"><tspan x="-7.786" y="0">9</tspan></text>
            </g>
            <g id="Group_3221-8" data-name="Group 3221" transform="translate(52 3)">
              <circle id="Ellipse_604-16" data-name="Ellipse 604" cx="14" cy="14" r="14" transform="translate(290 167)" fill="#d2dff2"/>
              <text id="_8-8" data-name="8" transform="translate(308 186)" fill="#1e64cc" font-size="14" font-family="ArialMT, Arial"><tspan x="-7.786" y="0">8</tspan></text>
            </g>
            <text id="SUDS-8" data-name="SUDS" transform="translate(297 215)" fill="#8eb1e5" font-size="10" font-family="ArialMT, Arial"><tspan x="0" y="0">SUDS</tspan></text>
            <text id="Avoidance-8" data-name="Avoidance" transform="translate(334 215)" fill="#8eb1e5" font-size="10" font-family="ArialMT, Arial"><tspan x="0" y="0">Avoidance</tspan></text>
            <g id="Group_3153-8" data-name="Group 3153" transform="translate(510.346 150) rotate(90)" opacity="0.4" style="isolation: isolate">
              <circle id="Ellipse_586-8" data-name="Ellipse 586" cx="1.5" cy="1.5" r="1.5" transform="translate(34 469.345)" fill="#1e64cc"/>
              <circle id="Ellipse_591-8" data-name="Ellipse 591" cx="1.5" cy="1.5" r="1.5" transform="translate(34 474.345)" fill="#1e64cc"/>
              <circle id="Ellipse_587-8" data-name="Ellipse 587" cx="1.5" cy="1.5" r="1.5" transform="translate(39 469.345)" fill="#1e64cc"/>
              <circle id="Ellipse_590-8" data-name="Ellipse 590" cx="1.5" cy="1.5" r="1.5" transform="translate(39 474.345)" fill="#1e64cc"/>
              <circle id="Ellipse_588-8" data-name="Ellipse 588" cx="1.5" cy="1.5" r="1.5" transform="translate(44 469.345)" fill="#1e64cc"/>
              <circle id="Ellipse_589-8" data-name="Ellipse 589" cx="1.5" cy="1.5" r="1.5" transform="translate(44 474.345)" fill="#1e64cc"/>
            </g>
          </g>
        </g>
      </g>
      <g id="Group_3302" data-name="Group 3302" transform="translate(-7 -77)">
        <g id="Rectangle_1758-9" data-name="Rectangle 1758" transform="translate(32 156)" fill="#f7fafe" stroke="#d2dff2" stroke-width="1">
          <rect width="362" height="228" rx="5" stroke="none"/>
          <rect x="0.5" y="0.5" width="361" height="227" rx="4.5" fill="none"/>
        </g>
        <path id="Path_6405" data-name="Path 6405" d="M6861,14832.731h356.345" transform="translate(-6826 -14630.269)" fill="none" stroke="#808495" stroke-width="1" opacity="0.2"/>
        <text id="Write_any_obsessions_compulsions" data-name="Write any obsessions/compulsions" transform="translate(48 172.731)" fill="#1c1c1c" font-size="14" font-family="ArialMT, Arial" opacity="0.3"><tspan x="0" y="13">Write any obsessions/compulsions</tspan></text>
        <text id="_3" data-name="3" transform="translate(377 237)" fill="#1e64cc" font-size="14" font-family="ArialMT, Arial"><tspan x="-7.786" y="0">3</tspan></text>
        <text id="_10" data-name="10" transform="translate(380 281)" fill="#1e64cc" font-size="12" font-family="ArialMT, Arial"><tspan x="-13.348" y="0">10</tspan></text>
        <text id="_1" data-name="1" transform="translate(55 281)" fill="#1e64cc" font-size="12" font-family="ArialMT, Arial"><tspan x="-6.674" y="0">1</tspan></text>
        <text id="Subjective_Units_of_Distress_SUDS_0-10_" data-name="Subjective Units of Distress (SUDS) (0-10)" transform="translate(48 238)" fill="#1e64cc" font-size="12" font-family="ArialMT, Arial"><tspan x="0" y="0">Subjective Units of Distress (SUDS) (0-10)</tspan></text>
        <g id="Group_3216" data-name="Group 3216" transform="translate(60 275)">
          <rect id="Rectangle_1708" data-name="Rectangle 1708" width="300" height="5" rx="2.5" fill="#8eb1e5"/>
          <rect id="Rectangle_1759" data-name="Rectangle 1759" width="50" height="5" rx="2.5" fill="#1e64cc"/>
        </g>
        <g id="Ellipse_603" data-name="Ellipse 603" transform="translate(108 266)" fill="#fff" stroke="#1e64cc" stroke-width="7">
          <circle cx="11" cy="11" r="11" stroke="none"/>
          <circle cx="11" cy="11" r="7.5" fill="none"/>
        </g>
        <g id="Group_3307" data-name="Group 3307" transform="translate(14.05 245)">
          <rect id="Rectangle_1809" data-name="Rectangle 1809" width="346" height="48" rx="5" transform="translate(25.95 83)" fill="#ff9241"/>
          <text id="Add_obsession_compulsion" data-name="Add obsession/compulsion" transform="translate(61.95 97)" fill="#fff" font-size="15" font-family="ArialMT, Arial"><tspan x="43.951" y="14">Add Obsession/Compulsion</tspan></text>
        </g>
      </g>
    </g>
    <text id="Session_4_OCD_Hierarchy" data-name="Session 4
OCD Hierarchy" transform="translate(29 28)" fill="#1e64cc" font-size="16" font-family="ArialMT, Arial"><tspan x="0" y="14">Session 4</tspan><tspan font-size="24" font-family="Arial-BoldMT, Arial" font-weight="700"><tspan x="0" y="49">OCD Hierarchy</tspan></tspan></text>
    <g id="Component_120_46" data-name="Component 120 – 46" transform="translate(0 780)">
      <rect id="Rectangle_1927" data-name="Rectangle 1927" width="412" height="67" fill="#edf4fd"/>
      <g id="Group_3224" data-name="Group 3224" transform="translate(-13.471 6.262)">
        <g id="Group_3212" data-name="Group 3212" transform="translate(34.47 14.737)">
          <text id="Back" transform="translate(19.06 18)" fill="#102646" font-size="18" font-family="ArialMT, Arial"><tspan x="0" y="0">Back</tspan></text>
          <path id="Icon_ionic-ios-arrow-back" data-name="Icon ionic-ios-arrow-back" d="M14.033,14.264l6.109-6.1a1.154,1.154,0,0,0-1.634-1.629l-6.921,6.916a1.152,1.152,0,0,0-.034,1.591L18.5,22a1.154,1.154,0,1,0,1.634-1.629Z" transform="translate(-11.251 -3.193)" fill="#102646"/>
        </g>
      </g>
      <g id="Group_3096" data-name="Group 3096" transform="translate(-14 -999)">
        <text id="Submit" transform="translate(405 1038)" fill="#102646" font-size="20" font-family="ArialMT, Arial"><tspan x="-62.246" y="0">Submit</tspan></text>
      </g>
    </g>
  </g>
</svg>
