<svg xmlns="http://www.w3.org/2000/svg" xmlns:xlink="http://www.w3.org/1999/xlink" width="412" height="1109" viewBox="0 0 412 1109">
  <defs>
    <clipPath id="clip-path">
      <rect width="360" height="673" fill="none"/>
    </clipPath>
    <clipPath id="clip-Intro_29">
      <rect width="412" height="1109"/>
    </clipPath>
  </defs>
  <g id="Intro_29" data-name="Intro – 29" clip-path="url(#clip-Intro_29)">
    <rect width="412" height="1109" fill="#e9eff4"/>
    <g id="Group_3217" data-name="Group 3217" transform="translate(0 89)">
      <rect id="Rectangle_1727" data-name="Rectangle 1727" width="390" height="996" rx="10" transform="translate(11 19)" fill="#fff"/>
      <text id="Enter_Severity_rating" data-name="Enter Severity rating" transform="translate(26 38)" fill="#1e64cc" font-size="15" font-family="Arial-BoldMT, Arial" font-weight="700"><tspan x="0" y="14">Enter Severity Rating</tspan></text>
      <g id="Repeat_Grid_14" data-name="Repeat Grid 14" transform="translate(26 151)" clip-path="url(#clip-path)">
        <g id="Group_3222" data-name="Group 3222" transform="translate(-26 -156)">
          <g id="Group_3305" data-name="Group 3305">
            <rect id="Rectangle_1758" data-name="Rectangle 1758" width="360" height="74" rx="5" transform="translate(26 156)" fill="#f7fafe"/>
            <text id="Telling_someone_about_the_violent_thought_like_accidently_harming_someone_." data-name="Telling someone about the violent thought (like accidently harming someone)…." transform="translate(51 162)" fill="#2e5b9f" font-size="14" font-family="ArialMT, Arial"><tspan x="0" y="13">Telling someone about the violent </tspan><tspan x="0" y="33">thought (like accidently harming </tspan><tspan x="0" y="53">someone)….</tspan></text>
          </g>
          <g id="Group_3153" data-name="Group 3153" transform="translate(510.346 150) rotate(90)" opacity="0.4" style="isolation: isolate">
            <circle id="Ellipse_586" data-name="Ellipse 586" cx="1.5" cy="1.5" r="1.5" transform="translate(34 469.345)" fill="#1e64cc"/>
            <circle id="Ellipse_591" data-name="Ellipse 591" cx="1.5" cy="1.5" r="1.5" transform="translate(34 474.345)" fill="#1e64cc"/>
            <circle id="Ellipse_587" data-name="Ellipse 587" cx="1.5" cy="1.5" r="1.5" transform="translate(39 469.345)" fill="#1e64cc"/>
            <circle id="Ellipse_590" data-name="Ellipse 590" cx="1.5" cy="1.5" r="1.5" transform="translate(39 474.345)" fill="#1e64cc"/>
            <circle id="Ellipse_588" data-name="Ellipse 588" cx="1.5" cy="1.5" r="1.5" transform="translate(44 469.345)" fill="#1e64cc"/>
            <circle id="Ellipse_589" data-name="Ellipse 589" cx="1.5" cy="1.5" r="1.5" transform="translate(44 474.345)" fill="#1e64cc"/>
          </g>
        </g>
        <g id="Group_3222-2" data-name="Group 3222" transform="translate(-26 -71)">
          <g id="Group_3305-2" data-name="Group 3305">
            <rect id="Rectangle_1758-2" data-name="Rectangle 1758" width="360" height="74" rx="5" transform="translate(26 156)" fill="#f7fafe"/>
            <text id="Telling_someone_about_the_violent_thought_like_accidently_harming_someone_" data-name="Telling someone about the violent thought (like accidently harming someone)" transform="translate(51 162)" fill="#2e5b9f" font-size="14" font-family="ArialMT, Arial"><tspan x="0" y="13">Telling someone about the violent </tspan><tspan x="0" y="33">thought (like accidently harming </tspan><tspan x="0" y="53">someone)</tspan></text>
          </g>
          <g id="Group_3153-2" data-name="Group 3153" transform="translate(510.346 150) rotate(90)" opacity="0.4" style="isolation: isolate">
            <circle id="Ellipse_586-2" data-name="Ellipse 586" cx="1.5" cy="1.5" r="1.5" transform="translate(34 469.345)" fill="#1e64cc"/>
            <circle id="Ellipse_591-2" data-name="Ellipse 591" cx="1.5" cy="1.5" r="1.5" transform="translate(34 474.345)" fill="#1e64cc"/>
            <circle id="Ellipse_587-2" data-name="Ellipse 587" cx="1.5" cy="1.5" r="1.5" transform="translate(39 469.345)" fill="#1e64cc"/>
            <circle id="Ellipse_590-2" data-name="Ellipse 590" cx="1.5" cy="1.5" r="1.5" transform="translate(39 474.345)" fill="#1e64cc"/>
            <circle id="Ellipse_588-2" data-name="Ellipse 588" cx="1.5" cy="1.5" r="1.5" transform="translate(44 469.345)" fill="#1e64cc"/>
            <circle id="Ellipse_589-2" data-name="Ellipse 589" cx="1.5" cy="1.5" r="1.5" transform="translate(44 474.345)" fill="#1e64cc"/>
          </g>
        </g>
        <g id="Group_3222-3" data-name="Group 3222" transform="translate(-26 14)">
          <g id="Group_3305-3" data-name="Group 3305">
            <rect id="Rectangle_1758-3" data-name="Rectangle 1758" width="360" height="74" rx="5" transform="translate(26 156)" fill="#f7fafe"/>
            <text id="Telling_someone_about_the_violent_thought_like_accidently_harming_someone_2" data-name="Telling someone about the violent thought (like accidently harming someone)" transform="translate(51 162)" fill="#2e5b9f" font-size="14" font-family="ArialMT, Arial"><tspan x="0" y="13">Telling someone about the violent </tspan><tspan x="0" y="33">thought (like accidently harming </tspan><tspan x="0" y="53">someone)</tspan></text>
          </g>
          <g id="Group_3153-3" data-name="Group 3153" transform="translate(510.346 150) rotate(90)" opacity="0.4" style="isolation: isolate">
            <circle id="Ellipse_586-3" data-name="Ellipse 586" cx="1.5" cy="1.5" r="1.5" transform="translate(34 469.345)" fill="#1e64cc"/>
            <circle id="Ellipse_591-3" data-name="Ellipse 591" cx="1.5" cy="1.5" r="1.5" transform="translate(34 474.345)" fill="#1e64cc"/>
            <circle id="Ellipse_587-3" data-name="Ellipse 587" cx="1.5" cy="1.5" r="1.5" transform="translate(39 469.345)" fill="#1e64cc"/>
            <circle id="Ellipse_590-3" data-name="Ellipse 590" cx="1.5" cy="1.5" r="1.5" transform="translate(39 474.345)" fill="#1e64cc"/>
            <circle id="Ellipse_588-3" data-name="Ellipse 588" cx="1.5" cy="1.5" r="1.5" transform="translate(44 469.345)" fill="#1e64cc"/>
            <circle id="Ellipse_589-3" data-name="Ellipse 589" cx="1.5" cy="1.5" r="1.5" transform="translate(44 474.345)" fill="#1e64cc"/>
          </g>
        </g>
        <g id="Group_3222-4" data-name="Group 3222" transform="translate(-26 99)">
          <g id="Group_3305-4" data-name="Group 3305">
            <rect id="Rectangle_1758-4" data-name="Rectangle 1758" width="360" height="74" rx="5" transform="translate(26 156)" fill="#f7fafe"/>
            <text id="Telling_someone_about_the_violent_thought_like_accidently_harming_someone_3" data-name="Telling someone about the violent thought (like accidently harming someone)" transform="translate(51 162)" fill="#2e5b9f" font-size="14" font-family="ArialMT, Arial"><tspan x="0" y="13">Telling someone about the violent </tspan><tspan x="0" y="33">thought (like accidently harming </tspan><tspan x="0" y="53">someone)</tspan></text>
          </g>
          <g id="Group_3153-4" data-name="Group 3153" transform="translate(510.346 150) rotate(90)" opacity="0.4" style="isolation: isolate">
            <circle id="Ellipse_586-4" data-name="Ellipse 586" cx="1.5" cy="1.5" r="1.5" transform="translate(34 469.345)" fill="#1e64cc"/>
            <circle id="Ellipse_591-4" data-name="Ellipse 591" cx="1.5" cy="1.5" r="1.5" transform="translate(34 474.345)" fill="#1e64cc"/>
            <circle id="Ellipse_587-4" data-name="Ellipse 587" cx="1.5" cy="1.5" r="1.5" transform="translate(39 469.345)" fill="#1e64cc"/>
            <circle id="Ellipse_590-4" data-name="Ellipse 590" cx="1.5" cy="1.5" r="1.5" transform="translate(39 474.345)" fill="#1e64cc"/>
            <circle id="Ellipse_588-4" data-name="Ellipse 588" cx="1.5" cy="1.5" r="1.5" transform="translate(44 469.345)" fill="#1e64cc"/>
            <circle id="Ellipse_589-4" data-name="Ellipse 589" cx="1.5" cy="1.5" r="1.5" transform="translate(44 474.345)" fill="#1e64cc"/>
          </g>
        </g>
        <g id="Group_3222-5" data-name="Group 3222" transform="translate(-26 184)">
          <g id="Group_3305-5" data-name="Group 3305">
            <rect id="Rectangle_1758-5" data-name="Rectangle 1758" width="360" height="74" rx="5" transform="translate(26 156)" fill="#f7fafe"/>
            <text id="Telling_someone_about_the_violent_thought_like_accidently_harming_someone_4" data-name="Telling someone about the violent thought (like accidently harming someone)" transform="translate(51 162)" fill="#2e5b9f" font-size="14" font-family="ArialMT, Arial"><tspan x="0" y="13">Telling someone about the violent </tspan><tspan x="0" y="33">thought (like accidently harming </tspan><tspan x="0" y="53">someone)</tspan></text>
          </g>
          <g id="Group_3153-5" data-name="Group 3153" transform="translate(510.346 150) rotate(90)" opacity="0.4" style="isolation: isolate">
            <circle id="Ellipse_586-5" data-name="Ellipse 586" cx="1.5" cy="1.5" r="1.5" transform="translate(34 469.345)" fill="#1e64cc"/>
            <circle id="Ellipse_591-5" data-name="Ellipse 591" cx="1.5" cy="1.5" r="1.5" transform="translate(34 474.345)" fill="#1e64cc"/>
            <circle id="Ellipse_587-5" data-name="Ellipse 587" cx="1.5" cy="1.5" r="1.5" transform="translate(39 469.345)" fill="#1e64cc"/>
            <circle id="Ellipse_590-5" data-name="Ellipse 590" cx="1.5" cy="1.5" r="1.5" transform="translate(39 474.345)" fill="#1e64cc"/>
            <circle id="Ellipse_588-5" data-name="Ellipse 588" cx="1.5" cy="1.5" r="1.5" transform="translate(44 469.345)" fill="#1e64cc"/>
            <circle id="Ellipse_589-5" data-name="Ellipse 589" cx="1.5" cy="1.5" r="1.5" transform="translate(44 474.345)" fill="#1e64cc"/>
          </g>
        </g>
        <g id="Group_3222-6" data-name="Group 3222" transform="translate(-26 269)">
          <g id="Group_3305-6" data-name="Group 3305">
            <rect id="Rectangle_1758-6" data-name="Rectangle 1758" width="360" height="74" rx="5" transform="translate(26 156)" fill="#f7fafe"/>
            <text id="Telling_someone_about_the_violent_thought_like_accidently_harming_someone_5" data-name="Telling someone about the violent thought (like accidently harming someone)" transform="translate(51 162)" fill="#2e5b9f" font-size="14" font-family="ArialMT, Arial"><tspan x="0" y="13">Telling someone about the violent </tspan><tspan x="0" y="33">thought (like accidently harming </tspan><tspan x="0" y="53">someone)</tspan></text>
          </g>
          <g id="Group_3153-6" data-name="Group 3153" transform="translate(510.346 150) rotate(90)" opacity="0.4" style="isolation: isolate">
            <circle id="Ellipse_586-6" data-name="Ellipse 586" cx="1.5" cy="1.5" r="1.5" transform="translate(34 469.345)" fill="#1e64cc"/>
            <circle id="Ellipse_591-6" data-name="Ellipse 591" cx="1.5" cy="1.5" r="1.5" transform="translate(34 474.345)" fill="#1e64cc"/>
            <circle id="Ellipse_587-6" data-name="Ellipse 587" cx="1.5" cy="1.5" r="1.5" transform="translate(39 469.345)" fill="#1e64cc"/>
            <circle id="Ellipse_590-6" data-name="Ellipse 590" cx="1.5" cy="1.5" r="1.5" transform="translate(39 474.345)" fill="#1e64cc"/>
            <circle id="Ellipse_588-6" data-name="Ellipse 588" cx="1.5" cy="1.5" r="1.5" transform="translate(44 469.345)" fill="#1e64cc"/>
            <circle id="Ellipse_589-6" data-name="Ellipse 589" cx="1.5" cy="1.5" r="1.5" transform="translate(44 474.345)" fill="#1e64cc"/>
          </g>
        </g>
        <g id="Group_3222-7" data-name="Group 3222" transform="translate(-26 354)">
          <g id="Group_3305-7" data-name="Group 3305">
            <rect id="Rectangle_1758-7" data-name="Rectangle 1758" width="360" height="74" rx="5" transform="translate(26 156)" fill="#f7fafe"/>
            <text id="Telling_someone_about_the_violent_thought_like_accidently_harming_someone_6" data-name="Telling someone about the violent thought (like accidently harming someone)" transform="translate(51 162)" fill="#2e5b9f" font-size="14" font-family="ArialMT, Arial"><tspan x="0" y="13">Telling someone about the violent </tspan><tspan x="0" y="33">thought (like accidently harming </tspan><tspan x="0" y="53">someone)</tspan></text>
          </g>
          <g id="Group_3153-7" data-name="Group 3153" transform="translate(510.346 150) rotate(90)" opacity="0.4" style="isolation: isolate">
            <circle id="Ellipse_586-7" data-name="Ellipse 586" cx="1.5" cy="1.5" r="1.5" transform="translate(34 469.345)" fill="#1e64cc"/>
            <circle id="Ellipse_591-7" data-name="Ellipse 591" cx="1.5" cy="1.5" r="1.5" transform="translate(34 474.345)" fill="#1e64cc"/>
            <circle id="Ellipse_587-7" data-name="Ellipse 587" cx="1.5" cy="1.5" r="1.5" transform="translate(39 469.345)" fill="#1e64cc"/>
            <circle id="Ellipse_590-7" data-name="Ellipse 590" cx="1.5" cy="1.5" r="1.5" transform="translate(39 474.345)" fill="#1e64cc"/>
            <circle id="Ellipse_588-7" data-name="Ellipse 588" cx="1.5" cy="1.5" r="1.5" transform="translate(44 469.345)" fill="#1e64cc"/>
            <circle id="Ellipse_589-7" data-name="Ellipse 589" cx="1.5" cy="1.5" r="1.5" transform="translate(44 474.345)" fill="#1e64cc"/>
          </g>
        </g>
        <g id="Group_3222-8" data-name="Group 3222" transform="translate(-26 439)">
          <g id="Group_3305-8" data-name="Group 3305">
            <rect id="Rectangle_1758-8" data-name="Rectangle 1758" width="360" height="74" rx="5" transform="translate(26 156)" fill="#f7fafe"/>
            <text id="Telling_someone_about_the_violent_thought_like_accidently_harming_someone_7" data-name="Telling someone about the violent thought (like accidently harming someone)" transform="translate(51 162)" fill="#2e5b9f" font-size="14" font-family="ArialMT, Arial"><tspan x="0" y="13">Telling someone about the violent </tspan><tspan x="0" y="33">thought (like accidently harming </tspan><tspan x="0" y="53">someone)</tspan></text>
          </g>
          <g id="Group_3153-8" data-name="Group 3153" transform="translate(510.346 150) rotate(90)" opacity="0.4" style="isolation: isolate">
            <circle id="Ellipse_586-8" data-name="Ellipse 586" cx="1.5" cy="1.5" r="1.5" transform="translate(34 469.345)" fill="#1e64cc"/>
            <circle id="Ellipse_591-8" data-name="Ellipse 591" cx="1.5" cy="1.5" r="1.5" transform="translate(34 474.345)" fill="#1e64cc"/>
            <circle id="Ellipse_587-8" data-name="Ellipse 587" cx="1.5" cy="1.5" r="1.5" transform="translate(39 469.345)" fill="#1e64cc"/>
            <circle id="Ellipse_590-8" data-name="Ellipse 590" cx="1.5" cy="1.5" r="1.5" transform="translate(39 474.345)" fill="#1e64cc"/>
            <circle id="Ellipse_588-8" data-name="Ellipse 588" cx="1.5" cy="1.5" r="1.5" transform="translate(44 469.345)" fill="#1e64cc"/>
            <circle id="Ellipse_589-8" data-name="Ellipse 589" cx="1.5" cy="1.5" r="1.5" transform="translate(44 474.345)" fill="#1e64cc"/>
          </g>
        </g>
      </g>
      <g id="Group_3303" data-name="Group 3303">
        <rect id="Rectangle_1809" data-name="Rectangle 1809" width="360" height="48" rx="5" transform="translate(26 83)" fill="#ff9241"/>
        <text id="Write_obsession" data-name="Write obsession" transform="translate(62 97)" fill="#fff" font-size="15" font-family="ArialMT, Arial"><tspan x="88.62" y="14">Write Obsession</tspan></text>
      </g>
    </g>
    <text id="Session_4_OCD_Hierarchy_-_Obsession" data-name="Session 4
OCD Hierarchy - Obsession" transform="translate(29 28)" fill="#1e64cc" font-size="16" font-family="ArialMT, Arial"><tspan x="0" y="14">Session 4</tspan><tspan font-size="24" font-family="Arial-BoldMT, Arial" font-weight="700"><tspan x="0" y="49">OCD Hierarchy - Obsession</tspan></tspan></text>
    <g id="Component_120_47" data-name="Component 120 – 47" transform="translate(0 780)">
      <rect id="Rectangle_1927" data-name="Rectangle 1927" width="412" height="67" fill="#edf4fd"/>
      <g id="Group_3224" data-name="Group 3224" transform="translate(-13.471 6.262)">
        <g id="Group_3212" data-name="Group 3212" transform="translate(34.47 14.737)">
          <text id="Back" transform="translate(19.06 18)" fill="#102646" font-size="18" font-family="ArialMT, Arial"><tspan x="0" y="0">Back</tspan></text>
          <path id="Icon_ionic-ios-arrow-back" data-name="Icon ionic-ios-arrow-back" d="M14.033,14.264l6.109-6.1a1.154,1.154,0,0,0-1.634-1.629l-6.921,6.916a1.152,1.152,0,0,0-.034,1.591L18.5,22a1.154,1.154,0,1,0,1.634-1.629Z" transform="translate(-11.251 -3.193)" fill="#102646"/>
        </g>
      </g>
      <g id="Group_3096" data-name="Group 3096" transform="translate(-14 -999)">
        <text id="Submit" transform="translate(405 1038)" fill="#102646" font-size="20" font-family="ArialMT, Arial"><tspan x="-62.246" y="0">Submit</tspan></text>
      </g>
    </g>
  </g>
</svg>
