<svg xmlns="http://www.w3.org/2000/svg" xmlns:xlink="http://www.w3.org/1999/xlink" width="412" height="847" viewBox="0 0 412 847">
  <defs>
    <linearGradient id="linear-gradient" x1="0.5" x2="0.5" y2="1" gradientUnits="objectBoundingBox">
      <stop offset="0" stop-color="#37aadd"/>
      <stop offset="1" stop-color="#1f64cc"/>
    </linearGradient>
    <clipPath id="clip-Login_screen_1">
      <rect width="412" height="847"/>
    </clipPath>
  </defs>
  <g id="Login_screen_1" data-name="Login screen – 1" clip-path="url(#clip-Login_screen_1)">
    <rect width="412" height="847" fill="url(#linear-gradient)"/>
    <text id="zenquip" transform="translate(118 378)" fill="#fff" font-size="50" font-family="GillSans-UltraBold, Gill Sans" font-weight="700"><tspan x="-30" y="0">Zenquip</tspan></text>
    <g id="Group_1443" data-name="Group 1443" transform="translate(-127.494 454.971)">
      <g id="Group_1223" data-name="Group 1223" transform="translate(160.892 168.074)">
        <path id="Path_1555" data-name="Path 1555" d="M757.263,511.759h-477.1s-64.724-63.414-23.546-138.022,96.483-37.089,93.805-123.925,127.192-94.3,168.531-69.12,41.09,55.505,126.427,45.471S747.021,299.77,724.819,342.4a55.382,55.382,0,0,0-3.519,8.2c-.171.51-.326,1.014-.471,1.512C706.275,402.16,819.727,408.83,757.263,511.759Z" transform="translate(-363.926 -280.022)" fill="#ebf3fa"/>
      </g>
      <g id="Group_1224" data-name="Group 1224" transform="translate(208.879 371.273)">
        <path id="Path_1556" data-name="Path 1556" d="M599.026,1692.3h18.085c.969-.822-.671-2.689-2.384-2.815a10.567,10.567,0,0,0-2.76.327c-.249-3.306-1.67-18.165-7.027-17.568-6.023.668,0,6.544,1.7,10.023a82.7,82.7,0,0,1,3.2,8.015c-.489.106-1,.21-1.512.3-.8-2.451-3.768-10.7-7.546-10.215-4.435.563-2.652,3.868.491,5.83,2.306,1.443,5.138,3.494,6.483,4.485a19.223,19.223,0,0,1-3.537.283C601.124,1690.9,599.612,1691.812,599.026,1692.3Z" transform="translate(-598.126 -1672.23)" fill="#a8d29f"/>
      </g>
      <g id="Group_1225" data-name="Group 1225" transform="translate(468.857 375.514)">
        <path id="Path_1557" data-name="Path 1557" d="M2537.075,1719.455h-14.264c-.765-.648.529-2.121,1.88-2.219a8.319,8.319,0,0,1,2.177.257c.2-2.607,1.318-14.328,5.542-13.857,4.75.527,0,5.162-1.343,7.905a65.181,65.181,0,0,0-2.524,6.322c.386.084.785.166,1.193.241.629-1.933,2.973-8.436,5.951-8.057,3.5.444,2.092,3.051-.387,4.6-1.819,1.138-4.052,2.756-5.114,3.537a15.161,15.161,0,0,0,2.79.224A6.011,6.011,0,0,1,2537.075,1719.455Z" transform="translate(-2522.583 -1703.623)" fill="#a8d29f"/>
      </g>
      <g id="Group_1228" data-name="Group 1228" transform="translate(212.288 272.241)">
        <g id="Group_1226" data-name="Group 1226" transform="translate(3.16 0)">
          <path id="Path_1558" data-name="Path 1558" d="M677.445,972.87s-3.038-27.947-24.28-33.614a5.369,5.369,0,0,0-6.115,3.419c-1.975,4.457,6.382,5.527,11.318,8.03S674.374,962.6,677.445,972.87Z" transform="translate(-646.754 -939.152)" fill="#dfebfd"/>
        </g>
        <g id="Group_1227" data-name="Group 1227" transform="translate(0 16.454)">
          <path id="Path_1559" data-name="Path 1559" d="M657.4,1075.332s-15.084-16.558-26.347-14.144-7.769,7.756-4.375,7.173,9.968-3.028,16.21-.3S657.4,1075.332,657.4,1075.332Z" transform="translate(-623.364 -1060.948)" fill="#dfebfd"/>
        </g>
      </g>
      <g id="Group_1231" data-name="Group 1231" transform="translate(428.625 333.473)">
        <g id="Group_1229" data-name="Group 1229" transform="translate(0.22 0)">
          <path id="Path_1560" data-name="Path 1560" d="M2226.393,1432.582s3.618-33.289,28.92-40.038a6.4,6.4,0,0,1,7.284,4.072c2.352,5.308-7.6,6.583-13.482,9.565S2230.051,1420.348,2226.393,1432.582Z" transform="translate(-2226.393 -1392.419)" fill="#dfebfd"/>
        </g>
        <g id="Group_1230" data-name="Group 1230" transform="translate(0 19.598)">
          <path id="Path_1561" data-name="Path 1561" d="M2224.768,1554.626s17.967-19.723,31.382-16.847,9.254,9.239,5.212,8.544-11.873-3.607-19.308-.356S2224.768,1554.626,2224.768,1554.626Z" transform="translate(-2224.768 -1537.492)" fill="#dfebfd"/>
        </g>
      </g>
      <g id="Group_1232" data-name="Group 1232" transform="translate(197.456 302.793)">
        <path id="Path_1562" data-name="Path 1562" d="M559.28,1178.6s.967,15.334-1.9,15.338.154-17.164.154-17.164-13.1-8.422-18.63-8.569c0,0,6.829,15.7,4.052,15s-10.642-16.71-10.642-16.71-13.953-4.411-17.292,3.768-.16,12.868,1.891,13.659,15.647,2.293,15.076,4.013-10.087,3.406-15,1.187c0,0,3.919,14.625,11.411,14.836s10.351-4.09,14.978-3.875,7.825,1.863,5.38,2.813-10.1-.839-14.191,1.851-7.329,4.258-.627,6.519,19.151,2.905,22.274-2.078l.39-.623a2.819,2.819,0,0,1-.39.623c1.177.9,2.643,4.661,3.628,7.531.131.484.35,1.158.685,2.079h0c.131.413.235.751.306.987,1.674,6.364-.906,16.677-.906,16.677l1.42.576a24.6,24.6,0,0,0-.077-19.528,28.339,28.339,0,0,1-1.934-13.306s14.138-5.769,9.211-16.581C568.546,1187.626,564.373,1180.845,559.28,1178.6Z" transform="translate(-513.571 -1165.311)" fill="#cddff9"/>
      </g>
      <g id="Group_1233" data-name="Group 1233" transform="translate(382.427 283.376)">
        <path id="Path_1563" data-name="Path 1563" d="M1954.429,1029.89c-2.522-10.716-20.575-8-20.575-8s-12.809,18.173-16.368,18.5,7.914-17.673,7.914-17.673c-6.844-.9-24.626,6.922-24.626,6.922s.377,21.718-3.152,21.156.648-19.247.648-19.247c-6.712,1.767-13.175,9.3-13.175,9.3-8.177,12.349,8.122,22.2,8.122,22.2a35.277,35.277,0,0,1-4.974,16h0a25.614,25.614,0,0,0-2.262,4.229l1.812.061q.246-.72.539-1.388a.012.012,0,0,1,0-.008l.009-.019c.134-.275.325-.667.564-1.144v0s0,0,0,0c.59-1.063.991-1.85,1.247-2.42a.014.014,0,0,0,0-.005c1.773-3.341,4.311-7.687,5.936-8.561a3.506,3.506,0,0,1-.36-.843l.36.843c2.877,6.741,18.345,8.37,27.043,6.891s5.015-4.039.5-8.146-14.3-3.394-17.127-5.039,1.434-3.052,7.178-2.416,8.43,6.485,17.7,7.684,16.95-16.04,16.95-16.04c-6.49,1.775-17.889-2.153-18.258-4.38s16.68-1.431,19.36-2.005S1956.951,1040.606,1954.429,1029.89Z" transform="translate(-1882.8 -1021.581)" fill="#dfebfd"/>
      </g>
      <g id="Group_1338" data-name="Group 1338" transform="translate(232.391 182.762)">
        <g id="Group_1236" data-name="Group 1236" transform="translate(144.65 58.686)">
          <g id="Group_1234" data-name="Group 1234" transform="translate(0.005)">
            <path id="Path_1564" data-name="Path 1564" d="M1842.965,712.7s9.875-3.6,11.222.415-11.222-.415-11.222-.415Z" transform="translate(-1842.965 -711.211)" fill="#a0d694"/>
          </g>
          <g id="Group_1235" data-name="Group 1235" transform="translate(0 1.489)">
            <path id="Path_1565" data-name="Path 1565" d="M1850.768,728.1c-1.484,3.386-7.843-5.871-7.843-5.871S1852.251,724.716,1850.768,728.1Z" transform="translate(-1842.925 -722.232)" fill="#a0d694"/>
          </g>
        </g>
        <g id="Group_1239" data-name="Group 1239" transform="translate(116.715 26.944)">
          <g id="Group_1237" data-name="Group 1237">
            <path id="Path_1566" data-name="Path 1566" d="M1636.313,488.332s-1.318-11.674,3.4-12.08-3.4,12.08-3.4,12.08Z" transform="translate(-1636.144 -476.242)" fill="#a8d29f"/>
          </g>
          <g id="Group_1238" data-name="Group 1238" transform="translate(0.172 4.701)">
            <path id="Path_1567" data-name="Path 1567" d="M1645.852,511.46c3.288,2.5-8.439,6.975-8.439,6.975S1642.564,508.958,1645.852,511.46Z" transform="translate(-1637.413 -511.039)" fill="#a8d29f"/>
          </g>
        </g>
        <g id="Group_1242" data-name="Group 1242" transform="translate(53.479 12.514)">
          <g id="Group_1240" data-name="Group 1240">
            <path id="Path_1568" data-name="Path 1568" d="M1174.89,382.819s-9.72-9-5.99-12.819,5.99,12.819,5.99,12.819Z" transform="translate(-1168.047 -369.43)" fill="#a0d694"/>
          </g>
          <g id="Group_1241" data-name="Group 1241" transform="translate(6.136 1.219)">
            <path id="Path_1569" data-name="Path 1569" d="M1216.252,378.459c4.65-.285-2.07,12.169-2.07,12.169S1211.6,378.744,1216.252,378.459Z" transform="translate(-1213.469 -378.454)" fill="#a0d694"/>
          </g>
        </g>
        <g id="Group_1243" data-name="Group 1243" transform="translate(0 53.718)">
          <path id="Path_1570" data-name="Path 1570" d="M979.6,829.308l-176.108.59a1.051,1.051,0,0,1-.2-.2.328.328,0,0,1-.026-.042,15.613,15.613,0,0,0-3.226-2.641v0a139.785,139.785,0,0,1-15.262-12.049q-.47-.444-.932-.9c-.275-.27-.55-.544-.819-.819-10.86-11-18.34-26.137,1.569-41.385,32.781-25.108-43.22-26.905,18.534-96.413.475-.535,99.293-1.777,100.6-.353,21.708,23.6,16.445,53.4,18.714,67.526C928.866,782.562,998.848,759.256,979.6,829.308Z" transform="translate(-772.173 -674.44)" fill="#6385db"/>
        </g>
        <g id="Group_1244" data-name="Group 1244" transform="translate(2.135 159.424)">
          <path id="Path_1571" data-name="Path 1571" d="M968.567,1506.665H787.976c3.128-8.714,13.658-29.859,25.981-37.083,19.026-11.153,63.32-15.76,98.845-10.5C954.134,1465.209,967.693,1496.928,968.567,1506.665Z" transform="translate(-787.976 -1456.914)" fill="#ef873a"/>
        </g>
        <g id="Group_1248" data-name="Group 1248" transform="translate(33.967 49.914)">
          <g id="Group_1245" data-name="Group 1245" transform="translate(22.745 58.059)">
            <path id="Path_1572" data-name="Path 1572" d="M1217.366,1149.926c-20.278.313-21.363-6.814-22.256-14.448-.37-3.161-.609-8.622-.865-15.172-.108-2.743-.219-5.677-.341-8.714-.235-5.851-.686-11.867-1.09-16.553-.444-5.124-.835-8.659-.835-8.659l41.006-9.748,2.439-.576c1.1,32.1,10.744,46.427,11.792,51.872C1249.421,1139.383,1230.677,1149.721,1217.366,1149.926Z" transform="translate(-1191.979 -1076.055)" fill="#ffb27d"/>
          </g>
          <g id="Group_1246" data-name="Group 1246" transform="translate(23.58 73.208)">
            <path id="Path_1573" data-name="Path 1573" d="M1238.292,1188.19c-4.541,11.822-15.835,27.444-38.7,29.1-.108-2.743-.219-5.677-.341-8.714-.235-5.851-.686-11.867-1.09-16.554Z" transform="translate(-1198.159 -1188.19)" fill="#f4a269"/>
          </g>
          <g id="Group_1247" data-name="Group 1247">
            <path id="Path_1574" data-name="Path 1574" d="M1037.476,737.133s54.513,5.052,57.137-28.944,11.427-56.24-23.267-60.9-42.466,7.787-46.1,18.921S1023.363,734.942,1037.476,737.133Z" transform="translate(-1023.61 -646.28)" fill="#ffb27d"/>
          </g>
        </g>
        <g id="Group_1249" data-name="Group 1249" transform="translate(30.954 56.241)">
          <path id="Path_1575" data-name="Path 1575" d="M1088.147,741.479c-5.391,4.9-7.492,12.337-13.119,9.681l.013-.076c0-.026.009-.061.014-.1s.012-.071.018-.114.01-.063.014-.1a75.1,75.1,0,0,0,.751-7.968V742.8c.038-1.022.052-2.078.031-3.132-.131-6.309-1.567-12.582-7.021-11.116a21.865,21.865,0,0,1-3.381.639c-17.159,1.814-24.959-19.916-32.7-30.489-2.49-3.4-4.974-5.652-7.762-5.584-3.027.073-6.112,1.567-8.948,4.1-6.163,5.494-11.14,15.876-11.742,27.207,0,.01,0,.02,0,.029v0c-.5,9.013-7.571-12.964,1.856-28.96,2.015-3.418,88.906-3.142,90.594.94.217.523.427,1.06.63,1.605C1106.382,722.271,1099.333,731.306,1088.147,741.479Z" transform="translate(-1001.303 -693.112)" fill="#6385db"/>
        </g>
        <g id="Group_1250" data-name="Group 1250" transform="translate(30.953 47.298)">
          <path id="Path_1576" data-name="Path 1576" d="M1102.007,634.463a1.3,1.3,0,0,1-.189.659,2.24,2.24,0,0,1-.344.445c-.009.009-.017.019-.028.028a8.232,8.232,0,0,1-2.737,1.562c-.554.217-1.175.43-1.859.639l-.146.044q-.448.135-.931.268l-.22.06q-.765.2-1.609.4-1.36.315-2.919.607-.457.085-.929.171l-.343.06q-1.043.181-2.158.351-1.181.179-2.442.349h0q-.9.12-1.831.233l-.835.1q-.477.055-.962.108-.527.059-1.064.114c-1.589.168-3.247.322-4.964.461l-.351.028h-.016c-.232.019-.464.036-.7.054q-1.822.14-3.725.257l-.079,0q-.512.031-1.028.06-1.793.1-3.649.187l-.637.026c-.464.02-.93.038-1.4.055q-1.12.044-2.26.077l-.677.019c-.223.007-.448.013-.671.017q-1.818.048-3.677.076-2.454.035-4.972.036-1.537,0-3.052-.015-.464,0-.926-.01l-1.181-.016c-.216,0-.432-.006-.646-.01l-1.024-.019q-3.442-.07-6.726-.207-2.939-.122-5.724-.3c-.462-.029-.921-.058-1.378-.09-.232-.015-.464-.031-.694-.047-.378-.026-.754-.054-1.125-.082-.572-.042-1.137-.087-1.7-.133-.354-.029-.7-.058-1.053-.089q-2.06-.179-3.993-.386c-.2-.02-.4-.042-.6-.064q-2.513-.278-4.776-.6c-1.574-.225-3.054-.462-4.428-.715-.462-.085-.913-.172-1.35-.26q-.61-.122-1.185-.248-1.113-.245-2.1-.5l-.411-.109a27.874,27.874,0,0,1-3.174-1.037l-.047-.019c-.077-.03-.155-.063-.229-.095l-.026-.012c-1.824-.782-2.816-1.621-2.816-2.5a.779.779,0,0,1,.007-.117,1.7,1.7,0,0,1,.555-1.013,4.562,4.562,0,0,1,.777-.607,17.406,17.406,0,0,1,4.346-1.752q1.109-.317,2.41-.618c1.868-.432,4.021-.833,6.419-1.2q.923-.14,1.894-.274c3.136-.429,6.634-.8,10.418-1.1l1.121-.088.156-.012.907-.064.943-.066q2.2-.144,4.514-.261,1.691-.083,3.435-.15h0c2.817-.108,5.728-.181,8.712-.213l.655-.006q1.529-.015,3.084-.015h.681q2.5,0,4.948.047c3.452.057,6.8.166,10,.322l1.365.07.634.035c.509.029,1.013.058,1.515.09q1.478.09,2.907.2,2.5.184,4.846.407,2.008.19,3.88.408.757.087,1.492.179.606.077,1.2.155c1.963.263,3.786.545,5.454.85q.829.151,1.605.309c1.32.267,2.524.548,3.6.843q.6.162,1.137.328c.209.064.411.128.608.194a20,20,0,0,1,1.979.761,8.2,8.2,0,0,1,1.564.9c.049.038.1.077.144.115a2.35,2.35,0,0,1,.7.87A1.222,1.222,0,0,1,1102.007,634.463Z" transform="translate(-1001.299 -626.912)" fill="#23569e"/>
        </g>
        <g id="Group_1251" data-name="Group 1251" transform="translate(36.607 44.536)">
          <path id="Path_1577" data-name="Path 1577" d="M1058.04,622.867q-2.513-.278-4.776-.6c-1.575-.225-3.055-.462-4.428-.714-.462-.085-.913-.172-1.35-.26q-.61-.122-1.185-.248s0,0,0,0c-1.808-2.814-2.959-5.431-3.113-7.755a19.915,19.915,0,0,1,.889-6.824,15.626,15.626,0,0,1,9.538,5.873A19.957,19.957,0,0,1,1058.04,622.867Z" transform="translate(-1043.155 -606.467)" fill="#1e3d70"/>
        </g>
        <g id="Group_1252" data-name="Group 1252" transform="translate(92.914 87.972)">
          <path id="Path_1578" data-name="Path 1578" d="M1461.264,933.92s3.23-7.378,9.849-5.66,5.165,7.78,3.073,11.712-4.781,8.7-10.866,7.952S1461.264,933.92,1461.264,933.92Z" transform="translate(-1459.956 -928)" fill="#ffb27d"/>
        </g>
        <g id="Group_1253" data-name="Group 1253" transform="translate(126.358 50.429)">
          <path id="Path_1579" data-name="Path 1579" d="M1716.862,654.078c-1.045.15-2.333,1.366-4.161,2.242a11.748,11.748,0,0,1-3.172.882c-.554.217-1.175.43-1.859.639l-.146.044a21.8,21.8,0,0,1,4.367-4.83,12.46,12.46,0,0,1,8.682-2.939,2.318,2.318,0,0,1,2.029,2.244C1722.793,654.454,1719.227,653.737,1716.862,654.078Z" transform="translate(-1707.524 -650.089)" fill="#82b378"/>
        </g>
        <g id="Group_1265" data-name="Group 1265" transform="translate(29.364 20.038)">
          <g id="Group_1255" data-name="Group 1255" transform="translate(9.671 9.416)">
            <g id="Group_1254" data-name="Group 1254">
              <path id="Path_1580" data-name="Path 1580" d="M1070.86,525.983c-.68-3.286-1.4-6.366-2.119-9.212q-.223-.87-.443-1.711c-.022-.083-.044-.166-.066-.248-1.1-4.161-2.187-7.77-3.154-10.729-1.359-4.168-2.47-7.057-3.011-8.4-.121-.3-.214-.529-.274-.674-.03-.073-.052-.124-.064-.155a.32.32,0,0,1-.013-.029l-.09.039-.135.058-.251.108-.067.029-.051.022c0,.01.018.039.039.09s.06.144.106.258.1.242.164.4c.532,1.321,1.7,4.346,3.137,8.773.932,2.874,1.973,6.336,3.024,10.308q.759,2.874,1.513,6.091h0c.016.067.031.134.047.2q.525,2.266,1.032,4.693Z" transform="translate(-1061.122 -494.823)" fill="#a8d29f"/>
            </g>
          </g>
          <g id="Group_1262" data-name="Group 1262">
            <g id="Group_1256" data-name="Group 1256" transform="translate(1.922 0.631)">
              <path id="Path_1581" data-name="Path 1581" d="M1004.624,435.488c1.252,1.419,7.118,3.7,7.523,3.344s-1.132-6.461-2.384-7.88a3.427,3.427,0,0,0-5.138,4.536Z" transform="translate(-1003.766 -429.793)" fill="#f77d48"/>
            </g>
            <g id="Group_1257" data-name="Group 1257" transform="translate(9.942)">
              <path id="Path_1582" data-name="Path 1582" d="M1064.954,426.5c-1.131,1.517-2.158,7.727-1.725,8.05s6.09-2.437,7.221-3.954a3.427,3.427,0,1,0-5.5-4.1Z" transform="translate(-1063.128 -425.122)" fill="#f77d48"/>
            </g>
            <g id="Group_1258" data-name="Group 1258" transform="translate(10.389 7.871)">
              <path id="Path_1583" data-name="Path 1583" d="M1074.563,483.495c-1.826-.5-7.981.817-8.123,1.338s4.495,4.777,6.321,5.274a3.427,3.427,0,1,0,1.8-6.613Z" transform="translate(-1066.436 -483.384)" fill="#f77d48"/>
            </g>
            <g id="Group_1259" data-name="Group 1259" transform="translate(7.524 9.092)">
              <path id="Path_1584" data-name="Path 1584" d="M1052.065,499.544c-.182-1.884-3.593-7.173-4.131-7.121s-2.873,5.9-2.691,7.78a3.427,3.427,0,1,0,6.822-.66Z" transform="translate(-1045.233 -492.423)" fill="#f77d48"/>
            </g>
            <g id="Group_1260" data-name="Group 1260" transform="translate(0 8.991)">
              <path id="Path_1585" data-name="Path 1585" d="M994.557,498.494c1.676-.88,5.286-6.036,5.034-6.514s-6.545-.434-8.22.445a3.427,3.427,0,0,0,3.186,6.069Z" transform="translate(-989.536 -491.677)" fill="#f77d48"/>
            </g>
            <g id="Group_1261" data-name="Group 1261" transform="translate(8.926 8.166)">
              <path id="Path_1586" data-name="Path 1586" d="M1055.627,486.518a1.129,1.129,0,1,1,.937,1.292A1.129,1.129,0,0,1,1055.627,486.518Z" transform="translate(-1055.613 -485.567)" fill="#fff"/>
            </g>
          </g>
          <g id="Group_1263" data-name="Group 1263" transform="translate(16.559 15.92)">
            <path id="Path_1587" data-name="Path 1587" d="M1115.46,544.944c-1.862,2.29-3.872,11.9-3.218,12.429s9.649-3.4,11.512-5.685a5.345,5.345,0,0,0-8.293-6.744Z" transform="translate(-1112.116 -542.971)" fill="#a8d29f"/>
          </g>
          <g id="Group_1264" data-name="Group 1264" transform="translate(6.146 28.24)">
            <path id="Path_1588" data-name="Path 1588" d="M1040.632,634.562c1.934.943,6.21,6.679,5.941,7.231s-7.422.715-9.355-.228a3.9,3.9,0,1,1,3.415-7Z" transform="translate(-1035.028 -634.167)" fill="#a8d29f"/>
          </g>
        </g>
        <g id="Group_1266" data-name="Group 1266" transform="translate(13.581 52.73)">
          <path id="Path_1589" data-name="Path 1589" d="M896.369,672.9a27.862,27.862,0,0,1-3.174-1.037l-.047-.019c-.076-.032-.152-.064-.229-.095a.2.2,0,0,0-.026-.012,17.52,17.52,0,0,0-3.033-.922c-5.827-1.229-12.871,8.7-16.183,5.288s2.213-7.923,11.035-8.907a11.2,11.2,0,0,1,5.928.914A15.106,15.106,0,0,1,896.369,672.9Z" transform="translate(-872.706 -667.121)" fill="#a8d29f"/>
        </g>
        <g id="Group_1267" data-name="Group 1267" transform="translate(52.092 45.178)">
          <path id="Path_1590" data-name="Path 1590" d="M1166.34,627.778c-.232-.015-.464-.031-.694-.047-.378-.026-.754-.054-1.125-.082q-.857-.063-1.7-.133c-.354-.029-.7-.058-1.053-.089q-2.06-.179-3.993-.386a16.841,16.841,0,0,1,6.81-12.916,19.34,19.34,0,0,1,6.282-2.906,14.325,14.325,0,0,1,.238,2.5A22.211,22.211,0,0,1,1166.34,627.778Z" transform="translate(-1157.779 -611.22)" fill="#1e3d70"/>
        </g>
        <g id="Group_1268" data-name="Group 1268" transform="translate(99.207 41.863)">
          <path id="Path_1591" data-name="Path 1591" d="M1519.47,605.636q-.477.055-.962.108-.527.059-1.064.114c-1.589.168-3.247.322-4.964.461l-.351.028h-.016c-.232.019-.464.036-.7.054q-1.859.142-3.8.261-.512.031-1.028.06a21.015,21.015,0,0,1,4.113-13.848,25.3,25.3,0,0,1,6.749-6.2,26.107,26.107,0,0,1,1.977,7.011A40.762,40.762,0,0,1,1519.47,605.636Z" transform="translate(-1506.538 -586.678)" fill="#1e3d70"/>
        </g>
        <g id="Group_1281" data-name="Group 1281" transform="translate(87.281 20.787)">
          <g id="Group_1270" data-name="Group 1270" transform="translate(7.683 9.042)">
            <g id="Group_1269" data-name="Group 1269">
              <path id="Path_1592" data-name="Path 1592" d="M1484.961,497.843c0,.009-.016.038-.036.086s-.058.137-.1.245-.1.233-.157.385c-.512,1.267-1.636,4.171-3.014,8.423-.787,2.43-1.658,5.3-2.543,8.56q-.4,1.457-.8,3.018-.256,1.008-.513,2.057c-.7,2.865-1.387,5.956-2.031,9.245l-.637.026c.687-3.521,1.424-6.817,2.172-9.856.115-.468.232-.932.347-1.387q.413-1.623.824-3.139c.938-3.458,1.86-6.486,2.686-9.022,1.306-4,2.373-6.777,2.891-8.067.118-.293.208-.51.264-.647.031-.07.051-.118.064-.147,0-.013.009-.022.01-.026l.083.036.137.058.24.1.064.028Z" transform="translate(-1475.131 -497.597)" fill="#a8d29f"/>
            </g>
          </g>
          <g id="Group_1277" data-name="Group 1277" transform="translate(6.594)">
            <g id="Group_1271" data-name="Group 1271" transform="translate(10.247 0.606)">
              <path id="Path_1593" data-name="Path 1593" d="M1550.216,440.621c-1.2,1.363-6.834,3.554-7.223,3.211s1.087-6.2,2.289-7.566a3.29,3.29,0,1,1,4.934,4.355Z" transform="translate(-1542.929 -435.153)" fill="#f77d48"/>
            </g>
            <g id="Group_1272" data-name="Group 1272" transform="translate(2.975)">
              <path id="Path_1594" data-name="Path 1594" d="M1495.025,431.992c1.086,1.457,2.072,7.419,1.656,7.729s-5.847-2.339-6.933-3.8a3.29,3.29,0,1,1,5.277-3.933Z" transform="translate(-1489.096 -430.668)" fill="#f77d48"/>
            </g>
            <g id="Group_1273" data-name="Group 1273" transform="translate(0 7.557)">
              <path id="Path_1595" data-name="Path 1595" d="M1469.5,486.715c1.753-.478,7.663.784,7.8,1.285s-4.316,4.587-6.069,5.064a3.291,3.291,0,0,1-1.73-6.349Z" transform="translate(-1467.074 -486.609)" fill="#f77d48"/>
            </g>
            <g id="Group_1274" data-name="Group 1274" transform="translate(6.403 8.73)">
              <path id="Path_1596" data-name="Path 1596" d="M1514.488,502.126c.175-1.809,3.45-6.887,3.967-6.837s2.758,5.661,2.583,7.47a3.29,3.29,0,1,1-6.55-.633Z" transform="translate(-1514.473 -495.288)" fill="#f77d48"/>
            </g>
            <g id="Group_1275" data-name="Group 1275" transform="translate(10.537 8.633)">
              <path id="Path_1597" data-name="Path 1597" d="M1549.917,501.116c-1.609-.845-5.075-5.795-4.834-6.254s6.284-.417,7.893.428a3.29,3.29,0,0,1-3.059,5.827Z" transform="translate(-1545.071 -494.571)" fill="#f77d48"/>
            </g>
            <g id="Group_1276" data-name="Group 1276" transform="translate(9.465 7.84)">
              <path id="Path_1598" data-name="Path 1598" d="M1539.291,489.618a1.084,1.084,0,1,0-.9,1.241A1.083,1.083,0,0,0,1539.291,489.618Z" transform="translate(-1537.137 -488.705)" fill="#fff"/>
            </g>
          </g>
          <g id="Group_1278" data-name="Group 1278" transform="translate(4.681 19.794)">
            <path id="Path_1599" data-name="Path 1599" d="M1457.9,578.228c.979,1.2,2.036,6.255,1.692,6.535s-5.073-1.785-6.052-2.989a2.81,2.81,0,0,1,4.36-3.546Z" transform="translate(-1452.912 -577.191)" fill="#a8d29f"/>
          </g>
          <g id="Group_1279" data-name="Group 1279" transform="translate(0 25.062)">
            <path id="Path_1600" data-name="Path 1600" d="M1424.583,617.294c1.421,1.456,3.4,7.928,2.984,8.333s-6.837-1.73-8.258-3.186a3.685,3.685,0,0,1,5.274-5.147Z" transform="translate(-1418.261 -616.183)" fill="#a8d29f"/>
          </g>
          <g id="Group_1280" data-name="Group 1280" transform="translate(11.318 22.052)">
            <path id="Path_1601" data-name="Path 1601" d="M1506.229,594.184c-1.361.664-4.37,4.7-4.181,5.089s5.223.5,6.584-.16a2.742,2.742,0,0,0-2.4-4.928Z" transform="translate(-1502.04 -593.906)" fill="#a8d29f"/>
          </g>
        </g>
        <g id="Group_1282" data-name="Group 1282" transform="translate(117.142 46.334)">
          <path id="Path_1602" data-name="Path 1602" d="M1648.735,624.982a26.96,26.96,0,0,1-1.368,7.014q-.765.2-1.609.4-1.36.315-2.919.607-.457.085-.929.171l-.343.06q-1.043.182-2.158.351a12.8,12.8,0,0,1,2.981-10.08,14.871,14.871,0,0,1,5.361-3.724S1648.885,621.248,1648.735,624.982Z" transform="translate(-1639.303 -619.778)" fill="#1e3d70"/>
        </g>
        <g id="Group_1283" data-name="Group 1283" transform="translate(123.597 37.218)">
          <path id="Path_1603" data-name="Path 1603" d="M1698.293,561.684a30.432,30.432,0,0,0-5.645,5.887,37.134,37.134,0,0,0-3.734,6q-.862.234-1.83.458a39.033,39.033,0,0,1,1.84-7.74c1.909-5.365,5.425-10.868,11.893-13.737a4.046,4.046,0,0,1,4.954,1.824C1707.764,557.46,1701.671,559.24,1698.293,561.684Z" transform="translate(-1687.084 -552.297)" fill="#82b378"/>
        </g>
        <g id="Group_1312" data-name="Group 1312" transform="translate(103.874 54.321)">
          <g id="Group_1285" data-name="Group 1285" transform="translate(0.922 3.647)">
            <g id="Group_1284" data-name="Group 1284">
              <path id="Path_1604" data-name="Path 1604" d="M1571.957,726.016q-.007.094-.013.184c-.007.089-.016.181-.025.276h0c-.117,1.235-.362,2.941-.64,4.893-.086.6-.176,1.233-.267,1.884-.019.13-.036.258-.056.389v0c-.246,1.776-.5,3.7-.72,5.692-.02.185-.041.37-.06.555h0c-.134,1.257-.252,2.537-.344,3.826-.009.112-.016.225-.023.337h0c-.128,1.869-.2,3.747-.184,5.58,0,.113,0,.225,0,.337.019,1.363.088,2.7.22,3.983.023.228.048.455.076.678a0,0,0,0,0,0,0c.1.878.243,1.731.418,2.547q.094.451.205.888l-.224.057q-.107-.422-.2-.857s0,0,0,0c-.163-.758-.294-1.547-.4-2.357a.015.015,0,0,0,0-.007q-.059-.464-.108-.939v0c-.123-1.193-.191-2.429-.216-3.689,0,0,0,0,0,0,0-.207-.006-.414-.007-.623-.016-1.876.058-3.8.191-5.714h0c0-.054.007-.108.012-.162.106-1.515.251-3.021.413-4.488v0c0-.022,0-.044.007-.066.224-2.031.485-3.985.736-5.784.012-.083.023-.165.033-.245q.136-.96.264-1.853c.3-2.1.558-3.913.662-5.157l0-.052c0-.06.009-.122.012-.187a20.117,20.117,0,0,0-1.092-6.624v0c-.022-.068-.045-.137-.067-.205a26.913,26.913,0,0,0-2.709-5.858c-.063-.1-.125-.2-.189-.3a20.151,20.151,0,0,0-1.763-2.343,15.1,15.1,0,0,0-2.782-2.508c-.073-.051-.146-.1-.219-.147-.127-.083-.254-.163-.382-.241a10.94,10.94,0,0,0-2.795-1.213,0,0,0,0,1,0,0,10.522,10.522,0,0,0-2.276-.357q-.2-.009-.4-.013t-.363,0h-.133a11.234,11.234,0,0,0-8.292,3.3l-.351.028a11.473,11.473,0,0,1,8.862-3.562s0,0,0,0c.223,0,.452.006.684.016a10.605,10.605,0,0,1,3.012.579,11.327,11.327,0,0,1,2.394,1.163c.064.038.127.08.189.121l.006,0,.016.01s0,0,0,0c.343.226.681.475,1.014.743l0,0a16.268,16.268,0,0,1,1.983,1.917,20.226,20.226,0,0,1,1.773,2.356l.012.018s0,0,0,0a26.982,26.982,0,0,1,2.932,6.247c.039.124.079.246.117.369A19.941,19.941,0,0,1,1571.957,726.016Z" transform="translate(-1547.915 -705.897)" fill="#a0d694"/>
            </g>
          </g>
          <g id="Group_1286" data-name="Group 1286" transform="translate(17.437 36.965)">
            <path id="Path_1605" data-name="Path 1605" d="M1675.786,952.529a7.49,7.49,0,0,0-5.621,3.825S1673.275,956.779,1675.786,952.529Z" transform="translate(-1670.165 -952.529)" fill="#a0d694"/>
          </g>
          <g id="Group_1287" data-name="Group 1287" transform="translate(17.835 41.508)">
            <path id="Path_1606" data-name="Path 1606" d="M1677.939,986.153a7.49,7.49,0,0,0-4.824,4.791S1676.25,990.791,1677.939,986.153Z" transform="translate(-1673.115 -986.153)" fill="#a0d694"/>
          </g>
          <g id="Group_1288" data-name="Group 1288" transform="translate(19.574 47.337)">
            <path id="Path_1607" data-name="Path 1607" d="M1688.914,1029.3a6.283,6.283,0,0,0-2.927,4.9S1688.5,1033.425,1688.914,1029.3Z" transform="translate(-1685.987 -1029.304)" fill="#a0d694"/>
          </g>
          <g id="Group_1289" data-name="Group 1289" transform="translate(20.936 51.621)">
            <path id="Path_1608" data-name="Path 1608" d="M1697.737,1061.02a6.283,6.283,0,0,0-1.5,5.5S1698.45,1065.1,1697.737,1061.02Z" transform="translate(-1696.065 -1061.02)" fill="#a0d694"/>
          </g>
          <g id="Group_1290" data-name="Group 1290" transform="translate(23.037 54.737)">
            <path id="Path_1609" data-name="Path 1609" d="M1711.773,1084.08a6.284,6.284,0,0,0,1.382,5.534S1714.391,1087.289,1711.773,1084.08Z" transform="translate(-1711.618 -1084.08)" fill="#a0d694"/>
          </g>
          <g id="Group_1291" data-name="Group 1291" transform="translate(22.634 51.621)">
            <path id="Path_1610" data-name="Path 1610" d="M1708.635,1061.02a6.283,6.283,0,0,0,3.965,4.1S1712.507,1062.488,1708.635,1061.02Z" transform="translate(-1708.635 -1061.02)" fill="#a0d694"/>
          </g>
          <g id="Group_1292" data-name="Group 1292" transform="translate(22.501 47.337)">
            <path id="Path_1611" data-name="Path 1611" d="M1707.651,1029.3a6.283,6.283,0,0,0,3.966,4.1S1711.523,1030.772,1707.651,1029.3Z" transform="translate(-1707.651 -1029.304)" fill="#a0d694"/>
          </g>
          <g id="Group_1293" data-name="Group 1293" transform="translate(22.749 41.417)">
            <path id="Path_1612" data-name="Path 1612" d="M1709.49,985.485a6.284,6.284,0,0,0,3.242,4.693S1713.07,987.567,1709.49,985.485Z" transform="translate(-1709.49 -985.485)" fill="#a0d694"/>
          </g>
          <g id="Group_1294" data-name="Group 1294" transform="translate(23.058 36.977)">
            <path id="Path_1613" data-name="Path 1613" d="M1711.774,952.62a7.3,7.3,0,0,0,3.764,5.45S1715.931,955.038,1711.774,952.62Z" transform="translate(-1711.774 -952.62)" fill="#a0d694"/>
          </g>
          <g id="Group_1295" data-name="Group 1295" transform="translate(17.771 30.939)">
            <path id="Path_1614" data-name="Path 1614" d="M1678.834,907.93a7.489,7.489,0,0,0-6.2,2.8S1675.627,911.682,1678.834,907.93Z" transform="translate(-1672.637 -907.922)" fill="#a0d694"/>
          </g>
          <g id="Group_1296" data-name="Group 1296" transform="translate(23.96 30.959)">
            <path id="Path_1615" data-name="Path 1615" d="M1718.457,908.071a7.3,7.3,0,0,0,2.766,6.018S1722.134,911.17,1718.457,908.071Z" transform="translate(-1718.451 -908.071)" fill="#a0d694"/>
          </g>
          <g id="Group_1297" data-name="Group 1297" transform="translate(19.082 23.682)">
            <path id="Path_1616" data-name="Path 1616" d="M1688.116,854.2a7.49,7.49,0,0,0-5.771,3.593S1685.434,858.347,1688.116,854.2Z" transform="translate(-1682.344 -854.203)" fill="#a0d694"/>
          </g>
          <g id="Group_1298" data-name="Group 1298" transform="translate(24.853 23.694)">
            <path id="Path_1617" data-name="Path 1617" d="M1725.065,854.294a7.3,7.3,0,0,0,3.54,5.6S1729.12,856.878,1725.065,854.294Z" transform="translate(-1725.065 -854.294)" fill="#a0d694"/>
          </g>
          <g id="Group_1299" data-name="Group 1299" transform="translate(19.74 16.798)">
            <path id="Path_1618" data-name="Path 1618" d="M1691.168,803.247a7.49,7.49,0,0,0-3.955,5.53S1690.278,808.1,1691.168,803.247Z" transform="translate(-1687.213 -803.247)" fill="#a0d694"/>
          </g>
          <g id="Group_1300" data-name="Group 1300" transform="translate(23.699 16.81)">
            <path id="Path_1619" data-name="Path 1619" d="M1716.522,803.333a7.3,7.3,0,0,0,5.414,3.815S1721.258,804.167,1716.522,803.333Z" transform="translate(-1716.522 -803.333)" fill="#a0d694"/>
          </g>
          <g id="Group_1303" data-name="Group 1303" transform="translate(17.642 10.535)">
            <g id="Group_1301" data-name="Group 1301" transform="translate(0 0.018)">
              <path id="Path_1620" data-name="Path 1620" d="M1674.891,757.012s-3.776,3.112-3.132,7.8C1671.76,764.809,1675.243,763.1,1674.891,757.012Z" transform="translate(-1671.686 -757.012)" fill="#a0d694"/>
            </g>
            <g id="Group_1302" data-name="Group 1302" transform="translate(3.214)">
              <path id="Path_1621" data-name="Path 1621" d="M1695.479,756.911s3.057,3.658,7.617,3C1703.1,759.909,1701.41,756.527,1695.479,756.911Z" transform="translate(-1695.479 -756.881)" fill="#a0d694"/>
            </g>
          </g>
          <g id="Group_1306" data-name="Group 1306" transform="translate(13.481 5.218)">
            <g id="Group_1304" data-name="Group 1304" transform="translate(0 0.306)">
              <path id="Path_1622" data-name="Path 1622" d="M1643.469,719.784s-3.709,4.064-2.246,9.176C1641.222,728.96,1644.828,726.507,1643.469,719.784Z" transform="translate(-1640.881 -719.784)" fill="#a0d694"/>
            </g>
            <g id="Group_1305" data-name="Group 1305" transform="translate(2.599)">
              <path id="Path_1623" data-name="Path 1623" d="M1660.123,717.84s3.984,3.586,8.954,2.126C1669.077,719.966,1666.663,716.47,1660.123,717.84Z" transform="translate(-1660.123 -717.522)" fill="#a0d694"/>
            </g>
          </g>
          <g id="Group_1309" data-name="Group 1309" transform="translate(9.07 1.616)">
            <g id="Group_1307" data-name="Group 1307" transform="translate(0 2.13)">
              <path id="Path_1624" data-name="Path 1624" d="M1608.767,706.629s-1.891,5.166,1.4,9.343C1610.167,715.972,1612.574,712.334,1608.767,706.629Z" transform="translate(-1608.226 -706.629)" fill="#a0d694"/>
            </g>
            <g id="Group_1308" data-name="Group 1308" transform="translate(0.556)">
              <path id="Path_1625" data-name="Path 1625" d="M1612.343,693s5.046,1.807,9.092-1.428C1621.435,691.571,1617.875,689.251,1612.343,693Z" transform="translate(-1612.343 -690.861)" fill="#a0d694"/>
            </g>
          </g>
          <g id="Group_1311" data-name="Group 1311">
            <g id="Group_1310" data-name="Group 1310">
              <path id="Path_1626" data-name="Path 1626" d="M1542,686.11c-.232.019-.464.036-.7.054-.939-5.131,1.611-7.265,1.611-7.265A9.258,9.258,0,0,1,1542,686.11Z" transform="translate(-1541.09 -678.899)" fill="#a0d694"/>
            </g>
          </g>
        </g>
        <g id="Group_1313" data-name="Group 1313" transform="translate(110.112 42.302)">
          <path id="Path_1627" data-name="Path 1627" d="M1603.361,589.983a38.957,38.957,0,0,1-4.373,8.013,9.822,9.822,0,0,1-4.037,3.473c-4.579,1.655-5.814,2.126-5.991,2.462-.1.2-.4,2.648-.631,4.626q-.527.059-1.064.114c.376-2.942,1.309-8.167,3.469-11.989a12.157,12.157,0,0,1,1.9-2.592A13.487,13.487,0,0,1,1603.361,589.983Z" transform="translate(-1587.265 -589.931)" fill="#82b378"/>
        </g>
        <g id="Group_1314" data-name="Group 1314" transform="translate(73.855 56.442)">
          <path id="Path_1628" data-name="Path 1628" d="M1322.353,700.536l-1.181-.016-.646-.01q-.514-.009-1.024-.019c-1.3-3.861-.163-5.889-.163-5.889A7.219,7.219,0,0,1,1322.353,700.536Z" transform="translate(-1318.878 -694.602)" fill="#82b378"/>
        </g>
        <g id="Group_1315" data-name="Group 1315" transform="translate(93.564 55.343)">
          <path id="Path_1629" data-name="Path 1629" d="M1471.563,692.965l-.079,0q-.512.031-1.028.06-1.793.1-3.649.187l-.637.026c-.464.02-.93.038-1.4.055.4-1.76,1.891-5,7.344-6.832A11.88,11.88,0,0,1,1471.563,692.965Z" transform="translate(-1464.77 -686.465)" fill="#82b378"/>
        </g>
        <g id="Group_1318" data-name="Group 1318" transform="translate(88.716 55.509)">
          <g id="Group_1316" data-name="Group 1316" transform="translate(0 0.773)">
            <path id="Path_1630" data-name="Path 1630" d="M1432.615,696.544s-4.173-1.08-3.694-2.75,3.694,2.75,3.694,2.75Z" transform="translate(-1428.883 -693.417)" fill="#a0d694"/>
          </g>
          <g id="Group_1317" data-name="Group 1317" transform="translate(2.09)">
            <path id="Path_1631" data-name="Path 1631" d="M1444.714,687.789c1.289-.8,1.283,3.807,1.283,3.807S1443.426,688.588,1444.714,687.789Z" transform="translate(-1444.353 -687.696)" fill="#a0d694"/>
          </g>
        </g>
        <g id="Group_1319" data-name="Group 1319" transform="translate(67.755 54.769)">
          <path id="Path_1632" data-name="Path 1632" d="M1296.595,689.718c-.223.007-.448.013-.671.017q-1.817.048-3.677.076-2.454.035-4.972.036-1.537,0-3.052-.015-.464,0-.926-.01l-1.181-.016c-.216,0-.432-.006-.646-.01q-.514-.009-1.023-.019-3.442-.07-6.726-.207c.267-1.995,1.821-8.122,10.79-7.275C1292.113,683.014,1295.355,687.3,1296.595,689.718Z" transform="translate(-1273.722 -682.215)" fill="#1e3d70"/>
        </g>
        <g id="Group_1331" data-name="Group 1331" transform="translate(70.05 0)">
          <g id="Group_1321" data-name="Group 1321" transform="translate(5.454 9.417)">
            <g id="Group_1320" data-name="Group 1320">
              <path id="Path_1633" data-name="Path 1633" d="M1344.174,346.76c0,.01-.018.039-.038.089s-.061.144-.108.258l-.163.4c-.532,1.319-1.7,4.343-3.138,8.773-1.379,4.259-3,9.815-4.537,16.4h0c-.015.067-.031.134-.047.2v.006c-.824,3.553-1.621,7.4-2.338,11.511-.821,4.7-1.54,9.739-2.075,15.048-.216,0-.432-.006-.646-.01.532-5.3,1.248-10.333,2.066-15.032,1.229-7.06,2.691-13.37,4.128-18.722.1-.362.194-.717.292-1.069.923-3.377,1.83-6.346,2.648-8.853,1.359-4.17,2.471-7.057,3.01-8.4.123-.3.216-.531.276-.674.029-.073.051-.124.063-.155.007-.015.012-.023.013-.028l.086.038.141.06.252.109.066.028Z" transform="translate(-1331.084 -346.503)" fill="#a8d29f"/>
            </g>
          </g>
          <g id="Group_1328" data-name="Group 1328" transform="translate(7.173)">
            <g id="Group_1322" data-name="Group 1322" transform="translate(10.673 0.631)">
              <path id="Path_1634" data-name="Path 1634" d="M1430.4,287.162c-1.252,1.419-7.118,3.7-7.522,3.344s1.132-6.461,2.384-7.88a3.427,3.427,0,1,1,5.138,4.536Z" transform="translate(-1422.812 -281.468)" fill="#f99746"/>
            </g>
            <g id="Group_1323" data-name="Group 1323" transform="translate(3.098)">
              <path id="Path_1635" data-name="Path 1635" d="M1372.918,278.175c1.131,1.518,2.158,7.727,1.725,8.05s-6.09-2.436-7.221-3.954a3.427,3.427,0,1,1,5.5-4.1Z" transform="translate(-1366.744 -276.796)" fill="#f99746"/>
            </g>
            <g id="Group_1324" data-name="Group 1324" transform="translate(0 7.871)">
              <path id="Path_1636" data-name="Path 1636" d="M1346.336,335.17c1.826-.5,7.981.817,8.123,1.338s-4.495,4.777-6.321,5.275a3.427,3.427,0,0,1-1.8-6.613Z" transform="translate(-1343.809 -335.059)" fill="#f99746"/>
            </g>
            <g id="Group_1325" data-name="Group 1325" transform="translate(6.669 9.092)">
              <path id="Path_1637" data-name="Path 1637" d="M1393.19,351.219c.182-1.884,3.594-7.173,4.131-7.121s2.873,5.9,2.691,7.78a3.427,3.427,0,0,1-6.822-.659Z" transform="translate(-1393.174 -344.098)" fill="#f99746"/>
            </g>
            <g id="Group_1326" data-name="Group 1326" transform="translate(10.974 8.991)">
              <path id="Path_1638" data-name="Path 1638" d="M1430.088,350.169c-1.675-.88-5.285-6.035-5.034-6.514s6.545-.434,8.22.445a3.427,3.427,0,0,1-3.186,6.068Z" transform="translate(-1425.042 -343.352)" fill="#f99746"/>
            </g>
            <g id="Group_1327" data-name="Group 1327" transform="translate(9.858 8.166)">
              <path id="Path_1639" data-name="Path 1639" d="M1419.021,338.193a1.129,1.129,0,1,0-.937,1.292A1.129,1.129,0,0,0,1419.021,338.193Z" transform="translate(-1416.778 -337.242)" fill="#2a4e96"/>
            </g>
          </g>
          <g id="Group_1329" data-name="Group 1329" transform="translate(0 17.714)">
            <path id="Path_1640" data-name="Path 1640" d="M1298.086,408.965c1.907,1.59,5.118,9.2,4.664,9.741s-8.514-1.245-10.422-2.835a4.5,4.5,0,1,1,5.758-6.907Z" transform="translate(-1290.711 -407.922)" fill="#a8d29f"/>
          </g>
          <g id="Group_1330" data-name="Group 1330" transform="translate(10.512 28.24)">
            <path id="Path_1641" data-name="Path 1641" d="M1374.481,486.236c-1.934.943-6.209,6.678-5.941,7.231s7.422.715,9.355-.228a3.9,3.9,0,1,0-3.415-7Z" transform="translate(-1368.528 -485.841)" fill="#a8d29f"/>
          </g>
        </g>
        <g id="Group_1335" data-name="Group 1335" transform="translate(55.587 29.739)">
          <g id="Group_1332" data-name="Group 1332" transform="translate(9.049 15.244)">
            <path id="Path_1642" data-name="Path 1642" d="M1272.289,616.676s-2.533,1.664-9.1,1.329-8.353-3.858-8.831-3.38a11.7,11.7,0,0,0-.7,2.237c-.4,1.548-.915,3.68-1.388,5.71-.248,1.061-.485,2.094-.69,3a5.844,5.844,0,0,1-.949-.326c.107-.56.227-1.158.357-1.784.512-2.49,1.165-5.367,1.832-7.529a7.872,7.872,0,0,1,1.479-3.207c1.823-1.386,6.143-3.988,10.388-2.506S1272.289,616.676,1272.289,616.676Z" transform="translate(-1250.63 -609.779)" fill="#a8d29f"/>
          </g>
          <g id="Group_1333" data-name="Group 1333" transform="translate(3.172)">
            <path id="Path_1643" data-name="Path 1643" d="M1218.453,507.179c-4.76,4.639-9.629,4.973-9.787,5.817-.125.663-.23,1.349-.314,2.044-.007.054-.013.108-.019.163A51.914,51.914,0,0,0,1208,521c-.022,3.011.155,5.847.331,7.886-.378-.026-.754-.054-1.125-.082-.074-2.478-.127-6.014.009-9.688.045-1.28.116-2.575.216-3.847,0-.068.009-.136.015-.2.417-5.185,1.327-9.968,3.193-11.721,4.789-4.493,14.014-6.344,14.342-6.409S1223.212,502.543,1218.453,507.179Z" transform="translate(-1207.127 -496.935)" fill="#a8d29f"/>
          </g>
          <g id="Group_1334" data-name="Group 1334" transform="translate(0 18.1)">
            <path id="Path_1644" data-name="Path 1644" d="M1200.416,642.29s-.035.025-.1.069a10.618,10.618,0,0,1-5.348,1.668,5.241,5.241,0,0,1-1.321-.174,5.731,5.731,0,0,1-.949-.325,7.552,7.552,0,0,1-1.254-.687,7.966,7.966,0,0,1-3.225-4.3c-.141-.537-.324-1.1-.528-1.664-.239-.653-.512-1.3-.786-1.884-.694-1.483-1.4-2.572-1.659-2.381-.443.332-.86,1.859-.9,4.2a74.941,74.941,0,0,0,.853,7.736c-.354-.029-.7-.058-1.053-.089-.6-4.677-1.095-11.8,1.247-13.015a3.775,3.775,0,0,1,.449-.2,4.983,4.983,0,0,1,1.292-.3,6.487,6.487,0,0,1,.911-.025,7.554,7.554,0,0,1,.924.1,11.356,11.356,0,0,1,5.917,3.2,11.509,11.509,0,0,1,.838.929,10.668,10.668,0,0,1,1.627,2.731s.1.222.286.567a13.726,13.726,0,0,0,2.627,3.732C1200.313,642.215,1200.365,642.254,1200.416,642.29Z" transform="translate(-1183.646 -630.915)" fill="#82b378"/>
          </g>
        </g>
        <g id="Group_1336" data-name="Group 1336" transform="translate(77.914 57.32)">
          <path id="Path_1645" data-name="Path 1645" d="M1362.309,706.029c-.448.013-.9.026-1.347.036a4.872,4.872,0,0,0-1.789-1.384c-.643-.224-1.315.034-1.888,1.459a16.758,16.758,0,0,0-.882,3.854c-.656,4.811-6.269,4.3-6.269,4.3a12.478,12.478,0,0,1-.872-8.133,6.7,6.7,0,0,1,5.635-5C1359.507,700.487,1361.92,705.2,1362.309,706.029Z" transform="translate(-1348.919 -701.097)" fill="#a8d29f"/>
        </g>
        <g id="Group_1337" data-name="Group 1337" transform="translate(50.967 50.102)">
          <path id="Path_1646" data-name="Path 1646" d="M1149.475,648.75a1.379,1.379,0,0,1,2.693.6,13.089,13.089,0,0,1-2.04,2.814A13.082,13.082,0,0,1,1149.475,648.75Z" transform="translate(-1149.453 -647.67)" fill="#a8d29f"/>
        </g>
      </g>
      <g id="Group_1381" data-name="Group 1381" transform="translate(336.685 345.636)">
        <g id="Group_1344" data-name="Group 1344" transform="translate(13.563 21.646)">
          <g id="Group_1339" data-name="Group 1339">
            <path id="Path_1647" data-name="Path 1647" d="M1646.242,1647.753c1.346.546,6.156.1,6.312-.28s-2.99-4.049-4.336-4.6a2.63,2.63,0,0,0-1.975,4.875Z" transform="translate(-1644.599 -1642.685)" fill="#a8d29f"/>
          </g>
          <g id="Group_1340" data-name="Group 1340" transform="translate(12.893 6.102)">
            <path id="Path_1648" data-name="Path 1648" d="M1740.923,1689.118c-.756,1.24-1.1,6.058-.743,6.274s4.479-2.3,5.235-3.537a2.63,2.63,0,1,0-4.492-2.737Z" transform="translate(-1740.04 -1687.855)" fill="#a8d29f"/>
          </g>
          <g id="Group_1341" data-name="Group 1341" transform="translate(5.463 11.657)">
            <path id="Path_1649" data-name="Path 1649" d="M1686.868,1734.107c1.384.442,6.146-.365,6.272-.76s-3.29-3.81-4.673-4.252a2.63,2.63,0,1,0-1.6,5.011Z" transform="translate(-1685.036 -1728.971)" fill="#a8d29f"/>
          </g>
          <g id="Group_1343" data-name="Group 1343" transform="translate(7.792 4.677)">
            <g id="Group_1342" data-name="Group 1342">
              <path id="Path_1650" data-name="Path 1650" d="M1708.784,1694.086c0-.109-.537-11.014-6.507-16.644l.127-.135c6.026,5.682,6.561,16.66,6.565,16.771Z" transform="translate(-1702.277 -1677.307)" fill="#a8d29f"/>
            </g>
          </g>
        </g>
        <g id="Group_1350" data-name="Group 1350" transform="translate(36.714 23.608)">
          <g id="Group_1345" data-name="Group 1345" transform="translate(6.743)">
            <path id="Path_1651" data-name="Path 1651" d="M1870.222,1660.553a2.407,2.407,0,1,1-2.016-3.036,1.822,1.822,0,1,1,2.016,3.036Z" transform="translate(-1865.887 -1657.212)" fill="#a8d29f"/>
          </g>
          <g id="Group_1346" data-name="Group 1346" transform="translate(0 5.996)">
            <path id="Path_1652" data-name="Path 1652" d="M1819.128,1702.182a2.407,2.407,0,1,1-2.671,2.48,1.822,1.822,0,0,1,2.671-2.48Z" transform="translate(-1815.97 -1701.599)" fill="#a8d29f"/>
          </g>
          <g id="Group_1347" data-name="Group 1347" transform="translate(4.493 8.67)">
            <path id="Path_1653" data-name="Path 1653" d="M1853.6,1724.8a2.407,2.407,0,1,1-1.779-3.181,1.822,1.822,0,0,1,1.779,3.181Z" transform="translate(-1849.227 -1721.391)" fill="#a8d29f"/>
          </g>
          <g id="Group_1349" data-name="Group 1349" transform="translate(4.421 3.944)">
            <g id="Group_1348" data-name="Group 1348">
              <path id="Path_1654" data-name="Path 1654" d="M1849.027,1698.68c-.012-.075-1.16-7.552,2.115-12.2l-.1-.074c-3.3,4.692-2.149,12.219-2.137,12.295Z" transform="translate(-1848.695 -1686.405)" fill="#a8d29f"/>
            </g>
          </g>
        </g>
        <g id="Group_1360" data-name="Group 1360" transform="translate(22.057 3.338)">
          <g id="Group_1352" data-name="Group 1352" transform="translate(5.628 5.481)">
            <g id="Group_1351" data-name="Group 1351">
              <path id="Path_1655" data-name="Path 1655" d="M1757.008,1581.38l-.38-.061a115.874,115.874,0,0,0-7.49-33.438l.346-.149A116.248,116.248,0,0,1,1757.008,1581.38Z" transform="translate(-1749.138 -1547.732)" fill="#a8d29f"/>
            </g>
          </g>
          <g id="Group_1353" data-name="Group 1353" transform="translate(1.119 0.367)">
            <path id="Path_1656" data-name="Path 1656" d="M1716.256,1513.2c.729.826,4.142,2.154,4.378,1.946s-.659-3.76-1.387-4.586a1.995,1.995,0,0,0-2.991,2.64Z" transform="translate(-1715.757 -1509.882)" fill="#fff"/>
          </g>
          <g id="Group_1354" data-name="Group 1354" transform="translate(5.786)">
            <path id="Path_1657" data-name="Path 1657" d="M1751.368,1507.966c-.658.883-1.256,4.5-1,4.685s3.544-1.418,4.2-2.3a1.995,1.995,0,0,0-3.2-2.384Z" transform="translate(-1750.305 -1507.163)" fill="#fff"/>
          </g>
          <g id="Group_1355" data-name="Group 1355" transform="translate(6.046 4.581)">
            <path id="Path_1658" data-name="Path 1658" d="M1756.96,1541.136c-1.063-.29-4.645.475-4.728.779s2.616,2.78,3.679,3.07a1.994,1.994,0,0,0,1.049-3.849Z" transform="translate(-1752.23 -1541.072)" fill="#fff"/>
          </g>
          <g id="Group_1356" data-name="Group 1356" transform="translate(4.379 5.291)">
            <path id="Path_1659" data-name="Path 1659" d="M1743.867,1550.477c-.106-1.1-2.091-4.175-2.4-4.144s-1.672,3.432-1.566,4.528a1.994,1.994,0,0,0,3.97-.384Z" transform="translate(-1739.89 -1546.332)" fill="#fff"/>
          </g>
          <g id="Group_1357" data-name="Group 1357" transform="translate(0 5.233)">
            <path id="Path_1660" data-name="Path 1660" d="M1710.4,1549.865c.975-.512,3.076-3.513,2.93-3.791s-3.809-.253-4.784.259a1.995,1.995,0,0,0,1.854,3.532Z" transform="translate(-1707.475 -1545.898)" fill="#fff"/>
          </g>
          <g id="Group_1358" data-name="Group 1358" transform="translate(5.195 4.752)">
            <path id="Path_1661" data-name="Path 1661" d="M1745.939,1542.9a.657.657,0,1,1,.545.752A.657.657,0,0,1,1745.939,1542.9Z" transform="translate(-1745.931 -1542.342)" fill="#f77d48"/>
          </g>
          <g id="Group_1359" data-name="Group 1359" transform="translate(11.443 18.188)">
            <path id="Path_1662" data-name="Path 1662" d="M1794.129,1642.947c-1.084,1.333-2.254,6.924-1.873,7.234s5.616-1.976,6.7-3.308a3.11,3.11,0,1,0-4.826-3.925Z" transform="translate(-1792.183 -1641.799)" fill="#a8d29f"/>
          </g>
        </g>
        <g id="Group_1362" data-name="Group 1362" transform="translate(4.715 26.364)">
          <g id="Group_1361" data-name="Group 1361">
            <path id="Path_1663" data-name="Path 1663" d="M1579.367,1677.609a90,90,0,0,1,6.8,15.394c-.134-.038-.249-.058-.383-.1a89.44,89.44,0,0,0-6.682-15.125Z" transform="translate(-1579.099 -1677.609)" fill="#a8d29f"/>
          </g>
        </g>
        <g id="Group_1363" data-name="Group 1363" transform="translate(0.39 22.222)">
          <path id="Path_1664" data-name="Path 1664" d="M1547.686,1650.023a2.314,2.314,0,1,0,2.3-2.642,1.751,1.751,0,0,0-2.3,2.642Z" transform="translate(-1547.084 -1646.951)" fill="#fff"/>
        </g>
        <g id="Group_1364" data-name="Group 1364" transform="translate(4.754 21.288)">
          <path id="Path_1665" data-name="Path 1665" d="M1579.849,1640.933a2.314,2.314,0,1,0,3.059,1.707,1.751,1.751,0,1,0-3.059-1.707Z" transform="translate(-1579.389 -1640.035)" fill="#fff"/>
        </g>
        <g id="Group_1365" data-name="Group 1365" transform="translate(5.048 25.068)">
          <path id="Path_1666" data-name="Path 1666" d="M1585.593,1668.029a2.314,2.314,0,1,0-.47,3.471,1.751,1.751,0,1,0,.47-3.471Z" transform="translate(-1581.567 -1668.018)" fill="#fff"/>
        </g>
        <g id="Group_1366" data-name="Group 1366" transform="translate(4.069 26.196)">
          <path id="Path_1667" data-name="Path 1667" d="M1577.772,1679.7a2.314,2.314,0,1,0-3.412.792,1.751,1.751,0,1,0,3.412-.792Z" transform="translate(-1574.322 -1676.368)" fill="#fff"/>
        </g>
        <g id="Group_1367" data-name="Group 1367" transform="translate(0 26.251)">
          <path id="Path_1668" data-name="Path 1668" d="M1546.962,1680.473a2.314,2.314,0,1,0-2.021-2.861,1.751,1.751,0,1,0,2.021,2.861Z" transform="translate(-1544.2 -1676.776)" fill="#fff"/>
        </g>
        <g id="Group_1368" data-name="Group 1368" transform="translate(4.299 25.734)">
          <path id="Path_1669" data-name="Path 1669" d="M1576.026,1673.511a.577.577,0,1,1,.561.592A.577.577,0,0,1,1576.026,1673.511Z" transform="translate(-1576.026 -1672.95)" fill="#f77d48"/>
        </g>
        <g id="Group_1369" data-name="Group 1369" transform="translate(10.061 31.676)">
          <path id="Path_1670" data-name="Path 1670" d="M1619.4,1717.931c-.608.989-.9,4.839-.614,5.013s3.588-1.822,4.2-2.81a2.1,2.1,0,1,0-3.582-2.2Z" transform="translate(-1618.676 -1716.929)" fill="#a8d29f"/>
        </g>
        <g id="Group_1371" data-name="Group 1371" transform="translate(56.358 5.99)">
          <g id="Group_1370" data-name="Group 1370">
            <path id="Path_1671" data-name="Path 1671" d="M1961.384,1563.569l.415-.066a126.632,126.632,0,0,1,8.187-36.546l-.378-.163A127.06,127.06,0,0,0,1961.384,1563.569Z" transform="translate(-1961.384 -1526.794)" fill="#a8d29f"/>
          </g>
        </g>
        <g id="Group_1372" data-name="Group 1372" transform="translate(64.516 0.401)">
          <path id="Path_1672" data-name="Path 1672" d="M2026.6,1489.048c-.8.9-4.528,2.355-4.785,2.127s.72-4.11,1.516-5.012a2.18,2.18,0,0,1,3.269,2.885Z" transform="translate(-2021.771 -1485.426)" fill="#fff"/>
        </g>
        <g id="Group_1373" data-name="Group 1373" transform="translate(59.698 0)">
          <path id="Path_1673" data-name="Path 1673" d="M1990.034,1483.332c.719.965,1.373,4.915,1.1,5.12s-3.874-1.55-4.593-2.515a2.18,2.18,0,1,1,3.5-2.605Z" transform="translate(-1986.106 -1482.454)" fill="#fff"/>
        </g>
        <g id="Group_1374" data-name="Group 1374" transform="translate(57.727 5.007)">
          <path id="Path_1674" data-name="Path 1674" d="M1973.124,1519.585c1.162-.317,5.077.52,5.167.851s-2.859,3.038-4.021,3.355a2.18,2.18,0,0,1-1.146-4.206Z" transform="translate(-1971.517 -1519.515)" fill="#fff"/>
        </g>
        <g id="Group_1375" data-name="Group 1375" transform="translate(61.969 5.783)">
          <path id="Path_1675" data-name="Path 1675" d="M2002.928,1529.794c.116-1.2,2.286-4.562,2.628-4.529s1.828,3.75,1.712,4.949a2.18,2.18,0,0,1-4.34-.42Z" transform="translate(-2002.918 -1525.264)" fill="#fff"/>
        </g>
        <g id="Group_1376" data-name="Group 1376" transform="translate(64.707 5.719)">
          <path id="Path_1676" data-name="Path 1676" d="M2026.4,1529.126c-1.066-.56-3.362-3.839-3.2-4.143s4.163-.276,5.229.283a2.18,2.18,0,1,1-2.026,3.86Z" transform="translate(-2023.189 -1524.79)" fill="#fff"/>
        </g>
        <g id="Group_1377" data-name="Group 1377" transform="translate(63.998 5.194)">
          <path id="Path_1677" data-name="Path 1677" d="M2019.36,1521.508a.718.718,0,1,0-.6.822A.718.718,0,0,0,2019.36,1521.508Z" transform="translate(-2017.933 -1520.903)" fill="#f77d48"/>
        </g>
        <g id="Group_1378" data-name="Group 1378" transform="translate(49.357 25.544)">
          <path id="Path_1678" data-name="Path 1678" d="M1915.6,1672.8c1.184,1.457,2.463,7.568,2.047,7.906s-6.138-2.159-7.323-3.616a3.4,3.4,0,0,1,5.276-4.29Z" transform="translate(-1909.558 -1671.541)" fill="#a8d29f"/>
        </g>
        <g id="Group_1379" data-name="Group 1379" transform="translate(57.235 27.807)">
          <path id="Path_1679" data-name="Path 1679" d="M1972.936,1688.671c-1.669.859-5.293,5.944-5.047,6.42s6.489.485,8.158-.374a3.4,3.4,0,1,0-3.111-6.046Z" transform="translate(-1967.876 -1688.294)" fill="#a8d29f"/>
        </g>
        <g id="Group_1380" data-name="Group 1380" transform="translate(0.371 38.056)">
          <path id="Path_1680" data-name="Path 1680" d="M1546.946,1771.883s1.912-5.027,8.856-5.343,11.724,3.787,17.461,1.894,15.231-6.17,24.213-3.322,10.5,6.771,10.5,6.771Z" transform="translate(-1546.946 -1764.161)" fill="#a8d29f"/>
        </g>
      </g>
      <g id="Group_1407" data-name="Group 1407" transform="translate(406.159 269.067)">
        <g id="Group_1382" data-name="Group 1382" transform="translate(2.279 19.566)">
          <path id="Path_1681" data-name="Path 1681" d="M2087.565,1086.722c-5.824-1.482-12.226-10.517-12.226-10.517l1.64-1.422c1.7,2,8.756,5.449,8.756,5.449-.038-1.832.01-3.5.126-5.023.783-10.335,4.679-13.778,5.742-14.534a2.553,2.553,0,0,1,.27-.174s0,.075.01.217c.015.307.043.926.073,1.775C2092.173,1068.819,2092.431,1087.961,2087.565,1086.722Z" transform="translate(-2075.339 -1060.501)" fill="#ffb27d"/>
        </g>
        <g id="Group_1383" data-name="Group 1383" transform="translate(9.287 18.738)">
          <path id="Path_1682" data-name="Path 1682" d="M2137.1,1067.31q-.02.849-.056,1.7c-.188,4.6-.688,9.169-1.816,11.844a5.757,5.757,0,0,1-.951,1.6,2,2,0,0,1-1.848.76c-3.934-.574-4.959-4.247-5.167-6.976a15.612,15.612,0,0,1,.057-3.034,6.936,6.936,0,0,0,2.249-.3c.644-.595.926-3.453,1.1-6.621.227-4.152.287-8.82.684-9.624,1.135-2.3,5.513-2.3,5.513-2.3S2137.275,1060.623,2137.1,1067.31Z" transform="translate(-2127.219 -1054.367)" fill="#f99746"/>
        </g>
        <g id="Group_1384" data-name="Group 1384" transform="translate(15.707 0)">
          <path id="Path_1683" data-name="Path 1683" d="M2182.843,923.885a4.017,4.017,0,0,0-1.253,5.612s-2.84-.52-3.453-1.367a2.223,2.223,0,0,0,.177.531s-2.611-.592-3.465-1.681,3.335-14.139,10.121-10.759c0,0,6.205,1.151,3.775,8.041s-.134,7.5-.134,7.5a3.377,3.377,0,0,1-1.031.064s-.405-.291-.428-.564a1.662,1.662,0,0,0,.068.57s-2.542-.422-3.531-1.685S2182.106,925.244,2182.843,923.885Z" transform="translate(-2174.739 -915.664)" fill="#233862"/>
        </g>
        <g id="Group_1385" data-name="Group 1385" transform="translate(19.103 19.312)">
          <path id="Path_1684" data-name="Path 1684" d="M2199.907,1058.62l-.012,0C2199.875,1058.622,2199.879,1058.62,2199.907,1058.62Z" transform="translate(-2199.883 -1058.62)" fill="#ffb27d"/>
        </g>
        <g id="Group_1386" data-name="Group 1386" transform="translate(19.128 11.334)">
          <path id="Path_1685" data-name="Path 1685" d="M2207.945,1005.271c.1.854.209,1.62.26,1.985.114.818-7.648.286-8.143.284.345-.15,1.4-3.49,1.731-4.764.4-1.545.721-3.214.721-3.214l5.481.346.326.02a19.108,19.108,0,0,0-.446,2.108c-.013.088-.026.177-.037.264A14.261,14.261,0,0,0,2207.945,1005.271Z" transform="translate(-2200.062 -999.562)" fill="#ffb27d"/>
        </g>
        <g id="Group_1387" data-name="Group 1387" transform="translate(20.092 0.689)">
          <path id="Path_1686" data-name="Path 1686" d="M2207.93,930.859a15.846,15.846,0,0,1-.709-4.979c.128-1.543,2.325-6.806,7.605-4.566a7.715,7.715,0,0,1,2.783,1.988c.979,1.12,2.239,3.313-.947,7.57l-.926,1.478Z" transform="translate(-2207.197 -920.767)" fill="#233862"/>
        </g>
        <g id="Group_1388" data-name="Group 1388" transform="translate(9.287 29.141)">
          <path id="Path_1687" data-name="Path 1687" d="M2137.757,1134.36l-.291,9.3s-1.028,1.762-2.235,3.8c-.31.524-.632,1.065-.951,1.6a2,2,0,0,1-1.848.761c-3.934-.574-4.959-4.247-5.167-6.977a15.612,15.612,0,0,1,.057-3.034,6.936,6.936,0,0,0,2.249-.3c.644-.595.926-3.453,1.1-6.621l2.686-1.517,3.748,2.539Z" transform="translate(-2127.219 -1131.378)" fill="#ed7d2b"/>
        </g>
        <g id="Group_1389" data-name="Group 1389" transform="translate(21.55 11.491)">
          <path id="Path_1688" data-name="Path 1688" d="M2223.452,1006.276c-3.834-1.123-5.461-5.552-5.461-5.552,1.621.047,3.734,1.173,5.392,2.317-.013.088-.026.177-.037.264A14.224,14.224,0,0,0,2223.452,1006.276Z" transform="translate(-2217.991 -1000.724)" fill="#ed975d"/>
        </g>
        <g id="Group_1390" data-name="Group 1390" transform="translate(21.363 2.818)">
          <path id="Path_1689" data-name="Path 1689" d="M2222.525,949.191s-6.927-1.712-5.794-6.009,1-7.412,5.471-6.5,4.895,2.777,4.865,4.3S2224.356,949.526,2222.525,949.191Z" transform="translate(-2216.606 -936.522)" fill="#ffb27d"/>
        </g>
        <g id="Group_1391" data-name="Group 1391" transform="translate(19.664 0.954)">
          <path id="Path_1690" data-name="Path 1690" d="M2216.62,926.606c-2.062-3.262-4.52-3.6-4.531-3.6-1.76-1.18-4.089,1.716-4.089,1.716a8.489,8.489,0,0,1-3.968,4.138s1.052,1.109,4.146,1.131a5.1,5.1,0,0,0,2.776-1,16.642,16.642,0,0,1-3.665,2.649c3.714-.654,6.313-4.746,6.773-5.518a6.227,6.227,0,0,1,1.023,2.318c.054,1.185-.387,3.478.289,3.575C2215.376,932.016,2218.008,928.8,2216.62,926.606Z" transform="translate(-2204.032 -922.723)" fill="#233862"/>
        </g>
        <g id="Group_1392" data-name="Group 1392" transform="translate(26.201 12.726)">
          <path id="Path_1691" data-name="Path 1691" d="M2252.42,1009.875s.087.654.5.809a6.044,6.044,0,0,0,1.637.366,5.575,5.575,0,0,0,.527-.579A8.63,8.63,0,0,0,2252.42,1009.875Z" transform="translate(-2252.42 -1009.869)" fill="#fff"/>
        </g>
        <g id="Group_1393" data-name="Group 1393" transform="translate(10.747 56.727)">
          <path id="Path_1692" data-name="Path 1692" d="M2150.891,1357.319q-.132.552-.262,1.092c-.522,2.17-1.009,4.183-1.314,5.866-.4,2.192-.492,3.822.03,4.507,2.151,2.82,0,25.2,0,25.2l-2.449,2.522s-4.256-22.1-5.41-25.561c-.525-1.574-1.29-8.3-1.965-15.16q-.052-.515-.1-1.03c-.117-1.2-.229-2.4-.338-3.563-.606-6.494-1.059-12.054-1.059-12.054s4.514-3.174,8.616-3.528a5.167,5.167,0,0,1,5.811,3.528C2154.085,1343.46,2152.429,1350.919,2150.891,1357.319Z" transform="translate(-2138.023 -1335.58)" fill="#ffb27d"/>
        </g>
        <g id="Group_1394" data-name="Group 1394" transform="translate(13.802 56.727)">
          <path id="Path_1693" data-name="Path 1693" d="M2169.764,1358.8c-3.16-3.445-5.241-8.378-9.1-15.286-.328-3.513,2.442-6.852,5.534-7.906a5.168,5.168,0,0,1,5.811,3.528C2173.647,1343.46,2171.3,1352.4,2169.764,1358.8Z" transform="translate(-2160.641 -1335.58)" fill="#ed975d"/>
        </g>
        <g id="Group_1395" data-name="Group 1395" transform="translate(34.564 35.784)">
          <path id="Path_1694" data-name="Path 1694" d="M2315.61,1180.553l16.485,4.258v1.925s-16.4-.192-17.463-2.02S2315.61,1180.553,2315.61,1180.553Z" transform="translate(-2314.328 -1180.553)" fill="#ffb27d"/>
        </g>
        <g id="Group_1396" data-name="Group 1396" transform="translate(18.297 52.777)">
          <path id="Path_1695" data-name="Path 1695" d="M2227.944,1352.791l-.77,3.181s-22.3-11.517-25.183-13.729c-1.158-.889-2.689-5.715-4.107-11.174-2.112-8.137-3.973-17.681-3.973-17.681s3.126-12.022,11.494-4.664c5.008,4.4,4.229,12.888,3.68,19.487-.365,4.428-.627,8.007,1.033,8.935,3.239,1.808,12.744,10.135,15.752,15.864Z" transform="translate(-2193.91 -1306.34)" fill="#ffb27d"/>
        </g>
        <g id="Group_1397" data-name="Group 1397" transform="translate(12.734 16.137)">
          <path id="Path_1696" data-name="Path 1696" d="M2183.937,1054.766c1.067,1.515.479,4.451-1.758,6.816-1.389,1.468-3.27,2.337-6.332,1.885a7.819,7.819,0,0,1-4.916-4.156c-.184-.369-.649-1.45-.649-1.45a14.635,14.635,0,0,0-1.761,2.021c-.029.144-.175,1.429-.2,1.6a6.193,6.193,0,0,0,.125.993s-8.111,3.547-14.816-.492c0,0-1.587-10.3-.539-19.11.2-1.689,4.51-3.992,5.843-5.158a2.128,2.128,0,0,0,.521-1.561c-.068-.43.427-1.155.842-1.023.8.257,3.069,1.379,4.665.951.794-.211,1.8-1.13,2.573-.92.942.257-.053,2.524.48,2.553.736.036,4.039.088,5.041,1.472.821,1.133,1.257,3.246,2.688,7.246a.037.037,0,0,1,0,.01C2178.433,1053.951,2182.371,1052.543,2183.937,1054.766Z" transform="translate(-2152.735 -1035.119)" fill="#f99746"/>
        </g>
        <g id="Group_1398" data-name="Group 1398" transform="translate(23.241 33.707)">
          <path id="Path_1697" data-name="Path 1697" d="M2237.552,1170.344a26.617,26.617,0,0,1-1.412-5.092c-.168-.9-7.081,6.008-5.35,8.813S2237.552,1170.344,2237.552,1170.344Z" transform="translate(-2230.512 -1165.172)" fill="#ed7d2b"/>
        </g>
        <g id="Group_1399" data-name="Group 1399" transform="translate(10.136 42.368)">
          <path id="Path_1698" data-name="Path 1698" d="M2163.612,1254.572s-2.172.622-5.435,1.31c-6.742,1.422-18.145,3.127-24.674.215,0,0,.417-9.6,1.552-16.865.908-5.808,1.749-9.621,1.749-9.621a32.081,32.081,0,0,0,12.236.341l.175-.034a19.964,19.964,0,0,0,2.41-.635,129.4,129.4,0,0,1,7.055,11.312C2160.341,1243.807,2163.612,1254.572,2163.612,1254.572Z" transform="translate(-2133.503 -1229.284)" fill="#23569e"/>
        </g>
        <g id="Group_1400" data-name="Group 1400" transform="translate(24.99 42.368)">
          <path id="Path_1699" data-name="Path 1699" d="M2258.711,1254.572s-2.172.622-5.435,1.31q-1.052.113-2.186.215c-10.943-13.972-6.908-26.11-6.908-26.11l.132-.069a19.988,19.988,0,0,0,2.41-.635,129.4,129.4,0,0,1,7.055,11.312C2255.44,1243.807,2258.711,1254.572,2258.711,1254.572Z" transform="translate(-2243.456 -1229.284)" fill="#163560"/>
        </g>
        <g id="Group_1401" data-name="Group 1401" transform="translate(52.331 38.282)">
          <path id="Path_1700" data-name="Path 1700" d="M2445.848,1200.8a22.087,22.087,0,0,1,4.227-1.634c1.2-.144,3.222-.192,3.222,0a8.971,8.971,0,0,1-2.741,1.634c-.577.1-1.683.915-1.346,1.011s2.116-.313,2.14,0-1.082.5-1.274.745a2.3,2.3,0,0,1-1.948.385c-1.082-.144-2.279-.216-2.279-.216Z" transform="translate(-2445.848 -1199.038)" fill="#ffb27d"/>
        </g>
        <g id="Group_1402" data-name="Group 1402" transform="translate(50.256 96.085)">
          <path id="Path_1701" data-name="Path 1701" d="M2437.314,1631.565a.531.531,0,0,0-.282-.244l-.083-.03a1.392,1.392,0,0,1-.863-.906c-.2-.48-.261-.875-.445-1.35l-.752-1.3c-.788-1.037-1.064-.794-1.064-.794s-.206.264-.51.612a6.344,6.344,0,0,1-1.818,1.582,1.585,1.585,0,0,0-.779.61,1.5,1.5,0,0,0-.232.534s1.617.282,1.476,1.078c-.274,1.542-.21,1.823-.182,1.873l.01.01s2.758,1.444,3.639,1.727a6.884,6.884,0,0,1,2.9,2.056.907.907,0,0,0,.772.243,3.243,3.243,0,0,0,.74-.193.381.381,0,0,0,.18-.532Z" transform="translate(-2430.486 -1626.917)" fill="#2b478b"/>
        </g>
        <g id="Group_1403" data-name="Group 1403" transform="translate(14.279 114.303)">
          <path id="Path_1702" data-name="Path 1702" d="M2174.418,1766.253l-1.321.715c-.48.17-.876.219-1.362.4a2.814,2.814,0,0,0-1.282.938c-.373,1.515-.918,1.469-.918,1.469h-5.29c-.25-.125.174-1.2.377-1.4.5-.495,2-.246,2.551-1.8.309-.873,1.831-3.588,1.831-3.588l.011-.009c.052-.027.334-.083,1.867.236.792.164,1.121-1.444,1.121-1.444a1.507,1.507,0,0,1,.527.248,1.584,1.584,0,0,1,.587.8,6.36,6.36,0,0,0,1.528,1.863c.339.314.6.528.6.528S2175.477,1765.5,2174.418,1766.253Z" transform="translate(-2164.168 -1761.778)" fill="#2b478b"/>
        </g>
        <g id="Group_1404" data-name="Group 1404" transform="translate(0 28.17)">
          <path id="Path_1703" data-name="Path 1703" d="M2062.39,1129.865a6.649,6.649,0,0,0-.188-2.779c-.457-1.165-.558-2.43-.923-1.928s-.057,1.921-.377,1.875a1.2,1.2,0,0,1-.743-.947c-.217-.866.309-2-.411-1.892-.687.107-1.61,3.3-1.153,4.171a28.607,28.607,0,0,0,2.156,2.922Z" transform="translate(-2058.472 -1124.186)" fill="#ffb27d"/>
        </g>
        <g id="Group_1406" data-name="Group 1406" transform="translate(13.105 40.715)">
          <g id="Group_1405" data-name="Group 1405">
            <path id="Path_1704" data-name="Path 1704" d="M2162.258,1220.82c-4.5,0-6.35-1.548-6.487-1.653l-.291-2.118c.043.032,6.077,3.655,15.416.185l-.2,1.6C2167.105,1220.173,2164.594,1220.82,2162.258,1220.82Z" transform="translate(-2155.479 -1217.049)" fill="#ea7147"/>
          </g>
        </g>
      </g>
      <g id="Group_1416" data-name="Group 1416" transform="translate(169.342 258.485)">
        <g id="Group_1408" data-name="Group 1408" transform="translate(30.595 0.143)">
          <path id="Path_1705" data-name="Path 1705" d="M532.39,971.608a.417.417,0,0,0,.1.012.829.829,0,0,0,.712-.7l3.413-14.41.3-1.28,5.117-21.6.3-1.28,4.286-18.1.3-1.28L551.2,894.92l.3-1.28,5.482-23.152.3-1.278,4.524-19.1.3-1.278,2.246-9.486a.745.745,0,0,0-.424-.955c-.339-.076-.7.233-.812.688l-2.311,9.753-.3,1.278-4.522,19.1-.3,1.278L550.2,893.64l-.3,1.28-4.274,18.051-.3,1.28-4.286,18.1-.3,1.28-5.117,21.6-.3,1.28-3.349,14.142A.741.741,0,0,0,532.39,971.608Z" transform="translate(-531.936 -838.383)" fill="#2b478b"/>
        </g>
        <g id="Group_1409" data-name="Group 1409" transform="translate(0 0)">
          <path id="Path_1706" data-name="Path 1706" d="M305.915,970.693a.436.436,0,0,0,.1.012.823.823,0,0,0,.712-.7l3.378-14.282.3-1.281,5.115-21.627.3-1.281,4.285-18.117.3-1.281,4.276-18.07.3-1.281,5.484-23.177.3-1.279,4.524-19.118.3-1.279,2.279-9.638a.745.745,0,0,0-.424-.956c-.339-.078-.7.233-.812.688l-2.344,9.906-.3,1.279-4.524,19.118-.3,1.279L323.7,892.785l-.3,1.281-4.274,18.07-.3,1.281-4.288,18.117-.3,1.281-5.117,21.627-.3,1.281-3.316,14.013A.745.745,0,0,0,305.915,970.693Z" transform="translate(-305.462 -837.326)" fill="#2b478b"/>
        </g>
        <g id="Group_1410" data-name="Group 1410" transform="translate(30.302 4.777)">
          <path id="Path_1707" data-name="Path 1707" d="M529.767,873.975h31.1l.295-1.284h-31.1Z" transform="translate(-529.767 -872.69)" fill="#2b478b"/>
        </g>
        <g id="Group_1411" data-name="Group 1411" transform="translate(24.789 27.86)">
          <path id="Path_1708" data-name="Path 1708" d="M488.958,1044.841h30.865l.292-1.284H489.25Z" transform="translate(-488.958 -1043.557)" fill="#2b478b"/>
        </g>
        <g id="Group_1412" data-name="Group 1412" transform="translate(17.931 55.677)">
          <path id="Path_1709" data-name="Path 1709" d="M438.2,1250.751h31.629l.3-1.286H438.5Z" transform="translate(-438.195 -1249.465)" fill="#2b478b"/>
        </g>
        <g id="Group_1413" data-name="Group 1413" transform="translate(13.355 75.104)">
          <path id="Path_1710" data-name="Path 1710" d="M404.32,1394.559h31.627l.3-1.286H404.619Z" transform="translate(-404.32 -1393.273)" fill="#2b478b"/>
        </g>
        <g id="Group_1414" data-name="Group 1414" transform="translate(8.765 94.578)">
          <path id="Path_1711" data-name="Path 1711" d="M370.344,1538.713h31.629l.3-1.286H370.643Z" transform="translate(-370.344 -1537.427)" fill="#2b478b"/>
        </g>
        <g id="Group_1415" data-name="Group 1415" transform="translate(3.346 117.577)">
          <path id="Path_1712" data-name="Path 1712" d="M330.227,1708.957h31.629l.3-1.286H330.527Z" transform="translate(-330.227 -1707.671)" fill="#2b478b"/>
        </g>
      </g>
      <g id="Group_1440" data-name="Group 1440" transform="translate(191.829 184.342)">
        <g id="Group_1417" data-name="Group 1417" transform="translate(53.216 33.106)">
          <path id="Path_1713" data-name="Path 1713" d="M867.728,534.087s-1.331.729-1.786,0,.893-.492.893-.492Z" transform="translate(-865.848 -533.558)" fill="#ef9e67"/>
        </g>
        <g id="Group_1421" data-name="Group 1421" transform="translate(42.194 32.236)">
          <g id="Group_1418" data-name="Group 1418">
            <path id="Path_1714" data-name="Path 1714" d="M787.515,544.641l1.349.331,6.474,1.587a4.816,4.816,0,0,0,5.808-3.521l.379-1.547q.523-.465,1.07-1c5.943-5.789,13.843-2.2,13.843-2.2a1.206,1.206,0,0,0,.02-.517,1.253,1.253,0,0,0-.407-.715c-4.953-2.444-11.4-1.861-14.216-1.44-.891.133-1.416.25-1.416.25l-.18-.044c.563-4.024-1.416-7.74-4.713-8.548a5.506,5.506,0,0,0-2.113-.1,6.857,6.857,0,0,0-3.657,1.841,9.206,9.206,0,0,0-2.364,3.668,1.494,1.494,0,0,0-1.627,1.123l-1.387,5.655A4.29,4.29,0,0,0,787.515,544.641Zm7.134-12.762-.365-.09a1.243,1.243,0,0,0-1.5.91l-2.638-.647a1.473,1.473,0,0,0-1.711.88l-.389-.1a8.462,8.462,0,0,1,2.413-3.555,5.857,5.857,0,0,1,3.666-1.491,4.719,4.719,0,0,1,1.242.137c2.943.722,4.706,4.077,4.221,7.74l-.283-.069a1.472,1.472,0,0,0-1.111-1.572l-2.637-.647A1.243,1.243,0,0,0,794.649,531.878Z" transform="translate(-784.256 -527.12)" fill="#c94c43"/>
          </g>
          <g id="Group_1419" data-name="Group 1419" transform="translate(16.863 9.366)">
            <path id="Path_1715" data-name="Path 1715" d="M909.49,601.456q.523-.465,1.07-1c5.943-5.789,13.842-2.2,13.842-2.2a1.2,1.2,0,0,0,.02-.517,14.051,14.051,0,0,0-9.785-.7C909.284,598.746,908.406,599.657,909.49,601.456Z" transform="translate(-909.083 -596.452)" fill="#b23b38"/>
          </g>
          <g id="Group_1420" data-name="Group 1420" transform="translate(0 0.059)">
            <path id="Path_1716" data-name="Path 1716" d="M787.515,545.017l1.349.331c-2.061-.755-.359-5.5.587-8.613s3.232-2.095,3.232-2.095a1.678,1.678,0,0,1,1.366-1.145,1.172,1.172,0,0,1,.6-1.24l-.365-.09a1.242,1.242,0,0,0-1.5.91l-2.638-.647a1.473,1.473,0,0,0-1.711.88l-.389-.1a8.462,8.462,0,0,1,2.413-3.555,5.857,5.857,0,0,1,3.666-1.491,2.731,2.731,0,0,1-.712-.611,6.857,6.857,0,0,0-3.657,1.841,9.207,9.207,0,0,0-2.364,3.668,1.494,1.494,0,0,0-1.627,1.123l-1.387,5.655A4.29,4.29,0,0,0,787.515,545.017Z" transform="translate(-784.256 -527.555)" fill="#b23b38"/>
          </g>
        </g>
        <g id="Group_1422" data-name="Group 1422" transform="translate(49.876 31.755)">
          <path id="Path_1717" data-name="Path 1717" d="M842.475,524c3.591-1.47,4.318,1.214,4.318,1.214-.375-.088-.626-.588-1.347.062-1.056.951-1.822,1.474-2.9,1.112l-1.285.013-.145-1.922A5.14,5.14,0,0,1,842.475,524Z" transform="translate(-841.118 -523.556)" fill="#ffb27d"/>
        </g>
        <g id="Group_1423" data-name="Group 1423" transform="translate(20.595 10.207)">
          <path id="Path_1718" data-name="Path 1718" d="M624.37,370.2s2.755,3.269,6.264,1.9a10.629,10.629,0,0,0,.766-3.171c0-.166,0-.326.006-.479.019-1.515.07-2.366.07-2.366h0c-.16-.067-5.363-2.2-5.359-2.026A9.228,9.228,0,0,1,624.37,370.2Z" transform="translate(-624.37 -364.053)" fill="#ffb27d"/>
        </g>
        <g id="Group_1424" data-name="Group 1424" transform="translate(22.856 11.157)">
          <path id="Path_1719" data-name="Path 1719" d="M641.111,371.119a8.139,8.139,0,0,0,4.77,3.415c.019-1.515.07-2.366.07-2.366h0C645.8,372.129,640.962,370.845,641.111,371.119Z" transform="translate(-641.108 -371.081)" fill="#ed975d"/>
        </g>
        <g id="Group_1425" data-name="Group 1425" transform="translate(21.249 2.441)">
          <path id="Path_1720" data-name="Path 1720" d="M636.755,316.213s-5.852,1.376-6.653-2.282-2.1-5.943,1.607-6.976,4.737.2,5.3,1.359S638.257,315.761,636.755,316.213Z" transform="translate(-629.215 -306.568)" fill="#ffb27d"/>
        </g>
        <g id="Group_1426" data-name="Group 1426" transform="translate(18.267 0)">
          <path id="Path_1721" data-name="Path 1721" d="M611.207,299.3c-.08.051-1.339.438-3.724-4.313a4.137,4.137,0,0,1,.243-3.784c.873-1.425,3.233-2.386,5.835-2.662,2.336-.248,3.6.637,4.169,1.418.957,1.312,1.652,3.735.087,3.3a7.257,7.257,0,0,0-3.1-.142c-.931.272-1.252,1.749-1.321,2.216s-.176.856-1.339.438-.526,1.648-.34,2.043C611.717,297.817,611.875,298.87,611.207,299.3Z" transform="translate(-607.138 -288.496)" fill="#a9453d"/>
        </g>
        <g id="Group_1432" data-name="Group 1432" transform="translate(0 44.503)">
          <g id="Group_1427" data-name="Group 1427" transform="translate(0 48.758)">
            <path id="Path_1722" data-name="Path 1722" d="M479.346,987.6H475.8c-.743,0-1.568-.744-1.775-2.106s-1.733-2.105-2.064-3.22,1.363-2.684,1.363-2.684l.283-.364.294-.379,2.807.66s.069.668.113,1.52a19.439,19.439,0,0,1,.011,1.948c-.083,1.487.416,3.087,1.737,3.376S479.346,987.6,479.346,987.6Z" transform="translate(-471.92 -978.851)" fill="#202e51"/>
          </g>
          <g id="Group_1428" data-name="Group 1428" transform="translate(22.057 52.397)">
            <path id="Path_1723" data-name="Path 1723" d="M645.231,1010.9h-9.393a.861.861,0,0,1-.2-.058c-.627-.314-.431-2.715-.355-3.457.014-.138.025-.218.025-.218s3.3-2.642,3.757-.619c.015.063.031.125.049.186h0c.573,1.893,3.137,2.752,4.617,2.992A1.612,1.612,0,0,1,645.231,1010.9Z" transform="translate(-635.194 -1005.785)" fill="#202e51"/>
          </g>
          <g id="Group_1429" data-name="Group 1429" transform="translate(16.185 2.477)">
            <path id="Path_1724" data-name="Path 1724" d="M605.746,637.128s-.5,6.258-1.091,13.781c-.8,10.219-1.765,22.772-1.86,25.15-.165,4.129-.826,10.735-.826,10.735s-1.568,1.569-4.707.908a108.071,108.071,0,0,1-3.6-19.406l-.037-.493c-.743-10.156-1.9-31.542-1.9-31.542Z" transform="translate(-591.73 -636.261)" fill="#f99746"/>
          </g>
          <g id="Group_1430" data-name="Group 1430" transform="translate(16.185 2.477)">
            <path id="Path_1725" data-name="Path 1725" d="M605.746,637.128s-.5,6.258-1.091,13.781L593.666,668.3l-.037-.493c-.743-10.156-1.9-31.542-1.9-31.542Z" transform="translate(-591.73 -636.261)" fill="#ed7d2b"/>
          </g>
          <g id="Group_1431" data-name="Group 1431" transform="translate(1.405)">
            <path id="Path_1726" data-name="Path 1726" d="M508.826,622.012s-9.041,22.665-14.987,33.317-7.8,13.624-7.8,13.624-3.406-1.362-3.716-2.291c0,0,2.273-20.563,6.255-25.576,2.25-2.833,4.892-11.333,5.016-14.305s.805-8.856.805-8.856Z" transform="translate(-482.321 -617.925)" fill="#f99746"/>
          </g>
        </g>
        <g id="Group_1435" data-name="Group 1435" transform="translate(4.096 16.72)">
          <g id="Group_1433" data-name="Group 1433" transform="translate(0 27.219)">
            <path id="Path_1727" data-name="Path 1727" d="M505.268,614.282l-.1,1.458s-.019.6.012,1.1a2.621,2.621,0,0,1-1.744,2.816s-1.153.465-1.2-.433.4-.7.3-1.965.109-2.318.945-2.72l.686-.791Z" transform="translate(-502.237 -613.749)" fill="#ffb27d"/>
          </g>
          <g id="Group_1434" data-name="Group 1434" transform="translate(0.734)">
            <path id="Path_1728" data-name="Path 1728" d="M508.917,441.078c1,.321,1.161.249,1.161.249s4.871-8.868,5.364-9.68,10.342-9.945,10.342-9.945l-2.531-9.438s-11.2,14.505-12.411,16.587c-2,3.44-3.17,11.428-3.17,11.428A2.929,2.929,0,0,0,508.917,441.078Z" transform="translate(-507.672 -412.265)" fill="#1e3d70"/>
          </g>
        </g>
        <g id="Group_1436" data-name="Group 1436" transform="translate(12.588 14.594)">
          <path id="Path_1729" data-name="Path 1729" d="M584.456,411.8c-.035,1.938-.148,4.117-.3,6.33l-.028.394c-.1,1.371-.2,2.745-.323,4.085q-.073.806-.154,1.59l-.008.07c0,.2-.028.407-.05.6-.494,5.019-1.011,8.984-1.107,9.045a.563.563,0,0,1-.385.1c-1.316-.165-5.243.133-8.458-.566a24.374,24.374,0,0,1-7.524-3.12c-.328-.194-1.078-.709-1.017-1.093.06-.423.171-1.033.311-1.8a97.422,97.422,0,0,0,1.617-12.636q.084-1.5.243-2.962a44.953,44.953,0,0,1,1.311-7.074c1.1-3.969,3.485-7.025,5.517-8.214.266-.149.932.776,2.244,1.618,1.212.777,2.312.528,3.552.419l1.268,1.672a12.2,12.2,0,0,1,3.115,6.493q.044.322.074.686A42.7,42.7,0,0,1,584.456,411.8Z" transform="translate(-565.098 -396.526)" fill="#2a4e96"/>
        </g>
        <g id="Group_1437" data-name="Group 1437" transform="translate(22.942 23.27)">
          <path id="Path_1730" data-name="Path 1730" d="M650.749,467.342c-.035,1.938-.148,4.117-.3,6.33q-.014.2-.028.394c-7.518-4.706-8.676-13.317-8.676-13.317a20.565,20.565,0,0,1,8.9,2.228A42.7,42.7,0,0,1,650.749,467.342Z" transform="translate(-641.745 -460.749)" fill="#1e3d70"/>
        </g>
        <g id="Group_1438" data-name="Group 1438" transform="translate(19.694 18.149)">
          <path id="Path_1731" data-name="Path 1731" d="M648.948,438.263c.078-1.115-.5-1.3-.5-1.3s-11.335-2.054-12.3-2.357-9.2-8.874-9.2-8.874-3.158-3.562-5.744-2.775a4.86,4.86,0,0,0-3.425,4.106,4.919,4.919,0,0,0,2.284,5.049c3.868,2.373,11.613,7.047,13.436,7.582,4.059,1.19,14.966.1,14.966.1A3.517,3.517,0,0,0,648.948,438.263Z" transform="translate(-617.701 -422.842)" fill="#2a4e96"/>
        </g>
        <g id="Group_1439" data-name="Group 1439" transform="translate(6.749 46.43)">
          <path id="Path_1732" data-name="Path 1732" d="M522.153,632.189s.273,1.276.437,1.695-.51.182-.674-.383A2.122,2.122,0,0,1,522.153,632.189Z" transform="translate(-521.876 -632.189)" fill="#ffb27d"/>
        </g>
      </g>
      <g id="Group_1441" data-name="Group 1441" transform="translate(217.985 314.66)">
        <rect id="Rectangle_288" data-name="Rectangle 288" width="1.166" height="79.593" transform="matrix(0.969, -0.247, 0.247, 0.969, 0, 0.288)" fill="#2b478b"/>
      </g>
      <g id="Group_1442" data-name="Group 1442" transform="translate(148.081 391.347)">
        <path id="Rectangle_289" data-name="Rectangle 289" d="M.517,0H355.611a.517.517,0,0,1,.517.517v0a.517.517,0,0,1-.517.517H.517A.517.517,0,0,1,0,.517v0A.517.517,0,0,1,.517,0Z" transform="translate(0)" fill="#2e3552"/>
      </g>
    </g>
  </g>
</svg>
