<svg xmlns="http://www.w3.org/2000/svg" xmlns:xlink="http://www.w3.org/1999/xlink" width="412" height="847" viewBox="0 0 412 847">
  <defs>
    <linearGradient id="linear-gradient" x1="0.5" x2="0.5" y2="1" gradientUnits="objectBoundingBox">
      <stop offset="0" stop-color="#37aadd"/>
      <stop offset="1" stop-color="#1f64cc"/>
    </linearGradient>
    <clipPath id="clip-path">
      <rect width="335" height="191" fill="none"/>
    </clipPath>
    <clipPath id="clip-Login_screen">
      <rect width="412" height="847"/>
    </clipPath>
  </defs>
  <g id="Login_screen" data-name="Login screen" clip-path="url(#clip-Login_screen)">
    <rect width="412" height="847" fill="url(#linear-gradient)"/>
    <path id="Path_1555" data-name="Path 1555" d="M757.263,511.759h-477.1s-64.724-63.414-23.546-138.022,96.483-37.089,93.805-123.925,127.192-94.3,168.531-69.12,41.09,55.505,126.427,45.471S747.021,299.77,724.819,342.4a55.382,55.382,0,0,0-3.519,8.2c-.171.51-.326,1.014-.471,1.512C706.275,402.16,819.727,408.83,757.263,511.759Z" transform="translate(-330.529 343.024)" fill="#ebf3fa" opacity="0.06"/>
    <text id="Sign_In_and_Lets_Peace_Begins" data-name="Sign In and
Lets Peace Begins" transform="translate(47 95)" fill="#fff" font-size="36" font-family="Arial-BoldMT, Arial" font-weight="700"><tspan x="0" y="0">Sign In and</tspan><tspan x="0" y="49">Lets Peace Begins</tspan></text>
    <g id="Repeat_Grid_1" data-name="Repeat Grid 1" transform="translate(39 259)" clip-path="url(#clip-path)">
      <g transform="translate(-39 -317)">
        <g id="text_Field" data-name="text Field" transform="translate(39 319)">
          <g id="Group_1192" data-name="Group 1192" transform="translate(0 -1)">
            <text id="Email_ID_phone_Number" data-name="Email ID / phone Number" transform="translate(0 17)" fill="#fff" font-size="16" font-family="ArialMT, Arial"><tspan x="0" y="0">Email ID / phone Number</tspan></text>
          </g>
          <g id="Hover_label" transform="translate(0 30)">
            <g id="Rectangle_175" data-name="Rectangle 175" fill="#fff" stroke="#fff" stroke-width="1">
              <rect width="335" height="50" rx="10" stroke="none"/>
              <rect x="0.5" y="0.5" width="334" height="49" rx="9.5" fill="none"/>
            </g>
            <text id="Enter_First_name" data-name="Enter First name" transform="translate(16 30)" fill="#cecfd0" font-size="13" font-family="ArialMT, Arial"><tspan x="0" y="0">Enter First name</tspan></text>
          </g>
        </g>
      </g>
      <g transform="translate(-39 -215)">
        <g id="text_Field-2" data-name="text Field" transform="translate(39 320)">
          <g id="Group_1192-2" data-name="Group 1192" transform="translate(0 -2)">
            <text id="Password" transform="translate(0 18)" fill="#fff" font-size="16" font-family="ArialMT, Arial"><tspan x="0" y="0">Password</tspan></text>
          </g>
          <g id="Hover_label-2" data-name="Hover_label" transform="translate(0 29)">
            <rect id="Rectangle_175-2" data-name="Rectangle 175" width="335" height="50" rx="10" fill="#fff"/>
            <text id="Enter_password" data-name="Enter password" transform="translate(16 30)" fill="#cecfd0" font-size="13" font-family="ArialMT, Arial"><tspan x="0" y="0">Enter password</tspan></text>
          </g>
        </g>
      </g>
    </g>
    <g id="RememberMe" transform="translate(42 460)">
      <rect id="Rectangle_165" data-name="Rectangle 165" width="18" height="18" rx="4" fill="#fff"/>
      <text id="Remember_me" data-name="Remember me" transform="translate(28 14)" fill="#fff" font-size="15" font-family="ArialMT, Arial"><tspan x="0" y="0">Remember me</tspan></text>
    </g>
    <text id="Forgot_Password" data-name="Forgot Password" transform="translate(374 474)" fill="#fff" font-size="15" font-family="ArialMT, Arial"><tspan x="-113.379" y="0">Forgot Password</tspan></text>
    <g id="btn_login" transform="translate(-959 -92)">
      <rect id="Rectangle_166" data-name="Rectangle 166" width="332" height="45" rx="10" transform="translate(1001 606)" fill="#ff9241"/>
      <text id="Login" transform="translate(1168 635)" fill="#fff" font-size="18" font-family="ArialMT, Arial"><tspan x="-22.021" y="0">Login</tspan></text>
    </g>
    <text id="Don_t_have_a_account_Sign_up" data-name="Don’t have a account ? Sign up" transform="translate(206 788)" fill="#fff" font-size="13" font-family="ArialMT, Arial"><tspan x="-95.427" y="0">Don’t have a account ? </tspan><tspan y="0" font-size="16" text-decoration="underline">Sign up</tspan></text>
    <g id="btn_login-2" data-name="btn_login" transform="translate(-962 49)">
      <g id="Rectangle_166-2" data-name="Rectangle 166" transform="translate(1001 606)" fill="none" stroke="#fff" stroke-width="1">
        <rect width="335" height="45" rx="10" stroke="none"/>
        <rect x="0.5" y="0.5" width="334" height="44" rx="9.5" fill="none"/>
      </g>
      <text id="Login_with_OTP" data-name="Login with OTP" transform="translate(1170 635)" fill="#fff" font-size="18" font-family="ArialMT, Arial"><tspan x="-61.528" y="0">Login with OTP</tspan></text>
    </g>
    <text id="Or" transform="translate(206 617)" fill="#fff" font-size="16" font-family="ArialMT, Arial"><tspan x="-8.887" y="0">Or</tspan></text>
  </g>
</svg>
