<svg xmlns="http://www.w3.org/2000/svg" xmlns:xlink="http://www.w3.org/1999/xlink" width="412" height="1016" viewBox="0 0 412 1016">
  <defs>
    <clipPath id="clip-path">
      <rect y="-17" width="419" height="804" fill="none"/>
    </clipPath>
    <clipPath id="clip-path-2">
      <rect width="419" height="1380" fill="none"/>
    </clipPath>
    <filter id="Rectangle_1480" x="-2" y="270" width="419" height="181" filterUnits="userSpaceOnUse">
      <feOffset dy="4" input="SourceAlpha"/>
      <feGaussianBlur stdDeviation="8" result="blur"/>
      <feFlood flood-opacity="0.078"/>
      <feComposite operator="in" in2="blur"/>
      <feComposite in="SourceGraphic"/>
    </filter>
    <filter id="Rectangle_1480-2" x="-2" y="420" width="419" height="181" filterUnits="userSpaceOnUse">
      <feOffset dy="4" input="SourceAlpha"/>
      <feGaussianBlur stdDeviation="8" result="blur-2"/>
      <feFlood flood-opacity="0.078"/>
      <feComposite operator="in" in2="blur-2"/>
      <feComposite in="SourceGraphic"/>
    </filter>
    <filter id="Rectangle_1480-3" x="-2" y="570" width="419" height="181" filterUnits="userSpaceOnUse">
      <feOffset dy="4" input="SourceAlpha"/>
      <feGaussianBlur stdDeviation="8" result="blur-3"/>
      <feFlood flood-opacity="0.078"/>
      <feComposite operator="in" in2="blur-3"/>
      <feComposite in="SourceGraphic"/>
    </filter>
    <filter id="Rectangle_1480-4" x="-2" y="720" width="419" height="181" filterUnits="userSpaceOnUse">
      <feOffset dy="4" input="SourceAlpha"/>
      <feGaussianBlur stdDeviation="8" result="blur-4"/>
      <feFlood flood-opacity="0.078"/>
      <feComposite operator="in" in2="blur-4"/>
      <feComposite in="SourceGraphic"/>
    </filter>
    <filter id="Rectangle_1480-5" x="-2" y="870" width="419" height="181" filterUnits="userSpaceOnUse">
      <feOffset dy="4" input="SourceAlpha"/>
      <feGaussianBlur stdDeviation="8" result="blur-5"/>
      <feFlood flood-opacity="0.078"/>
      <feComposite operator="in" in2="blur-5"/>
      <feComposite in="SourceGraphic"/>
    </filter>
    <filter id="Rectangle_1480-6" x="-2" y="1020" width="419" height="181" filterUnits="userSpaceOnUse">
      <feOffset dy="4" input="SourceAlpha"/>
      <feGaussianBlur stdDeviation="8" result="blur-6"/>
      <feFlood flood-opacity="0.078"/>
      <feComposite operator="in" in2="blur-6"/>
      <feComposite in="SourceGraphic"/>
    </filter>
    <filter id="Rectangle_1480-7" x="-2" y="1170" width="419" height="181" filterUnits="userSpaceOnUse">
      <feOffset dy="4" input="SourceAlpha"/>
      <feGaussianBlur stdDeviation="8" result="blur-7"/>
      <feFlood flood-opacity="0.078"/>
      <feComposite operator="in" in2="blur-7"/>
      <feComposite in="SourceGraphic"/>
    </filter>
    <filter id="Rectangle_1480-8" x="-2" y="1320" width="419" height="181" filterUnits="userSpaceOnUse">
      <feOffset dy="4" input="SourceAlpha"/>
      <feGaussianBlur stdDeviation="8" result="blur-8"/>
      <feFlood flood-opacity="0.078"/>
      <feComposite operator="in" in2="blur-8"/>
      <feComposite in="SourceGraphic"/>
    </filter>
    <filter id="Rectangle_1480-9" x="-2" y="1470" width="419" height="181" filterUnits="userSpaceOnUse">
      <feOffset dy="4" input="SourceAlpha"/>
      <feGaussianBlur stdDeviation="8" result="blur-9"/>
      <feFlood flood-opacity="0.078"/>
      <feComposite operator="in" in2="blur-9"/>
      <feComposite in="SourceGraphic"/>
    </filter>
    <filter id="Path_7" x="-4" y="98" width="419.5" height="91" filterUnits="userSpaceOnUse">
      <feOffset dy="3" input="SourceAlpha"/>
      <feGaussianBlur stdDeviation="8" result="blur-10"/>
      <feFlood flood-opacity="0.078"/>
      <feComposite operator="in" in2="blur-10"/>
      <feComposite in="SourceGraphic"/>
    </filter>
    <linearGradient id="linear-gradient" x1="0.5" x2="0.5" y2="1" gradientUnits="objectBoundingBox">
      <stop offset="0" stop-color="#4b8ceb"/>
      <stop offset="1" stop-color="#1f64cc"/>
    </linearGradient>
    <filter id="Rectangle_1534" x="-9" y="775" width="430" height="78" filterUnits="userSpaceOnUse">
      <feOffset dy="-3" input="SourceAlpha"/>
      <feGaussianBlur stdDeviation="3" result="blur-11"/>
      <feFlood flood-opacity="0.059"/>
      <feComposite operator="in" in2="blur-11"/>
      <feComposite in="SourceGraphic"/>
    </filter>
    <clipPath id="clip-Medical_history">
      <rect width="412" height="1016"/>
    </clipPath>
  </defs>
  <g id="Medical_history" data-name="Medical history" clip-path="url(#clip-Medical_history)">
    <rect width="412" height="1016" fill="#e9eff4"/>
    <g id="Scroll_Group_3" data-name="Scroll Group 3" transform="translate(-2 229)" clip-path="url(#clip-path)" style="isolation: isolate">
      <g id="Tabs" transform="translate(27 0.36)">
        <text id="All_Sessions" data-name="All Sessions" transform="translate(7 -0.36)" fill="#1e64cc" font-size="15" font-family="Arial-BoldMT, Arial" font-weight="700"><tspan x="0" y="14">All </tspan></text>
        <text id="Medical_Records" data-name="Medical Records" transform="translate(119 -0.36)" fill="#808495" font-size="15" font-family="ArialMT, Arial"><tspan x="-55.854" y="14">Medical Records</tspan></text>
        <text id="Lab_report" data-name="Lab report" transform="translate(286 -0.36)" fill="#808495" font-size="15" font-family="ArialMT, Arial"><tspan x="0" y="14">Lab report</tspan></text>
        <g id="Group_43" data-name="Group 43" transform="translate(0 37.589)">
          <rect id="Rectangle_28" data-name="Rectangle 28" width="101" height="4" rx="2" transform="translate(0 0.051)" fill="#ff7600"/>
          <line id="Line_3" data-name="Line 3" x2="360" transform="translate(0 2.051)" fill="none" stroke="#1c1c1c" stroke-linecap="round" stroke-width="0.5" opacity="0.2"/>
        </g>
      </g>
      <g id="Repeat_Grid_4" data-name="Repeat Grid 4" transform="translate(0 41)" clip-path="url(#clip-path-2)">
        <g id="Component_116_9" data-name="Component 116 – 9" transform="translate(24 20)">
          <g transform="matrix(1, 0, 0, 1, -22, -290)" filter="url(#Rectangle_1480)">
            <rect id="Rectangle_1480-10" data-name="Rectangle 1480" width="371" height="133" rx="12" transform="translate(22 290)" fill="#f4f9fa"/>
          </g>
          <g id="Group_2140" data-name="Group 2140" transform="translate(-385 -105)">
            <text id="_11_07_2020" data-name="11/07/2020" transform="translate(498 213)" fill="#1c1c1c" font-size="14" font-family="ArialMT, Arial"><tspan x="0" y="0">11/07/2020</tspan></text>
          </g>
          <g id="Group_2149" data-name="Group 2149" transform="translate(-306 -105)">
            <text id="_12:00_PM_-_2:00_PM" data-name="12:00 PM - 2:00 PM" transform="translate(498 213)" fill="#1c1c1c" font-size="14" font-family="ArialMT, Arial"><tspan x="0" y="0">12:00 PM - 2:00 PM</tspan></text>
          </g>
          <g id="Group_2146" data-name="Group 2146" transform="translate(-205 -285)">
            <text id="Doctor" transform="translate(318 316)" fill="#606060" font-size="12" font-family="ArialMT, Arial"><tspan x="0" y="0">Doctor</tspan></text>
            <text id="Dr_._chan_droku_mar" data-name="Dr . chan droku mar" transform="translate(318 339)" fill="#272727" font-size="16" font-family="ArialMT, Arial"><tspan x="0" y="0">Dr . chan droku mar</tspan></text>
          </g>
          <g id="Group_2147" data-name="Group 2147" transform="translate(-302.74 -175.99)">
            <text id="Session_08" data-name="Session
08" transform="translate(353.74 229.99)" fill="#d65022" font-size="16" font-family="ArialMT, Arial"><tspan x="-28.461" y="0">Session</tspan><tspan font-size="26"><tspan x="-14.46" y="30">08</tspan></tspan></text>
          </g>
          <text id="Time_date" data-name="Time/date" transform="translate(113 84)" fill="#606060" font-size="12" font-family="ArialMT, Arial"><tspan x="0" y="0">Time/date</tspan></text>
        </g>
        <g id="Component_116_9-2" data-name="Component 116 – 9" transform="translate(24 170)">
          <g transform="matrix(1, 0, 0, 1, -22, -440)" filter="url(#Rectangle_1480-2)">
            <rect id="Rectangle_1480-11" data-name="Rectangle 1480" width="371" height="133" rx="12" transform="translate(22 440)" fill="#f4f9fa"/>
          </g>
          <g id="Group_2140-2" data-name="Group 2140" transform="translate(-385 -105)">
            <text id="_11_07_2020-2" data-name="11/07/2020" transform="translate(498 213)" fill="#1c1c1c" font-size="14" font-family="ArialMT, Arial"><tspan x="0" y="0">11/07/2020</tspan></text>
          </g>
          <g id="Group_2149-2" data-name="Group 2149" transform="translate(-306 -105)">
            <text id="_12:00_PM_-_2:00_PM-2" data-name="12:00 PM - 2:00 PM" transform="translate(498 213)" fill="#1c1c1c" font-size="14" font-family="ArialMT, Arial"><tspan x="0" y="0">12:00 PM - 2:00 PM</tspan></text>
          </g>
          <g id="Group_2146-2" data-name="Group 2146" transform="translate(-205 -285)">
            <text id="Doctor-2" data-name="Doctor" transform="translate(318 316)" fill="#606060" font-size="12" font-family="ArialMT, Arial"><tspan x="0" y="0">Doctor</tspan></text>
            <text id="Dr_._chan_droku_mar-2" data-name="Dr . chan droku mar" transform="translate(318 339)" fill="#272727" font-size="16" font-family="ArialMT, Arial"><tspan x="0" y="0">Dr . chan droku mar</tspan></text>
          </g>
          <g id="Group_2147-2" data-name="Group 2147" transform="translate(-302.74 -175.99)">
            <text id="Session_08-2" data-name="Session
08" transform="translate(353.74 229.99)" fill="#d65022" font-size="16" font-family="ArialMT, Arial"><tspan x="-28.461" y="0">Session</tspan><tspan font-size="26"><tspan x="-14.46" y="30">08</tspan></tspan></text>
          </g>
          <text id="Time_date-2" data-name="Time/date" transform="translate(113 84)" fill="#606060" font-size="12" font-family="ArialMT, Arial"><tspan x="0" y="0">Time/date</tspan></text>
        </g>
        <g id="Component_116_9-3" data-name="Component 116 – 9" transform="translate(24 320)">
          <g transform="matrix(1, 0, 0, 1, -22, -590)" filter="url(#Rectangle_1480-3)">
            <rect id="Rectangle_1480-12" data-name="Rectangle 1480" width="371" height="133" rx="12" transform="translate(22 590)" fill="#f4f9fa"/>
          </g>
          <g id="Group_2140-3" data-name="Group 2140" transform="translate(-385 -105)">
            <text id="_11_07_2020-3" data-name="11/07/2020" transform="translate(498 213)" fill="#1c1c1c" font-size="14" font-family="ArialMT, Arial"><tspan x="0" y="0">11/07/2020</tspan></text>
          </g>
          <g id="Group_2149-3" data-name="Group 2149" transform="translate(-306 -105)">
            <text id="_12:00_PM_-_2:00_PM-3" data-name="12:00 PM - 2:00 PM" transform="translate(498 213)" fill="#1c1c1c" font-size="14" font-family="ArialMT, Arial"><tspan x="0" y="0">12:00 PM - 2:00 PM</tspan></text>
          </g>
          <g id="Group_2146-3" data-name="Group 2146" transform="translate(-205 -285)">
            <text id="Doctor-3" data-name="Doctor" transform="translate(318 316)" fill="#606060" font-size="12" font-family="ArialMT, Arial"><tspan x="0" y="0">Doctor</tspan></text>
            <text id="Dr_._chan_droku_mar-3" data-name="Dr . chan droku mar" transform="translate(318 339)" fill="#272727" font-size="16" font-family="ArialMT, Arial"><tspan x="0" y="0">Dr . chan droku mar</tspan></text>
          </g>
          <g id="Group_2147-3" data-name="Group 2147" transform="translate(-302.74 -175.99)">
            <text id="Session_08-3" data-name="Session
08" transform="translate(353.74 229.99)" fill="#d65022" font-size="16" font-family="ArialMT, Arial"><tspan x="-28.461" y="0">Session</tspan><tspan font-size="26"><tspan x="-14.46" y="30">08</tspan></tspan></text>
          </g>
          <text id="Time_date-3" data-name="Time/date" transform="translate(113 84)" fill="#606060" font-size="12" font-family="ArialMT, Arial"><tspan x="0" y="0">Time/date</tspan></text>
        </g>
        <g id="Component_116_9-4" data-name="Component 116 – 9" transform="translate(24 470)">
          <g transform="matrix(1, 0, 0, 1, -22, -740)" filter="url(#Rectangle_1480-4)">
            <rect id="Rectangle_1480-13" data-name="Rectangle 1480" width="371" height="133" rx="12" transform="translate(22 740)" fill="#f4f9fa"/>
          </g>
          <g id="Group_2140-4" data-name="Group 2140" transform="translate(-385 -105)">
            <text id="_11_07_2020-4" data-name="11/07/2020" transform="translate(498 213)" fill="#1c1c1c" font-size="14" font-family="ArialMT, Arial"><tspan x="0" y="0">11/07/2020</tspan></text>
          </g>
          <g id="Group_2149-4" data-name="Group 2149" transform="translate(-306 -105)">
            <text id="_12:00_PM_-_2:00_PM-4" data-name="12:00 PM - 2:00 PM" transform="translate(498 213)" fill="#1c1c1c" font-size="14" font-family="ArialMT, Arial"><tspan x="0" y="0">12:00 PM - 2:00 PM</tspan></text>
          </g>
          <g id="Group_2146-4" data-name="Group 2146" transform="translate(-205 -285)">
            <text id="Doctor-4" data-name="Doctor" transform="translate(318 316)" fill="#606060" font-size="12" font-family="ArialMT, Arial"><tspan x="0" y="0">Doctor</tspan></text>
            <text id="Dr_._chan_droku_mar-4" data-name="Dr . chan droku mar" transform="translate(318 339)" fill="#272727" font-size="16" font-family="ArialMT, Arial"><tspan x="0" y="0">Dr . chan droku mar</tspan></text>
          </g>
          <g id="Group_2147-4" data-name="Group 2147" transform="translate(-302.74 -175.99)">
            <text id="Session_08-4" data-name="Session
08" transform="translate(353.74 229.99)" fill="#d65022" font-size="16" font-family="ArialMT, Arial"><tspan x="-28.461" y="0">Session</tspan><tspan font-size="26"><tspan x="-14.46" y="30">08</tspan></tspan></text>
          </g>
          <text id="Time_date-4" data-name="Time/date" transform="translate(113 84)" fill="#606060" font-size="12" font-family="ArialMT, Arial"><tspan x="0" y="0">Time/date</tspan></text>
        </g>
        <g id="Component_116_9-5" data-name="Component 116 – 9" transform="translate(24 620)">
          <g transform="matrix(1, 0, 0, 1, -22, -890)" filter="url(#Rectangle_1480-5)">
            <rect id="Rectangle_1480-14" data-name="Rectangle 1480" width="371" height="133" rx="12" transform="translate(22 890)" fill="#f4f9fa"/>
          </g>
          <g id="Group_2140-5" data-name="Group 2140" transform="translate(-385 -105)">
            <text id="_11_07_2020-5" data-name="11/07/2020" transform="translate(498 213)" fill="#1c1c1c" font-size="14" font-family="ArialMT, Arial"><tspan x="0" y="0">11/07/2020</tspan></text>
          </g>
          <g id="Group_2149-5" data-name="Group 2149" transform="translate(-306 -105)">
            <text id="_12:00_PM_-_2:00_PM-5" data-name="12:00 PM - 2:00 PM" transform="translate(498 213)" fill="#1c1c1c" font-size="14" font-family="ArialMT, Arial"><tspan x="0" y="0">12:00 PM - 2:00 PM</tspan></text>
          </g>
          <g id="Group_2146-5" data-name="Group 2146" transform="translate(-205 -285)">
            <text id="Doctor-5" data-name="Doctor" transform="translate(318 316)" fill="#606060" font-size="12" font-family="ArialMT, Arial"><tspan x="0" y="0">Doctor</tspan></text>
            <text id="Dr_._chan_droku_mar-5" data-name="Dr . chan droku mar" transform="translate(318 339)" fill="#272727" font-size="16" font-family="ArialMT, Arial"><tspan x="0" y="0">Dr . chan droku mar</tspan></text>
          </g>
          <g id="Group_2147-5" data-name="Group 2147" transform="translate(-302.74 -175.99)">
            <text id="Session_08-5" data-name="Session
08" transform="translate(353.74 229.99)" fill="#d65022" font-size="16" font-family="ArialMT, Arial"><tspan x="-28.461" y="0">Session</tspan><tspan font-size="26"><tspan x="-14.46" y="30">08</tspan></tspan></text>
          </g>
          <text id="Time_date-5" data-name="Time/date" transform="translate(113 84)" fill="#606060" font-size="12" font-family="ArialMT, Arial"><tspan x="0" y="0">Time/date</tspan></text>
        </g>
        <g id="Component_116_9-6" data-name="Component 116 – 9" transform="translate(24 770)">
          <g transform="matrix(1, 0, 0, 1, -22, -1040)" filter="url(#Rectangle_1480-6)">
            <rect id="Rectangle_1480-15" data-name="Rectangle 1480" width="371" height="133" rx="12" transform="translate(22 1040)" fill="#f4f9fa"/>
          </g>
          <g id="Group_2140-6" data-name="Group 2140" transform="translate(-385 -105)">
            <text id="_11_07_2020-6" data-name="11/07/2020" transform="translate(498 213)" fill="#1c1c1c" font-size="14" font-family="ArialMT, Arial"><tspan x="0" y="0">11/07/2020</tspan></text>
          </g>
          <g id="Group_2149-6" data-name="Group 2149" transform="translate(-306 -105)">
            <text id="_12:00_PM_-_2:00_PM-6" data-name="12:00 PM - 2:00 PM" transform="translate(498 213)" fill="#1c1c1c" font-size="14" font-family="ArialMT, Arial"><tspan x="0" y="0">12:00 PM - 2:00 PM</tspan></text>
          </g>
          <g id="Group_2146-6" data-name="Group 2146" transform="translate(-205 -285)">
            <text id="Doctor-6" data-name="Doctor" transform="translate(318 316)" fill="#606060" font-size="12" font-family="ArialMT, Arial"><tspan x="0" y="0">Doctor</tspan></text>
            <text id="Dr_._chan_droku_mar-6" data-name="Dr . chan droku mar" transform="translate(318 339)" fill="#272727" font-size="16" font-family="ArialMT, Arial"><tspan x="0" y="0">Dr . chan droku mar</tspan></text>
          </g>
          <g id="Group_2147-6" data-name="Group 2147" transform="translate(-302.74 -175.99)">
            <text id="Session_08-6" data-name="Session
08" transform="translate(353.74 229.99)" fill="#d65022" font-size="16" font-family="ArialMT, Arial"><tspan x="-28.461" y="0">Session</tspan><tspan font-size="26"><tspan x="-14.46" y="30">08</tspan></tspan></text>
          </g>
          <text id="Time_date-6" data-name="Time/date" transform="translate(113 84)" fill="#606060" font-size="12" font-family="ArialMT, Arial"><tspan x="0" y="0">Time/date</tspan></text>
        </g>
        <g id="Component_116_9-7" data-name="Component 116 – 9" transform="translate(24 920)">
          <g transform="matrix(1, 0, 0, 1, -22, -1190)" filter="url(#Rectangle_1480-7)">
            <rect id="Rectangle_1480-16" data-name="Rectangle 1480" width="371" height="133" rx="12" transform="translate(22 1190)" fill="#f4f9fa"/>
          </g>
          <g id="Group_2140-7" data-name="Group 2140" transform="translate(-385 -105)">
            <text id="_11_07_2020-7" data-name="11/07/2020" transform="translate(498 213)" fill="#1c1c1c" font-size="14" font-family="ArialMT, Arial"><tspan x="0" y="0">11/07/2020</tspan></text>
          </g>
          <g id="Group_2149-7" data-name="Group 2149" transform="translate(-306 -105)">
            <text id="_12:00_PM_-_2:00_PM-7" data-name="12:00 PM - 2:00 PM" transform="translate(498 213)" fill="#1c1c1c" font-size="14" font-family="ArialMT, Arial"><tspan x="0" y="0">12:00 PM - 2:00 PM</tspan></text>
          </g>
          <g id="Group_2146-7" data-name="Group 2146" transform="translate(-205 -285)">
            <text id="Doctor-7" data-name="Doctor" transform="translate(318 316)" fill="#606060" font-size="12" font-family="ArialMT, Arial"><tspan x="0" y="0">Doctor</tspan></text>
            <text id="Dr_._chan_droku_mar-7" data-name="Dr . chan droku mar" transform="translate(318 339)" fill="#272727" font-size="16" font-family="ArialMT, Arial"><tspan x="0" y="0">Dr . chan droku mar</tspan></text>
          </g>
          <g id="Group_2147-7" data-name="Group 2147" transform="translate(-302.74 -175.99)">
            <text id="Session_08-7" data-name="Session
08" transform="translate(353.74 229.99)" fill="#d65022" font-size="16" font-family="ArialMT, Arial"><tspan x="-28.461" y="0">Session</tspan><tspan font-size="26"><tspan x="-14.46" y="30">08</tspan></tspan></text>
          </g>
          <text id="Time_date-7" data-name="Time/date" transform="translate(113 84)" fill="#606060" font-size="12" font-family="ArialMT, Arial"><tspan x="0" y="0">Time/date</tspan></text>
        </g>
        <g id="Component_116_9-8" data-name="Component 116 – 9" transform="translate(24 1070)">
          <g transform="matrix(1, 0, 0, 1, -22, -1340)" filter="url(#Rectangle_1480-8)">
            <rect id="Rectangle_1480-17" data-name="Rectangle 1480" width="371" height="133" rx="12" transform="translate(22 1340)" fill="#f4f9fa"/>
          </g>
          <g id="Group_2140-8" data-name="Group 2140" transform="translate(-385 -105)">
            <text id="_11_07_2020-8" data-name="11/07/2020" transform="translate(498 213)" fill="#1c1c1c" font-size="14" font-family="ArialMT, Arial"><tspan x="0" y="0">11/07/2020</tspan></text>
          </g>
          <g id="Group_2149-8" data-name="Group 2149" transform="translate(-306 -105)">
            <text id="_12:00_PM_-_2:00_PM-8" data-name="12:00 PM - 2:00 PM" transform="translate(498 213)" fill="#1c1c1c" font-size="14" font-family="ArialMT, Arial"><tspan x="0" y="0">12:00 PM - 2:00 PM</tspan></text>
          </g>
          <g id="Group_2146-8" data-name="Group 2146" transform="translate(-205 -285)">
            <text id="Doctor-8" data-name="Doctor" transform="translate(318 316)" fill="#606060" font-size="12" font-family="ArialMT, Arial"><tspan x="0" y="0">Doctor</tspan></text>
            <text id="Dr_._chan_droku_mar-8" data-name="Dr . chan droku mar" transform="translate(318 339)" fill="#272727" font-size="16" font-family="ArialMT, Arial"><tspan x="0" y="0">Dr . chan droku mar</tspan></text>
          </g>
          <g id="Group_2147-8" data-name="Group 2147" transform="translate(-302.74 -175.99)">
            <text id="Session_08-8" data-name="Session
08" transform="translate(353.74 229.99)" fill="#d65022" font-size="16" font-family="ArialMT, Arial"><tspan x="-28.461" y="0">Session</tspan><tspan font-size="26"><tspan x="-14.46" y="30">08</tspan></tspan></text>
          </g>
          <text id="Time_date-8" data-name="Time/date" transform="translate(113 84)" fill="#606060" font-size="12" font-family="ArialMT, Arial"><tspan x="0" y="0">Time/date</tspan></text>
        </g>
        <g id="Component_116_9-9" data-name="Component 116 – 9" transform="translate(24 1220)">
          <g transform="matrix(1, 0, 0, 1, -22, -1490)" filter="url(#Rectangle_1480-9)">
            <rect id="Rectangle_1480-18" data-name="Rectangle 1480" width="371" height="133" rx="12" transform="translate(22 1490)" fill="#f4f9fa"/>
          </g>
          <g id="Group_2140-9" data-name="Group 2140" transform="translate(-385 -105)">
            <text id="_11_07_2020-9" data-name="11/07/2020" transform="translate(498 213)" fill="#1c1c1c" font-size="14" font-family="ArialMT, Arial"><tspan x="0" y="0">11/07/2020</tspan></text>
          </g>
          <g id="Group_2149-9" data-name="Group 2149" transform="translate(-306 -105)">
            <text id="_12:00_PM_-_2:00_PM-9" data-name="12:00 PM - 2:00 PM" transform="translate(498 213)" fill="#1c1c1c" font-size="14" font-family="ArialMT, Arial"><tspan x="0" y="0">12:00 PM - 2:00 PM</tspan></text>
          </g>
          <g id="Group_2146-9" data-name="Group 2146" transform="translate(-205 -285)">
            <text id="Doctor-9" data-name="Doctor" transform="translate(318 316)" fill="#606060" font-size="12" font-family="ArialMT, Arial"><tspan x="0" y="0">Doctor</tspan></text>
            <text id="Dr_._chan_droku_mar-9" data-name="Dr . chan droku mar" transform="translate(318 339)" fill="#272727" font-size="16" font-family="ArialMT, Arial"><tspan x="0" y="0">Dr . chan droku mar</tspan></text>
          </g>
          <g id="Group_2147-9" data-name="Group 2147" transform="translate(-302.74 -175.99)">
            <text id="Session_08-9" data-name="Session
08" transform="translate(353.74 229.99)" fill="#d65022" font-size="16" font-family="ArialMT, Arial"><tspan x="-28.461" y="0">Session</tspan><tspan font-size="26"><tspan x="-14.46" y="30">08</tspan></tspan></text>
          </g>
          <text id="Time_date-9" data-name="Time/date" transform="translate(113 84)" fill="#606060" font-size="12" font-family="ArialMT, Arial"><tspan x="0" y="0">Time/date</tspan></text>
        </g>
      </g>
    </g>
    <g id="Search" transform="translate(-0.5 -60)">
      <g transform="matrix(1, 0, 0, 1, 0.5, 60)" filter="url(#Path_7)">
        <path id="Path_7-2" data-name="Path 7" d="M8.9,5H362.6c4.914,0,8.9,3.582,8.9,8V40c0,4.418-3.984,8-8.9,8H8.9C3.984,48,0,44.418,0,40V13C0,8.582,3.984,5,8.9,5Z" transform="translate(20 114)" fill="#f4f9fa"/>
      </g>
      <text id="Search-2" data-name="Search" transform="translate(36 190)" fill="#1c1c1c" font-size="16" font-family="Lato-Regular, Lato" opacity="0.2"><tspan x="0" y="16">Search</tspan></text>
      <g id="noun_Search_860389" transform="translate(358.227 192)">
        <g id="Group_5" data-name="Group 5">
          <g id="Group_4" data-name="Group 4">
            <path id="Path_8" data-name="Path 8" d="M12.9,11.737l4.091,4.091a.819.819,0,0,1-1.158,1.158L11.737,12.9A6.549,6.549,0,1,1,12.9,11.737Zm-1.7-.543a4.912,4.912,0,1,0-6.947,0A4.912,4.912,0,0,0,11.194,11.194Z" transform="translate(-1.172 -1.172)" fill="#1c1c1c" fill-rule="evenodd" opacity="0.2"/>
          </g>
        </g>
      </g>
    </g>
    <g id="Group_1500" data-name="Group 1500" transform="translate(0 -5)">
      <text id="Medical_records-2" data-name="Medical records" transform="translate(23 44)" fill="#1e64cc" font-size="24" font-family="Arial-BoldMT, Arial" font-weight="700"><tspan x="0" y="22">Medical records</tspan></text>
      <g id="Group_2650" data-name="Group 2650" transform="translate(322.479 29)">
        <g id="Icon_ionic-ios-notifications" data-name="Icon ionic-ios-notifications" transform="translate(11 3)">
          <circle id="Ellipse_746" data-name="Ellipse 746" cx="23" cy="23" r="23" transform="translate(-0.478 11)" fill="#fff"/>
          <path id="Path_9493" data-name="Path 9493" d="M18.8,32.954c2.71,0,4.191-1.917,4.191-4.618H14.6C14.6,31.037,16.085,32.954,18.8,32.954Z" transform="translate(4.722 17.933)" fill="#ff9241"/>
          <path id="Path_9494" data-name="Path 9494" d="M34.279,29.746C32.938,27.977,30.3,26.941,30.3,19.021c0-8.129-3.59-11.4-6.935-12.18-.314-.078-.54-.183-.54-.514V6.074a2.126,2.126,0,1,0-4.252,0v.253c0,.322-.227.436-.54.514-3.354.793-6.935,4.051-6.935,12.18,0,7.92-2.64,8.948-3.982,10.725A1.729,1.729,0,0,0,8.5,32.517H32.9A1.73,1.73,0,0,0,34.279,29.746Z" transform="translate(2.846 12.097)" fill="url(#linear-gradient)"/>
          <circle id="Ellipse_747" data-name="Ellipse 747" cx="12" cy="12" r="12" transform="translate(30.522)" fill="#ff9241"/>
          <text id="_1" data-name="1" transform="translate(38.521 18)" fill="#fff" font-size="16" font-family="ArialMT, Arial"><tspan x="0" y="0">1</tspan></text>
        </g>
      </g>
    </g>
    <path id="Path_4578" data-name="Path 4578" d="M-1789,6345.073h372" transform="translate(1810 -6156)" fill="none" stroke="#707070" stroke-width="1" opacity="0.2"/>
    <g id="Component_119_35" data-name="Component 119 – 35" transform="translate(0 787)">
      <g transform="matrix(1, 0, 0, 1, 0, -787)" filter="url(#Rectangle_1534)">
        <rect id="Rectangle_1534-2" data-name="Rectangle 1534" width="412" height="60" transform="translate(0 787)" fill="#102646"/>
      </g>
      <g id="Group_2755" data-name="Group 2755" transform="translate(0 -779)">
        <g id="Rectangle_1564" data-name="Rectangle 1564" transform="translate(12 789)" fill="#fff" stroke="#707070" stroke-width="1" opacity="0">
          <rect width="50" height="45" stroke="none"/>
          <rect x="0.5" y="0.5" width="49" height="44" fill="none"/>
        </g>
        <path id="Path_4565" data-name="Path 4565" d="M35.606,24.011l-7.368-7.1,7.368-7.1a1.37,1.37,0,0,0,.424-.982,1.4,1.4,0,0,0-.4-1,1.369,1.369,0,0,0-.982-.424h-.022a1.385,1.385,0,0,0-.982.4l-8.417,8.1a1.42,1.42,0,0,0-.424,1,1.382,1.382,0,0,0,.424,1l8.439,8.1a1.443,1.443,0,0,0,.982.4,1.42,1.42,0,0,0,1-.424,1.4,1.4,0,0,0,.4-1A1.274,1.274,0,0,0,35.606,24.011Z" transform="translate(5.036 792.435)" fill="#fff"/>
      </g>
    </g>
  </g>
</svg>
