<svg xmlns="http://www.w3.org/2000/svg" xmlns:xlink="http://www.w3.org/1999/xlink" width="412" height="1016" viewBox="0 0 412 1016">
  <defs>
    <clipPath id="clip-path">
      <rect width="366.728" height="546.15" fill="none"/>
    </clipPath>
    <filter id="Path_7" x="-4" y="98" width="419.5" height="91" filterUnits="userSpaceOnUse">
      <feOffset dy="3" input="SourceAlpha"/>
      <feGaussianBlur stdDeviation="8" result="blur"/>
      <feFlood flood-opacity="0.078"/>
      <feComposite operator="in" in2="blur"/>
      <feComposite in="SourceGraphic"/>
    </filter>
    <linearGradient id="linear-gradient" x1="0.5" x2="0.5" y2="1" gradientUnits="objectBoundingBox">
      <stop offset="0" stop-color="#4b8ceb"/>
      <stop offset="1" stop-color="#1f64cc"/>
    </linearGradient>
    <filter id="Rectangle_1534" x="-9" y="775" width="430" height="78" filterUnits="userSpaceOnUse">
      <feOffset dy="-3" input="SourceAlpha"/>
      <feGaussianBlur stdDeviation="3" result="blur-2"/>
      <feFlood flood-opacity="0.059"/>
      <feComposite operator="in" in2="blur-2"/>
      <feComposite in="SourceGraphic"/>
    </filter>
    <clipPath id="clip-Medical_history_1">
      <rect width="412" height="1016"/>
    </clipPath>
  </defs>
  <g id="Medical_history_1" data-name="Medical history – 1" clip-path="url(#clip-Medical_history_1)">
    <rect width="412" height="1016" fill="#e9eff4"/>
    <g id="Tabs" transform="translate(25 229.36)">
      <text id="All_Sessions" data-name="All Sessions" transform="translate(0 -0.36)" fill="#808495" font-size="15" font-family="ArialMT, Arial"><tspan x="0" y="14">All Sessions</tspan></text>
      <text id="Medical_Records" data-name="Medical Records" transform="translate(119 -0.36)" fill="#1e64cc" font-size="15" font-family="Arial-BoldMT, Arial" font-weight="700"><tspan x="0" y="14">Medical Records</tspan></text>
      <text id="Lab_report" data-name="Lab report" transform="translate(286 -0.36)" fill="#808495" font-size="15" font-family="ArialMT, Arial"><tspan x="0" y="14">Lab report</tspan></text>
      <g id="Group_43" data-name="Group 43" transform="translate(0 37.589)">
        <rect id="Rectangle_28" data-name="Rectangle 28" width="140" height="4" rx="2" transform="translate(110 0.051)" fill="#ff7600"/>
        <line id="Line_3" data-name="Line 3" x2="360" transform="translate(0 2.051)" fill="none" stroke="#1c1c1c" stroke-linecap="round" stroke-width="0.5" opacity="0.2"/>
      </g>
    </g>
    <g id="Languages" transform="translate(21 292.716)" clip-path="url(#clip-path)">
      <g id="Languages-2" data-name="Languages" transform="translate(-18 -508)">
        <text id="Dermatologist_-_Noemi_Shinte" data-name="Dermatologist - Noemi Shinte" transform="translate(19 527)" fill="#2e5b9f" font-size="14" font-family="Lato-Bold, Lato" font-weight="700"><tspan x="0" y="14">Dermatologist - Noemi Shinte</tspan></text>
        <text id="Download" transform="translate(312 527)" fill="#1e64cc" font-size="14" font-family="Lato-Bold, Lato" font-weight="700"><tspan x="2.817" y="14">Download</tspan></text>
        <g id="Group_45" data-name="Group 45" transform="translate(0 72)">
          <text id="_01_02_2020" data-name="01/02/2020" transform="translate(18 436)" fill="#8eb1e5" font-size="12" font-family="Lato-Regular, Lato"><tspan x="0" y="12">01/02/2020</tspan></text>
        </g>
        <line id="Line_4" data-name="Line 4" x2="336" transform="translate(19 560)" fill="none" stroke="#1c1c1c" stroke-linecap="round" stroke-width="0.5" opacity="0.2"/>
        <g id="noun_Download_1569899" transform="translate(539 391)">
          <g id="Group_61" data-name="Group 61" transform="translate(-273 -839.71)">
            <path id="Path_264" data-name="Path 264" d="M37.443,990a.789.789,0,0,1-.466-.191l-5.765-5.426a.679.679,0,0,1-.026-.959.7.7,0,0,1,.959-.026l4.621,4.356v-9.709a.678.678,0,0,1,1.357,0v9.709l4.621-4.356a.71.71,0,0,1,.959.026.679.679,0,0,1-.026.959l-5.765,5.426a.6.6,0,0,1-.466.191Z" transform="translate(-1.983 0)" fill="#0e58c7"/>
            <path id="Path_265" data-name="Path 265" d="M28.678,1028.362a.678.678,0,0,0,0,1.357H42.243a.678.678,0,0,0,0-1.357Z" transform="translate(0 -37.009)" fill="#0e58c7"/>
          </g>
        </g>
      </g>
      <g id="Languages-3" data-name="Languages" transform="translate(-18 -435)">
        <text id="Cardiologist_-_Steven_Pauliner" data-name="Cardiologist - Steven Pauliner" transform="translate(19 527)" fill="#2e5b9f" font-size="14" font-family="Lato-Bold, Lato" font-weight="700"><tspan x="0" y="14">Cardiologist - Steven Pauliner</tspan></text>
        <text id="Download-2" data-name="Download" transform="translate(312 527)" fill="#1e64cc" font-size="14" font-family="Lato-Bold, Lato" font-weight="700"><tspan x="2.817" y="14">Download</tspan></text>
        <g id="Group_45-2" data-name="Group 45" transform="translate(0 72)">
          <text id="_15_11_2019" data-name="15/11/2019" transform="translate(18 436)" fill="#8eb1e5" font-size="12" font-family="Lato-Regular, Lato"><tspan x="0" y="12">15/11/2019</tspan></text>
        </g>
        <line id="Line_4-2" data-name="Line 4" x2="336" transform="translate(19 560)" fill="none" stroke="#1c1c1c" stroke-linecap="round" stroke-width="0.5" opacity="0.2"/>
        <g id="noun_Download_1569899-2" data-name="noun_Download_1569899" transform="translate(539 391)">
          <g id="Group_61-2" data-name="Group 61" transform="translate(-273 -839.71)">
            <path id="Path_264-2" data-name="Path 264" d="M37.443,990a.789.789,0,0,1-.466-.191l-5.765-5.426a.679.679,0,0,1-.026-.959.7.7,0,0,1,.959-.026l4.621,4.356v-9.709a.678.678,0,0,1,1.357,0v9.709l4.621-4.356a.71.71,0,0,1,.959.026.679.679,0,0,1-.026.959l-5.765,5.426a.6.6,0,0,1-.466.191Z" transform="translate(-1.983 0)" fill="#0e58c7"/>
            <path id="Path_265-2" data-name="Path 265" d="M28.678,1028.362a.678.678,0,0,0,0,1.357H42.243a.678.678,0,0,0,0-1.357Z" transform="translate(0 -37.009)" fill="#0e58c7"/>
          </g>
        </g>
      </g>
      <g id="Languages-4" data-name="Languages" transform="translate(-18 -362)">
        <text id="Ginecologist_-_Chiara_Uber" data-name="Ginecologist - Chiara Uber" transform="translate(19 527)" fill="#2e5b9f" font-size="14" font-family="Lato-Bold, Lato" font-weight="700"><tspan x="0" y="14">Ginecologist - Chiara Uber</tspan></text>
        <text id="Download-3" data-name="Download" transform="translate(312 527)" fill="#1e64cc" font-size="14" font-family="Lato-Bold, Lato" font-weight="700"><tspan x="2.817" y="14">Download</tspan></text>
        <g id="Group_45-3" data-name="Group 45" transform="translate(0 72)">
          <text id="_14_10_2019" data-name="14/10/2019" transform="translate(18 436)" fill="#8eb1e5" font-size="12" font-family="Lato-Regular, Lato"><tspan x="0" y="12">14/10/2019</tspan></text>
        </g>
        <line id="Line_4-3" data-name="Line 4" x2="336" transform="translate(19 560)" fill="none" stroke="#1c1c1c" stroke-linecap="round" stroke-width="0.5" opacity="0.2"/>
        <g id="noun_Download_1569899-3" data-name="noun_Download_1569899" transform="translate(539 391)">
          <g id="Group_61-3" data-name="Group 61" transform="translate(-273 -839.71)">
            <path id="Path_264-3" data-name="Path 264" d="M37.443,990a.789.789,0,0,1-.466-.191l-5.765-5.426a.679.679,0,0,1-.026-.959.7.7,0,0,1,.959-.026l4.621,4.356v-9.709a.678.678,0,0,1,1.357,0v9.709l4.621-4.356a.71.71,0,0,1,.959.026.679.679,0,0,1-.026.959l-5.765,5.426a.6.6,0,0,1-.466.191Z" transform="translate(-1.983 0)" fill="#0e58c7"/>
            <path id="Path_265-3" data-name="Path 265" d="M28.678,1028.362a.678.678,0,0,0,0,1.357H42.243a.678.678,0,0,0,0-1.357Z" transform="translate(0 -37.009)" fill="#0e58c7"/>
          </g>
        </g>
      </g>
      <g id="Languages-5" data-name="Languages" transform="translate(-18 -289)">
        <text id="Orthopedic_-_Stefano_Lanza" data-name="Orthopedic - Stefano Lanza" transform="translate(19 527)" fill="#2e5b9f" font-size="14" font-family="Lato-Bold, Lato" font-weight="700"><tspan x="0" y="14">Orthopedic - Stefano Lanza</tspan></text>
        <text id="Download-4" data-name="Download" transform="translate(312 527)" fill="#1e64cc" font-size="14" font-family="Lato-Bold, Lato" font-weight="700"><tspan x="2.817" y="14">Download</tspan></text>
        <g id="Group_45-4" data-name="Group 45" transform="translate(0 72)">
          <text id="_02_09_2019" data-name="02/09/2019" transform="translate(18 436)" fill="#8eb1e5" font-size="12" font-family="Lato-Regular, Lato"><tspan x="0" y="12">02/09/2019</tspan></text>
        </g>
        <line id="Line_4-4" data-name="Line 4" x2="336" transform="translate(19 560)" fill="none" stroke="#1c1c1c" stroke-linecap="round" stroke-width="0.5" opacity="0.2"/>
        <g id="noun_Download_1569899-4" data-name="noun_Download_1569899" transform="translate(539 391)">
          <g id="Group_61-4" data-name="Group 61" transform="translate(-273 -839.71)">
            <path id="Path_264-4" data-name="Path 264" d="M37.443,990a.789.789,0,0,1-.466-.191l-5.765-5.426a.679.679,0,0,1-.026-.959.7.7,0,0,1,.959-.026l4.621,4.356v-9.709a.678.678,0,0,1,1.357,0v9.709l4.621-4.356a.71.71,0,0,1,.959.026.679.679,0,0,1-.026.959l-5.765,5.426a.6.6,0,0,1-.466.191Z" transform="translate(-1.983 0)" fill="#0e58c7"/>
            <path id="Path_265-4" data-name="Path 265" d="M28.678,1028.362a.678.678,0,0,0,0,1.357H42.243a.678.678,0,0,0,0-1.357Z" transform="translate(0 -37.009)" fill="#0e58c7"/>
          </g>
        </g>
      </g>
      <g id="Languages-6" data-name="Languages" transform="translate(-18 -216)">
        <text id="Psychiatrist_-_Giovanna_Conte" data-name="Psychiatrist - Giovanna Conte" transform="translate(19 527)" fill="#2e5b9f" font-size="14" font-family="Lato-Bold, Lato" font-weight="700"><tspan x="0" y="14">Psychiatrist - Giovanna Conte</tspan></text>
        <text id="Download-5" data-name="Download" transform="translate(312 527)" fill="#1e64cc" font-size="14" font-family="Lato-Bold, Lato" font-weight="700"><tspan x="2.817" y="14">Download</tspan></text>
        <g id="Group_45-5" data-name="Group 45" transform="translate(0 72)">
          <text id="_01_09_2019" data-name="01/09/2019" transform="translate(18 436)" fill="#8eb1e5" font-size="12" font-family="Lato-Regular, Lato"><tspan x="0" y="12">01/09/2019</tspan></text>
        </g>
        <line id="Line_4-5" data-name="Line 4" x2="336" transform="translate(19 560)" fill="none" stroke="#1c1c1c" stroke-linecap="round" stroke-width="0.5" opacity="0.2"/>
        <g id="noun_Download_1569899-5" data-name="noun_Download_1569899" transform="translate(539 391)">
          <g id="Group_61-5" data-name="Group 61" transform="translate(-273 -839.71)">
            <path id="Path_264-5" data-name="Path 264" d="M37.443,990a.789.789,0,0,1-.466-.191l-5.765-5.426a.679.679,0,0,1-.026-.959.7.7,0,0,1,.959-.026l4.621,4.356v-9.709a.678.678,0,0,1,1.357,0v9.709l4.621-4.356a.71.71,0,0,1,.959.026.679.679,0,0,1-.026.959l-5.765,5.426a.6.6,0,0,1-.466.191Z" transform="translate(-1.983 0)" fill="#0e58c7"/>
            <path id="Path_265-5" data-name="Path 265" d="M28.678,1028.362a.678.678,0,0,0,0,1.357H42.243a.678.678,0,0,0,0-1.357Z" transform="translate(0 -37.009)" fill="#0e58c7"/>
          </g>
        </g>
      </g>
      <g id="Languages-7" data-name="Languages" transform="translate(-18 -143)">
        <text id="Dentist_-_Clara_Odding" data-name="Dentist - Clara Odding" transform="translate(19 527)" fill="#2e5b9f" font-size="14" font-family="Lato-Bold, Lato" font-weight="700"><tspan x="0" y="14">Dentist - Clara Odding</tspan></text>
        <text id="Download-6" data-name="Download" transform="translate(312 527)" fill="#1e64cc" font-size="14" font-family="Lato-Bold, Lato" font-weight="700"><tspan x="2.817" y="14">Download</tspan></text>
        <g id="Group_45-6" data-name="Group 45" transform="translate(0 72)">
          <text id="_06_06_2019" data-name="06/06/2019" transform="translate(18 436)" fill="#8eb1e5" font-size="12" font-family="Lato-Regular, Lato"><tspan x="0" y="12">06/06/2019</tspan></text>
        </g>
        <line id="Line_4-6" data-name="Line 4" x2="336" transform="translate(19 560)" fill="none" stroke="#1c1c1c" stroke-linecap="round" stroke-width="0.5" opacity="0.2"/>
        <g id="noun_Download_1569899-6" data-name="noun_Download_1569899" transform="translate(539 391)">
          <g id="Group_61-6" data-name="Group 61" transform="translate(-273 -839.71)">
            <path id="Path_264-6" data-name="Path 264" d="M37.443,990a.789.789,0,0,1-.466-.191l-5.765-5.426a.679.679,0,0,1-.026-.959.7.7,0,0,1,.959-.026l4.621,4.356v-9.709a.678.678,0,0,1,1.357,0v9.709l4.621-4.356a.71.71,0,0,1,.959.026.679.679,0,0,1-.026.959l-5.765,5.426a.6.6,0,0,1-.466.191Z" transform="translate(-1.983 0)" fill="#0e58c7"/>
            <path id="Path_265-6" data-name="Path 265" d="M28.678,1028.362a.678.678,0,0,0,0,1.357H42.243a.678.678,0,0,0,0-1.357Z" transform="translate(0 -37.009)" fill="#0e58c7"/>
          </g>
        </g>
      </g>
      <g id="Languages-8" data-name="Languages" transform="translate(-18 -70)">
        <text id="General_Practitioner_-_Martina_Garnier" data-name="General Practitioner - Martina  Garnier" transform="translate(19 527)" fill="#2e5b9f" font-size="14" font-family="Lato-Bold, Lato" font-weight="700"><tspan x="0" y="14" xml:space="preserve">General Practitioner - Martina  Garnier</tspan></text>
        <text id="Download-7" data-name="Download" transform="translate(312 527)" fill="#1e64cc" font-size="14" font-family="Lato-Bold, Lato" font-weight="700"><tspan x="2.817" y="14">Download</tspan></text>
        <g id="Group_45-7" data-name="Group 45" transform="translate(0 72)">
          <text id="_02_09_2019-2" data-name="02/09/2019" transform="translate(18 436)" fill="#8eb1e5" font-size="12" font-family="Lato-Regular, Lato"><tspan x="0" y="12">02/09/2019</tspan></text>
        </g>
        <line id="Line_4-7" data-name="Line 4" x2="336" transform="translate(19 560)" fill="none" stroke="#1c1c1c" stroke-linecap="round" stroke-width="0.5" opacity="0.2"/>
        <g id="noun_Download_1569899-7" data-name="noun_Download_1569899" transform="translate(539 391)">
          <g id="Group_61-7" data-name="Group 61" transform="translate(-273 -839.71)">
            <path id="Path_264-7" data-name="Path 264" d="M37.443,990a.789.789,0,0,1-.466-.191l-5.765-5.426a.679.679,0,0,1-.026-.959.7.7,0,0,1,.959-.026l4.621,4.356v-9.709a.678.678,0,0,1,1.357,0v9.709l4.621-4.356a.71.71,0,0,1,.959.026.679.679,0,0,1-.026.959l-5.765,5.426a.6.6,0,0,1-.466.191Z" transform="translate(-1.983 0)" fill="#0e58c7"/>
            <path id="Path_265-7" data-name="Path 265" d="M28.678,1028.362a.678.678,0,0,0,0,1.357H42.243a.678.678,0,0,0,0-1.357Z" transform="translate(0 -37.009)" fill="#0e58c7"/>
          </g>
        </g>
      </g>
      <g id="Languages-9" data-name="Languages" transform="translate(-18 3)">
        <text id="General_Practitioner_-_Martina_Garnier-2" data-name="General Practitioner - Martina  Garnier" transform="translate(19 527)" fill="#2e5b9f" font-size="14" font-family="Lato-Bold, Lato" font-weight="700"><tspan x="0" y="14" xml:space="preserve">General Practitioner - Martina  Garnier</tspan></text>
        <text id="Download-8" data-name="Download" transform="translate(312 527)" fill="#1e64cc" font-size="14" font-family="Lato-Bold, Lato" font-weight="700"><tspan x="2.817" y="14">Download</tspan></text>
        <g id="Group_45-8" data-name="Group 45" transform="translate(0 72)">
          <text id="_02_09_2019-3" data-name="02/09/2019" transform="translate(18 436)" fill="#8eb1e5" font-size="12" font-family="Lato-Regular, Lato"><tspan x="0" y="12">02/09/2019</tspan></text>
        </g>
        <line id="Line_4-8" data-name="Line 4" x2="336" transform="translate(19 560)" fill="none" stroke="#1c1c1c" stroke-linecap="round" stroke-width="0.5" opacity="0.2"/>
        <g id="noun_Download_1569899-8" data-name="noun_Download_1569899" transform="translate(539 391)">
          <g id="Group_61-8" data-name="Group 61" transform="translate(-273 -839.71)">
            <path id="Path_264-8" data-name="Path 264" d="M37.443,990a.789.789,0,0,1-.466-.191l-5.765-5.426a.679.679,0,0,1-.026-.959.7.7,0,0,1,.959-.026l4.621,4.356v-9.709a.678.678,0,0,1,1.357,0v9.709l4.621-4.356a.71.71,0,0,1,.959.026.679.679,0,0,1-.026.959l-5.765,5.426a.6.6,0,0,1-.466.191Z" transform="translate(-1.983 0)" fill="#0e58c7"/>
            <path id="Path_265-8" data-name="Path 265" d="M28.678,1028.362a.678.678,0,0,0,0,1.357H42.243a.678.678,0,0,0,0-1.357Z" transform="translate(0 -37.009)" fill="#0e58c7"/>
          </g>
        </g>
      </g>
    </g>
    <g id="Search" transform="translate(-0.5 -60)">
      <g transform="matrix(1, 0, 0, 1, 0.5, 60)" filter="url(#Path_7)">
        <path id="Path_7-2" data-name="Path 7" d="M8.9,5H362.6c4.914,0,8.9,3.582,8.9,8V40c0,4.418-3.984,8-8.9,8H8.9C3.984,48,0,44.418,0,40V13C0,8.582,3.984,5,8.9,5Z" transform="translate(20 114)" fill="#f4f9fa"/>
      </g>
      <text id="Search-2" data-name="Search" transform="translate(36 190)" fill="#1c1c1c" font-size="16" font-family="Lato-Regular, Lato" opacity="0.2"><tspan x="0" y="16">Search</tspan></text>
      <g id="noun_Search_860389" transform="translate(358.227 192)">
        <g id="Group_5" data-name="Group 5">
          <g id="Group_4" data-name="Group 4">
            <path id="Path_8" data-name="Path 8" d="M12.9,11.737l4.091,4.091a.819.819,0,0,1-1.158,1.158L11.737,12.9A6.549,6.549,0,1,1,12.9,11.737Zm-1.7-.543a4.912,4.912,0,1,0-6.947,0A4.912,4.912,0,0,0,11.194,11.194Z" transform="translate(-1.172 -1.172)" fill="#1c1c1c" fill-rule="evenodd" opacity="0.2"/>
          </g>
        </g>
      </g>
    </g>
    <g id="Group_1500" data-name="Group 1500" transform="translate(0 -5)">
      <text id="Medical_records-2" data-name="Medical records" transform="translate(23 44)" fill="#1e64cc" font-size="24" font-family="Arial-BoldMT, Arial" font-weight="700"><tspan x="0" y="22">Medical records</tspan></text>
      <g id="Group_2650" data-name="Group 2650" transform="translate(322.479 29)">
        <g id="Icon_ionic-ios-notifications" data-name="Icon ionic-ios-notifications" transform="translate(11 3)">
          <circle id="Ellipse_746" data-name="Ellipse 746" cx="23" cy="23" r="23" transform="translate(-0.478 11)" fill="#fff"/>
          <path id="Path_9493" data-name="Path 9493" d="M18.8,32.954c2.71,0,4.191-1.917,4.191-4.618H14.6C14.6,31.037,16.085,32.954,18.8,32.954Z" transform="translate(4.722 17.933)" fill="#ff9241"/>
          <path id="Path_9494" data-name="Path 9494" d="M34.279,29.746C32.938,27.977,30.3,26.941,30.3,19.021c0-8.129-3.59-11.4-6.935-12.18-.314-.078-.54-.183-.54-.514V6.074a2.126,2.126,0,1,0-4.252,0v.253c0,.322-.227.436-.54.514-3.354.793-6.935,4.051-6.935,12.18,0,7.92-2.64,8.948-3.982,10.725A1.729,1.729,0,0,0,8.5,32.517H32.9A1.73,1.73,0,0,0,34.279,29.746Z" transform="translate(2.846 12.097)" fill="url(#linear-gradient)"/>
          <circle id="Ellipse_747" data-name="Ellipse 747" cx="12" cy="12" r="12" transform="translate(30.522)" fill="#ff9241"/>
          <text id="_1" data-name="1" transform="translate(38.521 18)" fill="#fff" font-size="16" font-family="ArialMT, Arial"><tspan x="0" y="0">1</tspan></text>
        </g>
      </g>
    </g>
    <path id="Path_4578" data-name="Path 4578" d="M-1789,6345.073h372" transform="translate(1810 -6156)" fill="none" stroke="#707070" stroke-width="1" opacity="0.2"/>
    <g id="Component_119_37" data-name="Component 119 – 37" transform="translate(0 787)">
      <g transform="matrix(1, 0, 0, 1, 0, -787)" filter="url(#Rectangle_1534)">
        <rect id="Rectangle_1534-2" data-name="Rectangle 1534" width="412" height="60" transform="translate(0 787)" fill="#102646"/>
      </g>
      <g id="Group_2755" data-name="Group 2755" transform="translate(0 -779)">
        <g id="Rectangle_1564" data-name="Rectangle 1564" transform="translate(12 789)" fill="#fff" stroke="#707070" stroke-width="1" opacity="0">
          <rect width="50" height="45" stroke="none"/>
          <rect x="0.5" y="0.5" width="49" height="44" fill="none"/>
        </g>
        <path id="Path_4565" data-name="Path 4565" d="M35.606,24.011l-7.368-7.1,7.368-7.1a1.37,1.37,0,0,0,.424-.982,1.4,1.4,0,0,0-.4-1,1.369,1.369,0,0,0-.982-.424h-.022a1.385,1.385,0,0,0-.982.4l-8.417,8.1a1.42,1.42,0,0,0-.424,1,1.382,1.382,0,0,0,.424,1l8.439,8.1a1.443,1.443,0,0,0,.982.4,1.42,1.42,0,0,0,1-.424,1.4,1.4,0,0,0,.4-1A1.274,1.274,0,0,0,35.606,24.011Z" transform="translate(5.036 792.435)" fill="#fff"/>
      </g>
    </g>
  </g>
</svg>
