<svg xmlns="http://www.w3.org/2000/svg" xmlns:xlink="http://www.w3.org/1999/xlink" width="412" height="1140" viewBox="0 0 412 1140">
  <defs>
    <filter id="bg" x="-3" y="868" width="406" height="187" filterUnits="userSpaceOnUse">
      <feOffset dy="4" input="SourceAlpha"/>
      <feGaussianBlur stdDeviation="8" result="blur"/>
      <feFlood flood-color="#455b63" flood-opacity="0.078"/>
      <feComposite operator="in" in2="blur"/>
      <feComposite in="SourceGraphic"/>
    </filter>
    <filter id="Ellipse_378" x="344" y="874" width="49" height="49" filterUnits="userSpaceOnUse">
      <feOffset dy="3" input="SourceAlpha"/>
      <feGaussianBlur stdDeviation="3" result="blur-2"/>
      <feFlood flood-opacity="0.059"/>
      <feComposite operator="in" in2="blur-2"/>
      <feComposite in="SourceGraphic"/>
    </filter>
    <filter id="Path_7" x="-4" y="173" width="419.5" height="91" filterUnits="userSpaceOnUse">
      <feOffset dy="3" input="SourceAlpha"/>
      <feGaussianBlur stdDeviation="8" result="blur-3"/>
      <feFlood flood-opacity="0.078"/>
      <feComposite operator="in" in2="blur-3"/>
      <feComposite in="SourceGraphic"/>
    </filter>
    <clipPath id="clip-path">
      <rect width="372" height="380" fill="none"/>
    </clipPath>
    <filter id="bg-2" x="-3" y="337" width="420" height="189" filterUnits="userSpaceOnUse">
      <feOffset dy="4" input="SourceAlpha"/>
      <feGaussianBlur stdDeviation="8" result="blur-4"/>
      <feFlood flood-color="#455b63" flood-opacity="0.078"/>
      <feComposite operator="in" in2="blur-4"/>
      <feComposite in="SourceGraphic"/>
    </filter>
    <filter id="bg-3" x="-3" y="532" width="420" height="189" filterUnits="userSpaceOnUse">
      <feOffset dy="4" input="SourceAlpha"/>
      <feGaussianBlur stdDeviation="8" result="blur-5"/>
      <feFlood flood-color="#455b63" flood-opacity="0.078"/>
      <feComposite operator="in" in2="blur-5"/>
      <feComposite in="SourceGraphic"/>
    </filter>
    <filter id="Rectangle_1556" x="266" y="265" width="151" height="78" filterUnits="userSpaceOnUse">
      <feOffset dy="1" input="SourceAlpha"/>
      <feGaussianBlur stdDeviation="8" result="blur-6"/>
      <feFlood flood-opacity="0.02"/>
      <feComposite operator="in" in2="blur-6"/>
      <feComposite in="SourceGraphic"/>
    </filter>
    <filter id="Ellipse_378-2" x="134" y="285" width="41" height="41" filterUnits="userSpaceOnUse">
      <feOffset dy="3" input="SourceAlpha"/>
      <feGaussianBlur stdDeviation="3" result="blur-7"/>
      <feFlood flood-opacity="0.059"/>
      <feComposite operator="in" in2="blur-7"/>
      <feComposite in="SourceGraphic"/>
    </filter>
    <linearGradient id="linear-gradient" x1="0.5" x2="0.5" y2="1" gradientUnits="objectBoundingBox">
      <stop offset="0" stop-color="#37aadd"/>
      <stop offset="1" stop-color="#1f64cc"/>
    </linearGradient>
    <filter id="Path_7-2" x="-3" y="712.527" width="417.41" height="95.559" filterUnits="userSpaceOnUse">
      <feOffset dy="3" input="SourceAlpha"/>
      <feGaussianBlur stdDeviation="8" result="blur-8"/>
      <feFlood flood-opacity="0.078"/>
      <feComposite operator="in" in2="blur-8"/>
      <feComposite in="SourceGraphic"/>
    </filter>
    <linearGradient id="linear-gradient-2" x1="0.5" x2="0.5" y2="1" gradientUnits="objectBoundingBox">
      <stop offset="0" stop-color="#4b8ceb"/>
      <stop offset="1" stop-color="#1f64cc"/>
    </linearGradient>
    <clipPath id="clip-My_health_2">
      <rect width="412" height="1140"/>
    </clipPath>
  </defs>
  <g id="My_health_2" data-name="My health – 2" clip-path="url(#clip-My_health_2)">
    <rect width="412" height="1140" fill="#e9eff4"/>
    <g id="card" transform="translate(5 706)">
      <g transform="matrix(1, 0, 0, 1, -5, -706)" filter="url(#bg)">
        <rect id="bg-4" data-name="bg" width="358" height="139" rx="12" transform="translate(21 888)" fill="#f0f6fa"/>
      </g>
      <g id="Languages" transform="translate(92 -322)">
        <text id="All_Records_Reports" data-name="All Records / Reports" transform="translate(19 527)" fill="#0e58c7" font-size="14" font-family="Arial-BoldMT, Arial" font-weight="700"><tspan x="0" y="13">All Records / Reports</tspan></text>
      </g>
      <g id="Languages-2" data-name="Languages" transform="translate(24 -245)">
        <text id="_80_Sessions" data-name="80 Sessions" transform="translate(19 527)" fill="#1e64cc" font-size="14" font-family="Arial-BoldMT, Arial" font-weight="700"><tspan x="0" y="13">80 </tspan><tspan y="13" font-size="12">Sessions</tspan></text>
      </g>
      <g id="Languages-3" data-name="Languages" transform="translate(139 -245)">
        <text id="_02_Records" data-name="02 Records" transform="translate(19 527)" fill="#1e64cc" font-size="14" font-family="Arial-BoldMT, Arial" font-weight="700"><tspan x="0" y="13">02 </tspan><tspan y="13" font-size="12">Records</tspan></text>
      </g>
      <text id="Last_Updated_Mon_01_Jan" data-name="Last Updated Mon, 01 Jan" transform="translate(111 243)" fill="#1c1c1c" font-size="12" font-family="ArialMT, Arial" opacity="0.5"><tspan x="0" y="0">Last Updated Mon, 01 Jan</tspan></text>
      <g id="Group_3921" data-name="Group 3921">
        <circle id="Ellipse_377" data-name="Ellipse 377" cx="30" cy="30" r="30" transform="translate(31 195)" fill="#edf4fd"/>
        <path id="Icon_awesome-folder-plus" data-name="Icon awesome-folder-plus" d="M20.542,7.333h-8.5L9.208,4.5H2.125A2.125,2.125,0,0,0,0,6.625v12.75A2.125,2.125,0,0,0,2.125,21.5H20.542a2.125,2.125,0,0,0,2.125-2.125V9.458A2.125,2.125,0,0,0,20.542,7.333Zm-4.25,7.437a.708.708,0,0,1-.708.708H12.4v3.187a.708.708,0,0,1-.708.708h-.708a.708.708,0,0,1-.708-.708V15.479H7.083a.708.708,0,0,1-.708-.708v-.708a.708.708,0,0,1,.708-.708h3.187V10.167a.708.708,0,0,1,.708-.708h.708a.708.708,0,0,1,.708.708v3.188h3.188a.708.708,0,0,1,.708.708Z" transform="translate(50 212.5)" fill="#1e64cc"/>
      </g>
      <g id="Group_2700" data-name="Group 2700">
        <g transform="matrix(1, 0, 0, 1, -5, -706)" filter="url(#Ellipse_378)">
          <circle id="Ellipse_378-3" data-name="Ellipse 378" cx="15.5" cy="15.5" r="15.5" transform="translate(353 880)" fill="#fe7614"/>
        </g>
        <text id="_2" data-name="2" transform="translate(360 195)" fill="#fff" font-size="14" font-family="ArialMT, Arial"><tspan x="0" y="0">2</tspan></text>
      </g>
      <text id="_15_Lab_reports" data-name="15 Lab reports" transform="translate(259 282)" fill="#1e64cc" font-size="14" font-family="Arial-BoldMT, Arial" font-weight="700"><tspan x="0" y="13">15 </tspan><tspan y="13" font-size="12">Lab reports</tspan></text>
    </g>
    <text id="Medical_History" data-name="Medical History" transform="translate(21 848)" fill="#0e58c7" font-size="18" font-family="Arial-BoldMT, Arial" font-weight="700"><tspan x="0" y="16">Medical History</tspan></text>
    <g id="Search" transform="translate(-0.5 15)">
      <g transform="matrix(1, 0, 0, 1, 0.5, -15)" filter="url(#Path_7)">
        <path id="Path_7-3" data-name="Path 7" d="M8.9,5H362.6c4.914,0,8.9,3.582,8.9,8V40c0,4.418-3.984,8-8.9,8H8.9C3.984,48,0,44.418,0,40V13C0,8.582,3.984,5,8.9,5Z" transform="translate(20 189)" fill="#f4f8fa"/>
      </g>
      <text id="Search-2" data-name="Search" transform="translate(36 190)" fill="#1c1c1c" font-size="16" font-family="Lato-Regular, Lato" opacity="0.2"><tspan x="0" y="16">Search</tspan></text>
      <g id="noun_Search_860389" transform="translate(358.227 192)">
        <g id="Group_5" data-name="Group 5">
          <g id="Group_4" data-name="Group 4">
            <path id="Path_8" data-name="Path 8" d="M12.9,11.737l4.091,4.091a.819.819,0,0,1-1.158,1.158L11.737,12.9A6.549,6.549,0,1,1,12.9,11.737Zm-1.7-.543a4.912,4.912,0,1,0-6.947,0A4.912,4.912,0,0,0,11.194,11.194Z" transform="translate(-1.172 -1.172)" fill="#1c1c1c" fill-rule="evenodd" opacity="0.2"/>
          </g>
        </g>
      </g>
    </g>
    <text id="Appointment" transform="translate(21 291)" fill="#1e64cc" font-size="18" font-family="Arial-BoldMT, Arial" font-weight="700"><tspan x="0" y="16">Appointment</tspan></text>
    <g id="content" transform="translate(5 105)">
      <g id="trips" transform="translate(16 224)" clip-path="url(#clip-path)">
        <g id="trips-2" data-name="trips" transform="translate(-16 -154)">
          <g id="card-2" data-name="card">
            <g transform="matrix(1, 0, 0, 1, -5, -175)" filter="url(#bg-2)">
              <rect id="bg-5" data-name="bg" width="372" height="141" rx="12" transform="translate(21 357)" fill="#f0f6fa"/>
            </g>
            <g id="Languages-4" data-name="Languages" transform="translate(28 197)">
              <text id="Dr._Clara_Odding" data-name="Dr. Clara Odding" fill="#2e5b9f" font-size="14" font-family="Arial-BoldMT, Arial" font-weight="700"><tspan x="0" y="13">Dr. Clara Odding</tspan></text>
              <text id="Reschedule_" data-name="Reschedule " transform="translate(270)" fill="#1e64cc" font-size="14" font-family="Arial-BoldMT, Arial" font-weight="700"><tspan x="1.414" y="13">Reschedule </tspan></text>
              <g id="noun_Download_1569899" transform="translate(249.451 3)">
                <g id="Group_61" data-name="Group 61" transform="translate(0 0)">
                  <g id="noun_Pencil_2174975" transform="translate(0 0)">
                    <g id="Layer_2" data-name="Layer 2">
                      <g id="Layer_1" data-name="Layer 1">
                        <rect id="Rectangle_78" data-name="Rectangle 78" width="13" height="13" transform="translate(0.549 0)" fill="none"/>
                        <path id="Path_398" data-name="Path 398" d="M17.243,10.707,14.15,7.618,21.231.535a1.84,1.84,0,0,1,2.6,0l.49.49a1.843,1.843,0,0,1,0,2.6ZM15.5,7.618l1.749,1.749,6.4-6.413a.887.887,0,0,0,0-1.256l-.49-.491a.891.891,0,0,0-1.257,0Z" transform="translate(-12.396 0.217)" fill="#0e58c7"/>
                        <path id="Path_399" data-name="Path 399" d="M.7,71.278a.588.588,0,0,1-.57-.74L.9,67.644a.625.625,0,0,1,1.047-.282l2.08,2.08a.625.625,0,0,1-.281,1.047l-2.9.77A.563.563,0,0,1,.7,71.278Zm.974-2.842-.464,1.742,1.749-.464Z" transform="translate(-0.112 -58.571)" fill="#0e58c7"/>
                        <path id="Path_400" data-name="Path 400" d="M65.389,14.885a.471.471,0,0,1-.336-.14l-2.19-2.189a.476.476,0,1,1,.673-.673l2.189,2.19a.476.476,0,0,1-.336.812Z" transform="translate(-54.901 -10.062)" fill="#0e58c7"/>
                      </g>
                    </g>
                  </g>
                </g>
              </g>
              <g id="noun_Info_1174604" transform="translate(121.518 3.353)">
                <g id="Group_76" data-name="Group 76" transform="translate(0 0)">
                  <g id="Group_75" data-name="Group 75">
                    <g id="Group_74" data-name="Group 74">
                      <g id="Group_73" data-name="Group 73">
                        <g id="Group_72" data-name="Group 72">
                          <circle id="Ellipse_68" data-name="Ellipse 68" cx="6.104" cy="6.104" r="6.104" fill="none" stroke="#0e58c7" stroke-width="2"/>
                          <path id="Path_413" data-name="Path 413" d="M17.013,15.667l-.131.363q-.589.157-.939.24a3.575,3.575,0,0,1-.814.083,2.173,2.173,0,0,1-1.109-.236.691.691,0,0,1-.4-.6,1.455,1.455,0,0,1,.03-.288,2.511,2.511,0,0,1,.1-.333l.487-1.178q.065-.169.11-.321a.984.984,0,0,0,.045-.276.346.346,0,0,0-.137-.315,1.055,1.055,0,0,0-.523-.089,1.959,1.959,0,0,0-.389.04q-.2.04-.342.077l.131-.363q.482-.133.921-.228a3.958,3.958,0,0,1,.832-.095,2.121,2.121,0,0,1,1.091.232.689.689,0,0,1,.383.6,2.326,2.326,0,0,1-.027.27,1.32,1.32,0,0,1-.1.355l-.487,1.174a2.406,2.406,0,0,0-.107.323,1.19,1.19,0,0,0-.048.274.33.33,0,0,0,.155.319,1.2,1.2,0,0,0,.535.085,2.219,2.219,0,0,0,.4-.042A3.03,3.03,0,0,0,17.013,15.667Zm.125-4.925a.618.618,0,0,1-.342.522,1.685,1.685,0,0,1-1.65,0,.57.57,0,0,1,0-1.047,1.671,1.671,0,0,1,1.65,0A.623.623,0,0,1,17.138,10.742Z" transform="translate(-9.121 -6.956)" fill="#0e58c7" fill-rule="evenodd"/>
                        </g>
                      </g>
                    </g>
                  </g>
                </g>
              </g>
            </g>
            <text id="_2_Rue_de_Ermesinde_Frisange_-_Luxembourg_3_km" data-name="2 Rue de Ermesinde
Frisange - Luxembourg 3 km" transform="translate(58 275)" fill="#1c1c1c" font-size="14" font-family="ArialMT, Arial" opacity="0.4"><tspan x="0" y="13">2 Rue de Ermesinde</tspan><tspan x="0" y="29">Frisange - Luxembourg 3 km</tspan></text>
            <g id="Group_1889" data-name="Group 1889" transform="translate(28.208 282.39)">
              <g id="noun_Search_860389-2" data-name="noun_Search_860389" transform="translate(0 0)">
                <g id="Group_5-2" data-name="Group 5">
                  <g id="Group_4-2" data-name="Group 4">
                    <g id="noun_Map_2404959">
                      <g id="Group_24" data-name="Group 24">
                        <g id="Group_23" data-name="Group 23">
                          <g id="Group_21" data-name="Group 21">
                            <path id="Path_222" data-name="Path 222" d="M86.917,49h0a.4.4,0,0,1-.338-.188,35.544,35.544,0,0,0-2.667-3.527c-.635-.773-1.291-1.572-1.87-2.357-.986-1.337-2.118-3.1-2.118-4.847a7.021,7.021,0,0,1,14.042,0c0,1.877-1.2,3.745-3.007,5.973-.317.391-.648.789-.968,1.174a34.509,34.509,0,0,0-2.735,3.585A.4.4,0,0,1,86.917,49Zm.026-17.141a6.229,6.229,0,0,0-6.222,6.222c0,1.185.605,2.534,1.962,4.374.567.768,1.216,1.559,1.845,2.324.834,1.016,1.693,2.061,2.39,3.091.719-1.06,1.6-2.122,2.46-3.153.318-.383.648-.779.961-1.165,1.7-2.1,2.829-3.829,2.829-5.471A6.23,6.23,0,0,0,86.943,31.86Z" transform="translate(-79.923 -31.063)" fill="#0e58c7"/>
                          </g>
                          <g id="Group_22" data-name="Group 22" transform="translate(3.315 3.233)">
                            <path id="Path_223" data-name="Path 223" d="M166.759,119.749a3.8,3.8,0,1,1,3.705-3.8A3.76,3.76,0,0,1,166.759,119.749Zm0-6.8a3,3,0,1,0,2.908,3A2.96,2.96,0,0,0,166.759,112.945Z" transform="translate(-163.052 -112.148)" fill="#0e58c7"/>
                          </g>
                        </g>
                      </g>
                    </g>
                  </g>
                </g>
              </g>
            </g>
            <text id="Thu_09_Apr" data-name="Thu, 09 Apr" transform="translate(28 252)" fill="#254069" font-size="16" font-family="ArialMT, Arial"><tspan x="0" y="0">Thu, 09 Apr</tspan></text>
            <text id="_08:00" data-name="08:00" transform="translate(141 253)" fill="#254069" font-size="16" font-family="Arial-BoldMT, Arial" font-weight="700"><tspan x="0" y="0">08:00</tspan></text>
            <text id="Confirmed" transform="translate(287 253)" fill="#2ac052" font-size="18" font-family="ArialMT, Arial"><tspan x="0" y="0">Confirmed</tspan></text>
          </g>
          <text id="JAN_10_-_12:30_PM" data-name="JAN 10 - 12:30 PM" transform="translate(16 161)" fill="#78849e" font-size="12" font-family="SegoeUI, Segoe UI" opacity="0.566"><tspan x="0" y="13">JAN 10 - 12:30 PM</tspan></text>
        </g>
        <g id="trips-3" data-name="trips" transform="translate(-16 41)">
          <g id="card-3" data-name="card">
            <g transform="matrix(1, 0, 0, 1, -5, -370)" filter="url(#bg-3)">
              <rect id="bg-6" data-name="bg" width="372" height="141" rx="12" transform="translate(21 552)" fill="#f0f6fa"/>
            </g>
            <g id="Languages-5" data-name="Languages" transform="translate(28 197)">
              <text id="Dr._Clara_Odding-2" data-name="Dr. Clara Odding" fill="#2e5b9f" font-size="14" font-family="Arial-BoldMT, Arial" font-weight="700"><tspan x="0" y="13">Dr. Clara Odding</tspan></text>
              <text id="Reschedule_2" data-name="Reschedule " transform="translate(270)" fill="#1e64cc" font-size="14" font-family="Arial-BoldMT, Arial" font-weight="700"><tspan x="1.414" y="13">Reschedule </tspan></text>
              <g id="noun_Download_1569899-2" data-name="noun_Download_1569899" transform="translate(249.451 3)">
                <g id="Group_61-2" data-name="Group 61" transform="translate(0 0)">
                  <g id="noun_Pencil_2174975-2" data-name="noun_Pencil_2174975" transform="translate(0 0)">
                    <g id="Layer_2-2" data-name="Layer 2">
                      <g id="Layer_1-2" data-name="Layer 1">
                        <rect id="Rectangle_78-2" data-name="Rectangle 78" width="13" height="13" transform="translate(0.549 0)" fill="none"/>
                        <path id="Path_398-2" data-name="Path 398" d="M17.243,10.707,14.15,7.618,21.231.535a1.84,1.84,0,0,1,2.6,0l.49.49a1.843,1.843,0,0,1,0,2.6ZM15.5,7.618l1.749,1.749,6.4-6.413a.887.887,0,0,0,0-1.256l-.49-.491a.891.891,0,0,0-1.257,0Z" transform="translate(-12.396 0.217)" fill="#0e58c7"/>
                        <path id="Path_399-2" data-name="Path 399" d="M.7,71.278a.588.588,0,0,1-.57-.74L.9,67.644a.625.625,0,0,1,1.047-.282l2.08,2.08a.625.625,0,0,1-.281,1.047l-2.9.77A.563.563,0,0,1,.7,71.278Zm.974-2.842-.464,1.742,1.749-.464Z" transform="translate(-0.112 -58.571)" fill="#0e58c7"/>
                        <path id="Path_400-2" data-name="Path 400" d="M65.389,14.885a.471.471,0,0,1-.336-.14l-2.19-2.189a.476.476,0,1,1,.673-.673l2.189,2.19a.476.476,0,0,1-.336.812Z" transform="translate(-54.901 -10.062)" fill="#0e58c7"/>
                      </g>
                    </g>
                  </g>
                </g>
              </g>
              <g id="noun_Info_1174604-2" data-name="noun_Info_1174604" transform="translate(121.518 3.353)">
                <g id="Group_76-2" data-name="Group 76" transform="translate(0 0)">
                  <g id="Group_75-2" data-name="Group 75">
                    <g id="Group_74-2" data-name="Group 74">
                      <g id="Group_73-2" data-name="Group 73">
                        <g id="Group_72-2" data-name="Group 72">
                          <circle id="Ellipse_68-2" data-name="Ellipse 68" cx="6.104" cy="6.104" r="6.104" fill="none" stroke="#0e58c7" stroke-width="2"/>
                          <path id="Path_413-2" data-name="Path 413" d="M17.013,15.667l-.131.363q-.589.157-.939.24a3.575,3.575,0,0,1-.814.083,2.173,2.173,0,0,1-1.109-.236.691.691,0,0,1-.4-.6,1.455,1.455,0,0,1,.03-.288,2.511,2.511,0,0,1,.1-.333l.487-1.178q.065-.169.11-.321a.984.984,0,0,0,.045-.276.346.346,0,0,0-.137-.315,1.055,1.055,0,0,0-.523-.089,1.959,1.959,0,0,0-.389.04q-.2.04-.342.077l.131-.363q.482-.133.921-.228a3.958,3.958,0,0,1,.832-.095,2.121,2.121,0,0,1,1.091.232.689.689,0,0,1,.383.6,2.326,2.326,0,0,1-.027.27,1.32,1.32,0,0,1-.1.355l-.487,1.174a2.406,2.406,0,0,0-.107.323,1.19,1.19,0,0,0-.048.274.33.33,0,0,0,.155.319,1.2,1.2,0,0,0,.535.085,2.219,2.219,0,0,0,.4-.042A3.03,3.03,0,0,0,17.013,15.667Zm.125-4.925a.618.618,0,0,1-.342.522,1.685,1.685,0,0,1-1.65,0,.57.57,0,0,1,0-1.047,1.671,1.671,0,0,1,1.65,0A.623.623,0,0,1,17.138,10.742Z" transform="translate(-9.121 -6.956)" fill="#0e58c7" fill-rule="evenodd"/>
                        </g>
                      </g>
                    </g>
                  </g>
                </g>
              </g>
            </g>
            <text id="_2_Rue_de_Ermesinde_Frisange_-_Luxembourg_3_km-2" data-name="2 Rue de Ermesinde
Frisange - Luxembourg 3 km" transform="translate(58 275)" fill="#1c1c1c" font-size="14" font-family="ArialMT, Arial" opacity="0.4"><tspan x="0" y="13">2 Rue de Ermesinde</tspan><tspan x="0" y="29">Frisange - Luxembourg 3 km</tspan></text>
            <g id="Group_1889-2" data-name="Group 1889" transform="translate(28.208 282.39)">
              <g id="noun_Search_860389-3" data-name="noun_Search_860389" transform="translate(0 0)">
                <g id="Group_5-3" data-name="Group 5">
                  <g id="Group_4-3" data-name="Group 4">
                    <g id="noun_Map_2404959-2" data-name="noun_Map_2404959">
                      <g id="Group_24-2" data-name="Group 24">
                        <g id="Group_23-2" data-name="Group 23">
                          <g id="Group_21-2" data-name="Group 21">
                            <path id="Path_222-2" data-name="Path 222" d="M86.917,49h0a.4.4,0,0,1-.338-.188,35.544,35.544,0,0,0-2.667-3.527c-.635-.773-1.291-1.572-1.87-2.357-.986-1.337-2.118-3.1-2.118-4.847a7.021,7.021,0,0,1,14.042,0c0,1.877-1.2,3.745-3.007,5.973-.317.391-.648.789-.968,1.174a34.509,34.509,0,0,0-2.735,3.585A.4.4,0,0,1,86.917,49Zm.026-17.141a6.229,6.229,0,0,0-6.222,6.222c0,1.185.605,2.534,1.962,4.374.567.768,1.216,1.559,1.845,2.324.834,1.016,1.693,2.061,2.39,3.091.719-1.06,1.6-2.122,2.46-3.153.318-.383.648-.779.961-1.165,1.7-2.1,2.829-3.829,2.829-5.471A6.23,6.23,0,0,0,86.943,31.86Z" transform="translate(-79.923 -31.063)" fill="#0e58c7"/>
                          </g>
                          <g id="Group_22-2" data-name="Group 22" transform="translate(3.315 3.233)">
                            <path id="Path_223-2" data-name="Path 223" d="M166.759,119.749a3.8,3.8,0,1,1,3.705-3.8A3.76,3.76,0,0,1,166.759,119.749Zm0-6.8a3,3,0,1,0,2.908,3A2.96,2.96,0,0,0,166.759,112.945Z" transform="translate(-163.052 -112.148)" fill="#0e58c7"/>
                          </g>
                        </g>
                      </g>
                    </g>
                  </g>
                </g>
              </g>
            </g>
            <text id="Thu_09_Apr-2" data-name="Thu, 09 Apr" transform="translate(28 252)" fill="#254069" font-size="16" font-family="ArialMT, Arial"><tspan x="0" y="0">Thu, 09 Apr</tspan></text>
            <text id="_08:00-2" data-name="08:00" transform="translate(141 253)" fill="#254069" font-size="16" font-family="Arial-BoldMT, Arial" font-weight="700"><tspan x="0" y="0">08:00</tspan></text>
            <text id="Confirmed-2" data-name="Confirmed" transform="translate(287 253)" fill="#2ac052" font-size="18" font-family="ArialMT, Arial"><tspan x="0" y="0">Confirmed</tspan></text>
          </g>
          <text id="JAN_10_-_12:30_PM-2" data-name="JAN 10 - 12:30 PM" transform="translate(16 161)" fill="#78849e" font-size="12" font-family="SegoeUI, Segoe UI" opacity="0.566"><tspan x="0" y="13">JAN 10 - 12:30 PM</tspan></text>
        </g>
      </g>
    </g>
    <g id="Group_2695" data-name="Group 2695" transform="translate(138.838 -363)">
      <g transform="matrix(1, 0, 0, 1, -138.84, 363)" filter="url(#Rectangle_1556)">
        <rect id="Rectangle_1556-2" data-name="Rectangle 1556" width="103" height="30" rx="15" transform="translate(290 288)" fill="#fff"/>
      </g>
      <text id="View_all" data-name="View all" transform="translate(203.162 671)" fill="#0e58c7" font-size="12" font-family="ArialMT, Arial"><tspan x="-20.566" y="0">View all</tspan></text>
    </g>
    <path id="Path_4576" data-name="Path 4576" d="M-1789,6345.073h138.433" transform="translate(1925.784 -5240.1)" fill="none" stroke="#0e58c7" stroke-width="3"/>
    <path id="Path_4580" data-name="Path 4580" d="M-1789,6345.073h372" transform="translate(1809 -5525)" fill="none" stroke="#707070" stroke-width="1" opacity="0.2"/>
    <path id="Path_4578" data-name="Path 4578" d="M-1789,6345.073h372" transform="translate(1810 -6081)" fill="none" stroke="#707070" stroke-width="1" opacity="0.2"/>
    <g id="Group_2701" data-name="Group 2701" transform="translate(-205 117)">
      <g transform="matrix(1, 0, 0, 1, 205, -117)" filter="url(#Ellipse_378-2)">
        <circle id="Ellipse_378-4" data-name="Ellipse 378" cx="11.5" cy="11.5" r="11.5" transform="translate(143 291)" fill="#fe7614"/>
      </g>
      <text id="_5" data-name="5" transform="translate(357 190)" fill="#fff" font-size="11" font-family="ArialMT, Arial"><tspan x="0" y="0">5</tspan></text>
    </g>
    <g id="Component_118_76" data-name="Component 118 – 76" transform="translate(0 780)">
      <path id="Rectangle_1553" data-name="Rectangle 1553" d="M10,0H402a10,10,0,0,1,10,10V67a0,0,0,0,1,0,0H0a0,0,0,0,1,0,0V10A10,10,0,0,1,10,0Z" fill="url(#linear-gradient)"/>
      <g id="Group_2707" data-name="Group 2707" transform="translate(1400.269 -4030)">
        <g id="Group_2699" data-name="Group 2699" transform="translate(-1381 4044.488)">
          <path id="Icon_awesome-clipboard-check" data-name="Icon awesome-clipboard-check" d="M10.892,2.075H8.3a2.075,2.075,0,0,0-4.149,0H1.556A1.556,1.556,0,0,0,0,3.631V15.042A1.556,1.556,0,0,0,1.556,16.6h9.336a1.556,1.556,0,0,0,1.556-1.556V3.631A1.556,1.556,0,0,0,10.892,2.075ZM6.224,1.3a.778.778,0,1,1-.778.778A.776.776,0,0,1,6.224,1.3Zm3.929,7.514-4.636,4.6a.389.389,0,0,1-.551,0L2.289,10.7a.389.389,0,0,1,0-.551l.921-.914a.389.389,0,0,1,.551,0l1.491,1.5,3.436-3.41a.389.389,0,0,1,.551,0l.914.921A.389.389,0,0,1,10.153,8.811Z" transform="translate(10.154)" fill="#fff"/>
          <text id="To-do" transform="translate(15.731 35.512)" fill="#fff" font-size="12" font-family="ArialMT, Arial"><tspan x="-15.009" y="0">To-do</tspan></text>
        </g>
        <g id="Group_2698" data-name="Group 2698" transform="translate(-1308.318 4045.028)">
          <text id="My_Health" data-name="My Health" transform="translate(27.049 34.972)" fill="#fff" font-size="12" font-family="ArialMT, Arial"><tspan x="-27.009" y="0">My Health</tspan></text>
          <path id="Icon_awesome-heartbeat" data-name="Icon awesome-heartbeat" d="M11.09,9.584,9.369,13.027a.554.554,0,0,1-1-.021L6.4,8.632,5.358,11.115H2.1l6.321,6.46a.617.617,0,0,0,.89,0l6.325-6.46H11.856ZM16.407,3.7l-.083-.087a4.537,4.537,0,0,0-6.491,0L8.866,4.6,7.9,3.616a4.531,4.531,0,0,0-6.491,0L1.326,3.7a4.756,4.756,0,0,0-.253,6.307H4.62L5.863,7.021a.555.555,0,0,1,1.018-.014L8.9,11.486l1.7-3.391a.553.553,0,0,1,.991,0l.956,1.912H16.66A4.756,4.756,0,0,0,16.407,3.7Z" transform="translate(17.664 -2.247)" fill="#fff"/>
        </g>
        <g id="Group_2706" data-name="Group 2706" transform="translate(-1210.624 4045.028)">
          <g id="Group_3581" data-name="Group 3581">
            <text id="Self_Help" data-name="Self Help" transform="translate(24.355 34.972)" fill="#fff" font-size="12" font-family="ArialMT, Arial"><tspan x="-24.346" y="0">Self Help</tspan></text>
            <path id="Icon_awesome-hand-holding-heart" data-name="Icon awesome-hand-holding-heart" d="M9.251,8.416a.585.585,0,0,0,.857,0l3.659-3.837A2.785,2.785,0,0,0,13.578.587a2.554,2.554,0,0,0-3.525.259l-.376.393L9.3.849A2.551,2.551,0,0,0,5.779.587a2.788,2.788,0,0,0-.188,3.992Zm9.744,2.607a1.112,1.112,0,0,0-1.431,0l-3.1,2.483a2.139,2.139,0,0,1-1.344.47H9.14a.538.538,0,1,1,0-1.075h2.631a1.119,1.119,0,0,0,1.119-.894,1.076,1.076,0,0,0-1.062-1.257H6.451a3.955,3.955,0,0,0-2.49.884L2.4,12.9H.538A.539.539,0,0,0,0,13.44v3.226a.539.539,0,0,0,.538.538H12.527a2.153,2.153,0,0,0,1.344-.47l5.081-4.066A1.075,1.075,0,0,0,18.995,11.024Z" transform="translate(13.795 -0.842)" fill="#fff"/>
          </g>
        </g>
        <g id="Group_2696" data-name="Group 2696" transform="translate(-1040.538 4044.488)">
          <path id="Icon_awesome-user" data-name="Icon awesome-user" d="M7.262,8.3A4.149,4.149,0,1,0,3.112,4.149,4.149,4.149,0,0,0,7.262,8.3Zm2.9,1.037H9.625a5.643,5.643,0,0,1-4.727,0H4.357A4.358,4.358,0,0,0,0,13.693v1.349A1.556,1.556,0,0,0,1.556,16.6H12.967a1.556,1.556,0,0,0,1.556-1.556V13.693A4.358,4.358,0,0,0,10.166,9.336Z" transform="translate(10.044)" fill="#fff"/>
          <text id="Profile" transform="translate(17.269 35.512)" fill="#fff" font-size="12" font-family="ArialMT, Arial"><tspan x="-17.007" y="0">Profile</tspan></text>
        </g>
        <g id="Group_2697" data-name="Group 2697" transform="translate(-1121.107 4044.488)">
          <text id="Explore" transform="translate(19.838 35.512)" fill="#fff" font-size="12" font-family="ArialMT, Arial"><tspan x="-20.344" y="0">Explore</tspan></text>
          <path id="Icon_material-explore" data-name="Icon material-explore" d="M11.3,10.386a.913.913,0,1,0,.913.913A.91.91,0,0,0,11.3,10.386ZM11.3,3a8.3,8.3,0,1,0,8.3,8.3A8.3,8.3,0,0,0,11.3,3Zm1.817,10.116-6.8,3.162,3.162-6.8,6.8-3.162Z" transform="translate(8.962 -3)" fill="#fff"/>
        </g>
      </g>
      <path id="Path_4581" data-name="Path 4581" d="M-1678.447,6469.154h68.881" transform="translate(1761.85 -6413)" fill="none" stroke="#fff" stroke-linecap="round" stroke-width="2"/>
    </g>
    <g id="Search-3" data-name="Search" transform="translate(21 733.527)">
      <g transform="matrix(1, 0, 0, 1, -21, -733.53)" filter="url(#Path_7-2)">
        <path id="Path_7-4" data-name="Path 7" d="M8.848,5H360.562a8.848,8.848,0,0,1,8.848,8.848V43.71a8.848,8.848,0,0,1-8.848,8.848H8.848A8.848,8.848,0,0,1,0,43.71V13.848A8.848,8.848,0,0,1,8.848,5Z" transform="translate(21 728.53)" fill="#ff9241"/>
      </g>
      <text id="Book_New_Appointment" data-name="Book New Appointment" transform="translate(65 13)" fill="#fff" font-size="16" font-family="Lato-Regular, Lato"><tspan x="35.456" y="16">Book New Appointment</tspan></text>
    </g>
    <g id="Tabs" transform="translate(25 130.359)">
      <text id="My_activity" data-name="My activity" transform="translate(23 -0.36)" fill="#808495" font-size="16" font-family="ArialMT, Arial"><tspan x="9.664" y="14">My activity</tspan></text>
      <text id="Appointments_records" data-name="Appointments / records" transform="translate(176 -0.36)" fill="#1e64cc" font-size="16" font-family="Arial-BoldMT, Arial" font-weight="700"><tspan x="0" y="14">Appointments / records</tspan></text>
      <g id="Group_43" data-name="Group 43" transform="translate(0 37.589)">
        <rect id="Rectangle_28" data-name="Rectangle 28" width="203" height="4" rx="2" transform="translate(165 -1.949)" fill="#0e58c7"/>
        <line id="Line_3" data-name="Line 3" x2="360" transform="translate(0 2.051)" fill="none" stroke="#1c1c1c" stroke-linecap="round" stroke-width="0.5" opacity="0.2"/>
      </g>
    </g>
    <g id="Group_1500" data-name="Group 1500">
      <g id="Group_1500-2" data-name="Group 1500" transform="translate(23 24)">
        <text id="Keep_Smiling_:_" data-name="Keep
Smiling : )" transform="translate(0 0)" fill="#1e64cc" font-size="24" font-family="Arial-BoldMT, Arial" font-weight="700"><tspan x="0" y="22">Keep</tspan><tspan x="0" y="50">Smiling : )</tspan></text>
        <g id="Group_2650" data-name="Group 2650" transform="translate(299.478)">
          <g id="Icon_ionic-ios-notifications" data-name="Icon ionic-ios-notifications" transform="translate(11 3)">
            <circle id="Ellipse_746" data-name="Ellipse 746" cx="23" cy="23" r="23" transform="translate(-0.478 11)" fill="#fff"/>
            <path id="Path_9493" data-name="Path 9493" d="M18.8,32.954c2.71,0,4.191-1.917,4.191-4.618H14.6C14.6,31.037,16.085,32.954,18.8,32.954Z" transform="translate(4.722 17.933)" fill="#ff9241"/>
            <path id="Path_9494" data-name="Path 9494" d="M34.279,29.746C32.938,27.977,30.3,26.941,30.3,19.021c0-8.129-3.59-11.4-6.935-12.18-.314-.078-.54-.183-.54-.514V6.074a2.126,2.126,0,1,0-4.252,0v.253c0,.322-.227.436-.54.514-3.354.793-6.935,4.051-6.935,12.18,0,7.92-2.64,8.948-3.982,10.725A1.729,1.729,0,0,0,8.5,32.517H32.9A1.73,1.73,0,0,0,34.279,29.746Z" transform="translate(2.846 12.097)" fill="url(#linear-gradient-2)"/>
            <circle id="Ellipse_747" data-name="Ellipse 747" cx="12" cy="12" r="12" transform="translate(30.522)" fill="#ff9241"/>
            <text id="_1" data-name="1" transform="translate(38.521 18)" fill="#fff" font-size="16" font-family="ArialMT, Arial"><tspan x="0" y="0">1</tspan></text>
          </g>
        </g>
      </g>
    </g>
  </g>
</svg>
