<svg xmlns="http://www.w3.org/2000/svg" xmlns:xlink="http://www.w3.org/1999/xlink" width="412" height="847" viewBox="0 0 412 847">
  <defs>
    <linearGradient id="linear-gradient" x1="0.5" x2="0.5" y2="1" gradientUnits="objectBoundingBox">
      <stop offset="0" stop-color="#37aadd"/>
      <stop offset="1" stop-color="#1f64cc"/>
    </linearGradient>
    <clipPath id="clip-path">
      <rect width="314.408" height="392.558" fill="none"/>
    </clipPath>
    <clipPath id="clip-OCD_26">
      <rect width="412" height="847"/>
    </clipPath>
  </defs>
  <g id="OCD_26" data-name="OCD – 26" clip-path="url(#clip-OCD_26)">
    <rect width="412" height="847" fill="url(#linear-gradient)"/>
    <g id="Group_3078" data-name="Group 3078" transform="translate(-7407 -10110.273)">
      <rect id="Rectangle_1710" data-name="Rectangle 1710" width="370" height="637" rx="15" transform="translate(7428 10237.273)" fill="#102646"/>
      <text id="Which_stage_you_consider_is_the_most_appropriate_for_your_current_substance_" data-name="Which stage you consider is the most appropriate for your current substance?" transform="translate(7466 10261.273)" fill="#edf4fd" font-size="18" font-family="ArialMT, Arial"><tspan x="0" y="16">Which stage you consider is the </tspan><tspan x="0" y="46">most appropriate for your current </tspan><tspan x="0" y="76">substance?</tspan></text>
    </g>
    <g id="Search" transform="translate(49 306.221)" clip-path="url(#clip-path)">
      <g id="Search-2" data-name="Search" transform="translate(0.296)">
        <g id="Group_3472" data-name="Group 3472">
          <path id="Path_7" data-name="Path 7" d="M7.39,5H301.127c4.081,0,7.39,3.961,7.39,8.848V43.71c0,4.887-3.308,8.848-7.39,8.848H7.39C3.308,52.558,0,48.6,0,43.71V13.848C0,8.961,3.308,5,7.39,5Z" transform="translate(0.633 -5)" fill="#153669"/>
          <text id="Pre-contemplation" transform="translate(83.703 13.964)" fill="#fff" font-size="16" font-family="ArialMT, Arial"><tspan x="6.301" y="14">Pre-Contemplation</tspan></text>
        </g>
      </g>
      <g id="Search-3" data-name="Search" transform="translate(0.296 66)">
        <g id="Group_3472-2" data-name="Group 3472">
          <path id="Path_7-2" data-name="Path 7" d="M7.39,5H301.127c4.081,0,7.39,3.961,7.39,8.848V43.71c0,4.887-3.308,8.848-7.39,8.848H7.39C3.308,52.558,0,48.6,0,43.71V13.848C0,8.961,3.308,5,7.39,5Z" transform="translate(0.633 -5)" fill="#153669"/>
          <text id="Contemplation" transform="translate(83.703 13.964)" fill="#fff" font-size="16" font-family="ArialMT, Arial"><tspan x="21.414" y="14">Contemplation</tspan></text>
        </g>
      </g>
      <g id="Search-4" data-name="Search" transform="translate(0.296 132)">
        <g id="Group_3472-3" data-name="Group 3472">
          <path id="Path_7-3" data-name="Path 7" d="M7.39,5H301.127c4.081,0,7.39,3.961,7.39,8.848V43.71c0,4.887-3.308,8.848-7.39,8.848H7.39C3.308,52.558,0,48.6,0,43.71V13.848C0,8.961,3.308,5,7.39,5Z" transform="translate(0.633 -5)" fill="#153669"/>
          <text id="Preparation" transform="translate(83.703 13.964)" fill="#fff" font-size="16" font-family="ArialMT, Arial"><tspan x="31.641" y="14">Preparation</tspan></text>
        </g>
      </g>
      <g id="Search-5" data-name="Search" transform="translate(0.296 198)">
        <g id="Group_3472-4" data-name="Group 3472">
          <path id="Path_7-4" data-name="Path 7" d="M7.39,5H301.127c4.081,0,7.39,3.961,7.39,8.848V43.71c0,4.887-3.308,8.848-7.39,8.848H7.39C3.308,52.558,0,48.6,0,43.71V13.848C0,8.961,3.308,5,7.39,5Z" transform="translate(0.633 -5)" fill="#153669"/>
          <text id="Action" transform="translate(83.703 13.964)" fill="#fff" font-size="16" font-family="ArialMT, Arial"><tspan x="50.766" y="14">Action</tspan></text>
        </g>
      </g>
      <g id="Search-6" data-name="Search" transform="translate(0.296 264)">
        <g id="Group_3472-5" data-name="Group 3472">
          <path id="Path_7-5" data-name="Path 7" d="M7.39,5H301.127c4.081,0,7.39,3.961,7.39,8.848V43.71c0,4.887-3.308,8.848-7.39,8.848H7.39C3.308,52.558,0,48.6,0,43.71V13.848C0,8.961,3.308,5,7.39,5Z" transform="translate(0.633 -5)" fill="#153669"/>
          <text id="Maintenance" transform="translate(83.703 13.964)" fill="#fff" font-size="16" font-family="ArialMT, Arial"><tspan x="27.191" y="14">Maintenance</tspan></text>
        </g>
      </g>
      <g id="Search-7" data-name="Search" transform="translate(0.296 330)">
        <g id="Group_3472-6" data-name="Group 3472">
          <path id="Path_7-6" data-name="Path 7" d="M7.39,5H301.127c4.081,0,7.39,3.961,7.39,8.848V43.71c0,4.887-3.308,8.848-7.39,8.848H7.39C3.308,52.558,0,48.6,0,43.71V13.848C0,8.961,3.308,5,7.39,5Z" transform="translate(0.633 -5)" fill="#153669"/>
          <text id="Relapse" transform="translate(83.703 13.964)" fill="#fff" font-size="16" font-family="ArialMT, Arial"><tspan x="43.648" y="14">Relapse</tspan></text>
        </g>
      </g>
    </g>
    <g id="Group_3474" data-name="Group 3474" transform="translate(49.296 504.221)">
      <path id="Path_7-7" data-name="Path 7" d="M7.39,5H301.127c4.081,0,7.39,3.961,7.39,8.848V43.71c0,4.887-3.308,8.848-7.39,8.848H7.39C3.308,52.558,0,48.6,0,43.71V13.848C0,8.961,3.308,5,7.39,5Z" transform="translate(0.633 -5)" fill="#1e64cc"/>
      <text id="Action-2" data-name="Action" transform="translate(83.703 13.964)" fill="#fff" font-size="16" font-family="ArialMT, Arial"><tspan x="50.766" y="14">Action</tspan></text>
    </g>
    <g id="Group_3234" data-name="Group 3234" transform="translate(4.012 -10.262)">
      <path id="Icon_ionic-ios-arrow-back" data-name="Icon ionic-ios-arrow-back" d="M15.217,17.7,23.926,9A1.645,1.645,0,1,0,21.6,6.674l-9.867,9.86a1.642,1.642,0,0,0-.048,2.268l9.908,9.929a1.645,1.645,0,0,0,2.33-2.323Z" transform="translate(362.579 30.069)" fill="#fff"/>
      <path id="Icon_ionic-ios-arrow-back-2" data-name="Icon ionic-ios-arrow-back" d="M3.967,11.506l8.709-8.7A1.645,1.645,0,1,0,10.346.481L.479,10.341a1.642,1.642,0,0,0-.048,2.268l9.908,9.929a1.645,1.645,0,1,0,2.33-2.323Z" transform="translate(377.472 59.28) rotate(180)" fill="#fff"/>
    </g>
    <text id="Session_3_De-addiction_stage" data-name="Session 3
De-addiction stage" transform="translate(21 26)" fill="#fff" font-size="16" font-family="ArialMT, Arial"><tspan x="0" y="14">Session 3</tspan><tspan font-size="24" font-family="Arial-BoldMT, Arial" font-weight="700"><tspan x="0" y="49">De-addiction stage</tspan></tspan></text>
    <g id="Component_119_319" data-name="Component 119 – 319" transform="translate(0 779.278)">
      <rect id="Rectangle_1927" data-name="Rectangle 1927" width="412" height="67" transform="translate(0 0.722)" fill="#102646"/>
      <path id="Path_4714" data-name="Path 4714" d="M1053,4508.186h411.151" transform="translate(-1053 -4508.186)" fill="none" stroke="#fff" stroke-width="2" opacity="0.206"/>
      <g id="Group_3096" data-name="Group 3096" transform="translate(-3 -997.186)">
        <text id="Next" transform="translate(318 1038)" fill="#f2f5f7" font-size="18" font-family="ArialMT, Arial"><tspan x="0" y="0">Next</tspan></text>
        <path id="Icon_ionic-ios-arrow-back-3" data-name="Icon ionic-ios-arrow-back" d="M14.033,14.264l6.109-6.1a1.154,1.154,0,0,0-1.634-1.629l-6.921,6.916a1.152,1.152,0,0,0-.034,1.591L18.5,22a1.154,1.154,0,1,0,1.634-1.629Z" transform="translate(389.251 1046.266) rotate(180)" fill="#f2f5f7"/>
      </g>
      <g id="Group_3224" data-name="Group 3224" transform="translate(2.529 7.076)">
        <g id="Group_3212" data-name="Group 3212" transform="translate(34.47 14.737)">
          <text id="Back" transform="translate(19.06 18)" fill="#fff" font-size="18" font-family="ArialMT, Arial"><tspan x="0" y="0">Back</tspan></text>
          <path id="Icon_ionic-ios-arrow-back-4" data-name="Icon ionic-ios-arrow-back" d="M14.033,14.264l6.109-6.1a1.154,1.154,0,0,0-1.634-1.629l-6.921,6.916a1.152,1.152,0,0,0-.034,1.591L18.5,22a1.154,1.154,0,1,0,1.634-1.629Z" transform="translate(-11.251 -3.193)" fill="#fff"/>
        </g>
      </g>
    </g>
  </g>
</svg>
