<svg xmlns="http://www.w3.org/2000/svg" xmlns:xlink="http://www.w3.org/1999/xlink" width="412" height="1549" viewBox="0 0 412 1549">
  <defs>
    <linearGradient id="linear-gradient" x1="0.5" x2="0.5" y2="1" gradientUnits="objectBoundingBox">
      <stop offset="0" stop-color="#37aadd"/>
      <stop offset="1" stop-color="#1f64cc"/>
    </linearGradient>
    <filter id="Rectangle_1710" x="0" y="230" width="408" height="177" filterUnits="userSpaceOnUse">
      <feOffset dy="3" input="SourceAlpha"/>
      <feGaussianBlur stdDeviation="6" result="blur"/>
      <feFlood flood-opacity="0.051"/>
      <feComposite operator="in" in2="blur"/>
      <feComposite in="SourceGraphic"/>
    </filter>
    <filter id="Rectangle_1710-2" x="0" y="418" width="408" height="177" filterUnits="userSpaceOnUse">
      <feOffset dy="3" input="SourceAlpha"/>
      <feGaussianBlur stdDeviation="6" result="blur-2"/>
      <feFlood flood-opacity="0.051"/>
      <feComposite operator="in" in2="blur-2"/>
      <feComposite in="SourceGraphic"/>
    </filter>
    <filter id="Rectangle_1710-3" x="0" y="632" width="408" height="177" filterUnits="userSpaceOnUse">
      <feOffset dy="3" input="SourceAlpha"/>
      <feGaussianBlur stdDeviation="6" result="blur-3"/>
      <feFlood flood-opacity="0.051"/>
      <feComposite operator="in" in2="blur-3"/>
      <feComposite in="SourceGraphic"/>
    </filter>
    <filter id="Rectangle_1710-4" x="0" y="821" width="408" height="177" filterUnits="userSpaceOnUse">
      <feOffset dy="3" input="SourceAlpha"/>
      <feGaussianBlur stdDeviation="6" result="blur-4"/>
      <feFlood flood-opacity="0.051"/>
      <feComposite operator="in" in2="blur-4"/>
      <feComposite in="SourceGraphic"/>
    </filter>
    <filter id="Rectangle_1710-5" x="0" y="1009" width="408" height="177" filterUnits="userSpaceOnUse">
      <feOffset dy="3" input="SourceAlpha"/>
      <feGaussianBlur stdDeviation="6" result="blur-5"/>
      <feFlood flood-opacity="0.051"/>
      <feComposite operator="in" in2="blur-5"/>
      <feComposite in="SourceGraphic"/>
    </filter>
    <filter id="Rectangle_1710-6" x="0" y="1224" width="408" height="177" filterUnits="userSpaceOnUse">
      <feOffset dy="3" input="SourceAlpha"/>
      <feGaussianBlur stdDeviation="6" result="blur-6"/>
      <feFlood flood-opacity="0.051"/>
      <feComposite operator="in" in2="blur-6"/>
      <feComposite in="SourceGraphic"/>
    </filter>
    <clipPath id="clip-path">
      <path id="Rectangle_1714" data-name="Rectangle 1714" d="M0,0H412a0,0,0,0,1,0,0V158a20,20,0,0,1-20,20H20A20,20,0,0,1,0,158V0A0,0,0,0,1,0,0Z" fill="url(#linear-gradient)"/>
    </clipPath>
    <clipPath id="clip-OCD_obsess">
      <rect width="412" height="1549"/>
    </clipPath>
  </defs>
  <g id="OCD_obsess" data-name="OCD – obsess" clip-path="url(#clip-OCD_obsess)">
    <rect width="412" height="1549" fill="#e9eff4"/>
    <g id="Group_3078" data-name="Group 3078" transform="translate(-7410 -9963)">
      <g transform="matrix(1, 0, 0, 1, 7410, 9963)" filter="url(#Rectangle_1710)">
        <rect id="Rectangle_1710-7" data-name="Rectangle 1710" width="372" height="141" rx="20" transform="translate(18 245)" fill="#f5fbff"/>
      </g>
      <text id="Distressing_thoughts_that_I_might_harm_myself_Example:_you_may_feel_extremely_anxious_around_sharp_objects_or_while_crossing_a_road_" data-name="Distressing thoughts that I might harm myself (Example: you may feel extremely anxious around sharp objects or while crossing a road)" transform="translate(7501 10227)" fill="#5f789d" font-size="16" font-family="ArialMT, Arial"><tspan x="0" y="14">Distressing thoughts that I might harm </tspan><tspan x="0" y="39">myself (Example: you may feel </tspan><tspan x="0" y="64">extremely anxious around sharp objects </tspan><tspan x="0" y="89">or while crossing a road)</tspan></text>
      <g id="Group_3077" data-name="Group 3077" transform="translate(7290.266 9667.266)">
        <circle id="Ellipse_551" data-name="Ellipse 551" cx="23" cy="23" r="23" transform="translate(302.734 658.733)" fill="#dbecff" opacity="0.354"/>
        <circle id="Ellipse_550" data-name="Ellipse 550" cx="21" cy="21" r="21" transform="translate(304.734 660.733)" fill="#dbecff" opacity="0.354"/>
        <circle id="Ellipse_430" data-name="Ellipse 430" cx="19" cy="19" r="19" transform="translate(306.734 662.734)" fill="#fff"/>
        <path id="Icon_awesome-play" data-name="Icon awesome-play" d="M12.659,6.406,2.16.2A1.424,1.424,0,0,0,0,1.43V13.842a1.431,1.431,0,0,0,2.16,1.232l10.5-6.2A1.43,1.43,0,0,0,12.659,6.406Z" transform="translate(320.233 673.958)" fill="#0e58c7"/>
      </g>
      <g id="Rectangle_1711" data-name="Rectangle 1711" transform="translate(7450 10228)" fill="none" stroke="#0e58c7" stroke-width="2">
        <rect width="35" height="35" rx="7" stroke="none"/>
        <rect x="1" y="1" width="33" height="33" rx="6" fill="none"/>
      </g>
    </g>
    <g id="Group_3078-2" data-name="Group 3078" transform="translate(-7410 -9775)">
      <g transform="matrix(1, 0, 0, 1, 7410, 9775)" filter="url(#Rectangle_1710-2)">
        <rect id="Rectangle_1710-8" data-name="Rectangle 1710" width="372" height="141" rx="20" transform="translate(18 433)" fill="#f5fbff"/>
      </g>
      <text id="Thought_that_I_might_harm_others_Family_any_friend_or_anyone_Example:_like_stabbing_someone_who_may_be_a_friend_family_member_like_your_own_child_with_a_knife_" data-name="Thought that I might harm others (Family, any friend or anyone)(Example: like stabbing someone who may be a friend, family member like your own child with a knife)" transform="translate(7501 10227)" fill="#5f789d" font-size="16" font-family="ArialMT, Arial"><tspan x="0" y="14">Thought that I might harm others </tspan><tspan x="0" y="39">(Family, any friend or anyone)(Example: </tspan><tspan x="0" y="64">like stabbing someone who may be a </tspan><tspan x="0" y="89">friend, family member like your own </tspan></text>
      <g id="Group_3077-2" data-name="Group 3077" transform="translate(7593 10325.612)">
        <circle id="Ellipse_551-2" data-name="Ellipse 551" cx="23" cy="23" r="23" transform="translate(0 0.388)" fill="#dbecff" opacity="0.354"/>
        <circle id="Ellipse_550-2" data-name="Ellipse 550" cx="21" cy="21" r="21" transform="translate(2 2.388)" fill="#dbecff" opacity="0.354"/>
        <circle id="Ellipse_430-2" data-name="Ellipse 430" cx="19" cy="19" r="19" transform="translate(4 4.387)" fill="#fff"/>
        <path id="Icon_awesome-play-2" data-name="Icon awesome-play" d="M12.659,6.406,2.16.2A1.424,1.424,0,0,0,0,1.43V13.842a1.431,1.431,0,0,0,2.16,1.232l10.5-6.2A1.43,1.43,0,0,0,12.659,6.406Z" transform="translate(17.499 15.224)" fill="#0e58c7"/>
      </g>
      <g id="Rectangle_1711-2" data-name="Rectangle 1711" transform="translate(7450 10228)" fill="none" stroke="#0e58c7" stroke-width="2">
        <rect width="35" height="35" rx="7" stroke="none"/>
        <rect x="1" y="1" width="33" height="33" rx="6" fill="none"/>
      </g>
    </g>
    <g id="Group_3078-3" data-name="Group 3078" transform="translate(-7410 -9561)">
      <g transform="matrix(1, 0, 0, 1, 7410, 9561)" filter="url(#Rectangle_1710-3)">
        <rect id="Rectangle_1710-9" data-name="Rectangle 1710" width="372" height="141" rx="20" transform="translate(18 647)" fill="#f5fbff"/>
      </g>
      <text id="Violent_or_horrific_images_coming_in_mind_images_of_blood_murder_or_any_disgusting_scene_" data-name="Violent or horrific images coming in mind (images of blood, murder or any disgusting scene)" transform="translate(7501 10227)" fill="#5f789d" font-size="16" font-family="ArialMT, Arial"><tspan x="0" y="14">Violent or horrific images coming in </tspan><tspan x="0" y="39">mind (images of blood, murder or any </tspan><tspan x="0" y="64">disgusting scene)</tspan></text>
      <g id="Group_3077-3" data-name="Group 3077" transform="translate(7290.266 9667.266)">
        <circle id="Ellipse_551-3" data-name="Ellipse 551" cx="23" cy="23" r="23" transform="translate(302.734 658.733)" fill="#dbecff" opacity="0.354"/>
        <circle id="Ellipse_550-3" data-name="Ellipse 550" cx="21" cy="21" r="21" transform="translate(304.734 660.733)" fill="#dbecff" opacity="0.354"/>
        <circle id="Ellipse_430-3" data-name="Ellipse 430" cx="19" cy="19" r="19" transform="translate(306.734 662.734)" fill="#fff"/>
        <path id="Icon_awesome-play-3" data-name="Icon awesome-play" d="M12.659,6.406,2.16.2A1.424,1.424,0,0,0,0,1.43V13.842a1.431,1.431,0,0,0,2.16,1.232l10.5-6.2A1.43,1.43,0,0,0,12.659,6.406Z" transform="translate(320.233 673.958)" fill="#0e58c7"/>
      </g>
      <g id="Rectangle_1711-3" data-name="Rectangle 1711" transform="translate(7450 10228)" fill="none" stroke="#0e58c7" stroke-width="2">
        <rect width="35" height="35" rx="7" stroke="none"/>
        <rect x="1" y="1" width="33" height="33" rx="6" fill="none"/>
      </g>
    </g>
    <g id="Group_3078-4" data-name="Group 3078" transform="translate(-7410 -9372)">
      <g transform="matrix(1, 0, 0, 1, 7410, 9372)" filter="url(#Rectangle_1710-4)">
        <rect id="Rectangle_1710-10" data-name="Rectangle 1710" width="372" height="141" rx="20" transform="translate(18 836)" fill="#f5fbff"/>
      </g>
      <text id="Distressing_thought_about_saying_something_that_insults_other_or_may_cause_embarrassment_to_myself_publically_" data-name="Distressing thought  about saying something that insults other or may cause embarrassment to myself publically)" transform="translate(7501 10227)" fill="#5f789d" font-size="16" font-family="ArialMT, Arial"><tspan x="0" y="14" xml:space="preserve">Distressing thought  about saying </tspan><tspan x="0" y="39">something that insults other or may </tspan><tspan x="0" y="64">cause embarrassment to myself </tspan><tspan x="0" y="89">publically)</tspan></text>
      <g id="Group_3077-4" data-name="Group 3077" transform="translate(7290.266 9667.266)">
        <circle id="Ellipse_551-4" data-name="Ellipse 551" cx="23" cy="23" r="23" transform="translate(302.734 658.733)" fill="#dbecff" opacity="0.354"/>
        <circle id="Ellipse_550-4" data-name="Ellipse 550" cx="21" cy="21" r="21" transform="translate(304.734 660.733)" fill="#dbecff" opacity="0.354"/>
        <circle id="Ellipse_430-4" data-name="Ellipse 430" cx="19" cy="19" r="19" transform="translate(306.734 662.734)" fill="#fff"/>
        <path id="Icon_awesome-play-4" data-name="Icon awesome-play" d="M12.659,6.406,2.16.2A1.424,1.424,0,0,0,0,1.43V13.842a1.431,1.431,0,0,0,2.16,1.232l10.5-6.2A1.43,1.43,0,0,0,12.659,6.406Z" transform="translate(320.233 673.958)" fill="#0e58c7"/>
      </g>
      <g id="Rectangle_1711-4" data-name="Rectangle 1711" transform="translate(7450 10228)" fill="none" stroke="#0e58c7" stroke-width="2">
        <rect width="35" height="35" rx="7" stroke="none"/>
        <rect x="1" y="1" width="33" height="33" rx="6" fill="none"/>
      </g>
    </g>
    <g id="Group_3078-5" data-name="Group 3078" transform="translate(-7410 -9184)">
      <g transform="matrix(1, 0, 0, 1, 7410, 9184)" filter="url(#Rectangle_1710-5)">
        <rect id="Rectangle_1710-11" data-name="Rectangle 1710" width="372" height="141" rx="20" transform="translate(18 1024)" fill="#f5fbff"/>
      </g>
      <text id="Fear_of_responsible_for_something_terrible_happening_Example_I_may_have_left_gas_stove_on_without_checking_it_or_left_the_door_See_More_leading_to_a_burglary_._" data-name="Fear of responsible for something terrible happening (Example; I may have left gas stove on without checking it or left the door See More leading to a burglary). " transform="translate(7501 10227)" fill="#5f789d" font-size="16" font-family="ArialMT, Arial"><tspan x="0" y="14">Fear of responsible for something </tspan><tspan x="0" y="39">terrible happening (Example; I may </tspan><tspan x="0" y="64">have left gas stove on without checking </tspan><tspan x="0" y="89">it or left the door </tspan><tspan y="89" fill="#1e64cc" font-family="Arial-BoldMT, Arial" font-weight="700">See More</tspan><tspan y="89" xml:space="preserve"> leading to a </tspan></text>
      <g id="Group_3077-5" data-name="Group 3077" transform="translate(7593 10326.153)">
        <circle id="Ellipse_551-5" data-name="Ellipse 551" cx="23" cy="23" r="23" transform="translate(0 -0.153)" fill="#dbecff" opacity="0.354"/>
        <circle id="Ellipse_550-5" data-name="Ellipse 550" cx="21" cy="21" r="21" transform="translate(2 1.847)" fill="#dbecff" opacity="0.354"/>
        <circle id="Ellipse_430-5" data-name="Ellipse 430" cx="19" cy="19" r="19" transform="translate(4 3.846)" fill="#fff"/>
        <path id="Icon_awesome-play-5" data-name="Icon awesome-play" d="M12.659,6.406,2.16.2A1.424,1.424,0,0,0,0,1.43V13.842a1.431,1.431,0,0,0,2.16,1.232l10.5-6.2A1.43,1.43,0,0,0,12.659,6.406Z" transform="translate(17.499 15.224)" fill="#0e58c7"/>
      </g>
      <g id="Rectangle_1711-5" data-name="Rectangle 1711" transform="translate(7450 10228)" fill="none" stroke="#0e58c7" stroke-width="2">
        <rect width="35" height="35" rx="7" stroke="none"/>
        <rect x="1" y="1" width="33" height="33" rx="6" fill="none"/>
      </g>
    </g>
    <g id="Group_3078-6" data-name="Group 3078" transform="translate(-7410 -8969)">
      <g transform="matrix(1, 0, 0, 1, 7410, 8969)" filter="url(#Rectangle_1710-6)">
        <rect id="Rectangle_1710-12" data-name="Rectangle 1710" width="372" height="141" rx="20" transform="translate(18 1239)" fill="#f5fbff"/>
      </g>
      <text id="Other" transform="translate(7501 10230)" fill="#5f789d" font-size="16" font-family="ArialMT, Arial"><tspan x="0" y="14">Other</tspan></text>
      <text id="Describe_your_obsession" data-name="Describe your obsession" transform="translate(7450 10288)" fill="#5f789d" font-size="16" font-family="ArialMT, Arial" opacity="0.5"><tspan x="0" y="14">Describe your obsession</tspan></text>
      <g id="Rectangle_1711-6" data-name="Rectangle 1711" transform="translate(7450 10223)" fill="none" stroke="#0e58c7" stroke-width="2">
        <rect width="35" height="35" rx="7" stroke="none"/>
        <rect x="1" y="1" width="33" height="33" rx="6" fill="none"/>
      </g>
      <path id="Path_5189" data-name="Path 5189" d="M7450,10267.374h336.274" transform="translate(0 48.126)" fill="none" stroke="#3b88fa" stroke-width="1" opacity="0.385"/>
    </g>
    <text id="Please_select_your_obsession" data-name="Please select your obsession" transform="translate(21 208)" fill="#5f789d" font-size="16" font-family="ArialMT, Arial"><tspan x="0" y="14">Please select your obsession</tspan></text>
    <g id="Group_1500" data-name="Group 1500">
      <path id="Rectangle_293" data-name="Rectangle 293" d="M0,0H412a0,0,0,0,1,0,0V158a20,20,0,0,1-20,20H20A20,20,0,0,1,0,158V0A0,0,0,0,1,0,0Z" fill="url(#linear-gradient)"/>
      <g id="Mask_Group_5" data-name="Mask Group 5" opacity="0.837" clip-path="url(#clip-path)">
        <circle id="Ellipse_554" data-name="Ellipse 554" cx="146" cy="146" r="146" transform="translate(184 3)" fill="url(#linear-gradient)"/>
      </g>
      <text id="Session_1_Assessment_-_Obsession" data-name="Session 1
Assessment - Obsession" transform="translate(29 24)" fill="#fff" font-size="16" font-family="ArialMT, Arial"><tspan x="0" y="14">Session 1</tspan><tspan font-size="24" font-family="Arial-BoldMT, Arial" font-weight="700"><tspan x="0" y="49">Assessment - Obsession</tspan></tspan></text>
      <text id="Aggressive_obsession_1_8" data-name="Aggressive obsession 1/8" transform="translate(29 111)" fill="#fff" font-size="18" font-family="ArialMT, Arial"><tspan x="0" y="16">Aggressive obsession 1/8</tspan></text>
      <g id="Group_3076" data-name="Group 3076" transform="translate(-36.007 -236)">
        <rect id="Rectangle_1708" data-name="Rectangle 1708" width="353" height="5" rx="2.5" transform="translate(66.007 391)" fill="#dce9f5"/>
        <rect id="Rectangle_1709" data-name="Rectangle 1709" width="203" height="5" rx="2.5" transform="translate(66.007 391)" fill="#deb428"/>
      </g>
    </g>
    <g id="Group_3234" data-name="Group 3234" transform="translate(-4.848 -10)">
      <path id="Icon_ionic-ios-arrow-back" data-name="Icon ionic-ios-arrow-back" d="M15.217,17.7,23.926,9A1.645,1.645,0,1,0,21.6,6.674l-9.867,9.86a1.642,1.642,0,0,0-.048,2.268l9.908,9.929a1.645,1.645,0,0,0,2.33-2.323Z" transform="translate(362.579 30.069)" fill="#fff"/>
      <path id="Icon_ionic-ios-arrow-back-2" data-name="Icon ionic-ios-arrow-back" d="M3.967,11.506l8.709-8.7A1.645,1.645,0,1,0,10.346.481L.479,10.341a1.642,1.642,0,0,0-.048,2.268l9.908,9.929a1.645,1.645,0,1,0,2.33-2.323Z" transform="translate(377.472 59.28) rotate(180)" fill="#fff"/>
    </g>
    <g id="Component_119_356" data-name="Component 119 – 356" transform="translate(0 779.138)">
      <rect id="Rectangle_1927" data-name="Rectangle 1927" width="412" height="67" transform="translate(0 0.722)" fill="#edf4fd"/>
      <path id="Path_4714" data-name="Path 4714" d="M1053,4508.186h411.151" transform="translate(-1053 -4508.186)" fill="none" stroke="#fff" stroke-width="2" opacity="0.206"/>
      <g id="Group_3096" data-name="Group 3096" transform="translate(-3 -997.186)">
        <text id="Next" transform="translate(318 1038)" fill="#102646" font-size="18" font-family="ArialMT, Arial"><tspan x="0" y="0">Next</tspan></text>
        <path id="Icon_ionic-ios-arrow-back-3" data-name="Icon ionic-ios-arrow-back" d="M14.033,14.264l6.109-6.1a1.154,1.154,0,0,0-1.634-1.629l-6.921,6.916a1.152,1.152,0,0,0-.034,1.591L18.5,22a1.154,1.154,0,1,0,1.634-1.629Z" transform="translate(389.251 1046.266) rotate(180)" fill="#102646"/>
      </g>
      <g id="Group_3224" data-name="Group 3224" transform="translate(2.529 7.076)">
        <g id="Group_3212" data-name="Group 3212" transform="translate(34.47 14.737)">
          <text id="Back" transform="translate(19.06 18)" fill="#102646" font-size="18" font-family="ArialMT, Arial"><tspan x="0" y="0">Back</tspan></text>
          <path id="Icon_ionic-ios-arrow-back-4" data-name="Icon ionic-ios-arrow-back" d="M14.033,14.264l6.109-6.1a1.154,1.154,0,0,0-1.634-1.629l-6.921,6.916a1.152,1.152,0,0,0-.034,1.591L18.5,22a1.154,1.154,0,1,0,1.634-1.629Z" transform="translate(-11.251 -3.193)" fill="#102646"/>
        </g>
      </g>
    </g>
  </g>
</svg>
