<svg xmlns="http://www.w3.org/2000/svg" xmlns:xlink="http://www.w3.org/1999/xlink" width="412" height="847" viewBox="0 0 412 847">
  <defs>
    <linearGradient id="linear-gradient" x1="0.5" x2="0.5" y2="1" gradientUnits="objectBoundingBox">
      <stop offset="0" stop-color="#37aadd"/>
      <stop offset="1" stop-color="#1f64cc"/>
    </linearGradient>
    <clipPath id="clip-OCD_session_4_24">
      <rect width="412" height="847"/>
    </clipPath>
  </defs>
  <g id="OCD_session_4_24" data-name="OCD session 4 – 24" clip-path="url(#clip-OCD_session_4_24)">
    <rect width="412" height="847" fill="#102646"/>
    <g id="Group_3103" data-name="Group 3103" transform="translate(-4 65.864)">
      <g id="Group_1500" data-name="Group 1500" transform="translate(71 65)">
        <text id="OBQ-44_Questionnaire" data-name="OBQ-44 Questionnaire" transform="translate(0 0.136)" fill="#1e64cc" font-size="24" font-family="Arial-BoldMT, Arial" font-weight="700"><tspan x="0" y="22">OBQ-44 Questionnaire</tspan></text>
      </g>
      <g id="Group_3103-2" data-name="Group 3103" transform="translate(25 59)">
        <g id="Group_3157" data-name="Group 3157">
          <rect id="Rectangle_1722" data-name="Rectangle 1722" width="371" height="600" rx="16" transform="translate(0 0.136)" fill="url(#linear-gradient)"/>
          <text id="Maintenance" transform="translate(99 24.136)" fill="#fff" font-size="16" font-family="ArialMT, Arial"><tspan x="40.691" y="14">Maintenance</tspan></text>
          <text id="Maintenance:_The_fifth_stage_is_called_maintenance._In_this_stage_the_person_continues_to_be_abstinent_is_observed_to_be_engaged_in_the_new_behaviour_for_at_least_six_months_and_is_determined_to_maintain_the_new_behaviour." data-name="Maintenance: The fifth stage is called maintenance. In this stage, the person continues to be abstinent &amp; is observed to be engaged in the new behaviour for at least six months and is determined to maintain the new behaviour." transform="translate(28 385.136)" fill="#fff" font-size="12" font-family="ArialMT, Arial"><tspan x="3.188" y="11">Maintenance: The fifth stage is called maintenance. In this </tspan><tspan x="4.734" y="36">stage, the person continues to be abstinent &amp; is observed </tspan><tspan x="2.068" y="61">to be engaged in the new behaviour for at least six months </tspan><tspan x="26.751" y="86">and is determined to maintain the new behaviour.</tspan></text>
        </g>
      </g>
    </g>
    <g id="Group_1193" data-name="Group 1193" transform="translate(3.371 -49.643)">
      <g id="Ellipse_12" data-name="Ellipse 12" transform="translate(177.629 798.642)" fill="none" stroke="#0e58c7" stroke-width="1">
        <circle cx="4" cy="4" r="4" stroke="none"/>
        <circle cx="4" cy="4" r="3.5" fill="none"/>
      </g>
      <g id="Ellipse_13" data-name="Ellipse 13" transform="translate(191.629 798.642)" fill="none" stroke="#0e58c7" stroke-width="1">
        <circle cx="4" cy="4" r="4" stroke="none"/>
        <circle cx="4" cy="4" r="3.5" fill="none"/>
      </g>
      <g id="Ellipse_91" data-name="Ellipse 91" transform="translate(206.629 798.642)" fill="none" stroke="#0e58c7" stroke-width="1">
        <circle cx="4" cy="4" r="4" stroke="none"/>
        <circle cx="4" cy="4" r="3.5" fill="none"/>
      </g>
      <g id="Ellipse_92" data-name="Ellipse 92" transform="translate(220.629 798.642)" fill="#0e58c7" stroke="#0e58c7" stroke-width="1">
        <circle cx="4" cy="4" r="4" stroke="none"/>
        <circle cx="4" cy="4" r="3.5" fill="none"/>
      </g>
    </g>
    <g id="Group_3933" data-name="Group 3933">
      <path id="Path_5920" data-name="Path 5920" d="M9465.524,14761.509c6.567-31.59,16.01-89.273,76.558-71.347s40.628,29.124,97.831,21.63,86.675,95.53,35.142,93.989-30.141,11.445-69.951,14.13-54.4,11.21-89.292-3.391S9458.957,14793.1,9465.524,14761.509Z" transform="translate(-9383 -14424.288)" fill="#d2dff2" opacity="0.6"/>
      <circle id="Ellipse_599" data-name="Ellipse 599" cx="2.5" cy="2.5" r="2.5" transform="translate(113 264)" fill="#1e64cc"/>
      <circle id="Ellipse_600" data-name="Ellipse 600" cx="4.5" cy="4.5" r="4.5" transform="translate(83 366)" fill="#1e64cc"/>
      <circle id="Ellipse_601" data-name="Ellipse 601" cx="7.5" cy="7.5" r="7.5" transform="translate(293 306)" fill="#fe7614"/>
      <g id="Mindfulness-pana" transform="translate(87.5 254.477)">
        <g id="freepik--Character--inject-399" transform="translate(46.839 0)">
          <path id="Path_7998" data-name="Path 7998" d="M319.461,197.751a3.4,3.4,0,0,0-5.293-2.909,6.337,6.337,0,0,0-2.288,2.507c-1.436,2.636-1.607,5.748-1.907,8.732a21.311,21.311,0,0,1-2.6,8.454l10.971-13.071A6.4,6.4,0,0,0,319.461,197.751Z" transform="translate(-206.646 -123.946)" fill="#b0bec5"/>
          <g id="Group_3486" data-name="Group 3486" transform="translate(100.724 70.322)" opacity="0.2">
            <path id="Path_7999" data-name="Path 7999" d="M319.461,197.751a3.4,3.4,0,0,0-5.293-2.909,6.337,6.337,0,0,0-2.288,2.507c-1.436,2.636-1.607,5.748-1.907,8.732a21.311,21.311,0,0,1-2.6,8.454l10.971-13.071A6.4,6.4,0,0,0,319.461,197.751Z" transform="translate(-307.37 -194.267)"/>
          </g>
          <path id="Path_8000" data-name="Path 8000" d="M302.821,187.44c.648.536,22.012,25.061,22.012,25.061l-11.555,9.177L298.6,203.383Z" transform="translate(-202.574 -120.776)" fill="#ffbe9d"/>
          <path id="Path_8001" data-name="Path 8001" d="M172.189,202.91c-.568.632-17.829,23.571-17.829,23.571l10.805,11.711,13.259-20.02Z" transform="translate(-135.606 -127.958)" fill="#ffbe9d"/>
          <path id="Path_8002" data-name="Path 8002" d="M188,230.44a5.36,5.36,0,0,1,2.448,3.214,12.136,12.136,0,0,0,1.725,3.75c.895,1.071,2.566,1.645,3.691.83s1.125-2.384.643-3.611a7.414,7.414,0,0,0-3.134-3.487,15.488,15.488,0,0,0-4.457-1.666" transform="translate(-151.224 -140.29)" fill="#b0bec5"/>
          <g id="Group_3487" data-name="Group 3487" transform="translate(36.776 89.18)" opacity="0.2">
            <path id="Path_8003" data-name="Path 8003" d="M188,230.44a5.36,5.36,0,0,1,2.448,3.214,12.136,12.136,0,0,0,1.725,3.75c.895,1.071,2.566,1.645,3.691.83s1.125-2.384.643-3.611a7.414,7.414,0,0,0-3.134-3.487,15.488,15.488,0,0,0-4.457-1.666" transform="translate(-188 -229.47)"/>
          </g>
          <path id="Path_8004" data-name="Path 8004" d="M256.563,302.024a7.8,7.8,0,0,0-1.179-.225L212.324,283.74h-42.8l-42.214,16.677c-4.286,1.425-10.4,9.788-6.932,19.779.1.279.2.536.3.809a14.851,14.851,0,0,0,17.679,8.636c5.834-1.559,14.212-3.841,22.838-6.2h.97l26.855-7.618c4.205,1.163,13.045,3.6,22.87,6.3h0c11.941,3.284,25.334,6.964,33.6,9.155a14.838,14.838,0,0,0,17.679-8.636c.107-.263.2-.536.3-.809C266.962,311.811,260.849,303.449,256.563,302.024Z" transform="translate(-119.352 -165.486)" fill="#455a64"/>
          <path id="Path_8005" data-name="Path 8005" d="M197.847,327.815l.15-.054.434-.134,1.7-.5,6.429-1.832-.075.129-4.286-15.75.145.112H197.97c-1.516,0-3.07.139-4.655.2l-9.911.536c-12.246.712-23.314,1.543-31.323,2.191l-9.509.771-2.582.209-.67.048a.115.115,0,1,1-.005-.043l.67-.075,2.571-.279c2.239-.225,5.475-.536,9.477-.889,8-.712,19.077-1.58,31.323-2.293l9.916-.536c1.607-.064,3.145-.177,4.661-.193h4.543v.118c1.666,6.268,3.107,11.695,4.189,15.777l.027.1-.1.027-6.429,1.741-1.72.445-.445.107a.424.424,0,0,1-.155.064Z" transform="translate(-128.516 -177.419)" fill="#263238"/>
          <path id="Path_8006" data-name="Path 8006" d="M218.716,307.487a9.494,9.494,0,0,1-2.529-1.682,9.982,9.982,0,0,1-2.111-2.186,26.87,26.87,0,0,1,2.33,1.923A26.529,26.529,0,0,1,218.716,307.487Z" transform="translate(-163.33 -174.715)" fill="#263238"/>
          <path id="Path_8007" data-name="Path 8007" d="M315.815,317.569a4.075,4.075,0,0,1-.589,0l-1.687-.1-6.2-.423-20.448-1.393-20.48-1.237-6.209-.364-1.7-.113a3.829,3.829,0,0,1-.584-.059,3.1,3.1,0,0,1,.589,0l1.693.054,6.209.257c5.25.241,12.493.627,20.491,1.141s15.23,1.045,20.464,1.473l6.2.536,1.682.161A3.112,3.112,0,0,1,315.815,317.569Z" transform="translate(-183.682 -179.473)" fill="#263238"/>
          <path id="Path_8008" data-name="Path 8008" d="M250.1,318.26a3,3,0,0,1,1.768-.991,3.36,3.36,0,0,1,2.025,0c-.027.064-.9.038-1.939.311S250.156,318.341,250.1,318.26Z" transform="translate(-180.053 -180.989)" fill="#263238"/>
          <path id="Path_8009" data-name="Path 8009" d="M252.28,323.9a9.4,9.4,0,0,1,3.536-.423,4.758,4.758,0,0,1-1.746.38A4.99,4.99,0,0,1,252.28,323.9Z" transform="translate(-181.068 -183.91)" fill="#263238"/>
          <path id="Path_8010" data-name="Path 8010" d="M253.26,329.19c0-.1.959-.129,2.073-.461s1.934-.8,1.993-.718a3.75,3.75,0,0,1-1.9,1.071A3.809,3.809,0,0,1,253.26,329.19Z" transform="translate(-181.523 -186.036)" fill="#263238"/>
          <path id="Path_8011" data-name="Path 8011" d="M255.22,335.318c0-.1.916-.171,1.955-.573s1.789-.932,1.848-.852a3.213,3.213,0,0,1-1.725,1.173A3.441,3.441,0,0,1,255.22,335.318Z" transform="translate(-182.433 -188.768)" fill="#263238"/>
          <path id="Path_8012" data-name="Path 8012" d="M289.3,307.787a16.181,16.181,0,0,1-1.446,1.993,14.645,14.645,0,0,1-1.484,1.966,6.142,6.142,0,0,1,1.205-2.17A6.577,6.577,0,0,1,289.3,307.787Z" transform="translate(-196.892 -176.649)" fill="#263238"/>
          <path id="Path_8013" data-name="Path 8013" d="M229.134,305.98l-10.259-1.554s-.932-2.416-2.512-2.539-3.043,1.607-4.195,1.516-14.93-4.741-15.718,1.5l5.732,2.362" transform="translate(-155.147 -173.803)" fill="#ffbe9d"/>
          <path id="Path_8014" data-name="Path 8014" d="M291.449,314.622l-30.536,6.546-2.743-10.484,11.3-.536s1.355-2.212,2.93-2.046,2.679,2.143,3.857,2.239S291.791,308.343,291.449,314.622Z" transform="translate(-183.803 -176.793)" fill="#ffbe9d"/>
          <path id="Path_8015" data-name="Path 8015" d="M174.755,285.72s-.086.048-.262.129l-.787.364c-.691.321-1.72.777-3.048,1.35-2.679,1.146-6.53,2.727-11.336,4.639s-10.532,4.152-16.832,6.809a84.561,84.561,0,0,0-9.739,4.425l-.6.359a.572.572,0,0,0-.107.075h0v-.038a.819.819,0,0,0,.273.086,9.689,9.689,0,0,0,1.382.118c.943.027,1.891,0,2.85,0,1.918-.048,3.868-.134,5.834-.236,7.88-.418,15.375-.98,22.189-1.5l18.107-1.441,12.2-1.018,3.321-.268.863-.064h.295a1.525,1.525,0,0,0-.295.043l-.857.091-3.316.321-12.2,1.1c-5.148.45-11.282.97-18.1,1.505s-14.314,1.1-22.195,1.521c-1.971.1-3.921.188-5.839.23-.964,0-1.918.032-2.871,0a9.962,9.962,0,0,1-1.425-.118,1.04,1.04,0,0,1-.391-.145.236.236,0,0,1-.091-.182.252.252,0,0,1,.07-.166.954.954,0,0,1,.177-.129l.6-.359a83.921,83.921,0,0,1,9.782-4.425c6.305-2.646,12.048-4.864,16.859-6.755s8.7-3.445,11.363-4.559l3.07-1.3.793-.337Z" transform="translate(-125.122 -166.406)" fill="#fff"/>
          <path id="Path_8016" data-name="Path 8016" d="M290.84,285.72a.767.767,0,0,1,.2.07l.573.241,2.186.943,8.036,3.423,26.63,11.121a67.5,67.5,0,0,1,7.5,3.429c.295.161.584.327.862.5a3.671,3.671,0,0,1,.434.279,1.129,1.129,0,0,1,.107.118.279.279,0,0,1,.048.214c0,.1-.064.129-.112.182a1.112,1.112,0,0,1-.134.08,7.21,7.21,0,0,1-1.966.241c-1.286.027-2.539,0-3.75-.07-4.88-.236-9.262-.637-12.943-.975s-6.648-.664-8.7-.889l-2.362-.273-.616-.08a1.128,1.128,0,0,1-.2-.038h.209l.616.048,2.368.225,8.711.8c3.68.311,8.063.7,12.938.916,1.216.048,2.464.091,3.75.059a7.083,7.083,0,0,0,1.864-.22l.075-.043h0c-.032.027,0-.038-.064-.08s-.252-.166-.4-.252c-.279-.166-.562-.332-.852-.493a69.757,69.757,0,0,0-7.468-3.407c-10.4-4.339-19.821-8.282-26.6-11.2-3.391-1.457-6.129-2.679-8.036-3.509L291.6,286.1l-.562-.268Z" transform="translate(-198.971 -166.406)" fill="#fff"/>
          <path id="Path_8017" data-name="Path 8017" d="M239.8,130.874h0a8.818,8.818,0,0,0,9.418-9.311c-.129-2.218-.241-3.911-.241-3.911s6.991-1.071,7.077-8.073-1.125-23.036-1.125-23.036h0a24.279,24.279,0,0,0-24.4,3.08l-1.039.8,2.143,32.239a8.823,8.823,0,0,0,8.164,8.212Z" transform="translate(-170.487 -73.017)" fill="#ffbe9d"/>
          <path id="Path_8018" data-name="Path 8018" d="M258,143.917a16.264,16.264,0,0,1-9.107-2.588s2.143,5.03,9.107,4.4Z" transform="translate(-179.494 -99.368)" fill="#eb996e"/>
          <path id="Path_8019" data-name="Path 8019" d="M227.07,108.808c-.118-.054-4.821-1.42-4.645,3.354s4.913,3.638,4.918,3.5S227.07,108.808,227.07,108.808Z" transform="translate(-167.205 -84.166)" fill="#ffbe9d"/>
          <path id="Path_8020" data-name="Path 8020" d="M226.881,115.277a1.665,1.665,0,0,1-.22.129.841.841,0,0,1-.621.032,2.012,2.012,0,0,1-1.012-1.816,2.8,2.8,0,0,1,.193-1.2.975.975,0,0,1,.605-.659.423.423,0,0,1,.5.214c.07.129.043.225.07.236s.1-.086.054-.279a.5.5,0,0,0-.2-.295.605.605,0,0,0-.461-.107,1.162,1.162,0,0,0-.846.766,2.8,2.8,0,0,0-.246,1.339,2.156,2.156,0,0,0,1.28,2.025.873.873,0,0,0,.755-.15C226.875,115.389,226.9,115.282,226.881,115.277Z" transform="translate(-168.258 -85.529)" fill="#eb996e"/>
          <path id="Path_8021" data-name="Path 8021" d="M247.607,107.612c.123-.134.879.429,1.955.423s1.859-.536,1.977-.407-.07.295-.413.536a2.705,2.705,0,0,1-1.607.488,2.62,2.62,0,0,1-1.554-.5C247.66,107.9,247.548,107.666,247.607,107.612Z" transform="translate(-178.892 -83.703)" fill="#263238"/>
          <path id="Path_8022" data-name="Path 8022" d="M267.307,107.233c.123-.129.879.429,1.955.429s1.859-.536,1.977-.407c.054.054-.07.289-.413.536a2.786,2.786,0,0,1-1.607.488,2.679,2.679,0,0,1-1.554-.5C267.361,107.528,267.248,107.292,267.307,107.233Z" transform="translate(-188.038 -83.528)" fill="#263238"/>
          <path id="Path_8023" data-name="Path 8023" d="M261.637,114.126a7.029,7.029,0,0,1,1.746-.316c.273-.027.536-.08.579-.268a1.4,1.4,0,0,0-.182-.814l-.809-2.089a35.521,35.521,0,0,1-1.821-5.459,35.629,35.629,0,0,1,2.255,5.3l.777,2.1a1.559,1.559,0,0,1,.139,1.071.67.67,0,0,1-.45.4,1.731,1.731,0,0,1-.466.064A7.205,7.205,0,0,1,261.637,114.126Z" transform="translate(-185.181 -82.583)" fill="#263238"/>
          <path id="Path_8024" data-name="Path 8024" d="M256.028,123.26c.171,0,.177,1.157,1.173,1.982s2.239.7,2.245.862c0,.075-.273.23-.8.241a2.861,2.861,0,0,1-1.875-.654,2.5,2.5,0,0,1-.911-1.661C255.819,123.544,255.932,123.255,256.028,123.26Z" transform="translate(-182.727 -90.978)" fill="#263238"/>
          <path id="Path_8025" data-name="Path 8025" d="M251.073,100.5c-.107.295-1.179.155-2.437.305s-2.277.5-2.448.236c-.07-.129.107-.4.536-.686a4.286,4.286,0,0,1,3.75-.407C250.9,100.135,251.116,100.36,251.073,100.5Z" transform="translate(-178.233 -80.035)" fill="#263238"/>
          <path id="Path_8026" data-name="Path 8026" d="M270.593,102.172c-.187.241-.927,0-1.816,0s-1.645.161-1.816-.091c-.075-.129.043-.37.37-.6a2.625,2.625,0,0,1,2.93.091C270.577,101.8,270.679,102.049,270.593,102.172Z" transform="translate(-187.875 -80.679)" fill="#263238"/>
          <path id="Path_8027" data-name="Path 8027" d="M256.115,74.913a2.577,2.577,0,0,0-.954-2.3,1.827,1.827,0,0,0-2.368.177,2.143,2.143,0,0,0-1.838-2.587c-1.136-.07-2.111.787-3.214,1.071a5.18,5.18,0,0,1-3.263-.38c-1.034-.412-2-.991-3.048-1.371A8.936,8.936,0,0,0,230,74.763,3.954,3.954,0,0,0,225.8,76.37a6.487,6.487,0,0,0-1,4.58,14.784,14.784,0,0,0,.8,3.134v.268c.07,3.841.509,8.357,2.143,8.379,2.861.043,2.18-5.357,2.18-5.357,3.5-1.355,2.2-6.611,3.075-7.4s2.711-2.679,10.05,1.1a14.185,14.185,0,0,0,8.705.938l.182-.032h.043a.23.23,0,0,0,.064-.027,6.52,6.52,0,0,0,1.88-.8,3.75,3.75,0,0,0,1.554-1.725,2.046,2.046,0,0,0-.4-2.186A4.484,4.484,0,0,0,256.115,74.913Z" transform="translate(-168.275 -65.774)" fill="#263238"/>
          <path id="Path_8028" data-name="Path 8028" d="M256.383,63a1.926,1.926,0,0,1,.134.193,3.006,3.006,0,0,1,.279.595,4.478,4.478,0,0,1,.15,2.405,4.73,4.73,0,0,1-1.929,2.984,6.177,6.177,0,0,1-4.286.7c-1.516-.23-2.946-.729-4.248-1a7.779,7.779,0,0,0-3.477-.086,4.618,4.618,0,0,0-2.079,1.071c-.407.386-.536.664-.584.648s0-.075.1-.209a2.994,2.994,0,0,1,.407-.536,4.414,4.414,0,0,1,2.111-1.157,7.661,7.661,0,0,1,3.573,0c1.323.257,2.721.755,4.232.97a5.979,5.979,0,0,0,4.12-.632,4.554,4.554,0,0,0,1.87-2.8,4.613,4.613,0,0,0-.059-2.33C256.528,63.279,256.356,63,256.383,63Z" transform="translate(-175.518 -63)" fill="#455a64"/>
          <path id="Path_8029" data-name="Path 8029" d="M262.881,65.43a1.484,1.484,0,0,1,.45,1.071,2.443,2.443,0,0,1-.236,1.264,2.721,2.721,0,0,1-1.071,1.146,3.241,3.241,0,0,1-1.511.434,3.75,3.75,0,0,1-1.264-.171,2.336,2.336,0,0,1-1.029-.536c0-.037.407.177,1.071.343a3.5,3.5,0,0,0,2.582-.316,2.625,2.625,0,0,0,1-1.018,2.421,2.421,0,0,0,.268-1.141A3.7,3.7,0,0,0,262.881,65.43Z" transform="translate(-183.826 -64.128)" fill="#263238"/>
          <path id="Path_8030" data-name="Path 8030" d="M295.291,273.6a5.3,5.3,0,0,1-2.914,5.143l-7.634-3.214-9.413.632,3.712-10.082s10.575,1.3,12.07,2.5S295.409,272.016,295.291,273.6Z" transform="translate(-191.77 -157.287)" fill="#b0bec5"/>
          <g id="Group_3488" data-name="Group 3488" transform="translate(83.56 108.793)" opacity="0.4">
            <path id="Path_8031" data-name="Path 8031" d="M295.291,273.6a5.3,5.3,0,0,1-2.914,5.143l-7.634-3.214-9.413.632,3.712-10.082s10.575,1.3,12.07,2.5S295.409,272.016,295.291,273.6Z" transform="translate(-275.33 -266.08)"/>
          </g>
          <path id="Path_8032" data-name="Path 8032" d="M295.291,273.6a5.3,5.3,0,0,1-2.914,5.143l-7.634-3.214-9.413.632,3.712-10.082s10.575,1.3,12.07,2.5S295.409,272.016,295.291,273.6Z" transform="translate(-191.77 -157.287)" fill="#b0bec5"/>
          <g id="Group_3489" data-name="Group 3489" transform="translate(83.56 108.793)" opacity="0.4">
            <path id="Path_8033" data-name="Path 8033" d="M295.291,273.6a5.3,5.3,0,0,1-2.914,5.143l-7.634-3.214-9.413.632,3.712-10.082s10.575,1.3,12.07,2.5S295.409,272.016,295.291,273.6Z" transform="translate(-275.33 -266.08)"/>
          </g>
          <path id="Path_8034" data-name="Path 8034" d="M255.514,177.289l-.745-.664-16.152-12.648c-4.988-5.3-8.614-6.895-15.627-7.725-1.146-.134.659.086,0,0a33.076,33.076,0,0,1-17.968.155h0c-2.491.1-4.559.873-6.68,1.28-6.686,1.28-10.259,6-12.83,10.645L172.58,190.023l.536.857a14.893,14.893,0,0,0,7.639,5.984h0l.868.434a19.859,19.859,0,0,1,7.629,6.391h0l5.695-9.948-1.607,15.943-1.1,15.659a78.064,78.064,0,0,0,23.368,2.979c11.25.054,26.925-13.655,31.982-5.732.07-4.061-5.041-9.643-6.461-12.321-4.4-8.373-3.573-11.759-3.889-18.043l7.554,4.634,1.355-2.652a52.637,52.637,0,0,0,4.146-11.111C250.291,183.1,251.18,175.848,255.514,177.289Z" transform="translate(-144.065 -106.275)" fill="#b0bec5"/>
          <path id="Path_8035" data-name="Path 8035" d="M214.208,196.28a2.56,2.56,0,0,1,.059.654c0,.423.032,1.034.043,1.789,0,1.505.032,3.589,0,5.893s-.038,4.387-.075,5.893c0,.755-.038,1.366-.059,1.789a2.732,2.732,0,0,1-.064.654,2.6,2.6,0,0,1-.059-.654c0-.423-.032-1.034-.043-1.789,0-1.505-.027-3.589,0-5.893s.037-4.382.07-5.893c0-.75.038-1.361.059-1.784A2.678,2.678,0,0,1,214.208,196.28Z" transform="translate(-163.295 -124.88)" fill="#263238"/>
          <path id="Path_8036" data-name="Path 8036" d="M293.4,221.055a6.2,6.2,0,0,1-.134-1.012c-.064-.707-.145-1.639-.246-2.77-.2-2.336-.445-5.571-.7-9.145s-.466-6.809-.6-9.15c-.064-1.13-.112-2.068-.15-2.775a6.493,6.493,0,0,1,0-1.023,6.206,6.206,0,0,1,.134,1.012c.064.707.15,1.639.246,2.77.2,2.341.445,5.571.7,9.145s.466,6.809.605,9.15c.059,1.13.107,2.068.145,2.78a6.429,6.429,0,0,1,0,1.018Z" transform="translate(-199.302 -124.369)" fill="#263238"/>
          <g id="Group_3490" data-name="Group 3490" transform="translate(58.901 50.609)" opacity="0.2">
            <path id="Path_8037" data-name="Path 8037" d="M229.3,157.55a41.545,41.545,0,0,0,13.034,11.85,14.942,14.942,0,0,0,6.054,2.213c3.723.3,7.232-1.73,10.12-4.1a8.066,8.066,0,0,0,2.754-3.386,3.218,3.218,0,0,0-1.195-3.879,3.37,3.37,0,0,0-2.936.1,15.829,15.829,0,0,0-2.539,1.666,17.052,17.052,0,0,1-24.043-4.543" transform="translate(-229.3 -157.47)"/>
          </g>
          <path id="Path_8038" data-name="Path 8038" d="M254.806,221.411a15.171,15.171,0,0,0-.343-2.25,8.785,8.785,0,0,0-1.034-2.443,9.332,9.332,0,0,0-2.341-2.593,9.107,9.107,0,0,0-8.652-1.291,9.133,9.133,0,0,0-4.238,3.182,9.107,9.107,0,0,0,0,10.784,9.133,9.133,0,0,0,4.238,3.182,9.107,9.107,0,0,0,8.62-1.291A9.332,9.332,0,0,0,253.4,226.1a8.785,8.785,0,0,0,1.034-2.443,15.274,15.274,0,0,0,.343-2.245.62.62,0,0,1,0,.15V222a4.225,4.225,0,0,1-.059.718,6.552,6.552,0,0,1-.177.964,8.63,8.63,0,0,1-1,2.491,9.323,9.323,0,0,1-11.218,4.05,8.731,8.731,0,0,1-2.379-1.27,8.63,8.63,0,0,1-1.988-1.993,9.332,9.332,0,0,1,0-11.105,10.617,10.617,0,0,1,.921-1.071,11.22,11.22,0,0,1,1.071-.905,8.807,8.807,0,0,1,2.379-1.27,9.323,9.323,0,0,1,11.218,4.05,8.63,8.63,0,0,1,1,2.491,6.553,6.553,0,0,1,.177.964,4.229,4.229,0,0,1,.059.718v.445A.661.661,0,0,1,254.806,221.411Z" transform="translate(-173.566 -132.204)" fill="#fff"/>
          <path id="Path_8039" data-name="Path 8039" d="M253.019,230.748c-.08,0-.139-4.141-.139-9.252s.059-9.246.139-9.246.139,4.136.139,9.246S253.094,230.748,253.019,230.748Z" transform="translate(-181.347 -132.295)" fill="#fff"/>
          <path id="Path_8040" data-name="Path 8040" d="M254.871,234.577a4.119,4.119,0,0,1-.621-.429l-1.607-1.243c-1.371-1.071-3.246-2.545-5.3-4.195l-.166-.129h.182c-1.886,1.773-3.6,3.364-4.848,4.5l-1.489,1.339a3.625,3.625,0,0,1-.568.461,3.655,3.655,0,0,1,.493-.536l1.409-1.377c1.211-1.173,2.9-2.791,4.821-4.564l.086-.086.1.075.161.134c2.062,1.65,3.916,3.155,5.255,4.254.627.536,1.157.97,1.57,1.312A4.063,4.063,0,0,1,254.871,234.577Z" transform="translate(-175.576 -139.756)" fill="#fff"/>
          <g id="Group_3491" data-name="Group 3491" transform="translate(62.881 100.06)" opacity="0.2">
            <path id="Path_8041" data-name="Path 8041" d="M237.887,263.67a21.755,21.755,0,0,0,21.1-8.255,4.412,4.412,0,0,0,1.157-3.552,3.154,3.154,0,0,0-3.1-2.084,5.893,5.893,0,0,0-3.6,1.645c-2.454,2.143-3.857,5.3-6.305,7.457a11.25,11.25,0,0,1-8.036,2.77,5.942,5.942,0,0,0-1.345.054,1.205,1.205,0,0,0-1.023,1.071c0,.536.418.761,1.152.9" transform="translate(-236.73 -249.778)"/>
          </g>
          <g id="Group_3492" data-name="Group 3492" transform="translate(92.501 76.2)" opacity="0.2">
            <path id="Path_8042" data-name="Path 8042" d="M292.02,205.24l.664,9.755,7.559,4.629,1.58-2.941Z" transform="translate(-292.02 -205.24)"/>
          </g>
          <path id="Path_8043" data-name="Path 8043" d="M318.272,195.613a4.077,4.077,0,0,0-.905-.177,3.407,3.407,0,0,0-2.288.857,6.225,6.225,0,0,0-1.784,3.214c-.37,1.366-.723,2.9-1.216,4.479a60.4,60.4,0,0,1-3.021,7.88c-.455.98-.857,1.757-1.141,2.288a5.151,5.151,0,0,1-.477.809,7.423,7.423,0,0,1,.38-.857c.252-.536.627-1.334,1.071-2.32a71.051,71.051,0,0,0,2.93-7.88c.493-1.57.846-3.086,1.237-4.473a6.268,6.268,0,0,1,1.907-3.279,3.445,3.445,0,0,1,2.416-.809,2.052,2.052,0,0,1,.686.166A.943.943,0,0,1,318.272,195.613Z" transform="translate(-206.678 -124.444)" fill="#263238"/>
          <path id="Path_8044" data-name="Path 8044" d="M189.23,232.991a7.623,7.623,0,0,1-.536-.664,22.4,22.4,0,0,0-1.564-1.741,14.748,14.748,0,0,0-2.705-2.143c-1.1-.7-2.395-1.329-3.75-2.014a35.3,35.3,0,0,1-3.707-2.143,15.563,15.563,0,0,1-2.679-2.266,9.644,9.644,0,0,1-1.382-1.913,5.427,5.427,0,0,1-.284-.579c-.059-.134-.086-.2-.075-.209a13.928,13.928,0,0,0,1.886,2.566,16.126,16.126,0,0,0,2.679,2.186,38.08,38.08,0,0,0,3.691,2.105,42.307,42.307,0,0,1,3.75,2.046,13.982,13.982,0,0,1,2.7,2.229,16.833,16.833,0,0,1,1.511,1.811c.161.225.284.4.359.536A.9.9,0,0,1,189.23,232.991Z" transform="translate(-144.049 -135.577)" fill="#263238"/>
          <path id="Path_8045" data-name="Path 8045" d="M261.326,250.89a1.253,1.253,0,0,1-.091.305c-.08.2-.171.5-.343.863a19.532,19.532,0,0,1-1.607,3,21.488,21.488,0,0,1-19.114,9.862,19.992,19.992,0,0,1-3.375-.434c-.391-.075-.691-.171-.895-.22a1.57,1.57,0,0,1-.311-.1,1.194,1.194,0,0,1,.321.048c.209.032.536.113.905.171a23.364,23.364,0,0,0,3.359.337,21.82,21.82,0,0,0,18.943-9.771,22.615,22.615,0,0,0,1.671-2.936c.182-.359.289-.648.386-.841a1.6,1.6,0,0,1,.15-.284Z" transform="translate(-173.319 -150.235)" fill="#263238"/>
          <g id="Group_3493" data-name="Group 3493" transform="translate(45.658 73.548)" opacity="0.2">
            <path id="Path_8046" data-name="Path 8046" d="M204.58,223.031a79.248,79.248,0,0,1,5.255-22.741v13.864Z" transform="translate(-204.58 -200.29)"/>
          </g>
          <path id="Path_8047" data-name="Path 8047" d="M228.79,137.829c2.346,5.03,8.571,7.886,14,8.936a17.936,17.936,0,0,0,15.412-4.462c3.429-3.214,5.448-7.677,8.641-11.132a21.964,21.964,0,0,1,22.055-5.984l.423-7.607c-2.6-1.687-9.305-2.3-12.37-1.838a24.386,24.386,0,0,0-15.439,9.037c-3.364,4.329-5.357,9.895-9.809,13.077-3.214,2.3-7.227,2.314-11.132,1.655s-6.541-4.232-9.557-6.8Z" transform="translate(-170.162 -87.418)" fill="#263238"/>
          <path id="Path_8048" data-name="Path 8048" d="M232.87,147.56a12.546,12.546,0,0,0,17.63,2.089c.7-.536,1.607-1.216,2.373-.8a2.176,2.176,0,0,1,.841,1.789c.188,1.575.338,3.316-.589,4.6s-2.507,1.666-4.007,1.923a18.858,18.858,0,0,1-10.634-.916c-3.3-1.452-5.33-5.084-5.614-8.684" transform="translate(-172.057 -102.26)" fill="#263238"/>
          <path id="Path_8049" data-name="Path 8049" d="M255.165,151.421a1.029,1.029,0,0,1-.177.2c-.123.118-.295.305-.536.536a12.686,12.686,0,0,1-2.288,1.57,12.858,12.858,0,0,1-3.889,1.339,12.456,12.456,0,0,1-5.03-.155,16.752,16.752,0,0,1-4.618-2.02c-.664-.4-1.286-.777-1.864-1.157a14.3,14.3,0,0,1-1.521-1.173,10.179,10.179,0,0,1-1.838-2.073,5.6,5.6,0,0,1-.37-.659c-.075-.155-.107-.241-.1-.246s.182.316.536.841a11.159,11.159,0,0,0,1.875,1.993,17.294,17.294,0,0,0,1.521,1.125c.573.364,1.205.739,1.87,1.13a17.035,17.035,0,0,0,4.548,1.966,12.434,12.434,0,0,0,4.923.177,13.141,13.141,0,0,0,3.841-1.264,13.735,13.735,0,0,0,2.309-1.479,9.824,9.824,0,0,1,.8-.648Z" transform="translate(-172.087 -102.269)" fill="#455a64"/>
          <path id="Path_8050" data-name="Path 8050" d="M286.258,151.933a84.593,84.593,0,0,1-6.188-3.343,17.91,17.91,0,0,1,3.214,1.489A18.494,18.494,0,0,1,286.258,151.933Z" transform="translate(-193.971 -102.738)" fill="#455a64"/>
          <path id="Path_8051" data-name="Path 8051" d="M292.754,142.528a52.813,52.813,0,0,1-6.734-3.718,25.854,25.854,0,0,1,3.434,1.736,26.566,26.566,0,0,1,3.3,1.982Z" transform="translate(-196.733 -98.198)" fill="#455a64"/>
          <path id="Path_8052" data-name="Path 8052" d="M300.288,133.466a5.224,5.224,0,0,1-.889-.771l-2.052-1.95-2.057-1.934a5.487,5.487,0,0,1-.82-.841,5.111,5.111,0,0,1,.948.691c.536.461,1.323,1.12,2.143,1.88s1.511,1.479,2,2.014A4.735,4.735,0,0,1,300.288,133.466Z" transform="translate(-200.657 -93.165)" fill="#455a64"/>
          <path id="Path_8053" data-name="Path 8053" d="M306.35,119.52a7.174,7.174,0,0,1,.766,1.1c.536.777,1.1,1.7,1.757,2.711s1.27,1.923,1.784,2.679a6.525,6.525,0,0,1,.7,1.152,6.154,6.154,0,0,1-.862-1.034c-.5-.664-1.157-1.607-1.854-2.679s-1.28-2.046-1.687-2.764A5.6,5.6,0,0,1,306.35,119.52Z" transform="translate(-206.172 -89.241)" fill="#455a64"/>
          <path id="Path_8054" data-name="Path 8054" d="M322.048,116.56a6.085,6.085,0,0,1,.311,1.195c.193.852.413,1.827.659,2.909s.5,2.046.707,2.893a5.6,5.6,0,0,1,.252,1.211,5.094,5.094,0,0,1-.439-1.157c-.236-.729-.536-1.746-.793-2.882s-.461-2.18-.579-2.936A4.854,4.854,0,0,1,322.048,116.56Z" transform="translate(-213.459 -87.867)" fill="#455a64"/>
          <path id="Path_8055" data-name="Path 8055" d="M334.2,116.38c.08,0,.048,1.811.161,4.034s.316,4.018.236,4.029a4.506,4.506,0,0,1-.246-1.162c-.107-.729-.214-1.736-.268-2.855a26.533,26.533,0,0,1,0-2.861A4.73,4.73,0,0,1,334.2,116.38Z" transform="translate(-219.032 -87.784)" fill="#455a64"/>
          <path id="Path_8056" data-name="Path 8056" d="M277.985,161.641a25.683,25.683,0,0,1-2.8-2.534,26.25,26.25,0,0,1-2.6-2.738,26.1,26.1,0,0,1,2.8,2.539,25.234,25.234,0,0,1,2.6,2.732Z" transform="translate(-190.493 -106.35)" fill="#455a64"/>
          <path id="Path_8057" data-name="Path 8057" d="M266.762,167.543a23.916,23.916,0,0,1-1.163-3.391,22.691,22.691,0,0,1-.9-3.471,23.215,23.215,0,0,1,1.168,3.391A22.842,22.842,0,0,1,266.762,167.543Z" transform="translate(-186.835 -108.351)" fill="#455a64"/>
          <path id="Path_8058" data-name="Path 8058" d="M252.84,167.876a18.018,18.018,0,0,1,.509-3.145,18.546,18.546,0,0,1,.782-3.091,36.474,36.474,0,0,1-1.291,6.236Z" transform="translate(-181.328 -108.797)" fill="#455a64"/>
          <path id="Path_8059" data-name="Path 8059" d="M241,164.145a10.179,10.179,0,0,1,1.018-2.791,10.426,10.426,0,0,1,1.559-2.534c.07.048-.6,1.189-1.307,2.679A29.229,29.229,0,0,1,241,164.145Z" transform="translate(-175.831 -107.488)" fill="#455a64"/>
          <path id="Path_8060" data-name="Path 8060" d="M235.254,153.65a9.707,9.707,0,0,1-1.227,2.427,10.141,10.141,0,0,1-1.607,2.175,20.719,20.719,0,0,1,1.393-2.325,20.4,20.4,0,0,1,1.441-2.277Z" transform="translate(-171.848 -105.088)" fill="#455a64"/>
          <path id="Path_8061" data-name="Path 8061" d="M250.658,156.659c.075,0,.027.445-.027.964s-.1.943-.177.948-.161-.439-.1-.98S250.583,156.638,250.658,156.659Z" transform="translate(-180.164 -106.484)" fill="#455a64"/>
          <path id="Path_8062" data-name="Path 8062" d="M260.315,158.311a4.72,4.72,0,0,1-.37-1.72,4.505,4.505,0,0,1,0-1.752,7.045,7.045,0,0,1,.268,1.725A6.856,6.856,0,0,1,260.315,158.311Z" transform="translate(-184.587 -105.64)" fill="#455a64"/>
          <path id="Path_8063" data-name="Path 8063" d="M267.711,150.74a14.342,14.342,0,0,1,.38,2.143,14.088,14.088,0,0,1,.332,2.143A9.418,9.418,0,0,1,267.711,150.74Z" transform="translate(-188.223 -103.736)" fill="#455a64"/>
          <path id="Path_8064" data-name="Path 8064" d="M165.99,225.653l33.616-19.5a8.668,8.668,0,0,0,4.318-7.125l.889-20.47a1.071,1.071,0,0,0-.954-1.071h0a1.071,1.071,0,0,0-1.109.766l-4.286,15.359-40.023,16.95a8.459,8.459,0,0,0-4.259,11.577h0a8.459,8.459,0,0,0,11.807,3.514Z" transform="translate(-135.107 -116.153)" fill="#ffbe9d"/>
          <path id="Path_8065" data-name="Path 8065" d="M203.415,207.57a3.519,3.519,0,0,1-.386.2l-1.125.536-4.168,1.907c-3.53,1.607-8.427,3.75-13.87,6.054s-10.409,4.286-14.02,5.705c-1.8.7-3.268,1.259-4.286,1.607l-1.173.429a1.939,1.939,0,0,1-.418.129,3.954,3.954,0,0,1,.4-.182l1.152-.477c1.034-.413,2.475-1,4.254-1.72,3.589-1.446,8.539-3.477,13.982-5.775s10.35-4.43,13.9-5.979l4.205-1.827,1.152-.488A2.213,2.213,0,0,1,203.415,207.57Z" transform="translate(-140.067 -130.122)" fill="#eb996e"/>
          <path id="Path_8066" data-name="Path 8066" d="M156.72,255.061c0-.027.45-.075,1.238-.268a7.3,7.3,0,0,0,1.387-.5,10.878,10.878,0,0,0,1.65-1.045c.584-.439,1.227-.921,1.9-1.452s1.371-1.13,2.105-1.757a25.061,25.061,0,0,1,5.148-3.643,17.513,17.513,0,0,1,6.064-1.72,18.043,18.043,0,0,1,5.148.263,16.791,16.791,0,0,1,3.316,1.039c.375.161.654.316.846.412a1.072,1.072,0,0,1,.284.166,1.98,1.98,0,0,1-.305-.118c-.2-.075-.488-.22-.868-.364a18.627,18.627,0,0,0-3.311-.937,18.214,18.214,0,0,0-5.084-.2,17.609,17.609,0,0,0-5.968,1.714,25.655,25.655,0,0,0-5.105,3.589c-.739.621-1.446,1.211-2.143,1.741s-1.329,1-1.929,1.425a10.536,10.536,0,0,1-1.7,1.034,7.385,7.385,0,0,1-1.425.466c-.4.08-.718.123-.937.145a1.26,1.26,0,0,1-.311.016Z" transform="translate(-136.701 -147.313)" fill="#263238"/>
          <path id="Path_8067" data-name="Path 8067" d="M168.732,258.1s.032.193.113.536a2.861,2.861,0,0,0,.67,1.211,4.238,4.238,0,0,0,1.714,1.125,3.552,3.552,0,0,0,2.459-.091l.23-.107-.064.177a4.666,4.666,0,0,0-1.479-1.912,4.559,4.559,0,0,0-1.8-.825,7.424,7.424,0,0,0-1.843-.091,1.393,1.393,0,0,1,.488-.129,4.4,4.4,0,0,1,1.393.027,4.581,4.581,0,0,1,1.913.814,4.736,4.736,0,0,1,1.607,2.009l.054.123-.118.054-.252.118a3.75,3.75,0,0,1-2.679.08,4.286,4.286,0,0,1-1.779-1.243,2.78,2.78,0,0,1-.627-1.318,1.227,1.227,0,0,1,0-.557Z" transform="translate(-142.263 -153.513)" fill="#263238"/>
          <path id="Path_8068" data-name="Path 8068" d="M168.76,258.23a6.429,6.429,0,0,1,1.661.8,5.967,5.967,0,0,1,1.521,1.045,6.429,6.429,0,0,1-1.661-.8A5.968,5.968,0,0,1,168.76,258.23Z" transform="translate(-142.291 -153.643)" fill="#263238"/>
          <path id="Path_8069" data-name="Path 8069" d="M178.21,249.993a4.439,4.439,0,0,1,.23.471,2.92,2.92,0,0,0,.927,1.029,4.339,4.339,0,0,0,1.929.7,3.563,3.563,0,0,0,2.373-.654l.2-.161v.188a4.7,4.7,0,0,0-1.875-1.521,4.624,4.624,0,0,0-1.945-.391,7.1,7.1,0,0,0-1.816.338,1.361,1.361,0,0,1,.45-.236,4.243,4.243,0,0,1,1.361-.295,4.467,4.467,0,0,1,2.046.354,4.746,4.746,0,0,1,2.009,1.607l.075.107-.1.08c-.07.054-.139.118-.22.171a3.75,3.75,0,0,1-2.561.686,4.339,4.339,0,0,1-2.014-.8,2.8,2.8,0,0,1-.911-1.141,1.382,1.382,0,0,1-.155-.536Z" transform="translate(-146.679 -149.568)" fill="#263238"/>
          <path id="Path_8070" data-name="Path 8070" d="M178.21,250.451a6.091,6.091,0,0,1,1.805.4,6.241,6.241,0,0,1,1.72.664,12.253,12.253,0,0,1-3.525-1.071Z" transform="translate(-146.679 -150.026)" fill="#263238"/>
          <path id="Path_8071" data-name="Path 8071" d="M160.091,257.417s.129-.145.332-.407a2.845,2.845,0,0,0,.536-1.27,4.211,4.211,0,0,0-.155-2.041,3.536,3.536,0,0,0-1.575-1.891L159,251.69l.177-.059a4.612,4.612,0,0,0-.166,4.286,7.34,7.34,0,0,0,1.071,1.516,1.377,1.377,0,0,1-.4-.311,4.57,4.57,0,0,1-1.355-3.129,4.784,4.784,0,0,1,.621-2.486l.064-.118.118.064.246.129a3.75,3.75,0,0,1,1.682,2.046,4.286,4.286,0,0,1,.1,2.143,2.748,2.748,0,0,1-.654,1.3,1.323,1.323,0,0,1-.418.343Z" transform="translate(-137.447 -150.467)" fill="#263238"/>
          <path id="Path_8072" data-name="Path 8072" d="M161.171,259.478a5.946,5.946,0,0,1-.386-1.805,6.315,6.315,0,0,1-.107-1.843,5.947,5.947,0,0,1,.386,1.805A6.317,6.317,0,0,1,161.171,259.478Z" transform="translate(-138.528 -152.528)" fill="#263238"/>
          <path id="Path_8073" data-name="Path 8073" d="M184.6,242.292s.161-.064.434-.2a2.582,2.582,0,0,0,.959-.83,3.857,3.857,0,0,0,.686-1.746,3.214,3.214,0,0,0-.536-2.18c-.043-.07-.1-.129-.139-.193l.188.027a4.238,4.238,0,0,0-1.436,1.688,4.184,4.184,0,0,0-.407,1.768,6.665,6.665,0,0,0,.252,1.671,1.676,1.676,0,0,1-.214-.413,4.044,4.044,0,0,1-.241-1.259,4.135,4.135,0,0,1,.37-1.875,4.35,4.35,0,0,1,1.511-1.811l.107-.075.075.1c.048.07.107.134.155.209a3.429,3.429,0,0,1,.573,2.373,3.969,3.969,0,0,1-.782,1.838,2.528,2.528,0,0,1-1.071.809A1.071,1.071,0,0,1,184.6,242.292Z" transform="translate(-149.434 -143.721)" fill="#263238"/>
          <path id="Path_8074" data-name="Path 8074" d="M185,244.214a5.159,5.159,0,0,1,.391-1.645,5.507,5.507,0,0,1,.68-1.57,5.148,5.148,0,0,1-.391,1.65,5.427,5.427,0,0,1-.68,1.564Z" transform="translate(-149.831 -145.643)" fill="#263238"/>
          <path id="Path_8075" data-name="Path 8075" d="M192.894,244.9a4.316,4.316,0,0,1-.038.482,2.711,2.711,0,0,0,.257,1.243,3.938,3.938,0,0,0,1.195,1.446,3.214,3.214,0,0,0,2.175.584l.23-.027-.113.15a4.286,4.286,0,0,0-.771-2.079,4.2,4.2,0,0,0-1.371-1.227,7.062,7.062,0,0,0-1.607-.589,1.157,1.157,0,0,1,.466,0A4.173,4.173,0,0,1,196,246.519a4.387,4.387,0,0,1,.846,2.2v.134h-.123l-.257.032a3.439,3.439,0,0,1-2.352-.654,3.9,3.9,0,0,1-1.221-1.607,2.5,2.5,0,0,1-.187-1.329,1,1,0,0,1,.193-.4Z" transform="translate(-153.397 -147.433)" fill="#263238"/>
          <path id="Path_8076" data-name="Path 8076" d="M193.08,244.93a5.357,5.357,0,0,1,1.248,1.146,5.2,5.2,0,0,1,1.039,1.334,5.245,5.245,0,0,1-1.248-1.146,5.009,5.009,0,0,1-1.039-1.334Z" transform="translate(-153.583 -147.468)" fill="#263238"/>
          <path id="Path_8077" data-name="Path 8077" d="M198.881,241.58a2.8,2.8,0,0,0,1.484-.263,3.439,3.439,0,0,0,1.205-1.071,2.829,2.829,0,0,0,.429-1.9,1.179,1.179,0,0,0-.038-.2l.155.107a3.7,3.7,0,0,0-1.762.739,3.611,3.611,0,0,0-1.007,1.205,6.315,6.315,0,0,0-.466,1.393.97.97,0,0,1,0-.407,3.461,3.461,0,0,1,.3-1.071A3.691,3.691,0,0,1,200.2,238.8a3.862,3.862,0,0,1,1.886-.82h.134v.129a1.447,1.447,0,0,1,.038.22,3.016,3.016,0,0,1-.488,2.079,3.5,3.5,0,0,1-1.334,1.12,2.239,2.239,0,0,1-1.157.2A1.053,1.053,0,0,1,198.881,241.58Z" transform="translate(-156.266 -144.241)" fill="#263238"/>
          <path id="Path_8078" data-name="Path 8078" d="M198.9,242.9a7.736,7.736,0,0,1,2.073-2.073,3.991,3.991,0,0,1-.948,1.163C199.489,242.528,198.954,242.962,198.9,242.9Z" transform="translate(-156.285 -145.564)" fill="#263238"/>
          <path id="Path_8079" data-name="Path 8079" d="M171.961,248.508s.129-.139.338-.4a2.9,2.9,0,0,0,.536-1.27,4.286,4.286,0,0,0-.155-2.046A3.557,3.557,0,0,0,171.1,242.9l-.23-.118.182-.059a4.611,4.611,0,0,0-.166,4.27,7.216,7.216,0,0,0,1.071,1.516,1.462,1.462,0,0,1-.4-.311,4.211,4.211,0,0,1-.825-1.12,4.468,4.468,0,0,1-.536-2.009,4.746,4.746,0,0,1,.621-2.486l.064-.112.112.059.252.129a3.713,3.713,0,0,1,1.677,2.046,4.237,4.237,0,0,1,.107,2.17,2.722,2.722,0,0,1-.664,1.3A1.189,1.189,0,0,1,171.961,248.508Z" transform="translate(-142.958 -146.325)" fill="#263238"/>
          <path id="Path_8080" data-name="Path 8080" d="M173.046,250.578a6.246,6.246,0,0,1-.38-1.805,6.316,6.316,0,0,1-.107-1.843,6.348,6.348,0,0,1,.386,1.805,5.989,5.989,0,0,1,.1,1.843Z" transform="translate(-144.043 -148.396)" fill="#263238"/>
          <path id="Path_8081" data-name="Path 8081" d="M292.029,219.917,257.743,204.6a8.384,8.384,0,0,1-4.864-6.429l-2.887-19.543a1.023,1.023,0,0,1,.809-1.146h0a1.013,1.013,0,0,1,1.141.621l5.673,14.314L297.75,204.66a7.886,7.886,0,0,1,5.261,10.714h0a8.164,8.164,0,0,1-10.982,4.543Z" transform="translate(-180.001 -116.144)" fill="#ffbe9d"/>
          <path id="Path_8082" data-name="Path 8082" d="M264.21,205.38a2.169,2.169,0,0,1,.407.1l1.152.354L270,207.164c3.563,1.125,8.491,2.679,13.929,4.334s10.414,3.107,14.009,4.141l4.254,1.221,1.157.343a3.426,3.426,0,0,1,.4.134,1.927,1.927,0,0,1-.412-.08l-1.168-.289c-1.013-.257-2.475-.648-4.286-1.141-3.605-.98-8.571-2.4-14.036-4.061s-10.377-3.241-13.929-4.414l-4.195-1.414-1.136-.4A2.25,2.25,0,0,1,264.21,205.38Z" transform="translate(-186.607 -129.105)" fill="#eb996e"/>
          <path id="Path_8083" data-name="Path 8083" d="M322.629,244.561a1.2,1.2,0,0,1-.316,0,7.969,7.969,0,0,1-.911-.043,6.617,6.617,0,0,1-1.42-.305,10.108,10.108,0,0,1-1.736-.814c-.616-.354-1.28-.739-1.993-1.179s-1.446-.932-2.218-1.457a24.588,24.588,0,0,0-5.266-2.914,16.912,16.912,0,0,0-5.893-1.071,17.839,17.839,0,0,0-4.859.707,17.541,17.541,0,0,0-3.086,1.237c-.354.177-.611.343-.8.434a1.072,1.072,0,0,1-.284.139,1.933,1.933,0,0,1,.257-.187c.177-.107.429-.289.771-.482a16.13,16.13,0,0,1,3.08-1.329,17.614,17.614,0,0,1,4.913-.777,16.859,16.859,0,0,1,6,1.071,24.172,24.172,0,0,1,5.314,2.979c.771.536,1.5,1.029,2.2,1.473s1.366.841,1.966,1.2a10.75,10.75,0,0,0,1.693.841,7.226,7.226,0,0,0,1.377.343C322.195,244.529,322.634,244.534,322.629,244.561Z" transform="translate(-200.369 -143.563)" fill="#263238"/>
          <path id="Path_8084" data-name="Path 8084" d="M331.125,247.032a1.109,1.109,0,0,1,.048.536,2.679,2.679,0,0,1-.466,1.334,4.141,4.141,0,0,1-1.607,1.371,3.632,3.632,0,0,1-2.555.193l-.257-.091-.118-.038.038-.129a4.639,4.639,0,0,1,1.323-2.095,4.436,4.436,0,0,1,3.091-1.136,1.238,1.238,0,0,1,.482.075,7.457,7.457,0,0,0-1.763.273,4.393,4.393,0,0,0-1.639.975,4.446,4.446,0,0,0-1.227,1.982l-.086-.166.236.08a3.418,3.418,0,0,0,2.368-.161,4.1,4.1,0,0,0,1.532-1.248,2.823,2.823,0,0,0,.536-1.232C331.115,247.22,331.1,247.037,331.125,247.032Z" transform="translate(-215.374 -148.418)" fill="#263238"/>
          <path id="Path_8085" data-name="Path 8085" d="M332.931,247.08a5.587,5.587,0,0,1-1.355,1.157,5.7,5.7,0,0,1-1.516.932,5.727,5.727,0,0,1,1.355-1.157A5.894,5.894,0,0,1,332.931,247.08Z" transform="translate(-217.181 -148.466)" fill="#263238"/>
          <path id="Path_8086" data-name="Path 8086" d="M320.745,240.306a1.3,1.3,0,0,1-.075.536,2.678,2.678,0,0,1-.755,1.189,4.141,4.141,0,0,1-1.859.97,3.579,3.579,0,0,1-2.529-.4c-.086-.043-.161-.1-.23-.139l-.107-.07.064-.118a4.629,4.629,0,0,1,1.768-1.73,4.4,4.4,0,0,1,1.934-.536,4.338,4.338,0,0,1,1.334.15,1.232,1.232,0,0,1,.455.182,7.184,7.184,0,0,0-1.779-.139,4.457,4.457,0,0,0-3.471,2.223l-.043-.182c.07.043.139.091.214.129a3.4,3.4,0,0,0,2.336.391,4.13,4.13,0,0,0,1.779-.868,2.8,2.8,0,0,0,.788-1.071,3.241,3.241,0,0,1,.177-.514Z" transform="translate(-210.277 -145.18)" fill="#263238"/>
          <path id="Path_8087" data-name="Path 8087" d="M322.7,240.551a5.769,5.769,0,0,1-1.607.814,5.565,5.565,0,0,1-1.693.536,11.405,11.405,0,0,1,3.279-1.371Z" transform="translate(-212.231 -145.425)" fill="#263238"/>
          <path id="Path_8088" data-name="Path 8088" d="M341.5,245.464a1.184,1.184,0,0,1-.434-.279,2.678,2.678,0,0,1-.771-1.179,4.125,4.125,0,0,1-.118-2.095,3.638,3.638,0,0,1,1.409-2.143l.225-.145.107-.075.08.113a4.64,4.64,0,0,1,.846,2.32,4.431,4.431,0,0,1-.305,1.988,4.093,4.093,0,0,1-.68,1.157c-.209.241-.348.348-.359.338a6.877,6.877,0,0,0,.862-1.564,4.441,4.441,0,0,0-.595-4.077l.188.037c-.064.043-.139.086-.209.139a3.439,3.439,0,0,0-1.318,1.971,4.1,4.1,0,0,0,.054,1.977,2.8,2.8,0,0,0,.659,1.163C341.362,245.341,341.517,245.443,341.5,245.464Z" transform="translate(-221.84 -144.97)" fill="#263238"/>
          <path id="Path_8089" data-name="Path 8089" d="M342.617,247.512a5.743,5.743,0,0,1-.086-1.779,5.891,5.891,0,0,1,.188-1.773,5.663,5.663,0,0,1,.091,1.779A5.786,5.786,0,0,1,342.617,247.512Z" transform="translate(-222.955 -147.017)" fill="#263238"/>
          <path id="Path_8090" data-name="Path 8090" d="M316.4,233.608a.969.969,0,0,1-.471-.048,2.411,2.411,0,0,1-1.114-.67,3.814,3.814,0,0,1-.938-1.688,3.3,3.3,0,0,1,.305-2.336c.043-.08.091-.15.129-.214l.064-.112.118.064a4.2,4.2,0,0,1,1.634,1.607,4,4,0,0,1,.536,1.768,3.788,3.788,0,0,1-.107,1.232,1.109,1.109,0,0,1-.161.418,6.794,6.794,0,0,0,.075-1.607,4.018,4.018,0,0,0-.568-1.655,4.12,4.12,0,0,0-1.543-1.468l.182-.048c-.037.064-.08.129-.118.2a3.161,3.161,0,0,0-.305,2.143,3.873,3.873,0,0,0,.836,1.607,2.539,2.539,0,0,0,1,.7A4.04,4.04,0,0,1,316.4,233.608Z" transform="translate(-209.627 -139.858)" fill="#263238"/>
          <path id="Path_8091" data-name="Path 8091" d="M317.514,235.423a9.7,9.7,0,0,1-1.334-2.973A9.7,9.7,0,0,1,317.514,235.423Z" transform="translate(-210.736 -141.673)" fill="#263238"/>
          <path id="Path_8092" data-name="Path 8092" d="M307.745,236.76a1.072,1.072,0,0,1,.188.439,2.459,2.459,0,0,1-.043,1.3,3.8,3.8,0,0,1-1.018,1.645,3.311,3.311,0,0,1-2.191.863,1.958,1.958,0,0,1-.252,0H304.3v-.134a4.253,4.253,0,0,1,.589-2.2,4.092,4.092,0,0,1,1.28-1.334,3.863,3.863,0,0,1,1.13-.5,1.158,1.158,0,0,1,.445-.064,7.114,7.114,0,0,0-1.463.729,4.071,4.071,0,0,0-1.7,3.37l-.129-.139a1.555,1.555,0,0,0,.225,0,3.139,3.139,0,0,0,2.025-.777,3.852,3.852,0,0,0,1-1.511,2.572,2.572,0,0,0,.123-1.216,3.926,3.926,0,0,1-.08-.461Z" transform="translate(-205.22 -143.674)" fill="#263238"/>
          <path id="Path_8093" data-name="Path 8093" d="M309.054,236.76a4.864,4.864,0,0,1-.862,1.393,4.768,4.768,0,0,1-1.071,1.221,5.029,5.029,0,0,1,.862-1.387A4.977,4.977,0,0,1,309.054,236.76Z" transform="translate(-206.53 -143.674)" fill="#263238"/>
          <path id="Path_8094" data-name="Path 8094" d="M302,234.4a1.162,1.162,0,0,1-.386.155,2.084,2.084,0,0,1-1.13-.08,3.257,3.257,0,0,1-1.4-.937,2.93,2.93,0,0,1-.686-1.95v-.343h.134a3.7,3.7,0,0,1,1.9.6A3.445,3.445,0,0,1,301.544,233a3.343,3.343,0,0,1,.4,1,.91.91,0,0,1,.032.391,7.1,7.1,0,0,0-.595-1.291,3.536,3.536,0,0,0-2.855-1.58l.145-.129v.2a2.732,2.732,0,0,0,.6,1.773,3.3,3.3,0,0,0,1.264.921A2.748,2.748,0,0,0,302,234.4Z" transform="translate(-202.481 -141.111)" fill="#263238"/>
          <path id="Path_8095" data-name="Path 8095" d="M303.207,235.584a3.686,3.686,0,0,1-1.189-.782c-.611-.493-1.071-.943-1.013-1a3.75,3.75,0,0,1,1.189.782C302.8,235.075,303.256,235.514,303.207,235.584Z" transform="translate(-203.689 -142.3)" fill="#263238"/>
          <path id="Path_8096" data-name="Path 8096" d="M329.2,238.12a1.285,1.285,0,0,1-.434-.279,2.63,2.63,0,0,1-.771-1.184,4.12,4.12,0,0,1-.118-2.095,3.627,3.627,0,0,1,1.409-2.143l.225-.15.107-.07.075.107a4.634,4.634,0,0,1,.852,2.325,4.441,4.441,0,0,1-.305,1.988,4.045,4.045,0,0,1-.686,1.152c-.2.246-.343.354-.354.343a6.88,6.88,0,0,0,.862-1.564,4.441,4.441,0,0,0-.595-4.077l.188.038-.209.134a3.455,3.455,0,0,0-1.318,1.971,4.1,4.1,0,0,0,.054,1.977,2.706,2.706,0,0,0,.659,1.163C329.062,237.986,329.217,238.1,329.2,238.12Z" transform="translate(-216.129 -141.557)" fill="#263238"/>
          <path id="Path_8097" data-name="Path 8097" d="M330.317,240.172a5.785,5.785,0,0,1-.086-1.779,5.856,5.856,0,0,1,.188-1.773,5.834,5.834,0,0,1,.091,1.779A5.989,5.989,0,0,1,330.317,240.172Z" transform="translate(-217.245 -143.609)" fill="#263238"/>
        </g>
        <g id="freepik--Plant--inject-399" transform="translate(0 82.296)">
          <path id="Path_8098" data-name="Path 8098" d="M54.188,311.34a1.141,1.141,0,0,1,.1-.236l.316-.68a16.607,16.607,0,0,0,.932-2.711,23.876,23.876,0,0,0-.075-10.468,56.708,56.708,0,0,0-1.945-7.029c-.82-2.5-1.773-5.143-2.555-8a30.954,30.954,0,0,1-1.243-9.2,35.624,35.624,0,0,1,2.143-9.745,46.937,46.937,0,0,0,2.48-9.589,14.652,14.652,0,0,0-1.757-8.861c-1.4-2.582-3.166-4.795-4.489-7.082a24.75,24.75,0,0,1-2.679-6.814,25.42,25.42,0,0,1-.171-10.548,19.918,19.918,0,0,1,1.1-3.75,1.447,1.447,0,0,1-.064.246l-.225.712a28.7,28.7,0,0,0-.686,2.791,25.8,25.8,0,0,0,.279,10.473,24.461,24.461,0,0,0,2.705,6.729c1.318,2.261,3.091,4.462,4.521,7.077a14.887,14.887,0,0,1,1.811,9.037,46.975,46.975,0,0,1-2.486,9.643,36.112,36.112,0,0,0-2.143,9.643,30.8,30.8,0,0,0,1.232,9.107c.766,2.85,1.709,5.5,2.523,8a56.249,56.249,0,0,1,1.875,7.1,23.6,23.6,0,0,1-.027,10.543,15.536,15.536,0,0,1-1,2.679l-.348.707A1.844,1.844,0,0,1,54.188,311.34Z" transform="translate(-37.886 -216.62)" fill="#263238"/>
          <path id="Path_8099" data-name="Path 8099" d="M53.637,248.36s-2.679-8.571,2.143-13.6a.3.3,0,0,1,.536.145C56.53,236.322,56.851,240.635,53.637,248.36Z" transform="translate(-41.658 -224.987)" fill="#b0bec5"/>
          <path id="Path_8100" data-name="Path 8100" d="M55.8,240.19a8.191,8.191,0,0,1-.182,1.607c-.177,1.071-.38,2.368-.611,3.782s-.429,2.679-.6,3.782a8.989,8.989,0,0,1-.284,1.564,6.74,6.74,0,0,1,.048-1.607c.086-.98.263-2.33.5-3.809s.5-2.812.713-3.75A7.071,7.071,0,0,1,55.8,240.19Z" transform="translate(-42.218 -227.563)" fill="#263238"/>
          <path id="Path_8101" data-name="Path 8101" d="M60.16,288.43S61.8,279.59,68.4,277.4a.295.295,0,0,1,.38.37C68.351,279.151,66.615,283.115,60.16,288.43Z" transform="translate(-45.031 -244.833)" fill="#b0bec5"/>
          <path id="Path_8102" data-name="Path 8102" d="M66.563,281.69a8.1,8.1,0,0,1-.9,1.313l-2.309,3.059-2.3,3.064a8.141,8.141,0,0,1-.98,1.248,6.738,6.738,0,0,1,.787-1.387c.536-.825,1.318-1.934,2.229-3.129s1.757-2.25,2.389-3A6.863,6.863,0,0,1,66.563,281.69Z" transform="translate(-44.99 -246.831)" fill="#263238"/>
          <path id="Path_8103" data-name="Path 8103" d="M56.774,328.122s-.98-8.93,4.688-12.943a.295.295,0,0,1,.471.241C61.911,316.856,61.408,321.152,56.774,328.122Z" transform="translate(-43.429 -262.352)" fill="#b0bec5"/>
          <path id="Path_8104" data-name="Path 8104" d="M60.4,320.28a7.725,7.725,0,0,1-.477,1.516c-.386,1.039-.83,2.255-1.323,3.6s-.938,2.561-1.313,3.6a8.078,8.078,0,0,1-.579,1.479,6.606,6.606,0,0,1,.354-1.554c.273-.948.7-2.234,1.221-3.643s1.029-2.679,1.414-3.568A6.965,6.965,0,0,1,60.4,320.28Z" transform="translate(-43.43 -264.748)" fill="#263238"/>
          <path id="Path_8105" data-name="Path 8105" d="M66.089,369.891s-.675-8.962,5.148-12.766a.295.295,0,0,1,.461.257C71.629,358.824,70.97,363.1,66.089,369.891Z" transform="translate(-47.773 -281.831)" fill="#b0bec5"/>
          <path id="Path_8106" data-name="Path 8106" d="M70.05,362.15a7.645,7.645,0,0,1-.536,1.5L68.063,367.2l-1.441,3.546A8.4,8.4,0,0,1,66,372.211a6.68,6.68,0,0,1,.407-1.543c.305-.932.777-2.207,1.35-3.595s1.125-2.63,1.543-3.514A7.5,7.5,0,0,1,70.05,362.15Z" transform="translate(-47.743 -284.188)" fill="#263238"/>
          <path id="Path_8107" data-name="Path 8107" d="M40.041,236.28s-7.966-4.162-8.121-11.116a.3.3,0,0,1,.466-.257C33.57,225.726,36.848,228.549,40.041,236.28Z" transform="translate(-31.92 -220.444)" fill="#b0bec5"/>
          <path id="Path_8108" data-name="Path 8108" d="M35,229.89a7.788,7.788,0,0,1,.991,1.248l2.25,3.1,2.255,3.1a8.571,8.571,0,0,1,.932,1.312,6.37,6.37,0,0,1-1.071-1.157c-.632-.755-1.463-1.832-2.341-3.048s-1.607-2.341-2.143-3.166A7.1,7.1,0,0,1,35,229.89Z" transform="translate(-33.35 -222.781)" fill="#263238"/>
          <path id="Path_8109" data-name="Path 8109" d="M55.439,271.094s-8.2-3.664-8.78-10.6a.295.295,0,0,1,.445-.284C48.335,260.958,51.78,263.573,55.439,271.094Z" transform="translate(-38.762 -236.84)" fill="#b0bec5"/>
          <path id="Path_8110" data-name="Path 8110" d="M50,265a7.837,7.837,0,0,1,1.071,1.184l2.432,2.963,2.438,2.957a8.86,8.86,0,0,1,.986,1.248,6.848,6.848,0,0,1-1.162-1.071c-.68-.713-1.575-1.736-2.523-2.9s-1.779-2.239-2.357-3.032A7.32,7.32,0,0,1,50,265Z" transform="translate(-40.314 -239.082)" fill="#263238"/>
          <path id="Path_8111" data-name="Path 8111" d="M51.037,307.1s-5.636-7-2.989-13.436a.295.295,0,0,1,.536-.048C49.333,294.825,51.208,298.741,51.037,307.1Z" transform="translate(-39.079 -252.3)" fill="#b0bec5"/>
          <path id="Path_8112" data-name="Path 8112" d="M49.7,299.16a8.438,8.438,0,0,1,.413,1.538c.23,1.071.536,2.346.809,3.75s.589,2.679.825,3.75a8.394,8.394,0,0,1,.311,1.559,6.6,6.6,0,0,1-.536-1.5c-.273-.948-.605-2.266-.921-3.75s-.536-2.8-.718-3.75a7,7,0,0,1-.182-1.6Z" transform="translate(-40.175 -254.942)" fill="#263238"/>
          <path id="Path_8113" data-name="Path 8113" d="M57.2,354.466s-8.138-3.782-8.6-10.746a.295.295,0,0,1,.45-.279C50.27,344.207,53.672,346.88,57.2,354.466Z" transform="translate(-39.663 -275.48)" fill="#b0bec5"/>
          <path id="Path_8114" data-name="Path 8114" d="M51.88,348.32a7.584,7.584,0,0,1,1.045,1.2l2.379,3,2.389,3a8.572,8.572,0,0,1,.964,1.264,6.679,6.679,0,0,1-1.146-1.136c-.664-.723-1.543-1.763-2.47-2.941s-1.741-2.266-2.3-3.07a7.088,7.088,0,0,1-.857-1.318Z" transform="translate(-41.187 -277.766)" fill="#263238"/>
          <path id="Path_8115" data-name="Path 8115" d="M81.461,298.1a.712.712,0,0,1,0,.2v.573c0,.536-.059,1.27-.1,2.18-.107,1.913-.252,4.586-.429,7.779h0a30.266,30.266,0,0,1-4.463,10.355c-1.607,2.577-3.343,4.923-4.821,7.1a50.046,50.046,0,0,0-3.611,5.968,25.611,25.611,0,0,0-1.688,4.382c-.145.536-.252.954-.316,1.243a2.287,2.287,0,0,1-.118.434,2.679,2.679,0,0,1,.054-.445c.043-.295.129-.718.252-1.264a23.308,23.308,0,0,1,1.607-4.452,47.972,47.972,0,0,1,3.573-6.043c1.462-2.191,3.166-4.543,4.789-7.1a30.694,30.694,0,0,0,4.463-10.232h0c.225-3.214.412-5.861.536-7.773.075-.911.134-1.607.177-2.175a4.642,4.642,0,0,1,.059-.573C81.445,298.1,81.45,298.1,81.461,298.1Z" transform="translate(-47.706 -254.45)" fill="#263238"/>
          <path id="Path_8116" data-name="Path 8116" d="M84.312,324.236s3.445-8.3-.889-13.736a.3.3,0,0,0-.536.1C82.518,311.99,81.805,316.254,84.312,324.236Z" transform="translate(-55.405 -260.149)" fill="#b0bec5"/>
          <path id="Path_8117" data-name="Path 8117" d="M84.682,316a6.728,6.728,0,0,1,.273,1.57c.123.975.263,2.325.37,3.825s.155,2.85.155,3.836a6.536,6.536,0,0,1-.1,1.607,8.882,8.882,0,0,1-.139-1.607c-.075-1.1-.161-2.389-.257-3.82s-.187-2.721-.268-3.825A8.481,8.481,0,0,1,84.682,316Z" transform="translate(-56.407 -262.761)" fill="#263238"/>
          <g id="Group_3494" data-name="Group 3494" transform="translate(27.098 50.226)" opacity="0.3">
            <path id="Path_8118" data-name="Path 8118" d="M84.312,324.236s3.445-8.3-.889-13.736a.3.3,0,0,0-.536.1C82.518,311.99,81.805,316.254,84.312,324.236Z" transform="translate(-82.504 -310.374)"/>
          </g>
          <path id="Path_8119" data-name="Path 8119" d="M63.609,361.681s2.764-8.571-2-13.623a.3.3,0,0,0-.536.145C60.829,349.617,60.464,353.93,63.609,361.681Z" transform="translate(-45.384 -277.59)" fill="#b0bec5"/>
          <path id="Path_8120" data-name="Path 8120" d="M63.13,353.51a7.012,7.012,0,0,1,.4,1.543c.2.959.445,2.293.675,3.777s.386,2.834.466,3.814a6.509,6.509,0,0,1,.032,1.607,9.133,9.133,0,0,1-.268-1.57c-.161-1.071-.354-2.373-.536-3.788s-.412-2.679-.579-3.793a8.267,8.267,0,0,1-.193-1.591Z" transform="translate(-46.41 -280.176)" fill="#263238"/>
          <g id="Group_3495" data-name="Group 3495" transform="translate(15.535 70.35)" opacity="0.3">
            <path id="Path_8121" data-name="Path 8121" d="M63.609,361.681s2.764-8.571-2-13.623a.3.3,0,0,0-.536.145C60.829,349.617,60.464,353.93,63.609,361.681Z" transform="translate(-60.919 -347.941)"/>
          </g>
          <path id="Path_8122" data-name="Path 8122" d="M94.07,306.625s7.366-5.154,6.621-12.07a.295.295,0,0,0-.493-.193C99.127,295.327,96.24,298.547,94.07,306.625Z" transform="translate(-60.775 -252.679)" fill="#b0bec5"/>
          <g id="Group_3496" data-name="Group 3496" transform="translate(33.295 41.606)" opacity="0.3">
            <path id="Path_8123" data-name="Path 8123" d="M94.07,306.625s7.366-5.154,6.621-12.07a.295.295,0,0,0-.493-.193C99.127,295.327,96.24,298.547,94.07,306.625Z" transform="translate(-94.07 -294.285)"/>
          </g>
          <path id="Path_8124" data-name="Path 8124" d="M99.446,299.61a6.825,6.825,0,0,1-.611,1.473c-.418.884-1.029,2.1-1.741,3.418s-1.4,2.5-1.9,3.354a6.75,6.75,0,0,1-.932,1.291,8.679,8.679,0,0,1,.729-1.414L96.8,304.34l1.827-3.37A8.136,8.136,0,0,1,99.446,299.61Z" transform="translate(-60.863 -255.151)" fill="#263238"/>
          <path id="Path_8125" data-name="Path 8125" d="M71.48,350.545s8.882-1.382,11.25-7.918a.3.3,0,0,0-.359-.4C81,342.638,76.987,344.245,71.48,350.545Z" transform="translate(-50.287 -274.935)" fill="#b0bec5"/>
          <g id="Group_3497" data-name="Group 3497" transform="translate(21.193 67.286)" opacity="0.3">
            <path id="Path_8126" data-name="Path 8126" d="M71.48,350.545s8.882-1.382,11.25-7.918a.3.3,0,0,0-.359-.4C81,342.638,76.987,344.245,71.48,350.545Z" transform="translate(-71.48 -342.22)"/>
          </g>
          <path id="Path_8127" data-name="Path 8127" d="M80.438,346.21a6.918,6.918,0,0,1-1.195,1.071c-.771.611-1.848,1.436-3.07,2.3s-2.357,1.607-3.214,2.143a6.686,6.686,0,0,1-1.409.745,8.712,8.712,0,0,1,1.313-.97l3.112-2.191,3.123-2.218A7.557,7.557,0,0,1,80.438,346.21Z" transform="translate(-50.32 -276.787)" fill="#263238"/>
          <path id="Path_8128" data-name="Path 8128" d="M51.87,388.26l2.545,16.709,10.173-.016,3.429-16.693Z" transform="translate(-41.182 -296.31)" fill="#455a64"/>
          <path id="Path_8129" data-name="Path 8129" d="M67.576,396.758l-.086.059a2.268,2.268,0,0,1-.268.155,3.749,3.749,0,0,1-1.141.338,4.141,4.141,0,0,1-1.843-.177,3.927,3.927,0,0,1-2.009-1.457,2.791,2.791,0,0,1-.471-1.4,1.511,1.511,0,0,1,.664-1.43,1.634,1.634,0,0,1,1.7.139,2.47,2.47,0,0,1,.975,1.532,6.52,6.52,0,0,1,.123,1.886,6.043,6.043,0,0,1-.412,1.934,4.286,4.286,0,0,1-1.179,1.682,3.262,3.262,0,0,1-1.955.814,3.579,3.579,0,0,1-2.036-.589,6.225,6.225,0,0,1-1.521-1.371,3.364,3.364,0,0,1-.766-1.837,2.143,2.143,0,0,1,.718-1.768,1.655,1.655,0,0,1,1.805-.112,1.934,1.934,0,0,1,1.039,1.361,2.609,2.609,0,0,1-1.286,2.646,3.579,3.579,0,0,1-2.454.354,5.48,5.48,0,0,1-1.752-.686,9.367,9.367,0,0,1-.98-.659,2.244,2.244,0,0,1-.316-.268,1.79,1.79,0,0,1,.348.22,10.176,10.176,0,0,0,1,.616,5.743,5.743,0,0,0,1.725.627,3.461,3.461,0,0,0,2.325-.375,2.4,2.4,0,0,0,1.162-2.427,1.7,1.7,0,0,0-.927-1.189,1.409,1.409,0,0,0-1.532.091,1.88,1.88,0,0,0-.616,1.554,3.08,3.08,0,0,0,.729,1.677A5.947,5.947,0,0,0,59.8,400a3.3,3.3,0,0,0,1.88.536,3.032,3.032,0,0,0,1.789-.75,3.975,3.975,0,0,0,1.1-1.57,6.016,6.016,0,0,0,.4-1.848,6.332,6.332,0,0,0-.113-1.811A2.223,2.223,0,0,0,64,393.174a1.409,1.409,0,0,0-1.452-.145,1.3,1.3,0,0,0-.589,1.227,2.6,2.6,0,0,0,.423,1.3,3.75,3.75,0,0,0,1.9,1.425,4.157,4.157,0,0,0,1.805.214A4.981,4.981,0,0,0,67.576,396.758Z" transform="translate(-42.232 -298.358)" fill="#263238"/>
        </g>
      </g>
    </g>
    <g id="Group_3234" data-name="Group 3234" transform="translate(4.012 -10.262)">
      <path id="Icon_ionic-ios-arrow-back" data-name="Icon ionic-ios-arrow-back" d="M15.217,17.7,23.926,9A1.645,1.645,0,1,0,21.6,6.674l-9.867,9.86a1.642,1.642,0,0,0-.048,2.268l9.908,9.929a1.645,1.645,0,0,0,2.33-2.323Z" transform="translate(362.579 30.069)" fill="#fff"/>
      <path id="Icon_ionic-ios-arrow-back-2" data-name="Icon ionic-ios-arrow-back" d="M3.967,11.506l8.709-8.7A1.645,1.645,0,1,0,10.346.481L.479,10.341a1.642,1.642,0,0,0-.048,2.268l9.908,9.929a1.645,1.645,0,1,0,2.33-2.323Z" transform="translate(377.472 59.28) rotate(180)" fill="#fff"/>
    </g>
    <text id="Session_3_De-addiction_stage" data-name="Session 3
De-addiction stage" transform="translate(21 26)" fill="#fff" font-size="16" font-family="ArialMT, Arial"><tspan x="0" y="14">Session 3</tspan><tspan font-size="24" font-family="Arial-BoldMT, Arial" font-weight="700"><tspan x="0" y="49">De-addiction stage</tspan></tspan></text>
    <g id="Component_119_312" data-name="Component 119 – 312" transform="translate(0 779.278)">
      <rect id="Rectangle_1927" data-name="Rectangle 1927" width="412" height="67" transform="translate(0 0.722)" fill="#102646"/>
      <path id="Path_4714" data-name="Path 4714" d="M1053,4508.186h411.151" transform="translate(-1053 -4508.186)" fill="none" stroke="#fff" stroke-width="2" opacity="0.206"/>
      <g id="Group_3096" data-name="Group 3096" transform="translate(-3 -997.186)">
        <text id="Next" transform="translate(318 1038)" fill="#f2f5f7" font-size="18" font-family="ArialMT, Arial"><tspan x="0" y="0">Next</tspan></text>
        <path id="Icon_ionic-ios-arrow-back-3" data-name="Icon ionic-ios-arrow-back" d="M14.033,14.264l6.109-6.1a1.154,1.154,0,0,0-1.634-1.629l-6.921,6.916a1.152,1.152,0,0,0-.034,1.591L18.5,22a1.154,1.154,0,1,0,1.634-1.629Z" transform="translate(389.251 1046.266) rotate(180)" fill="#f2f5f7"/>
      </g>
      <g id="Group_3224" data-name="Group 3224" transform="translate(2.529 7.076)">
        <g id="Group_3212" data-name="Group 3212" transform="translate(34.47 14.737)">
          <text id="Back" transform="translate(19.06 18)" fill="#fff" font-size="18" font-family="ArialMT, Arial"><tspan x="0" y="0">Back</tspan></text>
          <path id="Icon_ionic-ios-arrow-back-4" data-name="Icon ionic-ios-arrow-back" d="M14.033,14.264l6.109-6.1a1.154,1.154,0,0,0-1.634-1.629l-6.921,6.916a1.152,1.152,0,0,0-.034,1.591L18.5,22a1.154,1.154,0,1,0,1.634-1.629Z" transform="translate(-11.251 -3.193)" fill="#fff"/>
        </g>
      </g>
    </g>
  </g>
</svg>
