<svg xmlns="http://www.w3.org/2000/svg" xmlns:xlink="http://www.w3.org/1999/xlink" width="412" height="847" viewBox="0 0 412 847">
  <defs>
    <linearGradient id="linear-gradient" x1="0.5" x2="0.5" y2="1" gradientUnits="objectBoundingBox">
      <stop offset="0" stop-color="#37aadd"/>
      <stop offset="1" stop-color="#1f64cc"/>
    </linearGradient>
    <clipPath id="clip-OCD_session_4_21">
      <rect width="412" height="847"/>
    </clipPath>
  </defs>
  <g id="OCD_session_4_21" data-name="OCD session 4 – 21" clip-path="url(#clip-OCD_session_4_21)">
    <rect width="412" height="847" fill="#102646"/>
    <g id="Group_3103" data-name="Group 3103" transform="translate(-4 65.864)">
      <g id="Group_1500" data-name="Group 1500" transform="translate(71 65)">
        <text id="OBQ-44_Questionnaire" data-name="OBQ-44 Questionnaire" transform="translate(0 0.136)" fill="#1e64cc" font-size="24" font-family="Arial-BoldMT, Arial" font-weight="700"><tspan x="0" y="22">OBQ-44 Questionnaire</tspan></text>
      </g>
      <g id="Group_3103-2" data-name="Group 3103" transform="translate(25 59)">
        <g id="Group_3157" data-name="Group 3157">
          <rect id="Rectangle_1722" data-name="Rectangle 1722" width="371" height="600" rx="16" transform="translate(0 0.136)" fill="url(#linear-gradient)"/>
          <text id="Contemplation" transform="translate(99 24.136)" fill="#fff" font-size="16" font-family="ArialMT, Arial"><tspan x="34.914" y="14">Contemplation</tspan></text>
          <text id="Patient_starts_to_consider_his_behaviour_as_a_problem._In_this_phase_a_person_recognizes_his_her_addiction_a_problem_and_are_contemplating_a_change_but_have_not_yet_committed_to_changing._For_example_you_want_to_live_a_healthy_life_and_have_investigated_" data-name="Patient starts to consider his behaviour as a problem.  In this phase a person recognizes his/her addiction a problem and are contemplating a change but have not yet committed to changing.
For example, you want to live a healthy life and have investigated " transform="translate(28 335.136)" fill="#fff" font-size="12" font-family="ArialMT, Arial"><tspan x="7.755" y="11">Patient starts to consider his behaviour as a problem.  In </tspan><tspan x="0.741" y="36">this phase a person recognizes his/her addiction a problem </tspan><tspan x="27.407" y="61">and are contemplating a change but have not yet </tspan><tspan x="95.467" y="86">committed to changing.</tspan><tspan x="17.754" y="111">For example, you want to live a healthy life and have </tspan><tspan x="5.733" y="136">investigated joining a gym or thought about jogging every </tspan><tspan x="36.759" y="161" xml:space="preserve">morning but have not yet started.  A person in </tspan><tspan x="1.412" y="186">contemplation is sitting right on the edge. Some part of his/</tspan><tspan x="21.747" y="211">her consciousness wants to change, but an equally </tspan><tspan x="13.758" y="236">compelling part of that person wants to stay the same.</tspan></text>
        </g>
      </g>
    </g>
    <g id="Group_1193" data-name="Group 1193" transform="translate(3.371 -49.643)">
      <g id="Ellipse_12" data-name="Ellipse 12" transform="translate(177.629 798.642)" fill="none" stroke="#0e58c7" stroke-width="1">
        <circle cx="4" cy="4" r="4" stroke="none"/>
        <circle cx="4" cy="4" r="3.5" fill="none"/>
      </g>
      <g id="Ellipse_13" data-name="Ellipse 13" transform="translate(191.629 798.642)" fill="none" stroke="#0e58c7" stroke-width="1">
        <circle cx="4" cy="4" r="4" stroke="none"/>
        <circle cx="4" cy="4" r="3.5" fill="none"/>
      </g>
      <g id="Ellipse_91" data-name="Ellipse 91" transform="translate(206.629 798.642)" fill="none" stroke="#0e58c7" stroke-width="1">
        <circle cx="4" cy="4" r="4" stroke="none"/>
        <circle cx="4" cy="4" r="3.5" fill="none"/>
      </g>
      <g id="Ellipse_92" data-name="Ellipse 92" transform="translate(220.629 798.642)" fill="#0e58c7" stroke="#0e58c7" stroke-width="1">
        <circle cx="4" cy="4" r="4" stroke="none"/>
        <circle cx="4" cy="4" r="3.5" fill="none"/>
      </g>
    </g>
    <g id="Group_3930" data-name="Group 3930">
      <path id="Path_5920" data-name="Path 5920" d="M9465.524,14761.509c6.567-31.59,16.01-89.273,76.558-71.347s40.628,29.124,97.831,21.63,86.675,95.53,35.142,93.989-30.141,11.445-69.951,14.13-54.4,11.21-89.292-3.391S9458.957,14793.1,9465.524,14761.509Z" transform="translate(-9383 -14424.288)" fill="#d2dff2" opacity="0.6"/>
      <circle id="Ellipse_599" data-name="Ellipse 599" cx="2.5" cy="2.5" r="2.5" transform="translate(113 264)" fill="#1e64cc"/>
      <circle id="Ellipse_600" data-name="Ellipse 600" cx="4.5" cy="4.5" r="4.5" transform="translate(83 366)" fill="#1e64cc"/>
      <circle id="Ellipse_601" data-name="Ellipse 601" cx="7.5" cy="7.5" r="7.5" transform="translate(293 306)" fill="#fe7614"/>
      <g id="Post-traumatic_stress_disorder-pana" data-name="Post-traumatic stress disorder-pana" transform="translate(107.068 233.756)">
        <g id="freepik--speech-bubbles--inject-211" transform="translate(38.959 0)">
          <path id="Path_7861" data-name="Path 7861" d="M134.943,57.846l-5.334-7.608,8.671,3.806-.483-11.6,6.774,7.6,5.593-9.075,2.7,10.308,8.478-.988-5.624,8.921,9.206,5.843-11.542-1.936L153,72.531l-7.924-6.353-8.32,6.985,1.005-9.176L127.3,63.145Z" transform="translate(-127.151 -40.698)" fill="#fff"/>
          <path id="Path_7862" data-name="Path 7862" d="M134.753,57.5s-.162.123-.487.351L132.8,58.881l-5.663,3.951-.026-.1,10.466.821h.079v.079c-.3,2.748-.632,5.848-.992,9.18l-.145-.079,8.315-7,.061-.048.061.048L152.88,72.1l-.171.079c.119-2.985.246-6.146.378-9.417v-.123h.123L164.734,64.6l-.079.206-8.7-5.536-.487-.307-.1-.061.061-.1,5.628-8.917.105.171-8.478.983h-.092l-.026-.092-2.7-10.313.189.031q-2.924,4.733-5.6,9.066l-.07.114-.088-.1-6.765-7.6.154-.061c.176,4.285.329,8.161.47,11.6v.114l-.105-.048-8.666-3.824.061-.079,3.951,5.707,1.036,1.449c.224.325.329.487.329.487s-.127-.167-.36-.492l-1.049-1.444-3.986-5.633-.11-.154.171.075,8.684,3.789-.1.07c-.149-3.438-.316-7.314-.5-11.6V41.86l.162.184,6.783,7.6h-.158q2.66-4.333,5.584-9.075l.132-.215.061.241,2.709,10.3-.119-.079,8.464-.961.237-.026-.127.2q-2.757,4.39-5.624,8.921l-.035-.158.487.307,8.719,5.54.474.3-.536-.114-11.542-1.945.127-.1c-.132,3.253-.263,6.427-.386,9.413V72.4l-.162-.132-7.9-6.361h.123c-2.968,2.485-5.778,4.829-8.341,6.98l-.167.136v-.215c.369-3.328.716-6.427,1.019-9.176l.07.083-10.462-.878h-.149l.123-.083,5.672-3.9,1.484-1.014Z" transform="translate(-126.96 -40.35)" fill="#263238"/>
          <path id="Path_7863" data-name="Path 7863" d="M195.629,103.7a2.362,2.362,0,0,0-1.563,1.067,2.195,2.195,0,0,0-.329.909,1.931,1.931,0,0,0,.193,1.076,2.1,2.1,0,0,0,3.951-.233,1.915,1.915,0,0,0,.061-1.093,2.2,2.2,0,0,0-.439-.878,2.323,2.323,0,0,0-1.163-.781,5.194,5.194,0,0,0-.518-.1h.136a1.238,1.238,0,0,1,.171,0,1.927,1.927,0,0,1,.228.04,2.292,2.292,0,0,1,1.234.768,2.248,2.248,0,0,1,.474.9,1.993,1.993,0,0,1-.053,1.172,2.423,2.423,0,0,1-.729,1.08,2.111,2.111,0,0,1-2.625.154,2.353,2.353,0,0,1-.856-.97,2.059,2.059,0,0,1-.193-1.159,2.384,2.384,0,0,1,1.479-1.844,1.521,1.521,0,0,1,.224-.066.651.651,0,0,1,.167-.026C195.581,103.693,195.629,103.688,195.629,103.7Z" transform="translate(-164.34 -75.867)" fill="#263238"/>
          <path id="Path_7864" data-name="Path 7864" d="M209.235,116.305a1.942,1.942,0,0,0-.312.11,1.5,1.5,0,0,0-.654.575,1.247,1.247,0,0,0-.079,1.225,1.317,1.317,0,0,0,2.428-.145,1.247,1.247,0,0,0-.224-1.207,1.467,1.467,0,0,0-.716-.492c-.2-.061-.325-.057-.325-.07a.637.637,0,0,1,.338,0,1.479,1.479,0,0,1,.795.479,1.523,1.523,0,0,1,.307.579,1.352,1.352,0,0,1-.031.755,1.444,1.444,0,0,1-2.709.158,1.317,1.317,0,0,1-.119-.746,1.44,1.44,0,0,1,.237-.606,1.418,1.418,0,0,1,.729-.571.72.72,0,0,1,.334-.044Z" transform="translate(-172.379 -82.944)" fill="#263238"/>
          <path id="Path_7865" data-name="Path 7865" d="M163.76,67.491l.044,4.829a.79.79,0,0,0,.694.773h0a.79.79,0,0,0,.878-.654l.8-4.829a.619.619,0,0,0-.6-.672l-1.177-.048a.615.615,0,0,0-.641.6Z" transform="translate(-147.604 -55.238)" fill="#263238"/>
          <path id="Path_7866" data-name="Path 7866" d="M165.087,85.337a1.181,1.181,0,1,1-.016-.9,1.181,1.181,0,0,1,.016.9Z" transform="translate(-147.069 -64.681)" fill="#263238"/>
          <path id="Path_7867" data-name="Path 7867" d="M172.139,67.889l.044,4.829a.786.786,0,0,0,.7.773h0a.781.781,0,0,0,.878-.65l.8-4.829a.61.61,0,0,0-.579-.716l-1.181-.048a.615.615,0,0,0-.659.641Z" transform="translate(-152.304 -55.438)" fill="#263238"/>
          <path id="Path_7868" data-name="Path 7868" d="M173.5,85.8a1.181,1.181,0,1,1-.016-.9A1.181,1.181,0,0,1,173.5,85.8Z" transform="translate(-151.787 -64.939)" fill="#263238"/>
          <path id="Path_7869" data-name="Path 7869" d="M310.259,71.6l4.008-5.712-6.511,2.854.36-8.706-5.084,5.7-4.2-6.809L296.8,66.666l-6.362-.738,4.223,6.7-6.915,4.39,8.666-1.458.285,7.068,5.949-4.772L308.9,83.1l-.755-6.893L316,75.578Z" transform="translate(-217.159 -50.773)" fill="#fff"/>
          <path id="Path_7870" data-name="Path 7870" d="M309.566,71.258l.4.259,1.12.76,4.259,2.915.123.083h-.149l-7.854.654.066-.083c.233,2.063.492,4.39.768,6.893l.026.215-.167-.14L301.9,77.576h.123l-5.944,4.777-.162.132v-.211c-.092-2.239-.189-4.623-.29-7.068l.127.105-8.666,1.458-.553.1.474-.3,6.55-4.158.364-.233-.035.158q-2.16-3.385-4.223-6.686l-.127-.2.237.026,6.361.746-.119.083,2.033-7.736.061-.241.132.211,4.193,6.818h-.158l5.093-5.707.167-.184V59.7c-.136,3.218-.263,6.146-.378,8.71l-.1-.07,6.519-2.836.171-.075-.105.154-3,4.219-.777,1.089-.277.373.246-.369.755-1.093,2.963-4.28.066.079-6.506,2.876-.105.044v-.114c.1-2.581.219-5.492.347-8.71l.154.061-5.075,5.707-.088.1-.07-.114-4.206-6.8.193-.031c-.654,2.494-1.317,5.08-2.024,7.74l-.026.092h-.1l-6.361-.738.105-.176,4.219,6.691.057.1-.092.061-.369.233-6.546,4.158-.079-.211,8.666-1.453h.123v.123c.1,2.445.193,4.829.281,7.068l-.171-.075,5.953-4.768.066-.048.061.048,6.239,5.268-.141.079c-.272-2.5-.522-4.829-.742-6.893v-.079h.075l7.859-.61-.044.075-4.25-2.981-1.1-.777C309.693,71.35,309.566,71.258,309.566,71.258Z" transform="translate(-216.475 -50.431)" fill="#263238"/>
          <path id="Path_7871" data-name="Path 7871" d="M296.449,106.035a.948.948,0,0,1,.378.119,1.778,1.778,0,0,1,.8.685,1.655,1.655,0,0,1,.246.68,1.48,1.48,0,0,1-.145.808,1.58,1.58,0,0,1-2.959-.176,1.458,1.458,0,0,1-.048-.817,1.756,1.756,0,0,1,1.2-1.234c.246-.07.391-.061.391-.075a.484.484,0,0,0-.105,0,.713.713,0,0,0-.127,0,.878.878,0,0,0-.167.026,1.756,1.756,0,0,0-1.286,1.256,1.563,1.563,0,0,0,.039.878,1.787,1.787,0,0,0,.553.8,1.669,1.669,0,0,0,.966.4,1.725,1.725,0,0,0,1.005-.285,1.8,1.8,0,0,0,.641-.733,1.532,1.532,0,0,0,.145-.878,1.756,1.756,0,0,0-.277-.716,1.712,1.712,0,0,0-.852-.68.76.76,0,0,0-.167-.048.521.521,0,0,0-.123,0Z" transform="translate(-220.99 -77.191)" fill="#263238"/>
          <path id="Path_7872" data-name="Path 7872" d="M287.8,115.49a.525.525,0,0,1,.233.083,1.058,1.058,0,0,1,.492.439.931.931,0,0,1,.061.918,1.045,1.045,0,0,1-.926.571,1.027,1.027,0,0,1-.878-.685.931.931,0,0,1,.167-.909,1.089,1.089,0,0,1,.536-.369c.154-.044.246-.044.246-.057a.571.571,0,0,0-.255,0,1.124,1.124,0,0,0-.6.36,1.111,1.111,0,0,0-.228.439,1,1,0,0,0,0,.566,1.15,1.15,0,0,0,.975.773,1.133,1.133,0,0,0,1.058-.654.966.966,0,0,0,.088-.558,1.059,1.059,0,0,0-.176-.439,1.106,1.106,0,0,0-.549-.439A.548.548,0,0,0,287.8,115.49Z" transform="translate(-216.518 -82.489)" fill="#263238"/>
          <path id="Path_7873" data-name="Path 7873" d="M322.422,78.813l-.031,3.64a.588.588,0,0,1-.522.571h0a.593.593,0,0,1-.641-.479l-.6-3.622a.461.461,0,0,1,.439-.54l.878-.035a.439.439,0,0,1,.474.465Z" transform="translate(-235.601 -61.665)" fill="#263238"/>
          <path id="Path_7874" data-name="Path 7874" d="M321.438,92.246a.878.878,0,1,0,.009-.68A.878.878,0,0,0,321.438,92.246Z" transform="translate(-236.021 -68.785)" fill="#263238"/>
          <path id="Path_7875" data-name="Path 7875" d="M316.117,79.159l-.035,3.618a.579.579,0,0,1-.522.579h0a.58.58,0,0,1-.645-.487l-.6-3.6a.465.465,0,0,1,.439-.54l.878-.035a.47.47,0,0,1,.487.47Z" transform="translate(-232.057 -61.857)" fill="#263238"/>
          <path id="Path_7876" data-name="Path 7876" d="M315.148,92.586a.878.878,0,1,0,.009-.68A.878.878,0,0,0,315.148,92.586Z" transform="translate(-232.493 -68.975)" fill="#263238"/>
        </g>
        <g id="freepik--Floor--inject-211" transform="translate(0 186.756)">
          <path id="Path_7877" data-name="Path 7877" d="M224.151,465.854c0,.066-41.624.114-92.959.114s-92.972-.057-92.972-.114,41.619-.114,92.972-.114S224.151,465.784,224.151,465.854Z" transform="translate(-38.22 -465.74)" fill="#263238"/>
        </g>
        <g id="freepik--Character--inject-211" transform="translate(45.698 19.321)">
          <rect id="Rectangle_1928" data-name="Rectangle 1928" width="73.247" height="46.536" transform="translate(9.825 120.899)" fill="#455a64"/>
          <rect id="Rectangle_1929" data-name="Rectangle 1929" width="89.447" height="16.332" rx="8.166" transform="translate(0 119.573)" fill="#455a64"/>
          <path id="Path_7878" data-name="Path 7878" d="M234.112,393.269c0,.062-17.122.114-38.2.114s-38.217-.053-38.217-.114,17.122-.119,38.217-.119S234.112,393.2,234.112,393.269Z" transform="translate(-150.943 -257.583)" fill="#263238"/>
          <path id="Path_7879" data-name="Path 7879" d="M186.854,426.109c-.061,0-.114-7.095-.114-15.844s.053-15.844.114-15.844.114,7.09.114,15.844S186.907,426.109,186.854,426.109Z" transform="translate(-167.234 -258.296)" fill="#263238"/>
          <path id="Path_7880" data-name="Path 7880" d="M288.111,369.166a11.675,11.675,0,0,1-.285-1.2,16.524,16.524,0,0,0-.948-2.814,16.179,16.179,0,0,0-1.449-2.586,11.744,11.744,0,0,1-.7-1.023,4.61,4.61,0,0,1,.83.926,13.087,13.087,0,0,1,1.528,2.59,13.42,13.42,0,0,1,.878,2.871A4.827,4.827,0,0,1,288.111,369.166Z" transform="translate(-222.204 -239.851)" fill="#263238"/>
          <path id="Path_7881" data-name="Path 7881" d="M293.093,366.115c-.04,0-.2-.47-.593-1.177a9.137,9.137,0,0,0-1.971-2.432,9.259,9.259,0,0,0-2.682-1.611,10.936,10.936,0,0,1-1.247-.439,1.145,1.145,0,0,1,.356.031,6.219,6.219,0,0,1,.944.237,8.284,8.284,0,0,1,4.746,4.122,5.747,5.747,0,0,1,.364.9A1.068,1.068,0,0,1,293.093,366.115Z" transform="translate(-223.253 -239.241)" fill="#263238"/>
          <path id="Path_7882" data-name="Path 7882" d="M208.1,167.35l-10.927,1.778-.8,22.035v43.52H245.5V183.66l-6.379-14.532Z" transform="translate(-172.636 -130.915)" fill="#b0bec5"/>
          <path id="Path_7883" data-name="Path 7883" d="M175.127,171.4s-8.846,4.263-10.348,13.8-5.461,20.142-6.212,22.285-3.214,11.033.536,14.677,5.356,3.319,7.714,3,6.607-3.912,8.456-5.782c2.226-2.257,1.036-6.146,1.036-6.146Z" transform="translate(-150.594 -133.187)" fill="#b0bec5"/>
          <path id="Path_7884" data-name="Path 7884" d="M293.74,171.4s6.379,1.418,9.373,6c2.595,3.951,6.247,16.3,6.247,16.3s5.773,15.8,5.066,20.349-6.95,10.449-10.747,7.854a40.092,40.092,0,0,1-7.6-6.173,5.114,5.114,0,0,1-.79-2.819l1.545-22.32Z" transform="translate(-227.259 -133.187)" fill="#b0bec5"/>
          <path id="Path_7885" data-name="Path 7885" d="M166.605,252.307a2.3,2.3,0,0,1-.536-1.2,5.268,5.268,0,0,1,.321-3.157,4.3,4.3,0,0,1,1.01-1.458,2.147,2.147,0,0,1,1.352-.531,2.977,2.977,0,0,1,.966.132,1.145,1.145,0,0,1,.329.132,7.781,7.781,0,0,0-1.286-.1,2.01,2.01,0,0,0-1.225.527,4.39,4.39,0,0,0-.94,1.4,5.5,5.5,0,0,0-.364,3.034A5.642,5.642,0,0,0,166.605,252.307Z" transform="translate(-155.577 -175.011)" fill="#263238"/>
          <path id="Path_7886" data-name="Path 7886" d="M200.124,209.556a34.988,34.988,0,0,1,0-4.065,35.457,35.457,0,0,1,.25-4.061,36.877,36.877,0,0,1-.022,4.065A37.4,37.4,0,0,1,200.124,209.556Z" transform="translate(-174.709 -150.033)" fill="#263238"/>
          <path id="Path_7887" data-name="Path 7887" d="M166.535,247.42c0,.066-.439,0-.948.1s-.878.32-.909.268.3-.382.878-.5A1.185,1.185,0,0,1,166.535,247.42Z" transform="translate(-154.856 -175.731)" fill="#263238"/>
          <path id="Path_7888" data-name="Path 7888" d="M295.752,200a8,8,0,0,1-.206-1.238c-.11-.764-.272-1.818-.5-2.972s-.474-2.2-.663-2.941a8.046,8.046,0,0,1-.277-1.225,5.653,5.653,0,0,1,.439,1.181,29.9,29.9,0,0,1,.729,2.941,28.616,28.616,0,0,1,.439,3A6.211,6.211,0,0,1,295.752,200Z" transform="translate(-227.466 -144.53)" fill="#263238"/>
          <path id="Path_7889" data-name="Path 7889" d="M247.9,274.309a1.888,1.888,0,0,1-.176.211l-.536.575c-.228.25-.518.549-.878.878s-.742.724-1.207,1.12-.957.847-1.523,1.286-1.172.909-1.822,1.387a45,45,0,0,1-4.452,2.748,43.959,43.959,0,0,1-4.785,2.156c-.76.268-1.48.536-2.169.733s-1.317.4-1.919.544-1.133.268-1.6.369-.878.18-1.22.233l-.777.119a1.4,1.4,0,0,1-.272.026,1.134,1.134,0,0,1,.268-.075l.764-.158c.334-.066.742-.149,1.212-.268s1.005-.228,1.585-.4,1.229-.338,1.905-.566,1.4-.479,2.151-.751a42.147,42.147,0,0,0,9.22-4.891c.65-.47,1.273-.909,1.826-1.361l1.537-1.256c.461-.378.878-.773,1.22-1.093s.659-.615.878-.852l.562-.549C247.819,274.362,247.89,274.3,247.9,274.309Z" transform="translate(-188.45 -190.916)" fill="#263238"/>
          <g id="Group_3477" data-name="Group 3477" transform="translate(79.937 68.695)" opacity="0.3">
            <path id="Path_7890" data-name="Path 7890" d="M324.39,248.451c0,.54.11.733.439.843a1.014,1.014,0,0,0,.786-.263,4.074,4.074,0,0,0,1.111-2.595,9.4,9.4,0,0,0-1.111-5.606,6.541,6.541,0,0,1,0,3.363Z" transform="translate(-324.39 -240.83)"/>
          </g>
          <g id="Group_3478" data-name="Group 3478" transform="translate(9.849 71.689)" opacity="0.3">
            <path id="Path_7891" data-name="Path 7891" d="M168.043,256.312c-.479-1.317-1.717-2.2-2.358-3.455-.759-1.475-.171-3.951.878-5.207-1.5.953-1.756,3.135-1.813,4.768a6.73,6.73,0,0,0,1.5,4.557,2.019,2.019,0,0,0,.8.615.878.878,0,0,0,.931-.206A1.111,1.111,0,0,0,168.043,256.312Z" transform="translate(-164.744 -247.65)"/>
          </g>
          <path id="Path_7892" data-name="Path 7892" d="M184.448,204.566a18.688,18.688,0,0,1-1.756-2.27,17.9,17.9,0,0,1-1.572-2.406,18.687,18.687,0,0,1,1.756,2.27A17.692,17.692,0,0,1,184.448,204.566Z" transform="translate(-164.081 -149.169)" fill="#fff"/>
          <path id="Path_7893" data-name="Path 7893" d="M176.335,231.78a12.29,12.29,0,0,1-1.936,1.343,11.9,11.9,0,0,1-2.059,1.146,24.346,24.346,0,0,1,4-2.489Z" transform="translate(-159.156 -167.058)" fill="#fff"/>
          <path id="Path_7894" data-name="Path 7894" d="M197.323,234.661a29.991,29.991,0,0,1-3.723-3.591,14.323,14.323,0,0,1,1.932,1.725A14.928,14.928,0,0,1,197.323,234.661Z" transform="translate(-171.082 -166.66)" fill="#fff"/>
          <path id="Path_7895" data-name="Path 7895" d="M171,260.008a9.873,9.873,0,0,1,.685-2.9,9.872,9.872,0,0,1-.685,2.9Z" transform="translate(-158.404 -181.268)" fill="#fff"/>
          <path id="Path_7896" data-name="Path 7896" d="M162.845,276.149c-.053.044-.944-1.005-2.164-2.2s-2.292-2.037-2.252-2.094a3.426,3.426,0,0,1,.76.5,18.98,18.98,0,0,1,3.135,3.034A3.349,3.349,0,0,1,162.845,276.149Z" transform="translate(-151.352 -189.542)" fill="#fff"/>
          <path id="Path_7897" data-name="Path 7897" d="M177.286,277.51a19.485,19.485,0,0,1-1.352,2.6,19.189,19.189,0,0,1-1.554,2.494,19.158,19.158,0,0,1,1.352-2.6A18.645,18.645,0,0,1,177.286,277.51Z" transform="translate(-160.301 -192.712)" fill="#fff"/>
          <path id="Path_7898" data-name="Path 7898" d="M188.769,274.158c-.048.044-.716-.685-1.629-1.479s-1.717-1.361-1.681-1.418a6.585,6.585,0,0,1,1.835,1.247A6.436,6.436,0,0,1,188.769,274.158Z" transform="translate(-166.515 -189.206)" fill="#fff"/>
          <path id="Path_7899" data-name="Path 7899" d="M195.178,185.09a15.326,15.326,0,0,1-1.484,2.2,15.646,15.646,0,0,1-1.664,2.077,15.441,15.441,0,0,1,1.479-2.2A15.627,15.627,0,0,1,195.178,185.09Z" transform="translate(-170.202 -140.866)" fill="#fff"/>
          <path id="Path_7900" data-name="Path 7900" d="M209.64,178.714a34.441,34.441,0,0,1-3.71-4.544,34.447,34.447,0,0,1,3.71,4.544Z" transform="translate(-177.999 -134.741)" fill="#fff"/>
          <path id="Path_7901" data-name="Path 7901" d="M213.1,210.773a10.755,10.755,0,0,1-1.493-2.327,11.012,11.012,0,0,1-1.071-2.546c.061,0,.566,1.1,1.273,2.441S213.157,210.747,213.1,210.773Z" transform="translate(-180.585 -152.54)" fill="#fff"/>
          <path id="Path_7902" data-name="Path 7902" d="M228.672,203.829a19.859,19.859,0,0,1-2.928-.944,21.271,21.271,0,0,1-2.854-1.155,20.123,20.123,0,0,1,2.928.939A21.606,21.606,0,0,1,228.672,203.829Z" transform="translate(-187.513 -150.201)" fill="#fff"/>
          <path id="Path_7903" data-name="Path 7903" d="M235.6,181.1c.031.057-.711.527-1.554,1.2s-1.471,1.291-1.519,1.242a5.325,5.325,0,0,1,1.379-1.418A5.268,5.268,0,0,1,235.6,181.1Z" transform="translate(-192.921 -138.628)" fill="#fff"/>
          <path id="Path_7904" data-name="Path 7904" d="M227.158,232.65a49.494,49.494,0,0,1-.988-6.62,24.418,24.418,0,0,1,.61,3.293A23.7,23.7,0,0,1,227.158,232.65Z" transform="translate(-189.354 -163.833)" fill="#fff"/>
          <path id="Path_7905" data-name="Path 7905" d="M218.023,252.54a22.107,22.107,0,0,1-2.823-1.554,23,23,0,0,1-2.7-1.756,22.237,22.237,0,0,1,2.818,1.554,23.1,23.1,0,0,1,2.7,1.756Z" transform="translate(-181.685 -176.847)" fill="#fff"/>
          <path id="Path_7906" data-name="Path 7906" d="M209.2,271.584a13.274,13.274,0,0,1-.878-2.3,13.708,13.708,0,0,1-.663-2.379,13.266,13.266,0,0,1,.878,2.3A13.709,13.709,0,0,1,209.2,271.584Z" transform="translate(-178.97 -186.76)" fill="#fff"/>
          <path id="Path_7907" data-name="Path 7907" d="M211.8,294.683a18.774,18.774,0,0,1-2.665-1.317,19.583,19.583,0,0,1-2.551-1.506,18.874,18.874,0,0,1,2.66,1.317A19.631,19.631,0,0,1,211.8,294.683Z" transform="translate(-178.364 -200.762)" fill="#fff"/>
          <path id="Path_7908" data-name="Path 7908" d="M235.652,272.77a35.435,35.435,0,0,1-1.343,3.767,34.68,34.68,0,0,1-1.559,3.683,36.239,36.239,0,0,1,1.343-3.767,35.181,35.181,0,0,1,1.559-3.683Z" transform="translate(-193.045 -190.053)" fill="#fff"/>
          <path id="Path_7909" data-name="Path 7909" d="M247.331,255.958c-.053.053-1.177-1.093-2.823-2.156s-3.135-1.646-3.108-1.712a3.781,3.781,0,0,1,1,.329,14.175,14.175,0,0,1,4.228,2.757A3.887,3.887,0,0,1,247.331,255.958Z" transform="translate(-197.897 -178.452)" fill="#fff"/>
          <path id="Path_7910" data-name="Path 7910" d="M264.312,236.4a32.576,32.576,0,0,1-3.732,4,16.25,16.25,0,0,1,1.782-2.077A15.976,15.976,0,0,1,264.312,236.4Z" transform="translate(-208.657 -169.65)" fill="#fff"/>
          <path id="Path_7911" data-name="Path 7911" d="M252.437,227.069c-.07,0-.272-1.146-.812-2.476s-1.177-2.314-1.12-2.353a6.946,6.946,0,0,1,1.317,2.265A6.858,6.858,0,0,1,252.437,227.069Z" transform="translate(-203.003 -161.707)" fill="#fff"/>
          <path id="Path_7912" data-name="Path 7912" d="M256.72,198.7c.048.044-.825,1.111-1.8,2.507s-1.677,2.581-1.734,2.546a3.266,3.266,0,0,1,.386-.821,21.4,21.4,0,0,1,2.5-3.587A3.135,3.135,0,0,1,256.72,198.7Z" transform="translate(-204.511 -148.501)" fill="#fff"/>
          <path id="Path_7913" data-name="Path 7913" d="M254.085,183.687a27.661,27.661,0,0,1-2.2-4.557,28.626,28.626,0,0,1,2.2,4.557Z" transform="translate(-203.782 -137.523)" fill="#fff"/>
          <path id="Path_7914" data-name="Path 7914" d="M281.409,250.64a16.685,16.685,0,0,1-2.015,1.857,16.038,16.038,0,0,1-2.164,1.681,17.54,17.54,0,0,1,2.015-1.857A16.364,16.364,0,0,1,281.409,250.64Z" transform="translate(-217.997 -177.638)" fill="#fff"/>
          <path id="Path_7915" data-name="Path 7915" d="M274.786,222.325a15.217,15.217,0,0,1-2.59-.72,15.753,15.753,0,0,1-2.516-.935,15.865,15.865,0,0,1,2.586.72,16.244,16.244,0,0,1,2.52.935Z" transform="translate(-213.762 -160.826)" fill="#fff"/>
          <path id="Path_7916" data-name="Path 7916" d="M285,202.006a20.191,20.191,0,0,1,1.348-2.678,19.875,19.875,0,0,1,1.55-2.568,19.553,19.553,0,0,1-1.348,2.678A19.318,19.318,0,0,1,285,202.006Z" transform="translate(-222.356 -147.413)" fill="#fff"/>
          <path id="Path_7917" data-name="Path 7917" d="M288.762,178.937a65.06,65.06,0,0,1-7.472-1.537,31.311,31.311,0,0,1,3.758.654A32.139,32.139,0,0,1,288.762,178.937Z" transform="translate(-220.274 -136.552)" fill="#fff"/>
          <path id="Path_7918" data-name="Path 7918" d="M304.56,187.791a33.26,33.26,0,0,1,2.419-5.071,34.978,34.978,0,0,1-2.419,5.071Z" transform="translate(-233.328 -139.537)" fill="#fff"/>
          <path id="Path_7919" data-name="Path 7919" d="M311.957,211.628a26.1,26.1,0,0,1-2.56-2.265,25.7,25.7,0,0,1-2.4-2.432,51.474,51.474,0,0,1,4.957,4.7Z" transform="translate(-234.697 -153.118)" fill="#fff"/>
          <path id="Path_7920" data-name="Path 7920" d="M315.86,233.139a14.87,14.87,0,0,1,1.567-2.072,14.384,14.384,0,0,1,1.756-1.927,15.171,15.171,0,0,1-1.567,2.072A14.725,14.725,0,0,1,315.86,233.139Z" transform="translate(-239.667 -165.577)" fill="#fff"/>
          <path id="Path_7921" data-name="Path 7921" d="M296.77,273.709a28.041,28.041,0,0,1,1.414-3.293,28.494,28.494,0,0,1,1.62-3.2,28.036,28.036,0,0,1-1.414,3.293A28.487,28.487,0,0,1,296.77,273.709Z" transform="translate(-228.958 -186.939)" fill="#fff"/>
          <path id="Path_7922" data-name="Path 7922" d="M283.81,287.6a27.54,27.54,0,0,1-2.164-2.9,29.263,29.263,0,0,1-1.976-3.034,29.311,29.311,0,0,1,2.164,2.9A29.856,29.856,0,0,1,283.81,287.6Z" transform="translate(-219.366 -195.045)" fill="#fff"/>
          <path id="Path_7923" data-name="Path 7923" d="M266.476,304.24a15.974,15.974,0,0,1-1.137,2.467A16.554,16.554,0,0,1,264,309.074a15.9,15.9,0,0,1,1.137-2.472A17.164,17.164,0,0,1,266.476,304.24Z" transform="translate(-210.575 -207.707)" fill="#fff"/>
          <path id="Path_7924" data-name="Path 7924" d="M247.767,311.639a38.5,38.5,0,0,1-3.587-4.829,20.829,20.829,0,0,1,1.883,2.349,19.755,19.755,0,0,1,1.7,2.481Z" transform="translate(-199.457 -209.148)" fill="#fff"/>
          <path id="Path_7925" data-name="Path 7925" d="M212.2,310.805a13.849,13.849,0,0,1-1.545-1.927,13.217,13.217,0,0,1-1.361-2.068,14.05,14.05,0,0,1,1.545,1.932A13.306,13.306,0,0,1,212.2,310.805Z" transform="translate(-179.884 -209.148)" fill="#fff"/>
          <path id="Path_7926" data-name="Path 7926" d="M261.392,280.963c-.066,0-.119-.878-.356-1.879s-.558-1.813-.5-1.844a4.688,4.688,0,0,1,.72,1.8A4.614,4.614,0,0,1,261.392,280.963Z" transform="translate(-208.63 -192.56)" fill="#fff"/>
          <path id="Path_7927" data-name="Path 7927" d="M260.424,297.082a4.145,4.145,0,0,1,0-1.932A4.145,4.145,0,0,1,260.424,297.082Z" transform="translate(-208.505 -202.607)" fill="#fff"/>
          <path id="Path_7928" data-name="Path 7928" d="M323.3,271.779c-.035.057-.944-.439-2.125-.931a21.181,21.181,0,0,1-2.151-.878,7.178,7.178,0,0,1,2.239.65A7.256,7.256,0,0,1,323.3,271.779Z" transform="translate(-241.44 -188.482)" fill="#fff"/>
          <path id="Path_7929" data-name="Path 7929" d="M336.032,253.514a4.145,4.145,0,0,1-1.932,0A4.145,4.145,0,0,1,336.032,253.514Z" transform="translate(-249.9 -179.187)" fill="#fff"/>
          <g id="Group_3479" data-name="Group 3479" transform="translate(53.869 41.181)" opacity="0.3">
            <path id="Path_7930" data-name="Path 7930" d="M266.7,178.16a13.555,13.555,0,0,0-1.528,8.9,40.157,40.157,0,0,0,2.6,8.807l7.551,19.844a17.8,17.8,0,0,0,2.832,5.457A6.642,6.642,0,0,0,284,223.213c-1.8-1.73-4.39-4.158-4.5-4.439-.509-1.6-.11-4.39-.334-6.045-.342-2.555-1.989-5.18-3.1-7.507q-3.951-8.341-7.933-16.657c-.918-1.932-1.853-4.153-1.045-6.146a11.865,11.865,0,0,0,1.141-2.489c.141-.9-.676-2.024-1.519-1.664" transform="translate(-265.011 -178.16)"/>
          </g>
          <g id="Group_3480" data-name="Group 3480" transform="translate(23.734 47.42)" opacity="0.3">
            <path id="Path_7931" data-name="Path 7931" d="M196.37,235.715c3.2-1.1,4.452-4.851,5.791-7.955q5.391-12.495,10.791-24.98a16.958,16.958,0,0,0,1.633-5.391,5.665,5.665,0,0,0-2.037-5.018c-4.886,6.177-9.759,12.446-13.215,19.523-2.432,4.979-1.962,9.3-.549,14.167.83,2.858-2.415,5.628-2.415,6.032v3.622" transform="translate(-196.37 -192.37)"/>
          </g>
          <path id="Path_7932" data-name="Path 7932" d="M219.7,117.86a52.635,52.635,0,0,1-2.169-8.881,18.377,18.377,0,0,1,.878-9.018c.167-.439,1.585-3.315,2.046-3.262.329.035-.562,2.735-.4,3.025a15.677,15.677,0,0,1,1.624,9.176,41.32,41.32,0,0,1-1.967,8.96" transform="translate(-184.403 -91.281)" fill="#263238"/>
          <path id="Path_7933" data-name="Path 7933" d="M238.93,129.264c.057-2.156.105-3.855.123-3.855s7.4-.632,8-7.951c.29-3.534.29-10.866.215-17.5a13.68,13.68,0,0,0-12.732-13.487l-.707-.048c-7.652-.083-11.994,6.37-11.854,14.022l-.4,26.78,11.963,10.216Z" transform="translate(-186.779 -85.519)" fill="#c78976"/>
          <path id="Path_7934" data-name="Path 7934" d="M249.562,170.781a17.728,17.728,0,0,1-9.342-3.481s1.958,5.488,9.312,5.334Z" transform="translate(-197.235 -130.887)" fill="#a3615c"/>
          <path id="Path_7935" data-name="Path 7935" d="M270.044,128.428a1.045,1.045,0,0,1-1.08.983,1,1,0,0,1-1.014-1.014,1.054,1.054,0,0,1,1.08-.988,1,1,0,0,1,1.014,1.019Z" transform="translate(-212.791 -108.509)" fill="#263238"/>
          <path id="Path_7936" data-name="Path 7936" d="M270.723,122.4c-.136.127-.878-.514-2.015-.588s-1.989.439-2.1.281c-.057-.061.092-.3.47-.536a2.9,2.9,0,0,1,1.695-.4,2.748,2.748,0,0,1,1.594.641C270.723,122.069,270.811,122.323,270.723,122.4Z" transform="translate(-212.03 -104.999)" fill="#263238"/>
          <path id="Path_7937" data-name="Path 7937" d="M246.114,127.923a1.045,1.045,0,0,1-1.08.988,1.005,1.005,0,0,1-1.014-1.019,1.049,1.049,0,0,1,1.08-.983,1,1,0,0,1,1.014,1.014Z" transform="translate(-199.367 -108.228)" fill="#263238"/>
          <path id="Path_7938" data-name="Path 7938" d="M245.583,121.656c-.14.127-.878-.514-2.02-.588s-1.989.439-2.1.285c-.057-.066.092-.3.47-.54a2.862,2.862,0,0,1,1.695-.4,2.774,2.774,0,0,1,1.594.637C245.548,121.345,245.644,121.6,245.583,121.656Z" transform="translate(-197.927 -104.582)" fill="#263238"/>
          <path id="Path_7939" data-name="Path 7939" d="M258.69,131.535a7.712,7.712,0,0,1,1.853-.2c.29,0,.566-.048.628-.241a1.466,1.466,0,0,0-.132-.878c-.224-.716-.439-1.462-.7-2.248a37.226,37.226,0,0,1-1.515-5.857,37.753,37.753,0,0,1,1.98,5.707l.663,2.261a1.685,1.685,0,0,1,.07,1.137.711.711,0,0,1-.5.386,2,2,0,0,1-.492.035A6.688,6.688,0,0,1,258.69,131.535Z" transform="translate(-207.596 -105.535)" fill="#263238"/>
          <path id="Path_7940" data-name="Path 7940" d="M251.828,150c-.18.026-.294-1.19-1.418-1.962s-2.41-.518-2.432-.685c-.026-.075.268-.263.812-.329a3.073,3.073,0,0,1,2.028.5,2.66,2.66,0,0,1,1.119,1.673C252.021,149.68,251.912,150,251.828,150Z" transform="translate(-201.586 -119.5)" fill="#263238"/>
          <path id="Path_7941" data-name="Path 7941" d="M239.65,113.938c0-.325,1.106-.579,2.292-1.185s2.068-1.317,2.327-1.124c.119.1.044.439-.259.878a4.482,4.482,0,0,1-3.512,1.756C239.97,114.232,239.654,114.092,239.65,113.938Z" transform="translate(-196.915 -99.638)" fill="#263238"/>
          <path id="Path_7942" data-name="Path 7942" d="M265.729,111.943c.3-.193,1.163.29,2.274.566s2.1.325,2.257.637c.066.149-.145.364-.615.5a3.819,3.819,0,0,1-1.949-.035,3.758,3.758,0,0,1-1.7-.931C265.663,112.316,265.6,112.027,265.729,111.943Z" transform="translate(-211.51 -99.808)" fill="#263238"/>
          <path id="Path_7943" data-name="Path 7943" d="M216.458,130.368c-.119-.061-4.93-1.835-5.115,3.183s4.891,4.171,4.9,4.026S216.458,130.368,216.458,130.368Z" transform="translate(-181.034 -109.97)" fill="#c78976"/>
          <path id="Path_7944" data-name="Path 7944" d="M216.363,137.677a1.3,1.3,0,0,1-.241.123.878.878,0,0,1-.654,0,2.163,2.163,0,0,1-.926-1.976,2.876,2.876,0,0,1,.29-1.242,1.01,1.01,0,0,1,.685-.65.439.439,0,0,1,.5.259c.061.145.026.241.053.255s.11-.083.079-.29a.544.544,0,0,0-.184-.32.659.659,0,0,0-.483-.149,1.229,1.229,0,0,0-.939.746,2.954,2.954,0,0,0-.356,1.387,2.234,2.234,0,0,0,1.194,2.2.944.944,0,0,0,.8-.1C216.35,137.8,216.381,137.69,216.363,137.677Z" transform="translate(-182.633 -112.028)" fill="#a3615c"/>
          <path id="Path_7945" data-name="Path 7945" d="M242.1,90.4c.825-.439-1.537-3.126-3.512-4.087-2.977-1.453-7.564-2.428-10.365-1.717-3.376.856-6.208,2.441-7.977,5.444a19.736,19.736,0,0,0-2.5,10.019,5.939,5.939,0,0,0,.619,3.073c.672,1.128,2,1.866,1.892,3.394a2.134,2.134,0,0,0,.479,1.55c.878,1,2.041.114,2.586-.79,1.159-1.936,1.348-4.276,1.506-6.528a14.661,14.661,0,0,0-.18-4.781c-.224-.847-.6-1.646-.773-2.5a3.025,3.025,0,0,1,.439-2.494,3.1,3.1,0,0,1,.439-.4,5.242,5.242,0,0,1,5.22-.839c2.8,1.076,7.586,2.709,8.873,1.782a7.742,7.742,0,0,0,2.314-2.2Z" transform="translate(-184.63 -84.358)" fill="#263238"/>
          <path id="Path_7946" data-name="Path 7946" d="M258.993,86.05a3.227,3.227,0,0,1,.847.742,7.793,7.793,0,0,1,1.545,2.261,4.526,4.526,0,0,1,.3,2.731,1.8,1.8,0,0,1-.492,1.027c-.053-.026.158-.4.25-1.071a4.979,4.979,0,0,0-.382-2.551,10.178,10.178,0,0,0-1.409-2.23C259.217,86.419,258.945,86.085,258.993,86.05Z" transform="translate(-207.763 -85.307)" fill="#455a64"/>
          <path id="Path_7947" data-name="Path 7947" d="M265.317,91.75c.04,0,.189.224.29.663a3.815,3.815,0,0,1-.843,3.293c-.3.338-.549.474-.575.439a6.142,6.142,0,0,0,1.04-2.077A9.484,9.484,0,0,0,265.317,91.75Z" transform="translate(-210.681 -88.505)" fill="#455a64"/>
          <path id="Path_7948" data-name="Path 7948" d="M244.994,132.538a1.756,1.756,0,0,1-.645.36,4.776,4.776,0,0,1-3.512-.035,1.664,1.664,0,0,1-.637-.373,8.223,8.223,0,0,0,2.388.5A8.433,8.433,0,0,0,244.994,132.538Z" transform="translate(-197.224 -111.359)" fill="#a3615c"/>
          <path id="Path_7949" data-name="Path 7949" d="M243.578,134.953a1,1,0,0,1-.479.228,2.95,2.95,0,0,1-1.291.066,3.046,3.046,0,0,1-1.2-.474c-.272-.189-.4-.351-.382-.373a6.089,6.089,0,0,0,1.62.619A6.181,6.181,0,0,0,243.578,134.953Z" transform="translate(-197.239 -112.43)" fill="#a3615c"/>
          <path id="Path_7950" data-name="Path 7950" d="M271.365,131.107a2.04,2.04,0,0,1-.5.615,3.293,3.293,0,0,1-3.653.439,1.558,1.558,0,0,1-.632-.479c.022-.031.263.149.7.334a3.512,3.512,0,0,0,3.481-.439C271.155,131.318,271.335,131.081,271.365,131.107Z" transform="translate(-212.023 -110.582)" fill="#a3615c"/>
          <path id="Path_7951" data-name="Path 7951" d="M274.07,202.586c.158.237,8.658,21.429,12.863,24.915,3.973-3.661,10.883-9.584,4.447-15.476L279.36,194.67Z" transform="translate(-216.224 -146.241)" fill="#c78976"/>
          <path id="Path_7952" data-name="Path 7952" d="M261.227,169.768c.189.224-1.712-4.39-2.2-6.326-.285-1.146-1.348-3.354-.711-4.939a30.117,30.117,0,0,1,1.585-3.249l-2.634-2.217s-5.549-1.269-5.944-2.2a1.427,1.427,0,0,1,0-1.427l4.6.632s-6.419-3.723-4.439-6.181c0,0,3.073,2.393,5.317,2.836l3.477,1.9s.632-.29.474-2.362a8.6,8.6,0,0,0-.474-2.709s-3.073-4.039-2.538-5.865l.637-1.264,3.644,4.039.953,1.9s-.4-6.181,1.9-6.5l.79,7.134-.79,5.031a20.2,20.2,0,0,1,.79,3.13c.158,1.269.795,10.379.795,10.379l1.5,2.2" transform="translate(-203.342 -113.238)" fill="#c78976"/>
          <path id="Path_7953" data-name="Path 7953" d="M267.8,163.446a1.712,1.712,0,0,1-.105-.136l-.294-.408c-.259-.373-.641-.909-1.133-1.607h0c-.11-1.357-.259-3.2-.439-5.492-.088-1.141-.189-2.4-.294-3.749a14.626,14.626,0,0,0-.878-4.245v-.04c.246-1.567.509-3.258.786-5.031v.022c-.25-2.2-.522-4.61-.8-7.13l.114.088a1.646,1.646,0,0,0-1.168,1.058,6.485,6.485,0,0,0-.479,1.686,18.266,18.266,0,0,0-.162,3.648l.026.509-.228-.439c-.3-.588-.623-1.242-.953-1.9v.026l-3.644-4.039.184-.026c-.2.4-.417.83-.637,1.269h0A2.665,2.665,0,0,0,257.82,139a9.158,9.158,0,0,0,.623,1.475,20.831,20.831,0,0,0,1.756,2.792h0a7.768,7.768,0,0,1,.4,1.892,12.107,12.107,0,0,1,.105,1.695,4,4,0,0,1-.105.852,2.141,2.141,0,0,1-.145.417.847.847,0,0,1-.312.373l-.048.026-.057-.031-3.446-1.954h.031a10.3,10.3,0,0,1-2.849-1.194,23.5,23.5,0,0,1-2.511-1.668h.154a1.532,1.532,0,0,0-.356.931,2.309,2.309,0,0,0,.241.988,6.3,6.3,0,0,0,1.26,1.646,18.439,18.439,0,0,0,3.258,2.459l.439.259-.5-.066-4.6-.641.092-.035a1.216,1.216,0,0,0-.114.926,1.719,1.719,0,0,0,.158.439,1.225,1.225,0,0,0,.356.307,9.659,9.659,0,0,0,1.822.781,36.767,36.767,0,0,0,3.661,1.032h.022l2.608,2.221.053.044-.035.061a30.883,30.883,0,0,0-1.506,3.038,4.441,4.441,0,0,0-.035,2.928c.224.9.571,1.734.755,2.524a19.422,19.422,0,0,0,.689,2.1c.439,1.247.808,2.217,1.054,2.884.119.329.211.579.263.751a1.306,1.306,0,0,1,.057.193.136.136,0,0,1,0,.057h0a6.055,6.055,0,0,0-.356-.979c-.255-.654-.632-1.616-1.093-2.867-.228-.623-.479-1.317-.711-2.1s-.527-1.6-.773-2.524a7.077,7.077,0,0,1-.25-1.458,3.337,3.337,0,0,1,.277-1.559,29.72,29.72,0,0,1,1.5-3.073v.1l-2.634-2.2h.039c-1.2-.281-2.428-.6-3.688-1.019a9.991,9.991,0,0,1-1.866-.8,1.317,1.317,0,0,1-.413-.364,1.848,1.848,0,0,1-.189-.518,1.387,1.387,0,0,1,.154-1.093l.026-.044h.061l4.6.632-.066.193a18.633,18.633,0,0,1-3.3-2.485,6.379,6.379,0,0,1-1.317-1.708,2.4,2.4,0,0,1-.263-1.084,1.756,1.756,0,0,1,.4-1.067l.066-.079.088.061a23.235,23.235,0,0,0,2.485,1.651,10.194,10.194,0,0,0,2.783,1.163h0l3.477,1.914H260a.659.659,0,0,0,.2-.263,1.757,1.757,0,0,0,.132-.369,4.061,4.061,0,0,0,.1-.808,11.821,11.821,0,0,0-.105-1.66,7.973,7.973,0,0,0-.378-1.813h0a20.914,20.914,0,0,1-1.787-2.827,9.681,9.681,0,0,1-.641-1.51,2.9,2.9,0,0,1-.123-1.629h0l.637-1.269.075-.145.11.123,3.64,4.039h0l.948,1.9-.2.057a18.1,18.1,0,0,1,.171-3.7,6.8,6.8,0,0,1,.5-1.756,2.5,2.5,0,0,1,.514-.755,1.435,1.435,0,0,1,.817-.417h.1v.105c.277,2.52.54,4.921.781,7.13v.026c-.285,1.756-.553,3.464-.8,5.031v-.04q.369,1.111.615,2.2a9.366,9.366,0,0,1,.184,1.067c.026.351.048.7.075,1.036.1,1.357.193,2.612.277,3.758.162,2.287.3,4.14.4,5.5h0l1.106,1.624.281.439A1.527,1.527,0,0,1,267.8,163.446Z" transform="translate(-203.17 -112.997)" fill="#a3615c"/>
          <path id="Path_7954" data-name="Path 7954" d="M273.69,182.255a4.39,4.39,0,0,1-1.515-.839,2.717,2.717,0,0,1-1.076-1.357,13.434,13.434,0,0,0,1.216,1.177A12.372,12.372,0,0,1,273.69,182.255Z" transform="translate(-214.558 -138.045)" fill="#a3615c"/>
          <path id="Path_7955" data-name="Path 7955" d="M272.15,189.622a3.275,3.275,0,0,1-.233-.935,8.675,8.675,0,0,1,.5-4.579,3.111,3.111,0,0,1,.439-.878,20.693,20.693,0,0,0-.755,3.143A20.589,20.589,0,0,0,272.15,189.622Z" transform="translate(-214.954 -139.823)" fill="#a3615c"/>
          <path id="Path_7956" data-name="Path 7956" d="M269.562,170.983a7.1,7.1,0,0,1-1.049-.544,24.251,24.251,0,0,0-2.564-1.212,17.05,17.05,0,0,0-2.7-.839,11.665,11.665,0,0,1-1.155-.25,4.3,4.3,0,0,1,1.185.088,13.288,13.288,0,0,1,2.757.786,17.4,17.4,0,0,1,2.56,1.286A5.353,5.353,0,0,1,269.562,170.983Z" transform="translate(-209.504 -131.352)" fill="#a3615c"/>
          <path id="Path_7957" data-name="Path 7957" d="M276.352,166.787a2.393,2.393,0,0,1-.742-.136,13.014,13.014,0,0,1-1.725-.579,7.074,7.074,0,0,1-2.2-1.317c.039-.061,1,.579,2.283,1.124S276.374,166.713,276.352,166.787Z" transform="translate(-214.889 -129.456)" fill="#a3615c"/>
          <path id="Path_7958" data-name="Path 7958" d="M279.994,156.151a2.437,2.437,0,0,1-.439-.786,19.811,19.811,0,0,1-.72-2.046c-.241-.808-.439-1.545-.584-2.081a4.426,4.426,0,0,1-.211-.878,2.78,2.78,0,0,1,.364.821c.184.522.408,1.256.65,2.063s.465,1.537.654,2.055A7.043,7.043,0,0,1,279.994,156.151Z" transform="translate(-218.451 -121.384)" fill="#a3615c"/>
          <path id="Path_7959" data-name="Path 7959" d="M221.954,172.234a5.119,5.119,0,0,0,2.731-3.9c.325-2.792.584-6.173.584-6.173a11.337,11.337,0,0,0,.847-1.756c.127-.522,7.31-4.548,7.31-4.548s.255-1.093-1.853-.975-6.045,2.015-6.045,2.015l1.172-3.512a22.67,22.67,0,0,0,3.258-3.986,2.151,2.151,0,0,0-.514-2.744l-.193-.154s0-1.238-.667-1.5c0,0-5.523,3.121-5.707,3.512s2.6-4.223-.913-5.2l-2.077,5.589-.834,2.011h0s-.351,3.56-.483,4.728-.7,9.637-1.479,10.87" transform="translate(-184.26 -117.434)" fill="#c78976"/>
          <path id="Path_7960" data-name="Path 7960" d="M217.07,166.35l.105-.263a5.449,5.449,0,0,0,.215-.79c.154-.707.312-1.756.465-3.121s.312-3.016.47-4.939.391-4.1.619-6.493v-.026l.72-1.756c.246-.6.439-1.229.7-1.866l1.475-3.986.035-.088.092.026a2.577,2.577,0,0,1,1.317.79,2.388,2.388,0,0,1,.527,1.5,5.049,5.049,0,0,1-.246,1.589,6.93,6.93,0,0,1-.281.764c-.053.127-.11.25-.171.373l-.092.184-.053.092-.026.048h0v.026h0c-.141.088-.241-.237-.184-.11v-.022a1.343,1.343,0,0,1,.338-.32l.342-.233q.342-.233.7-.439c.47-.29.948-.579,1.431-.878q1.449-.878,2.959-1.712l.048-.031.053.022a1.115,1.115,0,0,1,.575.7,2.936,2.936,0,0,1,.162.878l-.04-.088a2.66,2.66,0,0,1,.707.755,2.291,2.291,0,0,1,.32,1.032,2.2,2.2,0,0,1-.114.847,3.514,3.514,0,0,1-.382.746,15.932,15.932,0,0,1-.948,1.317,27.42,27.42,0,0,1-2.129,2.362l.026-.048q-.593,1.787-1.172,3.512l-.154-.136a30.99,30.99,0,0,1,4.232-1.655,8.139,8.139,0,0,1,2.16-.373,2.77,2.77,0,0,1,1.08.184,1.041,1.041,0,0,1,.439.356.764.764,0,0,1,.127.571v.039l-.044.026c-1.734.975-3.372,1.919-4.882,2.832-.751.465-1.488.909-2.134,1.4a1.916,1.916,0,0,0-.22.193c-.035.048-.035.031-.057.1s-.031.1-.048.149a5.7,5.7,0,0,1-.246.553c-.176.36-.36.7-.549,1.027v-.031c-.171,1.725-.325,3.284-.439,4.649-.035.342-.066.672-.1.988a7.5,7.5,0,0,1-.119.913,4.956,4.956,0,0,1-.562,1.506,5.268,5.268,0,0,1-1.488,1.624,4.831,4.831,0,0,1-.487.3.938.938,0,0,1-.18.079s.057-.031.167-.1a5.043,5.043,0,0,0,.474-.32,5.269,5.269,0,0,0,1.44-1.629,4.965,4.965,0,0,0,.536-1.484,9.1,9.1,0,0,0,.11-.9c.026-.316.057-.645.088-.988.123-1.365.263-2.924.439-4.649h0c.184-.325.369-.667.54-1.019.083-.176.167-.356.233-.54,0-.048.035-.092.048-.141a.368.368,0,0,1,.088-.162,2.195,2.195,0,0,1,.241-.215c.663-.509,1.392-.948,2.142-1.418,1.51-.926,3.148-1.87,4.882-2.854l-.048.066a.672.672,0,0,0-.461-.7,2.634,2.634,0,0,0-1-.158,7.815,7.815,0,0,0-2.1.369,30.511,30.511,0,0,0-4.2,1.646l-.233.11.079-.241,1.168-3.512v-.026h.022a26.888,26.888,0,0,0,2.107-2.34,14.318,14.318,0,0,0,.935-1.317,3.265,3.265,0,0,0,.36-.694,2.142,2.142,0,0,0,.1-.764,2.051,2.051,0,0,0-.29-.931,2.507,2.507,0,0,0-.654-.689l-.039-.031v-.057a2.884,2.884,0,0,0-.149-.825.9.9,0,0,0-.439-.566h.1q-1.506.847-2.959,1.708c-.483.285-.961.571-1.431.878-.233.145-.465.294-.689.439l-.338.228a1.662,1.662,0,0,0-.263.228.17.17,0,0,0-.066-.031.057.057,0,0,1-.044,0l-.044-.04c-.044-.035-.035,0-.035,0h0l.026-.044.048-.083.088-.18c.061-.119.114-.241.167-.36a7.618,7.618,0,0,0,.277-.746,4.789,4.789,0,0,0,.237-1.519,2.2,2.2,0,0,0-.474-1.37,2.419,2.419,0,0,0-1.225-.729l.127-.061q-.777,2.059-1.488,3.982c-.246.632-.465,1.264-.711,1.861l-.729,1.756v-.026c-.241,2.4-.5,4.57-.654,6.489s-.338,3.582-.514,4.939a30.55,30.55,0,0,1-.514,3.117,5.106,5.106,0,0,1-.241.795C217.118,166.279,217.07,166.35,217.07,166.35Z" transform="translate(-184.249 -117.266)" fill="#a3615c"/>
          <path id="Path_7961" data-name="Path 7961" d="M234.382,173.9a3.021,3.021,0,0,1-1.01.584,3.074,3.074,0,0,1-1.1.373,3.021,3.021,0,0,1,1.01-.584A3.074,3.074,0,0,1,234.382,173.9Z" transform="translate(-192.775 -134.589)" fill="#a3615c"/>
          <path id="Path_7962" data-name="Path 7962" d="M236.462,150.379a1.485,1.485,0,0,1-.176.408,7.521,7.521,0,0,1-.659,1.019,23.115,23.115,0,0,1-2.766,2.88,9.54,9.54,0,0,0-2.3,3.165c-.413.926-.566,1.541-.606,1.528a1.531,1.531,0,0,1,.079-.439,8.1,8.1,0,0,1,.378-1.155,8.917,8.917,0,0,1,2.287-3.271,29.627,29.627,0,0,0,2.8-2.81C236.124,150.924,236.427,150.357,236.462,150.379Z" transform="translate(-191.48 -121.394)" fill="#a3615c"/>
          <path id="Path_7963" data-name="Path 7963" d="M227.264,154.94a3.647,3.647,0,0,1-.522.878,8.955,8.955,0,0,0-.553.9,5.709,5.709,0,0,0-.439,1.234c-.32.878-.465,1.725-.632,2.331a3.021,3.021,0,0,1-.347.944,8.876,8.876,0,0,1,.189-.983,16.526,16.526,0,0,1,.571-2.358,5.19,5.19,0,0,1,.47-1.269,6.448,6.448,0,0,1,.606-.913A6.1,6.1,0,0,1,227.264,154.94Z" transform="translate(-188.568 -123.953)" fill="#a3615c"/>
          <path id="Path_7964" data-name="Path 7964" d="M173.5,218.5c.215-.325,6.208-6.146,7.933-8.06s10.409-12.96,10.945-14.628,5.47,4.759,5.47,4.759h0s-5.993,14.334-8.341,18.417-6.2,11.678-6.2,11.678-6.353.536-8.824-4.623S173.5,218.5,173.5,218.5Z" transform="translate(-159.559 -146.723)" fill="#c78976"/>
          <path id="Path_7965" data-name="Path 7965" d="M207.059,417.54l8.074,19.756-24.511,10.172c-.825-2.4,9.9-12.363,9.9-12.363l-5.707-12.437Z" transform="translate(-169.387 -271.265)" fill="#b0bec5"/>
          <g id="Group_3481" data-name="Group 3481" transform="translate(37.373 159.605)" opacity="0.6">
            <path id="Path_7966" data-name="Path 7966" d="M228.338,447.915a1.08,1.08,0,0,1,1.168.856,1.04,1.04,0,0,1-.839,1.159,1.137,1.137,0,0,1-1.229-.909c-.031-.531.474-1.168,1.005-1.115" transform="translate(-227.437 -447.903)" fill="#fff"/>
          </g>
          <g id="Group_3482" data-name="Group 3482" transform="translate(21.139 164.055)" opacity="0.6">
            <path id="Path_7967" data-name="Path 7967" d="M215.067,460l-.878-1.958-23.167,10.484s-.878.926-.439,1.646Z" transform="translate(-190.46 -458.04)" fill="#fff"/>
          </g>
          <path id="Path_7968" data-name="Path 7968" d="M212.2,457.048c.057.119.676-.075,1.422.066s1.273.514,1.365.417-.378-.707-1.286-.878S212.133,456.951,212.2,457.048Z" transform="translate(-181.516 -293.186)" fill="#263238"/>
          <path id="Path_7969" data-name="Path 7969" d="M207.357,462.221c0,.127.623.119,1.242.439s.953.825,1.071.773-.088-.764-.878-1.168S207.314,462.107,207.357,462.221Z" transform="translate(-178.799 -296.23)" fill="#263238"/>
          <path id="Path_7970" data-name="Path 7970" d="M204.645,468.654c.123,0,.039-.685-.54-1.216s-1.247-.553-1.256-.439.483.329.953.768S204.523,468.693,204.645,468.654Z" transform="translate(-176.271 -298.979)" fill="#263238"/>
          <path id="Path_7971" data-name="Path 7971" d="M209.977,449.4c.1.088.579-.307,1.273-.54s1.317-.241,1.317-.369-.663-.347-1.48-.057S209.868,449.333,209.977,449.4Z" transform="translate(-180.26 -288.518)" fill="#263238"/>
          <path id="Path_7972" data-name="Path 7972" d="M208.558,439.408a2.508,2.508,0,0,0,1.225-.514,6.262,6.262,0,0,0,1.12-.931,6.471,6.471,0,0,0,.549-.663,1.755,1.755,0,0,0,.25-.439.553.553,0,0,0-.211-.659.707.707,0,0,0-.637-.057,1.831,1.831,0,0,0-.439.255,4.975,4.975,0,0,0-.654.58,4.694,4.694,0,0,0-.821,1.212,2.253,2.253,0,0,0-.312,1.3c.048,0,.193-.47.593-1.146a5.231,5.231,0,0,1,.839-1.071,4.742,4.742,0,0,1,.615-.509c.233-.176.439-.272.566-.184.04.035.053.053.031.149a1.488,1.488,0,0,1-.184.325,7.1,7.1,0,0,1-1.493,1.585C208.975,439.127,208.527,439.346,208.558,439.408Z" transform="translate(-179.473 -281.674)" fill="#263238"/>
          <path id="Path_7973" data-name="Path 7973" d="M205.311,439.381a2.088,2.088,0,0,0-.167-1.317,4.325,4.325,0,0,0-.742-1.269,4.621,4.621,0,0,0-.623-.619,1.111,1.111,0,0,0-1.041-.294.619.619,0,0,0-.369.558,1.756,1.756,0,0,0,.061.5,2.727,2.727,0,0,0,.342.825,3,3,0,0,0,1.049,1.054c.742.439,1.317.373,1.3.325a9.49,9.49,0,0,1-1.119-.593,2.994,2.994,0,0,1-.878-.992,2.687,2.687,0,0,1-.272-.716c-.07-.277-.061-.527.048-.544a.965.965,0,0,1,.6.224,4.553,4.553,0,0,1,1.317,1.668C205.179,438.885,205.241,439.389,205.311,439.381Z" transform="translate(-176.002 -281.538)" fill="#263238"/>
          <path id="Path_7974" data-name="Path 7974" d="M318.472,419.93l-.672,21.315,26.517.975c-.061-2.542-13.61-8.131-13.61-8.131l.992-13.64Z" transform="translate(-240.756 -272.606)" fill="#b0bec5"/>
          <g id="Group_3483" data-name="Group 3483" transform="translate(81.001 159.998)" opacity="0.6">
            <path id="Path_7975" data-name="Path 7975" d="M327.619,448.835a1.089,1.089,0,0,0-.795,1.212,1.041,1.041,0,0,0,1.19.795,1.137,1.137,0,0,0,.834-1.282,1.073,1.073,0,0,0-1.317-.694" transform="translate(-326.813 -448.799)" fill="#fff"/>
          </g>
          <g id="Group_3484" data-name="Group 3484" transform="translate(77.044 166.496)" opacity="0.6">
            <path id="Path_7976" data-name="Path 7976" d="M317.8,465.742l.149-2.142,25.367,1.734s1.163.553,1,1.383Z" transform="translate(-317.8 -463.6)" fill="#fff"/>
          </g>
          <path id="Path_7977" data-name="Path 7977" d="M345.052,451.749c0,.132-.659.167-1.317.558s-1.014.926-1.133.878.105-.795.9-1.256S345.087,451.635,345.052,451.749Z" transform="translate(-254.652 -290.386)" fill="#263238"/>
          <path id="Path_7978" data-name="Path 7978" d="M352.132,454.7c.026.123-.544.325-1,.878s-.61,1.106-.738,1.1-.184-.746.4-1.4S352.136,454.573,352.132,454.7Z" transform="translate(-258.993 -292.08)" fill="#263238"/>
          <path id="Path_7979" data-name="Path 7979" d="M357.6,459.684c-.119,0-.277-.632.083-1.317s.975-.957,1.027-.847-.338.474-.623,1.049S357.734,459.676,357.6,459.684Z" transform="translate(-263.006 -293.68)" fill="#263238"/>
          <path id="Path_7980" data-name="Path 7980" d="M344.471,444.123c-.057.114-.645-.088-1.379-.062s-1.317.233-1.379.119.5-.558,1.37-.571S344.515,444.022,344.471,444.123Z" transform="translate(-254.168 -285.89)" fill="#263238"/>
          <path id="Path_7981" data-name="Path 7981" d="M341.7,434.648a2.466,2.466,0,0,1-1.317-.057,6.177,6.177,0,0,1-2.12-.909,1.691,1.691,0,0,1-.391-.329.562.562,0,0,1-.022-.707.7.7,0,0,1,.58-.277,1.755,1.755,0,0,1,.5.088,4.992,4.992,0,0,1,.817.312,4.773,4.773,0,0,1,1.194.852c.593.588.786,1.08.742,1.106s-.347-.378-.957-.878a5.2,5.2,0,0,0-1.159-.711,4.769,4.769,0,0,0-.755-.263c-.277-.083-.514-.1-.593.026-.026.048-.031.066.026.149a1.281,1.281,0,0,0,.285.241,6.952,6.952,0,0,0,.685.439,7.7,7.7,0,0,0,1.269.54A9.493,9.493,0,0,1,341.7,434.648Z" transform="translate(-251.941 -279.584)" fill="#263238"/>
          <path id="Path_7982" data-name="Path 7982" d="M345.983,432.665c-.044.022-.285-.439-.3-1.3a4.36,4.36,0,0,1,.237-1.444,4.285,4.285,0,0,1,.369-.795,1.093,1.093,0,0,1,.878-.641.619.619,0,0,1,.54.391,1.623,1.623,0,0,1,.119.492,2.891,2.891,0,0,1-.031.878,3.047,3.047,0,0,1-.619,1.352c-.54.667-1.089.8-1.1.76a4.832,4.832,0,0,0,.843-.948,3.073,3.073,0,0,0,.465-1.234,2.807,2.807,0,0,0,0-.768c-.035-.281-.132-.514-.237-.487a.964.964,0,0,0-.479.417,4.441,4.441,0,0,0-.356.707,4.705,4.705,0,0,0-.307,1.317C345.935,432.143,346.057,432.634,345.983,432.665Z" transform="translate(-256.396 -277.408)" fill="#263238"/>
          <path id="Path_7983" data-name="Path 7983" d="M190.115,266.71a.676.676,0,0,1,.092.132,2.742,2.742,0,0,1,.219.413,3.845,3.845,0,0,1,.32,1.686,5.707,5.707,0,0,1-.711,2.441,12.117,12.117,0,0,1-1.835,2.511,17.85,17.85,0,0,1-4.39,3.512,16.527,16.527,0,0,1-1.532.751,3.076,3.076,0,0,1-.588.211,3.641,3.641,0,0,1,.549-.294c.36-.176.878-.439,1.488-.808a19.037,19.037,0,0,0,4.294-3.543,12.371,12.371,0,0,0,1.822-2.45,5.707,5.707,0,0,0,.733-2.353,4.1,4.1,0,0,0-.241-1.642C190.2,266.916,190.1,266.719,190.115,266.71Z" transform="translate(-164.401 -186.653)" fill="#263238"/>
          <path id="Path_7984" data-name="Path 7984" d="M184.668,259.518a.7.7,0,0,1-.184.1,4.067,4.067,0,0,1-.544.233,6.718,6.718,0,0,1-2.151.386,8.341,8.341,0,0,1-6.423-2.867,14.451,14.451,0,0,1-1.207-1.673,12.035,12.035,0,0,1-.847-1.725,9.289,9.289,0,0,1-.641-3.179,7.462,7.462,0,0,1,.29-2.164,4.93,4.93,0,0,1,.193-.562c.048-.127.079-.193.088-.189s-.075.277-.193.773a7.99,7.99,0,0,0-.215,2.138,9.43,9.43,0,0,0,.676,3.108,11.8,11.8,0,0,0,.843,1.681,14.111,14.111,0,0,0,1.19,1.642,8.078,8.078,0,0,0,3.135,2.243,8.245,8.245,0,0,0,3.108.61,7.261,7.261,0,0,0,2.125-.307C184.409,259.615,184.668,259.5,184.668,259.518Z" transform="translate(-159.34 -176.09)" fill="#263238"/>
          <path id="Path_7985" data-name="Path 7985" d="M303.067,271.014a1.726,1.726,0,0,1-.382-.259c-.237-.18-.575-.439-.992-.781-.825-.676-1.993-1.567-3.17-2.7a9.419,9.419,0,0,1-.8-.878,2.792,2.792,0,0,1-.5-1.019,7.184,7.184,0,0,1-.206-1.879,9.294,9.294,0,0,1,.092-1.264,1.655,1.655,0,0,1,.105-.439c.035,0-.066.659-.035,1.717a7.459,7.459,0,0,0,.246,1.822,4.25,4.25,0,0,0,1.26,1.809c1.159,1.119,2.318,2.037,3.108,2.74.4.351.724.637.948.839A1.686,1.686,0,0,1,303.067,271.014Z" transform="translate(-229.096 -183.893)" fill="#263238"/>
          <path id="Path_7986" data-name="Path 7986" d="M310.129,239.68a2.848,2.848,0,0,1,.1.619,10.641,10.641,0,0,1,0,1.712,10.211,10.211,0,0,1-1.888,5.268,35.677,35.677,0,0,1-3.71,4.241,15.138,15.138,0,0,1-1.317,1.071,2.68,2.68,0,0,1-.531.334,3.553,3.553,0,0,1,.479-.4c.312-.255.759-.628,1.278-1.12a39.435,39.435,0,0,0,3.635-4.263,10.432,10.432,0,0,0,1.905-5.123A22.008,22.008,0,0,0,310.129,239.68Z" transform="translate(-232.33 -171.49)" fill="#263238"/>
          <path id="Path_7987" data-name="Path 7987" d="M319.049,239.828a6.646,6.646,0,0,0,.171-1.58,5.225,5.225,0,0,0-.373-1.668,4.992,4.992,0,0,0-1.168-1.725,6.8,6.8,0,0,0-3.411-1.62,8.565,8.565,0,0,0-1.6,0,1.524,1.524,0,0,1,.439-.118,4.288,4.288,0,0,1,1.194-.044,6.585,6.585,0,0,1,3.552,1.616,5.075,5.075,0,0,1,1.545,3.556,4.191,4.191,0,0,1-.162,1.181A1.316,1.316,0,0,1,319.049,239.828Z" transform="translate(-237.878 -167.77)" fill="#263238"/>
          <path id="Path_7988" data-name="Path 7988" d="M178.943,290.082s-9.852-8.737-14.172-8.662-18.5-.878-12.556,18.777c6,19.809,16.727,50.1,17.021,49.013l18.474-8.122L180.2,312.911s25.182.285,30.042-.356,13.961-7.024,13.961-7.024l-1.444,35.587,19.317-1.076s2.709-42.765,3.512-51.555c.681-7.657-7.9-16.244-16.683-14.3C223.2,275.449,202.7,289.9,202.7,289.9Z" transform="translate(-147.061 -190.691)" fill="#263238"/>
          <path id="Path_7989" data-name="Path 7989" d="M318.369,302.78a5.226,5.226,0,0,1-.022.935c-.035.659-.079,1.51-.132,2.533-.1,2.138-.167,5.1-.22,8.372s-.114,6.234-.228,8.377c-.048,1.076-.114,1.94-.171,2.538a5.148,5.148,0,0,1-.123.926,5.293,5.293,0,0,1,0-.935c0-.659.044-1.51.07-2.538.035-2.2.083-5.132.132-8.377s.158-6.234.316-8.377c.079-1.071.158-1.936.233-2.533A5.168,5.168,0,0,1,318.369,302.78Z" transform="translate(-240.561 -206.888)" fill="#455a64"/>
          <path id="Path_7990" data-name="Path 7990" d="M314.226,329.968a3.75,3.75,0,0,1-.852-1.027,11.273,11.273,0,0,1-1.383-2.911,11.583,11.583,0,0,1-.518-3.183,3.855,3.855,0,0,1,.119-1.317,21.053,21.053,0,0,0,.711,4.417A24.816,24.816,0,0,0,314.226,329.968Z" transform="translate(-237.199 -217.406)" fill="#455a64"/>
          <path id="Path_7991" data-name="Path 7991" d="M227.767,326.663c-.031,0-.075-.483-.224-1.357a17.426,17.426,0,0,0-1.01-3.582,18.37,18.37,0,0,0-2.792-4.741,17.653,17.653,0,0,0-5.159-4.289c-4.188-2.423-7.872-4.8-10.444-6.664-1.286-.926-2.3-1.721-2.968-2.3-.338-.285-.588-.527-.755-.685a1.334,1.334,0,0,1-.246-.259c.009-.009.386.3,1.084.847s1.717,1.317,3.016,2.217c2.6,1.8,6.3,4.149,10.475,6.585a17.46,17.46,0,0,1,5.238,4.39,17.968,17.968,0,0,1,2.77,4.829,15.949,15.949,0,0,1,.926,3.648,10.047,10.047,0,0,1,.092,1.018,1.681,1.681,0,0,1,0,.347Z" transform="translate(-177.011 -206.887)" fill="#455a64"/>
          <path id="Path_7992" data-name="Path 7992" d="M268.242,309.67a4.831,4.831,0,0,1-.32.825c-.233.518-.544,1.282-.878,2.23a40.073,40.073,0,0,0-2.577,15.528c.031,1.014.083,1.835.136,2.4a4.2,4.2,0,0,1,.035.878,4.6,4.6,0,0,1-.162-.878c-.092-.562-.176-1.383-.241-2.4a36.123,36.123,0,0,1,2.573-15.612c.386-.944.733-1.695,1-2.2A4.488,4.488,0,0,1,268.242,309.67Z" transform="translate(-210.673 -210.753)" fill="#455a64"/>
          <path id="Path_7993" data-name="Path 7993" d="M189.07,303.84a1.39,1.39,0,0,1,.268.176l.742.536c.158.123.338.255.531.4s.378.338.588.527a13.861,13.861,0,0,1,1.37,1.343l.751.83c.237.307.474.632.729.966l.382.514c.123.18.237.369.356.557.233.378.487.76.724,1.168a35.848,35.848,0,0,1,2.476,5.593c.729,2.046,1.282,4.039,1.756,5.848l1.286,4.829c.373,1.37.676,2.476.9,3.236.105.364.184.659.25.878a1.582,1.582,0,0,1,.07.312,1.524,1.524,0,0,1-.114-.3l-.29-.878c-.255-.751-.584-1.853-.979-3.218s-.83-3-1.317-4.8-1.058-3.793-1.787-5.83a36.275,36.275,0,0,0-2.445-5.562c-.228-.408-.479-.786-.711-1.168-.114-.184-.224-.373-.347-.553l-.373-.509c-.246-.334-.479-.663-.716-.966l-.729-.834a14.659,14.659,0,0,0-1.339-1.361c-.206-.189-.386-.382-.571-.536l-.518-.408-.711-.571A1.891,1.891,0,0,1,189.07,303.84Z" transform="translate(-168.541 -207.482)" fill="#455a64"/>
          <path id="Path_7994" data-name="Path 7994" d="M214.47,299.547c3.512,2.322,7.384,2.867,11.52,3.657,2.388.439,4.886.878,7.213.184,5-1.475,9.825-7.16,13.035-9.189l-9.948-3.1Z" transform="translate(-182.79 -200.335)" fill="#b0bec5"/>
          <path id="Path_7995" data-name="Path 7995" d="M230.61,309.693a13.487,13.487,0,0,1,.834-2.353,13.677,13.677,0,0,1,1.049-2.27,13.751,13.751,0,0,1-.839,2.353A13.892,13.892,0,0,1,230.61,309.693Z" transform="translate(-191.844 -208.172)" fill="#fff"/>
          <path id="Path_7996" data-name="Path 7996" d="M256.028,311.7a8.447,8.447,0,0,1-1.861-.65,8.193,8.193,0,0,1-1.756-.878,17.439,17.439,0,0,1,3.631,1.515Z" transform="translate(-204.073 -211.033)" fill="#fff"/>
          <path id="Path_7997" data-name="Path 7997" d="M262.79,299.524a10.354,10.354,0,0,1-2.2.083,10.839,10.839,0,0,1-2.2-.145,10.353,10.353,0,0,1,2.2-.083A10.834,10.834,0,0,1,262.79,299.524Z" transform="translate(-207.434 -204.966)" fill="#fff"/>
        </g>
      </g>
    </g>
    <g id="Group_3234" data-name="Group 3234" transform="translate(4.012 -10.262)">
      <path id="Icon_ionic-ios-arrow-back" data-name="Icon ionic-ios-arrow-back" d="M15.217,17.7,23.926,9A1.645,1.645,0,1,0,21.6,6.674l-9.867,9.86a1.642,1.642,0,0,0-.048,2.268l9.908,9.929a1.645,1.645,0,0,0,2.33-2.323Z" transform="translate(362.579 30.069)" fill="#fff"/>
      <path id="Icon_ionic-ios-arrow-back-2" data-name="Icon ionic-ios-arrow-back" d="M3.967,11.506l8.709-8.7A1.645,1.645,0,1,0,10.346.481L.479,10.341a1.642,1.642,0,0,0-.048,2.268l9.908,9.929a1.645,1.645,0,1,0,2.33-2.323Z" transform="translate(377.472 59.28) rotate(180)" fill="#fff"/>
    </g>
    <text id="Session_3_De-addiction_stage" data-name="Session 3
De-addiction stage" transform="translate(21 26)" fill="#fff" font-size="16" font-family="ArialMT, Arial"><tspan x="0" y="14">Session 3</tspan><tspan font-size="24" font-family="Arial-BoldMT, Arial" font-weight="700"><tspan x="0" y="49">De-addiction stage</tspan></tspan></text>
    <g id="Component_119_309" data-name="Component 119 – 309" transform="translate(0 779.278)">
      <rect id="Rectangle_1927" data-name="Rectangle 1927" width="412" height="67" transform="translate(0 0.722)" fill="#102646"/>
      <path id="Path_4714" data-name="Path 4714" d="M1053,4508.186h411.151" transform="translate(-1053 -4508.186)" fill="none" stroke="#fff" stroke-width="2" opacity="0.206"/>
      <g id="Group_3096" data-name="Group 3096" transform="translate(-3 -997.186)">
        <text id="Next" transform="translate(318 1038)" fill="#f2f5f7" font-size="18" font-family="ArialMT, Arial"><tspan x="0" y="0">Next</tspan></text>
        <path id="Icon_ionic-ios-arrow-back-3" data-name="Icon ionic-ios-arrow-back" d="M14.033,14.264l6.109-6.1a1.154,1.154,0,0,0-1.634-1.629l-6.921,6.916a1.152,1.152,0,0,0-.034,1.591L18.5,22a1.154,1.154,0,1,0,1.634-1.629Z" transform="translate(389.251 1046.266) rotate(180)" fill="#f2f5f7"/>
      </g>
      <g id="Group_3224" data-name="Group 3224" transform="translate(2.529 7.076)">
        <g id="Group_3212" data-name="Group 3212" transform="translate(34.47 14.737)">
          <text id="Back" transform="translate(19.06 18)" fill="#fff" font-size="18" font-family="ArialMT, Arial"><tspan x="0" y="0">Back</tspan></text>
          <path id="Icon_ionic-ios-arrow-back-4" data-name="Icon ionic-ios-arrow-back" d="M14.033,14.264l6.109-6.1a1.154,1.154,0,0,0-1.634-1.629l-6.921,6.916a1.152,1.152,0,0,0-.034,1.591L18.5,22a1.154,1.154,0,1,0,1.634-1.629Z" transform="translate(-11.251 -3.193)" fill="#fff"/>
        </g>
      </g>
    </g>
  </g>
</svg>
