<svg xmlns="http://www.w3.org/2000/svg" xmlns:xlink="http://www.w3.org/1999/xlink" width="412" height="921" viewBox="0 0 412 921">
  <defs>
    <linearGradient id="linear-gradient" x1="0.5" x2="0.5" y2="1" gradientUnits="objectBoundingBox">
      <stop offset="0" stop-color="#37aadd"/>
      <stop offset="1" stop-color="#1f64cc"/>
    </linearGradient>
    <clipPath id="clip-path">
      <path id="Path_5258" data-name="Path 5258" d="M122.507,285.26S88.2,295.655,88.2,297.6,87.214,338,88,340.171s7.257,4.309,10.789,4.309v.788h75.289l-3.715-20.789s21.178-.788,21.546-2.354-18.577-32.928-20.342-33.916-28.661-3.926-31.8-3.926S129.958,282.89,122.507,285.26Z" transform="translate(-87.694 -283.876)" fill="#1f64cc" stroke="#263238" stroke-linecap="round" stroke-linejoin="round" stroke-width="1.177"/>
    </clipPath>
    <clipPath id="clip-path-2">
      <path id="Path_5266" data-name="Path 5266" d="M148.72,284.6s2.743,6.863,5.686,12.744,9.985,14.12,11.766,12.355,3.526-15.492,3.526-18.629V281.66s-5.486,4.509-9.8,4.509A65.35,65.35,0,0,1,148.72,284.6Z" transform="translate(-148.72 -281.66)" fill="#fff" stroke="#263238" stroke-linecap="round" stroke-linejoin="round" stroke-width="1.177"/>
    </clipPath>
    <clipPath id="clip-path-3">
      <path id="Path_5284" data-name="Path 5284" d="M109.384,262.26s-4.9,8.823-4.12,10.195,8.629,9.806,8.629,9.806-22.355,33.333-24.51,36.665a14.129,14.129,0,0,0-1.577,10.983c.972,2.748,6.863,5.292,10.983,5.1s7.252-5.3,8.408-9.985,11.792-39.25,12.775-41.978,2.349-4.9.977-6.275-6.663-6.469-6.663-6.469,1.577-1.372,1.372-2.943S112.127,262.649,109.384,262.26Z" transform="translate(-87.304 -262.26)" fill="#ffc4c4" stroke="#263238" stroke-linecap="round" stroke-linejoin="round" stroke-width="1.177"/>
    </clipPath>
    <clipPath id="clip-path-4">
      <path id="Path_5291" data-name="Path 5291" d="M176.754,332.546s-15.492,12.749-17.647,13.921-1.177,3.337-.394,4.12a90.42,90.42,0,0,0,8.235,7.058c2.354,1.566,5.686-1.177,6.469-1.577s-.194-2.16-.194-2.16,6.08-3.332,7.058-6.469a35.416,35.416,0,0,0,1.177-7.452s24.7,9.985,30.59,12.155,9.606,2.354,12.355-.389,2.938-8.434,1.577-11.372-9.985-5.686-13.921-5.686-31.767-3.337-33.527-2.748Z" transform="translate(-157.799 -331.878)" fill="#ffc4c4" stroke="#263238" stroke-linecap="round" stroke-linejoin="round" stroke-width="1.177"/>
    </clipPath>
    <clipPath id="clip-path-5">
      <path id="Rectangle_1714" data-name="Rectangle 1714" d="M0,0H412a0,0,0,0,1,0,0V158a20,20,0,0,1-20,20H20A20,20,0,0,1,0,158V0A0,0,0,0,1,0,0Z" fill="url(#linear-gradient)"/>
    </clipPath>
    <clipPath id="clip-OCD_sev_1">
      <rect width="412" height="921"/>
    </clipPath>
  </defs>
  <g id="OCD_sev_1" data-name="OCD – sev – 1" clip-path="url(#clip-OCD_sev_1)">
    <rect width="412" height="921" fill="#e9eff4"/>
    <text id="Time_Occupied_by_your_obsessive_thoughts_" data-name="Time Occupied by your obsessive thoughts?" transform="translate(27 203)" fill="#5f789d" font-size="22" font-family="ArialMT, Arial"><tspan x="0" y="20">Time Occupied by your obsessive </tspan><tspan x="0" y="50">thoughts?</tspan></text>
    <text id="Select_and_slide_the_option_below_to_mark_severity_1_-_10" data-name="Select and slide the option below to mark severity 1 - 10" transform="translate(49 485)" fill="#5f789d" font-size="12" font-family="ArialMT, Arial"><tspan x="0" y="11">Select and slide the option below to mark severity 1 - 10</tspan></text>
    <g id="Group_3087" data-name="Group 3087" transform="translate(27 514)">
      <rect id="Rectangle_1715" data-name="Rectangle 1715" width="358" height="55" rx="10" fill="#c6cedb"/>
      <text id="None" transform="translate(17 33)" fill="#606060" font-size="15" font-family="SegoeUI-Bold, Segoe UI" font-weight="700"><tspan x="0" y="0">None</tspan></text>
    </g>
    <g id="Group_3088" data-name="Group 3088" transform="translate(27 582.517)">
      <rect id="Rectangle_1716" data-name="Rectangle 1716" width="358" height="98" rx="10" transform="translate(0 0.483)" fill="#236fce"/>
      <text id="_Less_than_1_hr_day" data-name=" Less than 1 hr/day" transform="translate(9 34.484)" fill="#fff" font-size="15" font-family="SegoeUI-Bold, Segoe UI" font-weight="700"><tspan x="0" y="0" xml:space="preserve"> Less than 1 hr/day</tspan></text>
      <text id="_03" data-name="03" transform="translate(327 63.484)" fill="#fff" font-size="15" font-family="SegoeUI-Bold, Segoe UI" font-weight="700"><tspan x="-17.256" y="0">03</tspan></text>
      <text id="Severity" transform="translate(343 82.484)" fill="#fff" font-size="14" font-family="SegoeUI, Segoe UI"><tspan x="-48.563" y="0">Severity</tspan></text>
      <g id="Group_3102" data-name="Group 3102" transform="translate(14.506 63.483)">
        <rect id="Rectangle_1708" data-name="Rectangle 1708" width="262" height="5" rx="2.5" transform="translate(-0.506)" fill="#dce9f5"/>
      </g>
      <circle id="Ellipse_571" data-name="Ellipse 571" cx="11" cy="11" r="11" transform="translate(60 54.483)" fill="#d2dff2"/>
    </g>
    <g id="_504_Error_Gateway_Timeout-bro" data-name="504 Error Gateway Timeout-bro" transform="translate(92.34 198.301)">
      <g id="freepik--background-simple--inject-34" transform="translate(4.521 76.973)">
        <path id="Path_5191" data-name="Path 5191" d="M56.806,192.555s3.721,32.44,31.289,46.3,54.569.378,79.352-2.869c12.98-1.7,25.019,4.682,37.752,6.017,40.7,4.272,72.646-43.691,66.913-78.973-4.961-30.548-24.478-52.1-60.044-67.491S152.039,67.915,110.728,82.4,53.863,150.556,56.806,192.555Z" transform="translate(-56.459 -75.928)" fill="#1f64cc"/>
        <path id="Path_5192" data-name="Path 5192" d="M56.806,192.555s3.721,32.44,31.289,46.3,54.569.378,79.352-2.869c12.98-1.7,25.019,4.682,37.752,6.017,40.7,4.272,72.646-43.691,66.913-78.973-4.961-30.548-24.478-52.1-60.044-67.491S152.039,67.915,110.728,82.4,53.863,150.556,56.806,192.555Z" transform="translate(-56.459 -75.928)" fill="#fff" opacity="0.8"/>
      </g>
      <g id="freepik--Clock--inject-34" transform="translate(138.152 116.457)">
        <circle id="Ellipse_555" data-name="Ellipse 555" cx="23.28" cy="23.28" r="23.28" transform="translate(0 4.633) rotate(-5.711)" fill="none" stroke="#263238" stroke-linecap="round" stroke-linejoin="round" stroke-width="1.183"/>
        <circle id="Ellipse_556" data-name="Ellipse 556" cx="19.197" cy="19.197" r="19.197" transform="translate(2.617 9.43) rotate(-9.13)" fill="none" stroke="#263238" stroke-linecap="round" stroke-linejoin="round" stroke-width="1.177"/>
        <path id="Path_5193" data-name="Path 5193" d="M241.61,175.91h12.244v17.668" transform="translate(-229.241 -150.571)" fill="none" stroke="#263238" stroke-linecap="round" stroke-linejoin="round" stroke-width="1.177"/>
      </g>
      <g id="freepik--Plants--inject-34" transform="translate(40.385 101.294)">
        <path id="Path_5194" data-name="Path 5194" d="M87.744,139.569s0-3.106-4.351-7.457-7.142-6.832-7.142-6.832-2.176,7.142,1.86,11.493a76.341,76.341,0,0,0,9.633,8.408Z" transform="translate(-50.485 -125.28)" fill="#1f64cc"/>
        <path id="Path_5195" data-name="Path 5195" d="M75.734,176.489s0-3.106-4.351-7.457-7.142-6.832-7.142-6.832-2.176,7.142,1.86,11.493a76.834,76.834,0,0,0,9.633,8.408Z" transform="translate(-44.787 -142.798)" fill="#1f64cc"/>
        <path id="Path_5196" data-name="Path 5196" d="M97.594,150.806s.326-3.09,5.113-6.958,7.825-6.038,7.825-6.038,1.408,7.357-3.069,11.23A76.2,76.2,0,0,1,97,156.366Z" transform="translate(-60.608 -131.225)" fill="#1f64cc"/>
        <path id="Path_5197" data-name="Path 5197" d="M82.576,195.7s.652-3.037,5.812-6.38S96.8,184.13,96.8,184.13s.631,7.441-4.2,10.852a76.411,76.411,0,0,1-11.172,6.18Z" transform="translate(-53.216 -153.204)" fill="#1f64cc"/>
        <path id="Path_5198" data-name="Path 5198" d="M86.35,240.773s0-3.106,4.346-7.452,7.147-6.832,7.147-6.832,2.176,7.147-1.866,11.493a76.072,76.072,0,0,1-9.627,8.408Z" transform="translate(-55.555 -173.303)" fill="#1f64cc"/>
        <path id="Path_5199" data-name="Path 5199" d="M76.559,251.031s.441-3.074-3.248-8-6.1-7.783-6.1-7.783-3.153,6.763.215,11.645a76.5,76.5,0,0,0,8.34,9.669Z" transform="translate(-45.838 -177.46)" fill="#1f64cc"/>
        <path id="Path_5200" data-name="Path 5200" d="M78.05,286.763s0-3.106,4.346-7.452,7.147-6.832,7.147-6.832,2.176,7.147-1.866,11.493a76.068,76.068,0,0,1-9.627,8.408Z" transform="translate(-51.617 -195.125)" fill="#1f64cc"/>
        <path id="Path_5201" data-name="Path 5201" d="M83.491,315.732s-.783-3.006,2.328-8.324S91,299,91,299s3.91,6.364,1.109,11.593a76.473,76.473,0,0,1-7.194,10.552Z" transform="translate(-54.157 -207.709)" fill="#1f64cc"/>
        <path id="Path_5202" data-name="Path 5202" d="M89.077,151a88.7,88.7,0,0,1-1.193,9.643c-1.718,8.881-6.017,14.614-7.735,22.634s3.216,18.361,1.9,28.666-5.334,16.033-4.2,22.912S85,260.353,85,260.353" transform="translate(-51.424 -137.484)" fill="none" stroke="#263238" stroke-linecap="round" stroke-linejoin="round" stroke-width="1.177"/>
        <line id="Line_7" data-name="Line 7" y1="3.6" x2="4.688" transform="translate(36.943 18.046)" fill="none" stroke="#263238" stroke-linecap="round" stroke-linejoin="round" stroke-width="1.177"/>
        <line id="Line_8" data-name="Line 8" x1="1.96" y1="3.489" transform="translate(35.199 14.015)" fill="none" stroke="#263238" stroke-linecap="round" stroke-linejoin="round" stroke-width="1.177"/>
        <path id="Path_5203" data-name="Path 5203" d="M82.91,206.366s3.92-2.943,7.956-5.886" transform="translate(-53.923 -160.962)" fill="none" stroke="#263238" stroke-linecap="round" stroke-linejoin="round" stroke-width="1.177"/>
        <path id="Path_5204" data-name="Path 5204" d="M80.343,190.373A62.558,62.558,0,0,0,73.37,179.71" transform="translate(-49.396 -151.107)" fill="none" stroke="#263238" stroke-linecap="round" stroke-linejoin="round" stroke-width="1.177"/>
        <path id="Path_5205" data-name="Path 5205" d="M86.64,251.945a48.663,48.663,0,0,1,8.408-11.225" transform="translate(-55.693 -180.055)" fill="none" stroke="#263238" stroke-linecap="round" stroke-linejoin="round" stroke-width="1.177"/>
        <path id="Path_5206" data-name="Path 5206" d="M78.979,259.637a55.223,55.223,0,0,0-4.251-8.082c-2.291-3.379-2.628-3.815-2.628-3.815" transform="translate(-48.794 -183.386)" fill="none" stroke="#263238" stroke-linecap="round" stroke-linejoin="round" stroke-width="1.177"/>
        <path id="Path_5207" data-name="Path 5207" d="M78.05,298.663a52.055,52.055,0,0,1,3.531-7.147,45.962,45.962,0,0,1,4.577-6" transform="translate(-51.617 -201.313)" fill="none" stroke="#263238" stroke-linecap="round" stroke-linejoin="round" stroke-width="1.177"/>
        <path id="Path_5208" data-name="Path 5208" d="M86.217,326.853a13.323,13.323,0,0,1,1.177-6.879c1.634-3.158,3.484-7.3,4.251-8.934" transform="translate(-55.464 -213.422)" fill="none" stroke="#263238" stroke-linecap="round" stroke-linejoin="round" stroke-width="1.177"/>
        <path id="Path_5209" data-name="Path 5209" d="M44.443,222.216s-.342-1.944,1.918-5.145S50.1,212,50.1,212s2.139,4.241.079,7.41a48.552,48.552,0,0,1-5.129,6.306Z" transform="translate(-35.662 -166.428)" fill="#1f64cc"/>
        <path id="Path_5210" data-name="Path 5210" d="M55.983,244.071s-.342-1.95,1.913-5.15,3.742-5.061,3.742-5.061,2.139,4.246.079,7.41a48.374,48.374,0,0,1-5.129,6.306Z" transform="translate(-41.138 -176.8)" fill="#1f64cc"/>
        <path id="Path_5211" data-name="Path 5211" d="M37.277,231.608s-.526-1.9-3.962-3.8-5.565-2.943-5.565-2.943-.084,4.73,3.153,6.716a48.93,48.93,0,0,0,7.357,3.453Z" transform="translate(-27.75 -172.53)" fill="#1f64cc"/>
        <path id="Path_5212" data-name="Path 5212" d="M50.514,258.312s-.741-1.834-4.341-3.369-5.844-2.333-5.844-2.333.415,4.73,3.831,6.343a48.794,48.794,0,0,0,7.678,2.664Z" transform="translate(-33.719 -185.697)" fill="#1f64cc"/>
        <path id="Path_5213" data-name="Path 5213" d="M55.208,286.6s-.336-1.95-3.537-4.2-5.224-3.51-5.224-3.51-.589,4.73,2.417,7.005a48.516,48.516,0,0,0,6.947,4.2Z" transform="translate(-36.6 -198.167)" fill="#1f64cc"/>
        <path id="Path_5214" data-name="Path 5214" d="M64.409,290.98s-.61-1.881,1.167-5.365,2.985-5.544,2.985-5.544,2.717,3.9,1.13,7.326a48.728,48.728,0,0,1-4.2,6.968Z" transform="translate(-45.096 -198.727)" fill="#1f64cc"/>
        <path id="Path_5215" data-name="Path 5215" d="M74.525,323.328s.226-1.965,3.29-4.4,5.013-3.8,5.013-3.8.857,4.672-2.013,7.131a48.927,48.927,0,0,1-6.695,4.6Z" transform="translate(-49.752 -215.363)" fill="#1f64cc"/>
        <path id="Path_5216" data-name="Path 5216" d="M65.4,314.545s-.336-1.95-3.537-4.2-5.218-3.51-5.218-3.51-.589,4.73,2.412,7.005a48.424,48.424,0,0,0,6.952,4.2Z" transform="translate(-41.439 -211.424)" fill="#1f64cc"/>
        <path id="Path_5217" data-name="Path 5217" d="M66.807,332.91s.168-1.971-2.354-4.961-4.162-4.73-4.162-4.73-1.766,4.414.562,7.389a48.874,48.874,0,0,0,5.654,5.849Z" transform="translate(-42.886 -219.201)" fill="#1f64cc"/>
        <path id="Path_5218" data-name="Path 5218" d="M43.82,230.57a56.055,56.055,0,0,0,1.8,5.922c2.039,5.381,5.355,8.508,7.3,13.353s0,11.861,1.923,18.177,5.087,9.459,5.113,13.915-1.724,16.769-1.724,16.769" transform="translate(-35.375 -175.239)" fill="none" stroke="#263238" stroke-linecap="round" stroke-linejoin="round" stroke-width="1.177"/>
        <line id="Line_9" data-name="Line 9" x1="3.326" y1="1.745" transform="translate(6.448 58.62)" fill="none" stroke="#263238" stroke-linecap="round" stroke-linejoin="round" stroke-width="1.177"/>
        <line id="Line_10" data-name="Line 10" y1="2.402" x2="0.851" transform="translate(9.191 55.394)" fill="none" stroke="#263238" stroke-linecap="round" stroke-linejoin="round" stroke-width="1.177"/>
        <path id="Path_5219" data-name="Path 5219" d="M55.678,264.307s-2.78-1.419-5.628-2.827" transform="translate(-38.331 -189.906)" fill="none" stroke="#263238" stroke-linecap="round" stroke-linejoin="round" stroke-width="1.177"/>
        <path id="Path_5220" data-name="Path 5220" d="M57.15,253.281a39.975,39.975,0,0,1,3.216-7.441" transform="translate(-41.7 -182.485)" fill="none" stroke="#263238" stroke-linecap="round" stroke-linejoin="round" stroke-width="1.177"/>
        <path id="Path_5221" data-name="Path 5221" d="M58.035,293.337a30.883,30.883,0,0,0-6.485-6.127" transform="translate(-39.043 -202.115)" fill="none" stroke="#263238" stroke-linecap="round" stroke-linejoin="round" stroke-width="1.177"/>
        <path id="Path_5222" data-name="Path 5222" d="M65.7,296.518A34.867,34.867,0,0,1,67.487,291c1.051-2.37,1.23-2.68,1.23-2.68" transform="translate(-45.757 -202.641)" fill="none" stroke="#263238" stroke-linecap="round" stroke-linejoin="round" stroke-width="1.177"/>
        <path id="Path_5223" data-name="Path 5223" d="M74.25,329.539a29.009,29.009,0,0,1,3.579-3.715,19.3,19.3,0,0,0,2.323-2.023" transform="translate(-49.814 -219.476)" fill="none" stroke="#263238" stroke-linecap="round" stroke-linejoin="round" stroke-width="1.177"/>
        <path id="Path_5224" data-name="Path 5224" d="M68.651,321.672a33.465,33.465,0,0,0-2.99-4.1,29.341,29.341,0,0,0-3.521-3.263" transform="translate(-44.068 -214.973)" fill="none" stroke="#263238" stroke-linecap="round" stroke-linejoin="round" stroke-width="1.177"/>
        <path id="Path_5225" data-name="Path 5225" d="M68.078,339.969a8.476,8.476,0,0,0-1.482-4.2c-1.372-1.808-2.985-4.2-3.637-5.145" transform="translate(-44.457 -222.712)" fill="none" stroke="#263238" stroke-linecap="round" stroke-linejoin="round" stroke-width="1.177"/>
        <path id="Path_5226" data-name="Path 5226" d="M78.476,379.536H58.67a1.477,1.477,0,0,1-1.477-1.477L54.35,356.14H82.8l-2.843,21.919A1.477,1.477,0,0,1,78.476,379.536Z" transform="translate(-40.371 -234.821)" fill="#263238"/>
        <path id="Path_5227" data-name="Path 5227" d="M80.532,359.2H52.338a2.228,2.228,0,0,1-2.228-2.207h0a2.223,2.223,0,0,1,2.228-2.223H80.532a2.223,2.223,0,0,1,2.228,2.223h0A2.228,2.228,0,0,1,80.532,359.2Z" transform="translate(-38.359 -234.171)" fill="#263238"/>
      </g>
      <g id="freepik--Character--inject-34" transform="translate(11.166 134.838)">
        <path id="Path_5253" data-name="Path 5253" d="M192.417,244.791s2.685-4.64,3.679-2.685a9.361,9.361,0,0,1-.73,8.056c-1.466,1.955-1.955,2.927-2.685,1.461S192.417,244.791,192.417,244.791Z" transform="translate(-76.594 -214.028)" fill="#f5b3b3"/>
        <path id="Path_5254" data-name="Path 5254" d="M128.078,252.658s-3.153-3.9-3.91-1.219,2.932,6.1,3.91,6.59a4.729,4.729,0,0,0,2.438.247Z" transform="translate(-44.232 -218.237)" fill="#f5b3b3"/>
        <path id="Path_5255" data-name="Path 5255" d="M122.507,285.26S88.2,295.655,88.2,297.6,87.214,338,88,340.171s7.257,4.309,10.789,4.309v.788h75.289l-3.715-20.789s21.178-.788,21.546-2.354-18.577-32.928-20.342-33.916-28.661-3.926-31.8-3.926S129.958,282.89,122.507,285.26Z" transform="translate(-26.974 -234.076)" fill="#2a85d4"/>
        <g id="Group_3091" data-name="Group 3091" transform="translate(60.72 49.8)" clip-path="url(#clip-path)">
          <path id="Path_5256" data-name="Path 5256" d="M157.085,376.875c-47.543-17.473-45.42-26.375-45.42-26.375L95.9,374.595a20.5,20.5,0,0,0,6.79,1.492v.788Z" transform="translate(-91.588 -315.489)" opacity="0.3"/>
          <path id="Path_5257" data-name="Path 5257" d="M186.249,293.318s16.138-.851,26.754-8.492L183.28,281Z" transform="translate(-133.049 -282.512)" opacity="0.3"/>
        </g>
        <path id="Path_5259" data-name="Path 5259" d="M122.507,285.26S88.2,295.655,88.2,297.6,87.214,338,88,340.171s7.257,4.309,10.789,4.309v.788h75.289l-3.715-20.789s21.178-.788,21.546-2.354-18.577-32.928-20.342-33.916-28.661-3.926-31.8-3.926S129.958,282.89,122.507,285.26Z" transform="translate(-26.974 -234.076)" fill="none"/>
        <line id="Line_11" data-name="Line 11" x1="5.623" y1="16.864" transform="translate(137.09 63.881)" fill="none" stroke="#263238" stroke-linecap="round" stroke-linejoin="round" stroke-width="1.177"/>
        <path id="Path_5260" data-name="Path 5260" d="M101.08,311.38a28.79,28.79,0,0,1,12.37,17.615" transform="translate(-33.325 -247.126)" fill="none" stroke="#263238" stroke-linecap="round" stroke-linejoin="round" stroke-width="1.177"/>
        <path id="Path_5261" data-name="Path 5261" d="M92.97,355.91s-6.275,4.12-7.646,5.1-1.766,11.377-.394,14.315,7.257,4.314,11.178,2.354,5.686-11.177,4.314-15.881S92.97,355.91,92.97,355.91Z" transform="translate(-25.258 -268.256)" fill="#263238" stroke="#263238" stroke-linecap="round" stroke-linejoin="round" stroke-width="1.177"/>
        <path id="Path_5262" data-name="Path 5262" d="M144.62,285.7s.589,9.412,2.349,15.686,5.1,14.509,5.1,14.509l11.178-8.823,15.1,3.726s-2.938-15.487-5.1-20.584A31.974,31.974,0,0,0,166.775,281S150.306,278.839,144.62,285.7Z" transform="translate(-53.985 -232.558)" fill="#263238" stroke="#263238" stroke-linecap="round" stroke-linejoin="round" stroke-width="1.177"/>
        <path id="Path_5263" data-name="Path 5263" d="M148.72,284.6s2.743,6.863,5.686,12.744,9.985,14.12,11.766,12.355,3.526-15.492,3.526-18.629V281.66s-5.486,4.509-9.8,4.509A65.35,65.35,0,0,1,148.72,284.6Z" transform="translate(-55.93 -233.024)" fill="#fff"/>
        <g id="Group_3092" data-name="Group 3092" transform="translate(92.79 48.636)" clip-path="url(#clip-path-2)">
          <path id="Path_5264" data-name="Path 5264" d="M169.7,281.66s-5.486,4.509-9.8,4.509a64.943,64.943,0,0,1-11.178-1.577s1.393,3.484,3.258,7.615a16.39,16.39,0,0,0,11.472,2.575A10.9,10.9,0,0,0,169.7,291.2Z" transform="translate(-148.72 -281.66)" fill="#1f64cc"/>
          <path id="Path_5265" data-name="Path 5265" d="M169.7,281.66s-5.486,4.509-9.8,4.509a64.943,64.943,0,0,1-11.178-1.577s1.393,3.484,3.258,7.615a16.39,16.39,0,0,0,11.472,2.575A10.9,10.9,0,0,0,169.7,291.2Z" transform="translate(-148.72 -281.66)" fill="#fff" opacity="0.7"/>
        </g>
        <path id="Path_5267" data-name="Path 5267" d="M148.72,284.6s2.743,6.863,5.686,12.744,9.985,14.12,11.766,12.355,3.526-15.492,3.526-18.629V281.66s-5.486,4.509-9.8,4.509A65.35,65.35,0,0,1,148.72,284.6Z" transform="translate(-55.93 -233.024)" fill="none" stroke="#263238" stroke-linecap="round" stroke-linejoin="round" stroke-width="1.177"/>
        <path id="Path_5268" data-name="Path 5268" d="M129.882,232.972s4.152,13.663,6.832,17.342,10.011,7.326,15.382,7.079,9.764-5.612,10.741-10.983.242-17.578.242-17.578a42.274,42.274,0,0,0-5.124-12.449c-4.151-7.079-25.146-1.224-27.326,4.146S129.882,232.972,129.882,232.972Z" transform="translate(-46.772 -200.501)" fill="#ffd9d9"/>
        <path id="Path_5269" data-name="Path 5269" d="M161.89,271.117s2.444,3.416,5.371-.247" transform="translate(-62.179 -227.905)" fill="none" stroke="#263238" stroke-linecap="round" stroke-linejoin="round" stroke-width="1.177"/>
        <path id="Path_5270" data-name="Path 5270" d="M147.49,260.335a4.175,4.175,0,0,1,5.129,0" transform="translate(-55.347 -222.494)" fill="none" stroke="#263238" stroke-linecap="round" stroke-linejoin="round" stroke-width="1.177"/>
        <path id="Path_5271" data-name="Path 5271" d="M173.51,256.565s.977-1.955,4.635-1.955" transform="translate(-67.693 -220.189)" fill="none" stroke="#263238" stroke-linecap="round" stroke-linejoin="round" stroke-width="1.177"/>
        <path id="Path_5272" data-name="Path 5272" d="M145.17,251.037s1.466-2.438,6.348-2.927" transform="translate(-54.246 -217.105)" fill="none" stroke="#263238" stroke-linecap="round" stroke-linejoin="round" stroke-width="2.355"/>
        <path id="Path_5273" data-name="Path 5273" d="M171.14,248.923s2.375-4.935,6.616-3.4" transform="translate(-66.568 -215.737)" fill="none" stroke="#263238" stroke-linecap="round" stroke-linejoin="round" stroke-width="2.355"/>
        <path id="Path_5274" data-name="Path 5274" d="M170.148,280.907a1.351,1.351,0,1,1-1.356-1.209A1.287,1.287,0,0,1,170.148,280.907Z" transform="translate(-64.819 -232.093)" fill="#263238"/>
        <path id="Path_5275" data-name="Path 5275" d="M156.192,261.846a.741.741,0,1,1-.741-.736.741.741,0,0,1,.741.736Z" transform="translate(-58.772 -223.274)" fill="#263238"/>
        <path id="Path_5276" data-name="Path 5276" d="M180.662,256.591a.736.736,0,1,1-.214-.524A.741.741,0,0,1,180.662,256.591Z" transform="translate(-70.383 -220.778)" fill="#263238"/>
        <path id="Path_5277" data-name="Path 5277" d="M134.5,192.042h-8.545c-4.882,0-11.23,12.938-10.988,19.039s5.618,10.011,7.084,10.741,4.146,1.955,4.146,1.219,2.932-6.59,2.932-6.59-.736,3.421,1.219,3.421,8.056-6.348,8.056-6.348.247,5.124,2.2,5.124,6.106-7.567,6.106-7.567l4.393,4.882,1.466-2.927s1.708,6.832,3.153,6.832,2.685-3.421,3.421-6.832,2.2-9.033-.247-14.162-9.517-9.764-15.376-9.764A13.827,13.827,0,0,0,134.5,192.042Z" transform="translate(-39.91 -189.11)" fill="#263238" stroke="#263238" stroke-linecap="round" stroke-linejoin="round" stroke-width="1.177"/>
        <path id="Path_5279" data-name="Path 5279" d="M117.632,268.573a5.344,5.344,0,0,1-1.372-3.531c0-2.155,2.354-6.832,2.943-6.832s1.76,1.172,1.76,1.172-.977,4.73-1.372,6.474a4.782,4.782,0,0,1-1.96,2.717Z" transform="translate(-40.528 -221.897)" fill="#fff"/>
        <path id="Path_5280" data-name="Path 5280" d="M119.71,271.568s-1.96-2.354-1.96-3.332,3.153-7.846,3.92-7.846a12.113,12.113,0,0,1,3.726,1.377c.573.394.394,2.349.394,3.726s-3.531,7.446-3.531,7.446Z" transform="translate(-41.235 -222.932)" fill="#bcd1f0"/>
        <path id="Path_5281" data-name="Path 5281" d="M109.384,262.26s-4.9,8.823-4.12,10.195,8.629,9.806,8.629,9.806-22.355,33.333-24.51,36.665a14.129,14.129,0,0,0-1.577,10.983c.972,2.748,6.863,5.292,10.983,5.1s7.252-5.3,8.408-9.985,11.792-39.25,12.775-41.978,2.349-4.9.977-6.275-6.663-6.469-6.663-6.469,1.577-1.372,1.372-2.943S112.127,262.649,109.384,262.26Z" transform="translate(-26.789 -223.819)" fill="#ffd9d9"/>
        <g id="Group_3093" data-name="Group 3093" transform="translate(60.515 38.441)" clip-path="url(#clip-path-3)">
          <path id="Path_5282" data-name="Path 5282" d="M109.3,332.412c1.177-4.73,11.766-39.219,12.749-41.962s2.349-4.9.977-6.275c-1.235-1.235-5.644-5.486-6.506-6.306h-.032c.767,1,4.824,6.437,4.4,9.58-.462,3.468-18.267,45.325-20.579,48.1-1.771,2.1-6.506,3.426-8.639,3.926a15.629,15.629,0,0,0,9.2,2.943C104.981,342.213,108.134,337.116,109.3,332.412Z" transform="translate(-89.376 -269.667)" fill="#ffc4c4"/>
          <path id="Path_5283" data-name="Path 5283" d="M109.3,332.412c1.177-4.73,11.766-39.219,12.749-41.962s2.349-4.9.977-6.275c-1.235-1.235-5.644-5.486-6.506-6.306h-.032c.767,1,4.824,6.437,4.4,9.58-.462,3.468-18.267,45.325-20.579,48.1-1.771,2.1-6.506,3.426-8.639,3.926a15.629,15.629,0,0,0,9.2,2.943C104.981,342.213,108.134,337.116,109.3,332.412Z" transform="translate(-89.376 -269.667)" fill="#ffc4c4" opacity="0.7"/>
        </g>
        <path id="Path_5285" data-name="Path 5285" d="M109.384,262.26s-4.9,8.823-4.12,10.195,8.629,9.806,8.629,9.806-22.355,33.333-24.51,36.665a14.129,14.129,0,0,0-1.577,10.983c.972,2.748,6.863,5.292,10.983,5.1s7.252-5.3,8.408-9.985,11.792-39.25,12.775-41.978,2.349-4.9.977-6.275-6.663-6.469-6.663-6.469,1.577-1.372,1.372-2.943S112.127,262.649,109.384,262.26Z" transform="translate(-26.789 -223.819)" fill="none"/>
        <path id="Path_5286" data-name="Path 5286" d="M134.027,270.47l-.977,2.381,2.943,1.372.126.158" transform="translate(-48.495 -227.715)" fill="#ffc3c3" stroke="#ffc3c3" stroke-linecap="round" stroke-linejoin="round" stroke-width="1.177"/>
        <path id="Path_5287" data-name="Path 5287" d="M246.1,335.237s1.766-2.943,3.926-3.726,10.589-1.577,13.921-.394,5.292,5.492,5.88,7.841.394,5.691-1.577,7.452-4.509,1.377-7.257.589-8.235-3.92-11.178-5.686A8.391,8.391,0,0,1,246.1,335.237Z" transform="translate(-102.136 -256.206)" fill="#263238" stroke="#263238" stroke-linecap="round" stroke-linejoin="round" stroke-width="1.177"/>
        <path id="Path_5288" data-name="Path 5288" d="M176.754,332.546s-15.492,12.749-17.647,13.921-1.177,3.337-.394,4.12a90.42,90.42,0,0,0,8.235,7.058c2.354,1.566,5.686-1.177,6.469-1.577s-.194-2.16-.194-2.16,6.08-3.332,7.058-6.469a35.416,35.416,0,0,0,1.177-7.452s24.7,9.985,30.59,12.155,9.606,2.354,12.355-.389,2.938-8.434,1.577-11.372-9.985-5.686-13.921-5.686-31.767-3.337-33.527-2.748Z" transform="translate(-60.238 -256.852)" fill="#ffd9d9"/>
        <g id="Group_3094" data-name="Group 3094" transform="translate(97.561 75.025)" clip-path="url(#clip-path-4)">
          <path id="Path_5289" data-name="Path 5289" d="M230.415,355.237a8.193,8.193,0,0,0,1.986-3.747c-10.316-.636-40.574-12.087-43.617-12.286-3.468-.231-3.931,5.087-7.4,9.459s-5.528,5.57-8.529,6.033c-2.049.315-2.375,2.89-2.381,4.5.946.783,1.834,1.482,2.5,1.923,2.354,1.576,5.686-1.177,6.469-1.576s-.194-2.16-.194-2.16,6.08-3.332,7.058-6.469a35.422,35.422,0,0,0,1.177-7.452s24.7,9.985,30.59,12.155S227.666,357.98,230.415,355.237Z" transform="translate(-163.811 -335.35)" fill="#ffc4c4"/>
          <path id="Path_5290" data-name="Path 5290" d="M230.415,355.237a8.193,8.193,0,0,0,1.986-3.747c-10.316-.636-40.574-12.087-43.617-12.286-3.468-.231-3.931,5.087-7.4,9.459s-5.528,5.57-8.529,6.033c-2.049.315-2.375,2.89-2.381,4.5.946.783,1.834,1.482,2.5,1.923,2.354,1.576,5.686-1.177,6.469-1.576s-.194-2.16-.194-2.16,6.08-3.332,7.058-6.469a35.422,35.422,0,0,0,1.177-7.452s24.7,9.985,30.59,12.155S227.666,357.98,230.415,355.237Z" transform="translate(-163.811 -335.35)" fill="#ffc4c4" opacity="0.7"/>
        </g>
        <path id="Path_5292" data-name="Path 5292" d="M176.754,332.546s-15.492,12.749-17.647,13.921-1.177,3.337-.394,4.12a90.42,90.42,0,0,0,8.235,7.058c2.354,1.566,5.686-1.177,6.469-1.577s-.194-2.16-.194-2.16,6.08-3.332,7.058-6.469a35.416,35.416,0,0,0,1.177-7.452s24.7,9.985,30.59,12.155,9.606,2.354,12.355-.389,2.938-8.434,1.577-11.372-9.985-5.686-13.921-5.686-31.767-3.337-33.527-2.748Z" transform="translate(-60.238 -256.852)" fill="none"/>
        <line id="Line_12" data-name="Line 12" x1="2.549" y2="1.177" transform="translate(110.436 97.066)" fill="#fff" stroke="#263238" stroke-linecap="round" stroke-linejoin="round" stroke-width="1.177"/>
        <path id="Path_5293" data-name="Path 5293" d="M200.96,339.4l.977,3.332,2.748,1.372-1.571-6.469Z" transform="translate(-80.718 -259.582)" fill="#263238" stroke="#263238" stroke-linecap="round" stroke-linejoin="round" stroke-width="1.177"/>
        <ellipse id="Ellipse_557" data-name="Ellipse 557" cx="4.609" cy="3.626" rx="4.609" ry="3.626" transform="translate(115.339 73.345)" fill="#fff" stroke="#263238" stroke-linecap="round" stroke-linejoin="round" stroke-width="1.177"/>
        <line id="Line_13" data-name="Line 13" x2="211.632" transform="translate(0 110.337)" fill="none" stroke="#263238" stroke-linecap="round" stroke-linejoin="round" stroke-width="1.177"/>
      </g>
    </g>
    <g id="Group_3099" data-name="Group 3099" transform="translate(27 764.517)">
      <rect id="Rectangle_1716-2" data-name="Rectangle 1716" width="358" height="55" rx="10" transform="translate(0 0.483)" fill="#c6cedb"/>
      <text id="More_than_3hr_nearly_all_day" data-name="More than 3hr / nearly all day" transform="translate(15 32.484)" fill="#606060" font-size="15" font-family="SegoeUI-Bold, Segoe UI" font-weight="700"><tspan x="0" y="0">More than 3hr / nearly all day</tspan></text>
    </g>
    <g id="Group_3101" data-name="Group 3101" transform="translate(27 695.516)">
      <rect id="Rectangle_1716-3" data-name="Rectangle 1716" width="358" height="55" rx="10" transform="translate(0 0.483)" fill="#c6cedb"/>
      <text id="_1-3_hr_day" data-name="1-3 hr/day" transform="translate(15 32.484)" fill="#606060" font-size="15" font-family="SegoeUI-Bold, Segoe UI" font-weight="700"><tspan x="0" y="0">1-3 hr/day</tspan></text>
    </g>
    <g id="Group_1500" data-name="Group 1500">
      <path id="Rectangle_293" data-name="Rectangle 293" d="M0,0H412a0,0,0,0,1,0,0V158a20,20,0,0,1-20,20H20A20,20,0,0,1,0,158V0A0,0,0,0,1,0,0Z" fill="url(#linear-gradient)"/>
      <g id="Mask_Group_5" data-name="Mask Group 5" opacity="0.837" clip-path="url(#clip-path-5)">
        <circle id="Ellipse_554" data-name="Ellipse 554" cx="146" cy="146" r="146" transform="translate(184 3)" fill="url(#linear-gradient)"/>
      </g>
      <text id="Session_1_Assessment_-_Compulsions" data-name="Session 1
Assessment - Compulsions" transform="translate(29 24)" fill="#fff" font-size="16" font-family="Poppins-Regular, Poppins"><tspan x="0" y="17">Session 1</tspan><tspan font-size="24" font-family="Poppins-SemiBold, Poppins" font-weight="600"><tspan x="0" y="52">Assessment - Compulsions</tspan></tspan></text>
      <text id="Mental_Compulsion_1_4" data-name="Mental Compulsion 1/4" transform="translate(29 111)" fill="#fff" font-size="18" font-family="Poppins-Regular, Poppins"><tspan x="0" y="19">Mental Compulsion 1/4</tspan></text>
      <g id="Group_3076" data-name="Group 3076" transform="translate(-37.007 -236)">
        <rect id="Rectangle_1708-2" data-name="Rectangle 1708" width="349" height="5" rx="2.5" transform="translate(66.007 391)" fill="#dce9f5"/>
        <rect id="Rectangle_1709" data-name="Rectangle 1709" width="57" height="5" rx="2.5" transform="translate(66.007 391)" fill="#deb428"/>
      </g>
    </g>
    <g id="Group_3234" data-name="Group 3234" transform="translate(-4.848 -10)">
      <path id="Icon_ionic-ios-arrow-back" data-name="Icon ionic-ios-arrow-back" d="M15.217,17.7,23.926,9A1.645,1.645,0,1,0,21.6,6.674l-9.867,9.86a1.642,1.642,0,0,0-.048,2.268l9.908,9.929a1.645,1.645,0,0,0,2.33-2.323Z" transform="translate(362.579 30.069)" fill="#fff"/>
      <path id="Icon_ionic-ios-arrow-back-2" data-name="Icon ionic-ios-arrow-back" d="M3.967,11.506l8.709-8.7A1.645,1.645,0,1,0,10.346.481L.479,10.341a1.642,1.642,0,0,0-.048,2.268l9.908,9.929a1.645,1.645,0,1,0,2.33-2.323Z" transform="translate(377.472 59.28) rotate(180)" fill="#fff"/>
    </g>
    <g id="Component_120_42" data-name="Component 120 – 42" transform="translate(0 780)">
      <rect id="Rectangle_1927" data-name="Rectangle 1927" width="412" height="67" fill="#edf4fd"/>
      <g id="Group_3224" data-name="Group 3224" transform="translate(-13.471 6.262)">
        <g id="Group_3212" data-name="Group 3212" transform="translate(34.47 14.737)">
          <text id="Back" transform="translate(19.06 18)" fill="#102646" font-size="18" font-family="ArialMT, Arial"><tspan x="0" y="0">Back</tspan></text>
          <path id="Icon_ionic-ios-arrow-back-3" data-name="Icon ionic-ios-arrow-back" d="M14.033,14.264l6.109-6.1a1.154,1.154,0,0,0-1.634-1.629l-6.921,6.916a1.152,1.152,0,0,0-.034,1.591L18.5,22a1.154,1.154,0,1,0,1.634-1.629Z" transform="translate(-11.251 -3.193)" fill="#102646"/>
        </g>
      </g>
      <g id="Group_3096" data-name="Group 3096" transform="translate(-14 -999)">
        <text id="Submit" transform="translate(405 1038)" fill="#102646" font-size="20" font-family="ArialMT, Arial"><tspan x="-62.246" y="0">Submit</tspan></text>
      </g>
    </g>
  </g>
</svg>
