<svg xmlns="http://www.w3.org/2000/svg" xmlns:xlink="http://www.w3.org/1999/xlink" width="412" height="847" viewBox="0 0 412 847">
  <defs>
    <linearGradient id="linear-gradient" x1="0.5" x2="0.5" y2="1" gradientUnits="objectBoundingBox">
      <stop offset="0" stop-color="#37aadd"/>
      <stop offset="1" stop-color="#1f64cc"/>
    </linearGradient>
    <clipPath id="clip-OCD_session_4_25">
      <rect width="412" height="847"/>
    </clipPath>
  </defs>
  <g id="OCD_session_4_25" data-name="OCD session 4 – 25" clip-path="url(#clip-OCD_session_4_25)">
    <rect width="412" height="847" fill="#102646"/>
    <g id="Group_3103" data-name="Group 3103" transform="translate(-4 65.864)">
      <g id="Group_1500" data-name="Group 1500" transform="translate(71 65)">
        <text id="OBQ-44_Questionnaire" data-name="OBQ-44 Questionnaire" transform="translate(0 0.136)" fill="#1e64cc" font-size="24" font-family="Arial-BoldMT, Arial" font-weight="700"><tspan x="0" y="22">OBQ-44 Questionnaire</tspan></text>
      </g>
      <g id="Group_3103-2" data-name="Group 3103" transform="translate(25 59)">
        <g id="Group_3157" data-name="Group 3157">
          <rect id="Rectangle_1722" data-name="Rectangle 1722" width="371" height="600" rx="16" transform="translate(0 0.136)" fill="url(#linear-gradient)"/>
          <text id="Relapse" transform="translate(99 24.136)" fill="#fff" font-size="16" font-family="ArialMT, Arial"><tspan x="57.148" y="14">Relapse</tspan></text>
          <text id="This_stage_is_also_known_as_falling_off_the_wagon_._In_this_stage_the_person_usually_goes_back_to_his_her_older_maladaptive_behaviours_of_taking_substance_abuse._" data-name="This stage is also known as “falling off the wagon”. In this stage, the person usually goes back to his/her older maladaptive behaviours of taking substance abuse.
" transform="translate(28 422.136)" fill="#fff" font-size="12" font-family="ArialMT, Arial"><tspan x="5.865" y="11">This stage is also known as “falling off the wagon”. In this </tspan><tspan x="20.417" y="36">stage, the person usually goes back to his/her older </tspan><tspan x="21.079" y="61">maladaptive behaviours of taking substance abuse.</tspan></text>
        </g>
      </g>
    </g>
    <g id="Group_1193" data-name="Group 1193" transform="translate(3.371 -49.643)">
      <g id="Ellipse_12" data-name="Ellipse 12" transform="translate(177.629 798.642)" fill="none" stroke="#0e58c7" stroke-width="1">
        <circle cx="4" cy="4" r="4" stroke="none"/>
        <circle cx="4" cy="4" r="3.5" fill="none"/>
      </g>
      <g id="Ellipse_13" data-name="Ellipse 13" transform="translate(191.629 798.642)" fill="none" stroke="#0e58c7" stroke-width="1">
        <circle cx="4" cy="4" r="4" stroke="none"/>
        <circle cx="4" cy="4" r="3.5" fill="none"/>
      </g>
      <g id="Ellipse_91" data-name="Ellipse 91" transform="translate(206.629 798.642)" fill="none" stroke="#0e58c7" stroke-width="1">
        <circle cx="4" cy="4" r="4" stroke="none"/>
        <circle cx="4" cy="4" r="3.5" fill="none"/>
      </g>
      <g id="Ellipse_92" data-name="Ellipse 92" transform="translate(220.629 798.642)" fill="#0e58c7" stroke="#0e58c7" stroke-width="1">
        <circle cx="4" cy="4" r="4" stroke="none"/>
        <circle cx="4" cy="4" r="3.5" fill="none"/>
      </g>
    </g>
    <g id="Group_3934" data-name="Group 3934">
      <path id="Path_5920" data-name="Path 5920" d="M9465.524,14761.509c6.567-31.59,16.01-89.273,76.558-71.347s40.628,29.124,97.831,21.63,86.675,95.53,35.142,93.989-30.141,11.445-69.951,14.13-54.4,11.21-89.292-3.391S9458.957,14793.1,9465.524,14761.509Z" transform="translate(-9383 -14424.288)" fill="#d2dff2" opacity="0.6"/>
      <circle id="Ellipse_599" data-name="Ellipse 599" cx="2.5" cy="2.5" r="2.5" transform="translate(113 264)" fill="#1e64cc"/>
      <circle id="Ellipse_600" data-name="Ellipse 600" cx="4.5" cy="4.5" r="4.5" transform="translate(83 366)" fill="#1e64cc"/>
      <circle id="Ellipse_601" data-name="Ellipse 601" cx="7.5" cy="7.5" r="7.5" transform="translate(293 306)" fill="#fe7614"/>
      <g id="Hair-pulling_disorder-pana" data-name="Hair-pulling disorder-pana" transform="translate(75.756 212.837)">
        <g id="freepik--background-complete--inject-107" transform="translate(36.865 38.762)">
          <rect id="Rectangle_1941" data-name="Rectangle 1941" width="47.518" height="49.536" transform="translate(134.462 0.018)" fill="#e0e0e0"/>
          <rect id="Rectangle_1942" data-name="Rectangle 1942" width="47.518" height="49.536" transform="translate(131.244 0.018)" fill="#fafafa"/>
          <path id="Path_8240" data-name="Path 8240" d="M382.924,104.172H335.38V54.61h47.544Zm-47.518-.026h47.478v-49.5H335.406Z" transform="translate(-204.149 -54.61)" fill="#e0e0e0"/>
          <rect id="Rectangle_1943" data-name="Rectangle 1943" width="34.743" height="36.215" transform="translate(137.632 6.673)" fill="#fafafa"/>
          <path id="Path_8241" data-name="Path 8241" d="M341.876,152.72a5.6,5.6,0,0,1-.853,1c-.554.585-1.319,1.376-2.2,2.238s-1.679,1.631-2.273,2.172a5.716,5.716,0,0,1-1,.84,5.468,5.468,0,0,1,.853-.994c.554-.585,1.319-1.38,2.2-2.242s1.684-1.635,2.277-2.2A5.614,5.614,0,0,1,341.876,152.72Z" transform="translate(-204.244 -109.59)" fill="#e0e0e0"/>
          <path id="Path_8242" data-name="Path 8242" d="M429,152.52a6,6,0,0,1,1,.857c.585.554,1.376,1.319,2.238,2.2s1.627,1.679,2.172,2.273a5.276,5.276,0,0,1,.835,1,5.736,5.736,0,0,1-.989-.853c-.589-.554-1.38-1.319-2.246-2.2s-1.631-1.684-2.176-2.277a5.375,5.375,0,0,1-.831-1Z" transform="translate(-256.613 -109.478)" fill="#e0e0e0"/>
          <path id="Path_8243" data-name="Path 8243" d="M428.75,62.042a6,6,0,0,1,.857-1c.558-.585,1.319-1.376,2.2-2.238s1.675-1.627,2.268-2.172a5.644,5.644,0,0,1,1-.835,5.323,5.323,0,0,1-.853.989c-.554.589-1.319,1.38-2.2,2.246s-1.684,1.631-2.273,2.2A5.091,5.091,0,0,1,428.75,62.042Z" transform="translate(-256.473 -55.277)" fill="#e0e0e0"/>
          <path id="Path_8244" data-name="Path 8244" d="M341.763,62.14a5.4,5.4,0,0,1-.994-.857c-.589-.554-1.38-1.319-2.242-2.2s-1.627-1.679-2.172-2.268a5.389,5.389,0,0,1-.835-1.007,5.649,5.649,0,0,1,.994.853c.585.554,1.38,1.319,2.242,2.2s1.631,1.679,2.176,2.273a5.318,5.318,0,0,1,.831,1.007Z" transform="translate(-204.228 -55.282)" fill="#e0e0e0"/>
          <path id="Path_8245" data-name="Path 8245" d="M384.345,105.714v-2.633c0-1.719,0-4.211-.035-7.381,0-6.344-.04-15.386-.066-26.2l.132.136H349.734l.154-.154c0,13.294,0,25.731-.022,36.215l-.132-.132,25.049.075,7.034.031h2.51a.879.879,0,0,1-.149,0H381.87l-7.034.035-25.172.066h-.132v-.132c0-10.485,0-22.921-.022-36.215V69.27H384.5V69.4c-.031,10.854-.053,19.923-.07,26.284,0,3.156-.026,5.645-.035,7.35v2.422a.937.937,0,0,1-.053.255Z" transform="translate(-212.067 -62.825)" fill="#e0e0e0"/>
          <rect id="Rectangle_1944" data-name="Rectangle 1944" width="11.593" height="11.593" transform="translate(149.207 18.987)" fill="#ebebeb"/>
          <path id="Path_8246" data-name="Path 8246" d="M417.161,361.749a13.155,13.155,0,0,1,8.172-.993,6.81,6.81,0,0,1,4.036,1.8c1.011,1.112,1.2,3.077.04,4.031a3.888,3.888,0,0,1-2.545.646c-2.159-.026-4.554-.4-6.282.879-.985.743-1.64,1.974-2.818,2.339a2.785,2.785,0,0,1-3.077-1.363,4.744,4.744,0,0,1-.347-3.517A5.359,5.359,0,0,1,417.161,361.749Z" transform="translate(-248.291 -226.041)" fill="#ebebeb"/>
          <path id="Path_8247" data-name="Path 8247" d="M406.266,309.57c1.521,2.172,4.475,1.455,5.847.128a11.011,11.011,0,0,0,2.475-5.1c1.2-4.181,2.418-8.572,1.521-12.832a7.121,7.121,0,0,0-1.64-3.491,3.719,3.719,0,0,0-3.517-1.174c-1.49.391-2.413,1.851-3.077,3.24a30.517,30.517,0,0,0-3.025,13.131,10.67,10.67,0,0,0,1.433,6.075" transform="translate(-243.079 -184.856)" fill="#ebebeb"/>
          <path id="Path_8248" data-name="Path 8248" d="M376.242,321.6a7.908,7.908,0,0,0,1.227-7.271,13.959,13.959,0,0,0-4.3-6.242,23.159,23.159,0,0,0-7.728-4.55,8.256,8.256,0,0,0-3.464-.589,3.636,3.636,0,0,0-2.91,1.758c-.813,1.547-.035,3.425.809,4.954a58.522,58.522,0,0,0,5.06,7.711c1.521,1.956,3.258,3.886,5.57,4.77s4.717.783,5.944-.822" transform="translate(-217.228 -193.771)" fill="#ebebeb"/>
          <path id="Path_8249" data-name="Path 8249" d="M407.8,387.338a4.763,4.763,0,0,0,.136-.985l.264-2.69a38.856,38.856,0,0,1,.6-3.957,30.534,30.534,0,0,1,1.438-4.66,17.223,17.223,0,0,1,2.378-4.216,8.867,8.867,0,0,1,3.011-2.5,8.354,8.354,0,0,1,2.532-.787,4.448,4.448,0,0,0,.98-.145,4.838,4.838,0,0,0-1,0,7.654,7.654,0,0,0-2.638.686,8.937,8.937,0,0,0-3.174,2.523,16.758,16.758,0,0,0-2.466,4.3,28.331,28.331,0,0,0-1.424,4.735,34.028,34.028,0,0,0-.528,4c-.083,1.143-.114,2.066-.132,2.708A4.733,4.733,0,0,0,407.8,387.338Z" transform="translate(-244.71 -229.878)" fill="#e0e0e0"/>
          <path id="Path_8250" data-name="Path 8250" d="M407.986,351.386a2.059,2.059,0,0,0,.026-.44v-1.319c0-1.134,0-2.778.062-4.809.1-4.058.44-8.427,1.121-14.586.642-5.794,1.5-12.533,2.4-16.916.193-1,.391-1.895.576-2.677s.325-1.468.47-2.018l.3-1.27a1.927,1.927,0,0,0,.079-.44,2.078,2.078,0,0,0-.158.44c-.1.33-.224.743-.378,1.253s-.343,1.218-.541,2-.44,1.679-.633,2.673a148.335,148.335,0,0,0-2.532,15.655c-.677,6.155-.98,11.79-1.007,15.861-.022,2.035,0,3.684.07,4.836.035.532.062.967.079,1.319A2.2,2.2,0,0,0,407.986,351.386Z" transform="translate(-244.716 -195.996)" fill="#e0e0e0"/>
          <path id="Path_8251" data-name="Path 8251" d="M389.847,344.742a7.91,7.91,0,0,0,0-1.367c-.048-.879-.171-2.145-.418-3.7a49.315,49.315,0,0,0-1.2-5.4,44.169,44.169,0,0,0-2.26-6.388,33.933,33.933,0,0,0-6.625-10.318,16.8,16.8,0,0,0-1.561-1.451c-.237-.2-.44-.4-.664-.563l-.607-.418a9.18,9.18,0,0,0-1.152-.739,42.005,42.005,0,0,1,3.772,3.367,35.7,35.7,0,0,1,6.462,10.283,50.586,50.586,0,0,1,2.273,6.326c.589,1.987.985,3.807,1.279,5.346s.44,2.8.545,3.666A9.347,9.347,0,0,0,389.847,344.742Z" transform="translate(-226.551 -200.193)" fill="#e0e0e0"/>
          <path id="Path_8252" data-name="Path 8252" d="M384.49,426.92l1.086,14.881h19.119l1.086-14.881Z" transform="translate(-231.67 -263.248)" fill="#e0e0e0"/>
          <rect id="Rectangle_1945" data-name="Rectangle 1945" width="25.418" height="5.864" transform="translate(150.974 157.808)" fill="#e0e0e0"/>
          <path id="Path_8253" data-name="Path 8253" d="M380.29,459.48V461.1h25V459.48Z" transform="translate(-229.316 -281.494)" fill="#ebebeb"/>
          <path id="Path_8254" data-name="Path 8254" d="M384.174,466.032,383,463.17h22.9l-1.367,2.862Z" transform="translate(-230.835 -283.562)" fill="#e0e0e0"/>
          <path id="Path_8255" data-name="Path 8255" d="M405.833,435.327a.552.552,0,0,1-.088.136c-.079.1-.171.229-.286.382l-1.117,1.424-.048.062-.048-.066-2.734-3.785h.158c-.813,1.156-1.723,2.44-2.695,3.816l-.084.119-.1-.11-3.2-3.8h.185l-.176.224-2.853,3.578-.1.123-.088-.127-2.695-3.811h.158c-1.319,1.512-2.457,2.8-3.319,3.781l-.062.066-.044-.075q-.659-1.1-1.037-1.758l-.268-.466a.92.92,0,0,1-.084-.167.764.764,0,0,1,.114.149c.075.114.171.264.295.44.264.418.629.994,1.09,1.715h-.106c.853-.994,1.961-2.295,3.266-3.825l.084-.1.075.1,2.717,3.8H392.6l2.849-3.587.176-.22.092-.114.092.11,3.187,3.811h-.18l2.721-3.794.079-.11.079.11,2.677,3.825h-.1l1.156-1.389.312-.356A.956.956,0,0,1,405.833,435.327Z" transform="translate(-232.079 -266.784)" fill="#f5f5f5"/>
          <path id="Path_8256" data-name="Path 8256" d="M406.246,426.549c0,.066-4.787.119-10.7.119s-10.7-.053-10.7-.119,4.787-.119,10.7-.119S406.246,426.483,406.246,426.549Z" transform="translate(-231.872 -262.973)" fill="#f5f5f5"/>
          <path id="Path_8257" data-name="Path 8257" d="M406.076,463.389c0,.066-5.205.119-11.628.119s-11.628-.053-11.628-.119,5.205-.119,11.628-.119S406.076,463.323,406.076,463.389Z" transform="translate(-230.734 -283.618)" fill="#f5f5f5"/>
          <rect id="Rectangle_1946" data-name="Rectangle 1946" width="66.505" height="96.394" transform="translate(3.343 5.086)" fill="#e0e0e0"/>
          <rect id="Rectangle_1947" data-name="Rectangle 1947" width="66.505" height="96.394" transform="translate(0.011 5.086)" fill="#f5f5f5"/>
          <rect id="Rectangle_1948" data-name="Rectangle 1948" width="49.98" height="75.512" transform="translate(8.271 15.527)" fill="#fff"/>
          <path id="Path_8258" data-name="Path 8258" d="M105.441,165.117V163.68c0-.95,0-2.339-.022-4.141,0-3.622-.026-8.893-.044-15.558-.022-13.316-.048-32.171-.084-54.376l.167.167H55.488l.185-.18c0,28.487-.026,54.754-.04,75.512l-.145-.145,36.378.079,10.054.035h.057l-10.019.04-36.488.075H55.33v-.145c0-20.758-.026-47.039-.04-75.512v-.18h50.327v.167c-.035,22.249-.062,41.143-.084,54.486,0,6.647-.035,11.9-.044,15.518v5.161C105.45,165,105.441,165.117,105.441,165.117Z" transform="translate(-47.19 -74.078)" fill="#e0e0e0"/>
          <path id="Path_8259" data-name="Path 8259" d="M177.052,66.18a11.38,11.38,0,0,1-1.187,1.723c-.769,1.033-1.868,2.44-3.117,3.957s-2.422,2.866-3.288,3.825a11.087,11.087,0,0,1-1.46,1.49,12.449,12.449,0,0,1,1.27-1.657l3.2-3.886,3.2-3.886A12.385,12.385,0,0,1,177.052,66.18Z" transform="translate(-110.351 -61.094)" fill="#e0e0e0"/>
          <path id="Path_8260" data-name="Path 8260" d="M170,261.15a61.984,61.984,0,0,0,8.7,10.924" transform="translate(-111.472 -170.352)" fill="#fff"/>
          <path id="Path_8261" data-name="Path 8261" d="M178.668,272.1a9.958,9.958,0,0,1-1.521-1.385,48.952,48.952,0,0,1-3.288-3.706,47.915,47.915,0,0,1-2.893-4.027,9.97,9.97,0,0,1-1.016-1.785,13.773,13.773,0,0,1,1.227,1.644c.734,1.029,1.758,2.435,2.967,3.956s2.348,2.818,3.192,3.759A14.307,14.307,0,0,1,178.668,272.1Z" transform="translate(-111.444 -170.381)" fill="#e0e0e0"/>
          <path id="Path_8262" data-name="Path 8262" d="M36.87,271.578l8.709-10.749" transform="translate(-36.868 -170.173)" fill="#fff"/>
          <path id="Path_8263" data-name="Path 8263" d="M45.576,260.828a65.836,65.836,0,0,1-4.211,5.486c-2.4,2.967-4.423,5.324-4.5,5.275s1.807-2.519,4.216-5.491S45.5,260.767,45.576,260.828Z" transform="translate(-36.865 -170.172)" fill="#e0e0e0"/>
          <path id="Path_8264" data-name="Path 8264" d="M36.887,66.178a59.913,59.913,0,0,1,4.229,5.056c2.26,2.857,4.022,5.218,3.957,5.275a64,64,0,0,1-4.229-5.056A62.145,62.145,0,0,1,36.887,66.178Z" transform="translate(-36.876 -61.092)" fill="#e0e0e0"/>
          <path id="Path_8265" data-name="Path 8265" d="M56.08,110.346c3.482-3.741,10.01-5.429,14.705-3.429a12.832,12.832,0,0,1,7.61,12.177c4.761.787,8.427,5.082,9.535,9.777s.026,9.671-1.864,14.112a26.937,26.937,0,0,0-2.044,5.522,6.33,6.33,0,0,0,1.284,5.535c1.627,1.688,4.225,1.846,6.392,2.734A13,13,0,0,1,98.41,164.2a38.344,38.344,0,0,1,2.018,10.054H56.344Z" transform="translate(-47.633 -83.446)" fill="#ebebeb"/>
          <path id="Path_8266" data-name="Path 8266" d="M61.86,178.116c-.048-.04,9.641-10.889,21.638-24.223s21.765-24.117,21.814-24.073S95.67,140.7,83.669,154.047,61.921,178.16,61.86,178.116Z" transform="translate(-50.872 -96.757)" fill="#fafafa"/>
          <path id="Path_8267" data-name="Path 8267" d="M115.231,124c.044.044-6.058,6.84-13.628,15.18s-13.755,15.052-13.8,15.008,6.053-6.84,13.628-15.184S115.183,123.933,115.231,124Z" transform="translate(-65.408 -93.495)" fill="#fafafa"/>
          <path id="Path_8268" data-name="Path 8268" d="M114.386,170.66a1.72,1.72,0,0,1-.233.259l-.695.7-2.567,2.585c-2.167,2.2-5.13,5.231-8.322,8.669s-6.005,6.625-8.019,8.951l-2.383,2.756-.651.747a2.41,2.41,0,0,1-.237.251,2.641,2.641,0,0,1,.2-.281l.62-.752c.541-.668,1.319-1.631,2.326-2.8,1.983-2.352,4.783-5.557,7.975-9s6.155-6.475,8.353-8.63c1.095-1.081,1.991-1.943,2.638-2.532l.725-.677A2.574,2.574,0,0,1,114.386,170.66Z" transform="translate(-67.359 -119.643)" fill="#fafafa"/>
        </g>
        <g id="freepik--speech-bubble--inject-107" transform="translate(70.332 26.33)">
          <circle id="Ellipse_666" data-name="Ellipse 666" cx="18.398" cy="18.398" r="18.398" transform="translate(0.175 0.149)" fill="#f5f5f5"/>
          <path id="Path_8269" data-name="Path 8269" d="M198.691,96.332a5.34,5.34,0,0,0-.514.193,2.435,2.435,0,0,0-1.059,1.02,2.308,2.308,0,0,0-.286.967,2.031,2.031,0,0,0,.264,1.117,2.2,2.2,0,0,0,4.11-.484,2.035,2.035,0,0,0,0-1.147,2.308,2.308,0,0,0-.506-.879,2.457,2.457,0,0,0-1.266-.747c-.343-.075-.545-.048-.545-.07a.466.466,0,0,1,.145,0,.581.581,0,0,1,.176,0,1.191,1.191,0,0,1,.237,0,2.484,2.484,0,0,1,1.895,1.649,2.15,2.15,0,0,1,0,1.227,2.506,2.506,0,0,1-.708,1.165,2.2,2.2,0,0,1-2.739.321,2.519,2.519,0,0,1-.954-.967,2.132,2.132,0,0,1-.268-1.2,2.365,2.365,0,0,1,.321-1.02,2.431,2.431,0,0,1,1.139-1.011,1.294,1.294,0,0,1,.229-.079.778.778,0,0,1,.171-.04Q198.691,96.319,198.691,96.332Z" transform="translate(-159.883 -65.537)" fill="#263238"/>
          <path id="Path_8270" data-name="Path 8270" d="M150.143,45.308V45c0-.2,0-.5-.035-.879v-.651a7.019,7.019,0,0,0-.1-.778c-.035-.281-.079-.58-.123-.906a3.355,3.355,0,0,0-.1-.492c-.04-.171-.084-.343-.127-.523a17.611,17.611,0,0,0-1.947-4.963,18.548,18.548,0,0,0-4.594-5.341l-.787-.611c-.277-.189-.571-.36-.857-.55l-.44-.277a3.27,3.27,0,0,0-.44-.259l-1-.479c-.158-.084-.317-.167-.484-.242l-.506-.2-1.033-.4c-.352-.123-.721-.207-1.081-.312l-.549-.154-.281-.075-.281-.048a16.793,16.793,0,0,0-2.33-.317c-.4,0-.8-.07-1.2-.07l-1.222.035a4.1,4.1,0,0,0-.615.031l-.62.079c-.413.062-.831.1-1.244.18a18.6,18.6,0,0,0-2.475.673l-.62.211-.308.11-.312.145-1.2.55c-.391.207-.774.44-1.161.664-.193.119-.4.215-.58.352l-.55.4a20.8,20.8,0,0,0-2.132,1.758l-.958,1.016-.237.255c-.079.088-.145.185-.22.277l-.44.554-.44.563-.382.6-.382.6-.193.3c-.057.106-.11.215-.163.321-.22.44-.44.857-.655,1.288A13.021,13.021,0,0,0,114.2,38.8a19.7,19.7,0,0,0-1.068,5.8,19.83,19.83,0,0,0,.835,5.842l.475,1.376c.2.44.4.879.6,1.319l.149.325.18.312.36.615.356.615.413.576.448.541.207.286.229.264.919,1.051a21.013,21.013,0,0,0,2.057,1.82l.536.44c.18.141.378.251.563.374.382.237.752.492,1.139.708l1.178.6.295.149.3.119.611.237a19.39,19.39,0,0,0,2.444.769c.413.1.831.149,1.24.229l.615.106c.2.031.409.035.615.053l1.218.088c.4,0,.809,0,1.209-.026a16.4,16.4,0,0,0,2.339-.224l.286-.035.281-.066.554-.127c.369-.092.739-.163,1.095-.273l1.046-.356.519-.176.488-.224.972-.44a3.569,3.569,0,0,0,.462-.246l.44-.259c.295-.171.593-.334.879-.514l.809-.58a18.428,18.428,0,0,0,4.787-5.174c.141-.22.281-.44.413-.651l.334-.659.325-.637c.053-.1.11-.2.154-.308l.123-.317.47-1.2c.136-.382.22-.765.33-1.117l.145-.514a3.45,3.45,0,0,0,.114-.492l.158-.879c.048-.281.1-.536.132-.774s.035-.44.048-.646c.031-.382.057-.677.07-.879a2.955,2.955,0,0,1,.031-.3v.3c0,.2-.026.5-.053.879,0,.2-.026.413-.04.651s-.079.5-.123.778-.1.58-.154.879a3.426,3.426,0,0,1-.11.492l-.145.519c-.1.356-.185.739-.321,1.125l-.466,1.2c-.04.105-.079.211-.123.321s-.1.207-.149.312l-.33.659-.334.668c-.127.215-.273.44-.409.655a18.525,18.525,0,0,1-4.809,5.2l-.818.589c-.286.18-.585.343-.879.519l-.44.264a3.621,3.621,0,0,1-.466.246l-.976.44c-.163.075-.325.154-.492.224l-.519.18-1.055.36c-.356.114-.73.18-1.1.277l-.558.132-.281.066-.29.035a17.251,17.251,0,0,1-2.356.233c-.4,0-.809.04-1.213.026l-1.231-.088a2.413,2.413,0,0,1-.624-.053l-.615-.106c-.413-.075-.835-.132-1.253-.224a20.223,20.223,0,0,1-2.466-.774l-.615-.242c-.1-.04-.207-.075-.308-.119l-.295-.149-1.191-.607c-.391-.22-.761-.475-1.147-.712-.189-.127-.391-.233-.567-.374l-.541-.44a20.388,20.388,0,0,1-2.093-1.829l-.928-1.059-.233-.268-.207-.286-.44-.58-.44-.58-.365-.62-.36-.624-.18-.312-.154-.33-.607-1.319c-.158-.44-.321-.923-.479-1.389a19.019,19.019,0,0,1,.29-11.76c.18-.462.36-.914.536-1.372l.659-1.319c.053-.106.105-.215.163-.321l.2-.281.387-.611.387-.607.44-.563.44-.563c.07-.092.141-.189.22-.277l.242-.259.967-1.02a21.181,21.181,0,0,1,2.15-1.758l.558-.4a6.594,6.594,0,0,1,.58-.352c.4-.224.778-.466,1.174-.668l1.218-.558.3-.136.312-.11.624-.211a19.831,19.831,0,0,1,2.5-.677c.44-.079.84-.119,1.257-.176l.624-.084a4.873,4.873,0,0,0,.62-.026l1.235-.035c.4,0,.809.048,1.209.07a17.65,17.65,0,0,1,2.348.325l.29.053a1.082,1.082,0,0,1,.277.075l.554.154c.365.11.739.193,1.09.317l1.037.4.514.2.484.242.958.488a3.574,3.574,0,0,1,.44.264l.44.281c.29.189.585.365.879.554l.791.62a18.512,18.512,0,0,1,4.6,5.385,17.584,17.584,0,0,1,1.93,5c.044.18.084.352.123.523a2.894,2.894,0,0,1,.092.5c.04.325.079.629.114.91s.079.541.092.778,0,.44,0,.651V45A2.869,2.869,0,0,0,150.143,45.308Z" transform="translate(-112.993 -26.33)" fill="#263238"/>
          <path id="Path_8271" data-name="Path 8271" d="M150.758,47.4l.545,8.713a1.416,1.416,0,0,0,1.319,1.319h0a1.42,1.42,0,0,0,1.49-1.257l.985-8.748a1.112,1.112,0,0,0-1.121-1.231l-2.123.026a1.117,1.117,0,0,0-1.095,1.178Z" transform="translate(-134.155 -37.465)" fill="#263238"/>
          <path id="Path_8272" data-name="Path 8272" d="M155,79.347a2.123,2.123,0,1,1-.118-1.623A2.128,2.128,0,0,1,155,79.347Z" transform="translate(-134.209 -54.474)" fill="#263238"/>
        </g>
        <g id="freepik--Hair--inject-107" transform="translate(70.892 78.282)">
          <path id="Path_8273" data-name="Path 8273" d="M126.231,359.462a2.348,2.348,0,0,1-.44.224,5.2,5.2,0,0,1-.541.211,7.594,7.594,0,0,1-.743.229,11.362,11.362,0,0,1-1.983.356,12.077,12.077,0,0,1-4.88-.571,11.684,11.684,0,0,1-1.851-.8,7.577,7.577,0,0,1-.664-.4,4.48,4.48,0,0,1-.484-.334c-.255-.193-.391-.3-.378-.317s.589.391,1.6.9a13,13,0,0,0,1.838.747,12.807,12.807,0,0,0,4.8.563,13.153,13.153,0,0,0,1.961-.3C125.58,359.708,126.213,359.422,126.231,359.462Z" transform="translate(-114.268 -264.179)" fill="#263238"/>
          <path id="Path_8274" data-name="Path 8274" d="M133.608,363.2a1.363,1.363,0,0,1-.207.339,6.978,6.978,0,0,1-.686.844,10.217,10.217,0,0,1-6.3,3.152,7.917,7.917,0,0,1-1.086.044,1.609,1.609,0,0,1-.4-.04c0-.044.567-.035,1.46-.167a11.206,11.206,0,0,0,6.212-3.1C133.243,363.629,133.577,363.172,133.608,363.2Z" transform="translate(-120.243 -267.059)" fill="#263238"/>
          <path id="Path_8275" data-name="Path 8275" d="M135.7,381.1a9.6,9.6,0,0,1,3.486-4.233c.044.053-.914.835-1.873,2.009S135.762,381.139,135.7,381.1Z" transform="translate(-126.278 -274.721)" fill="#263238"/>
          <path id="Path_8276" data-name="Path 8276" d="M369.99,298.2a1.534,1.534,0,0,1-.334.2,2.955,2.955,0,0,1-.418.189,4.97,4.97,0,0,1-.571.207,7.651,7.651,0,0,1-1.556.312,8.265,8.265,0,0,1-3.825-.558,8.014,8.014,0,0,1-1.4-.743,5.127,5.127,0,0,1-.492-.365,2.774,2.774,0,0,1-.343-.3c-.18-.176-.273-.277-.264-.29s.44.356,1.183.822a8.968,8.968,0,0,0,1.394.681,9.3,9.3,0,0,0,1.833.479,9.636,9.636,0,0,0,1.895.066,8.4,8.4,0,0,0,1.525-.255C369.476,298.415,369.968,298.155,369.99,298.2Z" transform="translate(-252.415 -229.878)" fill="#263238"/>
          <path id="Path_8279" data-name="Path 8279" d="M328.669,165.447a2.536,2.536,0,0,1-.967-.193,5.891,5.891,0,0,1-2.044-1.213,6.006,6.006,0,0,1-1.407-1.926,2.638,2.638,0,0,1-.281-.945,9.006,9.006,0,0,1,.44.879,6.665,6.665,0,0,0,1.411,1.824,6.779,6.779,0,0,0,1.948,1.235A9.446,9.446,0,0,1,328.669,165.447Z" transform="translate(-231.782 -153.845)" fill="#263238"/>
          <path id="Path_8280" data-name="Path 8280" d="M329.833,160.619a1.855,1.855,0,0,1-.787-.084,5.377,5.377,0,0,1-3.121-2.132,1.965,1.965,0,0,1-.365-.7,7.109,7.109,0,0,0,4.273,2.919Z" transform="translate(-232.673 -151.9)" fill="#263238"/>
          <path id="Path_8281" data-name="Path 8281" d="M368.735,318.17a2.751,2.751,0,0,1-.761.44,9.091,9.091,0,0,1-2.027.633,8.976,8.976,0,0,1-2.119.136,2.418,2.418,0,0,1-.879-.136,21.862,21.862,0,0,0,2.945-.224,22.51,22.51,0,0,0,2.84-.848Z" transform="translate(-253.626 -241.826)" fill="#263238"/>
          <path id="Path_8282" data-name="Path 8282" d="M373.074,326.4a48.793,48.793,0,0,1-4.484,4.985,24.847,24.847,0,0,1,2.158-2.567A26.059,26.059,0,0,1,373.074,326.4Z" transform="translate(-256.787 -246.438)" fill="#263238"/>
          <path id="Path_8283" data-name="Path 8283" d="M369.783,438.823a1.676,1.676,0,0,1-.462.066,4.8,4.8,0,0,1-.541.022,6.887,6.887,0,0,1-.721,0,10.906,10.906,0,0,1-1.86-.277,12.455,12.455,0,0,1-2.176-.752,12.675,12.675,0,0,1-1.983-1.169,11.326,11.326,0,0,1-1.4-1.257c-.189-.185-.339-.374-.479-.536a4.167,4.167,0,0,1-.334-.44,2.144,2.144,0,0,1-.251-.391c.035-.026.44.51,1.178,1.244a12.538,12.538,0,0,0,1.424,1.183,12.227,12.227,0,0,0,5.908,2.207C369.124,438.832,369.779,438.779,369.783,438.823Z" transform="translate(-251.738 -306.785)" fill="#263238"/>
        </g>
        <g id="freepik--Character--inject-107" transform="translate(55.121 42.354)">
          <path id="Path_8284" data-name="Path 8284" d="M97.562,188.25s-21.167,38.286-19.018,49.7c1.262,6.7,7.658,10.823,12.388,10.111,2.9-.44,40.1-17.325,40.1-17.325l-6.88-19.075-24.029,9.979,7.61-31.485Z" transform="translate(-78.391 -133.092)" fill="#ffbe9c"/>
          <path id="Path_8285" data-name="Path 8285" d="M127.576,157.012s2.884-3.908,3.258-6.234a17.165,17.165,0,0,0,0-5.768c-.277-2.326-.536-6.972.242-8.929a2.818,2.818,0,0,0-.615-3.161l.277-.932-3.161-.928a1.131,1.131,0,0,0-.743-1.4c-.695-.189-4.4-.44-6.7-.55a2.686,2.686,0,0,0-2.611,1.6c-1.24,2.809-3.57,8.265-3.706,9.834-.189,2.137,3.719,8.744,3.627,10.045s1.024,3.517-.651,5.486Z" transform="translate(-98.237 -99.951)" fill="#ffbe9c"/>
          <path id="Path_8286" data-name="Path 8286" d="M119.6,144.9s.114-.193.312-.558a8.046,8.046,0,0,0,.659-1.644v-.075l.075.031a4.946,4.946,0,0,0,2.6.308h.088v.084a2.95,2.95,0,0,0,1.939,2.15,1.253,1.253,0,0,0,.774,0,.637.637,0,0,0,.382-.607,5.8,5.8,0,0,0-.1-.879c-.048-.3-.106-.6-.171-.906a14.067,14.067,0,0,0-.664-2.268,2.312,2.312,0,0,0-.629-.879,2.448,2.448,0,0,0-.941-.44l-1.952-.475a4.5,4.5,0,0,0-1.693-.224,2.413,2.413,0,0,0-1.227.637,4.673,4.673,0,0,0-.69.831c-.325.5-.484.791-.5.783a.879.879,0,0,1,.1-.224c.07-.141.176-.347.33-.607a4.678,4.678,0,0,1,.673-.879,2.563,2.563,0,0,1,1.288-.708,4.532,4.532,0,0,1,1.758.2l1.961.44a2.708,2.708,0,0,1,1.029.466,2.559,2.559,0,0,1,.69.95,14.066,14.066,0,0,1,.686,2.312c.066.308.123.615.171.919a5.275,5.275,0,0,1,.1.923.941.941,0,0,1-.136.479.8.8,0,0,1-.382.321,1.464,1.464,0,0,1-.919.026,3.139,3.139,0,0,1-2.066-2.321l.106.075a5.056,5.056,0,0,1-2.682-.369l.1-.048a7.09,7.09,0,0,1-.734,1.644,4.2,4.2,0,0,1-.264.4C119.645,144.866,119.61,144.905,119.6,144.9Z" transform="translate(-100.509 -105.12)" fill="#ff996c"/>
          <path id="Path_8287" data-name="Path 8287" d="M137.047,138.732c0-.035.44.136,1.143.233a5.548,5.548,0,0,0,4.99-1.873c.475-.541.677-.945.712-.923s-.022.114-.114.3a4.812,4.812,0,0,1-.47.73,5.311,5.311,0,0,1-5.157,1.934,4.4,4.4,0,0,1-.835-.242C137.139,138.815,137.025,138.758,137.047,138.732Z" transform="translate(-111.259 -103.906)" fill="#ff996c"/>
          <path id="Path_8288" data-name="Path 8288" d="M137.89,151.9a3.657,3.657,0,0,0,.963-1.407,5.6,5.6,0,0,0,.325-1.829c.022-.708-.04-1.49,0-2.321a5.9,5.9,0,0,1,1.495-3.926,3.17,3.17,0,0,1,1.064-.739,1.758,1.758,0,0,1,.334-.114.3.3,0,0,1,.119,0,4.466,4.466,0,0,0-1.4.985,5.988,5.988,0,0,0-1.385,3.82c-.026.818.031,1.6,0,2.326a5.525,5.525,0,0,1-.387,1.882,3.077,3.077,0,0,1-.721,1.073,1.209,1.209,0,0,1-.409.251Z" transform="translate(-111.734 -106.925)" fill="#ff996c"/>
          <path id="Path_8289" data-name="Path 8289" d="M125,159.9a1.077,1.077,0,0,1,.347,0,5.9,5.9,0,0,1,.928.119,9.364,9.364,0,0,1,5.275,3.077,6.424,6.424,0,0,1,.558.747c.119.189.176.295.163.3s-.312-.374-.844-.945a10.894,10.894,0,0,0-2.37-1.886,10.767,10.767,0,0,0-2.809-1.134C125.5,159.99,125,159.937,125,159.9Z" transform="translate(-104.51 -117.198)" fill="#ff996c"/>
          <path id="Path_8290" data-name="Path 8290" d="M131,135.624a10.763,10.763,0,0,1,.611-1.6l.031-.07h.079a5.939,5.939,0,0,0,2.2.062,6.291,6.291,0,0,0,2.541-1.02c.58-.409.879-.743.906-.717s-.053.1-.18.255a5.081,5.081,0,0,1-.629.593,5.794,5.794,0,0,1-2.6,1.112,5.614,5.614,0,0,1-2.286-.1l.11-.053A10.347,10.347,0,0,1,131,135.624Z" transform="translate(-107.873 -101.725)" fill="#ff996c"/>
          <path id="Path_8294" data-name="Path 8294" d="M123.164,155.028a5.082,5.082,0,0,0-.848-1.411,5.214,5.214,0,0,0-1.376-.906c0-.026.2-.026.506.075a2.734,2.734,0,0,1,1.666,1.732C123.217,154.817,123.208,155.028,123.164,155.028Z" transform="translate(-102.235 -113.168)" fill="#ff996c"/>
          <path id="Path_8295" data-name="Path 8295" d="M144.5,161.906a4.906,4.906,0,0,0-1.969-.057,5.056,5.056,0,0,0-1.758.906,1.6,1.6,0,0,1,.387-.47,3.13,3.13,0,0,1,2.787-.637C144.313,161.748,144.507,161.879,144.5,161.906Z" transform="translate(-113.348 -118.129)" fill="#ff996c"/>
          <path id="Path_8300" data-name="Path 8300" d="M184.6,230.506s3.9-3.688,6.286-4.15c5.24-1.016,13.188-2.3,13.188-2.3l24.768-1.38s14.947-.822,18.169.985c3.956,2.2,6.357,27.986,6.357,27.986l-3.794,30.285,3.293,49.544h-67.7l1.367-38.07Z" transform="translate(-137.909 -152.277)" fill="#b0bec5"/>
          <path id="Path_8301" data-name="Path 8301" d="M162.741,232.22s-25.858,11.377-26.276,11.549,10.867,22.9,10.867,22.9l18.182-6.889Z" transform="translate(-110.929 -157.732)" fill="#b0bec5"/>
          <path id="Path_8302" data-name="Path 8302" d="M316.477,202.512l18.934-16.072,14.709,18.2-23.3,28.254s-7.342-.295-9.1-9.566S316.477,202.512,316.477,202.512Z" transform="translate(-211.771 -132.078)" fill="#b0bec5"/>
          <path id="Path_8303" data-name="Path 8303" d="M326.106,263.622a.955.955,0,0,1-.255.048,4.142,4.142,0,0,1-.747,0,5.715,5.715,0,0,1-2.607-.835,8.511,8.511,0,0,1-2.818-2.923,20.53,20.53,0,0,1-1.969-4.541,24.063,24.063,0,0,1-.936-4.893,23.3,23.3,0,0,1,.026-4.062,22.139,22.139,0,0,1,.44-2.708l.185-.721a1.173,1.173,0,0,1,.084-.246,1.361,1.361,0,0,1-.035.259q-.057.281-.145.725c-.1.637-.273,1.556-.352,2.7A25.351,25.351,0,0,0,317,250.46a24.619,24.619,0,0,0,.945,4.836,21.043,21.043,0,0,0,1.943,4.519,8.432,8.432,0,0,0,2.721,2.893,5.851,5.851,0,0,0,2.528.879A7.922,7.922,0,0,0,326.106,263.622Z" transform="translate(-211.935 -163.627)" fill="#263238"/>
          <path id="Path_8304" data-name="Path 8304" d="M316.9,221.42c.066.031-.44,1.1-.712,2.5s-.286,2.576-.356,2.581a8.392,8.392,0,0,1,1.068-5.082Z" transform="translate(-211.421 -151.68)" fill="#263238"/>
          <path id="Path_8305" data-name="Path 8305" d="M313.62,225.08c.066.035-.58,1.152-.989,2.673a28.376,28.376,0,0,0-.5,2.8,2.406,2.406,0,0,1-.044-.848,9.422,9.422,0,0,1,.325-2.018,9.169,9.169,0,0,1,.747-1.9A2.638,2.638,0,0,1,313.62,225.08Z" transform="translate(-209.34 -153.731)" fill="#263238"/>
          <path id="Path_8306" data-name="Path 8306" d="M185.836,290.338a2.2,2.2,0,0,1-.04-.378c0-.268-.04-.624-.066-1.077-.044-.963-.11-2.317-.185-3.957-.141-3.354-.29-7.992-.44-13.118s-.277-9.742-.374-13.122c-.048-1.662-.084-3.016-.114-3.957v-1.081a1.932,1.932,0,0,1,0-.378,2.084,2.084,0,0,1,.04.374q0,.4.066,1.081c.044.963.106,2.312.185,3.957.136,3.359.29,8,.44,13.122s.277,9.742.374,13.118c.044,1.662.084,3.016.11,3.957v1.081A2.268,2.268,0,0,1,185.836,290.338Z" transform="translate(-137.914 -169.528)" fill="#263238"/>
          <path id="Path_8307" data-name="Path 8307" d="M187.82,344.871l64.337-1.231-.686,5.5.492,9.395-63.7.769Z" transform="translate(-139.714 -220.171)" fill="#e0e0e0"/>
          <path id="Path_8308" data-name="Path 8308" d="M185.88,418.346l1.3-40.066,63.7-.769,2.712,40.836Z" transform="translate(-138.627 -239.151)" fill="#455a64"/>
          <path id="Path_8309" data-name="Path 8309" d="M258.675,368a1.522,1.522,0,0,1-.277.18l-.813.484c-.712.413-1.758.994-3.046,1.7-2.585,1.4-6.212,3.236-10.313,5.069s-7.891,3.3-10.661,4.295c-1.385.492-2.51.879-3.293,1.13l-.906.286a2.2,2.2,0,0,1-.317.088,1.547,1.547,0,0,1,.3-.132l.879-.325c.774-.277,1.89-.686,3.266-1.2,2.752-1.029,6.528-2.523,10.625-4.348s7.728-3.644,10.331-5.007c1.319-.681,2.352-1.24,3.077-1.631l.835-.44A1.854,1.854,0,0,1,258.675,368Z" transform="translate(-162.819 -233.822)" fill="#263238"/>
          <path id="Path_8310" data-name="Path 8310" d="M290.143,301.63a.911.911,0,0,1-.048.215q-.075.237-.171.594c-.154.514-.4,1.253-.7,2.163-.615,1.824-1.53,4.317-2.664,7.034s-2.273,5.108-3.139,6.827c-.44.857-.8,1.543-1.055,2.018l-.3.536a.959.959,0,0,1-.123.185.983.983,0,0,1,.079-.2c.075-.154.158-.339.264-.563.251-.514.585-1.2.989-2.049.826-1.732,1.939-4.137,3.077-6.84s2.071-5.179,2.726-6.985c.312-.879.571-1.6.765-2.141.088-.229.158-.44.215-.58A.78.78,0,0,1,290.143,301.63Z" transform="translate(-192.458 -196.629)" fill="#263238"/>
          <g id="Group_3503" data-name="Group 3503" transform="translate(68.245 135.106)" opacity="0.3">
            <path id="Path_8311" data-name="Path 8311" d="M233.63,381.707a22.013,22.013,0,0,0,14.507-2.365,41.274,41.274,0,0,0,11.43-9.232,139.09,139.09,0,0,1-13.1,6.506,129.583,129.583,0,0,1-12.841,5.091Z" transform="translate(-233.63 -370.11)"/>
          </g>
          <path id="Path_8312" data-name="Path 8312" d="M136.48,257.3s.734,1.921,1.169,2.884c3.152,6.963,6.475,13.685,9.7,20.02l1.974-.747-10.7-23.093Z" transform="translate(-110.943 -171.26)" fill="#455a64"/>
          <path id="Path_8313" data-name="Path 8313" d="M354.75,188.294l15,18.618,1.855-2.246L356.9,186.47Z" transform="translate(-233.259 -132.094)" fill="#455a64"/>
          <path id="Path_8314" data-name="Path 8314" d="M336.728,239.46a3.515,3.515,0,0,1-.3.558c-.211.352-.506.879-.848,1.512a30.117,30.117,0,0,0-3.35,10.836c-.079.73-.127,1.319-.149,1.728a3.1,3.1,0,0,1-.066.633,3.481,3.481,0,0,1-.026-.637c0-.409.022-1.007.084-1.736a27.255,27.255,0,0,1,1.1-5.631,26.926,26.926,0,0,1,2.268-5.275c.36-.637.677-1.143.914-1.481A3.41,3.41,0,0,1,336.728,239.46Z" transform="translate(-220.499 -161.789)" fill="#263238"/>
          <path id="Path_8315" data-name="Path 8315" d="M242.245,92.22c-1.723-2.752-3.319-5.579-6.242-6.748-2.638-1.059-5.662-.4-8.48-.879-2.053-.33-3.957,1.231-5.583,2.532-2.031,1.635-.787.791-2.158.528-1.2-.229-1.908,1.877-2.717,2.792-1.671,1.89-7.913.958-9.315,3.042-1.152,1.693-.879,1.921-1.486,3.882-.655,2.128-2.581,3.556-4.194,5.1s-3.077,3.719-2.449,5.856c.563,1.877,2.594,3.038,3.126,4.928.387,1.376-.11,2.827-.259,4.247s.273,3.161,1.631,3.609l15.43,5.557c5.245,2.69,10.661,5.429,16.534,5.935s12.393-1.758,15.184-6.955a3.394,3.394,0,0,1-2.2-1.213,5.671,5.671,0,0,0,3.42-3.486,2.364,2.364,0,0,1-2.959-1.609,5.356,5.356,0,0,1,.44-3.688,16.433,16.433,0,0,0,1.319-3.556,5.385,5.385,0,0,0-3.143-5.592,5.042,5.042,0,0,0,.985-7.205,20.368,20.368,0,0,0-3.033-2.348,10.99,10.99,0,0,1-1.552-1.512" transform="translate(-146.243 -74.979)" fill="#263238"/>
          <path id="Path_8316" data-name="Path 8316" d="M287.838,138.731a73.132,73.132,0,0,0,4.255-11.94,25.665,25.665,0,0,0,.092-12.555c-.171-.62-1.714-4.8-2.356-4.8-.44,0,.382,3.855.119,4.229a21.756,21.756,0,0,0-3.548,12.423,57.505,57.505,0,0,0,1.438,12.639" transform="translate(-194.957 -88.928)" fill="#263238"/>
          <path id="Path_8317" data-name="Path 8317" d="M227.812,160.144c6.546.44,15.2-10.779,15.2-10.779l3.64-36.642c1.27-10.551-3.8-20.046-14.362-21.027l-.98-.031a18.969,18.969,0,0,0-19.488,16.784c-1.046,9.135-2.088,19.237-2.2,24.157-.215,10.177,9.9,12.1,9.9,12.1s-.149,2.352-.382,5.333c-.514,6.691,6.027,10.111,8.665,10.111Z" transform="translate(-151.932 -78.961)" fill="#ffbe9c"/>
          <path id="Path_8318" data-name="Path 8318" d="M231.834,207.919a24.584,24.584,0,0,0,13.377-3.469s-3.482,7.289-13.6,6.031Z" transform="translate(-164.253 -142.17)" fill="#ff996c"/>
          <path id="Path_8319" data-name="Path 8319" d="M223,145.31a1.451,1.451,0,0,0,1.35,1.512,1.389,1.389,0,0,0,1.543-1.262,1.455,1.455,0,0,0-1.35-1.512A1.389,1.389,0,0,0,223,145.31Z" transform="translate(-159.426 -108.317)" fill="#263238"/>
          <path id="Path_8320" data-name="Path 8320" d="M219.181,137.8c.176.193,1.319-.58,2.866-.523s2.682.879,2.857.69c.088-.084-.084-.44-.571-.809a4,4,0,0,0-2.282-.791,3.833,3.833,0,0,0-2.286.655C219.273,137.374,219.088,137.712,219.181,137.8Z" transform="translate(-157.275 -104.016)" fill="#263238"/>
          <path id="Path_8321" data-name="Path 8321" d="M255.838,147.581a1.455,1.455,0,0,0,1.354,1.512,1.394,1.394,0,0,0,1.543-1.262,1.455,1.455,0,0,0-1.35-1.512,1.4,1.4,0,0,0-1.547,1.262Z" transform="translate(-177.83 -109.589)" fill="#263238"/>
          <path id="Path_8322" data-name="Path 8322" d="M253.252,140.42c.171.2,1.319-.58,2.866-.523s2.682.879,2.857.69c.084-.079-.084-.44-.576-.809a4,4,0,0,0-2.277-.791,3.838,3.838,0,0,0-2.29.655C253.34,139.993,253.164,140.332,253.252,140.42Z" transform="translate(-176.369 -105.484)" fill="#263238"/>
          <path id="Path_8323" data-name="Path 8323" d="M235.286,152.546a10.516,10.516,0,0,0-2.523-.545c-.4-.053-.769-.145-.831-.44a2.035,2.035,0,0,1,.308-1.174c.409-.95.835-1.952,1.284-3,1.785-4.273,3.077-7.79,2.923-7.86s-1.758,3.337-3.548,7.605l-1.235,3.02a2.319,2.319,0,0,0-.259,1.561,1,1,0,0,0,.633.607,2.854,2.854,0,0,0,.677.119A9.871,9.871,0,0,0,235.286,152.546Z" transform="translate(-164.105 -105.788)" fill="#263238"/>
          <path id="Path_8324" data-name="Path 8324" d="M251.1,130.916c.158.44,1.719.211,3.556.44s3.323.7,3.565.317c.105-.185-.154-.58-.756-.989a6.229,6.229,0,0,0-5.42-.563C251.376,130.38,251.056,130.736,251.1,130.916Z" transform="translate(-175.175 -100.306)" fill="#263238"/>
          <path id="Path_8325" data-name="Path 8325" d="M223.284,127.753c-.4-.277-1.583.352-3.077.695s-2.853.369-3.077.8c-.088.2.189.51.818.717a5.077,5.077,0,0,0,2.638.031,4.954,4.954,0,0,0,2.321-1.231C223.363,128.289,223.465,127.893,223.284,127.753Z" transform="translate(-156.13 -99.151)" fill="#263238"/>
          <path id="Path_8326" data-name="Path 8326" d="M290.4,156.333c.176-.07,7.06-1.829,6.594,5.117s-7.337,5.056-7.337,4.836S290.4,156.333,290.4,156.333Z" transform="translate(-196.784 -115.066)" fill="#ffbe9c"/>
          <path id="Path_8327" data-name="Path 8327" d="M294.892,166.757c.035,0,.119.092.317.2a1.209,1.209,0,0,0,.9.079,3.012,3.012,0,0,0,1.565-2.6,4.072,4.072,0,0,0-.224-1.758,1.411,1.411,0,0,0-.853-.989.615.615,0,0,0-.734.286c-.106.189-.07.33-.11.339s-.141-.127-.066-.409a.791.791,0,0,1,.3-.418.928.928,0,0,1,.681-.132,1.706,1.706,0,0,1,1.191,1.161,4.093,4.093,0,0,1,.295,1.965c-.141,1.394-.941,2.66-1.965,2.879a1.319,1.319,0,0,1-1.095-.255C294.9,166.928,294.87,166.77,294.892,166.757Z" transform="translate(-199.712 -118.012)" fill="#ff996c"/>
          <path id="Path_8328" data-name="Path 8328" d="M226.523,95.836c-1.077-.7,2.567-4.093,5.42-5.135,4.317-1.583,10.775-2.273,14.542-.879,4.532,1.657,8.212,4.251,10.221,8.643a27.384,27.384,0,0,1,2.022,14.173,8.283,8.283,0,0,1-1.3,4.168c-1.081,1.464-3.016,2.29-3.077,4.4a2.923,2.923,0,0,1-.879,2.066c-1.372,1.253-2.831-.132-3.447-1.46-1.319-2.831-1.253-6.089-1.152-9.232a20.6,20.6,0,0,1,.932-6.594c.44-1.13.541-1.209.9-2.365a4.783,4.783,0,0,0-1.24-3.93l-.233-.237c-1.838-1.868-3.315-3.517-5.847-2.827-4.014,1.09-10.845,2.66-12.489,1.2a10.719,10.719,0,0,1-2.871-3.385Z" transform="translate(-161.294 -77.513)" fill="#263238"/>
          <path id="Path_8329" data-name="Path 8329" d="M268.906,145.33c-.04.053.259.312.725.4s.844-.022.831-.088-.365-.066-.778-.154S268.945,145.269,268.906,145.33Z" transform="translate(-185.151 -109.032)" fill="#ff996c"/>
          <path id="Path_8330" data-name="Path 8330" d="M269.359,147.234c-.022.062.339.264.8.44s.879.281.879.215a1.943,1.943,0,0,0-.8-.44C269.776,147.269,269.385,147.168,269.359,147.234Z" transform="translate(-185.407 -110.096)" fill="#ff996c"/>
          <path id="Path_8331" data-name="Path 8331" d="M238.85,121a1.842,1.842,0,0,0,.637.484,5.064,5.064,0,0,0,3.785.44,1.728,1.728,0,0,0,.73-.33A6.519,6.519,0,0,1,238.85,121Z" transform="translate(-168.31 -95.406)" fill="#ff996c"/>
          <path id="Path_8332" data-name="Path 8332" d="M238.9,118.234a5.4,5.4,0,0,0,5.135.928,11.439,11.439,0,0,1-2.638-.044A13.847,13.847,0,0,1,238.9,118.234Z" transform="translate(-168.338 -93.853)" fill="#ff996c"/>
          <path id="Path_8333" data-name="Path 8333" d="M234.447,175.45l3.913-1.2a2.323,2.323,0,0,1,1.706-.075,1.728,1.728,0,0,1,.8,1.169c.114.47.127.967.242,1.442.145.615.44,1.35,0,1.82a1.548,1.548,0,0,1-1.016.378l-3.789.44a2.937,2.937,0,0,1-1.451-.07,1.974,1.974,0,0,1-1.064-1.288,5.9,5.9,0,0,1-.167-1.714,1.451,1.451,0,0,1,.128-.725.506.506,0,0,1,.629-.246" transform="translate(-165.376 -125.127)" fill="#ff996c"/>
          <path id="Path_8334" data-name="Path 8334" d="M240.466,174.654a1.1,1.1,0,0,0-.264-.835.822.822,0,0,0-.646-.088,11.159,11.159,0,0,0-1.631.44l-3.587,1.161v.141a1.064,1.064,0,0,0,.259,1.1,1.4,1.4,0,0,0,1.033.369,4.153,4.153,0,0,0,1.117.04c1.007-.3,2.031-.536,3.042-.84a1.165,1.165,0,0,0,.572-.4,2.2,2.2,0,0,0,.105-1.09Z" transform="translate(-165.75 -124.939)" fill="#fff"/>
          <path id="Path_8335" data-name="Path 8335" d="M235.769,181.377a1.319,1.319,0,0,0,.242.928c.167.149.308.343.532.33a15.18,15.18,0,0,0,1.842.026c1.222-.242,2.638-.55,3.851-.791l.176-.185c.18-.325-.365-1.235-.615-1.508a1.482,1.482,0,0,0-.994-.44,4.448,4.448,0,0,0-1.1.1l-3.077.545a1.09,1.09,0,0,0-.615.242,1.143,1.143,0,0,0-.237.752Z" transform="translate(-166.579 -128.32)" fill="#fff"/>
          <path id="Path_8336" data-name="Path 8336" d="M234.792,178.914a19.006,19.006,0,0,0,2.6-.084c.8-.1,1.736-.29,2.783-.528a1.723,1.723,0,0,0,.673-.259.743.743,0,0,0,.22-.6,3.517,3.517,0,0,0-.149-.831c-.075-.29-.145-.58-.22-.879a4.027,4.027,0,0,0-.637-1.578,1.218,1.218,0,0,0-1.292-.44c-.488.1-.985.281-1.442.409l-1.275.382a17,17,0,0,1-2.554.646,13.183,13.183,0,0,1,2.453-.958l1.257-.44c.462-.145.919-.339,1.482-.466a1.974,1.974,0,0,1,.919,0,1.688,1.688,0,0,1,.809.558,4.343,4.343,0,0,1,.725,1.758c.075.3.149.607.224.879a3.653,3.653,0,0,1,.149.923,1.147,1.147,0,0,1-.4.945,2.014,2.014,0,0,1-.853.33,21.979,21.979,0,0,1-2.844.44A5.32,5.32,0,0,1,234.792,178.914Z" transform="translate(-165.312 -124.679)" fill="#263238"/>
          <path id="Path_8337" data-name="Path 8337" d="M241.034,179.23a5.807,5.807,0,0,1-2.229.778,5.944,5.944,0,0,1-2.365.066c0-.07,1.055-.053,2.321-.29S241.008,179.164,241.034,179.23Z" transform="translate(-166.96 -128.033)" fill="#263238"/>
          <path id="Path_8338" data-name="Path 8338" d="M239.157,92.65a6.863,6.863,0,0,1-.813-1.09,6.663,6.663,0,0,1-.774-1.13,4.721,4.721,0,0,1,1.587,2.233Z" transform="translate(-167.593 -78.275)" fill="#455a64"/>
          <path id="Path_8339" data-name="Path 8339" d="M243.324,90.681a7.035,7.035,0,0,1-.475-1.121,6.671,6.671,0,0,1-.479-1.13,2.255,2.255,0,0,1,.69,1.042A2.29,2.29,0,0,1,243.324,90.681Z" transform="translate(-170.283 -77.154)" fill="#455a64"/>
          <path id="Path_8340" data-name="Path 8340" d="M247.3,89.571a2.092,2.092,0,0,1-.325-.879,2.04,2.04,0,0,1-.1-.932,2.091,2.091,0,0,1,.325.879,1.969,1.969,0,0,1,.1.932Z" transform="translate(-172.796 -76.778)" fill="#455a64"/>
          <path id="Path_8341" data-name="Path 8341" d="M235.6,94.573a3.178,3.178,0,0,1-1.543-2.163c.062,0,.3.528.721,1.117S235.647,94.52,235.6,94.573Z" transform="translate(-165.626 -79.384)" fill="#455a64"/>
          <path id="Path_8342" data-name="Path 8342" d="M236.59,100.095a2.91,2.91,0,0,1-1.055-.44A2.879,2.879,0,0,1,234.59,99a3.037,3.037,0,0,1,1.055.44,2.972,2.972,0,0,1,.945.655Z" transform="translate(-165.923 -83.077)" fill="#455a64"/>
          <path id="Path_8343" data-name="Path 8343" d="M240.057,98.46c-.04.048-.44-.242-.822-.712s-.585-.919-.528-.95.339.352.708.8S240.1,98.411,240.057,98.46Z" transform="translate(-168.225 -81.842)" fill="#455a64"/>
          <path id="Path_8344" data-name="Path 8344" d="M243.878,96.642c-.062.026-.246-.295-.418-.708s-.259-.774-.2-.8.246.29.413.708S243.935,96.62,243.878,96.642Z" transform="translate(-170.771 -80.913)" fill="#455a64"/>
          <path id="Path_8345" data-name="Path 8345" d="M247.561,94.747c-.062,0-.149-.334-.189-.761s-.026-.778.04-.787.145.339.189.765S247.635,94.738,247.561,94.747Z" transform="translate(-173.073 -79.827)" fill="#455a64"/>
          <path id="Path_8346" data-name="Path 8346" d="M251.174,93.772c-.066,0-.123-.36-.136-.809s.035-.813.1-.813.123.36.132.809S251.235,93.768,251.174,93.772Z" transform="translate(-175.139 -79.239)" fill="#455a64"/>
          <path id="Path_8347" data-name="Path 8347" d="M251.088,90.151a2.637,2.637,0,0,1,0-1.227,2.585,2.585,0,0,1,.374-1.165,4.734,4.734,0,0,1-.149,1.2A4.427,4.427,0,0,1,251.088,90.151Z" transform="translate(-175.128 -76.778)" fill="#455a64"/>
          <path id="Path_8348" data-name="Path 8348" d="M253.679,90.9c-.062,0,0-.343.1-.73s.259-.681.321-.659,0,.343-.1.725S253.74,90.915,253.679,90.9Z" transform="translate(-176.606 -77.758)" fill="#455a64"/>
          <path id="Path_8349" data-name="Path 8349" d="M266.892,102.96a1.292,1.292,0,0,1-.374.2,5.75,5.75,0,0,1-1.1.356,8.709,8.709,0,0,1-3.785-.066,14.23,14.23,0,0,1-3.517-1.389c-.44-.229-.761-.44-.989-.58a1.5,1.5,0,0,1-.339-.246c0-.031.541.259,1.4.686a16.45,16.45,0,0,0,3.517,1.319,9.3,9.3,0,0,0,3.706.127C266.33,103.189,266.875,102.921,266.892,102.96Z" transform="translate(-178.364 -84.33)" fill="#455a64"/>
          <path id="Path_8350" data-name="Path 8350" d="M264.609,99.222a6.471,6.471,0,0,1-2.739-.277,6.374,6.374,0,0,1-2.471-1.2c.035-.062,1.09.576,2.537.98S264.609,99.147,264.609,99.222Z" transform="translate(-179.826 -82.371)" fill="#455a64"/>
          <path id="Path_8351" data-name="Path 8351" d="M283.748,123.889a3.517,3.517,0,0,1-.193-1.046,11.839,11.839,0,0,1,.04-2.563,12.012,12.012,0,0,1,.593-2.5,3.715,3.715,0,0,1,.44-.963,25.651,25.651,0,0,0-.809,3.491,24.736,24.736,0,0,0-.07,3.578Z" transform="translate(-193.334 -93.063)" fill="#455a64"/>
          <path id="Path_8352" data-name="Path 8352" d="M289.2,125.149a3.077,3.077,0,0,1-.646-.747,9.671,9.671,0,0,1-1.121-2.106,9.869,9.869,0,0,1-.567-2.321,3.2,3.2,0,0,1,0-.985,19.282,19.282,0,0,0,.8,3.222A19.307,19.307,0,0,0,289.2,125.149Z" transform="translate(-195.194 -94.279)" fill="#455a64"/>
          <path id="Path_8358" data-name="Path 8358" d="M285.51,85.293s-2.906-6.207-2.827-7.306a13.349,13.349,0,0,0-.941-3.688l-.787-.554s-.154-1.02-1.649-1.728-3.614.629-3.614.629-2.119-.629-2.748,1.257c0,0-1.728.158-2.277,1.178l-3.517,2.748v.725s-1.02.769-.879,1.319l.154.55a3,3,0,0,1-.171,1.178c-.22.55,2.607,3.376,3.236,3.693s.879-.554.879-.554a74.794,74.794,0,0,1,4.647,6.563c.69,1.165,3.675,4.431,4.462,4.277s2.277-.4,2.277-.4l3.768,2.515,5.97-9.267Z" transform="translate(-183.661 -67.84)" fill="#ffbe9c"/>
          <path id="Path_8359" data-name="Path 8359" d="M274.563,90.68a11.946,11.946,0,0,0-.158,2.435,11.71,11.71,0,0,0,.58,2.378,5.2,5.2,0,0,1-.44-4.814Z" transform="translate(-188.092 -78.415)" fill="#ff996c"/>
          <path id="Path_8360" data-name="Path 8360" d="M270.927,90.768c.07-.035.286.466.673.941a1.758,1.758,0,0,0,.615.44c.185.079.317.1.317.132s-.136.07-.365,0a1.407,1.407,0,0,1-.739-.466,2.409,2.409,0,0,1-.44-.743C270.927,90.913,270.9,90.781,270.927,90.768Z" transform="translate(-186.28 -78.463)" fill="#ff996c"/>
          <path id="Path_8361" data-name="Path 8361" d="M271.26,96.543c0-.066.418-.176.778-.545s.479-.791.545-.778.048.514-.382.941S271.256,96.6,271.26,96.543Z" transform="translate(-186.473 -80.959)" fill="#ff996c"/>
          <path id="Path_8362" data-name="Path 8362" d="M280.75,76.605a1.319,1.319,0,0,1,.7-.022,2.6,2.6,0,0,1,1.477.813,5.882,5.882,0,0,1,.945,1.385,1.987,1.987,0,0,1,.264.642,2.754,2.754,0,0,1-.4-.563,8.533,8.533,0,0,0-.972-1.319,2.769,2.769,0,0,0-1.345-.8,5.019,5.019,0,0,1-.664-.141Z" transform="translate(-191.791 -70.494)" fill="#ff996c"/>
          <path id="Path_8363" data-name="Path 8363" d="M270.534,81.18a18.368,18.368,0,0,1-1.811,2.29,18.863,18.863,0,0,1-1.983,2.141,18.023,18.023,0,0,1,1.811-2.29,18.865,18.865,0,0,1,1.983-2.141Z" transform="translate(-183.94 -73.091)" fill="#ff996c"/>
          <path id="Path_8364" data-name="Path 8364" d="M288.736,74.887c-.062.031-.295-.369-.708-.739s-.831-.567-.809-.629a1.4,1.4,0,0,1,.963.44C288.634,74.386,288.793,74.87,288.736,74.887Z" transform="translate(-195.415 -68.799)" fill="#ff996c"/>
          <path id="Path_8365" data-name="Path 8365" d="M299.581,77.736c-.079,0-.145-.879-.365-1.877a9.844,9.844,0,0,0-.686-1.758,1.6,1.6,0,0,1,.382.44,4,4,0,0,1,.528,1.275A5.227,5.227,0,0,1,299.581,77.736Z" transform="translate(-201.754 -69.124)" fill="#ff996c"/>
          <path id="Path_8366" data-name="Path 8366" d="M298.77,122.49a3.882,3.882,0,0,1,1.262.695,3.825,3.825,0,0,1,1.077.954,5.637,5.637,0,0,1-1.209-.765A6,6,0,0,1,298.77,122.49Z" transform="translate(-201.889 -96.241)" fill="#ff996c"/>
          <path id="Path_8367" data-name="Path 8367" d="M355.631,133.254c-2.141-3.609-7.781-5.482-14.485-9.61S316.04,109.62,316.04,109.62h-3.917l-2.053,9.267s10.313,9.861,15.848,14.6l8.74,7.473-2.51,2.8,12.516,15.479.545.668c8.243-10.195,8.1-10.99,10.357-14.274A11.8,11.8,0,0,0,355.631,133.254Z" transform="translate(-208.221 -89.029)" fill="#ffbe9c"/>
        </g>
        <g id="freepik--Desk--inject-107" transform="translate(37.5 221.434)">
          <path id="Path_8373" data-name="Path 8373" d="M224.433,470.254c0,.066-41.671.114-93.057.114s-93.066-.048-93.066-.114,41.662-.114,93.066-.114S224.433,470.193,224.433,470.254Z" transform="translate(-38.31 -470.14)" fill="#263238"/>
        </g>
      </g>
    </g>
    <g id="Group_3234" data-name="Group 3234" transform="translate(4.012 -10.262)">
      <path id="Icon_ionic-ios-arrow-back" data-name="Icon ionic-ios-arrow-back" d="M15.217,17.7,23.926,9A1.645,1.645,0,1,0,21.6,6.674l-9.867,9.86a1.642,1.642,0,0,0-.048,2.268l9.908,9.929a1.645,1.645,0,0,0,2.33-2.323Z" transform="translate(362.579 30.069)" fill="#fff"/>
      <path id="Icon_ionic-ios-arrow-back-2" data-name="Icon ionic-ios-arrow-back" d="M3.967,11.506l8.709-8.7A1.645,1.645,0,1,0,10.346.481L.479,10.341a1.642,1.642,0,0,0-.048,2.268l9.908,9.929a1.645,1.645,0,1,0,2.33-2.323Z" transform="translate(377.472 59.28) rotate(180)" fill="#fff"/>
    </g>
    <text id="Session_3_De-addiction_stage" data-name="Session 3
De-addiction stage" transform="translate(21 26)" fill="#fff" font-size="16" font-family="ArialMT, Arial"><tspan x="0" y="14">Session 3</tspan><tspan font-size="24" font-family="Arial-BoldMT, Arial" font-weight="700"><tspan x="0" y="49">De-addiction stage</tspan></tspan></text>
    <g id="Component_119_313" data-name="Component 119 – 313" transform="translate(0 779.278)">
      <rect id="Rectangle_1927" data-name="Rectangle 1927" width="412" height="67" transform="translate(0 0.722)" fill="#102646"/>
      <path id="Path_4714" data-name="Path 4714" d="M1053,4508.186h411.151" transform="translate(-1053 -4508.186)" fill="none" stroke="#fff" stroke-width="2" opacity="0.206"/>
      <g id="Group_3096" data-name="Group 3096" transform="translate(-3 -997.186)">
        <text id="Next" transform="translate(318 1038)" fill="#f2f5f7" font-size="18" font-family="ArialMT, Arial"><tspan x="0" y="0">Next</tspan></text>
        <path id="Icon_ionic-ios-arrow-back-3" data-name="Icon ionic-ios-arrow-back" d="M14.033,14.264l6.109-6.1a1.154,1.154,0,0,0-1.634-1.629l-6.921,6.916a1.152,1.152,0,0,0-.034,1.591L18.5,22a1.154,1.154,0,1,0,1.634-1.629Z" transform="translate(389.251 1046.266) rotate(180)" fill="#f2f5f7"/>
      </g>
      <g id="Group_3224" data-name="Group 3224" transform="translate(2.529 7.076)">
        <g id="Group_3212" data-name="Group 3212" transform="translate(34.47 14.737)">
          <text id="Back" transform="translate(19.06 18)" fill="#fff" font-size="18" font-family="ArialMT, Arial"><tspan x="0" y="0">Back</tspan></text>
          <path id="Icon_ionic-ios-arrow-back-4" data-name="Icon ionic-ios-arrow-back" d="M14.033,14.264l6.109-6.1a1.154,1.154,0,0,0-1.634-1.629l-6.921,6.916a1.152,1.152,0,0,0-.034,1.591L18.5,22a1.154,1.154,0,1,0,1.634-1.629Z" transform="translate(-11.251 -3.193)" fill="#fff"/>
        </g>
      </g>
    </g>
  </g>
</svg>
