<svg xmlns="http://www.w3.org/2000/svg" xmlns:xlink="http://www.w3.org/1999/xlink" width="412" height="847" viewBox="0 0 412 847">
  <defs>
    <linearGradient id="linear-gradient" x1="0.5" x2="0.5" y2="1" gradientUnits="objectBoundingBox">
      <stop offset="0" stop-color="#37aadd"/>
      <stop offset="1" stop-color="#1f64cc"/>
    </linearGradient>
    <clipPath id="clip-OCD_session_4_22">
      <rect width="412" height="847"/>
    </clipPath>
  </defs>
  <g id="OCD_session_4_22" data-name="OCD session 4 – 22" clip-path="url(#clip-OCD_session_4_22)">
    <rect width="412" height="847" fill="#102646"/>
    <g id="Group_3103" data-name="Group 3103" transform="translate(-4 65.864)">
      <g id="Group_1500" data-name="Group 1500" transform="translate(71 65)">
        <text id="OBQ-44_Questionnaire" data-name="OBQ-44 Questionnaire" transform="translate(0 0.136)" fill="#1e64cc" font-size="24" font-family="Arial-BoldMT, Arial" font-weight="700"><tspan x="0" y="22">OBQ-44 Questionnaire</tspan></text>
      </g>
      <g id="Group_3103-2" data-name="Group 3103" transform="translate(25 59)">
        <g id="Group_3157" data-name="Group 3157">
          <rect id="Rectangle_1722" data-name="Rectangle 1722" width="371" height="600" rx="16" transform="translate(0 0.136)" fill="url(#linear-gradient)"/>
          <text id="Preparation" transform="translate(99 24.136)" fill="#fff" font-size="16" font-family="ArialMT, Arial"><tspan x="45.141" y="14">Preparation</tspan></text>
          <text id="Preparation:_In_this_stage_the_person_generally_decides_to_change_his_her_dysfunctional_behaviours_subsequently_start_to_gather_information_about_various_resources._In_short_the_person_is_testing_water_before_diving_in._Those_in_this_stage_are_general" data-name="Preparation:  In this stage, the person generally decides to change his/her dysfunctional behaviours &amp; subsequently start to gather information about various resources. In short, the person is testing water before diving in. Those in this stage are general" transform="translate(28 332.136)" fill="#fff" font-size="12" font-family="ArialMT, Arial"><tspan x="2.405" y="11" xml:space="preserve">Preparation:  In this stage, the person generally decides to </tspan><tspan x="7.737" y="36">change his/her dysfunctional behaviours &amp; subsequently </tspan><tspan x="15.094" y="61">start to gather information about various resources. In </tspan><tspan x="2.191" y="86">short, the person is testing water before diving in. Those in </tspan><tspan x="18.431" y="111">this stage are generally taking small steps towards a </tspan><tspan x="9.401" y="136">change but still they are hanging in the middle, because </tspan><tspan x="5.399" y="161">those changes have not worked as they intended them to </tspan><tspan x="12.756" y="186">be. For example, you know about various plans for de-</tspan><tspan x="0.07" y="211">addiction, but you have never joined or actively participated </tspan><tspan x="136.157" y="236">in them.</tspan></text>
        </g>
      </g>
    </g>
    <g id="Group_1193" data-name="Group 1193" transform="translate(3.371 -49.643)">
      <g id="Ellipse_12" data-name="Ellipse 12" transform="translate(177.629 798.642)" fill="none" stroke="#0e58c7" stroke-width="1">
        <circle cx="4" cy="4" r="4" stroke="none"/>
        <circle cx="4" cy="4" r="3.5" fill="none"/>
      </g>
      <g id="Ellipse_13" data-name="Ellipse 13" transform="translate(191.629 798.642)" fill="none" stroke="#0e58c7" stroke-width="1">
        <circle cx="4" cy="4" r="4" stroke="none"/>
        <circle cx="4" cy="4" r="3.5" fill="none"/>
      </g>
      <g id="Ellipse_91" data-name="Ellipse 91" transform="translate(206.629 798.642)" fill="none" stroke="#0e58c7" stroke-width="1">
        <circle cx="4" cy="4" r="4" stroke="none"/>
        <circle cx="4" cy="4" r="3.5" fill="none"/>
      </g>
      <g id="Ellipse_92" data-name="Ellipse 92" transform="translate(220.629 798.642)" fill="#0e58c7" stroke="#0e58c7" stroke-width="1">
        <circle cx="4" cy="4" r="4" stroke="none"/>
        <circle cx="4" cy="4" r="3.5" fill="none"/>
      </g>
    </g>
    <g id="Group_3931" data-name="Group 3931">
      <path id="Path_5920" data-name="Path 5920" d="M9465.524,14761.509c6.567-31.59,16.01-89.273,76.558-71.347s40.628,29.124,97.831,21.63,86.675,95.53,35.142,93.989-30.141,11.445-69.951,14.13-54.4,11.21-89.292-3.391S9458.957,14793.1,9465.524,14761.509Z" transform="translate(-9383 -14424.288)" fill="#d2dff2" opacity="0.6"/>
      <circle id="Ellipse_599" data-name="Ellipse 599" cx="2.5" cy="2.5" r="2.5" transform="translate(113 264)" fill="#1e64cc"/>
      <circle id="Ellipse_600" data-name="Ellipse 600" cx="4.5" cy="4.5" r="4.5" transform="translate(83 366)" fill="#1e64cc"/>
      <circle id="Ellipse_601" data-name="Ellipse 601" cx="7.5" cy="7.5" r="7.5" transform="translate(293 306)" fill="#fe7614"/>
      <g id="undraw_career_progress_ivdb" transform="translate(78.854 226.988)">
        <rect id="Rectangle_1877" data-name="Rectangle 1877" width="33.375" height="10.089" rx="5.045" transform="translate(39.571 77.743)" fill="#b0bec5" opacity="0.1"/>
        <rect id="Rectangle_1878" data-name="Rectangle 1878" width="33.375" height="10.089" rx="5.045" transform="translate(74.498 87.834)" fill="#b0bec5" opacity="0.1"/>
        <rect id="Rectangle_1879" data-name="Rectangle 1879" width="33.375" height="10.089" rx="5.045" transform="translate(109.427 97.924)" fill="#b0bec5" opacity="0.1"/>
        <rect id="Rectangle_1880" data-name="Rectangle 1880" width="33.375" height="10.089" rx="5.045" transform="translate(39.571 62.609)" fill="#b0bec5" opacity="0.1"/>
        <rect id="Rectangle_1881" data-name="Rectangle 1881" width="33.375" height="10.089" rx="5.045" transform="translate(74.498 72.698)" fill="#b0bec5" opacity="0.1"/>
        <rect id="Rectangle_1882" data-name="Rectangle 1882" width="33.375" height="10.089" rx="5.045" transform="translate(109.427 82.79)" fill="#b0bec5" opacity="0.1"/>
        <rect id="Rectangle_1883" data-name="Rectangle 1883" width="33.375" height="10.089" rx="5.045" transform="translate(148.235 77.743)" fill="#b0bec5" opacity="0.1"/>
        <rect id="Rectangle_1884" data-name="Rectangle 1884" width="33.375" height="10.089" rx="5.045" transform="translate(183.162 87.834)" fill="#b0bec5" opacity="0.1"/>
        <rect id="Rectangle_1885" data-name="Rectangle 1885" width="33.375" height="10.089" rx="5.045" transform="translate(218.091 97.924)" fill="#b0bec5" opacity="0.1"/>
        <rect id="Rectangle_1886" data-name="Rectangle 1886" width="33.375" height="10.089" rx="5.045" transform="translate(148.235 62.609)" fill="#b0bec5" opacity="0.1"/>
        <rect id="Rectangle_1887" data-name="Rectangle 1887" width="33.375" height="10.089" rx="5.045" transform="translate(183.162 72.698)" fill="#b0bec5" opacity="0.1"/>
        <rect id="Rectangle_1888" data-name="Rectangle 1888" width="33.375" height="10.089" rx="5.045" transform="translate(218.091 82.79)" fill="#b0bec5" opacity="0.1"/>
        <rect id="Rectangle_1889" data-name="Rectangle 1889" width="33.375" height="10.089" rx="5.045" transform="translate(39.571 42.428)" fill="#b0bec5" opacity="0.1"/>
        <rect id="Rectangle_1890" data-name="Rectangle 1890" width="33.375" height="10.089" rx="5.045" transform="translate(74.498 52.517)" fill="#b0bec5" opacity="0.1"/>
        <rect id="Rectangle_1891" data-name="Rectangle 1891" width="33.375" height="10.089" rx="5.045" transform="translate(109.427 62.609)" fill="#b0bec5" opacity="0.1"/>
        <rect id="Rectangle_1892" data-name="Rectangle 1892" width="33.375" height="10.089" rx="5.045" transform="translate(39.571 27.291)" fill="#b0bec5" opacity="0.1"/>
        <rect id="Rectangle_1893" data-name="Rectangle 1893" width="33.375" height="10.089" rx="5.045" transform="translate(74.498 37.383)" fill="#b0bec5" opacity="0.1"/>
        <rect id="Rectangle_1894" data-name="Rectangle 1894" width="33.375" height="10.089" rx="5.045" transform="translate(109.427 47.472)" fill="#b0bec5" opacity="0.1"/>
        <rect id="Rectangle_1895" data-name="Rectangle 1895" width="33.375" height="10.089" rx="5.045" transform="translate(148.235 42.428)" fill="#b0bec5" opacity="0.1"/>
        <rect id="Rectangle_1896" data-name="Rectangle 1896" width="33.375" height="10.089" rx="5.045" transform="translate(183.162 52.517)" fill="#b0bec5" opacity="0.1"/>
        <rect id="Rectangle_1897" data-name="Rectangle 1897" width="33.375" height="10.089" rx="5.045" transform="translate(218.091 62.609)" fill="#b0bec5" opacity="0.1"/>
        <rect id="Rectangle_1898" data-name="Rectangle 1898" width="33.375" height="10.089" rx="5.045" transform="translate(148.235 27.291)" fill="#b0bec5" opacity="0.1"/>
        <rect id="Rectangle_1899" data-name="Rectangle 1899" width="33.375" height="10.089" rx="5.045" transform="translate(183.162 37.383)" fill="#b0bec5" opacity="0.1"/>
        <rect id="Rectangle_1900" data-name="Rectangle 1900" width="33.375" height="10.089" rx="5.045" transform="translate(218.091 47.472)" fill="#b0bec5" opacity="0.1"/>
        <path id="Path_7398" data-name="Path 7398" d="M205.744,320.628,194,392.621,247.1,387l-2.3-6.127-41.485,3.446,9.7-63.824Z" transform="translate(-144.473 -238.678)" fill="#3f3d56"/>
        <path id="Path_7399" data-name="Path 7399" d="M186,.255,257.483,0l20.679,156.5-71.738,9.7Z" transform="translate(-138.515)" fill="#3f3d56"/>
        <path id="Path_7400" data-name="Path 7400" d="M216.5,24.5h57.7l20.168,145.518-59.484,8.169Z" transform="translate(-161.229 -18.245)" fill="#fff"/>
        <path id="Path_7401" data-name="Path 7401" d="M456.775,633.961a14.23,14.23,0,0,0,1.105,2.07c1.379,1.843,4,2.132,5.959,3.334a.549.549,0,0,1,.232.225c.089.212-.11.434-.3.567-1.488,1.044-3.441,1.067-5.262,1.054a7.018,7.018,0,0,1-1.82-.174c-.962-.255-1.787-.927-2.737-1.2a7.262,7.262,0,0,0-1.5-.212l-1.994-.135a4.7,4.7,0,0,1-1.555-.289,1.572,1.572,0,0,1-.98-1.162,3.337,3.337,0,0,1,.232-1.248c.255-.98.176-2.165.939-2.834a2.9,2.9,0,0,1,1.06-.511,33.8,33.8,0,0,1,4.24-1.128C455.573,632.087,456.252,632.955,456.775,633.961Z" transform="translate(-347.09 -488.733)" fill="#3f3d56"/>
        <path id="Path_7402" data-name="Path 7402" d="M372.445,640.37a1.866,1.866,0,0,1-.327,1.547,1.744,1.744,0,0,1-.855.383,7.479,7.479,0,0,1-5.632-.557,1.556,1.556,0,0,1-.444-.38,1.386,1.386,0,0,1-.225-.7,6.023,6.023,0,0,1,.365-2.132,37.406,37.406,0,0,0,1.085-5.042c.02-.14,4.817.766,5.137,1.241a8.168,8.168,0,0,1,.511,2.7Q372.3,638.889,372.445,640.37Z" transform="translate(-285.313 -489.621)" fill="#3f3d56"/>
        <path id="Path_7403" data-name="Path 7403" d="M382.568,376.157l1.276,11.869a41.318,41.318,0,0,1,.347,7.3c-.2,2.808-.991,5.616-.659,8.4.13,1.082.426,2.144.47,3.235a17.605,17.605,0,0,1-.11,2.17c-.577,7.2,1.248,14.348,2.27,21.5a9.327,9.327,0,0,1,.107,2.675c-.133.906-.4,2.1.408,2.525l-7.577,2.747c-.968-1.213-.327-3.1-.511-4.639a24.14,24.14,0,0,0-1.335-3.957,18.688,18.688,0,0,1-.564-3.709c-.661-6.783-2.691-13.39-3.166-20.189a9.193,9.193,0,0,0-.255-1.948,18.116,18.116,0,0,0-1.139-2.377A16.765,16.765,0,0,1,371,397.962l-1.621-7.6c-1.639,2.441-1.573,5.616-1.9,8.542-.454,4.085-1.471,8.1-2.3,12.134a24.116,24.116,0,0,0-.431,2.63c-.214,2.367.212,4.756-.015,7.12-.255,2.739-1.407,5.412-1.128,8.152a28.508,28.508,0,0,0,1.128,4.422,6.938,6.938,0,0,1-.013,4.486,13.786,13.786,0,0,0-6.564-.725c-2.433-2.489-2.864-5.961-3.03-9.446s.235-6.975-.2-10.426c-.128-1.021-.327-2.017-.36-3.035-.107-3.265,1.463-6.321,2.244-9.494a20.092,20.092,0,0,0,.2-8.718c-.383-1.907-1.042-3.758-1.276-5.691a25.837,25.837,0,0,1,.766-8.113c.365-1.8.728-3.61,1.141-5.4a14.238,14.238,0,0,1,2.16-5.474,9.626,9.626,0,0,1,8.425-3.4,18.183,18.183,0,0,1,8.7,3.467A32.8,32.8,0,0,1,382.568,376.157Z" transform="translate(-277.58 -291.841)" fill="#192534"/>
        <path id="Path_7404" data-name="Path 7404" d="M403.1,208.883a2.2,2.2,0,0,0-.294.751,2.528,2.528,0,0,0,.511,1.46,7.953,7.953,0,0,1,.748,1.864,3.063,3.063,0,0,1,.11,1.243,3,3,0,0,1-.332.894,4.546,4.546,0,0,1-2.216,2.224,3.9,3.9,0,0,1-2.4.1,7.279,7.279,0,0,1-2.193-1.042,6.667,6.667,0,0,1-1.5-1.3,9,9,0,0,1-1.036-1.787,7.114,7.114,0,0,1-.973-3.515,1.174,1.174,0,0,1,.061-.324,1.743,1.743,0,0,1,.342-.511,6.663,6.663,0,0,0,1.562-4.634l3.72.845c.82.186,1.639.373,2.448.605a4.11,4.11,0,0,1,2.116,1.049C404.208,207.392,403.394,208.341,403.1,208.883Z" transform="translate(-306.583 -170.014)" fill="#fbbebe"/>
        <circle id="Ellipse_650" data-name="Ellipse 650" cx="6.76" cy="6.76" r="6.76" transform="translate(87.765 24.715)" fill="#fbbebe"/>
        <path id="Path_7405" data-name="Path 7405" d="M389.993,233.65a3.91,3.91,0,0,1,1.468-1.414,2.615,2.615,0,0,0,1.246-1.578,1.131,1.131,0,0,1,.112-.444c.217-.327.733-.163,1.042.077a8,8,0,0,1,1.759,2.224,14.147,14.147,0,0,1,2.53,9.089,19.431,19.431,0,0,1-.306,5.486,15.935,15.935,0,0,0-.794,3.385c-.084,4.22-1.55,8.254-1.652,12.474a32.361,32.361,0,0,0,.184,3.653l.24,2.739q-5.568-.319-11.105-.978a21.242,21.242,0,0,0-.8-3.7,80.4,80.4,0,0,1-2.581-15.251c-.2-2.737-.4-5.463-.7-8.19-.273-2.479-.809-4.973-.488-7.447a10.281,10.281,0,0,1,1.047-3.222,2.124,2.124,0,0,1,.817-.978,2.208,2.208,0,0,1,.577-.186,10.708,10.708,0,0,1,1.756-.207,1.21,1.21,0,0,1,.429.041,1.345,1.345,0,0,1,.585.567A10.6,10.6,0,0,0,389.993,233.65Z" transform="translate(-296.555 -188.537)" fill="#f2f2f2"/>
        <path id="Path_7406" data-name="Path 7406" d="M406.72,243.046c.475.679,1.481.84,1.92,1.532a4.015,4.015,0,0,1,.334.911c.268.855.809,1.6,1.139,2.433a10.432,10.432,0,0,1,.493,3.817,12.629,12.629,0,0,1-.235,3.064c-.153.631-.4,1.231-.587,1.854a9.061,9.061,0,0,0-.342,3.268,1.338,1.338,0,0,0,.184.676,1.468,1.468,0,0,0,.654.444,4.838,4.838,0,0,0,2.349.59.86.86,0,0,0,.467-.156,1.039,1.039,0,0,0,.23-.3l.511-.863a3.838,3.838,0,0,0,.766-2.573,5.1,5.1,0,0,0-.579-1.32,15.515,15.515,0,0,1-.832-2.06,28.607,28.607,0,0,1-1.823-7.187,6.316,6.316,0,0,1,.306-2.788,7.939,7.939,0,0,1,.9-1.555.666.666,0,0,0-.717-.243,4.272,4.272,0,0,0-.743.309,3.524,3.524,0,0,1-2.341-.015,4.092,4.092,0,0,0-1.072-.363C407.593,242.53,406.738,243.076,406.72,243.046Z" transform="translate(-316.417 -198.474)" fill="#b0bec5"/>
        <path id="Path_7407" data-name="Path 7407" d="M422.694,233.049c-.153-.123-.391-.235-.526-.092a.592.592,0,0,0-.1.207,1.374,1.374,0,0,1-.878.671c-.355.138-.738.214-.952-.049a.577.577,0,0,1,.033-.682,2.083,2.083,0,0,1,.559-.472,5.458,5.458,0,0,0,2.226-3.5,1.665,1.665,0,0,1,.61,1.054c.084.406.094.825.179,1.231a17.246,17.246,0,0,1,.467,1.716,8.963,8.963,0,0,1,0,.945,5.794,5.794,0,0,0,.107.914A17.374,17.374,0,0,0,422.694,233.049Z" transform="translate(-326.415 -188.505)" fill="#f2f2f2"/>
        <path id="Path_7408" data-name="Path 7408" d="M398.429,224.159c-.255-.243-.511-.472-.766-.72a9.931,9.931,0,0,1-2.469-3.919,1.473,1.473,0,0,0-.694,1.021,1.565,1.565,0,0,0,.337.83,12.939,12.939,0,0,1,1.871,5.006A1.491,1.491,0,0,1,398,225.69c.4,0,2.213,1.072,2.344.8C400.533,226.068,398.735,224.447,398.429,224.159Z" transform="translate(-307.317 -181.348)" fill="#f2f2f2"/>
        <path id="Path_7409" data-name="Path 7409" d="M359.855,223.676a21.189,21.189,0,0,0,8.573,5.19,1.925,1.925,0,0,1,.865.439,1.769,1.769,0,0,1,.36.791,44.92,44.92,0,0,1,1.039,7.46,4.155,4.155,0,0,1-.026,1.246,3.931,3.931,0,0,1-1.093,1.713c-1.465,1.57-3.138,3.212-3.385,5.346a8.539,8.539,0,0,1-.146,1.225c-.128.475-.411.894-.585,1.356-.853,2.275,1.075,5.029-.1,7.148a12.9,12.9,0,0,1,1.292,3.9,5.07,5.07,0,0,0,.35,1.5,7.778,7.778,0,0,0,1.636,1.787c1.728,1.772,1.94,4.483,2.042,6.957.064,1.394.043,2.995-1.021,3.909a4.469,4.469,0,0,1-2.259.84,4.879,4.879,0,0,1-3.181-.222,5.11,5.11,0,0,1-1.583-1.677c-.837-1.218-1.677-2.433-2.471-3.681-1.256-1.968-2.441-4.217-2.078-6.525a15.158,15.158,0,0,1-1.759,6.8,9.356,9.356,0,0,1-5.29,4.455,6.786,6.786,0,0,1-6.6-1.455,8.921,8.921,0,0,1-1.407-1.9,18.513,18.513,0,0,1-2.078-5.287,2.056,2.056,0,0,1,.051-1.453c.115-.2.291-.365.411-.567.4-.687.015-1.552-.375-2.252-.595.056-1.021-.643-.968-1.241a5.237,5.237,0,0,1,.664-1.659,8.392,8.392,0,0,0,.22-5.2,23.373,23.373,0,0,1-.85-5.211c.043-1.866-1.3-3.546-2.323-5.106-.572-.878-1.238-1.7-1.736-2.617a8.443,8.443,0,0,1-.669-6.321,16.565,16.565,0,0,1,1.4-3.12l.842-1.58a2.607,2.607,0,0,1,1.787-1.532l5.828-2.3a8.769,8.769,0,0,0,2.1-1.052c.712-.536,1.243-1.276,1.922-1.848a1.077,1.077,0,0,1,.766-.334c.546.048.74.738.8,1.276.128,1.205,1.021,2.226,1.325,3.4,1.644,6.472,5.124,12.441,6.079,19.048a69.245,69.245,0,0,1,3.518-7.582,6.292,6.292,0,0,0,.544-1.1,4.7,4.7,0,0,0,.181-1.708,22.337,22.337,0,0,0-.947-4.891C360.955,227.855,360.445,225.84,359.855,223.676Z" transform="translate(-263.042 -182.897)" fill="#3f3d56"/>
        <path id="Path_7410" data-name="Path 7410" d="M456.14,289.912c.112,1.088.222,2.178.424,3.252.235,1.243.592,2.458.947,3.674a9.558,9.558,0,0,0,.74,1.973,2.537,2.537,0,0,1,.273.585,3.366,3.366,0,0,1-.283,1.532c-.368,1.532.735,3.235.041,4.646a8.871,8.871,0,0,0-.712,1.243,3.727,3.727,0,0,0,.084,1.639,9.928,9.928,0,0,1-.822,4.562l-.878,2.487a23.065,23.065,0,0,0-2.719-4.276c-.4-.46-.827-.886-1.192-1.371a9.615,9.615,0,0,1-1.276-2.487,21.555,21.555,0,0,1-1.32-6.566,4.491,4.491,0,0,1,.217-1.889,10.046,10.046,0,0,1,.567-1.021,8.255,8.255,0,0,0,.812-4.1,33.826,33.826,0,0,1,0-4.225,9.667,9.667,0,0,1,1.021-3.352,4.756,4.756,0,0,1,1.386-1.728,2.5,2.5,0,0,1,1.532-.5c.835.048.643.766.715,1.458Z" transform="translate(-348.219 -229.359)" fill="#3f3d56"/>
        <path id="Path_7411" data-name="Path 7411" d="M320.53,274.1q-.781,2.3-1.409,4.636-.613,2.3-1.1,4.621a9.894,9.894,0,0,0-.276,2.078,9.3,9.3,0,0,0,.416,2.4,59.553,59.553,0,0,0,8.016,16.53,14.88,14.88,0,0,1,3.4-3.1.727.727,0,0,0,.255-.255.692.692,0,0,0-.082-.6c-.932-1.91-2.407-3.592-2.872-5.668-.194-.863-.2-1.762-.421-2.619a28.135,28.135,0,0,1-1.062-3.265c-.156-1.241.255-2.594-.327-3.694a4.879,4.879,0,0,0,2.377-2.857,15.648,15.648,0,0,0,1.144-3.755,11.3,11.3,0,0,0-1.381-7.187,11.487,11.487,0,0,0-2.31-2.9c-.3-.273-1.021-1.057-1.463-1.049-.59.013-.779.968-.947,1.4C321.807,270.568,321.133,272.322,320.53,274.1Z" transform="translate(-250.161 -217.02)" fill="#3f3d56"/>
        <path id="Path_7412" data-name="Path 7412" d="M354.287,398.461c.077.056.163.133.143.225s-.094.115-.161.153a1.981,1.981,0,0,0-.735,1,27.786,27.786,0,0,0-1.108,2.933,12.858,12.858,0,0,0-2-2.336,5.665,5.665,0,0,1-1.545-1.769c0-.02,1.338-1.008,1.46-1.116.375-.334.848-1.261,1.236-1.465.439-.23.858.671,1.192,1.034A10.138,10.138,0,0,0,354.287,398.461Z" transform="translate(-273.343 -312.807)" fill="#fbbebe"/>
        <path id="Path_7413" data-name="Path 7413" d="M404.335,159.062a1.254,1.254,0,0,0-.317-.922,1.208,1.208,0,0,0-.766-.212c-1.488-.048-3.028.2-4.432-.3-.924-.329-1.713-.962-2.614-1.356a2.635,2.635,0,0,0-2.783.163,3.986,3.986,0,0,0-.894,2.017,11.824,11.824,0,0,1-2.2,4.371,2.712,2.712,0,0,1-1.506-1.481c-1.085-2.211-.551-4.851.22-7.194.255-.786.539-1.565.822-2.341l.623-1.716a3.349,3.349,0,0,0,2.134-1.062l.268.651a3.4,3.4,0,0,0,1.915-.677,1.038,1.038,0,0,0,1.213.38c.447-.13.832-.38,1.276-.511,1.187-.383,2.453.207,3.7.273a14.809,14.809,0,0,1,1.58.046,4.145,4.145,0,0,1,2.959,3.041c.3.945.546,2.106,1.478,2.441.02.357-.613.426-.666.766a.587.587,0,0,0,.077.324l.855,1.836a2.124,2.124,0,0,1-1.236-.061C405.652,158.447,404.373,159.754,404.335,159.062Z" transform="translate(-302.63 -128.644)" fill="#192534"/>
        <path id="Path_7414" data-name="Path 7414" d="M615.853,181.419a33.524,33.524,0,0,1,1.021,4.271,4.337,4.337,0,0,1-.329,3.189c2.364-3.556,4.833-7.22,8.425-9.515a7.692,7.692,0,0,1-2-5.933c.021-.214-2.949.906-3.176,1.034-1.042.58-2,1.3-3.013,1.92-.526.319-2.716,1.075-2.737,1.532,0,.294.871,1.192,1.034,1.5a11.668,11.668,0,0,1,.779,2Z" transform="translate(-470.809 -147.005)" fill="#fbbebe"/>
        <path id="Path_7415" data-name="Path 7415" d="M620.892,724.488a3.957,3.957,0,0,0-4.044-.306c-1.156.6-1.935,1.728-2.987,2.494-1.807,1.312-4.194,1.417-6.311,2.127a2.15,2.15,0,0,0-1.4,1.021,1.812,1.812,0,0,0,.1,1.422,3.681,3.681,0,0,0,1.751,1.8,7.318,7.318,0,0,0,3.094.488l9.14.107a74.868,74.868,0,0,1,8.425.416,3.155,3.155,0,0,0,1.93-.148c.934-.51,1.042-1.8.97-2.867a26.314,26.314,0,0,0-1.787-7.863c-.11-.278-.255-.595-.564-.646a.919.919,0,0,0-.608.194c-2.578,1.532-5.844,2.4-8.586,1.172" transform="translate(-464.863 -555.947)" fill="#fff"/>
        <path id="Path_7416" data-name="Path 7416" d="M666.292,500.049c-1.021,5.931-.355,12.024.794,17.929a31.253,31.253,0,0,0,.835,3.482c.411,1.3.965,2.553,1.351,3.863.98,3.319.842,6.867.7,10.332L669.3,551.42a11.433,11.433,0,0,0,.291,3.937c.161.511.357,1.149-.049,1.493a1.139,1.139,0,0,1-.539.207,8.339,8.339,0,0,1-5.361-.8l-.181-15.925a102.931,102.931,0,0,0-.871-14.687c-.6-3.855-1.642-7.659-1.71-11.56-.072-4.085.929-8.116,1.95-12.075a4.641,4.641,0,0,1,1.68-2.042,2.065,2.065,0,0,1,.817-.5C665.633,499.383,666.1,499.791,666.292,500.049Z" transform="translate(-505.688 -389.818)" fill="#3f3d56"/>
        <path id="Path_7417" data-name="Path 7417" d="M666.292,500.049c-1.021,5.931-.355,12.024.794,17.929a31.253,31.253,0,0,0,.835,3.482c.411,1.3.965,2.553,1.351,3.863.98,3.319.842,6.867.7,10.332L669.3,551.42a11.433,11.433,0,0,0,.291,3.937c.161.511.357,1.149-.049,1.493a1.139,1.139,0,0,1-.539.207,8.339,8.339,0,0,1-5.361-.8l-.181-15.925a102.931,102.931,0,0,0-.871-14.687c-.6-3.855-1.642-7.659-1.71-11.56-.072-4.085.929-8.116,1.95-12.075a4.641,4.641,0,0,1,1.68-2.042,2.065,2.065,0,0,1,.817-.5C665.633,499.383,666.1,499.791,666.292,500.049Z" transform="translate(-505.688 -389.818)" opacity="0.1"/>
        <path id="Path_7418" data-name="Path 7418" d="M606.7,421.91c-.378,1.555.424,3.166.335,4.764a12.454,12.454,0,0,0-.255,2.882A13.067,13.067,0,0,0,608,432.091a6.879,6.879,0,0,1,.414,2.267c.1,1.91.02,3.829-.051,5.731a56.4,56.4,0,0,0,.212,9.563,29.917,29.917,0,0,0,2.213,7.952,13.791,13.791,0,0,1,.825,2.142,15.292,15.292,0,0,1,.281,2.078,21.111,21.111,0,0,0,1.8,6.564c.651,1.422,1.787,2.553,2.147,4.062.342,1.445.112,2.969.36,4.432.181,1.085.623,2.111.868,3.184a37.815,37.815,0,0,1,.472,4.238c.459,4.085,2.315,8.169,1.208,12.132a5.413,5.413,0,0,0-.411,2.418,3.017,3.017,0,0,1,.184,1.187,5.628,5.628,0,0,1-.465.917,1.684,1.684,0,0,0,.47,1.769,5.027,5.027,0,0,0,1.659.98,14.938,14.938,0,0,0,5.872,1.6,1.578,1.578,0,0,0,.722-.133,1.789,1.789,0,0,0,.7-.991l1.047-2.589a1.11,1.11,0,0,0,.079-.973,1.812,1.812,0,0,0-.439-.408c-.845-.712-.654-2.042-.429-3.112a45.414,45.414,0,0,0,.95-8.348,90.9,90.9,0,0,0-1.728-16.681,34.76,34.76,0,0,0-1.276-5.685c-.636-1.838-1.573-3.607-1.419-5.517.163-2.063-.373-4.225,0-6.26s.962-4.026,1.343-6.058a62.628,62.628,0,0,0,.766-8,7.74,7.74,0,0,1,.656-3.191c.3-.567.733-1.052,1.067-1.6.863-1.427,1-3.2,1.825-4.646a16.252,16.252,0,0,0,1.215-2.027,5.665,5.665,0,0,0,.311-1.8,21.444,21.444,0,0,0-.255-4.608,29.984,29.984,0,0,0-14.041-3.258,16.657,16.657,0,0,0-5.5.865C609.986,420.906,608.465,421.777,606.7,421.91Z" transform="translate(-465.269 -330.213)" fill="#3f3d56"/>
        <path id="Path_7419" data-name="Path 7419" d="M610.034,743.476c-.751.934-.7,2.27-1.179,3.37a7.4,7.4,0,0,1-3.109,2.969l-7.659,4.851a2.135,2.135,0,0,0-1.021,1.044,1.674,1.674,0,0,0,.038.917,3.977,3.977,0,0,0,2.675,2.716,7.915,7.915,0,0,0,2.07.212l3.444.046a20.172,20.172,0,0,0,3.143-.122c.955-.138,1.884-.411,2.834-.585,1.728-.314,3.505-.286,5.236-.59a27.7,27.7,0,0,0,3.135-.809,12.5,12.5,0,0,0,3.6-1.509,1.866,1.866,0,0,0,.692-.745,2.2,2.2,0,0,0-.02-1.351l-1.644-7.225a4.306,4.306,0,0,0-.643-1.687,1.473,1.473,0,0,0-1.59-.6,3.37,3.37,0,0,0-.661.4,4.061,4.061,0,0,1-2.918.472,4.6,4.6,0,0,1-2.012-.717c-.393-.324-.511-.827-.845-1.195a2.4,2.4,0,0,0-3.561.14Z" transform="translate(-458.133 -570.897)" fill="#fff"/>
        <circle id="Ellipse_651" data-name="Ellipse 651" cx="9.224" cy="9.224" r="9.224" transform="translate(137.711 14.971)" fill="#fbbebe"/>
        <path id="Path_7420" data-name="Path 7420" d="M599.841,123.094c.883-.5.883-1.922,1.787-2.4s1.93.35,2.51,1.182a10.873,10.873,0,0,1,1.723,4.052,2.038,2.038,0,0,0,.47,1.154,1.807,1.807,0,0,0,1.118.365q1.749.174,3.5.317a7.572,7.572,0,0,0,3.857-.37,2.808,2.808,0,0,0,1.159-.96,4.322,4.322,0,0,0,.5-1.3,30.587,30.587,0,0,0,1.276-7.069,5.708,5.708,0,0,0-.544-2.885,5.855,5.855,0,0,1-.8-1.516c-.115-.562.255-1.276.837-1.215a3.436,3.436,0,0,1-1.532-.291,1.177,1.177,0,0,1-.641-1.3c-1.3.166-2.242-1.116-3.252-1.945a.881.881,0,0,0-.618-.255,2.229,2.229,0,0,0-.511.2c-.511.179-1.044-.161-1.568-.309-1.4-.393-3.189.557-4.23-.465.1.651-.7,1.088-1.358,1.075a5.576,5.576,0,0,0-1.961-.036,1.276,1.276,0,0,1-.73,1.828l.309.674a1.741,1.741,0,0,0-1.34,1.256,16.971,16.971,0,0,0-.174,4.623C599.668,118.105,600.258,122.867,599.841,123.094Z" transform="translate(-460.021 -98.358)" fill="#192534"/>
        <path id="Path_7421" data-name="Path 7421" d="M603.338,197.076c-4.634,5.211-5.813,12.545-6.8,19.451l-1.455,10.2c-.378,2.645-.766,5.29-1.1,7.942a20.92,20.92,0,0,0-.194,5.471,29.837,29.837,0,0,0,1.072,4.184,39.456,39.456,0,0,1,1.532,11.1c.309-.909,1.379-1.276,2.318-1.481a37.482,37.482,0,0,1,23.451,2.5c1.289-3.612,1.047-7.564,1.407-11.384.511-5.445,2.27-10.722,2.79-16.158.191-2.024.214-4.059.235-6.094a20.4,20.4,0,0,0-.281-4.465,18.742,18.742,0,0,0-1.838-4.6A119.764,119.764,0,0,0,617.5,201.9q-1.925-2.88-4.016-5.645-1.059-1.4-2.162-2.773c-.712-.886-1.021-1.654-2.152-1.123A19.978,19.978,0,0,0,603.338,197.076Z" transform="translate(-455.647 -160.993)" fill="#b0bec5"/>
        <path id="Path_7422" data-name="Path 7422" d="M621,375.765a25.022,25.022,0,0,1-3.388-.107,7.35,7.35,0,0,0-2.5,0,2.6,2.6,0,0,0-.973.477.733.733,0,0,0,.416,1.276l.873.077a2.455,2.455,0,0,1,1.562.511.975.975,0,0,1,.317.615c.054.595-.462.919-.924,1.167a7.324,7.324,0,0,0-1.8,1.2,2.5,2.5,0,0,0-.748,1.532.3.3,0,0,0,.434.273c1.021-.511,1.688-2.024,2.808-1.772a4.549,4.549,0,0,0-2.466,1.9,1.144,1.144,0,0,0,1.532,1.616,5.049,5.049,0,0,0,.48-.319,11.8,11.8,0,0,0,2.025-2.1c-.817,1.723-1.644,3.74-.7,5.453a.544.544,0,0,0,.511.3c.3-.031.383-.309.431-.554a7.724,7.724,0,0,1,.579-2.323c.9-1.629,3.115-1.787,4.8-2.581a7.7,7.7,0,0,0,3.97-5.121,3.936,3.936,0,0,0,.1-1.945,2.2,2.2,0,0,0-3.319-1.085A6.865,6.865,0,0,1,621,375.765Z" transform="translate(-470.652 -296.312)" fill="#fbbebe"/>
        <path id="Path_7423" data-name="Path 7423" d="M630.836,233.378c1.787,2.76,4.889,4.315,7.549,6.252a6.328,6.328,0,0,1,1.67,1.588,5.45,5.45,0,0,1,.628,3.574,22.642,22.642,0,0,1-1.2,4.7l-1.116,3.332a20.639,20.639,0,0,1-2.783,6.048,2.553,2.553,0,0,0-.73,1.5,1.94,1.94,0,0,0,.327.914,6.147,6.147,0,0,0,3.9,2.788,2.977,2.977,0,0,0,1.468,0,3.977,3.977,0,0,0,1.688-1.3,45.143,45.143,0,0,0,6.255-8.08,42.28,42.28,0,0,0,3.485-9.321,19.625,19.625,0,0,0,.766-3.607,13.185,13.185,0,0,0-1.4-6.671,32.916,32.916,0,0,0-3.738-5.78,40.214,40.214,0,0,0-4.378-5.024c-2.778-2.6-6.176-4.123-9.893-2.65-2.625,1.042-3.607,3.214-3.842,6A9.124,9.124,0,0,0,630.836,233.378Z" transform="translate(-482.282 -182.5)" opacity="0.1"/>
        <path id="Path_7424" data-name="Path 7424" d="M634.445,230.717c1.787,2.76,4.891,4.314,7.549,6.252a6.349,6.349,0,0,1,1.662,1.6,5.448,5.448,0,0,1,.628,3.574,22.644,22.644,0,0,1-1.208,4.7l-1.116,3.319a20.665,20.665,0,0,1-2.783,6.048,2.557,2.557,0,0,0-.728,1.5,1.894,1.894,0,0,0,.327.911,6.145,6.145,0,0,0,3.9,2.79,2.987,2.987,0,0,0,1.471,0,3.986,3.986,0,0,0,1.688-1.294,45.236,45.236,0,0,0,6.255-8.08,42.252,42.252,0,0,0,3.485-9.323,19.427,19.427,0,0,0,.766-3.6,13.224,13.224,0,0,0-1.4-6.673,32.687,32.687,0,0,0-3.737-5.78,40.254,40.254,0,0,0-4.389-5c-2.775-2.594-6.173-4.123-9.89-2.647-2.627,1.042-3.607,3.212-3.845,6a9.132,9.132,0,0,0,1.361,5.711Z" transform="translate(-484.962 -180.539)" fill="#b0bec5"/>
        <path id="Path_7425" data-name="Path 7425" d="M826.116,603.256a9.448,9.448,0,0,1-.2,1.981c-.026.123-.054.255-.082.36-.725,2.908-2.77,5.034-5.211,5.17h-.255c-2.581,0-4.764-2.226-5.484-5.292-.02-.082-.038-.163-.056-.255a9.448,9.448,0,0,1-.2-1.981c0-4.154,2.571-7.518,5.744-7.518S826.116,599.11,826.116,603.256Z" transform="translate(-620.182 -461.506)" fill="#3f3d56"/>
        <path id="Path_7426" data-name="Path 7426" d="M826.146,603.294a9.444,9.444,0,0,1-.2,1.981c-.026.123-.054.255-.082.36H825.6a11.685,11.685,0,0,1-1.879-.255,11.475,11.475,0,0,1-1.675.383,11.714,11.714,0,0,1-1.312.123h-.444a11.839,11.839,0,0,1-1.574-.1,3.934,3.934,0,0,0-3.8-.255c-.02-.082-.038-.163-.056-.255a9.439,9.439,0,0,1-.2-1.981c0-4.154,2.571-7.518,5.744-7.518S826.146,599.148,826.146,603.294Z" transform="translate(-620.212 -461.543)" opacity="0.1"/>
        <path id="Path_7427" data-name="Path 7427" d="M798.229,521.011a11.627,11.627,0,0,0-1.251-5.262l-6.755,2.1,5.93-3.487a11.674,11.674,0,0,0-8.772-5,11.647,11.647,0,0,0-.911-1.2l-9.7,3.02,7.958-4.68a11.675,11.675,0,0,0-18.381,6.227l8.31,9.566-9.014-6.52a15.623,15.623,0,0,0,17.924,20.809,11.687,11.687,0,0,0,14.2-11.4c0-.255,0-.511-.026-.766A11.648,11.648,0,0,0,798.229,521.011Z" transform="translate(-580.04 -393.267)" fill="#b0bec5"/>
        <path id="Path_7428" data-name="Path 7428" d="M797.976,571.037a31.123,31.123,0,0,0-10.809-.138c-4.057.671-8.2,2.147-12.17,1.07-2.328-.633-4.34-2.1-6.615-2.913a12.556,12.556,0,0,0-6.829-.409,18.943,18.943,0,0,0,21.948,15.8,11.688,11.688,0,0,0,14.2-11.4c0-.255,0-.51-.026-.766A11.531,11.531,0,0,0,797.976,571.037Z" transform="translate(-579.99 -441.128)" opacity="0.1"/>
      </g>
    </g>
    <g id="Group_3234" data-name="Group 3234" transform="translate(4.012 -10.262)">
      <path id="Icon_ionic-ios-arrow-back" data-name="Icon ionic-ios-arrow-back" d="M15.217,17.7,23.926,9A1.645,1.645,0,1,0,21.6,6.674l-9.867,9.86a1.642,1.642,0,0,0-.048,2.268l9.908,9.929a1.645,1.645,0,0,0,2.33-2.323Z" transform="translate(362.579 30.069)" fill="#fff"/>
      <path id="Icon_ionic-ios-arrow-back-2" data-name="Icon ionic-ios-arrow-back" d="M3.967,11.506l8.709-8.7A1.645,1.645,0,1,0,10.346.481L.479,10.341a1.642,1.642,0,0,0-.048,2.268l9.908,9.929a1.645,1.645,0,1,0,2.33-2.323Z" transform="translate(377.472 59.28) rotate(180)" fill="#fff"/>
    </g>
    <text id="Session_3_De-addiction_stage" data-name="Session 3
De-addiction stage" transform="translate(21 26)" fill="#fff" font-size="16" font-family="ArialMT, Arial"><tspan x="0" y="14">Session 3</tspan><tspan font-size="24" font-family="Arial-BoldMT, Arial" font-weight="700"><tspan x="0" y="49">De-addiction stage</tspan></tspan></text>
    <g id="Component_119_310" data-name="Component 119 – 310" transform="translate(0 779.278)">
      <rect id="Rectangle_1927" data-name="Rectangle 1927" width="412" height="67" transform="translate(0 0.722)" fill="#102646"/>
      <path id="Path_4714" data-name="Path 4714" d="M1053,4508.186h411.151" transform="translate(-1053 -4508.186)" fill="none" stroke="#fff" stroke-width="2" opacity="0.206"/>
      <g id="Group_3096" data-name="Group 3096" transform="translate(-3 -997.186)">
        <text id="Next" transform="translate(318 1038)" fill="#f2f5f7" font-size="18" font-family="ArialMT, Arial"><tspan x="0" y="0">Next</tspan></text>
        <path id="Icon_ionic-ios-arrow-back-3" data-name="Icon ionic-ios-arrow-back" d="M14.033,14.264l6.109-6.1a1.154,1.154,0,0,0-1.634-1.629l-6.921,6.916a1.152,1.152,0,0,0-.034,1.591L18.5,22a1.154,1.154,0,1,0,1.634-1.629Z" transform="translate(389.251 1046.266) rotate(180)" fill="#f2f5f7"/>
      </g>
      <g id="Group_3224" data-name="Group 3224" transform="translate(2.529 7.076)">
        <g id="Group_3212" data-name="Group 3212" transform="translate(34.47 14.737)">
          <text id="Back" transform="translate(19.06 18)" fill="#fff" font-size="18" font-family="ArialMT, Arial"><tspan x="0" y="0">Back</tspan></text>
          <path id="Icon_ionic-ios-arrow-back-4" data-name="Icon ionic-ios-arrow-back" d="M14.033,14.264l6.109-6.1a1.154,1.154,0,0,0-1.634-1.629l-6.921,6.916a1.152,1.152,0,0,0-.034,1.591L18.5,22a1.154,1.154,0,1,0,1.634-1.629Z" transform="translate(-11.251 -3.193)" fill="#fff"/>
        </g>
      </g>
    </g>
  </g>
</svg>
