<svg xmlns="http://www.w3.org/2000/svg" xmlns:xlink="http://www.w3.org/1999/xlink" width="412" height="847" viewBox="0 0 412 847">
  <defs>
    <linearGradient id="linear-gradient" x1="0.5" x2="0.5" y2="1" gradientUnits="objectBoundingBox">
      <stop offset="0" stop-color="#37aadd"/>
      <stop offset="1" stop-color="#1f64cc"/>
    </linearGradient>
    <clipPath id="clip-OCD_session_4_23">
      <rect width="412" height="847"/>
    </clipPath>
  </defs>
  <g id="OCD_session_4_23" data-name="OCD session 4 – 23" clip-path="url(#clip-OCD_session_4_23)">
    <rect width="412" height="847" fill="#102646"/>
    <g id="Group_3103" data-name="Group 3103" transform="translate(-4 65.864)">
      <g id="Group_1500" data-name="Group 1500" transform="translate(71 65)">
        <text id="OBQ-44_Questionnaire" data-name="OBQ-44 Questionnaire" transform="translate(0 0.136)" fill="#1e64cc" font-size="24" font-family="Arial-BoldMT, Arial" font-weight="700"><tspan x="0" y="22">OBQ-44 Questionnaire</tspan></text>
      </g>
      <g id="Group_3103-2" data-name="Group 3103" transform="translate(25 59)">
        <g id="Group_3157" data-name="Group 3157">
          <rect id="Rectangle_1722" data-name="Rectangle 1722" width="371" height="600" rx="16" transform="translate(0 0.136)" fill="url(#linear-gradient)"/>
          <text id="Action" transform="translate(99 24.136)" fill="#fff" font-size="16" font-family="ArialMT, Arial"><tspan x="64.266" y="14">Action</tspan></text>
          <text id="_In_this_stage_the_person_generally_put_their_plans_into_actions_for_at_least_a_day_or_so._By_doing_this_the_person_generally_faces_new_roadblocks_and_realizes_that_there_is_a_night_and_a_day_difference_between_thinking_and_doing._If_the_person_continues" data-name=" In this stage, the person generally put their plans into actions for at least a day or so. By doing this, the person generally faces new roadblocks and realizes that there is a night and a day difference between thinking and doing. If the person continues" transform="translate(28 348.136)" fill="#fff" font-size="12" font-family="ArialMT, Arial"><tspan x="15.079" y="11" xml:space="preserve"> In this stage, the person generally put their plans into </tspan><tspan x="8.083" y="36">actions for at least a day or so. By doing this, the person </tspan><tspan x="1.746" y="61">generally faces new roadblocks and realizes that there is a </tspan><tspan x="7.166" y="86">night and a day difference between thinking and doing. If </tspan><tspan x="10.403" y="111">the person continues action phase for about 2-3 month, </tspan><tspan x="1.743" y="136">then enters the next stage which is called as “maintenance </tspan><tspan x="13.424" y="161">phase”. For example, an addicted person will not drink </tspan><tspan x="7.418" y="186">alcohol at all; he/she will deny his/her “drinking buddies”.</tspan></text>
        </g>
      </g>
    </g>
    <g id="Group_1193" data-name="Group 1193" transform="translate(3.371 -49.643)">
      <g id="Ellipse_12" data-name="Ellipse 12" transform="translate(177.629 798.642)" fill="none" stroke="#0e58c7" stroke-width="1">
        <circle cx="4" cy="4" r="4" stroke="none"/>
        <circle cx="4" cy="4" r="3.5" fill="none"/>
      </g>
      <g id="Ellipse_13" data-name="Ellipse 13" transform="translate(191.629 798.642)" fill="none" stroke="#0e58c7" stroke-width="1">
        <circle cx="4" cy="4" r="4" stroke="none"/>
        <circle cx="4" cy="4" r="3.5" fill="none"/>
      </g>
      <g id="Ellipse_91" data-name="Ellipse 91" transform="translate(206.629 798.642)" fill="none" stroke="#0e58c7" stroke-width="1">
        <circle cx="4" cy="4" r="4" stroke="none"/>
        <circle cx="4" cy="4" r="3.5" fill="none"/>
      </g>
      <g id="Ellipse_92" data-name="Ellipse 92" transform="translate(220.629 798.642)" fill="#0e58c7" stroke="#0e58c7" stroke-width="1">
        <circle cx="4" cy="4" r="4" stroke="none"/>
        <circle cx="4" cy="4" r="3.5" fill="none"/>
      </g>
    </g>
    <g id="Group_3932" data-name="Group 3932">
      <path id="Path_5920" data-name="Path 5920" d="M9465.524,14761.509c6.567-31.59,16.01-89.273,76.558-71.347s40.628,29.124,97.831,21.63,86.675,95.53,35.142,93.989-30.141,11.445-69.951,14.13-54.4,11.21-89.292-3.391S9458.957,14793.1,9465.524,14761.509Z" transform="translate(-9383 -14424.288)" fill="#d2dff2" opacity="0.6"/>
      <circle id="Ellipse_599" data-name="Ellipse 599" cx="2.5" cy="2.5" r="2.5" transform="translate(113 264)" fill="#1e64cc"/>
      <circle id="Ellipse_600" data-name="Ellipse 600" cx="4.5" cy="4.5" r="4.5" transform="translate(83 366)" fill="#1e64cc"/>
      <circle id="Ellipse_601" data-name="Ellipse 601" cx="7.5" cy="7.5" r="7.5" transform="translate(293 306)" fill="#fe7614"/>
      <g id="Obsessive_compulsive_disorder-pana" data-name="Obsessive compulsive disorder-pana" transform="translate(73.484 175.085)">
        <g id="freepik--background-complete--inject-83" transform="translate(42.864 49.93)">
          <path id="Path_8140" data-name="Path 8140" d="M113,316.429l4.683.993L113,318.79a1.675,1.675,0,0,0-1.174,1.269l-1.17,5.611-1.295-5.5a1.683,1.683,0,0,0-1.265-1.256l-4.683-1.066,4.812-1.355a1.679,1.679,0,0,0,1.2-1.295l1.075-5.4,1.213,5.361a1.675,1.675,0,0,0,1.29,1.269Z" transform="translate(-86.301 -197.64)" fill="#e0e0e0"/>
          <path id="Path_8141" data-name="Path 8141" d="M68.79,413.753l2.456.518-2.46.721a.863.863,0,0,0-.6.665l-.617,2.944-.678-2.892a.863.863,0,0,0-.665-.656l-2.456-.561,2.525-.712a.885.885,0,0,0,.63-.678l.561-2.831.634,2.814a.885.885,0,0,0,.669.669Z" transform="translate(-63.77 -254.747)" fill="#e0e0e0"/>
          <path id="Path_8142" data-name="Path 8142" d="M151.782,311.6l1.424.3-1.424.432a.5.5,0,0,0-.358.384l-.358,1.726-.393-1.679a.514.514,0,0,0-.388-.38l-1.424-.324,1.467-.432a.518.518,0,0,0,.363-.393l.328-1.644.367,1.631A.522.522,0,0,0,151.782,311.6Z" transform="translate(-112.135 -197.52)" fill="#e0e0e0"/>
          <path id="Path_8143" data-name="Path 8143" d="M168.1,378.459l1.429.3-1.429.432a.514.514,0,0,0-.358.388l-.354,1.7-.393-1.675a.527.527,0,0,0-.388-.384l-1.424-.324,1.467-.432a.509.509,0,0,0,.363-.393l.328-1.644.367,1.631A.514.514,0,0,0,168.1,378.459Z" transform="translate(-121.411 -235.512)" fill="#e0e0e0"/>
          <path id="Path_8144" data-name="Path 8144" d="M88.22,400.983l1.174.246-1.174.345a.432.432,0,0,0-.293.315l-.3,1.407-.324-1.381a.432.432,0,0,0-.315-.315l-1.165-.255,1.2-.341a.432.432,0,0,0,.3-.324l.268-1.351.3,1.342A.432.432,0,0,0,88.22,400.983Z" transform="translate(-76.303 -248.529)" fill="#e0e0e0"/>
          <path id="Path_8145" data-name="Path 8145" d="M269.01,431.862l1.174.246-1.174.341a.432.432,0,0,0-.293.319l-.293,1.4-.324-1.377a.432.432,0,0,0-.315-.315l-1.174-.268,1.2-.337a.432.432,0,0,0,.3-.324l.272-1.351.3,1.342A.432.432,0,0,0,269.01,431.862Z" transform="translate(-179.064 -266.075)" fill="#e0e0e0"/>
          <path id="Path_8146" data-name="Path 8146" d="M196.69,243.272l1.174.25-1.174.341a.432.432,0,0,0-.293.319l-.293,1.4-.324-1.377a.432.432,0,0,0-.315-.315l-1.174-.268,1.2-.341a.432.432,0,0,0,.3-.324l.268-1.351.3,1.342A.432.432,0,0,0,196.69,243.272Z" transform="translate(-137.957 -158.881)" fill="#e0e0e0"/>
          <path id="Path_8147" data-name="Path 8147" d="M448.56,332.282l1.174.25-1.174.341a.432.432,0,0,0-.293.319l-.293,1.4-.324-1.377a.432.432,0,0,0-.319-.315l-1.17-.268,1.2-.341a.406.406,0,0,0,.3-.319l.272-1.355.3,1.342A.432.432,0,0,0,448.56,332.282Z" transform="translate(-281.12 -209.474)" fill="#e0e0e0"/>
          <path id="Path_8148" data-name="Path 8148" d="M403.5,254.122l1.174.246-1.174.345a.432.432,0,0,0-.293.315l-.293,1.407-.324-1.381a.432.432,0,0,0-.319-.315l-1.17-.263,1.2-.341a.432.432,0,0,0,.3-.324l.272-1.351.3,1.342A.432.432,0,0,0,403.5,254.122Z" transform="translate(-255.508 -165.048)" fill="#e0e0e0"/>
          <path id="Path_8149" data-name="Path 8149" d="M309.834,103.922l1.17.25-1.17.341a.432.432,0,0,0-.294.319l-.293,1.4-.324-1.377a.432.432,0,0,0-.319-.315l-1.174-.268,1.208-.341a.432.432,0,0,0,.3-.324l.268-1.351.306,1.342A.432.432,0,0,0,309.834,103.922Z" transform="translate(-202.266 -79.674)" fill="#e0e0e0"/>
          <path id="Path_8150" data-name="Path 8150" d="M193.514,388.112l2.374.5-2.374.691a.863.863,0,0,0-.6.647l-.6,2.84-.656-2.788a.863.863,0,0,0-.639-.639l-2.378-.539,2.443-.691a.863.863,0,0,0,.609-.652l.544-2.736.613,2.719A.863.863,0,0,0,193.514,388.112Z" transform="translate(-134.752 -240.241)" fill="#e0e0e0"/>
          <path id="Path_8151" data-name="Path 8151" d="M205.15,268.326l2.374.5-2.374.695a.863.863,0,0,0-.6.643l-.591,2.844-.656-2.792a.863.863,0,0,0-.643-.634l-2.374-.539,2.443-.691a.863.863,0,0,0,.6-.656l.544-2.736.613,2.719a.863.863,0,0,0,.656.647Z" transform="translate(-141.368 -172.153)" fill="#e0e0e0"/>
          <path id="Path_8152" data-name="Path 8152" d="M281.891,68.412l2.374.5-2.374.695a.863.863,0,0,0-.6.647L280.7,73.1l-.673-2.792a.863.863,0,0,0-.643-.634l-2.374-.54,2.443-.691a.863.863,0,0,0,.6-.652l.544-2.736.617,2.715A.863.863,0,0,0,281.891,68.412Z" transform="translate(-184.975 -58.524)" fill="#e0e0e0"/>
          <path id="Path_8153" data-name="Path 8153" d="M434.766,200.841l4.079.863-4.079,1.191A1.467,1.467,0,0,0,433.739,204l-1.032,4.881-1.114-4.782a1.472,1.472,0,0,0-1.1-1.092l-4.079-.928,4.2-1.183a1.472,1.472,0,0,0,1.04-1.126l.937-4.7,1.057,4.67a1.467,1.467,0,0,0,1.126,1.1Z" transform="translate(-269.894 -132.427)" fill="#e0e0e0"/>
          <rect id="Rectangle_1930" data-name="Rectangle 1930" width="38.184" height="39.807" transform="translate(3.289 0.013)" fill="#e0e0e0"/>
          <rect id="Rectangle_1931" data-name="Rectangle 1931" width="38.184" height="39.807" transform="translate(0.699 0.013)" fill="#fafafa"/>
          <path id="Path_8154" data-name="Path 8154" d="M103.575,89.758H65.37V49.93h38.205Zm-38.184-.022h38.162V49.96H65.392Z" transform="translate(-64.679 -49.93)" fill="#e0e0e0"/>
          <rect id="Rectangle_1932" data-name="Rectangle 1932" width="27.92" height="29.103" transform="translate(5.835 5.365)" fill="#fafafa"/>
          <path id="Path_8155" data-name="Path 8155" d="M70.577,130.24a4.787,4.787,0,0,1-.691.8c-.432.47-1.07,1.109-1.774,1.8s-1.347,1.295-1.826,1.748a4.208,4.208,0,0,1-.807.669,5.02,5.02,0,0,1,.686-.8c.432-.47,1.075-1.1,1.778-1.8s1.351-1.295,1.83-1.748A4.221,4.221,0,0,1,70.577,130.24Z" transform="translate(-64.742 -95.578)" fill="#e0e0e0"/>
          <path id="Path_8156" data-name="Path 8156" d="M142,130.07a4.454,4.454,0,0,1,.8.691c.47.432,1.109,1.07,1.8,1.774s1.295,1.347,1.726,1.821a4.475,4.475,0,0,1,.673.807,4.221,4.221,0,0,1-.8-.682c-.47-.432-1.109-1.075-1.8-1.778s-1.295-1.355-1.752-1.83A4.446,4.446,0,0,1,142,130.07Z" transform="translate(-108.236 -95.481)" fill="#e0e0e0"/>
          <path id="Path_8157" data-name="Path 8157" d="M141.8,55.952a4.523,4.523,0,0,1,.686-.8c.432-.47,1.075-1.1,1.778-1.8s1.347-1.295,1.821-1.726a4.148,4.148,0,0,1,.807-.673,4.16,4.16,0,0,1-.691.781c-.432.47-1.075,1.109-1.778,1.8s-1.351,1.295-1.826,1.748a4.445,4.445,0,0,1-.8.669Z" transform="translate(-108.122 -50.51)" fill="#e0e0e0"/>
          <path id="Path_8158" data-name="Path 8158" d="M70.528,55.993a4.523,4.523,0,0,1-.8-.686c-.47-.432-1.1-1.075-1.8-1.778s-1.295-1.347-1.726-1.821a4.791,4.791,0,0,1-.673-.807,4.16,4.16,0,0,1,.8.686c.47.432,1.109,1.075,1.8,1.778s1.295,1.351,1.726,1.826A4.446,4.446,0,0,1,70.528,55.993Z" transform="translate(-64.77 -50.481)" fill="#e0e0e0"/>
          <path id="Path_8159" data-name="Path 8159" d="M104.968,91.281a1.034,1.034,0,0,1,0-.142V89.162c0-1.381,0-3.384-.03-5.93,0-5.1-.03-12.361-.052-21.053l.108.108H77.151l.121-.121v29.1l-.1-.108,20.16.056,5.663.026h.043l-5.641.03-20.268.1H77V62.04h28.076v.108c-.026,8.723-.043,16.008-.056,21.123,0,2.534,0,4.532-.03,5.9v1.947A.554.554,0,0,1,104.968,91.281Z" transform="translate(-71.29 -56.813)" fill="#e0e0e0"/>
          <rect id="Rectangle_1933" data-name="Rectangle 1933" width="9.314" height="9.314" transform="translate(15.136 15.257)" fill="#ebebeb"/>
          <rect id="Rectangle_1934" data-name="Rectangle 1934" width="38.184" height="39.807" transform="translate(3.254 49.729)" fill="#e0e0e0"/>
          <rect id="Rectangle_1935" data-name="Rectangle 1935" width="38.184" height="39.807" transform="translate(0.665 49.729)" fill="#fafafa"/>
          <path id="Path_8160" data-name="Path 8160" d="M103.5,204.958H65.29V165.13H103.5Zm-38.188-.026h38.162V165.152H65.312Z" transform="translate(-64.634 -115.41)" fill="#e0e0e0"/>
          <rect id="Rectangle_1936" data-name="Rectangle 1936" width="27.92" height="29.103" transform="translate(5.801 55.081)" fill="#fafafa"/>
          <path id="Path_8161" data-name="Path 8161" d="M70.5,245.43a4.691,4.691,0,0,1-.691.8c-.432.47-1.07,1.1-1.774,1.8s-1.347,1.295-1.826,1.726a4.6,4.6,0,0,1-.807.673,4.605,4.605,0,0,1,.691-.781c.432-.47,1.075-1.109,1.778-1.8s1.351-1.295,1.83-1.748a4.445,4.445,0,0,1,.8-.669Z" transform="translate(-64.696 -161.052)" fill="#e0e0e0"/>
          <path id="Path_8162" data-name="Path 8162" d="M141.89,245.27a4.317,4.317,0,0,1,.8.686c.47.432,1.109,1.075,1.8,1.774s1.295,1.351,1.726,1.826a4.149,4.149,0,0,1,.673.807,4.548,4.548,0,0,1-.8-.686c-.47-.432-1.109-1.075-1.8-1.778s-1.295-1.351-1.752-1.826A4.632,4.632,0,0,1,141.89,245.27Z" transform="translate(-108.173 -160.961)" fill="#e0e0e0"/>
          <path id="Path_8163" data-name="Path 8163" d="M141.72,171.125a4.6,4.6,0,0,1,.686-.8c.432-.47,1.075-1.109,1.778-1.8s1.347-1.295,1.821-1.748a4.366,4.366,0,0,1,.807-.669,4.4,4.4,0,0,1-.686.794c-.432.47-1.075,1.109-1.778,1.8S143,170,142.523,170.456A4.221,4.221,0,0,1,141.72,171.125Z" transform="translate(-108.077 -115.967)" fill="#e0e0e0"/>
          <path id="Path_8164" data-name="Path 8164" d="M70.429,171.21a4.692,4.692,0,0,1-.8-.691c-.47-.432-1.1-1.07-1.8-1.774s-1.286-1.347-1.718-1.808a4.6,4.6,0,0,1-.673-.807,4.606,4.606,0,0,1,.8.686c.47.432,1.109,1.075,1.8,1.778s1.295,1.351,1.726,1.83A4.221,4.221,0,0,1,70.429,171.21Z" transform="translate(-64.719 -115.978)" fill="#e0e0e0"/>
          <path id="Path_8165" data-name="Path 8165" d="M104.933,206.514a.864.864,0,0,1,0-.138v-1.981c0-1.377,0-3.384-.03-5.93,0-5.1-.03-12.357-.052-21.053l.108.108H77.117l.121-.125v29.1l-.1-.1,20.16.052,5.663.03h2.02a.65.65,0,0,1-.125,0H103l-5.641.026-20.225.056H77V177.29h28.054v.108c-.026,8.723-.043,16.008-.056,21.123,0,2.538-.022,4.536-.03,5.909v1.942A1.235,1.235,0,0,1,104.933,206.514Z" transform="translate(-71.29 -122.321)" fill="#e0e0e0"/>
          <rect id="Rectangle_1937" data-name="Rectangle 1937" width="9.318" height="9.314" transform="translate(15.102 64.978)" fill="#ebebeb"/>
        </g>
        <g id="freepik--speech-bubble--inject-83" transform="translate(160.49 60.484)">
          <path id="Path_8166" data-name="Path 8166" d="M359.152,117.678a21.472,21.472,0,0,1-12.918-3.548l-9.5,2.313,4.135-7.337a21.58,21.58,0,1,1,18.278,8.585Z" transform="translate(-336.438 -74.48)" fill="#fff"/>
          <path id="Path_8167" data-name="Path 8167" d="M359.017,117.581s.129-.022.375-.047l1.1-.121c.242-.03.514-.047.811-.095l.962-.2c.35-.073.725-.142,1.122-.237l1.247-.393a20.76,20.76,0,0,0,5.96-3.047,8.082,8.082,0,0,0,.785-.617l.8-.66a9.389,9.389,0,0,0,.773-.729l.773-.781c.5-.544.967-1.152,1.472-1.752l.665-.988a10.14,10.14,0,0,0,.652-1.032,20.113,20.113,0,0,0,1.135-2.262l.505-1.2.4-1.273c.065-.216.134-.432.2-.647a6.1,6.1,0,0,0,.142-.669c.091-.432.186-.9.276-1.364s.1-.932.155-1.4c.026-.237.052-.475.073-.712s0-.483,0-.725V95.155c-.022-.492-.091-.984-.134-1.485-.026-.246-.047-.5-.073-.747s-.095-.5-.142-.747c-.1-.5-.207-1-.311-1.506a23.528,23.528,0,0,0-2.482-5.831,22.443,22.443,0,0,0-4.316-5.054c-.432-.354-.863-.747-1.342-1.075l-1.437-.971c-.5-.289-1.023-.557-1.536-.863-.129-.065-.255-.142-.388-.2l-.406-.173-.816-.345a21.183,21.183,0,0,0-14.355-.609l-.682.211-.341.1-.332.138-1.295.552-.324.142-.311.168-.626.337a12.227,12.227,0,0,0-1.221.729l-1.161.781c-.388.259-.725.583-1.092.863a21.148,21.148,0,0,0-7.73,16.224v1.243c.026.432.043.824.091,1.23a19.8,19.8,0,0,0,.384,2.4,21.451,21.451,0,0,0,3.789,8.274l.039.047-.03.056-4.143,7.337-.095-.121,9.5-2.3h.047a21.744,21.744,0,0,0,5.153,2.525,22.046,22.046,0,0,0,4.165.937,25.26,25.26,0,0,0,2.654.164h.686l-.686.026a22.6,22.6,0,0,1-2.663-.129,21.468,21.468,0,0,1-9.387-3.405h.052l-9.5,2.331-.186.043.095-.164c1.295-2.283,2.65-4.748,4.126-7.337v.1a21.55,21.55,0,0,1-3.837-8.343,20.289,20.289,0,0,1-.393-2.417c-.047-.41-.069-.824-.095-1.239s0-.837,0-1.26a21.273,21.273,0,0,1,5.749-14.476,21.9,21.9,0,0,1,2.059-1.921,13.063,13.063,0,0,1,1.1-.863l1.174-.794a12.836,12.836,0,0,1,1.23-.712l.63-.341.315-.173.328-.138,1.325-.561.337-.138.345-.108.691-.211a21.968,21.968,0,0,1,7.415-.954,22.193,22.193,0,0,1,7.087,1.571l.824.35.41.173c.138.065.263.142.393.211.522.285,1.044.557,1.554.863l1.45.962c.479.332.9.729,1.355,1.088a22.413,22.413,0,0,1,4.368,5.106,23.688,23.688,0,0,1,2.5,5.891l.311,1.519c.047.25.112.5.142.751s.047.5.073.755c.043.5.112,1,.129,1.5s0,.988,0,1.476v.729l-.078.721c-.056.475-.086.95-.16,1.416s-.19.919-.285,1.372c-.047.224-.086.453-.147.673s-.134.432-.2.652c-.134.432-.272.863-.4,1.295l-.514,1.213a20.035,20.035,0,0,1-1.152,2.275,10.274,10.274,0,0,1-.66,1.036c-.229.332-.432.665-.673.993-.509.6-.975,1.217-1.485,1.761l-.786.781a8.321,8.321,0,0,1-.781.734l-.8.66a7.684,7.684,0,0,1-.794.617,20.8,20.8,0,0,1-6.008,3.021l-1.252.38c-.4.095-.781.16-1.131.233l-.967.19c-.3.047-.57.056-.816.082l-1.1.1C359.147,117.576,359.017,117.581,359.017,117.581Z" transform="translate(-336.303 -74.383)" fill="#263238"/>
          <path id="Path_8169" data-name="Path 8169" d="M361.427,124.292a1.111,1.111,0,0,1-.613-.181,2.1,2.1,0,0,1-.885-2.728c.168-.363.367-.522.384-.5s-.117.211-.237.565a2.158,2.158,0,0,0,.824,2.529C361.207,124.189,361.436,124.258,361.427,124.292Z" transform="translate(-349.62 -100.81)" fill="#fff"/>
          <path id="Path_8170" data-name="Path 8170" d="M371.483,144.407a.88.88,0,0,1-.3-.371,2.313,2.313,0,0,1,.095-2.223c.16-.25.306-.363.324-.345a4.29,4.29,0,0,0-.432,1.454A4.341,4.341,0,0,0,371.483,144.407Z" transform="translate(-355.994 -112.513)" fill="#fff"/>
          <path id="Path_8171" data-name="Path 8171" d="M372.971,132.914c-.065,0-.06-.345-.155-.738s-.242-.695-.19-.729.306.237.406.678S373.032,132.922,372.971,132.914Z" transform="translate(-356.943 -106.816)" fill="#fff"/>
          <path id="Path_8172" data-name="Path 8172" d="M390.791,149.611c-.06,0-.186-.281-.281-.665s-.117-.7-.06-.716.186.285.281.665S390.851,149.6,390.791,149.611Z" transform="translate(-367.063 -116.357)" fill="#fff"/>
          <path id="Path_8173" data-name="Path 8173" d="M375.2,104.967a1.328,1.328,0,0,1-.354-.388,2.875,2.875,0,0,1-.242-2.451c.121-.306.246-.462.268-.432a5.611,5.611,0,0,0-.2,1.679A5.508,5.508,0,0,0,375.2,104.967Z" transform="translate(-357.979 -89.905)" fill="#fff"/>
          <rect id="Rectangle_1938" data-name="Rectangle 1938" width="0.872" height="29.265" transform="matrix(0.625, -0.78, 0.78, 0.625, 9.979, 12.355)" fill="#263238"/>
          <g id="Ellipse_665" data-name="Ellipse 665" transform="translate(7.025 5.431)" fill="none" stroke="#263238" stroke-width="1">
            <circle cx="15" cy="15" r="15" stroke="none"/>
            <circle cx="15" cy="15" r="14.5" fill="none"/>
          </g>
        </g>
        <g id="freepik--Character--inject-83" transform="translate(50.845 74.346)">
          <path id="Path_8174" data-name="Path 8174" d="M206.71,360.83l-6.25,11.058,8.731,8.787,9.146-9.922Z" transform="translate(-149.445 -251.061)" fill="#ffbe9d"/>
          <path id="Path_8175" data-name="Path 8175" d="M85.6,434.5l11.83-.281s6.193-3.755,6.681-4.035a25.9,25.9,0,0,1,3.306-.863l18.753,5.874v1.726H82.26v-1.308l2.02-.211Z" transform="translate(-82.26 -289.991)" fill="#e0e0e0"/>
          <path id="Path_8176" data-name="Path 8176" d="M155.426,382.82c-.354-.056-10.307,15.456-10.307,15.456l-11.891,2.18-13.181,7.337a1.27,1.27,0,0,0,1.191,1.588c1.489.1,9.5-3.453,9.5-3.453s-2.741,1.334-2.218,3.051c.613,2.016,5.783.432,5.783.432l11.045-.716a3.625,3.625,0,0,0,2.611-1.372l1.407-1.778,15.46-12.288S163.454,384.007,155.426,382.82Z" transform="translate(-103.725 -263.56)" fill="#b0bec5"/>
          <path id="Path_8177" data-name="Path 8177" d="M149.633,431.238a1.294,1.294,0,0,1-.263.281,7.639,7.639,0,0,1-.824.643,7,7,0,0,1-1.377.729,6.141,6.141,0,0,1-1.869.384,16.711,16.711,0,0,0-1.865.147,5.459,5.459,0,0,0-1.4.552c-.764.432-1.157.8-1.183.768s.073-.117.259-.285a5.992,5.992,0,0,1,.842-.622,5.248,5.248,0,0,1,1.437-.617,14.328,14.328,0,0,1,1.89-.168,6.508,6.508,0,0,0,3.177-1.023C149.2,431.566,149.608,431.207,149.633,431.238Z" transform="translate(-115.563 -291.08)" fill="#263238"/>
          <path id="Path_8178" data-name="Path 8178" d="M179.75,422.22c-.06,0-.207-.863-.695-1.847a18.049,18.049,0,0,1-.885-1.783,6.043,6.043,0,0,1,1.088,1.688,3.707,3.707,0,0,1,.492,1.942Z" transform="translate(-136.775 -283.892)" fill="#263238"/>
          <path id="Path_8179" data-name="Path 8179" d="M184.183,423.078a2.646,2.646,0,0,1-.716-.483,9.12,9.12,0,0,1-2.495-3.31,2.658,2.658,0,0,1-.272-.824,24.467,24.467,0,0,0,1.506,2.486A23.764,23.764,0,0,0,184.183,423.078Z" transform="translate(-138.213 -283.818)" fill="#263238"/>
          <path id="Path_8180" data-name="Path 8180" d="M197.065,408.944a1.342,1.342,0,0,1-.06-.388c0-.25-.043-.613-.047-1.062a21.581,21.581,0,0,1,.237-3.5,22.444,22.444,0,0,1,.8-3.423c.138-.432.263-.768.363-1a1.243,1.243,0,0,1,.168-.35,13.385,13.385,0,0,1-.375,1.4,28.054,28.054,0,0,0-1.032,6.875A13.65,13.65,0,0,1,197.065,408.944Z" transform="translate(-147.453 -272.882)" fill="#263238"/>
          <g id="Group_3499" data-name="Group 3499" transform="translate(49.608 127.767)" opacity="0.3">
            <path id="Path_8181" data-name="Path 8181" d="M198.253,402.53a18.127,18.127,0,0,0-1.006,7.406,19.181,19.181,0,0,0,1.006-7.406Z" transform="translate(-197.199 -402.53)"/>
          </g>
          <path id="Path_8182" data-name="Path 8182" d="M316.12,412.4l1.243-9.9,47.1-26.194s6.906,11.166,9.547,36.1l-33.1-.155h0Z" transform="translate(-215.186 -259.86)" fill="#263238"/>
          <path id="Path_8183" data-name="Path 8183" d="M249.111,217.487l-6.008,6.681-.993,13.3,11.558,23.7,13.254,27.9c1.092,2.4,2.193,7.916,1.416,11.053,0,0-2.158,7.6,8.8,8.1,5.973.276,12.844-1.295,17.855-2.792l.129-.039a34.135,34.135,0,0,0,20.147-16.138l7.687-10.613c-1.7-6.616-4.316-4.812-5.348-7.311-4.972-12-9.064-20.674-9.064-20.674l-16.47-37.946c-2.464-5.572-5.572-7.613-9.193-8.507a17.264,17.264,0,0,0-8.166.026l-8.093,1.947Z" transform="translate(-173.119 -161.763)" fill="#455a64"/>
          <path id="Path_8184" data-name="Path 8184" d="M224.561,313.128c3.375-3.884,8.848-30.665,8.848-30.665l-8.455-31.373s-3.91,4.45-5.123,8.705l-7.087,37.493s-2.59.54-2.564,4.515C210.184,304.479,224.561,313.128,224.561,313.128Z" transform="translate(-154.969 -188.685)" fill="#455a64"/>
          <path id="Path_8185" data-name="Path 8185" d="M260.447,320.856a1.79,1.79,0,0,1-.16-.268l-.432-.786-1.506-2.913c-1.26-2.49-2.987-5.887-4.89-9.642l-4.817-9.672-1.442-2.944c-.16-.332-.285-.6-.38-.8a1.416,1.416,0,0,1-.121-.289,1.643,1.643,0,0,1,.16.268l.432.786,1.506,2.913c1.26,2.486,2.987,5.887,4.89,9.646l4.834,9.672,1.442,2.944c.155.332.281.6.38.8a1.337,1.337,0,0,1,.1.285Z" transform="translate(-175.728 -212.813)" fill="#263238"/>
          <path id="Path_8186" data-name="Path 8186" d="M386.155,366.4a2.154,2.154,0,0,1-.1.363l-.328,1.027-.242.742c-.095.272-.211.557-.332.863-.246.622-.5,1.338-.863,2.093-.173.384-.354.786-.539,1.2s-.432.833-.643,1.273c-.432.889-.975,1.791-1.532,2.754a47.047,47.047,0,0,1-9.223,11.04c-.863.716-1.644,1.416-2.439,2-.4.293-.764.6-1.139.863s-.742.5-1.088.747c-.682.488-1.342.863-1.908,1.217-.285.173-.548.337-.794.479l-.691.354-.954.505a3.19,3.19,0,0,1-.341.164,2.11,2.11,0,0,1,.319-.2l.932-.544.673-.384c.246-.147.5-.319.786-.5.557-.363,1.208-.747,1.882-1.243l1.075-.755c.371-.263.738-.565,1.126-.863.79-.587,1.575-1.295,2.417-2a48.239,48.239,0,0,0,9.184-10.993c.557-.954,1.1-1.852,1.541-2.732.224-.432.458-.863.652-1.265l.557-1.191c.367-.751.63-1.459.885-2.072.125-.311.246-.6.35-.863l.259-.734.367-1.014A2.624,2.624,0,0,1,386.155,366.4Z" transform="translate(-241.832 -254.227)" fill="#263238"/>
          <g id="Group_3500" data-name="Group 3500" transform="translate(113.891 94.3)" opacity="0.3">
            <path id="Path_8187" data-name="Path 8187" d="M346.14,341.4a51.725,51.725,0,0,0,11.878-1.636,20.165,20.165,0,0,0,9.042-5.227,13.62,13.62,0,0,0,3.884-9.543,23.152,23.152,0,0,1-10.289,10.492c-1.472.747-4.126,2.05-4.428,1.662h0L346.14,341.4" transform="translate(-346.14 -324.99)"/>
          </g>
          <path id="Path_8188" data-name="Path 8188" d="M310.64,334.488c.613-.678,15.671-11.938,15.671-11.938l12.348,13.073-20.76,8.77Z" transform="translate(-212.071 -229.303)" fill="#ffbe9d"/>
          <path id="Path_8189" data-name="Path 8189" d="M336.2,271.488a32.521,32.521,0,0,0,7.285-3.712c8.632-6.66,9.2-12.667,8.08-17.061-1.23-4.834-20.864-38.844-23.03-41.032s-9.012-5.693-15.853,2.115c-3.971,4.536,3.923,17.32,3.923,17.32l14.027,24.549c-3.949-.669-5.753,3.384-5.753,3.384Z" transform="translate(-212.595 -163.61)" fill="#455a64"/>
          <path id="Path_8190" data-name="Path 8190" d="M331.812,287.273a.767.767,0,0,1-.03-.147,4.143,4.143,0,0,1,.242-2.089,3.453,3.453,0,0,1,1.89-1.765,7.7,7.7,0,0,1,3.358-.522l-.086.138c-1.433-2.49-3.142-5.477-4.985-8.684l-6.375-11.222-1.912-3.414c-.211-.393-.38-.7-.509-.937a3.207,3.207,0,0,1-.164-.332,1.946,1.946,0,0,1,.2.311c.138.224.319.531.548.915l1.972,3.379c1.657,2.879,3.923,6.832,6.435,11.2l4.946,8.705.086.147h-.173a7.656,7.656,0,0,0-3.284.479,3.349,3.349,0,0,0-1.852,1.666,3.85,3.85,0,0,0-.324,1.606C331.8,287.088,331.825,287.273,331.812,287.273Z" transform="translate(-219.233 -192.783)" fill="#263238"/>
          <path id="Path_8191" data-name="Path 8191" d="M382.977,304.49a1.615,1.615,0,0,1,.129.281c.073.186.207.458.324.824a11.714,11.714,0,0,1,.613,3.2,12.035,12.035,0,0,1-.1,2.257,14.245,14.245,0,0,1-.622,2.516,16.8,16.8,0,0,1-1.2,2.59,20.512,20.512,0,0,1-1.726,2.529,26.543,26.543,0,0,1-8.356,6.677,22.752,22.752,0,0,1-2.987,1.295c-.363.138-.652.216-.842.276a1.62,1.62,0,0,1-.3.078,1.916,1.916,0,0,1,.285-.121c.19-.073.475-.164.829-.315a27.73,27.73,0,0,0,2.943-1.355,27.4,27.4,0,0,0,8.257-6.681,20.839,20.839,0,0,0,1.726-2.495,17.436,17.436,0,0,0,1.2-2.559,14.209,14.209,0,0,0,.63-2.477,11.743,11.743,0,0,0,.125-2.218,12.4,12.4,0,0,0-.535-3.181c-.1-.367-.224-.643-.281-.837A1.233,1.233,0,0,1,382.977,304.49Z" transform="translate(-244.623 -219.037)" fill="#263238"/>
          <g id="Group_3501" data-name="Group 3501" transform="translate(117.926 90.058)" opacity="0.3">
            <path id="Path_8192" data-name="Path 8192" d="M355.49,315.16a11.256,11.256,0,0,1,7.872,4.609,2.456,2.456,0,0,1,.475.984.971.971,0,0,1-.376.971.988.988,0,0,1-.975-.043,3.233,3.233,0,0,1-.751-.686,32.334,32.334,0,0,0-6.137-5.835" transform="translate(-355.49 -315.16)"/>
          </g>
          <path id="Path_8193" data-name="Path 8193" d="M363.252,323.645c-.035,0-.324-.561-.863-1.459a22.555,22.555,0,0,0-2.344-3.306,18.756,18.756,0,0,0-2.978-2.736c-.833-.617-1.39-.95-1.368-.984a2.122,2.122,0,0,1,.41.2c.259.138.617.363,1.053.656a16.25,16.25,0,0,1,3.051,2.719,18.508,18.508,0,0,1,2.313,3.375c.246.462.432.842.544,1.109A1.844,1.844,0,0,1,363.252,323.645Z" transform="translate(-237.682 -225.102)" fill="#263238"/>
          <path id="Path_8194" data-name="Path 8194" d="M322.466,204.856a13.042,13.042,0,0,0-3.41.587,11.156,11.156,0,0,0-3.306,1.748,10.246,10.246,0,0,0-4.1,7.872,10.993,10.993,0,0,0,.453,3.707,12.8,12.8,0,0,0,1.472,3.133,1.976,1.976,0,0,1-.155-.186,6.618,6.618,0,0,1-.4-.574,9.78,9.78,0,0,1-1.07-2.326,10.976,10.976,0,0,1-.509-3.764,10.315,10.315,0,0,1,4.187-8.032,11.071,11.071,0,0,1,3.384-1.726,9.893,9.893,0,0,1,2.521-.432,6.074,6.074,0,0,1,.695,0A1.054,1.054,0,0,1,322.466,204.856Z" transform="translate(-212.52 -162.404)" fill="#263238"/>
          <path id="Path_8195" data-name="Path 8195" d="M234.977,373.891l-.535-1.053-1.208-.548s-5.179.833-6.439,2.987-6.25,9.84-6.042,11.373,1.519,2.352,2.4,2.024,2.508-2.464,2.508-2.464l.695-.091,8.2,1.886.975-1.683-7.639-2.814,4.156-.41,3.638-3.884Z" transform="translate(-160.975 -257.575)" fill="#e0e0e0"/>
          <path id="Path_8196" data-name="Path 8196" d="M271.416,397.068a4.592,4.592,0,0,0,.682,4.251c1.347,1.774,3.354,4.558,5.244,7.035,1.476,1.929,11.412,7.039,16.781,9.711a4.588,4.588,0,0,0,5.891-1.593,39.528,39.528,0,0,0,4.515-9.357,4.592,4.592,0,0,0-2.408-5.572l-23.112-10.9a4.588,4.588,0,0,0-6.3,2.667Z" transform="translate(-189.636 -267.756)" fill="#e0e0e0"/>
          <path id="Path_8197" data-name="Path 8197" d="M271.386,396.974a.669.669,0,0,1,.065-.233l.22-.678c.2-.6.492-1.472.863-2.59a4.968,4.968,0,0,1,.915-1.752,4.6,4.6,0,0,1,1.908-1.372,4.666,4.666,0,0,1,2.685-.2,6.722,6.722,0,0,1,1.39.531l1.4.656,13.47,6.332,7.954,3.751A4.692,4.692,0,0,1,304.8,405.2a5.222,5.222,0,0,1-.38,2.37c-.263.76-.544,1.515-.863,2.262a40.741,40.741,0,0,1-2.1,4.316q-.583,1.032-1.217,2.011a6.389,6.389,0,0,1-.708.941,4.709,4.709,0,0,1-5.309,1.053c-1.329-.639-2.59-1.295-3.846-1.934-2.495-1.295-4.847-2.533-7.014-3.764-1.088-.613-2.128-1.221-3.1-1.843a17.872,17.872,0,0,1-2.7-1.964,11.753,11.753,0,0,1-.971-1.217c-.3-.406-.591-.8-.863-1.183-.565-.768-1.1-1.493-1.606-2.158s-.962-1.295-1.394-1.886a13.81,13.81,0,0,1-1.118-1.631,4.562,4.562,0,0,1-.453-2.667,3.314,3.314,0,0,1,.233-.924.734.734,0,0,1-.06.233,4.973,4.973,0,0,0-.129.695,4.584,4.584,0,0,0,.488,2.624,13.682,13.682,0,0,0,1.126,1.606l1.411,1.873,1.614,2.158.885,1.178a11.048,11.048,0,0,0,.962,1.2,17.84,17.84,0,0,0,2.68,1.929c.975.613,2.016,1.217,3.1,1.826,2.158,1.221,4.523,2.464,7.014,3.742,1.247.63,2.529,1.295,3.841,1.925a4.48,4.48,0,0,0,4.2-.306,4.546,4.546,0,0,0,.863-.708,6.224,6.224,0,0,0,.682-.906c.432-.652.82-1.295,1.2-2a40.261,40.261,0,0,0,2.093-4.29c.311-.742.587-1.493.863-2.249a4.921,4.921,0,0,0,.371-2.279,4.458,4.458,0,0,0-2.421-3.6l-7.941-3.764-13.453-6.375-1.4-.665a6.754,6.754,0,0,0-1.355-.527,4.536,4.536,0,0,0-2.59.186,4.48,4.48,0,0,0-1.869,1.321,4.942,4.942,0,0,0-.915,1.726c-.388,1.113-.695,1.977-.9,2.59-.1.285-.181.509-.242.669S271.386,396.974,271.386,396.974Z" transform="translate(-189.606 -267.662)" fill="#263238"/>
          <path id="Path_8198" data-name="Path 8198" d="M243.529,355.67s.531-3.807,1.83-4.191,9.387-2.81,9.387-2.81l22.167-15.21,8.654,16.6-20.285,8.2s-.794,1.04-1.679.639c0,0-1.342,1.631-2.054,1.726s-.457.479-.457.479-5.943,9.927-7.372,10.121-3.228-.073-3.177-1.23c0,0-2.676.971-3.539-.056,0,0-2.076,1.58-3.427-.112a20.334,20.334,0,0,1-.962-1.886s-1.8,2.223-3.418,1.45c-1.545-.738-1.2-3.129-.354-4.592S243.529,355.67,243.529,355.67Z" transform="translate(-170.852 -235.504)" fill="#b0bec5"/>
          <path id="Path_8199" data-name="Path 8199" d="M226.158,402.743c-.035,0-.16-.22-.432-.552a4.316,4.316,0,0,0-2.8-1.558,4.556,4.556,0,0,1-.695-.069,1.528,1.528,0,0,1,.708-.086,3.733,3.733,0,0,1,2.918,1.623,1.519,1.519,0,0,1,.3.643Z" transform="translate(-161.819 -273.591)" fill="#263238"/>
          <path id="Path_8200" data-name="Path 8200" d="M238.324,390.94a8.766,8.766,0,0,1-1.088.863c-.682.514-1.631,1.208-2.62,2.05a19.181,19.181,0,0,0-2.344,2.352c-.539.656-.824,1.1-.863,1.079a1.2,1.2,0,0,1,.168-.337,8.325,8.325,0,0,1,.57-.842,15.368,15.368,0,0,1,2.318-2.421,30.079,30.079,0,0,1,2.676-2.011A8.077,8.077,0,0,1,238.324,390.94Z" transform="translate(-167.037 -268.176)" fill="#263238"/>
          <path id="Path_8201" data-name="Path 8201" d="M291.82,415.348l6.388-12.158,11.528,5.266-7.518,13.272Z" transform="translate(-201.374 -275.138)" fill="#fff"/>
          <path id="Path_8202" data-name="Path 8202" d="M269.776,406.849a3.133,3.133,0,0,1-.332.807,17.12,17.12,0,0,1-1.066,1.826,16.6,16.6,0,0,1-1.295,1.675,2.905,2.905,0,0,1-.626.613c-.052-.043.816-1.053,1.726-2.413S269.711,406.819,269.776,406.849Z" transform="translate(-186.956 -277.218)" fill="#263238"/>
          <path id="Path_8203" data-name="Path 8203" d="M261.045,407.24a8.659,8.659,0,0,1-.971,2.495,8.772,8.772,0,0,1-1.528,2.2c-.056-.043.639-1.014,1.329-2.3S260.98,407.218,261.045,407.24Z" transform="translate(-182.459 -277.44)" fill="#263238"/>
          <path id="Path_8204" data-name="Path 8204" d="M250.6,405.309a8.709,8.709,0,0,1-.863,1.86,4.938,4.938,0,0,1-1.247,1.627c-.043-.043.518-.751,1.053-1.726A10.12,10.12,0,0,1,250.6,405.309Z" transform="translate(-176.742 -276.342)" fill="#263238"/>
          <path id="Path_8205" data-name="Path 8205" d="M276.759,386.995c0,.06-2.361-.518-5.24-1.295s-5.179-1.459-5.179-1.515,2.361.518,5.24,1.295S276.776,386.934,276.759,386.995Z" transform="translate(-186.891 -264.334)" fill="#263238"/>
          <path id="Path_8206" data-name="Path 8206" d="M281.271,382.779a2.784,2.784,0,0,1-.833-.2,15.7,15.7,0,0,1-1.925-.751,16.341,16.341,0,0,1-1.817-.984,2.87,2.87,0,0,1-.686-.509c.035-.056,1.148.621,2.59,1.295S281.288,382.692,281.271,382.779Z" transform="translate(-192.387 -262.146)" fill="#263238"/>
          <g id="Group_3502" data-name="Group 3502" transform="translate(87.502 115.995)" opacity="0.3">
            <path id="Path_8207" data-name="Path 8207" d="M290.243,381.4c-.1-.19-.164-.384-.259-.578a16.22,16.22,0,0,0-4.251-5.365c-.164-.134-.384-.272-.57-.168a.367.367,0,0,0-.142.432,1.057,1.057,0,0,0,.255.406c1.61,1.89,2.9,3.7,4.515,5.589C289.911,381.879,290.351,381.62,290.243,381.4Z" transform="translate(-284.999 -375.256)"/>
          </g>
          <path id="Path_8208" data-name="Path 8208" d="M208.67,418.93a6.721,6.721,0,0,1,.716-.967c.462-.578,1.114-1.368,1.847-2.231s1.4-1.636,1.895-2.188a6.144,6.144,0,0,1,.837-.863,6.32,6.32,0,0,1-.716.967c-.462.578-1.114,1.368-1.843,2.231s-1.4,1.636-1.9,2.184A6.717,6.717,0,0,1,208.67,418.93Z" transform="translate(-154.111 -280.533)" fill="#263238"/>
          <path id="Path_8209" data-name="Path 8209" d="M212.747,426.343c-.056,0,.893-2.59,2.119-5.758s2.266-5.7,2.322-5.676-.889,2.59-2.115,5.758S212.807,426.369,212.747,426.343Z" transform="translate(-156.427 -281.8)" fill="#263238"/>
          <path id="Path_8210" data-name="Path 8210" d="M225.416,422.811a36.62,36.62,0,0,1-.078-4.066,37.493,37.493,0,0,1,.151-4.066,36.628,36.628,0,0,1,.078,4.066A37.5,37.5,0,0,1,225.416,422.811Z" transform="translate(-163.572 -281.669)" fill="#263238"/>
          <path id="Path_8211" data-name="Path 8211" d="M188.861,135.827c0-2.2.7-2.939.186-3.349-1.839-1.472-3.479-5.339-3.63-7.057-.35-4.04,3.064-7.592,3.064-7.592.634-2.158,1.511-5.02,4.074-7,2.78-2.158,7.134-4.722,10.617-4.273s6,.665,8.226,3.379l-4.864,43.126c-2.7-.082-5.106-1.787-6.94-3.777s-3.284-4.316-5.179-6.228c-1.424-1.429-1.726-.842-4.178-4.083C188.71,136.954,188.84,137.843,188.861,135.827Z" transform="translate(-140.88 -106.5)" fill="#263238"/>
          <path id="Path_8212" data-name="Path 8212" d="M233.995,128.247c-3.047-8.736-10.673-14.243-19.318-10.954l-.781.354a16.539,16.539,0,0,0-8.809,20.631c2.68,7.553,5.74,15.857,7.544,19.746,3.733,8.049,12.4,5.676,12.4,5.676l3.677,6.992h0a16.189,16.189,0,0,0,18.421-10.509h0Z" transform="translate(-151.529 -112.088)" fill="#ffbe9d"/>
          <path id="Path_8213" data-name="Path 8213" d="M219.734,179.146a1.3,1.3,0,0,0,1.64.669,1.217,1.217,0,0,0,.725-1.58,1.3,1.3,0,0,0-1.64-.669,1.217,1.217,0,0,0-.725,1.58Z" transform="translate(-160.355 -146.846)" fill="#263238"/>
          <path id="Path_8214" data-name="Path 8214" d="M213.906,171.326c.211.086.8-.954,2.041-1.511s2.439-.341,2.5-.552c.039-.1-.229-.306-.76-.432a3.479,3.479,0,0,0-2.085.255,3.341,3.341,0,0,0-1.541,1.394C213.8,170.96,213.79,171.292,213.906,171.326Z" transform="translate(-157.047 -141.896)" fill="#263238"/>
          <path id="Path_8215" data-name="Path 8215" d="M246,168.1a1.269,1.269,0,0,0,1.636.665,1.208,1.208,0,0,0,.725-1.575,1.265,1.265,0,0,0-1.636-.669A1.213,1.213,0,0,0,246,168.1Z" transform="translate(-175.285 -140.561)" fill="#263238"/>
          <path id="Path_8216" data-name="Path 8216" d="M240.715,158.885c.207.091.82-.932,2.08-1.454s2.443-.281,2.516-.492c.039-.095-.22-.306-.747-.432a3.453,3.453,0,0,0-2.093.2c-.993.47-1.627,1.1-1.58,1.347C240.628,158.514,240.615,158.834,240.715,158.885Z" transform="translate(-172.293 -134.88)" fill="#263238"/>
          <path id="Path_8217" data-name="Path 8217" d="M236.7,174.447a8.917,8.917,0,0,0-2.184.539c-.332.112-.66.181-.811,0a1.8,1.8,0,0,1-.212-1.04c-.043-.9-.095-1.847-.147-2.84a44.907,44.907,0,0,0-.729-7.277,46.173,46.173,0,0,0,.142,7.337c.069.988.129,1.934.194,2.836a2.015,2.015,0,0,0,.393,1.321.863.863,0,0,0,.734.233,2.421,2.421,0,0,0,.57-.168A9.253,9.253,0,0,0,236.7,174.447Z" transform="translate(-167.675 -139.086)" fill="#263238"/>
          <path id="Path_8218" data-name="Path 8218" d="M237.519,153.311c.371.129,1.1-1.032,2.275-2.158s2.331-1.826,2.21-2.2c-.065-.173-.475-.224-1.083-.052a5.447,5.447,0,0,0-3.418,3.306C237.312,152.827,237.346,153.242,237.519,153.311Z" transform="translate(-170.426 -130.54)" fill="#263238"/>
          <path id="Path_8219" data-name="Path 8219" d="M211.816,164.737c.289.293,1.329-.095,2.59-.19s2.369.06,2.59-.276c.1-.164-.091-.466-.583-.729a4.014,4.014,0,0,0-2.158-.371,3.884,3.884,0,0,0-2.041.751C211.816,164.267,211.687,164.595,211.816,164.737Z" transform="translate(-155.872 -138.699)" fill="#263238"/>
          <path id="Path_8220" data-name="Path 8220" d="M215.458,112.948c-.276-.108-.561-.216-.863-.315h0c-2.408-.863-5.114-1.338-7.186.056-1.191.8-1.951,2.111-3.095,2.982-1.545,1.178-3.6,1.429-5.3,2.369a7.337,7.337,0,0,0-3.69,5.611c-.177,1.8.3,3.755-.544,5.352-.393.742-1.726,1.26-2.188,1.955,0,0-.824,5.87,3.677,5.611l.565-.479,4.415-5.84c1.472-.5,2.987-.863,3.63-2.214a7.913,7.913,0,0,0,.371-2.974l2.361-2.805c.747-.186,1.571-.255,2.313-.432a6.7,6.7,0,0,0,5-8.261Z" transform="translate(-144.939 -109.517)" fill="#263238"/>
          <path id="Path_8221" data-name="Path 8221" d="M228.476,116.688c.993-.811,3-2.534,3.181-3.777a7.543,7.543,0,0,1,4.54-6.042,6.215,6.215,0,0,1,7.074,2.313,8.934,8.934,0,0,1,9,1.519,10.359,10.359,0,0,1,3.535,8.986,5.26,5.26,0,0,0,0,2.59c.432,1.01,1.5,1.485,2.378,2.093a9.3,9.3,0,0,1,3.578,7.769c-.052,2.956-.457,4.143-1.817,5.309-2.667,2.287,3.073,7.631-2.05,9.828L248.6,129.2l-.022.035a2.059,2.059,0,0,1-1.916,1.083c-5.179-.332-4.847-5.766-3.815-6.789a18.99,18.99,0,0,1-4.415-1.895c-1.368-.863-3.69-2.564-4.165-4.161C233.215,117.961,228.04,117.041,228.476,116.688Z" transform="translate(-165.354 -106.523)" fill="#263238"/>
          <path id="Path_8222" data-name="Path 8222" d="M275.17,156.948c.112-.121,4.825-4.139,7.134,1.476s-3.807,6.772-3.884,6.616S275.17,156.948,275.17,156.948Z" transform="translate(-191.91 -134.319)" fill="#ffbe9d"/>
          <path id="Path_8223" data-name="Path 8223" d="M282.987,164.639c0-.03.125.026.324.035a1.066,1.066,0,0,0,.738-.285,2.627,2.627,0,0,0,.224-2.633,3.453,3.453,0,0,0-.863-1.295,1.226,1.226,0,0,0-1.044-.432.539.539,0,0,0-.47.5c0,.186.073.285.047.306s-.16-.043-.211-.293a.7.7,0,0,1,.078-.432.807.807,0,0,1,.483-.367,1.48,1.48,0,0,1,1.377.432,3.583,3.583,0,0,1,.984,1.424,2.758,2.758,0,0,1-.432,3.021,1.144,1.144,0,0,1-.954.22C283.051,164.769,282.969,164.656,282.987,164.639Z" transform="translate(-195.635 -136.749)" fill="#eb996e"/>
          <path id="Path_8224" data-name="Path 8224" d="M240.857,197.443a12.092,12.092,0,0,0,4.269-1.972,6.153,6.153,0,0,0-2.227.781A6.447,6.447,0,0,0,240.857,197.443Z" transform="translate(-172.405 -157.058)" fill="#263238"/>
          <path id="Path_8225" data-name="Path 8225" d="M252.55,213.575s6.944-4.316,9.858-9.5c0,0,.911,7.868-8.472,12.115Z" transform="translate(-179.053 -161.965)" fill="#eb996e"/>
          <path id="Path_8226" data-name="Path 8226" d="M234.43,159.235c0,.022-.117.117-.367.147a1.2,1.2,0,0,1-.906-.289,1.213,1.213,0,0,1-.4-.863c0-.25.078-.388.1-.38s0,.151.056.363a1.178,1.178,0,0,0,1.139,1.014C234.275,159.235,234.417,159.209,234.43,159.235Z" transform="translate(-167.804 -135.687)" fill="#eb996e"/>
          <path id="Path_8227" data-name="Path 8227" d="M228.349,162.476c0-.026.065-.147.147-.363a1.657,1.657,0,0,0,.112-.863,1.726,1.726,0,0,0-.35-.8c-.142-.181-.263-.272-.242-.3s.164.026.358.194a1.48,1.48,0,0,1,.263,1.843C228.5,162.4,228.371,162.493,228.349,162.476Z" transform="translate(-165.107 -136.99)" fill="#eb996e"/>
          <path id="Path_8228" data-name="Path 8228" d="M276.857,282.026l2.37.5-2.374.695a.863.863,0,0,0-.6.643l-.591,2.84-.639-2.788a.863.863,0,0,0-.643-.639l-2.374-.539,2.443-.686a.863.863,0,0,0,.574-.66l.544-2.736.617,2.719A.863.863,0,0,0,276.857,282.026Z" transform="translate(-190.114 -204.356)" fill="#fff"/>
          <path id="Path_8229" data-name="Path 8229" d="M267.9,301.078l1.057.224-1.057.306a.388.388,0,0,0-.268.289l-.263,1.265-.293-1.243a.376.376,0,0,0-.285-.285l-1.057-.237,1.088-.306a.393.393,0,0,0,.272-.293l.242-1.217.272,1.208A.38.38,0,0,0,267.9,301.078Z" transform="translate(-186.544 -216.247)" fill="#fff"/>
          <path id="Path_8230" data-name="Path 8230" d="M341.327,220.548l1.057.224-1.057.306a.388.388,0,0,0-.268.289l-.263,1.265-.293-1.243a.376.376,0,0,0-.285-.285l-1.057-.237,1.088-.306a.384.384,0,0,0,.272-.293l.242-1.217.272,1.208A.38.38,0,0,0,341.327,220.548Z" transform="translate(-228.282 -170.473)" fill="#fff"/>
        </g>
        <g id="freepik--Table--inject-83" transform="translate(26.99 220.434)">
          <path id="Path_8231" data-name="Path 8231" d="M219.514,459.032c0,.06-43.1.112-96.247.112s-96.277-.052-96.277-.112,43.1-.112,96.277-.112S219.514,458.955,219.514,459.032Z" transform="translate(-26.99 -452.903)" fill="#263238"/>
          <rect id="Rectangle_1939" data-name="Rectangle 1939" width="117.672" height="6.086" transform="translate(12.007 0.056)" fill="#455a64"/>
          <rect id="Rectangle_1940" data-name="Rectangle 1940" width="33.199" height="6.086" transform="translate(95.647 0.056)" fill="#263238"/>
          <path id="Path_8232" data-name="Path 8232" d="M66.266,451.365a2.324,2.324,0,0,1-.138-.268c-.086-.173-.211-.432-.375-.729a15.317,15.317,0,0,0-3.31-4.225c-.259-.233-.47-.432-.617-.54a1.329,1.329,0,0,1-.224-.2,2.392,2.392,0,0,1,.246.177c.155.112.375.289.634.518a13.867,13.867,0,0,1,3.328,4.243c.155.311.276.565.35.747a2.226,2.226,0,0,1,.108.281Z" transform="translate(-46.662 -445.219)" fill="#263238"/>
          <path id="Path_8233" data-name="Path 8233" d="M80.822,451.353a7.851,7.851,0,0,1-1.726-.177,10.33,10.33,0,0,1-1.752-.54,11.652,11.652,0,0,1-2.007-1.083,11.859,11.859,0,0,1-2.944-2.892,9.991,9.991,0,0,1-.863-1.472s.026.035.065.1l.177.294a12.314,12.314,0,0,0,3.63,3.893,11.77,11.77,0,0,0,1.985,1.083,10.358,10.358,0,0,0,1.761.552,6.853,6.853,0,0,0,.7.129,4.228,4.228,0,0,0,.535.065l.337.03Z" transform="translate(-52.306 -445.099)" fill="#263238"/>
          <path id="Path_8234" data-name="Path 8234" d="M96.311,448.368s-.531.06-1.5.069c-.483,0-1.075,0-1.761-.056-.341-.026-.708-.06-1.1-.108l-.6-.082a2.3,2.3,0,0,1-.617-.151.833.833,0,0,1-.492-.432.591.591,0,0,1,.2-.66,1.657,1.657,0,0,1,.669-.289c.237-.065.479-.129.729-.181a17.579,17.579,0,0,1,6.8-.2,12.744,12.744,0,0,1,1.856.432,1.416,1.416,0,0,1,.773.6,1.213,1.213,0,0,1,.047.988,1.55,1.55,0,0,1-.6.79,2.633,2.633,0,0,1-.906.371c-.63.138-1.252.246-1.865.35a25.611,25.611,0,0,1-3.574.354,12.948,12.948,0,0,1-5.917-1.144,9.845,9.845,0,0,1-3.267-2.434,7.8,7.8,0,0,1-.678-.863c-.142-.216-.211-.328-.211-.328s.082.108.224.315a8.468,8.468,0,0,0,.691.863,9.927,9.927,0,0,0,3.272,2.361,12.948,12.948,0,0,0,5.891,1.118,26.13,26.13,0,0,0,3.556-.358c.613-.1,1.239-.216,1.86-.35a2.589,2.589,0,0,0,.863-.358,1.493,1.493,0,0,0,.57-.747,1.127,1.127,0,0,0-.047-.915,1.3,1.3,0,0,0-.725-.561,13.141,13.141,0,0,0-1.839-.432,17.765,17.765,0,0,0-6.763.19c-.25.052-.492.117-.725.177a1.562,1.562,0,0,0-.647.276.535.535,0,0,0-.181.583.8.8,0,0,0,.432.432,2.288,2.288,0,0,0,.6.147l.6.086c.384.047.751.086,1.092.112.682.056,1.295.073,1.757.073s.863,0,1.109-.022Z" transform="translate(-59.565 -445.213)" fill="#263238"/>
          <path id="Path_8235" data-name="Path 8235" d="M141.1,445.993h-.164c-.108,0-.263-.035-.466-.03a6.167,6.167,0,0,0-1.7.19,10.483,10.483,0,0,0-2.361.932,27.96,27.96,0,0,0-2.65,1.649c-.915.626-1.8,1.213-2.637,1.683a11.22,11.22,0,0,1-2.348,1.019,6.3,6.3,0,0,1-1.7.272,4.535,4.535,0,0,1-.63-.022h.164a4.576,4.576,0,0,0,.466,0,6.61,6.61,0,0,0,1.683-.3,11.6,11.6,0,0,0,2.322-1.027c.837-.475,1.726-1.062,2.628-1.688a26.731,26.731,0,0,1,2.663-1.649,10.124,10.124,0,0,1,2.382-.919,6.1,6.1,0,0,1,1.726-.164A4.723,4.723,0,0,1,141.1,445.993Z" transform="translate(-83.523 -445.522)" fill="#263238"/>
          <path id="Path_8236" data-name="Path 8236" d="M162.693,448.8l-.324-.069a5.847,5.847,0,0,0-.941-.117,5.564,5.564,0,0,0-1.489.121,5.793,5.793,0,0,0-.9.268,1.584,1.584,0,0,0-.833.574.863.863,0,0,0,.142,1.032,2.425,2.425,0,0,0,1.036.656,4.708,4.708,0,0,0,2.706.056,8.9,8.9,0,0,0,1.416-.466,4.769,4.769,0,0,0,1.347-.755,1.826,1.826,0,0,0,.673-1.377,2.266,2.266,0,0,0-.613-1.476,2.983,2.983,0,0,0-1.381-.863,4.421,4.421,0,0,0-1.588-.147,11.522,11.522,0,0,0-2.952.742,30.979,30.979,0,0,0-4.7,2.158,32.632,32.632,0,0,0-2.944,1.877c-.337.242-.591.432-.764.561s-.272.2-.272.2.35-.3,1.014-.79a31.809,31.809,0,0,1,2.935-1.9,30.115,30.115,0,0,1,4.7-2.18,11.6,11.6,0,0,1,2.974-.751,4.623,4.623,0,0,1,1.623.147,3.138,3.138,0,0,1,1.424.863,2.348,2.348,0,0,1,.634,1.536,1.912,1.912,0,0,1-.708,1.442,4.907,4.907,0,0,1-1.368.773,9.668,9.668,0,0,1-1.429.466,4.834,4.834,0,0,1-2.754-.065,2.507,2.507,0,0,1-1.062-.682,1.114,1.114,0,0,1-.259-.548.829.829,0,0,1,.117-.565,1.645,1.645,0,0,1,.863-.6,6.206,6.206,0,0,1,.906-.263,5.943,5.943,0,0,1,1.5-.108,5.412,5.412,0,0,1,.945.138C162.6,448.762,162.693,448.8,162.693,448.8Z" transform="translate(-97.085 -445.633)" fill="#263238"/>
          <path id="Path_8237" data-name="Path 8237" d="M196.11,451.087v-.315a7,7,0,0,0,0-.863,6,6,0,0,0-.833-2.68,4.963,4.963,0,0,0-2.063-1.877,5.555,5.555,0,0,0-1.114-.371,3.349,3.349,0,0,1,1.139.311,4.9,4.9,0,0,1,2.115,1.89,5.831,5.831,0,0,1,.82,2.723A4.528,4.528,0,0,1,196.11,451.087Z" transform="translate(-120.838 -444.98)" fill="#263238"/>
          <path id="Path_8238" data-name="Path 8238" d="M216.223,451.082a13.467,13.467,0,0,1-1.813-.375,18.1,18.1,0,0,1-1.912-.63,20.9,20.9,0,0,1-2.223-1.062,19.854,19.854,0,0,1-3.617-2.624c-.432-.388-.751-.716-.967-.954l-.25-.272c-.056-.06-.082-.095-.082-.095a1.017,1.017,0,0,1,.095.086l.263.259c.22.229.557.548.98.928a20.1,20.1,0,0,0,5.844,3.664,19.118,19.118,0,0,0,1.895.647c.548.155,1,.263,1.295.328l.363.073A.542.542,0,0,1,216.223,451.082Z" transform="translate(-128.375 -445.031)" fill="#263238"/>
          <path id="Path_8239" data-name="Path 8239" d="M235.3,449.45l-.121-.056c-.078-.039-.181-.108-.332-.177a8.479,8.479,0,0,0-1.295-.505,13.284,13.284,0,0,0-2.011-.432c-.764-.112-1.614-.186-2.5-.3a9.6,9.6,0,0,1-4.316-1.454,5.555,5.555,0,0,1-1.036-.928c-.207-.255-.306-.406-.306-.406a1.066,1.066,0,0,1,.091.095c.056.065.129.168.242.289a5.916,5.916,0,0,0,1.049.9,9.849,9.849,0,0,0,4.316,1.416c.885.117,1.726.194,2.5.311a12.668,12.668,0,0,1,2.016.432,7.519,7.519,0,0,1,1.295.535C235.137,449.346,235.3,449.45,235.3,449.45Z" transform="translate(-138.618 -445.099)" fill="#263238"/>
        </g>
      </g>
    </g>
    <g id="Group_3234" data-name="Group 3234" transform="translate(4.012 -10.262)">
      <path id="Icon_ionic-ios-arrow-back" data-name="Icon ionic-ios-arrow-back" d="M15.217,17.7,23.926,9A1.645,1.645,0,1,0,21.6,6.674l-9.867,9.86a1.642,1.642,0,0,0-.048,2.268l9.908,9.929a1.645,1.645,0,0,0,2.33-2.323Z" transform="translate(362.579 30.069)" fill="#fff"/>
      <path id="Icon_ionic-ios-arrow-back-2" data-name="Icon ionic-ios-arrow-back" d="M3.967,11.506l8.709-8.7A1.645,1.645,0,1,0,10.346.481L.479,10.341a1.642,1.642,0,0,0-.048,2.268l9.908,9.929a1.645,1.645,0,1,0,2.33-2.323Z" transform="translate(377.472 59.28) rotate(180)" fill="#fff"/>
    </g>
    <text id="Session_3_De-addiction_stage" data-name="Session 3
De-addiction stage" transform="translate(21 26)" fill="#fff" font-size="16" font-family="ArialMT, Arial"><tspan x="0" y="14">Session 3</tspan><tspan font-size="24" font-family="Arial-BoldMT, Arial" font-weight="700"><tspan x="0" y="49">De-addiction stage</tspan></tspan></text>
    <g id="Component_119_311" data-name="Component 119 – 311" transform="translate(0 779.278)">
      <rect id="Rectangle_1927" data-name="Rectangle 1927" width="412" height="67" transform="translate(0 0.722)" fill="#102646"/>
      <path id="Path_4714" data-name="Path 4714" d="M1053,4508.186h411.151" transform="translate(-1053 -4508.186)" fill="none" stroke="#fff" stroke-width="2" opacity="0.206"/>
      <g id="Group_3096" data-name="Group 3096" transform="translate(-3 -997.186)">
        <text id="Next" transform="translate(318 1038)" fill="#f2f5f7" font-size="18" font-family="ArialMT, Arial"><tspan x="0" y="0">Next</tspan></text>
        <path id="Icon_ionic-ios-arrow-back-3" data-name="Icon ionic-ios-arrow-back" d="M14.033,14.264l6.109-6.1a1.154,1.154,0,0,0-1.634-1.629l-6.921,6.916a1.152,1.152,0,0,0-.034,1.591L18.5,22a1.154,1.154,0,1,0,1.634-1.629Z" transform="translate(389.251 1046.266) rotate(180)" fill="#f2f5f7"/>
      </g>
      <g id="Group_3224" data-name="Group 3224" transform="translate(2.529 7.076)">
        <g id="Group_3212" data-name="Group 3212" transform="translate(34.47 14.737)">
          <text id="Back" transform="translate(19.06 18)" fill="#fff" font-size="18" font-family="ArialMT, Arial"><tspan x="0" y="0">Back</tspan></text>
          <path id="Icon_ionic-ios-arrow-back-4" data-name="Icon ionic-ios-arrow-back" d="M14.033,14.264l6.109-6.1a1.154,1.154,0,0,0-1.634-1.629l-6.921,6.916a1.152,1.152,0,0,0-.034,1.591L18.5,22a1.154,1.154,0,1,0,1.634-1.629Z" transform="translate(-11.251 -3.193)" fill="#fff"/>
        </g>
      </g>
    </g>
  </g>
</svg>
