<svg xmlns="http://www.w3.org/2000/svg" xmlns:xlink="http://www.w3.org/1999/xlink" width="412" height="847" viewBox="0 0 412 847">
  <defs>
    <clipPath id="clip-OCD_14">
      <rect width="412" height="847"/>
    </clipPath>
  </defs>
  <g id="OCD_14" data-name="OCD – 14" clip-path="url(#clip-OCD_14)">
    <rect width="412" height="847" fill="#f5f8fa"/>
    <g id="Group_3078" data-name="Group 3078" transform="translate(-7408 -10082)">
      <rect id="Rectangle_1710" data-name="Rectangle 1710" width="372" height="609" rx="15" transform="translate(7428 10237)" fill="#e9eef2"/>
      <text id="Have_you_continued_your_drug_use_despite_knowledge_of_developing_a_persistent_or_recurring_physical_or_psychological_problem_" data-name="Have you continued your drug use despite knowledge of developing a persistent or recurring physical or psychological problem? " transform="translate(7443 10252)" fill="#2e5b9f" font-size="18" font-family="ArialMT, Arial"><tspan x="0" y="16">Have you continued your drug use despite </tspan><tspan x="0" y="46">knowledge of developing a persistent or </tspan><tspan x="0" y="76">recurring physical or psychological </tspan><tspan x="0" y="106">problem? </tspan></text>
    </g>
    <text id="Session_2_Questionnaire_-_11" data-name="Session 2
Questionnaire - 11" transform="translate(29 26)" fill="#1f64cc" font-size="16" font-family="ArialMT, Arial"><tspan x="0" y="14">Session 2</tspan><tspan font-size="24" font-family="Arial-BoldMT, Arial" font-weight="700"><tspan x="0" y="49">Questionnaire - 11</tspan></tspan></text>
    <text id="Questions_1_44" data-name="Questions 1/44" transform="translate(29 113)" fill="#808495" font-size="14" font-family="ArialMT, Arial"><tspan x="0" y="13">Questions 1/44</tspan></text>
    <path id="Rectangle_1720" data-name="Rectangle 1720" d="M30,0H182a0,0,0,0,1,0,0V60a0,0,0,0,1,0,0H0a0,0,0,0,1,0,0V30A30,30,0,0,1,30,0Z" transform="translate(230 787)" fill="#1e64cc"/>
    <g id="Group_3096" data-name="Group 3096" transform="translate(-15 -213)">
      <text id="Next" transform="translate(310 1038)" fill="#f2f5f7" font-size="20" font-family="ArialMT, Arial"><tspan x="0" y="0">Next</tspan></text>
      <path id="Icon_ionic-ios-arrow-back" data-name="Icon ionic-ios-arrow-back" d="M14.033,14.264l6.109-6.1a1.154,1.154,0,0,0-1.634-1.629l-6.921,6.916a1.152,1.152,0,0,0-.034,1.591L18.5,22a1.154,1.154,0,1,0,1.634-1.629Z" transform="translate(389.251 1046.266) rotate(180)" fill="#f2f5f7"/>
    </g>
    <g id="Group_3076" data-name="Group 3076" transform="translate(-37.007 -291)">
      <rect id="Rectangle_1708" data-name="Rectangle 1708" width="349" height="5" rx="2.5" transform="translate(66.007 391)" fill="#dce9f5"/>
      <rect id="Rectangle_1709" data-name="Rectangle 1709" width="57" height="5" rx="2.5" transform="translate(66.007 391)" fill="#1e64cc"/>
    </g>
    <g id="Group_3308" data-name="Group 3308" transform="translate(0 -12)">
      <g id="Search" transform="translate(51.109 546.221)">
        <path id="Path_7" data-name="Path 7" d="M7.39,5H301.127c4.081,0,7.39,3.961,7.39,8.848V43.71c0,4.887-3.308,8.848-7.39,8.848H7.39C3.308,52.558,0,48.6,0,43.71V13.848C0,8.961,3.308,5,7.39,5Z" transform="translate(0.633 -5)" fill="#f7fafc"/>
        <text id="Never_or_almost_never" data-name="Never or almost never" transform="translate(63.704 13.964)" fill="#808495" font-size="16" font-family="ArialMT, Arial"><tspan x="0" y="14">Never Or Almost Never</tspan></text>
      </g>
      <g id="Search-2" data-name="Search" transform="translate(51.109 678.221)">
        <path id="Path_7-2" data-name="Path 7" d="M7.39,5H301.127c4.081,0,7.39,3.961,7.39,8.848V43.71c0,4.887-3.308,8.848-7.39,8.848H7.39C3.308,52.558,0,48.6,0,43.71V13.848C0,8.961,3.308,5,7.39,5Z" transform="translate(0.633 -5)" fill="#f7fafc"/>
        <text id="Many_times_Almost_always" data-name="Many times/Almost always" transform="translate(63.704 13.964)" fill="#808495" font-size="16" font-family="ArialMT, Arial"><tspan x="0" y="14">Many Times/Almost Always</tspan></text>
      </g>
      <g id="Group_3106" data-name="Group 3106" transform="translate(-14.187 32)">
        <circle id="Ellipse_579" data-name="Ellipse 579" cx="20" cy="20" r="20" transform="translate(84 518)" fill="#f7fafd"/>
        <path id="Icon_material-thumb-down" data-name="Icon material-thumb-down" d="M13.594,4.5H5.819A1.716,1.716,0,0,0,4.23,5.554l-2.609,6.09a1.707,1.707,0,0,0-.121.631v1.65l.009.009L1.5,14A1.733,1.733,0,0,0,3.228,15.73H8.679l-.821,3.948-.026.276a1.3,1.3,0,0,0,.38.916l.916.907,5.693-5.693a1.717,1.717,0,0,0,.5-1.218V6.228A1.733,1.733,0,0,0,13.594,4.5Zm3.455,0V14.866H20.5V4.5Z" transform="translate(93.1 526.248)" fill="#e68b3b"/>
      </g>
      <g id="Group_3109" data-name="Group 3109" transform="translate(-14.187 164)">
        <circle id="Ellipse_579-2" data-name="Ellipse 579" cx="20" cy="20" r="20" transform="translate(84 518)" fill="#f7fafd"/>
        <path id="Icon_material-thumb-down-2" data-name="Icon material-thumb-down" d="M13.594,4.5H5.819A1.716,1.716,0,0,0,4.23,5.554l-2.609,6.09a1.707,1.707,0,0,0-.121.631v1.65l.009.009L1.5,14A1.733,1.733,0,0,0,3.228,15.73H8.679l-.821,3.948-.026.276a1.3,1.3,0,0,0,.38.916l.916.907,5.693-5.693a1.717,1.717,0,0,0,.5-1.218V6.228A1.733,1.733,0,0,0,13.594,4.5Zm3.455,0V14.866H20.5V4.5Z" transform="translate(115.002 549.139) rotate(180)" fill="#73bc1d"/>
      </g>
      <g id="Group_3245" data-name="Group 3245" transform="translate(1.813 135)">
        <path id="Path_5300" data-name="Path 5300" d="M7.39,5H301.127c4.081,0,7.39,3.961,7.39,8.848V43.71c0,4.887-3.308,8.848-7.39,8.848H7.39C3.308,52.558,0,48.6,0,43.71V13.848C0,8.961,3.308,5,7.39,5Z" transform="translate(49.929 472.221)" fill="#f7fafc"/>
        <text id="Sometimes" transform="translate(116 491.185)" fill="#808495" font-size="16" font-family="ArialMT, Arial"><tspan x="0" y="14">Sometimes</tspan></text>
        <path id="Icon_awesome-hand-rock" data-name="Icon awesome-hand-rock" d="M15.3,3.83a1.58,1.58,0,0,0-1.606,1.58H13.43V4.383a1.6,1.6,0,0,0-1.554-1.606,1.58,1.58,0,0,0-1.606,1.58V5.41h-.263V3.856A1.6,1.6,0,0,0,8.453,2.25,1.58,1.58,0,0,0,6.847,3.83V5.41H6.583V4.383A1.6,1.6,0,0,0,5.03,2.776a1.58,1.58,0,0,0-1.606,1.58V8.833L3.16,8.6V7.016A1.6,1.6,0,0,0,1.606,5.41,1.58,1.58,0,0,0,0,6.99V9.176a3.168,3.168,0,0,0,1.06,2.363l3.677,3.269a1.587,1.587,0,0,1,.53,1.182v.221a.788.788,0,0,0,.79.79h7.9a.788.788,0,0,0,.79-.79v-.1a3.207,3.207,0,0,1,.247-1.228l1.613-3.828a3.146,3.146,0,0,0,.247-1.228V5.436A1.6,1.6,0,0,0,15.3,3.83Z" transform="translate(79.573 491.375)" fill="#bfcc1e"/>
      </g>
    </g>
    <g id="Group_3234" data-name="Group 3234" transform="translate(-4.848 -10.263)">
      <path id="Icon_ionic-ios-arrow-back-2" data-name="Icon ionic-ios-arrow-back" d="M15.217,17.7,23.926,9A1.645,1.645,0,1,0,21.6,6.674l-9.867,9.86a1.642,1.642,0,0,0-.048,2.268l9.908,9.929a1.645,1.645,0,0,0,2.33-2.323Z" transform="translate(362.579 30.069)" fill="#1e64cc"/>
      <path id="Icon_ionic-ios-arrow-back-3" data-name="Icon ionic-ios-arrow-back" d="M3.967,11.506l8.709-8.7A1.645,1.645,0,1,0,10.346.481L.479,10.341a1.642,1.642,0,0,0-.048,2.268l9.908,9.929a1.645,1.645,0,1,0,2.33-2.323Z" transform="translate(377.472 59.28) rotate(180)" fill="#1e64cc"/>
    </g>
    <g id="Group_3095" data-name="Group 3095" transform="translate(-3.137 -214)">
      <text id="Close" transform="translate(54.196 1038)" fill="#1e64cc" font-size="15" font-family="ArialMT, Arial"><tspan x="0" y="0">Close</tspan></text>
      <path id="Icon_ionic-ios-arrow-back-4" data-name="Icon ionic-ios-arrow-back" d="M13.253,12l4.4-4.393a.83.83,0,1,0-1.176-1.173l-4.981,4.978a.829.829,0,0,0-.024,1.145l5,5.013A.83.83,0,0,0,17.646,16.4Z" transform="translate(26.199 1019.069)" fill="#1e64cc"/>
      <path id="Icon_ionic-ios-arrow-back-5" data-name="Icon ionic-ios-arrow-back" d="M2,5.809,6.4,1.415A.83.83,0,0,0,5.223.243L.242,5.221A.829.829,0,0,0,.218,6.366l5,5.013A.83.83,0,1,0,6.4,10.205Z" transform="translate(39.054 1036.883) rotate(180)" fill="#1e64cc"/>
    </g>
  </g>
</svg>
