<svg xmlns="http://www.w3.org/2000/svg" xmlns:xlink="http://www.w3.org/1999/xlink" width="412" height="847" viewBox="0 0 412 847">
  <defs>
    <clipPath id="clip-OCD_session_4_10">
      <rect width="412" height="847"/>
    </clipPath>
  </defs>
  <g id="OCD_session_4_10" data-name="OCD session 4 – 10" clip-path="url(#clip-OCD_session_4_10)">
    <rect width="412" height="847" fill="#f5f8fb"/>
    <g id="Group_3103" data-name="Group 3103" transform="translate(-4 55)">
      <g id="Group_1500" data-name="Group 1500" transform="translate(71 65)">
        <text id="OBQ-44_Questionnaire" data-name="OBQ-44 Questionnaire" fill="#1e64cc" font-size="24" font-family="Arial-BoldMT, Arial" font-weight="700"><tspan x="0" y="22">OBQ-44 Questionnaire</tspan></text>
      </g>
      <g id="Group_3103-2" data-name="Group 3103" transform="translate(25 59)">
        <g id="Group_3157" data-name="Group 3157">
          <rect id="Rectangle_1722" data-name="Rectangle 1722" width="371" height="501" rx="16" fill="#e9eef3"/>
          <text id="Rules_for_ERP_Exercise" data-name="Rules for ERP Exercise" transform="translate(127 34)" fill="#1e64cc" font-size="16" font-family="ArialMT, Arial"><tspan x="0" y="14">Rules for ERP Exercise</tspan></text>
          <text id="Assess_function_of_compulsive_and_avoidant_behaviours_that_may_maintain_these_symptoms_and_address_any_outside_reinforcement_patterns_e.g._attention_from_family_members_escape_from_work_etc._" data-name="Assess function of compulsive and avoidant behaviours that may maintain these symptoms, and address any outside reinforcement patterns (e.g., attention from family members, escape from work, etc.)" transform="translate(10 361)" fill="#254069" font-size="12" font-family="ArialMT, Arial"><tspan x="3.404" y="11">Assess function of compulsive and avoidant behaviours that may </tspan><tspan x="0.41" y="36">maintain these symptoms, and address any outside reinforcement </tspan><tspan x="3.771" y="61">patterns (e.g., attention from family members, escape from work, </tspan><tspan x="163.831" y="86">etc.)</tspan></text>
        </g>
        <g id="Group_3138" data-name="Group 3138" transform="translate(64.479 24)">
          <circle id="Ellipse_585" data-name="Ellipse 585" cx="22.5" cy="22.5" r="22.5" fill="#d2dff2"/>
          <g id="Group_3138-2" data-name="Group 3138" transform="translate(15.505 15.427)">
            <g id="Group_1765" data-name="Group 1765" transform="translate(0 0)">
              <path id="Path_2393" data-name="Path 2393" d="M308.621,222.712l-24.782-10.871a.267.267,0,0,0-.336.335l10.871,24.782a.267.267,0,0,0,.478.066l3.791-7.3,9.131,9.131a.268.268,0,0,0,.378,0l2.365-2.365a.267.267,0,0,0,0-.377l-9.132-9.131,7.3-3.791A.267.267,0,0,0,308.621,222.712Z" transform="translate(-271.605 -200.907)" fill="#ff7600"/>
              <g id="Group_1764" data-name="Group 1764">
                <g id="Group_1755" data-name="Group 1755" transform="translate(3.43 2.783)">
                  <g id="Group_1754" data-name="Group 1754">
                    <path id="Path_2394" data-name="Path 2394" d="M275.757,205.163a1.239,1.239,0,0,1-1.749-.1l-3.852-4.31A1.239,1.239,0,0,1,272,199.1l3.853,4.311A1.239,1.239,0,0,1,275.757,205.163Z" transform="translate(-269.84 -198.69)" fill="#86c1fd"/>
                  </g>
                </g>
                <g id="Group_1757" data-name="Group 1757" transform="translate(9.365)">
                  <g id="Group_1756" data-name="Group 1756">
                    <path id="Path_2395" data-name="Path 2395" d="M282.336,202.079a1.239,1.239,0,0,1-2.05-.743l-.85-5.718a1.239,1.239,0,1,1,2.45-.365l.85,5.718A1.236,1.236,0,0,1,282.336,202.079Z" transform="translate(-279.422 -194.197)" fill="#86c1fd"/>
                  </g>
                </g>
                <g id="Group_1759" data-name="Group 1759" transform="translate(0 8.369)">
                  <g id="Group_1758" data-name="Group 1758">
                    <path id="Path_2396" data-name="Path 2396" d="M271.954,211.356a1.238,1.238,0,0,1-1.145.274l-5.587-1.485a1.239,1.239,0,0,1,.637-2.394l5.587,1.485a1.238,1.238,0,0,1,.508,2.12Z" transform="translate(-264.302 -207.709)" fill="#86c1fd"/>
                  </g>
                </g>
                <g id="Group_1761" data-name="Group 1761" transform="translate(0.129 12.98)">
                  <g id="Group_1760" data-name="Group 1760">
                    <path id="Path_2397" data-name="Path 2397" d="M272.1,217.317a1.244,1.244,0,0,1-.458.258l-5.521,1.713a1.239,1.239,0,1,1-.735-2.366l5.521-1.713a1.239,1.239,0,0,1,1.192,2.108Z" transform="translate(-264.511 -215.153)" fill="#86c1fd"/>
                  </g>
                </g>
                <g id="Group_1763" data-name="Group 1763" transform="translate(13.245 0.777)">
                  <g id="Group_1762" data-name="Group 1762">
                    <path id="Path_2398" data-name="Path 2398" d="M287.752,202.938a1.239,1.239,0,0,1-1.968-1.405l2.25-5.325a1.239,1.239,0,1,1,2.282.964l-2.25,5.325A1.235,1.235,0,0,1,287.752,202.938Z" transform="translate(-285.686 -195.451)" fill="#86c1fd"/>
                  </g>
                </g>
              </g>
            </g>
          </g>
        </g>
      </g>
    </g>
    <g id="Group_1193" data-name="Group 1193" transform="translate(3.371 -149.643)">
      <g id="Ellipse_12" data-name="Ellipse 12" transform="translate(177.629 798.642)" fill="none" stroke="#0e58c7" stroke-width="1">
        <circle cx="4" cy="4" r="4" stroke="none"/>
        <circle cx="4" cy="4" r="3.5" fill="none"/>
      </g>
      <g id="Ellipse_13" data-name="Ellipse 13" transform="translate(191.629 798.642)" fill="none" stroke="#0e58c7" stroke-width="1">
        <circle cx="4" cy="4" r="4" stroke="none"/>
        <circle cx="4" cy="4" r="3.5" fill="none"/>
      </g>
      <g id="Ellipse_91" data-name="Ellipse 91" transform="translate(206.629 798.642)" fill="none" stroke="#0e58c7" stroke-width="1">
        <circle cx="4" cy="4" r="4" stroke="none"/>
        <circle cx="4" cy="4" r="3.5" fill="none"/>
      </g>
      <g id="Ellipse_92" data-name="Ellipse 92" transform="translate(220.629 798.642)" fill="#0e58c7" stroke="#0e58c7" stroke-width="1">
        <circle cx="4" cy="4" r="4" stroke="none"/>
        <circle cx="4" cy="4" r="3.5" fill="none"/>
      </g>
    </g>
    <g id="Group_3192" data-name="Group 3192" transform="translate(1 8)">
      <path id="Path_5920" data-name="Path 5920" d="M9465.524,14761.509c6.567-31.59,16.01-89.273,76.558-71.347s40.628,29.124,97.831,21.63,86.675,95.53,35.142,93.989-30.141,11.445-69.951,14.13-54.4,11.21-89.292-3.391S9458.957,14793.1,9465.524,14761.509Z" transform="translate(-9383 -14435.288)" fill="#d2dff2" opacity="0.6"/>
      <circle id="Ellipse_599" data-name="Ellipse 599" cx="2.5" cy="2.5" r="2.5" transform="translate(113 253)" fill="#1e64cc"/>
      <circle id="Ellipse_600" data-name="Ellipse 600" cx="4.5" cy="4.5" r="4.5" transform="translate(83 355)" fill="#1e64cc"/>
      <circle id="Ellipse_601" data-name="Ellipse 601" cx="7.5" cy="7.5" r="7.5" transform="translate(309 313)" fill="#fe7614"/>
    </g>
    <g id="Group_3234" data-name="Group 3234" transform="translate(-4.848 -10.263)">
      <path id="Icon_ionic-ios-arrow-back" data-name="Icon ionic-ios-arrow-back" d="M15.217,17.7,23.926,9A1.645,1.645,0,1,0,21.6,6.674l-9.867,9.86a1.642,1.642,0,0,0-.048,2.268l9.908,9.929a1.645,1.645,0,0,0,2.33-2.323Z" transform="translate(362.579 30.069)" fill="#1e64cc"/>
      <path id="Icon_ionic-ios-arrow-back-2" data-name="Icon ionic-ios-arrow-back" d="M3.967,11.506l8.709-8.7A1.645,1.645,0,1,0,10.346.481L.479,10.341a1.642,1.642,0,0,0-.048,2.268l9.908,9.929a1.645,1.645,0,1,0,2.33-2.323Z" transform="translate(377.472 59.28) rotate(180)" fill="#1e64cc"/>
    </g>
    <text id="Rules_for_ERP_Exercise_Examples" data-name="Rules for ERP Exercise / Examples" transform="translate(21 24)" fill="#1e64cc" font-size="24" font-family="Arial-BoldMT, Arial" font-weight="700"><tspan x="0" y="22">Rules for ERP Exercise / </tspan><tspan x="0" y="53">Examples</tspan></text>
    <g id="Component_119_385" data-name="Component 119 – 385" transform="translate(0 779.138)">
      <rect id="Rectangle_1927" data-name="Rectangle 1927" width="412" height="67" transform="translate(0 0.722)" fill="#edf4fd"/>
      <path id="Path_4714" data-name="Path 4714" d="M1053,4508.186h411.151" transform="translate(-1053 -4508.186)" fill="none" stroke="#fff" stroke-width="2" opacity="0.206"/>
      <g id="Group_3096" data-name="Group 3096" transform="translate(-3 -997.186)">
        <text id="Next" transform="translate(318 1038)" fill="#102646" font-size="18" font-family="ArialMT, Arial"><tspan x="0" y="0">Next</tspan></text>
        <path id="Icon_ionic-ios-arrow-back-3" data-name="Icon ionic-ios-arrow-back" d="M14.033,14.264l6.109-6.1a1.154,1.154,0,0,0-1.634-1.629l-6.921,6.916a1.152,1.152,0,0,0-.034,1.591L18.5,22a1.154,1.154,0,1,0,1.634-1.629Z" transform="translate(389.251 1046.266) rotate(180)" fill="#102646"/>
      </g>
      <g id="Group_3224" data-name="Group 3224" transform="translate(2.529 7.076)">
        <g id="Group_3212" data-name="Group 3212" transform="translate(34.47 14.737)">
          <text id="Back" transform="translate(19.06 18)" fill="#102646" font-size="18" font-family="ArialMT, Arial"><tspan x="0" y="0">Back</tspan></text>
          <path id="Icon_ionic-ios-arrow-back-4" data-name="Icon ionic-ios-arrow-back" d="M14.033,14.264l6.109-6.1a1.154,1.154,0,0,0-1.634-1.629l-6.921,6.916a1.152,1.152,0,0,0-.034,1.591L18.5,22a1.154,1.154,0,1,0,1.634-1.629Z" transform="translate(-11.251 -3.193)" fill="#102646"/>
        </g>
      </g>
    </g>
  </g>
</svg>
