<svg xmlns="http://www.w3.org/2000/svg" xmlns:xlink="http://www.w3.org/1999/xlink" width="412" height="847" viewBox="0 0 412 847">
  <defs>
    <filter id="Rectangle_1534" x="-9" y="775" width="430" height="78" filterUnits="userSpaceOnUse">
      <feOffset dy="-3" input="SourceAlpha"/>
      <feGaussianBlur stdDeviation="3" result="blur"/>
      <feFlood flood-opacity="0.059"/>
      <feComposite operator="in" in2="blur"/>
      <feComposite in="SourceGraphic"/>
    </filter>
    <clipPath id="clip-OCD_session_4_15">
      <rect width="412" height="847"/>
    </clipPath>
  </defs>
  <g id="OCD_session_4_15" data-name="OCD session 4 – 15" clip-path="url(#clip-OCD_session_4_15)">
    <rect width="412" height="847" fill="#e9eff4"/>
    <text id="Session_4_OCD_Hierarchy" data-name="Session 4
OCD Hierarchy" transform="translate(29 28)" fill="#1e64cc" font-size="16" font-family="ArialMT, Arial"><tspan x="0" y="14">Session 4</tspan><tspan font-size="24" font-family="Arial-BoldMT, Arial" font-weight="700"><tspan x="0" y="49">OCD Hierarchy</tspan></tspan></text>
    <g id="Group_3148" data-name="Group 3148" transform="translate(-1 -207.753)">
      <rect id="Rectangle_1728" data-name="Rectangle 1728" width="368" height="76" rx="10" transform="translate(22 373.753)" fill="#fff"/>
      <g id="Group_3154" data-name="Group 3154" transform="translate(0 -84)">
        <text id="Obsession_-_09" data-name="Obsession - 09" transform="translate(37 484.753)" fill="#2e5b9f" font-size="18" font-family="ArialMT, Arial"><tspan x="0" y="16">Obsession - 09</tspan></text>
      </g>
      <path id="Icon_feather-chevron-down" data-name="Icon feather-chevron-down" d="M9,13.5l9,9,9-9" transform="translate(339.146 430.253) rotate(-90)" fill="none" stroke="#1e64cc" stroke-linecap="round" stroke-linejoin="round" stroke-width="2" opacity="0.5"/>
    </g>
    <g id="Group_3813" data-name="Group 3813" transform="translate(-1 -107.753)">
      <rect id="Rectangle_1728-2" data-name="Rectangle 1728" width="368" height="76" rx="10" transform="translate(22 373.753)" fill="#fff"/>
      <g id="Group_3154-2" data-name="Group 3154" transform="translate(0 -84)">
        <text id="Contamination_-_03" data-name="Contamination - 03" transform="translate(37 484.753)" fill="#2e5b9f" font-size="18" font-family="ArialMT, Arial"><tspan x="0" y="16">Contamination - 03</tspan></text>
      </g>
      <path id="Icon_feather-chevron-down-2" data-name="Icon feather-chevron-down" d="M9,13.5l9,9,9-9" transform="translate(339.146 430.253) rotate(-90)" fill="none" stroke="#1e64cc" stroke-linecap="round" stroke-linejoin="round" stroke-width="2" opacity="0.5"/>
    </g>
    <g id="Group_3814" data-name="Group 3814" transform="translate(-1 -7.753)">
      <rect id="Rectangle_1728-3" data-name="Rectangle 1728" width="368" height="76" rx="10" transform="translate(22 373.753)" fill="#fff"/>
      <g id="Group_3154-3" data-name="Group 3154" transform="translate(0 -84)">
        <text id="Mental_Compulsions_-_01" data-name="Mental Compulsions - 01" transform="translate(37 484.753)" fill="#2e5b9f" font-size="18" font-family="ArialMT, Arial"><tspan x="0" y="16">Mental Compulsions - 01</tspan></text>
      </g>
      <path id="Icon_feather-chevron-down-3" data-name="Icon feather-chevron-down" d="M9,13.5l9,9,9-9" transform="translate(339.146 430.253) rotate(-90)" fill="none" stroke="#1e64cc" stroke-linecap="round" stroke-linejoin="round" stroke-width="2" opacity="0.5"/>
    </g>
    <text id="Assesments" transform="translate(21 126.247)" fill="#1e64cc" font-size="16" font-family="Arial-BoldMT, Arial" font-weight="700"><tspan x="0" y="14">Assesments</tspan></text>
    <g id="Component_119_386" data-name="Component 119 – 386" transform="translate(0 787)">
      <g transform="matrix(1, 0, 0, 1, 0, -787)" filter="url(#Rectangle_1534)">
        <rect id="Rectangle_1534-2" data-name="Rectangle 1534" width="412" height="60" transform="translate(0 787)" fill="#102646"/>
      </g>
      <g id="Group_2755" data-name="Group 2755" transform="translate(0 -779)">
        <g id="Rectangle_1564" data-name="Rectangle 1564" transform="translate(12 789)" fill="#fff" stroke="#707070" stroke-width="1" opacity="0">
          <rect width="50" height="45" stroke="none"/>
          <rect x="0.5" y="0.5" width="49" height="44" fill="none"/>
        </g>
        <path id="Path_4565" data-name="Path 4565" d="M35.606,24.011l-7.368-7.1,7.368-7.1a1.37,1.37,0,0,0,.424-.982,1.4,1.4,0,0,0-.4-1,1.369,1.369,0,0,0-.982-.424h-.022a1.385,1.385,0,0,0-.982.4l-8.417,8.1a1.42,1.42,0,0,0-.424,1,1.382,1.382,0,0,0,.424,1l8.439,8.1a1.443,1.443,0,0,0,.982.4,1.42,1.42,0,0,0,1-.424,1.4,1.4,0,0,0,.4-1A1.274,1.274,0,0,0,35.606,24.011Z" transform="translate(5.036 792.435)" fill="#fff"/>
      </g>
    </g>
  </g>
</svg>
