<svg xmlns="http://www.w3.org/2000/svg" xmlns:xlink="http://www.w3.org/1999/xlink" width="412" height="847" viewBox="0 0 412 847">
  <defs>
    <clipPath id="clip-OCD_session_4_8">
      <rect width="412" height="847"/>
    </clipPath>
  </defs>
  <g id="OCD_session_4_8" data-name="OCD session 4 – 8" clip-path="url(#clip-OCD_session_4_8)">
    <rect width="412" height="847" fill="#f5f8fb"/>
    <g id="Group_3103" data-name="Group 3103" transform="translate(-4 55)">
      <g id="Group_1500" data-name="Group 1500" transform="translate(71 65)">
        <text id="OBQ-44_Questionnaire" data-name="OBQ-44 Questionnaire" fill="#1e64cc" font-size="24" font-family="Arial-BoldMT, Arial" font-weight="700"><tspan x="0" y="22">OBQ-44 Questionnaire</tspan></text>
      </g>
      <g id="Group_3103-2" data-name="Group 3103" transform="translate(25 59)">
        <g id="Group_3157" data-name="Group 3157">
          <rect id="Rectangle_1722" data-name="Rectangle 1722" width="371" height="501" rx="16" fill="#e9eef3"/>
          <text id="Start_from_small_step" data-name="Start from small step" transform="translate(127 34)" fill="#1e64cc" font-size="16" font-family="ArialMT, Arial"><tspan x="0" y="14">Start from small step</tspan></text>
          <text id="Start_with_a_category_having_low_to_medium_level_of_challenge." data-name="Start with a category having low to medium level of challenge." transform="translate(71 378)" fill="#254069" font-size="12" font-family="ArialMT, Arial"><tspan x="0.113" y="11">Start with a category having low to medium </tspan><tspan x="66.468" y="36">level of challenge.</tspan></text>
        </g>
        <g id="Group_3138" data-name="Group 3138" transform="translate(64.479 24)">
          <circle id="Ellipse_585" data-name="Ellipse 585" cx="22.5" cy="22.5" r="22.5" fill="#d2dff2"/>
          <g id="Group_3138-2" data-name="Group 3138" transform="translate(15.505 15.427)">
            <g id="Group_1765" data-name="Group 1765" transform="translate(0 0)">
              <path id="Path_2393" data-name="Path 2393" d="M308.621,222.712l-24.782-10.871a.267.267,0,0,0-.336.335l10.871,24.782a.267.267,0,0,0,.478.066l3.791-7.3,9.131,9.131a.268.268,0,0,0,.378,0l2.365-2.365a.267.267,0,0,0,0-.377l-9.132-9.131,7.3-3.791A.267.267,0,0,0,308.621,222.712Z" transform="translate(-271.605 -200.907)" fill="#ff7600"/>
              <g id="Group_1764" data-name="Group 1764">
                <g id="Group_1755" data-name="Group 1755" transform="translate(3.43 2.783)">
                  <g id="Group_1754" data-name="Group 1754">
                    <path id="Path_2394" data-name="Path 2394" d="M275.757,205.163a1.239,1.239,0,0,1-1.749-.1l-3.852-4.31A1.239,1.239,0,0,1,272,199.1l3.853,4.311A1.239,1.239,0,0,1,275.757,205.163Z" transform="translate(-269.84 -198.69)" fill="#86c1fd"/>
                  </g>
                </g>
                <g id="Group_1757" data-name="Group 1757" transform="translate(9.365)">
                  <g id="Group_1756" data-name="Group 1756">
                    <path id="Path_2395" data-name="Path 2395" d="M282.336,202.079a1.239,1.239,0,0,1-2.05-.743l-.85-5.718a1.239,1.239,0,1,1,2.45-.365l.85,5.718A1.236,1.236,0,0,1,282.336,202.079Z" transform="translate(-279.422 -194.197)" fill="#86c1fd"/>
                  </g>
                </g>
                <g id="Group_1759" data-name="Group 1759" transform="translate(0 8.369)">
                  <g id="Group_1758" data-name="Group 1758">
                    <path id="Path_2396" data-name="Path 2396" d="M271.954,211.356a1.238,1.238,0,0,1-1.145.274l-5.587-1.485a1.239,1.239,0,0,1,.637-2.394l5.587,1.485a1.238,1.238,0,0,1,.508,2.12Z" transform="translate(-264.302 -207.709)" fill="#86c1fd"/>
                  </g>
                </g>
                <g id="Group_1761" data-name="Group 1761" transform="translate(0.129 12.98)">
                  <g id="Group_1760" data-name="Group 1760">
                    <path id="Path_2397" data-name="Path 2397" d="M272.1,217.317a1.244,1.244,0,0,1-.458.258l-5.521,1.713a1.239,1.239,0,1,1-.735-2.366l5.521-1.713a1.239,1.239,0,0,1,1.192,2.108Z" transform="translate(-264.511 -215.153)" fill="#86c1fd"/>
                  </g>
                </g>
                <g id="Group_1763" data-name="Group 1763" transform="translate(13.245 0.777)">
                  <g id="Group_1762" data-name="Group 1762">
                    <path id="Path_2398" data-name="Path 2398" d="M287.752,202.938a1.239,1.239,0,0,1-1.968-1.405l2.25-5.325a1.239,1.239,0,1,1,2.282.964l-2.25,5.325A1.235,1.235,0,0,1,287.752,202.938Z" transform="translate(-285.686 -195.451)" fill="#86c1fd"/>
                  </g>
                </g>
              </g>
            </g>
          </g>
        </g>
      </g>
    </g>
    <g id="Group_3192" data-name="Group 3192" transform="translate(1 8)">
      <path id="Path_5920" data-name="Path 5920" d="M9465.524,14761.509c6.567-31.59,16.01-89.273,76.558-71.347s40.628,29.124,97.831,21.63,86.675,95.53,35.142,93.989-30.141,11.445-69.951,14.13-54.4,11.21-89.292-3.391S9458.957,14793.1,9465.524,14761.509Z" transform="translate(-9383 -14435.288)" fill="#d2dff2" opacity="0.6"/>
      <circle id="Ellipse_599" data-name="Ellipse 599" cx="2.5" cy="2.5" r="2.5" transform="translate(113 253)" fill="#1e64cc"/>
      <circle id="Ellipse_600" data-name="Ellipse 600" cx="4.5" cy="4.5" r="4.5" transform="translate(83 355)" fill="#1e64cc"/>
      <circle id="Ellipse_601" data-name="Ellipse 601" cx="7.5" cy="7.5" r="7.5" transform="translate(309 313)" fill="#fe7614"/>
    </g>
    <g id="Collaboration-rafiki" transform="translate(74.909 164.273)">
      <g id="freepik--Shadow--inject-21" transform="translate(27.606 240.931)">
        <ellipse id="freepik--path--inject-21" cx="103.485" cy="6.042" rx="103.485" ry="6.042" fill="#f5f5f5"/>
      </g>
      <g id="freepik--Pyramid--inject-21" transform="translate(48.363 130.998)">
        <path id="Path_5935" data-name="Path 5935" d="M95,388.686H260.457L243.911,360.03H111.546Z" transform="translate(-95 -274.056)" fill="#b0bec5"/>
        <path id="Path_5936" data-name="Path 5936" d="M95,388.686H260.457L243.911,360.03H111.546Z" transform="translate(-95 -274.056)" fill="#fff" opacity="0.4"/>
        <path id="Path_5937" data-name="Path 5937" d="M126,334.991H258.366L241.82,306.33H142.546Z" transform="translate(-109.454 -249.018)" fill="#b0bec5"/>
        <path id="Path_5938" data-name="Path 5938" d="M126,334.991H258.366L241.82,306.33H142.546Z" transform="translate(-109.454 -249.018)" fill="#fff" opacity="0.3"/>
        <path id="Path_5939" data-name="Path 5939" d="M173.546,252.64,157,281.3h99.274L239.728,252.64Z" transform="translate(-123.909 -223.984)" fill="#b0bec5"/>
        <path id="Path_5940" data-name="Path 5940" d="M173.546,252.64,157,281.3h99.274L239.728,252.64Z" transform="translate(-123.909 -223.984)" fill="#fff" opacity="0.2"/>
        <path id="Path_5941" data-name="Path 5941" d="M237.637,198.95H204.546L188,227.606h66.183Z" transform="translate(-138.363 -198.95)" fill="#b0bec5"/>
        <path id="Path_5942" data-name="Path 5942" d="M237.637,198.95H204.546L188,227.606h66.183Z" transform="translate(-138.363 -198.95)" fill="#1e64cc"/>
      </g>
      <g id="freepik--character-2--inject-21" transform="translate(57.276 64.819)">
        <path id="Path_5943" data-name="Path 5943" d="M170.712,118.884c-.272.2-.64.491-.966.758s-.656.534-.982.849c-.64.587-1.276,1.185-1.873,1.815a26.09,26.09,0,0,0-3.149,4.078c-.2.326-.534.875-.475.8a1.206,1.206,0,0,0-.059.587,7.2,7.2,0,0,0,.678,2.135,32.647,32.647,0,0,0,2.727,4.558l-1.5,1.441a20.96,20.96,0,0,1-4.04-4.4,9.608,9.608,0,0,1-1.409-3.069,4.8,4.8,0,0,1-.032-2.2,3.58,3.58,0,0,1,.192-.619,3.963,3.963,0,0,1,.2-.427l.336-.689a24.21,24.21,0,0,1,3.453-5.006,28.634,28.634,0,0,1,2.108-2.135c.374-.336.758-.667,1.148-.987s.774-.608,1.27-.95Z" transform="translate(-133.997 -93.824)" fill="#b55b52"/>
        <path id="Path_5944" data-name="Path 5944" d="M175.411,110.316c-2.626.117-6.581,5.4-6.581,5.4l4.222,5.006s5.337-2.877,5.924-6.682A3.2,3.2,0,0,0,175.411,110.316Z" transform="translate(-138.338 -91.441)" fill="#b0bec5"/>
        <path id="Path_5945" data-name="Path 5945" d="M170.524,149.93l3.128,2.669-2.936.742s-1.825-1.067-1.292-2.557Z" transform="translate(-138.57 -109.914)" fill="#b55b52"/>
        <path id="Path_5946" data-name="Path 5946" d="M174.887,156.517,173.36,158l-1.43-2.274,2.936-.742Z" transform="translate(-139.783 -112.269)" fill="#b55b52"/>
        <path id="Path_5947" data-name="Path 5947" d="M218,97.363c-.128.272-.085.571.1.662s.427-.064.534-.336.085-.571-.091-.662S218.124,97.086,218,97.363Z" transform="translate(-161.228 -85.235)" fill="#263238"/>
        <path id="Path_5948" data-name="Path 5948" d="M218.94,97l.753.139S219.111,97.486,218.94,97Z" transform="translate(-161.703 -85.235)" fill="#263238"/>
        <path id="Path_5949" data-name="Path 5949" d="M217.467,98.4a8.418,8.418,0,0,0,.16,2.247,1.329,1.329,0,0,1-1.067-.3Z" transform="translate(-160.593 -85.888)" fill="#a02724"/>
        <path id="Path_5950" data-name="Path 5950" d="M219.014,93.842a.155.155,0,0,1-.075-.043,1.494,1.494,0,0,0-1.249-.432.176.176,0,0,1-.214-.139.181.181,0,0,1,.139-.214,1.852,1.852,0,0,1,1.569.534.176.176,0,0,1,0,.251A.181.181,0,0,1,219.014,93.842Z" transform="translate(-161.019 -83.369)" fill="#263238"/>
        <path id="Path_5951" data-name="Path 5951" d="M196.271,98.15c.075,2.29-.907,5.983-2.7,7.152,0,0,1.158,2.477,5.279,3.272,4.531.881,2.535-1.815,2.535-1.815-2.375-1.067-2.012-2.882-1.3-4.51Z" transform="translate(-149.873 -85.771)" fill="#b55b52"/>
        <path id="Path_5952" data-name="Path 5952" d="M216.954,122.06c.208,1.164.427,2.4.683,3.6s.491,2.418.774,3.613.576,2.386.891,3.565c.155.592.331,1.174.5,1.756l.454,1.414a2.391,2.391,0,0,0,.731.737,8.979,8.979,0,0,0,1.356.763,24.483,24.483,0,0,0,3.293,1.244c1.148.368,2.338.683,3.539.966s2.418.534,3.613.8l-.192,2.076a45.019,45.019,0,0,1-7.728-.785,24.226,24.226,0,0,1-3.891-1.067,11.6,11.6,0,0,1-1.985-.955,5.732,5.732,0,0,1-1.969-1.852,4.1,4.1,0,0,1-.208-.368l-.091-.2-.069-.171-.176-.459-.347-.913c-.219-.614-.443-1.222-.646-1.841-.411-1.228-.785-2.466-1.1-3.736a67.471,67.471,0,0,1-1.6-7.579Z" transform="translate(-158.83 -96.92)" fill="#b55b52"/>
        <path id="Path_5953" data-name="Path 5953" d="M257.817,131.28,236.74,156.792l32.632,5.5Z" transform="translate(-170.002 -101.219)" fill="#254069"/>
        <path id="Path_5954" data-name="Path 5954" d="M248.655,156.109l2.994-1.019.347,2.8s-2.733,1.462-3.736-.534Z" transform="translate(-175.374 -112.32)" fill="#b55b52"/>
        <path id="Path_5955" data-name="Path 5955" d="M256.139,156l.993,2.631-2.215-.737-.347-2.8Z" transform="translate(-178.316 -112.325)" fill="#b55b52"/>
        <path id="Path_5956" data-name="Path 5956" d="M178.63,309.7l3.784.278,1.126-8.689-3.784-.278Z" transform="translate(-142.907 -180.358)" fill="#b55b52"/>
        <path id="Path_5957" data-name="Path 5957" d="M133.75,291.206l3.48,1.617,4.659-7.376-3.48-1.617Z" transform="translate(-121.981 -172.348)" fill="#b55b52"/>
        <path id="Path_5958" data-name="Path 5958" d="M136.416,296.754l-3.421-2.631a.3.3,0,0,0-.4,0l-2.407,2.332a.608.608,0,0,0,.08.9c1.212.9,1.841,1.27,3.347,2.423.923.71,2.21,1.847,3.485,2.829s2.29-.2,1.847-.715a7.363,7.363,0,0,1-2.135-4.585A1.067,1.067,0,0,0,136.416,296.754Z" transform="translate(-120.244 -177.111)" fill="#263238"/>
        <path id="Path_5959" data-name="Path 5959" d="M181.665,316.8H177.4a.309.309,0,0,0-.31.261l-.571,3.368a.587.587,0,0,0,.587.673c1.484-.027,2.2-.112,4.072-.112,1.153,0,3.528.117,5.119.117s1.713-1.569,1.067-1.713a9.994,9.994,0,0,1-5.076-2.359.977.977,0,0,0-.619-.235Z" transform="translate(-141.918 -187.72)" fill="#263238"/>
        <path id="Path_5960" data-name="Path 5960" d="M184.016,301.293l-.624,4.825-3.741-.624.576-4.483Z" transform="translate(-143.383 -180.358)" opacity="0.2"/>
        <path id="Path_5961" data-name="Path 5961" d="M140.741,283.84l3.48,1.617-2.066,3.266-3.405-1.74Z" transform="translate(-124.313 -172.352)" opacity="0.2"/>
        <path id="Path_5962" data-name="Path 5962" d="M179.16,133.351l15.185,2.93c7.173-21.12,5.455-21.8,5.455-21.8a31.366,31.366,0,0,0-3.443-1.6l-.2-.08c-.971-.352-1.174-.406-2.477-.785-2.236-.534-4.318-.961-6.891-1.329a4.944,4.944,0,0,1-.491-.069c-.47-.059-.934-.107-1.377-.149-.3-.037-.6-.053-.891-.075l-.982-.053c-1.66-.08-2.845-.059-2.845-.059C181.065,123.472,180.43,127.261,179.16,133.351Z" transform="translate(-143.154 -91.425)" fill="#b0bec5"/>
        <path id="Path_5963" data-name="Path 5963" d="M211.868,128.217a12.847,12.847,0,0,0,.443,6.624c1.26-4.131,1.98-6.939,2.364-8.887C213.512,125.8,212.274,126.179,211.868,128.217Z" transform="translate(-158.292 -98.722)" opacity="0.2"/>
        <path id="Path_5964" data-name="Path 5964" d="M214.4,117.946c2.53,1.649,4.147,5.337,4.574,7.435l-5.871,4.8s-3.2-7.147-2.135-8.972C212.042,119.291,213.446,117.316,214.4,117.946Z" transform="translate(-157.885 -94.945)" fill="#b0bec5"/>
        <path id="Path_5965" data-name="Path 5965" d="M200.157,84.845c-1.366,3.485-2.023,4.932-1.126,7.52,1.345,3.891,5.908,4.948,8.284,1.969,2.135-2.669,4.024-7.926,1.345-10.92a5.006,5.006,0,0,0-8.5,1.43Z" transform="translate(-152.228 -78.07)" fill="#b55b52"/>
        <path id="Path_5966" data-name="Path 5966" d="M213.5,94.215a3.363,3.363,0,0,0,.128,2.039c.347.918,1.067.9,1.414.246a2.44,2.44,0,0,0-.037-2.5C214.436,93.276,213.72,93.468,213.5,94.215Z" transform="translate(-159.12 -83.624)" fill="#b55b52"/>
        <path id="Path_5967" data-name="Path 5967" d="M192.434,75.78a4.686,4.686,0,0,0-4.926,2.743c-1.286,2.589-2.519,6-4.361,5.295.347.534,1.441,1.126,1.815.881-1.244,1.244-1.489,2.252-1.756,4.8-.331,3.154-2.076,2.461-2.076,2.461s2.039,3.3,8.716,4.473c5.935,1.067,8.684-.288,9.484-1.4-.822-.267-2.1-3.2-.977-4.868s3.074-6.271,2.754-8.118c.721,1.142.758,2.957,1.361,1.132a5.167,5.167,0,0,0-1.361-6C199.117,75.135,193.3,74.137,192.434,75.78Z" transform="translate(-144.073 -74.957)" fill="#263238"/>
        <path id="Path_5968" data-name="Path 5968" d="M171.611,155.663s-7.4,24.781-11.011,39.032c-3.811,15.046-16.8,32.718-16.8,32.718l-4.8-2.669s7.878-16.882,11.571-30.924c7.472-28.507,3.891-34.548,9.869-40.339Z" transform="translate(-124.429 -111.57)" fill="#263238"/>
        <path id="Path_5969" data-name="Path 5969" d="M143.627,288.432,137.66,285.1l.87-1.761,7.04,3.24Z" transform="translate(-123.804 -172.119)" fill="#b0bec5"/>
        <path id="Path_5970" data-name="Path 5970" d="M189.151,166.913c-4.852,3.736-5.177,18-5.065,24.445,2.466-9,5.385-19.022,7.093-24.824C190.714,166.139,190.042,166.225,189.151,166.913Z" transform="translate(-145.443 -117.547)" opacity="0.2"/>
        <path id="Path_5971" data-name="Path 5971" d="M143.362,301.1a.533.533,0,0,1-.133.032c-.48.043-1.1-.614-1.43-1.014a.091.091,0,0,1,0-.1.08.08,0,0,1,.1-.027c.16,0,1.537.144,1.761.571a.3.3,0,0,1,0,.3A.534.534,0,0,1,143.362,301.1Zm-1.281-.923c.454.534.87.8,1.132.779a.326.326,0,0,0,.256-.192.133.133,0,0,0,0-.133C143.356,300.4,142.631,300.244,142.081,300.174Z" transform="translate(-125.727 -179.88)" fill="#b0bec5"/>
        <path id="Path_5972" data-name="Path 5972" d="M193.607,157.116s.945,29.969-1.174,41.252c-2.2,11.742-8.908,38.429-8.908,38.429l-5.455-.689s3.448-26.98,4.916-38.642c1.6-12.719-.5-42.506-.5-42.506Z" transform="translate(-142.646 -112.26)" fill="#263238"/>
        <path id="Path_5973" data-name="Path 5973" d="M183.672,306.44l-7.782-1,.1-1.847,8.465.368Z" transform="translate(-141.63 -181.561)" fill="#b0bec5"/>
        <path id="Path_5974" data-name="Path 5974" d="M143.02,299.172a2.668,2.668,0,0,1-1.18.192.091.091,0,0,1-.069-.053.107.107,0,0,1,0-.091c.032-.032.683-.875,1.228-.913a.475.475,0,0,1,.39.139.31.31,0,0,1,.085.384A.859.859,0,0,1,143.02,299.172Zm-.987.027c.464,0,1.18-.213,1.292-.448a.166.166,0,0,0-.053-.176.3.3,0,0,0-.246-.091c-.326.021-.758.448-.993.726Z" transform="translate(-125.716 -179.097)" fill="#b0bec5"/>
        <path id="Path_5975" data-name="Path 5975" d="M187.7,317.165a6.406,6.406,0,0,1-1.19-.133.085.085,0,0,1-.069-.075.091.091,0,0,1,.048-.091c.176-.091,1.708-.865,2.162-.6a.262.262,0,0,1,.144.235.491.491,0,0,1-.171.438A1.431,1.431,0,0,1,187.7,317.165Zm-.886-.262a2.457,2.457,0,0,0,1.692-.1.352.352,0,0,0,.112-.288.117.117,0,0,0-.053-.1,3.817,3.817,0,0,0-1.751.507Z" transform="translate(-146.548 -187.445)" fill="#b0bec5"/>
        <path id="Path_5976" data-name="Path 5976" d="M186.53,316.321a.091.091,0,0,1-.053,0,.08.08,0,0,1-.037-.08c0-.069.181-1.6,1.03-1.6h.075c.246.027.315.149.331.251.069.427-.849,1.244-1.308,1.452Zm.945-1.532c-.534,0-.763.9-.833,1.281.475-.277,1.094-.923,1.067-1.18,0,0,0-.085-.176-.1Z" transform="translate(-146.548 -186.713)" fill="#b0bec5"/>
        <path id="Path_5977" data-name="Path 5977" d="M178.189,151.705l-.907,1.222c-.069.091.037.224.213.256l15.921,3.085c.139.027.262,0,.283-.1l.363-1.324c.027-.1-.08-.2-.229-.224l-15.377-2.978A.283.283,0,0,0,178.189,151.705Z" transform="translate(-142.268 -110.707)" fill="#b0bec5"/>
        <path id="Path_5978" data-name="Path 5978" d="M178.189,151.705l-.907,1.222c-.069.091.037.224.213.256l15.921,3.085c.139.027.262,0,.283-.1l.363-1.324c.027-.1-.08-.2-.229-.224l-15.377-2.978A.283.283,0,0,0,178.189,151.705Z" transform="translate(-142.268 -110.707)" opacity="0.3"/>
        <path id="Path_5979" data-name="Path 5979" d="M181.881,153.986l-.411-.075c-.08,0-.139-.075-.123-.123l.486-1.719c0-.048.091-.08.171-.064l.416.08a.117.117,0,0,1,.123.123l-.486,1.719C182.042,153.976,181.967,154,181.881,153.986Z" transform="translate(-144.173 -110.881)" fill="#263238"/>
        <path id="Path_5980" data-name="Path 5980" d="M201.363,157.806l-.411-.08c-.08,0-.133-.069-.123-.117l.486-1.719c0-.048.091-.08.171-.064l.416.08a.117.117,0,0,1,.123.123l-.486,1.719C201.528,157.8,201.453,157.823,201.363,157.806Z" transform="translate(-153.257 -112.662)" fill="#263238"/>
        <path id="Path_5981" data-name="Path 5981" d="M159.22,377.527h1.324l3.779-18.617.662-3.261,4.12-20.282h15.8l8.54,42.165h1.324l-8.727-42.939a.64.64,0,0,0-.635-.534H168.576a.64.64,0,0,0-.635.534l-3.619,17.816-.662,3.256Z" transform="translate(-133.857 -195.768)" fill="#263238"/>
        <path id="Path_5982" data-name="Path 5982" d="M111.7,377.522h1.324l8.54-42.165h15.793l4.12,20.282.662,3.25,3.779,18.617h1.324L142.8,355.623l-.662-3.245-3.592-17.795a.64.64,0,0,0-.635-.534h-16.85a.64.64,0,0,0-.635.534Z" transform="translate(-111.7 -195.764)" fill="#263238"/>
        <path id="Path_5983" data-name="Path 5983" d="M168.21,324.87H122.266a3.971,3.971,0,0,0-3.976,3.976v.133a1.447,1.447,0,0,0,1.446,1.452h51a1.446,1.446,0,0,0,1.446-1.452v-.133a3.971,3.971,0,0,0-3.976-3.976Z" transform="translate(-114.773 -191.483)" fill="#b0bec5"/>
      </g>
      <g id="freepik--character-1--inject-21" transform="translate(147.381 111.387)">
        <path id="Path_5984" data-name="Path 5984" d="M369.412,212.35c1.126,2.076,2.167,4.152,3.165,6.277s1.932,4.27,2.8,6.485l.32.833.16.422.091.246.133.422a6.223,6.223,0,0,1,.1,2.813,13.209,13.209,0,0,1-1.425,3.918,24.782,24.782,0,0,1-2,3.16,27.751,27.751,0,0,1-2.354,2.813l-2.391-1.713a54.877,54.877,0,0,0,2.514-6.079,10.5,10.5,0,0,0,.56-2.711c0-.352-.059-.635-.1-.624h0l-.069-.149-.187-.379-.368-.758c-1-2.028-2.044-4.062-3.09-6.1l-3.112-6.111Z" transform="translate(-319.519 -185.587)" fill="#ff8b7b"/>
        <path id="Path_5985" data-name="Path 5985" d="M370.242,259.48,368,260.718l3.368,2.882a4.035,4.035,0,0,0,1.158-3.048Z" transform="translate(-321.309 -207.562)" fill="#ff8b7b"/>
        <path id="Path_5986" data-name="Path 5986" d="M363.95,263.983l2.9,2.247,2.621-1.553L366.1,261.8Z" transform="translate(-319.421 -208.644)" fill="#ff8b7b"/>
        <path id="Path_5987" data-name="Path 5987" d="M340.929,183.971c-.048.278-.229.48-.406.448s-.294-.272-.251-.534.224-.48.406-.448S340.971,183.693,340.929,183.971Z" transform="translate(-308.376 -172.104)" fill="#263238"/>
        <path id="Path_5988" data-name="Path 5988" d="M339.652,185.34a9.9,9.9,0,0,1-1.692,2.135,1.6,1.6,0,0,0,1.286.454Z" transform="translate(-307.302 -172.993)" fill="#ff5652"/>
        <path id="Path_5989" data-name="Path 5989" d="M342.587,181.179a.165.165,0,0,1-.117-.048,1.3,1.3,0,0,0-1.121-.39.165.165,0,0,1-.192-.128.16.16,0,0,1,.123-.192,1.6,1.6,0,0,1,1.425.48.16.16,0,0,1,0,.23A.166.166,0,0,1,342.587,181.179Z" transform="translate(-308.791 -170.69)" fill="#263238"/>
        <path id="Path_5990" data-name="Path 5990" d="M351.965,190.15c-.5,2.541-.993,7.189.785,8.881,0,0-.694,2.578-5.412,2.578-5.188,0-2.477-2.578-2.477-2.578,2.829-.673,2.754-2.775,2.263-4.745Z" transform="translate(-310.19 -175.236)" fill="#ff8b7b"/>
        <path id="Path_5991" data-name="Path 5991" d="M354.368,207.273a1.6,1.6,0,0,1-.149-.454,5.3,5.3,0,0,0-4.894-4.51c-2.669-.1-5.62.352-7.387,2.428-.774.907.085,2.236.085,2.236Z" transform="translate(-309.006 -180.9)" fill="#b0bec5"/>
        <path id="Path_5992" data-name="Path 5992" d="M380.736,404.973H380.7a.331.331,0,0,1-.16-.358.374.374,0,0,1,.155-.283c.411-.315,1.553-.123,1.6-.112a.1.1,0,0,1,.069.059.085.085,0,0,1-.032.085C382.059,404.568,381.141,405.139,380.736,404.973Zm1.34-.635a2.2,2.2,0,0,0-1.276.112.213.213,0,0,0-.1.165c0,.149.053.187.075.2C381,404.931,381.643,404.632,382.075,404.338Z" transform="translate(-327.154 -275.019)" fill="#b0bec5"/>
        <path id="Path_5993" data-name="Path 5993" d="M381.959,403.37c-.395-.155-.817-.411-.875-.656a.267.267,0,0,1,.149-.3.443.443,0,0,1,.358-.053c.5.128,1,1.009,1.019,1.067a.075.075,0,0,1,0,.08.091.091,0,0,1-.075.043,2.232,2.232,0,0,1-.576-.176Zm-.352-.838h-.053a.293.293,0,0,0-.235.032c-.091.053-.08.1-.075.123.053.229.694.566,1.132.662a2.2,2.2,0,0,0-.769-.817Z" transform="translate(-327.406 -274.173)" fill="#b0bec5"/>
        <path id="Path_5994" data-name="Path 5994" d="M330.781,409.2c-.443,0-.875-.059-1.019-.262a.315.315,0,0,1,0-.358.411.411,0,0,1,.262-.192c.576-.155,1.793.534,1.841.566a.075.075,0,0,1,.043.08.08.08,0,0,1-.069.069,6.185,6.185,0,0,1-1.057.1Zm-.534-.673a.531.531,0,0,0-.16,0,.261.261,0,0,0-.16.112c-.059.1-.037.155,0,.181.16.224,1.041.23,1.687.139a3.737,3.737,0,0,0-1.382-.432Z" transform="translate(-303.454 -276.984)" fill="#b0bec5"/>
        <path id="Path_5995" data-name="Path 5995" d="M332.614,408.385h-.032c-.416-.187-1.249-.939-1.185-1.329,0-.1.08-.208.3-.229a.6.6,0,0,1,.459.139,2.348,2.348,0,0,1,.534,1.34.08.08,0,0,1-.037.069A.064.064,0,0,1,332.614,408.385Zm-.843-1.4h-.053c-.149,0-.16.075-.16.1-.043.235.534.822.95,1.067a1.879,1.879,0,0,0-.459-1.067.416.416,0,0,0-.278-.1Z" transform="translate(-304.241 -276.263)" fill="#b0bec5"/>
        <path id="Path_5996" data-name="Path 5996" d="M337.5,402.578h-3.469l-.342-8.038h3.469Z" transform="translate(-305.311 -270.536)" fill="#ff8b7b"/>
        <path id="Path_5997" data-name="Path 5997" d="M384.755,396.087l-3.25.742-3.795-7.7,3.25-.747Z" transform="translate(-325.837 -267.664)" fill="#ff8b7b"/>
        <path id="Path_5998" data-name="Path 5998" d="M379.422,402.1l3.544-1.6a.3.3,0,0,1,.368.091l1.911,2.519a.534.534,0,0,1-.208.774c-1.244.534-1.879.747-3.437,1.462-.955.438-4.345,2.829-5.77,3.133s-1.911-1.067-1.356-1.313A9.959,9.959,0,0,0,379,402.55.844.844,0,0,1,379.422,402.1Z" transform="translate(-324.223 -273.3)" fill="#263238"/>
        <path id="Path_5999" data-name="Path 5999" d="M327.058,408.85h3.79a.3.3,0,0,1,.294.235l.683,3.085a.5.5,0,0,1-.5.619c-1.366-.027-3.341-.107-5.06-.107-2.012,0-3.736.112-6.1.112-1.425,0-1.82-1.441-1.222-1.569,2.711-.6,4.926-.662,7.275-2.108A1.6,1.6,0,0,1,327.058,408.85Z" transform="translate(-298.311 -277.209)" fill="#263238"/>
        <path id="Path_6000" data-name="Path 6000" d="M361.95,213.972c.363.934.758,1.841,1.164,2.669.689,1.473,1.377,2.759,1.879,3.651.448.8.742,1.276.742,1.276l7.579-3.736s-3.053-8.78-6.245-9.757S360.311,209.788,361.95,213.972Z" transform="translate(-318.296 -183.5)" fill="#263238"/>
        <path id="Path_6001" data-name="Path 6001" d="M367.318,220.93c-.656.486-1.132,1.793-1.468,3.325.432.843.833,1.6,1.153,2.135.448.8.737,1.276.737,1.276l.87-.432A16.745,16.745,0,0,0,367.318,220.93Z" transform="translate(-320.307 -189.588)" opacity="0.2"/>
        <path id="Path_6002" data-name="Path 6002" d="M332.28,218.968c0,1.18.027,2.482.1,3.912.171,3.891.592,8.743,1.409,14.768h18.558c.128-2.845-1.665-16.749,1.067-30.172a49.1,49.1,0,0,0-6.213-.785,69.382,69.382,0,0,0-7.889,0,35.379,35.379,0,0,0-5.337.966S332.275,209.59,332.28,218.968Z" transform="translate(-304.654 -182.897)" fill="#263238"/>
        <path id="Path_6003" data-name="Path 6003" d="M332.834,223.986c-.171.374-.352.753-.534,1.158v1.916a12.471,12.471,0,0,0,3.816-4.35Z" transform="translate(-304.663 -190.418)" opacity="0.2"/>
        <path id="Path_6004" data-name="Path 6004" d="M317.272,216.057l-.534.331-.47.272c-.315.187-.608.32-.907.486-.6.294-1.185.571-1.777.838-1.18.534-2.386.982-3.6,1.409a33.2,33.2,0,0,1-7.739,1.74c-.358,0-.689.069-1.067.064h-1.153a8.107,8.107,0,0,1-2.53-.608,18.875,18.875,0,0,1-3.613-2.007,35.98,35.98,0,0,1-5.764-5l1.857-2.284c2.06,1.142,4.163,2.338,6.218,3.288a18.554,18.554,0,0,0,2.962,1.132,3.363,3.363,0,0,0,1.025.133l.673-.064a6.544,6.544,0,0,0,.753-.107,34.159,34.159,0,0,0,6.367-1.852c1.067-.4,2.135-.849,3.17-1.3.534-.235,1.03-.47,1.521-.715l.7-.368.326-.171.256-.149Z" transform="translate(-284.064 -185.013)" fill="#ff8b7b"/>
        <path id="Path_6005" data-name="Path 6005" d="M289,210.357l-2.167-2.8-2.2,3.7s2.023,1.505,3.64,1.233Z" transform="translate(-282.436 -183.354)" fill="#ff8b7b"/>
        <path id="Path_6006" data-name="Path 6006" d="M281.673,205.43l-1.153,3.053,2.194,1.783,2.2-3.7Z" transform="translate(-280.52 -182.36)" fill="#ff8b7b"/>
        <path id="Path_6007" data-name="Path 6007" d="M335.2,213.713c-1.8,2.786-11.582,5.834-11.582,5.834l-3.768-7.75a38.75,38.75,0,0,1,8.3-3.629C334.4,206.46,337.362,210.367,335.2,213.713Z" transform="translate(-298.858 -183.444)" fill="#263238"/>
        <path id="Path_6008" data-name="Path 6008" d="M333.69,394.55l.176,4.142h3.469l-.176-4.142Z" transform="translate(-305.311 -270.541)" opacity="0.2"/>
        <path id="Path_6009" data-name="Path 6009" d="M380.96,388.39l-3.25.747,1.959,3.971,3.25-.747Z" transform="translate(-325.837 -267.669)" opacity="0.2"/>
        <path id="Path_6010" data-name="Path 6010" d="M350.053,181.017c-.742,3.363-1,5.369-2.994,6.842a4.574,4.574,0,0,1-7.216-3.507c-.251-3.17,1-8.134,4.537-8.967a4.7,4.7,0,0,1,5.674,5.631Z" transform="translate(-308.166 -168.291)" fill="#ff8b7b"/>
        <path id="Path_6011" data-name="Path 6011" d="M353.176,166.692c2.952.08,4.024,4.985,3.144,6.447a7.148,7.148,0,0,0-2.092,2.332c-1.74,2.743-3.96,5.711-6.565,5.535-3.234-.224-3.736-3.96-3.624-7.435-1.708-1.6-2.642-1.729-3.48-4.051C337.97,162.363,342.945,158.777,353.176,166.692Z" transform="translate(-308.199 -162.207)" fill="#263238"/>
        <path id="Path_6012" data-name="Path 6012" d="M347.852,184.115a3.971,3.971,0,0,1-1.067,2.316c-.806.827-1.6.272-1.7-.774-.091-.939.219-2.5,1.18-2.936S347.948,183.063,347.852,184.115Z" transform="translate(-310.618 -171.714)" fill="#ff8b7b"/>
        <path id="Path_6013" data-name="Path 6013" d="M347.415,264.79s-.4,24.7,2.7,34.378c4.916,15.334,13.343,35.963,13.343,35.963l6.341-1.6s-6.987-20.912-9.255-33.828c-2.039-11.6-1.174-25.416-1.174-34.9Z" transform="translate(-311.703 -210.038)" fill="#b0bec5"/>
        <path id="Path_6014" data-name="Path 6014" d="M350.885,271.427c.656,4.451-1.665,16.839-2.466,20.9-.843-7.584-1-16.583-1.009-21.493C349.107,269.677,350.58,269.378,350.885,271.427Z" transform="translate(-311.709 -212.432)" opacity="0.2"/>
        <path id="Path_6015" data-name="Path 6015" d="M374.35,391.234c-.027,0,1.553,2.007,1.553,2.007l6.939-1.767-.769-2.354Z" transform="translate(-324.27 -268.009)" fill="#b0bec5"/>
        <path id="Path_6016" data-name="Path 6016" d="M374.35,391.234c-.027,0,1.553,2.007,1.553,2.007l6.939-1.767-.769-2.354Z" transform="translate(-324.27 -268.009)" fill="#fff" opacity="0.2"/>
        <path id="Path_6017" data-name="Path 6017" d="M330.178,264.79s-5.225,22.155-5.594,32.739c-.411,11.865,3.736,39.859,3.736,39.859h5.871s.742-28.186.987-39.021c.288-11.785,7.227-33.577,7.227-33.577Z" transform="translate(-301.053 -210.038)" fill="#b0bec5"/>
        <path id="Path_6018" data-name="Path 6018" d="M329.479,396.42c-.027,0,.331,2.439.331,2.439h7.152l.192-2.178Z" transform="translate(-303.347 -271.413)" fill="#b0bec5"/>
        <path id="Path_6019" data-name="Path 6019" d="M329.479,396.42c-.027,0,.331,2.439.331,2.439h7.152l.192-2.178Z" transform="translate(-303.347 -271.413)" fill="#fff" opacity="0.2"/>
      </g>
    </g>
    <g id="Group_1193" data-name="Group 1193" transform="translate(3.371 -149.643)">
      <g id="Ellipse_12" data-name="Ellipse 12" transform="translate(177.629 798.642)" fill="none" stroke="#0e58c7" stroke-width="1">
        <circle cx="4" cy="4" r="4" stroke="none"/>
        <circle cx="4" cy="4" r="3.5" fill="none"/>
      </g>
      <g id="Ellipse_13" data-name="Ellipse 13" transform="translate(191.629 798.642)" fill="none" stroke="#0e58c7" stroke-width="1">
        <circle cx="4" cy="4" r="4" stroke="none"/>
        <circle cx="4" cy="4" r="3.5" fill="none"/>
      </g>
      <g id="Ellipse_91" data-name="Ellipse 91" transform="translate(206.629 798.642)" fill="none" stroke="#0e58c7" stroke-width="1">
        <circle cx="4" cy="4" r="4" stroke="none"/>
        <circle cx="4" cy="4" r="3.5" fill="none"/>
      </g>
      <g id="Ellipse_92" data-name="Ellipse 92" transform="translate(220.629 798.642)" fill="#0e58c7" stroke="#0e58c7" stroke-width="1">
        <circle cx="4" cy="4" r="4" stroke="none"/>
        <circle cx="4" cy="4" r="3.5" fill="none"/>
      </g>
    </g>
    <g id="Group_3234" data-name="Group 3234" transform="translate(-4.848 -10.263)">
      <path id="Icon_ionic-ios-arrow-back" data-name="Icon ionic-ios-arrow-back" d="M15.217,17.7,23.926,9A1.645,1.645,0,1,0,21.6,6.674l-9.867,9.86a1.642,1.642,0,0,0-.048,2.268l9.908,9.929a1.645,1.645,0,0,0,2.33-2.323Z" transform="translate(362.579 30.069)" fill="#1e64cc"/>
      <path id="Icon_ionic-ios-arrow-back-2" data-name="Icon ionic-ios-arrow-back" d="M3.967,11.506l8.709-8.7A1.645,1.645,0,1,0,10.346.481L.479,10.341a1.642,1.642,0,0,0-.048,2.268l9.908,9.929a1.645,1.645,0,1,0,2.33-2.323Z" transform="translate(377.472 59.28) rotate(180)" fill="#1e64cc"/>
    </g>
    <text id="Rules_for_ERP_Exercise_Examples" data-name="Rules for ERP Exercise / Examples" transform="translate(21 24)" fill="#1e64cc" font-size="24" font-family="Arial-BoldMT, Arial" font-weight="700"><tspan x="0" y="22">Rules for ERP Exercise / </tspan><tspan x="0" y="53">Examples</tspan></text>
    <g id="Component_119_382" data-name="Component 119 – 382" transform="translate(0 779.138)">
      <rect id="Rectangle_1927" data-name="Rectangle 1927" width="412" height="67" transform="translate(0 0.722)" fill="#edf4fd"/>
      <path id="Path_4714" data-name="Path 4714" d="M1053,4508.186h411.151" transform="translate(-1053 -4508.186)" fill="none" stroke="#fff" stroke-width="2" opacity="0.206"/>
      <g id="Group_3096" data-name="Group 3096" transform="translate(-3 -997.186)">
        <text id="Next" transform="translate(318 1038)" fill="#102646" font-size="18" font-family="ArialMT, Arial"><tspan x="0" y="0">Next</tspan></text>
        <path id="Icon_ionic-ios-arrow-back-3" data-name="Icon ionic-ios-arrow-back" d="M14.033,14.264l6.109-6.1a1.154,1.154,0,0,0-1.634-1.629l-6.921,6.916a1.152,1.152,0,0,0-.034,1.591L18.5,22a1.154,1.154,0,1,0,1.634-1.629Z" transform="translate(389.251 1046.266) rotate(180)" fill="#102646"/>
      </g>
      <g id="Group_3224" data-name="Group 3224" transform="translate(2.529 7.076)">
        <g id="Group_3212" data-name="Group 3212" transform="translate(34.47 14.737)">
          <text id="Back" transform="translate(19.06 18)" fill="#102646" font-size="18" font-family="ArialMT, Arial"><tspan x="0" y="0">Back</tspan></text>
          <path id="Icon_ionic-ios-arrow-back-4" data-name="Icon ionic-ios-arrow-back" d="M14.033,14.264l6.109-6.1a1.154,1.154,0,0,0-1.634-1.629l-6.921,6.916a1.152,1.152,0,0,0-.034,1.591L18.5,22a1.154,1.154,0,1,0,1.634-1.629Z" transform="translate(-11.251 -3.193)" fill="#102646"/>
        </g>
      </g>
    </g>
  </g>
</svg>
