<svg xmlns="http://www.w3.org/2000/svg" xmlns:xlink="http://www.w3.org/1999/xlink" width="412" height="847" viewBox="0 0 412 847">
  <defs>
    <clipPath id="clip-OCD_session_4_9">
      <rect width="412" height="847"/>
    </clipPath>
  </defs>
  <g id="OCD_session_4_9" data-name="OCD session 4 – 9" clip-path="url(#clip-OCD_session_4_9)">
    <rect width="412" height="847" fill="#f5f8fb"/>
    <g id="Group_3103" data-name="Group 3103" transform="translate(-4 55)">
      <g id="Group_1500" data-name="Group 1500" transform="translate(71 65)">
        <text id="OBQ-44_Questionnaire" data-name="OBQ-44 Questionnaire" fill="#1e64cc" font-size="24" font-family="Arial-BoldMT, Arial" font-weight="700"><tspan x="0" y="22">OBQ-44 Questionnaire</tspan></text>
      </g>
      <g id="Group_3103-2" data-name="Group 3103" transform="translate(25 59)">
        <g id="Group_3157" data-name="Group 3157">
          <rect id="Rectangle_1722" data-name="Rectangle 1722" width="371" height="501" rx="16" fill="#e9eef3"/>
          <text id="Be_a_open_minded" data-name="Be a open minded" transform="translate(127 34)" fill="#1e64cc" font-size="16" font-family="ArialMT, Arial"><tspan x="0" y="14">Be a open minded</tspan></text>
          <text id="Exposure_exercises_should_be_done_in_the_context_of_real-world_anxiety-provoking_situations_and_stimuli._You_can_take_help_of_your_guardian_or_doctor._" data-name="Exposure exercises should be done in the context of real-world anxiety-provoking situations and stimuli. You can take help of your guardian or doctor. " transform="translate(21 379)" fill="#254069" font-size="12" font-family="ArialMT, Arial"><tspan x="11.743" y="11">Exposure exercises should be done in the context of real-</tspan><tspan x="6.411" y="36">world anxiety-provoking situations and stimuli. You can take </tspan><tspan x="81.446" y="61">help of your guardian or doctor. </tspan></text>
        </g>
        <g id="Group_3138" data-name="Group 3138" transform="translate(64.479 24)">
          <circle id="Ellipse_585" data-name="Ellipse 585" cx="22.5" cy="22.5" r="22.5" fill="#d2dff2"/>
          <g id="Group_3138-2" data-name="Group 3138" transform="translate(15.505 15.427)">
            <g id="Group_1765" data-name="Group 1765" transform="translate(0 0)">
              <path id="Path_2393" data-name="Path 2393" d="M308.621,222.712l-24.782-10.871a.267.267,0,0,0-.336.335l10.871,24.782a.267.267,0,0,0,.478.066l3.791-7.3,9.131,9.131a.268.268,0,0,0,.378,0l2.365-2.365a.267.267,0,0,0,0-.377l-9.132-9.131,7.3-3.791A.267.267,0,0,0,308.621,222.712Z" transform="translate(-271.605 -200.907)" fill="#ff7600"/>
              <g id="Group_1764" data-name="Group 1764">
                <g id="Group_1755" data-name="Group 1755" transform="translate(3.43 2.783)">
                  <g id="Group_1754" data-name="Group 1754">
                    <path id="Path_2394" data-name="Path 2394" d="M275.757,205.163a1.239,1.239,0,0,1-1.749-.1l-3.852-4.31A1.239,1.239,0,0,1,272,199.1l3.853,4.311A1.239,1.239,0,0,1,275.757,205.163Z" transform="translate(-269.84 -198.69)" fill="#86c1fd"/>
                  </g>
                </g>
                <g id="Group_1757" data-name="Group 1757" transform="translate(9.365)">
                  <g id="Group_1756" data-name="Group 1756">
                    <path id="Path_2395" data-name="Path 2395" d="M282.336,202.079a1.239,1.239,0,0,1-2.05-.743l-.85-5.718a1.239,1.239,0,1,1,2.45-.365l.85,5.718A1.236,1.236,0,0,1,282.336,202.079Z" transform="translate(-279.422 -194.197)" fill="#86c1fd"/>
                  </g>
                </g>
                <g id="Group_1759" data-name="Group 1759" transform="translate(0 8.369)">
                  <g id="Group_1758" data-name="Group 1758">
                    <path id="Path_2396" data-name="Path 2396" d="M271.954,211.356a1.238,1.238,0,0,1-1.145.274l-5.587-1.485a1.239,1.239,0,0,1,.637-2.394l5.587,1.485a1.238,1.238,0,0,1,.508,2.12Z" transform="translate(-264.302 -207.709)" fill="#86c1fd"/>
                  </g>
                </g>
                <g id="Group_1761" data-name="Group 1761" transform="translate(0.129 12.98)">
                  <g id="Group_1760" data-name="Group 1760">
                    <path id="Path_2397" data-name="Path 2397" d="M272.1,217.317a1.244,1.244,0,0,1-.458.258l-5.521,1.713a1.239,1.239,0,1,1-.735-2.366l5.521-1.713a1.239,1.239,0,0,1,1.192,2.108Z" transform="translate(-264.511 -215.153)" fill="#86c1fd"/>
                  </g>
                </g>
                <g id="Group_1763" data-name="Group 1763" transform="translate(13.245 0.777)">
                  <g id="Group_1762" data-name="Group 1762">
                    <path id="Path_2398" data-name="Path 2398" d="M287.752,202.938a1.239,1.239,0,0,1-1.968-1.405l2.25-5.325a1.239,1.239,0,1,1,2.282.964l-2.25,5.325A1.235,1.235,0,0,1,287.752,202.938Z" transform="translate(-285.686 -195.451)" fill="#86c1fd"/>
                  </g>
                </g>
              </g>
            </g>
          </g>
        </g>
      </g>
    </g>
    <g id="Group_3192" data-name="Group 3192" transform="translate(1 8)">
      <path id="Path_5920" data-name="Path 5920" d="M9465.524,14761.509c6.567-31.59,16.01-89.273,76.558-71.347s40.628,29.124,97.831,21.63,86.675,95.53,35.142,93.989-30.141,11.445-69.951,14.13-54.4,11.21-89.292-3.391S9458.957,14793.1,9465.524,14761.509Z" transform="translate(-9383 -14435.288)" fill="#d2dff2" opacity="0.6"/>
      <circle id="Ellipse_599" data-name="Ellipse 599" cx="2.5" cy="2.5" r="2.5" transform="translate(113 253)" fill="#1e64cc"/>
      <circle id="Ellipse_600" data-name="Ellipse 600" cx="4.5" cy="4.5" r="4.5" transform="translate(83 355)" fill="#1e64cc"/>
      <circle id="Ellipse_601" data-name="Ellipse 601" cx="7.5" cy="7.5" r="7.5" transform="translate(309 313)" fill="#fe7614"/>
    </g>
    <g id="Social_anxiety-pana" data-name="Social anxiety-pana" transform="translate(44.071 200.883)">
      <g id="freepik--character-3--inject-174" transform="translate(170.107 68.166)">
        <path id="Path_6105" data-name="Path 6105" d="M456.48,433.419h23.636l1.838-2.736,1.868,2.736H509l-10-19.819H460.419Z" transform="translate(-435.968 -298.487)" fill="#263238"/>
        <path id="Path_6106" data-name="Path 6106" d="M529.595,115.253c.563-2.082,2.127-3.105,4.167-3.805a6.728,6.728,0,0,1,6.135,1c1.141.871,2.043,2.142,3.425,2.614,2.245.761,4.871-.9,7.025.107A3.063,3.063,0,0,1,548.9,121a2.73,2.73,0,0,1,1.062,3.927,4.1,4.1,0,0,1-4.144,1.522,8.453,8.453,0,0,1-4.026-2.257c-1.161-1.043-2.2-2.219-3.425-3.166a6.661,6.661,0,0,0-4.292-1.579,6.132,6.132,0,0,0-4.856,3.592,15.851,15.851,0,0,0-1.271,6.153,27.56,27.56,0,0,1-.761,6.264c-.072.236-.183.5-.422.575-.339.1-.632-.259-.8-.575a30.961,30.961,0,0,1-3.539-11.512c-.24-2.333-.175-4.544,1.107-6.507s4.525-3.425,6.115-2.173" transform="translate(-476.747 -111.108)" fill="#263238"/>
        <path id="Path_6107" data-name="Path 6107" d="M528.951,129.666,527.874,153.3c-.186,4.019.381,9.959,6.732,9.959h0c5.526-.419,7.158-5.579,7.326-9.331.08-1.777.148-3.261.171-3.425,0,0,6.039-.293,6.747-6.226.339-2.869.559-8.833.7-14.229a11.135,11.135,0,0,0-9.955-11.348l-.571-.061C532.8,118.322,529.072,123.44,528.951,129.666Z" transform="translate(-480.175 -115.764)" fill="#a37361"/>
        <path id="Path_6108" data-name="Path 6108" d="M553.126,197.164a13.917,13.917,0,0,1-7.516-3.044s1.378,4.471,7.364,4.567Z" transform="translate(-491.18 -162.53)" fill="#825648"/>
        <path id="Path_6109" data-name="Path 6109" d="M578.083,158.8a.852.852,0,0,1-.909.761.814.814,0,0,1-.8-.856.856.856,0,0,1,.91-.761.818.818,0,0,1,.8.856Z" transform="translate(-510.238 -140.121)" fill="#263238"/>
        <path id="Path_6110" data-name="Path 6110" d="M575.257,154.136c-.118.1-.712-.445-1.625-.54s-1.629.289-1.716.167c-.046-.053.084-.244.4-.426a2.37,2.37,0,0,1,1.389-.27,2.283,2.283,0,0,1,1.279.567C575.238,153.881,575.314,154.09,575.257,154.136Z" transform="translate(-507.469 -137.09)" fill="#263238"/>
        <path id="Path_6111" data-name="Path 6111" d="M554.463,157.113a.852.852,0,0,1-.91.761.814.814,0,0,1-.8-.856.856.856,0,0,1,.91-.761.818.818,0,0,1,.8.856Z" transform="translate(-495.607 -139.074)" fill="#263238"/>
        <path id="Path_6112" data-name="Path 6112" d="M551.618,152.055c-.114.1-.708-.445-1.621-.54s-1.633.293-1.72.171c-.042-.057.084-.244.4-.426a2.356,2.356,0,0,1,1.393-.282,2.249,2.249,0,0,1,1.275.567C551.592,151.8,551.676,152.013,551.618,152.055Z" transform="translate(-492.827 -135.797)" fill="#263238"/>
        <path id="Path_6113" data-name="Path 6113" d="M563.89,160.1a6.313,6.313,0,0,1,1.522-.107c.236,0,.46-.023.517-.179a1.206,1.206,0,0,0-.084-.708q-.236-.879-.5-1.849a30.561,30.561,0,0,1-1.054-4.806,29.293,29.293,0,0,1,1.438,4.711q.244.97.472,1.857a1.378,1.378,0,0,1,.023.929.6.6,0,0,1-.422.3,1.813,1.813,0,0,1-.38,0A5.742,5.742,0,0,1,563.89,160.1Z" transform="translate(-502.503 -136.717)" fill="#263238"/>
        <path id="Path_6114" data-name="Path 6114" d="M551.838,143.053c-.114.236-1.016.023-2.1.038s-1.983.213-2.1-.023c-.049-.114.126-.331.5-.537a3.668,3.668,0,0,1,3.2,0C551.712,142.722,551.891,142.939,551.838,143.053Z" transform="translate(-492.43 -130.346)" fill="#263238"/>
        <path id="Path_6115" data-name="Path 6115" d="M575.585,147.023c-.183.19-.788-.091-1.522-.183s-1.412,0-1.522-.244c-.053-.11.069-.308.381-.476a2.253,2.253,0,0,1,2.481.342C575.6,146.7,575.668,146.928,575.585,147.023Z" transform="translate(-507.854 -132.657)" fill="#263238"/>
        <path id="Path_6116" data-name="Path 6116" d="M523.839,158.768c-.1-.057-3.954-1.644-4.255,2.432s3.851,3.539,3.866,3.425S523.839,158.768,523.839,158.768Z" transform="translate(-475.048 -140.414)" fill="#a37361"/>
        <path id="Path_6117" data-name="Path 6117" d="M524.021,165.084a1.667,1.667,0,0,1-.2.087.712.712,0,0,1-.533-.027,1.765,1.765,0,0,1-.7-1.636,2.378,2.378,0,0,1,.274-1,.826.826,0,0,1,.575-.506.358.358,0,0,1,.4.224c.049.118,0,.2.038.206s.091-.061.072-.232a.471.471,0,0,0-.141-.266.556.556,0,0,0-.38-.133,1,1,0,0,0-.788.578,2.4,2.4,0,0,0-.331,1.115,1.851,1.851,0,0,0,.906,1.838.761.761,0,0,0,.658-.061C524.006,165.179,524.033,165.091,524.021,165.084Z" transform="translate(-476.749 -142.509)" fill="#825648"/>
        <path id="Path_6118" data-name="Path 6118" d="M551.59,127.452a8.638,8.638,0,0,1-7.432-2.531c-1.313-1.378-2.241-3.257-3.992-4.007a4.848,4.848,0,0,0-3.745.11,9.331,9.331,0,0,0-3.071,2.283c.826,3.14-.3,6.427-1.419,9.479a1.622,1.622,0,0,1-.575.887c-.518.32-1.206-.046-1.579-.529a4.935,4.935,0,0,1-.822-2.767,16.812,16.812,0,0,1,.761-6.583,11.444,11.444,0,0,1,3.737-5.411,10.83,10.83,0,0,1,7.866-2.051,13.32,13.32,0,0,1,7.383,3.562,7.767,7.767,0,0,1,2.188,3.14" transform="translate(-480.827 -114.288)" fill="#263238"/>
        <path id="Path_6119" data-name="Path 6119" d="M560.042,177.66a4.316,4.316,0,0,1-.525,1.031,1.381,1.381,0,0,1-.974.563,1.229,1.229,0,0,1-1.024-.582,1.938,1.938,0,0,1-.289-1.18c0-.381.187-.818.556-.864a.921.921,0,0,1,.449.1l1.948.8" transform="translate(-498.374 -151.695)" fill="#825648"/>
        <path id="Path_6120" data-name="Path 6120" d="M558.821,178.952a2.967,2.967,0,0,1-1.039-.129,1.477,1.477,0,0,1-.784-.715,1.522,1.522,0,0,1-.027-1.271,1.462,1.462,0,0,1,.167-.293c.08-.08.065-.076.148-.065a2.084,2.084,0,0,1,.312.122l.32.133c.415.167.8.316,1.111.434a3.6,3.6,0,0,0,1.062.32,3.424,3.424,0,0,0-.963-.544c-.308-.148-.674-.32-1.085-.506l-.316-.141c-.114-.046-.2-.1-.354-.145a.445.445,0,0,0-.289,0,.5.5,0,0,0-.213.171,1.519,1.519,0,0,0-.221.381,1.815,1.815,0,0,0,.061,1.556,1.663,1.663,0,0,0,.986.8,1.583,1.583,0,0,0,.845.03C558.737,179.035,558.828,178.971,558.821,178.952Z" transform="translate(-497.929 -151.384)" fill="#263238"/>
        <path id="Path_6121" data-name="Path 6121" d="M504.58,260.821l-1.027-15.4-3.889-36.3,1.385-7.573-15.37-6.15-1.9,5.423c-9.871,3.539-13.041,17.886-13.041,17.886l-.346,37.05L460.14,280.865l2.664,2.344c4.186,2.519,43.322.932,43.322.932Z" transform="translate(-438.235 -163.317)" fill="#455a64"/>
        <g id="Group_3194" data-name="Group 3194" transform="translate(25.836 100.05)" opacity="0.3">
          <path id="Path_6122" data-name="Path 6122" d="M470.47,381.859a48.372,48.372,0,0,0,9.281,8.981c1.9,1.431,4.186,2.789,6.53,2.416,2.283-.381,3.973-2.245,5.465-4.007l8.41-9.909a4.065,4.065,0,0,0,1.085-1.9,2.626,2.626,0,0,0-1.18-2.432,5.708,5.708,0,0,0-2.664-.879c-5.9-.7-11.671,2.234-17.616,2.283-2.032.019-5.328-.381-7.253.282l-2.047,5.16" transform="translate(-470.47 -374.019)"/>
        </g>
        <path id="Path_6123" data-name="Path 6123" d="M460.095,288.5a9.091,9.091,0,0,1,1.142,11.61l-5.259,7.691-7.611,9.936a6,6,0,0,1-8.97.624L404.6,291.556a5.2,5.2,0,0,1-1.062-7.132l14.168-19.91a5.2,5.2,0,0,1,7.265-1.21Z" transform="translate(-402.578 -204.783)" fill="#1e64cc"/>
        <path id="Path_6124" data-name="Path 6124" d="M467.731,324.079a1.7,1.7,0,0,1,.1-.183l.3-.521c.282-.453.7-1.119,1.248-1.964,1.1-1.693,2.728-4.125,4.749-7.12s4.449-6.545,7.074-10.526a26.636,26.636,0,0,0,1.853-3.136,3.951,3.951,0,0,0,.38-1.762,3.01,3.01,0,0,0-.658-1.682,14.18,14.18,0,0,0-3.014-2.477l-3.326-2.363-22.985-16.39-6.934-5-1.88-1.374-.483-.362a.981.981,0,0,1-.156-.133,1.158,1.158,0,0,1,.175.107l.5.339,1.9,1.32,7,4.917,23.035,16.314,3.326,2.363A14.569,14.569,0,0,1,483.021,297a3.329,3.329,0,0,1,.723,1.857,4.235,4.235,0,0,1-.422,1.9,26.267,26.267,0,0,1-1.9,3.17c-2.645,3.98-5.1,7.516-7.135,10.5C470.212,320.365,467.731,324.079,467.731,324.079Z" transform="translate(-428.237 -208.97)" fill="#455a64"/>
        <path id="Path_6125" data-name="Path 6125" d="M500.69,207.541s-9.894-5.229-24.8,18.438l2.645,3.086s12.459-21.908,20.7-19.259c6.089,1.952,1.256,20.854-6.347,35.95l2.493,1.233S513.484,212.556,500.69,207.541Z" transform="translate(-447.991 -170.539)" fill="#263238"/>
        <path id="Path_6126" data-name="Path 6126" d="M448.242,238.085a12.857,12.857,0,0,0-1.728,15.949q.171.255.342.5L460.294,275.4l11.253-6.934h0L460.655,248.68s5.061-5.225,10.572-11.1c7.421-7.919,15.325-17.646,9.662-23.213,0,0-3.863-3.044-9.791,1.522C466.8,219.218,454.643,231.528,448.242,238.085Z" transform="translate(-428.548 -174.453)" fill="#455a64"/>
        <path id="Path_6127" data-name="Path 6127" d="M625.419,232.189l5.861-1.457s1.583,1.419.761,2.885a53.922,53.922,0,0,0-2.192,5.179l-4.532,1.461-1.279,3.676-7.8-3.326,2.078-6.9,4.372-5.411,3.3-.5,2.219,1.88s-1.85,1.347-3.1-.1l-1.522.582.137.909a1.374,1.374,0,0,0,1.7,1.13Z" transform="translate(-534.932 -183.387)" fill="#a37361"/>
        <path id="Path_6128" data-name="Path 6128" d="M655.67,232.995l3.836-1.865a1.559,1.559,0,0,1,1.442.282l.194.381-4.586,3.018Z" transform="translate(-559.357 -185.414)" fill="#a37361"/>
        <path id="Path_6129" data-name="Path 6129" d="M634.5,240.773a3.987,3.987,0,0,1,.38-.974,5.449,5.449,0,0,0,.578-2.367,2.755,2.755,0,0,0-.335-1.263,3.7,3.7,0,0,1-.266-.571,1.709,1.709,0,0,1-.068-.563,2.721,2.721,0,0,1,.129-1.054,5.108,5.108,0,0,1,.1,1.047,1.879,1.879,0,0,0,.38,1,2.882,2.882,0,0,1,.381,1.393,4.879,4.879,0,0,1-.7,2.481A3.093,3.093,0,0,1,634.5,240.773Z" transform="translate(-546.243 -187.221)" fill="#825648"/>
        <path id="Path_6130" data-name="Path 6130" d="M651.218,215.1c.053.107.852,1.29.852,1.29l-17.479,12.859-1.092-1.4Z" transform="translate(-545.623 -175.526)" fill="#263238"/>
        <path id="Path_6131" data-name="Path 6131" d="M642.972,253.205a.962.962,0,0,0-.289-1.355,2.755,2.755,0,0,0-1.522-.342,11.261,11.261,0,0,0-2.557.141,1.64,1.64,0,0,0-.761.32.7.7,0,0,0-.244.761c.122.32.5.441.841.51a11.94,11.94,0,0,0,2.755.217" transform="translate(-548.143 -198.067)" fill="#a37361"/>
        <path id="Path_6132" data-name="Path 6132" d="M640.951,253.233a4.988,4.988,0,0,1-1.648.061c-.255-.019-.533-.046-.83-.091a2.465,2.465,0,0,1-.963-.282.738.738,0,0,1-.339-.521.837.837,0,0,1,.179-.613,1.678,1.678,0,0,1,1.088-.533,10.276,10.276,0,0,1,2.2-.118,3.492,3.492,0,0,1,1.785.358,1.142,1.142,0,0,1,.536,1.107c-.061.308-.232.4-.236.381a1.416,1.416,0,0,0,.11-.4,1.043,1.043,0,0,0-.529-.9,3.5,3.5,0,0,0-1.674-.251,11.224,11.224,0,0,0-2.131.137,1.439,1.439,0,0,0-.9.407.46.46,0,0,0,.08.7,2.367,2.367,0,0,0,.841.263c.289.057.559.1.807.129C640.323,253.195,640.947,253.183,640.951,253.233Z" transform="translate(-547.895 -197.839)" fill="#825648"/>
        <path id="Path_6133" data-name="Path 6133" d="M646.339,245.081c-1.4-.342-2.394-.48-3.805-.822a2.234,2.234,0,0,0-1.381-.038.773.773,0,0,0-.38,1.142,1.035,1.035,0,0,0,.426.244l4.186,1.636" transform="translate(-550.041 -193.509)" fill="#a37361"/>
        <path id="Path_6134" data-name="Path 6134" d="M645.154,246.992a8.989,8.989,0,0,1-1.625-.518l-1.735-.643-1.027-.381a.791.791,0,0,1-.479-.5.929.929,0,0,1,.126-.693,1.034,1.034,0,0,1,.533-.438,1.591,1.591,0,0,1,.632-.08,6.64,6.64,0,0,1,1.1.221l1.8.415a7.538,7.538,0,0,1,1.644.476,11.182,11.182,0,0,1-1.69-.255c-.518-.088-1.142-.2-1.819-.346a6.541,6.541,0,0,0-1.043-.2.9.9,0,0,0-.875.381.6.6,0,0,0-.091.441.464.464,0,0,0,.3.3l1,.407,1.709.708A8.976,8.976,0,0,1,645.154,246.992Z" transform="translate(-549.815 -193.266)" fill="#825648"/>
        <path id="Path_6135" data-name="Path 6135" d="M648.834,239.656l-3.779-.685a2.233,2.233,0,0,0-1.378.049c-.419.209-.651.833-.312,1.142a1.175,1.175,0,0,0,.441.221l4.266,1.378" transform="translate(-551.634 -190.26)" fill="#a37361"/>
        <path id="Path_6136" data-name="Path 6136" d="M647.806,241.522a9.031,9.031,0,0,1-1.652-.407l-1.773-.521-1.047-.331a.788.788,0,0,1-.518-.449.9.9,0,0,1,.061-.7,1.05,1.05,0,0,1,.491-.479,1.541,1.541,0,0,1,.624-.129,5.708,5.708,0,0,1,1.107.148l1.808.361a8.873,8.873,0,0,1,1.652.415,9.328,9.328,0,0,1-1.69-.19l-1.823-.3a6.044,6.044,0,0,0-1.047-.126.9.9,0,0,0-.837.441c-.407.761.723.8,1.305,1.058l1.747.594a9.107,9.107,0,0,1,1.591.616Z" transform="translate(-551.367 -190.021)" fill="#825648"/>
        <path id="Path_6137" data-name="Path 6137" d="M583.494,242.358l-11.367,24.3a7.44,7.44,0,0,1-5.792,4.224h0a7.432,7.432,0,0,1-7.755-4.4l-8.49-19.431,4.825-20.964,11.416,24.454,9.323-13.209Z" transform="translate(-493.955 -182.334)" fill="#455a64"/>
        <path id="Path_6138" data-name="Path 6138" d="M583.918,298.156a63.109,63.109,0,0,1,3.235-8.437A32.349,32.349,0,0,1,585.684,294,31.616,31.616,0,0,1,583.918,298.156Z" transform="translate(-514.905 -221.749)" fill="#263238"/>
        <path id="Path_6139" data-name="Path 6139" d="M569.325,282.739a2.884,2.884,0,0,1-.065-.514c-.034-.381-.08-.871-.141-1.5-.114-1.336-.274-3.219-.472-5.529-.407-4.7-.967-11.135-1.583-18.243s-1.282-13.57-1.8-18.221c-.266-2.306-.479-4.186-.632-5.514-.072-.628-.129-1.142-.175-1.5a4.785,4.785,0,0,1-.042-.525,2.917,2.917,0,0,1,.107.518c.057.381.137.868.236,1.492.19,1.3.445,3.178.731,5.5.571,4.654,1.244,11.1,1.9,18.224s1.142,13.582,1.492,18.266c.152,2.318.278,4.186.381,5.541.034.632.057,1.142.08,1.522A2.42,2.42,0,0,1,569.325,282.739Z" transform="translate(-502.832 -185.493)" fill="#263238"/>
        <path id="Path_6140" data-name="Path 6140" d="M498.344,361.82l1.48,3.1a19.718,19.718,0,0,1,4.156.921,54.858,54.858,0,0,1,5.59,4.365,1.446,1.446,0,0,1-1.671.761,22.29,22.29,0,0,1-2.767-1.857h0a1.473,1.473,0,0,0-.982,2.283c.868,1.3,1.872,2.824,1.967,3.044a18.434,18.434,0,0,0,3.482,1.636.982.982,0,0,1-.152,1.857.484.484,0,0,1-.259-.03s.7,1.473-1.849,1.05c0,0-1.686,1.142-2.995.438a9.348,9.348,0,0,1-3.467.19C499.813,379.222,495.4,373,495.4,373l-3.832-6.953Z" transform="translate(-457.704 -266.412)" fill="#a37361"/>
        <path id="Path_6141" data-name="Path 6141" d="M519.84,391.11a4.6,4.6,0,0,0,.5,1.248,6.985,6.985,0,0,0,2,2.55,6.218,6.218,0,0,0,3.044,1.012,4.26,4.26,0,0,0,1.317.023,5.633,5.633,0,0,0-1.282-.266,7.057,7.057,0,0,1-2.877-1.054,7.958,7.958,0,0,1-1.983-2.386,5.929,5.929,0,0,0-.719-1.126Z" transform="translate(-475.216 -284.556)" fill="#825648"/>
        <path id="Path_6142" data-name="Path 6142" d="M516.523,394.879a2.6,2.6,0,0,0,.4,1.165,9.376,9.376,0,0,0,.7,1.142,4.186,4.186,0,0,0,1.18,1.142,7.053,7.053,0,0,0,1.522.563l1.252.331a4.186,4.186,0,0,0,1.176.221,4.211,4.211,0,0,0-1.107-.461c-.346-.118-.761-.259-1.229-.4a7.732,7.732,0,0,1-1.442-.563,4.069,4.069,0,0,1-1.1-1.05,11.492,11.492,0,0,1-.738-1.058C516.736,395.306,516.568,394.864,516.523,394.879Z" transform="translate(-473.155 -286.891)" fill="#825648"/>
        <path id="Path_6143" data-name="Path 6143" d="M513.061,399.53a9.408,9.408,0,0,0,1.694,2.462,1.339,1.339,0,0,0,.548.381,5.171,5.171,0,0,0,.533.2,5.621,5.621,0,0,0,.936.206c.54.068.883,0,.879-.046a4.565,4.565,0,0,0-.837-.2,7.57,7.57,0,0,1-.875-.27,4.542,4.542,0,0,1-.495-.206,1.032,1.032,0,0,1-.419-.293c-.518-.655-1-1.21-1.359-1.617A3.879,3.879,0,0,0,513.061,399.53Z" transform="translate(-471.01 -289.772)" fill="#825648"/>
        <path id="Path_6144" data-name="Path 6144" d="M558.559,209a21.308,21.308,0,0,1-.457,3.044,20.033,20.033,0,0,1-.59,3.01,11.431,11.431,0,0,1,.274-3.067A12.219,12.219,0,0,1,558.559,209Z" transform="translate(-498.531 -171.747)" fill="#263238"/>
        <path id="Path_6145" data-name="Path 6145" d="M547.885,208.465a5.045,5.045,0,0,1,.38-1.728,4.895,4.895,0,0,1,.689-1.629,5.048,5.048,0,0,1-.381,1.728A4.9,4.9,0,0,1,547.885,208.465Z" transform="translate(-492.576 -169.337)" fill="#263238"/>
        <path id="Path_6146" data-name="Path 6146" d="M538.747,204.7a4.17,4.17,0,0,1,.605-1.522,4.47,4.47,0,0,1,.89-1.385,8.526,8.526,0,0,1-1.5,2.907Z" transform="translate(-486.92 -167.284)" fill="#263238"/>
        <path id="Path_6147" data-name="Path 6147" d="M526.76,202.316a7.864,7.864,0,0,1,1.214-1.857,7.7,7.7,0,0,1,1.469-1.663,7.782,7.782,0,0,1-1.214,1.857A7.171,7.171,0,0,1,526.76,202.316Z" transform="translate(-479.5 -165.425)" fill="#263238"/>
        <path id="Path_6148" data-name="Path 6148" d="M474.142,302.381a11.552,11.552,0,0,1-1.02-.761,9.24,9.24,0,0,0-5.663-1.667,10.919,10.919,0,0,1-1.26.069,3.334,3.334,0,0,1,1.244-.3,7.954,7.954,0,0,1,3.075.293,8.044,8.044,0,0,1,2.74,1.423A3.228,3.228,0,0,1,474.142,302.381Z" transform="translate(-441.989 -227.922)" fill="#263238"/>
        <path id="Path_6149" data-name="Path 6149" d="M478.385,286.12a3.855,3.855,0,0,1,.989.871,10.218,10.218,0,0,1,2.573,5.742,3.636,3.636,0,0,1,0,1.317,17.159,17.159,0,0,0-1.119-4.262A18.776,18.776,0,0,0,478.385,286.12Z" transform="translate(-449.535 -219.52)" fill="#263238"/>
        <path id="Path_6150" data-name="Path 6150" d="M497.678,291.365a1.879,1.879,0,0,1-.244-.38l-.643-1.1c-.567-.989-1.359-2.382-2.34-4.106-1.979-3.52-4.707-8.372-7.794-13.89l-.057-.1.08-.084,2.386-2.512,12.623-13.213L505.54,252l1.058-1.069a3.379,3.379,0,0,1,.38-.358,2.884,2.884,0,0,1-.335.4c-.255.274-.59.643-1.016,1.111l-3.779,4.049L489.29,269.411l-2.39,2.508.027-.183,7.7,13.939,2.257,4.156c.251.468.449.845.6,1.142a2.828,2.828,0,0,1,.2.392Z" transform="translate(-454.626 -197.498)" fill="#263238"/>
        <g id="Group_3195" data-name="Group 3195" transform="translate(37.157 55.572)" opacity="0.3">
          <path id="Path_6151" data-name="Path 6151" d="M500.22,270.638l4.388,3.147a4.748,4.748,0,0,0,1.595-1.355,45.668,45.668,0,0,0,7.109-15.29Z" transform="translate(-500.22 -257.14)"/>
        </g>
        <path id="Path_6152" data-name="Path 6152" d="M524.659,440.64a2.022,2.022,0,0,1-.186.381l-.575,1.031c-.491.871-1.183,2.063-1.96,3.375s-1.484,2.493-2.005,3.341c-.247.381-.46.727-.632,1a1.66,1.66,0,0,1-.251.354,1.9,1.9,0,0,1,.186-.381l.575-1.035c.491-.868,1.183-2.059,1.96-3.372s1.484-2.493,2.006-3.341l.628-1a1.744,1.744,0,0,1,.255-.354Z" transform="translate(-474.727 -315.238)" fill="#455a64"/>
      </g>
      <g id="freepik--character-2--inject-174" transform="translate(129.446 82.747)">
        <path id="Path_6153" data-name="Path 6153" d="M355.514,412.765s3.425-20.614.856-32.955l-39.957.354s-5.822,22.909-3.079,32.727Z" transform="translate(-306.179 -292.137)" fill="#263238"/>
        <path id="Path_6154" data-name="Path 6154" d="M383.228,185.439c-.167-8.585-.335-17.186-1.248-25.729l7.7,5.819c1.937,5.1-.049,10.088,1.872,15.2,1,2.664,2.957,5.027,3.174,7.858.175,2.283-.8,4.5-.636,6.762s1.522,4.479,1.233,6.766a9.73,9.73,0,0,1-2.306,4.494,3.182,3.182,0,0,1-1.522,1.3,3.044,3.044,0,0,1-1.553-.1,33.087,33.087,0,0,1-3.608-1.142,6.447,6.447,0,0,1-2.523-1.5c-1.461-1.594-1.172-4.064-.925-6.214A100.726,100.726,0,0,0,383.228,185.439Z" transform="translate(-349.157 -155.796)" fill="#263238"/>
        <path id="Path_6155" data-name="Path 6155" d="M298.8,277.063c.068-2.143,1.682-22.856,1.967-24.736a8.86,8.86,0,0,1,4.27-6.424l6.005-2.359c6.743-1.876,29.135-.43,29.135-.43l3.7,33.743s4.342,13.852,4.346,16.6.738,10.37.738,10.37-12.231,4.616-21.067,4.079-22.216-3.611-22.216-3.611l1.941-12.242s-1.256-2.009-.59-3.547a9.953,9.953,0,0,1,.628-1.26,10.062,10.062,0,0,1-5.084-2.15C298.633,281.842,298.736,279.2,298.8,277.063Z" transform="translate(-297.62 -207.131)" fill="#b0bec5"/>
        <g id="Group_3196" data-name="Group 3196" transform="translate(9.617 76.227)" opacity="0.3">
          <path id="Path_6156" data-name="Path 6156" d="M360.288,351.657a12.717,12.717,0,0,1-8.539,2.976c-1.416-.1-2.8-.5-4.216-.54-2.234-.061-4.376.761-6.53,1.378a31.9,31.9,0,0,1-20-1.069l.419-.78a11.219,11.219,0,0,0,6.123-.449c9.632-1.549,15.416-3.634,25.169-3.425,2.557.053,5.217.251,7.447,1.522" transform="translate(-321 -349.732)"/>
        </g>
        <path id="Path_6157" data-name="Path 6157" d="M313,333.207a1.453,1.453,0,0,1,.072-.407,3.747,3.747,0,0,1,.129-.468,5.709,5.709,0,0,1,.217-.609,9.675,9.675,0,0,1,.761-1.522,10.3,10.3,0,0,1,2.8-2.995,9.668,9.668,0,0,1,1.45-.849,6,6,0,0,1,.594-.259,4.524,4.524,0,0,1,.46-.16,1.523,1.523,0,0,1,.4-.1c0,.034-.556.209-1.393.643a10.653,10.653,0,0,0-1.408.871,12.032,12.032,0,0,0-1.522,1.343,11.868,11.868,0,0,0-1.237,1.6,10.527,10.527,0,0,0-.761,1.461C313.16,332.644,313.023,333.219,313,333.207Z" transform="translate(-306.427 -258.705)" fill="#263238"/>
        <path id="Path_6158" data-name="Path 6158" d="M308.29,328.269a2.174,2.174,0,0,1,.251-.255,7.636,7.636,0,0,1,.761-.6,10.576,10.576,0,0,1,6.089-1.838,7.947,7.947,0,0,1,.978.068,1.387,1.387,0,0,1,.35.072c0,.034-.51-.019-1.324,0a11.8,11.8,0,0,0-6.024,1.815C308.7,327.969,308.313,328.3,308.29,328.269Z" transform="translate(-303.51 -258.543)" fill="#263238"/>
        <path id="Path_6159" data-name="Path 6159" d="M329.856,304.87a3.8,3.8,0,0,1,.034.571c0,.4,0,.929,0,1.56v3.684a14.305,14.305,0,0,0,.023,1.454,1.294,1.294,0,0,0,.677,1.123,7.611,7.611,0,0,0,1.252.491l2.2.723,1.477.506a3.3,3.3,0,0,1,.537.209,2.661,2.661,0,0,1-.559-.137l-1.5-.441-2.211-.685a7.682,7.682,0,0,1-1.294-.495,1.775,1.775,0,0,1-.316-.213,1.181,1.181,0,0,1-.24-.312,1.994,1.994,0,0,1-.225-.761c-.053-.518,0-1-.019-1.48s0-.928,0-1.366c0-.86.027-1.644.038-2.314s.034-1.142.046-1.56A2.691,2.691,0,0,1,329.856,304.87Z" transform="translate(-316.765 -245.715)" fill="#263238"/>
        <path id="Path_6160" data-name="Path 6160" d="M299.619,287a.25.25,0,0,1,0,.1v.293c0,.274-.038.647-.065,1.123-.069.989-.164,2.4-.282,4.125s-.274,3.805-.438,6.119c-.084,1.142-.175,2.359-.266,3.611q-.069.936-.137,1.9a11.576,11.576,0,0,0,.076,1.948,7.041,7.041,0,0,0,1.263,3.379h0a10.857,10.857,0,0,0,4.407,4.144,11.3,11.3,0,0,0,4.734,1.142,14.764,14.764,0,0,0,3.246-.274c.381-.072.662-.145.856-.194l.217-.057c.049,0,.076-.019.076,0l-.068.03-.217.076c-.19.061-.476.145-.853.228a13.949,13.949,0,0,1-3.261.335,11.313,11.313,0,0,1-4.806-1.115,11,11,0,0,1-4.5-4.186h0a7.23,7.23,0,0,1-1.317-3.486,12.016,12.016,0,0,1-.076-1.987c.05-.647.1-1.286.141-1.9.1-1.252.19-2.458.278-3.608.183-2.283.346-4.369.483-6.115s.259-3.128.339-4.117c.046-.476.08-.849.107-1.119a2.33,2.33,0,0,1,.03-.293A.2.2,0,0,1,299.619,287Z" transform="translate(-297.259 -234.646)" fill="#263238"/>
        <path id="Path_6161" data-name="Path 6161" d="M320.7,371.67a.928.928,0,0,1,.221.088l.613.278c.533.251,1.305.6,2.283,1.02a75.6,75.6,0,0,0,15.6,4.886c1.028.206,1.861.358,2.439.453l.666.122a1.79,1.79,0,0,1,.232.053.85.85,0,0,1-.236,0l-.674-.084c-.582-.072-1.419-.205-2.455-.381a67.031,67.031,0,0,1-15.637-4.894c-.959-.438-1.724-.807-2.245-1.077l-.6-.316a.814.814,0,0,1-.213-.148Z" transform="translate(-311.197 -287.095)" fill="#263238"/>
        <path id="Path_6162" data-name="Path 6162" d="M330,288.247a2.184,2.184,0,0,1,.27-.084c.175-.049.441-.11.784-.175a17.828,17.828,0,0,1,2.945-.266c1.248-.027,2.732,0,4.38.03l5.362.088,9.742.206,2.949.084.8.034a1.317,1.317,0,0,1,.278.023,1.427,1.427,0,0,1-.278,0h-.8l-2.953-.019-9.742-.145-5.366-.088c-1.648-.027-3.132-.084-4.372-.076a20.651,20.651,0,0,0-2.938.206c-.342.049-.609.1-.788.137A1.226,1.226,0,0,1,330,288.247Z" transform="translate(-316.958 -235.086)" fill="#fff"/>
        <path id="Path_6163" data-name="Path 6163" d="M334.05,298.025c0-.053,5.663-.053,12.642,0s12.638.141,12.638.194-5.659.057-12.642,0S334.05,298.082,334.05,298.025Z" transform="translate(-319.467 -241.45)" fill="#fff"/>
        <path id="Path_6164" data-name="Path 6164" d="M302.85,281.117a1.567,1.567,0,0,1,.381-.145c.255-.08.632-.175,1.1-.274a16.332,16.332,0,0,1,7.428.217,11.251,11.251,0,0,1,1.085.335,1.428,1.428,0,0,1,.381.167c0,.03-.571-.156-1.5-.381a18.782,18.782,0,0,0-7.371-.213C303.428,280.991,302.858,281.147,302.85,281.117Z" transform="translate(-300.14 -230.54)" fill="#fff"/>
        <path id="Path_6165" data-name="Path 6165" d="M301.62,288.69a1.593,1.593,0,0,1,.381-.137q.545-.153,1.1-.251a16.432,16.432,0,0,1,7.417.346c.46.133.83.255,1.077.354a1.807,1.807,0,0,1,.381.171c0,.03-.571-.16-1.492-.381a19.318,19.318,0,0,0-3.665-.537,19.58,19.58,0,0,0-3.7.19C302.2,288.58,301.631,288.72,301.62,288.69Z" transform="translate(-299.378 -235.285)" fill="#fff"/>
        <g id="Group_3197" data-name="Group 3197" transform="translate(9.766 38.655)" opacity="0.3">
          <path id="Path_6166" data-name="Path 6166" d="M321.521,251l10.275,8.562c.251,1.378.719,7.261.97,8.638a1.169,1.169,0,0,1,0,.647.789.789,0,0,1-1.142.228,2.284,2.284,0,0,1-.761-1.092,5.227,5.227,0,0,0,.419,3.105c.312,1.016.449,2.283-.312,3.01a2.852,2.852,0,0,1-2.477.476,5.217,5.217,0,0,1-2.873-1.313,6.5,6.5,0,0,1-1.351-2.451A47.7,47.7,0,0,1,321.521,251Z" transform="translate(-321.392 -251)"/>
        </g>
        <g id="Group_3198" data-name="Group 3198" transform="translate(30.265 39.739)" opacity="0.3">
          <path id="Path_6167" data-name="Path 6167" d="M375.616,253.85c2.405,4.076,3.147,8.89,3.843,13.57.826,5.533.228,11.435.529,17.022a3.972,3.972,0,0,1-2.858-3.09,16.1,16.1,0,0,1-.156-4.43C377.215,269.194,374.258,261.461,375.616,253.85Z" transform="translate(-375.258 -253.85)"/>
        </g>
        <path id="Path_6168" data-name="Path 6168" d="M393.006,244c4.03.761,10.168.906,9.928,8.258-.247,7.474-1.572,20.344-4.129,24.671s-5.708,6.386-10.518,3.931-4.224-10.027-4.224-10.027l9.449-7.074-1.389-1.77Z" transform="translate(-350.434 -208.009)" fill="#b0bec5"/>
        <path id="Path_6169" data-name="Path 6169" d="M393.995,313.7l-.084.03-.251.08a8.531,8.531,0,0,1-.993.225,7.363,7.363,0,0,1-3.733-.3,8.72,8.72,0,0,1-4.285-3.611,6.331,6.331,0,0,1-.708-1.522,14.119,14.119,0,0,1-.38-1.7,25.92,25.92,0,0,1-.27-3.661v-.053l.046-.03,2.4-1.644,7.813-5.328.057-.038.053.049a22.317,22.317,0,0,1,3.044,3.444,11.388,11.388,0,0,1,.951,1.682,9.69,9.69,0,0,1,.533,1.556,10.885,10.885,0,0,1,.308,2.283v.613a.762.762,0,0,1,0,.206,1.7,1.7,0,0,1,0-.206c0-.152,0-.354-.023-.609a11.8,11.8,0,0,0-.35-2.264,9.512,9.512,0,0,0-.552-1.522,11.213,11.213,0,0,0-.955-1.655,22.656,22.656,0,0,0-3.044-3.4h.11l-7.8,5.328-2.435,1.667.042-.08a26.009,26.009,0,0,0,.263,3.634,14.392,14.392,0,0,0,.361,1.678,6.25,6.25,0,0,0,.685,1.469,8.523,8.523,0,0,0,4.186,3.581,7.547,7.547,0,0,0,3.68.358c.438-.061.761-.141.993-.19l.255-.061A.276.276,0,0,1,393.995,313.7Z" transform="translate(-349.969 -240.314)" fill="#263238"/>
        <path id="Path_6170" data-name="Path 6170" d="M404.549,275.822a28.342,28.342,0,0,1,.183-3.391,29.641,29.641,0,0,1,.381-3.372,28.325,28.325,0,0,1-.183,3.391A29.658,29.658,0,0,1,404.549,275.822Z" transform="translate(-363.137 -223.533)" fill="#263238"/>
        <path id="Path_6171" data-name="Path 6171" d="M404.6,283.406a1.718,1.718,0,0,1,.415-.057c.27-.027.662-.053,1.142-.068a30.12,30.12,0,0,1,3.783.107,30.64,30.64,0,0,1,3.745.563c.476.1.856.194,1.115.27a1.522,1.522,0,0,1,.381.133,1.841,1.841,0,0,1-.415-.057l-1.142-.209c-.948-.171-2.283-.381-3.733-.506s-2.8-.164-3.764-.164h-1.142A1.646,1.646,0,0,1,404.6,283.406Z" transform="translate(-363.169 -232.33)" fill="#fff"/>
        <path id="Path_6172" data-name="Path 6172" d="M406.4,291.492a1.5,1.5,0,0,1,.381-.027H407.8c.856,0,2.04.076,3.337.2s2.477.289,3.322.434c.419.069.761.133.993.186a1.2,1.2,0,0,1,.362.1,12.012,12.012,0,0,1-1.378-.148c-.849-.107-2.017-.251-3.315-.381s-2.477-.206-3.33-.259a10.63,10.63,0,0,1-1.389-.1Z" transform="translate(-364.284 -237.411)" fill="#fff"/>
        <path id="Path_6173" data-name="Path 6173" d="M426.52,246.118a.567.567,0,0,1,.3-.046,1.343,1.343,0,0,1,.788.3c.3.221.449.666.761.917a.509.509,0,0,0,.282.1,3.258,3.258,0,0,1,.381,0,.978.978,0,0,1,.666.5,2.333,2.333,0,0,1,.27.761,3.05,3.05,0,0,0,.072.346.48.48,0,0,0,.183.228,2.6,2.6,0,0,1,.521.415,1.645,1.645,0,0,1,.3.51,1.572,1.572,0,0,1,.076.837.65.65,0,0,1-.107.289c-.019,0,0-.11.03-.3a1.674,1.674,0,0,0-.129-.761,1.6,1.6,0,0,0-.289-.453,2.46,2.46,0,0,0-.51-.381.689.689,0,0,1-.251-.312,3.046,3.046,0,0,1-.084-.381,2.18,2.18,0,0,0-.251-.689.761.761,0,0,0-.525-.407,3.318,3.318,0,0,0-.358-.019.681.681,0,0,1-.381-.133,1.853,1.853,0,0,1-.43-.529,1.8,1.8,0,0,0-.331-.43,1.355,1.355,0,0,0-.7-.331C426.63,246.122,426.524,246.134,426.52,246.118Z" transform="translate(-376.748 -209.29)" fill="#263238"/>
        <path id="Path_6174" data-name="Path 6174" d="M428.63,244.594a.579.579,0,0,1,.3-.042,1.343,1.343,0,0,1,.788.3c.3.224.445.67.761.917a.521.521,0,0,0,.282.1,2.67,2.67,0,0,1,.381,0,.982.982,0,0,1,.666.495,2.355,2.355,0,0,1,.27.761,2.231,2.231,0,0,0,.072.342.468.468,0,0,0,.183.232,2.362,2.362,0,0,1,.518.415,1.523,1.523,0,0,1,.3.51,1.572,1.572,0,0,1,.076.837c-.042.194-.1.289-.11.285a2.615,2.615,0,0,1,.034-.3,1.674,1.674,0,0,0-.129-.761,1.523,1.523,0,0,0-.293-.449,2.338,2.338,0,0,0-.506-.381.655.655,0,0,1-.251-.308,2.146,2.146,0,0,1-.084-.381,2.284,2.284,0,0,0-.251-.693.792.792,0,0,0-.525-.407,2.611,2.611,0,0,0-.358,0,.719.719,0,0,1-.38-.137,1.8,1.8,0,0,1-.43-.529,1.9,1.9,0,0,0-.331-.43,1.4,1.4,0,0,0-.7-.331,2.453,2.453,0,0,1-.282-.046Z" transform="translate(-378.055 -208.348)" fill="#263238"/>
        <path id="Path_6175" data-name="Path 6175" d="M335.161,152.443a9.3,9.3,0,0,1,8.783-2.032c5.605-1.823,10.438,1.861,12.413,4.966l1.9,4.076c-3.5,5.746-10.419,9.262-17.007,10.617a10.64,10.64,0,0,1-6.123-.213c-2.2-.89-3.185-2.637-3.882-4.9C331.234,164.955,330.88,156.1,335.161,152.443Z" transform="translate(-317.724 -149.735)" fill="#263238"/>
        <path id="Path_6176" data-name="Path 6176" d="M353.734,159.3c3.847-.483,8.817,4.209,9.133,8.079.354,4.3.616,9.556.171,12.775-.9,6.469-5.834,7.39-5.834,7.39l.118,6.751-14.461-.537-.792-28.845-.08-2.082Z" transform="translate(-324.385 -155.523)" fill="#ffbe9d"/>
        <path id="Path_6177" data-name="Path 6177" d="M386.567,191.644a.83.83,0,0,1-.78.849.792.792,0,0,1-.868-.731.822.822,0,0,1,.78-.849.792.792,0,0,1,.868.731Z" transform="translate(-350.978 -175.122)" fill="#263238"/>
        <path id="Path_6178" data-name="Path 6178" d="M388.082,186.508c-.1.11-.734-.343-1.629-.323s-1.522.48-1.633.381c-.05-.049.053-.244.335-.457a2.25,2.25,0,0,1,1.305-.43,2.181,2.181,0,0,1,1.3.381C388.036,186.264,388.131,186.458,388.082,186.508Z" transform="translate(-350.909 -171.881)" fill="#263238"/>
        <path id="Path_6179" data-name="Path 6179" d="M363.311,192.484a.826.826,0,0,1-.78.849.8.8,0,0,1-.871-.727.83.83,0,0,1,.784-.852.792.792,0,0,1,.868.731Z" transform="translate(-336.569 -175.643)" fill="#263238"/>
        <path id="Path_6180" data-name="Path 6180" d="M365.084,187.394c-.1.11-.738-.339-1.629-.32s-1.522.476-1.633.381c-.046-.046.053-.244.335-.457a2.249,2.249,0,0,1,1.305-.43,2.18,2.18,0,0,1,1.3.381C365.038,187.154,365.133,187.349,365.084,187.394Z" transform="translate(-336.664 -172.432)" fill="#263238"/>
        <path id="Path_6181" data-name="Path 6181" d="M378.333,193.872a6.062,6.062,0,0,1,1.442-.289c.228-.027.441-.076.476-.232a1.142,1.142,0,0,0-.164-.674l-.7-1.716a29.891,29.891,0,0,1-1.6-4.5,29.032,29.032,0,0,1,1.96,4.361l.677,1.731a1.329,1.329,0,0,1,.137.89.59.59,0,0,1-.381.339,1.564,1.564,0,0,1-.381.061A5.966,5.966,0,0,1,378.333,193.872Z" transform="translate(-346.553 -172.365)" fill="#263238"/>
        <path id="Path_6182" data-name="Path 6182" d="M367.486,230.142A17.124,17.124,0,0,1,358.57,228s2.359,4.456,9.027,3.737Z" transform="translate(-334.656 -198.098)" fill="#eb996e"/>
        <path id="Path_6183" data-name="Path 6183" d="M374.056,210.653a1.6,1.6,0,0,0-1.45-.567,1.45,1.45,0,0,0-1,.559.932.932,0,0,0-.049,1.066,1.077,1.077,0,0,0,1.172.27,3.391,3.391,0,0,0,1.142-.7.967.967,0,0,0,.247-.266.3.3,0,0,0,0-.335" transform="translate(-342.611 -186.992)" fill="#eb996e"/>
        <path id="Path_6184" data-name="Path 6184" d="M372.675,213.291c-.133.057-.441-.86-1.446-1.252s-1.945.038-1.994-.088c-.03-.053.16-.251.567-.381a2.4,2.4,0,0,1,1.648.023,2.1,2.1,0,0,1,1.142,1.069C372.766,213.017,372.74,213.276,372.675,213.291Z" transform="translate(-341.26 -187.838)" fill="#263238"/>
        <path id="Path_6185" data-name="Path 6185" d="M360.208,178.281c.046-.255.94-.289,1.952-.59s1.792-.719,1.967-.529c.08.091-.03.342-.327.632a3.425,3.425,0,0,1-1.393.761,3.383,3.383,0,0,1-1.595.08C360.41,178.555,360.189,178.4,360.208,178.281Z" transform="translate(-335.67 -166.577)" fill="#263238"/>
        <path id="Path_6186" data-name="Path 6186" d="M385.073,177.424c.236-.126.8.316,1.575.624s1.477.419,1.553.674c.03.122-.145.27-.5.339a2.687,2.687,0,0,1-2.519-1.043C384.982,177.721,384.967,177.489,385.073,177.424Z" transform="translate(-351.033 -166.755)" fill="#263238"/>
        <path id="Path_6187" data-name="Path 6187" d="M322.685,177.252a90.381,90.381,0,0,0,.689-10.416,27.88,27.88,0,0,1,2.025-10.18,12.22,12.22,0,0,1,7.383-6.922c3.174-.906,6.979.2,8.753,2.934A22.372,22.372,0,0,0,331.5,168.347c.354,2.359,1.073,5.56,1.248,7.813.274,3.486-.548,6.991-.259,10.476.232,2.812,1.183,5.567.989,8.372a54.523,54.523,0,0,1-1.077,5.5,7.378,7.378,0,0,0,.761,5.415c-2.1-.761-3.353-3.018-3.748-5.229a19.506,19.506,0,0,1-.205-3.916c-.719,4.022-1.142,8.022-.183,11.964-2.184-.068-4.665-.285-6-2.013a7.34,7.34,0,0,1-1.142-2.949l-1.313-5.708a31.647,31.647,0,0,1-.826-4.6C319.314,187.979,321.783,182.7,322.685,177.252Z" transform="translate(-310.576 -149.424)" fill="#263238"/>
        <path id="Path_6188" data-name="Path 6188" d="M377.388,158.345a5.041,5.041,0,0,0-.278-.457l.053-.038Z" transform="translate(-346.14 -154.643)" fill="#263238"/>
        <path id="Path_6189" data-name="Path 6189" d="M362.708,197.43a4.737,4.737,0,0,0,1.241.339,4.622,4.622,0,0,0,1.271-.186.924.924,0,0,1-.331.225,2.15,2.15,0,0,1-1.88-.114C362.8,197.567,362.692,197.449,362.708,197.43Z" transform="translate(-337.218 -179.161)" fill="#eb996e"/>
        <path id="Path_6190" data-name="Path 6190" d="M387.08,196.625a10.369,10.369,0,0,0,1.069.118,10.152,10.152,0,0,0,1.054-.183,1.792,1.792,0,0,1-2.123.065Z" transform="translate(-352.316 -178.622)" fill="#eb996e"/>
        <path id="Path_6191" data-name="Path 6191" d="M388.709,198.049c0-.057.285-.057.613-.1s.6-.1.62-.053-.232.205-.594.247S388.7,198.1,388.709,198.049Z" transform="translate(-353.326 -179.442)" fill="#eb996e"/>
        <path id="Path_6192" data-name="Path 6192" d="M362.76,199.85a7.3,7.3,0,0,1,.921.061,6.761,6.761,0,0,1,.925,0,1.9,1.9,0,0,1-1.846-.042Z" transform="translate(-337.251 -180.66)" fill="#eb996e"/>
        <path id="Path_6193" data-name="Path 6193" d="M367.158,212.762c-.042.03-.186-.156-.148-.422s.225-.4.259-.362-.038.19-.065.381S367.211,212.743,367.158,212.762Z" transform="translate(-339.88 -188.168)" fill="#eb996e"/>
        <path id="Path_6194" data-name="Path 6194" d="M374,175.233c0-.053.552.118,1.229.126s1.218-.133,1.233-.076A2.687,2.687,0,0,1,374,175.233Z" transform="translate(-344.214 -165.405)" fill="#eb996e"/>
        <path id="Path_6195" data-name="Path 6195" d="M299.5,253.255a.672.672,0,0,1-.061-.3,1.336,1.336,0,0,1,.259-.8c.205-.312.639-.483.871-.822a.545.545,0,0,0,.08-.289,2.107,2.107,0,0,1,0-.381.978.978,0,0,1,.46-.693,2.433,2.433,0,0,1,.738-.312,2.1,2.1,0,0,0,.342-.091.464.464,0,0,0,.217-.194,2.379,2.379,0,0,1,.381-.54,1.522,1.522,0,0,1,.491-.327,1.575,1.575,0,0,1,.833-.122.64.64,0,0,1,.293.091,1.76,1.76,0,0,1-.3,0,1.64,1.64,0,0,0-.761.171,1.522,1.522,0,0,0-.438.316,2.454,2.454,0,0,0-.35.529.647.647,0,0,1-.293.266,2.784,2.784,0,0,1-.381.107,2.253,2.253,0,0,0-.677.285.788.788,0,0,0-.381.548v.358a.723.723,0,0,1-.114.381,1.807,1.807,0,0,1-.506.457,1.841,1.841,0,0,0-.411.354,1.366,1.366,0,0,0-.293.723A1.958,1.958,0,0,1,299.5,253.255Z" transform="translate(-298.027 -210.715)" fill="#263238"/>
        <path id="Path_6196" data-name="Path 6196" d="M297.9,251.241a.692.692,0,0,1-.061-.3,1.335,1.335,0,0,1,.259-.8c.206-.312.643-.483.871-.822a.544.544,0,0,0,.08-.289,2.11,2.11,0,0,1,0-.381.982.982,0,0,1,.46-.689,2.431,2.431,0,0,1,.738-.312,2.108,2.108,0,0,0,.342-.091.484.484,0,0,0,.217-.194,2.375,2.375,0,0,1,.381-.54,1.521,1.521,0,0,1,.491-.327,1.575,1.575,0,0,1,.833-.122.64.64,0,0,1,.293.091,2.47,2.47,0,0,1-.3,0,1.64,1.64,0,0,0-.761.171,1.52,1.52,0,0,0-.438.316,2.367,2.367,0,0,0-.346.525.663.663,0,0,1-.3.27,2.286,2.286,0,0,1-.381.1,2.361,2.361,0,0,0-.677.289.788.788,0,0,0-.381.548v.358a.73.73,0,0,1-.114.381,1.808,1.808,0,0,1-.506.457,1.841,1.841,0,0,0-.411.354,1.366,1.366,0,0,0-.293.723C297.9,251.13,297.9,251.237,297.9,251.241Z" transform="translate(-297.036 -209.47)" fill="#263238"/>
        <path id="Path_6197" data-name="Path 6197" d="M398.728,160.68a1.39,1.39,0,0,1,.061.32,2.921,2.921,0,0,0,.236.83,1.054,1.054,0,0,0,.381.419c.167.114.407.148.636.308a1.012,1.012,0,0,1,.38.731c.034.282,0,.559.031.837a1.328,1.328,0,0,0,.217.734,2.569,2.569,0,0,0,.563.483,1.766,1.766,0,0,1,.742,1.111,1.7,1.7,0,0,1-.057.9c-.076.2-.152.293-.164.289a2.528,2.528,0,0,1,.088-.312,1.755,1.755,0,0,0,0-.849,1.655,1.655,0,0,0-.715-.993,2.594,2.594,0,0,1-.609-.518,1.488,1.488,0,0,1-.259-.837,8.088,8.088,0,0,0-.027-.822.841.841,0,0,0-.3-.613c-.175-.129-.419-.179-.617-.316a1.165,1.165,0,0,1-.411-.495,2.436,2.436,0,0,1-.186-.883A.861.861,0,0,1,398.728,160.68Z" transform="translate(-359.519 -156.396)" fill="#263238"/>
        <path id="Path_6198" data-name="Path 6198" d="M395.063,158.04a.11.11,0,0,1,.152,0,.107.107,0,0,1,0,.152.11.11,0,0,1-.152,0A.114.114,0,0,1,395.063,158.04Z" transform="translate(-357.243 -154.742)" fill="#263238"/>
        <path id="Path_6199" data-name="Path 6199" d="M406.583,183.245c-.049.023-.19-.179-.24-.468s.023-.525.076-.518.076.225.122.487S406.625,183.222,406.583,183.245Z" transform="translate(-364.239 -169.764)" fill="#263238"/>
        <path id="Path_6200" data-name="Path 6200" d="M298.21,345.66a6,6,0,0,0,.358,1.244,3.807,3.807,0,0,0,.8,1.142,6.222,6.222,0,0,0,1.438.936,2.705,2.705,0,0,1,.727.582c.2.236.323.487.5.674a3,3,0,0,0,1.142.761c.761.282,1.248.381,1.237.415a1.05,1.05,0,0,1-.35-.042,6.476,6.476,0,0,1-.936-.243,2.976,2.976,0,0,1-1.233-.761c-.194-.2-.331-.461-.51-.67a2.517,2.517,0,0,0-.677-.537c-.263-.156-.533-.289-.788-.445a3.661,3.661,0,0,1-.677-.529,3.721,3.721,0,0,1-.8-1.206,3.216,3.216,0,0,1-.232-.944.884.884,0,0,1,.008-.377Z" transform="translate(-297.251 -270.983)" fill="#263238"/>
        <path id="Path_6201" data-name="Path 6201" d="M295.74,342.206c.03-.042.179,0,.236.183s-.019.308-.069.293-.08-.118-.118-.225S295.706,342.251,295.74,342.206Z" transform="translate(-295.728 -268.834)" fill="#263238"/>
        <path id="Path_6202" data-name="Path 6202" d="M315.81,361.442c0-.053.16-.141.381-.118s.381.141.354.186-.183.027-.381,0S315.825,361.5,315.81,361.442Z" transform="translate(-308.168 -280.684)" fill="#263238"/>
        <path id="Path_6203" data-name="Path 6203" d="M402.733,330.467s2.622-.171,3.425.354.727,1.929.727,1.929v.613a2.622,2.622,0,0,1-.076,1.636c-.381.887-1.849.449-1.849.449s1.088.247,1,1.214a1.191,1.191,0,0,1-1,1.085,1.553,1.553,0,0,1,.091.932,1.309,1.309,0,0,1-1.168.822l-1.579.194s-6.051,1.031-7.364.761-3.882-1.142-3.882-1.142l-.677-7.189Z" transform="translate(-354.361 -261.555)" fill="#ffbe9d"/>
        <path id="Path_6204" data-name="Path 6204" d="M357.59,332.967s-11.61.955-16.695-1.187l-3.425,10.1s19.758-1.05,20.782-1.728S357.59,332.967,357.59,332.967Z" transform="translate(-321.585 -262.385)" fill="#ffbe9d"/>
        <path id="Path_6205" data-name="Path 6205" d="M422.24,347.594a3.588,3.588,0,0,1,1.286.179,2.172,2.172,0,0,1,1.142.6c-.034.046-.525-.236-1.206-.407A5.484,5.484,0,0,1,422.24,347.594Z" transform="translate(-374.096 -272.179)" fill="#b0bec5"/>
        <path id="Path_6206" data-name="Path 6206" d="M422.09,341.936c0-.03.145-.053.381-.08a4.185,4.185,0,0,1,.944,0,1.991,1.991,0,0,1,.9.335c.2.148.282.282.266.3a2.033,2.033,0,0,1-.342-.179,2.6,2.6,0,0,0-.852-.259c-.35-.049-.677-.053-.913-.069S422.09,341.963,422.09,341.936Z" transform="translate(-374.003 -268.61)" fill="#b0bec5"/>
        <path id="Path_6207" data-name="Path 6207" d="M421,335.2s0-.08.114-.175a.913.913,0,0,1,.533-.209,2.951,2.951,0,0,1,.833.065c.3.053.636.118.982.194a8.053,8.053,0,0,1,1.743.556,1.588,1.588,0,0,1,.624.438c0,.027-.255-.141-.681-.308a11.366,11.366,0,0,0-1.728-.491l-.974-.209a3.2,3.2,0,0,0-.788-.1A1.031,1.031,0,0,0,421,335.2Z" transform="translate(-373.328 -264.264)" fill="#b0bec5"/>
        <path id="Path_6208" data-name="Path 6208" d="M388.542,266.895s-6.713-13.14-7.679-18.495l-5.122.864,3.181,24.3Z" transform="translate(-345.292 -210.735)" fill="#ffbe9d"/>
        <path id="Path_6209" data-name="Path 6209" d="M378.115,225.219l.251-1.446,2.333-6.142a1.838,1.838,0,0,0,.065-1.081l-.929-3.752a2.257,2.257,0,0,0-1.72-1.667c-1.3-.274-3.094-.559-3.486-.129-.632.693-.4,1.142-.4,1.142s-1.667.4-1.667,1.263c0,0-1.324.689-1.21,1.206s.578,2.188,1.1,2.074a.974.974,0,0,0,.666-.4l.312,1.092-.312,1.781s-1.142,3.805-.9,4.833a17.378,17.378,0,0,0,.9,2.534" transform="translate(-342.567 -187.432)" fill="#ffbe9d"/>
        <path id="Path_6210" data-name="Path 6210" d="M373.016,226.294a.677.677,0,0,1-.065-.122c-.046-.1-.1-.213-.168-.381-.137-.324-.339-.8-.544-1.431a3,3,0,0,1-.2-1.092,8.78,8.78,0,0,1,.16-1.3,28.107,28.107,0,0,1,.761-3.075h0c.1-.563.2-1.164.308-1.785v.038l-.316-1.092h.164a.978.978,0,0,1-.51.381.761.761,0,0,1-.335.065.517.517,0,0,1-.3-.19,3.507,3.507,0,0,1-.559-1.142c-.065-.2-.126-.407-.179-.62l-.038-.156a.491.491,0,0,1,0-.2.762.762,0,0,1,.167-.331,3.878,3.878,0,0,1,1.088-.818l-.053.088a1.176,1.176,0,0,1,.67-.921,4.087,4.087,0,0,1,1.073-.441l-.065.141a.91.91,0,0,1,.034-.681,1.952,1.952,0,0,1,.381-.563,1.141,1.141,0,0,1,.761-.259,4.867,4.867,0,0,1,.761,0,14.459,14.459,0,0,1,1.442.2c.236.046.468.091.7.145a2.412,2.412,0,0,1,.674.274,2.378,2.378,0,0,1,.929,1.058,3.428,3.428,0,0,1,.2.658c.053.213.107.426.156.639.107.422.206.837.308,1.244l.289,1.2c.046.194.1.381.133.586a1.9,1.9,0,0,1,0,.605,3.026,3.026,0,0,1-.179.552l-.194.514c-.129.339-.259.666-.381.982l-.753,1.834c-.419,1.081-.761,1.975-1.031,2.664h0l-.206,1.073-.057.274a.858.858,0,0,1-.027.1.279.279,0,0,1,0-.1c0-.072.027-.164.042-.278l.171-1.077h0c.251-.681.586-1.583.986-2.664l.662-1.777c.122-.316.244-.647.381-.982l.194-.518a2.616,2.616,0,0,0,.164-.525,1.782,1.782,0,0,0,0-.552c-.03-.179-.091-.381-.137-.571-.1-.381-.194-.788-.3-1.191l-.312-1.244c-.049-.213-.1-.426-.156-.639a3.508,3.508,0,0,0-.194-.624,2.135,2.135,0,0,0-.856-.97,3.649,3.649,0,0,0-1.309-.381,13.485,13.485,0,0,0-1.423-.2,5.678,5.678,0,0,0-.719,0,.99.99,0,0,0-.62.2,1.693,1.693,0,0,0-.331.5.761.761,0,0,0-.046.521l.046.11-.11.03a3.91,3.91,0,0,0-1.016.415,1.012,1.012,0,0,0-.578.761v.057l-.049.03a3.741,3.741,0,0,0-1.031.761.575.575,0,0,0-.126.244.652.652,0,0,0,.038.278c.053.205.11.411.175.609a3.484,3.484,0,0,0,.514,1.077.38.38,0,0,0,.194.133.688.688,0,0,0,.247-.053.86.86,0,0,0,.415-.3l.11-.175.053.19c.107.381.213.761.308,1.1h0v.019c-.11.62-.217,1.218-.32,1.781h0c-.327,1.115-.59,2.143-.761,3.044a9.4,9.4,0,0,0-.179,1.282,3.043,3.043,0,0,0,.179,1.062c.19.632.38,1.111.506,1.438.057.156.107.278.141.381a.525.525,0,0,1,.046.088Z" transform="translate(-342.469 -187.19)" fill="#eb996e"/>
        <path id="Path_6211" data-name="Path 6211" d="M374.35,217.34a1.662,1.662,0,0,1,.658-.206,1.591,1.591,0,0,1,.761.042,1.328,1.328,0,0,1,.731.651,12.062,12.062,0,0,1,.929,2.142,15.986,15.986,0,0,1-1.1-2.04,1.172,1.172,0,0,0-.6-.559,1.6,1.6,0,0,0-.693-.076A4.67,4.67,0,0,1,374.35,217.34Z" transform="translate(-344.431 -191.35)" fill="#eb996e"/>
        <path id="Path_6212" data-name="Path 6212" d="M374.912,221.91a2.51,2.51,0,0,1,.293.761c.137.419.263.761.209.788s-.255-.289-.38-.727A1.389,1.389,0,0,1,374.912,221.91Z" transform="translate(-344.769 -194.326)" fill="#eb996e"/>
        <path id="Path_6213" data-name="Path 6213" d="M373.243,222.327c.053-.019.167.141.381.251s.4.133.407.19-.24.137-.506,0S373.189,222.343,373.243,222.327Z" transform="translate(-343.734 -194.583)" fill="#eb996e"/>
        <path id="Path_6214" data-name="Path 6214" d="M382.622,218.066a14.162,14.162,0,0,0-.875-2.987,1.374,1.374,0,0,0-.731-.837,2.147,2.147,0,0,0-.951-.038,1.865,1.865,0,0,1-.925,0c0-.023.346-.023.906-.148a2.077,2.077,0,0,1,1.027,0,1.111,1.111,0,0,1,.521.381,2.422,2.422,0,0,1,.335.567,8.172,8.172,0,0,1,.643,2.142,2.97,2.97,0,0,1,.049.921Z" transform="translate(-347.398 -189.42)" fill="#eb996e"/>
        <path id="Path_6215" data-name="Path 6215" d="M389.35,211.768c0-.027.3,0,.563.381a5.5,5.5,0,0,1,.624,1.522,8.426,8.426,0,0,1,.46,2.238c-.057,0-.285-.982-.651-2.177a7.265,7.265,0,0,0-.548-1.484A1.745,1.745,0,0,0,389.35,211.768Z" transform="translate(-353.723 -188.038)" fill="#eb996e"/>
        <path id="Path_6216" data-name="Path 6216" d="M388.508,230.158c-.027-.053.407-.255.7-.731a4.3,4.3,0,0,0,.362-.948c.027,0,.065.118.053.32a1.567,1.567,0,0,1-.247.734,1.6,1.6,0,0,1-.559.537C388.641,230.166,388.516,230.2,388.508,230.158Z" transform="translate(-353.2 -198.395)" fill="#eb996e"/>
        <path id="Path_6217" data-name="Path 6217" d="M381.33,230.681c0-.057.381-.129.693-.468a3.3,3.3,0,0,0,.422-.723c.042,0,.049.1.023.274a1.2,1.2,0,0,1-.864.921C381.436,230.723,381.334,230.7,381.33,230.681Z" transform="translate(-348.754 -199.021)" fill="#eb996e"/>
        <path id="Path_6218" data-name="Path 6218" d="M428.57,311.18a1.654,1.654,0,0,0,.232-.251,1.59,1.59,0,0,0,.2-.9,5.546,5.546,0,0,1,0-.666,1.549,1.549,0,0,1,.194-.78,1.659,1.659,0,0,1,.677-.533c.259-.126.51-.282.571-.552s0-.59.046-.894a3.838,3.838,0,0,1,.225-.83,9.9,9.9,0,0,0,.48-1.336,2.2,2.2,0,0,0,.034-.932c-.046-.217-.1-.331-.088-.339a.719.719,0,0,1,.164.32,2.07,2.07,0,0,1,.027.978,8.682,8.682,0,0,1-.441,1.37,3.875,3.875,0,0,0-.209.8c-.049.278.027.571-.046.913a.792.792,0,0,1-.274.434,1.864,1.864,0,0,1-.4.247,1.484,1.484,0,0,0-.635.457,1.419,1.419,0,0,0-.183.685v.666a1.583,1.583,0,0,1-.278.94C428.711,311.158,428.57,311.188,428.57,311.18Z" transform="translate(-378.017 -244.662)" fill="#263238"/>
      </g>
      <g id="freepik--character-1--inject-174" transform="translate(70.965 54.155)">
        <path id="Path_6219" data-name="Path 6219" d="M206.182,373.111a9.494,9.494,0,0,1,.3,5.636,77.767,77.767,0,0,1-4.015,8.9l-1.142,20.169H162.914L159.47,372.24Z" transform="translate(-152.842 -258.856)" fill="#263238"/>
        <path id="Path_6220" data-name="Path 6220" d="M183.7,420.527a1.477,1.477,0,0,1-.068-.282c-.038-.2-.091-.472-.156-.807-.133-.7-.308-1.724-.506-2.987-.4-2.527-.871-6.028-1.3-9.894s-.761-7.394-1.027-9.94c-.126-1.256-.228-2.283-.3-3.01-.03-.343-.057-.613-.076-.822a1.346,1.346,0,0,1,0-.285,2.122,2.122,0,0,1,.049.282c.03.205.068.476.114.818.1.708.217,1.735.381,3,.282,2.561.662,6.062,1.085,9.932s.871,7.379,1.237,9.894c.186,1.248.339,2.264.445,2.991.049.339.088.609.118.814A1.953,1.953,0,0,1,183.7,420.527Z" transform="translate(-165.721 -271.406)" fill="#455a64"/>
        <path id="Path_6221" data-name="Path 6221" d="M195.109,76.33l-.62.027a12.029,12.029,0,0,0-11.531,11.538c-.228,5.834-.4,12.28-.236,15.4.346,6.45,6.85,7.185,6.85,7.185,0,.171-.091,6.85-.122,8.422l15.157,1.773.605-31.722C205.5,82.225,201.841,76.444,195.109,76.33Z" transform="translate(-167.204 -75.554)" fill="#ffbe9d"/>
        <path id="Path_6222" data-name="Path 6222" d="M238.34,106.063a46.71,46.71,0,0,0,2.123-7.756,16.075,16.075,0,0,0-.54-7.95c-.137-.381-1.313-2.953-1.72-2.919-.289.023.426,2.42.278,2.664a13.792,13.792,0,0,0-1.652,8.03,36.325,36.325,0,0,0,1.522,7.927" transform="translate(-200.736 -82.435)" fill="#263238"/>
        <path id="Path_6223" data-name="Path 6223" d="M200.775,161.451a15.579,15.579,0,0,0,8.3-2.831s-1.853,4.78-8.315,4.464Z" transform="translate(-178.419 -126.528)" fill="#eb996e"/>
        <path id="Path_6224" data-name="Path 6224" d="M187.33,117.011a.921.921,0,0,0,.925.894.887.887,0,0,0,.917-.871.925.925,0,0,0-.929-.894.883.883,0,0,0-.913.871Z" transform="translate(-170.1 -100.213)" fill="#263238"/>
        <path id="Path_6225" data-name="Path 6225" d="M187.342,111.945c.118.114.8-.43,1.789-.468s1.739.426,1.838.3c.053-.053-.072-.266-.4-.483a2.538,2.538,0,0,0-1.48-.381,2.451,2.451,0,0,0-1.416.521C187.376,111.671,187.281,111.892,187.342,111.945Z" transform="translate(-170.096 -96.974)" fill="#263238"/>
        <path id="Path_6226" data-name="Path 6226" d="M212.3,117.916a.925.925,0,0,0,.925.894.879.879,0,0,0,.917-.871.921.921,0,0,0-.925-.89.879.879,0,0,0-.917.868Z" transform="translate(-185.568 -100.776)" fill="#263238"/>
        <path id="Path_6227" data-name="Path 6227" d="M212.434,112.635c.118.118.8-.43,1.789-.468s1.739.43,1.838.3c.053-.057-.072-.27-.4-.487a2.538,2.538,0,0,0-1.48-.381,2.424,2.424,0,0,0-1.416.525C212.468,112.365,212.377,112.586,212.434,112.635Z" transform="translate(-185.641 -97.402)" fill="#263238"/>
        <path id="Path_6228" data-name="Path 6228" d="M200.267,120.514a6.583,6.583,0,0,0-1.621-.225c-.255,0-.495-.057-.544-.228a1.283,1.283,0,0,1,.137-.761c.213-.62.434-1.275.67-1.96a33,33,0,0,0,1.473-5.111,32.722,32.722,0,0,0-1.88,4.981c-.225.689-.438,1.343-.639,1.971a1.461,1.461,0,0,0-.091,1,.643.643,0,0,0,.434.354,1.845,1.845,0,0,0,.434.042A5.019,5.019,0,0,0,200.267,120.514Z" transform="translate(-176.538 -97.791)" fill="#263238"/>
        <path id="Path_6229" data-name="Path 6229" d="M207.192,135.52c-.164,0-.122,1.077-1.008,1.876s-2.04.731-2.044.883c0,.068.263.2.761.19a2.664,2.664,0,0,0,1.7-.674,2.336,2.336,0,0,0,.761-1.572C207.394,135.775,207.264,135.512,207.192,135.52Z" transform="translate(-180.513 -112.219)" fill="#263238"/>
        <path id="Path_6230" data-name="Path 6230" d="M211.985,102.8c.107.266,1.092.1,2.26.19s2.123.381,2.283.122c.065-.118-.11-.381-.5-.613a3.969,3.969,0,0,0-3.452-.236C212.137,102.453,211.928,102.674,211.985,102.8Z" transform="translate(-185.367 -91.44)" fill="#263238"/>
        <path id="Path_6231" data-name="Path 6231" d="M188.564,103.963c.186.217.86-.046,1.678-.091s1.522.091,1.674-.152c.065-.118-.053-.339-.381-.54a2.363,2.363,0,0,0-1.381-.312,2.329,2.329,0,0,0-1.32.51C188.571,103.621,188.484,103.856,188.564,103.963Z" transform="translate(-170.847 -91.987)" fill="#263238"/>
        <path id="Path_6232" data-name="Path 6232" d="M238.74,120.66c.11-.049,4.38-1.492,4.422,2.923s-4.4,3.55-4.411,3.425S238.74,120.66,238.74,120.66Z" transform="translate(-201.946 -102.851)" fill="#ffbe9d"/>
        <path id="Path_6233" data-name="Path 6233" d="M242.264,127.624a1.778,1.778,0,0,0,.209.114.791.791,0,0,0,.575,0,1.91,1.91,0,0,0,.868-1.716,2.561,2.561,0,0,0-.228-1.1.894.894,0,0,0-.582-.586.381.381,0,0,0-.453.217c-.057.126-.03.213-.053.221s-.1-.072-.061-.255a.483.483,0,0,1,.171-.282.575.575,0,0,1,.422-.114,1.077,1.077,0,0,1,.811.677,2.568,2.568,0,0,1,.278,1.229,1.924,1.924,0,0,1-1.1,1.9.826.826,0,0,1-.7-.11C242.275,127.73,242.249,127.631,242.264,127.624Z" transform="translate(-204.127 -105.156)" fill="#eb996e"/>
        <path id="Path_6234" data-name="Path 6234" d="M190.77,79.321c-.715-.381,1.431-2.709,3.185-3.509,2.664-1.206,6.709-1.948,9.16-1.256,2.945.833,5.4,2.283,6.876,4.981a17.422,17.422,0,0,1,1.956,8.867,5.313,5.313,0,0,1-.62,2.7c-.616.974-1.8,1.591-1.747,2.938a1.849,1.849,0,0,1-.46,1.351c-.807.86-1.8.053-2.249-.761a12.8,12.8,0,0,1-1.168-5.777,12.716,12.716,0,0,1,.278-4.186c.213-.738.559-1.435.734-2.181a2.226,2.226,0,0,0-.674-2.569,4.6,4.6,0,0,0-4.567-.868,17.089,17.089,0,0,1-7.584.841c-1.964-.419-2.238-1.492-2.238-1.492Z" transform="translate(-172.144 -74.29)" fill="#263238"/>
        <path id="Path_6235" data-name="Path 6235" d="M177.594,179.26a1.432,1.432,0,0,1,.084.285l.183.83c.16.761.381,1.8.624,3.044v.065c-.529,1.142-1.142,2.527-1.861,4.034l-2.356,4.879c-1.7,3.509-3.261,6.675-4.4,8.962l-1.366,2.7-.381.727a1.186,1.186,0,0,1-.152.244.9.9,0,0,1,.1-.27L168.4,204l1.279-2.744c1.088-2.31,2.614-5.5,4.319-9l2.375-4.871,1.9-4v.065l-.529-3.071-.126-.841A.973.973,0,0,1,177.594,179.26Z" transform="translate(-158.108 -139.314)" fill="#263238"/>
        <path id="Path_6236" data-name="Path 6236" d="M152.707,190.95c-2.1,4.532-6.294,11.416-7.668,14.347-8.1,17.349,2.85,37.408,2.85,37.408l48.463.948-3.4-31.936s1.979-22.171.925-30.307c-1.26-9.677-8.794-18.578-9.841-18.841l-1.172-2.934a7.523,7.523,0,0,0-4.567-1.054c-2.618.263-16.744,7.851-16.744,7.851l.651,3.554" transform="translate(-142.053 -126.485)" fill="#455a64"/>
        <path id="Path_6237" data-name="Path 6237" d="M216.386,168.879a12.817,12.817,0,0,0-3.638.285,16.435,16.435,0,0,0-3.7,1.431l-4.418,2.108c-2.949,1.4-5.64,2.664-7.641,3.585l-.084.038-.053-.065-1.9-2.344a7.635,7.635,0,0,1-.674-.89,6.743,6.743,0,0,1,.761.807l2,2.283-.137-.027c1.983-.97,4.662-2.26,7.611-3.657l4.418-2.074a15.9,15.9,0,0,1,3.767-1.389,9.833,9.833,0,0,1,2.7-.217,7.184,7.184,0,0,1,.734.084A.818.818,0,0,1,216.386,168.879Z" transform="translate(-174.405 -132.795)" fill="#263238"/>
        <path id="Path_6238" data-name="Path 6238" d="M207.725,258.816l-.647,6.808-13.064,38.717-7.953,1.313,6.8-49.254Z" transform="translate(-169.313 -187.099)" fill="#ffbe9d"/>
        <path id="Path_6239" data-name="Path 6239" d="M191.679,371.744l.4,6.469-.605,1.709,1.054,1.32,2.123.289a1.16,1.16,0,0,1-.1,1.522,2.847,2.847,0,0,1-1.88.578s0,1.222-.514,1.465a3.045,3.045,0,0,1-1.408.209s.327,1.1-.118,1.324a21.93,21.93,0,0,1-3.455.3s-2.428.023-2.58,0a14.783,14.783,0,0,1-1.05-2.12s-1.952.08-1.983-1.027.54-.571.845-1.9.788-7.1.788-7.1l1.309-5.354Z" transform="translate(-166.53 -257.115)" fill="#ffbe9d"/>
        <path id="Path_6240" data-name="Path 6240" d="M200.237,396.58c.049,0,.08.354.266.883a4.152,4.152,0,0,0,3.109,2.74c.548.118.906.107.91.156a1.747,1.747,0,0,1-.948.057,3.859,3.859,0,0,1-3.276-2.892,1.739,1.739,0,0,1-.061-.944Z" transform="translate(-178.072 -273.933)" fill="#eb996e"/>
        <path id="Path_6241" data-name="Path 6241" d="M194.228,400.32a8.1,8.1,0,0,1,.343.875,5.214,5.214,0,0,0,3.128,2.961,8.034,8.034,0,0,1,.891.293,1.867,1.867,0,0,1-.955-.084,4.685,4.685,0,0,1-3.269-3.094,1.849,1.849,0,0,1-.137-.951Z" transform="translate(-174.365 -276.25)" fill="#eb996e"/>
        <path id="Path_6242" data-name="Path 6242" d="M189.342,400.68a3.5,3.5,0,0,1,.152.955,9.749,9.749,0,0,0,.464,2.234,4.6,4.6,0,0,0,1.225,1.865c.438.381.784.518.761.563a1.556,1.556,0,0,1-.9-.381,4.144,4.144,0,0,1-1.381-1.926,7.41,7.41,0,0,1-.381-2.325A2.694,2.694,0,0,1,189.342,400.68Z" transform="translate(-171.298 -276.473)" fill="#eb996e"/>
        <path id="Path_6243" data-name="Path 6243" d="M185.754,397.409a21.512,21.512,0,0,1-.518-3.805,16.951,16.951,0,0,1-.03-3.844c.084,0,.156,1.712.335,3.806A28.058,28.058,0,0,1,185.754,397.409Z" transform="translate(-168.734 -269.709)" fill="#eb996e"/>
        <path id="Path_6244" data-name="Path 6244" d="M221.71,194.319l-2.8,19.275-19.336-2.854,2.4-19.522a9.734,9.734,0,0,1,4.422-7.116,8.874,8.874,0,0,1,6.306-1.222,14.5,14.5,0,0,1,2.786.727,9.894,9.894,0,0,1,6.226,10.712Z" transform="translate(-177.682 -141.468)" fill="#455a64"/>
        <path id="Path_6245" data-name="Path 6245" d="M213.094,183.523a.874.874,0,0,1,.175,0c.114.019.289.038.514.084a10.1,10.1,0,0,1,1.9.59,8.973,8.973,0,0,1,2.664,1.747,9.617,9.617,0,0,1,2.356,3.524,10.5,10.5,0,0,1,.575,5.122q-.382,2.763-.807,5.887c-.578,4.159-1.214,8.753-1.884,13.6l-.023.152-.152-.023-3.425-.491L198.976,211.4h-.126v-.129c.183-3.28.422-6.309.761-8.989s.761-5.016,1.172-6.93.811-3.425,1.092-4.422c.145-.495.259-.879.342-1.161l.091-.3c.023-.065.038-.1.042-.1a.721.721,0,0,1,0,.1,1.825,1.825,0,0,1-.072.3c-.072.285-.171.674-.3,1.172-.251,1.024-.628,2.519-1.016,4.433s-.792,4.243-1.1,6.922-.544,5.708-.715,8.977l-.118-.145,16.017,2.283,3.425.491-.175.129c.685-4.856,1.332-9.445,1.9-13.6.3-2.074.575-4.041.837-5.879a10.313,10.313,0,0,0-.525-5.016,9.544,9.544,0,0,0-2.283-3.482,9.134,9.134,0,0,0-2.6-1.762,10.861,10.861,0,0,0-1.9-.635c-.221-.053-.381-.084-.506-.11A.933.933,0,0,1,213.094,183.523Z" transform="translate(-177.236 -141.952)" fill="#263238"/>
      </g>
      <g id="freepik--Table--inject-174" transform="translate(29.99 202.998)">
        <path id="Path_6246" data-name="Path 6246" d="M293.624,465.519c0,.057-58.037.1-129.614.1s-129.63-.042-129.63-.1,58.026-.1,129.63-.1S293.624,465.466,293.624,465.519Z" transform="translate(-34.38 -465.42)" fill="#263238"/>
      </g>
      <g id="freepik--speech-bubble--inject-174" transform="translate(170.741 51.769)">
        <circle id="Ellipse_602" data-name="Ellipse 602" cx="14.636" cy="14.636" r="14.636" transform="translate(0 26.943) rotate(-66.99)" fill="#fafafa"/>
        <path id="Path_6247" data-name="Path 6247" d="M425.209,159.25a2.354,2.354,0,0,0-.171-.4,1.983,1.983,0,0,0-.845-.8,1.831,1.831,0,0,0-.78-.194,1.609,1.609,0,0,0-.875.251,1.751,1.751,0,0,0,.529,3.238,1.594,1.594,0,0,0,.909-.042,1.849,1.849,0,0,0,.677-.43,1.941,1.941,0,0,0,.544-1.027c.046-.278.023-.438.038-.438a.38.38,0,0,1,.019.114.507.507,0,0,1,0,.137,1.191,1.191,0,0,1,0,.194,1.9,1.9,0,0,1-.529,1.085,1.864,1.864,0,0,1-.708.472,1.682,1.682,0,0,1-.974.057,2.032,2.032,0,0,1-.948-.518,1.758,1.758,0,0,1-.35-2.158,1.964,1.964,0,0,1,.731-.792,1.713,1.713,0,0,1,.944-.259,1.956,1.956,0,0,1,.818.221,1.926,1.926,0,0,1,.849.864,1.258,1.258,0,0,1,.072.179.8.8,0,0,1,.038.133A.38.38,0,0,1,425.209,159.25Z" transform="translate(-414.947 -123.597)" fill="#263238"/>
        <path id="Path_6248" data-name="Path 6248" d="M416.594,173.469a1.57,1.57,0,0,0-.114-.247,1.237,1.237,0,0,0-.533-.495,1.031,1.031,0,0,0-1.02.042,1.077,1.077,0,0,0,.327,1.994,1.031,1.031,0,0,0,.978-.285,1.221,1.221,0,0,0,.346-.635c.034-.175.019-.274.034-.274a.637.637,0,0,1,0,.282,1.237,1.237,0,0,1-.761,1,1.092,1.092,0,0,1-.628.038,1.195,1.195,0,0,1-.362-2.222,1.055,1.055,0,0,1,.605-.164,1.237,1.237,0,0,1,1.058.7A.5.5,0,0,1,416.594,173.469Z" transform="translate(-410.438 -132.739)" fill="#263238"/>
        <path id="Path_6249" data-name="Path 6249" d="M431.061,109.164l.24-.023.7-.061.514-.042c.186-.023.381-.069.613-.107l.712-.129a2.407,2.407,0,0,0,.381-.1l.411-.118a14.035,14.035,0,0,0,3.863-1.72,14.571,14.571,0,0,0,4.068-3.828l.457-.647c.141-.225.27-.464.407-.7l.2-.358a2.63,2.63,0,0,0,.194-.381l.346-.761c.057-.129.118-.259.175-.381l.137-.411c.091-.274.186-.552.278-.83s.141-.578.213-.868c.03-.148.065-.3.1-.441a1.579,1.579,0,0,1,.049-.225l.03-.228a14.075,14.075,0,0,0,.167-1.857c0-.316.027-.632,0-.955s-.05-.643-.076-.967a3.463,3.463,0,0,0-.042-.487c-.023-.16-.057-.323-.088-.487-.061-.323-.11-.655-.186-.982a15.068,15.068,0,0,0-.62-1.937c-.061-.16-.126-.32-.19-.483-.03-.08-.061-.16-.1-.24l-.118-.232q-.24-.464-.48-.936c-.179-.3-.381-.594-.567-.9-.1-.145-.186-.3-.3-.445l-.327-.43a16.634,16.634,0,0,0-1.454-1.625l-.837-.723-.209-.183-.228-.164-.457-.323-.457-.323-.491-.285-.491-.282-.247-.141-.259-.118-1.043-.472-1.1-.381a14.533,14.533,0,0,0-9.236.228l-1.073.426-1.02.521-.255.133-.24.152-.476.3-.476.308-.441.346-.441.346-.217.175-.167.205-.8.761a17.476,17.476,0,0,0-1.37,1.7l-.312.438c-.1.148-.183.308-.274.46-.175.312-.362.613-.521.925s-.289.643-.434.959l-.107.236c-.03.084-.057.164-.084.247-.057.164-.114.327-.167.491a15.291,15.291,0,0,0-.525,1.964c-.061.331-.088.662-.133.989-.023.164-.042.327-.065.491s0,.327-.019.491c0,.327-.019.651-.027.97s.042.639.061.955a13.372,13.372,0,0,0,.263,1.846l.038.225a.906.906,0,0,0,.061.221c.042.145.08.289.122.434.088.289.152.582.255.86l.32.814.16.4c.065.129.129.255.19.381l.381.761a3.661,3.661,0,0,0,.209.358l.225.346c.148.228.285.46.438.677l.487.624a14.636,14.636,0,0,0,4.254,3.619c.179.1.354.209.529.3l.537.244.514.232c.084.038.167.08.251.114l.255.084.963.331c.308.1.613.148.9.221l.411.1a2.48,2.48,0,0,0,.381.072l.715.1c.225.027.43.061.62.076h.514l.7.027h-1.233c-.19,0-.38-.046-.62-.072l-.719-.088a2.485,2.485,0,0,1-.381-.072l-.419-.091c-.282-.072-.59-.126-.9-.217l-.97-.327-.255-.084c-.088-.03-.167-.072-.255-.11l-.518-.232-.54-.244-.533-.3a14.614,14.614,0,0,1-4.289-3.63l-.495-.624c-.152-.217-.293-.449-.445-.681l-.224-.346a2.624,2.624,0,0,1-.209-.381l-.381-.761c-.061-.129-.129-.255-.194-.381l-.16-.407c-.107-.27-.217-.544-.323-.822s-.171-.575-.259-.864l-.126-.438c-.019-.076-.042-.148-.061-.221l-.038-.228a12.969,12.969,0,0,1-.266-1.861c-.023-.316-.061-.639-.065-.959l.023-.982v-.491a3.665,3.665,0,0,1,.065-.495c.046-.331.076-.666.133-1a15.627,15.627,0,0,1,.529-1.986c.053-.164.11-.327.164-.495.03-.08.057-.164.087-.247l.107-.24c.145-.32.289-.643.438-.967s.35-.62.525-.932a5.154,5.154,0,0,1,.278-.464l.312-.445a16.243,16.243,0,0,1,1.381-1.709l.807-.761L421,83.3l.221-.175.441-.35.449-.354.476-.308.483-.308.24-.156.259-.133,1.027-.529,1.092-.426a14.628,14.628,0,0,1,9.323-.232l1.1.381,1.054.476.259.118.251.145.495.285.495.285.46.327.46.327c.076.057.156.11.228.167l.213.183.845.731a16.487,16.487,0,0,1,1.465,1.64l.335.426c.114.145.2.3.3.453.19.3.381.6.571.906l.483.944.118.232c.034.08.065.164.1.244l.19.487a15.99,15.99,0,0,1,.624,1.956c.076.327.122.662.183.989.03.164.061.327.088.491s.03.327.046.491c.023.327.046.651.072.974s0,.647,0,.963a13.745,13.745,0,0,1-.175,1.872l-.03.228a2.121,2.121,0,0,1-.049.225l-.1.445c-.072.293-.126.59-.213.875l-.285.837-.137.411c-.057.133-.118.263-.179.381-.118.259-.232.518-.35.761a2.61,2.61,0,0,1-.194.381l-.206.362c-.141.236-.27.476-.411.7l-.46.651a14.757,14.757,0,0,1-4.106,3.836,13.924,13.924,0,0,1-3.893,1.709l-.411.114a2.39,2.39,0,0,1-.381.091l-.719.126c-.221.034-.426.076-.613.1l-.518.034-.7.046Z" transform="translate(-411.495 -75.242)" fill="#263238"/>
        <path id="Path_6250" data-name="Path 6250" d="M446.745,107.924a3.269,3.269,0,0,0,1.948-3.044,3.075,3.075,0,1,0-6.138-.027,3.269,3.269,0,0,0,1.956,3.044c-4.723.738-4.513,5.872-4.513,5.872l11.169.049S451.414,108.631,446.745,107.924Z" transform="translate(-426.391 -88.824)" fill="#ff7600"/>
        <path id="Path_6251" data-name="Path 6251" d="M467.51,104.793a1.632,1.632,0,0,0,.974-1.522,1.535,1.535,0,1,0-3.071,0,1.632,1.632,0,0,0,.978,1.522c-2.359.358-2.253,2.923-2.253,2.923l5.583.027S469.832,105.147,467.51,104.793Z" transform="translate(-441.346 -88.905)" fill="#ff7600"/>
        <path id="Path_6252" data-name="Path 6252" d="M433.2,105.583a1.64,1.64,0,0,0,.974-1.522,1.535,1.535,0,1,0-3.071,0,1.648,1.648,0,0,0,.978,1.522c-2.359.354-2.253,2.923-2.253,2.923l5.586.027S435.541,105.937,433.2,105.583Z" transform="translate(-420.092 -89.394)" fill="#ff7600"/>
        <rect id="Rectangle_1746" data-name="Rectangle 1746" width="0.761" height="29.397" transform="matrix(0.543, -0.84, 0.84, 0.543, 6.721, 11.585)" fill="#263238"/>
      </g>
    </g>
    <g id="Group_1193" data-name="Group 1193" transform="translate(3.371 -149.643)">
      <g id="Ellipse_12" data-name="Ellipse 12" transform="translate(177.629 798.642)" fill="none" stroke="#0e58c7" stroke-width="1">
        <circle cx="4" cy="4" r="4" stroke="none"/>
        <circle cx="4" cy="4" r="3.5" fill="none"/>
      </g>
      <g id="Ellipse_13" data-name="Ellipse 13" transform="translate(191.629 798.642)" fill="none" stroke="#0e58c7" stroke-width="1">
        <circle cx="4" cy="4" r="4" stroke="none"/>
        <circle cx="4" cy="4" r="3.5" fill="none"/>
      </g>
      <g id="Ellipse_91" data-name="Ellipse 91" transform="translate(206.629 798.642)" fill="none" stroke="#0e58c7" stroke-width="1">
        <circle cx="4" cy="4" r="4" stroke="none"/>
        <circle cx="4" cy="4" r="3.5" fill="none"/>
      </g>
      <g id="Ellipse_92" data-name="Ellipse 92" transform="translate(220.629 798.642)" fill="#0e58c7" stroke="#0e58c7" stroke-width="1">
        <circle cx="4" cy="4" r="4" stroke="none"/>
        <circle cx="4" cy="4" r="3.5" fill="none"/>
      </g>
    </g>
    <g id="Group_3234" data-name="Group 3234" transform="translate(-4.848 -10.263)">
      <path id="Icon_ionic-ios-arrow-back" data-name="Icon ionic-ios-arrow-back" d="M15.217,17.7,23.926,9A1.645,1.645,0,1,0,21.6,6.674l-9.867,9.86a1.642,1.642,0,0,0-.048,2.268l9.908,9.929a1.645,1.645,0,0,0,2.33-2.323Z" transform="translate(362.579 30.069)" fill="#1e64cc"/>
      <path id="Icon_ionic-ios-arrow-back-2" data-name="Icon ionic-ios-arrow-back" d="M3.967,11.506l8.709-8.7A1.645,1.645,0,1,0,10.346.481L.479,10.341a1.642,1.642,0,0,0-.048,2.268l9.908,9.929a1.645,1.645,0,1,0,2.33-2.323Z" transform="translate(377.472 59.28) rotate(180)" fill="#1e64cc"/>
    </g>
    <text id="Rules_for_ERP_Exercise_Examples" data-name="Rules for ERP Exercise / Examples" transform="translate(21 24)" fill="#1e64cc" font-size="24" font-family="Arial-BoldMT, Arial" font-weight="700"><tspan x="0" y="22">Rules for ERP Exercise / </tspan><tspan x="0" y="53">Examples</tspan></text>
    <g id="Component_119_383" data-name="Component 119 – 383" transform="translate(0 779.138)">
      <rect id="Rectangle_1927" data-name="Rectangle 1927" width="412" height="67" transform="translate(0 0.722)" fill="#edf4fd"/>
      <path id="Path_4714" data-name="Path 4714" d="M1053,4508.186h411.151" transform="translate(-1053 -4508.186)" fill="none" stroke="#fff" stroke-width="2" opacity="0.206"/>
      <g id="Group_3096" data-name="Group 3096" transform="translate(-3 -997.186)">
        <text id="Next" transform="translate(318 1038)" fill="#102646" font-size="18" font-family="ArialMT, Arial"><tspan x="0" y="0">Next</tspan></text>
        <path id="Icon_ionic-ios-arrow-back-3" data-name="Icon ionic-ios-arrow-back" d="M14.033,14.264l6.109-6.1a1.154,1.154,0,0,0-1.634-1.629l-6.921,6.916a1.152,1.152,0,0,0-.034,1.591L18.5,22a1.154,1.154,0,1,0,1.634-1.629Z" transform="translate(389.251 1046.266) rotate(180)" fill="#102646"/>
      </g>
      <g id="Group_3224" data-name="Group 3224" transform="translate(2.529 7.076)">
        <g id="Group_3212" data-name="Group 3212" transform="translate(34.47 14.737)">
          <text id="Back" transform="translate(19.06 18)" fill="#102646" font-size="18" font-family="ArialMT, Arial"><tspan x="0" y="0">Back</tspan></text>
          <path id="Icon_ionic-ios-arrow-back-4" data-name="Icon ionic-ios-arrow-back" d="M14.033,14.264l6.109-6.1a1.154,1.154,0,0,0-1.634-1.629l-6.921,6.916a1.152,1.152,0,0,0-.034,1.591L18.5,22a1.154,1.154,0,1,0,1.634-1.629Z" transform="translate(-11.251 -3.193)" fill="#102646"/>
        </g>
      </g>
    </g>
  </g>
</svg>
