<svg xmlns="http://www.w3.org/2000/svg" xmlns:xlink="http://www.w3.org/1999/xlink" width="412" height="846" viewBox="0 0 412 846">
  <defs>
    <linearGradient id="linear-gradient" x1="0.5" x2="0.5" y2="1" gradientUnits="objectBoundingBox">
      <stop offset="0" stop-color="#37aadd"/>
      <stop offset="1" stop-color="#1f64cc"/>
    </linearGradient>
    <filter id="Rectangle_1570" x="-24" y="341" width="460" height="526" filterUnits="userSpaceOnUse">
      <feOffset dy="-3" input="SourceAlpha"/>
      <feGaussianBlur stdDeviation="8" result="blur"/>
      <feFlood flood-opacity="0.039"/>
      <feComposite operator="in" in2="blur"/>
      <feComposite in="SourceGraphic"/>
    </filter>
    <clipPath id="clip-path">
      <rect width="356" height="242" fill="none"/>
    </clipPath>
    <clipPath id="clip-path-2">
      <rect width="369.5" height="12.698" fill="none"/>
    </clipPath>
    <clipPath id="clip-OCD_rating_1">
      <rect width="412" height="846"/>
    </clipPath>
  </defs>
  <g id="OCD_rating_1" data-name="OCD rating – 1" clip-path="url(#clip-OCD_rating_1)">
    <rect width="412" height="846" fill="url(#linear-gradient)"/>
    <g transform="matrix(1, 0, 0, 1, 0, 0)" filter="url(#Rectangle_1570)">
      <path id="Rectangle_1570-2" data-name="Rectangle 1570" d="M30,0H382a30,30,0,0,1,30,30V478a0,0,0,0,1,0,0H0a0,0,0,0,1,0,0V30A30,30,0,0,1,30,0Z" transform="translate(0 368)" fill="#102646"/>
    </g>
    <text id="Rate_your_disappearance_distress_SUDS_" data-name="Rate your disappearance distress (SUDS)" transform="translate(30 49)" fill="#fff" font-size="18" font-family="Arial-BoldMT, Arial" font-weight="700"><tspan x="0" y="0">Rate your disappearance distress (SUDS)</tspan></text>
    <g id="Repeat_Grid_18" data-name="Repeat Grid 18" transform="translate(28 93.302)" clip-path="url(#clip-path)">
      <g transform="translate(-31 -132)">
        <path id="Rectangle_1848" data-name="Rectangle 1848" d="M5.5,0h0A5.5,5.5,0,0,1,11,5.5V242a0,0,0,0,1,0,0H0a0,0,0,0,1,0,0V5.5A5.5,5.5,0,0,1,5.5,0Z" transform="translate(45 132)" fill="#2e5b9f" opacity="0.5"/>
      </g>
      <g transform="translate(33 -132)">
        <path id="Rectangle_1848-2" data-name="Rectangle 1848" d="M5.5,0h0A5.5,5.5,0,0,1,11,5.5V242a0,0,0,0,1,0,0H0a0,0,0,0,1,0,0V5.5A5.5,5.5,0,0,1,5.5,0Z" transform="translate(45 132)" fill="#2e5b9f" opacity="0.5"/>
      </g>
      <g transform="translate(97 -132)">
        <path id="Rectangle_1848-3" data-name="Rectangle 1848" d="M5.5,0h0A5.5,5.5,0,0,1,11,5.5V242a0,0,0,0,1,0,0H0a0,0,0,0,1,0,0V5.5A5.5,5.5,0,0,1,5.5,0Z" transform="translate(45 132)" fill="#2e5b9f" opacity="0.5"/>
      </g>
      <g transform="translate(161 -132)">
        <path id="Rectangle_1848-4" data-name="Rectangle 1848" d="M5.5,0h0A5.5,5.5,0,0,1,11,5.5V242a0,0,0,0,1,0,0H0a0,0,0,0,1,0,0V5.5A5.5,5.5,0,0,1,5.5,0Z" transform="translate(45 132)" fill="#2e5b9f" opacity="0.5"/>
      </g>
      <g transform="translate(225 -132)">
        <path id="Rectangle_1848-5" data-name="Rectangle 1848" d="M5.5,0h0A5.5,5.5,0,0,1,11,5.5V242a0,0,0,0,1,0,0H0a0,0,0,0,1,0,0V5.5A5.5,5.5,0,0,1,5.5,0Z" transform="translate(45 132)" fill="#2e5b9f" opacity="0.5"/>
      </g>
      <g transform="translate(289 -132)">
        <path id="Rectangle_1848-6" data-name="Rectangle 1848" d="M5.5,0h0A5.5,5.5,0,0,1,11,5.5V242a0,0,0,0,1,0,0H0a0,0,0,0,1,0,0V5.5A5.5,5.5,0,0,1,5.5,0Z" transform="translate(45 132)" fill="#2e5b9f" opacity="0.5"/>
      </g>
    </g>
    <path id="Path_6725" data-name="Path 6725" d="M-20026,14996h368.617" transform="translate(20047 -14660.698)" fill="none" stroke="#fff" stroke-width="2"/>
    <g id="Repeat_Grid_19" data-name="Repeat Grid 19" transform="translate(21.5 325.302)" clip-path="url(#clip-path-2)">
      <g transform="translate(-49.5 -374)">
        <path id="Path_6726" data-name="Path 6726" d="M-19997,14996v7.649" transform="translate(20047 -14622)" fill="none" stroke="#fff" stroke-width="1"/>
      </g>
      <g transform="translate(-28.5 -374)">
        <path id="Path_6726-2" data-name="Path 6726" d="M-19997,14996v7.649" transform="translate(20047 -14622)" fill="none" stroke="#fff" stroke-width="1"/>
      </g>
      <g transform="translate(-7.5 -374)">
        <path id="Path_6726-3" data-name="Path 6726" d="M-19997,14996v7.649" transform="translate(20047 -14622)" fill="none" stroke="#fff" stroke-width="1"/>
      </g>
      <g transform="translate(13.5 -374)">
        <path id="Path_6726-4" data-name="Path 6726" d="M-19997,14996v7.649" transform="translate(20047 -14622)" fill="none" stroke="#fff" stroke-width="1"/>
      </g>
      <g transform="translate(34.5 -374)">
        <path id="Path_6726-5" data-name="Path 6726" d="M-19997,14996v7.649" transform="translate(20047 -14622)" fill="none" stroke="#fff" stroke-width="1"/>
      </g>
      <g transform="translate(55.5 -374)">
        <path id="Path_6726-6" data-name="Path 6726" d="M-19997,14996v7.649" transform="translate(20047 -14622)" fill="none" stroke="#fff" stroke-width="1"/>
      </g>
      <g transform="translate(76.5 -374)">
        <path id="Path_6726-7" data-name="Path 6726" d="M-19997,14996v7.649" transform="translate(20047 -14622)" fill="none" stroke="#fff" stroke-width="1"/>
      </g>
      <g transform="translate(97.5 -374)">
        <path id="Path_6726-8" data-name="Path 6726" d="M-19997,14996v7.649" transform="translate(20047 -14622)" fill="none" stroke="#fff" stroke-width="1"/>
      </g>
      <g transform="translate(118.5 -374)">
        <path id="Path_6726-9" data-name="Path 6726" d="M-19997,14996v7.649" transform="translate(20047 -14622)" fill="none" stroke="#fff" stroke-width="1"/>
      </g>
      <g transform="translate(139.5 -374)">
        <path id="Path_6726-10" data-name="Path 6726" d="M-19997,14996v7.649" transform="translate(20047 -14622)" fill="none" stroke="#fff" stroke-width="1"/>
      </g>
      <g transform="translate(160.5 -374)">
        <path id="Path_6726-11" data-name="Path 6726" d="M-19997,14996v7.649" transform="translate(20047 -14622)" fill="none" stroke="#fff" stroke-width="1"/>
      </g>
      <g transform="translate(181.5 -374)">
        <path id="Path_6726-12" data-name="Path 6726" d="M-19997,14996v7.649" transform="translate(20047 -14622)" fill="none" stroke="#fff" stroke-width="1"/>
      </g>
      <g transform="translate(202.5 -374)">
        <path id="Path_6726-13" data-name="Path 6726" d="M-19997,14996v7.649" transform="translate(20047 -14622)" fill="none" stroke="#fff" stroke-width="1"/>
      </g>
      <g transform="translate(223.5 -374)">
        <path id="Path_6726-14" data-name="Path 6726" d="M-19997,14996v7.649" transform="translate(20047 -14622)" fill="none" stroke="#fff" stroke-width="1"/>
      </g>
      <g transform="translate(244.5 -374)">
        <path id="Path_6726-15" data-name="Path 6726" d="M-19997,14996v7.649" transform="translate(20047 -14622)" fill="none" stroke="#fff" stroke-width="1"/>
      </g>
      <g transform="translate(265.5 -374)">
        <path id="Path_6726-16" data-name="Path 6726" d="M-19997,14996v7.649" transform="translate(20047 -14622)" fill="none" stroke="#fff" stroke-width="1"/>
      </g>
      <g transform="translate(286.5 -374)">
        <path id="Path_6726-17" data-name="Path 6726" d="M-19997,14996v7.649" transform="translate(20047 -14622)" fill="none" stroke="#fff" stroke-width="1"/>
      </g>
      <g transform="translate(307.5 -374)">
        <path id="Path_6726-18" data-name="Path 6726" d="M-19997,14996v7.649" transform="translate(20047 -14622)" fill="none" stroke="#fff" stroke-width="1"/>
      </g>
    </g>
    <g id="Group_3907" data-name="Group 3907" transform="translate(262.499 43)">
      <g id="Rectangle_1849" data-name="Rectangle 1849" transform="translate(31 171)" fill="#1e64cc" stroke="#d2dff2" stroke-width="1">
        <rect width="59" height="35" rx="6" stroke="none"/>
        <rect x="0.5" y="0.5" width="58" height="34" rx="5.5" fill="none"/>
      </g>
      <text id="_02" data-name="02" transform="translate(59 194)" fill="#fff" font-size="15" font-family="Arial-BoldMT, Arial" font-weight="700" letter-spacing="0.015em"><tspan x="-8.455" y="0">02</tspan></text>
    </g>
    <path id="Path_9515" data-name="Path 9515" d="M-4815-15781s57.1,1.794,92.977,38.686,48.189-5.391,88.868,8.162,73.849,46.05,73.849,46.05" transform="translate(4863 15964)" fill="none" stroke="#ff9241" stroke-linecap="round" stroke-width="4"/>
    <path id="Rectangle_2147" data-name="Rectangle 2147" d="M5.5,0h0A5.5,5.5,0,0,1,11,5.5V59.555a0,0,0,0,1,0,0H0a0,0,0,0,1,0,0V5.5A5.5,5.5,0,0,1,5.5,0Z" transform="translate(298.499 274.445)" fill="#102646"/>
    <g id="Ellipse_759" data-name="Ellipse 759" transform="translate(293.499 264.445)" fill="#fff" stroke="#1e64c9" stroke-width="6">
      <circle cx="11" cy="11" r="11" stroke="none"/>
      <circle cx="11" cy="11" r="8" fill="none"/>
    </g>
    <g id="Group_3393" data-name="Group 3393" transform="translate(6.499 -42.698)">
      <g id="Rectangle_1849-2" data-name="Rectangle 1849" transform="translate(31 171)" fill="#1e64cc" stroke="#d2dff2" stroke-width="1">
        <rect width="59" height="35" rx="6" stroke="none"/>
        <rect x="0.5" y="0.5" width="58" height="34" rx="5.5" fill="none"/>
      </g>
      <text id="_08" data-name="08" transform="translate(59 194)" fill="#fff" font-size="15" font-family="Arial-BoldMT, Arial" font-weight="700" letter-spacing="0.015em"><tspan x="-8.455" y="0">08</tspan></text>
    </g>
    <path id="Rectangle_1850" data-name="Rectangle 1850" d="M5.5,0h0A5.5,5.5,0,0,1,11,5.5V151a0,0,0,0,1,0,0H0a0,0,0,0,1,0,0V5.5A5.5,5.5,0,0,1,5.5,0Z" transform="translate(42.499 183.302)" fill="#102646"/>
    <g id="Ellipse_641" data-name="Ellipse 641" transform="translate(37.499 173.302)" fill="#fff" stroke="#1e64c9" stroke-width="6">
      <circle cx="11" cy="11" r="11" stroke="none"/>
      <circle cx="11" cy="11" r="8" fill="none"/>
    </g>
    <text id="View_Details" data-name="View Details" transform="translate(153 624)" fill="#d2dff2" font-size="18" font-family="ArialMT, Arial" text-decoration="underline"><tspan x="4.145" y="16">View Details</tspan></text>
    <g id="Group_3906" data-name="Group 3906" transform="translate(21 406)">
      <rect id="Rectangle_1842" data-name="Rectangle 1842" width="370" height="55" rx="6" fill="#edf4fd"/>
      <text id="Time" transform="translate(9 34)" fill="#2e5b9f" font-size="16" font-family="ArialMT, Arial"><tspan x="0" y="0">Time</tspan></text>
      <text id="_00_:_00" data-name="00 : 00" transform="translate(99 34)" fill="#2e5b9f" font-size="16" font-family="ArialMT, Arial" opacity="0.5"><tspan x="0" y="0">00 : 00</tspan></text>
      <path id="Path_6714" data-name="Path 6714" d="M0,0H19.817" transform="translate(72.065 17.5) rotate(90)" fill="none" stroke="#8eb1e5" stroke-width="1"/>
    </g>
    <g id="Group_3088" data-name="Group 3088" transform="translate(21 474.517)">
      <rect id="Rectangle_1716" data-name="Rectangle 1716" width="370" height="98" rx="10" transform="translate(0 0.483)" fill="#edf4fd"/>
      <text id="Rating" transform="translate(9 31.483)" fill="#2e5b9f" font-size="15" font-family="SegoeUI-Bold, Segoe UI" font-weight="700"><tspan x="0" y="0">Rating</tspan></text>
      <text id="_03" data-name="03" transform="translate(339 63.483)" fill="#2e5b9f" font-size="15" font-family="SegoeUI-Bold, Segoe UI" font-weight="700"><tspan x="-17.256" y="0">03</tspan></text>
      <text id="Severity" transform="translate(355 82.483)" fill="#2e5b9f" font-size="14" font-family="SegoeUI, Segoe UI"><tspan x="-48.563" y="0">Severity</tspan></text>
      <g id="Group_3102" data-name="Group 3102" transform="translate(14 63.483)">
        <rect id="Rectangle_1708" data-name="Rectangle 1708" width="262" height="5" rx="2.5" fill="#8eb1e5"/>
      </g>
      <circle id="Ellipse_571" data-name="Ellipse 571" cx="11" cy="11" r="11" transform="translate(62 54.483)" fill="#1e64cc"/>
    </g>
    <g id="Component_119_367" data-name="Component 119 – 367" transform="translate(0 779.278)">
      <rect id="Rectangle_1927" data-name="Rectangle 1927" width="412" height="67" transform="translate(0 0.722)" fill="#102646"/>
      <path id="Path_4714" data-name="Path 4714" d="M1053,4508.186h411.151" transform="translate(-1053 -4508.186)" fill="none" stroke="#fff" stroke-width="2" opacity="0.206"/>
      <g id="Group_3096" data-name="Group 3096" transform="translate(-3 -997.186)">
        <text id="Next" transform="translate(318 1038)" fill="#f2f5f7" font-size="18" font-family="ArialMT, Arial"><tspan x="0" y="0">Next</tspan></text>
        <path id="Icon_ionic-ios-arrow-back" data-name="Icon ionic-ios-arrow-back" d="M14.033,14.264l6.109-6.1a1.154,1.154,0,0,0-1.634-1.629l-6.921,6.916a1.152,1.152,0,0,0-.034,1.591L18.5,22a1.154,1.154,0,1,0,1.634-1.629Z" transform="translate(389.251 1046.266) rotate(180)" fill="#f2f5f7"/>
      </g>
      <g id="Group_3224" data-name="Group 3224" transform="translate(2.529 7.076)">
        <g id="Group_3212" data-name="Group 3212" transform="translate(34.47 14.737)">
          <text id="Back" transform="translate(19.06 18)" fill="#fff" font-size="18" font-family="ArialMT, Arial"><tspan x="0" y="0">Back</tspan></text>
          <path id="Icon_ionic-ios-arrow-back-2" data-name="Icon ionic-ios-arrow-back" d="M14.033,14.264l6.109-6.1a1.154,1.154,0,0,0-1.634-1.629l-6.921,6.916a1.152,1.152,0,0,0-.034,1.591L18.5,22a1.154,1.154,0,1,0,1.634-1.629Z" transform="translate(-11.251 -3.193)" fill="#fff"/>
        </g>
      </g>
    </g>
  </g>
</svg>
