<svg xmlns="http://www.w3.org/2000/svg" xmlns:xlink="http://www.w3.org/1999/xlink" width="412" height="1244" viewBox="0 0 412 1244">
  <defs>
    <filter id="Rectangle_1570" x="-24" y="84" width="460" height="1181" filterUnits="userSpaceOnUse">
      <feOffset dy="-3" input="SourceAlpha"/>
      <feGaussianBlur stdDeviation="8" result="blur"/>
      <feFlood flood-opacity="0.039"/>
      <feComposite operator="in" in2="blur"/>
      <feComposite in="SourceGraphic"/>
    </filter>
    <filter id="Path_7" x="-5" y="978.5" width="423.572" height="96.064" filterUnits="userSpaceOnUse">
      <feOffset dy="3" input="SourceAlpha"/>
      <feGaussianBlur stdDeviation="8" result="blur-2"/>
      <feFlood flood-opacity="0.078"/>
      <feComposite operator="in" in2="blur-2"/>
      <feComposite in="SourceGraphic"/>
    </filter>
    <clipPath id="clip-OCD_mapping">
      <rect width="412" height="1244"/>
    </clipPath>
  </defs>
  <g id="OCD_mapping" data-name="OCD mapping" clip-path="url(#clip-OCD_mapping)">
    <rect width="412" height="1244" fill="#f2f5f7"/>
    <g transform="matrix(1, 0, 0, 1, 0, 0)" filter="url(#Rectangle_1570)">
      <path id="Rectangle_1570-2" data-name="Rectangle 1570" d="M30,0H382a30,30,0,0,1,30,30V1133a0,0,0,0,1,0,0H0a0,0,0,0,1,0,0V30A30,30,0,0,1,30,0Z" transform="translate(0 111)" fill="#102646"/>
    </g>
    <path id="Path_4710" data-name="Path 4710" d="M1053,4508.186h333.151" transform="translate(-1015 -4282)" fill="none" stroke="#fff" stroke-width="1"/>
    <path id="Path_6407" data-name="Path 6407" d="M1053,4508.186h333.151" transform="translate(-1014.5 -4084)" fill="none" stroke="#fff" stroke-width="1"/>
    <path id="Path_6408" data-name="Path 6408" d="M1053,4508.186h333.151" transform="translate(-1014.5 -3964.5)" fill="none" stroke="#fff" stroke-width="1"/>
    <path id="Path_6409" data-name="Path 6409" d="M1053,4508.186h333.151" transform="translate(-1014.5 -3845)" fill="none" stroke="#fff" stroke-width="1"/>
    <path id="Path_6410" data-name="Path 6410" d="M1053,4508.186h333.151" transform="translate(-1014.5 -3725.5)" fill="none" stroke="#fff" stroke-width="1"/>
    <path id="Path_6411" data-name="Path 6411" d="M1053,4508.186h333.151" transform="translate(-1014.5 -3606)" fill="none" stroke="#fff" stroke-width="1"/>
    <path id="Path_4714" data-name="Path 4714" d="M1053,4508.186h411.151" transform="translate(-1053 -3555)" fill="none" stroke="#fff" stroke-width="2" opacity="0.206"/>
    <text id="Place" transform="translate(38 153)" fill="#fff" font-size="18" font-family="Arial-BoldMT, Arial" font-weight="700"><tspan x="0" y="16">Place</tspan></text>
    <text id="Trigger" transform="translate(38 351)" fill="#fff" font-size="18" font-family="Arial-BoldMT, Arial" font-weight="700"><tspan x="0" y="16">Trigger</tspan></text>
    <text id="Behaviour" transform="translate(38 470.5)" fill="#fff" font-size="18" font-family="Arial-BoldMT, Arial" font-weight="700"><tspan x="0" y="16">Behaviour</tspan></text>
    <text id="Consequence" transform="translate(38 590)" fill="#fff" font-size="18" font-family="Arial-BoldMT, Arial" font-weight="700"><tspan x="0" y="16">Consequence</tspan></text>
    <text id="Helpful_thought_at_that_time" data-name="Helpful thought at that time" transform="translate(38 709.5)" fill="#fff" font-size="18" font-family="Arial-BoldMT, Arial" font-weight="700"><tspan x="0" y="16">Helpful thought at that time</tspan></text>
    <text id="Classify_faulty_belief" data-name="Classify faulty belief" transform="translate(38 829)" fill="#fff" font-size="18" font-family="Arial-BoldMT, Arial" font-weight="700"><tspan x="0" y="16">Classify faulty belief</tspan></text>
    <text id="Enter_Place_Name" data-name="Enter Place Name" transform="translate(38 195)" fill="#fff" font-size="16" font-family="ArialMT, Arial" opacity="0.5"><tspan x="0" y="14">Enter Place Name</tspan></text>
    <text id="Enter_situation_which_triggers_you" data-name="Enter situation which triggers you" transform="translate(38 393)" fill="#fff" font-size="16" font-family="ArialMT, Arial" opacity="0.5"><tspan x="0" y="14">Enter situation which triggers you</tspan></text>
    <text id="Enter_Place_Name-2" data-name="Enter Place Name" transform="translate(38 512.5)" fill="#fff" font-size="16" font-family="ArialMT, Arial" opacity="0.5"><tspan x="0" y="14">Enter Place Name</tspan></text>
    <text id="Enter_Place_Name-3" data-name="Enter Place Name" transform="translate(38 632)" fill="#fff" font-size="16" font-family="ArialMT, Arial" opacity="0.5"><tspan x="0" y="14">Enter Place Name</tspan></text>
    <text id="Enter_Place_Name-4" data-name="Enter Place Name" transform="translate(38 751.5)" fill="#fff" font-size="16" font-family="ArialMT, Arial" opacity="0.5"><tspan x="0" y="14">Enter Place Name</tspan></text>
    <text id="Enter_Place_Name-5" data-name="Enter Place Name" transform="translate(38 871)" fill="#fff" font-size="16" font-family="ArialMT, Arial" opacity="0.5"><tspan x="0" y="14">Enter Place Name</tspan></text>
    <text id="OCD_Mapping-2" data-name="OCD Mapping" transform="translate(23 39)" fill="#1e63cb" font-size="24" font-family="Arial-BoldMT, Arial" font-weight="700"><tspan x="0" y="22">OCD Mapping</tspan></text>
    <g id="Group_3145" data-name="Group 3145" transform="translate(248.202 257.559)">
      <circle id="Ellipse_608" data-name="Ellipse 608" cx="24.5" cy="24.5" r="24.5" transform="translate(-0.202 -15.559)" fill="#fff"/>
      <text id="School" transform="translate(-0.202 44.441)" fill="#fff" font-size="14" font-family="ArialMT, Arial"><tspan x="3.097" y="13">School</tspan></text>
      <path id="Icon_awesome-school" data-name="Icon awesome-school" d="M0,6.983v8.48a.5.5,0,0,0,.5.5H2.993V5.986H1A1,1,0,0,0,0,6.983Zm11.223-1.5h-.748V4.24a.249.249,0,0,0-.249-.249h-.5a.249.249,0,0,0-.249.249v2a.249.249,0,0,0,.249.249h1.5a.249.249,0,0,0,.249-.249v-.5A.249.249,0,0,0,11.223,5.487Zm4.294-1.994L10.529.167a1,1,0,0,0-1.107,0L4.435,3.493a1,1,0,0,0-.444.83V15.962h3.99V11.472a.5.5,0,0,1,.5-.5h2.993a.5.5,0,0,1,.5.5v4.489h3.99V4.323A1,1,0,0,0,15.517,3.493ZM9.976,7.981A2.494,2.494,0,1,1,12.47,5.487,2.494,2.494,0,0,1,9.976,7.981Zm8.978-2h-2v9.976h2.494a.5.5,0,0,0,.5-.5V6.983A1,1,0,0,0,18.954,5.986Z" transform="translate(14.924 0)" fill="#fec429"/>
    </g>
    <g id="Group_3147" data-name="Group 3147" transform="translate(322.151 257.559)">
      <circle id="Ellipse_609" data-name="Ellipse 609" cx="24.5" cy="24.5" r="24.5" transform="translate(-0.151 -15.559)" fill="#fff"/>
      <text id="Park" transform="translate(-0.151 44.441)" fill="#fff" font-size="14" font-family="ArialMT, Arial"><tspan x="10.107" y="13">Park</tspan></text>
      <path id="naturepeople_baseline" d="M19.5,8.981a5.726,5.726,0,1,0-6.683,5.636v3.223H6.272V15.385H7.09V12.114a.82.82,0,0,0-.818-.818H3.818A.82.82,0,0,0,3,12.114v3.272h.818v4.09H16.905V17.839H14.452V14.666A5.726,5.726,0,0,0,19.5,8.981Zm-14.453,1.5A1.227,1.227,0,1,0,3.818,9.251,1.225,1.225,0,0,0,5.045,10.478Z" transform="translate(13.251 -3.255)" fill="#5359fb"/>
    </g>
    <g id="Group_3146" data-name="Group 3146" transform="translate(36 256.559)">
      <circle id="Ellipse_611" data-name="Ellipse 611" cx="24.5" cy="24.5" r="24.5" transform="translate(-3 -14.559)" fill="#fff"/>
      <text id="Home" transform="translate(0 45.441)" fill="#fff" font-size="14" font-family="ArialMT, Arial"><tspan x="2.828" y="13">Home</tspan></text>
      <path id="home_baseline" d="M11.188,21.9V15.759h4.094V21.9H20.4V13.712h3.071L13.235,4.5,3,13.712H6.071V21.9Z" transform="translate(8 -4.5)" fill="#3f72fc"/>
    </g>
    <g id="Group_3144" data-name="Group 3144" transform="translate(180.47 256.559)">
      <circle id="Ellipse_612" data-name="Ellipse 612" cx="24.5" cy="24.5" r="24.5" transform="translate(-3.471 -14.559)" fill="#fff"/>
      <text id="Office" transform="translate(-0.471 45.441)" fill="#fff" font-size="14" font-family="ArialMT, Arial"><tspan x="3.344" y="13">Office</tspan></text>
      <path id="work_baseline" d="M19.048,6.566H15.482V4.783A1.777,1.777,0,0,0,13.7,3H10.133A1.777,1.777,0,0,0,8.349,4.783V6.566H4.783A1.769,1.769,0,0,0,3.009,8.349L3,18.157A1.777,1.777,0,0,0,4.783,19.94H19.048a1.777,1.777,0,0,0,1.783-1.783V8.349A1.777,1.777,0,0,0,19.048,6.566Zm-5.349,0H10.133V4.783H13.7Z" transform="translate(10.246 -3)" fill="#fd8418"/>
    </g>
    <g id="Group_3143" data-name="Group 3143" transform="translate(103.588 256.559)">
      <circle id="Ellipse_610" data-name="Ellipse 610" cx="24.5" cy="24.5" r="24.5" transform="translate(2.413 -14.559)" fill="#fff"/>
      <text id="College" transform="translate(0.413 45.441)" fill="#fff" font-size="14" font-family="ArialMT, Arial"><tspan x="2.762" y="13">College</tspan></text>
      <path id="Icon_awesome-university" data-name="Icon awesome-university" d="M20.473,6.12v.645a.322.322,0,0,1-.322.322h-.967v.484a.484.484,0,0,1-.484.484H2.9a.484.484,0,0,1-.484-.484V7.087H1.447a.322.322,0,0,1-.322-.322V6.12a.322.322,0,0,1,.2-.3l9.352-3.547a.322.322,0,0,1,.247,0l9.352,3.547A.322.322,0,0,1,20.473,6.12Zm-.967,12.254H2.092a.967.967,0,0,0-.967.967v.645a.322.322,0,0,0,.322.322h18.7a.322.322,0,0,0,.322-.322v-.645A.967.967,0,0,0,19.506,18.374ZM4.35,8.7v7.739H2.9a.484.484,0,0,0-.484.484v.806H19.183v-.806a.484.484,0,0,0-.484-.484H17.249V8.7h-2.58v7.739h-2.58V8.7H9.509v7.739H6.929V8.7Z" transform="translate(15.791 -2.25)" fill="#12ba9d"/>
    </g>
    <g id="CTA" transform="translate(19 999.5)">
      <g transform="matrix(1, 0, 0, 1, -19, -999.5)" filter="url(#Path_7)">
        <path id="Path_7-2" data-name="Path 7" d="M9,5h357.58a8.969,8.969,0,0,1,9,8.942v30.18a8.969,8.969,0,0,1-9,8.942H9a8.969,8.969,0,0,1-9-8.942V13.942A8.969,8.969,0,0,1,9,5Z" transform="translate(19 994.5)" fill="#ff9241"/>
      </g>
      <text id="Save" transform="translate(108 12.563)" fill="#fff" font-size="16" font-family="ArialMT, Arial"><tspan x="61.266" y="14">Save</tspan></text>
    </g>
    <g id="Group_2775" data-name="Group 2775" transform="translate(19 997.002)">
      <text id="Close" transform="translate(119 79.563)" fill="#fff" font-size="16" font-family="Lato-Regular, Lato"><tspan x="60.044" y="16">Close</tspan></text>
      <path id="Icon_ionic-md-close" data-name="Icon ionic-md-close" d="M17.518,8.523l-1-1-4,4-4-4-1,1,4,4-4,4,1,1,4-4,4,4,1-1-4-4Z" transform="translate(151.956 77.956)" fill="#fff"/>
    </g>
  </g>
</svg>
