<svg xmlns="http://www.w3.org/2000/svg" xmlns:xlink="http://www.w3.org/1999/xlink" width="412" height="847" viewBox="0 0 412 847">
  <defs>
    <clipPath id="clip-OCD_session_4_7">
      <rect width="412" height="847"/>
    </clipPath>
  </defs>
  <g id="OCD_session_4_7" data-name="OCD session 4 – 7" clip-path="url(#clip-OCD_session_4_7)">
    <rect width="412" height="847" fill="#f5f8fb"/>
    <g id="Group_3103" data-name="Group 3103" transform="translate(-4 55)">
      <g id="Group_1500" data-name="Group 1500" transform="translate(71 65)">
        <text id="OBQ-44_Questionnaire" data-name="OBQ-44 Questionnaire" fill="#1e64cc" font-size="24" font-family="Arial-BoldMT, Arial" font-weight="700"><tspan x="0" y="22">OBQ-44 Questionnaire</tspan></text>
      </g>
      <g id="Group_3103-2" data-name="Group 3103" transform="translate(25 59)">
        <g id="Group_3157" data-name="Group 3157">
          <rect id="Rectangle_1722" data-name="Rectangle 1722" width="371" height="501" rx="16" fill="#e9eef3"/>
          <text id="Know_how_it_works" data-name="Know how it works" transform="translate(127 34)" fill="#1e64cc" font-size="16" font-family="ArialMT, Arial"><tspan x="0" y="14">Know how it works</tspan></text>
          <text id="Review_psycho-education_about_OCD_and_the_theory_behind_exposure_as_much_as_is_needed_as_it_will_help_you_to_understand_the_rationale_for_feeling_uncomfortable_in_the_short_term_for_long-term_benefit._" data-name="Review psycho-education about OCD and the theory behind exposure as much as is needed as it will help you to understand the rationale for feeling uncomfortable in the short term for long-term benefit. " transform="translate(10 363)" fill="#254069" font-size="12" font-family="ArialMT, Arial"><tspan x="15.735" y="11">Review psycho-education about OCD and the theory behind </tspan><tspan x="5.399" y="36">exposure as much as is needed as it will help you to understand </tspan><tspan x="6.076" y="61">the rationale for feeling uncomfortable in the short term for long-</tspan><tspan x="142.151" y="86">term benefit. </tspan></text>
        </g>
        <g id="Group_3138" data-name="Group 3138" transform="translate(64.479 24)">
          <circle id="Ellipse_585" data-name="Ellipse 585" cx="22.5" cy="22.5" r="22.5" fill="#d2dff2"/>
          <g id="Group_3138-2" data-name="Group 3138" transform="translate(15.505 15.427)">
            <g id="Group_1765" data-name="Group 1765" transform="translate(0 0)">
              <path id="Path_2393" data-name="Path 2393" d="M308.621,222.712l-24.782-10.871a.267.267,0,0,0-.336.335l10.871,24.782a.267.267,0,0,0,.478.066l3.791-7.3,9.131,9.131a.268.268,0,0,0,.378,0l2.365-2.365a.267.267,0,0,0,0-.377l-9.132-9.131,7.3-3.791A.267.267,0,0,0,308.621,222.712Z" transform="translate(-271.605 -200.907)" fill="#ff7600"/>
              <g id="Group_1764" data-name="Group 1764">
                <g id="Group_1755" data-name="Group 1755" transform="translate(3.43 2.783)">
                  <g id="Group_1754" data-name="Group 1754">
                    <path id="Path_2394" data-name="Path 2394" d="M275.757,205.163a1.239,1.239,0,0,1-1.749-.1l-3.852-4.31A1.239,1.239,0,0,1,272,199.1l3.853,4.311A1.239,1.239,0,0,1,275.757,205.163Z" transform="translate(-269.84 -198.69)" fill="#86c1fd"/>
                  </g>
                </g>
                <g id="Group_1757" data-name="Group 1757" transform="translate(9.365)">
                  <g id="Group_1756" data-name="Group 1756">
                    <path id="Path_2395" data-name="Path 2395" d="M282.336,202.079a1.239,1.239,0,0,1-2.05-.743l-.85-5.718a1.239,1.239,0,1,1,2.45-.365l.85,5.718A1.236,1.236,0,0,1,282.336,202.079Z" transform="translate(-279.422 -194.197)" fill="#86c1fd"/>
                  </g>
                </g>
                <g id="Group_1759" data-name="Group 1759" transform="translate(0 8.369)">
                  <g id="Group_1758" data-name="Group 1758">
                    <path id="Path_2396" data-name="Path 2396" d="M271.954,211.356a1.238,1.238,0,0,1-1.145.274l-5.587-1.485a1.239,1.239,0,0,1,.637-2.394l5.587,1.485a1.238,1.238,0,0,1,.508,2.12Z" transform="translate(-264.302 -207.709)" fill="#86c1fd"/>
                  </g>
                </g>
                <g id="Group_1761" data-name="Group 1761" transform="translate(0.129 12.98)">
                  <g id="Group_1760" data-name="Group 1760">
                    <path id="Path_2397" data-name="Path 2397" d="M272.1,217.317a1.244,1.244,0,0,1-.458.258l-5.521,1.713a1.239,1.239,0,1,1-.735-2.366l5.521-1.713a1.239,1.239,0,0,1,1.192,2.108Z" transform="translate(-264.511 -215.153)" fill="#86c1fd"/>
                  </g>
                </g>
                <g id="Group_1763" data-name="Group 1763" transform="translate(13.245 0.777)">
                  <g id="Group_1762" data-name="Group 1762">
                    <path id="Path_2398" data-name="Path 2398" d="M287.752,202.938a1.239,1.239,0,0,1-1.968-1.405l2.25-5.325a1.239,1.239,0,1,1,2.282.964l-2.25,5.325A1.235,1.235,0,0,1,287.752,202.938Z" transform="translate(-285.686 -195.451)" fill="#86c1fd"/>
                  </g>
                </g>
              </g>
            </g>
          </g>
        </g>
      </g>
    </g>
    <g id="Group_3192" data-name="Group 3192" transform="translate(1 8)">
      <path id="Path_5920" data-name="Path 5920" d="M9465.524,14761.509c6.567-31.59,16.01-89.273,76.558-71.347s40.628,29.124,97.831,21.63,86.675,95.53,35.142,93.989-30.141,11.445-69.951,14.13-54.4,11.21-89.292-3.391S9458.957,14793.1,9465.524,14761.509Z" transform="translate(-9383 -14435.288)" fill="#d2dff2" opacity="0.6"/>
      <circle id="Ellipse_599" data-name="Ellipse 599" cx="2.5" cy="2.5" r="2.5" transform="translate(113 253)" fill="#1e64cc"/>
      <circle id="Ellipse_600" data-name="Ellipse 600" cx="4.5" cy="4.5" r="4.5" transform="translate(83 355)" fill="#1e64cc"/>
      <circle id="Ellipse_601" data-name="Ellipse 601" cx="7.5" cy="7.5" r="7.5" transform="translate(309 313)" fill="#fe7614"/>
    </g>
    <g id="Group_1193" data-name="Group 1193" transform="translate(3.371 -149.643)">
      <g id="Ellipse_12" data-name="Ellipse 12" transform="translate(177.629 798.642)" fill="none" stroke="#0e58c7" stroke-width="1">
        <circle cx="4" cy="4" r="4" stroke="none"/>
        <circle cx="4" cy="4" r="3.5" fill="none"/>
      </g>
      <g id="Ellipse_13" data-name="Ellipse 13" transform="translate(191.629 798.642)" fill="none" stroke="#0e58c7" stroke-width="1">
        <circle cx="4" cy="4" r="4" stroke="none"/>
        <circle cx="4" cy="4" r="3.5" fill="none"/>
      </g>
      <g id="Ellipse_91" data-name="Ellipse 91" transform="translate(206.629 798.642)" fill="none" stroke="#0e58c7" stroke-width="1">
        <circle cx="4" cy="4" r="4" stroke="none"/>
        <circle cx="4" cy="4" r="3.5" fill="none"/>
      </g>
      <g id="Ellipse_92" data-name="Ellipse 92" transform="translate(220.629 798.642)" fill="#0e58c7" stroke="#0e58c7" stroke-width="1">
        <circle cx="4" cy="4" r="4" stroke="none"/>
        <circle cx="4" cy="4" r="3.5" fill="none"/>
      </g>
    </g>
    <g id="Book_lover-pana" data-name="Book lover-pana" transform="translate(70.859 161.529)">
      <g id="freepik--Floor--inject-12" transform="translate(38.3 251.51)">
        <path id="Path_6253" data-name="Path 6253" d="M231.983,477.321c0,.065-43.361.121-96.834.121s-96.848-.056-96.848-.121,43.351-.121,96.848-.121S231.983,477.251,231.983,477.321Z" transform="translate(-38.3 -477.2)" fill="#263238"/>
      </g>
      <g id="freepik--big-books--inject-12" transform="translate(78.063 164.947)">
        <rect id="Rectangle_1747" data-name="Rectangle 1747" width="20.403" height="24.256" transform="translate(97.063 1.578)" fill="#f5f5f5"/>
        <rect id="Rectangle_1748" data-name="Rectangle 1748" width="92.208" height="27.365" transform="translate(5.557 0)" fill="#254069"/>
        <path id="Path_6254" data-name="Path 6254" d="M351.274,293.5h-22.8v-2.3h22.8a1.145,1.145,0,0,1,1.15,1.15h0A1.15,1.15,0,0,1,351.274,293.5Z" transform="translate(-233.19 -291.2)" fill="#b0bec5"/>
        <path id="Path_6255" data-name="Path 6255" d="M351.274,347.359h-22.8v-2.3h22.8a1.15,1.15,0,0,1,1.15,1.15h0a1.145,1.145,0,0,1-1.15,1.15Z" transform="translate(-233.19 -319.994)" fill="#b0bec5"/>
        <g id="Group_3199" data-name="Group 3199" transform="translate(79.624 0)" opacity="0.4">
          <rect id="Rectangle_1749" data-name="Rectangle 1749" width="10.895" height="27.365"/>
        </g>
        <g id="Group_3200" data-name="Group 3200" transform="translate(13.738 0)" opacity="0.4">
          <rect id="Rectangle_1750" data-name="Rectangle 1750" width="10.895" height="27.365"/>
        </g>
        <path id="Path_6256" data-name="Path 6256" d="M353.483,303.1c0,.065-4.417.121-9.862.121s-9.862-.056-9.862-.121,4.417-.1,9.885-.1S353.483,303.033,353.483,303.1Z" transform="translate(-236.018 -297.508)" fill="#e0e0e0"/>
        <path id="Path_6257" data-name="Path 6257" d="M353.483,310.861c0,.07-4.417.121-9.862.121s-9.862-.051-9.862-.121,4.417-.121,9.862-.121S353.483,310.81,353.483,310.861Z" transform="translate(-236.018 -301.646)" fill="#e0e0e0"/>
        <path id="Path_6258" data-name="Path 6258" d="M353.483,320.511c0,.07-4.417.126-9.862.126s-9.862-.056-9.862-.126,4.417-.121,9.862-.121S353.483,320.446,353.483,320.511Z" transform="translate(-236.018 -306.805)" fill="#e0e0e0"/>
        <path id="Path_6259" data-name="Path 6259" d="M353.483,330.13c0,.065-4.417.121-9.862.121s-9.862-.056-9.862-.121,4.417-.13,9.885-.13S353.483,330.061,353.483,330.13Z" transform="translate(-236.018 -311.943)" fill="#e0e0e0"/>
        <path id="Path_6260" data-name="Path 6260" d="M353.483,339.761c0,.07-4.417.121-9.862.121s-9.862-.051-9.862-.121,4.417-.121,9.862-.121S353.483,339.7,353.483,339.761Z" transform="translate(-236.018 -317.096)" fill="#e0e0e0"/>
        <g id="Group_3201" data-name="Group 3201" transform="translate(32.28 11.244)" opacity="0.2">
          <rect id="Rectangle_1751" data-name="Rectangle 1751" width="41.485" height="4.929"/>
        </g>
        <rect id="Rectangle_1752" data-name="Rectangle 1752" width="20.715" height="14.781" transform="translate(96.541 27.9)" fill="#fafafa"/>
        <rect id="Rectangle_1753" data-name="Rectangle 1753" width="88.164" height="15.851" transform="translate(8.61 27.361)" fill="#1e64cc"/>
        <path id="Path_6261" data-name="Path 6261" d="M330.3,351.065h22.269a.535.535,0,0,0,.535-.535h0a.535.535,0,0,0-.535-.54H330.3Z" transform="translate(-234.168 -322.63)" fill="#455a64"/>
        <path id="Path_6262" data-name="Path 6262" d="M330.3,381.75h22.269a.535.535,0,0,1,.535.535h0a.535.535,0,0,1-.535.535H330.3Z" transform="translate(-234.168 -339.609)" fill="#455a64"/>
        <path id="Path_6263" data-name="Path 6263" d="M352.177,357.041c0,.065-4.589.121-10.239.121s-10.239-.056-10.239-.121,4.584-.121,10.239-.121S352.177,356.957,352.177,357.041Z" transform="translate(-234.917 -326.334)" fill="#e0e0e0"/>
        <path id="Path_6264" data-name="Path 6264" d="M352.177,363.051c0,.065-4.589.121-10.239.121s-10.239-.056-10.239-.121,4.584-.121,10.239-.121S352.177,362.963,352.177,363.051Z" transform="translate(-234.917 -329.547)" fill="#e0e0e0"/>
        <path id="Path_6265" data-name="Path 6265" d="M352.177,369.051c0,.07-4.589.121-10.239.121s-10.239-.051-10.239-.121,4.584-.121,10.239-.121S352.177,368.986,352.177,369.051Z" transform="translate(-234.917 -332.755)" fill="#e0e0e0"/>
        <path id="Path_6266" data-name="Path 6266" d="M352.177,375.061c0,.07-4.589.121-10.239.121s-10.239-.051-10.239-.121,4.584-.121,10.239-.121S352.177,375,352.177,375.061Z" transform="translate(-234.917 -335.968)" fill="#e0e0e0"/>
        <rect id="Rectangle_1754" data-name="Rectangle 1754" width="60.799" height="4.137" transform="translate(22.353 33.038)" fill="#263238"/>
        <rect id="Rectangle_1755" data-name="Rectangle 1755" width="21.147" height="40.066" transform="translate(99.255 44.622)" fill="#ebebeb"/>
        <rect id="Rectangle_1756" data-name="Rectangle 1756" width="99.255" height="43.44" transform="translate(0 43.216)" fill="#b0bec5"/>
        <path id="Path_6267" data-name="Path 6267" d="M356.693,474.192H331.18V471.4h25.513a1.4,1.4,0,0,1,1.4,1.4h0A1.4,1.4,0,0,1,356.693,474.192Z" transform="translate(-234.639 -387.536)" fill="#b0bec5"/>
        <path id="Path_6268" data-name="Path 6268" d="M331.18,384.033h25.513a1.4,1.4,0,0,1,1.4,1.4h0a1.4,1.4,0,0,1-1.4,1.4H331.18v-2.792Z" transform="translate(-234.639 -340.817)" fill="#b0bec5"/>
        <g id="Group_3202" data-name="Group 3202" transform="translate(57.029 43.216)" opacity="0.4">
          <path id="Path_6269" data-name="Path 6269" d="M267.158,384.06,246.28,427.5h17.638l19.793-43.44Z" transform="translate(-246.28 -384.06)" fill="#fff"/>
        </g>
        <g id="Group_3203" data-name="Group 3203" transform="translate(24.098 43.216)" opacity="0.4">
          <path id="Path_6270" data-name="Path 6270" d="M196.4,384.06,175.52,427.5h17.634l19.8-43.44Z" transform="translate(-175.52 -384.06)" fill="#fff"/>
        </g>
        <path id="Path_6271" data-name="Path 6271" d="M358.158,398.481c0,.07-4.733.121-10.574.121s-10.574-.051-10.574-.121,4.733-.121,10.574-.121S358.158,398.416,358.158,398.481Z" transform="translate(-237.755 -348.488)" fill="#e0e0e0"/>
        <path id="Path_6272" data-name="Path 6272" d="M358.158,409.521c0,.07-4.733.121-10.574.121s-10.574-.051-10.574-.121,4.733-.121,10.574-.121S358.158,409.456,358.158,409.521Z" transform="translate(-237.755 -354.39)" fill="#e0e0e0"/>
        <path id="Path_6273" data-name="Path 6273" d="M358.158,420.571c0,.065-4.733.121-10.574.121s-10.574-.056-10.574-.121,4.733-.121,10.574-.121S358.158,420.5,358.158,420.571Z" transform="translate(-237.755 -360.298)" fill="#e0e0e0"/>
        <path id="Path_6274" data-name="Path 6274" d="M358.158,431.611c0,.065-4.733.121-10.574.121s-10.574-.056-10.574-.121,4.733-.121,10.574-.121S358.158,431.541,358.158,431.611Z" transform="translate(-237.755 -366.2)" fill="#e0e0e0"/>
        <path id="Path_6275" data-name="Path 6275" d="M358.158,442.651c0,.065-4.733.121-10.574.121s-10.574-.056-10.574-.121,4.733-.121,10.574-.121S358.158,442.586,358.158,442.651Z" transform="translate(-237.755 -372.102)" fill="#e0e0e0"/>
        <path id="Path_6276" data-name="Path 6276" d="M358.152,453.691c0,.065-4.733.121-10.574.121S337,453.77,337,453.691s4.733-.121,10.574-.121S358.152,453.626,358.152,453.691Z" transform="translate(-237.75 -378.004)" fill="#e0e0e0"/>
        <path id="Path_6277" data-name="Path 6277" d="M358.152,464.731c0,.07-4.733.121-10.574.121S337,464.792,337,464.731s4.733-.121,10.574-.121S358.152,464.666,358.152,464.731Z" transform="translate(-237.75 -383.906)" fill="#e0e0e0"/>
      </g>
      <g id="freepik--Character--inject-12" transform="translate(106.178 67.424)">
        <path id="Path_6278" data-name="Path 6278" d="M339.949,121.128l-6.478-10.4a.368.368,0,0,0-.624,0l-6.357,10.993Z" transform="translate(-260.246 -97.105)" fill="#b0bec5"/>
        <g id="Group_3204" data-name="Group 3204" transform="translate(66.244 13.453)" opacity="0.3">
          <path id="Path_6279" data-name="Path 6279" d="M339.949,121.128l-6.478-10.4a.368.368,0,0,0-.624,0l-6.357,10.993Z" transform="translate(-326.49 -110.559)"/>
        </g>
        <path id="Path_6280" data-name="Path 6280" d="M335.315,111.99l6.055,9.862-1.54-.242-9.89-1.559,3.686-7.753Z" transform="translate(-262.09 -97.87)" fill="#ebebeb"/>
        <path id="Path_6281" data-name="Path 6281" d="M320.9,139.524l5.831-9.485-15.1-2.792a1.187,1.187,0,0,0-1.243.568l-8.517,14.427a.74.74,0,0,0,.507,1.1l14.195,2.518Z" transform="translate(-247.031 -106.016)" fill="#254069"/>
        <path id="Path_6282" data-name="Path 6282" d="M329.868,113.27l8.382,9.075-12.17-2.28Z" transform="translate(-260.027 -98.555)" fill="#ebebeb"/>
        <path id="Path_6283" data-name="Path 6283" d="M326.08,119.733a.5.5,0,0,1,.056-.135l.186-.368.745-1.4c.67-1.215,1.6-2.913,2.713-4.947l.07-.126.1.107,5.464,5.892,2.923,3.174-.182.144c-1.908-2.7-3.565-5.045-4.761-6.734l-1.364-1.973-.354-.531a1.174,1.174,0,0,1-.116-.191,1.632,1.632,0,0,1,.149.168l.386.512,1.419,1.927,4.831,6.688-.182.149-2.927-3.165-5.44-5.92h.168c-1.145,2.015-2.1,3.723-2.792,4.905l-.8,1.368-.214.354C326.113,119.7,326.085,119.738,326.08,119.733Z" transform="translate(-260.027 -98.223)" fill="#263238"/>
        <g id="Group_3205" data-name="Group 3205" transform="translate(61.139 25.457)" opacity="0.3">
          <path id="Path_6284" data-name="Path 6284" d="M320.6,136.35c-.13.2-5.082,8.447-5.082,8.447l8.07,1.508,5.357-8.559Z" transform="translate(-315.52 -136.35)" fill="#fff"/>
        </g>
        <path id="Path_6285" data-name="Path 6285" d="M189.665,431.8l4.435-5.794.233-.3,7.558,5.622-6.981,7.688.256,7.781c3.9,1.01,4.482,2.955,4.482,2.955h-8.1l-7.4-14.185Z" transform="translate(-184.15 -265.587)" fill="#455a64"/>
        <path id="Path_6286" data-name="Path 6286" d="M184.15,446l7.377,14.176h8.1a3.346,3.346,0,0,0-.931-1.219l-6.59-.344-6.79-13.4Z" transform="translate(-184.15 -276.012)" fill="#ebebeb"/>
        <path id="Path_6287" data-name="Path 6287" d="M204.977,462.771c-.061.084-.526-.182-1.154-.168s-1.084.279-1.15.2.382-.544,1.145-.549S205.051,462.706,204.977,462.771Z" transform="translate(-194.049 -285.122)" fill="#263238"/>
        <path id="Path_6288" data-name="Path 6288" d="M204.689,458.153c-.079.056-.442-.419-1.089-.549s-1.159.172-1.215.088.07-.172.293-.3a1.508,1.508,0,0,1,1-.14,1.536,1.536,0,0,1,.861.512C204.693,457.972,204.73,458.13,204.689,458.153Z" transform="translate(-193.891 -282.435)" fill="#263238"/>
        <path id="Path_6289" data-name="Path 6289" d="M205.114,452.7c-.088.047-.363-.424-.931-.619s-1.07,0-1.112-.1.084-.154.307-.237a1.4,1.4,0,0,1,.931,0,1.419,1.419,0,0,1,.721.577C205.146,452.529,205.156,452.683,205.114,452.7Z" transform="translate(-194.261 -279.459)" fill="#263238"/>
        <path id="Path_6290" data-name="Path 6290" d="M210.018,448.256c-.1.033-.321-.428-.824-.754s-1.01-.377-1.015-.465.6-.233,1.21.177S210.116,448.242,210.018,448.256Z" transform="translate(-196.997 -276.936)" fill="#263238"/>
        <path id="Path_6291" data-name="Path 6291" d="M212.349,442.482c-.042.028-.312-.3-.707-.847l-.684-.973a2.462,2.462,0,0,1-.377-.656.661.661,0,0,1,.051-.493.5.5,0,0,1,.489-.256,1.461,1.461,0,0,1,.754.4,2.537,2.537,0,0,1,.493.563,2.732,2.732,0,0,1,.424,1.168,1.517,1.517,0,0,1-.181,1.108,9.7,9.7,0,0,0-.065-1.066,2.625,2.625,0,0,0-.894-1.508,1.3,1.3,0,0,0-.558-.3.14.14,0,0,0-.154.07.349.349,0,0,0,0,.233,2.691,2.691,0,0,0,.316.563c.209.344.414.684.619,1.015A3.722,3.722,0,0,1,212.349,442.482Z" transform="translate(-198.266 -272.828)" fill="#263238"/>
        <path id="Path_6292" data-name="Path 6292" d="M214.92,444.9c-.037,0,0-.428.433-.931a2.029,2.029,0,0,1,2.4-.428.372.372,0,0,1,.126.289.465.465,0,0,1-.1.256,1.4,1.4,0,0,1-.293.256,3.721,3.721,0,0,1-.572.326,3.4,3.4,0,0,1-1.066.3,1.68,1.68,0,0,1-1-.093,8.734,8.734,0,0,1,.959-.158,3.872,3.872,0,0,0,.968-.344,3.77,3.77,0,0,0,.512-.312,1.245,1.245,0,0,0,.209-.182c.037-.074.028-.051,0-.074a.648.648,0,0,0-.233-.088,2.265,2.265,0,0,0-.3-.047,2.136,2.136,0,0,0-.577.042,2.015,2.015,0,0,0-.875.442C215.106,444.567,214.985,444.921,214.92,444.9Z" transform="translate(-200.562 -275.002)" fill="#263238"/>
        <path id="Path_6293" data-name="Path 6293" d="M195.787,445.273a.963.963,0,1,1-.963-.963A.963.963,0,0,1,195.787,445.273Z" transform="translate(-189.341 -275.531)" fill="#ebebeb"/>
        <g id="Group_3206" data-name="Group 3206" transform="translate(8.917 160.56)" opacity="0.3">
          <path id="Path_6294" data-name="Path 6294" d="M211.408,432.607l-1.554,1.708-6.543-6.478.912-1.187Z" transform="translate(-203.31 -426.65)"/>
        </g>
        <path id="Path_6295" data-name="Path 6295" d="M252.375,444.574l-.828,9.852s9.736,3.323,9.773,5.157l-19.16-.088.661-15.4Z" transform="translate(-215.163 -275.413)" fill="#455a64"/>
        <path id="Path_6296" data-name="Path 6296" d="M249,463.881a.782.782,0,0,0-.582.87.754.754,0,0,0,.852.586.828.828,0,0,0,.614-.931.782.782,0,0,0-.959-.512" transform="translate(-218.505 -285.985)" fill="#ebebeb"/>
        <path id="Path_6297" data-name="Path 6297" d="M242.13,475.426l.065-1.536,18.15.433s.963.773.954,1.191Z" transform="translate(-215.146 -291.344)" fill="#ebebeb"/>
        <path id="Path_6298" data-name="Path 6298" d="M260.961,466.008c0,.093-.465.116-.931.4s-.74.656-.824.619.079-.577.661-.9S260.989,465.924,260.961,466.008Z" transform="translate(-224.265 -287.078)" fill="#263238"/>
        <path id="Path_6299" data-name="Path 6299" d="M265.716,468.069c0,.088-.4.228-.735.61s-.465.8-.54.786-.13-.54.3-1.005S265.716,467.976,265.716,468.069Z" transform="translate(-227.046 -288.208)" fill="#263238"/>
        <path id="Path_6300" data-name="Path 6300" d="M269.327,471.584c-.088,0-.2-.465.07-.959s.712-.684.749-.605-.247.344-.465.759S269.42,471.579,269.327,471.584Z" transform="translate(-229.634 -289.266)" fill="#263238"/>
        <path id="Path_6301" data-name="Path 6301" d="M260.574,460.812c-.042.084-.465-.065-1-.056s-.931.158-1,.074.368-.4.991-.4S260.635,460.742,260.574,460.812Z" transform="translate(-223.939 -284.148)" fill="#263238"/>
        <path id="Path_6302" data-name="Path 6302" d="M259.878,455.091a1.862,1.862,0,0,1-.959-.051,4.434,4.434,0,0,1-.987-.358,4.114,4.114,0,0,1-.54-.321,1.224,1.224,0,0,1-.279-.237.41.41,0,0,1,0-.5.512.512,0,0,1,.423-.2,1.261,1.261,0,0,1,.354.065,3.759,3.759,0,0,1,.586.233,3.512,3.512,0,0,1,.861.624c.424.433.558.791.526.81s-.247-.275-.684-.638a3.956,3.956,0,0,0-.833-.526,3.687,3.687,0,0,0-.54-.2c-.2-.061-.377-.07-.433,0s-.023.051,0,.112a1.014,1.014,0,0,0,.2.172,4.872,4.872,0,0,0,.493.316,5.226,5.226,0,0,0,.931.4,5.829,5.829,0,0,1,.875.289Z" transform="translate(-223.111 -280.406)" fill="#263238"/>
        <path id="Path_6303" data-name="Path 6303" d="M262.639,453.791a1.517,1.517,0,0,1-.209-.931,3.151,3.151,0,0,1,.181-1.043,3.534,3.534,0,0,1,.27-.572.824.824,0,0,1,.638-.465.465.465,0,0,1,.386.288,1.275,1.275,0,0,1,.084.358,2.131,2.131,0,0,1-.033.647,2.159,2.159,0,0,1-.465.968c-.4.465-.8.572-.8.54a3.931,3.931,0,0,0,.614-.675,2.238,2.238,0,0,0,.349-.889,2,2,0,0,0,0-.554c-.023-.2-.088-.372-.168-.358a.653.653,0,0,0-.349.3,2.937,2.937,0,0,0-.265.507,3.559,3.559,0,0,0-.233.931C262.607,453.423,262.7,453.782,262.639,453.791Z" transform="translate(-225.999 -278.99)" fill="#263238"/>
        <path id="Path_6304" data-name="Path 6304" d="M330.027,151.55a2.374,2.374,0,0,0-.065-1.689c-.791-1.862-2.653-6.05-3.328-5.934-.6.107-1.033,1.243-.354,2.495l-2.192-1.862a.633.633,0,0,0-1.038.577,3.376,3.376,0,0,0,.27.814,9.262,9.262,0,0,0,2.569,2.792l-3.816.023s-.712,1,.6,1.666a2.672,2.672,0,0,0,.931.261l1.973.2s-3.565,3.942-3.686,4.31a8.058,8.058,0,0,0-.316,1.815l-6.841,7.609,1.829,11.57L328.92,154.79Z" transform="translate(-253.959 -114.943)" fill="#b78876"/>
        <path id="Path_6305" data-name="Path 6305" d="M341.386,155.23c-.033.023-.158-.158-.428-.363a2.872,2.872,0,0,0-1.205-.5,6.786,6.786,0,0,0-1.345-.074,1.578,1.578,0,0,1-.577-.033c0-.033.209-.088.563-.14a4.55,4.55,0,0,1,1.4,0,2.48,2.48,0,0,1,1.275.61C341.334,155,341.409,155.221,341.386,155.23Z" transform="translate(-266.308 -120.364)" fill="#aa6550"/>
        <path id="Path_6306" data-name="Path 6306" d="M342.216,151.327a7.287,7.287,0,0,1-1.55-1.066,7.172,7.172,0,0,1-1.4-1.261,7.609,7.609,0,0,1,1.554,1.07A7.473,7.473,0,0,1,342.216,151.327Z" transform="translate(-267.078 -117.656)" fill="#aa6550"/>
        <path id="Path_6307" data-name="Path 6307" d="M230.759,260.514c.1,0,.465,22.8.614,33.076a17.853,17.853,0,0,1-2.411,9.219L206.694,341.93,193.9,331.286l20.687-34.96-7.609-36.85,15.079-12.966Z" transform="translate(-189.362 -169.786)" fill="#263238"/>
        <path id="Path_6308" data-name="Path 6308" d="M265.343,265.986c-.065,1.312-12.1,85.884-12.1,85.884l-14.893-1.061,5.464-85.349Z" transform="translate(-213.126 -179.916)" fill="#263238"/>
        <path id="Path_6309" data-name="Path 6309" d="M243.8,279.34a1.315,1.315,0,0,0,.028.223c.028.144.037.372.065.652.047.586.121,1.429.209,2.513.172,2.192.424,5.343.726,9.233s.633,8.549,1.015,13.706q.126,1.941.261,3.965c.037.675.1,1.364.074,2.057a15.261,15.261,0,0,1-.2,2.1,15.758,15.758,0,0,1-1.294,4.114c-.307.665-.675,1.3-1.033,1.945l-1.084,1.941-14.93,26.681c-1.917,3.4-3.472,6.153-4.547,8.07-.54.931-.959,1.68-1.252,2.187l-.326.568-.121.186s.028-.07.1-.2l.307-.577,1.21-2.211,4.482-8.107c3.807-6.846,9.061-16.289,14.869-26.714.363-.652.721-1.3,1.084-1.945s.726-1.275,1.024-1.927a15.717,15.717,0,0,0,1.28-4.054,14.719,14.719,0,0,0,.2-2.062c.028-.684-.033-1.364-.065-2.038q-.13-2.024-.256-3.96c-.363-5.161-.689-9.806-.959-13.711s-.5-7.046-.652-9.243c-.07-1.08-.126-1.927-.168-2.513,0-.279-.028-.5-.037-.656A2,2,0,0,1,243.8,279.34Z" transform="translate(-204.059 -187.337)" fill="#455a64"/>
        <path id="Path_6310" data-name="Path 6310" d="M242.705,358.688a.862.862,0,0,1-.3-.051,4,4,0,0,1-.782-.289,5.882,5.882,0,0,1-3.188-4.263,4.15,4.15,0,0,1-.056-.833c0-.2,0-.3.037-.3s.042.433.186,1.1a6.376,6.376,0,0,0,3.1,4.142C242.3,358.525,242.715,358.646,242.705,358.688Z" transform="translate(-213.139 -226.689)" fill="#455a64"/>
        <path id="Path_6311" data-name="Path 6311" d="M244.355,355.763a2.859,2.859,0,0,1-1.084,0,6.642,6.642,0,0,1-2.471-.856,6.734,6.734,0,0,1-1.955-1.736,2.918,2.918,0,0,1-.535-.931c.037,0,.247.335.67.838a7.535,7.535,0,0,0,4.319,2.532A9.282,9.282,0,0,1,244.355,355.763Z" transform="translate(-213.104 -226.309)" fill="#455a64"/>
        <path id="Path_6312" data-name="Path 6312" d="M228.739,274.376a1,1,0,0,0,.358.247,1.345,1.345,0,0,0,1.136-.079A10.258,10.258,0,0,0,231.7,273.5c.535-.428,1.1-.931,1.68-1.457a29.179,29.179,0,0,0,2.732-2.983c.642-.81,1.01-1.34,1.038-1.317a1.578,1.578,0,0,1-.214.4c-.149.247-.382.6-.689,1.024a22.7,22.7,0,0,1-2.7,3.053c-.582.545-1.163,1.033-1.708,1.457A9.153,9.153,0,0,1,230.3,274.7a1.4,1.4,0,0,1-1.247,0C228.785,274.539,228.73,274.376,228.739,274.376Z" transform="translate(-207.987 -181.134)" fill="#455a64"/>
        <path id="Path_6313" data-name="Path 6313" d="M238.06,280.49a6.354,6.354,0,0,1-.591,1.312,9.07,9.07,0,0,1-2.141,2.741,5.24,5.24,0,0,1-3.258,1.238,3.42,3.42,0,0,1-1.052-.149.991.991,0,0,1-.358-.158,6.809,6.809,0,0,0,1.4.135,5.385,5.385,0,0,0,3.09-1.252,10.136,10.136,0,0,0,2.145-2.639A12.819,12.819,0,0,1,238.06,280.49Z" transform="translate(-209.015 -187.952)" fill="#455a64"/>
        <path id="Path_6314" data-name="Path 6314" d="M255.02,199.895s-11.5,5.366-15.619,3.518-6.823-6.111-9.806-5.119-7.535,1.862-9.1,6.111a3.723,3.723,0,0,1-.991-2.676,9.58,9.58,0,0,1,1.4-3.9l-1.862-19.2.079-32.289s3.2-4.77,11.872-4.486l11.975,1.722s6.111,1.862,7.814,4.975,1,25.355,1,25.355,3.788,21.576,3.788,23.27a6.482,6.482,0,0,1-.535,2.732" transform="translate(-202.802 -113.825)" fill="#b0bec5"/>
        <path id="Path_6315" data-name="Path 6315" d="M292.422,170.906l-4.938,4.4-6.115-19.049-5.119,11.472,2.066,18.616a7.139,7.139,0,0,0,5.408,6.148h0a7.148,7.148,0,0,0,6.418-1.6l5.212-4.458a2.792,2.792,0,0,0,.954-2.583l-1.941-12.249a1.173,1.173,0,0,0-1.945-.7Z" transform="translate(-233.387 -121.537)" fill="#b0bec5"/>
        <path id="Path_6316" data-name="Path 6316" d="M216.4,173.875c0,.424-2.294,21.217-2.294,21.217l9.722,21.031a18.644,18.644,0,0,1-4.761,5.543s-2.485-2.271-2.629-7.107c0,0-11.048-12.98-12.184-16.391s1.992-26.709,1.992-26.709Z" transform="translate(-194.765 -129.663)" fill="#b78876"/>
        <path id="Path_6317" data-name="Path 6317" d="M274.2,184.43a1.679,1.679,0,0,1-.2.424c-.144.265-.358.642-.628,1.108a18.01,18.01,0,0,1-1,1.61,2.942,2.942,0,0,1-.833.787,2.541,2.541,0,0,1-1.191.349,3.62,3.62,0,0,1-2.229-.707,5.924,5.924,0,0,1-1.317-1.4,10.923,10.923,0,0,1-.675-1.084,1.774,1.774,0,0,1-.2-.419c.037-.023.377.549,1.015,1.4a6.3,6.3,0,0,0,1.308,1.3,3.49,3.49,0,0,0,2.094.647,2.261,2.261,0,0,0,1.075-.312,2.82,2.82,0,0,0,.782-.717c.419-.554.731-1.122,1.029-1.568s.526-.814.693-1.061A1.789,1.789,0,0,1,274.2,184.43Z" transform="translate(-227.87 -136.597)" fill="#263238"/>
        <path id="Path_6318" data-name="Path 6318" d="M297.989,208.4a1.777,1.777,0,0,1-.186-.419,10.091,10.091,0,0,1-.368-1.205,14.3,14.3,0,0,1,.414-8.21,10.889,10.889,0,0,1,.489-1.159,1.765,1.765,0,0,1,.228-.4c.042,0-.237.61-.554,1.615a16.318,16.318,0,0,0-.731,4.03,16.512,16.512,0,0,0,.316,4.086C297.817,207.77,298.031,208.389,297.989,208.4Z" transform="translate(-244.492 -143.323)" fill="#263238"/>
        <path id="Path_6319" data-name="Path 6319" d="M302.294,204.591a4.438,4.438,0,0,1-.6-1,14.064,14.064,0,0,1-1.447-5.417,4.477,4.477,0,0,1,0-1.163,7.188,7.188,0,0,1,.149,1.15,19.2,19.2,0,0,0,.512,2.737,19.827,19.827,0,0,0,.931,2.625A7.622,7.622,0,0,1,302.294,204.591Z" transform="translate(-246.196 -143.323)" fill="#263238"/>
        <path id="Path_6320" data-name="Path 6320" d="M273.272,190.6a1.538,1.538,0,0,1,.107.2,5.7,5.7,0,0,1,.233.624,6.8,6.8,0,0,1,.307,2.42,5.408,5.408,0,0,1-1.364,3.328,4.654,4.654,0,0,1-1.773,1.243,4.119,4.119,0,0,1-2.327.2,3.807,3.807,0,0,1-2.043-1.108,4.3,4.3,0,0,1-.982-1.927,11.921,11.921,0,0,1-.279-1.917c-.047-.6-.093-1.159-.135-1.675-.07-.991-.126-1.81-.172-2.42,0-.265-.023-.465-.033-.661a.846.846,0,0,1,0-.233,1.047,1.047,0,0,1,.042.228c0,.177.051.4.079.656.065.61.149,1.424.251,2.415.051.517.1,1.075.163,1.671a12.253,12.253,0,0,0,.293,1.862,4.091,4.091,0,0,0,.931,1.82,3.6,3.6,0,0,0,1.917,1.033,3.919,3.919,0,0,0,2.178-.182,4.472,4.472,0,0,0,1.689-1.168,5.31,5.31,0,0,0,1.359-3.193,7.111,7.111,0,0,0-.223-2.383A6.75,6.75,0,0,0,273.272,190.6Z" transform="translate(-227.267 -138.864)" fill="#263238"/>
        <g id="Group_3207" data-name="Group 3207" transform="translate(19.303 46.623)" opacity="0.2">
          <path id="Path_6321" data-name="Path 6321" d="M228.784,207.375a17.685,17.685,0,0,1,1.108-4.421c.67-1.764,1.545-3.514,1.573-5.4a12.356,12.356,0,0,0-.624-3.5l-3.393-12.226q-.2,4.738-.386,9.485a4.026,4.026,0,0,0,.354,2.253c.5.819,1.531,1.177,2.1,1.945a2.285,2.285,0,0,1,.312,2.1c-.251.693-.875.87-1.587,1.043a9.04,9.04,0,0,1-.987.2c-.465.074-1.191-.033-1.4.41a2.175,2.175,0,0,0,.275,2.29c1.08,2.4,2.667,5.822,2.667,5.822" transform="translate(-225.627 -181.83)"/>
        </g>
        <path id="Path_6322" data-name="Path 6322" d="M210.393,148s-10,5.054-11.4,32.084a2.876,2.876,0,0,0,3.4,2.979c4.109-.782,10.336-1.992,10.294-2.159-.056-.247,2.327-23.786,2.327-23.786Z" transform="translate(-192.084 -117.122)" fill="#b0bec5"/>
        <path id="Path_6323" data-name="Path 6323" d="M222.115,166.69v1.4c0,.9-.074,2.2-.182,3.807s-.27,3.514-.493,5.627c-.116,1.056-.242,2.164-.368,3.314-.07.577-.14,1.159-.214,1.755s-.251,1.2-.344,1.782a2.355,2.355,0,0,0,0,.866,1.624,1.624,0,0,0,.4.726c.382.419.931.638,1.4,1.061a2.793,2.793,0,0,1,.763,1.573,2.936,2.936,0,0,1,0,.856,1.145,1.145,0,0,1-1.126,1.108l-.754.144-1.433.284-2.541.512-3.723.777-.586.116-.233.047h-.037v-.056h.14a1.723,1.723,0,0,1,.358-.056,1.885,1.885,0,0,1-.344.1h-.144v-.056h.028l.233-.056.582-.14,3.723-.852,2.569-.558,1.433-.3.754-.154a1.154,1.154,0,0,0,.61-.214,1.731,1.731,0,0,0,.256-1.452,2.573,2.573,0,0,0-.7-1.438c-.4-.382-.968-.605-1.4-1.07a1.861,1.861,0,0,1-.465-.838,2.532,2.532,0,0,1,0-.954c.1-.624.293-1.187.344-1.778s.144-1.177.214-1.75c.135-1.145.261-2.253.386-3.309.233-2.113.414-4.016.54-5.617s.209-2.9.261-3.8l.056-1.033A1.713,1.713,0,0,1,222.115,166.69Z" transform="translate(-199.381 -127.113)" fill="#263238"/>
        <path id="Path_6324" data-name="Path 6324" d="M216.8,202.3a1.024,1.024,0,0,1-.061.321,1.94,1.94,0,0,1-.121.363,3.9,3.9,0,0,1-.214.465,5.086,5.086,0,0,1-.763,1.089,6.256,6.256,0,0,1-1.252,1.033,6.151,6.151,0,0,1-1.489.652,5.119,5.119,0,0,1-1.312.186,3.521,3.521,0,0,1-.512,0,2.323,2.323,0,0,1-.377-.056,1.075,1.075,0,0,1-.316-.093c0-.047.465.047,1.2,0a5.866,5.866,0,0,0,1.257-.228,6.846,6.846,0,0,0,1.429-.642,6.734,6.734,0,0,0,1.215-.982,5.706,5.706,0,0,0,.777-1.019C216.63,202.732,216.751,202.286,216.8,202.3Z" transform="translate(-198.173 -146.15)" fill="#263238"/>
        <g id="Group_3208" data-name="Group 3208" transform="translate(29.162 77.84)" opacity="0.2">
          <path id="Path_6325" data-name="Path 6325" d="M247.071,251.333a23.917,23.917,0,0,0,15.716,2.606,7.7,7.7,0,0,0,2.555-.74,3.072,3.072,0,0,0,1.6-2.029A1.941,1.941,0,0,0,265.8,249a3.471,3.471,0,0,0-2.56.582,23.27,23.27,0,0,1-16.428,1.657" transform="translate(-246.81 -248.907)"/>
        </g>
        <path id="Path_6326" data-name="Path 6326" d="M266.425,253.621a1.09,1.09,0,0,1-.2.154c-.14.093-.335.247-.614.4a13.127,13.127,0,0,1-2.439,1.145,19.24,19.24,0,0,1-8.791.777,39.388,39.388,0,0,1-8.559-2.3c-1.061-.4-1.913-.74-2.5-.982l-.675-.284a1.238,1.238,0,0,1-.228-.116,1.425,1.425,0,0,1,.247.07l.689.242,2.527.908a42.265,42.265,0,0,0,8.531,2.22,19.728,19.728,0,0,0,8.7-.7,14.892,14.892,0,0,0,2.448-1.066C266.118,253.8,266.425,253.621,266.425,253.621Z" transform="translate(-215.301 -172.945)" fill="#263238"/>
        <g id="Group_3209" data-name="Group 3209" transform="translate(48.529 48.428)" opacity="0.2">
          <path id="Path_6327" data-name="Path 6327" d="M290.755,208.319c1.4-1.4,1.4-3.914,1.117-5.873s-1.038-3.839-1.3-5.808c-.251-1.862-.07-3.765-.154-5.65a8.6,8.6,0,0,0-1.713-5.278,61.591,61.591,0,0,0,2.052,22.609" transform="translate(-288.425 -185.71)"/>
        </g>
        <g id="Group_3210" data-name="Group 3210" transform="translate(37.41 50.588)" opacity="0.2">
          <path id="Path_6328" data-name="Path 6328" d="M264.751,190.35c-.214,1.238,0,2.536-.107,3.8a16.487,16.487,0,0,0,0,3.8,5.584,5.584,0,0,0,1.661,3.351,3.43,3.43,0,0,0,3.537.717,3.193,3.193,0,0,0,1.787-3.137,5.2,5.2,0,0,1-2.709.512,3.812,3.812,0,0,1-2.453-1.182,6.12,6.12,0,0,1-1.364-3.774c-.088-1.359-.256-2.75-.368-4.091" transform="translate(-264.534 -190.35)"/>
        </g>
        <path id="Path_6329" data-name="Path 6329" d="M217.859,179.423a1.931,1.931,0,0,1-.5.112c-.326.051-.8.121-1.4.191a17.387,17.387,0,0,1-4.617,0,8.638,8.638,0,0,1-4.23-1.82,5.786,5.786,0,0,1-.968-1.024,1.861,1.861,0,0,1-.265-.442,10.505,10.505,0,0,0,1.34,1.336,9.07,9.07,0,0,0,4.161,1.713,19.892,19.892,0,0,0,4.561.056l1.4-.112a2.248,2.248,0,0,1,.521-.009Z" transform="translate(-195.767 -132.326)" fill="#fafafa"/>
        <path id="Path_6330" data-name="Path 6330" d="M215.925,187.438a2.277,2.277,0,0,1-.493.177,5.422,5.422,0,0,1-.6.154c-.233.047-.5.112-.8.149a12.937,12.937,0,0,1-2.118.14,14.674,14.674,0,0,1-2.583-.3,14.426,14.426,0,0,1-2.476-.8,12.714,12.714,0,0,1-1.862-1c-.256-.154-.465-.326-.666-.465a4.891,4.891,0,0,1-.465-.386,2.142,2.142,0,0,1-.377-.363c.033-.037.591.465,1.615,1.07a14.351,14.351,0,0,0,6.841,2.006,14.284,14.284,0,0,0,2.085-.088C215.2,187.605,215.911,187.391,215.925,187.438Z" transform="translate(-194.489 -136.766)" fill="#fafafa"/>
        <path id="Path_6331" data-name="Path 6331" d="M246.874,188.79c0,.065-3.379.033-7.539-.074s-7.539-.247-7.535-.316,3.374-.033,7.539.074S246.874,188.72,246.874,188.79Z" transform="translate(-209.624 -138.7)" fill="#fafafa"/>
        <path id="Path_6332" data-name="Path 6332" d="M246.513,197.35a3.123,3.123,0,0,1-.619.2c-.4.112-.987.247-1.722.391a32.418,32.418,0,0,1-5.794.582,32.832,32.832,0,0,1-5.808-.465c-.735-.13-1.326-.251-1.727-.358a3.188,3.188,0,0,1-.624-.182,3.9,3.9,0,0,1,.642.088c.4.079,1,.177,1.736.279a37.53,37.53,0,0,0,11.546-.121c.731-.121,1.322-.233,1.731-.316A3.787,3.787,0,0,1,246.513,197.35Z" transform="translate(-208.779 -143.504)" fill="#fafafa"/>
        <path id="Path_6333" data-name="Path 6333" d="M274.345,195.87a1.038,1.038,0,0,1-.154.344,2.918,2.918,0,0,1-.684.777,4.519,4.519,0,0,1-3.235.88,8.172,8.172,0,0,1-3.174-1.131,5.957,5.957,0,0,1-1.159-.777,10.855,10.855,0,0,1,1.238.628,9.112,9.112,0,0,0,3.123,1.042,4.556,4.556,0,0,0,3.114-.773A5.219,5.219,0,0,0,274.345,195.87Z" transform="translate(-227.875 -142.713)" fill="#fafafa"/>
        <path id="Path_6334" data-name="Path 6334" d="M285.708,189.718a3.407,3.407,0,0,1-1.2.377,3.29,3.29,0,0,1-1.247.14,3.361,3.361,0,0,1,1.2-.377A3.291,3.291,0,0,1,285.708,189.718Z" transform="translate(-237.135 -139.418)" fill="#fafafa"/>
        <path id="Path_6335" data-name="Path 6335" d="M293.031,190.044a7.709,7.709,0,0,1-2.164,1.07,7.791,7.791,0,0,1-2.327.577c0-.07,1.024-.349,2.262-.805S293,189.983,293.031,190.044Z" transform="translate(-239.958 -139.595)" fill="#fafafa"/>
        <path id="Path_6336" data-name="Path 6336" d="M291.707,180.468a7.788,7.788,0,0,1-1.429.419,7.446,7.446,0,0,1-1.438.386A5.045,5.045,0,0,1,291.707,180.468Z" transform="translate(-240.118 -134.478)" fill="#fafafa"/>
        <path id="Path_6337" data-name="Path 6337" d="M288.826,176.81a1.226,1.226,0,0,1,0,.275l-.07.782c-.033.34-.07.754-.1,1.238s-.084,1.033-.107,1.638c-.079,1.219-.116,2.667-.126,4.277s.051,3.383.163,5.236.307,3.616.507,5.217.442,3.03.675,4.226c.107.6.223,1.136.321,1.61s.182.884.261,1.215.121.568.168.768a.994.994,0,0,1,.042.27,1.114,1.114,0,0,1-.088-.261l-.214-.754c-.093-.33-.2-.735-.3-1.21s-.237-1.01-.354-1.606c-.256-1.2-.493-2.629-.726-4.23s-.4-3.369-.531-5.226-.154-3.639-.144-5.254.074-3.067.177-4.286c.037-.61.1-1.159.144-1.643s.1-.9.144-1.233.084-.577.112-.777a1.038,1.038,0,0,1,.051-.27Z" transform="translate(-239.774 -132.524)" fill="#263238"/>
        <g id="Group_3211" data-name="Group 3211" transform="translate(38.898 49.75)" opacity="0.2">
          <path id="Path_6338" data-name="Path 6338" d="M267.73,188.55a5.026,5.026,0,0,0,4.756.349,2.173,2.173,0,0,1,.558-.2.544.544,0,0,1,.526.2.689.689,0,0,1-.149.754,2.941,2.941,0,0,1-3.025.931,4.524,4.524,0,0,1-2.583-2.015" transform="translate(-267.73 -188.55)"/>
        </g>
        <path id="Path_6339" data-name="Path 6339" d="M248.377,91.647a16.287,16.287,0,0,1-.531-3.234,5.543,5.543,0,0,1,.745-3.151,3.379,3.379,0,0,1,2.69-1.643,11.342,11.342,0,0,0,2.02.1,6.024,6.024,0,0,0,2.024-1.145,5.659,5.659,0,0,1,3.486-.908,3.337,3.337,0,0,1,1.778.614,1.894,1.894,0,0,1,.819,1.629,9.14,9.14,0,0,1,2.36-.149,3.058,3.058,0,0,1,2.066,1.029,1.862,1.862,0,0,1,.135,2.2,1.508,1.508,0,0,1,1.806.88,1.959,1.959,0,0,1-.465,2.052,3.663,3.663,0,0,1-2.355.856,5.315,5.315,0,0,1-2.257-.465" transform="translate(-218.197 -81.651)" fill="#263238"/>
        <path id="Path_6340" data-name="Path 6340" d="M249.655,122.257h0a5.506,5.506,0,0,0,6.725-4.821c.177-1.773.331-3.258.363-3.5,0,0,4.454.084,5.268-4.24s1.806-14.427,1.806-14.427h0a15.293,15.293,0,0,0-15.47-.749l-.731.382-2.192,21.408A5.506,5.506,0,0,0,249.655,122.257Z" transform="translate(-216.891 -87.599)" fill="#b78876"/>
        <path id="Path_6341" data-name="Path 6341" d="M263.626,135.137a10.206,10.206,0,0,1-5.366-2.6s.786,3.355,5.18,3.723Z" transform="translate(-223.77 -108.857)" fill="#aa6550"/>
        <path id="Path_6342" data-name="Path 6342" d="M245.81,106.843c-.07-.047-2.825-1.4-3.258,1.578a2.259,2.259,0,0,0,2.671,2.7C245.242,111.036,245.81,106.843,245.81,106.843Z" transform="translate(-215.35 -94.934)" fill="#b78876"/>
        <path id="Path_6343" data-name="Path 6343" d="M245.367,110.933a1.023,1.023,0,0,1-.149.056.531.531,0,0,1-.391-.047,1.294,1.294,0,0,1-.428-1.238,1.648,1.648,0,0,1,.251-.721.605.605,0,0,1,.465-.344.265.265,0,0,1,.284.186.242.242,0,0,1,0,.154s.07-.042.061-.168a.326.326,0,0,0-.088-.2.414.414,0,0,0-.275-.116.749.749,0,0,0-.61.386,1.727,1.727,0,0,0-.3.805,1.364,1.364,0,0,0,.572,1.4.558.558,0,0,0,.489,0C245.353,111,245.376,110.938,245.367,110.933Z" transform="translate(-216.233 -95.999)" fill="#aa6550"/>
        <path id="Path_6344" data-name="Path 6344" d="M278.832,111.669a.628.628,0,0,1-.707.517.6.6,0,0,1-.54-.666.628.628,0,0,1,.7-.526.6.6,0,0,1,.544.675Z" transform="translate(-234.099 -97.335)" fill="#263238"/>
        <path id="Path_6345" data-name="Path 6345" d="M278.072,109.99c-.093.07-.5-.363-1.168-.465s-1.21.13-1.271.037.074-.177.316-.293a1.731,1.731,0,0,1,1.033-.13,1.662,1.662,0,0,1,.931.465C278.072,109.789,278.123,109.948,278.072,109.99Z" transform="translate(-233.05 -96.331)" fill="#263238"/>
        <path id="Path_6346" data-name="Path 6346" d="M264.952,109.224a.633.633,0,0,1-.707.521.6.6,0,0,1-.54-.67.628.628,0,0,1,.7-.521.605.605,0,0,1,.544.67Z" transform="translate(-226.678 -96.03)" fill="#263238"/>
        <path id="Path_6347" data-name="Path 6347" d="M263.959,107.759c-.088.07-.5-.358-1.163-.465s-1.215.13-1.271.037.074-.172.312-.289a1.708,1.708,0,0,1,1.038-.135,1.647,1.647,0,0,1,.908.465C263.959,107.573,264.006,107.731,263.959,107.759Z" transform="translate(-225.508 -95.138)" fill="#263238"/>
        <path id="Path_6348" data-name="Path 6348" d="M270.11,113.858a4.267,4.267,0,0,1,1.117,0c.172,0,.34,0,.386-.107a.847.847,0,0,0,0-.521c-.088-.465-.181-.9-.275-1.4a22.662,22.662,0,0,1-.54-3.584,20.6,20.6,0,0,1,.824,3.532c.088.465.177.931.256,1.4a1.024,1.024,0,0,1-.028.684.428.428,0,0,1-.326.2,1.178,1.178,0,0,1-.293,0A4.542,4.542,0,0,1,270.11,113.858Z" transform="translate(-230.105 -95.871)" fill="#263238"/>
        <path id="Path_6349" data-name="Path 6349" d="M265.5,120.549c.112,0,0,.735.517,1.359s1.312.675,1.3.777-.2.112-.521.061a1.8,1.8,0,0,1-1.094-.61,1.61,1.61,0,0,1-.386-1.126C265.346,120.7,265.457,120.535,265.5,120.549Z" transform="translate(-227.542 -102.446)" fill="#263238"/>
        <path id="Path_6350" data-name="Path 6350" d="M278.22,107.305c-.144.13-.572-.107-1.122-.209s-1.038-.079-1.117-.256c-.037-.084.065-.223.293-.33a1.657,1.657,0,0,1,1.806.372C278.248,107.073,278.285,107.24,278.22,107.305Z" transform="translate(-233.24 -94.875)" fill="#263238"/>
        <path id="Path_6351" data-name="Path 6351" d="M262.85,101.972c-.088.07-.256,0-.465-.074a5.444,5.444,0,0,0-.8-.256,5.65,5.65,0,0,0-.838-.088c-.228,0-.4,0-.465-.116s.047-.27.312-.419a1.782,1.782,0,0,1,2.141.465C262.934,101.707,262.934,101.912,262.85,101.972Z" transform="translate(-224.841 -91.911)" fill="#263238"/>
        <path id="Path_6352" data-name="Path 6352" d="M265.173,95.448a10.36,10.36,0,0,1-6.269-1.429c-2.094-1.243-4.593-1.959-5.184-1.564s-.87,2.629-3.072,3.127c0,0-.163,4.286-1.862,4.012s-.149-6.823-.149-6.823l4.319-1.736,4.617-.526,4.263.312,3.877,1.508Z" transform="translate(-218.279 -86.387)" fill="#263238"/>
      </g>
      <g id="freepik--Books--inject-12" transform="translate(69.83 55.039)">
        <path id="Path_6353" data-name="Path 6353" d="M124.608,182.527l.9,1.15s4.468-7.153,9.652-7.888h0a1.019,1.019,0,0,0,.931-.033l1.675-.973a1.015,1.015,0,0,0,.465-1.047h0a11.159,11.159,0,0,1,7.828-5.119l1.945-.368L134.637,156l-20.817,8.466Z" transform="translate(-110.204 -109.013)" fill="#b0bec5"/>
        <path id="Path_6354" data-name="Path 6354" d="M132.093,192.721l1.578,2.108s3.635-8.2,12.677-8.773l-8.9-9.2S131.027,190.194,132.093,192.721Z" transform="translate(-119.909 -120.165)" fill="#ebebeb"/>
        <path id="Path_6355" data-name="Path 6355" d="M106.05,170.163s3.449-11.128,14.893-7.06l11.565,15.121s-11.863-2.15-14.651,7.623Z" transform="translate(-106.05 -112.332)" fill="#f5f5f5"/>
        <path id="Path_6356" data-name="Path 6356" d="M150.029,172.622s3.574-8.74,11.379-7.665L150.029,151.73l-11.169,6.292Z" transform="translate(-123.59 -106.73)" fill="#ebebeb"/>
        <path id="Path_6357" data-name="Path 6357" d="M137.83,151.27s-1.3-6.609,3.807-9.489l3.346-1.741,11.7,13.105s-8.084,4.417-7.293,13.245Z" transform="translate(-122.961 -100.481)" fill="#f5f5f5"/>
        <path id="Path_6358" data-name="Path 6358" d="M149.516,179.411a3.8,3.8,0,0,1-.465-.568c-.326-.41-.745-.931-1.257-1.6-1.07-1.4-2.508-3.258-4.1-5.305l-4.109-5.3-1.252-1.6a4.281,4.281,0,0,1-.437-.605,5.8,5.8,0,0,1,.512.545c.316.358.763.894,1.312,1.554,1.094,1.322,2.569,3.183,4.165,5.259s3.025,3.97,4.044,5.352l1.191,1.647a4.514,4.514,0,0,1,.391.624Z" transform="translate(-123.077 -113.52)" fill="#263238"/>
        <path id="Path_6359" data-name="Path 6359" d="M147.364,148.32a11.961,11.961,0,0,0-1.34.624,9.085,9.085,0,0,0-2.583,2.411,8.843,8.843,0,0,0-1.522,3.193c-.2.889-.172,1.466-.223,1.466a1.5,1.5,0,0,1-.037-.4,4.948,4.948,0,0,1,.093-1.1,8.177,8.177,0,0,1,1.494-3.3,8.34,8.34,0,0,1,2.695-2.415,4.654,4.654,0,0,1,1.024-.414A1.345,1.345,0,0,1,147.364,148.32Z" transform="translate(-125.085 -104.907)" fill="#263238"/>
        <path id="Path_6360" data-name="Path 6360" d="M160.176,160.2c0,.047-.526.284-1.3.842a9.5,9.5,0,0,0-1.252,1.089,10.322,10.322,0,0,0-1.252,1.606,10.566,10.566,0,0,0-.884,1.829,9.692,9.692,0,0,0-.419,1.606c-.158.931-.135,1.536-.181,1.536a1.541,1.541,0,0,1-.047-.419,4.38,4.38,0,0,1,0-.489,4.928,4.928,0,0,1,.051-.652,8.632,8.632,0,0,1,.382-1.657,10.081,10.081,0,0,1,.889-1.862A9.816,9.816,0,0,1,157.458,162a8.54,8.54,0,0,1,1.317-1.075,6.229,6.229,0,0,1,.558-.34,3.482,3.482,0,0,1,.465-.219,1.43,1.43,0,0,1,.377-.168Z" transform="translate(-132.131 -111.259)" fill="#263238"/>
        <path id="Path_6361" data-name="Path 6361" d="M163.359,163.59c0,.047-.577.307-1.4.931a11.39,11.39,0,0,0-1.359,1.2,14.308,14.308,0,0,0-1.4,1.727,13.526,13.526,0,0,0-1.061,1.945,9.773,9.773,0,0,0-.558,1.722c-.223,1.005-.191,1.657-.237,1.657a1.456,1.456,0,0,1-.042-.465,3.662,3.662,0,0,1,0-.535,4.726,4.726,0,0,1,.093-.7,8.938,8.938,0,0,1,.517-1.773,12.356,12.356,0,0,1,1.07-2,12.909,12.909,0,0,1,1.429-1.75,10.5,10.5,0,0,1,1.4-1.182,6.411,6.411,0,0,1,.6-.377,3.948,3.948,0,0,1,.465-.247,1.863,1.863,0,0,1,.479-.154Z" transform="translate(-133.448 -113.071)" fill="#263238"/>
        <path id="Path_6362" data-name="Path 6362" d="M166.091,166.81c0,.042-.577.3-1.4.931a10.825,10.825,0,0,0-1.331,1.238,13.577,13.577,0,0,0-1.336,1.782,13.755,13.755,0,0,0-1.005,1.987,10.882,10.882,0,0,0-.521,1.741c-.209,1.015-.177,1.666-.228,1.666a1.861,1.861,0,0,1-.037-.465,3.076,3.076,0,0,1,0-.535,4.747,4.747,0,0,1,.084-.707,9.7,9.7,0,0,1,.465-1.792,13.257,13.257,0,0,1,1.005-2.034,12.715,12.715,0,0,1,1.4-1.8,9.311,9.311,0,0,1,1.4-1.224,4.79,4.79,0,0,1,.6-.391,3.442,3.442,0,0,1,.465-.251A1.433,1.433,0,0,1,166.091,166.81Z" transform="translate(-135.012 -114.792)" fill="#263238"/>
        <path id="Path_6363" data-name="Path 6363" d="M140.426,190.787c0,.042-.647-.181-1.713-.275a8.963,8.963,0,0,0-4.072.61,8.87,8.87,0,0,0-3.328,2.425c-.693.814-.991,1.4-1.033,1.4a1.462,1.462,0,0,1,.191-.433,7.109,7.109,0,0,1,.707-1.07,8.293,8.293,0,0,1,7.553-3.095,7.231,7.231,0,0,1,1.257.265A1.579,1.579,0,0,1,140.426,190.787Z" transform="translate(-119.004 -127.339)" fill="#263238"/>
        <path id="Path_6364" data-name="Path 6364" d="M137.136,186.687c0,.042-.647-.182-1.713-.275a8.656,8.656,0,0,0-7.4,3.034c-.693.814-.991,1.419-1.029,1.4a1.461,1.461,0,0,1,.191-.433,7.107,7.107,0,0,1,.707-1.07,8.293,8.293,0,0,1,7.553-3.095,7.231,7.231,0,0,1,1.257.265A1.578,1.578,0,0,1,137.136,186.687Z" transform="translate(-117.245 -125.147)" fill="#263238"/>
        <path id="Path_6365" data-name="Path 6365" d="M133.846,182.582c0,.047-.647-.177-1.713-.27a8.656,8.656,0,0,0-7.4,3.034c-.693.814-.991,1.4-1.029,1.4a1.452,1.452,0,0,1,.186-.433,7.205,7.205,0,0,1,.712-1.075,8.3,8.3,0,0,1,7.553-3.09,7.231,7.231,0,0,1,1.257.265A1.685,1.685,0,0,1,133.846,182.582Z" transform="translate(-115.486 -122.956)" fill="#263238"/>
        <path id="Path_6366" data-name="Path 6366" d="M130.55,178.488c0,.047-.652-.177-1.713-.27a8.642,8.642,0,0,0-7.4,3.034c-.693.814-.991,1.4-1.033,1.4a1.9,1.9,0,0,1,.191-.428,6.849,6.849,0,0,1,.712-1.075,8.3,8.3,0,0,1,7.549-3.09,6.886,6.886,0,0,1,1.261.265A1.685,1.685,0,0,1,130.55,178.488Z" transform="translate(-113.722 -120.77)" fill="#263238"/>
        <path id="Path_6367" data-name="Path 6367" d="M127.256,174.395c0,.047-.647-.177-1.713-.27a8.642,8.642,0,0,0-7.4,3.034c-.693.81-.991,1.4-1.033,1.4a1.657,1.657,0,0,1,.191-.428,7.107,7.107,0,0,1,.707-1.075,8.321,8.321,0,0,1,7.553-3.123,7.163,7.163,0,0,1,1.257.27,1.429,1.429,0,0,1,.437.2Z" transform="translate(-111.963 -118.566)" fill="#263238"/>
        <path id="Path_6368" data-name="Path 6368" d="M123.944,170.274c0,.042-.647-.177-1.713-.27a8.642,8.642,0,0,0-7.418,3.034c-.693.81-.991,1.4-1.033,1.4a1.518,1.518,0,0,1,.191-.433,7.353,7.353,0,0,1,.707-1.07,8.293,8.293,0,0,1,7.581-3.1,7.162,7.162,0,0,1,1.257.27A1.5,1.5,0,0,1,123.944,170.274Z" transform="translate(-110.183 -116.371)" fill="#263238"/>
        <path id="Path_6369" data-name="Path 6369" d="M144.76,158l3.193,3.546s1-4.905,5.338-6.767l-3.374-3.6A8.377,8.377,0,0,0,144.76,158Z" transform="translate(-126.745 -106.436)" fill="#ebebeb"/>
        <path id="Path_6370" data-name="Path 6370" d="M168.865,72.749l-.465,1.038s6.557.535,8.926,3.867h0a.782.782,0,0,0,.363.647l1.275.814a.786.786,0,0,0,.894-.051h0a8.74,8.74,0,0,1,6.357,3.593l.954,1.215,4.23-14.12L177.522,58.81Z" transform="translate(-139.383 -57.055)" fill="#b0bec5"/>
        <path id="Path_6371" data-name="Path 6371" d="M168.1,82.485l-.9,1.862s6.981-.414,10.62,5.645l3.193-9.461S169.466,80.842,168.1,82.485Z" transform="translate(-138.741 -68.667)" fill="#ebebeb"/>
        <path id="Path_6372" data-name="Path 6372" d="M174.045,55.142s8.95-1.6,10.239,7.781l-6.371,13.431s-2.76-8.973-10.523-7.414Z" transform="translate(-138.843 -55.039)" fill="#f5f5f5"/>
        <path id="Path_6373" data-name="Path 6373" d="M190,85.957s7.344-.652,9.392,5.119l5.119-12.626L196.134,73Z" transform="translate(-150.93 -64.641)" fill="#ebebeb"/>
        <path id="Path_6374" data-name="Path 6374" d="M196.339,70.045s4.119-3.258,7.944-.759l2.4,1.689-4.891,12.8s-5.957-4.016-11.793-.307Z" transform="translate(-150.93 -62.151)" fill="#f5f5f5"/>
        <path id="Path_6375" data-name="Path 6375" d="M190,85.411a2.793,2.793,0,0,1,.214-.545c.172-.386.391-.87.652-1.443l2.206-4.747,2.211-4.742.666-1.438a2.582,2.582,0,0,1,.275-.517,2.794,2.794,0,0,1-.186.554c-.13.354-.34.852-.6,1.471-.521,1.233-1.28,2.923-2.145,4.775S191.62,82.3,191.019,83.5c-.3.6-.545,1.08-.721,1.4A2.378,2.378,0,0,1,190,85.411Z" transform="translate(-150.93 -64.096)" fill="#263238"/>
        <path id="Path_6376" data-name="Path 6376" d="M211.74,74.889c-.028.033-.391-.251-1.056-.582a7.581,7.581,0,0,0-5.585-.465,11.734,11.734,0,0,1-1.131.4c-.019-.061.084-.079.265-.191a5.069,5.069,0,0,1,.81-.377,6.814,6.814,0,0,1,2.918-.4,6.948,6.948,0,0,1,2.82.847,5.057,5.057,0,0,1,.74.5C211.665,74.8,211.749,74.875,211.74,74.889Z" transform="translate(-158.396 -64.78)" fill="#263238"/>
        <path id="Path_6377" data-name="Path 6377" d="M210.933,78.208c-.028.033-.4-.251-1.056-.582a7.581,7.581,0,0,0-5.585-.465,11.506,11.506,0,0,1-1.136.4c-.023-.061.088-.079.27-.191a4.878,4.878,0,0,1,.81-.377,6.79,6.79,0,0,1,2.918-.4,6.9,6.9,0,0,1,2.816.847,4.812,4.812,0,0,1,.74.5C210.859,78.115,210.943,78.194,210.933,78.208Z" transform="translate(-157.962 -66.554)" fill="#263238"/>
        <path id="Path_6378" data-name="Path 6378" d="M209.424,81.538c-.023.037-.391-.251-1.052-.582a7.767,7.767,0,0,0-2.76-.759,7.651,7.651,0,0,0-2.844.316c-.7.223-1.112.465-1.131.41s.088-.084.27-.191a4.482,4.482,0,0,1,.81-.382,6.925,6.925,0,0,1,2.913-.4,6.85,6.85,0,0,1,2.82.852,4.713,4.713,0,0,1,.74.5C209.354,81.444,209.438,81.524,209.424,81.538Z" transform="translate(-157.151 -68.348)" fill="#263238"/>
        <path id="Path_6379" data-name="Path 6379" d="M208.5,84.811c-.028.037-.4-.251-1.056-.582a7.581,7.581,0,0,0-5.585-.465c-.707.223-1.112.465-1.136.41s.088-.084.27-.191a4.483,4.483,0,0,1,.81-.382,6.934,6.934,0,0,1,2.918-.4,6.827,6.827,0,0,1,2.816.852,4.5,4.5,0,0,1,.74.5C208.429,84.718,208.513,84.8,208.5,84.811Z" transform="translate(-156.663 -70.085)" fill="#263238"/>
        <path id="Path_6380" data-name="Path 6380" d="M207.553,88.347c-.023.033-.391-.251-1.052-.582a7.74,7.74,0,0,0-2.76-.759,7.614,7.614,0,0,0-2.839.316,11.507,11.507,0,0,1-1.136.4c-.023-.061.088-.079.27-.191a4.878,4.878,0,0,1,.81-.377,6.934,6.934,0,0,1,2.918-.4,6.827,6.827,0,0,1,2.792.852,4.5,4.5,0,0,1,.763.5C207.483,88.259,207.567,88.333,207.553,88.347Z" transform="translate(-156.15 -71.988)" fill="#263238"/>
        <path id="Path_6381" data-name="Path 6381" d="M205.8,92.158c-.028.037-.423-.275-1.15-.619a9,9,0,0,0-1.317-.507,11.408,11.408,0,0,0-1.689-.34,10.388,10.388,0,0,0-1.727-.042,8,8,0,0,0-1.4.223c-.777.2-1.219.465-1.243.41a1.145,1.145,0,0,1,.3-.2,2.393,2.393,0,0,1,.377-.182,3.892,3.892,0,0,1,.521-.191,7.088,7.088,0,0,1,1.4-.284,9.847,9.847,0,0,1,1.769.023,10.029,10.029,0,0,1,1.731.368,7.707,7.707,0,0,1,1.326.568,3.956,3.956,0,0,1,.465.284,2.511,2.511,0,0,1,.335.247C205.722,92.074,205.811,92.149,205.8,92.158Z" transform="translate(-154.822 -73.942)" fill="#263238"/>
        <path id="Path_6382" data-name="Path 6382" d="M204.409,95.185c-.028.037-.424-.279-1.159-.61a8.76,8.76,0,0,0-1.336-.465,11.167,11.167,0,0,0-1.708-.284,10.661,10.661,0,0,0-1.731,0,8.3,8.3,0,0,0-1.4.256c-.777.209-1.219.465-1.243.419s.1-.084.3-.2a2.84,2.84,0,0,1,.377-.186,4.561,4.561,0,0,1,.521-.2,7.571,7.571,0,0,1,1.4-.312,9.667,9.667,0,0,1,1.773-.033,9.544,9.544,0,0,1,1.75.312,7.208,7.208,0,0,1,1.35.535,4.487,4.487,0,0,1,.465.275,2.593,2.593,0,0,1,.34.247C204.33,95.087,204.423,95.176,204.409,95.185Z" transform="translate(-154.049 -75.624)" fill="#263238"/>
        <path id="Path_6383" data-name="Path 6383" d="M182.347,85.075c-.042,0-.126-.512-.442-1.28a7.078,7.078,0,0,0-1.862-2.592,6.944,6.944,0,0,0-2.862-1.438c-.81-.2-1.331-.2-1.331-.237a1.014,1.014,0,0,1,.368-.033,5.5,5.5,0,0,1,1,.1,6.45,6.45,0,0,1,4.863,4.137,4.979,4.979,0,0,1,.256.973A1.056,1.056,0,0,1,182.347,85.075Z" transform="translate(-143.366 -68.111)" fill="#263238"/>
        <path id="Path_6384" data-name="Path 6384" d="M183.986,81.325c-.042,0-.121-.512-.442-1.28a6.8,6.8,0,0,0-4.738-4.035c-.81-.191-1.336-.191-1.336-.233a1.015,1.015,0,0,1,.368-.033,5.86,5.86,0,0,1,1,.1,6.45,6.45,0,0,1,4.863,4.142,5.423,5.423,0,0,1,.261.973A.973.973,0,0,1,183.986,81.325Z" transform="translate(-144.232 -66.106)" fill="#263238"/>
        <path id="Path_6385" data-name="Path 6385" d="M185.655,77.58c-.042,0-.126-.512-.465-1.28a6.8,6.8,0,0,0-4.719-4.04c-.81-.191-1.336-.191-1.331-.233a1.015,1.015,0,0,1,.368-.033,5.859,5.859,0,0,1,1,.1,6.473,6.473,0,0,1,2.979,1.429,6.543,6.543,0,0,1,1.885,2.713,5.342,5.342,0,0,1,.256.973A1.056,1.056,0,0,1,185.655,77.58Z" transform="translate(-145.124 -64.101)" fill="#263238"/>
        <path id="Path_6386" data-name="Path 6386" d="M187.289,73.825c-.042,0-.121-.512-.465-1.28a6.79,6.79,0,0,0-4.742-4.035c-.805-.191-1.331-.191-1.331-.233a1.015,1.015,0,0,1,.368-.033,5.418,5.418,0,0,1,1,.1,6.427,6.427,0,0,1,4.863,4.142,5.5,5.5,0,0,1,.261.968,1,1,0,0,1,.047.372Z" transform="translate(-145.985 -62.096)" fill="#263238"/>
        <path id="Path_6387" data-name="Path 6387" d="M188.964,70.075c-.042,0-.126-.512-.465-1.28a6.8,6.8,0,0,0-4.738-4.035c-.81-.191-1.336-.191-1.331-.233a1.015,1.015,0,0,1,.368-.033,5.035,5.035,0,0,1,1,.1,6.446,6.446,0,0,1,4.863,4.142,5.844,5.844,0,0,1,.256.968A1.079,1.079,0,0,1,188.964,70.075Z" transform="translate(-146.883 -60.092)" fill="#263238"/>
        <path id="Path_6388" data-name="Path 6388" d="M190.651,66.32c-.042,0-.121-.507-.442-1.275a6.79,6.79,0,0,0-4.738-4.035c-.81-.2-1.331-.191-1.331-.233a1.015,1.015,0,0,1,.368-.033,5.036,5.036,0,0,1,1,.1,6.446,6.446,0,0,1,4.863,4.142,5.033,5.033,0,0,1,.256.968A1.051,1.051,0,0,1,190.651,66.32Z" transform="translate(-147.797 -58.087)" fill="#263238"/>
        <path id="Path_6389" data-name="Path 6389" d="M353.4,165.149l-.782,1.238s8.228,1.829,10.653,6.474h0a1.024,1.024,0,0,0,.349.889l1.475,1.257a1,1,0,0,0,1.14.093h0a11.2,11.2,0,0,1,7.446,5.673l.987,1.736,7.856-17.22L366.852,149Z" transform="translate(-237.868 -105.271)" fill="#b0bec5"/>
        <path id="Path_6390" data-name="Path 6390" d="M352.986,177.532l-1.466,2.192s8.94.7,12.5,9.029l5.706-11.453S355,175.684,352.986,177.532Z" transform="translate(-237.28 -120.051)" fill="#ebebeb"/>
        <path id="Path_6391" data-name="Path 6391" d="M363.34,143.327s11.635-.465,11.635,11.672l-10.406,15.94s-1.936-11.877-12.058-11.253Z" transform="translate(-237.809 -102.237)" fill="#f5f5f5"/>
        <path id="Path_6392" data-name="Path 6392" d="M378.37,184.981s9.434.465,11.016,8.177l8.684-15.135-9.634-8.433Z" transform="translate(-251.634 -116.279)" fill="#ebebeb"/>
        <path id="Path_6393" data-name="Path 6393" d="M388.736,166.816s5.8-3.43,10.215.428l2.755,2.574-8.456,15.414s-6.86-6.148-14.921-2.462Z" transform="translate(-251.613 -114.044)" fill="#f5f5f5"/>
        <path id="Path_6394" data-name="Path 6394" d="M378.37,184.328a4.153,4.153,0,0,1,.372-.647l1.089-1.713c.959-1.475,2.234-3.449,3.644-5.631l3.63-5.641,1.089-1.713a4.453,4.453,0,0,1,.424-.614,4.4,4.4,0,0,1-.34.661c-.233.424-.586,1.019-1.029,1.759-.884,1.471-2.145,3.481-3.57,5.678s-2.737,4.189-3.723,5.585l-1.154,1.675A4.413,4.413,0,0,1,378.37,184.328Z" transform="translate(-251.634 -115.626)" fill="#263238"/>
        <path id="Path_6395" data-name="Path 6395" d="M410.268,174.194c-.033.033-.442-.4-1.224-.931a9.428,9.428,0,0,0-1.447-.819,10.509,10.509,0,0,0-1.927-.642,10.617,10.617,0,0,0-2.02-.228,9.5,9.5,0,0,0-1.657.14c-.931.163-1.489.386-1.5.34a1.341,1.341,0,0,1,.377-.182,4.032,4.032,0,0,1,.465-.163,6.077,6.077,0,0,1,.628-.163,8.569,8.569,0,0,1,1.689-.2,10.038,10.038,0,0,1,2.071.214,9.812,9.812,0,0,1,1.973.675,8.841,8.841,0,0,1,1.452.884c.2.14.354.289.5.414a3.51,3.51,0,0,1,.349.344A1.522,1.522,0,0,1,410.268,174.194Z" transform="translate(-263.459 -117.219)" fill="#263238"/>
        <path id="Path_6396" data-name="Path 6396" d="M408.663,178.279c-.037.033-.465-.4-1.224-.931a9.428,9.428,0,0,0-1.447-.819,9.619,9.619,0,0,0-3.947-.866,9.493,9.493,0,0,0-1.657.135c-.931.163-1.489.386-1.508.344a1.354,1.354,0,0,1,.382-.181,2.594,2.594,0,0,1,.465-.163,5.362,5.362,0,0,1,.633-.168,8.6,8.6,0,0,1,1.689-.191,9.736,9.736,0,0,1,2.071.209,9.865,9.865,0,0,1,1.969.679,8.181,8.181,0,0,1,1.452.88,5.684,5.684,0,0,1,.5.419,3.168,3.168,0,0,1,.354.34,1.465,1.465,0,0,1,.265.312Z" transform="translate(-262.599 -119.406)" fill="#263238"/>
        <path id="Path_6397" data-name="Path 6397" d="M406.188,182.209c-.033.033-.442-.4-1.224-.931a9.836,9.836,0,0,0-1.447-.819,10.875,10.875,0,0,0-1.927-.642,10.593,10.593,0,0,0-2.02-.223,10.058,10.058,0,0,0-1.657.135c-.931.168-1.489.386-1.5.344a1.438,1.438,0,0,1,.377-.181,3.305,3.305,0,0,1,.465-.163,6.008,6.008,0,0,1,.628-.168,8.64,8.64,0,0,1,1.689-.191,9.988,9.988,0,0,1,2.071.209,10.114,10.114,0,0,1,1.973.679,8.646,8.646,0,0,1,1.452.884,4.977,4.977,0,0,1,.5.414,3.642,3.642,0,0,1,.354.34C406.1,182.083,406.2,182.195,406.188,182.209Z" transform="translate(-261.278 -121.507)" fill="#263238"/>
        <path id="Path_6398" data-name="Path 6398" d="M371.347,181.347c-.042,0-.047-.67-.312-1.7a8.642,8.642,0,0,0-5.329-5.971c-1-.382-1.666-.465-1.657-.507a1.633,1.633,0,0,1,.465.033,7.734,7.734,0,0,1,1.247.312A8.284,8.284,0,0,1,371.2,179.6a6.685,6.685,0,0,1,.168,1.275A1.434,1.434,0,0,1,371.347,181.347Z" transform="translate(-243.978 -118.187)" fill="#263238"/>
        <path id="Path_6399" data-name="Path 6399" d="M374.117,176.877c-.042,0-.047-.67-.312-1.7a8.647,8.647,0,0,0-5.324-5.971c-1-.382-1.671-.465-1.661-.507a1.633,1.633,0,0,1,.465.033,7.734,7.734,0,0,1,1.247.312,8.284,8.284,0,0,1,5.431,6.092,6.687,6.687,0,0,1,.168,1.275A1.289,1.289,0,0,1,374.117,176.877Z" transform="translate(-245.459 -115.798)" fill="#263238"/>
        <path id="Path_6400" data-name="Path 6400" d="M376.887,172.407c-.042,0-.047-.67-.312-1.7a8.647,8.647,0,0,0-5.324-5.971c-1-.382-1.671-.465-1.661-.507a1.634,1.634,0,0,1,.465.033,7.732,7.732,0,0,1,1.247.312,8.3,8.3,0,0,1,5.459,6.092,7.541,7.541,0,0,1,.168,1.275A1.34,1.34,0,0,1,376.887,172.407Z" transform="translate(-246.94 -113.408)" fill="#263238"/>
        <path id="Path_6401" data-name="Path 6401" d="M379.662,167.937c-.047,0-.051-.67-.316-1.7a8.647,8.647,0,0,0-5.324-5.971c-1-.382-1.666-.465-1.661-.507a1.634,1.634,0,0,1,.465.033,7.736,7.736,0,0,1,1.247.312,8.3,8.3,0,0,1,5.436,6.092,7.538,7.538,0,0,1,.168,1.275A1.617,1.617,0,0,1,379.662,167.937Z" transform="translate(-248.421 -111.018)" fill="#263238"/>
        <path id="Path_6402" data-name="Path 6402" d="M382.432,163.467c-.047,0-.051-.67-.316-1.7a8.647,8.647,0,0,0-5.324-5.971c-1-.382-1.666-.465-1.661-.507a1.632,1.632,0,0,1,.465.033,7.619,7.619,0,0,1,1.247.312,8.3,8.3,0,0,1,5.436,6.092,7.544,7.544,0,0,1,.168,1.275A1.62,1.62,0,0,1,382.432,163.467Z" transform="translate(-249.902 -108.629)" fill="#263238"/>
        <path id="Path_6403" data-name="Path 6403" d="M385.2,159c-.047,0-.051-.67-.316-1.7a8.647,8.647,0,0,0-5.324-5.971c-1-.382-1.666-.465-1.662-.507a1.633,1.633,0,0,1,.465.033,7.616,7.616,0,0,1,1.247.312,8.3,8.3,0,0,1,5.436,6.092,7.547,7.547,0,0,1,.168,1.275A1.62,1.62,0,0,1,385.2,159Z" transform="translate(-251.383 -106.239)" fill="#263238"/>
        <path id="Path_6404" data-name="Path 6404" d="M392.144,184.945l-3.034,4.393a14.729,14.729,0,0,1,8.7,2.034l2.792-4.705s-4.3-3.379-8.479-1.722" transform="translate(-257.376 -124.243)" fill="#ebebeb"/>
      </g>
    </g>
    <g id="Group_3234" data-name="Group 3234" transform="translate(-4.848 -10.263)">
      <path id="Icon_ionic-ios-arrow-back" data-name="Icon ionic-ios-arrow-back" d="M15.217,17.7,23.926,9A1.645,1.645,0,1,0,21.6,6.674l-9.867,9.86a1.642,1.642,0,0,0-.048,2.268l9.908,9.929a1.645,1.645,0,0,0,2.33-2.323Z" transform="translate(362.579 30.069)" fill="#1e64cc"/>
      <path id="Icon_ionic-ios-arrow-back-2" data-name="Icon ionic-ios-arrow-back" d="M3.967,11.506l8.709-8.7A1.645,1.645,0,1,0,10.346.481L.479,10.341a1.642,1.642,0,0,0-.048,2.268l9.908,9.929a1.645,1.645,0,1,0,2.33-2.323Z" transform="translate(377.472 59.28) rotate(180)" fill="#1e64cc"/>
    </g>
    <text id="Rules_for_ERP_Exercise_Examples" data-name="Rules for ERP Exercise / Examples" transform="translate(21 24)" fill="#1e64cc" font-size="24" font-family="Arial-BoldMT, Arial" font-weight="700"><tspan x="0" y="22">Rules for ERP Exercise / </tspan><tspan x="0" y="53">Examples</tspan></text>
    <g id="Component_119_384" data-name="Component 119 – 384" transform="translate(0 779.138)">
      <rect id="Rectangle_1927" data-name="Rectangle 1927" width="412" height="67" transform="translate(0 0.722)" fill="#edf4fd"/>
      <path id="Path_4714" data-name="Path 4714" d="M1053,4508.186h411.151" transform="translate(-1053 -4508.186)" fill="none" stroke="#fff" stroke-width="2" opacity="0.206"/>
      <g id="Group_3096" data-name="Group 3096" transform="translate(-3 -997.186)">
        <text id="Next" transform="translate(318 1038)" fill="#102646" font-size="18" font-family="ArialMT, Arial"><tspan x="0" y="0">Next</tspan></text>
        <path id="Icon_ionic-ios-arrow-back-3" data-name="Icon ionic-ios-arrow-back" d="M14.033,14.264l6.109-6.1a1.154,1.154,0,0,0-1.634-1.629l-6.921,6.916a1.152,1.152,0,0,0-.034,1.591L18.5,22a1.154,1.154,0,1,0,1.634-1.629Z" transform="translate(389.251 1046.266) rotate(180)" fill="#102646"/>
      </g>
      <g id="Group_3224" data-name="Group 3224" transform="translate(2.529 7.076)">
        <g id="Group_3212" data-name="Group 3212" transform="translate(34.47 14.737)">
          <text id="Back" transform="translate(19.06 18)" fill="#102646" font-size="18" font-family="ArialMT, Arial"><tspan x="0" y="0">Back</tspan></text>
          <path id="Icon_ionic-ios-arrow-back-4" data-name="Icon ionic-ios-arrow-back" d="M14.033,14.264l6.109-6.1a1.154,1.154,0,0,0-1.634-1.629l-6.921,6.916a1.152,1.152,0,0,0-.034,1.591L18.5,22a1.154,1.154,0,1,0,1.634-1.629Z" transform="translate(-11.251 -3.193)" fill="#102646"/>
        </g>
      </g>
    </g>
  </g>
</svg>
