<svg xmlns="http://www.w3.org/2000/svg" xmlns:xlink="http://www.w3.org/1999/xlink" width="412" height="847" viewBox="0 0 412 847">
  <defs>
    <linearGradient id="linear-gradient" x1="0.5" x2="0.5" y2="1" gradientUnits="objectBoundingBox">
      <stop offset="0" stop-color="#37aadd"/>
      <stop offset="1" stop-color="#1f64cc"/>
    </linearGradient>
    <clipPath id="clip-OCD_session_4_20">
      <rect width="412" height="847"/>
    </clipPath>
  </defs>
  <g id="OCD_session_4_20" data-name="OCD session 4 – 20" clip-path="url(#clip-OCD_session_4_20)">
    <rect width="412" height="847" fill="#102646"/>
    <g id="Group_3103" data-name="Group 3103" transform="translate(-4 65.864)">
      <g id="Group_1500" data-name="Group 1500" transform="translate(71 65)">
        <text id="OBQ-44_Questionnaire" data-name="OBQ-44 Questionnaire" transform="translate(0 0.136)" fill="#1e64cc" font-size="24" font-family="Arial-BoldMT, Arial" font-weight="700"><tspan x="0" y="22">OBQ-44 Questionnaire</tspan></text>
      </g>
      <g id="Group_3103-2" data-name="Group 3103" transform="translate(25 59)">
        <g id="Group_3157" data-name="Group 3157">
          <rect id="Rectangle_1722" data-name="Rectangle 1722" width="371" height="600" rx="16" transform="translate(0 0.136)" fill="url(#linear-gradient)"/>
          <text id="Pre-contemplation" transform="translate(99 24.136)" fill="#fff" font-size="16" font-family="ArialMT, Arial"><tspan x="21.578" y="14">Pre-contemplation</tspan></text>
          <text id="In_this_phase_a_person_does_not_consider_his_substance_abuse_as_problem._50_60_of_clients_are_in_the_stage_of_Pre_contemplation_which_means_they_do_not_see_a_problem_and_therefore_they_see_no_need_to_change_their_behaviours._These_include_any_client_wh" data-name="In this phase a person does not consider his substance abuse as problem. 50 – 60% of clients are in the stage of Pre contemplation, which means they do not see a problem and therefore they see no need to change their behaviours. These include any client wh" transform="translate(28 385.136)" fill="#fff" font-size="12" font-family="ArialMT, Arial"><tspan x="11.074" y="11">In this phase a person does not consider his substance </tspan><tspan x="6.073" y="36">abuse as problem. 50 – 60% of clients are in the stage of </tspan><tspan x="23.089" y="61">Pre contemplation, which means they do not see a </tspan><tspan x="9.398" y="86">problem and therefore they see no need to change their </tspan><tspan x="6.527" y="111">behaviours. These include any client who is pressured or </tspan><tspan x="31.102" y="136">coerced into services like AA or support groups.</tspan></text>
        </g>
      </g>
    </g>
    <g id="Group_1193" data-name="Group 1193" transform="translate(3.371 -49.643)">
      <g id="Ellipse_12" data-name="Ellipse 12" transform="translate(177.629 798.642)" fill="none" stroke="#fff" stroke-width="1">
        <circle cx="4" cy="4" r="4" stroke="none"/>
        <circle cx="4" cy="4" r="3.5" fill="none"/>
      </g>
      <g id="Ellipse_13" data-name="Ellipse 13" transform="translate(191.629 798.642)" fill="none" stroke="#fff" stroke-width="1">
        <circle cx="4" cy="4" r="4" stroke="none"/>
        <circle cx="4" cy="4" r="3.5" fill="none"/>
      </g>
      <g id="Ellipse_91" data-name="Ellipse 91" transform="translate(206.629 798.642)" fill="none" stroke="#fff" stroke-width="1">
        <circle cx="4" cy="4" r="4" stroke="none"/>
        <circle cx="4" cy="4" r="3.5" fill="none"/>
      </g>
      <g id="Ellipse_92" data-name="Ellipse 92" transform="translate(220.629 798.642)" fill="#0e58c7" stroke="#fff" stroke-width="1">
        <circle cx="4" cy="4" r="4" stroke="none"/>
        <circle cx="4" cy="4" r="3.5" fill="none"/>
      </g>
    </g>
    <g id="Group_3929" data-name="Group 3929">
      <path id="Path_5920" data-name="Path 5920" d="M9465.524,14761.509c6.567-31.59,16.01-89.273,76.558-71.347s40.628,29.124,97.831,21.63,86.675,95.53,35.142,93.989-30.141,11.445-69.951,14.13-54.4,11.21-89.292-3.391S9458.957,14793.1,9465.524,14761.509Z" transform="translate(-9383 -14424.288)" fill="#d2dff2" opacity="0.6"/>
      <g id="Task-pana" transform="translate(-122.07 209.657)">
        <g id="freepik--Tasks--inject-301" transform="translate(279.575 30.343)">
          <path id="Path_5874" data-name="Path 5874" d="M517.556,192.691h5.495S511,107.834,511.673,83.89l-.853,108.8Z" transform="translate(-419.055 -58.238)" fill="#e0e0e0"/>
          <path id="Path_5875" data-name="Path 5875" d="M415.81,30.587s20.538-1.246,19.987,21.472c-1.591,65.776,6.146,115.254,6.146,115.254H365V32.939Z" transform="translate(-343.092 -30.464)" fill="#ebebeb"/>
          <path id="Path_5876" data-name="Path 5876" d="M348.294,218.959l53.382-.034A11.627,11.627,0,0,0,413.3,207.3L413.27,73.467A11.622,11.622,0,0,0,401.614,61.84l-53.382.034A11.617,11.617,0,0,0,336.61,73.5l.024,133.832a11.627,11.627,0,0,0,11.66,11.627Z" transform="translate(-328.303 -46.751)" fill="#697175"/>
          <path id="Path_5877" data-name="Path 5877" d="M352.144,71.79h53.277a8.144,8.144,0,0,1,8.144,8.144l.024,130.627a8.144,8.144,0,0,1-8.144,8.144l-53.277.034a8.144,8.144,0,0,1-8.144-8.144L344,79.934A8.144,8.144,0,0,1,352.144,71.79Z" transform="translate(-332.153 -51.934)" fill="#ebebeb"/>
          <path id="Path_5878" data-name="Path 5878" d="M361.762,30.57l51.088.479c-7.493-.35-9.093,2.63-10.324,4.518A9.178,9.178,0,0,0,403.1,46.7a10.635,10.635,0,0,0,6.065,3.564H353.182a10.658,10.658,0,0,1-3.454-9.668A12.1,12.1,0,0,1,361.762,30.57Z" transform="translate(-335.063 -30.461)" fill="#ebebeb"/>
          <path id="Path_5879" data-name="Path 5879" d="M474.219,33.672a1.748,1.748,0,0,1-.326-.2,8.618,8.618,0,0,0-.925-.546,12.652,12.652,0,0,0-3.775-1.179,13.26,13.26,0,0,0-5.8.311,9.3,9.3,0,0,0-5.351,4.46,9.974,9.974,0,0,0-1.116,6.9,7.953,7.953,0,0,0,1.284,2.817,9.888,9.888,0,0,0,1.883,1.983,12.653,12.653,0,0,0,3.406,1.993c.872.335,1.385.446,1.375.479a2.118,2.118,0,0,1-.369-.077,9.665,9.665,0,0,1-1.059-.311,12.02,12.02,0,0,1-3.483-1.945,10.084,10.084,0,0,1-1.916-2,8.038,8.038,0,0,1-1.337-2.874,10.1,10.1,0,0,1,1.121-7.076,9.485,9.485,0,0,1,5.5-4.561,13.275,13.275,0,0,1,5.9-.263,11.977,11.977,0,0,1,3.8,1.255,7.308,7.308,0,0,1,.915.594,2.541,2.541,0,0,1,.278.235Z" transform="translate(-390.756 -30.88)" fill="#263238"/>
          <path id="Path_5880" data-name="Path 5880" d="M498,38.68a6.592,6.592,0,0,1,1.131.786,16.086,16.086,0,0,1,2.678,2.874,16.8,16.8,0,0,1,1.509,2.424,12.859,12.859,0,0,1,1.155,3.2,21.735,21.735,0,0,1,.211,3.895c.048,1.37.081,2.836.125,4.364.105,3.061.244,6.41.407,10.008,0,1.806,0,3.66-.029,5.581s0,3.89,0,5.916c0,8.091.172,16.992.522,26.349.675,18.684,2.055,35.542,3.267,47.725.623,6.094,1.174,11.019,1.571,14.415.2,1.7.359,3.013.479,3.914q.072.671.115,1.02a1.662,1.662,0,0,0,.029.35,1.608,1.608,0,0,0-.057-.345c-.057-.23-.077-.575-.139-1.016-.115-.905-.287-2.218-.508-3.909-.431-3.4-1.006-8.321-1.653-14.41-1.255-12.183-2.664-29.051-3.353-47.734-.35-9.337-.479-18.238-.479-26.349V71.817c0-1.916.048-3.78.043-5.572-.158-3.6-.283-6.951-.378-10.012-.043-1.528-.081-2.985-.105-4.364A20.133,20.133,0,0,0,504.348,48a12.672,12.672,0,0,0-1.121-3.171,17,17,0,0,0-1.48-2.419,16.8,16.8,0,0,0-2.635-2.908,5.122,5.122,0,0,0-.479-.374,4.085,4.085,0,0,0-.345-.254A3.212,3.212,0,0,1,498,38.68Z" transform="translate(-412.377 -34.686)" fill="#263238"/>
          <path id="Path_5881" data-name="Path 5881" d="M403.058,195.773s-.671,52.759-4.886,60.458l-74.332-.958,1.514-6.338,77.728-95.554Z" transform="translate(-321.651 -94.437)" fill="#e0e0e0"/>
          <path id="Path_5882" data-name="Path 5882" d="M400.829,88.72s-1.332,116.93-8.834,127.158H319.56s16.667-87.741,11.708-127.125Z" transform="translate(-319.421 -60.754)" fill="#f5f5f5"/>
          <path id="Path_5883" data-name="Path 5883" d="M401.456,88.72s-1.332,116.93-8.834,127.158H319.56s11.617-86.414,11.617-125.247" transform="translate(-319.421 -60.754)" fill="#254069"/>
          <path id="Path_5884" data-name="Path 5884" d="M331.026,90.616v2.443c0,.8,0,1.8-.043,2.98s-.024,2.544-.1,4.082c-.206,6.156-.695,15.1-1.562,26.291-1.787,22.368-5.083,53.655-9.773,89.47l-.12-.139h73.043l-.1.048a11.728,11.728,0,0,0,1.322-3.09c.307-1.087.58-2.18.8-3.282.479-2.2.81-4.4,1.121-6.587.613-4.374,1.059-8.69,1.437-12.935.762-8.465,1.279-16.585,1.71-24.279.838-15.392,1.317-29.074,1.667-40.476s.541-20.509.671-26.775c.057-3.128.105-5.548.139-7.186,0-.819.029-1.437.034-1.859s0-.632,0-.632v2.491c-.024,1.638-.057,4.058-.1,7.186-.105,6.266-.278,15.383-.6,26.78s-.786,25.089-1.614,40.481c-.422,7.7-.934,15.809-1.691,24.289-.388,4.235-.829,8.551-1.437,12.935-.311,2.189-.656,4.4-1.116,6.6-.225,1.107-.479,2.208-.81,3.3a11.752,11.752,0,0,1-1.356,3.167l-.034.053H319.27v-.139c4.7-35.8,8.029-67.069,9.854-89.451.891-11.181,1.4-20.121,1.638-26.277.081-1.538.1-2.9.12-4.082s.043-2.175.062-2.98.029-1.437.038-1.825A5.2,5.2,0,0,1,331.026,90.616Z" transform="translate(-319.27 -60.738)" fill="#263238"/>
          <path id="Path_5885" data-name="Path 5885" d="M413.575,79.554s-.163-8.144-8.144-8.144H350.29A8.992,8.992,0,0,0,344,80.134l49.262,3.785Z" transform="translate(-332.153 -51.736)" fill="#fafafa"/>
          <path id="Path_5886" data-name="Path 5886" d="M361.522,30.452h-.527a10.194,10.194,0,0,0-1.514.129,11.5,11.5,0,0,0-5.184,2.2,13.529,13.529,0,0,0-4.685,7.138,9.553,9.553,0,0,0,.216,5.183,10.372,10.372,0,0,0,1.2,2.549,11.286,11.286,0,0,0,1.854,2.271L352.8,49.9h14.08l29.52.1,8.949.057,2.429.029h-40.9l-14.08-.034h-.048l-.029-.029a11.892,11.892,0,0,1-1.916-2.323,11.068,11.068,0,0,1-1.212-2.606,9.778,9.778,0,0,1-.2-5.3,13.553,13.553,0,0,1,4.791-7.186,10.8,10.8,0,0,1,2.874-1.571,10.636,10.636,0,0,1,2.4-.594,8.781,8.781,0,0,1,1.523-.091,3.415,3.415,0,0,1,.537.105Z" transform="translate(-334.824 -30.343)" fill="#263238"/>
          <path id="Path_5887" data-name="Path 5887" d="M403.082,187v6.343c0,4.082-.038,9.993-.115,17.294s-.2,16-.517,25.644c-.163,4.824-.393,9.893-.881,15.124s-1.164,10.635-2.1,16.13c-.369,2.151-.762,4.268-1.193,6.252l-.024.1h-.077c-20.83-.048-39.413-.388-52.788-.618l-15.785-.316-4.273-.1-1.107-.034h1.111l4.268.057,15.809.24c13.376.182,31.958.479,52.783.537l-.12.1c.431-1.969.824-4.091,1.193-6.228.934-5.485,1.61-10.884,2.1-16.111s.728-10.286.9-15.11c.335-9.644.455-18.339.57-25.64s.148-13.2.2-17.289c0-2.036.034-3.622.043-4.7v-1.226C403.073,187.172,403.082,187,403.082,187Z" transform="translate(-321.651 -111.951)" fill="#263238"/>
          <path id="Path_5888" data-name="Path 5888" d="M471.686,99.3a46.948,46.948,0,0,1-6.836,0A46.948,46.948,0,0,1,471.686,99.3Z" transform="translate(-395.108 -66.203)" fill="#263238"/>
          <path id="Path_5889" data-name="Path 5889" d="M471.686,95.575a46.949,46.949,0,0,1-6.836,0,46.948,46.948,0,0,1,6.836,0Z" transform="translate(-395.108 -64.26)" fill="#263238"/>
          <path id="Path_5890" data-name="Path 5890" d="M471.686,91.865a46.948,46.948,0,0,1-6.836,0A46.948,46.948,0,0,1,471.686,91.865Z" transform="translate(-395.108 -62.327)" fill="#263238"/>
          <path id="Path_5891" data-name="Path 5891" d="M360.47,95.414h.556l1.509-.038-.043.043V93.694a.58.58,0,0,1,.508-.479h.719a.594.594,0,0,1,.479.584q0,.769,0,1.6l-.072-.067h1.916l-.072.072v-3a.613.613,0,0,0-.268-.45l-.834-.819-.79-.8-.393-.383c-.134-.129-.24-.263-.393-.292a.5.5,0,0,0-.436.081c-.115.1-.24.235-.355.35l-.685.69c-.426.446-.877.853-1.2,1.236a1.341,1.341,0,0,0-.1.714v2.692a1.327,1.327,0,0,1,0-.23V92.353a.8.8,0,0,1,.105-.4c.354-.431.771-.814,1.207-1.27l.676-.695c.125-.125.225-.24.369-.369a.647.647,0,0,1,.551-.105,1.02,1.02,0,0,1,.479.326l.388.383.81.79.834.819a1.668,1.668,0,0,1,.211.23.633.633,0,0,1,.1.321v3.076h-2.17V93.795a.479.479,0,0,0-.388-.479H363a.479.479,0,0,0-.407.374c0,.192,0,.412,0,.608v1.135h-1.979Z" transform="translate(-340.732 -61.157)" fill="#263238"/>
          <path id="Path_5892" data-name="Path 5892" d="M402.839,94.57h-.929v-.68h2.716v.68H403.7v2.347h-.858Z" transform="translate(-362.32 -63.447)" fill="#b0bec5"/>
          <path id="Path_5893" data-name="Path 5893" d="M409.565,96.338h-1.284l-.235.584h-.877l1.356-3.032h.843l1.341,3.028h-.891Zm-.254-.632-.388-.958-.388.958Z" transform="translate(-365.06 -63.447)" fill="#b0bec5"/>
          <path id="Path_5894" data-name="Path 5894" d="M414.59,96.612l.283-.632a1.916,1.916,0,0,0,1,.3c.355,0,.479-.1.479-.249,0-.479-1.72-.129-1.72-1.25,0-.541.441-.958,1.341-.958a2.213,2.213,0,0,1,1.1.263l-.263.632a1.8,1.8,0,0,0-.838-.23c-.359,0-.479.12-.479.268,0,.479,1.715.12,1.715,1.236,0,.527-.441.958-1.341.958A2.4,2.4,0,0,1,414.59,96.612Z" transform="translate(-368.925 -63.41)" fill="#b0bec5"/>
          <path id="Path_5895" data-name="Path 5895" d="M422.049,95.821l-.321.34v.757h-.848V93.89h.848v1.26l1.174-1.26h.958l-1.241,1.341,1.3,1.686h-1Z" transform="translate(-372.202 -63.447)" fill="#b0bec5"/>
          <path id="Path_5896" data-name="Path 5896" d="M427.09,96.612l.283-.632a1.916,1.916,0,0,0,1,.3c.354,0,.479-.1.479-.249,0-.479-1.725-.129-1.725-1.25,0-.541.441-.958,1.341-.958a2.232,2.232,0,0,1,1.1.263l-.263.632a1.82,1.82,0,0,0-.843-.23c-.359,0-.479.12-.479.268,0,.479,1.72.12,1.72,1.236,0,.527-.441.958-1.341.958A2.424,2.424,0,0,1,427.09,96.612Z" transform="translate(-375.437 -63.41)" fill="#b0bec5"/>
          <path id="Path_5897" data-name="Path 5897" d="M412.077,115.775c0,.067-15.464.125-34.531.125s-34.536-.057-34.536-.125,15.459-.125,34.536-.125S412.077,115.707,412.077,115.775Z" transform="translate(-331.637 -74.782)" fill="#e0e0e0"/>
          <path id="Path_5898" data-name="Path 5898" d="M413.322,165.575c0,.067-15.459.125-34.531.125s-34.531-.057-34.531-.125,15.455-.125,34.531-.125S413.322,165.5,413.322,165.575Z" transform="translate(-332.288 -100.725)" fill="#e0e0e0"/>
          <path id="Path_5899" data-name="Path 5899" d="M408.57,213.345c0,.067-16.111.125-35.978.125s-35.983-.057-35.983-.125,16.106-.125,35.983-.125S408.57,213.273,408.57,213.345Z" transform="translate(-328.303 -125.61)" fill="#e0e0e0"/>
          <path id="Path_5900" data-name="Path 5900" d="M404.576,259.915c0,.072-16.528.125-36.888.125s-36.888-.053-36.888-.125,16.518-.125,36.888-.125S404.576,259.847,404.576,259.915Z" transform="translate(-325.276 -149.87)" fill="#e0e0e0"/>
          <path id="Path_5901" data-name="Path 5901" d="M399.432,312.3c0,.072-16.59.125-37.046.125s-37.046-.053-37.046-.125,16.585-.125,37.046-.125S399.432,312.237,399.432,312.3Z" transform="translate(-322.432 -177.162)" fill="#e0e0e0"/>
          <path id="Path_5902" data-name="Path 5902" d="M363.793,141.5a.721.721,0,0,1,0-.158v-.436c0-.407,0-.958-.029-1.634,0-1.437-.029-3.4-.053-5.749l.11.105h-7.986l.125-.125h0v7.967l-.11-.105,5.749.053,1.634.029h.6a4,4,0,0,1-.556.029l-1.61.024-5.821.057h-.105v-8.077h0l.125-.125h8.091v.11c0,2.4-.043,4.388-.053,5.821,0,.671-.024,1.212-.029,1.61A1.726,1.726,0,0,1,363.793,141.5Z" transform="translate(-338.268 -84.008)" fill="#d2dff2"/>
          <path id="Path_5903" data-name="Path 5903" d="M424.171,140.765c0,.067-9.1.125-20.355.125s-20.355-.057-20.355-.125,9.1-.125,20.355-.125S424.171,140.693,424.171,140.765Z" transform="translate(-352.709 -87.801)" fill="#d2dff2"/>
          <path id="Path_5904" data-name="Path 5904" d="M404.462,147.365c0,.072-4.7.129-10.5.129s-10.5-.057-10.5-.129,4.7-.125,10.5-.125S404.462,147.3,404.462,147.365Z" transform="translate(-352.709 -91.239)" fill="#d2dff2"/>
          <path id="Path_5905" data-name="Path 5905" d="M366.378,124.888c.331.086-.3,3.569-1.7,7.665-.177.513-.355,1.011-.532,1.49l-.268.7-.134.34-.038.086a1.152,1.152,0,0,1-.072.158,1.436,1.436,0,0,1-.211.273,1.183,1.183,0,0,1-1.212.254,1.16,1.16,0,0,1-.479-.359l-.081-.12-.043-.077-.081-.144c-.2-.374-.374-.733-.522-1.059-.589-1.313-.819-2.175-.671-2.247s.671.647,1.437,1.82l.632.958.091.125.038.057h.038c.024,0,.057,0,.053-.034h0l.029-.081.115-.345c.077-.235.153-.479.235-.709l.479-1.485C364.874,128.1,366.033,124.8,366.378,124.888Z" transform="translate(-340.638 -79.594)" fill="#b0bec5"/>
          <path id="Path_5906" data-name="Path 5906" d="M361.931,191.707a1.148,1.148,0,0,1,0-.158v-.436q0-.613-.029-1.638c0-1.437-.034-3.392-.053-5.749l.105.105h-7.981l.125-.125h0v7.976l-.105-.105,5.749.053,1.634.029h.436a.633.633,0,0,1,.158,0,4.53,4.53,0,0,1-.551.024l-1.61.029-5.821.057h-.11v-8.087h0c-.115.11.149-.153.125-.125h8.063v.11c-.024,2.4-.043,4.383-.057,5.821q0,1.006-.029,1.61A3.524,3.524,0,0,1,361.931,191.707Z" transform="translate(-337.283 -110.157)" fill="#d2dff2"/>
          <path id="Path_5907" data-name="Path 5907" d="M422.346,190.965c0,.072-9.1.129-20.355.129s-20.36-.057-20.36-.129,9.1-.125,20.36-.125S422.346,190.917,422.346,190.965Z" transform="translate(-351.755 -113.952)" fill="#d2dff2"/>
          <path id="Path_5908" data-name="Path 5908" d="M359.388,238.434v-.594c0-.407,0-.958-.029-1.634,0-1.437-.029-3.4-.053-5.749l.105.105h-7.981l.125-.125h0v7.967l-.105-.105,5.749.053,1.634.029h.594a3.8,3.8,0,0,1-.551.029l-1.61.024-5.821.057h-.105v-8.077h0l.125-.125h8.091v.11c-.024,2.4-.043,4.383-.057,5.821,0,.671,0,1.212-.024,1.61a3.792,3.792,0,0,1-.086.6Z" transform="translate(-335.976 -134.502)" fill="#d2dff2"/>
          <path id="Path_5909" data-name="Path 5909" d="M419.731,237.695c0,.067-9.1.125-20.355.125s-20.355-.057-20.355-.125,9.1-.125,20.355-.125S419.731,237.623,419.731,237.695Z" transform="translate(-350.396 -138.295)" fill="#d2dff2"/>
          <path id="Path_5910" data-name="Path 5910" d="M355.318,287.882a.72.72,0,0,1,0-.158v-.436c0-.407,0-.958-.029-1.634,0-1.437-.034-3.4-.057-5.749l.11.105h-7.981c-.029.029.235-.235.12-.125h0v7.967l-.11-.105,5.749.053,1.634.029h.6a3.8,3.8,0,0,1-.551.029l-1.61.024-5.825.057h-.105v-8.077h0c-.11.11.153-.153.129-.125h8.091v.11c0,2.4-.038,4.388-.053,5.821,0,.671,0,1.212-.029,1.61a4.538,4.538,0,0,1-.081.6Z" transform="translate(-333.837 -160.26)" fill="#d2dff2"/>
          <path id="Path_5911" data-name="Path 5911" d="M415.726,287.145c0,.067-9.1.125-20.355.125s-20.36-.057-20.36-.125,9.1-.125,20.36-.125S415.726,287.073,415.726,287.145Z" transform="translate(-348.307 -164.055)" fill="#d2dff2"/>
          <path id="Path_5912" data-name="Path 5912" d="M352.953,334.841v-.6c0-.4,0-.958-.029-1.634,0-1.437-.029-3.392-.053-5.749l.105.11H345l.125-.125h0v7.976l-.11-.11,5.749.057,1.634.029h.594s-.182,0-.551.024l-1.61.029-5.821.053H344.9v-8.039h0l.125-.125h8.091v.125c-.024,2.4-.043,4.388-.053,5.821q0,1.016-.029,1.61A4.007,4.007,0,0,1,352.953,334.841Z" transform="translate(-332.622 -184.747)" fill="#d2dff2"/>
          <path id="Path_5913" data-name="Path 5913" d="M416.3,333.215c0,.067-9.1.125-20.355.125s-20.36-.057-20.36-.125,9.1-.125,20.36-.125S416.3,333.147,416.3,333.215Z" transform="translate(-348.604 -188.054)" fill="#d2dff2"/>
          <path id="Path_5914" data-name="Path 5914" d="M410.342,244.1c0,.072-7.162.125-16,.125s-16-.053-16-.125,7.186-.125,16-.125S410.342,244.038,410.342,244.1Z" transform="translate(-350.042 -141.634)" fill="#d2dff2"/>
          <path id="Path_5915" data-name="Path 5915" d="M388.534,295.2c0,.072-2.9.125-6.477.125s-6.477-.053-6.477-.125,2.9-.125,6.477-.125S388.534,295.138,388.534,295.2Z" transform="translate(-348.604 -168.254)" fill="#d2dff2"/>
          <path id="Path_5916" data-name="Path 5916" d="M420.755,30.625c0,.067-10.195.125-22.765.125s-22.77-.057-22.77-.125,10.195-.125,22.77-.125S420.755,30.557,420.755,30.625Z" transform="translate(-348.416 -30.425)" fill="#263238"/>
        </g>
        <g id="freepik--speech-bubble--inject-301" transform="translate(243.07 53.885)">
          <path id="Path_5917" data-name="Path 5917" d="M243.07,106.5l3.009-5.308a14.228,14.228,0,1,1,3.406,3.789h0Z" transform="translate(-243.07 -79.493)" fill="#fe7614"/>
          <path id="Path_5919" data-name="Path 5919" d="M259.75,104.681l1.988-1.988,3.833,3.406L273.1,98.86l1.844,1.983-9.653,9.088Z" transform="translate(-251.759 -89.577)" fill="#fff"/>
        </g>
      </g>
      <circle id="Ellipse_599" data-name="Ellipse 599" cx="2.5" cy="2.5" r="2.5" transform="translate(113 264)" fill="#1e64cc"/>
      <circle id="Ellipse_600" data-name="Ellipse 600" cx="4.5" cy="4.5" r="4.5" transform="translate(83 366)" fill="#1e64cc"/>
      <circle id="Ellipse_601" data-name="Ellipse 601" cx="7.5" cy="7.5" r="7.5" transform="translate(293 306)" fill="#fe7614"/>
    </g>
    <g id="Group_3234" data-name="Group 3234" transform="translate(4.012 -10.262)">
      <path id="Icon_ionic-ios-arrow-back" data-name="Icon ionic-ios-arrow-back" d="M15.217,17.7,23.926,9A1.645,1.645,0,1,0,21.6,6.674l-9.867,9.86a1.642,1.642,0,0,0-.048,2.268l9.908,9.929a1.645,1.645,0,0,0,2.33-2.323Z" transform="translate(362.579 30.069)" fill="#fff"/>
      <path id="Icon_ionic-ios-arrow-back-2" data-name="Icon ionic-ios-arrow-back" d="M3.967,11.506l8.709-8.7A1.645,1.645,0,1,0,10.346.481L.479,10.341a1.642,1.642,0,0,0-.048,2.268l9.908,9.929a1.645,1.645,0,1,0,2.33-2.323Z" transform="translate(377.472 59.28) rotate(180)" fill="#fff"/>
    </g>
    <text id="Session_3_De-addiction_stage" data-name="Session 3
De-addiction stage" transform="translate(21 26)" fill="#fff" font-size="16" font-family="ArialMT, Arial"><tspan x="0" y="14">Session 3</tspan><tspan font-size="24" font-family="Arial-BoldMT, Arial" font-weight="700"><tspan x="0" y="49">De-addiction stage</tspan></tspan></text>
    <g id="Component_119_308" data-name="Component 119 – 308" transform="translate(0 779.278)">
      <rect id="Rectangle_1927" data-name="Rectangle 1927" width="412" height="67" transform="translate(0 0.722)" fill="#102646"/>
      <path id="Path_4714" data-name="Path 4714" d="M1053,4508.186h411.151" transform="translate(-1053 -4508.186)" fill="none" stroke="#fff" stroke-width="2" opacity="0.206"/>
      <g id="Group_3096" data-name="Group 3096" transform="translate(-3 -997.186)">
        <text id="Next" transform="translate(318 1038)" fill="#f2f5f7" font-size="18" font-family="ArialMT, Arial"><tspan x="0" y="0">Next</tspan></text>
        <path id="Icon_ionic-ios-arrow-back-3" data-name="Icon ionic-ios-arrow-back" d="M14.033,14.264l6.109-6.1a1.154,1.154,0,0,0-1.634-1.629l-6.921,6.916a1.152,1.152,0,0,0-.034,1.591L18.5,22a1.154,1.154,0,1,0,1.634-1.629Z" transform="translate(389.251 1046.266) rotate(180)" fill="#f2f5f7"/>
      </g>
      <g id="Group_3224" data-name="Group 3224" transform="translate(2.529 7.076)">
        <g id="Group_3212" data-name="Group 3212" transform="translate(34.47 14.737)">
          <text id="Back" transform="translate(19.06 18)" fill="#fff" font-size="18" font-family="ArialMT, Arial"><tspan x="0" y="0">Back</tspan></text>
          <path id="Icon_ionic-ios-arrow-back-4" data-name="Icon ionic-ios-arrow-back" d="M14.033,14.264l6.109-6.1a1.154,1.154,0,0,0-1.634-1.629l-6.921,6.916a1.152,1.152,0,0,0-.034,1.591L18.5,22a1.154,1.154,0,1,0,1.634-1.629Z" transform="translate(-11.251 -3.193)" fill="#fff"/>
        </g>
      </g>
    </g>
  </g>
</svg>
