<svg xmlns="http://www.w3.org/2000/svg" xmlns:xlink="http://www.w3.org/1999/xlink" width="412" height="847" viewBox="0 0 412 847">
  <defs>
    <linearGradient id="linear-gradient" x1="0.5" x2="0.5" y2="1" gradientUnits="objectBoundingBox">
      <stop offset="0" stop-color="#37aadd"/>
      <stop offset="1" stop-color="#1f64cc"/>
    </linearGradient>
    <clipPath id="clip-path">
      <rect x="-20" width="412" height="609" fill="none"/>
    </clipPath>
    <linearGradient id="linear-gradient-2" x1="0.5" x2="0.5" y2="1" gradientUnits="objectBoundingBox">
      <stop offset="0" stop-color="#4b8ceb"/>
      <stop offset="1" stop-color="#1f64cc"/>
    </linearGradient>
    <clipPath id="clip-OCD_16">
      <rect width="412" height="847"/>
    </clipPath>
  </defs>
  <g id="OCD_16" data-name="OCD – 16" clip-path="url(#clip-OCD_16)">
    <rect width="412" height="847" fill="url(#linear-gradient)"/>
    <text id="Session_2_Questionnaire_-_11" data-name="Session 2
Questionnaire - 11" transform="translate(29 26)" fill="#fff" font-size="16" font-family="ArialMT, Arial"><tspan x="0" y="14">Session 2</tspan><tspan font-size="24" font-family="Arial-BoldMT, Arial" font-weight="700"><tspan x="0" y="49">Questionnaire - 11</tspan></tspan></text>
    <text id="Questions_1_44" data-name="Questions 1/44" transform="translate(29 113)" fill="#fff" font-size="14" font-family="ArialMT, Arial"><tspan x="0" y="13">Questions 1/44</tspan></text>
    <path id="Rectangle_1720" data-name="Rectangle 1720" d="M30,0H182a0,0,0,0,1,0,0V60a0,0,0,0,1,0,0H0a0,0,0,0,1,0,0V30A30,30,0,0,1,30,0Z" transform="translate(230 787)" fill="#1e64cc"/>
    <g id="Group_3096" data-name="Group 3096" transform="translate(-15 -213)">
      <text id="Next" transform="translate(310 1038)" fill="#f2f5f7" font-size="20" font-family="ArialMT, Arial"><tspan x="0" y="0">Next</tspan></text>
      <path id="Icon_ionic-ios-arrow-back" data-name="Icon ionic-ios-arrow-back" d="M14.033,14.264l6.109-6.1a1.154,1.154,0,0,0-1.634-1.629l-6.921,6.916a1.152,1.152,0,0,0-.034,1.591L18.5,22a1.154,1.154,0,1,0,1.634-1.629Z" transform="translate(389.251 1046.266) rotate(180)" fill="#f2f5f7"/>
    </g>
    <g id="Group_3076" data-name="Group 3076" transform="translate(-37.007 -291)">
      <rect id="Rectangle_1708" data-name="Rectangle 1708" width="349" height="5" rx="2.5" transform="translate(66.007 391)" fill="#dce9f5"/>
      <rect id="Rectangle_1709" data-name="Rectangle 1709" width="57" height="5" rx="2.5" transform="translate(66.007 391)" fill="#254069"/>
    </g>
    <g id="Group_3234" data-name="Group 3234" transform="translate(-4.848 -10.263)">
      <path id="Icon_ionic-ios-arrow-back-2" data-name="Icon ionic-ios-arrow-back" d="M15.217,17.7,23.926,9A1.645,1.645,0,1,0,21.6,6.674l-9.867,9.86a1.642,1.642,0,0,0-.048,2.268l9.908,9.929a1.645,1.645,0,0,0,2.33-2.323Z" transform="translate(362.579 30.069)" fill="#254069"/>
      <path id="Icon_ionic-ios-arrow-back-3" data-name="Icon ionic-ios-arrow-back" d="M3.967,11.506l8.709-8.7A1.645,1.645,0,1,0,10.346.481L.479,10.341a1.642,1.642,0,0,0-.048,2.268l9.908,9.929a1.645,1.645,0,1,0,2.33-2.323Z" transform="translate(377.472 59.28) rotate(180)" fill="#254069"/>
    </g>
    <g id="Scroll_Group_11" data-name="Scroll Group 11" transform="translate(20 155)" clip-path="url(#clip-path)" style="isolation: isolate">
      <g id="Group_3327" data-name="Group 3327" transform="translate(-20 -155)">
        <g id="Group_3078" data-name="Group 3078" transform="translate(-7408 -10082)">
          <rect id="Rectangle_1710" data-name="Rectangle 1710" width="372" height="609" rx="15" transform="translate(7428 10237)" fill="#102646"/>
          <text id="Have_you_continued_your_drug_use_despite_knowledge_of_developing_a_persistent_or_recurring_physical_or_psychological_problem_" data-name="Have you continued your drug use despite knowledge of developing a persistent or recurring physical or psychological problem? " transform="translate(7456 10262)" fill="#fff" font-size="18" font-family="ArialMT, Arial"><tspan x="0" y="16">Have you continued your drug use </tspan><tspan x="0" y="46">despite knowledge of developing a </tspan><tspan x="0" y="76">persistent or recurring physical or </tspan><tspan x="0" y="106">psychological problem? </tspan></text>
        </g>
        <g id="Component_120_1" data-name="Component 120 – 1" transform="translate(47 571)">
          <rect id="Rectangle_1812" data-name="Rectangle 1812" width="83" height="84" rx="10" fill="#edf4fd"/>
          <g id="Group_3314" data-name="Group 3314" transform="translate(12.193 19.15)">
            <circle id="Ellipse_619" data-name="Ellipse 619" cx="9.864" cy="9.864" r="9.864" transform="translate(33.128 26.186) rotate(-72.081)" fill="#fff"/>
            <circle id="Ellipse_620" data-name="Ellipse 620" cx="9.864" cy="9.864" r="9.864" transform="matrix(0.231, -0.973, 0.973, 0.231, 1.223, 27.151)" fill="#fff"/>
            <path id="Path_6656" data-name="Path 6656" d="M223.747,215.621a9.862,9.862,0,0,1-14.083,13.343,9.862,9.862,0,1,0,14.083-13.343Z" transform="translate(-204.846 -203.75)" fill="#efefef"/>
            <path id="Path_6657" data-name="Path 6657" d="M474.433,215.621a9.862,9.862,0,0,1-14.083,13.343,9.862,9.862,0,1,0,14.083-13.343Z" transform="translate(-423.085 -203.75)" fill="#efefef"/>
            <g id="Group_3309" data-name="Group 3309" transform="translate(2.783 9.519)">
              <path id="Path_6658" data-name="Path 6658" d="M204.266,218.078a10.317,10.317,0,1,1,10.317-10.316A10.328,10.328,0,0,1,204.266,218.078Zm0-19.727a9.411,9.411,0,1,0,9.41,9.411A9.421,9.421,0,0,0,204.266,198.351Z" transform="translate(-193.949 -197.445)" fill="#1e64cc"/>
            </g>
            <circle id="Ellipse_621" data-name="Ellipse 621" cx="4.779" cy="4.779" r="4.779" transform="matrix(0.612, -0.791, 0.791, 0.612, 6.396, 22.102)" fill="#1e64cc"/>
            <circle id="Ellipse_622" data-name="Ellipse 622" cx="1.956" cy="1.956" r="1.956" transform="translate(9.971 18.424)" fill="#fff"/>
            <g id="Group_3310" data-name="Group 3310" transform="translate(35.231 9.519)">
              <path id="Path_6659" data-name="Path 6659" d="M454.952,218.078a10.317,10.317,0,1,1,10.316-10.316A10.328,10.328,0,0,1,454.952,218.078Zm0-19.727a9.411,9.411,0,1,0,9.41,9.411A9.421,9.421,0,0,0,454.952,198.351Z" transform="translate(-444.635 -197.445)" fill="#1e64cc"/>
            </g>
            <circle id="Ellipse_623" data-name="Ellipse 623" cx="4.779" cy="4.779" r="4.779" transform="translate(38.79 21.247) rotate(-45)" fill="#1e64cc"/>
            <circle id="Ellipse_624" data-name="Ellipse 624" cx="1.956" cy="1.956" r="1.956" transform="translate(42.419 18.424)" fill="#fff"/>
            <path id="Path_6660" data-name="Path 6660" d="M172.922,132.021c1.67,1.919,3.166-1.55,8.336-2.638,4.311-.908,7.006,1.251,7.755-.381s-2.687-3.9-9.033-2.9C175.257,126.846,170.983,129.793,172.922,132.021Z" transform="translate(-172.443 -125.601)" fill="#1e64cc"/>
            <path id="Path_6661" data-name="Path 6661" d="M513.405,130.633c-1.772,1.826-3.077-1.72-8.18-3.089-4.255-1.141-7.064.868-7.723-.8s2.9-3.752,9.178-2.4C511.355,125.339,515.462,128.514,513.405,130.633Z" transform="translate(-455.361 -123.904)" fill="#1e64cc"/>
            <g id="Group_3311" data-name="Group 3311" transform="translate(12.453 35.651)">
              <path id="Path_6662" data-name="Path 6662" d="M285.647,409.132h-.021a20.844,20.844,0,0,1-12.637-4.25,19.385,19.385,0,0,1-4.228-4.272.647.647,0,0,1,1.08-.714,18.5,18.5,0,0,0,3.97,3.984,19.559,19.559,0,0,0,11.817,3.957h.02a20.073,20.073,0,0,0,12.429-4.077,16.848,16.848,0,0,0,3.9-4.11.647.647,0,0,1,1.112.663,17.762,17.762,0,0,1-4.173,4.436A21.349,21.349,0,0,1,285.647,409.132Z" transform="translate(-268.653 -399.335)" fill="#1e64cc"/>
            </g>
            <g id="Group_3312" data-name="Group 3312" transform="translate(10.053 34.05)">
              <path id="Path_6663" data-name="Path 6663" d="M250.741,390.516a3.743,3.743,0,0,1,2.407-2.908c.415-.126.479-.725-.172-.624a4.6,4.6,0,0,0-2.859,3.36.332.332,0,0,0,.226.4.327.327,0,0,0,.4-.226Z" transform="translate(-250.11 -386.973)" fill="#1e64cc"/>
            </g>
            <g id="Group_3313" data-name="Group 3313" transform="translate(46.242 33.868)">
              <path id="Path_6664" data-name="Path 6664" d="M529.94,386.2a3.112,3.112,0,0,1,1.924,3.331.333.333,0,0,0,.226.4.326.326,0,0,0,.4-.226,3.774,3.774,0,0,0-2.376-4.128.327.327,0,0,0-.4.226.331.331,0,0,0,.226.4Z" transform="translate(-529.702 -385.563)" fill="#1e64cc"/>
            </g>
          </g>
        </g>
        <g id="Component_119_30" data-name="Component 119 – 30" transform="translate(164 571)">
          <rect id="Rectangle_1813" data-name="Rectangle 1813" width="83" height="84" rx="10" fill="#edf4fd"/>
          <g id="Group_3320" data-name="Group 3320" transform="translate(12.555 15.045)">
            <circle id="Ellipse_625" data-name="Ellipse 625" cx="9.864" cy="9.864" r="9.864" transform="translate(34.531 34.129) rotate(-76.718)" fill="#fff"/>
            <circle id="Ellipse_626" data-name="Ellipse 626" cx="9.864" cy="9.864" r="9.864" transform="translate(0 26.795) rotate(-45)" fill="#fff"/>
            <path id="Path_6665" data-name="Path 6665" d="M829.747,238.667a9.862,9.862,0,0,1-14.083,13.343,9.862,9.862,0,1,0,14.083-13.343Z" transform="translate(-809.997 -219.836)" fill="#efefef"/>
            <path id="Path_6666" data-name="Path 6666" d="M1080.433,238.667a9.862,9.862,0,0,1-14.083,13.343,9.862,9.862,0,1,0,14.083-13.343Z" transform="translate(-1028.235 -219.836)" fill="#efefef"/>
            <g id="Group_3315" data-name="Group 3315" transform="translate(3.633 16.479)">
              <path id="Path_6667" data-name="Path 6667" d="M810.266,241.125a10.317,10.317,0,1,1,10.317-10.317A10.328,10.328,0,0,1,810.266,241.125Zm0-19.727a9.411,9.411,0,1,0,9.411,9.41A9.421,9.421,0,0,0,810.266,221.4Z" transform="translate(-799.949 -220.492)" fill="#1e64cc"/>
            </g>
            <circle id="Ellipse_627" data-name="Ellipse 627" cx="4.779" cy="4.779" r="4.779" transform="translate(6.127 18.139)" fill="#1e64cc"/>
            <path id="Path_6668" data-name="Path 6668" d="M835.871,250.386a1.956,1.956,0,1,1-1.956-1.956A1.956,1.956,0,0,1,835.871,250.386Z" transform="translate(-824.183 -228.335)" fill="#fff"/>
            <g id="Group_3316" data-name="Group 3316" transform="translate(36.081 16.479)">
              <path id="Path_6669" data-name="Path 6669" d="M1060.951,241.125a10.317,10.317,0,1,1,10.317-10.317A10.328,10.328,0,0,1,1060.951,241.125Zm0-19.727a9.411,9.411,0,1,0,9.411,9.41A9.421,9.421,0,0,0,1060.951,221.4Z" transform="translate(-1050.635 -220.492)" fill="#1e64cc"/>
            </g>
            <circle id="Ellipse_628" data-name="Ellipse 628" cx="4.779" cy="4.779" r="4.779" transform="translate(38.999 17.952)" fill="#1e64cc"/>
            <circle id="Ellipse_629" data-name="Ellipse 629" cx="1.956" cy="1.956" r="1.956" transform="translate(40.649 19.908)" fill="#fff"/>
            <path id="Path_6670" data-name="Path 6670" d="M800.333,103.9c1.948,1.335,1.923-2.347,5.555-4.824,3.028-2.065,5.853-.794,5.875-2.539s-3.413-2.914-7.986-.187C800.375,98.379,798.072,102.35,800.333,103.9Z" transform="translate(-795.865 -94.528)" fill="#1e64cc"/>
            <path id="Path_6671" data-name="Path 6671" d="M1129.874,102.779c-2.039,1.252-1.94-2.445-5.643-5.1-3.088-2.212-6.031-1.064-6.019-2.818s3.585-2.771,8.254.177C1129.94,97.233,1132.241,101.327,1129.874,102.779Z" transform="translate(-1073.385 -93.175)" fill="#1e64cc"/>
            <g id="Group_3317" data-name="Group 3317" transform="translate(13.303 41.956)">
              <path id="Path_6672" data-name="Path 6672" d="M909.213,430.088a.646.646,0,0,1-.495-.23,33.272,33.272,0,0,0-5.36-4.763,34.473,34.473,0,0,0-14.519-6.216c-8.266-1.328-13.05,2.967-13.1,3.01a.647.647,0,0,1-.879-.95c.211-.2,5.264-4.772,14.182-3.338a35.784,35.784,0,0,1,15.107,6.47,33.836,33.836,0,0,1,5.556,4.952.647.647,0,0,1-.494,1.065Z" transform="translate(-874.655 -417.324)" fill="#1e64cc"/>
            </g>
            <g id="Group_3318" data-name="Group 3318" transform="translate(10.772 44.93)">
              <path id="Path_6673" data-name="Path 6673" d="M855.344,440.541a3.932,3.932,0,0,0,1.133,4.284,3.613,3.613,0,0,0,1.176.68.324.324,0,0,0,.172-.624,3.27,3.27,0,0,1-1.857-4.168.326.326,0,0,0-.226-.4.331.331,0,0,0-.4.226Z" transform="translate(-855.106 -440.303)" fill="#1e64cc"/>
            </g>
            <g id="Group_3319" data-name="Group 3319" transform="translate(47.011 51.176)">
              <path id="Path_6674" data-name="Path 6674" d="M1135.455,494.288a4.746,4.746,0,0,0,3.235-3.894,5.25,5.25,0,0,0,.013-1.616.3.3,0,0,0-.372-.211.311.311,0,0,0-.211.372,4.606,4.606,0,0,1-1.7,4.229,3.19,3.19,0,0,1-1.121.537.3.3,0,0,0,.161.583Z" transform="translate(-1135.079 -488.556)" fill="#1e64cc"/>
            </g>
          </g>
        </g>
        <g id="Component_118_50" data-name="Component 118 – 50" transform="translate(282 571)">
          <rect id="Rectangle_1814" data-name="Rectangle 1814" width="83" height="84" rx="10" fill="#edf4fd"/>
          <g id="Group_3326" data-name="Group 3326" transform="translate(12.806 15.043)">
            <circle id="Ellipse_630" data-name="Ellipse 630" cx="9.778" cy="9.778" r="9.778" transform="matrix(0.161, -0.987, 0.987, 0.161, 33.247, 36.937)" fill="#fff"/>
            <circle id="Ellipse_631" data-name="Ellipse 631" cx="9.778" cy="9.778" r="9.778" transform="matrix(0.231, -0.973, 0.973, 0.231, 0.532, 36.112)" fill="#fff"/>
            <path id="Path_6675" data-name="Path 6675" d="M217.817,830.5a9.776,9.776,0,0,1-13.961,13.227A9.777,9.777,0,1,0,217.817,830.5Z" transform="translate(-199.761 -809.535)" fill="#efefef"/>
            <path id="Path_6676" data-name="Path 6676" d="M468.5,830.5a9.776,9.776,0,0,1-13.961,13.227A9.777,9.777,0,1,0,468.5,830.5Z" transform="translate(-418.282 -809.535)" fill="#efefef"/>
            <g id="Group_3321" data-name="Group 3321" transform="translate(2.079 18.633)">
              <path id="Path_6677" data-name="Path 6677" d="M198.368,832.778a10.227,10.227,0,1,1,10.227-10.227A10.238,10.238,0,0,1,198.368,832.778Zm0-19.555a9.328,9.328,0,1,0,9.328,9.328A9.339,9.339,0,0,0,198.368,813.223Z" transform="translate(-188.141 -812.325)" fill="#1e64cc"/>
            </g>
            <path id="Path_6678" data-name="Path 6678" d="M240.507,894.066a4.737,4.737,0,1,1-4.737-4.737A4.737,4.737,0,0,1,240.507,894.066Z" transform="translate(-223.451 -860.815)" fill="#1e64cc"/>
            <path id="Path_6679" data-name="Path 6679" d="M247.654,906.377a1.939,1.939,0,1,1-1.939-1.939A1.939,1.939,0,0,1,247.654,906.377Z" transform="translate(-234.56 -873.986)" fill="#fff"/>
            <g id="Group_3322" data-name="Group 3322" transform="translate(34.244 18.633)">
              <path id="Path_6680" data-name="Path 6680" d="M449.054,832.778a10.227,10.227,0,1,1,10.227-10.227A10.238,10.238,0,0,1,449.054,832.778Zm0-19.555a9.328,9.328,0,1,0,9.328,9.328A9.339,9.339,0,0,0,449.054,813.223Z" transform="translate(-438.827 -812.325)" fill="#1e64cc"/>
            </g>
            <circle id="Ellipse_632" data-name="Ellipse 632" cx="4.737" cy="4.737" r="4.737" transform="translate(38.836 36.874) rotate(-77.741)" fill="#1e64cc"/>
            <path id="Path_6681" data-name="Path 6681" d="M498.233,906.377a1.939,1.939,0,1,1-1.939-1.939A1.939,1.939,0,0,1,498.233,906.377Z" transform="translate(-452.987 -873.986)" fill="#fff"/>
            <path id="Path_6682" data-name="Path 6682" d="M172.721,679.682c2.058,1.458,2.688-2.234,7.413-4.492,3.94-1.883,7.042-.434,7.381-2.181s-3.5-3.132-9.381-.681C173.76,674.151,170.333,677.989,172.721,679.682Z" transform="translate(-171.937 -670.503)" fill="#1e64cc"/>
            <path id="Path_6683" data-name="Path 6683" d="M512.87,676.214c-2.186,1.568-2.92-2.346-8.029-4.7-4.26-1.961-7.567-.392-7.958-2.245s3.711-3.36,10.061-.815C511.669,670.351,515.408,674.393,512.87,676.214Z" transform="translate(-455.168 -667.106)" fill="#1e64cc"/>
            <g id="Group_3323" data-name="Group 3323" transform="translate(12.44 45.802)">
              <path id="Path_6684" data-name="Path 6684" d="M299.757,1032.672a.642.642,0,0,1-.549-.308,13.76,13.76,0,0,0-3.189-3.275,19,19,0,0,0-10.484-3.7c-9.661-.58-15.435,6.951-15.492,7.028a.641.641,0,0,1-1.026-.771,20.191,20.191,0,0,1,4.377-4.011,19.419,19.419,0,0,1,12.218-3.526,20.254,20.254,0,0,1,11.236,4,14.69,14.69,0,0,1,3.457,3.589.642.642,0,0,1-.547.976Z" transform="translate(-268.889 -1024.074)" fill="#1e64cc"/>
            </g>
            <g id="Group_3324" data-name="Group 3324" transform="translate(9.95 51.028)">
              <path id="Path_6685" data-name="Path 6685" d="M250.394,1064.954a6.143,6.143,0,0,0-.465,5.5.331.331,0,0,0,.395.224.323.323,0,0,0,.224-.395,5.54,5.54,0,0,1,.4-5.008c.218-.352-.336-.674-.554-.324Z" transform="translate(-249.486 -1064.803)" fill="#1e64cc"/>
            </g>
            <g id="Group_3325" data-name="Group 3325" transform="translate(44.25 51.138)">
              <path id="Path_6686" data-name="Path 6686" d="M516.905,1066.2a4.652,4.652,0,0,1,1.179,4.659c-.123.4.5.564.619.171a5.3,5.3,0,0,0-1.344-5.283c-.3-.288-.75.165-.454.454Z" transform="translate(-516.809 -1065.658)" fill="#1e64cc"/>
            </g>
          </g>
        </g>
        <text id="Never_or_almost_never" data-name="Never or almost never" transform="translate(38.277 667.184)" fill="#fff" font-size="14" font-family="ArialMT, Arial"><tspan x="18.162" y="13">Never Or </tspan><tspan x="6.49" y="29">Almost Never</tspan></text>
        <text id="Sometimes" transform="translate(157.5 667.184)" fill="#fff" font-size="14" font-family="ArialMT, Arial"><tspan x="13.49" y="13">Sometimes</tspan></text>
        <text id="Many_times_Almost_always" data-name="Many times/Almost always" transform="translate(280.5 667.184)" fill="#fff" font-size="14" font-family="ArialMT, Arial"><tspan x="8.824" y="13">Many Times/</tspan><tspan x="3.376" y="29">Almost Always</tspan></text>
      </g>
      <g id="Group_3328" data-name="Group 3328" transform="translate(359 -133.718)">
        <g id="Group_3078-2" data-name="Group 3078" transform="translate(20 155)">
          <rect id="Rectangle_1710-2" data-name="Rectangle 1710" width="346" height="567" rx="15" transform="translate(0 -0.282)" fill="#254069"/>
          <text id="Have_you_continued_your_drug_use_despite_knowledge_of_developing_a_persistent_or_recurring_physical_or_psychological_problem_2" data-name="Have you continued your drug use despite knowledge of developing a persistent or recurring physical or psychological problem? " transform="translate(26 23.719)" fill="#fff" font-size="18" font-family="ArialMT, Arial"><tspan x="0" y="16">Have you continued your drug use </tspan><tspan x="0" y="46">despite knowledge of developing a </tspan><tspan x="0" y="76">persistent or recurring physical or </tspan><tspan x="0" y="106">psychological problem? </tspan></text>
        </g>
        <rect id="Rectangle_1812-2" data-name="Rectangle 1812" width="77" height="78" rx="10" transform="translate(45 541.718)" fill="url(#linear-gradient-2)"/>
        <rect id="Rectangle_1813-2" data-name="Rectangle 1813" width="77" height="78" rx="10" transform="translate(154 541.718)" fill="#edf4fd"/>
        <rect id="Rectangle_1814-2" data-name="Rectangle 1814" width="77" height="78" rx="10" transform="translate(264 541.718)" fill="#edf4fd"/>
        <g id="Group_3314-2" data-name="Group 3314" transform="translate(56.453 559.737)">
          <circle id="Ellipse_619-2" data-name="Ellipse 619" cx="9.174" cy="9.174" r="9.174" transform="translate(30.813 24.356) rotate(-72.081)" fill="#fff"/>
          <circle id="Ellipse_620-2" data-name="Ellipse 620" cx="9.174" cy="9.174" r="9.174" transform="matrix(0.231, -0.973, 0.973, 0.231, 1.138, 25.253)" fill="#fff"/>
          <path id="Path_6656-2" data-name="Path 6656" d="M222.763,215.621a9.172,9.172,0,0,1-13.1,12.41,9.173,9.173,0,1,0,13.1-12.41Z" transform="translate(-205.183 -204.579)" fill="#efefef"/>
          <path id="Path_6657-2" data-name="Path 6657" d="M473.449,215.621a9.173,9.173,0,0,1-13.1,12.41,9.173,9.173,0,1,0,13.1-12.41Z" transform="translate(-425.689 -204.579)" fill="#efefef"/>
          <g id="Group_3309-2" data-name="Group 3309" transform="translate(2.589 8.854)">
            <path id="Path_6658-2" data-name="Path 6658" d="M203.545,216.636a9.6,9.6,0,1,1,9.6-9.6A9.606,9.606,0,0,1,203.545,216.636Zm0-18.348a8.753,8.753,0,1,0,8.753,8.753A8.763,8.763,0,0,0,203.545,198.288Z" transform="translate(-193.949 -197.445)" fill="#fff"/>
          </g>
          <circle id="Ellipse_621-2" data-name="Ellipse 621" cx="4.445" cy="4.445" r="4.445" transform="matrix(0.612, -0.791, 0.791, 0.612, 5.949, 20.557)" fill="#254069"/>
          <circle id="Ellipse_622-2" data-name="Ellipse 622" cx="1.819" cy="1.819" r="1.819" transform="translate(9.274 17.136)" fill="#fff"/>
          <g id="Group_3310-2" data-name="Group 3310" transform="translate(32.769 8.854)">
            <path id="Path_6659-2" data-name="Path 6659" d="M454.231,216.636a9.6,9.6,0,1,1,9.6-9.6A9.606,9.606,0,0,1,454.231,216.636Zm0-18.348a8.753,8.753,0,1,0,8.753,8.753A8.763,8.763,0,0,0,454.231,198.288Z" transform="translate(-444.635 -197.445)" fill="#fff"/>
          </g>
          <circle id="Ellipse_623-2" data-name="Ellipse 623" cx="4.445" cy="4.445" r="4.445" transform="translate(36.079 19.762) rotate(-45)" fill="#254069"/>
          <circle id="Ellipse_624-2" data-name="Ellipse 624" cx="1.819" cy="1.819" r="1.819" transform="translate(39.454 17.136)" fill="#fff"/>
          <path id="Path_6660-2" data-name="Path 6660" d="M172.888,131.59c1.553,1.785,2.945-1.442,7.754-2.454,4.01-.844,6.517,1.164,7.213-.355s-2.5-3.632-8.4-2.7C175.06,126.777,171.085,129.517,172.888,131.59Z" transform="translate(-172.443 -125.618)" fill="#fff"/>
          <path id="Path_6661-2" data-name="Path 6661" d="M512.288,130.162c-1.648,1.7-2.862-1.6-7.608-2.873-3.958-1.061-6.571.807-7.183-.747s2.693-3.49,8.537-2.236C510.382,125.238,514.2,128.191,512.288,130.162Z" transform="translate(-458.301 -123.903)" fill="#fff"/>
          <g id="Group_3311-2" data-name="Group 3311" transform="translate(11.583 33.159)">
            <path id="Path_6662-2" data-name="Path 6662" d="M284.459,408.447h-.019a19.387,19.387,0,0,1-11.754-3.953,18.031,18.031,0,0,1-3.933-3.973.6.6,0,0,1,1-.664,17.207,17.207,0,0,0,3.692,3.705,18.192,18.192,0,0,0,10.991,3.681h.018a18.67,18.67,0,0,0,11.56-3.792,15.669,15.669,0,0,0,3.627-3.823.6.6,0,0,1,1.034.617,16.52,16.52,0,0,1-3.882,4.126A19.856,19.856,0,0,1,284.459,408.447Z" transform="translate(-268.653 -399.335)" fill="#fff"/>
          </g>
          <g id="Group_3312-2" data-name="Group 3312" transform="translate(9.35 31.671)">
            <path id="Path_6663-2" data-name="Path 6663" d="M250.7,390.269a3.481,3.481,0,0,1,2.238-2.7c.386-.117.445-.674-.16-.58a4.278,4.278,0,0,0-2.659,3.125.309.309,0,0,0,.21.37.3.3,0,0,0,.37-.21Z" transform="translate(-250.11 -386.973)" fill="#fff"/>
          </g>
          <g id="Group_3313-2" data-name="Group 3313" transform="translate(43.01 31.501)">
            <path id="Path_6664-2" data-name="Path 6664" d="M529.923,386.157a2.9,2.9,0,0,1,1.789,3.1.31.31,0,0,0,.21.37.3.3,0,0,0,.37-.21,3.51,3.51,0,0,0-2.21-3.839.3.3,0,0,0-.37.21.308.308,0,0,0,.21.37Z" transform="translate(-529.702 -385.563)" fill="#fff"/>
          </g>
        </g>
        <g id="Group_3320-2" data-name="Group 3320" transform="translate(165.613 555.918)">
          <circle id="Ellipse_625-2" data-name="Ellipse 625" cx="9.174" cy="9.174" r="9.174" transform="translate(32.118 31.744) rotate(-76.718)" fill="#fff"/>
          <circle id="Ellipse_626-2" data-name="Ellipse 626" cx="9.174" cy="9.174" r="9.174" transform="translate(0 24.923) rotate(-45)" fill="#fff"/>
          <path id="Path_6665-2" data-name="Path 6665" d="M828.763,238.667a9.173,9.173,0,0,1-13.1,12.411,9.173,9.173,0,1,0,13.1-12.411Z" transform="translate(-810.393 -221.151)" fill="#efefef"/>
          <path id="Path_6666-2" data-name="Path 6666" d="M1079.449,238.667a9.172,9.172,0,0,1-13.1,12.411,9.173,9.173,0,1,0,13.1-12.411Z" transform="translate(-1030.9 -221.151)" fill="#efefef"/>
          <g id="Group_3315-2" data-name="Group 3315" transform="translate(3.379 15.328)">
            <path id="Path_6667-2" data-name="Path 6667" d="M809.544,239.683a9.6,9.6,0,1,1,9.6-9.6A9.606,9.606,0,0,1,809.544,239.683Zm0-18.348a8.753,8.753,0,1,0,8.753,8.753A8.763,8.763,0,0,0,809.544,221.335Z" transform="translate(-799.949 -220.492)" fill="#1e64cc"/>
          </g>
          <circle id="Ellipse_627-2" data-name="Ellipse 627" cx="4.445" cy="4.445" r="4.445" transform="translate(5.698 16.872)" fill="#1e64cc"/>
          <path id="Path_6668-2" data-name="Path 6668" d="M835.6,250.249a1.819,1.819,0,1,1-1.819-1.819A1.819,1.819,0,0,1,835.6,250.249Z" transform="translate(-824.727 -229.739)" fill="#fff"/>
          <g id="Group_3316-2" data-name="Group 3316" transform="translate(33.559 15.328)">
            <path id="Path_6669-2" data-name="Path 6669" d="M1060.23,239.683a9.6,9.6,0,1,1,9.6-9.6A9.606,9.606,0,0,1,1060.23,239.683Zm0-18.348a8.753,8.753,0,1,0,8.753,8.753A8.763,8.763,0,0,0,1060.23,221.335Z" transform="translate(-1050.635 -220.492)" fill="#1e64cc"/>
          </g>
          <circle id="Ellipse_628-2" data-name="Ellipse 628" cx="4.445" cy="4.445" r="4.445" transform="translate(36.273 16.698)" fill="#1e64cc"/>
          <circle id="Ellipse_629-2" data-name="Ellipse 629" cx="1.819" cy="1.819" r="1.819" transform="translate(37.808 18.517)" fill="#fff"/>
          <path id="Path_6670-2" data-name="Path 6670" d="M800.27,103.258c1.812,1.241,1.789-2.183,5.167-4.487,2.817-1.921,5.444-.738,5.464-2.362s-3.175-2.711-7.427-.174C800.309,98.124,798.167,101.818,800.27,103.258Z" transform="translate(-796.115 -94.541)" fill="#1e64cc"/>
          <path id="Path_6671-2" data-name="Path 6671" d="M1129.059,102.108c-1.9,1.164-1.8-2.274-5.249-4.742-2.872-2.058-5.609-.99-5.6-2.621s3.334-2.578,7.677.164C1129.12,96.949,1131.261,100.757,1129.059,102.108Z" transform="translate(-1076.518 -93.174)" fill="#1e64cc"/>
          <g id="Group_3317-2" data-name="Group 3317" transform="translate(12.373 39.024)">
            <path id="Path_6672-2" data-name="Path 6672" d="M906.8,429.2a.6.6,0,0,1-.46-.214,30.948,30.948,0,0,0-4.986-4.43,32.063,32.063,0,0,0-13.5-5.782c-7.688-1.235-12.138,2.759-12.182,2.8a.6.6,0,0,1-.818-.884c.2-.182,4.9-4.439,13.191-3.1A33.283,33.283,0,0,1,902.09,423.6a31.471,31.471,0,0,1,5.167,4.606.6.6,0,0,1-.46.99Z" transform="translate(-874.655 -417.324)" fill="#1e64cc"/>
          </g>
          <g id="Group_3318-2" data-name="Group 3318" transform="translate(10.019 41.79)">
            <path id="Path_6673-2" data-name="Path 6673" d="M855.327,440.525a3.658,3.658,0,0,0,1.054,3.984,3.36,3.36,0,0,0,1.094.633.3.3,0,0,0,.16-.581,3.041,3.041,0,0,1-1.727-3.876.3.3,0,0,0-.21-.37.308.308,0,0,0-.37.21Z" transform="translate(-855.106 -440.303)" fill="#1e64cc"/>
          </g>
          <g id="Group_3319-2" data-name="Group 3319" transform="translate(43.725 47.6)">
            <path id="Path_6674-2" data-name="Path 6674" d="M1135.429,493.887a4.414,4.414,0,0,0,3.009-3.622,4.881,4.881,0,0,0,.012-1.5.283.283,0,0,0-.346-.2.289.289,0,0,0-.2.346,4.284,4.284,0,0,1-1.586,3.934,2.967,2.967,0,0,1-1.042.5.282.282,0,0,0,.15.542Z" transform="translate(-1135.079 -488.556)" fill="#1e64cc"/>
          </g>
        </g>
        <g id="Group_3326-2" data-name="Group 3326" transform="translate(275.599 555.917)">
          <circle id="Ellipse_630-2" data-name="Ellipse 630" cx="9.094" cy="9.094" r="9.094" transform="matrix(0.161, -0.987, 0.987, 0.161, 30.923, 34.354)" fill="#fff"/>
          <circle id="Ellipse_631-2" data-name="Ellipse 631" cx="9.094" cy="9.094" r="9.094" transform="matrix(0.231, -0.973, 0.973, 0.231, 0.495, 33.587)" fill="#fff"/>
          <path id="Path_6675-2" data-name="Path 6675" d="M216.841,830.5a9.093,9.093,0,0,1-12.985,12.3,9.093,9.093,0,1,0,12.985-12.3Z" transform="translate(-200.047 -811.001)" fill="#efefef"/>
          <path id="Path_6676-2" data-name="Path 6676" d="M467.527,830.5a9.093,9.093,0,0,1-12.985,12.3,9.093,9.093,0,1,0,12.985-12.3Z" transform="translate(-420.816 -811.001)" fill="#efefef"/>
          <g id="Group_3321-2" data-name="Group 3321" transform="translate(1.934 17.33)">
            <path id="Path_6677-2" data-name="Path 6677" d="M197.653,831.349a9.512,9.512,0,1,1,9.512-9.512A9.523,9.523,0,0,1,197.653,831.349Zm0-18.188a8.676,8.676,0,1,0,8.676,8.677A8.686,8.686,0,0,0,197.653,813.16Z" transform="translate(-188.141 -812.325)" fill="#1e64cc"/>
          </g>
          <path id="Path_6678-2" data-name="Path 6678" d="M239.845,893.735a4.406,4.406,0,1,1-4.406-4.406A4.406,4.406,0,0,1,239.845,893.735Z" transform="translate(-223.98 -862.809)" fill="#1e64cc"/>
          <path id="Path_6679-2" data-name="Path 6679" d="M247.383,906.241a1.8,1.8,0,1,1-1.8-1.8A1.8,1.8,0,0,1,247.383,906.241Z" transform="translate(-235.204 -876.115)" fill="#fff"/>
          <g id="Group_3322-2" data-name="Group 3322" transform="translate(31.851 17.33)">
            <path id="Path_6680-2" data-name="Path 6680" d="M448.339,831.349a9.512,9.512,0,1,1,9.512-9.512A9.523,9.523,0,0,1,448.339,831.349Zm0-18.188a8.676,8.676,0,1,0,8.676,8.677A8.686,8.686,0,0,0,448.339,813.16Z" transform="translate(-438.827 -812.325)" fill="#1e64cc"/>
          </g>
          <circle id="Ellipse_632-2" data-name="Ellipse 632" cx="4.406" cy="4.406" r="4.406" transform="translate(36.122 34.296) rotate(-77.741)" fill="#1e64cc"/>
          <path id="Path_6681-2" data-name="Path 6681" d="M497.962,906.241a1.8,1.8,0,1,1-1.8-1.8A1.8,1.8,0,0,1,497.962,906.241Z" transform="translate(-455.878 -876.115)" fill="#fff"/>
          <path id="Path_6682-2" data-name="Path 6682" d="M172.667,679.075c1.914,1.356,2.5-2.078,6.895-4.178,3.665-1.751,6.55-.4,6.865-2.029s-3.257-2.914-8.725-.634C173.633,673.931,170.445,677.5,172.667,679.075Z" transform="translate(-171.937 -670.539)" fill="#1e64cc"/>
          <path id="Path_6683-2" data-name="Path 6683" d="M511.751,675.578c-2.034,1.459-2.716-2.182-7.467-4.37-3.962-1.824-7.038-.365-7.4-2.088s3.451-3.125,9.357-.758C510.634,670.124,514.112,673.884,511.751,675.578Z" transform="translate(-458.082 -667.107)" fill="#1e64cc"/>
          <g id="Group_3323-2" data-name="Group 3323" transform="translate(11.57 42.6)">
            <path id="Path_6684-2" data-name="Path 6684" d="M297.6,1032.071a.6.6,0,0,1-.51-.286,12.8,12.8,0,0,0-2.966-3.047,17.671,17.671,0,0,0-9.752-3.442c-8.986-.54-14.356,6.466-14.409,6.536a.6.6,0,0,1-.954-.717,18.78,18.78,0,0,1,4.071-3.731,18.061,18.061,0,0,1,11.364-3.28,18.838,18.838,0,0,1,10.45,3.72,13.667,13.667,0,0,1,3.215,3.338.6.6,0,0,1-.509.907Z" transform="translate(-268.889 -1024.074)" fill="#1e64cc"/>
          </g>
          <g id="Group_3324-2" data-name="Group 3324" transform="translate(9.255 47.461)">
            <path id="Path_6685-2" data-name="Path 6685" d="M250.331,1064.944a5.714,5.714,0,0,0-.432,5.118.308.308,0,0,0,.367.208.3.3,0,0,0,.208-.367,5.153,5.153,0,0,1,.372-4.658c.2-.327-.313-.627-.515-.3Z" transform="translate(-249.486 -1064.803)" fill="#1e64cc"/>
          </g>
          <g id="Group_3325-2" data-name="Group 3325" transform="translate(41.157 47.563)">
            <path id="Path_6686-2" data-name="Path 6686" d="M516.9,1066.165a4.327,4.327,0,0,1,1.1,4.333c-.115.367.461.525.576.159a4.929,4.929,0,0,0-1.25-4.914c-.276-.268-.7.154-.422.422Z" transform="translate(-516.809 -1065.658)" fill="#1e64cc"/>
          </g>
        </g>
        <text id="Never_or_almost_never-2" data-name="Never or almost never" transform="translate(36.999 640.687)" fill="#fff" font-size="14" font-family="ArialMT, Arial"><tspan x="14.772" y="13">Never Or </tspan><tspan x="3.1" y="29">Almost Never</tspan></text>
        <text id="Sometimes-2" data-name="Sometimes" transform="translate(147.89 640.687)" fill="#fff" font-size="14" font-family="ArialMT, Arial"><tspan x="10.1" y="13">Sometimes</tspan></text>
        <text id="Many_times_Almost_always-2" data-name="Many times/Almost always" transform="translate(262.293 640.687)" fill="#fff" font-size="14" font-family="ArialMT, Arial"><tspan x="5.434" y="13">Many Times/</tspan><tspan x="21.772" y="29">Almost </tspan></text>
      </g>
      <g id="Group_3329" data-name="Group 3329" transform="translate(712 -133.718)">
        <g id="Group_3078-3" data-name="Group 3078" transform="translate(20 155)">
          <rect id="Rectangle_1710-3" data-name="Rectangle 1710" width="346" height="567" rx="15" transform="translate(0 -0.282)" fill="#254069"/>
          <text id="Have_you_continued_your_drug_use_despite_knowledge_of_developing_a_persistent_or_recurring_physical_or_psychological_problem_3" data-name="Have you continued your drug use despite knowledge of developing a persistent or recurring physical or psychological problem? " transform="translate(26 23.719)" fill="#fff" font-size="18" font-family="ArialMT, Arial"><tspan x="0" y="16">Have you continued your drug use </tspan><tspan x="0" y="46">despite knowledge of developing a </tspan><tspan x="0" y="76">persistent or recurring physical or </tspan><tspan x="0" y="106">psychological problem? </tspan></text>
        </g>
        <rect id="Rectangle_1812-3" data-name="Rectangle 1812" width="77" height="78" rx="10" transform="translate(45 541.718)" fill="url(#linear-gradient-2)"/>
        <rect id="Rectangle_1813-3" data-name="Rectangle 1813" width="77" height="78" rx="10" transform="translate(154 541.718)" fill="#edf4fd"/>
        <rect id="Rectangle_1814-3" data-name="Rectangle 1814" width="77" height="78" rx="10" transform="translate(264 541.718)" fill="#edf4fd"/>
        <g id="Group_3314-3" data-name="Group 3314" transform="translate(56.453 559.737)">
          <circle id="Ellipse_619-3" data-name="Ellipse 619" cx="9.174" cy="9.174" r="9.174" transform="translate(30.813 24.356) rotate(-72.081)" fill="#fff"/>
          <circle id="Ellipse_620-3" data-name="Ellipse 620" cx="9.174" cy="9.174" r="9.174" transform="matrix(0.231, -0.973, 0.973, 0.231, 1.138, 25.253)" fill="#fff"/>
          <path id="Path_6656-3" data-name="Path 6656" d="M222.763,215.621a9.172,9.172,0,0,1-13.1,12.41,9.173,9.173,0,1,0,13.1-12.41Z" transform="translate(-205.183 -204.579)" fill="#efefef"/>
          <path id="Path_6657-3" data-name="Path 6657" d="M473.449,215.621a9.173,9.173,0,0,1-13.1,12.41,9.173,9.173,0,1,0,13.1-12.41Z" transform="translate(-425.689 -204.579)" fill="#efefef"/>
          <g id="Group_3309-3" data-name="Group 3309" transform="translate(2.589 8.854)">
            <path id="Path_6658-3" data-name="Path 6658" d="M203.545,216.636a9.6,9.6,0,1,1,9.6-9.6A9.606,9.606,0,0,1,203.545,216.636Zm0-18.348a8.753,8.753,0,1,0,8.753,8.753A8.763,8.763,0,0,0,203.545,198.288Z" transform="translate(-193.949 -197.445)" fill="#fff"/>
          </g>
          <circle id="Ellipse_621-3" data-name="Ellipse 621" cx="4.445" cy="4.445" r="4.445" transform="matrix(0.612, -0.791, 0.791, 0.612, 5.949, 20.557)" fill="#254069"/>
          <circle id="Ellipse_622-3" data-name="Ellipse 622" cx="1.819" cy="1.819" r="1.819" transform="translate(9.274 17.136)" fill="#fff"/>
          <g id="Group_3310-3" data-name="Group 3310" transform="translate(32.769 8.854)">
            <path id="Path_6659-3" data-name="Path 6659" d="M454.231,216.636a9.6,9.6,0,1,1,9.6-9.6A9.606,9.606,0,0,1,454.231,216.636Zm0-18.348a8.753,8.753,0,1,0,8.753,8.753A8.763,8.763,0,0,0,454.231,198.288Z" transform="translate(-444.635 -197.445)" fill="#fff"/>
          </g>
          <circle id="Ellipse_623-3" data-name="Ellipse 623" cx="4.445" cy="4.445" r="4.445" transform="translate(36.079 19.762) rotate(-45)" fill="#254069"/>
          <circle id="Ellipse_624-3" data-name="Ellipse 624" cx="1.819" cy="1.819" r="1.819" transform="translate(39.454 17.136)" fill="#fff"/>
          <path id="Path_6660-3" data-name="Path 6660" d="M172.888,131.59c1.553,1.785,2.945-1.442,7.754-2.454,4.01-.844,6.517,1.164,7.213-.355s-2.5-3.632-8.4-2.7C175.06,126.777,171.085,129.517,172.888,131.59Z" transform="translate(-172.443 -125.618)" fill="#fff"/>
          <path id="Path_6661-3" data-name="Path 6661" d="M512.288,130.162c-1.648,1.7-2.862-1.6-7.608-2.873-3.958-1.061-6.571.807-7.183-.747s2.693-3.49,8.537-2.236C510.382,125.238,514.2,128.191,512.288,130.162Z" transform="translate(-458.301 -123.903)" fill="#fff"/>
          <g id="Group_3311-3" data-name="Group 3311" transform="translate(11.583 33.159)">
            <path id="Path_6662-3" data-name="Path 6662" d="M284.459,408.447h-.019a19.387,19.387,0,0,1-11.754-3.953,18.031,18.031,0,0,1-3.933-3.973.6.6,0,0,1,1-.664,17.207,17.207,0,0,0,3.692,3.705,18.192,18.192,0,0,0,10.991,3.681h.018a18.67,18.67,0,0,0,11.56-3.792,15.669,15.669,0,0,0,3.627-3.823.6.6,0,0,1,1.034.617,16.52,16.52,0,0,1-3.882,4.126A19.856,19.856,0,0,1,284.459,408.447Z" transform="translate(-268.653 -399.335)" fill="#fff"/>
          </g>
          <g id="Group_3312-3" data-name="Group 3312" transform="translate(9.35 31.671)">
            <path id="Path_6663-3" data-name="Path 6663" d="M250.7,390.269a3.481,3.481,0,0,1,2.238-2.7c.386-.117.445-.674-.16-.58a4.278,4.278,0,0,0-2.659,3.125.309.309,0,0,0,.21.37.3.3,0,0,0,.37-.21Z" transform="translate(-250.11 -386.973)" fill="#fff"/>
          </g>
          <g id="Group_3313-3" data-name="Group 3313" transform="translate(43.01 31.501)">
            <path id="Path_6664-3" data-name="Path 6664" d="M529.923,386.157a2.9,2.9,0,0,1,1.789,3.1.31.31,0,0,0,.21.37.3.3,0,0,0,.37-.21,3.51,3.51,0,0,0-2.21-3.839.3.3,0,0,0-.37.21.308.308,0,0,0,.21.37Z" transform="translate(-529.702 -385.563)" fill="#fff"/>
          </g>
        </g>
        <g id="Group_3320-3" data-name="Group 3320" transform="translate(165.613 555.918)">
          <circle id="Ellipse_625-3" data-name="Ellipse 625" cx="9.174" cy="9.174" r="9.174" transform="translate(32.118 31.744) rotate(-76.718)" fill="#fff"/>
          <circle id="Ellipse_626-3" data-name="Ellipse 626" cx="9.174" cy="9.174" r="9.174" transform="translate(0 24.923) rotate(-45)" fill="#fff"/>
          <path id="Path_6665-3" data-name="Path 6665" d="M828.763,238.667a9.173,9.173,0,0,1-13.1,12.411,9.173,9.173,0,1,0,13.1-12.411Z" transform="translate(-810.393 -221.151)" fill="#efefef"/>
          <path id="Path_6666-3" data-name="Path 6666" d="M1079.449,238.667a9.172,9.172,0,0,1-13.1,12.411,9.173,9.173,0,1,0,13.1-12.411Z" transform="translate(-1030.9 -221.151)" fill="#efefef"/>
          <g id="Group_3315-3" data-name="Group 3315" transform="translate(3.379 15.328)">
            <path id="Path_6667-3" data-name="Path 6667" d="M809.544,239.683a9.6,9.6,0,1,1,9.6-9.6A9.606,9.606,0,0,1,809.544,239.683Zm0-18.348a8.753,8.753,0,1,0,8.753,8.753A8.763,8.763,0,0,0,809.544,221.335Z" transform="translate(-799.949 -220.492)" fill="#1e64cc"/>
          </g>
          <circle id="Ellipse_627-3" data-name="Ellipse 627" cx="4.445" cy="4.445" r="4.445" transform="translate(5.698 16.872)" fill="#1e64cc"/>
          <path id="Path_6668-3" data-name="Path 6668" d="M835.6,250.249a1.819,1.819,0,1,1-1.819-1.819A1.819,1.819,0,0,1,835.6,250.249Z" transform="translate(-824.727 -229.739)" fill="#fff"/>
          <g id="Group_3316-3" data-name="Group 3316" transform="translate(33.559 15.328)">
            <path id="Path_6669-3" data-name="Path 6669" d="M1060.23,239.683a9.6,9.6,0,1,1,9.6-9.6A9.606,9.606,0,0,1,1060.23,239.683Zm0-18.348a8.753,8.753,0,1,0,8.753,8.753A8.763,8.763,0,0,0,1060.23,221.335Z" transform="translate(-1050.635 -220.492)" fill="#1e64cc"/>
          </g>
          <circle id="Ellipse_628-3" data-name="Ellipse 628" cx="4.445" cy="4.445" r="4.445" transform="translate(36.273 16.698)" fill="#1e64cc"/>
          <circle id="Ellipse_629-3" data-name="Ellipse 629" cx="1.819" cy="1.819" r="1.819" transform="translate(37.808 18.517)" fill="#fff"/>
          <path id="Path_6670-3" data-name="Path 6670" d="M800.27,103.258c1.812,1.241,1.789-2.183,5.167-4.487,2.817-1.921,5.444-.738,5.464-2.362s-3.175-2.711-7.427-.174C800.309,98.124,798.167,101.818,800.27,103.258Z" transform="translate(-796.115 -94.541)" fill="#1e64cc"/>
          <path id="Path_6671-3" data-name="Path 6671" d="M1129.059,102.108c-1.9,1.164-1.8-2.274-5.249-4.742-2.872-2.058-5.609-.99-5.6-2.621s3.334-2.578,7.677.164C1129.12,96.949,1131.261,100.757,1129.059,102.108Z" transform="translate(-1076.518 -93.174)" fill="#1e64cc"/>
          <g id="Group_3317-3" data-name="Group 3317" transform="translate(12.373 39.024)">
            <path id="Path_6672-3" data-name="Path 6672" d="M906.8,429.2a.6.6,0,0,1-.46-.214,30.948,30.948,0,0,0-4.986-4.43,32.063,32.063,0,0,0-13.5-5.782c-7.688-1.235-12.138,2.759-12.182,2.8a.6.6,0,0,1-.818-.884c.2-.182,4.9-4.439,13.191-3.1A33.283,33.283,0,0,1,902.09,423.6a31.471,31.471,0,0,1,5.167,4.606.6.6,0,0,1-.46.99Z" transform="translate(-874.655 -417.324)" fill="#1e64cc"/>
          </g>
          <g id="Group_3318-3" data-name="Group 3318" transform="translate(10.019 41.79)">
            <path id="Path_6673-3" data-name="Path 6673" d="M855.327,440.525a3.658,3.658,0,0,0,1.054,3.984,3.36,3.36,0,0,0,1.094.633.3.3,0,0,0,.16-.581,3.041,3.041,0,0,1-1.727-3.876.3.3,0,0,0-.21-.37.308.308,0,0,0-.37.21Z" transform="translate(-855.106 -440.303)" fill="#1e64cc"/>
          </g>
          <g id="Group_3319-3" data-name="Group 3319" transform="translate(43.725 47.6)">
            <path id="Path_6674-3" data-name="Path 6674" d="M1135.429,493.887a4.414,4.414,0,0,0,3.009-3.622,4.881,4.881,0,0,0,.012-1.5.283.283,0,0,0-.346-.2.289.289,0,0,0-.2.346,4.284,4.284,0,0,1-1.586,3.934,2.967,2.967,0,0,1-1.042.5.282.282,0,0,0,.15.542Z" transform="translate(-1135.079 -488.556)" fill="#1e64cc"/>
          </g>
        </g>
        <g id="Group_3326-3" data-name="Group 3326" transform="translate(275.599 555.917)">
          <circle id="Ellipse_630-3" data-name="Ellipse 630" cx="9.094" cy="9.094" r="9.094" transform="matrix(0.161, -0.987, 0.987, 0.161, 30.923, 34.354)" fill="#fff"/>
          <circle id="Ellipse_631-3" data-name="Ellipse 631" cx="9.094" cy="9.094" r="9.094" transform="matrix(0.231, -0.973, 0.973, 0.231, 0.495, 33.587)" fill="#fff"/>
          <path id="Path_6675-3" data-name="Path 6675" d="M216.841,830.5a9.093,9.093,0,0,1-12.985,12.3,9.093,9.093,0,1,0,12.985-12.3Z" transform="translate(-200.047 -811.001)" fill="#efefef"/>
          <path id="Path_6676-3" data-name="Path 6676" d="M467.527,830.5a9.093,9.093,0,0,1-12.985,12.3,9.093,9.093,0,1,0,12.985-12.3Z" transform="translate(-420.816 -811.001)" fill="#efefef"/>
          <g id="Group_3321-3" data-name="Group 3321" transform="translate(1.934 17.33)">
            <path id="Path_6677-3" data-name="Path 6677" d="M197.653,831.349a9.512,9.512,0,1,1,9.512-9.512A9.523,9.523,0,0,1,197.653,831.349Zm0-18.188a8.676,8.676,0,1,0,8.676,8.677A8.686,8.686,0,0,0,197.653,813.16Z" transform="translate(-188.141 -812.325)" fill="#1e64cc"/>
          </g>
          <path id="Path_6678-3" data-name="Path 6678" d="M239.845,893.735a4.406,4.406,0,1,1-4.406-4.406A4.406,4.406,0,0,1,239.845,893.735Z" transform="translate(-223.98 -862.809)" fill="#1e64cc"/>
          <path id="Path_6679-3" data-name="Path 6679" d="M247.383,906.241a1.8,1.8,0,1,1-1.8-1.8A1.8,1.8,0,0,1,247.383,906.241Z" transform="translate(-235.204 -876.115)" fill="#fff"/>
          <g id="Group_3322-3" data-name="Group 3322" transform="translate(31.851 17.33)">
            <path id="Path_6680-3" data-name="Path 6680" d="M448.339,831.349a9.512,9.512,0,1,1,9.512-9.512A9.523,9.523,0,0,1,448.339,831.349Zm0-18.188a8.676,8.676,0,1,0,8.676,8.677A8.686,8.686,0,0,0,448.339,813.16Z" transform="translate(-438.827 -812.325)" fill="#1e64cc"/>
          </g>
          <circle id="Ellipse_632-3" data-name="Ellipse 632" cx="4.406" cy="4.406" r="4.406" transform="translate(36.122 34.296) rotate(-77.741)" fill="#1e64cc"/>
          <path id="Path_6681-3" data-name="Path 6681" d="M497.962,906.241a1.8,1.8,0,1,1-1.8-1.8A1.8,1.8,0,0,1,497.962,906.241Z" transform="translate(-455.878 -876.115)" fill="#fff"/>
          <path id="Path_6682-3" data-name="Path 6682" d="M172.667,679.075c1.914,1.356,2.5-2.078,6.895-4.178,3.665-1.751,6.55-.4,6.865-2.029s-3.257-2.914-8.725-.634C173.633,673.931,170.445,677.5,172.667,679.075Z" transform="translate(-171.937 -670.539)" fill="#1e64cc"/>
          <path id="Path_6683-3" data-name="Path 6683" d="M511.751,675.578c-2.034,1.459-2.716-2.182-7.467-4.37-3.962-1.824-7.038-.365-7.4-2.088s3.451-3.125,9.357-.758C510.634,670.124,514.112,673.884,511.751,675.578Z" transform="translate(-458.082 -667.107)" fill="#1e64cc"/>
          <g id="Group_3323-3" data-name="Group 3323" transform="translate(11.57 42.6)">
            <path id="Path_6684-3" data-name="Path 6684" d="M297.6,1032.071a.6.6,0,0,1-.51-.286,12.8,12.8,0,0,0-2.966-3.047,17.671,17.671,0,0,0-9.752-3.442c-8.986-.54-14.356,6.466-14.409,6.536a.6.6,0,0,1-.954-.717,18.78,18.78,0,0,1,4.071-3.731,18.061,18.061,0,0,1,11.364-3.28,18.838,18.838,0,0,1,10.45,3.72,13.667,13.667,0,0,1,3.215,3.338.6.6,0,0,1-.509.907Z" transform="translate(-268.889 -1024.074)" fill="#1e64cc"/>
          </g>
          <g id="Group_3324-3" data-name="Group 3324" transform="translate(9.255 47.461)">
            <path id="Path_6685-3" data-name="Path 6685" d="M250.331,1064.944a5.714,5.714,0,0,0-.432,5.118.308.308,0,0,0,.367.208.3.3,0,0,0,.208-.367,5.153,5.153,0,0,1,.372-4.658c.2-.327-.313-.627-.515-.3Z" transform="translate(-249.486 -1064.803)" fill="#1e64cc"/>
          </g>
          <g id="Group_3325-3" data-name="Group 3325" transform="translate(41.157 47.563)">
            <path id="Path_6686-3" data-name="Path 6686" d="M516.9,1066.165a4.327,4.327,0,0,1,1.1,4.333c-.115.367.461.525.576.159a4.929,4.929,0,0,0-1.25-4.914c-.276-.268-.7.154-.422.422Z" transform="translate(-516.809 -1065.658)" fill="#1e64cc"/>
          </g>
        </g>
        <text id="Never_or_almost_never-3" data-name="Never or almost never" transform="translate(36.999 640.687)" fill="#fff" font-size="14" font-family="ArialMT, Arial"><tspan x="14.772" y="13">Never Or </tspan><tspan x="3.1" y="29">Almost Never</tspan></text>
        <text id="Sometimes-3" data-name="Sometimes" transform="translate(147.89 640.687)" fill="#fff" font-size="14" font-family="ArialMT, Arial"><tspan x="10.1" y="13">Sometimes</tspan></text>
        <text id="Many_times_Almost_always-3" data-name="Many times/Almost always" transform="translate(262.293 640.687)" fill="#fff" font-size="14" font-family="ArialMT, Arial"><tspan x="5.434" y="13">Many Times/</tspan><tspan x="21.772" y="29">Almost </tspan></text>
      </g>
    </g>
    <g id="Group_3224" data-name="Group 3224" transform="translate(0 791.262)">
      <g id="Group_3212" data-name="Group 3212" transform="translate(34.47 14.737)">
        <text id="Back" transform="translate(19.06 18)" fill="#fff" font-size="18" font-family="ArialMT, Arial"><tspan x="0" y="0">Back</tspan></text>
        <path id="Icon_ionic-ios-arrow-back-4" data-name="Icon ionic-ios-arrow-back" d="M14.033,14.264l6.109-6.1a1.154,1.154,0,0,0-1.634-1.629l-6.921,6.916a1.152,1.152,0,0,0-.034,1.591L18.5,22a1.154,1.154,0,1,0,1.634-1.629Z" transform="translate(-11.251 -3.193)" fill="#fff"/>
      </g>
    </g>
    <g id="Group_3330" data-name="Group 3330" transform="translate(-7408 -10082)">
      <rect id="Rectangle_1708-2" data-name="Rectangle 1708" width="312" height="5" rx="2.5" transform="translate(7459 10411)" fill="#dce9f5"/>
      <rect id="Rectangle_1709-2" data-name="Rectangle 1709" width="220" height="5" rx="2.5" transform="translate(7459 10411)" fill="#1e64cc"/>
      <g id="Group_3077" data-name="Group 3077" transform="translate(7151.266 9734.266)">
        <circle id="Ellipse_550" data-name="Ellipse 550" cx="17.5" cy="17.5" r="17.5" transform="translate(304.734 660.733)" fill="#dbecff" opacity="0.354"/>
        <circle id="Ellipse_430" data-name="Ellipse 430" cx="15.5" cy="15.5" r="15.5" transform="translate(306.734 662.734)" fill="#fff"/>
        <path id="Icon_awesome-play" data-name="Icon awesome-play" d="M10.549,5.338,1.8.166A1.187,1.187,0,0,0,0,1.192V11.535a1.192,1.192,0,0,0,1.8,1.027l8.75-5.17A1.192,1.192,0,0,0,10.549,5.338Z" transform="translate(317.65 671.753)" fill="#0e58c7"/>
      </g>
    </g>
  </g>
</svg>
