<svg xmlns="http://www.w3.org/2000/svg" xmlns:xlink="http://www.w3.org/1999/xlink" width="412" height="847" viewBox="0 0 412 847">
  <defs>
    <linearGradient id="linear-gradient" x1="0.5" x2="0.5" y2="1" gradientUnits="objectBoundingBox">
      <stop offset="0" stop-color="#37aadd"/>
      <stop offset="1" stop-color="#1f64cc"/>
    </linearGradient>
    <filter id="Rectangle_1570" x="-24" y="509" width="460" height="355" filterUnits="userSpaceOnUse">
      <feOffset dy="-3" input="SourceAlpha"/>
      <feGaussianBlur stdDeviation="8" result="blur"/>
      <feFlood flood-opacity="0.039"/>
      <feComposite operator="in" in2="blur"/>
      <feComposite in="SourceGraphic"/>
    </filter>
    <filter id="Rectangle_20" x="1" y="455" width="88" height="63" filterUnits="userSpaceOnUse">
      <feOffset dy="10" input="SourceAlpha"/>
      <feGaussianBlur stdDeviation="5" result="blur-2"/>
      <feFlood flood-opacity="0.09"/>
      <feComposite operator="in" in2="blur-2"/>
      <feComposite in="SourceGraphic"/>
    </filter>
    <clipPath id="clip-path">
      <rect width="356" height="242" fill="none"/>
    </clipPath>
    <clipPath id="clip-path-2">
      <rect width="379" height="12.698" fill="none"/>
    </clipPath>
    <filter id="Path_7" x="63" y="640" width="286.527" height="96.064" filterUnits="userSpaceOnUse">
      <feOffset dy="3" input="SourceAlpha"/>
      <feGaussianBlur stdDeviation="8" result="blur-3"/>
      <feFlood flood-opacity="0.078"/>
      <feComposite operator="in" in2="blur-3"/>
      <feComposite in="SourceGraphic"/>
    </filter>
    <clipPath id="clip-OCD_rating2">
      <rect width="412" height="847"/>
    </clipPath>
  </defs>
  <g id="OCD_rating2" data-name="OCD rating2" clip-path="url(#clip-OCD_rating2)">
    <rect width="412" height="847" fill="url(#linear-gradient)"/>
    <g transform="matrix(1, 0, 0, 1, 0, 0)" filter="url(#Rectangle_1570)">
      <path id="Rectangle_1570-2" data-name="Rectangle 1570" d="M30,0H382a30,30,0,0,1,30,30V307a0,0,0,0,1,0,0H0a0,0,0,0,1,0,0V30A30,30,0,0,1,30,0Z" transform="translate(0 536)" fill="#102646"/>
    </g>
    <text id="Rate_your_distress_SUDS_" data-name="Rate your distress (SUDS)" transform="translate(207 49)" fill="#fff" font-size="18" font-family="Arial-BoldMT, Arial" font-weight="700"><tspan x="-112.03" y="0">Rate your distress (SUDS)</tspan></text>
    <g id="Group_3390" data-name="Group 3390" transform="translate(-5 36)">
      <g id="fri_card" data-name="fri card" transform="translate(277.643 384)">
        <rect id="Rectangle_20-2" data-name="Rectangle 20" width="58" height="33" rx="5" transform="translate(0.358 40)" fill="#fff"/>
        <text id="_4-5pm" data-name="4-5pm" transform="translate(29.358 61)" fill="#2e5b9f" font-size="12" font-family="Arial-BoldMT, Arial" font-weight="700" letter-spacing="0.015em"><tspan x="-18.032" y="0">4-5pm</tspan></text>
      </g>
      <g id="fri_card-2" data-name="fri card" transform="translate(341.643 384)">
        <rect id="Rectangle_20-3" data-name="Rectangle 20" width="58" height="33" rx="5" transform="translate(0.358 40)" fill="#fff"/>
        <text id="_5-6pm" data-name="5-6pm" transform="translate(29.358 61)" fill="#2e5b9f" font-size="12" font-family="Arial-BoldMT, Arial" font-weight="700" letter-spacing="0.015em"><tspan x="-18.032" y="0">5-6pm</tspan></text>
      </g>
      <g id="thu_card" data-name="thu card" transform="translate(213.482 384)">
        <rect id="Rectangle_20-4" data-name="Rectangle 20" width="58" height="33" rx="5" transform="translate(-0.482 40)" fill="#fff"/>
        <text id="_3-4pm" data-name="3-4pm" transform="translate(28.518 61)" fill="#2e5b9f" font-size="12" font-family="Arial-BoldMT, Arial" font-weight="700" letter-spacing="0.015em"><tspan x="-18.032" y="0">3-4pm</tspan></text>
      </g>
      <g id="wed_card" data-name="wed card" transform="translate(149.32 384)">
        <rect id="Rectangle_20-5" data-name="Rectangle 20" width="58" height="33" rx="5" transform="translate(-0.321 40)" fill="#fff"/>
        <text id="_2-3pm" data-name="2-3pm" transform="translate(28.679 61)" fill="#2e5b9f" font-size="12" font-family="Arial-BoldMT, Arial" font-weight="700" letter-spacing="0.015em"><tspan x="-18.032" y="0">2-3pm</tspan></text>
      </g>
      <g id="tue_card" data-name="tue card" transform="translate(85.16 384)">
        <rect id="Rectangle_20-6" data-name="Rectangle 20" width="58" height="33" rx="5" transform="translate(-0.161 40)" fill="#fff"/>
        <text id="_1-2pm" data-name="1-2pm" transform="translate(28.839 61)" fill="#2e5b9f" font-size="12" font-family="Arial-BoldMT, Arial" font-weight="700" letter-spacing="0.015em"><tspan x="-16.517" y="0">1-2</tspan><tspan y="0" font-size="10">pm</tspan></text>
      </g>
      <g id="mon_card" data-name="mon card" transform="translate(21 384)">
        <g transform="matrix(1, 0, 0, 1, -16, -420)" filter="url(#Rectangle_20)">
          <rect id="Rectangle_20-7" data-name="Rectangle 20" width="58" height="33" rx="5" transform="translate(16 460)" fill="#102646"/>
        </g>
        <text id="_12-1pm" data-name="12-1pm" transform="translate(28 61)" fill="#fff" font-size="12" font-family="Arial-BoldMT, Arial" font-weight="700" letter-spacing="0.015em"><tspan x="-19.944" y="0">12-1</tspan><tspan y="0" font-size="10">pm</tspan></text>
      </g>
    </g>
    <g id="Group_3391" data-name="Group 3391" transform="translate(166.364 122)">
      <rect id="Rectangle_1847" data-name="Rectangle 1847" width="80" height="34" rx="17" transform="translate(-0.363)" fill="#102646"/>
      <text id="Hour" transform="translate(39.637 22)" fill="#fff" font-size="15" font-family="ArialMT, Arial" letter-spacing="0.015em"><tspan x="-16.594" y="0">Hour</tspan></text>
    </g>
    <g id="Group_3392" data-name="Group 3392" transform="translate(263.728 122)">
      <rect id="Rectangle_1847-2" data-name="Rectangle 1847" width="81" height="34" rx="17" transform="translate(0.271)" fill="#fff"/>
      <text id="Mins" transform="translate(41.271 22)" fill="#2e5b9f" font-size="15" font-family="ArialMT, Arial" letter-spacing="0.015em"><tspan x="-16.172" y="0">Mins</tspan></text>
    </g>
    <g id="tue_card-2" data-name="tue card" transform="translate(68 122)">
      <rect id="Rectangle_20-8" data-name="Rectangle 20" width="81" height="34" rx="17" transform="translate(0)" fill="#fff"/>
      <text id="Day" transform="translate(41 22)" fill="#2e5b9f" font-size="15" font-family="ArialMT, Arial" letter-spacing="0.015em"><tspan x="-13.562" y="0">Day</tspan></text>
    </g>
    <g id="Repeat_Grid_18" data-name="Repeat Grid 18" transform="translate(28 201)" clip-path="url(#clip-path)">
      <g transform="translate(-31 -132)">
        <path id="Rectangle_1848" data-name="Rectangle 1848" d="M5.5,0h0A5.5,5.5,0,0,1,11,5.5V242a0,0,0,0,1,0,0H0a0,0,0,0,1,0,0V5.5A5.5,5.5,0,0,1,5.5,0Z" transform="translate(45 132)" fill="#2e5b9f" opacity="0.5"/>
      </g>
      <g transform="translate(33 -132)">
        <path id="Rectangle_1848-2" data-name="Rectangle 1848" d="M5.5,0h0A5.5,5.5,0,0,1,11,5.5V242a0,0,0,0,1,0,0H0a0,0,0,0,1,0,0V5.5A5.5,5.5,0,0,1,5.5,0Z" transform="translate(45 132)" fill="#2e5b9f" opacity="0.5"/>
      </g>
      <g transform="translate(97 -132)">
        <path id="Rectangle_1848-3" data-name="Rectangle 1848" d="M5.5,0h0A5.5,5.5,0,0,1,11,5.5V242a0,0,0,0,1,0,0H0a0,0,0,0,1,0,0V5.5A5.5,5.5,0,0,1,5.5,0Z" transform="translate(45 132)" fill="#2e5b9f" opacity="0.5"/>
      </g>
      <g transform="translate(161 -132)">
        <path id="Rectangle_1848-4" data-name="Rectangle 1848" d="M5.5,0h0A5.5,5.5,0,0,1,11,5.5V242a0,0,0,0,1,0,0H0a0,0,0,0,1,0,0V5.5A5.5,5.5,0,0,1,5.5,0Z" transform="translate(45 132)" fill="#2e5b9f" opacity="0.5"/>
      </g>
      <g transform="translate(225 -132)">
        <path id="Rectangle_1848-5" data-name="Rectangle 1848" d="M5.5,0h0A5.5,5.5,0,0,1,11,5.5V242a0,0,0,0,1,0,0H0a0,0,0,0,1,0,0V5.5A5.5,5.5,0,0,1,5.5,0Z" transform="translate(45 132)" fill="#2e5b9f" opacity="0.5"/>
      </g>
      <g transform="translate(289 -132)">
        <path id="Rectangle_1848-6" data-name="Rectangle 1848" d="M5.5,0h0A5.5,5.5,0,0,1,11,5.5V242a0,0,0,0,1,0,0H0a0,0,0,0,1,0,0V5.5A5.5,5.5,0,0,1,5.5,0Z" transform="translate(45 132)" fill="#2e5b9f" opacity="0.5"/>
      </g>
    </g>
    <path id="Path_6725" data-name="Path 6725" d="M-20026,14996h378.117" transform="translate(20042.5 -14553)" fill="none" stroke="#fff" stroke-width="2"/>
    <g id="Repeat_Grid_19" data-name="Repeat Grid 19" transform="translate(17 443)" clip-path="url(#clip-path-2)">
      <g transform="translate(-49.5 -374)">
        <path id="Path_6726" data-name="Path 6726" d="M-19997,14996v7.649" transform="translate(20047 -14622)" fill="none" stroke="#fff" stroke-width="1"/>
      </g>
      <g transform="translate(-28.5 -374)">
        <path id="Path_6726-2" data-name="Path 6726" d="M-19997,14996v7.649" transform="translate(20047 -14622)" fill="none" stroke="#fff" stroke-width="1"/>
      </g>
      <g transform="translate(-7.5 -374)">
        <path id="Path_6726-3" data-name="Path 6726" d="M-19997,14996v7.649" transform="translate(20047 -14622)" fill="none" stroke="#fff" stroke-width="1"/>
      </g>
      <g transform="translate(13.5 -374)">
        <path id="Path_6726-4" data-name="Path 6726" d="M-19997,14996v7.649" transform="translate(20047 -14622)" fill="none" stroke="#fff" stroke-width="1"/>
      </g>
      <g transform="translate(34.5 -374)">
        <path id="Path_6726-5" data-name="Path 6726" d="M-19997,14996v7.649" transform="translate(20047 -14622)" fill="none" stroke="#fff" stroke-width="1"/>
      </g>
      <g transform="translate(55.5 -374)">
        <path id="Path_6726-6" data-name="Path 6726" d="M-19997,14996v7.649" transform="translate(20047 -14622)" fill="none" stroke="#fff" stroke-width="1"/>
      </g>
      <g transform="translate(76.5 -374)">
        <path id="Path_6726-7" data-name="Path 6726" d="M-19997,14996v7.649" transform="translate(20047 -14622)" fill="none" stroke="#fff" stroke-width="1"/>
      </g>
      <g transform="translate(97.5 -374)">
        <path id="Path_6726-8" data-name="Path 6726" d="M-19997,14996v7.649" transform="translate(20047 -14622)" fill="none" stroke="#fff" stroke-width="1"/>
      </g>
      <g transform="translate(118.5 -374)">
        <path id="Path_6726-9" data-name="Path 6726" d="M-19997,14996v7.649" transform="translate(20047 -14622)" fill="none" stroke="#fff" stroke-width="1"/>
      </g>
      <g transform="translate(139.5 -374)">
        <path id="Path_6726-10" data-name="Path 6726" d="M-19997,14996v7.649" transform="translate(20047 -14622)" fill="none" stroke="#fff" stroke-width="1"/>
      </g>
      <g transform="translate(160.5 -374)">
        <path id="Path_6726-11" data-name="Path 6726" d="M-19997,14996v7.649" transform="translate(20047 -14622)" fill="none" stroke="#fff" stroke-width="1"/>
      </g>
      <g transform="translate(181.5 -374)">
        <path id="Path_6726-12" data-name="Path 6726" d="M-19997,14996v7.649" transform="translate(20047 -14622)" fill="none" stroke="#fff" stroke-width="1"/>
      </g>
      <g transform="translate(202.5 -374)">
        <path id="Path_6726-13" data-name="Path 6726" d="M-19997,14996v7.649" transform="translate(20047 -14622)" fill="none" stroke="#fff" stroke-width="1"/>
      </g>
      <g transform="translate(223.5 -374)">
        <path id="Path_6726-14" data-name="Path 6726" d="M-19997,14996v7.649" transform="translate(20047 -14622)" fill="none" stroke="#fff" stroke-width="1"/>
      </g>
      <g transform="translate(244.5 -374)">
        <path id="Path_6726-15" data-name="Path 6726" d="M-19997,14996v7.649" transform="translate(20047 -14622)" fill="none" stroke="#fff" stroke-width="1"/>
      </g>
      <g transform="translate(265.5 -374)">
        <path id="Path_6726-16" data-name="Path 6726" d="M-19997,14996v7.649" transform="translate(20047 -14622)" fill="none" stroke="#fff" stroke-width="1"/>
      </g>
      <g transform="translate(286.5 -374)">
        <path id="Path_6726-17" data-name="Path 6726" d="M-19997,14996v7.649" transform="translate(20047 -14622)" fill="none" stroke="#fff" stroke-width="1"/>
      </g>
      <g transform="translate(307.5 -374)">
        <path id="Path_6726-18" data-name="Path 6726" d="M-19997,14996v7.649" transform="translate(20047 -14622)" fill="none" stroke="#fff" stroke-width="1"/>
      </g>
      <g transform="translate(328.5 -374)">
        <path id="Path_6726-19" data-name="Path 6726" d="M-19997,14996v7.649" transform="translate(20047 -14622)" fill="none" stroke="#fff" stroke-width="1"/>
      </g>
    </g>
    <g id="Group_3393" data-name="Group 3393" transform="translate(6.499 65)">
      <g id="Rectangle_1849" data-name="Rectangle 1849" transform="translate(31 171)" fill="#1e64cc" stroke="#d2dff2" stroke-width="1">
        <rect width="59" height="35" rx="6" stroke="none"/>
        <rect x="0.5" y="0.5" width="58" height="34" rx="5.5" fill="none"/>
      </g>
      <text id="_08" data-name="08" transform="translate(59 194)" fill="#fff" font-size="15" font-family="Arial-BoldMT, Arial" font-weight="700" letter-spacing="0.015em"><tspan x="-8.455" y="0">08</tspan></text>
    </g>
    <path id="Rectangle_1850" data-name="Rectangle 1850" d="M5.5,0h0A5.5,5.5,0,0,1,11,5.5V151a0,0,0,0,1,0,0H0a0,0,0,0,1,0,0V5.5A5.5,5.5,0,0,1,5.5,0Z" transform="translate(42.499 291)" fill="#102646"/>
    <g id="Ellipse_641" data-name="Ellipse 641" transform="translate(37.499 281)" fill="#fff" stroke="#1e64c9" stroke-width="6">
      <circle cx="11" cy="11" r="11" stroke="none"/>
      <circle cx="11" cy="11" r="8" fill="none"/>
    </g>
    <text id="Time_of_arrival_Rating" data-name="Time of arrival &amp; Rating" transform="translate(49 84)" fill="#fff" font-size="18" font-family="ArialMT, Arial"><tspan x="63.804" y="16">Time of arrival &amp; Rating</tspan></text>
    <text id="Telling_someone_about_the_violent_thought_like_accidently_harming_someone_." data-name="Telling someone about the violent thought (like accidently harming someone)…." transform="translate(182 563)" fill="#d2dff2" font-size="14" font-family="ArialMT, Arial"><tspan x="0" y="13">Telling someone about the violent </tspan><tspan x="0" y="37">thought (like accidently harming </tspan><tspan x="0" y="61">someone)….</tspan></text>
    <text id="Or_click_save_and_add_disappearance_time_Rating_later_from_the_To_do_list_or_OCD_Mapping_tool_" data-name="Or click save and add disappearance time &amp; Rating later 
from the “To do list” or “OCD Mapping” tool`" transform="translate(206.5 730)" fill="#d2dff2" font-size="10" font-family="ArialMT, Arial"><tspan x="-126.177" y="0">Or click save and add disappearance time &amp; Rating later </tspan><tspan x="-96.14" y="20">from the “To do list” or “OCD Mapping” tool`</tspan></text>
    <text id="Obsession" transform="translate(21 563)" fill="#fff" font-size="14" font-family="ArialMT, Arial"><tspan x="0" y="13">Obsession</tspan></text>
    <g id="Group_3380" data-name="Group 3380">
      <rect id="Rectangle_1984" data-name="Rectangle 1984" width="412" height="68" transform="translate(0 779)" fill="#102646"/>
      <path id="Path_4714" data-name="Path 4714" d="M1053,4508.186h411.151" transform="translate(-1053 -3729)" fill="none" stroke="#fff" stroke-width="2" opacity="0.206"/>
      <g id="Group_3096" data-name="Group 3096" transform="translate(-10 -218)">
        <text id="Save" transform="translate(337 1038)" fill="#f2f5f7" font-size="20" font-family="ArialMT, Arial"><tspan x="0" y="0">Save</tspan></text>
      </g>
      <g id="Group_3224" data-name="Group 3224" transform="translate(0 786.262)">
        <g id="Group_3212" data-name="Group 3212" transform="translate(34.47 14.737)">
          <text id="Back" transform="translate(19.06 18)" fill="#fff" font-size="18" font-family="ArialMT, Arial"><tspan x="0" y="0">Back</tspan></text>
          <path id="Icon_ionic-ios-arrow-back" data-name="Icon ionic-ios-arrow-back" d="M14.033,14.264l6.109-6.1a1.154,1.154,0,0,0-1.634-1.629l-6.921,6.916a1.152,1.152,0,0,0-.034,1.591L18.5,22a1.154,1.154,0,1,0,1.634-1.629Z" transform="translate(-11.251 -3.193)" fill="#fff"/>
        </g>
      </g>
    </g>
    <g id="CTA" transform="translate(87 661.438)">
      <g transform="matrix(1, 0, 0, 1, -87, -661.44)" filter="url(#Path_7)">
        <path id="Path_7-2" data-name="Path 7" d="M5.713,5h227.1c3.155,0,5.713,4,5.713,8.942v30.18c0,4.939-2.558,8.942-5.713,8.942H5.713c-3.155,0-5.713-4-5.713-8.942V13.942C0,9,2.558,5,5.713,5Z" transform="translate(87 656)" fill="#d2dff2"/>
      </g>
      <text id="Enter_Disappearance_Rating" data-name="Enter Disappearance Rating" transform="translate(119.264 28.563)" fill="#2e5b9f" font-size="14" font-family="ArialMT, Arial"><tspan x="-87.941" y="0">Enter Disappearance Rating</tspan></text>
    </g>
  </g>
</svg>
