<svg xmlns="http://www.w3.org/2000/svg" xmlns:xlink="http://www.w3.org/1999/xlink" width="412" height="845" viewBox="0 0 412 845">
  <defs>
    <clipPath id="clip-path">
      <rect id="Rectangle_1960" data-name="Rectangle 1960" width="52" height="129" transform="translate(0.228 0.363)" fill="none" stroke="#707070" stroke-width="1"/>
    </clipPath>
    <filter id="bg" x="195" y="232" width="222" height="224" filterUnits="userSpaceOnUse">
      <feOffset dy="4" input="SourceAlpha"/>
      <feGaussianBlur stdDeviation="8" result="blur"/>
      <feFlood flood-color="#455b63" flood-opacity="0.078"/>
      <feComposite operator="in" in2="blur"/>
      <feComposite in="SourceGraphic"/>
    </filter>
    <filter id="bg-2" x="-1" y="232" width="222" height="224" filterUnits="userSpaceOnUse">
      <feOffset dy="4" input="SourceAlpha"/>
      <feGaussianBlur stdDeviation="8" result="blur-2"/>
      <feFlood flood-color="#455b63" flood-opacity="0.078"/>
      <feComposite operator="in" in2="blur-2"/>
      <feComposite in="SourceGraphic"/>
    </filter>
    <filter id="Rectangle_1534" x="-9" y="775" width="430" height="78" filterUnits="userSpaceOnUse">
      <feOffset dy="-3" input="SourceAlpha"/>
      <feGaussianBlur stdDeviation="3" result="blur-3"/>
      <feFlood flood-opacity="0.059"/>
      <feComposite operator="in" in2="blur-3"/>
      <feComposite in="SourceGraphic"/>
    </filter>
    <clipPath id="clip-Pill_tracking">
      <rect width="412" height="845"/>
    </clipPath>
  </defs>
  <g id="Pill_tracking" data-name="Pill tracking" clip-path="url(#clip-Pill_tracking)">
    <rect width="412" height="845" fill="#e9eff4"/>
    <text id="Pill_Tracking-2" data-name="Pill Tracking" transform="translate(21 41)" fill="#1e64cc" font-size="24" font-family="Arial-BoldMT, Arial" font-weight="700"><tspan x="0" y="22">Pill Tracking</tspan></text>
    <path id="Path_4599" data-name="Path 4599" d="M-1789,6345.073h372" transform="translate(1810 -6129)" fill="none" stroke="#707070" stroke-width="1" opacity="0.2"/>
    <g id="card" transform="translate(7 92)">
      <g id="Languages" transform="translate(62 16)">
        <text id="_15_Pills" data-name="15 Pills" transform="translate(14 6)" fill="#1e64cc" font-size="24" font-family="Arial-BoldMT, Arial" font-weight="700"><tspan x="0" y="22">15 Pills</tspan></text>
        <circle id="Ellipse_689" data-name="Ellipse 689" cx="24.5" cy="24.5" r="24.5" transform="translate(-46 8)" fill="#d2dff2"/>
        <path id="Icon_awesome-pills" data-name="Icon awesome-pills" d="M3.609,0A3.607,3.607,0,0,0,0,3.609v7.217a3.609,3.609,0,1,0,7.217,0V3.609A3.607,3.607,0,0,0,3.609,0ZM5.155,7.217H2.062V3.609a1.547,1.547,0,1,1,3.093,0Z" transform="matrix(0.839, 0.545, -0.545, 0.839, -25.4, 17.185)" fill="#1e64cc"/>
        <g id="Group_3552" data-name="Group 3552" transform="translate(-24.328 30.056)">
          <g id="Ellipse_690" data-name="Ellipse 690" transform="translate(0 0)" fill="#1e64cc" stroke="#fff" stroke-width="1">
            <ellipse cx="7.085" cy="7.085" rx="7.085" ry="7.085" stroke="none"/>
            <ellipse cx="7.085" cy="7.085" rx="6.585" ry="6.585" fill="none"/>
          </g>
          <path id="Path_8467" data-name="Path 8467" d="M-23.5,32.114V44.606" transform="translate(30.585 -31.185)" fill="none" stroke="#fff" stroke-width="1"/>
        </g>
      </g>
      <g id="Languages-2" data-name="Languages" transform="translate(62 57)">
        <text id="Active_Medication" data-name="Active Medication" transform="translate(14)" fill="#1e64cc" font-size="12" font-family="ArialMT, Arial"><tspan x="0" y="11">Active Medication</tspan></text>
      </g>
      <g id="Group_3543" data-name="Group 3543" transform="translate(2.274 -20.363)">
        <g id="Group_2746" data-name="Group 2746" transform="translate(259.482 18.118)">
          <g id="Ellipse_396" data-name="Ellipse 396" transform="translate(0.245 0.245)" fill="none" stroke="#78d944" stroke-width="6">
            <circle cx="51.5" cy="51.5" r="51.5" stroke="none"/>
            <circle cx="51.5" cy="51.5" r="48.5" fill="none"/>
          </g>
          <text id="_50_" data-name="50%" transform="translate(53.243 59.244)" fill="#1e64cc" font-size="25" font-family="ArialMT, Arial"><tspan x="-25.018" y="0">50%</tspan></text>
        </g>
        <g id="Group_3531" data-name="Group 3531" transform="translate(310.498 5)">
          <g id="Mask_Group_6" data-name="Mask Group 6" transform="translate(0)" clip-path="url(#clip-path)">
            <g id="Ellipse_396-2" data-name="Ellipse 396" transform="translate(19.445 135.994) rotate(-150)" fill="none" stroke="#fff" stroke-width="6">
              <circle cx="52.096" cy="52.096" r="52.096" stroke="none"/>
              <circle cx="52.096" cy="52.096" r="49.096" fill="none"/>
            </g>
          </g>
        </g>
      </g>
    </g>
    <g id="card-2" data-name="card" transform="translate(219.306 252)">
      <g transform="matrix(1, 0, 0, 1, -219.31, -252)" filter="url(#bg)">
        <rect id="bg-3" data-name="bg" width="174" height="176" rx="12" transform="translate(219 252)" fill="#edf4fd"/>
      </g>
      <g id="Languages-3" data-name="Languages" transform="translate(14.389 12.333)">
        <text id="_02_Pills" data-name="02 Pills" transform="translate(0.306 50.667)" fill="#1e64cc" font-size="18" font-family="Arial-BoldMT, Arial" font-weight="700"><tspan x="0" y="16">02 Pills</tspan></text>
        <g id="Group_3920" data-name="Group 3920">
          <circle id="Ellipse_689-2" data-name="Ellipse 689" cx="21" cy="21" r="21" transform="translate(0.307 -0.333)" fill="#d2dff2"/>
          <path id="Icon_awesome-pills-2" data-name="Icon awesome-pills" d="M3.1,0A3.1,3.1,0,0,0,0,3.1V9.3a3.1,3.1,0,1,0,6.2,0V3.1A3.1,3.1,0,0,0,3.1,0ZM4.429,6.2H1.772V3.1a1.329,1.329,0,1,1,2.657,0Z" transform="matrix(0.839, 0.545, -0.545, 0.839, 17.699, 7.891)" fill="#1e64cc"/>
          <g id="Group_3552-2" data-name="Group 3552" transform="translate(18.621 18.95)">
            <g id="Ellipse_690-2" data-name="Ellipse 690" transform="translate(0 0)" fill="#1e64cc" stroke="#fff" stroke-width="0.5">
              <ellipse cx="6.087" cy="6.087" rx="6.087" ry="6.087" stroke="none"/>
              <ellipse cx="6.087" cy="6.087" rx="5.837" ry="5.837" fill="none"/>
            </g>
            <path id="Path_8467-2" data-name="Path 8467" d="M-23.5,32.114V42.847" transform="translate(29.587 -31.316)" fill="none" stroke="#fff" stroke-width="0.5"/>
          </g>
        </g>
      </g>
      <g id="Languages-4" data-name="Languages" transform="translate(14.389 89.417)">
        <text id="Prescribed_on_12_02_2021" data-name="Prescribed on 12/02/2021" transform="translate(0.306 -0.417)" fill="#1e64cc" font-size="12" font-family="ArialMT, Arial"><tspan x="0" y="11">Prescribed on 12/02/2021</tspan></text>
      </g>
      <text id="Dr_._Maschio_silvestre_" data-name="Dr . Maschio silvestre " transform="translate(14.695 158)" fill="#1e64cc" font-size="14" font-family="Arial-BoldMT, Arial" font-weight="700"><tspan x="0" y="0">Dr . Maschio silvestre </tspan></text>
      <text id="Prescribed_by" data-name="Prescribed by" transform="translate(14.695 135)" fill="#1e64cc" font-size="12" font-family="ArialMT, Arial" opacity="0.5"><tspan x="0" y="0">Prescribed by</tspan></text>
    </g>
    <g id="card-3" data-name="card" transform="translate(23 252)">
      <g transform="matrix(1, 0, 0, 1, -23, -252)" filter="url(#bg-2)">
        <rect id="bg-4" data-name="bg" width="174" height="176" rx="12" transform="translate(23 252)" fill="#edf4fd"/>
      </g>
      <g id="Languages-5" data-name="Languages" transform="translate(14.389 12.333)">
        <text id="_13_Pills" data-name="13 Pills" transform="translate(-0.389 50.667)" fill="#1e64cc" font-size="18" font-family="Arial-BoldMT, Arial" font-weight="700"><tspan x="0" y="16">13 Pills</tspan></text>
        <g id="Group_3919" data-name="Group 3919">
          <ellipse id="Ellipse_689-3" data-name="Ellipse 689" cx="21.5" cy="21" rx="21.5" ry="21" transform="translate(-0.389 -0.333)" fill="#d2dff2"/>
          <path id="Icon_awesome-pills-3" data-name="Icon awesome-pills" d="M3.1,0A3.1,3.1,0,0,0,0,3.1V9.3a3.1,3.1,0,1,0,6.2,0V3.1A3.1,3.1,0,0,0,3.1,0ZM4.429,6.2H1.772V3.1a1.329,1.329,0,1,1,2.657,0Z" transform="matrix(0.839, 0.545, -0.545, 0.839, 17.699, 7.891)" fill="#1e64cc"/>
          <g id="Group_3552-3" data-name="Group 3552" transform="translate(18.619 18.95)">
            <g id="Ellipse_690-3" data-name="Ellipse 690" transform="translate(0 0)" fill="#1e64cc" stroke="#fff" stroke-width="0.5">
              <ellipse cx="6.087" cy="6.087" rx="6.087" ry="6.087" stroke="none"/>
              <ellipse cx="6.087" cy="6.087" rx="5.837" ry="5.837" fill="none"/>
            </g>
            <path id="Path_8467-3" data-name="Path 8467" d="M-23.5,32.114V42.847" transform="translate(29.587 -31.316)" fill="none" stroke="#fff" stroke-width="0.5"/>
          </g>
        </g>
      </g>
      <g id="Languages-6" data-name="Languages" transform="translate(14.389 89.417)">
        <text id="Prescribed_on_12_02_2021-2" data-name="Prescribed on 12/02/2021" transform="translate(-0.389 -0.417)" fill="#1e64cc" font-size="12" font-family="ArialMT, Arial"><tspan x="0" y="11">Prescribed on 12/02/2021</tspan></text>
      </g>
      <text id="Dr_._Gaurav" data-name="Dr . Gaurav" transform="translate(14 158)" fill="#1e64cc" font-size="14" font-family="Arial-BoldMT, Arial" font-weight="700"><tspan x="0" y="0">Dr . Gaurav</tspan></text>
      <text id="Prescribed_by-2" data-name="Prescribed by" transform="translate(14 135)" fill="#1e64cc" font-size="12" font-family="ArialMT, Arial" opacity="0.5"><tspan x="0" y="0">Prescribed by</tspan></text>
    </g>
    <g id="Component_119_88" data-name="Component 119 – 88" transform="translate(0 787)">
      <g transform="matrix(1, 0, 0, 1, 0, -787)" filter="url(#Rectangle_1534)">
        <rect id="Rectangle_1534-2" data-name="Rectangle 1534" width="412" height="60" transform="translate(0 787)" fill="#102646"/>
      </g>
      <g id="Group_2755" data-name="Group 2755" transform="translate(0 -779)">
        <g id="Rectangle_1564" data-name="Rectangle 1564" transform="translate(12 789)" fill="#fff" stroke="#707070" stroke-width="1" opacity="0">
          <rect width="50" height="45" stroke="none"/>
          <rect x="0.5" y="0.5" width="49" height="44" fill="none"/>
        </g>
        <path id="Path_4565" data-name="Path 4565" d="M35.606,24.011l-7.368-7.1,7.368-7.1a1.37,1.37,0,0,0,.424-.982,1.4,1.4,0,0,0-.4-1,1.369,1.369,0,0,0-.982-.424h-.022a1.385,1.385,0,0,0-.982.4l-8.417,8.1a1.42,1.42,0,0,0-.424,1,1.382,1.382,0,0,0,.424,1l8.439,8.1a1.443,1.443,0,0,0,.982.4,1.42,1.42,0,0,0,1-.424,1.4,1.4,0,0,0,.4-1A1.274,1.274,0,0,0,35.606,24.011Z" transform="translate(5.036 792.435)" fill="#fff"/>
      </g>
    </g>
  </g>
</svg>
