<svg xmlns="http://www.w3.org/2000/svg" xmlns:xlink="http://www.w3.org/1999/xlink" width="412" height="1272" viewBox="0 0 412 1272">
  <defs>
    <filter id="bg" x="-4" y="142" width="421" height="259" filterUnits="userSpaceOnUse">
      <feOffset dy="4" input="SourceAlpha"/>
      <feGaussianBlur stdDeviation="8" result="blur"/>
      <feFlood flood-color="#455b63" flood-opacity="0.078"/>
      <feComposite operator="in" in2="blur"/>
      <feComposite in="SourceGraphic"/>
    </filter>
    <filter id="Path_7" x="38.646" y="288.035" width="334.117" height="95.559" filterUnits="userSpaceOnUse">
      <feOffset dy="3" input="SourceAlpha"/>
      <feGaussianBlur stdDeviation="8" result="blur-2"/>
      <feFlood flood-opacity="0.078"/>
      <feComposite operator="in" in2="blur-2"/>
      <feComposite in="SourceGraphic"/>
    </filter>
    <filter id="bg-2" x="-4" y="407" width="421" height="259" filterUnits="userSpaceOnUse">
      <feOffset dy="4" input="SourceAlpha"/>
      <feGaussianBlur stdDeviation="8" result="blur-3"/>
      <feFlood flood-color="#455b63" flood-opacity="0.078"/>
      <feComposite operator="in" in2="blur-3"/>
      <feComposite in="SourceGraphic"/>
    </filter>
    <filter id="Path_7-2" x="38.646" y="553.035" width="334.117" height="95.559" filterUnits="userSpaceOnUse">
      <feOffset dy="3" input="SourceAlpha"/>
      <feGaussianBlur stdDeviation="8" result="blur-4"/>
      <feFlood flood-opacity="0.078"/>
      <feComposite operator="in" in2="blur-4"/>
      <feComposite in="SourceGraphic"/>
    </filter>
    <filter id="bg-3" x="-4" y="671.855" width="421" height="259" filterUnits="userSpaceOnUse">
      <feOffset dy="4" input="SourceAlpha"/>
      <feGaussianBlur stdDeviation="8" result="blur-5"/>
      <feFlood flood-color="#455b63" flood-opacity="0.078"/>
      <feComposite operator="in" in2="blur-5"/>
      <feComposite in="SourceGraphic"/>
    </filter>
    <filter id="Path_7-3" x="38.646" y="817.891" width="334.117" height="95.559" filterUnits="userSpaceOnUse">
      <feOffset dy="3" input="SourceAlpha"/>
      <feGaussianBlur stdDeviation="8" result="blur-6"/>
      <feFlood flood-opacity="0.078"/>
      <feComposite operator="in" in2="blur-6"/>
      <feComposite in="SourceGraphic"/>
    </filter>
    <filter id="Rectangle_1534" x="-9" y="775" width="430" height="78" filterUnits="userSpaceOnUse">
      <feOffset dy="-3" input="SourceAlpha"/>
      <feGaussianBlur stdDeviation="3" result="blur-7"/>
      <feFlood flood-opacity="0.059"/>
      <feComposite operator="in" in2="blur-7"/>
      <feComposite in="SourceGraphic"/>
    </filter>
    <clipPath id="clip-Pill_tracking_3">
      <rect width="412" height="1272"/>
    </clipPath>
  </defs>
  <g id="Pill_tracking_3" data-name="Pill tracking – 3" clip-path="url(#clip-Pill_tracking_3)">
    <rect width="412" height="1272" fill="#e9eff4"/>
    <g id="Group_1500" data-name="Group 1500" transform="translate(0 -5)">
      <text id="Try_CBT_Tool_for_Mood_issue" data-name="Try CBT Tool for Mood issue" transform="translate(23 29)" fill="#1e64cc" font-size="24" font-family="Arial-BoldMT, Arial" font-weight="700"><tspan x="0" y="22">Try CBT Tool for </tspan><tspan x="0" y="53">Mood issue</tspan></text>
    </g>
    <path id="Path_4578" data-name="Path 4578" d="M-1789,6345.073h372" transform="translate(1810 -6222)" fill="none" stroke="#707070" stroke-width="1" opacity="0.2"/>
    <path id="Path_4599" data-name="Path 4599" d="M-1789,6345.073h372" transform="translate(1810 -5945)" fill="none" stroke="#707070" stroke-width="1" opacity="0.2"/>
    <path id="Path_8475" data-name="Path 8475" d="M-1789,6345.073h372" transform="translate(1810 -5680.146)" fill="none" stroke="#707070" stroke-width="1" opacity="0.2"/>
    <g id="card" transform="translate(20 162)">
      <g transform="matrix(1, 0, 0, 1, -20, -162)" filter="url(#bg)">
        <rect id="bg-4" data-name="bg" width="373" height="211" rx="12" transform="translate(20 162)" fill="#f0f6fa"/>
      </g>
      <g id="Languages" transform="translate(6 16)">
        <text id="Your_Mood" data-name="Your Mood" transform="translate(14 -1)" fill="#1e64cc" font-size="24" font-family="Arial-BoldMT, Arial" font-weight="700"><tspan x="0" y="22">Your Mood</tspan></text>
      </g>
      <g id="Languages-2" data-name="Languages" transform="translate(6 49)">
        <text id="This_week" data-name="This week" transform="translate(14)" fill="#1e64cc" font-size="12" font-family="ArialMT, Arial"><tspan x="0" y="11">This week</tspan></text>
      </g>
      <text id="We_seen_a_certain_negative_in_your_Mood._zenquip_will_helps_to_Boost_your_mood" data-name="We seen a certain negative in your Mood. 
zenquip will helps to Boost your mood" transform="translate(19 100)" fill="#808495" font-size="16" font-family="ArialMT, Arial"><tspan x="0" y="0">We seen a certain negative in your Mood. </tspan><tspan x="0" y="22">zenquip will helps to Boost your mood</tspan></text>
      <g id="Search" transform="translate(1 147.036)">
        <g transform="matrix(1, 0, 0, 1, -21, -309.04)" filter="url(#Path_7)">
          <path id="Path_7-4" data-name="Path 7" d="M6.853,5H279.264c3.785,0,6.853,3.961,6.853,8.848V43.71c0,4.887-3.068,8.848-6.853,8.848H6.853C3.068,52.558,0,48.6,0,43.71V13.848C0,8.961,3.068,5,6.853,5Z" transform="translate(62.65 304.04)" fill="#ff9241"/>
        </g>
        <text id="Get_Started" data-name="Get Started" transform="translate(84 11.964)" fill="#fff" font-size="16" font-family="Lato-Regular, Lato"><tspan x="60.124" y="16">Get Started</tspan></text>
      </g>
    </g>
    <g id="card-2" data-name="card" transform="translate(20 427)">
      <g transform="matrix(1, 0, 0, 1, -20, -427)" filter="url(#bg-2)">
        <rect id="bg-5" data-name="bg" width="373" height="211" rx="12" transform="translate(20 427)" fill="#f0f6fa"/>
      </g>
      <g id="Languages-3" data-name="Languages" transform="translate(6 16)">
        <text id="Problem_with_relationship" data-name="Problem with relationship" transform="translate(14 -1)" fill="#1e64cc" font-size="24" font-family="Arial-BoldMT, Arial" font-weight="700"><tspan x="0" y="22">Problem with relationship</tspan></text>
      </g>
      <g id="Languages-4" data-name="Languages" transform="translate(6 49)">
        <text id="Assessed_on_12_03_2021" data-name="Assessed on 12/03/2021" transform="translate(14)" fill="#1e64cc" font-size="12" font-family="ArialMT, Arial"><tspan x="0" y="11">Assessed on 12/03/2021</tspan></text>
      </g>
      <text id="We_seen_a_certain_negative_in_your_Mood._zenquip_will_helps_to_Boost_your_mood-2" data-name="We seen a certain negative in your Mood. 
zenquip will helps to Boost your mood" transform="translate(19 100)" fill="#808495" font-size="16" font-family="ArialMT, Arial"><tspan x="0" y="0">We seen a certain negative in your Mood. </tspan><tspan x="0" y="22">zenquip will helps to Boost your mood</tspan></text>
      <g id="Search-2" data-name="Search" transform="translate(1 147.036)">
        <g transform="matrix(1, 0, 0, 1, -21, -574.04)" filter="url(#Path_7-2)">
          <path id="Path_7-5" data-name="Path 7" d="M6.853,5H279.264c3.785,0,6.853,3.961,6.853,8.848V43.71c0,4.887-3.068,8.848-6.853,8.848H6.853C3.068,52.558,0,48.6,0,43.71V13.848C0,8.961,3.068,5,6.853,5Z" transform="translate(62.65 569.04)" fill="#ff9241"/>
        </g>
        <text id="Get_Started-2" data-name="Get Started" transform="translate(84 11.964)" fill="#fff" font-size="16" font-family="Lato-Regular, Lato"><tspan x="60.124" y="16">Get Started</tspan></text>
      </g>
    </g>
    <g id="card-3" data-name="card" transform="translate(20 691.854)">
      <g transform="matrix(1, 0, 0, 1, -20, -691.85)" filter="url(#bg-3)">
        <rect id="bg-6" data-name="bg" width="373" height="211" rx="12" transform="translate(20 691.85)" fill="#f0f6fa"/>
      </g>
      <g id="Languages-5" data-name="Languages" transform="translate(6 16)">
        <text id="Problem_with_Work" data-name="Problem with Work" transform="translate(14 -1)" fill="#1e64cc" font-size="24" font-family="Arial-BoldMT, Arial" font-weight="700"><tspan x="0" y="22">Problem with Work</tspan></text>
      </g>
      <g id="Languages-6" data-name="Languages" transform="translate(6 49)">
        <text id="Assessed_on_12_03_2021-2" data-name="Assessed on 12/03/2021" transform="translate(14)" fill="#1e64cc" font-size="12" font-family="ArialMT, Arial"><tspan x="0" y="11">Assessed on 12/03/2021</tspan></text>
      </g>
      <text id="We_seen_a_certain_negative_in_your_Mood._zenquip_will_helps_to_Boost_your_mood-3" data-name="We seen a certain negative in your Mood. 
zenquip will helps to Boost your mood" transform="translate(19 100)" fill="#808495" font-size="16" font-family="ArialMT, Arial"><tspan x="0" y="0">We seen a certain negative in your Mood. </tspan><tspan x="0" y="22">zenquip will helps to Boost your mood</tspan></text>
      <g id="Search-3" data-name="Search" transform="translate(1 147.036)">
        <g transform="matrix(1, 0, 0, 1, -21, -838.89)" filter="url(#Path_7-3)">
          <path id="Path_7-6" data-name="Path 7" d="M6.853,5H279.264c3.785,0,6.853,3.961,6.853,8.848V43.71c0,4.887-3.068,8.848-6.853,8.848H6.853C3.068,52.558,0,48.6,0,43.71V13.848C0,8.961,3.068,5,6.853,5Z" transform="translate(62.65 833.89)" fill="#ff9241"/>
        </g>
        <text id="Get_Started-3" data-name="Get Started" transform="translate(84 11.964)" fill="#fff" font-size="16" font-family="Lato-Regular, Lato"><tspan x="60.124" y="16">Get Started</tspan></text>
      </g>
    </g>
    <g id="Component_119_134" data-name="Component 119 – 134" transform="translate(0 787)">
      <g transform="matrix(1, 0, 0, 1, 0, -787)" filter="url(#Rectangle_1534)">
        <rect id="Rectangle_1534-2" data-name="Rectangle 1534" width="412" height="60" transform="translate(0 787)" fill="#102646"/>
      </g>
      <g id="Group_2755" data-name="Group 2755" transform="translate(0 -779)">
        <g id="Rectangle_1564" data-name="Rectangle 1564" transform="translate(12 789)" fill="#fff" stroke="#707070" stroke-width="1" opacity="0">
          <rect width="50" height="45" stroke="none"/>
          <rect x="0.5" y="0.5" width="49" height="44" fill="none"/>
        </g>
        <path id="Path_4565" data-name="Path 4565" d="M35.606,24.011l-7.368-7.1,7.368-7.1a1.37,1.37,0,0,0,.424-.982,1.4,1.4,0,0,0-.4-1,1.369,1.369,0,0,0-.982-.424h-.022a1.385,1.385,0,0,0-.982.4l-8.417,8.1a1.42,1.42,0,0,0-.424,1,1.382,1.382,0,0,0,.424,1l8.439,8.1a1.443,1.443,0,0,0,.982.4,1.42,1.42,0,0,0,1-.424,1.4,1.4,0,0,0,.4-1A1.274,1.274,0,0,0,35.606,24.011Z" transform="translate(5.036 792.435)" fill="#fff"/>
      </g>
    </g>
  </g>
</svg>
