<svg xmlns="http://www.w3.org/2000/svg" xmlns:xlink="http://www.w3.org/1999/xlink" width="412" height="848" viewBox="0 0 412 848">
  <defs>
    <filter id="Path_7" x="10.332" y="223" width="391.336" height="68" filterUnits="userSpaceOnUse">
      <feOffset dy="3" input="SourceAlpha"/>
      <feGaussianBlur stdDeviation="3" result="blur"/>
      <feFlood flood-opacity="0.031"/>
      <feComposite operator="in" in2="blur"/>
      <feComposite in="SourceGraphic"/>
    </filter>
    <filter id="Path_7-2" x="10.332" y="289" width="391.336" height="68" filterUnits="userSpaceOnUse">
      <feOffset dy="3" input="SourceAlpha"/>
      <feGaussianBlur stdDeviation="3" result="blur-2"/>
      <feFlood flood-opacity="0.031"/>
      <feComposite operator="in" in2="blur-2"/>
      <feComposite in="SourceGraphic"/>
    </filter>
    <filter id="Path_7-3" x="10.332" y="355" width="391.336" height="68" filterUnits="userSpaceOnUse">
      <feOffset dy="3" input="SourceAlpha"/>
      <feGaussianBlur stdDeviation="3" result="blur-3"/>
      <feFlood flood-opacity="0.031"/>
      <feComposite operator="in" in2="blur-3"/>
      <feComposite in="SourceGraphic"/>
    </filter>
    <linearGradient id="linear-gradient" x1="0.5" x2="0.5" y2="1" gradientUnits="objectBoundingBox">
      <stop offset="0" stop-color="#37aadd"/>
      <stop offset="1" stop-color="#1f64cc"/>
    </linearGradient>
    <filter id="Rectangle_1534" x="-9" y="775" width="430" height="78" filterUnits="userSpaceOnUse">
      <feOffset dy="-3" input="SourceAlpha"/>
      <feGaussianBlur stdDeviation="3" result="blur-4"/>
      <feFlood flood-opacity="0.059"/>
      <feComposite operator="in" in2="blur-4"/>
      <feComposite in="SourceGraphic"/>
    </filter>
    <clipPath id="clip-Profile2_6">
      <rect width="412" height="848"/>
    </clipPath>
  </defs>
  <g id="Profile2_6" data-name="Profile2 – 6" clip-path="url(#clip-Profile2_6)">
    <rect width="412" height="848" fill="#f2f5f7"/>
    <text id="Patient_profile" data-name="Patient profile" transform="translate(19 183.631)" fill="#0e58c7" font-size="20" font-family="Arial-BoldMT, Arial" font-weight="700"><tspan x="0" y="18">Patient profile</tspan></text>
    <g id="Search" transform="translate(19.332 228.845)">
      <g transform="matrix(1, 0, 0, 1, -19.33, -228.84)" filter="url(#Path_7)">
        <path id="Path_7-4" data-name="Path 7" d="M8.942,5H364.394a9.128,9.128,0,0,1,8.942,9.3V45.7a9.128,9.128,0,0,1-8.942,9.3H8.942A9.128,9.128,0,0,1,0,45.7V14.3A9.128,9.128,0,0,1,8.942,5Z" transform="translate(19.33 224)" fill="#fff"/>
      </g>
      <text id="Father" transform="translate(16.323 31.156)" fill="#1e64cc" font-size="16" font-family="ArialMT, Arial"><tspan x="0" y="0">Father</tspan></text>
      <text id="Switch" transform="translate(345.668 31.156)" fill="#1e64cc" font-size="16" font-family="ArialMT, Arial"><tspan x="-47.125" y="0">Switch</tspan></text>
    </g>
    <g id="Search-2" data-name="Search" transform="translate(19.332 294.845)">
      <g transform="matrix(1, 0, 0, 1, -19.33, -294.84)" filter="url(#Path_7-2)">
        <path id="Path_7-5" data-name="Path 7" d="M8.942,5H364.394a9.128,9.128,0,0,1,8.942,9.3V45.7a9.128,9.128,0,0,1-8.942,9.3H8.942A9.128,9.128,0,0,1,0,45.7V14.3A9.128,9.128,0,0,1,8.942,5Z" transform="translate(19.33 290)" fill="#fff"/>
      </g>
      <text id="Friend_1" data-name="Friend 1" transform="translate(16.323 31.156)" fill="#1e64cc" font-size="16" font-family="ArialMT, Arial"><tspan x="0" y="0">Friend 1</tspan></text>
      <text id="Switch-2" data-name="Switch" transform="translate(345.668 31.156)" fill="#1e64cc" font-size="16" font-family="ArialMT, Arial"><tspan x="-47.125" y="0">Switch</tspan></text>
    </g>
    <g id="Search-3" data-name="Search" transform="translate(19.332 360.845)">
      <g transform="matrix(1, 0, 0, 1, -19.33, -360.84)" filter="url(#Path_7-3)">
        <path id="Path_7-6" data-name="Path 7" d="M8.942,5H364.394a9.128,9.128,0,0,1,8.942,9.3V45.7a9.128,9.128,0,0,1-8.942,9.3H8.942A9.128,9.128,0,0,1,0,45.7V14.3A9.128,9.128,0,0,1,8.942,5Z" transform="translate(19.33 356)" fill="#fff"/>
      </g>
      <text id="Friend_2" data-name="Friend 2" transform="translate(16.323 31.156)" fill="#1e64cc" font-size="16" font-family="ArialMT, Arial"><tspan x="0" y="0">Friend 2</tspan></text>
      <text id="Switch-3" data-name="Switch" transform="translate(345.668 31.156)" fill="#1e64cc" font-size="16" font-family="ArialMT, Arial"><tspan x="-47.125" y="0">Switch</tspan></text>
    </g>
    <g id="Group_1500" data-name="Group 1500">
      <path id="Rectangle_293" data-name="Rectangle 293" d="M0,0H412a0,0,0,0,1,0,0V131a20,20,0,0,1-20,20H20A20,20,0,0,1,0,131V0A0,0,0,0,1,0,0Z" fill="url(#linear-gradient)"/>
      <text id="Manage_Patient" data-name="Manage Patient" transform="translate(21 99)" fill="#fff" font-size="24" font-family="Arial-BoldMT, Arial" font-weight="700"><tspan x="0" y="22">Manage Patient</tspan></text>
    </g>
    <g id="Component_119_133" data-name="Component 119 – 133" transform="translate(0 787)">
      <g transform="matrix(1, 0, 0, 1, 0, -787)" filter="url(#Rectangle_1534)">
        <rect id="Rectangle_1534-2" data-name="Rectangle 1534" width="412" height="60" transform="translate(0 787)" fill="#102646"/>
      </g>
      <g id="Group_2755" data-name="Group 2755" transform="translate(0 -779)">
        <g id="Rectangle_1564" data-name="Rectangle 1564" transform="translate(12 789)" fill="#fff" stroke="#707070" stroke-width="1" opacity="0">
          <rect width="50" height="45" stroke="none"/>
          <rect x="0.5" y="0.5" width="49" height="44" fill="none"/>
        </g>
        <path id="Path_4565" data-name="Path 4565" d="M35.606,24.011l-7.368-7.1,7.368-7.1a1.37,1.37,0,0,0,.424-.982,1.4,1.4,0,0,0-.4-1,1.369,1.369,0,0,0-.982-.424h-.022a1.385,1.385,0,0,0-.982.4l-8.417,8.1a1.42,1.42,0,0,0-.424,1,1.382,1.382,0,0,0,.424,1l8.439,8.1a1.443,1.443,0,0,0,.982.4,1.42,1.42,0,0,0,1-.424,1.4,1.4,0,0,0,.4-1A1.274,1.274,0,0,0,35.606,24.011Z" transform="translate(5.036 792.435)" fill="#fff"/>
      </g>
    </g>
  </g>
</svg>
