<svg xmlns="http://www.w3.org/2000/svg" xmlns:xlink="http://www.w3.org/1999/xlink" width="412" height="848" viewBox="0 0 412 848">
  <defs>
    <linearGradient id="linear-gradient" x1="0.5" x2="0.5" y2="1" gradientUnits="objectBoundingBox">
      <stop offset="0" stop-color="#37aadd"/>
      <stop offset="1" stop-color="#1f64cc"/>
    </linearGradient>
    <filter id="Path_7" x="10.332" y="156.938" width="391.336" height="87.384" filterUnits="userSpaceOnUse">
      <feOffset dy="3" input="SourceAlpha"/>
      <feGaussianBlur stdDeviation="3" result="blur"/>
      <feFlood flood-opacity="0.031"/>
      <feComposite operator="in" in2="blur"/>
      <feComposite in="SourceGraphic"/>
    </filter>
    <filter id="Path_7-2" x="10.332" y="242.938" width="391.336" height="87.384" filterUnits="userSpaceOnUse">
      <feOffset dy="3" input="SourceAlpha"/>
      <feGaussianBlur stdDeviation="3" result="blur-2"/>
      <feFlood flood-opacity="0.031"/>
      <feComposite operator="in" in2="blur-2"/>
      <feComposite in="SourceGraphic"/>
    </filter>
    <filter id="Path_7-3" x="10.332" y="328.938" width="391.336" height="87.384" filterUnits="userSpaceOnUse">
      <feOffset dy="3" input="SourceAlpha"/>
      <feGaussianBlur stdDeviation="3" result="blur-3"/>
      <feFlood flood-opacity="0.031"/>
      <feComposite operator="in" in2="blur-3"/>
      <feComposite in="SourceGraphic"/>
    </filter>
    <filter id="Rectangle_1534" x="-9" y="775" width="430" height="78" filterUnits="userSpaceOnUse">
      <feOffset dy="-3" input="SourceAlpha"/>
      <feGaussianBlur stdDeviation="3" result="blur-4"/>
      <feFlood flood-opacity="0.059"/>
      <feComposite operator="in" in2="blur-4"/>
      <feComposite in="SourceGraphic"/>
    </filter>
    <clipPath id="clip-Profile2_5">
      <rect width="412" height="848"/>
    </clipPath>
  </defs>
  <g id="Profile2_5" data-name="Profile2 – 5" clip-path="url(#clip-Profile2_5)">
    <rect width="412" height="848" fill="#f2f5f7"/>
    <g id="Group_1500" data-name="Group 1500">
      <path id="Rectangle_293" data-name="Rectangle 293" d="M0,0H412a0,0,0,0,1,0,0V75a10,10,0,0,1-10,10H10A10,10,0,0,1,0,75V0A0,0,0,0,1,0,0Z" fill="url(#linear-gradient)"/>
      <g id="noun_User_1335326" transform="translate(18.234 27.128)">
        <g id="Group_3" data-name="Group 3">
          <path id="Path_4" data-name="Path 4" d="M18.436,5.053A13.383,13.383,0,1,0,31.819,18.436,13.4,13.4,0,0,0,18.436,5.053Zm0,24.931A11.548,11.548,0,1,1,29.984,18.436,11.561,11.561,0,0,1,18.436,29.984Z" transform="translate(-5.053 -5.053)" fill="#fff"/>
          <path id="Path_5" data-name="Path 5" d="M41.048,32.963A4.153,4.153,0,1,0,36.9,28.81,4.158,4.158,0,0,0,41.048,32.963Zm0-6.472A2.319,2.319,0,1,1,38.73,28.81,2.321,2.321,0,0,1,41.048,26.49Z" transform="translate(-27.414 -18.819)" fill="#fff"/>
          <path id="Path_6" data-name="Path 6" d="M39.9,56.067a5.182,5.182,0,0,0-4.837-3.518.914.914,0,0,0-.606.179,4.11,4.11,0,0,1-4.969,0,.92.92,0,0,0-.605-.178A5.185,5.185,0,0,0,24.029,56.1a.917.917,0,1,0,1.714.654,3.312,3.312,0,0,1,2.944-2.351,5.931,5.931,0,0,0,6.562,0,3.3,3.3,0,0,1,2.935,2.323.918.918,0,0,0,1.711-.664Z" transform="translate(-18.337 -38.405)" fill="#fff"/>
        </g>
      </g>
    </g>
    <text id="Guardian_Profile" data-name="Guardian Profile" transform="translate(58 26)" fill="#fff" font-size="22" font-family="Arial-BoldMT, Arial" font-weight="700"><tspan x="0" y="20">Guardian Profile</tspan></text>
    <text id="My_Gaurdians" data-name="My Gaurdians" transform="translate(19 117.631)" fill="#0e58c7" font-size="20" font-family="Arial-BoldMT, Arial" font-weight="700"><tspan x="0" y="18">My Gaurdians</tspan></text>
    <text id="_Invite_Guardian" data-name="+  Invite Guardian" transform="translate(240.668 118.939)" fill="#ff9241" font-size="18" font-family="ArialMT, Arial"><tspan x="9.415" y="16" xml:space="preserve">+  Invite Guardian</tspan></text>
    <g id="Search" transform="translate(19.332 162.845)">
      <g transform="matrix(1, 0, 0, 1, -19.33, -162.84)" filter="url(#Path_7)">
        <path id="Path_7-4" data-name="Path 7" d="M8.942,5H364.394c4.939,0,8.942,5.779,8.942,12.909V61.475c0,7.129-4,12.909-8.942,12.909H8.942C4,74.384,0,68.6,0,61.475V17.909C0,10.779,4,5,8.942,5Z" transform="translate(19.33 157.94)" fill="#fff"/>
      </g>
      <text id="Father" transform="translate(16.323 28.094)" fill="#1e64cc" font-size="16" font-family="ArialMT, Arial"><tspan x="0" y="0">Father</tspan></text>
      <text id="_91-22829292992" data-name="+91-22829292992" transform="translate(16.323 54.094)" fill="#1e64cc" font-size="16" font-family="ArialMT, Arial"><tspan x="0" y="0">+91-22829292992</tspan></text>
    </g>
    <g id="Search-2" data-name="Search" transform="translate(19.332 248.845)">
      <g transform="matrix(1, 0, 0, 1, -19.33, -248.84)" filter="url(#Path_7-2)">
        <path id="Path_7-5" data-name="Path 7" d="M8.942,5H364.394c4.939,0,8.942,5.779,8.942,12.909V61.475c0,7.129-4,12.909-8.942,12.909H8.942C4,74.384,0,68.6,0,61.475V17.909C0,10.779,4,5,8.942,5Z" transform="translate(19.33 243.94)" fill="#fff"/>
      </g>
      <text id="Friend_1" data-name="Friend 1" transform="translate(16.323 28.094)" fill="#1e64cc" font-size="16" font-family="ArialMT, Arial"><tspan x="0" y="0">Friend 1</tspan></text>
      <text id="_91-22829292992-2" data-name="+91-22829292992" transform="translate(16.323 54.094)" fill="#1e64cc" font-size="16" font-family="ArialMT, Arial"><tspan x="0" y="0">+91-22829292992</tspan></text>
    </g>
    <g id="Search-3" data-name="Search" transform="translate(19.332 334.845)">
      <g transform="matrix(1, 0, 0, 1, -19.33, -334.84)" filter="url(#Path_7-3)">
        <path id="Path_7-6" data-name="Path 7" d="M8.942,5H364.394c4.939,0,8.942,5.779,8.942,12.909V61.475c0,7.129-4,12.909-8.942,12.909H8.942C4,74.384,0,68.6,0,61.475V17.909C0,10.779,4,5,8.942,5Z" transform="translate(19.33 329.94)" fill="#fff"/>
      </g>
      <text id="Friend_2" data-name="Friend 2" transform="translate(16.323 28.094)" fill="#1e64cc" font-size="16" font-family="ArialMT, Arial"><tspan x="0" y="0">Friend 2</tspan></text>
      <text id="_91-22829292992-3" data-name="+91-22829292992" transform="translate(16.323 54.094)" fill="#1e64cc" font-size="16" font-family="ArialMT, Arial"><tspan x="0" y="0">+91-22829292992</tspan></text>
    </g>
    <g id="Component_119_132" data-name="Component 119 – 132" transform="translate(0 787)">
      <g transform="matrix(1, 0, 0, 1, 0, -787)" filter="url(#Rectangle_1534)">
        <rect id="Rectangle_1534-2" data-name="Rectangle 1534" width="412" height="60" transform="translate(0 787)" fill="#102646"/>
      </g>
      <g id="Group_2755" data-name="Group 2755" transform="translate(0 -779)">
        <g id="Rectangle_1564" data-name="Rectangle 1564" transform="translate(12 789)" fill="#fff" stroke="#707070" stroke-width="1" opacity="0">
          <rect width="50" height="45" stroke="none"/>
          <rect x="0.5" y="0.5" width="49" height="44" fill="none"/>
        </g>
        <path id="Path_4565" data-name="Path 4565" d="M35.606,24.011l-7.368-7.1,7.368-7.1a1.37,1.37,0,0,0,.424-.982,1.4,1.4,0,0,0-.4-1,1.369,1.369,0,0,0-.982-.424h-.022a1.385,1.385,0,0,0-.982.4l-8.417,8.1a1.42,1.42,0,0,0-.424,1,1.382,1.382,0,0,0,.424,1l8.439,8.1a1.443,1.443,0,0,0,.982.4,1.42,1.42,0,0,0,1-.424,1.4,1.4,0,0,0,.4-1A1.274,1.274,0,0,0,35.606,24.011Z" transform="translate(5.036 792.435)" fill="#fff"/>
      </g>
    </g>
  </g>
</svg>
