<svg xmlns="http://www.w3.org/2000/svg" xmlns:xlink="http://www.w3.org/1999/xlink" width="412" height="1043" viewBox="0 0 412 1043">
  <defs>
    <filter id="Path_7" x="7" y="183.906" width="391.336" height="66.064" filterUnits="userSpaceOnUse">
      <feOffset dy="3" input="SourceAlpha"/>
      <feGaussianBlur stdDeviation="3" result="blur"/>
      <feFlood flood-opacity="0.031"/>
      <feComposite operator="in" in2="blur"/>
      <feComposite in="SourceGraphic"/>
    </filter>
    <filter id="Path_7-2" x="7" y="275.906" width="391.336" height="66.064" filterUnits="userSpaceOnUse">
      <feOffset dy="3" input="SourceAlpha"/>
      <feGaussianBlur stdDeviation="3" result="blur-2"/>
      <feFlood flood-opacity="0.031"/>
      <feComposite operator="in" in2="blur-2"/>
      <feComposite in="SourceGraphic"/>
    </filter>
    <filter id="Path_7-3" x="7" y="367.906" width="391.336" height="66.064" filterUnits="userSpaceOnUse">
      <feOffset dy="3" input="SourceAlpha"/>
      <feGaussianBlur stdDeviation="3" result="blur-3"/>
      <feFlood flood-opacity="0.031"/>
      <feComposite operator="in" in2="blur-3"/>
      <feComposite in="SourceGraphic"/>
    </filter>
    <filter id="Path_7-4" x="7" y="459.906" width="391.336" height="66.064" filterUnits="userSpaceOnUse">
      <feOffset dy="3" input="SourceAlpha"/>
      <feGaussianBlur stdDeviation="3" result="blur-4"/>
      <feFlood flood-opacity="0.031"/>
      <feComposite operator="in" in2="blur-4"/>
      <feComposite in="SourceGraphic"/>
    </filter>
    <filter id="Path_7-5" x="7" y="551.906" width="391.336" height="66.064" filterUnits="userSpaceOnUse">
      <feOffset dy="3" input="SourceAlpha"/>
      <feGaussianBlur stdDeviation="3" result="blur-5"/>
      <feFlood flood-opacity="0.031"/>
      <feComposite operator="in" in2="blur-5"/>
      <feComposite in="SourceGraphic"/>
    </filter>
    <filter id="Path_7-6" x="7" y="703.906" width="391.336" height="66.064" filterUnits="userSpaceOnUse">
      <feOffset dy="3" input="SourceAlpha"/>
      <feGaussianBlur stdDeviation="3" result="blur-6"/>
      <feFlood flood-opacity="0.031"/>
      <feComposite operator="in" in2="blur-6"/>
      <feComposite in="SourceGraphic"/>
    </filter>
    <filter id="Path_7-7" x="-5" y="864.438" width="423.572" height="96.064" filterUnits="userSpaceOnUse">
      <feOffset dy="3" input="SourceAlpha"/>
      <feGaussianBlur stdDeviation="8" result="blur-7"/>
      <feFlood flood-opacity="0.078"/>
      <feComposite operator="in" in2="blur-7"/>
      <feComposite in="SourceGraphic"/>
    </filter>
    <filter id="Path_7-8" x="-5" y="793.438" width="423.572" height="96.064" filterUnits="userSpaceOnUse">
      <feOffset dy="3" input="SourceAlpha"/>
      <feGaussianBlur stdDeviation="8" result="blur-8"/>
      <feFlood flood-opacity="0.078"/>
      <feComposite operator="in" in2="blur-8"/>
      <feComposite in="SourceGraphic"/>
    </filter>
    <linearGradient id="linear-gradient" x1="0.5" x2="0.5" y2="1" gradientUnits="objectBoundingBox">
      <stop offset="0" stop-color="#37aadd"/>
      <stop offset="1" stop-color="#1f64cc"/>
    </linearGradient>
    <clipPath id="clip-Profile2">
      <rect width="412" height="1043"/>
    </clipPath>
  </defs>
  <g id="Profile2" clip-path="url(#clip-Profile2)">
    <rect width="412" height="1043" fill="#f2f5f7"/>
    <text id="Linked_Accounts" data-name="Linked Accounts" transform="translate(16 676)" fill="#0e58c7" font-size="18" font-family="ArialMT, Arial"><tspan x="0" y="16">Linked Accounts</tspan></text>
    <text id="Personal_Details" data-name="Personal Details" transform="translate(16 120)" fill="#0e58c7" font-size="22" font-family="ArialMT, Arial"><tspan x="0" y="20">Personal Details</tspan></text>
    <text id="User_name" data-name="User name" transform="translate(16 181)" fill="#0f302f" font-size="14" font-family="ArialMT, Arial"><tspan x="0" y="0">User name</tspan></text>
    <text id="Mobile" transform="translate(16 273)" fill="#0f302f" font-size="14" font-family="ArialMT, Arial"><tspan x="0" y="0">Mobile</tspan></text>
    <text id="Email_Address" data-name="Email Address" transform="translate(16 365)" fill="#0f302f" font-size="14" font-family="ArialMT, Arial"><tspan x="0" y="0">Email Address</tspan></text>
    <text id="Location" transform="translate(16 457)" fill="#0f302f" font-size="14" font-family="ArialMT, Arial"><tspan x="0" y="0">Location</tspan></text>
    <text id="Password" transform="translate(16 549)" fill="#0f302f" font-size="14" font-family="ArialMT, Arial"><tspan x="0" y="0">Password</tspan></text>
    <g id="Search" transform="translate(16 189.906)">
      <g transform="matrix(1, 0, 0, 1, -16, -189.91)" filter="url(#Path_7)">
        <path id="Path_7-9" data-name="Path 7" d="M8.942,5H364.394a8.942,8.942,0,0,1,8.942,8.942v30.18a8.942,8.942,0,0,1-8.942,8.942H8.942A8.942,8.942,0,0,1,0,44.122V13.942A8.942,8.942,0,0,1,8.942,5Z" transform="translate(16 184.91)" fill="#fff"/>
      </g>
      <text id="Advik_Shady" data-name="Advik Shady" transform="translate(16.323 12.094)" fill="#1c1c1c" font-size="16" font-family="ArialMT, Arial" opacity="0.6"><tspan x="0" y="14">Advik Shady</tspan></text>
    </g>
    <g id="Search-2" data-name="Search" transform="translate(16 281.906)">
      <g transform="matrix(1, 0, 0, 1, -16, -281.91)" filter="url(#Path_7-2)">
        <path id="Path_7-10" data-name="Path 7" d="M8.942,5H364.394a8.942,8.942,0,0,1,8.942,8.942v30.18a8.942,8.942,0,0,1-8.942,8.942H8.942A8.942,8.942,0,0,1,0,44.122V13.942A8.942,8.942,0,0,1,8.942,5Z" transform="translate(16 276.91)" fill="#fff"/>
      </g>
      <text id="_91-22829292992" data-name="+91-22829292992" transform="translate(16.323 12.094)" fill="#1c1c1c" font-size="16" font-family="ArialMT, Arial" opacity="0.6"><tspan x="0" y="14">+91-22829292992</tspan></text>
    </g>
    <g id="Search-3" data-name="Search" transform="translate(16 373.906)">
      <g transform="matrix(1, 0, 0, 1, -16, -373.91)" filter="url(#Path_7-3)">
        <path id="Path_7-11" data-name="Path 7" d="M8.942,5H364.394a8.942,8.942,0,0,1,8.942,8.942v30.18a8.942,8.942,0,0,1-8.942,8.942H8.942A8.942,8.942,0,0,1,0,44.122V13.942A8.942,8.942,0,0,1,8.942,5Z" transform="translate(16 368.91)" fill="#fff"/>
      </g>
      <text id="Advik_shady_aldo.in" data-name="Advik shady@aldo.in" transform="translate(16.323 12.094)" fill="#1c1c1c" font-size="16" font-family="ArialMT, Arial" opacity="0.6"><tspan x="0" y="14">Advik shady@aldo.in</tspan></text>
    </g>
    <g id="Search-4" data-name="Search" transform="translate(16 465.906)">
      <g transform="matrix(1, 0, 0, 1, -16, -465.91)" filter="url(#Path_7-4)">
        <path id="Path_7-12" data-name="Path 7" d="M8.942,5H364.394a8.942,8.942,0,0,1,8.942,8.942v30.18a8.942,8.942,0,0,1-8.942,8.942H8.942A8.942,8.942,0,0,1,0,44.122V13.942A8.942,8.942,0,0,1,8.942,5Z" transform="translate(16 460.91)" fill="#fff"/>
      </g>
      <text id="Banglore_India" data-name="Banglore, India" transform="translate(16.323 12.094)" fill="#1c1c1c" font-size="16" font-family="ArialMT, Arial" opacity="0.6"><tspan x="0" y="14">Banglore, India</tspan></text>
    </g>
    <g id="Search-5" data-name="Search" transform="translate(16 557.906)">
      <g transform="matrix(1, 0, 0, 1, -16, -557.91)" filter="url(#Path_7-5)">
        <path id="Path_7-13" data-name="Path 7" d="M8.942,5H364.394a8.942,8.942,0,0,1,8.942,8.942v30.18a8.942,8.942,0,0,1-8.942,8.942H8.942A8.942,8.942,0,0,1,0,44.122V13.942A8.942,8.942,0,0,1,8.942,5Z" transform="translate(16 552.91)" fill="#fff"/>
      </g>
      <text id="_" data-name="************" transform="translate(16.323 12.094)" fill="#1c1c1c" font-size="16" font-family="ArialMT, Arial" opacity="0.6"><tspan x="0" y="14">************</tspan></text>
      <text id="Change_password" data-name="Change password" transform="translate(240 16.094)" fill="#3b88fa" font-size="15" font-family="SegoeUI, Segoe UI" text-decoration="underline"><tspan x="0" y="16">Change password</tspan></text>
    </g>
    <g id="Search-6" data-name="Search" transform="translate(16 709.906)">
      <g transform="matrix(1, 0, 0, 1, -16, -709.91)" filter="url(#Path_7-6)">
        <path id="Path_7-14" data-name="Path 7" d="M8.942,5H364.394a8.942,8.942,0,0,1,8.942,8.942v30.18a8.942,8.942,0,0,1-8.942,8.942H8.942A8.942,8.942,0,0,1,0,44.122V13.942A8.942,8.942,0,0,1,8.942,5Z" transform="translate(16 704.91)" fill="#fff"/>
      </g>
      <text id="Advik_shady_gmail.com" data-name="Advik shady@gmail.com" transform="translate(16.323 12.094)" fill="#1c1c1c" font-size="16" font-family="ArialMT, Arial" opacity="0.6"><tspan x="0" y="14">Advik shady@gmail.com</tspan></text>
      <text id="Unlink" transform="translate(317 16.094)" fill="#3b88fa" font-size="15" font-family="SegoeUI, Segoe UI" text-decoration="underline"><tspan x="0" y="16">Unlink</tspan></text>
    </g>
    <g id="CTA" transform="translate(19 885.437)">
      <g transform="matrix(1, 0, 0, 1, -19, -885.44)" filter="url(#Path_7-7)">
        <g id="Path_7-15" data-name="Path 7" transform="translate(19 880.44)" fill="none">
          <path d="M9,5h357.58a8.969,8.969,0,0,1,9,8.942v30.18a8.969,8.969,0,0,1-9,8.942H9a8.969,8.969,0,0,1-9-8.942V13.942A8.969,8.969,0,0,1,9,5Z" stroke="none"/>
          <path d="M 8.995697021484375 5.999980926513672 C 4.58685302734375 5.999980926513672 1 9.562831878662109 1 13.94218063354492 L 1 44.1220817565918 C 1 48.50143051147461 4.58685302734375 52.06428146362305 8.995697021484375 52.06428146362305 L 366.5761413574219 52.06428146362305 C 370.9849853515625 52.06428146362305 374.5718994140625 48.50143051147461 374.5718994140625 44.1220817565918 L 374.5718994140625 13.94218063354492 C 374.5718994140625 9.562831878662109 370.9849853515625 5.999980926513672 366.5761413574219 5.999980926513672 L 8.995697021484375 5.999980926513672 M 8.995697021484375 4.999980926513672 L 366.5761413574219 4.999980926513672 C 371.5443420410156 4.999980926513672 375.5718994140625 9.003532409667969 375.5718994140625 13.94218063354492 L 375.5718994140625 44.1220817565918 C 375.5718994140625 49.06072998046875 371.5443420410156 53.06428146362305 366.5761413574219 53.06428146362305 L 8.995697021484375 53.06428146362305 C 4.027496337890625 53.06428146362305 0 49.06072998046875 0 44.1220817565918 L 0 13.94218063354492 C 0 9.003532409667969 4.027496337890625 4.999980926513672 8.995697021484375 4.999980926513672 Z" stroke="none" fill="#0e58c7"/>
        </g>
      </g>
      <text id="Cancel_and_Go_back" data-name="Cancel and Go back" transform="translate(108 12.563)" fill="#0e58c7" font-size="16" font-family="Lato-Regular, Lato"><tspan x="10.12" y="16">Cancel and Go back</tspan></text>
    </g>
    <g id="CTA-2" data-name="CTA" transform="translate(19 814.437)">
      <g transform="matrix(1, 0, 0, 1, -19, -814.44)" filter="url(#Path_7-8)">
        <path id="Path_7-16" data-name="Path 7" d="M9,5h357.58a8.969,8.969,0,0,1,9,8.942v30.18a8.969,8.969,0,0,1-9,8.942H9a8.969,8.969,0,0,1-9-8.942V13.942A8.969,8.969,0,0,1,9,5Z" transform="translate(19 809.44)" fill="#ff9241"/>
      </g>
      <text id="Save_Changes" data-name="Save Changes" transform="translate(108 12.563)" fill="#fff" font-size="16" font-family="Lato-Regular, Lato"><tspan x="31.004" y="16">Save Changes</tspan></text>
    </g>
    <g id="Group_1500" data-name="Group 1500">
      <path id="Rectangle_293" data-name="Rectangle 293" d="M0,0H412a0,0,0,0,1,0,0V75a10,10,0,0,1-10,10H10A10,10,0,0,1,0,75V0A0,0,0,0,1,0,0Z" fill="url(#linear-gradient)"/>
      <g id="noun_User_1335326" transform="translate(18.234 27.128)">
        <g id="Group_3" data-name="Group 3">
          <path id="Path_4" data-name="Path 4" d="M18.436,5.053A13.383,13.383,0,1,0,31.819,18.436,13.4,13.4,0,0,0,18.436,5.053Zm0,24.931A11.548,11.548,0,1,1,29.984,18.436,11.561,11.561,0,0,1,18.436,29.984Z" transform="translate(-5.053 -5.053)" fill="#fff"/>
          <path id="Path_5" data-name="Path 5" d="M41.048,32.963A4.153,4.153,0,1,0,36.9,28.81,4.158,4.158,0,0,0,41.048,32.963Zm0-6.472A2.319,2.319,0,1,1,38.73,28.81,2.321,2.321,0,0,1,41.048,26.49Z" transform="translate(-27.414 -18.819)" fill="#fff"/>
          <path id="Path_6" data-name="Path 6" d="M39.9,56.067a5.182,5.182,0,0,0-4.837-3.518.914.914,0,0,0-.606.179,4.11,4.11,0,0,1-4.969,0,.92.92,0,0,0-.605-.178A5.185,5.185,0,0,0,24.029,56.1a.917.917,0,1,0,1.714.654,3.312,3.312,0,0,1,2.944-2.351,5.931,5.931,0,0,0,6.562,0,3.3,3.3,0,0,1,2.935,2.323.918.918,0,0,0,1.711-.664Z" transform="translate(-18.337 -38.405)" fill="#fff"/>
        </g>
      </g>
    </g>
    <text id="Account_Settings" data-name="Account Settings" transform="translate(58 26)" fill="#fff" font-size="22" font-family="Arial-BoldMT, Arial" font-weight="700"><tspan x="0" y="20">Account Settings</tspan></text>
    <path id="Path_4566" data-name="Path 4566" d="M913,3744.938h361.273" transform="translate(-894 -3098)" fill="none" stroke="#707070" stroke-width="1" opacity="0.2"/>
  </g>
</svg>
