<svg xmlns="http://www.w3.org/2000/svg" xmlns:xlink="http://www.w3.org/1999/xlink" width="412" height="847" viewBox="0 0 412 847">
  <defs>
    <linearGradient id="linear-gradient" x1="0.5" x2="0.5" y2="1" gradientUnits="objectBoundingBox">
      <stop offset="0" stop-color="#37aadd"/>
      <stop offset="1" stop-color="#1f64cc"/>
    </linearGradient>
    <filter id="Rectangle_1570" x="-24" y="84" width="460" height="786" filterUnits="userSpaceOnUse">
      <feOffset dy="-3" input="SourceAlpha"/>
      <feGaussianBlur stdDeviation="8" result="blur"/>
      <feFlood flood-opacity="0.039"/>
      <feComposite operator="in" in2="blur"/>
      <feComposite in="SourceGraphic"/>
    </filter>
    <clipPath id="clip-Pros_and_cons_5">
      <rect width="412" height="847"/>
    </clipPath>
  </defs>
  <g id="Pros_and_cons_5" data-name="Pros and cons – 5" clip-path="url(#clip-Pros_and_cons_5)">
    <rect width="412" height="847" fill="url(#linear-gradient)"/>
    <g transform="matrix(1, 0, 0, 1, 0, 0)" filter="url(#Rectangle_1570)">
      <path id="Rectangle_1570-2" data-name="Rectangle 1570" d="M30,0H382a30,30,0,0,1,30,30V738a0,0,0,0,1,0,0H0a0,0,0,0,1,0,0V30A30,30,0,0,1,30,0Z" transform="translate(0 111)" fill="#102646"/>
    </g>
    <text id="The_steps_I_plan_to_make_in_changing_are:_Examples_how_much_do_you_want_to_cut_your_addictive_substance_Define_by_quantity_and_time_for_internet_addiction" data-name="The steps I plan to make in changing are:

Examples
how much do you want to cut your addictive substance?
Define by quantity and time for internet addiction" transform="translate(21 247)" fill="#fff" font-size="18" font-family="ArialMT, Arial"><tspan x="0" y="16">The steps I plan to make in changing are:</tspan><tspan x="0" y="41"></tspan><tspan fill="#8eb1e5" font-size="14"><tspan x="0" y="66">Examples</tspan></tspan><tspan font-size="14"><tspan x="0" y="91">how much do you want to cut your addictive substance?</tspan><tspan x="0" y="116">Define by quantity and time for internet addiction</tspan></tspan></text>
    <g id="Group_3379" data-name="Group 3379" transform="translate(21 400)">
      <g id="Group_3374" data-name="Group 3374" transform="translate(0)">
        <rect id="Rectangle_1845" data-name="Rectangle 1845" width="370" height="176" rx="6" transform="translate(0)" fill="#edf4fd"/>
        <text id="Reduce_liquor_" data-name="Reduce liquor " transform="translate(21 13)" fill="#2e5b9f" font-size="16" font-family="ArialMT, Arial" opacity="0.5"><tspan x="0" y="14">Reduce liquor </tspan></text>
        <path id="Path_6718" data-name="Path 6718" d="M1053,4508.186h329.955" transform="translate(-1032.341 -4463)" fill="none" stroke="#2e5b9f" stroke-width="1"/>
      </g>
    </g>
    <g id="Group_3384" data-name="Group 3384" transform="translate(43.195 462.5)">
      <path id="Path_6722" data-name="Path 6722" d="M1053,4508.186h174.151" transform="translate(-898.859 -4480)" fill="none" stroke="#2e5b9f" stroke-width="1"/>
      <path id="Path_6723" data-name="Path 6723" d="M1053,4508.186h103.457" transform="translate(-1052.873 -4422)" fill="none" stroke="#2e5b9f" stroke-width="1"/>
      <text id="eg.100" transform="translate(154.141)" fill="#2e5b9f" font-size="18" font-family="ArialMT, Arial" opacity="0.5"><tspan x="0" y="16">eg.100</tspan></text>
      <text id="eg._ml" data-name="eg. ml" transform="translate(0 58)" fill="#2e5b9f" font-size="18" font-family="ArialMT, Arial" opacity="0.5"><tspan x="0" y="16">eg. ml</tspan></text>
      <g id="Group_3385" data-name="Group 3385" transform="translate(0)">
        <text id="At_least" data-name="At least" fill="#2e5b9f" font-size="18" font-family="Arial-BoldMT, Arial" font-weight="700"><tspan x="0" y="16">At least</tspan></text>
        <path id="Icon_feather-chevron-down" data-name="Icon feather-chevron-down" d="M9,13.5l6.994,6.994L22.988,13.5" transform="translate(72.006 -3.997)" fill="none" stroke="#2e5b9f" stroke-linecap="round" stroke-linejoin="round" stroke-width="2"/>
      </g>
      <g id="Group_3387" data-name="Group 3387" transform="translate(123.828 58.186)">
        <text id="A_day" data-name="A day" fill="#2e5b9f" font-size="18" font-family="Arial-BoldMT, Arial" font-weight="700"><tspan x="0" y="16">A day</tspan></text>
        <path id="Icon_feather-chevron-down-2" data-name="Icon feather-chevron-down" d="M9,13.5l6.994,6.994L22.988,13.5" transform="translate(65 -3.997)" fill="none" stroke="#2e5b9f" stroke-linecap="round" stroke-linejoin="round" stroke-width="2"/>
      </g>
    </g>
    <g id="Group_3386" data-name="Group 3386" transform="translate(17 28)">
      <g id="Ellipse_640" data-name="Ellipse 640" transform="translate(164 572)" fill="#102646" stroke="#edf4fd" stroke-width="1">
        <circle cx="25" cy="25" r="25" stroke="none"/>
        <circle cx="25" cy="25" r="24.5" fill="none"/>
      </g>
      <path id="Path_6724" data-name="Path 6724" d="M14.131-5.462V-15.18H11.114v9.718H1.44v3.017h9.674V7.273h3.017V-2.445H23.8V-5.462Z" transform="translate(176.379 600.953)" fill="#edf4fd"/>
    </g>
    <text id="Session_3_Change_blueprint" data-name="Session 3
Change blueprint" transform="translate(21 26)" fill="#fff" font-size="16" font-family="ArialMT, Arial"><tspan x="0" y="14">Session 3</tspan><tspan font-size="24" font-family="Arial-BoldMT, Arial" font-weight="700"><tspan x="0" y="49">Change blueprint</tspan></tspan></text>
    <g id="Group_3234" data-name="Group 3234" transform="translate(4.012 -10.262)">
      <path id="Icon_ionic-ios-arrow-back" data-name="Icon ionic-ios-arrow-back" d="M15.217,17.7,23.926,9A1.645,1.645,0,1,0,21.6,6.674l-9.867,9.86a1.642,1.642,0,0,0-.048,2.268l9.908,9.929a1.645,1.645,0,0,0,2.33-2.323Z" transform="translate(362.579 30.069)" fill="#fff"/>
      <path id="Icon_ionic-ios-arrow-back-2" data-name="Icon ionic-ios-arrow-back" d="M3.967,11.506l8.709-8.7A1.645,1.645,0,1,0,10.346.481L.479,10.341a1.642,1.642,0,0,0-.048,2.268l9.908,9.929a1.645,1.645,0,1,0,2.33-2.323Z" transform="translate(377.472 59.28) rotate(180)" fill="#fff"/>
    </g>
    <g id="Component_119_322" data-name="Component 119 – 322" transform="translate(0 779.278)">
      <rect id="Rectangle_1927" data-name="Rectangle 1927" width="412" height="67" transform="translate(0 0.722)" fill="#102646"/>
      <path id="Path_4714" data-name="Path 4714" d="M1053,4508.186h411.151" transform="translate(-1053 -4508.186)" fill="none" stroke="#fff" stroke-width="2" opacity="0.206"/>
      <g id="Group_3096" data-name="Group 3096" transform="translate(-3 -997.186)">
        <text id="Next" transform="translate(318 1038)" fill="#f2f5f7" font-size="18" font-family="ArialMT, Arial"><tspan x="0" y="0">Next</tspan></text>
        <path id="Icon_ionic-ios-arrow-back-3" data-name="Icon ionic-ios-arrow-back" d="M14.033,14.264l6.109-6.1a1.154,1.154,0,0,0-1.634-1.629l-6.921,6.916a1.152,1.152,0,0,0-.034,1.591L18.5,22a1.154,1.154,0,1,0,1.634-1.629Z" transform="translate(389.251 1046.266) rotate(180)" fill="#f2f5f7"/>
      </g>
      <g id="Group_3224" data-name="Group 3224" transform="translate(2.529 7.076)">
        <g id="Group_3212" data-name="Group 3212" transform="translate(34.47 14.737)">
          <text id="Back" transform="translate(19.06 18)" fill="#fff" font-size="18" font-family="ArialMT, Arial"><tspan x="0" y="0">Back</tspan></text>
          <path id="Icon_ionic-ios-arrow-back-4" data-name="Icon ionic-ios-arrow-back" d="M14.033,14.264l6.109-6.1a1.154,1.154,0,0,0-1.634-1.629l-6.921,6.916a1.152,1.152,0,0,0-.034,1.591L18.5,22a1.154,1.154,0,1,0,1.634-1.629Z" transform="translate(-11.251 -3.193)" fill="#fff"/>
        </g>
      </g>
    </g>
  </g>
</svg>
