<svg xmlns="http://www.w3.org/2000/svg" xmlns:xlink="http://www.w3.org/1999/xlink" width="412" height="847" viewBox="0 0 412 847">
  <defs>
    <linearGradient id="linear-gradient" x1="0.5" x2="0.5" y2="1" gradientUnits="objectBoundingBox">
      <stop offset="0" stop-color="#37aadd"/>
      <stop offset="1" stop-color="#1f64cc"/>
    </linearGradient>
    <filter id="Rectangle_1570" x="-24" y="84" width="460" height="786" filterUnits="userSpaceOnUse">
      <feOffset dy="-3" input="SourceAlpha"/>
      <feGaussianBlur stdDeviation="8" result="blur"/>
      <feFlood flood-opacity="0.039"/>
      <feComposite operator="in" in2="blur"/>
      <feComposite in="SourceGraphic"/>
    </filter>
    <clipPath id="clip-path">
      <rect y="-12" width="331.5" height="454" fill="none"/>
    </clipPath>
    <clipPath id="clip-path-2">
      <rect width="331.5" height="477" fill="none"/>
    </clipPath>
    <clipPath id="clip-Pros_and_cons_20">
      <rect width="412" height="847"/>
    </clipPath>
  </defs>
  <g id="Pros_and_cons_20" data-name="Pros and cons – 20" clip-path="url(#clip-Pros_and_cons_20)">
    <rect width="412" height="847" fill="url(#linear-gradient)"/>
    <g transform="matrix(1, 0, 0, 1, 0, 0)" filter="url(#Rectangle_1570)">
      <path id="Rectangle_1570-2" data-name="Rectangle 1570" d="M30,0H382a30,30,0,0,1,30,30V738a0,0,0,0,1,0,0H0a0,0,0,0,1,0,0V30A30,30,0,0,1,30,0Z" transform="translate(0 111)" fill="#102646"/>
    </g>
    <text id="Do_you_persistently_meaning_most_of_the_days_in_a_week_or_month_feel_sad_and_anxious_" data-name="Do you persistently (meaning most of the days in a week or month) feel sad and anxious?" transform="translate(39 142)" fill="#fff" font-size="18" font-family="ArialMT, Arial"><tspan x="0" y="16">Do you persistently (meaning most of the </tspan><tspan x="0" y="46">days in a week or month) feel sad and </tspan><tspan x="0" y="76">anxious?</tspan></text>
    <g id="Scroll_Group_12" data-name="Scroll Group 12" transform="translate(38 317)" clip-path="url(#clip-path)" style="isolation: isolate">
      <g id="Repeat_Grid_17" data-name="Repeat Grid 17" transform="translate(0 -8)" clip-path="url(#clip-path-2)">
        <g id="Group_3381" data-name="Group 3381" transform="translate(-38 -269)">
          <g id="Rectangle_1846" data-name="Rectangle 1846" transform="translate(40 270)" fill="none" stroke="#fff" stroke-width="2">
            <rect width="24" height="24" rx="5" stroke="none"/>
            <rect x="1" y="1" width="22" height="22" rx="4" fill="none"/>
          </g>
          <g id="Group_3476" data-name="Group 3476">
            <text id="Altered_Sleep" data-name="Altered Sleep" transform="translate(80 270)" fill="#edf4fd" font-size="16" font-family="Arial-BoldMT, Arial" font-weight="700"><tspan x="0" y="14">Altered Sleep</tspan></text>
          </g>
        </g>
        <g id="Group_3381-2" data-name="Group 3381" transform="translate(-38 -184)">
          <g id="Rectangle_1846-2" data-name="Rectangle 1846" transform="translate(40 270)" fill="none" stroke="#fff" stroke-width="2">
            <rect width="24" height="24" rx="5" stroke="none"/>
            <rect x="1" y="1" width="22" height="22" rx="4" fill="none"/>
          </g>
          <g id="Group_3476-2" data-name="Group 3476">
            <text id="Altered_Appetite_" data-name="Altered Appetite " transform="translate(80 270)" fill="#edf4fd" font-size="16" font-family="Arial-BoldMT, Arial" font-weight="700"><tspan x="0" y="14">Altered Appetite </tspan></text>
          </g>
        </g>
        <g id="Group_3381-3" data-name="Group 3381" transform="translate(-38 -99)">
          <g id="Rectangle_1846-3" data-name="Rectangle 1846" transform="translate(40 270)" fill="none" stroke="#fff" stroke-width="2">
            <rect width="24" height="24" rx="5" stroke="none"/>
            <rect x="1" y="1" width="22" height="22" rx="4" fill="none"/>
          </g>
          <g id="Group_3476-3" data-name="Group 3476">
            <text id="Decrease_in_concentration_" data-name="Decrease in concentration " transform="translate(80 270)" fill="#edf4fd" font-size="16" font-family="Arial-BoldMT, Arial" font-weight="700"><tspan x="0" y="14">Decrease in concentration </tspan></text>
          </g>
        </g>
        <g id="Group_3381-4" data-name="Group 3381" transform="translate(-38 -14)">
          <g id="Rectangle_1846-4" data-name="Rectangle 1846" transform="translate(40 270)" fill="none" stroke="#fff" stroke-width="2">
            <rect width="24" height="24" rx="5" stroke="none"/>
            <rect x="1" y="1" width="22" height="22" rx="4" fill="none"/>
          </g>
          <g id="Group_3476-4" data-name="Group 3476">
            <text id="Reduced_self-esteem_and_self-confidence" data-name="Reduced self-esteem and self-confidence" transform="translate(80 270)" fill="#edf4fd" font-size="16" font-family="Arial-BoldMT, Arial" font-weight="700"><tspan x="0" y="14">Reduced self-esteem and self-</tspan><tspan x="0" y="32">confidence</tspan></text>
          </g>
        </g>
        <g id="Group_3381-5" data-name="Group 3381" transform="translate(-38 71)">
          <g id="Rectangle_1846-5" data-name="Rectangle 1846" transform="translate(40 270)" fill="none" stroke="#fff" stroke-width="2">
            <rect width="24" height="24" rx="5" stroke="none"/>
            <rect x="1" y="1" width="22" height="22" rx="4" fill="none"/>
          </g>
          <g id="Group_3476-5" data-name="Group 3476">
            <text id="Ideas_of_guilt_and_unworthiness_" data-name="Ideas of guilt and unworthiness " transform="translate(80 270)" fill="#edf4fd" font-size="16" font-family="Arial-BoldMT, Arial" font-weight="700"><tspan x="0" y="14">Ideas of guilt and unworthiness </tspan></text>
          </g>
        </g>
        <g id="Group_3381-6" data-name="Group 3381" transform="translate(-38 156)">
          <g id="Rectangle_1846-6" data-name="Rectangle 1846" transform="translate(40 270)" fill="none" stroke="#fff" stroke-width="2">
            <rect width="24" height="24" rx="5" stroke="none"/>
            <rect x="1" y="1" width="22" height="22" rx="4" fill="none"/>
          </g>
          <g id="Group_3476-6" data-name="Group 3476">
            <text id="Bleak_and_pessimistic_views_of_the_future" data-name="Bleak and pessimistic views of the future" transform="translate(80 270)" fill="#edf4fd" font-size="16" font-family="Arial-BoldMT, Arial" font-weight="700"><tspan x="0" y="14">Bleak and pessimistic views of </tspan><tspan x="0" y="32">the future</tspan></text>
          </g>
        </g>
      </g>
    </g>
    <g id="Group_3234" data-name="Group 3234" transform="translate(-4.848 -10.262)">
      <path id="Icon_ionic-ios-arrow-back" data-name="Icon ionic-ios-arrow-back" d="M15.217,17.7,23.926,9A1.645,1.645,0,1,0,21.6,6.674l-9.867,9.86a1.642,1.642,0,0,0-.048,2.268l9.908,9.929a1.645,1.645,0,0,0,2.33-2.323Z" transform="translate(362.579 30.069)" fill="#fff"/>
      <path id="Icon_ionic-ios-arrow-back-2" data-name="Icon ionic-ios-arrow-back" d="M3.967,11.506l8.709-8.7A1.645,1.645,0,1,0,10.346.481L.479,10.341a1.642,1.642,0,0,0-.048,2.268l9.908,9.929a1.645,1.645,0,1,0,2.33-2.323Z" transform="translate(377.472 59.28) rotate(180)" fill="#fff"/>
    </g>
    <text id="Session_2_Evaluation_of_Problem" data-name="Session 2
Evaluation of Problem" transform="translate(29 26)" fill="#fff" font-size="16" font-family="ArialMT, Arial"><tspan x="0" y="14">Session 2</tspan><tspan font-size="24" font-family="Arial-BoldMT, Arial" font-weight="700"><tspan x="0" y="49">Evaluation of Problem</tspan></tspan></text>
    <g id="Component_119_245" data-name="Component 119 – 245" transform="translate(0 779.278)">
      <rect id="Rectangle_1927" data-name="Rectangle 1927" width="412" height="67" transform="translate(0 0.722)" fill="#102646"/>
      <path id="Path_4714" data-name="Path 4714" d="M1053,4508.186h411.151" transform="translate(-1053 -4508.186)" fill="none" stroke="#fff" stroke-width="2" opacity="0.206"/>
      <g id="Group_3096" data-name="Group 3096" transform="translate(-3 -997.186)">
        <text id="Next" transform="translate(318 1038)" fill="#f2f5f7" font-size="18" font-family="ArialMT, Arial"><tspan x="0" y="0">Next</tspan></text>
        <path id="Icon_ionic-ios-arrow-back-3" data-name="Icon ionic-ios-arrow-back" d="M14.033,14.264l6.109-6.1a1.154,1.154,0,0,0-1.634-1.629l-6.921,6.916a1.152,1.152,0,0,0-.034,1.591L18.5,22a1.154,1.154,0,1,0,1.634-1.629Z" transform="translate(389.251 1046.266) rotate(180)" fill="#f2f5f7"/>
      </g>
      <g id="Group_3224" data-name="Group 3224" transform="translate(2.529 7.076)">
        <g id="Group_3212" data-name="Group 3212" transform="translate(34.47 14.737)">
          <text id="Back" transform="translate(19.06 18)" fill="#fff" font-size="18" font-family="ArialMT, Arial"><tspan x="0" y="0">Back</tspan></text>
          <path id="Icon_ionic-ios-arrow-back-4" data-name="Icon ionic-ios-arrow-back" d="M14.033,14.264l6.109-6.1a1.154,1.154,0,0,0-1.634-1.629l-6.921,6.916a1.152,1.152,0,0,0-.034,1.591L18.5,22a1.154,1.154,0,1,0,1.634-1.629Z" transform="translate(-11.251 -3.193)" fill="#fff"/>
        </g>
      </g>
    </g>
  </g>
</svg>
