<svg xmlns="http://www.w3.org/2000/svg" xmlns:xlink="http://www.w3.org/1999/xlink" width="412" height="847" viewBox="0 0 412 847">
  <defs>
    <linearGradient id="linear-gradient" x1="0.5" x2="0.5" y2="1" gradientUnits="objectBoundingBox">
      <stop offset="0" stop-color="#37aadd"/>
      <stop offset="1" stop-color="#1f64cc"/>
    </linearGradient>
    <filter id="Rectangle_1570" x="-24" y="84" width="460" height="786" filterUnits="userSpaceOnUse">
      <feOffset dy="-3" input="SourceAlpha"/>
      <feGaussianBlur stdDeviation="8" result="blur"/>
      <feFlood flood-opacity="0.039"/>
      <feComposite operator="in" in2="blur"/>
      <feComposite in="SourceGraphic"/>
    </filter>
    <clipPath id="clip-path">
      <rect y="-26" width="331.5" height="572" fill="none"/>
    </clipPath>
    <clipPath id="clip-path-2">
      <rect width="331.5" height="990" fill="none"/>
    </clipPath>
    <filter id="Rectangle_661" x="-2" y="195" width="417" height="495" filterUnits="userSpaceOnUse">
      <feOffset dy="30" input="SourceAlpha"/>
      <feGaussianBlur stdDeviation="15" result="blur-2"/>
      <feFlood flood-color="#2699fb" flood-opacity="0.102"/>
      <feComposite operator="in" in2="blur-2"/>
      <feComposite in="SourceGraphic"/>
    </filter>
    <clipPath id="clip-Pros_and_cons_9">
      <rect width="412" height="847"/>
    </clipPath>
  </defs>
  <g id="Pros_and_cons_9" data-name="Pros and cons – 9" clip-path="url(#clip-Pros_and_cons_9)">
    <rect width="412" height="847" fill="url(#linear-gradient)"/>
    <g transform="matrix(1, 0, 0, 1, 0, 0)" filter="url(#Rectangle_1570)">
      <path id="Rectangle_1570-2" data-name="Rectangle 1570" d="M30,0H382a30,30,0,0,1,30,30V738a0,0,0,0,1,0,0H0a0,0,0,0,1,0,0V30A30,30,0,0,1,30,0Z" transform="translate(0 111)" fill="#102646"/>
    </g>
    <text id="Estimate_time_for_all_these_items_in_the_checklist" data-name="Estimate time for all these items in the checklist" transform="translate(39 142)" fill="#fff" font-size="18" font-family="ArialMT, Arial"><tspan x="0" y="16">Estimate time for all these items in the </tspan><tspan x="0" y="46">checklist</tspan></text>
    <g id="Group_3380" data-name="Group 3380">
      <path id="Path_4714" data-name="Path 4714" d="M1053,4508.186h411.151" transform="translate(-1053 -3729)" fill="none" stroke="#fff" stroke-width="2" opacity="0.206"/>
      <g id="Group_3096" data-name="Group 3096" transform="translate(-15 -218)">
        <text id="Next" transform="translate(310 1038)" fill="#f2f5f7" font-size="20" font-family="ArialMT, Arial"><tspan x="0" y="0">Next</tspan></text>
        <path id="Icon_ionic-ios-arrow-back" data-name="Icon ionic-ios-arrow-back" d="M14.033,14.264l6.109-6.1a1.154,1.154,0,0,0-1.634-1.629l-6.921,6.916a1.152,1.152,0,0,0-.034,1.591L18.5,22a1.154,1.154,0,1,0,1.634-1.629Z" transform="translate(389.251 1046.266) rotate(180)" fill="#f2f5f7"/>
      </g>
      <g id="Group_3224" data-name="Group 3224" transform="translate(0 786.262)">
        <g id="Group_3212" data-name="Group 3212" transform="translate(34.47 14.737)">
          <text id="Back" transform="translate(19.06 18)" fill="#fff" font-size="18" font-family="ArialMT, Arial"><tspan x="0" y="0">Back</tspan></text>
          <path id="Icon_ionic-ios-arrow-back-2" data-name="Icon ionic-ios-arrow-back" d="M14.033,14.264l6.109-6.1a1.154,1.154,0,0,0-1.634-1.629l-6.921,6.916a1.152,1.152,0,0,0-.034,1.591L18.5,22a1.154,1.154,0,1,0,1.634-1.629Z" transform="translate(-11.251 -3.193)" fill="#fff"/>
        </g>
      </g>
    </g>
    <g id="Scroll_Group_12" data-name="Scroll Group 12" transform="translate(38 234)" clip-path="url(#clip-path)" style="isolation: isolate">
      <g id="Repeat_Grid_17" data-name="Repeat Grid 17" clip-path="url(#clip-path-2)">
        <g id="Group_3381" data-name="Group 3381" transform="translate(-38 -269)">
          <text id="Adult_Entertainment_Sites" data-name="Adult Entertainment Sites" transform="translate(80 270)" fill="#edf4fd" font-size="16" font-family="Arial-BoldMT, Arial" font-weight="700"><tspan x="0" y="14">Adult Entertainment Sites</tspan></text>
          <g id="Group_2762" data-name="Group 2762" transform="translate(27 -503)">
            <text id="Estimate_time" data-name="Estimate time" transform="translate(55 806)" fill="#fff" font-size="14" font-family="ArialMT, Arial"><tspan x="0" y="13">Estimate time</tspan></text>
          </g>
          <g id="Rectangle_1846" data-name="Rectangle 1846" transform="translate(40 270)" fill="none" stroke="#fff" stroke-width="2">
            <rect width="24" height="24" rx="5" stroke="none"/>
            <rect x="1" y="1" width="22" height="22" rx="4" fill="none"/>
          </g>
          <g id="Icon_feather-clock" data-name="Icon feather-clock" transform="translate(340 268.281)">
            <path id="Path_6720" data-name="Path 6720" d="M26.438,14.719A11.719,11.719,0,1,1,14.719,3,11.719,11.719,0,0,1,26.438,14.719Z" transform="translate(0 0)" fill="none" stroke="#edf4fd" stroke-linecap="round" stroke-linejoin="round" stroke-width="1.5"/>
            <path id="Path_6721" data-name="Path 6721" d="M18,9v7.031l4.688,2.344" transform="translate(-3.281 -1.312)" fill="none" stroke="#edf4fd" stroke-linecap="round" stroke-linejoin="round" stroke-width="1.5"/>
          </g>
        </g>
        <g id="Group_3381-2" data-name="Group 3381" transform="translate(-38 -184)">
          <text id="Business_Email" data-name="Business Email" transform="translate(80 270)" fill="#edf4fd" font-size="16" font-family="Arial-BoldMT, Arial" font-weight="700"><tspan x="0" y="14">Business Email</tspan></text>
          <g id="Group_2762-2" data-name="Group 2762" transform="translate(27 -503)">
            <text id="Estimate_time-2" data-name="Estimate time" transform="translate(55 806)" fill="#fff" font-size="14" font-family="ArialMT, Arial"><tspan x="0" y="13">Estimate time</tspan></text>
          </g>
          <g id="Rectangle_1846-2" data-name="Rectangle 1846" transform="translate(40 270)" fill="none" stroke="#fff" stroke-width="2">
            <rect width="24" height="24" rx="5" stroke="none"/>
            <rect x="1" y="1" width="22" height="22" rx="4" fill="none"/>
          </g>
          <g id="Icon_feather-clock-2" data-name="Icon feather-clock" transform="translate(340 268.281)">
            <path id="Path_6720-2" data-name="Path 6720" d="M26.438,14.719A11.719,11.719,0,1,1,14.719,3,11.719,11.719,0,0,1,26.438,14.719Z" transform="translate(0 0)" fill="none" stroke="#edf4fd" stroke-linecap="round" stroke-linejoin="round" stroke-width="1.5"/>
            <path id="Path_6721-2" data-name="Path 6721" d="M18,9v7.031l4.688,2.344" transform="translate(-3.281 -1.312)" fill="none" stroke="#edf4fd" stroke-linecap="round" stroke-linejoin="round" stroke-width="1.5"/>
          </g>
        </g>
        <g id="Group_3381-3" data-name="Group 3381" transform="translate(-38 -99)">
          <text id="Business_Surfing" data-name="Business Surfing" transform="translate(80 270)" fill="#edf4fd" font-size="16" font-family="Arial-BoldMT, Arial" font-weight="700"><tspan x="0" y="14">Business Surfing</tspan></text>
          <g id="Group_2762-3" data-name="Group 2762" transform="translate(27 -503)">
            <text id="Estimate_time-3" data-name="Estimate time" transform="translate(55 806)" fill="#fff" font-size="14" font-family="ArialMT, Arial"><tspan x="0" y="13">Estimate time</tspan></text>
          </g>
          <g id="Rectangle_1846-3" data-name="Rectangle 1846" transform="translate(40 270)" fill="none" stroke="#fff" stroke-width="2">
            <rect width="24" height="24" rx="5" stroke="none"/>
            <rect x="1" y="1" width="22" height="22" rx="4" fill="none"/>
          </g>
          <g id="Icon_feather-clock-3" data-name="Icon feather-clock" transform="translate(340 268.281)">
            <path id="Path_6720-3" data-name="Path 6720" d="M26.438,14.719A11.719,11.719,0,1,1,14.719,3,11.719,11.719,0,0,1,26.438,14.719Z" transform="translate(0 0)" fill="none" stroke="#edf4fd" stroke-linecap="round" stroke-linejoin="round" stroke-width="1.5"/>
            <path id="Path_6721-3" data-name="Path 6721" d="M18,9v7.031l4.688,2.344" transform="translate(-3.281 -1.312)" fill="none" stroke="#edf4fd" stroke-linecap="round" stroke-linejoin="round" stroke-width="1.5"/>
          </g>
        </g>
        <g id="Group_3381-4" data-name="Group 3381" transform="translate(-38 -14)">
          <text id="Chat_rooms" data-name="Chat rooms" transform="translate(80 270)" fill="#edf4fd" font-size="16" font-family="Arial-BoldMT, Arial" font-weight="700"><tspan x="0" y="14">Chat rooms</tspan></text>
          <g id="Group_2762-4" data-name="Group 2762" transform="translate(27 -503)">
            <text id="Estimate_time-4" data-name="Estimate time" transform="translate(55 806)" fill="#fff" font-size="14" font-family="ArialMT, Arial"><tspan x="0" y="13">Estimate time</tspan></text>
          </g>
          <g id="Rectangle_1846-4" data-name="Rectangle 1846" transform="translate(40 270)" fill="none" stroke="#fff" stroke-width="2">
            <rect width="24" height="24" rx="5" stroke="none"/>
            <rect x="1" y="1" width="22" height="22" rx="4" fill="none"/>
          </g>
          <g id="Icon_feather-clock-4" data-name="Icon feather-clock" transform="translate(340 268.281)">
            <path id="Path_6720-4" data-name="Path 6720" d="M26.438,14.719A11.719,11.719,0,1,1,14.719,3,11.719,11.719,0,0,1,26.438,14.719Z" transform="translate(0 0)" fill="none" stroke="#edf4fd" stroke-linecap="round" stroke-linejoin="round" stroke-width="1.5"/>
            <path id="Path_6721-4" data-name="Path 6721" d="M18,9v7.031l4.688,2.344" transform="translate(-3.281 -1.312)" fill="none" stroke="#edf4fd" stroke-linecap="round" stroke-linejoin="round" stroke-width="1.5"/>
          </g>
        </g>
        <g id="Group_3381-5" data-name="Group 3381" transform="translate(-38 71)">
          <text id="Discussion_Lists" data-name="Discussion Lists" transform="translate(80 270)" fill="#edf4fd" font-size="16" font-family="Arial-BoldMT, Arial" font-weight="700"><tspan x="0" y="14">Discussion Lists</tspan></text>
          <g id="Group_2762-5" data-name="Group 2762" transform="translate(27 -503)">
            <text id="Estimate_time-5" data-name="Estimate time" transform="translate(55 806)" fill="#fff" font-size="14" font-family="ArialMT, Arial"><tspan x="0" y="13">Estimate time</tspan></text>
          </g>
          <g id="Rectangle_1846-5" data-name="Rectangle 1846" transform="translate(40 270)" fill="none" stroke="#fff" stroke-width="2">
            <rect width="24" height="24" rx="5" stroke="none"/>
            <rect x="1" y="1" width="22" height="22" rx="4" fill="none"/>
          </g>
          <g id="Icon_feather-clock-5" data-name="Icon feather-clock" transform="translate(340 268.281)">
            <path id="Path_6720-5" data-name="Path 6720" d="M26.438,14.719A11.719,11.719,0,1,1,14.719,3,11.719,11.719,0,0,1,26.438,14.719Z" transform="translate(0 0)" fill="none" stroke="#edf4fd" stroke-linecap="round" stroke-linejoin="round" stroke-width="1.5"/>
            <path id="Path_6721-5" data-name="Path 6721" d="M18,9v7.031l4.688,2.344" transform="translate(-3.281 -1.312)" fill="none" stroke="#edf4fd" stroke-linecap="round" stroke-linejoin="round" stroke-width="1.5"/>
          </g>
        </g>
        <g id="Group_3381-6" data-name="Group 3381" transform="translate(-38 156)">
          <text id="Instant_Messaging" data-name="Instant Messaging" transform="translate(80 270)" fill="#edf4fd" font-size="16" font-family="Arial-BoldMT, Arial" font-weight="700"><tspan x="0" y="14">Instant Messaging</tspan></text>
          <g id="Group_2762-6" data-name="Group 2762" transform="translate(27 -503)">
            <text id="Estimate_time-6" data-name="Estimate time" transform="translate(55 806)" fill="#fff" font-size="14" font-family="ArialMT, Arial"><tspan x="0" y="13">Estimate time</tspan></text>
          </g>
          <g id="Rectangle_1846-6" data-name="Rectangle 1846" transform="translate(40 270)" fill="none" stroke="#fff" stroke-width="2">
            <rect width="24" height="24" rx="5" stroke="none"/>
            <rect x="1" y="1" width="22" height="22" rx="4" fill="none"/>
          </g>
          <g id="Icon_feather-clock-6" data-name="Icon feather-clock" transform="translate(340 268.281)">
            <path id="Path_6720-6" data-name="Path 6720" d="M26.438,14.719A11.719,11.719,0,1,1,14.719,3,11.719,11.719,0,0,1,26.438,14.719Z" transform="translate(0 0)" fill="none" stroke="#edf4fd" stroke-linecap="round" stroke-linejoin="round" stroke-width="1.5"/>
            <path id="Path_6721-6" data-name="Path 6721" d="M18,9v7.031l4.688,2.344" transform="translate(-3.281 -1.312)" fill="none" stroke="#edf4fd" stroke-linecap="round" stroke-linejoin="round" stroke-width="1.5"/>
          </g>
        </g>
        <g id="Group_3381-7" data-name="Group 3381" transform="translate(-38 241)">
          <text id="News_Sites" data-name="News Sites" transform="translate(80 270)" fill="#edf4fd" font-size="16" font-family="Arial-BoldMT, Arial" font-weight="700"><tspan x="0" y="14">News Sites</tspan></text>
          <g id="Group_2762-7" data-name="Group 2762" transform="translate(27 -503)">
            <text id="Estimate_time-7" data-name="Estimate time" transform="translate(55 806)" fill="#fff" font-size="14" font-family="ArialMT, Arial"><tspan x="0" y="13">Estimate time</tspan></text>
          </g>
          <g id="Rectangle_1846-7" data-name="Rectangle 1846" transform="translate(40 270)" fill="none" stroke="#fff" stroke-width="2">
            <rect width="24" height="24" rx="5" stroke="none"/>
            <rect x="1" y="1" width="22" height="22" rx="4" fill="none"/>
          </g>
          <g id="Icon_feather-clock-7" data-name="Icon feather-clock" transform="translate(340 268.281)">
            <path id="Path_6720-7" data-name="Path 6720" d="M26.438,14.719A11.719,11.719,0,1,1,14.719,3,11.719,11.719,0,0,1,26.438,14.719Z" transform="translate(0 0)" fill="none" stroke="#edf4fd" stroke-linecap="round" stroke-linejoin="round" stroke-width="1.5"/>
            <path id="Path_6721-7" data-name="Path 6721" d="M18,9v7.031l4.688,2.344" transform="translate(-3.281 -1.312)" fill="none" stroke="#edf4fd" stroke-linecap="round" stroke-linejoin="round" stroke-width="1.5"/>
          </g>
        </g>
        <g id="Group_3381-8" data-name="Group 3381" transform="translate(-38 326)">
          <text id="News_Sites-2" data-name="News Sites" transform="translate(80 270)" fill="#edf4fd" font-size="16" font-family="Arial-BoldMT, Arial" font-weight="700"><tspan x="0" y="14">News Sites</tspan></text>
          <g id="Group_2762-8" data-name="Group 2762" transform="translate(27 -503)">
            <text id="Estimate_time-8" data-name="Estimate time" transform="translate(55 806)" fill="#fff" font-size="14" font-family="ArialMT, Arial"><tspan x="0" y="13">Estimate time</tspan></text>
          </g>
          <g id="Rectangle_1846-8" data-name="Rectangle 1846" transform="translate(40 270)" fill="none" stroke="#fff" stroke-width="2">
            <rect width="24" height="24" rx="5" stroke="none"/>
            <rect x="1" y="1" width="22" height="22" rx="4" fill="none"/>
          </g>
          <g id="Icon_feather-clock-8" data-name="Icon feather-clock" transform="translate(340 268.281)">
            <path id="Path_6720-8" data-name="Path 6720" d="M26.438,14.719A11.719,11.719,0,1,1,14.719,3,11.719,11.719,0,0,1,26.438,14.719Z" transform="translate(0 0)" fill="none" stroke="#edf4fd" stroke-linecap="round" stroke-linejoin="round" stroke-width="1.5"/>
            <path id="Path_6721-8" data-name="Path 6721" d="M18,9v7.031l4.688,2.344" transform="translate(-3.281 -1.312)" fill="none" stroke="#edf4fd" stroke-linecap="round" stroke-linejoin="round" stroke-width="1.5"/>
          </g>
        </g>
        <g id="Group_3381-9" data-name="Group 3381" transform="translate(-38 411)">
          <text id="News_Sites-3" data-name="News Sites" transform="translate(80 270)" fill="#edf4fd" font-size="16" font-family="Arial-BoldMT, Arial" font-weight="700"><tspan x="0" y="14">News Sites</tspan></text>
          <g id="Group_2762-9" data-name="Group 2762" transform="translate(27 -503)">
            <text id="Estimate_time-9" data-name="Estimate time" transform="translate(55 806)" fill="#fff" font-size="14" font-family="ArialMT, Arial"><tspan x="0" y="13">Estimate time</tspan></text>
          </g>
          <g id="Rectangle_1846-9" data-name="Rectangle 1846" transform="translate(40 270)" fill="none" stroke="#fff" stroke-width="2">
            <rect width="24" height="24" rx="5" stroke="none"/>
            <rect x="1" y="1" width="22" height="22" rx="4" fill="none"/>
          </g>
          <g id="Icon_feather-clock-9" data-name="Icon feather-clock" transform="translate(340 268.281)">
            <path id="Path_6720-9" data-name="Path 6720" d="M26.438,14.719A11.719,11.719,0,1,1,14.719,3,11.719,11.719,0,0,1,26.438,14.719Z" transform="translate(0 0)" fill="none" stroke="#edf4fd" stroke-linecap="round" stroke-linejoin="round" stroke-width="1.5"/>
            <path id="Path_6721-9" data-name="Path 6721" d="M18,9v7.031l4.688,2.344" transform="translate(-3.281 -1.312)" fill="none" stroke="#edf4fd" stroke-linecap="round" stroke-linejoin="round" stroke-width="1.5"/>
          </g>
        </g>
        <g id="Group_3381-10" data-name="Group 3381" transform="translate(-38 496)">
          <text id="News_Sites-4" data-name="News Sites" transform="translate(80 270)" fill="#edf4fd" font-size="16" font-family="Arial-BoldMT, Arial" font-weight="700"><tspan x="0" y="14">News Sites</tspan></text>
          <g id="Group_2762-10" data-name="Group 2762" transform="translate(27 -503)">
            <text id="Estimate_time-10" data-name="Estimate time" transform="translate(55 806)" fill="#fff" font-size="14" font-family="ArialMT, Arial"><tspan x="0" y="13">Estimate time</tspan></text>
          </g>
          <g id="Rectangle_1846-10" data-name="Rectangle 1846" transform="translate(40 270)" fill="none" stroke="#fff" stroke-width="2">
            <rect width="24" height="24" rx="5" stroke="none"/>
            <rect x="1" y="1" width="22" height="22" rx="4" fill="none"/>
          </g>
          <g id="Icon_feather-clock-10" data-name="Icon feather-clock" transform="translate(340 268.281)">
            <path id="Path_6720-10" data-name="Path 6720" d="M26.438,14.719A11.719,11.719,0,1,1,14.719,3,11.719,11.719,0,0,1,26.438,14.719Z" transform="translate(0 0)" fill="none" stroke="#edf4fd" stroke-linecap="round" stroke-linejoin="round" stroke-width="1.5"/>
            <path id="Path_6721-10" data-name="Path 6721" d="M18,9v7.031l4.688,2.344" transform="translate(-3.281 -1.312)" fill="none" stroke="#edf4fd" stroke-linecap="round" stroke-linejoin="round" stroke-width="1.5"/>
          </g>
        </g>
        <g id="Group_3381-11" data-name="Group 3381" transform="translate(-38 581)">
          <text id="News_Sites-5" data-name="News Sites" transform="translate(80 270)" fill="#edf4fd" font-size="16" font-family="Arial-BoldMT, Arial" font-weight="700"><tspan x="0" y="14">News Sites</tspan></text>
          <g id="Group_2762-11" data-name="Group 2762" transform="translate(27 -503)">
            <text id="Estimate_time-11" data-name="Estimate time" transform="translate(55 806)" fill="#fff" font-size="14" font-family="ArialMT, Arial"><tspan x="0" y="13">Estimate time</tspan></text>
          </g>
          <g id="Rectangle_1846-11" data-name="Rectangle 1846" transform="translate(40 270)" fill="none" stroke="#fff" stroke-width="2">
            <rect width="24" height="24" rx="5" stroke="none"/>
            <rect x="1" y="1" width="22" height="22" rx="4" fill="none"/>
          </g>
          <g id="Icon_feather-clock-11" data-name="Icon feather-clock" transform="translate(340 268.281)">
            <path id="Path_6720-11" data-name="Path 6720" d="M26.438,14.719A11.719,11.719,0,1,1,14.719,3,11.719,11.719,0,0,1,26.438,14.719Z" transform="translate(0 0)" fill="none" stroke="#edf4fd" stroke-linecap="round" stroke-linejoin="round" stroke-width="1.5"/>
            <path id="Path_6721-11" data-name="Path 6721" d="M18,9v7.031l4.688,2.344" transform="translate(-3.281 -1.312)" fill="none" stroke="#edf4fd" stroke-linecap="round" stroke-linejoin="round" stroke-width="1.5"/>
          </g>
        </g>
        <g id="Group_3381-12" data-name="Group 3381" transform="translate(-38 666)">
          <text id="News_Sites-6" data-name="News Sites" transform="translate(80 270)" fill="#edf4fd" font-size="16" font-family="Arial-BoldMT, Arial" font-weight="700"><tspan x="0" y="14">News Sites</tspan></text>
          <g id="Group_2762-12" data-name="Group 2762" transform="translate(27 -503)">
            <text id="Estimate_time-12" data-name="Estimate time" transform="translate(55 806)" fill="#fff" font-size="14" font-family="ArialMT, Arial"><tspan x="0" y="13">Estimate time</tspan></text>
          </g>
          <g id="Rectangle_1846-12" data-name="Rectangle 1846" transform="translate(40 270)" fill="none" stroke="#fff" stroke-width="2">
            <rect width="24" height="24" rx="5" stroke="none"/>
            <rect x="1" y="1" width="22" height="22" rx="4" fill="none"/>
          </g>
          <g id="Icon_feather-clock-12" data-name="Icon feather-clock" transform="translate(340 268.281)">
            <path id="Path_6720-12" data-name="Path 6720" d="M26.438,14.719A11.719,11.719,0,1,1,14.719,3,11.719,11.719,0,0,1,26.438,14.719Z" transform="translate(0 0)" fill="none" stroke="#edf4fd" stroke-linecap="round" stroke-linejoin="round" stroke-width="1.5"/>
            <path id="Path_6721-12" data-name="Path 6721" d="M18,9v7.031l4.688,2.344" transform="translate(-3.281 -1.312)" fill="none" stroke="#edf4fd" stroke-linecap="round" stroke-linejoin="round" stroke-width="1.5"/>
          </g>
        </g>
      </g>
    </g>
    <text id="Session_3_Dopamine_Detox" data-name="Session 3
Dopamine Detox" transform="translate(29 26)" fill="#fff" font-size="16" font-family="ArialMT, Arial"><tspan x="0" y="14">Session 3</tspan><tspan font-size="24" font-family="Arial-BoldMT, Arial" font-weight="700"><tspan x="0" y="49">Dopamine Detox</tspan></tspan></text>
    <g id="Group_3234" data-name="Group 3234" transform="translate(-4.848 -10.262)">
      <path id="Icon_ionic-ios-arrow-back-3" data-name="Icon ionic-ios-arrow-back" d="M15.217,17.7,23.926,9A1.645,1.645,0,1,0,21.6,6.674l-9.867,9.86a1.642,1.642,0,0,0-.048,2.268l9.908,9.929a1.645,1.645,0,0,0,2.33-2.323Z" transform="translate(362.579 30.069)" fill="#fff"/>
      <path id="Icon_ionic-ios-arrow-back-4" data-name="Icon ionic-ios-arrow-back" d="M3.967,11.506l8.709-8.7A1.645,1.645,0,1,0,10.346.481L.479,10.341a1.642,1.642,0,0,0-.048,2.268l9.908,9.929a1.645,1.645,0,1,0,2.33-2.323Z" transform="translate(377.472 59.28) rotate(180)" fill="#fff"/>
    </g>
    <rect id="Rectangle_1598" data-name="Rectangle 1598" width="412" height="847" fill="#242424" opacity="0.537"/>
    <g id="Pop_over" data-name="Pop over" transform="translate(19 109)">
      <g transform="matrix(1, 0, 0, 1, -19, -109)" filter="url(#Rectangle_661)">
        <rect id="Rectangle_661-2" data-name="Rectangle 661" width="327" height="405" rx="10" transform="translate(43 210)" fill="#fff"/>
      </g>
      <text id="Name_of_Product" data-name="Name of Product" transform="translate(188 155)" fill="#1e64cc" font-size="20" font-family="Arial-BoldMT, Arial" font-weight="700"><tspan x="-67.622" y="0">Estimate Time</tspan></text>
      <g id="hero" transform="translate(48 17)">
        <g id="Rectangle_661-3" data-name="Rectangle 661" transform="translate(22 240)" fill="#fff" stroke="#8eb1e5" stroke-width="1">
          <rect width="235" height="72" rx="10" stroke="none"/>
          <rect x="0.5" y="0.5" width="234" height="71" rx="9.5" fill="none"/>
        </g>
        <g id="Group_3856" data-name="Group 3856" transform="translate(24)">
          <text id="_15.00" data-name="$15.00" transform="translate(47 290)" fill="#1e64cc" font-size="40" font-family="Arial-BoldMT, Arial" font-weight="700"><tspan x="-22.246" y="0">09</tspan></text>
          <text id="_15.00-2" data-name="$15.00" transform="translate(81 290)" fill="#1e64cc" font-size="10" font-family="ArialMT, Arial"><tspan x="-6.946" y="0">hrs</tspan></text>
        </g>
        <g id="Group_3855" data-name="Group 3855" transform="translate(-24)">
          <text id="_15.00-3" data-name="$15.00" transform="translate(205 290)" fill="#1e64cc" font-size="40" font-family="Arial-BoldMT, Arial" font-weight="700"><tspan x="-22.246" y="0">30</tspan></text>
          <text id="_15.00-4" data-name="$15.00" transform="translate(243 290)" fill="#1e64cc" font-size="10" font-family="ArialMT, Arial"><tspan x="-10.557" y="0">Mins</tspan></text>
        </g>
        <text id="_15.00-5" data-name="$15.00" transform="translate(136 289)" fill="#1e64cc" font-size="40" font-family="ArialMT, Arial"><tspan x="-5.195" y="0">|</tspan></text>
      </g>
      <g id="Symbol_123_6" data-name="Symbol 123 – 6" transform="translate(190 436)">
        <rect id="Rectangle_150" data-name="Rectangle 150" width="120" height="40" rx="5" fill="#1e64cc"/>
        <text id="SHARE" transform="translate(60 24)" fill="#fff" font-size="14" font-family="Arial-BoldMT, Arial" font-weight="700"><tspan x="-26.831" y="0">Confirm</tspan></text>
      </g>
      <g id="Symbol_124_2" data-name="Symbol 124 – 2" transform="translate(60 436)">
        <g id="Rectangle_151" data-name="Rectangle 151" fill="none" stroke="#2e5b9f" stroke-width="1">
          <rect width="120" height="40" rx="5" stroke="none"/>
          <rect x="0.5" y="0.5" width="119" height="39" rx="4.5" fill="none"/>
        </g>
        <text id="SKIP" transform="translate(60 24)" fill="#2e5b9f" font-size="14" font-family="Arial-BoldMT, Arial" font-weight="700"><tspan x="-22.955" y="0">Cancel</tspan></text>
      </g>
    </g>
  </g>
</svg>
