<svg xmlns="http://www.w3.org/2000/svg" xmlns:xlink="http://www.w3.org/1999/xlink" width="412" height="902" viewBox="0 0 412 902">
  <defs>
    <filter id="Path_7" x="35.992" y="650.036" width="339.426" height="95.559" filterUnits="userSpaceOnUse">
      <feOffset dy="3" input="SourceAlpha"/>
      <feGaussianBlur stdDeviation="8" result="blur"/>
      <feFlood flood-opacity="0.078"/>
      <feComposite operator="in" in2="blur"/>
      <feComposite in="SourceGraphic"/>
    </filter>
    <filter id="Path_7-2" x="35.992" y="717.595" width="339.426" height="95.559" filterUnits="userSpaceOnUse">
      <feOffset dy="3" input="SourceAlpha"/>
      <feGaussianBlur stdDeviation="8" result="blur-2"/>
      <feFlood flood-opacity="0.078"/>
      <feComposite operator="in" in2="blur-2"/>
      <feComposite in="SourceGraphic"/>
    </filter>
    <clipPath id="clip-Side_effect_reeportiing-2_1">
      <rect width="412" height="902"/>
    </clipPath>
  </defs>
  <g id="Side_effect_reeportiing-2_1" data-name="Side effect reeportiing-2 – 1" clip-path="url(#clip-Side_effect_reeportiing-2_1)">
    <rect width="412" height="902" fill="rgba(15,15,15,0.76)"/>
    <rect id="Rectangle_2122" data-name="Rectangle 2122" width="372" height="739" rx="10" transform="translate(21 81)" fill="#f2f5f7"/>
    <text id="What_to_do" data-name="What to do" transform="translate(44 347)" fill="#1e64cc" font-size="18" font-family="Arial-BoldMT, Arial" font-weight="700"><tspan x="0" y="16">What to do</tspan></text>
    <text id="Still_Want_to_report_" data-name="Still Want to report ?" transform="translate(107 621)" fill="#1e64cc" font-size="18" font-family="Arial-BoldMT, Arial" font-weight="700"><tspan x="10.841" y="16">Still Want to report ?</tspan></text>
    <text id="_1._One_night_Emily_stabs_Martin_to_death_while_sleepwalking._" data-name="1. One night, Emily stabs Martin to death              
    while sleepwalking. " transform="translate(44 158)" fill="#2e5b9f" font-size="16" font-family="ArialMT, Arial"><tspan x="0" y="14" xml:space="preserve">1. One night, Emily stabs Martin to death              </tspan><tspan x="0" y="39" xml:space="preserve">    while sleepwalking. </tspan></text>
    <text id="_2._Jonathan_fights_for_Emily_s_acquittal_in_court._" data-name="2. Jonathan fights for Emily’s acquittal in              
    court. " transform="translate(44 221)" fill="#2e5b9f" font-size="16" font-family="ArialMT, Arial"><tspan x="0" y="14" xml:space="preserve">2. Jonathan fights for Emily’s acquittal in              </tspan><tspan x="0" y="39" xml:space="preserve">    court. </tspan></text>
    <text id="_3._She_pleads_not_guilty_by_reason_of_insanity_" data-name="3. She pleads not guilty by reason of insanity " transform="translate(44 284)" fill="#2e5b9f" font-size="16" font-family="ArialMT, Arial"><tspan x="0" y="14">3. She pleads not guilty by reason of insanity </tspan></text>
    <g id="Search" transform="translate(21 671.036)">
      <g transform="matrix(1, 0, 0, 1, -21, -671.04)" filter="url(#Path_7)">
        <path id="Path_7-3" data-name="Path 7" d="M6.98,5H284.446c3.855,0,6.98,3.961,6.98,8.848V43.71c0,4.887-3.125,8.848-6.98,8.848H6.98C3.125,52.558,0,48.6,0,43.71V13.848C0,8.961,3.125,5,6.98,5Z" transform="translate(59.99 666.04)" fill="#ff9241"/>
      </g>
      <text id="Yes" transform="translate(100 11.964)" fill="#fff" font-size="16" font-family="Lato-Regular, Lato"><tspan x="73.196" y="16">Yes</tspan></text>
    </g>
    <g id="Search-2" data-name="Search" transform="translate(21 738.595)">
      <g transform="matrix(1, 0, 0, 1, -21, -738.59)" filter="url(#Path_7-2)">
        <path id="Path_7-4" data-name="Path 7" d="M6.98,5H284.446c3.855,0,6.98,3.961,6.98,8.848V43.71c0,4.887-3.125,8.848-6.98,8.848H6.98C3.125,52.558,0,48.6,0,43.71V13.848C0,8.961,3.125,5,6.98,5Z" transform="translate(59.99 733.59)" fill="#f0f6fa"/>
      </g>
      <text id="No" transform="translate(100 11.964)" fill="#1e64cc" font-size="16" font-family="Lato-Regular, Lato"><tspan x="74.48" y="16">No</tspan></text>
    </g>
    <rect id="Rectangle_2125" data-name="Rectangle 2125" width="24" height="24" rx="12" transform="translate(44 386)" fill="#1ca73c"/>
    <text id="Pleads_not_guilty_by_reason_" data-name="Pleads not guilty by reason " transform="translate(80 386)" fill="#2e5b9f" font-size="16" font-family="ArialMT, Arial"><tspan x="0" y="14">Pleads not guilty by reason </tspan></text>
    <path id="Icon_material-done" data-name="Icon material-done" d="M9.344,16.434,6.161,13.25,5.1,14.312l4.244,4.244,9.095-9.095L17.378,8.4Z" transform="translate(44.232 384.522)" fill="#f2f5f7"/>
    <text id="Common_Side_effects" data-name="Common Side effects" transform="translate(41 101)" fill="#1e64cc" font-size="18" font-family="Arial-BoldMT, Arial" font-weight="700"><tspan x="0" y="16">Common Side effects</tspan></text>
  </g>
</svg>
