<svg xmlns="http://www.w3.org/2000/svg" xmlns:xlink="http://www.w3.org/1999/xlink" width="412" height="847" viewBox="0 0 412 847">
  <defs>
    <filter id="Path_7" x="26" y="656" width="360" height="96.064" filterUnits="userSpaceOnUse">
      <feOffset dy="3" input="SourceAlpha"/>
      <feGaussianBlur stdDeviation="8" result="blur"/>
      <feFlood flood-opacity="0.078"/>
      <feComposite operator="in" in2="blur"/>
      <feComposite in="SourceGraphic"/>
    </filter>
    <filter id="Rectangle_1534" x="-9" y="775" width="430" height="78" filterUnits="userSpaceOnUse">
      <feOffset dy="-3" input="SourceAlpha"/>
      <feGaussianBlur stdDeviation="3" result="blur-2"/>
      <feFlood flood-opacity="0.059"/>
      <feComposite operator="in" in2="blur-2"/>
      <feComposite in="SourceGraphic"/>
    </filter>
    <clipPath id="clip-Success_page_13">
      <rect width="412" height="847"/>
    </clipPath>
  </defs>
  <g id="Success_page_13" data-name="Success page – 13" clip-path="url(#clip-Success_page_13)">
    <rect width="412" height="847" fill="#102646"/>
    <text id="Alexis_Balencesco" data-name="Alexis Balencesco" transform="translate(22 228)" fill="#fff" font-size="26" font-family="Arial-BoldMT, Arial" font-weight="700"><tspan x="0" y="24">Practice problem solving</tspan><tspan x="0" y="50"></tspan><tspan fill="#edf4fd" font-size="16"><tspan x="0" y="76">1. First recognize that there is a problem.</tspan><tspan x="0" y="102"></tspan><tspan x="0" y="128">2. Identify it.</tspan><tspan x="0" y="154"></tspan><tspan x="0" y="180">3. Discuss or make a list of various options </tspan><tspan x="0" y="206">available for solving it</tspan><tspan x="0" y="232"></tspan><tspan x="0" y="258">4. Select the least objectionable approach</tspan><tspan x="0" y="284"></tspan><tspan x="0" y="310">5. Assess the effectiveness and do not pass out </tspan><tspan x="0" y="336">derogatory comments if the effectiveness is not </tspan><tspan x="0" y="362">up to the mark. And maintain a summary in our </tspan><tspan x="0" y="388">app’s thought journal</tspan></tspan></text>
    <text id="Session_4_Making_amends_with_your_spouse_close_ones_relatives" data-name="Session 4
Making amends with your spouse/close ones/relatives" transform="translate(21 26)" fill="#fff" font-size="16" font-family="ArialMT, Arial"><tspan x="0" y="14">Session 4</tspan><tspan font-size="24" font-family="Arial-BoldMT, Arial" font-weight="700"><tspan x="0" y="49">Making amends with your </tspan><tspan x="0" y="84">spouse/close ones/relatives</tspan></tspan></text>
    <g id="CTA" transform="translate(50 677.438)">
      <g transform="matrix(1, 0, 0, 1, -50, -677.44)" filter="url(#Path_7)">
        <path id="Path_7-2" data-name="Path 7" d="M7.473,5H304.527C308.654,5,312,9,312,13.942v30.18c0,4.939-3.346,8.942-7.473,8.942H7.473c-4.127,0-7.473-4-7.473-8.942V13.942C0,9,3.346,5,7.473,5Z" transform="translate(50 672)" fill="#ff9241"/>
      </g>
      <text id="Write_thought_journal" data-name="Write thought journal" transform="translate(156 28.563)" fill="#fff" font-size="14" font-family="ArialMT, Arial"><tspan x="-64.463" y="0">Write thought journal</tspan></text>
    </g>
    <g id="Group_3076" data-name="Group 3076" transform="translate(-45.007 -243)">
      <rect id="Rectangle_1708" data-name="Rectangle 1708" width="370" height="5" rx="2.5" transform="translate(66.007 391)" fill="#dce9f5"/>
      <rect id="Rectangle_1709" data-name="Rectangle 1709" width="370" height="5" rx="2.5" transform="translate(66.007 391)" fill="#1e64cc"/>
    </g>
    <g id="Component_119_72" data-name="Component 119 – 72" transform="translate(0 787)">
      <g transform="matrix(1, 0, 0, 1, 0, -787)" filter="url(#Rectangle_1534)">
        <rect id="Rectangle_1534-2" data-name="Rectangle 1534" width="412" height="60" transform="translate(0 787)" fill="#102646"/>
      </g>
      <g id="Group_2755" data-name="Group 2755" transform="translate(0 -779)">
        <g id="Rectangle_1564" data-name="Rectangle 1564" transform="translate(12 789)" fill="#fff" stroke="#707070" stroke-width="1" opacity="0">
          <rect width="50" height="45" stroke="none"/>
          <rect x="0.5" y="0.5" width="49" height="44" fill="none"/>
        </g>
        <path id="Path_4565" data-name="Path 4565" d="M35.606,24.011l-7.368-7.1,7.368-7.1a1.37,1.37,0,0,0,.424-.982,1.4,1.4,0,0,0-.4-1,1.369,1.369,0,0,0-.982-.424h-.022a1.385,1.385,0,0,0-.982.4l-8.417,8.1a1.42,1.42,0,0,0-.424,1,1.382,1.382,0,0,0,.424,1l8.439,8.1a1.443,1.443,0,0,0,.982.4,1.42,1.42,0,0,0,1-.424,1.4,1.4,0,0,0,.4-1A1.274,1.274,0,0,0,35.606,24.011Z" transform="translate(5.036 792.435)" fill="#fff"/>
      </g>
    </g>
  </g>
</svg>
