<svg xmlns="http://www.w3.org/2000/svg" xmlns:xlink="http://www.w3.org/1999/xlink" width="412" height="1168" viewBox="0 0 412 1168">
  <defs>
    <filter id="Rectangle_1534" x="-9" y="775" width="430" height="78" filterUnits="userSpaceOnUse">
      <feOffset dy="-3" input="SourceAlpha"/>
      <feGaussianBlur stdDeviation="3" result="blur"/>
      <feFlood flood-opacity="0.059"/>
      <feComposite operator="in" in2="blur"/>
      <feComposite in="SourceGraphic"/>
    </filter>
    <clipPath id="clip-Success_page_16">
      <rect width="412" height="1168"/>
    </clipPath>
  </defs>
  <g id="Success_page_16" data-name="Success page – 16" clip-path="url(#clip-Success_page_16)">
    <rect width="412" height="1168" fill="#102646"/>
    <text id="Alexis_Balencesco" data-name="Alexis Balencesco" transform="translate(21 168)" fill="#edf4fd" font-size="16" font-family="ArialMT, Arial"><tspan x="0" y="14">A) Avoid unnecessary personal detail such as age, </tspan><tspan x="0" y="44">religion, and sex</tspan><tspan x="0" y="74"></tspan><tspan x="0" y="104">B) Do not write in the first person (I, Me, etc.) – start </tspan><tspan x="0" y="134">sentences with verbs (“Create, Generate, Develop, </tspan><tspan x="0" y="164">Learn, and Analyse”)</tspan><tspan x="0" y="194"></tspan><tspan x="0" y="224">C) Follow up Verbs by for achievements and </tspan><tspan x="0" y="254">responsibilities. </tspan><tspan font-size="14"><tspan x="0" y="284">Ex - Planned and Implemented coordination efforts to </tspan><tspan x="0" y="314">ensure timely service. (Verb &amp; Responsibility)</tspan><tspan x="0" y="344">Reduced resolution time by 40% to ensure timely service to </tspan><tspan x="0" y="374">store customers. ((Verb &amp; Achievement) </tspan></tspan><tspan x="0" y="404"></tspan><tspan x="0" y="434">D) List your career history in reverse chronological </tspan><tspan x="0" y="464">order</tspan><tspan x="0" y="494"></tspan><tspan x="0" y="524">E) Keep it simple.</tspan><tspan x="0" y="554"></tspan><tspan x="0" y="584">F) Summary (is a 2-3-line description of what you </tspan><tspan x="0" y="614">have done or learned so far in your career) ex. </tspan><tspan x="0" y="644">[ “Software Developer with experience in Java and </tspan><tspan x="0" y="674">SQL. Ability to self-educate and learn new </tspan><tspan x="0" y="704">technologies with minimum supervision. Strong </tspan><tspan x="0" y="734">work ethic, self-starter, and able to adapt to </tspan></text>
    <text id="Alexis_Balencesco-2" data-name="Alexis Balencesco" transform="translate(21 126)" fill="#edf4fd" font-size="16" font-family="Arial-BoldMT, Arial" font-weight="700"><tspan x="0" y="14">Things to keep in mind</tspan></text>
    <text id="Session_4_Increase_your_Job_skills" data-name="Session 4
Increase your Job skills" transform="translate(21 26)" fill="#fff" font-size="16" font-family="ArialMT, Arial"><tspan x="0" y="14">Session 4</tspan><tspan font-size="24" font-family="Arial-BoldMT, Arial" font-weight="700"><tspan x="0" y="49">Increase your Job skills</tspan></tspan></text>
    <g id="Group_3234" data-name="Group 3234" transform="translate(4.012 -10.262)">
      <path id="Icon_ionic-ios-arrow-back" data-name="Icon ionic-ios-arrow-back" d="M15.217,17.7,23.926,9A1.645,1.645,0,1,0,21.6,6.674l-9.867,9.86a1.642,1.642,0,0,0-.048,2.268l9.908,9.929a1.645,1.645,0,0,0,2.33-2.323Z" transform="translate(362.579 30.069)" fill="#fff"/>
      <path id="Icon_ionic-ios-arrow-back-2" data-name="Icon ionic-ios-arrow-back" d="M3.967,11.506l8.709-8.7A1.645,1.645,0,1,0,10.346.481L.479,10.341a1.642,1.642,0,0,0-.048,2.268l9.908,9.929a1.645,1.645,0,1,0,2.33-2.323Z" transform="translate(377.472 59.28) rotate(180)" fill="#fff"/>
    </g>
    <g id="Component_119_347" data-name="Component 119 – 347" transform="translate(0 787)">
      <g transform="matrix(1, 0, 0, 1, 0, -787)" filter="url(#Rectangle_1534)">
        <rect id="Rectangle_1534-2" data-name="Rectangle 1534" width="412" height="60" transform="translate(0 787)" fill="#102646"/>
      </g>
      <g id="Group_2755" data-name="Group 2755" transform="translate(0 -779)">
        <g id="Rectangle_1564" data-name="Rectangle 1564" transform="translate(12 789)" fill="#fff" stroke="#707070" stroke-width="1" opacity="0">
          <rect width="50" height="45" stroke="none"/>
          <rect x="0.5" y="0.5" width="49" height="44" fill="none"/>
        </g>
        <path id="Path_4565" data-name="Path 4565" d="M35.606,24.011l-7.368-7.1,7.368-7.1a1.37,1.37,0,0,0,.424-.982,1.4,1.4,0,0,0-.4-1,1.369,1.369,0,0,0-.982-.424h-.022a1.385,1.385,0,0,0-.982.4l-8.417,8.1a1.42,1.42,0,0,0-.424,1,1.382,1.382,0,0,0,.424,1l8.439,8.1a1.443,1.443,0,0,0,.982.4,1.42,1.42,0,0,0,1-.424,1.4,1.4,0,0,0,.4-1A1.274,1.274,0,0,0,35.606,24.011Z" transform="translate(5.036 792.435)" fill="#fff"/>
      </g>
    </g>
  </g>
</svg>
