<svg xmlns="http://www.w3.org/2000/svg" xmlns:xlink="http://www.w3.org/1999/xlink" width="412" height="847" viewBox="0 0 412 847">
  <defs>
    <filter id="Rectangle_1534" x="-9" y="775" width="430" height="78" filterUnits="userSpaceOnUse">
      <feOffset dy="-3" input="SourceAlpha"/>
      <feGaussianBlur stdDeviation="3" result="blur"/>
      <feFlood flood-opacity="0.059"/>
      <feComposite operator="in" in2="blur"/>
      <feComposite in="SourceGraphic"/>
    </filter>
    <clipPath id="clip-Success_page_25">
      <rect width="412" height="847"/>
    </clipPath>
  </defs>
  <g id="Success_page_25" data-name="Success page – 25" clip-path="url(#clip-Success_page_25)">
    <rect width="412" height="847" fill="#102646"/>
    <text id="Alexis_Balencesco" data-name="Alexis Balencesco" transform="translate(21 306)" fill="#fff" font-size="20" font-family="ArialMT, Arial"><tspan x="0" y="18">3. Plan such that you can perform the </tspan><tspan x="0" y="54">task in any manner.</tspan><tspan x="0" y="90">Do not over think about the quality.</tspan></text>
    <g id="Component_119_79" data-name="Component 119 – 79" transform="translate(0 787)">
      <g transform="matrix(1, 0, 0, 1, 0, -787)" filter="url(#Rectangle_1534)">
        <rect id="Rectangle_1534-2" data-name="Rectangle 1534" width="412" height="60" transform="translate(0 787)" fill="#102646"/>
      </g>
      <g id="Group_2755" data-name="Group 2755" transform="translate(0 -779)">
        <g id="Rectangle_1564" data-name="Rectangle 1564" transform="translate(12 789)" fill="#fff" stroke="#707070" stroke-width="1" opacity="0">
          <rect width="50" height="45" stroke="none"/>
          <rect x="0.5" y="0.5" width="49" height="44" fill="none"/>
        </g>
        <path id="Path_4565" data-name="Path 4565" d="M35.606,24.011l-7.368-7.1,7.368-7.1a1.37,1.37,0,0,0,.424-.982,1.4,1.4,0,0,0-.4-1,1.369,1.369,0,0,0-.982-.424h-.022a1.385,1.385,0,0,0-.982.4l-8.417,8.1a1.42,1.42,0,0,0-.424,1,1.382,1.382,0,0,0,.424,1l8.439,8.1a1.443,1.443,0,0,0,.982.4,1.42,1.42,0,0,0,1-.424,1.4,1.4,0,0,0,.4-1A1.274,1.274,0,0,0,35.606,24.011Z" transform="translate(5.036 792.435)" fill="#fff"/>
      </g>
    </g>
    <g id="Group_3076" data-name="Group 3076" transform="translate(-45.007 -245)">
      <rect id="Rectangle_1708" data-name="Rectangle 1708" width="370" height="5" rx="2.5" transform="translate(66.007 391)" fill="#dce9f5"/>
      <g id="Rectangle_1709" data-name="Rectangle 1709" transform="translate(66.007 391)" fill="#1e64cc" stroke="#1e64cc" stroke-width="1">
        <rect width="38" height="5" rx="2.5" stroke="none"/>
        <rect x="0.5" y="0.5" width="37" height="4" rx="2" fill="none"/>
      </g>
    </g>
    <text id="Session_4_Increase_Pleasant_activities" data-name="Session 4
Increase Pleasant activities" transform="translate(21 26)" fill="#fff" font-size="16" font-family="ArialMT, Arial"><tspan x="0" y="14">Session 4</tspan><tspan font-size="24" font-family="Arial-BoldMT, Arial" font-weight="700"><tspan x="0" y="49">Increase Pleasant </tspan><tspan x="0" y="84">activities</tspan></tspan></text>
  </g>
</svg>
