<svg xmlns="http://www.w3.org/2000/svg" xmlns:xlink="http://www.w3.org/1999/xlink" width="412" height="847" viewBox="0 0 412 847">
  <defs>
    <linearGradient id="linear-gradient" x1="0.5" x2="0.5" y2="1" gradientUnits="objectBoundingBox">
      <stop offset="0" stop-color="#37aadd"/>
      <stop offset="1" stop-color="#1f64cc"/>
    </linearGradient>
    <filter id="Rectangle_1534" x="-9" y="775" width="430" height="78" filterUnits="userSpaceOnUse">
      <feOffset dy="-3" input="SourceAlpha"/>
      <feGaussianBlur stdDeviation="3" result="blur"/>
      <feFlood flood-opacity="0.059"/>
      <feComposite operator="in" in2="blur"/>
      <feComposite in="SourceGraphic"/>
    </filter>
    <filter id="Path_7" x="26" y="692.855" width="360" height="96.064" filterUnits="userSpaceOnUse">
      <feOffset dy="3" input="SourceAlpha"/>
      <feGaussianBlur stdDeviation="8" result="blur-2"/>
      <feFlood flood-opacity="0.078"/>
      <feComposite operator="in" in2="blur-2"/>
      <feComposite in="SourceGraphic"/>
    </filter>
    <clipPath id="clip-Success_page_28">
      <rect width="412" height="847"/>
    </clipPath>
  </defs>
  <g id="Success_page_28" data-name="Success page – 28" clip-path="url(#clip-Success_page_28)">
    <rect width="412" height="847" fill="url(#linear-gradient)"/>
    <g id="Component_119_97" data-name="Component 119 – 97" transform="translate(0 787)">
      <g transform="matrix(1, 0, 0, 1, 0, -787)" filter="url(#Rectangle_1534)">
        <rect id="Rectangle_1534-2" data-name="Rectangle 1534" width="412" height="60" transform="translate(0 787)" fill="#102646"/>
      </g>
      <g id="Group_2755" data-name="Group 2755" transform="translate(0 -779)">
        <g id="Rectangle_1564" data-name="Rectangle 1564" transform="translate(12 789)" fill="#fff" stroke="#707070" stroke-width="1" opacity="0">
          <rect width="50" height="45" stroke="none"/>
          <rect x="0.5" y="0.5" width="49" height="44" fill="none"/>
        </g>
        <path id="Path_4565" data-name="Path 4565" d="M35.606,24.011l-7.368-7.1,7.368-7.1a1.37,1.37,0,0,0,.424-.982,1.4,1.4,0,0,0-.4-1,1.369,1.369,0,0,0-.982-.424h-.022a1.385,1.385,0,0,0-.982.4l-8.417,8.1a1.42,1.42,0,0,0-.424,1,1.382,1.382,0,0,0,.424,1l8.439,8.1a1.443,1.443,0,0,0,.982.4,1.42,1.42,0,0,0,1-.424,1.4,1.4,0,0,0,.4-1A1.274,1.274,0,0,0,35.606,24.011Z" transform="translate(5.036 792.435)" fill="#fff"/>
      </g>
    </g>
    <text id="Session_2_Evaluation_of_Problem" data-name="Session 2
Evaluation of Problem" transform="translate(29 26)" fill="#fff" font-size="16" font-family="ArialMT, Arial"><tspan x="0" y="14">Session 2</tspan><tspan font-size="24" font-family="Arial-BoldMT, Arial" font-weight="700"><tspan x="0" y="49">Evaluation of Problem</tspan></tspan></text>
    <g id="Background" transform="translate(7.871 197.27)" style="isolation: isolate">
      <rect id="Mask" width="396" height="485" rx="20" transform="translate(0.129 0.148)" fill="#102646"/>
    </g>
    <g id="CTA" transform="translate(50 713.855)">
      <g transform="matrix(1, 0, 0, 1, -50, -713.86)" filter="url(#Path_7)">
        <path id="Path_7-2" data-name="Path 7" d="M7.473,5H304.527C308.654,5,312,9,312,13.942v30.18c0,4.939-3.346,8.942-7.473,8.942H7.473c-4.127,0-7.473-4-7.473-8.942V13.942C0,9,3.346,5,7.473,5Z" transform="translate(50 708.86)" fill="#ff9241"/>
      </g>
      <text id="Get_Started" data-name="Get Started" transform="translate(76 12.563)" fill="#fff" font-size="16" font-family="ArialMT, Arial"><tspan x="38.59" y="14">Get Started</tspan></text>
    </g>
    <text id="Mainly_recommended_for_Internet_addiction_but_it_can_help_other_people_as_well_as_studies_have_shown_that_decreasing_social_media_can_have_beneficial_effect_as_a_whole._Social_media_internet_games_constantly_provides_brief_burst_of_dopamine_because_of_it_" data-name="Mainly recommended for Internet addiction but it can help other people as well as studies have shown that decreasing social media can have beneficial effect as a whole. 
Social media/internet/games constantly provides brief burst of dopamine because of it’" transform="translate(33 307.418)" fill="#edf4fd" font-size="17" font-family="ArialMT, Arial"><tspan x="0" y="15">Mainly recommended for Internet addiction </tspan><tspan x="0" y="46">but it can help other people as well as studies </tspan><tspan x="0" y="77">have shown that decreasing social media can </tspan><tspan x="0" y="108">have beneficial effect as a whole. </tspan><tspan x="0" y="139">Social media/internet/games constantly </tspan><tspan x="0" y="170">provides brief burst of dopamine because of </tspan><tspan x="0" y="201">it’s never ending content. </tspan><tspan x="0" y="232">We will show the data if possible for different </tspan><tspan x="0" y="263">screen time or we can ask the person in the </tspan><tspan x="0" y="294">form of a check list to mark up the main </tspan><tspan x="0" y="325">platforms. </tspan></text>
    <g id="Group_3475" data-name="Group 3475" transform="translate(32.999 123.593)">
      <g id="Group_3441" data-name="Group 3441" transform="translate(9.294 35.17)">
        <path id="Path_7460" data-name="Path 7460" d="M371.758,250.773s-1.634-15.723-29.4-16.54-38.184,25.729-38.184,36.959,4.7,21.032,11.231,28.587a3.582,3.582,0,0,1-2.246,3.063c-2.246,1.021.817,7.351,6.738,6.126Z" transform="translate(-303.867 -227.211)" fill="#7c3314"/>
        <path id="Path_7461" data-name="Path 7461" d="M529.609,287.391a4.965,4.965,0,0,0,3.449.674s.175-.046.356-.1c2.913-.858,4.44-3.029,6.286-5.652,2.367-3.364,4.638-6.591,3.461-9.618-1.106-2.844-4.443-3.731-4.693-3.793-4.35-1.079-8.732,2.428-10.545,5.931a11.317,11.317,0,0,0-1.072,6.585C527,282.782,527.373,286.094,529.609,287.391Z" transform="translate(-526.753 -253.772)" fill="#964526"/>
        <path id="Path_7462" data-name="Path 7462" d="M531.527,380.317c.676,1.682,3.459,1.92,5.054,1.685.629-.093,3.009-.445,3.9-2.372,1.015-2.2-.411-5.371-2.52-5.9-1.783-.445-3.427,1.154-4.288,1.991C533.026,376.349,530.8,378.512,531.527,380.317Z" transform="translate(-525.149 -334.599)" fill="#964526"/>
        <path id="Path_7463" data-name="Path 7463" d="M404.545,216.685c.409.439,1.311,1.2,8.37,1.048,5.074-.108,7.642-.186,9.2-1.38,2.159-1.655,3.957-5.013,2.909-7.985-1.011-2.865-4.146-3.889-5.08-4.194-2.826-.923-5.243-.205-8.27.694-3.552,1.056-5.664,1.683-7.048,3.8C403.1,211.006,402.734,214.74,404.545,216.685Z" transform="translate(-380.232 -203.744)" fill="#964526"/>
        <path id="Path_7464" data-name="Path 7464" d="M499.309,318.081a3.47,3.47,0,0,0,3.142,1.875c2.1-.047,3.656-2.212,3.715-4.174.053-1.746-1.069-3.813-2.614-3.987-1.211-.137-2.2.945-2.771,1.576C500.336,313.86,498.35,316.041,499.309,318.081Z" transform="translate(-483.071 -286.949)" fill="#964526"/>
        <path id="Path_7465" data-name="Path 7465" d="M324.637,254.259c-.5,1.471,4.481,5.082,5.654,4.222.668-.489.02-2.364-.021-2.479a3.784,3.784,0,0,0-2.144-2.3C326.75,253.18,324.9,253.478,324.637,254.259Z" transform="translate(-267.396 -242.018)" fill="#964526"/>
        <path id="Path_7466" data-name="Path 7466" d="M557.962,452.477c1.075.785,3.563,2.081,5.3,1.115,2.342-1.3,2.3-6.179.293-9.161-1.021-1.518-3.4-3.811-5.522-3.085-2.326.8-2.629,4.637-2.66,5.027A7,7,0,0,0,557.962,452.477Z" transform="translate(-554.88 -386.624)" fill="#964526"/>
        <path id="Path_7467" data-name="Path 7467" d="M514.8,496.581s-.2,7.683-6.954,10.606c0,0,.449,5.529,9.025,4S514.8,496.581,514.8,496.581Z" transform="translate(-499.13 -429.27)" fill="#965626"/>
        <path id="Path_7468" data-name="Path 7468" d="M559.495,284.767a3.47,3.47,0,0,0,3.142,1.875c2.1-.048,3.656-2.212,3.715-4.174.053-1.746-1.069-3.812-2.614-3.987-1.211-.137-2.2.944-2.771,1.576C560.522,280.547,558.536,282.728,559.495,284.767Z" transform="translate(-557.091 -261.293)" fill="#aa623d"/>
        <path id="Path_7469" data-name="Path 7469" d="M403.617,211.75c-1.43.371-4.189,1.449-4.122,2.983.09,2.073,5.3,4.087,9.587,4.03,2.182-.029,5.941-.619,6.343-2.3.441-1.849-3.478-3.656-3.875-3.84A12.66,12.66,0,0,0,403.617,211.75Z" transform="translate(-369.479 -209.666)" fill="#aa623d"/>
        <path id="Path_7470" data-name="Path 7470" d="M545.759,378.535c-.7-.424-2.225.3-3.024.852-.314.217-1.506,1.042-1.588,2.012-.092,1.108,1.307,1.862,2.533,1.441a3.716,3.716,0,0,0,1.872-1.985C545.768,380.436,546.509,378.989,545.759,378.535Z" transform="translate(-532.665 -338.26)" fill="#aa623d"/>
        <path id="Path_7471" data-name="Path 7471" d="M565.321,452.869c.751.632,1.514.8,1.872.493.6-.512-.027-2.272-.994-3.555-.861-1.143-2.23-2.224-2.775-1.982-.427.189-.176,1.116-.03,1.656A7,7,0,0,0,565.321,452.869Z" transform="translate(-559.071 -391.694)" fill="#aa623d"/>
        <path id="Path_7472" data-name="Path 7472" d="M328.922,257.219c-.384.588,3.45,2.033,4.354,1.689.514-.2.015-.946-.017-.992a2.421,2.421,0,0,0-1.651-.919C330.548,256.788,329.126,256.907,328.922,257.219Z" transform="translate(-271.298 -244.676)" fill="#aa623d"/>
        <path id="Path_7473" data-name="Path 7473" d="M522.3,526.432s-2.77,1.186-4.83-2.755C517.468,523.677,517.687,528.258,522.3,526.432Z" transform="translate(-503.434 -450.138)" fill="#613314"/>
        <path id="Path_7474" data-name="Path 7474" d="M530.492,465.6a96.805,96.805,0,0,0,2.6-14.319S536.771,458.4,530.492,465.6Z" transform="translate(-518.294 -394.379)" fill="#612214"/>
      </g>
      <g id="Group_3442" data-name="Group 3442" transform="translate(46.548 117.735)">
        <path id="Path_7475" data-name="Path 7475" d="M414.38,565.785a8.627,8.627,0,0,1-6.888,6.571,13.622,13.622,0,0,0,2.526-9.17S413.962,561.769,414.38,565.785Z" transform="translate(-407.492 -562.944)" fill="#a4c53a"/>
        <path id="Path_7476" data-name="Path 7476" d="M421.872,573.33a6.308,6.308,0,0,1-2.59,5.553A51.956,51.956,0,0,0,421.872,573.33Z" transform="translate(-417.714 -570.943)" fill="#a2b33a"/>
      </g>
      <g id="Group_3443" data-name="Group 3443" transform="translate(0 3.191)">
        <path id="Path_7477" data-name="Path 7477" d="M509.63,115.309s-17.255-4.133-21.952-17-4.492-33.692-4.492-33.692S470.73,79.73,470.73,95.453s16.993,27.3,35.348,22.328C506.077,117.782,509.682,117.911,509.63,115.309Z" transform="translate(-470.73 -64.62)" fill="#a4c53a"/>
        <path id="Path_7478" data-name="Path 7478" d="M542.487,175.358s-28.434-9.8-22.206-33.9C520.281,141.462,504.864,173.623,542.487,175.358Z" transform="translate(-514.257 -123.799)" fill="#a2b33a"/>
        <path id="Path_7479" data-name="Path 7479" d="M563.407,120.434s-9.413-.817-8.8-38.491C554.6,81.943,544.478,115.571,563.407,120.434Z" transform="translate(-543.164 -77.961)" fill="#b6db3a"/>
        <path id="Path_7480" data-name="Path 7480" d="M596.976,124.636a1.563,1.563,0,0,0,.611-3.065,1.489,1.489,0,0,0-1.375,1A1.6,1.6,0,0,0,596.976,124.636Z" transform="translate(-588.759 -108.478)" fill="#7fac27"/>
        <path id="Path_7481" data-name="Path 7481" d="M607.838,151.54c1.079-.058,1.924-1.826,1.531-2.348-.3-.394-1.4-.217-2.053.348-.086.075-.822.714-.6,1.345A1.152,1.152,0,0,0,607.838,151.54Z" transform="translate(-601.814 -129.589)" fill="#7fac27"/>
        <path id="Path_7482" data-name="Path 7482" d="M582.729,161.516c.427.27,1.128.431,1.4.127.343-.385-.2-1.292-.256-1.381-.5-.833-1.559-1.505-1.938-1.235C581.511,159.328,581.774,160.911,582.729,161.516Z" transform="translate(-570.857 -137.28)" fill="#7fac27"/>
        <path id="Path_7483" data-name="Path 7483" d="M598.354,175.1c1.142-.855.514-3.669-.539-3.974-.721-.209-1.756.723-2.144,1.684a2.028,2.028,0,0,0-.04,1.745A2.061,2.061,0,0,0,598.354,175.1Z" transform="translate(-588.728 -146.62)" fill="#7fac27"/>
        <path id="Path_7484" data-name="Path 7484" d="M590.759,231.423c.655.008,1.45-.273,1.469-.613s-.768-.675-1.285-.793c-.888-.2-2.023-.023-2.093.357S589.782,231.412,590.759,231.423Z" transform="translate(-580.478 -191.934)" fill="#7fac27"/>
        <path id="Path_7485" data-name="Path 7485" d="M537.582,254.209c.4.19,1.059.331,1.223.081s-.186-.789-.573-1.083c-.591-.45-1.52-.5-1.67-.205S536.977,253.924,537.582,254.209Z" transform="translate(-515.07 -209.56)" fill="#7fac27"/>
        <path id="Path_7486" data-name="Path 7486" d="M596.976,124.636a1.563,1.563,0,0,0,.611-3.065,1.489,1.489,0,0,0-1.375,1A1.6,1.6,0,0,0,596.976,124.636Z" transform="translate(-588.759 -108.478)" fill="#89b633"/>
      </g>
      <g id="Group_3444" data-name="Group 3444" transform="translate(55.796 113.558)">
        <path id="Path_7487" data-name="Path 7487" d="M282.976,546.688s6.577,5.635,5.5,16.509-4.918,14.855-4.918,14.855,7.012.5,9.882,3.115c2.676,2.443-12.027,2.781-18.766,2.475a36.412,36.412,0,0,1-11.79-2.526c2.536-4.085,6.533-9.879,5.054-20.675a74.665,74.665,0,0,0-2.45-9.036C267.013,550.36,270.743,549.329,282.976,546.688Z" transform="translate(-262.888 -546.248)" fill="#a4c53a"/>
        <path id="Path_7488" data-name="Path 7488" d="M352.282,583.418s5,12.252-1.021,21.032C351.261,604.45,363.411,597.406,352.282,583.418Z" transform="translate(-346.412 -574.536)" fill="#a2b33a"/>
        <path id="Path_7489" data-name="Path 7489" d="M300.438,544.775s10.908,10.924,1.311,29.915c0,0,2.459-22.444-7.657-26.389Z" transform="translate(-281.993 -544.775)" fill="#b6db3a"/>
        <path id="Path_7490" data-name="Path 7490" d="M274.01,686.135s13.247,2.45,1.914,3.446C275.924,689.581,279.982,688.2,274.01,686.135Z" transform="translate(-252.186 -653.642)" fill="#b6db3a"/>
        <path id="Path_7491" data-name="Path 7491" d="M318.939,684.691s-.66,1.838-9.645,1.838A36.95,36.95,0,0,1,318.939,684.691Z" transform="translate(-298.727 -652.53)" fill="#a2b33a"/>
        <path id="Path_7492" data-name="Path 7492" d="M289.777,605.4a1.313,1.313,0,0,0,.88,1.2c.975.257,2.24-1.187,1.953-2.038-.171-.508-.844-.651-.888-.659A1.684,1.684,0,0,0,289.777,605.4Z" transform="translate(-267.953 -590.287)" fill="#7fac27"/>
        <path id="Path_7493" data-name="Path 7493" d="M315.777,621.982c-.15.144-.593.573-.46,1a.969.969,0,0,0,1.224.468,1.338,1.338,0,0,0,.192-1.885C316.4,621.386,315.815,621.944,315.777,621.982Z" transform="translate(-298.203 -603.885)" fill="#7fac27"/>
        <path id="Path_7494" data-name="Path 7494" d="M323.231,595.5c.463-.054.9-1.1.629-1.936s-1.243-1.429-1.645-1.2c-.458.261-.116,1.551-.1,1.606C322.286,594.6,322.764,595.558,323.231,595.5Z" transform="translate(-306.647 -581.39)" fill="#7fac27"/>
        <path id="Path_7495" data-name="Path 7495" d="M301.53,637.37c.442.12,1.054-.526,1.162-1.186.065-.4-.023-.983-.345-1.11-.425-.168-1.241.472-1.313,1.223C300.993,636.724,301.183,637.276,301.53,637.37Z" transform="translate(-280.601 -614.298)" fill="#7fac27"/>
        <path id="Path_7496" data-name="Path 7496" d="M337.1,630.192c.247-.048.406-.508.358-.871-.009-.072-.085-.581-.437-.655a.639.639,0,0,0-.654.437C336.192,629.6,336.769,630.256,337.1,630.192Z" transform="translate(-323.468 -609.377)" fill="#7fac27"/>
      </g>
      <g id="Group_3445" data-name="Group 3445" transform="translate(16.242 110.906)">
        <path id="Path_7497" data-name="Path 7497" d="M448.677,533.273s-4.4,2.411-6.4,13.744a37.708,37.708,0,0,0,2.139,20.369s-14.242,4.221-6.432,5.863,24.095.416,28.383-2.647a139.5,139.5,0,0,1-2.756-14.8c-.766-6.738.851-14.23.715-15.519S453.853,532.7,448.677,533.273Z" transform="translate(-435.647 -533.237)" fill="#a4c53a"/>
        <path id="Path_7498" data-name="Path 7498" d="M516.757,543s-7.861,14.192-2.246,29.3C514.511,572.3,513.388,556.883,516.757,543Z" transform="translate(-503.697 -540.754)" fill="#a2b33a"/>
        <path id="Path_7499" data-name="Path 7499" d="M457.462,556.792s-6.279,10.861,0,27.707c0,0-17.149-11.432-7.121-29.44Z" transform="translate(-429.394 -550.043)" fill="#b6db3a"/>
        <path id="Path_7500" data-name="Path 7500" d="M488.34,685.561s-8.242,1.838-11.829-.919A57.668,57.668,0,0,1,488.34,685.561Z" transform="translate(-467.01 -649.829)" fill="#a2b33a"/>
        <path id="Path_7501" data-name="Path 7501" d="M514.251,593.067c.744-.114,1.026-1.663,1.072-1.914.032-.176.338-1.856-.345-2.221-.652-.348-2.194.511-2.387,1.768C512.406,591.913,513.525,593.178,514.251,593.067Z" transform="translate(-502.378 -576.07)" fill="#7fac27"/>
        <path id="Path_7502" data-name="Path 7502" d="M510.151,617.364c.335-.17.293-.817.2-1.164-.142-.538-.605-1.12-.943-1.045-.384.086-.671,1.04-.3,1.66C509.327,617.194,509.837,617.523,510.151,617.364Z" transform="translate(-496.54 -596.32)" fill="#7fac27"/>
        <path id="Path_7503" data-name="Path 7503" d="M528.228,625.9c.389.146,1.075-.782,1.378-1.34.164-.3.6-1.1.316-1.4-.263-.284-1.1-.072-1.555.407C527.653,624.312,527.81,625.74,528.228,625.9Z" transform="translate(-520.49 -602.391)" fill="#7fac27"/>
        <path id="Path_7504" data-name="Path 7504" d="M494.256,637.142c-.111-.3-.8-.3-1.164-.242-.552.084-1.252.42-1.225.727.03.338.942.7,1.636.425C493.942,637.878,494.358,637.42,494.256,637.142Z" transform="translate(-476.471 -613.05)" fill="#7fac27"/>
        <path id="Path_7505" data-name="Path 7505" d="M498.624,605.843c.2.067.535-.249.652-.593.189-.556-.184-1.243-.424-1.234s-.369.692-.383.766C498.4,605.145,498.389,605.763,498.624,605.843Z" transform="translate(-483.035 -587.747)" fill="#7fac27"/>
        <path id="Path_7506" data-name="Path 7506" d="M475.01,694.241s-5.717,3.267-20.93,2.552C454.08,696.793,470.518,694.292,475.01,694.241Z" transform="translate(-448.524 -657.233)" fill="#b6db3a"/>
      </g>
      <g id="Group_3446" data-name="Group 3446" transform="translate(22.875 49.835)">
        <path id="Path_7507" data-name="Path 7507" d="M289.81,338.517s26.749,2.042,32.467-23.278-2.859-45.536-25.524-47.494C274.608,265.831,262.6,277.717,260,299.72,257.825,318.1,260.121,335.25,289.81,338.517Z" transform="translate(-259.39 -267.545)" fill="#deeebb"/>
        <path id="Path_7508" data-name="Path 7508" d="M338.357,304.7s-33.121,53.295,34.11,54.52c0,0-30.324,15.007-44.872-8.27-2.3-3.676-4.748-14.4-1.225-25.882S338.357,304.7,338.357,304.7Z" transform="translate(-322.852 -296.158)" fill="#c4e2aa"/>
        <path id="Path_7509" data-name="Path 7509" d="M335.67,323.129c-6.113,3.565-14.837,5.97-24.77,5.519-9.189-.581-16.122-2.76-25.015-6.183a47.328,47.328,0,0,0,24.88,8.935C322.184,331.92,331.392,327.572,335.67,323.129Z" transform="translate(-277.156 -309.841)" fill="#92a16f"/>
        <path id="Path_7510" data-name="Path 7510" d="M324.734,377.723c-7.774,5.871-18.418,9.714-28.528,9.351-10.5-.281-19.712-4.18-28.9-9.351,7.67,6.911,18.019,11.832,28.834,12.106C307.915,390.176,319.128,384.5,324.734,377.723Z" transform="translate(-261.949 -352.398)" fill="#92a16f"/>
        <path id="Path_7511" data-name="Path 7511" d="M329.351,447.234c-7.4,6.462-17.821,11.093-27.952,10.657-10.443-.352-19.6-5.321-28.1-11.27,7.1,7.763,17.221,13.677,28.006,14.024C312.766,461.136,324.077,454.635,329.351,447.234Z" transform="translate(-267.945 -405.459)" fill="#92a16f"/>
        <path id="Path_7512" data-name="Path 7512" d="M343.42,503.056a44.318,44.318,0,0,1-11.88,6.286,34.444,34.444,0,0,1-12.93,1.913,37.694,37.694,0,0,1-12.778-2.964,70.775,70.775,0,0,1-11.878-6.485,39.991,39.991,0,0,0,10.963,8.45,31.9,31.9,0,0,0,13.569,3.752,31.126,31.126,0,0,0,24.934-10.953Z" transform="translate(-286.761 -447.959)" fill="#92a16f"/>
        <path id="Path_7513" data-name="Path 7513" d="M457.73,371.163c-.221.824.943,1.851,2.6,2.295s3.178.135,3.4-.689-.943-1.851-2.6-2.295S457.951,370.339,457.73,371.163Z" transform="translate(-444.734 -346.659)" fill="#f2f8e4"/>
        <path id="Path_7514" data-name="Path 7514" d="M351.635,395.458c.2.706,1.491.962,2.89.571s2.373-1.28,2.175-1.987-1.491-.962-2.89-.571S351.437,394.752,351.635,395.458Z" transform="translate(-313.318 -364.385)" fill="#f2f8e4"/>
        <path id="Path_7515" data-name="Path 7515" d="M337.706,332.841a1.5,1.5,0,1,0,1.093-1.466A1.315,1.315,0,0,0,337.706,332.841Z" transform="translate(-293.917 -316.651)" fill="#f2f8e4"/>
        <path id="Path_7516" data-name="Path 7516" d="M406.81,470.662c-.208.777,1.1,1.8,2.918,2.29s3.464.252,3.672-.525-1.1-1.8-2.918-2.29S407.018,469.884,406.81,470.662Z" transform="translate(-382.698 -423.374)" fill="#f2f8e4"/>
        <path id="Path_7517" data-name="Path 7517" d="M487.052,409.341a1.718,1.718,0,1,0,2.057-.5A1.519,1.519,0,0,0,487.052,409.341Z" transform="translate(-477.885 -376.222)" fill="#f2f8e4"/>
        <path id="Path_7518" data-name="Path 7518" d="M299.067,494.005c.367.635,1.683.561,2.941-.165s1.98-1.83,1.613-2.465-1.683-.561-2.941.165S298.7,493.37,299.067,494.005Z" transform="translate(-248.212 -439.594)" fill="#f2f8e4"/>
        <path id="Path_7519" data-name="Path 7519" d="M486.491,529.966c-.185.589.317,1.271,1.122,1.524a1.372,1.372,0,0,0,1.792-.608c.185-.589-.317-1.271-1.122-1.524A1.372,1.372,0,0,0,486.491,529.966Z" transform="translate(-477.032 -469.106)" fill="#f2f8e4"/>
        <path id="Path_7520" data-name="Path 7520" d="M431.281,280.177a.876.876,0,0,0,1.2.122c.468-.27.689-.762.494-1.1a.876.876,0,0,0-1.2-.122C431.308,279.347,431.087,279.839,431.281,280.177Z" transform="translate(-407.936 -276.294)" fill="#f2f8e4"/>
      </g>
      <path id="Path_7521" data-name="Path 7521" d="M356.907,286.18s-12.686-7.657-25.754-1.429C331.153,284.75,345.574,293.02,356.907,286.18Z" transform="translate(-285.924 -229.081)" fill="#592614"/>
      <path id="Path_7522" data-name="Path 7522" d="M288.116,109.38s.428-15.64,6.9-23.087c3.063-3.522,11.173-4.693,12.845-13.936.887-4.9-2.585-7.657-3.657-9.036s-6.279-12.252-16.846-12.558-21.44,1.991-26.341,11.639-1.225,15.009,5.36,24.35,2.414,21.157,2.414,21.157S276.784,117.254,288.116,109.38Z" transform="translate(-220.387 -50.737)" fill="#a4c53a"/>
      <path id="Path_7523" data-name="Path 7523" d="M314.041,113.947c2.172,1.324,4.29,9.1-7.945,16.888-3.334,2.121-9.642,9.8-7.864,27.095,0,0-10.12,7.329-16.246-.766,0,0,4.764-15.322,1.453-23.576a18.871,18.871,0,0,0-4.293-6.275c-2.445-2.3-7.991-10.073.771-13.232,3.905-1.408,11.594,7.206,17.491,6.092C306.365,118.479,306.426,109.306,314.041,113.947Z" transform="translate(-231.855 -98.419)" fill="#c8dc89"/>
      <g id="Group_3447" data-name="Group 3447" transform="translate(74.241 54.443)">
        <path id="Path_7524" data-name="Path 7524" d="M147.714,287.643s15.672-2.206,32.525,22.847c2.983,4.434,7.823,17.793,5.971,29.326,0,0-1.35-11.945-14.59-18.432S150.96,302.848,147.714,287.643Z" transform="translate(-147.714 -287.594)" fill="#a4c53a"/>
        <path id="Path_7525" data-name="Path 7525" d="M193.73,337.616a34.483,34.483,0,0,0-16.238-18.729c-12.7-6.767-17.454-20.858-17.454-20.858s3.423,16.621,15.456,25S188.874,329.783,193.73,337.616Z" transform="translate(-157.655 -295.63)" fill="#a2b33a"/>
        <path id="Path_7526" data-name="Path 7526" d="M193.9,336.526s-4.864-11.739-19.541-21.116C174.356,315.41,186.217,325.843,193.9,336.526Z" transform="translate(-161.114 -309.016)" fill="#b6db3a"/>
        <path id="Path_7527" data-name="Path 7527" d="M165.882,415.842c.128.753.6,2.094,1.347,2.126.72.031,1.493-1.158,1.458-2.222-.048-1.406-1.51-2.647-2.23-2.393C165.823,413.577,165.734,414.971,165.882,415.842Z" transform="translate(-133.941 -384.421)" fill="#7fac27"/>
        <path id="Path_7528" data-name="Path 7528" d="M192.418,368.515a.817.817,0,1,0,.534-.812A.9.9,0,0,0,192.418,368.515Z" transform="translate(-165.417 -349.269)" fill="#7fac27"/>
        <path id="Path_7529" data-name="Path 7529" d="M229.749,355.99c.077.217.7.176,1.012.156.341-.022.847-.055.9-.253.054-.222-.458-.674-.99-.646S229.673,355.773,229.749,355.99Z" transform="translate(-211.609 -339.696)" fill="#7fac27"/>
        <path id="Path_7530" data-name="Path 7530" d="M293.394,299.535a.875.875,0,0,0,.4,1.171c.328.074.682-.317.821-.639.111-.256.2-.723-.046-.928A.875.875,0,0,0,293.394,299.535Z" transform="translate(-289.28 -296.404)" fill="#7fac27"/>
        <path id="Path_7531" data-name="Path 7531" d="M266.368,350.442c.973.482,2.378.219,2.618-.454.231-.645-.648-1.558-1.443-1.947s-2.03-.527-2.4.044C264.752,348.684,265.395,349.96,266.368,350.442Z" transform="translate(-257.081 -333.887)" fill="#7fac27"/>
        <path id="Path_7532" data-name="Path 7532" d="M187.294,403.076a.966.966,0,1,0-.865-1.288A1.022,1.022,0,0,0,187.294,403.076Z" transform="translate(-158.164 -375.038)" fill="#7fac27"/>
        <path id="Path_7533" data-name="Path 7533" d="M207.46,409.79c-.057.318.928.954,1.923.9s1.911-.787,1.821-1.093c-.078-.267-.921-.234-1.766-.2C208.637,409.428,207.518,409.47,207.46,409.79Z" transform="translate(-186.035 -381.384)" fill="#7fac27"/>
      </g>
      <path id="Path_7534" data-name="Path 7534" d="M352.947,201.759a13.507,13.507,0,0,1-14.02,0S346.668,210.565,352.947,201.759Z" transform="translate(-283.75 -167.046)" fill="#b6d170"/>
      <path id="Path_7535" data-name="Path 7535" d="M433.881,134.1s-.488-4.269-6.217-10.248-1.824-17.594-1.824-17.594-2.148,11.631,4.135,18.138A13.731,13.731,0,0,1,433.881,134.1Z" transform="translate(-384.364 -93.495)" fill="#a2b33a"/>
      <path id="Path_7536" data-name="Path 7536" d="M269.817,110.6a7.9,7.9,0,0,0-6.011-5.98S265.644,104.627,269.817,110.6Z" transform="translate(-183.353 -92.235)" fill="#b6db3a"/>
      <path id="Path_7537" data-name="Path 7537" d="M315.86,61.433c.118.1-4.086-12.518-25.914-7.656C289.946,53.777,305.216,52.242,315.86,61.433Z" transform="translate(-235.407 -52.219)" fill="#b6db3a"/>
      <path id="Path_7538" data-name="Path 7538" d="M311.6,82.887c.587,1.137,2.016,2.485,3.23,2.143,1.255-.354,1.742-2.363,1.593-3.71-.243-2.18-2.333-4.235-3.669-3.876C311.373,77.815,310.537,80.831,311.6,82.887Z" transform="translate(-240.86 -71.274)" fill="#313a18"/>
      <path id="Path_7539" data-name="Path 7539" d="M384.768,86.852c.22,1.181,1.114,2.9,2.508,2.956,1.25.055,2.251-1.25,2.615-2.248.865-2.375-.937-5.606-2.5-5.615C385.967,81.935,384.345,84.583,384.768,86.852Z" transform="translate(-331.44 -74.771)" fill="#313a18"/>
      <path id="Path_7540" data-name="Path 7540" d="M317.8,84.366c-.024.142-.19,1.067-.642,1.151-.554.1-1.361-1.093-1.557-2.246-.148-.875-.013-2.13.459-2.246C316.693,80.869,318.077,82.71,317.8,84.366Z" transform="translate(-243.266 -74.056)" fill="#dfd1cc"/>
      <path id="Path_7541" data-name="Path 7541" d="M391.1,88.976c-.039.139-.305,1.04-.763,1.074-.562.041-1.234-1.234-1.3-2.4-.052-.886.219-2.119.7-2.183C390.383,85.38,391.559,87.36,391.1,88.976Z" transform="translate(-333.527 -77.481)" fill="#dfd1cc"/>
      <path id="Path_7542" data-name="Path 7542" d="M325.945,106.256a19.083,19.083,0,0,0-4.027,2.234,17.4,17.4,0,0,0-1.806,1.488c-.573.539-1.076,1.071-1.616,1.5-.269.223-.553.42-.851.623s-.6.4-.906.578a12.034,12.034,0,0,1-1.884.907,9.76,9.76,0,0,1-4.014.639,12.336,12.336,0,0,1-4.043-.974,15.51,15.51,0,0,1-1.933-.886c-.6-.334-1.19-.771-1.856-1.2a17.982,17.982,0,0,0-8.794-2.782,26.093,26.093,0,0,1,7.849,4.1c.565.448,1.148.971,1.842,1.427a14.619,14.619,0,0,0,2.122,1.139,15.661,15.661,0,0,0,2.264.837,12.01,12.01,0,0,0,2.444.4,10.95,10.95,0,0,0,2.488-.163,11.389,11.389,0,0,0,2.369-.727,12.116,12.116,0,0,0,2.131-1.191c.331-.23.653-.472.955-.719s.619-.52.907-.81A21,21,0,0,0,321.1,110.9c.462-.571.952-1.113,1.474-1.644A35.155,35.155,0,0,1,325.945,106.256Z" transform="translate(-246.471 -93.495)" fill="#313a18"/>
      <path id="Path_7543" data-name="Path 7543" d="M344.43,107.755a7.961,7.961,0,0,0-2.449-1.247,8.552,8.552,0,0,0-2.758-.406c-.235.016-.47.021-.7.05l-.7.12a6.922,6.922,0,0,0-.677.2l-.335.109-.318.154a6.253,6.253,0,0,0-2.185,1.68,11.035,11.035,0,0,1,2.386-1.181,8.245,8.245,0,0,1,2.548-.443,11.858,11.858,0,0,1,2.605.237A18.357,18.357,0,0,1,344.43,107.755Z" transform="translate(-274.172 -93.375)" fill="#a2b33a"/>
      <path id="Path_7544" data-name="Path 7544" d="M344.729,115.658a1.612,1.612,0,0,0,0,1.238c.074.224.19.576.41.6.2.025.374-.227.522-.438a1.634,1.634,0,0,0,.383-1.161c-.037-.291-.21-.835-.563-.882C345.073,114.965,344.749,115.617,344.729,115.658Z" transform="translate(-278.162 -100.24)" fill="#313a18"/>
      <path id="Path_7545" data-name="Path 7545" d="M357.728,117.319a1.61,1.61,0,0,0,.547,1.111c.165.169.425.433.634.36.189-.066.236-.369.275-.623a1.633,1.633,0,0,0-.169-1.211c-.162-.245-.557-.657-.894-.542C357.73,116.546,357.728,117.274,357.728,117.319Z" transform="translate(-294.352 -101.303)" fill="#313a18"/>
      <path id="Path_7546" data-name="Path 7546" d="M387.782,105.735s-5.336.757-7.4-1.115C380.382,104.62,383.032,111.18,387.782,105.735Z" transform="translate(-328.114 -92.235)" fill="#a4c53a"/>
      <path id="Path_7547" data-name="Path 7547" d="M311.879,98.1s-4.8,2.445-7.362,1.342C304.517,99.445,309.15,104.793,311.879,98.1Z" transform="translate(-234.773 -87.216)" fill="#a4c53a"/>
      <path id="Path_7548" data-name="Path 7548" d="M387.792,108.533a8.465,8.465,0,0,0-1.862-.847,11.786,11.786,0,0,0-1.993-.471,10.12,10.12,0,0,0-2.054-.088,6.7,6.7,0,0,0-2.01.422c.688.036,1.346.057,2,.115s1.309.136,1.962.232,1.3.2,1.96.309S387.113,108.434,387.792,108.533Z" transform="translate(-328.007 -94.153)" fill="#a2b33a"/>
      <path id="Path_7549" data-name="Path 7549" d="M310.893,100.171a8.467,8.467,0,0,0-2.042-.123,11.8,11.8,0,0,0-2.029.274,10.118,10.118,0,0,0-1.949.655,6.7,6.7,0,0,0-1.725,1.114c.655-.212,1.276-.429,1.912-.611s1.271-.342,1.915-.487,1.288-.284,1.941-.415S310.224,100.321,310.893,100.171Z" transform="translate(-233.472 -88.703)" fill="#a2b33a"/>
      <path id="Path_7550" data-name="Path 7550" d="M421.936,75.379c1.331-.456,2.031-2.345,1.281-2.637a3.684,3.684,0,0,0-2.534.908c-.211.168-.832.661-.795,1.133C419.937,75.4,421.092,75.668,421.936,75.379Z" transform="translate(-372.937 -67.65)" fill="#7fac27"/>
      <path id="Path_7551" data-name="Path 7551" d="M322.449,62.505c.314-.617-1.029-1.86-1.709-1.818-.464.029-.693.664-.561,1.2a1.275,1.275,0,0,0,.6.848A1.358,1.358,0,0,0,322.449,62.505Z" transform="translate(-248.982 -58.4)" fill="#7fac27"/>
      <path id="Path_7552" data-name="Path 7552" d="M340.085,56.742a2.371,2.371,0,0,0,.926-4.651,2.254,2.254,0,0,0-2.075,1.515A2.429,2.429,0,0,0,340.085,56.742Z" transform="translate(-273.666 -51.776)" fill="#7fac27"/>
      <path id="Path_7553" data-name="Path 7553" d="M364.306,58.436c.546-.473.143-1.678-.737-2.39s-2.149-.846-2.491-.223c-.274.5.129,1.317.639,1.842C362.451,58.42,363.748,58.919,364.306,58.436Z" transform="translate(-300.429 -54.346)" fill="#7fac27"/>
      <path id="Path_7554" data-name="Path 7554" d="M395.006,61.861c.552.147,1.149-.046,1.212-.363s-.423-.725-.98-.8a.914.914,0,0,0-.9.3C394.178,61.274,394.441,61.711,395.006,61.861Z" transform="translate(-339.752 -58.4)" fill="#7fac27"/>
      <path id="Path_7555" data-name="Path 7555" d="M377.953,77.1a.654.654,0,1,0-.82-.968.692.692,0,0,0-.132.775A.662.662,0,0,0,377.953,77.1Z" transform="translate(-317.826 -70.12)" fill="#7fac27"/>
    </g>
    <rect id="Mask-2" data-name="Mask" width="354" height="2" rx="1" transform="translate(29 652.418)" fill="#102646"/>
    <g id="Group_3234" data-name="Group 3234" transform="translate(4.012 -10.262)">
      <path id="Icon_ionic-ios-arrow-back" data-name="Icon ionic-ios-arrow-back" d="M15.217,17.7,23.926,9A1.645,1.645,0,1,0,21.6,6.674l-9.867,9.86a1.642,1.642,0,0,0-.048,2.268l9.908,9.929a1.645,1.645,0,0,0,2.33-2.323Z" transform="translate(362.579 30.069)" fill="#fff"/>
      <path id="Icon_ionic-ios-arrow-back-2" data-name="Icon ionic-ios-arrow-back" d="M3.967,11.506l8.709-8.7A1.645,1.645,0,1,0,10.346.481L.479,10.341a1.642,1.642,0,0,0-.048,2.268l9.908,9.929a1.645,1.645,0,1,0,2.33-2.323Z" transform="translate(377.472 59.28) rotate(180)" fill="#fff"/>
    </g>
  </g>
</svg>
