<svg xmlns="http://www.w3.org/2000/svg" xmlns:xlink="http://www.w3.org/1999/xlink" width="412" height="847" viewBox="0 0 412 847">
  <defs>
    <linearGradient id="linear-gradient" x1="0.5" x2="0.5" y2="1" gradientUnits="objectBoundingBox">
      <stop offset="0" stop-color="#37aadd"/>
      <stop offset="1" stop-color="#1f64cc"/>
    </linearGradient>
    <filter id="Cirlce_Background" x="-61.5" y="112.5" width="535" height="387" filterUnits="userSpaceOnUse">
      <feOffset dy="34" input="SourceAlpha"/>
      <feGaussianBlur stdDeviation="27.5" result="blur"/>
      <feFlood flood-color="#282828" flood-opacity="0.078"/>
      <feComposite operator="in" in2="blur"/>
      <feComposite in="SourceGraphic"/>
    </filter>
    <clipPath id="clip-Success_page_7">
      <rect width="412" height="847"/>
    </clipPath>
  </defs>
  <g id="Success_page_7" data-name="Success page – 7" clip-path="url(#clip-Success_page_7)">
    <rect width="412" height="847" fill="url(#linear-gradient)"/>
    <g id="Big_Card" data-name="Big Card" transform="translate(43 214)">
      <g transform="matrix(1, 0, 0, 1, -43, -214)" filter="url(#Cirlce_Background)">
        <rect id="Cirlce_Background-2" data-name="Cirlce Background" width="370" height="222" rx="16" transform="translate(21 161)" fill="#102646"/>
      </g>
      <g id="Group_3456" data-name="Group 3456" transform="translate(-8.725 -116)">
        <g id="Group_3449" data-name="Group 3449" transform="translate(9.668 36.585)">
          <path id="Path_7556" data-name="Path 7556" d="M374.479,251.44s-1.7-16.356-30.588-17.206S304.17,261,304.17,272.681s4.885,21.878,11.683,29.738a3.726,3.726,0,0,1-2.336,3.186c-2.337,1.062.85,7.647,7.009,6.372Z" transform="translate(-303.854 -226.929)" fill="#7c3314"/>
          <path id="Path_7557" data-name="Path 7557" d="M529.724,288.143a5.165,5.165,0,0,0,3.588.7s.182-.048.371-.1c3.03-.893,4.619-3.151,6.539-5.88,2.462-3.5,4.825-6.856,3.6-10.005-1.15-2.959-4.622-3.881-4.882-3.945-4.525-1.123-9.084,2.525-10.969,6.169a11.773,11.773,0,0,0-1.115,6.85C527.014,283.348,527.4,286.793,529.724,288.143Z" transform="translate(-526.753 -253.171)" fill="#964526"/>
          <path id="Path_7558" data-name="Path 7558" d="M531.533,380.585c.7,1.75,3.6,2,5.257,1.752.654-.1,3.13-.462,4.056-2.468,1.056-2.288-.427-5.587-2.622-6.135-1.855-.463-3.565,1.2-4.461,2.071C533.093,376.458,530.779,378.708,531.533,380.585Z" transform="translate(-524.898 -333.027)" fill="#964526"/>
          <path id="Path_7559" data-name="Path 7559" d="M404.594,217.206c.425.457,1.364,1.246,8.707,1.09,5.278-.112,7.95-.194,9.57-1.436,2.246-1.721,4.117-5.215,3.026-8.306-1.052-2.98-4.313-4.046-5.284-4.363-2.94-.96-5.454-.213-8.6.722-3.7,1.1-5.892,1.751-7.332,3.951C403.087,211.3,402.71,215.182,404.594,217.206Z" transform="translate(-379.302 -203.744)" fill="#964526"/>
          <path id="Path_7560" data-name="Path 7560" d="M499.319,318.334a3.61,3.61,0,0,0,3.269,1.95c2.181-.049,3.8-2.3,3.865-4.342.055-1.816-1.112-3.966-2.719-4.148-1.26-.142-2.284.982-2.882,1.639C500.388,313.943,498.321,316.213,499.319,318.334Z" transform="translate(-482.428 -285.949)" fill="#964526"/>
          <path id="Path_7561" data-name="Path 7561" d="M324.638,254.292c-.519,1.53,4.661,5.286,5.882,4.392.695-.509.02-2.459-.022-2.579a3.937,3.937,0,0,0-2.23-2.39C326.836,253.17,324.914,253.48,324.638,254.292Z" transform="translate(-265.093 -241.558)" fill="#964526"/>
          <path id="Path_7562" data-name="Path 7562" d="M558.067,452.93c1.118.816,3.707,2.165,5.51,1.16,2.437-1.357,2.39-6.428.3-9.53-1.062-1.58-3.538-3.964-5.744-3.209-2.419.828-2.735,4.824-2.767,5.229A7.281,7.281,0,0,0,558.067,452.93Z" transform="translate(-554.861 -384.428)" fill="#964526"/>
          <path id="Path_7563" data-name="Path 7563" d="M515.075,496.581s-.208,7.992-7.234,11.033c0,0,.467,5.752,9.388,4.159S515.075,496.581,515.075,496.581Z" transform="translate(-498.779 -426.561)" fill="#965626"/>
          <path id="Path_7564" data-name="Path 7564" d="M559.505,285.021a3.61,3.61,0,0,0,3.269,1.95c2.181-.049,3.8-2.3,3.865-4.342.055-1.816-1.112-3.966-2.719-4.148-1.26-.143-2.284.983-2.882,1.639C560.574,280.63,558.507,282.9,559.505,285.021Z" transform="translate(-557.005 -260.602)" fill="#aa623d"/>
          <path id="Path_7565" data-name="Path 7565" d="M403.783,211.763c-1.488.386-4.358,1.508-4.288,3.1.094,2.157,5.516,4.252,9.973,4.193,2.27-.03,6.18-.643,6.6-2.4.459-1.923-3.617-3.8-4.031-3.994A13.17,13.17,0,0,0,403.783,211.763Z" transform="translate(-368.27 -209.595)" fill="#aa623d"/>
          <path id="Path_7566" data-name="Path 7566" d="M545.945,378.54c-.728-.441-2.315.313-3.145.887-.327.226-1.567,1.083-1.652,2.093-.1,1.152,1.36,1.937,2.635,1.5a3.866,3.866,0,0,0,1.947-2.065C545.954,380.517,546.725,379.012,545.945,378.54Z" transform="translate(-532.324 -336.644)" fill="#aa623d"/>
          <path id="Path_7567" data-name="Path 7567" d="M565.407,453.073c.781.657,1.575.832,1.947.513.621-.533-.028-2.363-1.034-3.7-.9-1.189-2.32-2.313-2.887-2.062-.445.2-.183,1.16-.031,1.723A7.28,7.28,0,0,0,565.407,453.073Z" transform="translate(-558.906 -389.436)" fill="#aa623d"/>
          <path id="Path_7568" data-name="Path 7568" d="M328.923,257.232c-.4.612,3.589,2.115,4.529,1.757.535-.2.016-.984-.017-1.032a2.519,2.519,0,0,0-1.717-.956C330.615,256.784,329.135,256.908,328.923,257.232Z" transform="translate(-268.979 -244.184)" fill="#aa623d"/>
          <path id="Path_7569" data-name="Path 7569" d="M522.492,526.543s-2.882,1.234-5.024-2.866C517.468,523.677,517.7,528.443,522.492,526.543Z" transform="translate(-502.869 -447.178)" fill="#613314"/>
          <path id="Path_7570" data-name="Path 7570" d="M530.492,466.172a100.7,100.7,0,0,0,2.708-14.9S537.023,458.684,530.492,466.172Z" transform="translate(-517.803 -392.089)" fill="#612214"/>
        </g>
        <g id="Group_3450" data-name="Group 3450" transform="translate(48.422 122.473)">
          <path id="Path_7571" data-name="Path 7571" d="M414.657,565.9a8.974,8.974,0,0,1-7.165,6.836,14.169,14.169,0,0,0,2.628-9.539S414.223,561.722,414.657,565.9Z" transform="translate(-407.492 -562.944)" fill="#a4c53a"/>
          <path id="Path_7572" data-name="Path 7572" d="M421.976,573.33a6.562,6.562,0,0,1-2.694,5.777A54.044,54.044,0,0,0,421.976,573.33Z" transform="translate(-417.651 -570.847)" fill="#a2b33a"/>
        </g>
        <g id="Group_3451" data-name="Group 3451" transform="translate(0 3.32)">
          <path id="Path_7573" data-name="Path 7573" d="M511.2,117.349s-17.95-4.3-22.836-17.681-4.673-35.048-4.673-35.048S470.73,80.339,470.73,96.694s17.677,28.4,36.771,23.227C507.5,119.921,511.25,120.056,511.2,117.349Z" transform="translate(-470.73 -64.62)" fill="#a4c53a"/>
          <path id="Path_7574" data-name="Path 7574" d="M543.507,176.723s-29.579-10.2-23.1-35.261C520.406,141.462,504.369,174.917,543.507,176.723Z" transform="translate(-514.14 -123.088)" fill="#a2b33a"/>
          <path id="Path_7575" data-name="Path 7575" d="M563.871,121.983s-9.792-.85-9.159-40.04C554.711,81.943,544.18,116.925,563.871,121.983Z" transform="translate(-542.812 -77.801)" fill="#b6db3a"/>
          <path id="Path_7576" data-name="Path 7576" d="M597.012,124.759a1.626,1.626,0,0,0,.635-3.189,1.549,1.549,0,0,0-1.431,1.037A1.664,1.664,0,0,0,597.012,124.759Z" transform="translate(-588.463 -107.951)" fill="#7fac27"/>
          <path id="Path_7577" data-name="Path 7577" d="M607.885,151.643c1.122-.061,2-1.9,1.593-2.443-.308-.41-1.458-.225-2.135.362-.089.078-.855.743-.627,1.4A1.2,1.2,0,0,0,607.885,151.643Z" transform="translate(-601.618 -128.809)" fill="#7fac27"/>
          <path id="Path_7578" data-name="Path 7578" d="M582.769,161.619c.444.281,1.173.448,1.455.132.357-.4-.21-1.344-.266-1.437-.521-.866-1.621-1.566-2.016-1.285C581.5,159.342,581.776,160.99,582.769,161.619Z" transform="translate(-570.419 -136.407)" fill="#7fac27"/>
          <path id="Path_7579" data-name="Path 7579" d="M598.472,175.259c1.188-.889.535-3.817-.561-4.134-.75-.217-1.826.752-2.231,1.752a2.11,2.11,0,0,0-.042,1.815A2.144,2.144,0,0,0,598.472,175.259Z" transform="translate(-588.458 -145.635)" fill="#7fac27"/>
          <path id="Path_7580" data-name="Path 7580" d="M590.836,231.483c.681.008,1.508-.284,1.529-.638s-.8-.7-1.337-.825c-.924-.21-2.1-.024-2.177.372S589.82,231.471,590.836,231.483Z" transform="translate(-580.141 -190.405)" fill="#7fac27"/>
          <path id="Path_7581" data-name="Path 7581" d="M537.624,254.265c.419.2,1.1.344,1.272.085s-.193-.82-.6-1.127c-.615-.468-1.581-.517-1.737-.214S536.995,253.969,537.624,254.265Z" transform="translate(-514.206 -207.818)" fill="#7fac27"/>
          <path id="Path_7582" data-name="Path 7582" d="M597.012,124.759a1.626,1.626,0,0,0,.635-3.189,1.549,1.549,0,0,0-1.431,1.037A1.664,1.664,0,0,0,597.012,124.759Z" transform="translate(-588.463 -107.951)" fill="#89b633"/>
        </g>
        <g id="Group_3452" data-name="Group 3452" transform="translate(58.042 118.129)">
          <path id="Path_7583" data-name="Path 7583" d="M283.785,546.688s6.842,5.862,5.726,17.173-5.116,15.453-5.116,15.453,7.294.515,10.28,3.24c2.784,2.541-12.511,2.893-19.521,2.575a37.876,37.876,0,0,1-12.265-2.628c2.638-4.249,6.8-10.277,5.257-21.507a77.662,77.662,0,0,0-2.549-9.4C267.179,550.508,271.06,549.436,283.785,546.688Z" transform="translate(-262.888 -546.231)" fill="#a4c53a"/>
          <path id="Path_7584" data-name="Path 7584" d="M352.324,583.418s5.2,12.745-1.062,21.879C351.261,605.3,363.9,597.968,352.324,583.418Z" transform="translate(-346.217 -574.178)" fill="#a2b33a"/>
          <path id="Path_7585" data-name="Path 7585" d="M300.693,544.775s11.347,11.364,1.364,31.119c0,0,2.559-23.348-7.965-27.451Z" transform="translate(-281.506 -544.775)" fill="#b6db3a"/>
          <path id="Path_7586" data-name="Path 7586" d="M274.01,686.135s13.78,2.549,1.991,3.584C276,689.719,280.223,688.286,274.01,686.135Z" transform="translate(-251.308 -652.335)" fill="#b6db3a"/>
          <path id="Path_7587" data-name="Path 7587" d="M319.327,684.691s-.686,1.912-10.033,1.912A38.439,38.439,0,0,1,319.327,684.691Z" transform="translate(-298.302 -651.236)" fill="#a2b33a"/>
          <path id="Path_7588" data-name="Path 7588" d="M289.777,605.459a1.366,1.366,0,0,0,.916,1.243c1.014.268,2.33-1.235,2.032-2.12-.178-.528-.878-.677-.923-.686A1.752,1.752,0,0,0,289.777,605.459Z" transform="translate(-267.075 -589.74)" fill="#7fac27"/>
          <path id="Path_7589" data-name="Path 7589" d="M315.8,622c-.156.15-.617.6-.478,1.035a1.008,1.008,0,0,0,1.273.487,1.392,1.392,0,0,0,.2-1.961C316.449,621.38,315.837,621.961,315.8,622Z" transform="translate(-297.515 -603.175)" fill="#7fac27"/>
          <path id="Path_7590" data-name="Path 7590" d="M323.282,595.632c.482-.056.934-1.147.654-2.014s-1.293-1.486-1.711-1.248c-.476.271-.121,1.613-.105,1.671C322.3,594.694,322.8,595.688,323.282,595.632Z" transform="translate(-306.03 -580.95)" fill="#7fac27"/>
          <path id="Path_7591" data-name="Path 7591" d="M301.55,637.464c.46.125,1.1-.548,1.209-1.233.068-.415-.024-1.023-.358-1.155-.443-.175-1.291.491-1.366,1.273C300.992,636.791,301.189,637.366,301.55,637.464Z" transform="translate(-279.778 -613.462)" fill="#7fac27"/>
          <path id="Path_7592" data-name="Path 7592" d="M337.129,630.254c.257-.049.422-.528.373-.906-.01-.075-.088-.6-.455-.681a.665.665,0,0,0-.681.455C336.186,629.637,336.787,630.32,337.129,630.254Z" transform="translate(-322.951 -608.601)" fill="#7fac27"/>
        </g>
        <g id="Group_3453" data-name="Group 3453" transform="translate(16.895 115.37)">
          <path id="Path_7593" data-name="Path 7593" d="M449.2,533.275s-4.578,2.508-6.654,14.3a39.225,39.225,0,0,0,2.225,21.188s-14.816,4.391-6.691,6.1,25.065.433,29.525-2.753a145.1,145.1,0,0,1-2.867-15.4c-.8-7.01.885-14.8.743-16.143S454.585,532.678,449.2,533.275Z" transform="translate(-435.647 -533.237)" fill="#a4c53a"/>
          <path id="Path_7594" data-name="Path 7594" d="M516.929,543s-8.178,14.763-2.337,30.482C514.593,573.48,513.424,557.442,516.929,543Z" transform="translate(-503.343 -540.664)" fill="#a2b33a"/>
          <path id="Path_7595" data-name="Path 7595" d="M457.876,556.862s-6.532,11.3,0,28.822c0,0-17.839-11.892-7.408-30.624Z" transform="translate(-428.677 -549.841)" fill="#b6db3a"/>
          <path id="Path_7596" data-name="Path 7596" d="M488.816,685.6s-8.573,1.912-12.305-.956A59.99,59.99,0,0,1,488.816,685.6Z" transform="translate(-466.627 -648.429)" fill="#a2b33a"/>
          <path id="Path_7597" data-name="Path 7597" d="M514.319,593.237c.773-.118,1.067-1.73,1.115-1.991.033-.183.352-1.931-.358-2.31-.678-.362-2.282.531-2.483,1.839C512.4,592.036,513.564,593.352,514.319,593.237Z" transform="translate(-501.968 -575.556)" fill="#7fac27"/>
          <path id="Path_7598" data-name="Path 7598" d="M510.2,617.454c.348-.177.3-.85.209-1.211-.148-.56-.63-1.166-.981-1.087-.4.09-.7,1.081-.317,1.727C509.343,617.277,509.873,617.619,510.2,617.454Z" transform="translate(-496.041 -595.562)" fill="#7fac27"/>
          <path id="Path_7599" data-name="Path 7599" d="M528.242,626.012c.4.151,1.119-.814,1.434-1.394.171-.313.619-1.139.328-1.454-.273-.3-1.14-.075-1.618.423C527.644,624.363,527.807,625.849,528.242,626.012Z" transform="translate(-520.192 -601.56)" fill="#7fac27"/>
          <path id="Path_7600" data-name="Path 7600" d="M494.352,637.153c-.115-.314-.833-.309-1.211-.252-.574.087-1.3.437-1.275.757.031.352.98.73,1.7.442C494.025,637.918,494.459,637.442,494.352,637.153Z" transform="translate(-475.851 -612.091)" fill="#7fac27"/>
          <path id="Path_7601" data-name="Path 7601" d="M498.632,605.917c.2.07.557-.259.678-.617.2-.579-.192-1.293-.441-1.284s-.384.72-.4.8C498.4,605.191,498.388,605.833,498.632,605.917Z" transform="translate(-482.415 -587.093)" fill="#7fac27"/>
          <path id="Path_7602" data-name="Path 7602" d="M475.852,694.241s-5.948,3.4-21.772,2.655C454.08,696.9,471.18,694.294,475.852,694.241Z" transform="translate(-448.3 -655.743)" fill="#b6db3a"/>
        </g>
        <g id="Group_3454" data-name="Group 3454" transform="translate(23.795 51.841)">
          <path id="Path_7603" data-name="Path 7603" d="M291.035,341.373s27.826,2.124,33.774-24.215-2.974-47.368-26.552-49.405c-23.036-1.991-35.529,10.374-38.235,33.262C257.762,320.133,260.15,337.975,291.035,341.373Z" transform="translate(-259.39 -267.545)" fill="#deeebb"/>
          <path id="Path_7604" data-name="Path 7604" d="M338.911,304.7s-34.454,55.44,35.483,56.714c0,0-31.544,15.611-46.678-8.6-2.39-3.824-4.939-14.975-1.274-26.923S338.911,304.7,338.911,304.7Z" transform="translate(-322.782 -295.814)" fill="#c4e2aa"/>
          <path id="Path_7605" data-name="Path 7605" d="M337.674,323.156c-6.359,3.709-15.435,6.21-25.767,5.741-9.559-.6-16.771-2.871-26.022-6.432a49.234,49.234,0,0,0,25.881,9.295C323.645,332.3,333.224,327.777,337.674,323.156Z" transform="translate(-276.805 -309.333)" fill="#92a16f"/>
          <path id="Path_7606" data-name="Path 7606" d="M327.046,377.723c-8.087,6.108-19.159,10.105-29.676,9.727-10.919-.293-20.506-4.348-30.065-9.727,7.979,7.189,18.744,12.308,29.995,12.593C309.55,390.678,321.214,384.769,327.046,377.723Z" transform="translate(-261.733 -351.378)" fill="#92a16f"/>
          <path id="Path_7607" data-name="Path 7607" d="M331.608,447.258c-7.7,6.722-18.538,11.539-29.077,11.086-10.863-.366-20.384-5.536-29.231-11.723,7.383,8.075,17.914,14.227,29.134,14.589C314.355,461.72,326.121,454.957,331.608,447.258Z" transform="translate(-267.729 -403.802)" fill="#92a16f"/>
          <path id="Path_7608" data-name="Path 7608" d="M345.411,503.106a46.1,46.1,0,0,1-12.359,6.539,35.831,35.831,0,0,1-13.451,1.99,39.214,39.214,0,0,1-13.292-3.084,73.631,73.631,0,0,1-12.356-6.746,41.6,41.6,0,0,0,11.4,8.79,33.179,33.179,0,0,0,14.115,3.9,32.379,32.379,0,0,0,25.938-11.394Z" transform="translate(-286.471 -445.792)" fill="#92a16f"/>
          <path id="Path_7609" data-name="Path 7609" d="M457.731,371.2c-.23.857.981,1.926,2.7,2.387s3.306.141,3.535-.716-.981-1.926-2.7-2.387S457.961,370.342,457.731,371.2Z" transform="translate(-444.212 -345.709)" fill="#f2f8e4"/>
          <path id="Path_7610" data-name="Path 7610" d="M351.636,395.545c.205.735,1.551,1,3.006.594s2.468-1.332,2.263-2.067-1.551-1-3.006-.594S351.43,394.811,351.636,395.545Z" transform="translate(-311.777 -363.222)" fill="#f2f8e4"/>
          <path id="Path_7611" data-name="Path 7611" d="M337.708,332.9a1.557,1.557,0,1,0,1.137-1.525A1.368,1.368,0,0,0,337.708,332.9Z" transform="translate(-292.156 -316.061)" fill="#f2f8e4"/>
          <path id="Path_7612" data-name="Path 7612" d="M406.811,470.693c-.217.809,1.142,1.875,3.035,2.382s3.6.263,3.82-.546-1.142-1.875-3.035-2.382S407.027,469.884,406.811,470.693Z" transform="translate(-381.728 -421.502)" fill="#f2f8e4"/>
          <path id="Path_7613" data-name="Path 7613" d="M487.056,409.368a1.787,1.787,0,1,0,2.139-.517A1.58,1.58,0,0,0,487.056,409.368Z" transform="translate(-477.519 -374.916)" fill="#f2f8e4"/>
          <path id="Path_7614" data-name="Path 7614" d="M299.071,494.128c.382.66,1.751.584,3.06-.172s2.06-1.9,1.678-2.564-1.751-.584-3.06.172S298.69,493.468,299.071,494.128Z" transform="translate(-246.168 -437.527)" fill="#f2f8e4"/>
          <path id="Path_7615" data-name="Path 7615" d="M486.492,529.994c-.193.613.33,1.322,1.168,1.586a1.427,1.427,0,0,0,1.865-.632c.192-.612-.33-1.322-1.168-1.586A1.427,1.427,0,0,0,486.492,529.994Z" transform="translate(-476.653 -466.684)" fill="#f2f8e4"/>
          <path id="Path_7616" data-name="Path 7616" d="M431.284,280.228a.911.911,0,0,0,1.248.126c.487-.281.717-.793.514-1.144a.911.911,0,0,0-1.248-.127C431.312,279.365,431.082,279.877,431.284,280.228Z" transform="translate(-406.999 -276.189)" fill="#f2f8e4"/>
        </g>
        <path id="Path_7617" data-name="Path 7617" d="M357.944,286.335s-13.2-7.966-26.791-1.487C331.153,284.848,346.155,293.451,357.944,286.335Z" transform="translate(-284.103 -226.939)" fill="#592614"/>
        <path id="Path_7618" data-name="Path 7618" d="M289.3,111.74s.445-16.269,7.182-24.016c3.186-3.664,11.623-4.882,13.362-14.5.922-5.1-2.689-7.966-3.8-9.4s-6.532-12.745-17.524-13.063-22.3,2.071-27.4,12.107-1.275,15.613,5.576,25.33S269.2,110.21,269.2,110.21,277.509,119.931,289.3,111.74Z" transform="translate(-218.842 -50.737)" fill="#a4c53a"/>
        <path id="Path_7619" data-name="Path 7619" d="M315.606,114c2.26,1.377,4.463,9.469-8.265,17.568-3.468,2.206-10.03,10.2-8.18,28.185,0,0-10.527,7.624-16.9-.8,0,0,4.956-15.939,1.512-24.524a19.63,19.63,0,0,0-4.466-6.528c-2.544-2.39-8.313-10.478.8-13.765,4.063-1.465,12.061,7.5,18.195,6.337C307.622,118.714,307.685,109.172,315.606,114Z" transform="translate(-230.112 -97.846)" fill="#c8dc89"/>
        <g id="Group_3455" data-name="Group 3455" transform="translate(77.23 56.635)">
          <path id="Path_7620" data-name="Path 7620" d="M147.714,287.645s16.3-2.294,33.835,23.767c3.1,4.613,8.138,18.509,6.212,30.506,0,0-1.4-12.426-15.177-19.173S151.091,303.462,147.714,287.645Z" transform="translate(-147.714 -287.594)" fill="#a4c53a"/>
          <path id="Path_7621" data-name="Path 7621" d="M195.086,339.21a35.871,35.871,0,0,0-16.892-19.483c-13.206-7.039-18.156-21.7-18.156-21.7s3.561,17.289,16.078,26S190.035,331.061,195.086,339.21Z" transform="translate(-157.559 -295.534)" fill="#a2b33a"/>
          <path id="Path_7622" data-name="Path 7622" d="M194.684,337.376s-5.06-12.211-20.328-21.966C174.356,315.41,186.694,326.263,194.684,337.376Z" transform="translate(-160.581 -308.759)" fill="#b6db3a"/>
          <path id="Path_7623" data-name="Path 7623" d="M165.884,415.943c.133.784.622,2.178,1.4,2.212.749.032,1.553-1.2,1.516-2.311-.049-1.462-1.571-2.754-2.319-2.489C165.823,413.588,165.731,415.037,165.884,415.943Z" transform="translate(-132.658 -383.258)" fill="#7fac27"/>
          <path id="Path_7624" data-name="Path 7624" d="M192.418,368.549a.85.85,0,1,0,.555-.844A.931.931,0,0,0,192.418,368.549Z" transform="translate(-164.33 -348.529)" fill="#7fac27"/>
          <path id="Path_7625" data-name="Path 7625" d="M229.749,356.02c.08.226.731.183,1.053.163.355-.023.882-.057.932-.264.056-.231-.477-.7-1.03-.672S229.67,355.794,229.749,356.02Z" transform="translate(-210.879 -339.07)" fill="#7fac27"/>
          <path id="Path_7626" data-name="Path 7626" d="M293.4,299.555a.91.91,0,0,0,.412,1.219c.342.077.71-.33.854-.665.115-.266.2-.752-.048-.965A.91.91,0,0,0,293.4,299.555Z" transform="translate(-289.118 -296.298)" fill="#7fac27"/>
          <path id="Path_7627" data-name="Path 7627" d="M266.422,350.552c1.012.5,2.473.227,2.723-.472.24-.671-.675-1.62-1.5-2.025s-2.111-.548-2.5.046C264.741,348.723,265.41,350.051,266.422,350.552Z" transform="translate(-256.761 -333.331)" fill="#7fac27"/>
          <path id="Path_7628" data-name="Path 7628" d="M187.331,403.154a1.005,1.005,0,1,0-.9-1.34A1.063,1.063,0,0,0,187.331,403.154Z" transform="translate(-157.028 -373.987)" fill="#7fac27"/>
          <path id="Path_7629" data-name="Path 7629" d="M207.46,409.806c-.06.331.965.992,2,.939s1.988-.818,1.894-1.137c-.081-.277-.958-.244-1.837-.21C208.684,409.43,207.52,409.474,207.46,409.806Z" transform="translate(-185.173 -380.257)" fill="#7fac27"/>
        </g>
        <path id="Path_7630" data-name="Path 7630" d="M353.511,201.759a14.051,14.051,0,0,1-14.584,0S346.98,210.92,353.511,201.759Z" transform="translate(-281.529 -165.648)" fill="#b6d170"/>
        <path id="Path_7631" data-name="Path 7631" d="M434.257,135.218s-.508-4.44-6.467-10.66-1.9-18.3-1.9-18.3-2.234,12.1,4.3,18.868A14.284,14.284,0,0,1,434.257,135.218Z" transform="translate(-382.747 -92.981)" fill="#a2b33a"/>
        <path id="Path_7632" data-name="Path 7632" d="M270.059,110.841a8.217,8.217,0,0,0-6.253-6.221S265.718,104.627,270.059,110.841Z" transform="translate(-180.114 -91.736)" fill="#b6db3a"/>
        <path id="Path_7633" data-name="Path 7633" d="M316.9,61.786c.123.106-4.25-13.022-26.958-7.964C289.946,53.822,305.831,52.225,316.9,61.786Z" transform="translate(-233.212 -52.202)" fill="#b6db3a"/>
        <path id="Path_7634" data-name="Path 7634" d="M311.618,83.108c.611,1.182,2.1,2.585,3.36,2.229,1.306-.368,1.813-2.458,1.657-3.859-.253-2.267-2.427-4.405-3.816-4.032C311.384,77.832,310.514,80.969,311.618,83.108Z" transform="translate(-238.031 -71.027)" fill="#313a18"/>
        <path id="Path_7635" data-name="Path 7635" d="M384.771,87.049c.229,1.229,1.159,3.012,2.608,3.075,1.3.057,2.342-1.3,2.72-2.339.9-2.471-.974-5.831-2.6-5.841C386.019,81.935,384.331,84.689,384.771,87.049Z" transform="translate(-329.295 -74.482)" fill="#313a18"/>
        <path id="Path_7636" data-name="Path 7636" d="M317.892,84.5c-.025.148-.2,1.11-.668,1.2-.576.106-1.416-1.137-1.62-2.337-.154-.911-.013-2.216.478-2.337C316.739,80.864,318.179,82.778,317.892,84.5Z" transform="translate(-240.357 -73.775)" fill="#dfd1cc"/>
        <path id="Path_7637" data-name="Path 7637" d="M391.188,89.118c-.041.144-.317,1.082-.794,1.117-.584.043-1.284-1.284-1.356-2.5-.054-.922.228-2.2.729-2.271C390.438,85.377,391.661,87.436,391.188,89.118Z" transform="translate(-331.293 -77.159)" fill="#dfd1cc"/>
        <path id="Path_7638" data-name="Path 7638" d="M327.223,106.256a19.852,19.852,0,0,0-4.189,2.324,18.09,18.09,0,0,0-1.879,1.548c-.6.56-1.119,1.114-1.681,1.562-.28.232-.575.437-.886.648s-.624.416-.943.6a12.522,12.522,0,0,1-1.96.944,10.153,10.153,0,0,1-4.176.664,12.832,12.832,0,0,1-4.206-1.013,16.133,16.133,0,0,1-2.011-.922c-.622-.348-1.238-.8-1.931-1.248a18.706,18.706,0,0,0-9.148-2.894,27.144,27.144,0,0,1,8.165,4.27c.588.467,1.194,1.01,1.916,1.485a15.209,15.209,0,0,0,2.208,1.185,16.294,16.294,0,0,0,2.355.871,12.493,12.493,0,0,0,2.542.413,11.39,11.39,0,0,0,2.588-.169,11.846,11.846,0,0,0,2.464-.757,12.6,12.6,0,0,0,2.217-1.239c.344-.239.679-.491.993-.748s.643-.541.943-.842a21.835,21.835,0,0,0,1.578-1.85c.48-.594.991-1.157,1.533-1.71A36.564,36.564,0,0,1,327.223,106.256Z" transform="translate(-244.549 -92.981)" fill="#313a18"/>
        <path id="Path_7639" data-name="Path 7639" d="M344.838,107.821a8.28,8.28,0,0,0-2.548-1.3,8.9,8.9,0,0,0-2.869-.423c-.244.017-.489.022-.732.052l-.725.125a7.206,7.206,0,0,0-.7.208l-.349.113-.33.16a6.5,6.5,0,0,0-2.273,1.747,11.481,11.481,0,0,1,2.482-1.228,8.578,8.578,0,0,1,2.651-.461,12.336,12.336,0,0,1,2.71.246A19.092,19.092,0,0,1,344.838,107.821Z" transform="translate(-271.751 -92.862)" fill="#a2b33a"/>
        <path id="Path_7640" data-name="Path 7640" d="M344.735,115.684a1.677,1.677,0,0,0,0,1.288c.077.233.2.6.427.628.206.026.389-.236.543-.455a1.7,1.7,0,0,0,.4-1.208c-.039-.3-.218-.869-.586-.917C345.092,114.963,344.755,115.641,344.735,115.684Z" transform="translate(-275.487 -99.646)" fill="#313a18"/>
        <path id="Path_7641" data-name="Path 7641" d="M357.728,117.356a1.675,1.675,0,0,0,.569,1.155c.172.176.442.451.66.375.2-.068.245-.384.286-.648a1.7,1.7,0,0,0-.176-1.26c-.169-.255-.579-.683-.93-.564C357.73,116.552,357.728,117.309,357.728,117.356Z" transform="translate(-291.801 -100.695)" fill="#313a18"/>
        <path id="Path_7642" data-name="Path 7642" d="M388.08,105.78s-5.551.787-7.7-1.16C380.382,104.62,383.139,111.444,388.08,105.78Z" transform="translate(-326.01 -91.736)" fill="#a4c53a"/>
        <path id="Path_7643" data-name="Path 7643" d="M312.176,98.1s-5,2.543-7.659,1.4C304.517,99.5,309.336,105.062,312.176,98.1Z" transform="translate(-231.966 -86.777)" fill="#a4c53a"/>
        <path id="Path_7644" data-name="Path 7644" d="M388.11,108.59a8.8,8.8,0,0,0-1.937-.881,12.26,12.26,0,0,0-2.073-.49,10.528,10.528,0,0,0-2.136-.091,6.975,6.975,0,0,0-2.091.439c.716.038,1.4.059,2.085.12s1.362.142,2.041.241,1.357.205,2.039.321S387.4,108.487,388.11,108.59Z" transform="translate(-325.919 -93.631)" fill="#a2b33a"/>
        <path id="Path_7645" data-name="Path 7645" d="M311.2,100.176a8.809,8.809,0,0,0-2.124-.128,12.279,12.279,0,0,0-2.111.285,10.528,10.528,0,0,0-2.027.681,6.973,6.973,0,0,0-1.794,1.159c.682-.221,1.328-.447,1.989-.635s1.323-.356,1.992-.506,1.34-.3,2.019-.431S310.509,100.333,311.2,100.176Z" transform="translate(-230.667 -88.247)" fill="#a2b33a"/>
        <path id="Path_7646" data-name="Path 7646" d="M422.019,75.487c1.384-.475,2.113-2.44,1.332-2.743a3.832,3.832,0,0,0-2.636.945c-.22.175-.866.688-.827,1.179C419.939,75.51,421.141,75.788,422.019,75.487Z" transform="translate(-371.047 -67.447)" fill="#7fac27"/>
        <path id="Path_7647" data-name="Path 7647" d="M322.542,62.578c.326-.642-1.071-1.935-1.777-1.891-.483.03-.721.691-.583,1.245a1.327,1.327,0,0,0,.624.882A1.413,1.413,0,0,0,322.542,62.578Z" transform="translate(-246.117 -58.307)" fill="#7fac27"/>
        <path id="Path_7648" data-name="Path 7648" d="M340.138,56.93a2.467,2.467,0,0,0,.963-4.839,2.344,2.344,0,0,0-2.158,1.576C338.485,54.842,338.916,56.529,340.138,56.93Z" transform="translate(-271.046 -51.764)" fill="#7fac27"/>
        <path id="Path_7649" data-name="Path 7649" d="M364.44,58.557c.568-.492.148-1.745-.767-2.486s-2.235-.88-2.591-.232c-.285.518.134,1.37.665,1.916C362.51,58.54,363.859,59.06,364.44,58.557Z" transform="translate(-297.991 -54.302)" fill="#7fac27"/>
        <path id="Path_7650" data-name="Path 7650" d="M395.034,61.908c.574.153,1.195-.048,1.261-.378s-.44-.755-1.02-.832a.951.951,0,0,0-.938.314C394.174,61.3,394.447,61.753,395.034,61.908Z" transform="translate(-337.557 -58.308)" fill="#7fac27"/>
        <path id="Path_7651" data-name="Path 7651" d="M377.994,77.153a.681.681,0,1,0-.853-1.007.72.72,0,0,0-.137.806A.689.689,0,0,0,377.994,77.153Z" transform="translate(-315.446 -69.887)" fill="#7fac27"/>
      </g>
    </g>
    <text id="Alexis_Balencesco" data-name="Alexis Balencesco" transform="translate(60 281)" fill="#edf4fd" font-size="18" font-family="ArialMT, Arial"><tspan x="8.935" y="16">I assume that you still are not sure </tspan><tspan x="8.926" y="41">whether there is a problem or not?</tspan></text>
    <text id="Alexis_Balencesco-2" data-name="Alexis Balencesco" transform="translate(60 505)" fill="#edf4fd" font-size="18" font-family="ArialMT, Arial"><tspan x="14.924" y="16">Revisit the things once again like </tspan><tspan x="41.924" y="41">what happens in addiction</tspan></text>
    <text id="Alexis_Balencesco-3" data-name="Alexis Balencesco" transform="translate(153 225)" fill="#edf4fd" font-size="20" font-family="Arial-BoldItalicMT, Arial" font-weight="700" font-style="italic"><tspan x="0" y="18">Hi Nishanth Advik, </tspan></text>
    <g id="CTA" transform="translate(51 576.936)">
      <path id="Path_7" data-name="Path 7" d="M7.473,5H304.527C308.654,5,312,9,312,13.942v30.18c0,4.939-3.346,8.942-7.473,8.942H7.473c-4.127,0-7.473-4-7.473-8.942V13.942C0,9,3.346,5,7.473,5Z" transform="translate(0 -5)" fill="#ff9241"/>
      <text id="See_review" data-name="See review" transform="translate(75.752 12.563)" fill="#fff" font-size="16" font-family="ArialMT, Arial"><tspan x="39.926" y="14">See review</tspan></text>
    </g>
    <g id="CTA-2" data-name="CTA" transform="translate(51 644)">
      <g id="Path_7-2" data-name="Path 7" transform="translate(0 -5)" fill="none">
        <path d="M7.473,5H304.527C308.654,5,312,9,312,13.942v30.18c0,4.939-3.346,8.942-7.473,8.942H7.473c-4.127,0-7.473-4-7.473-8.942V13.942C0,9,3.346,5,7.473,5Z" stroke="none"/>
        <path d="M 7.473052978515625 6.000007629394531 C 3.903778076171875 6.000007629394531 1 9.562839508056641 1 13.94217300415039 L 1 44.12208938598633 C 1 48.50142288208008 3.903778076171875 52.06425476074219 7.473052978515625 52.06425476074219 L 304.5269470214844 52.06425476074219 C 308.0962219238281 52.06425476074219 311 48.50142288208008 311 44.12208938598633 L 311 13.94217300415039 C 311 9.562839508056641 308.0962219238281 6.000007629394531 304.5269470214844 6.000007629394531 L 7.473052978515625 6.000007629394531 M 7.473052978515625 5.000007629394531 L 304.5269470214844 5.000007629394531 C 308.6542358398438 5.000007629394531 312 9.003547668457031 312 13.94217300415039 L 312 44.12208938598633 C 312 49.06071472167969 308.6542358398438 53.06425476074219 304.5269470214844 53.06425476074219 L 7.473052978515625 53.06425476074219 C 3.345794677734375 53.06425476074219 0 49.06071472167969 0 44.12208938598633 L 0 13.94217300415039 C 0 9.003547668457031 3.345794677734375 5.000007629394531 7.473052978515625 5.000007629394531 Z" stroke="none" fill="#fff"/>
      </g>
      <text id="Close_Exercise" data-name="Close Exercise" transform="translate(76 12.563)" fill="#fff" font-size="16" font-family="Lato-Regular, Lato"><tspan x="29.172" y="16">Close Exercise</tspan></text>
    </g>
  </g>
</svg>
