<svg xmlns="http://www.w3.org/2000/svg" xmlns:xlink="http://www.w3.org/1999/xlink" width="412" height="847" viewBox="0 0 412 847">
  <defs>
    <filter id="Rectangle" x="0" y="157" width="175" height="157" filterUnits="userSpaceOnUse">
      <feOffset dy="13" input="SourceAlpha"/>
      <feGaussianBlur stdDeviation="17" result="blur"/>
      <feFlood flood-color="#56c596" flood-opacity="0.149"/>
      <feComposite operator="in" in2="blur"/>
      <feComposite in="SourceGraphic"/>
    </filter>
    <filter id="Cirlce_Background" x="-31.5" y="218.5" width="477" height="474" filterUnits="userSpaceOnUse">
      <feOffset dy="34" input="SourceAlpha"/>
      <feGaussianBlur stdDeviation="27.5" result="blur-2"/>
      <feFlood flood-color="#282828" flood-opacity="0.078"/>
      <feComposite operator="in" in2="blur-2"/>
      <feComposite in="SourceGraphic"/>
    </filter>
    <filter id="Path_7" x="27" y="591.438" width="360" height="96.064" filterUnits="userSpaceOnUse">
      <feOffset dy="3" input="SourceAlpha"/>
      <feGaussianBlur stdDeviation="8" result="blur-3"/>
      <feFlood flood-opacity="0.078"/>
      <feComposite operator="in" in2="blur-3"/>
      <feComposite in="SourceGraphic"/>
    </filter>
    <clipPath id="clip-Success_page_2">
      <rect width="412" height="847"/>
    </clipPath>
  </defs>
  <g id="Success_page_2" data-name="Success page – 2" clip-path="url(#clip-Success_page_2)">
    <rect width="412" height="847" fill="#edf4fd"/>
    <g id="Background" transform="translate(-0.372)" style="isolation: isolate">
      <path id="Mask" d="M0,0H414a0,0,0,0,1,0,0V491a34,34,0,0,1-34,34H34A34,34,0,0,1,0,491V0A0,0,0,0,1,0,0Z" transform="translate(0.372)" fill="#102646"/>
    </g>
    <text id="Congratulations_You" data-name="Congratulations! You" transform="translate(208 83)" fill="#edf4fd" font-size="20" font-family="Arial-BoldMT, Arial" font-weight="700"><tspan x="-161.133" y="0">Start now and complete the target</tspan><tspan x="-120.581" y="26">to unlock more challenge</tspan></text>
    <g id="Components_Notification" data-name="Components/ Notification" transform="translate(51 186)">
      <rect id="Rectangle-2" data-name="Rectangle" width="274" height="73" rx="16" transform="translate(38)" fill="#fff"/>
      <g transform="matrix(1, 0, 0, 1, -51, -186)" filter="url(#Rectangle)">
        <rect id="Rectangle-3" data-name="Rectangle" width="73" height="55" rx="13" transform="translate(51 195)" fill="#fff"/>
      </g>
      <text id="Alexis_Balencesco" data-name="Alexis Balencesco" transform="translate(96 21)" fill="#2e5b9f" font-size="13" font-family="Arial-BoldMT, Arial" font-weight="700"><tspan x="0" y="12">20pts</tspan></text>
      <text id="Your_results_are_her" data-name="Your results are her" transform="translate(96 42)" fill="#254069" font-size="10" font-family="ArialMT, Arial"><tspan x="0" y="9">Points will be added to Habit rewards</tspan></text>
      <path id="Icon_awesome-coins" data-name="Icon awesome-coins" d="M0,22.736v2.4c0,1.98,4.824,3.59,10.771,3.59s10.771-1.61,10.771-3.59v-2.4c-2.317,1.632-6.552,2.4-10.771,2.4S2.317,24.369,0,22.736ZM17.951,7.181c5.946,0,10.771-1.61,10.771-3.59S23.9,0,17.951,0,7.181,1.61,7.181,3.59,12,7.181,17.951,7.181ZM0,16.852v2.895c0,1.98,4.824,3.59,10.771,3.59s10.771-1.61,10.771-3.59V16.852c-2.317,1.907-6.558,2.895-10.771,2.895S2.317,18.759,0,16.852Zm23.337.617c3.214-.623,5.385-1.778,5.385-3.108v-2.4A13.776,13.776,0,0,1,23.337,13.9ZM10.771,8.976C4.824,8.976,0,10.984,0,13.463s4.824,4.488,10.771,4.488,10.771-2.008,10.771-4.488S16.717,8.976,10.771,8.976Zm12.3,3.158c3.366-.606,5.649-1.8,5.649-3.158V6.58c-1.991,1.408-5.413,2.165-9.015,2.345A6.282,6.282,0,0,1,23.073,12.134Z" transform="translate(22.576 22.651)" fill="#eba027"/>
    </g>
    <g id="Big_Card" data-name="Big Card" transform="translate(51 267)">
      <g transform="matrix(1, 0, 0, 1, -51, -267)" filter="url(#Cirlce_Background)">
        <rect id="Cirlce_Background-2" data-name="Cirlce Background" width="312" height="309" rx="16" transform="translate(51 267)" fill="#fff"/>
      </g>
      <g id="Atoms_Divider_Default" data-name="Atoms/ Divider/ Default" transform="translate(21 158)">
        <rect id="Components_Divider" data-name="Components/Divider" width="270" height="1" fill="#8eb1e5"/>
      </g>
    </g>
    <g id="Group_3833" data-name="Group 3833">
      <g id="Rectangle_2139" data-name="Rectangle 2139" transform="translate(213 447)" fill="#edf4fd" stroke="#8eb1e5" stroke-width="1">
        <rect width="128" height="31" rx="5" stroke="none"/>
        <rect x="0.5" y="0.5" width="127" height="30" rx="4.5" fill="none"/>
      </g>
      <text id="Alexis_Balencesco-2" data-name="Alexis Balencesco" transform="translate(224 454)" fill="#254069" font-size="14" font-family="ArialMT, Arial"><tspan x="1.99" y="13">30 mins</tspan></text>
    </g>
    <text id="Alexis_Balencesco-3" data-name="Alexis Balencesco" transform="translate(215 494)" fill="#2e5b9f" font-size="14" font-family="ArialMT, Arial"><tspan x="0" y="13">3</tspan></text>
    <text id="Alexis_Balencesco-4" data-name="Alexis Balencesco" transform="translate(215 530)" fill="#2e5b9f" font-size="14" font-family="ArialMT, Arial"><tspan x="0" y="13">Everyday</tspan></text>
    <text id="Alexis_Balencesco-5" data-name="Alexis Balencesco" transform="translate(134 25)" fill="#edf4fd" font-size="13" font-family="Arial-BoldMT, Arial" font-weight="700"><tspan x="9.51" y="12">Exposure Challenge</tspan></text>
    <text id="Alexis_Balencesco-6" data-name="Alexis Balencesco" transform="translate(59 284)" fill="#254069" font-size="16" font-family="Arial-BoldMT, Arial" font-weight="700"><tspan x="44.215" y="14">Contamination obsession</tspan></text>
    <text id="Alexis_Balencesco-7" data-name="Alexis Balencesco" transform="translate(81 325)" fill="#254069" font-size="16" font-family="ArialMT, Arial"><tspan x="6.254" y="14">Telling someone about the violent </tspan><tspan x="12.496" y="39">thought (like accidently harming </tspan><tspan x="79.203" y="64">someone)….</tspan></text>
    <text id="Alexis_Balencesco-8" data-name="Alexis Balencesco" transform="translate(73 454)" fill="#254069" font-size="14" font-family="ArialMT, Arial" opacity="0.5"><tspan x="0" y="13">Target time</tspan></text>
    <text id="Alexis_Balencesco-9" data-name="Alexis Balencesco" transform="translate(73 494)" fill="#254069" font-size="14" font-family="ArialMT, Arial" opacity="0.5"><tspan x="0" y="13">Suds</tspan></text>
    <text id="Alexis_Balencesco-10" data-name="Alexis Balencesco" transform="translate(73 530)" fill="#254069" font-size="14" font-family="ArialMT, Arial" opacity="0.5"><tspan x="0" y="13">Routine</tspan></text>
    <g id="CTA" transform="translate(51 612.438)">
      <g transform="matrix(1, 0, 0, 1, -51, -612.44)" filter="url(#Path_7)">
        <path id="Path_7-2" data-name="Path 7" d="M7.473,5H304.527C308.654,5,312,9,312,13.942v30.18c0,4.939-3.346,8.942-7.473,8.942H7.473c-4.127,0-7.473-4-7.473-8.942V13.942C0,9,3.346,5,7.473,5Z" transform="translate(51 607.44)" fill="#ff9241"/>
      </g>
      <text id="Add_to_to_do_list" data-name="Add to to do list" transform="translate(76 12.563)" fill="#fff" font-size="16" font-family="Lato-Regular, Lato"><tspan x="23.096" y="16">Add to to do list</tspan></text>
    </g>
    <g id="CTA-2" data-name="CTA" transform="translate(51 674.502)">
      <g id="Path_7-3" data-name="Path 7" transform="translate(0 -5)" fill="none">
        <path d="M7.473,5H304.527C308.654,5,312,9,312,13.942v30.18c0,4.939-3.346,8.942-7.473,8.942H7.473c-4.127,0-7.473-4-7.473-8.942V13.942C0,9,3.346,5,7.473,5Z" stroke="none"/>
        <path d="M 7.473052978515625 6.000007629394531 C 3.903778076171875 6.000007629394531 1 9.562839508056641 1 13.94217300415039 L 1 44.12208938598633 C 1 48.50142288208008 3.903778076171875 52.06425476074219 7.473052978515625 52.06425476074219 L 304.5269470214844 52.06425476074219 C 308.0962219238281 52.06425476074219 311 48.50142288208008 311 44.12208938598633 L 311 13.94217300415039 C 311 9.562839508056641 308.0962219238281 6.000007629394531 304.5269470214844 6.000007629394531 L 7.473052978515625 6.000007629394531 M 7.473052978515625 5.000007629394531 L 304.5269470214844 5.000007629394531 C 308.6542358398438 5.000007629394531 312 9.003547668457031 312 13.94217300415039 L 312 44.12208938598633 C 312 49.06071472167969 308.6542358398438 53.06425476074219 304.5269470214844 53.06425476074219 L 7.473052978515625 53.06425476074219 C 3.345794677734375 53.06425476074219 0 49.06071472167969 0 44.12208938598633 L 0 13.94217300415039 C 0 9.003547668457031 3.345794677734375 5.000007629394531 7.473052978515625 5.000007629394531 Z" stroke="none" fill="#2e5b9f"/>
      </g>
      <text id="Close" transform="translate(76 12.563)" fill="#2e5b9f" font-size="16" font-family="Lato-Regular, Lato"><tspan x="60.044" y="16">Close</tspan></text>
    </g>
  </g>
</svg>
