<svg xmlns="http://www.w3.org/2000/svg" xmlns:xlink="http://www.w3.org/1999/xlink" width="412" height="847" viewBox="0 0 412 847">
  <defs>
    <linearGradient id="linear-gradient" x1="0.5" x2="0.5" y2="1" gradientUnits="objectBoundingBox">
      <stop offset="0" stop-color="#37aadd"/>
      <stop offset="1" stop-color="#1f64cc"/>
    </linearGradient>
    <clipPath id="clip-Success_page_18">
      <rect width="412" height="847"/>
    </clipPath>
  </defs>
  <g id="Success_page_18" data-name="Success page – 18" clip-path="url(#clip-Success_page_18)">
    <rect width="412" height="847" fill="url(#linear-gradient)"/>
    <g id="Background" transform="translate(-0.372)" style="isolation: isolate">
      <path id="Mask" d="M0,0H414a0,0,0,0,1,0,0V263a34,34,0,0,1-34,34H34A34,34,0,0,1,0,263V0A0,0,0,0,1,0,0Z" transform="translate(0.372)" fill="#102646"/>
    </g>
    <g id="CTA" transform="translate(51 556.438)">
      <path id="Path_7" data-name="Path 7" d="M7.473,5H304.527C308.654,5,312,9,312,13.942v30.18c0,4.939-3.346,8.942-7.473,8.942H7.473c-4.127,0-7.473-4-7.473-8.942V13.942C0,9,3.346,5,7.473,5Z" transform="translate(0 -5)" fill="#f7fafd"/>
      <text id="Repeat" transform="translate(76 12.563)" fill="#1e64cc" font-size="16" font-family="ArialMT, Arial"><tspan x="53.703" y="14">Repeat</tspan></text>
    </g>
    <g id="CTA-2" data-name="CTA" transform="translate(51 618.502)">
      <g id="Path_7-2" data-name="Path 7" transform="translate(0 -5)" fill="none">
        <path d="M7.473,5H304.527C308.654,5,312,9,312,13.942v30.18c0,4.939-3.346,8.942-7.473,8.942H7.473c-4.127,0-7.473-4-7.473-8.942V13.942C0,9,3.346,5,7.473,5Z" stroke="none"/>
        <path d="M 7.473052978515625 6.000007629394531 C 3.903778076171875 6.000007629394531 1 9.562839508056641 1 13.94217300415039 L 1 44.12208938598633 C 1 48.50142288208008 3.903778076171875 52.06425476074219 7.473052978515625 52.06425476074219 L 304.5269470214844 52.06425476074219 C 308.0962219238281 52.06425476074219 311 48.50142288208008 311 44.12208938598633 L 311 13.94217300415039 C 311 9.562839508056641 308.0962219238281 6.000007629394531 304.5269470214844 6.000007629394531 L 7.473052978515625 6.000007629394531 M 7.473052978515625 5.000007629394531 L 304.5269470214844 5.000007629394531 C 308.6542358398438 5.000007629394531 312 9.003547668457031 312 13.94217300415039 L 312 44.12208938598633 C 312 49.06071472167969 308.6542358398438 53.06425476074219 304.5269470214844 53.06425476074219 L 7.473052978515625 53.06425476074219 C 3.345794677734375 53.06425476074219 0 49.06071472167969 0 44.12208938598633 L 0 13.94217300415039 C 0 9.003547668457031 3.345794677734375 5.000007629394531 7.473052978515625 5.000007629394531 Z" stroke="none" fill="#fff"/>
      </g>
      <text id="Move_forward_with_this_new_exercise" data-name="Move forward with this new exercise" transform="translate(16 12.563)" fill="#fff" font-size="16" font-family="Lato-Regular, Lato"><tspan x="10.492" y="16">Move forward with this new exercise</tspan></text>
    </g>
    <g id="CTA-3" data-name="CTA" transform="translate(51 764.566)">
      <text id="Close" transform="translate(76 12.563)" fill="#fff" font-size="16" font-family="Lato-Regular, Lato"><tspan x="60.044" y="16">Close</tspan></text>
    </g>
    <text id="You_have_2_options_either_you_can_repeat_the_intensive_treatment_or_you_can_move_forward_with_this_exercise" data-name="You have 2 options either you can repeat the intensive treatment, or you can move forward with this exercise" transform="translate(40 431)" fill="#edf4fd" font-size="18" font-family="ArialMT, Arial"><tspan x="3.212" y="16">You have 2 options either you can repeat </tspan><tspan x="3.916" y="46">the intensive treatment, or you can move </tspan><tspan x="65.465" y="76">forward with this exercise</tspan></text>
    <text id="Do_not_worry_these_things_happen._The_most_important_part_is_the_introspection_of_the_episode_accept_it_and_learn_from_that_mistake" data-name="Do not worry these things happen. The most important part is the introspection of the episode; accept it and learn from that mistake" transform="translate(34 68)" fill="#edf4fd" font-size="19" font-family="ArialMT, Arial"><tspan x="0" y="17">Do not worry these things happen. The </tspan><tspan x="0" y="50">most important part is the introspection </tspan><tspan x="0" y="83">of the episode; accept it and learn from </tspan><tspan x="0" y="116">that mistake</tspan></text>
    <g id="Group_3448" data-name="Group 3448" transform="translate(100.285 146.667)">
      <g id="Group_3441" data-name="Group 3441" transform="translate(190.304 92.388)">
        <path id="Path_7460" data-name="Path 7460" d="M304.17,253.825s1.935-18.621,34.823-19.588,45.221,30.47,45.221,43.771-5.562,24.908-13.3,33.855a4.242,4.242,0,0,0,2.66,3.627c2.66,1.209-.967,8.706-7.98,7.255Z" transform="translate(-304.17 -225.92)" fill="#7c3314"/>
        <path id="Path_7461" data-name="Path 7461" d="M543.183,290.835a5.88,5.88,0,0,1-4.085.8s-.208-.055-.422-.118c-3.45-1.016-5.258-3.587-7.445-6.694-2.8-3.984-5.493-7.806-4.1-11.391,1.309-3.368,5.262-4.418,5.558-4.492,5.151-1.278,10.342,2.875,12.488,7.024a13.4,13.4,0,0,1,1.27,7.8C546.268,285.376,545.83,289.3,543.183,290.835Z" transform="translate(-466.162 -251.02)" fill="#964526"/>
        <path id="Path_7462" data-name="Path 7462" d="M542.382,381.545c-.8,1.992-4.1,2.274-5.985,2-.745-.11-3.564-.526-4.617-2.809-1.2-2.605.486-6.36,2.985-6.985,2.111-.528,4.058,1.366,5.078,2.358C540.606,376.846,543.24,379.408,542.382,381.545Z" transform="translate(-469.532 -327.402)" fill="#964526"/>
        <path id="Path_7463" data-name="Path 7463" d="M427.944,219.07c-.484.52-1.553,1.419-9.913,1.241-6.009-.128-9.051-.221-10.9-1.634-2.557-1.959-4.687-5.937-3.445-9.456,1.2-3.393,4.911-4.606,6.016-4.967,3.347-1.093,6.209-.243,9.794.822,4.207,1.25,6.708,1.993,8.347,4.5C429.661,212.344,430.09,216.766,427.944,219.07Z" transform="translate(-376.335 -203.744)" fill="#964526"/>
        <path id="Path_7464" data-name="Path 7464" d="M507.174,319.241a4.11,4.11,0,0,1-3.721,2.22c-2.483-.056-4.33-2.62-4.4-4.943-.062-2.068,1.266-4.515,3.1-4.722,1.434-.162,2.6,1.119,3.281,1.866C505.957,314.243,508.31,316.826,507.174,319.241Z" transform="translate(-446 -282.372)" fill="#964526"/>
        <path id="Path_7465" data-name="Path 7465" d="M331.654,254.41c.59,1.742-5.306,6.018-6.7,5-.791-.58-.023-2.8.025-2.936a4.482,4.482,0,0,1,2.539-2.721C329.152,253.132,331.341,253.485,331.654,254.41Z" transform="translate(-319.04 -239.913)" fill="#964526"/>
        <path id="Path_7466" data-name="Path 7466" d="M563.727,454.553c-1.273.929-4.22,2.464-6.273,1.321-2.774-1.545-2.721-7.318-.346-10.85,1.209-1.8,4.028-4.513,6.539-3.653,2.754.943,3.114,5.491,3.15,5.953C566.846,447.939,567.1,452.09,563.727,454.553Z" transform="translate(-486.973 -376.565)" fill="#964526"/>
        <path id="Path_7467" data-name="Path 7467" d="M514.25,496.581s.237,9.1,8.235,12.56c0,0-.532,6.548-10.688,4.734S514.25,496.581,514.25,496.581Z" transform="translate(-452.399 -416.865)" fill="#965626"/>
        <path id="Path_7468" data-name="Path 7468" d="M567.36,285.928a4.11,4.11,0,0,1-3.721,2.22c-2.483-.056-4.33-2.62-4.4-4.943-.062-2.067,1.266-4.515,3.1-4.722,1.434-.162,2.6,1.119,3.281,1.866C566.143,280.93,568.5,283.513,567.36,285.928Z" transform="translate(-489.803 -258.128)" fill="#aa623d"/>
        <path id="Path_7469" data-name="Path 7469" d="M413.519,211.808c1.694.44,4.961,1.716,4.882,3.533-.107,2.455-6.28,4.84-11.354,4.773-2.584-.034-7.035-.733-7.512-2.729-.523-2.189,4.118-4.33,4.589-4.547A14.994,14.994,0,0,1,413.519,211.808Z" transform="translate(-373.545 -209.34)" fill="#aa623d"/>
        <path id="Path_7470" data-name="Path 7470" d="M541.532,378.558c.829-.5,2.635.356,3.581,1.009.372.258,1.784,1.233,1.88,2.383.109,1.312-1.548,2.2-3,1.707a4.4,4.4,0,0,1-2.217-2.351C541.522,380.809,540.644,379.1,541.532,378.558Z" transform="translate(-476.635 -330.861)" fill="#aa623d"/>
        <path id="Path_7471" data-name="Path 7471" d="M565.679,453.8c-.889.748-1.793.947-2.217.584-.707-.606.032-2.69,1.178-4.211,1.019-1.353,2.641-2.633,3.287-2.348.506.224.209,1.321.035,1.962A8.287,8.287,0,0,1,565.679,453.8Z" transform="translate(-492.677 -381.356)" fill="#aa623d"/>
        <path id="Path_7472" data-name="Path 7472" d="M334.325,257.279c.455.7-4.086,2.407-5.156,2-.609-.232-.018-1.12.02-1.174a2.867,2.867,0,0,1,1.955-1.088C332.4,256.769,334.083,256.91,334.325,257.279Z" transform="translate(-322.164 -242.424)" fill="#aa623d"/>
        <path id="Path_7473" data-name="Path 7473" d="M517.468,526.94s3.28,1.4,5.72-3.263C523.188,523.677,522.929,529.1,517.468,526.94Z" transform="translate(-459.404 -436.585)" fill="#613314"/>
        <path id="Path_7474" data-name="Path 7474" d="M534.841,468.234a114.644,114.644,0,0,1-3.083-16.958S527.4,459.71,534.841,468.234Z" transform="translate(-468.883 -383.893)" fill="#612214"/>
      </g>
      <g id="Group_3442" data-name="Group 3442" transform="translate(218.43 190.169)">
        <path id="Path_7475" data-name="Path 7475" d="M407.492,566.309a10.217,10.217,0,0,0,8.157,7.782,16.131,16.131,0,0,1-2.992-10.86S407.987,561.553,407.492,566.309Z" transform="translate(-407.492 -562.944)" fill="#a4c53a"/>
        <path id="Path_7476" data-name="Path 7476" d="M419.307,573.33a7.471,7.471,0,0,0,3.067,6.577A61.532,61.532,0,0,1,419.307,573.33Z" transform="translate(-416.073 -570.503)" fill="#a2b33a"/>
      </g>
      <g id="Group_3443" data-name="Group 3443" transform="translate(235.645 54.516)">
        <path id="Path_7477" data-name="Path 7477" d="M470.73,124.651s20.435-4.895,26-20.129,5.32-39.9,5.32-39.9,14.751,17.9,14.751,36.516-20.124,32.331-41.862,26.443C474.937,127.579,470.669,127.732,470.73,124.651Z" transform="translate(-470.729 -64.62)" fill="#a4c53a"/>
        <path id="Path_7478" data-name="Path 7478" d="M517.153,181.605s33.674-11.608,26.3-40.143C543.452,141.462,561.709,179.55,517.153,181.605Z" transform="translate(-504.516 -120.544)" fill="#a2b33a"/>
        <path id="Path_7479" data-name="Path 7479" d="M551.9,127.527s11.148-.967,10.427-45.584C562.325,81.943,574.315,121.769,551.9,127.527Z" transform="translate(-529.802 -77.227)" fill="#b6db3a"/>
        <path id="Path_7480" data-name="Path 7480" d="M598.308,125.2a1.851,1.851,0,0,1-.723-3.63,1.763,1.763,0,0,1,1.629,1.18A1.9,1.9,0,0,1,598.308,125.2Z" transform="translate(-561.971 -106.066)" fill="#7fac27"/>
        <path id="Path_7481" data-name="Path 7481" d="M608.6,152.012c-1.278-.069-2.279-2.163-1.814-2.781.351-.467,1.66-.256,2.431.413.1.088.974.846.714,1.593A1.365,1.365,0,0,1,608.6,152.012Z" transform="translate(-569.667 -126.016)" fill="#7fac27"/>
        <path id="Path_7482" data-name="Path 7482" d="M583.529,161.986c-.505.32-1.336.51-1.657.15-.406-.456.239-1.53.3-1.636.593-.986,1.846-1.782,2.3-1.462C584.972,159.394,584.66,161.27,583.529,161.986Z" transform="translate(-551.52 -133.283)" fill="#7fac27"/>
        <path id="Path_7483" data-name="Path 7483" d="M596.162,175.836c-1.352-1.013-.609-4.345.638-4.706.853-.247,2.079.856,2.539,1.995a2.4,2.4,0,0,1,.048,2.066A2.441,2.441,0,0,1,596.162,175.836Z" transform="translate(-561.493 -142.11)" fill="#7fac27"/>
        <path id="Path_7484" data-name="Path 7484" d="M590.587,231.7c-.775.009-1.717-.323-1.74-.727s.91-.8,1.522-.939c1.052-.24,2.4-.027,2.479.423S591.743,231.685,590.587,231.7Z" transform="translate(-556.693 -184.931)" fill="#7fac27"/>
        <path id="Path_7485" data-name="Path 7485" d="M538.034,254.465c-.477.225-1.254.391-1.448.1s.22-.934.679-1.283c.7-.533,1.8-.588,1.977-.243S538.75,254.128,538.034,254.465Z" transform="translate(-518.624 -201.587)" fill="#7fac27"/>
        <path id="Path_7486" data-name="Path 7486" d="M598.308,125.2a1.851,1.851,0,0,1-.723-3.63,1.763,1.763,0,0,1,1.629,1.18A1.9,1.9,0,0,1,598.308,125.2Z" transform="translate(-561.971 -106.066)" fill="#89b633"/>
      </g>
      <g id="Group_3444" data-name="Group 3444" transform="translate(179.067 185.223)">
        <path id="Path_7487" data-name="Path 7487" d="M275.668,546.688s-7.789,6.674-6.519,19.551,5.824,17.593,5.824,17.593-8.3.586-11.7,3.689c-3.169,2.893,14.244,3.293,22.224,2.931a43.121,43.121,0,0,0,13.963-2.992c-3-4.838-7.737-11.7-5.985-24.485a88.4,88.4,0,0,1,2.9-10.7C294.573,551.036,290.155,549.816,275.668,546.688Z" transform="translate(-262.888 -546.167)" fill="#a4c53a"/>
        <path id="Path_7488" data-name="Path 7488" d="M356.821,583.418s-5.925,14.51,1.209,24.908C358.03,608.326,343.642,599.983,356.821,583.418Z" transform="translate(-327.205 -572.899)" fill="#a2b33a"/>
        <path id="Path_7489" data-name="Path 7489" d="M300.323,544.775S287.4,557.713,298.77,580.2c0,0-2.913-26.58,9.068-31.252Z" transform="translate(-285.598 -544.775)" fill="#b6db3a"/>
        <path id="Path_7490" data-name="Path 7490" d="M281.706,686.135s-15.688,2.9-2.267,4.081C279.439,690.216,274.633,688.583,281.706,686.135Z" transform="translate(-270.982 -647.654)" fill="#b6db3a"/>
        <path id="Path_7491" data-name="Path 7491" d="M309.294,684.691s.781,2.176,11.422,2.176A43.76,43.76,0,0,0,309.294,684.691Z" transform="translate(-296.662 -646.603)" fill="#a2b33a"/>
        <path id="Path_7492" data-name="Path 7492" d="M293.18,605.679a1.555,1.555,0,0,1-1.042,1.415c-1.155.3-2.653-1.406-2.313-2.413.2-.6,1-.771,1.051-.781A2,2,0,0,1,293.18,605.679Z" transform="translate(-282.457 -587.784)" fill="#7fac27"/>
        <path id="Path_7493" data-name="Path 7493" d="M316.784,622.066c.177.171.7.678.544,1.179a1.147,1.147,0,0,1-1.45.555,1.585,1.585,0,0,1-.228-2.232C316.041,621.36,316.738,622.021,316.784,622.066Z" transform="translate(-301.027 -600.633)" fill="#7fac27"/>
        <path id="Path_7494" data-name="Path 7494" d="M322.821,596.09c-.549-.064-1.064-1.305-.745-2.293s1.472-1.692,1.948-1.421c.542.309.138,1.837.12,1.9C323.94,595.023,323.373,596.155,322.821,596.09Z" transform="translate(-305.893 -579.376)" fill="#7fac27"/>
        <path id="Path_7495" data-name="Path 7495" d="M302.429,637.8c-.523.142-1.248-.623-1.376-1.4-.077-.472.028-1.165.408-1.315.5-.2,1.47.559,1.555,1.449C303.064,637.033,302.839,637.687,302.429,637.8Z" transform="translate(-290.646 -610.474)" fill="#7fac27"/>
        <path id="Path_7496" data-name="Path 7496" d="M336.767,630.475c-.292-.056-.481-.6-.424-1.031.011-.086.1-.688.518-.775a.757.757,0,0,1,.775.518C337.841,629.773,337.157,630.55,336.767,630.475Z" transform="translate(-316.34 -605.824)" fill="#7fac27"/>
      </g>
      <g id="Group_3445" data-name="Group 3445" transform="translate(226.095 182.082)">
        <path id="Path_7497" data-name="Path 7497" d="M456.6,533.28s5.212,2.856,7.575,16.277a44.657,44.657,0,0,1-2.533,24.122s16.867,5,7.617,6.943-28.535.493-33.613-3.135a165.21,165.21,0,0,0,3.264-17.532c.907-7.98-1.008-16.852-.846-18.379S450.471,532.6,456.6,533.28Z" transform="translate(-435.647 -533.237)" fill="#a4c53a"/>
        <path id="Path_7498" data-name="Path 7498" d="M512.489,543s9.31,16.807,2.66,34.7C515.149,577.7,516.479,559.442,512.489,543Z" transform="translate(-491.571 -540.341)" fill="#a2b33a"/>
        <path id="Path_7499" data-name="Path 7499" d="M447.195,557.111s7.436,12.862,0,32.813c0,0,20.309-13.539,8.434-34.865Z" transform="translate(-444.051 -549.119)" fill="#b6db3a"/>
        <path id="Path_7500" data-name="Path 7500" d="M476.511,685.733s9.76,2.177,14.009-1.088A68.305,68.305,0,0,0,476.511,685.733Z" transform="translate(-465.387 -643.416)" fill="#a2b33a"/>
        <path id="Path_7501" data-name="Path 7501" d="M513.954,593.844c-.881-.135-1.215-1.97-1.269-2.267-.038-.208-.4-2.2.408-2.63.772-.412,2.6.6,2.827,2.093C516.14,592.476,514.814,593.975,513.954,593.844Z" transform="translate(-491.631 -573.714)" fill="#7fac27"/>
        <path id="Path_7502" data-name="Path 7502" d="M509.251,617.773c-.4-.2-.347-.968-.238-1.379.168-.637.717-1.327,1.117-1.238.455.1.794,1.231.361,1.967C510.227,617.571,509.623,617.961,509.251,617.773Z" transform="translate(-488.985 -592.85)" fill="#7fac27"/>
        <path id="Path_7503" data-name="Path 7503" d="M529.988,626.424c-.461.172-1.273-.926-1.632-1.587-.194-.357-.7-1.3-.374-1.655.311-.336,1.3-.086,1.842.482C530.669,624.548,530.483,626.239,529.988,626.424Z" transform="translate(-502.767 -598.587)" fill="#7fac27"/>
        <path id="Path_7504" data-name="Path 7504" d="M491.884,637.192c.131-.357.948-.352,1.379-.287.654.1,1.483.5,1.451.862-.035.4-1.116.831-1.937.5C492.257,638.063,491.763,637.521,491.884,637.192Z" transform="translate(-476.562 -608.66)" fill="#7fac27"/>
        <path id="Path_7505" data-name="Path 7505" d="M499.26,606.18c-.231.079-.634-.295-.772-.7-.224-.659.218-1.472.5-1.461s.437.82.454.907C499.524,605.353,499.538,606.085,499.26,606.18Z" transform="translate(-481.337 -584.749)" fill="#7fac27"/>
        <path id="Path_7506" data-name="Path 7506" d="M454.08,694.241s6.771,3.869,24.787,3.023C478.867,697.264,459.4,694.3,454.08,694.241Z" transform="translate(-449.062 -650.413)" fill="#b6db3a"/>
      </g>
      <g id="Group_3446" data-name="Group 3446" transform="translate(178.114 109.756)">
        <path id="Path_7507" data-name="Path 7507" d="M299.873,351.6s-31.679,2.418-38.45-27.568,3.386-53.927,30.228-56.246c26.226-2.266,40.449,11.81,43.529,37.868C337.753,327.414,335.034,347.727,299.873,351.6Z" transform="translate(-259.39 -267.545)" fill="#deeebb"/>
        <path id="Path_7508" data-name="Path 7508" d="M365,304.7s39.225,63.116-40.4,64.567c0,0,35.912,17.773,53.141-9.794,2.721-4.353,5.623-17.049,1.451-30.651S365,304.7,365,304.7Z" transform="translate(-306.85 -294.584)" fill="#c4e2aa"/>
        <path id="Path_7509" data-name="Path 7509" d="M285.885,323.251c7.24,4.222,17.572,7.07,29.335,6.536,10.883-.688,19.093-3.268,29.625-7.322a56.051,56.051,0,0,1-29.465,10.582C301.857,333.662,290.952,328.513,285.885,323.251Z" transform="translate(-278.672 -307.515)" fill="#92a16f"/>
        <path id="Path_7510" data-name="Path 7510" d="M267.3,377.723c9.207,6.953,21.812,11.5,33.786,11.074,12.431-.333,23.345-4.95,34.228-11.074-9.084,8.185-21.339,14.012-34.148,14.337C287.222,392.471,273.943,385.744,267.3,377.723Z" transform="translate(-265.15 -347.73)" fill="#92a16f"/>
        <path id="Path_7511" data-name="Path 7511" d="M273.3,447.346c8.764,7.653,21.105,13.137,33.1,12.621,12.367-.417,23.207-6.3,33.278-13.347-8.4,9.194-20.394,16.2-33.168,16.609C292.942,463.81,279.547,456.112,273.3,447.346Z" transform="translate(-269.513 -397.873)" fill="#92a16f"/>
        <path id="Path_7512" data-name="Path 7512" d="M293.954,503.286a52.486,52.486,0,0,0,14.07,7.445A40.789,40.789,0,0,0,323.337,513a44.643,44.643,0,0,0,15.133-3.51,83.82,83.82,0,0,0,14.067-7.68,47.365,47.365,0,0,1-12.984,10.007,37.774,37.774,0,0,1-16.069,4.444,36.862,36.862,0,0,1-29.529-12.971Z" transform="translate(-284.545 -438.036)" fill="#92a16f"/>
        <path id="Path_7513" data-name="Path 7513" d="M464.838,371.327c.261.976-1.117,2.192-3.078,2.718s-3.763.16-4.025-.816,1.117-2.192,3.078-2.718S464.576,370.351,464.838,371.327Z" transform="translate(-403.719 -342.307)" fill="#f2f8e4"/>
        <path id="Path_7514" data-name="Path 7514" d="M357.638,395.858c-.234.836-1.766,1.139-3.422.676s-2.81-1.516-2.576-2.353,1.766-1.139,3.423-.676S357.872,395.022,357.638,395.858Z" transform="translate(-326.505 -359.059)" fill="#f2f8e4"/>
        <path id="Path_7515" data-name="Path 7515" d="M341.014,333.124a1.772,1.772,0,1,1-1.295-1.736A1.557,1.557,0,0,1,341.014,333.124Z" transform="translate(-316.364 -313.95)" fill="#f2f8e4"/>
        <path id="Path_7516" data-name="Path 7516" d="M414.618,470.805c.247.921-1.3,2.135-3.456,2.712s-4.1.3-4.348-.622,1.3-2.135,3.456-2.712S414.371,469.884,414.618,470.805Z" transform="translate(-366.664 -414.802)" fill="#f2f8e4"/>
        <path id="Path_7517" data-name="Path 7517" d="M490.664,409.466a2.034,2.034,0,1,1-2.436-.589A1.8,1.8,0,0,1,490.664,409.466Z" transform="translate(-425.01 -370.244)" fill="#f2f8e4"/>
        <path id="Path_7518" data-name="Path 7518" d="M304.479,494.569c-.434.752-1.994.664-3.483-.2s-2.345-2.167-1.911-2.919,1.994-.664,3.483.2S304.913,493.817,304.479,494.569Z" transform="translate(-288.197 -430.13)" fill="#f2f8e4"/>
        <path id="Path_7519" data-name="Path 7519" d="M489.95,530.1c.219.7-.376,1.505-1.329,1.805a1.625,1.625,0,0,1-2.123-.72c-.219-.7.376-1.505,1.329-1.805A1.625,1.625,0,0,1,489.95,530.1Z" transform="translate(-424.642 -458.019)" fill="#f2f8e4"/>
        <path id="Path_7520" data-name="Path 7520" d="M433.3,280.411a1.037,1.037,0,0,1-1.42.144c-.554-.32-.816-.9-.586-1.3a1.037,1.037,0,0,1,1.421-.144C433.269,279.428,433.531,280.011,433.3,280.411Z" transform="translate(-384.438 -275.813)" fill="#f2f8e4"/>
      </g>
      <path id="Path_7521" data-name="Path 7521" d="M331.153,286.893s15.024-9.069,30.5-1.693C361.653,285.2,344.574,294.994,331.153,286.893Z" transform="translate(-133.503 -168.534)" fill="#592614"/>
      <path id="Path_7522" data-name="Path 7522" d="M282.325,120.187s-.507-18.522-8.176-27.342c-3.627-4.171-13.232-5.558-15.213-16.5-1.05-5.8,3.061-9.069,4.33-10.7s7.436-14.509,19.951-14.872,25.392,2.358,31.2,13.784,1.451,17.774-6.348,28.838-2.859,25.056-2.859,25.056S295.746,129.512,282.325,120.187Z" transform="translate(-80.822 0)" fill="#a4c53a"/>
      <path id="Path_7523" data-name="Path 7523" d="M277.132,114.186c-2.572,1.568-5.081,10.781,9.409,20,3.948,2.512,11.419,11.608,9.313,32.088,0,0,11.985,8.679,19.24-.908,0,0-5.643-18.146-1.721-27.92a22.349,22.349,0,0,1,5.084-7.432c2.9-2.721,9.464-11.929-.913-15.671-4.625-1.668-13.731,8.534-20.714,7.214C286.222,119.554,286.15,108.69,277.132,114.186Z" transform="translate(-92.75 -45.059)" fill="#c8dc89"/>
      <g id="Group_3447" data-name="Group 3447" transform="translate(147.714 115.214)">
        <path id="Path_7524" data-name="Path 7524" d="M193.792,287.652s-18.561-2.612-38.519,27.058c-3.533,5.252-9.265,21.072-7.072,34.73,0,0,1.6-14.147,17.279-21.828S189.947,305.659,193.792,287.652Z" transform="translate(-147.714 -287.594)" fill="#a4c53a"/>
        <path id="Path_7525" data-name="Path 7525" d="M160.038,344.912a40.838,40.838,0,0,1,19.231-22.181c15.035-8.014,20.67-24.7,20.67-24.7s-4.054,19.684-18.3,29.6S165.789,335.634,160.038,344.912Z" transform="translate(-156.683 -295.188)" fill="#a2b33a"/>
        <path id="Path_7526" data-name="Path 7526" d="M174.356,340.417s5.761-13.9,23.143-25.007C197.5,315.41,183.452,327.765,174.356,340.417Z" transform="translate(-167.104 -307.838)" fill="#b6db3a"/>
        <path id="Path_7527" data-name="Path 7527" d="M169.142,416.307c-.151.892-.709,2.48-1.595,2.518-.853.036-1.769-1.371-1.726-2.631.056-1.665,1.788-3.135,2.641-2.834C169.211,413.625,169.317,415.275,169.142,416.307Z" transform="translate(-160.891 -379.095)" fill="#7fac27"/>
        <path id="Path_7528" data-name="Path 7528" d="M194.348,368.67a.968.968,0,1,1-.632-.961A1.06,1.06,0,0,1,194.348,368.67Z" transform="translate(-180.248 -345.877)" fill="#7fac27"/>
        <path id="Path_7529" data-name="Path 7529" d="M232.005,356.128c-.091.257-.833.209-1.2.185-.4-.026-1-.065-1.061-.3-.064-.263.543-.8,1.172-.766S232.1,355.87,232.005,356.128Z" transform="translate(-207.412 -336.83)" fill="#7fac27"/>
        <path id="Path_7530" data-name="Path 7530" d="M294.882,299.628a1.036,1.036,0,0,1-.469,1.387c-.389.088-.808-.376-.973-.757-.131-.3-.232-.856.054-1.1A1.036,1.036,0,0,1,294.882,299.628Z" transform="translate(-253.677 -295.919)" fill="#7fac27"/>
        <path id="Path_7531" data-name="Path 7531" d="M268.171,350.947c-1.152.57-2.816.259-3.1-.537-.273-.764.768-1.844,1.709-2.306s2.4-.624,2.844.052C270.084,348.864,269.323,350.376,268.171,350.947Z" transform="translate(-233.092 -331.341)" fill="#7fac27"/>
        <path id="Path_7532" data-name="Path 7532" d="M187.437,403.433a1.144,1.144,0,1,1,1.025-1.525A1.21,1.21,0,0,1,187.437,403.433Z" transform="translate(-175.858 -370.228)" fill="#7fac27"/>
        <path id="Path_7533" data-name="Path 7533" d="M211.9,409.866c.068.377-1.1,1.129-2.277,1.069s-2.263-.932-2.157-1.295c.092-.316,1.091-.278,2.092-.24C210.505,409.437,211.831,409.488,211.9,409.866Z" transform="translate(-191.194 -376.225)" fill="#7fac27"/>
      </g>
      <path id="Path_7534" data-name="Path 7534" d="M338.927,201.759a16,16,0,0,0,16.6,0S346.363,212.188,338.927,201.759Z" transform="translate(-139.161 -109.911)" fill="#b6d170"/>
      <path id="Path_7535" data-name="Path 7535" d="M424.542,139.228s.578-5.055,7.362-12.136,2.16-20.836,2.16-20.836,2.544,13.774-4.9,21.48A16.262,16.262,0,0,0,424.542,139.228Z" transform="translate(-201.47 -40.406)" fill="#a2b33a"/>
      <path id="Path_7536" data-name="Path 7536" d="M263.806,111.7a9.355,9.355,0,0,1,7.118-7.082S268.748,104.628,263.806,111.7Z" transform="translate(-84.49 -39.215)" fill="#b6db3a"/>
      <path id="Path_7537" data-name="Path 7537" d="M289.948,63.049c-.14.121,4.838-14.825,30.69-9.067C320.638,53.982,302.554,52.165,289.948,63.049Z" transform="translate(-103.513 -1.401)" fill="#b6db3a"/>
      <path id="Path_7538" data-name="Path 7538" d="M316.861,83.9c-.7,1.346-2.387,2.943-3.826,2.538-1.487-.419-2.063-2.8-1.886-4.393.287-2.581,2.763-5.015,4.345-4.59C317.128,77.891,318.119,81.463,316.861,83.9Z" transform="translate(-118.922 -19.407)" fill="#313a18"/>
      <path id="Path_7539" data-name="Path 7539" d="M391.032,87.756c-.261,1.4-1.319,3.429-2.97,3.5-1.481.065-2.666-1.48-3.1-2.663-1.024-2.813,1.109-6.639,2.962-6.65C389.611,81.934,391.533,85.069,391.032,87.756Z" transform="translate(-172.474 -22.712)" fill="#313a18"/>
      <path id="Path_7540" data-name="Path 7540" d="M315.587,84.984c.028.168.225,1.264.761,1.363.656.12,1.612-1.294,1.844-2.66.176-1.037.015-2.523-.544-2.66C316.9,80.843,315.261,83.022,315.587,84.984Z" transform="translate(-122.144 -22.036)" fill="#dfd1cc"/>
      <path id="Path_7541" data-name="Path 7541" d="M389.152,89.624c.046.164.361,1.232.9,1.272.665.048,1.462-1.462,1.544-2.845.062-1.049-.259-2.51-.83-2.585C390.007,85.365,388.614,87.709,389.152,89.624Z" transform="translate(-175.627 -25.273)" fill="#dfd1cc"/>
      <path id="Path_7542" data-name="Path 7542" d="M294.214,106.256a22.6,22.6,0,0,1,4.769,2.646,20.589,20.589,0,0,1,2.139,1.762c.678.638,1.274,1.268,1.913,1.778.319.264.654.5,1.008.738s.711.473,1.073.684a14.253,14.253,0,0,0,2.232,1.074,11.559,11.559,0,0,0,4.754.756,14.609,14.609,0,0,0,4.788-1.153,18.364,18.364,0,0,0,2.29-1.049c.708-.4,1.409-.913,2.2-1.421a21.3,21.3,0,0,1,10.415-3.3,30.9,30.9,0,0,0-9.3,4.861c-.669.531-1.36,1.15-2.181,1.69a17.316,17.316,0,0,1-2.513,1.349,18.553,18.553,0,0,1-2.682.992,14.223,14.223,0,0,1-2.894.47,12.966,12.966,0,0,1-2.946-.192,13.486,13.486,0,0,1-2.805-.862,14.348,14.348,0,0,1-2.524-1.411c-.392-.272-.773-.559-1.131-.852s-.732-.616-1.074-.959a24.873,24.873,0,0,1-1.8-2.106c-.547-.677-1.128-1.318-1.746-1.947A41.637,41.637,0,0,0,294.214,106.256Z" transform="translate(-106.62 -40.406)" fill="#313a18"/>
      <path id="Path_7543" data-name="Path 7543" d="M334.307,108.06a9.428,9.428,0,0,1,2.9-1.477,10.128,10.128,0,0,1,3.266-.481c.278.019.557.024.834.059l.825.142a8.2,8.2,0,0,1,.8.237l.4.128.376.183a7.405,7.405,0,0,1,2.588,1.989,13.069,13.069,0,0,0-2.825-1.4,9.765,9.765,0,0,0-3.018-.525,14.043,14.043,0,0,0-3.085.28A21.74,21.74,0,0,0,334.307,108.06Z" transform="translate(-135.799 -40.292)" fill="#a2b33a"/>
      <path id="Path_7544" data-name="Path 7544" d="M346.171,115.776a1.909,1.909,0,0,1,0,1.466c-.088.266-.225.682-.486.715-.235.029-.443-.269-.618-.518a1.935,1.935,0,0,1-.453-1.375c.044-.345.248-.989.667-1.044C345.764,114.955,346.147,115.728,346.171,115.776Z" transform="translate(-143.291 -46.781)" fill="#313a18"/>
      <path id="Path_7545" data-name="Path 7545" d="M359.5,117.49a1.906,1.906,0,0,1-.648,1.315c-.2.2-.5.513-.751.427-.224-.078-.279-.437-.326-.738a1.935,1.935,0,0,1,.2-1.434c.192-.29.659-.778,1.059-.642C359.5,116.574,359.5,117.436,359.5,117.49Z" transform="translate(-152.844 -47.784)" fill="#313a18"/>
      <path id="Path_7546" data-name="Path 7546" d="M380.382,105.941s6.319.9,8.764-1.321C389.146,104.62,386.007,112.389,380.382,105.941Z" transform="translate(-169.331 -39.215)" fill="#a4c53a"/>
      <path id="Path_7547" data-name="Path 7547" d="M304.517,98.1s5.688,2.9,8.719,1.589C313.236,99.692,307.75,106.026,304.517,98.1Z" transform="translate(-114.118 -34.472)" fill="#a4c53a"/>
      <path id="Path_7548" data-name="Path 7548" d="M379.873,108.8a10.026,10.026,0,0,1,2.205-1,13.956,13.956,0,0,1,2.36-.558,11.984,11.984,0,0,1,2.432-.1,7.941,7.941,0,0,1,2.38.5c-.815.043-1.594.067-2.374.137s-1.55.161-2.323.274-1.545.234-2.321.366S380.677,108.678,379.873,108.8Z" transform="translate(-168.961 -41.028)" fill="#a2b33a"/>
      <path id="Path_7549" data-name="Path 7549" d="M303.148,100.2a10.028,10.028,0,0,1,2.418-.146,13.977,13.977,0,0,1,2.4.325,11.985,11.985,0,0,1,2.308.775,7.938,7.938,0,0,1,2.043,1.32c-.776-.252-1.512-.508-2.265-.723s-1.506-.405-2.268-.576-1.526-.336-2.3-.491S303.94,100.374,303.148,100.2Z" transform="translate(-113.122 -35.878)" fill="#a2b33a"/>
      <path id="Path_7550" data-name="Path 7550" d="M421.767,75.873c-1.576-.54-2.406-2.778-1.517-3.123.608-.236,2.118.374,3,1.076.25.2.986.783.941,1.342C424.135,75.9,422.767,76.216,421.767,75.873Z" transform="translate(-198.082 -15.983)" fill="#7fac27"/>
      <path id="Path_7551" data-name="Path 7551" d="M320.2,62.84c-.371-.731,1.219-2.2,2.023-2.153.55.034.82.786.664,1.417a1.51,1.51,0,0,1-.711,1A1.608,1.608,0,0,1,320.2,62.84Z" transform="translate(-125.49 -7.241)" fill="#7fac27"/>
      <path id="Path_7552" data-name="Path 7552" d="M342.1,57.6a2.808,2.808,0,0,1-1.1-5.509,2.669,2.669,0,0,1,2.457,1.794C343.98,55.223,343.49,57.145,342.1,57.6Z" transform="translate(-139.043 -0.982)" fill="#7fac27"/>
      <path id="Path_7553" data-name="Path 7553" d="M361.284,58.991c-.646-.56-.169-1.987.873-2.831s2.545-1,2.95-.264c.324.59-.152,1.559-.757,2.181C363.48,58.972,361.944,59.563,361.284,58.991Z" transform="translate(-155.218 -3.41)" fill="#7fac27"/>
      <path id="Path_7554" data-name="Path 7554" d="M395.732,62.078c-.654.174-1.36-.055-1.435-.43s.5-.859,1.161-.947a1.083,1.083,0,0,1,1.068.358C396.712,61.382,396.4,61.9,395.732,62.078Z" transform="translate(-179.454 -7.241)" fill="#7fac27"/>
      <path id="Path_7555" data-name="Path 7555" d="M377.33,77.326a.775.775,0,1,1,.972-1.147.82.82,0,0,1,.156.918A.784.784,0,0,1,377.33,77.326Z" transform="translate(-166.823 -18.317)" fill="#7fac27"/>
    </g>
  </g>
</svg>
