<svg xmlns="http://www.w3.org/2000/svg" xmlns:xlink="http://www.w3.org/1999/xlink" width="412" height="847" viewBox="0 0 412 847">
  <defs>
    <linearGradient id="linear-gradient" x1="0.5" x2="0.5" y2="1" gradientUnits="objectBoundingBox">
      <stop offset="0" stop-color="#37aadd"/>
      <stop offset="1" stop-color="#1f64cc"/>
    </linearGradient>
    <clipPath id="clip-Success_page_26">
      <rect width="412" height="847"/>
    </clipPath>
  </defs>
  <g id="Success_page_26" data-name="Success page – 26" clip-path="url(#clip-Success_page_26)">
    <rect width="412" height="847" fill="url(#linear-gradient)"/>
    <g id="Background" transform="translate(-0.372)" style="isolation: isolate">
      <path id="Mask" d="M0,0H414a0,0,0,0,1,0,0V423a34,34,0,0,1-34,34H34A34,34,0,0,1,0,423V0A0,0,0,0,1,0,0Z" transform="translate(0.372)" fill="#102646"/>
    </g>
    <text id="Alexis_Balencesco" data-name="Alexis Balencesco" transform="translate(59 173)" fill="#fff" font-size="26" font-family="Arial-BoldItalicMT, Arial" font-weight="700" font-style="italic"><tspan x="14.831" y="24">“Success is the sum </tspan><tspan x="45.439" y="60">of small efforts, </tspan><tspan x="19.909" y="96">repeated day in and </tspan></text>
    <g id="CTA" transform="translate(51 499.438)">
      <path id="Path_7" data-name="Path 7" d="M7.473,5H304.527C308.654,5,312,9,312,13.942v30.18c0,4.939-3.346,8.942-7.473,8.942H7.473c-4.127,0-7.473-4-7.473-8.942V13.942C0,9,3.346,5,7.473,5Z" transform="translate(0 -5)" fill="#fff"/>
      <text id="Done" transform="translate(76 12.563)" fill="#1e64cc" font-size="16" font-family="ArialMT, Arial"><tspan x="60.375" y="14">Done</tspan></text>
    </g>
    <g id="CTA-2" data-name="CTA" transform="translate(51 571.502)">
      <g id="Path_7-2" data-name="Path 7" transform="translate(0 -5)" fill="none">
        <path d="M7.473,5H304.527C308.654,5,312,9,312,13.942v30.18c0,4.939-3.346,8.942-7.473,8.942H7.473c-4.127,0-7.473-4-7.473-8.942V13.942C0,9,3.346,5,7.473,5Z" stroke="none"/>
        <path d="M 7.473052978515625 6.000007629394531 C 3.903778076171875 6.000007629394531 1 9.562839508056641 1 13.94217300415039 L 1 44.12208938598633 C 1 48.50142288208008 3.903778076171875 52.06425476074219 7.473052978515625 52.06425476074219 L 304.5269470214844 52.06425476074219 C 308.0962219238281 52.06425476074219 311 48.50142288208008 311 44.12208938598633 L 311 13.94217300415039 C 311 9.562839508056641 308.0962219238281 6.000007629394531 304.5269470214844 6.000007629394531 L 7.473052978515625 6.000007629394531 M 7.473052978515625 5.000007629394531 L 304.5269470214844 5.000007629394531 C 308.6542358398438 5.000007629394531 312 9.003547668457031 312 13.94217300415039 L 312 44.12208938598633 C 312 49.06071472167969 308.6542358398438 53.06425476074219 304.5269470214844 53.06425476074219 L 7.473052978515625 53.06425476074219 C 3.345794677734375 53.06425476074219 0 49.06071472167969 0 44.12208938598633 L 0 13.94217300415039 C 0 9.003547668457031 3.345794677734375 5.000007629394531 7.473052978515625 5.000007629394531 Z" stroke="none" fill="#fff"/>
      </g>
      <text id="Back" transform="translate(76 12.563)" fill="#fff" font-size="16" font-family="Lato-Regular, Lato"><tspan x="62.532" y="16">Back</tspan></text>
    </g>
  </g>
</svg>
