<svg xmlns="http://www.w3.org/2000/svg" xmlns:xlink="http://www.w3.org/1999/xlink" width="412" height="882" viewBox="0 0 412 882">
  <defs>
    <linearGradient id="linear-gradient" x1="0.5" x2="0.5" y2="1" gradientUnits="objectBoundingBox">
      <stop offset="0" stop-color="#37aadd"/>
      <stop offset="1" stop-color="#1f64cc"/>
    </linearGradient>
    <filter id="Rectangle_1570" x="-24" y="84" width="460" height="898" filterUnits="userSpaceOnUse">
      <feOffset dy="-3" input="SourceAlpha"/>
      <feGaussianBlur stdDeviation="8" result="blur"/>
      <feFlood flood-opacity="0.039"/>
      <feComposite operator="in" in2="blur"/>
      <feComposite in="SourceGraphic"/>
    </filter>
    <filter id="Path_7" x="-3" y="701.438" width="418" height="96.064" filterUnits="userSpaceOnUse">
      <feOffset dy="3" input="SourceAlpha"/>
      <feGaussianBlur stdDeviation="8" result="blur-2"/>
      <feFlood flood-opacity="0.078"/>
      <feComposite operator="in" in2="blur-2"/>
      <feComposite in="SourceGraphic"/>
    </filter>
    <filter id="Path_7-2" x="-3" y="630.438" width="418" height="96.064" filterUnits="userSpaceOnUse">
      <feOffset dy="3" input="SourceAlpha"/>
      <feGaussianBlur stdDeviation="8" result="blur-3"/>
      <feFlood flood-opacity="0.078"/>
      <feComposite operator="in" in2="blur-3"/>
      <feComposite in="SourceGraphic"/>
    </filter>
    <clipPath id="clip-Task_habit_6">
      <rect width="412" height="882"/>
    </clipPath>
  </defs>
  <g id="Task_habit_6" data-name="Task/habit – 6" clip-path="url(#clip-Task_habit_6)">
    <rect width="412" height="882" fill="url(#linear-gradient)"/>
    <g transform="matrix(1, 0, 0, 1, 0, 0)" filter="url(#Rectangle_1570)">
      <path id="Rectangle_1570-2" data-name="Rectangle 1570" d="M30,0H382a30,30,0,0,1,30,30V850a0,0,0,0,1,0,0H0a0,0,0,0,1,0,0V30A30,30,0,0,1,30,0Z" transform="translate(0 111)" fill="#102646"/>
    </g>
    <text id="Create_New_Habit" data-name="Create New Habit" transform="translate(20 39)" fill="#fff" font-size="24" font-family="Arial-BoldMT, Arial" font-weight="700"><tspan x="0" y="22">Create New Habit</tspan></text>
    <text id="Pending_task" data-name="Pending task" transform="translate(20 391)" fill="#fff" font-size="18" font-family="Arial-BoldMT, Arial" font-weight="700"><tspan x="0" y="16">Pending task</tspan></text>
    <text id="Set_reminder" data-name="Set reminder" transform="translate(20 307)" fill="#fff" font-size="18" font-family="Arial-BoldMT, Arial" font-weight="700"><tspan x="0" y="16">Set reminder</tspan></text>
    <text id="Priority" transform="translate(20 474)" fill="#fff" font-size="18" font-family="Arial-BoldMT, Arial" font-weight="700"><tspan x="0" y="16">Priority</tspan></text>
    <text id="Start_Goal" data-name="Start Goal" transform="translate(20 150)" fill="#fff" font-size="18" font-family="Arial-BoldMT, Arial" font-weight="700"><tspan x="0" y="16">Start Goal</tspan></text>
    <text id="End_Goal" data-name="End Goal" transform="translate(20 223)" fill="#fff" font-size="18" font-family="Arial-BoldMT, Arial" font-weight="700"><tspan x="0" y="16">End Goal</tspan></text>
    <g id="Group_2760" data-name="Group 2760" transform="translate(-35 -382)">
      <text id="Show_until_the_task_completed" data-name="Show until the task completed" transform="translate(55 806)" fill="#fff" font-size="14" font-family="ArialMT, Arial"><tspan x="0" y="13">Show until the task completed</tspan></text>
    </g>
    <g id="Group_2762" data-name="Group 2762" transform="translate(-35 -466)">
      <text id="_5:00_pm_-_Alarm" data-name="5:00 pm - Alarm" transform="translate(55 806)" fill="#fff" font-size="14" font-family="ArialMT, Arial"><tspan x="0" y="13">5:00 pm - Alarm</tspan></text>
    </g>
    <g id="Group_2761" data-name="Group 2761" transform="translate(-20 -299)">
      <text id="None" transform="translate(55 814)" fill="#fff" font-size="14" font-family="ArialMT, Arial"><tspan x="0" y="13">None</tspan></text>
      <text id="Normal" transform="translate(231 814)" fill="#fff" font-size="14" font-family="ArialMT, Arial"><tspan x="0" y="13">Normal</tspan></text>
      <text id="High" transform="translate(339 814)" fill="#fff" font-size="14" font-family="ArialMT, Arial"><tspan x="0" y="13">High</tspan></text>
      <g id="Group_2758" data-name="Group 2758" transform="translate(-11 48)">
        <text id="Low" transform="translate(159 766)" fill="#fff" font-size="14" font-family="ArialMT, Arial"><tspan x="0" y="13">Low</tspan></text>
        <g id="Ellipse_432" data-name="Ellipse 432" transform="translate(144 769)" fill="#0e58c7" stroke="#fff" stroke-width="4">
          <circle cx="5" cy="5" r="5" stroke="none"/>
          <circle cx="5" cy="5" r="3" fill="none"/>
        </g>
      </g>
      <g id="Ellipse_432-2" data-name="Ellipse 432" transform="translate(40 817)" fill="none" stroke="#fff" stroke-width="1">
        <circle cx="5" cy="5" r="5" stroke="none"/>
        <circle cx="5" cy="5" r="4.5" fill="none"/>
      </g>
      <g id="Ellipse_433" data-name="Ellipse 433" transform="translate(217 817)" fill="none" stroke="#fff" stroke-width="1">
        <circle cx="5" cy="5" r="5" stroke="none"/>
        <circle cx="5" cy="5" r="4.5" fill="none"/>
      </g>
      <g id="Ellipse_434" data-name="Ellipse 434" transform="translate(324 817)" fill="none" stroke="#fff" stroke-width="1">
        <circle cx="5" cy="5" r="5" stroke="none"/>
        <circle cx="5" cy="5" r="4.5" fill="none"/>
      </g>
    </g>
    <g id="Group_3530" data-name="Group 3530">
      <g id="Rectangle_1583" data-name="Rectangle 1583" transform="translate(260 150)" fill="none" stroke="#fff" stroke-width="1">
        <rect width="110" height="35" rx="5" stroke="none"/>
        <rect x="0.5" y="0.5" width="109" height="34" rx="4.5" fill="none"/>
      </g>
      <g id="Group_2759" data-name="Group 2759" transform="translate(282.248 157.025)">
        <text id="Today" transform="translate(20.916 16)" fill="#fff" font-size="16" font-family="ArialMT, Arial"><tspan x="0" y="0">Today</tspan></text>
        <path id="Icon_ionic-md-calendar" data-name="Icon ionic-md-calendar" d="M16.3,12.572H12.572V16.3H16.3ZM15.055,4.5V5.742H8.846V4.5H6.984V5.742H6.052A1.557,1.557,0,0,0,4.5,7.294V17.85A1.557,1.557,0,0,0,6.052,19.4h11.8A1.557,1.557,0,0,0,19.4,17.85V7.294A1.557,1.557,0,0,0,17.85,5.742h-.931V4.5ZM17.85,17.85H6.052V9.622h11.8Z" transform="translate(-4.5 -0.827)" fill="#fff"/>
      </g>
    </g>
    <g id="Group_2778" data-name="Group 2778">
      <g id="Rectangle_1600" data-name="Rectangle 1600" transform="translate(260 223)" fill="none" stroke="#fff" stroke-width="1">
        <rect width="110" height="35" rx="5" stroke="none"/>
        <rect x="0.5" y="0.5" width="109" height="34" rx="4.5" fill="none"/>
      </g>
      <g id="Group_2776" data-name="Group 2776" transform="translate(282.248 230.025)">
        <text id="_28_03_2021" data-name="28/03/2021" transform="translate(8.916 15)" fill="#fff" font-size="14" font-family="ArialMT, Arial"><tspan x="0" y="0">28/03/2021</tspan></text>
        <path id="Icon_ionic-md-calendar-2" data-name="Icon ionic-md-calendar" d="M16.3,12.572H12.572V16.3H16.3ZM15.055,4.5V5.742H8.846V4.5H6.984V5.742H6.052A1.557,1.557,0,0,0,4.5,7.294V17.85A1.557,1.557,0,0,0,6.052,19.4h11.8A1.557,1.557,0,0,0,19.4,17.85V7.294A1.557,1.557,0,0,0,17.85,5.742h-.931V4.5ZM17.85,17.85H6.052V9.622h11.8Z" transform="translate(-19.5 -1.827)" fill="#fff"/>
      </g>
    </g>
    <path id="Icon_awesome-toggle-on" data-name="Icon awesome-toggle-on" d="M27,4.5H13.5a13.5,13.5,0,0,0,0,27H27a13.5,13.5,0,0,0,0-27ZM27,27a9,9,0,1,1,9-9A8.995,8.995,0,0,1,27,27Z" transform="translate(329 385.5)" fill="#fff"/>
    <path id="Icon_awesome-toggle-on-2" data-name="Icon awesome-toggle-on" d="M27,4.5H13.5a13.5,13.5,0,0,0,0,27H27a13.5,13.5,0,0,0,0-27ZM27,27a9,9,0,1,1,9-9A8.995,8.995,0,0,1,27,27Z" transform="translate(329 301.5)" fill="#fff"/>
    <g id="CTA" transform="translate(21 722.438)">
      <g transform="matrix(1, 0, 0, 1, -21, -722.44)" filter="url(#Path_7)">
        <g id="Path_7-3" data-name="Path 7" transform="translate(21 717.44)" fill="none">
          <path d="M8.862,5H361.138A8.9,8.9,0,0,1,370,13.942v30.18a8.9,8.9,0,0,1-8.862,8.942H8.862A8.9,8.9,0,0,1,0,44.122V13.942A8.9,8.9,0,0,1,8.862,5Z" stroke="none"/>
          <path d="M 8.86224365234375 5.999980926513672 C 4.527008056640625 5.999980926513672 1 9.562831878662109 1 13.94218063354492 L 1 44.1220817565918 C 1 48.50143051147461 4.527008056640625 52.06428146362305 8.86224365234375 52.06428146362305 L 361.1376953125 52.06428146362305 C 365.4729919433594 52.06428146362305 369 48.50143051147461 369 44.1220817565918 L 369 13.94218063354492 C 369 9.562831878662109 365.4729919433594 5.999980926513672 361.1376953125 5.999980926513672 L 8.86224365234375 5.999980926513672 M 8.86224365234375 4.999980926513672 L 361.1376953125 4.999980926513672 C 366.0321960449219 4.999980926513672 370 9.003532409667969 370 13.94218063354492 L 370 44.1220817565918 C 370 49.06072998046875 366.0321960449219 53.06428146362305 361.1376953125 53.06428146362305 L 8.86224365234375 53.06428146362305 C 3.967742919921875 53.06428146362305 0 49.06072998046875 0 44.1220817565918 L 0 13.94218063354492 C 0 9.003532409667969 3.967742919921875 4.999980926513672 8.86224365234375 4.999980926513672 Z" stroke="none" fill="#fff"/>
        </g>
      </g>
      <text id="Back" transform="translate(105 12.563)" fill="#fff" font-size="16" font-family="ArialMT, Arial"><tspan x="61.715" y="14">Back</tspan></text>
    </g>
    <g id="CTA-2" data-name="CTA" transform="translate(21 651.438)">
      <g transform="matrix(1, 0, 0, 1, -21, -651.44)" filter="url(#Path_7-2)">
        <path id="Path_7-4" data-name="Path 7" d="M8.862,5H361.138A8.9,8.9,0,0,1,370,13.942v30.18a8.9,8.9,0,0,1-8.862,8.942H8.862A8.9,8.9,0,0,1,0,44.122V13.942A8.9,8.9,0,0,1,8.862,5Z" transform="translate(21 646.44)" fill="#ff9241"/>
      </g>
      <text id="Create" transform="translate(105 12.563)" fill="#fff" font-size="16" font-family="ArialMT, Arial"><tspan x="55.488" y="14">Create</tspan></text>
    </g>
    <path id="Path_4714" data-name="Path 4714" d="M1053,4508.186h411.151" transform="translate(-1053 -3910)" fill="none" stroke="#fff" stroke-width="2" opacity="0.206"/>
    <g id="Group_2775" data-name="Group 2775" transform="translate(19 725.438)">
      <text id="Close" transform="translate(119 79.563)" fill="#fff" font-size="16" font-family="Lato-Regular, Lato"><tspan x="60.044" y="16">Close</tspan></text>
      <path id="Icon_ionic-md-close" data-name="Icon ionic-md-close" d="M17.518,8.523l-1-1-4,4-4-4-1,1,4,4-4,4,1,1,4-4,4,4,1-1-4-4Z" transform="translate(151.956 77.956)" fill="#fff"/>
    </g>
    <text id="_60_days" data-name="60 days" transform="translate(20 255)" fill="#fff" font-size="14" font-family="ArialMT, Arial"><tspan x="0" y="13">60 days</tspan></text>
  </g>
</svg>
