<svg xmlns="http://www.w3.org/2000/svg" xmlns:xlink="http://www.w3.org/1999/xlink" width="412" height="1012" viewBox="0 0 412 1012">
  <defs>
    <linearGradient id="linear-gradient" x1="0.5" x2="0.5" y2="1" gradientUnits="objectBoundingBox">
      <stop offset="0" stop-color="#37aadd"/>
      <stop offset="1" stop-color="#1f64cc"/>
    </linearGradient>
    <filter id="Rectangle_1570" x="-24" y="200" width="460" height="833" filterUnits="userSpaceOnUse">
      <feOffset dy="-3" input="SourceAlpha"/>
      <feGaussianBlur stdDeviation="8" result="blur"/>
      <feFlood flood-opacity="0.039"/>
      <feComposite operator="in" in2="blur"/>
      <feComposite in="SourceGraphic"/>
    </filter>
    <clipPath id="clip-Task_habit_20">
      <rect width="412" height="1012"/>
    </clipPath>
  </defs>
  <g id="Task_habit_20" data-name="Task/habit – 20" clip-path="url(#clip-Task_habit_20)">
    <rect width="412" height="1012" fill="url(#linear-gradient)"/>
    <g transform="matrix(1, 0, 0, 1, 0, 0)" filter="url(#Rectangle_1570)">
      <path id="Rectangle_1570-2" data-name="Rectangle 1570" d="M30,0H382a30,30,0,0,1,30,30V785a0,0,0,0,1,0,0H0a0,0,0,0,1,0,0V30A30,30,0,0,1,30,0Z" transform="translate(0 227)" fill="#102646"/>
    </g>
    <path id="Path_4714" data-name="Path 4714" d="M1053,4508.186h411.151" transform="translate(-1053 -3786)" fill="none" stroke="#fff" stroke-width="2" opacity="0.206"/>
    <text id="Select_any" data-name="Select any" transform="translate(114 249)" fill="#fff" font-size="18" font-family="Arial-BoldMT, Arial" font-weight="700"><tspan x="47.975" y="16">Select any</tspan></text>
    <g id="Group_2922" data-name="Group 2922" transform="translate(0 -66)">
      <circle id="Ellipse_438" data-name="Ellipse 438" cx="39" cy="39" r="39" transform="translate(39 467)" fill="#edf4fd"/>
      <text id="Group" transform="translate(53 519)" fill="#0e58c7" font-size="13" font-family="ArialMT, Arial"><tspan x="7.435" y="12">Group</tspan></text>
    </g>
    <circle id="Ellipse_438-2" data-name="Ellipse 438" cx="39" cy="39" r="39" transform="translate(39 587)" fill="#edf4fd"/>
    <text id="Hobbies" transform="translate(52 639)" fill="#0e58c7" font-size="13" font-family="ArialMT, Arial"><tspan x="2.652" y="12">Hobbies</tspan></text>
    <ellipse id="Ellipse_438-3" data-name="Ellipse 438" cx="39.5" cy="39" rx="39.5" ry="39" transform="translate(167 587)" fill="#edf4fd"/>
    <text id="Alone" transform="translate(180 639)" fill="#0e58c7" font-size="13" font-family="ArialMT, Arial"><tspan x="9.875" y="12">Alone</tspan></text>
    <circle id="Ellipse_438-4" data-name="Ellipse 438" cx="39" cy="39" r="39" transform="translate(296 587)" fill="#edf4fd"/>
    <text id="Add" transform="translate(309 639)" fill="#0e58c7" font-size="13" font-family="ArialMT, Arial"><tspan x="14.935" y="12">Add</tspan></text>
    <g id="Group_2924" data-name="Group 2924" transform="translate(0 -66)">
      <ellipse id="Ellipse_438-5" data-name="Ellipse 438" cx="39.5" cy="39" rx="39.5" ry="39" transform="translate(167 561)" fill="#edf4fd"/>
      <text id="School" transform="translate(181 613)" fill="#0e58c7" font-size="13" font-family="ArialMT, Arial"><tspan x="5.625" y="12">School</tspan></text>
      <path id="Icon_awesome-school" data-name="Icon awesome-school" d="M0,6.983v8.48a.5.5,0,0,0,.5.5H2.993V5.986H1A1,1,0,0,0,0,6.983Zm11.223-1.5h-.748V4.24a.249.249,0,0,0-.249-.249h-.5a.249.249,0,0,0-.249.249v2a.249.249,0,0,0,.249.249h1.5a.249.249,0,0,0,.249-.249v-.5A.249.249,0,0,0,11.223,5.487Zm4.294-1.994L10.529.167a1,1,0,0,0-1.107,0L4.435,3.493a1,1,0,0,0-.444.83V15.962h3.99V11.472a.5.5,0,0,1,.5-.5h2.993a.5.5,0,0,1,.5.5v4.489h3.99V4.323A1,1,0,0,0,15.517,3.493ZM9.976,7.981A2.494,2.494,0,1,1,12.47,5.487,2.494,2.494,0,0,1,9.976,7.981Zm8.978-2h-2v9.976h2.494a.5.5,0,0,0,.5-.5V6.983A1,1,0,0,0,18.954,5.986Z" transform="translate(196.979 585.583)" fill="#fec429"/>
    </g>
    <g id="Group_2919" data-name="Group 2919" transform="translate(0 -66)">
      <g id="Group_2811" data-name="Group 2811" transform="translate(40 374.726)">
        <circle id="Ellipse_438-6" data-name="Ellipse 438" cx="39" cy="39" r="39" transform="translate(0 0.274)" fill="#edf4fd"/>
        <text id="Home" transform="translate(14 51.275)" fill="#0e58c7" font-size="13" font-family="ArialMT, Arial"><tspan x="8.161" y="12">Home</tspan></text>
      </g>
      <path id="home_baseline" d="M11.188,21.9V15.759h4.094V21.9H20.4V13.712h3.071L13.235,4.5,3,13.712H6.071V21.9Z" transform="translate(66 393.05)" fill="#3f72fc"/>
    </g>
    <g id="Group_2918" data-name="Group 2918" transform="translate(0 -66)">
      <ellipse id="Ellipse_438-7" data-name="Ellipse 438" cx="39.5" cy="39" rx="39.5" ry="39" transform="translate(167 375)" fill="#edf4fd"/>
      <text id="Work" transform="translate(181 426)" fill="#0e58c7" font-size="13" font-family="ArialMT, Arial"><tspan x="10.453" y="12">Work</tspan></text>
      <path id="work_baseline" d="M19.048,6.566H15.482V4.783A1.777,1.777,0,0,0,13.7,3H10.133A1.777,1.777,0,0,0,8.349,4.783V6.566H4.783A1.769,1.769,0,0,0,3.009,8.349L3,18.157A1.777,1.777,0,0,0,4.783,19.94H19.048a1.777,1.777,0,0,0,1.783-1.783V8.349A1.777,1.777,0,0,0,19.048,6.566Zm-5.349,0H10.133V4.783H13.7Z" transform="translate(194.386 394.78)" fill="#fd8418"/>
    </g>
    <g id="Group_2917" data-name="Group 2917" transform="translate(0 -66)">
      <circle id="Ellipse_438-8" data-name="Ellipse 438" cx="39" cy="39" r="39" transform="translate(296 373)" fill="#edf4fd"/>
      <text id="Friends" transform="translate(312 426)" fill="#0e58c7" font-size="13" font-family="ArialMT, Arial"><tspan x="1.826" y="12">Friends</tspan></text>
      <path id="people_round" d="M18.72,14.388a3.444,3.444,0,1,0-3.444-3.444A3.43,3.43,0,0,0,18.72,14.388Zm-9.184,0a3.444,3.444,0,1,0-3.444-3.444A3.43,3.43,0,0,0,9.536,14.388Zm0,2.3C6.861,16.684,1.5,18.027,1.5,20.7v1.722a1.151,1.151,0,0,0,1.148,1.148H16.424a1.151,1.151,0,0,0,1.148-1.148V20.7C17.572,18.027,12.211,16.684,9.536,16.684Zm9.184,0c-.333,0-.712.023-1.114.057.023.011.034.034.046.046A4.775,4.775,0,0,1,19.868,20.7v1.722a3.449,3.449,0,0,1-.207,1.148h5.947a1.151,1.151,0,0,0,1.148-1.148V20.7C26.756,18.027,21.4,16.684,18.72,16.684Z" transform="translate(320.5 388.964)" fill="#d760fb"/>
    </g>
    <g id="Group_2921" data-name="Group 2921" transform="translate(0 -66)">
      <ellipse id="Ellipse_438-9" data-name="Ellipse 438" cx="39.5" cy="39" rx="39.5" ry="39" transform="translate(167 467)" fill="#edf4fd"/>
      <text id="Date" transform="translate(180 519)" fill="#0e58c7" font-size="13" font-family="ArialMT, Arial"><tspan x="12.77" y="12">Date</tspan></text>
      <path id="Icon_awesome-heart" data-name="Icon awesome-heart" d="M18.6,3.48a5.5,5.5,0,0,0-7.508.547l-.793.817-.793-.817A5.5,5.5,0,0,0,2,3.48a5.778,5.778,0,0,0-.4,8.365l7.786,8.039a1.261,1.261,0,0,0,1.823,0L19,11.846A5.774,5.774,0,0,0,18.6,3.48Z" transform="translate(196.001 487.752)" fill="#fd4f85"/>
    </g>
    <g id="Group_2923" data-name="Group 2923" transform="translate(0 -66)">
      <circle id="Ellipse_438-10" data-name="Ellipse 438" cx="39" cy="39" r="39" transform="translate(40 561)" fill="#edf4fd"/>
      <text id="College" transform="translate(52 613)" fill="#0e58c7" font-size="13" font-family="ArialMT, Arial"><tspan x="5.458" y="12">College</tspan></text>
      <path id="Icon_awesome-university" data-name="Icon awesome-university" d="M20.473,6.12v.645a.322.322,0,0,1-.322.322h-.967v.484a.484.484,0,0,1-.484.484H2.9a.484.484,0,0,1-.484-.484V7.087H1.447a.322.322,0,0,1-.322-.322V6.12a.322.322,0,0,1,.2-.3l9.352-3.547a.322.322,0,0,1,.247,0l9.352,3.547A.322.322,0,0,1,20.473,6.12Zm-.967,12.254H2.092a.967.967,0,0,0-.967.967v.645a.322.322,0,0,0,.322.322h18.7a.322.322,0,0,0,.322-.322v-.645A.967.967,0,0,0,19.506,18.374ZM4.35,8.7v7.739H2.9a.484.484,0,0,0-.484.484v.806H19.183v-.806a.484.484,0,0,0-.484-.484H17.249V8.7h-2.58v7.739h-2.58V8.7H9.509v7.739H6.929V8.7Z" transform="translate(68.524 582.289)" fill="#12ba9d"/>
    </g>
    <g id="Group_2925" data-name="Group 2925" transform="translate(0 -66)">
      <circle id="Ellipse_438-11" data-name="Ellipse 438" cx="39" cy="39" r="39" transform="translate(296 559)" fill="#edf4fd"/>
      <text id="Chilling" transform="translate(312 613)" fill="#0e58c7" font-size="13" font-family="ArialMT, Arial"><tspan x="2.185" y="12">Chilling</tspan></text>
      <path id="Icon_awesome-umbrella-beach" data-name="Icon awesome-umbrella-beach" d="M4.208,4.993,7.933,6.349A13.185,13.185,0,0,1,13,.014,10.914,10.914,0,0,0,3.938,4.091.584.584,0,0,0,4.208,4.993ZM9.032,6.75l8.7,3.167c1.3-4.427.682-8.449-1.555-9.264a2.441,2.441,0,0,0-.842-.146c-2.116,0-4.678,2.523-6.3,6.242ZM19.02,2.206A8.272,8.272,0,0,1,19.5,4.219a15.632,15.632,0,0,1-.691,6.09l3.743,1.363a.584.584,0,0,0,.787-.517,10.92,10.92,0,0,0-4.32-8.949Zm1.4,14.133H11.71l2.369-6.51-2.194-.8L9.226,16.339H.584A.583.583,0,0,0,0,16.923V18.09a.584.584,0,0,0,.584.584H20.425a.584.584,0,0,0,.584-.584V16.923A.583.583,0,0,0,20.425,16.339Z" transform="translate(323.373 584.099)" fill="#0cb2fd"/>
    </g>
    <g id="Group_2920" data-name="Group 2920" transform="translate(0 -66)">
      <circle id="Ellipse_438-12" data-name="Ellipse 438" cx="39" cy="39" r="39" transform="translate(296 467)" fill="#edf4fd"/>
      <text id="Family" transform="translate(309 519)" fill="#0e58c7" font-size="13" font-family="ArialMT, Arial"><tspan x="7.362" y="12">Family</tspan></text>
      <path id="familyrestroom_baseline" d="M18.841,5.263A2.263,2.263,0,1,1,21.1,7.526,2.255,2.255,0,0,1,18.841,5.263ZM23.367,25.63V18.841H26.2l-2.874-8.633a2.274,2.274,0,0,0-2.15-1.55h-.136a2.263,2.263,0,0,0-2.15,1.55l-.973,2.919a3.945,3.945,0,0,1,2.059,3.451V25.63ZM14.881,13.749a1.7,1.7,0,1,0-1.7-1.7A1.695,1.695,0,0,0,14.881,13.749ZM6.96,7.526A2.263,2.263,0,1,0,4.7,5.263,2.255,2.255,0,0,0,6.96,7.526Zm2.263,18.1v-7.92h1.7V10.92A2.27,2.27,0,0,0,8.657,8.657H5.263A2.27,2.27,0,0,0,3,10.92v6.789H4.7v7.92Zm7.355,0V21.1h1.131V16.578a1.71,1.71,0,0,0-1.7-1.7H13.749a1.71,1.71,0,0,0-1.7,1.7V21.1h1.131V25.63Z" transform="translate(320 485)" fill="#fd4f85"/>
    </g>
    <g id="Icon_ionic-logo-game-controller-b" data-name="Icon ionic-logo-game-controller-b" transform="translate(64.754 605.419)">
      <path id="Path_4915" data-name="Path 4915" d="M9.116,14.386a.979.979,0,1,0,.974.979A.975.975,0,0,0,9.116,14.386Z" transform="translate(-1.665 -2.155)" fill="#42b18f"/>
      <path id="Path_4916" data-name="Path 4916" d="M24.162,14.467C23.092,10,21.962,7.63,19.7,6.959a4.5,4.5,0,0,0-1.3-.2c-1.393,0-2.366.742-4.849.742S10.095,6.757,8.7,6.757a4.451,4.451,0,0,0-1.3.2c-2.265.671-3.4,3.047-4.465,7.508s-.873,7.689.389,8.29a1.472,1.472,0,0,0,.631.141c1.095,0,2.276-1.2,3.416-2.624,1.3-1.62,1.62-1.665,5.565-1.665h1.226c3.941,0,4.268.04,5.565,1.665C20.867,21.7,22.053,22.9,23.147,22.9a1.488,1.488,0,0,0,.631-.141C25.034,22.151,25.226,18.927,24.162,14.467Zm-16.706.742a2,2,0,1,1,1.978-2A1.992,1.992,0,0,1,7.456,15.208Zm8.724-.984a1.014,1.014,0,1,1,1.014-1.014A1.014,1.014,0,0,1,16.18,14.224Zm2.215,2.215a1.012,1.012,0,1,1,1.014-1.009A1.013,1.013,0,0,1,18.395,16.439Zm0-4.43A1.014,1.014,0,1,1,19.409,11,1.014,1.014,0,0,1,18.395,12.009Zm2.215,2.215a1.014,1.014,0,1,1,1.014-1.014A1.014,1.014,0,0,1,20.61,14.224Z" fill="#42b18f"/>
    </g>
    <g id="Icon_ionic-ios-people" data-name="Icon ionic-ios-people" transform="translate(63.369 416.872)">
      <path id="Path_4917" data-name="Path 4917" d="M21.617,20.706c-.646-.231-1.7-.242-2.17-.421a3.066,3.066,0,0,1-1-.468,6.206,6.206,0,0,1-.167-1.645,2.657,2.657,0,0,0,.571-.808,8.981,8.981,0,0,0,.277-1.587s.381.162.531-.6c.127-.658.369-1,.306-1.489s-.335-.369-.335-.369a4.322,4.322,0,0,0,.335-2.159,3.454,3.454,0,0,0-3.729-3.411A3.466,3.466,0,0,0,12.5,11.16a4.386,4.386,0,0,0,.329,2.159s-.271-.115-.335.369.173.831.306,1.489c.15.768.531.6.531.6a9.067,9.067,0,0,0,.277,1.587,2.657,2.657,0,0,0,.571.808,6.206,6.206,0,0,1-.167,1.645,2.951,2.951,0,0,1-1,.462c-.462.179-1.518.2-2.17.433a4.073,4.073,0,0,0-2.644,3.879H24.255A4.065,4.065,0,0,0,21.617,20.706Z" transform="translate(-1.07)" fill="#c854fb"/>
      <path id="Path_4918" data-name="Path 4918" d="M8.477,18.515a3.919,3.919,0,0,0,1.928-.537c-.895-1.356-.41-2.938-.595-4.416a2.435,2.435,0,0,0-2.7-2.355H7.092A2.443,2.443,0,0,0,4.42,13.563c-.185,1.472.329,3.232-.589,4.416a3.626,3.626,0,0,0,1.934.479h0a2.923,2.923,0,0,1-.058.97,1.457,1.457,0,0,1-.693.317,13.391,13.391,0,0,0-1.495.416,2.43,2.43,0,0,0-1.3,2.147H6.85A4.147,4.147,0,0,1,8.7,20.587a3.876,3.876,0,0,1,1.426-.3s.219-.346-.5-.479a4.92,4.92,0,0,1-1.108-.387C8.4,19.294,8.477,18.515,8.477,18.515Z" transform="translate(0 -0.62)" fill="#c854fb"/>
      <path id="Path_4919" data-name="Path 4919" d="M25.736,18.515a3.919,3.919,0,0,1-1.928-.537c.895-1.356.41-2.938.595-4.416a2.435,2.435,0,0,1,2.7-2.355h.023a2.443,2.443,0,0,1,2.672,2.355c.185,1.472-.329,3.232.589,4.416a3.626,3.626,0,0,1-1.934.479h0a2.923,2.923,0,0,0,.058.97,1.457,1.457,0,0,0,.693.317,13.391,13.391,0,0,1,1.495.416A2.43,2.43,0,0,1,32,22.307H27.363a4.147,4.147,0,0,0-1.847-1.72,3.876,3.876,0,0,0-1.426-.3s-.219-.346.5-.479a4.92,4.92,0,0,0,1.108-.387C25.811,19.294,25.736,18.515,25.736,18.515Z" transform="translate(-3.867 -0.62)" fill="#c854fb"/>
    </g>
    <path id="addcircle_baseline" d="M13.186,3A10.186,10.186,0,1,0,23.371,13.186,10.189,10.189,0,0,0,13.186,3Zm5.093,11.2H14.2v4.074H12.167V14.2H8.093V12.167h4.074V8.093H14.2v4.074h4.074Z" transform="translate(322 606.814)" fill="#0e58c7"/>
    <path id="naturepeople_baseline" d="M22.95,10.179a6.924,6.924,0,1,0-8.081,6.815v3.9H6.956V17.923h.989V13.967a.992.992,0,0,0-.989-.989H3.989A.992.992,0,0,0,3,13.967v3.956h.989v4.945H19.815V20.89H16.847V17.053a6.924,6.924,0,0,0,6.1-6.874ZM5.473,11.989a1.484,1.484,0,1,0-1.484-1.484A1.482,1.482,0,0,0,5.473,11.989Z" transform="translate(194 605.811)" fill="#5359fb"/>
    <text id="Review_today" data-name="Review today" transform="translate(23 26)" fill="#fff" font-size="24" font-family="Arial-BoldMT, Arial" font-weight="700"><tspan x="0" y="22">Review today</tspan></text>
    <text id="Questions_2_11" data-name="Questions 2/11" transform="translate(23 87)" fill="#fff" font-size="14" font-family="ArialMT, Arial"><tspan x="0" y="13">Questions 2/11</tspan></text>
    <g id="Group_3076" data-name="Group 3076" transform="translate(-43.008 -317)">
      <rect id="Rectangle_1708" data-name="Rectangle 1708" width="353" height="5" rx="2.5" transform="translate(66.008 391)" fill="#dce9f5"/>
      <rect id="Rectangle_1709" data-name="Rectangle 1709" width="136" height="5" rx="2.5" transform="translate(66.008 391)" fill="#254069"/>
    </g>
    <g id="Group_3234" data-name="Group 3234" transform="translate(-4.848 -10.262)">
      <path id="Icon_ionic-ios-arrow-back" data-name="Icon ionic-ios-arrow-back" d="M15.217,17.7,23.926,9A1.645,1.645,0,1,0,21.6,6.674l-9.867,9.86a1.642,1.642,0,0,0-.048,2.268l9.908,9.929a1.645,1.645,0,0,0,2.33-2.323Z" transform="translate(362.579 30.069)" fill="#fff"/>
      <path id="Icon_ionic-ios-arrow-back-2" data-name="Icon ionic-ios-arrow-back" d="M3.967,11.506l8.709-8.7A1.645,1.645,0,1,0,10.346.481L.479,10.341a1.642,1.642,0,0,0-.048,2.268l9.908,9.929a1.645,1.645,0,1,0,2.33-2.323Z" transform="translate(377.472 59.28) rotate(180)" fill="#fff"/>
    </g>
    <text id="Where_you_were_and_with_whom_" data-name="Where you were and with whom ?" transform="translate(23 137)" fill="#fff" font-size="26" font-family="ArialMT, Arial"><tspan x="0" y="24">Where you were and with </tspan><tspan x="0" y="55">whom ?</tspan></text>
    <g id="Group_3380" data-name="Group 3380">
      <path id="Path_4714-2" data-name="Path 4714" d="M1053,4508.186h411.151" transform="translate(-1053 -3729)" fill="none" stroke="#fff" stroke-width="2" opacity="0.206"/>
      <g id="Group_3096" data-name="Group 3096" transform="translate(-15 -218)">
        <text id="Next" transform="translate(310 1038)" fill="#f2f5f7" font-size="20" font-family="ArialMT, Arial"><tspan x="0" y="0">Next</tspan></text>
        <path id="Icon_ionic-ios-arrow-back-3" data-name="Icon ionic-ios-arrow-back" d="M14.033,14.264l6.109-6.1a1.154,1.154,0,0,0-1.634-1.629l-6.921,6.916a1.152,1.152,0,0,0-.034,1.591L18.5,22a1.154,1.154,0,1,0,1.634-1.629Z" transform="translate(389.251 1046.266) rotate(180)" fill="#f2f5f7"/>
      </g>
      <g id="Group_3224" data-name="Group 3224" transform="translate(0 786.262)">
        <g id="Group_3212" data-name="Group 3212" transform="translate(34.47 14.737)">
          <text id="Back" transform="translate(19.06 18)" fill="#fff" font-size="18" font-family="ArialMT, Arial"><tspan x="0" y="0">Back</tspan></text>
          <path id="Icon_ionic-ios-arrow-back-4" data-name="Icon ionic-ios-arrow-back" d="M14.033,14.264l6.109-6.1a1.154,1.154,0,0,0-1.634-1.629l-6.921,6.916a1.152,1.152,0,0,0-.034,1.591L18.5,22a1.154,1.154,0,1,0,1.634-1.629Z" transform="translate(-11.251 -3.193)" fill="#fff"/>
        </g>
      </g>
    </g>
  </g>
</svg>
