<svg xmlns="http://www.w3.org/2000/svg" xmlns:xlink="http://www.w3.org/1999/xlink" width="412" height="1234" viewBox="0 0 412 1234">
  <defs>
    <filter id="Rectangle_1570" x="-24" y="84" width="460" height="1175" filterUnits="userSpaceOnUse">
      <feOffset dy="-3" input="SourceAlpha"/>
      <feGaussianBlur stdDeviation="8" result="blur"/>
      <feFlood flood-opacity="0.039"/>
      <feComposite operator="in" in2="blur"/>
      <feComposite in="SourceGraphic"/>
    </filter>
    <filter id="Path_7" x="-3" y="1092.438" width="418" height="96.064" filterUnits="userSpaceOnUse">
      <feOffset dy="3" input="SourceAlpha"/>
      <feGaussianBlur stdDeviation="8" result="blur-2"/>
      <feFlood flood-opacity="0.078"/>
      <feComposite operator="in" in2="blur-2"/>
      <feComposite in="SourceGraphic"/>
    </filter>
    <filter id="Path_7-2" x="-3" y="1021.438" width="418" height="96.064" filterUnits="userSpaceOnUse">
      <feOffset dy="3" input="SourceAlpha"/>
      <feGaussianBlur stdDeviation="8" result="blur-3"/>
      <feFlood flood-opacity="0.078"/>
      <feComposite operator="in" in2="blur-3"/>
      <feComposite in="SourceGraphic"/>
    </filter>
    <filter id="Rectangle_661" x="-25" y="180" width="460" height="587" filterUnits="userSpaceOnUse">
      <feOffset dy="30" input="SourceAlpha"/>
      <feGaussianBlur stdDeviation="15" result="blur-4"/>
      <feFlood flood-color="#2699fb" flood-opacity="0.102"/>
      <feComposite operator="in" in2="blur-4"/>
      <feComposite in="SourceGraphic"/>
    </filter>
    <clipPath id="clip-Task_habit_2">
      <rect width="412" height="1234"/>
    </clipPath>
  </defs>
  <g id="Task_habit_2" data-name="Task/habit – 2" clip-path="url(#clip-Task_habit_2)">
    <rect width="412" height="1234" fill="#f2f5f7"/>
    <rect id="Rectangle_1569" data-name="Rectangle 1569" width="412" height="847" fill="#fff"/>
    <g transform="matrix(1, 0, 0, 1, 0, 0)" filter="url(#Rectangle_1570)">
      <path id="Rectangle_1570-2" data-name="Rectangle 1570" d="M30,0H382a30,30,0,0,1,30,30V1127a0,0,0,0,1,0,0H0a0,0,0,0,1,0,0V30A30,30,0,0,1,30,0Z" transform="translate(0 111)" fill="#254069"/>
    </g>
    <path id="Path_4710" data-name="Path 4710" d="M1053,4508.186h333.151" transform="translate(-1014 -4299)" fill="none" stroke="#fff" stroke-width="1"/>
    <text id="Select_Category" data-name="Select Category" transform="translate(40 247)" fill="#fff" font-size="18" font-family="Arial-BoldMT, Arial" font-weight="700"><tspan x="0" y="16">Select Category</tspan></text>
    <text id="Pending_task" data-name="Pending task" transform="translate(40 823)" fill="#fff" font-size="18" font-family="Arial-BoldMT, Arial" font-weight="700"><tspan x="0" y="16">Pending task</tspan></text>
    <text id="Set_reminder" data-name="Set reminder" transform="translate(40 731)" fill="#fff" font-size="18" font-family="Arial-BoldMT, Arial" font-weight="700"><tspan x="0" y="16">Set reminder</tspan></text>
    <text id="Priority" transform="translate(40 914)" fill="#fff" font-size="18" font-family="Arial-BoldMT, Arial" font-weight="700"><tspan x="0" y="16">Priority</tspan></text>
    <text id="Date" transform="translate(40 627)" fill="#fff" font-size="18" font-family="Arial-BoldMT, Arial" font-weight="700"><tspan x="0" y="16">Date</tspan></text>
    <text id="Enter_Task_Name" data-name="Enter Task Name" transform="translate(40 171)" fill="#fff" font-size="18" font-family="Arial-BoldMT, Arial" font-weight="700" opacity="0.8"><tspan x="0" y="16">Enter Task Name</tspan></text>
    <text id="Create_New_Task" data-name="Create New Task" transform="translate(23 39)" fill="#0e58c7" font-size="24" font-family="Arial-BoldMT, Arial" font-weight="700"><tspan x="0" y="22">Create New Task</tspan></text>
    <g id="Rectangle_1583" data-name="Rectangle 1583" transform="translate(40 659)" fill="none" stroke="#fff" stroke-width="1">
      <rect width="110" height="35" rx="5" stroke="none"/>
      <rect x="0.5" y="0.5" width="109" height="34" rx="4.5" fill="none"/>
    </g>
    <g id="Group_2760" data-name="Group 2760" transform="translate(-13 50)">
      <text id="Show_until_the_task_completed" data-name="Show until the task completed" transform="translate(55 806)" fill="#fff" font-size="14" font-family="ArialMT, Arial"><tspan x="0" y="13">Show until the task completed</tspan></text>
    </g>
    <g id="Group_2762" data-name="Group 2762" transform="translate(-13 -42)">
      <text id="_5:00_pm_-_Alarm" data-name="5:00 pm - Alarm" transform="translate(55 806)" fill="#fff" font-size="14" font-family="ArialMT, Arial"><tspan x="0" y="13">5:00 pm - Alarm</tspan></text>
    </g>
    <g id="Group_2761" data-name="Group 2761" transform="translate(0 141)">
      <text id="None" transform="translate(55 814)" fill="#fff" font-size="14" font-family="ArialMT, Arial"><tspan x="0" y="13">None</tspan></text>
      <text id="Normal" transform="translate(231 814)" fill="#fff" font-size="14" font-family="ArialMT, Arial"><tspan x="0" y="13">Normal</tspan></text>
      <text id="High" transform="translate(339 814)" fill="#fff" font-size="14" font-family="ArialMT, Arial"><tspan x="0" y="13">High</tspan></text>
      <g id="Group_2758" data-name="Group 2758" transform="translate(-11 48)">
        <text id="Low" transform="translate(159 766)" fill="#fff" font-size="14" font-family="ArialMT, Arial"><tspan x="0" y="13">Low</tspan></text>
        <g id="Ellipse_432" data-name="Ellipse 432" transform="translate(144 769)" fill="#0e58c7" stroke="#fff" stroke-width="4">
          <circle cx="5" cy="5" r="5" stroke="none"/>
          <circle cx="5" cy="5" r="3" fill="none"/>
        </g>
      </g>
      <g id="Ellipse_432-2" data-name="Ellipse 432" transform="translate(40 817)" fill="none" stroke="#fff" stroke-width="1">
        <circle cx="5" cy="5" r="5" stroke="none"/>
        <circle cx="5" cy="5" r="4.5" fill="none"/>
      </g>
      <g id="Ellipse_433" data-name="Ellipse 433" transform="translate(217 817)" fill="none" stroke="#fff" stroke-width="1">
        <circle cx="5" cy="5" r="5" stroke="none"/>
        <circle cx="5" cy="5" r="4.5" fill="none"/>
      </g>
      <g id="Ellipse_434" data-name="Ellipse 434" transform="translate(324 817)" fill="none" stroke="#fff" stroke-width="1">
        <circle cx="5" cy="5" r="5" stroke="none"/>
        <circle cx="5" cy="5" r="4.5" fill="none"/>
      </g>
    </g>
    <g id="Group_2759" data-name="Group 2759" transform="translate(62.248 666.026)">
      <text id="Today" transform="translate(20.916 16)" fill="#fff" font-size="16" font-family="ArialMT, Arial"><tspan x="0" y="0">Today</tspan></text>
      <path id="Icon_ionic-md-calendar" data-name="Icon ionic-md-calendar" d="M16.3,12.572H12.572V16.3H16.3ZM15.055,4.5V5.742H8.846V4.5H6.984V5.742H6.052A1.557,1.557,0,0,0,4.5,7.294V17.85A1.557,1.557,0,0,0,6.052,19.4h11.8A1.557,1.557,0,0,0,19.4,17.85V7.294A1.557,1.557,0,0,0,17.85,5.742h-.931V4.5ZM17.85,17.85H6.052V9.622h11.8Z" transform="translate(-4.5 -0.827)" fill="#fff"/>
    </g>
    <path id="Icon_awesome-toggle-on" data-name="Icon awesome-toggle-on" d="M27,4.5H13.5a13.5,13.5,0,0,0,0,27H27a13.5,13.5,0,0,0,0-27ZM27,27a9,9,0,1,1,9-9A8.995,8.995,0,0,1,27,27Z" transform="translate(329 817.5)" fill="#fff"/>
    <path id="Icon_awesome-toggle-on-2" data-name="Icon awesome-toggle-on" d="M27,4.5H13.5a13.5,13.5,0,0,0,0,27H27a13.5,13.5,0,0,0,0-27ZM27,27a9,9,0,1,1,9-9A8.995,8.995,0,0,1,27,27Z" transform="translate(329 725.5)" fill="#fff"/>
    <rect id="Rectangle_1584" data-name="Rectangle 1584" width="117" height="40" rx="8" transform="translate(40 291)" fill="#fff"/>
    <rect id="Rectangle_1587" data-name="Rectangle 1587" width="117" height="40" rx="8" transform="translate(40 358)" fill="#fff"/>
    <rect id="Rectangle_1591" data-name="Rectangle 1591" width="117" height="40" rx="8" transform="translate(40 425)" fill="#fff"/>
    <rect id="Rectangle_1594" data-name="Rectangle 1594" width="117" height="40" rx="8" transform="translate(40 488)" fill="#fff"/>
    <rect id="Rectangle_1596" data-name="Rectangle 1596" width="117" height="40" rx="8" transform="translate(40 551)" fill="#fff"/>
    <rect id="Rectangle_1585" data-name="Rectangle 1585" width="117" height="40" rx="8" transform="translate(166 291)" fill="#fff"/>
    <rect id="Rectangle_1588" data-name="Rectangle 1588" width="117" height="40" rx="8" transform="translate(166 358)" fill="#fff"/>
    <rect id="Rectangle_1590" data-name="Rectangle 1590" width="117" height="40" rx="8" transform="translate(166 425)" fill="#fff"/>
    <rect id="Rectangle_1593" data-name="Rectangle 1593" width="117" height="40" rx="8" transform="translate(166 488)" fill="#fff"/>
    <rect id="Rectangle_1586" data-name="Rectangle 1586" width="93" height="40" rx="8" transform="translate(291 291)" fill="#fff"/>
    <rect id="Rectangle_1589" data-name="Rectangle 1589" width="93" height="40" rx="8" transform="translate(291 358)" fill="#fff"/>
    <rect id="Rectangle_1592" data-name="Rectangle 1592" width="93" height="40" rx="8" transform="translate(291 425)" fill="#fff"/>
    <rect id="Rectangle_1595" data-name="Rectangle 1595" width="93" height="40" rx="8" transform="translate(291 488)" fill="#fff"/>
    <text id="Task" transform="translate(95 317)" fill="#0e58c7" font-size="14" font-family="ArialMT, Arial"><tspan x="0" y="0">Task</tspan></text>
    <text id="Social" transform="translate(95 384)" fill="#0e58c7" font-size="14" font-family="ArialMT, Arial"><tspan x="0" y="0">Social</tspan></text>
    <text id="Art" transform="translate(95 451)" fill="#0e58c7" font-size="14" font-family="ArialMT, Arial"><tspan x="0" y="0">Art</tspan></text>
    <text id="Outdoor" transform="translate(95 514)" fill="#0e58c7" font-size="14" font-family="ArialMT, Arial"><tspan x="0" y="0">Outdoor</tspan></text>
    <text id="Others" transform="translate(95 577)" fill="#0e58c7" font-size="14" font-family="ArialMT, Arial"><tspan x="0" y="0">Others</tspan></text>
    <text id="Meditation" transform="translate(207 317)" fill="#0e58c7" font-size="14" font-family="ArialMT, Arial"><tspan x="0" y="0">Meditation</tspan></text>
    <text id="Health" transform="translate(207 384)" fill="#0e58c7" font-size="14" font-family="ArialMT, Arial"><tspan x="0" y="0">Health</tspan></text>
    <text id="Work" transform="translate(207 451)" fill="#0e58c7" font-size="14" font-family="ArialMT, Arial"><tspan x="0" y="0">Work</tspan></text>
    <text id="Home" transform="translate(207 514)" fill="#0e58c7" font-size="14" font-family="ArialMT, Arial"><tspan x="0" y="0">Home</tspan></text>
    <text id="Sports" transform="translate(338 317)" fill="#0e58c7" font-size="14" font-family="ArialMT, Arial"><tspan x="0" y="0">Sports</tspan></text>
    <text id="Nutrition" transform="translate(321 384)" fill="#0e58c7" font-size="14" font-family="ArialMT, Arial"><tspan x="0" y="0">Nutrition</tspan></text>
    <text id="Finance" transform="translate(321 451)" fill="#0e58c7" font-size="14" font-family="ArialMT, Arial"><tspan x="0" y="0">Finance</tspan></text>
    <text id="Study" transform="translate(321 514)" fill="#0e58c7" font-size="14" font-family="ArialMT, Arial"><tspan x="0" y="0">Study</tspan></text>
    <g id="CTA" transform="translate(21 1113.438)">
      <g transform="matrix(1, 0, 0, 1, -21, -1113.44)" filter="url(#Path_7)">
        <g id="Path_7-3" data-name="Path 7" transform="translate(21 1108.44)" fill="none">
          <path d="M8.862,5H361.138A8.9,8.9,0,0,1,370,13.942v30.18a8.9,8.9,0,0,1-8.862,8.942H8.862A8.9,8.9,0,0,1,0,44.122V13.942A8.9,8.9,0,0,1,8.862,5Z" stroke="none"/>
          <path d="M 8.86224365234375 5.999980926513672 C 4.527008056640625 5.999980926513672 1 9.562831878662109 1 13.94218063354492 L 1 44.1220817565918 C 1 48.50143051147461 4.527008056640625 52.06428146362305 8.86224365234375 52.06428146362305 L 361.1376953125 52.06428146362305 C 365.4729919433594 52.06428146362305 369 48.50143051147461 369 44.1220817565918 L 369 13.94218063354492 C 369 9.562831878662109 365.4729919433594 5.999980926513672 361.1376953125 5.999980926513672 L 8.86224365234375 5.999980926513672 M 8.86224365234375 4.999980926513672 L 361.1376953125 4.999980926513672 C 366.0321960449219 4.999980926513672 370 9.003532409667969 370 13.94218063354492 L 370 44.1220817565918 C 370 49.06072998046875 366.0321960449219 53.06428146362305 361.1376953125 53.06428146362305 L 8.86224365234375 53.06428146362305 C 3.967742919921875 53.06428146362305 0 49.06072998046875 0 44.1220817565918 L 0 13.94218063354492 C 0 9.003532409667969 3.967742919921875 4.999980926513672 8.86224365234375 4.999980926513672 Z" stroke="none" fill="#fff"/>
        </g>
      </g>
      <text id="Cancel" transform="translate(105 12.563)" fill="#fff" font-size="16" font-family="Lato-Regular, Lato"><tspan x="55.856" y="16">Cancel</tspan></text>
    </g>
    <g id="CTA-2" data-name="CTA" transform="translate(21 1042.438)">
      <g transform="matrix(1, 0, 0, 1, -21, -1042.44)" filter="url(#Path_7-2)">
        <path id="Path_7-4" data-name="Path 7" d="M8.862,5H361.138A8.9,8.9,0,0,1,370,13.942v30.18a8.9,8.9,0,0,1-8.862,8.942H8.862A8.9,8.9,0,0,1,0,44.122V13.942A8.9,8.9,0,0,1,8.862,5Z" transform="translate(21 1037.44)" fill="#ff9241"/>
      </g>
      <text id="Create" transform="translate(105 12.563)" fill="#fff" font-size="16" font-family="Lato-Regular, Lato"><tspan x="56.212" y="16">Create</tspan></text>
    </g>
    <rect id="Rectangle_1598" data-name="Rectangle 1598" width="412" height="847" fill="rgba(5,5,5,0.84)"/>
    <g id="Pop_over" data-name="Pop over" transform="translate(17 109)">
      <g transform="matrix(1, 0, 0, 1, -17, -109)" filter="url(#Rectangle_661)">
        <rect id="Rectangle_661-2" data-name="Rectangle 661" width="370" height="497" rx="10" transform="translate(20 195)" fill="#102646"/>
      </g>
      <text id="Name_of_Product" data-name="Name of Product" transform="translate(188 135)" fill="#fff" font-size="20" font-family="Arial-BoldMT, Arial" font-weight="700"><tspan x="-61.133" y="0">Set reminder</tspan></text>
      <text id="Name_of_Product-2" data-name="Name of Product" transform="translate(55 415)" fill="#fff" font-size="18" font-family="ArialMT, Arial"><tspan x="0" y="0">Reminder type</tspan></text>
      <g id="hero" transform="translate(84 188)">
        <text id="_15.00" data-name="$15.00" transform="translate(104 94)" fill="#fff" font-size="40" font-family="Arial-BoldMT, Arial" font-weight="700"><tspan x="-103.379" y="0" xml:space="preserve">12 : 00  PM</tspan></text>
        <text id="_15.00-2" data-name="$15.00" transform="translate(104 36)" fill="#fff" font-size="40" font-family="Arial-BoldMT, Arial" font-weight="700" opacity="0.25"><tspan x="-102.637" y="0" xml:space="preserve">11 : 59  AM</tspan></text>
        <text id="_15.00-3" data-name="$15.00" transform="translate(104 152)" fill="#fff" font-size="40" font-family="Arial-BoldMT, Arial" font-weight="700" opacity="0.25"><tspan x="-103.74" y="0" xml:space="preserve">01 : 01  AM</tspan></text>
      </g>
      <g id="Symbol_123_6" data-name="Symbol 123 – 6" transform="translate(201 510)">
        <rect id="Rectangle_150" data-name="Rectangle 150" width="120" height="40" rx="5" fill="#ff9241"/>
        <text id="SHARE" transform="translate(60 24)" fill="#fff" font-size="14" font-family="Arial-BoldMT, Arial" font-weight="700"><tspan x="-26.831" y="0">Confirm</tspan></text>
      </g>
      <g id="Symbol_124_2" data-name="Symbol 124 – 2" transform="translate(55 510)">
        <g id="Rectangle_151" data-name="Rectangle 151" fill="none" stroke="#fff" stroke-width="1">
          <rect width="120" height="40" rx="5" stroke="none"/>
          <rect x="0.5" y="0.5" width="119" height="39" rx="4.5" fill="none"/>
        </g>
        <text id="SKIP" transform="translate(60 24)" fill="#fff" font-size="14" font-family="Arial-BoldMT, Arial" font-weight="700"><tspan x="-22.955" y="0">Cancel</tspan></text>
      </g>
      <g id="Group_2763" data-name="Group 2763" transform="translate(55 441)">
        <text id="Name_of_Product-3" data-name="Name of Product" transform="translate(58 14)" fill="#fff" font-size="14" font-family="ArialMT, Arial"><tspan x="-34.627" y="0">Notification</tspan></text>
        <text id="Name_of_Product-4" data-name="Name of Product" transform="translate(190 15)" fill="#fff" font-size="14" font-family="ArialMT, Arial"><tspan x="-18.279" y="0">Alarm</tspan></text>
        <g id="Ellipse_435" data-name="Ellipse 435" transform="translate(0 2)" fill="none" stroke="#1e64cc" stroke-width="1">
          <circle cx="7" cy="7" r="7" stroke="none"/>
          <circle cx="7" cy="7" r="6.5" fill="none"/>
        </g>
        <g id="Ellipse_436" data-name="Ellipse 436" transform="translate(150 2)" fill="#fff" stroke="#1e64cc" stroke-width="5">
          <circle cx="7" cy="7" r="7" stroke="none"/>
          <circle cx="7" cy="7" r="4.5" fill="none"/>
        </g>
      </g>
    </g>
  </g>
</svg>
