<svg xmlns="http://www.w3.org/2000/svg" xmlns:xlink="http://www.w3.org/1999/xlink" width="412" height="1282" viewBox="0 0 412 1282">
  <defs>
    <linearGradient id="linear-gradient" x1="0.5" x2="0.5" y2="1" gradientUnits="objectBoundingBox">
      <stop offset="0" stop-color="#37aadd"/>
      <stop offset="1" stop-color="#1f64cc"/>
    </linearGradient>
    <filter id="Rectangle_1570" x="-24" y="84" width="460" height="1219" filterUnits="userSpaceOnUse">
      <feOffset dy="-3" input="SourceAlpha"/>
      <feGaussianBlur stdDeviation="8" result="blur"/>
      <feFlood flood-opacity="0.039"/>
      <feComposite operator="in" in2="blur"/>
      <feComposite in="SourceGraphic"/>
    </filter>
    <clipPath id="clip-path">
      <rect width="334" height="37" fill="none"/>
    </clipPath>
    <clipPath id="clip-path-2">
      <rect width="37" height="37" fill="none"/>
    </clipPath>
    <clipPath id="clip-Task_habit_32">
      <rect width="412" height="1282"/>
    </clipPath>
  </defs>
  <g id="Task_habit_32" data-name="Task/habit – 32" clip-path="url(#clip-Task_habit_32)">
    <rect width="412" height="1282" fill="url(#linear-gradient)"/>
    <g transform="matrix(1, 0, 0, 1, 0, 0)" filter="url(#Rectangle_1570)">
      <path id="Rectangle_1570-2" data-name="Rectangle 1570" d="M30,0H382a30,30,0,0,1,30,30V1171a0,0,0,0,1,0,0H0a0,0,0,0,1,0,0V30A30,30,0,0,1,30,0Z" transform="translate(0 111)" fill="#102646"/>
    </g>
    <path id="Path_4715" data-name="Path 4715" d="M1053,4508.186h411.151" transform="translate(-1053 -3975)" fill="none" stroke="#fff" stroke-width="2" opacity="0.206"/>
    <path id="Path_8479" data-name="Path 8479" d="M1053,4508.186h411.151" transform="translate(-1053 -4174)" fill="none" stroke="#fff" stroke-width="2" opacity="0.206"/>
    <text id="How_you_want_to_do_this_" data-name="How you want to do this ?" transform="translate(20 378)" fill="#fff" font-size="18" font-family="Arial-BoldMT, Arial" font-weight="700"><tspan x="0" y="16">How you want to do this ?</tspan></text>
    <text id="Set_Target" data-name="Set Target" transform="translate(20 151.779)" fill="#fff" font-size="18" font-family="Arial-BoldMT, Arial" font-weight="700"><tspan x="0" y="16">Set Target</tspan></text>
    <text id="How_often_you_want_to_do_this_" data-name="How often you want to do this ?" transform="translate(20 577)" fill="#fff" font-size="18" font-family="Arial-BoldMT, Arial" font-weight="700"><tspan x="0" y="16">How often you want to do this ?</tspan></text>
    <g id="Group_2770" data-name="Group 2770" transform="translate(-3 259)">
      <path id="Path_4716" data-name="Path 4716" d="M1053,4508.186h84.634" transform="translate(-877.873 -3878)" fill="none" stroke="#fff" stroke-width="1"/>
      <text id="_2" data-name="2" transform="translate(175 602)" fill="#fff" font-size="18" font-family="ArialMT, Arial" opacity="0.8"><tspan x="0" y="16">2</tspan></text>
    </g>
    <g id="Group_2773" data-name="Group 2773" transform="translate(-3 193)">
      <path id="Path_4716-2" data-name="Path 4716" d="M1053,4508.186h84.634" transform="translate(-877.873 -3878)" fill="none" stroke="#fff" stroke-width="1"/>
      <text id="_2-2" data-name="2" transform="translate(175 602)" fill="#fff" font-size="18" font-family="ArialMT, Arial" opacity="0.8"><tspan x="0" y="16">2</tspan></text>
    </g>
    <text id="day" transform="translate(273 865)" fill="#fff" font-size="18" font-family="Arial-BoldMT, Arial" font-weight="700"><tspan x="0" y="16">day</tspan></text>
    <text id="Create_New_Habit" data-name="Create New Habit" transform="translate(20 39)" fill="#fff" font-size="24" font-family="Arial-BoldMT, Arial" font-weight="700"><tspan x="0" y="22">Create New Habit</tspan></text>
    <g id="Group_2764" data-name="Group 2764" transform="translate(0 -386)">
      <text id="Yes" transform="translate(92 814)" fill="#fff" font-size="16" font-family="ArialMT, Arial"><tspan x="0" y="14">Yes</tspan></text>
      <text id="NO" transform="translate(178 814)" fill="#fff" font-size="16" font-family="ArialMT, Arial"><tspan x="0" y="14">NO</tspan></text>
      <g id="Ellipse_432" data-name="Ellipse 432" transform="translate(39 817)" fill="none" stroke="#fff" stroke-width="1">
        <circle cx="6" cy="6" r="6" stroke="none"/>
        <circle cx="6" cy="6" r="5.5" fill="none"/>
      </g>
      <g id="Group_2874" data-name="Group 2874" transform="translate(-2.939 4.061)">
        <circle id="Ellipse_462" data-name="Ellipse 462" cx="9" cy="9" r="9" transform="translate(67.939 809.939)" fill="#d2dff2"/>
        <path id="Icon_material-done" data-name="Icon material-done" d="M8.812,15.426,6.028,12.642,5.1,13.57l3.712,3.712,7.954-7.954L15.837,8.4Z" transform="translate(66.331 806.409)" fill="#254069"/>
      </g>
      <g id="Group_2875" data-name="Group 2875" transform="translate(9.667 602.667)">
        <circle id="Ellipse_461" data-name="Ellipse 461" cx="9" cy="9" r="9" transform="translate(142.333 211.333)" fill="#d2dff2"/>
        <path id="Path_4743" data-name="Path 4743" d="M3.894-13.983,0-9.137H1.665l3.109-3.895L7.789-9.137H9.61L5.669-13.983l3.706-4.581H7.71L4.789-14.88l-2.8-3.684H.2Z" transform="translate(146.822 234.242)" fill="#254069"/>
      </g>
    </g>
    <g id="Group_2767" data-name="Group 2767" transform="translate(0 -131)">
      <text id="Week" transform="translate(65 814)" fill="#fff" font-size="16" font-family="ArialMT, Arial"><tspan x="0" y="14">Week</tspan></text>
      <g id="Ellipse_432-2" data-name="Ellipse 432" transform="translate(39 817)" fill="none" stroke="#fff" stroke-width="1">
        <circle cx="6" cy="6" r="6" stroke="none"/>
        <circle cx="6" cy="6" r="5.5" fill="none"/>
      </g>
    </g>
    <g id="Group_2772" data-name="Group 2772" transform="translate(0 -185)">
      <text id="Everyday" transform="translate(65 814)" fill="#fff" font-size="16" font-family="ArialMT, Arial"><tspan x="0" y="14">Everyday</tspan></text>
      <g id="Ellipse_432-3" data-name="Ellipse 432" transform="translate(39 817)" fill="none" stroke="#fff" stroke-width="1">
        <circle cx="6" cy="6" r="6" stroke="none"/>
        <circle cx="6" cy="6" r="5.5" fill="none"/>
      </g>
    </g>
    <g id="Group_2765" data-name="Group 2765" transform="translate(0 -343)">
      <text id="By_Value" data-name="By Value" transform="translate(65 814)" fill="#fff" font-size="16" font-family="ArialMT, Arial"><tspan x="0" y="14">By Value</tspan></text>
      <g id="Ellipse_432-4" data-name="Ellipse 432" transform="translate(39 817)" fill="none" stroke="#fff" stroke-width="1">
        <circle cx="6" cy="6" r="6" stroke="none"/>
        <circle cx="6" cy="6" r="5.5" fill="none"/>
      </g>
    </g>
    <g id="Group_2768" data-name="Group 2768" transform="translate(0 -14)">
      <text id="Specific" transform="translate(65 814)" fill="#fff" font-size="16" font-family="ArialMT, Arial"><tspan x="0" y="14">Specific</tspan></text>
      <g id="Ellipse_432-5" data-name="Ellipse 432" transform="translate(39 817)" fill="none" stroke="#fff" stroke-width="1">
        <circle cx="6" cy="6" r="6" stroke="none"/>
        <circle cx="6" cy="6" r="5.5" fill="none"/>
      </g>
    </g>
    <g id="Group_2769" data-name="Group 2769" transform="translate(0 49)">
      <text id="Repeat_Every" data-name="Repeat Every" transform="translate(65 814)" fill="#fff" font-size="16" font-family="ArialMT, Arial"><tspan x="0" y="14">Repeat Every</tspan></text>
      <g id="Ellipse_432-6" data-name="Ellipse 432" transform="translate(39 817)" fill="none" stroke="#fff" stroke-width="1">
        <circle cx="6" cy="6" r="6" stroke="none"/>
        <circle cx="6" cy="6" r="5.5" fill="none"/>
      </g>
    </g>
    <g id="Group_2766" data-name="Group 2766" transform="translate(-55 186)">
      <g id="Symbol_123_6" data-name="Symbol 123 – 6" transform="translate(76 791)">
        <rect id="Rectangle_150" data-name="Rectangle 150" width="370" height="40" rx="10" fill="#fff"/>
        <text id="SHARE" transform="translate(185 24)" fill="#0e58c7" font-size="14" font-family="Arial-BoldMT, Arial" font-weight="700"><tspan x="-15.172" y="0">Next</tspan></text>
      </g>
      <g id="Symbol_123_6-2" data-name="Symbol 123 – 6" transform="translate(76 851)">
        <g id="Rectangle_150-2" data-name="Rectangle 150" fill="none" stroke="#fff" stroke-width="1">
          <rect width="370" height="40" rx="10" stroke="none"/>
          <rect x="0.5" y="0.5" width="369" height="39" rx="9.5" fill="none"/>
        </g>
        <text id="SHARE-2" data-name="SHARE" transform="translate(185 24)" fill="#fff" font-size="14" font-family="ArialMT, Arial"><tspan x="-15.562" y="0">Back</tspan></text>
      </g>
      <g id="Group_2774" data-name="Group 2774" transform="translate(181.525 927)">
        <text id="Close" transform="translate(0.476)" fill="#fff" font-size="16" font-family="Lato-Regular, Lato"><tspan x="60.044" y="16">Close</tspan></text>
        <path id="Icon_ionic-md-close" data-name="Icon ionic-md-close" d="M17.518,8.523l-1-1-4,4-4-4-1,1,4,4-4,4,1,1,4-4,4,4,1-1-4-4Z" transform="translate(32.956 -1.606)" fill="#fff"/>
      </g>
    </g>
    <g id="Repeat_Grid_7" data-name="Repeat Grid 7" transform="translate(66 722)" clip-path="url(#clip-path)">
      <g id="Group_2771" data-name="Group 2771" transform="translate(-68 -563)">
        <g id="Rectangle_1599" data-name="Rectangle 1599" transform="translate(68 563)" fill="none" stroke="#fff" stroke-width="1">
          <rect width="35" height="35" rx="5" stroke="none"/>
          <rect x="0.5" y="0.5" width="34" height="34" rx="4.5" fill="none"/>
        </g>
        <text id="S" transform="translate(86 585)" fill="#fff" font-size="13" font-family="ArialMT, Arial"><tspan x="-4.335" y="0">S</tspan></text>
      </g>
      <g id="Group_2771-2" data-name="Group 2771" transform="translate(-20 -563)">
        <g id="Rectangle_1599-2" data-name="Rectangle 1599" transform="translate(68 563)" fill="none" stroke="#fff" stroke-width="1">
          <rect width="35" height="35" rx="5" stroke="none"/>
          <rect x="0.5" y="0.5" width="34" height="34" rx="4.5" fill="none"/>
        </g>
        <text id="M" transform="translate(86 585)" fill="#fff" font-size="13" font-family="ArialMT, Arial"><tspan x="-5.415" y="0">M</tspan></text>
      </g>
      <g id="Group_2771-3" data-name="Group 2771" transform="translate(28 -563)">
        <g id="Rectangle_1599-3" data-name="Rectangle 1599" transform="translate(68 563)" fill="none" stroke="#fff" stroke-width="1">
          <rect width="35" height="35" rx="5" stroke="none"/>
          <rect x="0.5" y="0.5" width="34" height="34" rx="4.5" fill="none"/>
        </g>
        <text id="T" transform="translate(86 585)" fill="#fff" font-size="13" font-family="ArialMT, Arial"><tspan x="-3.97" y="0">T</tspan></text>
      </g>
      <g id="Group_2771-4" data-name="Group 2771" transform="translate(76 -563)">
        <g id="Rectangle_1599-4" data-name="Rectangle 1599" transform="translate(68 563)" fill="none" stroke="#fff" stroke-width="1">
          <rect width="35" height="35" rx="5" stroke="none"/>
          <rect x="0.5" y="0.5" width="34" height="34" rx="4.5" fill="none"/>
        </g>
        <text id="W" transform="translate(86 585)" fill="#fff" font-size="13" font-family="ArialMT, Arial"><tspan x="-6.135" y="0">W</tspan></text>
      </g>
      <g id="Group_2771-5" data-name="Group 2771" transform="translate(124 -563)">
        <g id="Rectangle_1599-5" data-name="Rectangle 1599" transform="translate(68 563)" fill="none" stroke="#fff" stroke-width="1">
          <rect width="35" height="35" rx="5" stroke="none"/>
          <rect x="0.5" y="0.5" width="34" height="34" rx="4.5" fill="none"/>
        </g>
        <text id="T-2" data-name="T" transform="translate(86 585)" fill="#fff" font-size="13" font-family="ArialMT, Arial"><tspan x="-3.97" y="0">T</tspan></text>
      </g>
      <g id="Group_2771-6" data-name="Group 2771" transform="translate(172 -563)">
        <g id="Rectangle_1599-6" data-name="Rectangle 1599" transform="translate(68 563)" fill="none" stroke="#fff" stroke-width="1">
          <rect width="35" height="35" rx="5" stroke="none"/>
          <rect x="0.5" y="0.5" width="34" height="34" rx="4.5" fill="none"/>
        </g>
        <text id="F" transform="translate(86 585)" fill="#fff" font-size="13" font-family="ArialMT, Arial"><tspan x="-3.97" y="0">F</tspan></text>
      </g>
      <g id="Group_2771-7" data-name="Group 2771" transform="translate(220 -563)">
        <g id="Rectangle_1599-7" data-name="Rectangle 1599" transform="translate(68 563)" fill="none" stroke="#fff" stroke-width="1">
          <rect width="35" height="35" rx="5" stroke="none"/>
          <rect x="0.5" y="0.5" width="34" height="34" rx="4.5" fill="none"/>
        </g>
        <text id="S-2" data-name="S" transform="translate(86 585)" fill="#fff" font-size="13" font-family="ArialMT, Arial"><tspan x="-4.335" y="0">S</tspan></text>
      </g>
    </g>
    <g id="Repeat_Grid_8" data-name="Repeat Grid 8" transform="translate(66 722)" clip-path="url(#clip-path-2)">
      <g id="Group_2771-8" data-name="Group 2771" transform="translate(-68 -563)">
        <g id="Rectangle_1599-8" data-name="Rectangle 1599" transform="translate(68 563)" fill="#fff" stroke="#fff" stroke-width="1">
          <rect width="35" height="35" rx="5" stroke="none"/>
          <rect x="0.5" y="0.5" width="34" height="34" rx="4.5" fill="none"/>
        </g>
        <text id="S-3" data-name="S" transform="translate(86 585)" fill="#0e58c7" font-size="13" font-family="ArialMT, Arial"><tspan x="-4.335" y="0">S</tspan></text>
      </g>
    </g>
    <text id="Week-2" data-name="Week" transform="translate(273 800)" fill="#fff" font-size="18" font-family="Arial-BoldMT, Arial" font-weight="700"><tspan x="0" y="16">Week</tspan></text>
    <path id="Icon_feather-chevron-down" data-name="Icon feather-chevron-down" d="M9,13.5l6.994,6.994L22.988,13.5" transform="translate(325.006 795.503)" fill="none" stroke="#fff" stroke-linecap="round" stroke-linejoin="round" stroke-width="2"/>
    <path id="Path_4714" data-name="Path 4714" d="M1053,4508.186h411.151" transform="translate(-1053 -3569)" fill="none" stroke="#fff" stroke-width="2" opacity="0.206"/>
    <path id="Icon_awesome-info-circle" data-name="Icon awesome-info-circle" d="M13,.563A12.44,12.44,0,1,0,25.443,13,12.442,12.442,0,0,0,13,.563ZM13,6.08A2.107,2.107,0,1,1,10.9,8.187,2.107,2.107,0,0,1,13,6.08Zm2.809,12.741a.6.6,0,0,1-.6.6H10.8a.6.6,0,0,1-.6-.6v-1.2a.6.6,0,0,1,.6-.6h.6v-3.21h-.6a.6.6,0,0,1-.6-.6V12a.6.6,0,0,1,.6-.6h3.21a.6.6,0,0,1,.6.6v5.016h.6a.6.6,0,0,1,.6.6Z" transform="translate(364.556 379.438)" fill="#d2dff2"/>
    <path id="Icon_awesome-info-circle-2" data-name="Icon awesome-info-circle" d="M13,.563A12.44,12.44,0,1,0,25.443,13,12.442,12.442,0,0,0,13,.563ZM13,6.08A2.107,2.107,0,1,1,10.9,8.187,2.107,2.107,0,0,1,13,6.08Zm2.809,12.741a.6.6,0,0,1-.6.6H10.8a.6.6,0,0,1-.6-.6v-1.2a.6.6,0,0,1,.6-.6h.6v-3.21h-.6a.6.6,0,0,1-.6-.6V12a.6.6,0,0,1,.6-.6h3.21a.6.6,0,0,1,.6.6v5.016h.6a.6.6,0,0,1,.6.6Z" transform="translate(364.556 152.776)" fill="#d2dff2"/>
    <g id="Group_3608" data-name="Group 3608" transform="translate(-43 -87.814)">
      <path id="Path_4712" data-name="Path 4712" d="M1053,4508.186h174.151" transform="translate(-855 -4188)" fill="none" stroke="#fff" stroke-width="1"/>
      <path id="Path_4713" data-name="Path 4713" d="M1053,4508.186h103.457" transform="translate(-989.873 -4130)" fill="none" stroke="#fff" stroke-width="1"/>
      <text id="eg.1" transform="translate(198 292)" fill="#fff" font-size="18" font-family="ArialMT, Arial" opacity="0.8"><tspan x="0" y="16">eg.1</tspan></text>
      <text id="At_least" data-name="At least" transform="translate(63 292)" fill="#fff" font-size="18" font-family="ArialMT, Arial"><tspan x="0" y="16">At least</tspan></text>
      <text id="eg.times" transform="translate(63 350)" fill="#fff" font-size="18" font-family="ArialMT, Arial" opacity="0.8"><tspan x="0" y="16">eg.times</tspan></text>
      <text id="a_day." data-name="a day." transform="translate(181 350)" fill="#fff" font-size="18" font-family="Arial-BoldMT, Arial" font-weight="700"><tspan x="0" y="16">a day.</tspan></text>
      <path id="Icon_feather-chevron-down-2" data-name="Icon feather-chevron-down" d="M9,13.5l6.994,6.994L22.988,13.5" transform="translate(133.006 287.504)" fill="none" stroke="#fff" stroke-linecap="round" stroke-linejoin="round" stroke-width="2"/>
    </g>
  </g>
</svg>
