<svg xmlns="http://www.w3.org/2000/svg" width="59" height="59" viewBox="0 0 59 59">
  <g id="Group_1194" data-name="Group 1194" transform="translate(0 0)">
    <circle id="Ellipse_14" data-name="Ellipse 14" cx="29.5" cy="29.5" r="29.5" transform="translate(0 0)" fill="#254069"/>
    <g id="_029-mental_health" data-name="029-mental health" transform="translate(20.999 19.694)">
      <g id="Group_1208" data-name="Group 1208" transform="translate(0 0)">
        <path id="Path_1275" data-name="Path 1275" d="M117.341,4.1a3.143,3.143,0,0,0-.778-3.2A3.093,3.093,0,0,0,112.2.9a.6.6,0,0,1-.447.188A.627.627,0,0,1,111.32.9a3.093,3.093,0,0,0-4.366,0,3.143,3.143,0,0,0-.778,3.2c.724,2.7,4.035,5.419,5.483,5.808a.381.381,0,0,0,.2,0C113.306,9.519,116.617,6.8,117.341,4.1Zm-2.99,3.209a8.29,8.29,0,0,1-2.592,1.831,8.29,8.29,0,0,1-2.592-1.831A8.066,8.066,0,0,1,106.913,3.9a2.387,2.387,0,0,1,.581-2.461,2.33,2.33,0,0,1,3.286,0,1.387,1.387,0,0,0,.954.412,1.369,1.369,0,0,0,1-.412,2.33,2.33,0,0,1,3.286,0A2.387,2.387,0,0,1,116.6,3.9,8.066,8.066,0,0,1,114.351,7.309Z" transform="translate(-102.983 0)" fill="#fff"/>
        <path id="Path_1276" data-name="Path 1276" d="M192.763,66.9a.908.908,0,0,0-.9.914v.807a.934.934,0,0,1-.915.95h-.018V67.662h.1a.382.382,0,1,0,0-.763h-.961a.382.382,0,0,0,0,.763h.1V69.57h-.018a.934.934,0,0,1-.915-.95v-.807a.908.908,0,0,0-.9-.914.382.382,0,0,0,0,.763.146.146,0,0,1,.137.151v.807a1.7,1.7,0,0,0,1.678,1.713h.018v1.145h-.1a.382.382,0,0,0,0,.763h.961a.382.382,0,1,0,0-.763h-.1V70.333h.018a1.7,1.7,0,0,0,1.678-1.713v-.807a.146.146,0,0,1,.137-.151.382.382,0,0,0,0-.763Z" transform="translate(-181.773 -64.346)" fill="#fff"/>
        <path id="Path_1277" data-name="Path 1277" d="M304.216,101.181l-.079,0a1.568,1.568,0,0,0-1.595,1.533l-.073,3.724a1.313,1.313,0,0,0-.67.238,9.18,9.18,0,0,0-1.26,1.138c-.245.245-.522.522-.84.827a5.729,5.729,0,0,0-1.954,4.794s0,0,0,.007v3.031a.382.382,0,0,0,.382.382h3.566a.382.382,0,0,0,.382-.382v-2.989l2.077-2.355a3.131,3.131,0,0,0,.776-2.21v-7.007A.732.732,0,0,0,304.216,101.181Zm-.052,7.738a2.382,2.382,0,0,1-.584,1.7l-2.174,2.465a.382.382,0,0,0-.1.252v2.751h-2.8v-2.646a4.982,4.982,0,0,1,1.72-4.255c.323-.31.6-.59.85-.837a8.943,8.943,0,0,1,1.137-1.038c.253-.165.342-.118.424-.069l.01.006c.02.013.062.046.076.166a4.013,4.013,0,0,1-1.425,2.491.382.382,0,1,0,.529.55,4.583,4.583,0,0,0,1.654-3.126.984.984,0,0,0-.256-.586l.079-4.018a.8.8,0,0,1,.817-.785h.042v6.976Z" transform="translate(-287.376 -97.318)" fill="#fff"/>
        <path id="Path_1278" data-name="Path 1278" d="M32.392,110.029a.382.382,0,1,0-.648.4,5.39,5.39,0,0,1,.678,3.012v2.646h-2.8v-2.751a.381.381,0,0,0-.1-.252l-2.175-2.466a2.381,2.381,0,0,1-.583-1.7v-6.976h.042a.8.8,0,0,1,.817.785l.079,4.018a.984.984,0,0,0-.256.586,4.583,4.583,0,0,0,1.654,3.125.382.382,0,0,0,.529-.55,4.014,4.014,0,0,1-1.425-2.491c.013-.12.056-.153.076-.166l.008-.005c.194-.114.405-.034,1.188.735a.382.382,0,0,0,.535-.544c-.493-.485-1-.981-1.552-1l-.073-3.724a1.568,1.568,0,0,0-1.595-1.533l-.079,0a.732.732,0,0,0-.711.732v7.007a3.13,3.13,0,0,0,.775,2.208l2.079,2.357v2.989a.382.382,0,0,0,.382.382H32.8a.382.382,0,0,0,.382-.382V113.44s0,0,0-.007A6.1,6.1,0,0,0,32.392,110.029Z" transform="translate(-26.002 -97.317)" fill="#fff"/>
        <path id="Path_1279" data-name="Path 1279" d="M146.868,294.306a.382.382,0,0,0-.382-.382h0a.382.382,0,1,0,.382.382Z" transform="translate(-141.522 -282.709)" fill="#fff"/>
      </g>
    </g>
  </g>
</svg>
