<svg xmlns="http://www.w3.org/2000/svg" width="59" height="59" viewBox="0 0 59 59">
  <g id="Group_1207" data-name="Group 1207" transform="translate(-0.354)">
    <circle id="Ellipse_14" data-name="Ellipse 14" cx="29.5" cy="29.5" r="29.5" transform="translate(0.354 0)" fill="#254069"/>
    <g id="_043-psychology" data-name="043-psychology" transform="translate(19.414 16.637)">
      <g id="Group_1209" data-name="Group 1209" transform="translate(0)">
        <path id="Path_1280" data-name="Path 1280" d="M105.038,255.147a.454.454,0,1,0,.454.454.454.454,0,0,0-.454-.454Z" transform="translate(-101.017 -243.566)" fill="#fff"/>
        <path id="Path_1281" data-name="Path 1281" d="M46.873,5.9A5.9,5.9,0,0,0,35.691,3.273c-.086,0-.172,0-.257,0a7.794,7.794,0,0,0-5.513,2.268A7.633,7.633,0,0,0,27.626,11,5.193,5.193,0,0,1,26.5,13.312a1.791,1.791,0,0,0-.366,1.93c.2.4.71.865,1.948.956v1.986a2.45,2.45,0,0,0,2.458,2.436c1.185,0,1.837.044,2.115.284s.358.828.429,1.911a.454.454,0,0,0,.453.424h6.508a.454.454,0,0,0,.453-.484c-.058-.878-.081-1.524-.078-2.1a.454.454,0,0,0-.451-.457h0a.454.454,0,0,0-.454.451c0,.483.012,1.014.05,1.679h-5.6a2.945,2.945,0,0,0-.711-2.114c-.545-.471-1.387-.505-2.709-.505a1.541,1.541,0,0,1-1.55-1.528v-.608h1.362a.454.454,0,0,0,0-.908H28.993V15.76a.454.454,0,0,0-.454-.454c-.845,0-1.441-.179-1.595-.479-.109-.212,0-.572.3-.986A5.966,5.966,0,0,0,28.534,11a6.867,6.867,0,0,1,6.8-6.818A5.9,5.9,0,0,0,42.3,11.65a6.728,6.728,0,0,1-.978,2.888,13.726,13.726,0,0,0-1.02,1.949.454.454,0,1,0,.838.35,12.826,12.826,0,0,1,.954-1.82,7.632,7.632,0,0,0,1.139-3.666A5.91,5.91,0,0,0,46.873,5.9Zm-5.9,4.993A4.993,4.993,0,1,1,45.965,5.9,5,5,0,0,1,40.973,10.893Z" transform="translate(-25.994)" fill="#fff"/>
        <path id="Path_1282" data-name="Path 1282" d="M328.135,400.239h0a.454.454,0,1,0,.454.454A.454.454,0,0,0,328.135,400.239Z" transform="translate(-313.988 -382.073)" fill="#fff"/>
        <path id="Path_1283" data-name="Path 1283" d="M293.682,70a1.08,1.08,0,0,0-1.071,1.087v.96a1.111,1.111,0,0,1-1.088,1.13H291.5V70.908h.118a.454.454,0,1,0,0-.908h-1.144a.454.454,0,1,0,0,.908h.118v2.269h-.022a1.111,1.111,0,0,1-1.088-1.13v-.96A1.08,1.08,0,0,0,288.412,70a.454.454,0,0,0,0,.908.174.174,0,0,1,.163.18v.96a2.019,2.019,0,0,0,2,2.038h.022v1.362h-.118a.454.454,0,1,0,0,.908h1.144a.454.454,0,1,0,0-.908H291.5V74.085h.022a2.019,2.019,0,0,0,2-2.038v-.96a.174.174,0,0,1,.163-.18.454.454,0,0,0,0-.908Z" transform="translate(-276.068 -66.823)" fill="#fff"/>
      </g>
    </g>
  </g>
</svg>
