<svg xmlns="http://www.w3.org/2000/svg" xmlns:xlink="http://www.w3.org/1999/xlink" width="412" height="847" viewBox="0 0 412 847">
  <defs>
    <linearGradient id="linear-gradient" x1="0.5" x2="0.5" y2="1" gradientUnits="objectBoundingBox">
      <stop offset="0" stop-color="#37aadd"/>
      <stop offset="1" stop-color="#1f64cc"/>
    </linearGradient>
    <clipPath id="clip-Onboarding_3">
      <rect width="412" height="847"/>
    </clipPath>
  </defs>
  <g id="Onboarding_3" data-name="Onboarding – 3" clip-path="url(#clip-Onboarding_3)">
    <rect width="412" height="847" fill="url(#linear-gradient)"/>
    <rect id="Rectangle_231" data-name="Rectangle 231" width="344" height="215" rx="10" transform="translate(35 240)" fill="#fff"/>
    <rect id="Rectangle_287" data-name="Rectangle 287" width="344" height="215" rx="10" transform="translate(35 498)" fill="#fff"/>
    <text id="Self_Help_zenquip_Assist" data-name="Self Help + zenquip Assist" transform="translate(207 359)" fill="#606060" font-size="18" font-family="Arial-BoldMT, Arial" font-weight="700"><tspan x="-109.947" y="0">Self Help + zenquip Assist</tspan></text>
    <text id="Psychiatrist_zenquip_Assist" data-name="Psychiatrist + zenquip Assist" transform="translate(207 619)" fill="#606060" font-size="18" font-family="Arial-BoldMT, Arial" font-weight="700"><tspan x="-122.462" y="0">Psychiatrist + zenquip Assist</tspan></text>
    <g id="Group_1194" data-name="Group 1194" transform="translate(178 263)">
      <circle id="Ellipse_14" data-name="Ellipse 14" cx="29.5" cy="29.5" r="29.5" transform="translate(0 0)" fill="#254069"/>
      <g id="_029-mental_health" data-name="029-mental health" transform="translate(20.999 19.694)">
        <g id="Group_1208" data-name="Group 1208" transform="translate(0 0)">
          <path id="Path_1275" data-name="Path 1275" d="M117.341,4.1a3.143,3.143,0,0,0-.778-3.2A3.093,3.093,0,0,0,112.2.9a.6.6,0,0,1-.447.188A.627.627,0,0,1,111.32.9a3.093,3.093,0,0,0-4.366,0,3.143,3.143,0,0,0-.778,3.2c.724,2.7,4.035,5.419,5.483,5.808a.381.381,0,0,0,.2,0C113.306,9.519,116.617,6.8,117.341,4.1Zm-2.99,3.209a8.29,8.29,0,0,1-2.592,1.831,8.29,8.29,0,0,1-2.592-1.831A8.066,8.066,0,0,1,106.913,3.9a2.387,2.387,0,0,1,.581-2.461,2.33,2.33,0,0,1,3.286,0,1.387,1.387,0,0,0,.954.412,1.369,1.369,0,0,0,1-.412,2.33,2.33,0,0,1,3.286,0A2.387,2.387,0,0,1,116.6,3.9,8.066,8.066,0,0,1,114.351,7.309Z" transform="translate(-102.983 0)" fill="#fff"/>
          <path id="Path_1276" data-name="Path 1276" d="M192.763,66.9a.908.908,0,0,0-.9.914v.807a.934.934,0,0,1-.915.95h-.018V67.662h.1a.382.382,0,1,0,0-.763h-.961a.382.382,0,0,0,0,.763h.1V69.57h-.018a.934.934,0,0,1-.915-.95v-.807a.908.908,0,0,0-.9-.914.382.382,0,0,0,0,.763.146.146,0,0,1,.137.151v.807a1.7,1.7,0,0,0,1.678,1.713h.018v1.145h-.1a.382.382,0,0,0,0,.763h.961a.382.382,0,1,0,0-.763h-.1V70.333h.018a1.7,1.7,0,0,0,1.678-1.713v-.807a.146.146,0,0,1,.137-.151.382.382,0,0,0,0-.763Z" transform="translate(-181.773 -64.346)" fill="#fff"/>
          <path id="Path_1277" data-name="Path 1277" d="M304.216,101.181l-.079,0a1.568,1.568,0,0,0-1.595,1.533l-.073,3.724a1.313,1.313,0,0,0-.67.238,9.18,9.18,0,0,0-1.26,1.138c-.245.245-.522.522-.84.827a5.729,5.729,0,0,0-1.954,4.794s0,0,0,.007v3.031a.382.382,0,0,0,.382.382h3.566a.382.382,0,0,0,.382-.382v-2.989l2.077-2.355a3.131,3.131,0,0,0,.776-2.21v-7.007A.732.732,0,0,0,304.216,101.181Zm-.052,7.738a2.382,2.382,0,0,1-.584,1.7l-2.174,2.465a.382.382,0,0,0-.1.252v2.751h-2.8v-2.646a4.982,4.982,0,0,1,1.72-4.255c.323-.31.6-.59.85-.837a8.943,8.943,0,0,1,1.137-1.038c.253-.165.342-.118.424-.069l.01.006c.02.013.062.046.076.166a4.013,4.013,0,0,1-1.425,2.491.382.382,0,1,0,.529.55,4.583,4.583,0,0,0,1.654-3.126.984.984,0,0,0-.256-.586l.079-4.018a.8.8,0,0,1,.817-.785h.042v6.976Z" transform="translate(-287.376 -97.318)" fill="#fff"/>
          <path id="Path_1278" data-name="Path 1278" d="M32.392,110.029a.382.382,0,1,0-.648.4,5.39,5.39,0,0,1,.678,3.012v2.646h-2.8v-2.751a.381.381,0,0,0-.1-.252l-2.175-2.466a2.381,2.381,0,0,1-.583-1.7v-6.976h.042a.8.8,0,0,1,.817.785l.079,4.018a.984.984,0,0,0-.256.586,4.583,4.583,0,0,0,1.654,3.125.382.382,0,0,0,.529-.55,4.014,4.014,0,0,1-1.425-2.491c.013-.12.056-.153.076-.166l.008-.005c.194-.114.405-.034,1.188.735a.382.382,0,0,0,.535-.544c-.493-.485-1-.981-1.552-1l-.073-3.724a1.568,1.568,0,0,0-1.595-1.533l-.079,0a.732.732,0,0,0-.711.732v7.007a3.13,3.13,0,0,0,.775,2.208l2.079,2.357v2.989a.382.382,0,0,0,.382.382H32.8a.382.382,0,0,0,.382-.382V113.44s0,0,0-.007A6.1,6.1,0,0,0,32.392,110.029Z" transform="translate(-26.002 -97.317)" fill="#fff"/>
          <path id="Path_1279" data-name="Path 1279" d="M146.868,294.306a.382.382,0,0,0-.382-.382h0a.382.382,0,1,0,.382.382Z" transform="translate(-141.522 -282.709)" fill="#fff"/>
        </g>
      </g>
    </g>
    <g id="Group_1207" data-name="Group 1207" transform="translate(177.646 520)">
      <circle id="Ellipse_14-2" data-name="Ellipse 14" cx="29.5" cy="29.5" r="29.5" transform="translate(0.354 0)" fill="#254069"/>
      <g id="_043-psychology" data-name="043-psychology" transform="translate(19.414 16.637)">
        <g id="Group_1209" data-name="Group 1209" transform="translate(0)">
          <path id="Path_1280" data-name="Path 1280" d="M105.038,255.147a.454.454,0,1,0,.454.454.454.454,0,0,0-.454-.454Z" transform="translate(-101.017 -243.566)" fill="#fff"/>
          <path id="Path_1281" data-name="Path 1281" d="M46.873,5.9A5.9,5.9,0,0,0,35.691,3.273c-.086,0-.172,0-.257,0a7.794,7.794,0,0,0-5.513,2.268A7.633,7.633,0,0,0,27.626,11,5.193,5.193,0,0,1,26.5,13.312a1.791,1.791,0,0,0-.366,1.93c.2.4.71.865,1.948.956v1.986a2.45,2.45,0,0,0,2.458,2.436c1.185,0,1.837.044,2.115.284s.358.828.429,1.911a.454.454,0,0,0,.453.424h6.508a.454.454,0,0,0,.453-.484c-.058-.878-.081-1.524-.078-2.1a.454.454,0,0,0-.451-.457h0a.454.454,0,0,0-.454.451c0,.483.012,1.014.05,1.679h-5.6a2.945,2.945,0,0,0-.711-2.114c-.545-.471-1.387-.505-2.709-.505a1.541,1.541,0,0,1-1.55-1.528v-.608h1.362a.454.454,0,0,0,0-.908H28.993V15.76a.454.454,0,0,0-.454-.454c-.845,0-1.441-.179-1.595-.479-.109-.212,0-.572.3-.986A5.966,5.966,0,0,0,28.534,11a6.867,6.867,0,0,1,6.8-6.818A5.9,5.9,0,0,0,42.3,11.65a6.728,6.728,0,0,1-.978,2.888,13.726,13.726,0,0,0-1.02,1.949.454.454,0,1,0,.838.35,12.826,12.826,0,0,1,.954-1.82,7.632,7.632,0,0,0,1.139-3.666A5.91,5.91,0,0,0,46.873,5.9Zm-5.9,4.993A4.993,4.993,0,1,1,45.965,5.9,5,5,0,0,1,40.973,10.893Z" transform="translate(-25.994)" fill="#fff"/>
          <path id="Path_1282" data-name="Path 1282" d="M328.135,400.239h0a.454.454,0,1,0,.454.454A.454.454,0,0,0,328.135,400.239Z" transform="translate(-313.988 -382.073)" fill="#fff"/>
          <path id="Path_1283" data-name="Path 1283" d="M293.682,70a1.08,1.08,0,0,0-1.071,1.087v.96a1.111,1.111,0,0,1-1.088,1.13H291.5V70.908h.118a.454.454,0,1,0,0-.908h-1.144a.454.454,0,1,0,0,.908h.118v2.269h-.022a1.111,1.111,0,0,1-1.088-1.13v-.96A1.08,1.08,0,0,0,288.412,70a.454.454,0,0,0,0,.908.174.174,0,0,1,.163.18v.96a2.019,2.019,0,0,0,2,2.038h.022v1.362h-.118a.454.454,0,1,0,0,.908h1.144a.454.454,0,1,0,0-.908H291.5V74.085h.022a2.019,2.019,0,0,0,2-2.038v-.96a.174.174,0,0,1,.163-.18.454.454,0,0,0,0-.908Z" transform="translate(-276.068 -66.823)" fill="#fff"/>
        </g>
      </g>
    </g>
    <text id="We_made_it_Simple" data-name="We made it Simple" transform="translate(28 69)" fill="#fff" font-size="30" font-family="Arial-BoldMT, Arial" font-weight="700"><tspan x="0" y="0">We made it Simple</tspan></text>
    <text id="We_offer_Self_help_Psychiatrist_therapy_by_consulting_doctors_and_Assist_you_step_by_step_through_our_app_to_complete_treatment." data-name="We offer Self help, Psychiatrist therapy by consulting doctors and Assist you step by step through our app to complete treatment." transform="translate(28 96)" fill="#fff" font-size="18" font-family="ArialMT, Arial"><tspan x="0" y="16">We offer Self help, Psychiatrist therapy by </tspan><tspan x="0" y="44">consulting doctors and Assist you step by </tspan><tspan x="0" y="72">step through our app to complete treatment.</tspan></text>
    <text id="_You_can_set_your_own_targets_Goals_and_track_activity." data-name=" You can set your own targets / Goals and track activity." transform="translate(57 376)" fill="#606060" font-size="16" font-family="ArialMT, Arial"><tspan x="-148.094" y="14" xml:space="preserve"> You can set your own targets / Goals and </tspan><tspan x="-45.637" y="42">track activity.</tspan></text>
    <text id="Doctor_prescribe_medication_Exercise_and_helps_to_solve_critical_conditions_" data-name="Doctor prescribe medication / Exercise and helps to solve critical conditions " transform="translate(57 636)" fill="#606060" font-size="16" font-family="ArialMT, Arial"><tspan x="-136.941" y="14">Doctor prescribe medication / Exercise </tspan><tspan x="-127.625" y="42">and helps to solve critical conditions </tspan></text>
    <g id="Group_1193" data-name="Group 1193" transform="translate(3.371 5.358)">
      <g id="Ellipse_12" data-name="Ellipse 12" transform="translate(177.629 798.642)" fill="none" stroke="#fff" stroke-width="1">
        <circle cx="4" cy="4" r="4" stroke="none"/>
        <circle cx="4" cy="4" r="3.5" fill="none"/>
      </g>
      <g id="Ellipse_13" data-name="Ellipse 13" transform="translate(191.629 798.642)" fill="#fff" stroke="#fff" stroke-width="1">
        <circle cx="4" cy="4" r="4" stroke="none"/>
        <circle cx="4" cy="4" r="3.5" fill="none"/>
      </g>
      <g id="Ellipse_91" data-name="Ellipse 91" transform="translate(206.629 798.642)" fill="none" stroke="#fff" stroke-width="1">
        <circle cx="4" cy="4" r="4" stroke="none"/>
        <circle cx="4" cy="4" r="3.5" fill="none"/>
      </g>
      <g id="Ellipse_92" data-name="Ellipse 92" transform="translate(220.629 798.642)" fill="none" stroke="#fff" stroke-width="1">
        <circle cx="4" cy="4" r="4" stroke="none"/>
        <circle cx="4" cy="4" r="3.5" fill="none"/>
      </g>
    </g>
  </g>
</svg>
