<?xml version="1.0" encoding="UTF-8"?>
<!DOCTYPE svg PUBLIC "-//W3C//DTD SVG 1.1//EN" "http://www.w3.org/Graphics/SVG/1.1/DTD/svg11.dtd">
<!-- Creator: CorelDRAW 2021 (64-Bit) -->
<svg xmlns="http://www.w3.org/2000/svg" xml:space="preserve" width="34.8827mm" height="71.7125mm" version="1.1" style="shape-rendering:geometricPrecision; text-rendering:geometricPrecision; image-rendering:optimizeQuality; fill-rule:evenodd; clip-rule:evenodd"
viewBox="0 0 2512.54 5165.33"
 xmlns:xlink="http://www.w3.org/1999/xlink"
 xmlns:xodm="http://www.corel.com/coreldraw/odm/2003">
 <defs>
  <style type="text/css">
   <![CDATA[
    .fil14 {fill:#2F92D7}
    .fil1 {fill:white}
    .fil6 {fill:#263238;fill-rule:nonzero}
    .fil9 {fill:#455A64;fill-rule:nonzero}
    .fil13 {fill:#B26746;fill-rule:nonzero}
    .fil12 {fill:#D38D6E;fill-rule:nonzero}
    .fil3 {fill:#E0E0E0;fill-rule:nonzero}
    .fil2 {fill:#EBEBEB;fill-rule:nonzero}
    .fil4 {fill:whitesmoke;fill-rule:nonzero}
    .fil5 {fill:#FF725E;fill-rule:nonzero}
    .fil11 {fill:white;fill-rule:nonzero}
    .fil8 {fill:white;fill-rule:nonzero;fill-opacity:0.301961}
    .fil10 {fill:white;fill-rule:nonzero;fill-opacity:0.600000}
    .fil7 {fill:white;fill-rule:nonzero;fill-opacity:0.701961}
    .fil0 {fill:url(#id0)}
   ]]>
  </style>
  <linearGradient id="id0" gradientUnits="userSpaceOnUse" x1="1256.27" y1="5165.33" x2="1256.27" y2="0">
   <stop offset="0" style="stop-opacity:1; stop-color:#1F64CC"/>
   <stop offset="1" style="stop-opacity:1; stop-color:#37AADD"/>
  </linearGradient>
 </defs>
 <g id="Layer_x0020_1">
  <metadata id="CorelCorpID_0Corel-Layer"/>
  <rect class="fil0" x="-0" y="0" width="2512.54" height="5165.33"/>
  <g id="_2495645748032">
   <circle class="fil1" cx="1121.5" cy="4998.59" r="25.05"/>
   <g>
    <path class="fil1" d="M1211.34 4973.54c13.84,0 25.04,11.21 25.04,25.04 0,13.84 -11.21,25.04 -25.04,25.04 -13.84,0 -25.04,-11.21 -25.04,-25.04 0,-13.84 11.21,-25.04 25.04,-25.04zm13.4 11.65c-3.42,-3.42 -8.17,-5.55 -13.4,-5.55 -5.23,0 -9.98,2.12 -13.4,5.55 -3.42,3.42 -5.55,8.17 -5.55,13.4 0,5.23 2.12,9.98 5.55,13.4 3.42,3.42 8.17,5.55 13.4,5.55 5.23,0 9.98,-2.12 13.4,-5.55 3.42,-3.42 5.55,-8.17 5.55,-13.4 0,-5.23 -2.12,-9.98 -5.55,-13.4z"/>
   </g>
   <g>
    <path class="fil1" d="M1301.18 4973.54c13.84,0 25.04,11.21 25.04,25.04 0,13.84 -11.21,25.04 -25.04,25.04 -13.84,0 -25.04,-11.21 -25.04,-25.04 0,-13.84 11.21,-25.04 25.04,-25.04zm13.4 11.65c-3.42,-3.42 -8.17,-5.55 -13.4,-5.55 -5.23,0 -9.98,2.12 -13.4,5.55 -3.42,3.42 -5.55,8.17 -5.55,13.4 0,5.23 2.12,9.98 5.55,13.4 3.42,3.42 8.17,5.55 13.4,5.55 5.23,0 9.98,-2.12 13.4,-5.55 3.42,-3.42 5.55,-8.17 5.55,-13.4 0,-5.23 -2.12,-9.98 -5.55,-13.4z"/>
   </g>
   <g>
    <path class="fil1" d="M1391.02 4973.54c13.84,0 25.04,11.21 25.04,25.04 0,13.84 -11.21,25.04 -25.04,25.04 -13.84,0 -25.04,-11.21 -25.04,-25.04 0,-13.84 11.21,-25.04 25.04,-25.04zm13.4 11.65c-3.42,-3.42 -8.17,-5.55 -13.4,-5.55 -5.23,0 -9.98,2.12 -13.4,5.55 -3.42,3.42 -5.55,8.17 -5.55,13.4 0,5.23 2.12,9.98 5.55,13.4 3.42,3.42 8.17,5.55 13.4,5.55 5.23,0 9.98,-2.12 13.4,-5.55 3.42,-3.42 5.55,-8.17 5.55,-13.4 0,-5.23 -2.12,-9.98 -5.55,-13.4z"/>
   </g>
  </g>
  <g>
   <g>
    <path id="Path_1435" class="fil2" d="M1529.39 3452.29c-66.81,-37.45 -89.06,-117.1 -93.8,-190.19 -0.79,-12.18 -3.41,-24.88 1.3,-36.11 4.7,-11.24 17.52,-19.89 28.92,-15.72 9.43,3.34 14.42,13.44 20.32,21.65 7.91,10.89 18.76,19.36 31.25,24.4 3.82,1.95 8.07,2.97 12.37,2.97 4.47,0 8.88,-1.1 12.82,-3.2 9.9,-6.84 9.71,-21.48 8.45,-33.52l-7.15 -67.58c-0.95,-5.99 -1.43,-12.07 -1.43,-18.14 0,-6.06 0.48,-12.16 1.43,-18.14 2.06,-12.12 9.93,-22.48 21.06,-27.71 2.73,-1.1 5.65,-1.67 8.59,-1.67 9.25,0 17.58,5.58 21.1,14.13 0.95,4.95 1.58,9.98 1.84,15.02 0.35,5.14 3.77,9.57 8.65,11.23 4.91,0.94 9.47,-2.99 12.73,-6.88 10.62,-14.02 18.94,-29.75 24.53,-46.44 5.57,-16.7 13.13,-32.73 22.47,-47.68 9.41,-14.97 24.51,-25.54 41.82,-29.22 17.21,-2.67 36.74,6.12 42.84,22.74 6.09,16.61 -2.16,34.89 -11.79,49.79 -14.04,22.05 -31.2,42 -50.88,59.16 -3.91,2.68 -6.85,6.55 -8.41,11.03 -1.84,8.33 6.6,15.72 14.81,17.45 5.3,0.6 10.67,0.91 16.03,0.91 4.18,0 8.38,-0.19 12.55,-0.55 9.55,0.16 20.15,3.34 24.6,11.78 6.21,11.78 -2.87,25.81 -12.18,35.37 -18.66,19.02 -40.54,34.7 -64.53,46.33 -8.94,3.34 -17.19,8.41 -24.2,14.86 -4.47,4.26 -6.99,10.16 -6.99,16.33 0,3.48 0.81,6.92 2.36,10.04 5.15,8.1 16.58,9.71 25.74,7.07 8.85,-3.49 17.43,-7.8 25.53,-12.79 16,-7.85 37.57,-8.92 49.63,4.36 5.55,6.86 8.59,15.43 8.59,24.24 0,3.1 -0.37,6.19 -1.12,9.21 -2.94,11.47 -8.18,22.27 -15.36,31.71 -23.17,34.24 -55.1,61.79 -92.38,79.65 -37.21,17.21 -72.58,24.36 -112.31,14.19l0.23 -0.07zm0 0l0 0 0 0z" data-name="Path 1435"/>
   </g>
   <g>
    <path id="Path_1436" class="fil3" d="M1543.69 3404.74c7.98,-40.69 18.66,-81.44 31.45,-120.99 3.36,-10.46 6.65,-20.93 9.85,-31.41 3.26,-10.26 6.53,-20.43 10.29,-30.18 7.25,-18.65 15.68,-37.05 24.91,-54.79 8.77,-17.06 17.73,-32.93 26.18,-47.67 8.45,-14.74 16.7,-28.37 24.68,-40.48 12.47,-19.1 26.6,-37.27 41.95,-54.16 5.42,-5.97 9.78,-10.49 12.81,-13.48l3.41 -3.42c0.35,-0.42 0.76,-0.79 1.2,-1.11 -0.29,0.47 -0.65,0.89 -1.06,1.26l-3.26 3.58c-2.91,3.1 -7.15,7.86 -12.5,13.75 -14.99,16.99 -28.88,35.35 -41.21,54.43 -7.86,12.11 -15.99,25.71 -24.4,40.52 -8.41,14.82 -17.25,30.66 -25.97,47.67 -9.23,17.75 -17.46,36.11 -24.69,54.69 -3.93,9.71 -6.94,19.65 -10.21,30.1 -3.26,10.44 -6.53,20.7 -9.86,31.24 -12.55,39.52 -23.24,79.95 -31.47,120.65l-2.1 -0.2zm0 0l0 0 0 0z" data-name="Path 1436"/>
   </g>
   <path id="Path_1437" class="fil3" d="M1595.88 3222.16c-0.76,-1.61 -1.33,-3.31 -1.7,-5.06 -0.97,-3.31 -2.24,-8.1 -3.7,-14.02 -2.87,-11.79 -6.32,-28.43 -10.11,-46.65 -3.79,-18.22 -7.39,-34.66 -10.49,-46.45 -1.48,-5.93 -2.79,-10.69 -3.73,-13.94 -0.59,-1.68 -0.99,-3.42 -1.18,-5.19 0.87,1.54 1.55,3.2 2,4.91 1.22,3.16 2.72,7.86 4.42,13.8 3.5,11.78 7.43,28.17 11.16,46.44l9.47 46.75 2.95 14.15c0.5,1.71 0.8,3.48 0.89,5.26l0.01 0z" data-name="Path 1437"/>
   <path id="Path_1438" class="fil3" d="M1748.46 3177.64c-1.99,0.64 -4.05,1.11 -6.12,1.38 -3.93,0.74 -9.67,1.81 -16.7,3.34 -14.1,2.95 -33.4,7.86 -54.5,13.89 -21.1,6.04 -39.92,12.63 -53.4,17.73 -6.76,2.48 -12.17,4.6 -15.95,6.09 -1.89,0.86 -3.88,1.57 -5.89,2.08 1.75,-1.16 3.62,-2.14 5.57,-2.91 3.66,-1.73 9,-3.93 15.72,-6.8 13.36,-5.42 32.18,-12.14 53.32,-18.39 18.01,-5.32 36.35,-9.79 54.82,-13.25 7.11,-1.34 12.89,-2.16 16.9,-2.64 1.94,-0.35 3.93,-0.53 5.91,-0.53 0.12,0 0.22,0 0.34,0l0 0.01z" data-name="Path 1438"/>
   <path id="Path_1439" class="fil3" d="M1545.34 3401.67c-0.48,-0.55 -0.9,-1.15 -1.27,-1.77l-3.22 -5.38c-2.74,-4.64 -6.6,-11.52 -11.24,-20.05 -9.27,-17.09 -21.33,-41.06 -34.31,-67.71 -12.97,-26.65 -24.76,-50.69 -33.67,-67.94l-10.62 -20.4 -2.82 -5.54c-0.38,-0.62 -0.68,-1.3 -0.87,-2 0.49,0.54 0.91,1.14 1.27,1.77l3.15 5.38c2.79,4.63 6.64,11.51 11.28,20.04 9.23,17.06 21.3,41.06 34.26,67.71 12.97,26.65 24.8,50.69 33.72,67.94 4.32,8.37 7.86,15.25 10.57,20.36l2.87 5.57c0.39,0.63 0.69,1.3 0.89,2.01l0 0z" data-name="Path 1439"/>
   <path id="Path_1440" class="fil3" d="M1745.32 3314.55c-0.61,0.42 -1.27,0.78 -1.97,1.06l-5.82 2.59 -21.41 9.39c-18.08,7.86 -42.91,19.14 -70.38,31.44 -27.47,12.3 -52.39,23.58 -70.75,30.95 -9.11,3.93 -16.54,6.76 -21.69,8.72l-5.98 2.2c-0.66,0.32 -1.38,0.54 -2.12,0.63 0.6,-0.44 1.26,-0.79 1.96,-1.06l5.82 -2.59 21.38 -9.36c18.12,-7.86 42.95,-19.14 70.38,-31.44 27.43,-12.3 52.43,-23.58 70.75,-30.95 9.12,-3.93 16.54,-6.76 21.73,-8.69l5.94 -2.24c0.68,-0.32 1.41,-0.55 2.17,-0.67l0 0.01z" data-name="Path 1440"/>
   <path id="Path_1442" class="fil2" d="M551.82 2120.53c5.11,-4.2 10.89,-7.53 17.1,-9.82 9.26,-3.67 19.14,-5.58 29.11,-5.58 8.08,0 16.13,1.25 23.83,3.69 12.07,3.72 23.11,10.28 32.14,19.1 15.51,15.21 24.27,36.05 24.27,57.79 0,44.69 -36.24,80.94 -80.93,80.94 -32.02,0 -61.04,-18.88 -74,-48.15 -4.6,-10.25 -6.99,-21.39 -6.99,-32.62 0,-1.33 0.04,-2.69 0.1,-4.02 0.91,-18.16 8.1,-35.47 20.32,-48.93 4.29,-4.94 9.38,-9.15 15.05,-12.42 -4.75,4.33 -9.35,9.01 -13.63,13.81 -11.33,13.43 -17.84,30.31 -18.47,47.87 -0.03,0.86 -0.04,1.76 -0.04,2.63 0,42.52 34.48,77 76.99,77 42.52,0 77,-34.48 77,-77 0,-33.19 -21.28,-62.66 -52.79,-73.09 -8.05,-2.68 -16.49,-4.07 -24.98,-4.07 -8.97,0 -17.91,1.54 -26.35,4.54 -6.04,2.46 -12.01,5.28 -17.73,8.36l0.01 -0.03z" data-name="Path 1442"/>
   <path id="Path_1443" class="fil2" d="M532.67 2016.63c-0.76,-0.53 -1.48,-1.13 -2.15,-1.77 -1.57,-1.38 -3.66,-3.15 -6.32,-5.57l-24.84 -22.21 0.9 0 -60.28 42.36 0.4 -1.38 16.82 41.22 0.32 0.74 -0.55 0.59c-10.25,12.16 -18.89,25.67 -25.62,40.08l-0.39 0.83 -0.94 -0.01 -44.48 2.05 1.53 -1.34c-3.93,22.83 -8.45,47.16 -12.97,72.5l-1.06 -1.89 40.98 17.33 1.06 0.42 0 1.14c1.32,15.89 4.76,31.55 10.21,46.53l0.43 1.14 -0.83 0.86 -30.03 32.84 0 -2.53 42.2 60.48 -2.52 -0.75 41.26 -16.7 1.22 -0.47 0.99 0.83c12.08,10.26 25.55,18.95 39.93,25.66l1.18 0.55 0 1.34c0.58,13.9 1.26,29.12 1.96,44.48l-1.84 -2.08 72.5 13.09 -2.47 1.34 17.56 -40.95 0.55 -1.26 1.33 -0.01c15.79,-1.26 31.43,-4.65 46.34,-10.02l-0.01 0.01 1.3 -0.48 0.99 0.9 32.81 30.1 -2.83 -0.19 60.55 -41.93 -0.79 2.67c-5.63,-13.89 -11.17,-27.66 -16.62,-41.29l-0.51 -1.22 0.86 -1.02c10.26,-12.09 18.96,-25.51 25.7,-39.87l0.55 -1.22 1.33 -0.01 44.48 -1.9 -2.05 1.77c4.51,-24.76 8.93,-48.91 13.27,-72.46l1.22 2.28 -40.94 -17.49 -1.14 -0.47 0 -1.19c-1.22,-15.89 -4.68,-31.66 -10.11,-46.64l-0.39 -1.09 0.79 -0.86 30.14 -32.77 0 2.36 -41.85 -60.64 2.08 0.63 -41.32 16.48 -0.9 0.35 -0.75 -0.63c-12.09,-10.34 -25.58,-19.08 -39.96,-25.9l-0.83 -0.35 0 -0.9c-0.67,-16.19 -1.22,-30.73 -1.77,-44.48l1.1 1.26 -72.65 -13.44 1.12 -0.55c-7.07,16.31 -12.85,29.69 -17.68,40.88l0 0.39 -0.4 0c-11.94,0.89 -23.82,2.95 -35.37,6.09l-8.56 2.52c-0.93,0.32 -1.88,0.61 -2.83,0.83 0.86,-0.47 1.78,-0.86 2.71,-1.18 1.84,-0.67 4.67,-1.69 8.49,-2.87 11.59,-3.49 23.57,-5.79 35.63,-6.83l-0.58 0.43c4.67,-11.2 10.29,-24.68 17.17,-41.06l0.28 -0.74 0.83 -0.01 72.11 13 1.02 0 0 1.1c0.63,13.75 1.3,28.29 2.09,44.44l-0.86 -1.26c14.72,6.86 28.58,15.72 40.99,26.21l-1.66 -0.27 41.23 -16.74 1.29 -0.51 0.79 1.14 42.09 60.44 0.86 1.26 -1.02 1.1 -30.02 32.84 0.39 -2c5.55,15.28 9.04,31.27 10.33,47.47l-1.22 -1.74 40.98 17.37 1.53 0.67 -0.31 1.65c-4.24,23.58 -8.6,47.73 -13.08,72.46l-0.28 1.69 -1.74 0 -44.48 1.97 1.89 -1.27c-6.88,14.74 -15.75,28.52 -26.29,40.9l0.39 -2.28c5.5,13.66 11.06,27.41 16.67,41.27l0.67 1.65 -1.49 1.02 -60.52 42.01 -1.49 1.02 -1.34 -1.22 -32.8 -30.1 2.31 0.48 0 -0.01c-15.26,5.47 -31.28,8.95 -47.46,10.26l1.89 -1.38c-5.98,14.07 -11.78,28.02 -17.45,40.95l-0.71 1.65 -1.77 -0.32 -72.46 -13.17 -1.73 -0.32 0 -1.76c-0.67,-15.36 -1.3,-30.58 -1.89,-44.48l1.26 1.89c-14.69,-6.91 -28.47,-15.78 -40.84,-26.32l2.2 0.35 -41.3 16.58 -1.57 0.63 -0.94 -1.38 -42.09 -60.44 -0.9 -1.34 1.09 -1.18 30.22 -32.74 -0.39 1.97c-5.48,-15.26 -8.92,-31.27 -10.17,-47.44l1.14 1.57 -40.95 -17.52 -1.29 -0.55 0.23 -1.41c4.67,-25.43 9.12,-49.63 13.33,-72.42l0.23 -1.29 1.28 -0.01 44.44 -1.84 -1.29 0.86c6.9,-14.66 15.77,-28.33 26.32,-40.62l-0.23 1.38 -16.54 -41.34 -0.39 -0.74 0.74 -0.51 60.8 -41.62 0.51 -0.32 0.39 0.4 24 22.39 6.17 5.9c0.79,0.67 1.53,1.41 2.21,2.2l-0.08 -0.01z" data-name="Path 1443"/>
   <path id="Path_1444" class="fil3" d="M725.86 1752.2c6.51,-5.42 13.76,-9.95 21.48,-13.44l1.33 -23.58 38.27 -6.45 8.92 21.73c8.43,0.77 16.77,2.69 24.68,5.69l17.49 -15.72 31.44 22.47 -8.85 22c5.4,6.47 9.95,13.65 13.45,21.31l23.58 1.34 6.48 38.28 -21.73 8.92c-0.76,8.43 -2.7,16.76 -5.7,24.68l15.72 17.48 -22.52 31.44 -21.62 -9.04c-6.51,5.42 -13.74,9.97 -21.47,13.45l-1.29 23.58 -38.28 6.45 -8.92 -21.73c-8.44,-0.76 -16.77,-2.7 -24.68,-5.7l-17.49 15.72 -31.67 -22.52 9.08 -21.62c-5.42,-6.5 -9.95,-13.76 -13.44,-21.47l-23.58 -1.34 -6.45 -38.27 21.73 -8.92c0.68,-8.38 2.51,-16.66 5.38,-24.56l-15.75 -17.46 22.52 -31.63 21.66 9.04 0.22 -0.12z" data-name="Path 1444"/>
   <path id="Path_1445" class="fil3" d="M754.03 1800.26c1.78,-2.96 4.03,-5.61 6.68,-7.83 7.16,-6.35 16.33,-10.04 25.9,-10.42 0.45,-0.01 0.92,-0.03 1.38,-0.03 23.54,0 42.63,19.09 42.63,42.63 0,18.35 -11.76,34.66 -29.17,40.46 -4.06,1.38 -8.33,2.11 -12.63,2.12 -0.32,0.01 -0.66,0.01 -0.99,0.01 -3.8,0 -7.59,-0.54 -11.24,-1.59 -7.35,-2.12 -14.02,-6.21 -19.25,-11.78 -4.58,-4.8 -7.97,-10.62 -9.86,-16.98 -1.18,-3.9 -1.79,-7.97 -1.79,-12.06 0,-5.42 1.07,-10.79 3.13,-15.8 1.27,-3.18 3.03,-6.14 5.23,-8.76 -1.64,2.96 -3.15,6.06 -4.42,9.2 -1.7,4.6 -2.57,9.48 -2.57,14.39 0,4.3 0.67,8.59 1.98,12.68 4.21,13.15 14.79,23.28 28.1,26.92 3.36,0.95 6.84,1.44 10.33,1.44 0.42,0 0.85,-0.01 1.26,-0.03 4,-0.05 8,-0.75 11.79,-2.04 16.63,-5.42 27.9,-20.93 27.9,-38.43 0,-0.18 -0.01,-0.37 -0.01,-0.54 0,-4.08 -0.68,-8.15 -1.97,-12.01 -1.17,-3.72 -2.91,-7.25 -5.14,-10.45 -7.68,-11.09 -20.32,-17.73 -33.81,-17.73 -9.57,0 -18.84,3.34 -26.2,9.43 -2.57,2.23 -5.02,4.65 -7.27,7.2z" data-name="Path 1445"/>
   <path id="Path_1446" class="fil3" d="M725.85 1752.2l-1.38 -0.51 -3.91 -1.61 -16.26 -6.56 0.43 0 -22.34 31.8 0 -0.74 15.72 17.41 0.27 0.31 0 0.4c-2.91,7.88 -4.77,16.14 -5.53,24.51l0 0.48 -0.43 0.01 -21.69 9 0.51 -0.94c2.08,12.06 4.24,24.84 6.56,38.27l-0.86 -0.78 23.58 1.26 0.58 0 0.28 0.55c3.46,7.63 7.97,14.79 13.33,21.23l0.39 0.47 -0.23 0.59 -9.78 21.69 -0.35 -1.29 31.79 22.47 -1.42 0 17.49 -15.72 0.51 -0.48 0.63 0.24c7.83,2.92 16.05,4.81 24.36,5.57l0.71 0 0.27 0.63 8.92 21.73 -1.22 -0.43 38.28 -6.45 -0.99 1.1c0.39,-7.39 0.86,-15.41 1.29,-23.58l0 -0.74 0.67 -0.28c7.63,-3.46 14.78,-7.94 21.23,-13.27l-0.01 0 0.55 -0.47 0.67 0.27 21.69 9 -1.42 0.42c7.58,-10.68 15.08,-21.16 22.52,-31.43l0 1.45 -15.72 -17.49 -0.47 -0.51 0.23 -0.67c2.93,-7.82 4.83,-16.05 5.62,-24.36l0.01 -0.69 0.63 -0.28 21.73 -8.92 -0.71 1.26c-2.2,-13.09 -4.34,-25.87 -6.4,-38.3l1.45 0.66 -23.58 -1.34 -0.67 0 -0.28 -0.58c-3.43,-7.64 -7.92,-14.82 -13.27,-21.26l-0.39 -0.48 0.23 -0.58 9.08 -21.62 0.35 1.18 -31.44 -22.56 1.14 0 -17.53 15.72 -0.39 0.35 -0.51 -0.19c-7.84,-2.95 -16.09,-4.88 -24.44,-5.69l-0.51 0 0 -0.42 -8.88 -21.73 0.78 0.42 -38.3 6.32 0.42 -0.51c-0.58,9.35 -1.06,17.06 -1.45,23.57l0 0.24 -0.23 0c-5.78,2.59 -11.36,5.75 -16.54,9.39l-3.93 2.79 -1.29 0.9c0.37,-0.38 0.76,-0.73 1.18,-1.07 0.79,-0.71 2,-1.69 3.7,-2.95 5.11,-3.82 10.63,-7.11 16.43,-9.78l0 0.32c0.31,-6.41 0.66,-14.07 1.13,-23.58l0 -0.43 0.39 0 38.28 -6.64 0.55 0 0.24 0.51c2.74,6.72 5.68,13.84 9,21.69l-0.66 -0.48c8.51,0.74 16.91,2.64 24.91,5.62l-0.9 0 17.49 -15.72 0.51 -0.47 0.63 0.43 31.25 22.47 0.63 0.47 -0.28 0.71 -9 21.6 0 -1.02c5.5,6.56 10.11,13.87 13.64,21.66l-0.9 -0.63 23.58 1.3 0.86 0 0 0.89c2.11,12.47 4.26,25.22 6.48,38.28l0 0.89 -0.83 0.35 -21.62 8.79 0.74 -0.94c-0.79,8.53 -2.72,16.96 -5.73,24.99l-0.24 -1.22 15.72 17.49 0.63 0.71 -0.55 0.79 -22.52 31.43 -0.55 0.79 -0.86 -0.39 -21.65 -9.04 1.21 0c-6.58,5.6 -13.93,10.34 -21.77,14l0.71 -1.02c-0.48,7.86 -0.9,16.03 -1.34,23.58l0 0.94 -0.94 -0.01 -38.28 6.45 -0.98 -0.01 -0.35 -0.86c-3.06,-7.5 -6.13,-14.89 -8.92,-21.69l0.98 0.71c-8.51,-0.8 -16.93,-2.74 -24.94,-5.77l1.13 -0.01 -17.48 15.72 -0.67 0.63 -0.75 -0.55 -31.43 -22.52 -0.71 -0.51 0.31 -0.79 9.08 -21.62 0 1.02c-5.44,-6.59 -9.99,-13.9 -13.52,-21.69l0.83 0.58 -23.57 -1.38 -0.76 0 0 -0.75c-2.24,-13.44 -4.36,-26.25 -6.37,-38.31l0 -0.67 0.63 -0.23 21.73 -8.88 -0.48 0.67c0.81,-8.48 2.77,-16.87 5.78,-24.84l0 0.71 -15.72 -17.57 -0.32 -0.35 0.28 -0.39 22.67 -31.44 0 -0.24 0.27 0 16.02 6.89 3.93 1.81c0.64,0.05 1.28,0.17 1.89,0.35l0.03 -0.01z" data-name="Path 1446"/>
   <path id="Path_1447" class="fil3" d="M1962.55 2086.07c6.53,-5.39 13.76,-9.94 21.48,-13.44l1.29 -23.57 38.31 -6.48 8.92 21.73c8.43,0.79 16.76,2.71 24.69,5.68l17.48 -15.72 31.63 22.52 -9.04 21.66c5.39,6.52 9.94,13.76 13.43,21.47l23.58 1.3 6.45 38.31 -21.69 8.92c-0.79,8.42 -2.7,16.72 -5.68,24.63l15.7 17.49 -22.52 31.63 -21.65 -9.04c-6.53,5.38 -13.79,9.93 -21.48,13.43l-1.3 23.58 -38.31 6.45 -8.92 -21.69c-8.42,-0.81 -16.75,-2.72 -24.68,-5.68l-17.49 15.72 -31.63 -22.52 9.04 -21.66c-5.38,-6.53 -9.92,-13.79 -13.43,-21.49l-23.58 -1.29 -6.44 -38.31 21.69 -8.92c0.81,-8.41 2.72,-16.74 5.68,-24.67l-15.72 -17.49 22.52 -31.43 21.66 9.04 0.02 -0.16z" data-name="Path 1447"/>
   <path id="Path_1448" class="fil3" d="M1990.69 2134.28c1.76,-2.95 4.01,-5.61 6.63,-7.85 7.68,-6.71 17.55,-10.41 27.75,-10.41 6.01,0 11.96,1.29 17.44,3.77 15.15,6.93 24.88,22.06 24.88,38.73 0,18.42 -11.86,34.76 -29.35,40.48 -4.29,1.44 -8.79,2.17 -13.31,2.17 -3.9,0 -7.79,-0.54 -11.53,-1.61 -7.37,-2.13 -14.04,-6.2 -19.3,-11.79 -4.56,-4.79 -7.93,-10.6 -9.82,-16.93 -1.2,-3.92 -1.81,-8 -1.81,-12.09 0,-5.42 1.07,-10.8 3.14,-15.81 1.25,-3.23 3.03,-6.24 5.27,-8.88 -1.62,2.98 -3.12,6.1 -4.42,9.23 -1.7,4.6 -2.57,9.47 -2.57,14.38 0,4.29 0.68,8.57 1.98,12.66 1.92,6.04 5.24,11.54 9.66,16.07 5.03,5.14 11.34,8.86 18.28,10.74 3.44,0.97 7,1.46 10.57,1.46 0.33,0 0.66,-0.01 0.99,-0.01 4,-0.09 7.99,-0.79 11.78,-2.08 16.57,-5.51 27.75,-21.01 27.75,-38.47 0,-8.19 -2.49,-16.2 -7.12,-22.95 -7.59,-11.09 -20.18,-17.73 -33.62,-17.73 -0.35,0 -0.7,0.01 -1.03,0.01 -9.26,0.21 -18.19,3.52 -25.35,9.39 -2.41,2.36 -4.74,4.9 -6.87,7.53l0 0z" data-name="Path 1448"/>
   <path id="Path_1449" class="fil3" d="M1962.55 2086.06c-0.48,-0.1 -0.94,-0.27 -1.38,-0.47l-4.13 -1.66 -16.31 -6.56 0.48 0.01 -22.32 31.75 0 -0.74 15.72 17.41 0.32 0.32 0 0.39c-2.92,7.87 -4.79,16.15 -5.54,24.53l0 0.48 -0.42 0.19 -21.69 8.96 0.51 -0.91c2.08,12.01 4.24,24.84 6.56,38.28l-0.9 -0.79 23.58 1.27 0.58 -0.01 0.23 0.51c3.46,7.63 7.97,14.78 13.33,21.22l0.43 0.47 -0.28 0.59 -9 21.65 -0.35 -1.26 31.67 22.47 -1.38 0 17.45 -15.72 0.51 -0.43 0.67 0.24c7.84,2.91 16.06,4.79 24.37,5.54l0.71 0 0.28 0.67c2.79,6.8 5.81,14.19 8.92,21.69l-1.3 -0.71 38.31 -6.48 -0.99 1.09c0.4,-7.39 0.83,-15.36 1.3,-23.58l0 -0.74 0.67 -0.28c7.6,-3.46 14.72,-7.94 21.14,-13.26l0.01 0 0.55 -0.43 0.67 0.28 21.65 9.03 -1.45 0.4 22.52 -31.63 0 1.49 -15.72 -17.53 -0.47 -0.51 0.23 -0.66c2.93,-7.82 4.83,-16.05 5.63,-24.37l0 -0.71 0.66 -0.27 21.69 -8.88 -0.67 1.22c-2.2,-13.09 -4.34,-25.85 -6.4,-38.28l1.02 0.91 -23.58 -1.34 -0.63 0 -0.27 -0.59c-3.46,-7.61 -7.94,-14.77 -13.27,-21.21l-0.31 -0.19 0.23 -0.55 9.08 -21.65 0.32 1.18c-11.08,-7.86 -21.57,-15.44 -31.44,-22.55l1.14 -0.01 -17.53 15.72 -0.39 0.35 -0.48 0c-7.85,-2.96 -16.09,-4.88 -24.44,-5.68l-0.48 0 -0.19 -0.43c-3.16,-7.86 -6.09,-15.05 -8.85,-21.77l0.79 0.43 -38.31 6.32 0.43 -0.51c-0.59,9.39 -1.07,17.06 -1.45,23.57l0 0.24 -0.14 0c-5.79,2.59 -11.36,5.75 -16.55,9.39l-3.93 2.79c-0.37,0.35 -0.8,0.66 -1.25,0.9l1.13 -1.06c0.83,-0.67 2.01,-1.69 3.7,-2.95 5.13,-3.8 10.67,-7.1 16.47,-9.78l-0.23 0.35c0.32,-6.4 0.71,-14.1 1.18,-23.58l0 -0.43 0.42 0 38.28 -6.6 0.55 0 0.19 0.55 9 21.65 -0.63 -0.47c8.5,0.76 16.88,2.66 24.87,5.62l-0.86 0.19 17.45 -15.72 0.55 -0.51 0.59 0.43 31.71 22.44 0.63 0.47 -0.32 0.75c-2.9,7.04 -5.89,14.23 -9,21.65l0 -1.06c5.47,6.6 10.07,13.91 13.63,21.69l-0.94 -0.63 23.58 1.26 0.86 0.01 0 0.86c2.1,12.47 4.26,25.24 6.48,38.31l0 0.86 -0.86 0.35 -21.81 8.33 0.71 -0.99c-0.76,8.54 -2.69,16.97 -5.68,25l-0.24 -1.18c5.19,5.73 10.37,11.78 15.72,17.45l0.63 0.71 -0.51 0.79 -22.54 31.63 -0.55 0.78 -0.9 -0.35 -21.62 -9.04 1.22 -0.19 0 0c-6.57,5.48 -13.89,10.06 -21.69,13.58l0.66 -1.02c-0.42,7.86 -0.86,16.03 -1.29,23.58l0 0.94 -0.94 0.01 -38.31 6.44 -0.9 0 -0.35 -0.9 -9.08 -21.48 0.99 0.71c-8.53,-0.8 -16.97,-2.74 -25,-5.73l1.19 -0.24 -17.53 15.72 -0.67 0.59 -0.71 -0.51 -31.44 -22.56 -0.71 -0.51 0.32 -0.79c3.16,-7.5 6.32,-14.9 9.08,-21.62l0 1.12c-5.44,-6.61 -9.99,-13.94 -13.51,-21.73l0.83 0.58 -23.58 -1.38 -0.75 0 0 -0.71c-2.2,-13.48 -4.36,-26.25 -6.37,-38.31l0 -0.67 0.63 -0.27 21.73 -8.85 -0.51 0.63c0.79,-8.48 2.77,-16.88 5.81,-24.85l0 0.71 -15.72 -17.57 -0.35 -0.35 0.32 -0.4 22.67 -31.43 0.2 -0.24 0.27 0.01 16 6.88 3.93 1.84c0.62,0.12 1.22,0.32 1.79,0.6l0 -0.01z" data-name="Path 1449"/>
   <path id="Path_1450" class="fil4" d="M494.19 1786.86c3.9,-3.26 8.23,-5.97 12.86,-8.05l0.78 -14.03 22.91 -3.93 5.34 13.04c5.05,0.48 10.03,1.64 14.78,3.41l10.45 -9.39 18.96 13.48 -5.42 12.97c3.16,3.91 5.81,8.24 7.86,12.84l14.02 0.79 3.9 22.92 -12.97 5.34c-0.46,5.04 -1.64,10.03 -3.41,14.77l9.44 10.44 -13.36 18.95 -12.77 -5.5c-3.9,3.18 -8.24,5.83 -12.84,7.87l-0.82 14.02 -22.91 3.93 -5.34 -13.01c-5.03,-0.47 -10.03,-1.61 -14.77,-3.38l-10.46 9.33 -18.96 -13.48 5.39 -12.97c-3.19,-3.9 -5.83,-8.23 -7.86,-12.85l-14.02 -0.78 -3.93 -22.9 13.01 -5.34c0.41,-4.95 1.45,-9.85 3.11,-14.53l-9.39 -10.58 13.32 -18.82 12.97 5.42 0.14 0z" data-name="Path 1450"/>
   <path id="Path_1451" class="fil4" d="M511.06 1815.63c1.05,-1.77 2.38,-3.37 3.93,-4.73 4.35,-3.85 9.91,-6.06 15.72,-6.24 0.31,-0.01 0.63,-0.02 0.93,-0.02 13.92,0 25.27,11.14 25.52,25.05 0,0.14 0.01,0.3 0.01,0.45 0,11.03 -7.09,20.83 -17.57,24.27 -2.44,0.81 -5,1.25 -7.58,1.26 -0.16,0 -0.33,0.01 -0.49,0.01 -2.3,0 -4.6,-0.32 -6.82,-0.95 -4.39,-1.25 -8.39,-3.65 -11.55,-6.94 -2.73,-2.87 -4.75,-6.35 -5.89,-10.14 -0.71,-2.33 -1.07,-4.77 -1.07,-7.2 0,-3.26 0.65,-6.5 1.9,-9.5 0.74,-1.93 1.82,-3.73 3.15,-5.3 -0.97,1.78 -1.86,3.63 -2.64,5.5 -1.02,2.75 -1.54,5.68 -1.54,8.61 0,2.57 0.4,5.14 1.19,7.58 1.14,3.62 3.12,6.92 5.78,9.63 4.57,4.71 10.85,7.38 17.42,7.38 2.61,0 5.21,-0.42 7.69,-1.25 9.92,-3.27 16.62,-12.55 16.62,-22.99 0,-0.13 0,-0.26 0,-0.38 -0.01,-2.45 -0.42,-4.88 -1.19,-7.2 -0.69,-2.22 -1.73,-4.34 -3.06,-6.24 -2.52,-3.54 -5.94,-6.37 -9.9,-8.18 -3.24,-1.53 -6.79,-2.33 -10.36,-2.33 -0.21,0 -0.43,0.01 -0.64,0.01 -5.55,0.16 -10.91,2.16 -15.21,5.69 -2.88,2.38 -4.21,4.27 -4.34,4.16z" data-name="Path 1451"/>
   <path id="Path_1452" class="fil4" d="M494.2 1786.86l-0.83 -0.32 -2.47 -0.94 -9.75 -3.93 0.28 0 -13.36 19.02 0 -0.43 9.39 10.42 0 0.42c-1.71,4.72 -2.83,9.66 -3.3,14.66l0 0.28 -0.24 -0.01 -13 5.38 0.31 -0.55c1.27,7.23 2.58,14.87 3.93,22.91l-0.51 -0.48 14.01 0.76 0.35 0 0 0.31c2.07,4.55 4.72,8.82 7.87,12.7l0.28 0.31 0 0.32c-1.69,3.93 -3.54,8.46 -5.38,12.97l-0.24 -0.75 19.18 13.48 -0.84 -0.01 10.49 -9.35 0.28 -0.28 0.39 0c4.71,1.72 9.64,2.84 14.62,3.3l0.37 0.01 0 0.39 5.34 13.01 -0.74 -0.43 22.91 -3.93 -0.59 0.66c0.24,-4.42 0.51,-9.19 0.79,-14.02l0 0.04 0.39 0c4.54,-2.04 8.8,-4.69 12.64,-7.86l-0.01 0 0.35 -0.28 0.4 0 12.97 5.42 -0.86 0.23 13.48 -18.95 0 0.86 -9.23 -10.88 -0.27 0 0 -0.39c1.84,-4.75 3.05,-9.72 3.58,-14.77l0 -0.55 0.38 -0.01 13.01 -5.34 -0.43 0.74c-1.3,-7.86 -2.61,-15.49 -3.93,-22.91l0.63 0.55 -14.03 -0.83 -0.39 0 0 -0.35c-2.03,-4.57 -4.68,-8.86 -7.86,-12.73l-0.23 -0.27 0 -0.35 5.39 -12.96 0.19 0.74 -18.9 -13.51 0.67 0 -10.49 9.31 -0.23 0.24 -0.28 0c-4.67,-1.82 -9.62,-3.03 -14.61,-3.57l-0.32 -0.01 0 -0.27 -5.42 -13.13 0.47 0.24 -22.95 3.93 0.28 -0.31c-0.35,5.62 -0.63,10.21 -0.86,14.02l0 0c-3.51,1.56 -6.9,3.48 -10.06,5.69l-2.28 1.65 -0.75 0.55c0.21,-0.24 0.44,-0.46 0.67,-0.67 0.48,-0.39 1.22,-0.99 2.25,-1.73 3.04,-2.31 6.34,-4.29 9.82,-5.86l0 0.01c0.19,-3.93 0.39,-8.46 0.67,-14.03l0 0.04 0.23 0 22.91 -3.93 0.35 0.01 0 0.31 5.39 12.97 -0.39 -0.27c5.09,0.34 10.13,1.4 14.93,3.1l-0.51 0 10.45 -9.39 0.32 -0.28 0.35 0.24 18.95 13.44 0.39 0.27 -0.19 0.43c-1.73,4.21 -3.54,8.53 -5.38,12.97l0 -0.63c3.31,3.93 6.06,8.3 8.2,12.97l-0.55 -0.35 14.02 0.75 0.51 0 0 0.51c1.26,7.47 2.57,15.1 3.93,22.91l0 0.55 -0.51 0 -13.01 5.34 0.43 -0.55c-0.48,5.09 -1.64,10.13 -3.42,14.93l0 -0.71 9.36 10.45 0.39 0.43 -0.35 0.48 -13.52 19.41 -0.35 0.47 -0.51 -0.23 -12.97 -5.42 0.74 0c-3.93,3.28 -8.3,6.02 -12.96,8.13l0.39 -0.63c-0.27,4.83 -0.51,9.63 -0.78,14.03l0 0.59 -0.56 0 -22.91 3.93 -0.52 0 -0.23 -0.55c-1.81,-4.48 -3.66,-8.92 -5.31,-12.97l0.55 0.39c-5.09,-0.46 -10.13,-1.62 -14.92,-3.42l0.7 0.01c-3.65,3.22 -7.23,6.4 -10.49,9.35l-0.4 0.36 -0.51 -0.32 -18.74 -13.6 -0.39 -0.27 0 -0.48 5.42 -12.97 0 0.63c-3.24,-3.94 -5.98,-8.3 -8.1,-12.95l0.51 0.32 -14.02 -0.79 -0.48 0 0 -0.43c-1.34,-7.86 -2.64,-15.72 -3.93,-22.95l0 -0.39 0.35 0 13.04 -5.31 -0.31 0.39c0.48,-5.08 1.66,-10.09 3.46,-14.86l0 0.39 -9.36 -10.49 0 -0.44c5.5,-7.86 10.11,-14.03 13.56,-18.86l0 0 9.59 4.13 2.43 1.06c0.04,0 0.08,0 0.12,0 0.4,0 0.8,0.05 1.19,0.16l0.02 0.01z" data-name="Path 1452"/>
   <path id="Path_1453" class="fil2" d="M2003.39 2335.05c3.9,-3.24 8.23,-5.96 12.85,-8.05l0.78 -14.03 22.91 -3.93 5.34 12.97c5.04,0.47 10.03,1.64 14.77,3.41l10.49 -9.39 18.95 13.48 -5.42 12.97c3.22,3.91 5.94,8.24 8.05,12.84l14.02 0.79 3.93 22.91 -13.01 5.34c-0.46,5.05 -1.61,10.03 -3.38,14.77l9.36 10.46 -13.48 18.95 -13.04 -5.31c-3.9,3.17 -8.24,5.83 -12.84,7.86l-0.79 14.03 -22.95 3.93 -5.3 -13.01c-5.05,-0.46 -10.03,-1.6 -14.78,-3.38l-10.49 9.35 -18.95 -13.48 5.42 -12.97c-3.23,-3.9 -5.96,-8.24 -8.05,-12.85l-14.03 -0.79 -3.93 -22.91 13.01 -5.34c0.43,-5.05 1.58,-10.03 3.37,-14.78l-9.36 -10.45 13.48 -18.95 12.93 5.42 0.12 0.13z" data-name="Path 1453"/>
   <path id="Path_1454" class="fil4" d="M2020.26 2363.82c1.04,-1.78 2.36,-3.38 3.93,-4.71 4.29,-3.81 9.78,-6.02 15.51,-6.24 0.35,-0.01 0.71,-0.02 1.07,-0.02 8.3,0 16.07,4.08 20.79,10.91 2.92,4.14 4.52,9.08 4.56,14.15 0,0.17 0.01,0.35 0.01,0.51 0,5.28 -1.64,10.43 -4.68,14.74 -3.18,4.44 -7.7,7.76 -12.89,9.48 -2.43,0.82 -5.01,1.25 -7.58,1.26 -0.17,0 -0.35,0.01 -0.51,0.01 -2.29,0 -4.57,-0.32 -6.76,-0.95 -4.41,-1.24 -8.4,-3.64 -11.56,-6.94 -4.47,-4.68 -6.96,-10.91 -6.96,-17.38 0,-3.24 0.63,-6.46 1.85,-9.46 0.75,-1.92 1.82,-3.72 3.15,-5.3 -0.99,1.77 -1.89,3.62 -2.67,5.5 -1,2.74 -1.52,5.64 -1.52,8.56 0,2.59 0.41,5.17 1.21,7.63 1.12,3.63 3.1,6.94 5.78,9.63 3.04,3.1 6.85,5.36 11.04,6.53 1.97,0.55 4.02,0.84 6.07,0.84 0.28,0 0.56,-0.01 0.84,-0.02 13.18,-0.23 23.74,-10.98 23.74,-24.17 0,-0.12 -0.01,-0.27 -0.01,-0.39 -0.03,-2.43 -0.43,-4.87 -1.18,-7.19 -0.7,-2.23 -1.75,-4.34 -3.1,-6.24 -4.55,-6.65 -12.09,-10.62 -20.14,-10.62 -0.19,0 -0.39,0.01 -0.57,0.01 -5.56,0.14 -10.92,2.15 -15.21,5.68 -1.48,1.33 -2.92,2.75 -4.24,4.23z" data-name="Path 1454"/>
   <path id="Path_1455" class="fil4" d="M2003.38 2335.05l-0.83 -0.32 -2.48 -0.94 -9.75 -3.93 0.28 0 -13.36 19.02 0 -0.43 9.39 10.42 0 0 0 0.23c-1.74,4.7 -2.86,9.65 -3.31,14.65l0 0.24 -0.27 0 -12.97 5.38 0.32 -0.55c1.23,7.23 2.54,14.87 3.93,22.91l-0.51 -0.48 14.03 0.75 0.35 0 0 0.32c2.03,4.56 4.68,8.83 7.86,12.68l0.23 0.27 0 0.35c-1.65,3.93 -3.5,8.45 -5.38,12.97l-0.19 -0.74 18.95 13.71 -0.83 0.01 10.45 -9.36 0.32 -0.27 0.39 0c4.69,1.74 9.61,2.87 14.58,3.33l0.43 0.01 0 0.39c1.65,3.93 3.5,8.53 5.34,13.01l-0.79 -0.43 22.95 -3.93 -0.59 0.66c0.24,-4.42 0.51,-9.19 0.79,-14.02l0 -0.43 0.4 0c4.54,-2.05 8.83,-4.7 12.69,-7.86l0 0 0.35 -0.27 0.39 0 12.93 5.42 -0.83 0.23c4.52,-6.4 9.04,-12.73 13.48,-18.95l0 0.86 -9.36 -10.45 -0.27 -0.32 0 -0.39c1.77,-4.7 2.92,-9.62 3.38,-14.62l0 -0.39 0.39 0 12.97 -5.34 -0.4 0.75c-1.34,-7.86 -2.59,-15.49 -3.93,-22.91l0.63 0.55 -14.03 -0.83 -0.4 0 0 -0.35c-2.05,-4.57 -4.7,-8.86 -7.86,-12.73l-0.23 -0.28 0 -0.35 5.46 -12.97 0 0.74 -18.9 -13.52 0.68 0.01 -10.49 9.31 -0.24 0.23 -0.27 0c-4.71,-1.76 -9.65,-2.92 -14.66,-3.42l0.43 0 0 -0.27c-1.89,-4.72 -3.66,-9 -5.27,-13.01l0.43 0.24 -22.91 3.93 0.24 -0.31c-0.35,5.62 -0.63,10.21 -0.86,14.02l0 0c-3.46,1.56 -6.8,3.44 -9.91,5.62l-2.28 1.69 -0.79 0.55 0.71 -0.67c0.47,-0.39 1.18,-0.99 2.2,-1.73 3.06,-2.3 6.39,-4.27 9.87,-5.86l0 0.01c0,-3.93 0.43,-8.45 0.71,-14.03l0 -0.25 0.27 0 22.91 -3.93 0.32 0 0 0.32c1.69,3.93 3.45,8.25 5.38,12.97l-0.39 -0.32c5.1,0.45 10.13,1.61 14.93,3.38l-0.51 0 10.42 -9.39 0.35 -0.27 0.35 0.23 18.95 13.44 0.4 0.28 0 0.42c-1.77,4.21 -3.54,8.53 -5.42,12.97l0 -0.63c3.28,3.92 6.02,8.3 8.14,12.97l-0.51 -0.35 14.02 0.75 0.52 0 0 0.51c1.26,7.46 2.56,15.1 3.93,22.91l0 0.55 -0.48 0.19 -13.01 5.34 0.43 -0.55c-0.48,5.09 -1.64,10.13 -3.42,14.93l0 -0.71c3.1,3.45 6.21,6.94 9.39,10.45l0.35 0.43 -0.32 0.48 -14.15 19.02 -0.32 0.48 -0.55 -0.24 -12.93 -5.42 0.71 0c-3.93,3.29 -8.31,6.05 -12.99,8.18l0.43 -0.63c-0.28,4.83 -0.55,9.63 -0.79,14.03l0 0.59 -0.55 0.01 -22.95 3.93 -0.55 0 0 -0.55c-1.85,-4.48 -3.66,-8.92 -5.34,-12.97l0.58 0.4c-5.1,-0.47 -10.13,-1.63 -14.93,-3.42l0.67 0 -10.85 9.31 -0.43 0.35 -0.42 -0.32 -18.78 -13.69 -0.43 -0.27 0.19 -0.48c1.89,-4.52 3.93,-8.96 5.47,-12.97l0 0.63c-3.26,-3.93 -6,-8.31 -8.1,-12.97l0.51 0.32 -14.03 -0.79 -0.47 0 0 -0.42c-1.33,-8.05 -2.64,-15.69 -3.93,-22.95l0 -0.4 0.36 0 13 -5.31 -0.27 0.4c0.48,-5.08 1.66,-10.1 3.46,-14.87l0 0.4 -9.31 -10.49 -0.19 -0.19 0 -0.24c5.54,-7.86 10.11,-14.07 13.59,-18.86l0 0.01 9.55 4.12 2.48 1.07 1.46 0.31z" data-name="Path 1455"/>
   <g>
    <path id="Path_1456" class="fil5" d="M664.67 3236.75c9.78,4.06 17.5,11.93 21.41,21.77 3.05,7.93 4.62,16.37 4.62,24.88 0,1.97 -0.09,3.93 -0.25,5.89 -1.18,20.22 -11.47,41.11 -22.91,57.85 -17.73,-13.84 -22.98,-39.3 -24.87,-52.5 -2.95,-20.75 4.28,-60.05 22,-57.88l0 0zm0 0l0 0 0 0z" data-name="Path 1456"/>
   </g>
   <g>
    <path id="Path_1457" class="fil5" d="M688.99 3379.2c-0.68,-2.71 -1.04,-5.5 -1.04,-8.28 0,-8.99 3.64,-17.61 10.09,-23.87 8.16,-7.6 18.92,-11.83 30.08,-11.83 0.62,0 1.25,0.01 1.87,0.04 0.42,-0.02 0.84,-0.04 1.26,-0.04 5.03,0 9.86,2.05 13.36,5.66 1.63,2.38 2.5,5.19 2.5,8.07 0,2.19 -0.51,4.36 -1.48,6.32 -2.34,4.52 -5.83,8.34 -10.11,11.08 -14.15,9.98 -29.69,17.06 -46.53,13.01l0 -0.15zm0 0l0 0 0 0z" data-name="Path 1457"/>
   </g>
   <path id="Path_1458" class="fil6" d="M670.69 3441.96c0,-0.06 0,-0.12 0,-0.17 0,-1.34 0.14,-2.69 0.4,-4 0.35,-2.9 0.83,-6.72 1.41,-11.24 1.2,-12.5 4.46,-24.79 9.58,-36.27 5.34,-11.5 13.67,-21.39 24.09,-28.57 3.17,-2.11 6.58,-3.85 10.14,-5.19 1.26,-0.48 2.31,-0.71 2.98,-0.9 0.35,-0.14 0.7,-0.22 1.07,-0.24 -4.76,1.94 -9.36,4.36 -13.64,7.19 -10.05,7.31 -18.11,17.08 -23.37,28.34 -5.03,11.36 -8.36,23.44 -9.85,35.78 -0.75,4.72 -1.38,8.53 -1.89,11.16 -0.21,1.39 -0.53,2.76 -0.95,4.09l0.04 0.01z" data-name="Path 1458"/>
   <path id="Path_1459" class="fil6" d="M661.85 3267.16c0.13,0.58 0.23,1.17 0.28,1.76 0.15,1.33 0.35,3.06 0.58,5.19 0.51,4.48 1.09,10.96 1.81,18.95 1.41,16.07 3.03,38.31 4.28,62.88 1.26,24.57 1.81,46.84 2.05,62.87l0 24.28c0.02,0.3 0.04,0.6 0.04,0.9 0,0.3 -0.01,0.61 -0.04,0.9 -0.12,-0.59 -0.19,-1.2 -0.2,-1.8l0 -5.19c0,-4.72 -0.31,-11.16 -0.55,-19.09 -0.51,-16.11 -1.26,-38.36 -2.53,-62.87 -1.26,-24.51 -2.67,-46.74 -3.93,-62.87 -0.55,-7.86 -1.02,-14.35 -1.34,-19.02 0,-2.12 -0.24,-3.93 -0.32,-5.19 -0.1,-0.42 -0.15,-0.85 -0.15,-1.28 0,-0.14 0.01,-0.29 0.01,-0.42l0 0.01z" data-name="Path 1459"/>
   <g>
    <path id="Path_1460" class="fil5" d="M660.43 3393.03c-5.47,-24.46 -22.42,-44.79 -45.47,-54.59 -5.82,-2.39 -13.27,-3.93 -17.73,0.67 -4.46,4.6 -2.95,11.78 -0.35,17.68 11,23.19 34.4,37.98 60.06,37.98 1.07,0 2.15,-0.04 3.2,-0.08l0.29 -1.66zm0 0l0 0 0 0z" data-name="Path 1460"/>
   </g>
   <path id="Path_1461" class="fil6" d="M618.62 3357.34c1.26,0.31 2.49,0.76 3.66,1.33 1.18,0.51 2.59,1.1 4.16,1.97 1.56,0.86 3.45,1.69 5.34,2.95 2.11,1.25 4.19,2.65 6.17,4.12 2.28,1.66 4.51,3.49 6.61,5.39 4.8,4.4 9.13,9.36 12.84,14.73 3.59,5.43 6.56,11.27 8.85,17.37 0.95,2.67 1.78,5.42 2.44,8.18 0.6,2.4 1.09,4.83 1.41,7.27 0.31,2 0.51,4.03 0.59,6.05 0.05,0.76 0.08,1.53 0.08,2.3 0,0.76 -0.03,1.53 -0.09,2.3 0.06,0.65 0.09,1.31 0.09,1.97 0,0.65 -0.03,1.31 -0.09,1.96 -0.35,0 0,-5.62 -1.53,-14.42 -0.42,-2.2 -0.83,-4.63 -1.57,-7.15 -0.69,-2.65 -1.56,-5.3 -2.53,-7.86 -2.29,-5.97 -5.24,-11.68 -8.76,-17.02 -3.64,-5.27 -7.84,-10.15 -12.5,-14.53 -2.03,-1.89 -4.19,-3.71 -6.41,-5.38 -1.9,-1.51 -3.92,-2.95 -5.97,-4.25 -7.66,-4.96 -12.8,-7 -12.8,-7.28z" data-name="Path 1461"/>
   <path id="Path_1462" class="fil5" d="M640.14 2438.52c0,0 -64.21,-563.2 513.65,-575.85 577.85,-12.66 516.72,569.52 492.23,648.62 -24.48,79.11 -140.71,308.12 -152.94,412.61 -12.22,104.5 3.93,418.35 11.78,520.95l-594.87 0 2.24 -310.15c0,0 -217.08,34.82 -256.8,-63.28 -39.73,-98.09 -36.82,-288.04 -36.82,-288.04 0,0 -119.23,0 -128.43,-18.95 -9.2,-18.95 149.96,-325.92 149.96,-325.92z" data-name="Path 1462"/>
   <path id="Path_1463" class="fil5" d="M640.14 2438.52c0,0 -64.21,-563.2 513.65,-575.85 577.85,-12.66 516.72,569.52 492.23,648.62 -24.48,79.11 -140.71,308.12 -152.94,412.61 -12.22,104.5 3.93,418.35 11.78,520.95l-594.87 0 2.24 -310.15c0,0 -217.08,34.82 -256.8,-63.28 -39.73,-98.09 -36.82,-288.04 -36.82,-288.04 0,0 -119.23,0 -128.43,-18.95 -9.2,-18.95 149.96,-325.92 149.96,-325.92z" data-name="Path 1463"/>
   <path id="Path_1464" class="fil7" d="M640.14 2438.52c0,0 -64.21,-563.2 513.65,-575.85 577.85,-12.66 516.72,569.52 492.23,648.62 -24.48,79.11 -140.71,308.12 -152.94,412.61 -12.22,104.5 3.93,418.35 11.78,520.95l-594.87 0 2.24 -310.15c0,0 -217.08,34.82 -256.8,-63.28 -39.73,-98.09 -36.82,-288.04 -36.82,-288.04 0,0 -119.23,0 -128.43,-18.95 -9.2,-18.95 149.96,-325.92 149.96,-325.92z" data-name="Path 1464"/>
   <g>
    <path id="Path_1465" class="fil5" d="M943.05 2092.47c-33.09,-8.25 -76.79,-25.58 -112.36,6.25 -18.15,16.26 -28.33,52.23 -29.55,76.94 -35.94,2.58 -68.83,21.29 -89.4,50.89 -10.86,14.81 -16.78,32.72 -16.82,51.08 0.17,18.57 9.84,35.76 25.62,45.55 -9.4,13.97 -14.44,30.47 -14.44,47.32 0,13.82 3.38,27.44 9.84,39.64 14.22,25.42 41.08,41.17 70.21,41.17 1.59,0 3.21,-0.05 4.78,-0.14 -0.7,4.65 -1.05,9.41 -1.05,14.14 0,27.53 11.84,53.78 32.48,71.99 16.35,13.79 37.07,21.36 58.46,21.36 10.15,0 20.26,-1.71 29.83,-5.04 28.65,42.4 94.31,51.67 132.99,18.78 4.33,-4.58 9.74,-8.02 15.72,-10.02 0.73,-0.06 1.48,-0.09 2.21,-0.09 4.68,0 9.31,1.08 13.51,3.14 25.85,9.95 53.48,18.58 80.71,14.07 27.23,-4.52 53.69,-25.97 55.58,-54.23 29.74,16.18 63.11,24.83 96.98,25 38.75,0 83.91,-17.56 92.15,-56.35 13.28,10.31 29.64,15.93 46.47,15.93 12.19,0 24.22,-2.96 35.02,-8.59 25.01,-14.11 40.5,-40.64 40.5,-69.37 0,-1.15 -0.03,-2.3 -0.08,-3.44 32.85,6.37 60.84,-27.16 69.59,-60.24 8.53,-32.15 6.17,-68.23 -11.2,-96.36 -17.37,-28.13 -50.89,-46.41 -82.88,-40.48 9.5,-14.08 14.59,-30.71 14.59,-47.71 0,-13.03 -2.99,-25.9 -8.73,-37.6 -13.87,-26.86 -41.53,-43.81 -71.76,-43.97 -7.33,-23.73 -25.91,-42.34 -49.63,-49.71 -6.45,-1.82 -13.15,-2.75 -19.87,-2.75 -17.57,0 -34.57,6.34 -47.84,17.85 -20.17,-33.76 -54.84,-56.33 -93.87,-61.07 -4.12,-0.4 -8.3,-0.62 -12.44,-0.62 -34.83,0 -68.13,14.46 -91.9,39.91 -26.25,-23.1 -73.72,-35.75 -106.65,-24.84 -33.25,10.48 -58.6,37.64 -66.79,71.52l0.01 0.08zm0 0l0 0 0 0z" data-name="Path 1465"/>
   </g>
   <path id="Path_1466" class="fil8" d="M943.05 2092.47c-33.09,-8.25 -76.79,-25.58 -112.36,6.25 -18.15,16.26 -28.33,52.23 -29.55,76.94 -35.94,2.58 -68.83,21.29 -89.4,50.89 -10.86,14.81 -16.78,32.72 -16.82,51.08 0.17,18.57 9.84,35.76 25.62,45.55 -9.4,13.97 -14.44,30.47 -14.44,47.32 0,13.82 3.38,27.44 9.84,39.64 14.22,25.42 41.08,41.17 70.21,41.17 1.59,0 3.21,-0.05 4.78,-0.14 -0.7,4.65 -1.05,9.41 -1.05,14.14 0,27.53 11.84,53.78 32.48,71.99 16.35,13.79 37.07,21.36 58.46,21.36 10.15,0 20.26,-1.71 29.83,-5.04 28.65,42.4 94.31,51.67 132.99,18.78 4.33,-4.58 9.74,-8.02 15.72,-10.02 0.73,-0.06 1.48,-0.09 2.21,-0.09 4.68,0 9.31,1.08 13.51,3.14 25.85,9.95 53.48,18.58 80.71,14.07 27.23,-4.52 53.69,-25.97 55.58,-54.23 29.74,16.18 63.11,24.83 96.98,25 38.75,0 83.91,-17.56 92.15,-56.35 13.28,10.31 29.64,15.93 46.47,15.93 12.19,0 24.22,-2.96 35.02,-8.59 25.01,-14.11 40.5,-40.64 40.5,-69.37 0,-1.15 -0.03,-2.3 -0.08,-3.44 32.85,6.37 60.84,-27.16 69.59,-60.24 8.53,-32.15 6.17,-68.23 -11.2,-96.36 -17.37,-28.13 -50.89,-46.41 -82.88,-40.48 9.5,-14.08 14.59,-30.71 14.59,-47.71 0,-13.03 -2.99,-25.9 -8.73,-37.6 -13.87,-26.86 -41.53,-43.81 -71.76,-43.97 -7.33,-23.73 -25.91,-42.34 -49.63,-49.71 -6.45,-1.82 -13.15,-2.75 -19.87,-2.75 -17.57,0 -34.57,6.34 -47.84,17.85 -20.17,-33.76 -54.84,-56.33 -93.87,-61.07 -4.12,-0.4 -8.3,-0.62 -12.44,-0.62 -34.83,0 -68.13,14.46 -91.9,39.91 -26.25,-23.1 -73.72,-35.75 -106.65,-24.84 -33.25,10.48 -58.6,37.64 -66.79,71.52m0.01 0.08l0 0 0 0z" data-name="Path 1466"/>
   <path id="Path_1467" class="fil5" d="M914.4 2164.5c-0.82,-0.05 -1.65,-0.08 -2.47,-0.08 -2.54,0 -5.1,0.24 -7.59,0.74 -9.14,2.24 -17.24,7.58 -22.91,15.1 -8.16,11.77 -12.92,25.58 -13.72,39.88 -0.6,4.57 -0.91,9.23 -0.91,13.84 0,3.99 0.23,7.97 0.68,11.94 0.85,9.33 4.75,18.14 11.07,25.07l1.38 1.41 -1.97 0.32c-17.82,3.18 -33.93,12.63 -45.42,26.61 -5.63,6.76 -10.04,14.49 -12.97,22.79 -2.82,8.32 -4.28,17.08 -4.28,25.87 0,15 4.22,29.73 12.14,42.46l0.71 1.09 -1.26 0.28c-6.37,1.69 -12.19,5.03 -16.86,9.67 -4.19,4.11 -7.69,8.91 -10.33,14.15 -4.15,8.7 -6.72,18.11 -7.54,27.71 -0.91,7.86 -1.02,14.3 -1.18,18.63l0 4.91c0.04,0.28 0.06,0.56 0.06,0.84 0,0.29 -0.03,0.57 -0.07,0.85 -0.02,-0.28 -0.04,-0.56 -0.04,-0.84 0,-0.29 0.01,-0.57 0.04,-0.84l0 -4.96c-0.01,-1.01 -0.03,-2.06 -0.03,-3.08 0,-5.21 0.26,-10.43 0.71,-15.62 0.67,-9.78 3.15,-19.38 7.27,-28.26 2.66,-5.45 6.24,-10.42 10.53,-14.69 4.82,-4.8 10.83,-8.27 17.4,-10.02l-0.55 1.38c-8.18,-13.07 -12.54,-28.19 -12.54,-43.61 0,-8.98 1.48,-17.91 4.36,-26.41 3,-8.58 7.53,-16.58 13.33,-23.59 11.78,-14.46 28.38,-24.22 46.75,-27.5l-0.55 1.77c-6.6,-7.27 -10.66,-16.49 -11.55,-26.25 -0.41,-3.82 -0.62,-7.69 -0.62,-11.53 0,-4.93 0.35,-9.85 1.02,-14.72 0.98,-14.57 6.01,-28.6 14.52,-40.48 5.87,-7.59 14.23,-12.91 23.59,-15.01 1.47,-0.28 2.97,-0.43 4.47,-0.43 1.8,0 3.6,0.21 5.35,0.63l0 0z" data-name="Path 1467"/>
   <path id="Path_1468" class="fil5" d="M997.04 2409.04c-1.87,1.07 -3.85,1.99 -5.89,2.71 -5.43,2.25 -11.02,4.25 -16.66,5.93 -7.73,2.41 -15.78,3.64 -23.88,3.64 -0.73,0 -1.45,-0.01 -2.18,-0.03 -5.25,-0.21 -10.44,-1.28 -15.36,-3.15 -5.26,-2.07 -10.18,-4.95 -14.54,-8.53 -8.91,-6.31 -15.95,-14.92 -20.35,-24.91 -1.99,-5.3 -3,-10.92 -3,-16.57 0,-3.23 0.34,-6.47 0.99,-9.64 1.14,-5.86 3.46,-11.45 6.8,-16.39 0.9,-1.32 1.92,-2.58 3.03,-3.73 0.79,-0.83 1.18,-1.22 1.26,-1.18 0.09,0.04 -1.41,1.84 -3.57,5.38 -4.41,7.41 -6.74,15.88 -6.74,24.5 0,5.78 1.05,11.51 3.09,16.91 4.31,9.57 11.11,17.83 19.64,23.93 8.05,6.8 18.09,10.82 28.61,11.44 0.97,0.04 1.97,0.05 2.95,0.05 7.66,0 15.28,-1.09 22.63,-3.21 7.15,-1.89 12.81,-3.93 16.74,-5.23 2.07,-0.8 4.23,-1.44 6.4,-1.89l0.01 -0.04z" data-name="Path 1468"/>
   <path id="Path_1469" class="fil5" d="M1356.24 2336.5c0.02,0.18 0.04,0.37 0.04,0.55 0,0.19 -0.01,0.37 -0.04,0.55 -0.09,1.11 -0.27,2.22 -0.51,3.3 -0.47,2.87 -1.18,7.15 -2.28,12.64 -1.27,6.73 -2.95,13.45 -4.99,19.99 -2.69,8.87 -6.75,17.29 -12,24.92 -6.63,9.31 -15.04,17.29 -24.72,23.37 -11.08,7.39 -23.47,12.73 -36.44,15.72 -6.33,1.45 -12.84,2.19 -19.34,2.19 -0.81,0 -1.63,-0.01 -2.42,-0.03 -7.69,-0.37 -15.34,-1.65 -22.74,-3.73 -15.74,-4.6 -30.71,-11.73 -44.22,-21.03l1.57 -0.67c-2,17.39 -6.86,34.43 -14.3,50.28 -2.23,4.01 -4.88,7.85 -7.85,11.37 -3.07,3.52 -6.57,6.71 -10.37,9.42 -7.93,5.19 -16.83,8.75 -26.13,10.46 -6.26,1.2 -12.66,1.82 -19.04,1.82 -26.05,0 -51.13,-10.17 -69.82,-28.31l1.73 -0.59c-1.33,8.82 -5.11,17.14 -10.88,23.94 -5.45,6.62 -12.31,12.01 -20.05,15.72 -8.97,3.93 -18.68,5.96 -28.49,5.96 -6.06,0 -12.11,-0.79 -17.96,-2.31 -13.62,-3.29 -26.58,-9.09 -38.11,-17.06 -10.18,-6.68 -18.5,-15.88 -24.14,-26.68 -2.33,-4.67 -3.9,-9.72 -4.6,-14.9 -0.21,-1.77 -0.32,-3.57 -0.32,-5.35 0,-2.83 0.27,-5.66 0.79,-8.44 1.3,-7.25 4.52,-14.04 9.28,-19.65 3.01,-3.45 6.8,-6.15 11.04,-7.86 1.45,-0.59 2.97,-1.04 4.52,-1.34 -1.5,0.48 -2.98,1.06 -4.42,1.69 -4.1,1.76 -7.75,4.46 -10.65,7.85 -4.54,5.61 -7.58,12.3 -8.81,19.41 -0.45,2.52 -0.67,5.1 -0.67,7.66 0,7.04 1.71,14 4.96,20.25 5.57,10.45 13.69,19.38 23.58,25.9 11.4,7.78 24.17,13.42 37.6,16.62 5.63,1.43 11.43,2.15 17.24,2.15 9.63,0 19.17,-2 27.99,-5.86 7.43,-3.57 14.02,-8.72 19.29,-15.06 5.54,-6.53 9.15,-14.5 10.42,-22.98l0.32 -2 1.45 1.42c10.97,10.73 24.39,18.72 39.06,23.22 9.42,2.95 19.27,4.46 29.14,4.46 6.28,0 12.58,-0.62 18.76,-1.82 9.09,-1.66 17.78,-5.14 25.51,-10.21 3.67,-2.59 7.03,-5.65 9.98,-9.04 2.86,-3.42 5.39,-7.14 7.54,-11.03 7.32,-15.63 12.12,-32.41 14.14,-49.55l0.24 -1.58 1.3 0.86c13.33,9.22 28.07,16.29 43.62,20.9 7.26,2.08 14.75,3.33 22.29,3.71 0.92,0.01 1.87,0.04 2.81,0.04 6.23,0 12.45,-0.69 18.53,-2.05 12.79,-2.88 25.02,-8.07 36,-15.28 9.59,-5.92 17.94,-13.69 24.53,-22.83 5.25,-7.48 9.35,-15.76 12.09,-24.48 2.11,-6.48 3.91,-13.17 5.27,-19.86 1.22,-5.47 2.05,-9.71 2.64,-12.58l0.67 -3.22c0.09,-0.32 0.22,-0.65 0.38,-0.96z" data-name="Path 1469"/>
   <path id="Path_1470" class="fil5" d="M1376.13 2212.44c0.11,0 0.23,0 0.35,0 0.78,0 1.56,0.08 2.33,0.24 1.08,0.05 2.16,0.19 3.22,0.42l4.36 1.07c9.16,2.63 17.68,7.21 24.91,13.4 10.79,9.15 19.5,20.55 25.47,33.37 3.52,7.55 6.35,15.48 8.36,23.57 1.1,4.3 1.71,8.76 1.76,13.2 -0.15,4.52 -0.55,9.07 -1.21,13.55 -1.17,8.95 -4.06,17.6 -8.45,25.47 -4.29,7.22 -9.99,13.54 -16.74,18.55 -11.24,8.55 -24.07,14.85 -37.72,18.5 -7.91,1.91 -16.03,2.88 -24.17,2.88 -1.33,0 -2.69,-0.03 -4,-0.08 -3.34,0 -5.93,-0.32 -7.86,-0.47 -0.89,-0.04 -1.78,-0.17 -2.64,-0.4 0.44,-0.04 0.89,-0.06 1.33,-0.06 0.45,0 0.89,0.02 1.33,0.06l7.86 0.01c0.55,0 1.13,0.01 1.69,0.01 22.88,0 45.13,-7.77 63.04,-22.02 6.48,-4.88 11.98,-11.01 16.11,-17.99 4.23,-7.66 6.99,-16.08 8.14,-24.76 3.93,-17.96 -2.36,-34.89 -8.61,-49.08 -5.8,-12.6 -14.21,-23.9 -24.64,-33.05 -7.03,-6.15 -15.27,-10.85 -24.17,-13.74l-4.24 -1.22 -3.16 -0.67c-0.89,-0.17 -1.78,-0.42 -2.63,-0.75l-0.04 0.01z" data-name="Path 1470"/>
   <path id="Path_1471" class="fil5" d="M1513.15 2274.3c1.02,1.45 1.83,3.06 2.38,4.75 1.72,4.54 2.73,9.36 2.96,14.23 0.04,0.91 0.06,1.82 0.06,2.74 0,6.35 -1.15,12.66 -3.38,18.6 -3,8.43 -8.28,15.9 -15.25,21.54 -3.62,2.84 -7.58,5.23 -11.78,7.11 -3.88,1.84 -8,3.17 -12.22,3.93 -2.51,0.48 -5.07,0.73 -7.63,0.73 -4.72,0 -9.41,-0.83 -13.85,-2.46 -4.57,-1.76 -8.73,-4.44 -12.22,-7.86 -0.95,-0.91 -1.84,-1.91 -2.64,-2.95 -0.32,-0.34 -0.58,-0.72 -0.79,-1.14 1.4,1.04 2.72,2.2 3.93,3.46 3.59,3.09 7.72,5.51 12.18,7.11 4.05,1.35 8.3,2.04 12.57,2.04 2.69,0 5.39,-0.27 8.02,-0.81 4.08,-0.79 8.05,-2.11 11.78,-3.93 4.04,-1.81 7.86,-4.13 11.32,-6.88 6.66,-5.41 11.77,-12.52 14.77,-20.56 2.37,-6.12 3.59,-12.64 3.59,-19.2 0,-0.45 -0.01,-0.91 -0.01,-1.35 -0.27,-6.51 -1.57,-12.97 -3.8,-19.09l-0.02 0.01z" data-name="Path 1471"/>
   <path id="Path_1472" class="fil5" d="M1438.81 2104.3c-2.47,-0.6 -5.01,-1.03 -7.54,-1.26 -0.7,-0.04 -1.41,-0.05 -2.12,-0.05 -2.4,0 -4.8,0.21 -7.15,0.64 -4.18,0.9 -8.23,2.39 -12,4.42 -10.44,5.69 -18.84,14.54 -24.01,25.23 -6.64,14.41 -11.24,29.77 -13.58,45.48l-0.32 1.69 -0.9 -1.45c-8.65,-13.49 -20.54,-24.61 -34.54,-32.37 -13.7,-7.79 -29.2,-11.9 -44.96,-11.9 -2.62,0 -5.26,0.12 -7.87,0.34 -20.43,1.9 -39.75,10.35 -55.01,24.05 -8.24,7.09 -14.95,15.85 -19.63,25.66 -3.26,6.4 -4.96,13.48 -4.96,20.66 0,4 0.53,7.99 1.57,11.84l1.89 6.09 -3.7 -5.19c-16.21,-21.87 -41.86,-34.78 -69.09,-34.78 -0.73,0 -1.51,0.02 -2.24,0.03 -3.17,0.12 -6.36,0.42 -9.5,0.94 -6.35,0.96 -12.58,2.74 -18.47,5.28 -5.94,2.65 -11.57,6.02 -16.74,9.98 -5.12,4.11 -9.83,8.79 -13.95,13.89 -7.45,9.41 -13.03,20.2 -16.43,31.71 -2.18,7.71 -3.29,15.69 -3.29,23.71 0,3.68 0.23,7.38 0.7,11.03l0.23 1.69 -1.61 -0.55c-9.67,-3.46 -19.88,-5.24 -30.15,-5.24 -3.44,0 -6.91,0.21 -10.32,0.61 -13.19,1.67 -25.4,7.9 -34.5,17.6 -7.9,8.77 -12.27,20.17 -12.27,31.97 0,0.99 0.04,1.98 0.09,2.96 0.56,12.3 5.42,24.06 13.71,33.16 7.79,8.71 18.04,14.88 29.38,17.73 7.21,1.66 14.62,2.5 22.03,2.5 3.62,0 7.27,-0.2 10.88,-0.6 10.33,-0.79 20.45,-3.46 29.82,-7.87 8.69,-4.1 15.94,-10.73 20.79,-19.02l0.51 -0.9 0.71 0.78c6.89,7.54 15.88,12.92 25.78,15.44 4.16,1.09 8.46,1.65 12.76,1.65 4.75,0 9.48,-0.68 14.04,-2 7.56,-2.22 14.36,-6.5 19.64,-12.34 4.42,-4.96 7.83,-10.77 9.98,-17.05 1.89,-5.26 2.87,-10.82 2.87,-16.41 0,-3.57 -0.4,-7.15 -1.18,-10.63 -0.84,-3.09 -1.9,-6.14 -3.16,-9.08l1.1 2.2c1.04,2.17 1.86,4.44 2.43,6.76 0.94,3.78 1.41,7.68 1.41,11.58 0,5.42 -0.92,10.82 -2.71,15.93 -2.16,6.4 -5.57,12.32 -10.02,17.41 -5.38,6.04 -12.36,10.5 -20.12,12.84 -4.76,1.41 -9.71,2.13 -14.68,2.13 -4.33,0 -8.64,-0.55 -12.83,-1.62 -10.18,-2.54 -19.4,-8.02 -26.53,-15.71l1.17 -0.01c-4.98,8.55 -12.43,15.41 -21.37,19.65 -9.52,4.6 -19.84,7.42 -30.38,8.29 -3.75,0.41 -7.55,0.65 -11.33,0.65 -7.45,0 -14.92,-0.84 -22.18,-2.48 -11.69,-2.91 -22.26,-9.26 -30.32,-18.2 -8.58,-9.4 -13.61,-21.51 -14.23,-34.22 -0.06,-1.03 -0.1,-2.07 -0.1,-3.1 0,-12.28 4.54,-24.15 12.73,-33.3 9.44,-10.05 22.09,-16.51 35.76,-18.27 3.57,-0.43 7.17,-0.64 10.76,-0.64 10.45,0 20.82,1.8 30.66,5.31l-1.41 1.18c-0.47,-3.74 -0.72,-7.51 -0.72,-11.28 0,-8.24 1.15,-16.44 3.39,-24.35 3.45,-11.8 9.18,-22.84 16.83,-32.46 4.23,-5.26 9.03,-10.06 14.3,-14.27 5.29,-4.07 11.07,-7.53 17.17,-10.26 6.06,-2.61 12.48,-4.45 19.02,-5.43 3.21,-0.5 6.49,-0.83 9.75,-0.94 0.76,-0.01 1.55,-0.03 2.31,-0.03 2.46,0 4.94,0.11 7.39,0.3 25.27,1.93 48.45,14.87 63.35,35.37l-1.81 0.86c-1.08,-4 -1.63,-8.18 -1.63,-12.34 0,-7.49 1.77,-14.89 5.16,-21.57 4.87,-10.14 11.84,-19.22 20.4,-26.54 15.61,-13.92 35.31,-22.47 56.15,-24.32 2.67,-0.22 5.34,-0.35 8.02,-0.35 16.04,0 31.82,4.18 45.75,12.14 14.19,7.93 26.19,19.31 34.88,33.05l-1.22 0.2c2.4,-15.82 7.11,-31.25 13.94,-45.75 5.36,-10.8 13.97,-19.69 24.61,-25.38 3.83,-2.01 7.97,-3.45 12.22,-4.25 2.16,-0.39 4.35,-0.59 6.54,-0.59 0.97,0 1.94,0.05 2.9,0.12 1.92,0.17 3.83,0.53 5.68,1.06 0.53,0.14 1.07,0.32 1.58,0.52l0 0z" data-name="Path 1472"/>
   <path id="Path_1473" class="fil5" d="M1349.53 2272.13c0,0.06 0,0.14 0,0.21 0,2.1 -0.22,4.21 -0.63,6.27 -0.79,5.88 -2.06,11.74 -3.74,17.45 -2.33,8.66 -7.02,16.55 -13.51,22.74 -8.63,6.81 -19.1,10.92 -30.06,11.78 -2.66,0.35 -5.35,0.53 -8.03,0.53 -8.26,0 -16.45,-1.69 -24.04,-4.95 -8.2,-3.67 -15.23,-9.53 -20.31,-16.93 -3.44,-4.93 -5.82,-10.52 -6.95,-16.42 -0.32,-1.59 -0.51,-3.22 -0.55,-4.84 -0.06,-0.28 -0.08,-0.58 -0.08,-0.86 0,-0.29 0.02,-0.58 0.08,-0.86 0.06,-0.28 0.32,2.32 1.26,6.37 1.45,5.65 3.98,10.99 7.39,15.72 5.09,7.01 11.95,12.53 19.89,15.99 7.22,2.97 14.99,4.5 22.81,4.5 2.75,0 5.51,-0.19 8.23,-0.57 10.54,-0.89 20.63,-4.81 29,-11.28 6.3,-5.93 10.93,-13.44 13.4,-21.73 1.77,-5.59 3.24,-11.32 4.32,-17.09 0.37,-2.03 0.89,-4.05 1.51,-6.01z" data-name="Path 1473"/>
   <path id="Path_1474" class="fil5" d="M1321.78 2063.55c-1.49,0.83 -3.06,1.54 -4.67,2.12 -3.06,1.3 -7.51,3.23 -12.97,5.9 -6.6,2.91 -12.81,6.73 -18.39,11.32 -3.23,2.85 -5.66,6.5 -7.04,10.57 -0.68,1.85 -1.03,3.82 -1.03,5.79 0,2.64 0.62,5.25 1.82,7.6l-1.69 1.1c-7.76,-9.61 -18.56,-16.34 -30.61,-19.05 -11.73,-3.41 -23.91,-5.14 -36.12,-5.14 -1.51,0 -3.06,0.03 -4.54,0.08 -11.19,0.8 -21.97,4.58 -31.2,10.92 -6.27,4.3 -11.78,9.62 -16.31,15.72 -3.16,4.32 -4.6,6.94 -4.8,6.84 0.24,-0.68 0.55,-1.33 0.9,-1.97 0.94,-1.84 2.03,-3.64 3.22,-5.34 10.99,-16.06 28.62,-26.34 48.01,-27.98 2.25,-0.15 4.54,-0.24 6.8,-0.24 4.49,0 8.99,0.32 13.43,0.95 7.13,0.89 14.27,2.33 21.21,4.24 12.47,2.9 23.64,9.92 31.67,19.89l-1.69 1.09c-1.33,-2.61 -2.01,-5.5 -2.01,-8.43 0,-2.23 0.4,-4.45 1.17,-6.54 1.55,-4.38 4.27,-8.25 7.87,-11.21 5.73,-4.62 12.13,-8.41 18.94,-11.19 5.57,-2.53 10.11,-4.32 13.27,-5.42 1.53,-0.68 3.13,-1.22 4.76,-1.63l0 0z" data-name="Path 1474"/>
   <path id="Path_1475" class="fil5" d="M966.86 2220.41c-2.13,-2.46 -3.9,-5.24 -5.22,-8.22 -2.95,-6.52 -4.48,-13.62 -4.48,-20.79 0,-8.25 2.02,-16.4 5.9,-23.68 3.55,-6.42 8.7,-11.83 14.93,-15.72 6.98,-4.36 14.99,-6.89 23.22,-7.31 0.9,-0.05 1.84,-0.08 2.74,-0.08 8.06,0 15.98,2.17 22.92,6.26l-1.42 1.49c-4.6,-6.87 -7.47,-14.77 -8.37,-22.99 -0.32,-2.95 -0.49,-5.92 -0.49,-8.9 0,-17.07 5.45,-33.72 15.54,-47.49 9.55,-13.33 23.46,-22.96 39.31,-27.17 5.8,-1.57 11.78,-2.38 17.79,-2.38 4.92,0 9.83,0.54 14.62,1.6 2.89,0.61 5.75,1.46 8.49,2.52 0.97,0.34 1.91,0.78 2.79,1.3 0,0.24 -3.93,-1.57 -11.44,-3.03 -4.24,-0.79 -8.56,-1.2 -12.89,-1.2 -22.67,0 -43.94,11 -57.06,29.49 -9.75,13.47 -15,29.69 -15,46.31 0,2.9 0.16,5.81 0.48,8.69 0.8,7.89 3.51,15.49 7.85,22.11l2.72 3.93 -3.93 -2.48c-6.71,-3.95 -14.36,-6.04 -22.14,-6.04 -0.78,0 -1.57,0.03 -2.34,0.06 -7.91,0.35 -15.62,2.72 -22.36,6.87 -6.02,3.75 -11.01,8.97 -14.46,15.16 -2.98,5.37 -4.92,11.28 -5.68,17.37 -0.29,2.18 -0.43,4.36 -0.43,6.55 0,6.66 1.33,13.27 3.88,19.43 2.49,5.47 4.73,8.19 4.53,8.3z" data-name="Path 1475"/>
   <path id="Path_1476" class="fil5" d="M769.86 2271.58l1.18 0c1.17,0.16 2.3,0.5 3.35,1.02 3.96,1.82 7.25,4.86 9.35,8.69 2.2,3.75 3.36,8.02 3.36,12.37 0,2.13 -0.28,4.27 -0.83,6.32 -2.16,7.64 -6.99,14.26 -13.59,18.66 -6.58,4.26 -14.1,6.9 -21.89,7.66 -3.13,0.39 -6.28,0.59 -9.43,0.59 -3.15,0 -6.3,-0.2 -9.43,-0.59 -4.26,-0.55 -8.36,-2.02 -12.01,-4.28 -1.35,-0.8 -2.54,-1.86 -3.5,-3.1 4.65,3.26 10.07,5.29 15.72,5.86 2.34,0.22 4.71,0.32 7.07,0.32 3.8,0 7.61,-0.29 11.37,-0.83 7.45,-0.84 14.61,-3.39 20.91,-7.43 6.2,-4.13 10.78,-10.31 12.93,-17.44 0.55,-2.03 0.84,-4.13 0.84,-6.23 0,-3.92 -0.98,-7.78 -2.84,-11.22 -1.87,-3.65 -4.79,-6.68 -8.37,-8.68 -2.56,-1.22 -4.26,-1.46 -4.18,-1.69z" data-name="Path 1476"/>
   <path id="Path_1477" class="fil5" d="M921.96 2567.8c-1.15,-0.57 -2.22,-1.32 -3.15,-2.2 -2.66,-2.32 -5.03,-4.97 -7.04,-7.86 -6.77,-9.39 -10.98,-20.4 -12.22,-31.91 -0.3,-2.52 -0.45,-5.08 -0.45,-7.63 0,-3.79 0.34,-7.59 0.99,-11.32 0.95,-5.09 2.54,-10.06 4.73,-14.74 1.58,-4.52 4.29,-8.59 7.86,-11.78 -0.61,1.09 -1.3,2.15 -2.05,3.15 -1.73,2.92 -3.24,5.99 -4.47,9.15 -1.96,4.65 -3.39,9.54 -4.21,14.53 -0.55,3.46 -0.82,6.97 -0.82,10.49 0,2.64 0.16,5.29 0.47,7.9 1.2,11.22 5.09,22.01 11.32,31.44 2.74,3.8 5.79,7.41 9.05,10.78l0 -0.01z" data-name="Path 1477"/>
   <path id="Path_1478" class="fil5" d="M1062.39 2517.62c1.38,2.41 2.27,5.09 2.59,7.86 0.41,2.54 0.63,5.11 0.63,7.68 0,4.28 -0.58,8.55 -1.72,12.68 -1.82,6.63 -5.09,12.78 -9.55,18 -1.71,2.27 -3.9,4.16 -6.4,5.5 -0.24,-0.27 2.16,-2.39 5.22,-6.44 3.95,-5.27 6.9,-11.26 8.65,-17.61 1.27,-4.7 1.93,-9.57 1.93,-14.45 0,-1.74 -0.09,-3.47 -0.25,-5.19 -0.5,-2.64 -0.87,-5.33 -1.09,-8.02l0 0z" data-name="Path 1478"/>
   <path id="Path_1479" class="fil5" d="M1216.19 2469.8c0.73,1.22 1.3,2.54 1.65,3.93 1.25,3.55 2.21,7.22 2.87,10.92 0.87,4.89 1.32,9.88 1.32,14.85 0,7.48 -1,14.95 -2.97,22.16 -3.33,12.05 -9.41,23.21 -17.69,32.58 -2.49,2.83 -5.21,5.47 -8.13,7.86 -1,0.97 -2.16,1.76 -3.42,2.36 -0.23,-0.32 4.42,-3.93 10.37,-11.16 7.77,-9.41 13.51,-20.39 16.78,-32.15 2.09,-7.66 3.15,-15.59 3.15,-23.55 0,-4.24 -0.3,-8.49 -0.89,-12.68 -1.34,-9.49 -3.3,-14.99 -3.03,-15.11z" data-name="Path 1479"/>
   <path id="Path_1480" class="fil5" d="M1390.94 2413.28c0.69,0.87 1.31,1.81 1.84,2.79 1.49,2.61 2.82,5.35 3.93,8.14 5.75,13.46 8.71,27.97 8.71,42.61 0,5.46 -0.42,10.94 -1.23,16.33 -0.44,3 -1.06,5.99 -1.84,8.92 -0.19,1.11 -0.58,2.18 -1.15,3.16 -0.35,0 0.67,-4.72 1.49,-12.27 0.5,-4.52 0.74,-9.1 0.74,-13.65 0,-15.1 -2.72,-30.1 -8.02,-44.23 -2.67,-7.28 -4.78,-11.52 -4.47,-11.8z" data-name="Path 1480"/>
   <path id="Path_1481" class="fil9" d="M1125.02 1965.3c-7.14,-6.4 -15.33,-11.59 -24.2,-15.28 -8.63,-4.57 -17.93,-7.83 -27.51,-9.63 -25.81,-3.93 -50.73,10.42 -67.98,27.16 -17.24,16.75 -30.25,36.7 -50.41,51.08l52.11 -0.86c1.82,0.06 3.72,0.11 5.55,0.11 13.73,0 27.43,-2.07 40.55,-6.09 18.24,-6.79 32.11,-23.57 51.91,-25.46 1.05,-0.01 2.12,-0.04 3.18,-0.04 9.82,0 19.63,1.34 29.09,3.97 -1.25,-9.43 -5.57,-18.21 -12.28,-24.95zm-40.46 45.51c-1.17,0.69 -2.51,1.06 -3.87,1.06 -0.26,0 -0.52,-0.01 -0.77,-0.04 -0.65,-0.08 -1.3,-0.12 -1.97,-0.12 -0.66,0 -1.31,0.04 -1.96,0.12 -3.16,0.63 -4.76,4.16 -7.4,5.98 -1.17,0.84 -2.57,1.3 -4.01,1.3 -1.2,0 -2.38,-0.32 -3.41,-0.91 -1.72,-1.1 -2.77,-3.01 -2.77,-5.06 0,-0.66 0.12,-1.31 0.32,-1.94 0.52,-1.1 1.26,-2.09 2.16,-2.9 2.25,-2.15 4.93,-3.83 7.86,-4.92 2.27,-1.8 5.08,-2.78 7.97,-2.78 1.55,0 3.08,0.27 4.52,0.82 2.67,0.79 5.57,2.53 5.73,5.42 -0.16,1.58 -1.07,2.99 -2.44,3.79l0.01 0.18z" data-name="Path 1481"/>
   <path id="Path_1482" class="fil6" d="M1017.82 1986.73c0,0 1.13,-0.63 3.22,-1.97 2.97,-1.98 5.86,-4.15 8.6,-6.45 3.62,-2.95 7.86,-6.84 13.13,-11 6.14,-4.62 13.15,-7.98 20.59,-9.86 4.07,-1.02 8.28,-1.54 12.5,-1.54 0.25,0 0.52,0.01 0.76,0.01 4.81,0.15 9.61,0.84 14.27,2.04 10.29,2.68 20.01,7.3 28.6,13.56 9.53,6.87 17.69,15.51 23.98,25.45 6.79,10.55 12.3,21.93 16.31,33.81 7.2,22.95 13.04,46.46 17.29,70.11 4.72,21.62 8.53,41.26 11.78,57.73 3.26,16.47 6.01,29.55 7.86,38.95 0.86,4.47 1.53,7.85 2.05,10.61 0.08,0.94 0.24,1.87 0.48,2.79 0.01,0.16 0.02,0.32 0.02,0.47 0,0.16 -0.01,0.32 -0.02,0.48 -0.16,-0.28 -0.26,-0.59 -0.32,-0.91l-0.71 -2.74 -2.43 -10.53c-2.05,-9.36 -4.96,-22.56 -8.53,-38.79 -3.58,-16.23 -7.86,-35.96 -12.42,-57.61 -4.15,-23.63 -10.11,-47.05 -17.38,-69.87 -8.46,-24.09 -21.31,-45.63 -39.3,-58.36 -8.37,-6.17 -17.83,-10.74 -27.88,-13.44 -4.84,-1.39 -9.87,-2.1 -14.91,-2.1 -3.98,0 -7.97,0.45 -11.86,1.33 -7.27,1.73 -14.15,4.88 -20.22,9.23 -5.27,3.93 -9.55,7.86 -13.32,10.69 -2.82,2.23 -5.81,4.29 -8.92,6.12 -0.81,0.5 -1.66,0.93 -2.53,1.3l-0.7 0.5z" data-name="Path 1482"/>
   <g>
    <path id="Path_1483" class="fil9" d="M1251.56 2041.42c-1.46,3.88 -2.2,8.01 -2.2,12.17 0,5.78 1.45,11.48 4.21,16.56 5.95,7.48 13.79,13.26 22.68,16.74 12.97,6.71 25.38,14.74 36.83,23.81 0.67,-2.16 1.02,-4.43 1.02,-6.71 0,-3.59 -0.87,-7.12 -2.53,-10.31 -1.81,-4.75 -3.7,-9.48 -5.68,-14.15 -4.33,-12.13 -11.56,-23.05 -21.03,-31.79 -9.95,-7.98 -22.79,-13.56 -33.28,-6.32l-0.01 -0.01zm0 0l0 0 0 0z" data-name="Path 1483"/>
   </g>
   <path id="Path_1484" class="fil6" d="M1281.26 2065.47c0,0 -1.41,-1.81 -3.93,-4.95 -3.67,-4.4 -7.85,-8.37 -12.46,-11.79 -6.8,-5.08 -14.75,-8.42 -23.14,-9.71 -2.14,-0.33 -4.31,-0.5 -6.48,-0.5 -8.14,0 -16.11,2.35 -22.95,6.74 -8.34,6.18 -14.99,14.39 -19.25,23.86 -3.79,7.59 -7.09,15.51 -9.8,23.57 -1.86,5.43 -3.1,11.09 -3.64,16.82 -0.35,3.93 -0.24,6.32 -0.43,6.32 -0.18,-0.53 -0.27,-1.09 -0.27,-1.66 -0.06,-0.79 -0.09,-1.58 -0.09,-2.38 0,-0.79 0.03,-1.58 0.09,-2.38 0.24,-5.85 1.27,-11.63 3.03,-17.21 2.55,-8.23 5.73,-16.31 9.47,-24.08 4.28,-9.83 11.06,-18.37 19.65,-24.76 7.05,-4.57 15.28,-7.02 23.69,-7.02 2.43,0 4.86,0.21 7.26,0.61 8.61,1.42 16.74,5.01 23.58,10.42 4.61,3.59 8.72,7.82 12.17,12.53 0.95,1.25 1.84,2.57 2.64,3.93 0.68,1.05 0.96,1.6 0.87,1.64z" data-name="Path 1484"/>
   <g>
    <path id="Path_1485" class="fil9" d="M950.08 2243.14c-3.45,-3.23 -8.01,-5.02 -12.73,-5.02 -6.68,0 -12.86,3.58 -16.19,9.38 -1.76,4.05 -2.82,8.41 -3.06,12.81 -0.31,1.62 -0.46,3.28 -0.46,4.93 0,1.65 0.15,3.31 0.46,4.93 0.57,1.57 1.04,3.19 1.41,4.83 0.02,0.37 0.04,0.73 0.04,1.08 0,1.66 -0.27,3.32 -0.78,4.9 -1.05,3.14 -1.64,6.44 -1.74,9.75 0,0.06 0,0.14 0,0.2 0,3.29 1.66,6.37 4.42,8.17 1.26,0.39 2.43,1.04 3.42,1.89 0.66,1.02 1.01,2.21 1.01,3.42 0,0.17 -0.01,0.35 -0.02,0.51 0,5.34 0.27,10.69 0.39,16.03 6.27,-4.59 9.99,-11.9 9.99,-19.67 0,-1.4 -0.12,-2.81 -0.36,-4.18 -0.74,-2.68 -1.25,-5.44 -1.49,-8.21 0,-6.09 4.75,-11.52 4.24,-17.6 -0.51,-6.09 -5.27,-10.06 -6.4,-15.72 -0.15,-0.79 -0.23,-1.59 -0.23,-2.39 0,-3.58 1.51,-6.99 4.16,-9.39 2.12,-1.78 4.8,-2.74 7.56,-2.74 1.62,0 3.22,0.33 4.7,0.97l1.67 1.13zm0 0l0 0 0 0z" data-name="Path 1485"/>
   </g>
   <g>
    <path id="Path_1486" class="fil9" d="M1167.19 2068.9c-3.95,-5.49 -10.3,-8.74 -17.06,-8.74 -8.07,0 -15.44,4.62 -18.94,11.9 -1.35,3.94 -3.26,7.7 -5.63,11.12 -5.06,5.58 -14.53,4.67 -19.64,10.18 -1.7,1.97 -2.92,4.31 -3.54,6.84 -0.89,3.09 -1.34,6.29 -1.34,9.5 0,6.26 1.71,12.41 4.95,17.77 4.43,5.17 8.02,11.03 10.57,17.33 2,8.65 -2.74,19.09 2.75,25.94 8.97,-9.32 14,-21.76 14,-34.7 0,-5.57 -0.94,-11.12 -2.77,-16.39 -0.99,-2.13 -1.53,-4.45 -1.57,-6.8 0.71,-7.86 12.53,-8.41 17.37,-14.66 3.54,-4.56 2.59,-11.08 2.79,-16.9 0.19,-5.82 3.39,-12.89 9.08,-12.58 3.93,0 8.25,3.54 10.74,0.63l-1.76 -0.45zm0 0l0 0 0 0z" data-name="Path 1486"/>
   </g>
   <g>
    <path id="Path_1487" class="fil9" d="M1261.46 2250.91c-1.73,2.9 -3.45,6.76 -1.41,9.48 0.9,1.22 2.36,1.89 3.34,3.03 2.24,2.74 0.86,6.84 -0.32,10.17 -1.18,3.34 -1.53,7.86 1.53,9.63 1.84,0.94 3.93,0.31 6.05,0.58 3.62,0.79 6.45,3.62 7.27,7.24 0.45,2.06 0.68,4.18 0.68,6.29 0,1.53 -0.12,3.08 -0.36,4.6 5.86,-2.99 7.51,-10.69 7.86,-17.37 0.09,-0.63 0.14,-1.27 0.14,-1.91 0,-2.64 -0.84,-5.2 -2.39,-7.33 -0.94,-0.99 -2.12,-1.61 -2.98,-2.67 -2.16,-2.67 -1.14,-6.6 -0.28,-9.94 0.86,-3.35 1.1,-7.86 -1.76,-9.51 -1.9,-1.18 -4.8,-0.83 -6.09,-2.67 -1.89,-2.67 2.16,-6.41 -0.79,-7.86l-10.49 8.25zm0 0l0 0 0 0z" data-name="Path 1487"/>
   </g>
   <path id="Path_1488" class="fil9" d="M1391.53 2280.39c-7.62,-22.46 -26.25,-39.46 -49.31,-45.03 -3.14,-0.89 -6.4,-1.35 -9.67,-1.35 -6.35,0 -12.59,1.72 -18.04,4.96l-1.84 0.71c-1.3,12.27 -2.32,25.66 4.42,35.84 10.73,16.19 35.37,16.11 47.63,31.25 8.92,11.12 8.49,27.51 14.86,40.2 9.99,-12.65 15.45,-28.33 15.45,-44.46 0,-7.51 -1.18,-14.97 -3.49,-22.11l0 0zm-65.75 54.78c-0.97,3.36 -4.06,5.69 -7.56,5.69 -0.1,0 -0.21,0 -0.31,-0.01 -3.53,-0.35 -6.57,-2.67 -7.85,-5.97 -0.54,-1.43 -0.81,-2.93 -0.81,-4.45 0,-2.03 0.5,-4.04 1.44,-5.85l0.4 0.75c1.52,-0.94 3.28,-1.44 5.07,-1.44 5.37,0 9.71,4.35 9.71,9.72 0,0.53 -0.04,1.06 -0.13,1.58l0.04 -0.02z" data-name="Path 1488"/>
   <path id="Path_1489" class="fil6" d="M1368.03 2285.74c-0.55,-0.55 -1.02,-1.17 -1.38,-1.84l-3.62 -5.58c-4.34,-6.82 -9.33,-13.25 -14.85,-19.14 -8.69,-8.22 -19.04,-14.53 -30.32,-18.47 -6.55,-2.54 -13.49,-3.98 -20.51,-4.25 -0.34,-0.01 -0.69,-0.01 -1.03,-0.01 -7.14,0 -14.18,1.81 -20.44,5.24 -12.42,7.75 -22.83,18.45 -30.22,31.09 -6.55,10.05 -12.24,20.72 -16.86,31.79 -3.04,7.46 -5.69,15.18 -7.85,22.96 -1.61,5.54 -2.32,8.65 -2.53,8.61 0,-0.79 0.11,-1.58 0.31,-2.33 0.23,-1.49 0.71,-3.7 1.38,-6.48 1.94,-7.92 4.45,-15.74 7.46,-23.3 4.45,-11.26 10.03,-22.13 16.54,-32.31 7.53,-13 18.14,-23.97 30.91,-31.9 6.5,-3.56 13.82,-5.44 21.24,-5.44 0.43,0 0.89,0.01 1.31,0.02 7.24,0.29 14.41,1.81 21.14,4.48 11.5,4.13 22.03,10.71 30.77,19.25 5.48,6.01 10.35,12.63 14.46,19.65 1.45,2.47 2.52,4.42 3.26,5.77 0.4,0.68 0.69,1.43 0.86,2.2l-0.03 0.01z" data-name="Path 1489"/>
   <path id="Path_1490" class="fil9" d="M1066.04 2372.93c0.32,0.23 0.63,0.51 0.94,0.71l1.1 -0.32 -2.04 -0.39z" data-name="Path 1490"/>
   <path id="Path_1491" class="fil9" d="M1087.81 2467.28c-0.55,-6.57 -1.89,-13.04 -2.12,-19.65 -0.48,-13.01 3.38,-25.97 2.08,-38.9 -1.46,-14.17 -9.07,-27 -20.78,-35.1 -18.1,5.62 -32.89,18.81 -40.52,36.16 -3.62,8.46 -5.49,17.57 -5.49,26.77 0,10.16 2.29,20.21 6.67,29.38 4.75,7.15 8.1,15.18 9.85,23.58 0.67,8.49 -3.58,16.67 -4.96,25.15 -2.79,17.29 6.22,34.03 14.9,49.12 -0.14,-1.2 -0.21,-2.42 -0.21,-3.62 0,-7.22 2.56,-14.23 7.21,-19.75 4.98,-6.64 11.37,-12.1 16.66,-18.47 10.98,-13.7 16.97,-30.74 16.97,-48.31 0,-2.12 -0.09,-4.25 -0.27,-6.37l0 0.01zm-32.42 30.89c-0.9,1.44 -2.18,2.62 -3.7,3.41 -0.66,0.34 -1.38,0.52 -2.12,0.52 -0.94,0 -1.87,-0.29 -2.64,-0.84 -0.84,-0.83 -1.49,-1.84 -1.89,-2.95 -0.79,-1.67 -1.49,-3.4 -2.08,-5.15 -0.67,-2.22 -1.02,-4.54 -1.02,-6.86 0,-5.46 1.87,-10.75 5.29,-15l0 -0.23c0.15,-0.01 0.31,-0.01 0.47,-0.01 2.76,0 5.37,1.25 7.11,3.39 2.85,3.26 4.42,7.44 4.42,11.77 0,0.01 0,0.01 0,0.02 -0.01,4.27 -1.37,8.43 -3.85,11.91l0 0.01z" data-name="Path 1491"/>
   <path id="Path_1492" class="fil6" d="M1047.92 2438.6c-0.05,-0.4 -0.07,-0.81 -0.07,-1.22 0,-0.41 0.02,-0.82 0.08,-1.22 0,-1.61 0.47,-3.93 0.86,-6.94 1.17,-8.49 2.84,-17 4.92,-25.31 2.96,-12.46 7.74,-24.45 14.14,-35.56 7.77,-13.87 19.4,-25.18 33.48,-32.54 8,-4.06 16.88,-6.19 25.86,-6.19 6.91,0 13.79,1.26 20.25,3.72 11.81,5.46 21.56,14.59 27.8,25.98 4.29,7.47 8,15.31 11.01,23.37 1.06,2.83 1.89,5.06 2.4,6.56 0.31,0.76 0.54,1.56 0.66,2.36 -0.45,-0.68 -0.81,-1.42 -1.06,-2.2 -0.74,-1.65 -1.65,-3.93 -2.79,-6.4 -3.23,-7.87 -7.14,-15.57 -11.51,-22.87 -6.22,-10.98 -15.78,-19.71 -27.27,-24.92 -6.19,-2.31 -12.76,-3.49 -19.37,-3.49 -8.73,0 -17.34,2.07 -25.12,6.02 -13.66,7.15 -25.01,18.08 -32.69,31.45 -6.37,10.91 -11.24,22.72 -14.39,34.96 -2.82,10.42 -4.42,19.09 -5.54,25.04 -0.51,2.82 -0.9,5.11 -1.26,6.87 -0.06,0.86 -0.2,1.71 -0.42,2.54l0.04 0.01z" data-name="Path 1492"/>
   <path id="Path_1493" class="fil9" d="M856.52 2189.53c-25.17,5.78 -46.2,23.08 -56.71,46.68 -4.55,10.65 -6.92,22.13 -6.92,33.71 0,14.23 3.56,28.26 10.34,40.76 5.84,-10.11 11.14,-20.72 15.74,-31.45 5.5,-10.29 13.64,-20.51 24.95,-22.9 9.48,-1.97 18.79,-2.01 28.18,-4.29 10.2,-2.39 19.2,-8.46 25.25,-17.04 6.72,-9 15.51,-13.99 22.24,-22.95 -13.35,-20.16 -39.99,-27.43 -63.05,-22.52zm-12.55 117.54c-0.4,0.91 -1.02,1.71 -1.81,2.31 -0.71,0.44 -1.54,0.67 -2.38,0.67 -1.25,0 -2.44,-0.51 -3.31,-1.41 -0.97,-1.11 -1.51,-2.54 -1.51,-4.01 0,-0.67 0.11,-1.33 0.32,-1.97 0.51,-1.61 1.89,-3.1 3.54,-2.79l-0.58 0.99c0.64,-0.89 1.67,-1.42 2.77,-1.42 1.1,0 2.13,0.53 2.77,1.42 -2.51,0.68 -5.09,1.02 -7.69,1.02 -16.11,0 -29.19,-13.07 -29.19,-29.18 0,-13.16 8.81,-24.69 21.5,-28.16l15.55 62.52zm47.83 -15.92c-2.9,3.59 -7.03,6 -11.59,6.76 -1.94,0.29 -3.9,0.44 -5.86,0.44 -2.57,0 -5.14,-0.26 -7.66,-0.76 -2.06,-0.19 -4.03,-0.95 -5.69,-2.2 -1.29,-1.23 -2.02,-2.94 -2.02,-4.73 0,-0.89 0.18,-1.77 0.53,-2.59 0.19,-0.45 0.5,-0.83 0.9,-1.1 0.38,-0.2 0.81,-0.31 1.23,-0.31 0.14,0 0.28,0.01 0.42,0.04 1.01,0.17 2.03,0.24 3.05,0.24 2.63,0 5.23,-0.54 7.64,-1.58 2.41,-1.85 4.46,-4.13 6.05,-6.72 1.3,-1.81 3.13,-3.18 5.22,-3.93 -0.13,0.03 -0.26,0.04 -0.39,0.04 -0.13,0 -0.27,-0.01 -0.39,-0.04l1.73 0c0.19,-0.03 0.37,-0.04 0.57,-0.04 0.19,0 0.38,0.01 0.57,0.04 0.62,-0.17 1.25,-0.29 1.89,-0.35 2.41,0.17 4.51,1.69 5.42,3.93 0.64,1.58 0.98,3.26 0.98,4.97 0,2.84 -0.92,5.61 -2.63,7.88l0.02 0.01z" data-name="Path 1493"/>
   <path id="Path_1494" class="fil6" d="M838.67 2221.95c0.41,-0.5 0.87,-0.95 1.38,-1.34 1.35,-1.22 2.79,-2.38 4.28,-3.46 5.55,-3.9 11.65,-7.01 18.08,-9.19 7.92,-2.72 16.28,-4.11 24.66,-4.11 1.71,0 3.46,0.06 5.16,0.18 12.43,0.64 24.52,4.44 35.09,11.01 10.4,6.76 19.25,15.67 25.97,26.09 5.44,8.42 10.06,17.42 13.75,26.75 3.16,7.86 5.31,14.53 6.64,19.09 0.71,2.28 1.18,3.93 1.49,5.31 0.19,0.63 0.33,1.26 0.39,1.9 -1.05,-2.23 -1.94,-4.56 -2.67,-6.91 -1.57,-4.48 -3.93,-10.96 -7.27,-18.78 -3.82,-9.15 -8.52,-18 -14,-26.26 -6.62,-10.11 -15.32,-18.78 -25.46,-25.38 -10.27,-6.37 -22,-10.1 -34.07,-10.84 -1.83,-0.12 -3.69,-0.2 -5.52,-0.2 -8.04,0 -16.06,1.25 -23.71,3.7 -8.62,2.92 -16.8,7.14 -24.19,12.46l-0.01 0z" data-name="Path 1494"/>
   <g>
    <path id="Path_1495" class="fil9" d="M1451.34 2134.59c8.1,5.11 17.49,7.83 27.08,7.83 3.77,0 7.56,-0.43 11.24,-1.26 10.85,-2.53 21.41,-8.72 32.38,-6.8 8.48,1.45 15.72,7.66 24.4,7.86 11.78,0.43 21.47,-10.14 33.24,-11.37 0.09,0 0.21,0 0.3,0 8,0 15.84,2.18 22.68,6.32 2.08,-8.57 -4.16,-16.67 -9.94,-23.19 -11.79,-13.09 -24.49,-26.87 -41.39,-30.89 -18.63,-4.42 -37.76,3.93 -56.9,3.93 -1.47,-0.1 -2.97,-0.15 -4.46,-0.15 -2.99,0 -5.98,0.21 -8.93,0.63 -7.25,2.31 -13.77,6.53 -18.86,12.19 -5.27,4.08 -9.35,9.51 -11.78,15.71 -1.73,5.89 -0.48,12.3 -2,18.24l2.95 0.97zm0 0l0 0 0 0z" data-name="Path 1495"/>
   </g>
   <path id="Path_1496" class="fil6" d="M1563.18 2112.39c0,0 -3.03,-0.94 -8.48,-2.32 -7.71,-1.97 -15.64,-3.1 -23.59,-3.3 -1.09,-0.04 -2.24,-0.05 -3.35,-0.05 -10.7,0 -21.37,1.47 -31.66,4.34 -13.97,3.81 -27.27,9.93 -39.29,18 -21.65,14.97 -40.24,34.18 -54.54,56.3 -4.57,6.52 -8.37,13.63 -11.24,21.06 -1.89,5.31 -2.39,8.41 -2.59,8.37 -0.01,-0.12 -0.01,-0.25 -0.01,-0.37 0,-0.64 0.06,-1.28 0.2,-1.91 0.38,-2.15 0.92,-4.29 1.61,-6.37 2.6,-7.64 6.23,-14.92 10.75,-21.61 14.09,-22.59 32.72,-42.17 54.63,-57.31 12.21,-8.16 25.71,-14.3 39.91,-18.11 9.9,-2.67 20.13,-4.04 30.4,-4.04 1.65,0 3.36,0.06 4.99,0.12 8.06,0.32 16.07,1.64 23.81,3.92 2.09,0.61 4.17,1.36 6.17,2.2 0.82,0.22 1.6,0.59 2.3,1.07l0 0z" data-name="Path 1496"/>
   <path id="Path_1497" class="fil5" d="M1874.92 3049.89l19.21 72.01c0,0 -66.8,43.7 -64.52,57.33l140.8 -32.21 -25.27 -113.45 -70.22 16.32z" data-name="Path 1497"/>
   <g>
    <path id="Path_1498" class="fil3" d="M1936.31 3105.81c3.01,0.22 5.38,2.67 5.5,5.68 -0.1,3.03 -2.55,5.44 -5.57,5.5 -3.19,-0.24 -5.68,-2.85 -5.78,-6.05 0.4,-2.92 2.9,-5.09 5.84,-5.09 0.2,0 0.4,0.01 0.61,0.03l-0.6 -0.07zm0 0l0 0 0 0z" data-name="Path 1498"/>
   </g>
   <path id="Path_1499" class="fil10" d="M1970.42 3147.03l-2.99 -11.32 -134.04 35.11c0,0 -5.68,4.17 -3.93,8.41l140.96 -32.21z" data-name="Path 1499"/>
   <path id="Path_1500" class="fil6" d="M1891.84 3121.68c0.19,0.67 3.7,0.19 7.58,1.65 3.88,1.45 6.37,3.93 6.94,3.5 0.58,-0.43 -1.38,-4.16 -6.13,-5.82 -4.76,-1.66 -8.85,0.08 -8.4,0.67z" data-name="Path 1500"/>
   <path id="Path_1501" class="fil6" d="M1878.27 3131.15c0,0.71 3.26,1.22 6.24,3.58 2.99,2.36 4.42,5.31 5.06,5.14 0.63,-0.16 0.23,-4.21 -3.58,-7.07 -3.81,-2.87 -7.84,-2.28 -7.72,-1.65z" data-name="Path 1501"/>
   <path id="Path_1502" class="fil6" d="M1873.91 3150.8c0.66,0 0.86,-3.66 -1.77,-7.04 -2.64,-3.38 -6.21,-4.13 -6.37,-3.5 -0.16,0.63 2.32,2.2 4.42,4.99 2.1,2.79 3.04,5.62 3.72,5.55z" data-name="Path 1502"/>
   <path id="Path_1503" class="fil6" d="M1889.11 3104.9c0.43,0.55 3.39,-1.1 7.35,-1.74 3.97,-0.63 7.27,0 7.47,-0.78 0.19,-0.79 -3.26,-2.44 -7.86,-1.65 -4.6,0.79 -7.39,3.57 -6.96,4.16z" data-name="Path 1503"/>
   <polygon id="Path_1504" class="fil4" points="1715.65,2195.31 1645.53,2441.78 1700.63,2452.52 1737.02,2328.26 " data-name="Path 1504"/>
   <path id="Path_1505" class="fil3" d="M1715.63 2195.31c1.22,7.35 9.04,54.07 22.2,132.82l0 0.4c-10.53,36.07 -22.9,78.59 -36.23,124.29l-0.28 0.94 -0.94 -0.2 -23.58 -4.6 -31.44 -6.13 -1.13 -0.23 0.31 -1.09c19.85,-69.75 37.9,-131.65 50.73,-175.73 12.34,-42.52 18.96,-65.39 20.43,-70.46 -1.45,5.14 -7.85,28.49 -20.04,71.83 -12.38,44.44 -29.39,105.79 -49.04,174.97l-0.83 -1.34 31.44 6.13 23.57 4.6 -1.22 0.75c13.44,-45.67 25.94,-88.18 36.5,-124.18l0 0.39c-12.12,-78.96 -19.3,-125.77 -20.46,-133.16z" data-name="Path 1505"/>
   <path id="Path_1506" class="fil3" d="M2034.19 2618.36c0,0 -5.05,20.67 -34.78,24.68 -89.51,12.06 -142.68,79.92 -142.68,79.92l23.3 -75.6 86.22 -60.09 55.02 17.33 12.93 13.75z" data-name="Path 1506"/>
   <path id="Path_1507" class="fil6" d="M1914.74 2796.43c-14.93,-59.73 -25.62,-91.8 -25.62,-91.8 0,0 1.69,-254.4 0,-275.54 -4.13,-51.08 -32.9,-109.63 -36.64,-117.1l-141.94 33.28 9.12 70.75 35.72 310.99 122.84 355.87 84.29 -13.09c0,0 -32.82,-213.64 -47.78,-273.36z" data-name="Path 1507"/>
   <g>
    <path id="Path_1508" class="fil5" d="M1781.78 2032.11l5.19 1.18 52.66 11.79c0,0 11.2,134.39 13.09,151.17 1.89,16.78 -21.48,50.41 -21.48,50.41 0,0 21.48,13.04 27.23,29.86 5.76,16.83 0,45.43 0,45.43l-32.19 28.42c-13.07,11.67 -28.8,20.08 -45.77,24.48l-66.81 17.25c0,0 -7.86,-146.61 -28.18,-205.37 -13.59,-39.3 23.58,-123.43 23.58,-123.43l45.98 -31.44 26.69 0.23zm0 0l0 0 0 0z" data-name="Path 1508"/>
   </g>
   <path id="Path_1509" class="fil11" d="M1749.41 2169.65c-19.11,2.22 -38.47,3.32 -57.77,3.32 -2.71,0 -5.47,-0.06 -8.11,-0.06 10.84,-1.6 21.87,-2.54 32.86,-2.72 6.91,-0.53 13.92,-0.83 20.86,-0.83 4.03,0 8.16,0.13 12.16,0.3l0 -0.01z" data-name="Path 1509"/>
   <path id="Path_1510" class="fil11" d="M1759.08 2244.32c-9.54,1.99 -19.27,3.35 -29.01,3.94 -8.75,1.12 -17.63,1.69 -26.45,1.69 -0.9,0 -1.91,-0.02 -2.79,-0.02 9.54,-2.02 19.31,-3.34 29.05,-3.92 8.68,-1.15 17.47,-1.71 26.2,-1.71 0.99,0 2.04,0.02 3,0.02l-0.01 0z" data-name="Path 1510"/>
   <path id="Path_1511" class="fil11" d="M1771.62 2327.38c-2.55,1.73 -5.35,3.05 -8.3,3.93 -11.22,4.11 -23.12,6.22 -35.08,6.22 -2.85,0 -5.7,-0.12 -8.54,-0.37 -3.08,-0.04 -6.14,-0.59 -9.04,-1.6 2.39,0.05 4.84,0.11 7.26,0.11 7.87,0 15.8,-0.41 23.62,-1.17 10.18,-1.66 20.23,-4.07 30.06,-7.12l0.02 0z" data-name="Path 1511"/>
   <g>
    <path id="Path_1512" class="fil6" d="M1695.65 1988.89c-8.72,-4.89 -15.15,-13.05 -17.88,-22.67 -3.31,-9.31 -4.83,-19.26 -8.49,-28.43 -2.74,-6.88 0.28,-17.76 -5.89,-21.85 -7.86,-5.11 -7.63,-18.63 -4.64,-25.35 3.22,-7.35 12,-12.81 12.63,-15.16 1.58,-6.09 -3.93,-12.68 -1.81,-18.7 1.38,-7.13 7.63,-12.27 14.89,-12.27 0.41,0 0.82,0.01 1.23,0.05 5.76,-8.28 14.02,-14.48 23.57,-17.69 12.46,-3.15 30.77,-5.57 41.86,0.94 11.08,6.52 19.22,10.85 22.79,23.18l-78.27 137.95zm0 0l0 0 0 0z" data-name="Path 1512"/>
   </g>
   <path id="Path_1513" class="fil12" d="M1791.38 1868.21c6.42,0.69 11.29,6.11 11.29,12.56 0,0.09 -0.01,0.19 -0.01,0.28l0 0.01 -7.54 170.7c-0.32,20.16 -29.75,31.44 -51.33,30.96l0 -0.01c-21.81,-0.51 -22.47,-11.19 -22.74,-30.32 -0.47,-32.02 -0.42,-44.05 -0.42,-43.86 0,0.19 -27.51,-4.64 -33.13,-40.55 -1.19,-12.28 -1.79,-24.68 -1.79,-37.04 0,-11.33 0.51,-22.8 1.49,-34.08 1.38,-21.53 15.72,-47.94 37.18,-45.62l67 16.96z" data-name="Path 1513"/>
   <path id="Path_1514" class="fil6" d="M1694.2 1921.26c0,0.04 0,0.09 0,0.12 0,2.48 1.94,4.52 4.42,4.63 0.12,0.01 0.24,0.01 0.36,0.01 2.25,0 4.15,-1.7 4.39,-3.94 0,-0.01 0,-0.03 0,-0.04 0,-2.48 -1.94,-4.52 -4.42,-4.63 -0.12,-0.01 -0.24,-0.01 -0.37,-0.01 -2.23,0 -4.11,1.66 -4.39,3.87l0 -0.01z" data-name="Path 1514"/>
   <path id="Path_1515" class="fil6" d="M1693.49 1911.98c0.58,0.63 3.93,-1.96 9.04,-1.89 5.11,0.07 8.56,2.53 9.11,1.89 0.55,-0.63 -0.31,-1.34 -1.89,-2.52 -2.1,-1.46 -4.59,-2.25 -7.15,-2.25 -0.05,0 -0.11,0.01 -0.17,0.01 -0.01,-0.01 -0.03,-0.01 -0.05,-0.01 -2.56,0 -5.05,0.81 -7.14,2.28 -1.48,1.15 -2.03,2.21 -1.76,2.48z" data-name="Path 1515"/>
   <path id="Path_1516" class="fil6" d="M1742.1 1921.26c0,0.04 0,0.09 0,0.13 0,2.43 1.89,4.46 4.32,4.62 0.14,0.01 0.27,0.02 0.42,0.02 2.25,0 4.13,-1.71 4.34,-3.95 0,-0.01 0,-0.03 0,-0.04 0,-2.48 -1.94,-4.52 -4.42,-4.63 -0.08,-0.01 -0.17,-0.01 -0.24,-0.01 -2.23,0 -4.11,1.66 -4.39,3.86l-0.02 -0.01z" data-name="Path 1516"/>
   <path id="Path_1517" class="fil6" d="M1742.22 1913.01c0.55,0.63 3.93,-1.97 9,-1.9 5.07,0.07 8.6,2.53 9.15,1.9 0.55,-0.63 -0.31,-1.34 -1.89,-2.48 -2.09,-1.48 -4.6,-2.28 -7.16,-2.28 -0.04,0 -0.07,0 -0.11,0 -0.03,0 -0.06,0 -0.09,0 -2.54,0 -5.03,0.8 -7.09,2.28 -1.53,1.14 -2.07,2.24 -1.8,2.48z" data-name="Path 1517"/>
   <path id="Path_1518" class="fil6" d="M1724.14 1949.59c-2.6,-0.84 -5.32,-1.35 -8.05,-1.49 -1.27,0 -2.44,-0.39 -2.67,-1.26 -0.02,-0.21 -0.03,-0.42 -0.03,-0.64 0,-1.16 0.31,-2.29 0.89,-3.29 1.22,-3.06 2.44,-6.24 3.93,-9.62 3.49,-8.15 6.32,-16.6 8.44,-25.2 -4.11,7.85 -7.63,16.05 -10.46,24.44 -1.26,3.39 -2.47,6.6 -3.61,9.71 -0.55,1.05 -0.83,2.23 -0.83,3.41 0,0.52 0.05,1.04 0.16,1.54 0.36,0.91 1.14,1.59 2.08,1.84 0.71,0.19 1.43,0.3 2.16,0.32 1.65,0.24 3.31,0.37 4.98,0.37 0.99,0 2,-0.05 3,-0.14l0 0z" data-name="Path 1518"/>
   <path id="Path_1519" class="fil13" d="M1720.61 2008.54c0.5,0.01 1.05,0.01 1.58,0.01 16.36,0 32.45,-4.41 46.52,-12.74 14.07,-8.33 -12.18,25.3 -48.09,21.89l0 -9.16z" data-name="Path 1519"/>
   <g>
    <path id="Path_1520" class="fil13" d="M1726.25 1961.69c1.69,-2.11 4.24,-3.35 6.95,-3.35 0.3,0 0.61,0.02 0.91,0.05 2.2,0.2 4.24,1.29 5.62,3.03 0.73,0.91 1.12,2.04 1.12,3.2 0,0.95 -0.27,1.89 -0.77,2.69 -1.13,1.27 -2.75,2 -4.46,2 -0.68,0 -1.37,-0.12 -2.02,-0.35 -2.35,-0.89 -4.49,-2.22 -6.32,-3.93 -0.55,-0.4 -1.03,-0.89 -1.42,-1.45 -0.17,-0.28 -0.27,-0.6 -0.27,-0.92 0,-0.33 0.09,-0.65 0.27,-0.92l0.38 -0.04zm0 0l0 0 0 0z" data-name="Path 1520"/>
   </g>
   <path id="Path_1521" class="fil6" d="M1738.57 1953.2c-0.79,0 -0.83,5.31 -5.42,9.11 -4.6,3.81 -10.34,3.22 -10.37,3.93 -0.04,0.71 1.26,1.02 3.7,1.09 0.06,0 0.12,0 0.18,0 3.08,0 6.06,-1.06 8.46,-2.99 2.41,-1.94 3.93,-4.78 4.21,-7.86 0.38,-2 -0.24,-3.33 -0.76,-3.29z" data-name="Path 1521"/>
   <path id="Path_1522" class="fil6" d="M1740.33 1896.53c0.48,1.34 5.42,0.71 11.24,1.42 5.81,0.71 10.49,2.32 11.27,1.09 0.35,-0.55 -0.48,-1.81 -2.36,-3.15 -2.51,-1.64 -5.39,-2.64 -8.37,-2.95 -0.77,-0.09 -1.53,-0.14 -2.3,-0.14 -2.22,0 -4.42,0.4 -6.5,1.17 -2.12,0.88 -3.22,1.94 -2.99,2.56z" data-name="Path 1522"/>
   <path id="Path_1523" class="fil6" d="M1692.51 1898.51c0.86,1.14 4.29,0 8.41,0 4.13,0 7.58,0.79 8.37,-0.39 0.36,-0.55 -0.19,-1.69 -1.69,-2.75 -1.91,-1.24 -4.14,-1.9 -6.42,-1.9 -0.13,0 -0.27,0.01 -0.41,0.01 -2.41,0.02 -4.76,0.83 -6.68,2.28 -1.44,1.02 -1.92,2.15 -1.56,2.75z" data-name="Path 1523"/>
   <g>
    <path id="Path_1524" class="fil6" d="M1771.65 1848.44c0,0.04 0,0.09 0,0.13 0,13.54 -10.98,24.52 -24.53,24.52 -1.48,0 -2.98,-0.14 -4.44,-0.4 -5.5,-0.99 -11.52,-3.93 -16.27,-0.83 -4.75,3.1 -5.19,10.57 -9.62,14.42 -6.32,5.5 -16.39,0.35 -24.4,2.75 -6.21,1.81 -10.11,7.86 -14.23,12.73 -4.12,4.88 -10.29,9.75 -16.51,7.86 0.17,-5.59 1.01,-11.15 2.48,-16.54 1.47,-5.45 4.8,-10.21 9.4,-13.48 2.68,-1.4 5.34,-2.96 7.85,-4.63 5.15,-4.16 6.32,-11.37 9.51,-17.21 4.26,-7.56 11.89,-12.63 20.51,-13.6 7.08,-0.71 14.35,1.42 21.22,-0.35 5.11,-1.26 9.55,-4.56 14.7,-5.54 10.06,-1.89 19.38,5.31 26.68,12.46l-2.35 -2.28zm0 0l0 0 0 0z" data-name="Path 1524"/>
   </g>
   <g>
    <path id="Path_1525" class="fil6" d="M1790.56 1926.25c1.5,0.59 2.48,2.04 2.48,3.65 0,2.17 -1.76,3.93 -3.93,3.93 -0.02,0 -0.05,0 -0.08,0 -12.07,2.75 -13.64,-20.84 -10.97,-27.51 -4.5,-3.75 -8.55,-8.05 -12.01,-12.77 -3.64,-7.17 -5.55,-15.13 -5.55,-23.17 0,-0.4 0.01,-0.84 0.01,-1.23 -4.36,0.27 -22.88,-5.86 -20.91,-6.41 4.52,-1.29 13.71,-4.21 16.15,-8.13 4.92,-8.51 14,-13.75 23.83,-13.75 0.04,0 0.09,0 0.13,0 10.03,0.81 18.35,8.12 20.43,17.96 11.96,0.4 22.75,7.35 28.06,18.08 2.56,5.19 3.9,10.92 3.9,16.72 0,6.54 -1.7,12.98 -4.93,18.66 -1.94,2.54 -3.21,5.52 -3.66,8.69 0.66,3.88 2.39,7.5 4.99,10.45 2.77,5.03 4.24,10.69 4.24,16.44 0,5.11 -1.16,10.16 -3.37,14.76 -4.42,9.82 -7.51,13.27 -13.76,15.25 -12.26,3.93 1.97,29.06 -18.43,29.06l-6.63 -80.66zm0 0l0 0 0 0z" data-name="Path 1525"/>
   </g>
   <path id="Path_1526" class="fil12" d="M1790.05 1936.1c0.22,-5.63 4.85,-10.08 10.49,-10.08 1.67,0 3.32,0.4 4.8,1.16 3.93,2.68 6.28,7.13 6.28,11.89 0,0.86 -0.08,1.72 -0.23,2.56 -0.86,21.62 -22.4,16.27 -22.44,15.72 -0.04,-0.55 0.69,-12.29 1.09,-21.26z" data-name="Path 1526"/>
   <path id="Path_1527" class="fil13" d="M1795.97 1949.37c0.3,0.25 0.63,0.46 0.98,0.63 0.45,0.17 0.94,0.27 1.42,0.27 0.48,0 0.97,-0.09 1.41,-0.27 2.87,-1.64 4.64,-4.7 4.64,-8.01 0,-0.05 0,-0.11 0,-0.17 0.02,-0.3 0.04,-0.61 0.04,-0.91 0,-1.56 -0.3,-3.1 -0.86,-4.54 -0.35,-1.39 -1.36,-2.51 -2.71,-2.99 -0.19,-0.06 -0.38,-0.09 -0.58,-0.09 -0.71,0 -1.35,0.4 -1.66,1.04 -0.32,0.58 -0.19,1.02 -0.32,1.06 -0.12,0.04 -0.48,-0.39 -0.24,-1.26 0.12,-0.55 0.45,-1.03 0.91,-1.35 0.48,-0.33 1.04,-0.51 1.62,-0.51 0.16,0 0.31,0.01 0.46,0.04 1.85,0.38 3.35,1.74 3.93,3.54 0.72,1.61 1.09,3.37 1.09,5.14 0,0.3 -0.01,0.61 -0.04,0.91 0.01,0.05 0.01,0.11 0.01,0.16 0,3.9 -2.32,7.42 -5.9,8.96 -0.32,0.08 -0.66,0.12 -0.99,0.12 -0.88,0 -1.74,-0.29 -2.43,-0.84 -0.75,-0.4 -0.84,-0.71 -0.79,-0.93z" data-name="Path 1527"/>
   <path id="Path_1528" class="fil9" d="M1822.19 1919.29c0.63,-1.11 1.22,-2.28 1.73,-3.45 1.25,-2.94 1.91,-6.1 1.91,-9.29 0,-0.26 -0.01,-0.52 -0.01,-0.77 -0.14,-5.11 -2.12,-10 -5.58,-13.76 -1.95,-2.23 -4.36,-4.03 -7.03,-5.3 -2.95,-1.28 -6.14,-2 -9.36,-2.08 -6.68,-0.32 -13.2,0.71 -19.22,0 -5.31,-0.58 -10.39,-2.58 -14.65,-5.78 -2.87,-2.14 -5.32,-4.8 -7.2,-7.85 -0.75,-1.07 -1.31,-2.28 -1.65,-3.54 2.44,4.08 5.68,7.66 9.51,10.49 4.17,2.97 9.06,4.8 14.15,5.31 5.77,0.63 12.22,-0.43 19.14,0 3.43,0.09 6.81,0.86 9.94,2.25 2.9,1.33 5.49,3.28 7.58,5.68 3.64,4.07 5.65,9.33 5.65,14.79 0,3.6 -0.88,7.15 -2.55,10.33 -0.58,1.16 -1.39,2.2 -2.39,3.03l0.03 -0.04z" data-name="Path 1528"/>
   <path id="Path_1529" class="fil9" d="M1822.18 1871.35c-2.7,-1.59 -5.76,-2.48 -8.88,-2.59 -0.09,-0.01 -0.19,-0.01 -0.27,-0.01 -3.28,0 -6.55,0.58 -9.64,1.69 -3.65,1.18 -7.54,2.99 -11.78,4.36 -2.79,0.94 -5.72,1.43 -8.66,1.43 -1.4,0 -2.81,-0.11 -4.19,-0.32 -3.52,-0.61 -6.89,-1.95 -9.87,-3.93 -1.99,-1.28 -3.78,-2.87 -5.3,-4.67 -0.61,-0.62 -1.09,-1.35 -1.42,-2.16 2.18,2.18 4.59,4.14 7.15,5.86 2.93,1.69 6.16,2.82 9.51,3.34 1.15,0.14 2.3,0.22 3.46,0.22 2.95,0 5.89,-0.49 8.68,-1.44 4.25,-1.3 8.18,-3.1 11.79,-4.24 2.9,-0.97 5.94,-1.46 9,-1.46 0.48,0 0.97,0.01 1.45,0.04 2.4,0.16 4.74,0.86 6.84,2.04 1.58,1.02 2.18,1.76 2.14,1.85z" data-name="Path 1529"/>
   <path id="Path_1530" class="fil9" d="M1676.91 1854.45c0.68,1.25 1.51,2.41 2.48,3.46 2.56,2.3 5.91,3.58 9.36,3.58 0.38,0 0.78,-0.01 1.16,-0.04 5.69,-0.76 10.95,-3.46 14.9,-7.63 4.91,-5.32 10.59,-9.9 16.82,-13.59 2.67,-1.26 5.58,-1.92 8.53,-1.92 0.92,0 1.84,0.06 2.75,0.19 3.54,0.58 6.92,1.92 9.9,3.93 4.98,3.31 9.05,7.86 11.79,13.17 1.89,3.47 3.55,7.09 4.91,10.81 0.61,1.33 1.06,2.73 1.35,4.16 -0.76,-1.25 -1.4,-2.57 -1.9,-3.93 -1.57,-3.59 -3.34,-7.1 -5.29,-10.49 -2.77,-5.09 -6.76,-9.44 -11.6,-12.63 -2.82,-1.81 -6,-3.01 -9.31,-3.5 -0.8,-0.1 -1.61,-0.16 -2.42,-0.16 -2.77,0 -5.5,0.62 -8,1.81 -6.07,3.6 -11.63,8.06 -16.47,13.2 -4.18,4.34 -9.74,7.12 -15.72,7.86 -0.22,0.01 -0.46,0.02 -0.7,0.02 -3.88,0 -7.61,-1.55 -10.34,-4.3 -0.75,-0.81 -1.33,-1.76 -1.73,-2.79 -0.23,-0.36 -0.39,-0.76 -0.46,-1.19l0 0z" data-name="Path 1530"/>
   <path id="Path_1531" class="fil9" d="M1751.61 1832.84c1.73,0.97 3.22,2.31 4.36,3.93 4.36,5.55 6.74,12.4 6.74,19.45 0,2.56 -0.32,5.11 -0.93,7.58 -0.35,1.95 -1.14,3.8 -2.31,5.39 0.26,-1.92 0.67,-3.82 1.18,-5.68 0.37,-2.04 0.55,-4.12 0.55,-6.19 0,-2.47 -0.27,-4.95 -0.79,-7.36 -0.99,-4.47 -2.82,-8.71 -5.39,-12.49 -1.22,-1.46 -2.37,-3.01 -3.41,-4.6l-0.01 -0.02z" data-name="Path 1531"/>
   <path id="Path_1532" class="fil5" d="M1398.46 1807.58c0,0 -29.59,12.77 -27.17,35.76 1.74,14.89 5.01,29.66 9.66,43.88 4.65,14.23 -46.48,-35.37 -91.94,-21.05l-0.28 10.53c3.36,-0.3 6.76,-0.45 10.12,-0.45 17.5,0 34.8,4.1 50.43,11.93 27.94,15.41 64.57,70.75 64.57,70.75l91.83 -41.22 -21.72 -35.38c0,0 3.06,-33.59 3.57,-42.95 0.76,-14.31 -16.84,-69.64 -89.06,-31.79zm-32.44 92.39c54.32,-10.49 33.24,-12.97 21.19,-45.98 0,0 -13.13,-21.77 13.52,-36.01 13.51,-6.38 28.31,-9.71 43.27,-9.71 0.23,0 0.47,0 0.7,0 0.68,-0.04 1.36,-0.06 2.04,-0.06 9.84,0 19.09,4.68 24.93,12.6 2.18,2.95 3.59,6.4 4.08,10.03l-109.72 69.13z" data-name="Path 1532"/>
   <path id="Path_1533" class="fil12" d="M1487.07 1792.72l-39.8 -1.77 -32.61 14.15c0,0 1.48,5.11 4.6,4.72 6.19,-1.27 12.37,-3.01 18.32,-5.19l-10.42 9.12 -0.41 6.7c0,0 10.26,12.53 12.06,11.2 1.54,-1.7 2.76,-3.67 3.58,-5.82l7.15 10.26 11.16 -0.01 5.11 -6.88 5.54 4.42c0,0 13.95,12.63 21.93,9.71 4.63,-1.69 13.12,19.15 13.12,19.15l30.1 -18.96 -20.22 -24.99 -29.22 -25.81z" data-name="Path 1533"/>
   <path id="Path_1534" class="fil13" d="M1473.08 1805.19c-2.16,0.63 -4.41,0.94 -6.66,0.94 -0.09,0 -0.17,0 -0.25,0l-7.43 0.43c-1.33,0.05 -2.66,0.28 -3.93,0.67 -1.34,0.69 -2.67,1.48 -3.93,2.32 -2.67,1.76 -5.14,3.61 -7.35,5.34 -2.2,1.73 -3.93,3.15 -3.41,5.05 1.09,3.93 2.9,6.01 2.59,6.21 -0.31,0.2 -2.39,-1.53 -3.93,-5.81 -0.17,-0.46 -0.24,-0.94 -0.24,-1.42 0,-0.91 0.29,-1.79 0.83,-2.51 0.89,-1.11 1.91,-2.12 3.03,-2.99 2.35,-2.01 4.85,-3.88 7.43,-5.57 1.36,-0.97 2.83,-1.81 4.36,-2.48 1.43,-0.47 2.92,-0.71 4.42,-0.71 0.07,0 0.14,0.01 0.21,0.01l7.58 -0.01c0.57,-0.04 1.14,-0.06 1.71,-0.06 1.67,0 3.34,0.2 4.96,0.61l0 -0.01z" data-name="Path 1534"/>
   <path id="Path_1535" class="fil13" d="M1460.7 1836.42c0.53,-1.81 1.35,-3.52 2.44,-5.06 0.42,-0.74 0.86,-1.57 1.29,-2.43 0.19,-0.37 0.32,-0.77 0.4,-1.18l0 0 0 -0.24c-0.09,-0.17 -0.19,-0.32 -0.32,-0.47 -0.83,-0.6 -1.82,-0.93 -2.85,-0.93 -1.02,0 -2.02,0.33 -2.85,0.93l-1.65 0.83 -1.26 0.63 -0.32 -1.45 -0.83 -3.93c-0.32,-1.18 -0.9,-2.08 -1.53,-2.24l-2.71 -0.55 2.53 -1.14c2.47,-1.14 4.56,-2.04 6.05,-2.59 0.6,-0.25 1.22,-0.45 1.84,-0.59 0.51,0 0.75,0 0.71,0.27 -0.71,0.38 -1.41,0.81 -2.08,1.27 -1.34,0.86 -3.34,1.96 -5.73,3.3l-0.19 -1.73c1.54,0.5 2.72,1.79 3.06,3.38 0.35,1.45 0.66,2.87 1.02,4.36l-1.58 -0.83 1.77 -0.9c1.29,-0.65 2.72,-0.99 4.16,-0.99 0,0 0,0 0,0 1.51,0.03 2.92,0.68 3.93,1.81 0.24,0.27 0.45,0.57 0.59,0.9 0.09,0.17 0.17,0.34 0.23,0.51 0.04,0.14 0.05,0.28 0.05,0.42 0,0.14 -0.01,0.28 -0.04,0.41 -0.13,0.61 -0.36,1.2 -0.67,1.73 -0.48,0.86 -1.02,1.69 -1.58,2.48 -2.24,2.53 -3.64,4.13 -3.89,4.01z" data-name="Path 1535"/>
   <path id="Path_1536" class="fil13" d="M1471.35 1796.69c-5.52,0.77 -11.1,1.17 -16.67,1.17 -1.71,0 -3.49,-0.04 -5.19,-0.12l0.74 -0.28c-0.71,0.63 -1.41,1.27 -2.16,1.84 -5.34,4.29 -10.33,7.86 -13.94,10.46 -1.86,1.56 -3.92,2.89 -6.12,3.93 5.73,-5.88 12.01,-11.24 18.71,-15.97l2.08 -1.73 0.32 -0.32 0.4 0.01c1.76,-0.07 3.57,-0.12 5.35,-0.12 5.51,0 11.05,0.39 16.49,1.12l0 -0.01z" data-name="Path 1536"/>
   <g>
    <path id="Path_1537" class="fil4" d="M1276.09 1876.9c-30.52,0.66 -58.22,18.15 -71.93,45.43 -2.75,4.79 -4.2,10.22 -4.2,15.75 0,1.38 0.09,2.77 0.27,4.13 1.18,7.01 7.24,12.15 14.34,12.18 4.77,-0.83 9.01,-3.54 11.79,-7.5 9.11,-11.16 12.63,-25.7 18.04,-39.3 5.39,-13.6 14.15,-27 27.98,-30.96l3.71 0.27zm0 0l0 0 0 0z" data-name="Path 1537"/>
   </g>
   <path id="Path_1538" class="fil4" d="M1277.19 1939.92c-1.3,-4.32 -2.92,-8.59 -4.8,-12.68 -2.94,-7.29 -4.97,-14.96 -6.01,-22.74l-1.89 1.76c-6.62,9.15 -10.2,20.18 -10.2,31.48 0,2.41 0.17,4.84 0.49,7.23 0.33,3.27 1.35,6.45 2.99,9.31 1.69,2.89 4.56,4.89 7.86,5.47 0.26,0.01 0.53,0.03 0.79,0.03 4.36,0 8.31,-2.57 10.09,-6.55 1.01,-2.41 1.53,-4.99 1.53,-7.6 0,-1.93 -0.29,-3.85 -0.85,-5.7l0.01 0z" data-name="Path 1538"/>
   <g>
    <path id="Path_1539" class="fil4" d="M1236.61 1972.34c-4.91,2.89 -9.34,6.56 -13.08,10.85 -2.74,3.21 -4.24,7.3 -4.24,11.52 0,1.53 0.19,3.05 0.58,4.52 1.45,4.49 5.64,7.53 10.36,7.53 1.06,0 2.11,-0.16 3.13,-0.46 5.98,-2.53 7.23,-10.42 6.17,-16.78 -1.45,-4.49 -2.19,-9.2 -2.19,-13.92 0,-1.72 0.1,-3.44 0.3,-5.14l-1.02 1.88zm0 0l0 0 0 0z" data-name="Path 1539"/>
   </g>
   <path id="Path_1540" class="fil4" d="M1872.92 2311.98l-0.31 -0.51 0.31 0.51 -28.72 -71.6 9.11 -34.5 -13.89 -160.64 0 0.01 -36.78 -22.17 -1.72 -14.3 -10.11 1.69 -16.86 15.21 0 0 -139.07 -61.91 -90.91 -125.27 -43.23 25.94 83.47 158.25 157.62 89.95 -0.32 1.06c1.41,0.83 69.55,566.34 98.71,568.04 29.16,1.69 79.11,-72.39 138.05,-74.12 38.16,-1.1 51.44,5.82 56.12,10.74 -20.47,-38.56 -158.3,-300.83 -161.46,-306.37z" data-name="Path 1540"/>
   <path id="Path_1541" class="fil3" d="M1872.96 2311.98c0,0 1.02,1.81 2.95,5.34l8.41 15.72 32.25 60.86c27.98,52.93 68.38,129.5 118.28,223.99l2.43 4.6 -3.7 -3.74c-4.64,-4.05 -10.31,-6.78 -16.39,-7.85 -6.19,-1.35 -12.55,-2.23 -18.89,-2.54 -3.68,-0.34 -7.43,-0.52 -11.14,-0.52 -9.47,0 -18.94,1.13 -28.15,3.34 -13.02,4.16 -25.39,10.33 -36.56,18.2 -11.79,7.86 -22.79,16.58 -34.03,25.66 -5.69,4.56 -11.37,9.15 -17.29,13.56 -5.88,4.6 -12.32,8.59 -19.09,11.78 -3.55,1.61 -7.41,2.46 -11.32,2.47 -1.17,-0.02 -2.3,-0.48 -3.16,-1.26 -0.72,-0.71 -1.35,-1.51 -1.89,-2.36 -1.07,-1.62 -2,-3.34 -2.79,-5.11 -2.98,-7.07 -5.49,-14.38 -7.43,-21.84 -8.14,-29.78 -14,-60.95 -19.89,-92.86 -11.47,-63.9 -21.65,-131.13 -31.71,-200.87 -10.06,-69.74 -19.65,-141.9 -29.28,-215.81 -0.67,-4.8 -1.3,-9.59 -1.89,-14.38l-0.98 -7.19 -0.51 -3.58 -0.27 -1.77 0 -1.48 -0.01 0c0.09,0.19 0.24,0.34 0.43,0.42l-0.48 -1.26 0.32 -1.07 0.51 1.22 -157.62 -89.96 -0.27 0 0 -0.27 -83.86 -158.57 -0.43 -0.83 0.83 -0.48 43.22 -25.89 0.79 -0.48 0.51 0.75 90.73 125.31 -0.35 -0.32 139.14 62.02 -1.09 0.86 0 -0.01 0 -0.42 0.31 -0.32 16.74 -15.36 0.24 0 10.11 -1.65 0.74 0 0 0.79 1.74 14.26 -0.35 -0.51 36.78 22.17 0 0 0.39 0.55c5.5,64.72 10.11,118.8 13.63,160.68l0 0.19c-3.93,14.19 -6.6,24.79 -9.15,34.47l0 -0.24c9.2,23.19 16.23,40.88 20.99,52.89 4.75,12.02 7.23,18.44 7.39,18.96l0 -0.01 -0.32 -0.51 0 0 0.27 0.51 -0.31 -0.51 0 0 0.27 0.51 0.01 0c-0.28,-0.51 -2.91,-6.84 -7.86,-18.82l-21.03 -53.06 0 -0.23c2.53,-9.72 5.31,-20.32 9,-34.51l-0.01 0.01c-3.7,-41.9 -8.45,-95.97 -14.1,-160.64l0.35 0.59 0 0 -36.82 -22.11 -0.32 0 0 -0.35 -1.76 -14.3 0.86 0.67 -10.11 1.69 0.39 0 -16.7 15.4 0.24 -0.74 0 0 0.32 1.45 -1.38 -0.6 -139.34 -62.09 -0.26 0 -91.07 -125.52 1.29 0.27 -43.22 25.9 0.35 -1.3 83.7 158.2 -0.42 -0.4 157.61 89.91 0.75 0.43 -0.28 0.83 -0.31 1.07 -0.51 -1.22c0.24,0.16 0.42,0.4 0.5,0.67l0 1.84 0.28 1.81 0.51 3.62 0.99 7.19c0.63,4.79 1.26,9.59 1.89,14.38 9.66,73.9 19.25,146.09 29.23,215.81 9.98,69.72 20.16,136.91 31.44,200.76 5.86,31.87 11.79,62.87 19.65,92.7 1.91,7.33 4.38,14.58 7.3,21.57 0.74,1.66 1.64,3.29 2.64,4.83 1.02,1.45 2.2,2.95 3.62,2.79 0.01,0 0.03,0 0.04,0 3.62,0 7.21,-0.79 10.49,-2.31 6.63,-3.08 12.95,-6.96 18.74,-11.44 5.89,-4.42 11.55,-8.96 17.21,-13.52 11.27,-9.08 22.47,-17.99 34.22,-25.7 11.53,-7.92 24.27,-14.01 37.68,-18.04 6.49,-1.84 13.2,-2.89 19.94,-3.1 6.63,0 13.2,0 19.64,0.27 6.5,0.39 13.03,1.34 19.38,2.83 6.38,1.09 12.34,3.93 17.21,8.19l-1.27 0.9c-49.63,-94.66 -89.83,-171.29 -117.65,-224.3l-31.87 -61.19c-3.61,-6.99 -6.4,-12.3 -8.25,-15.72 -1.01,-1.83 -1.94,-3.74 -2.76,-5.67l0.01 0z" data-name="Path 1541"/>
   <path id="Path_1542" class="fil6" d="M1795.9 2134.59c-0.91,0.18 -1.85,0.27 -2.78,0.27 -2.2,0 -4.36,-0.5 -6.34,-1.45 -6.94,-2.42 -13.74,-5.29 -20.3,-8.53 -7.86,-3.93 -14.66,-7.27 -19.65,-9.78 -2.77,-1.15 -5.41,-2.61 -7.87,-4.32 3,0.6 5.91,1.6 8.65,2.95 5.22,2.16 12.26,5.5 20,9.23 7.74,3.73 14.74,6.91 19.92,9.04 2.7,1.08 5.51,1.96 8.36,2.59l0 0z" data-name="Path 1542"/>
   <path id="Path_1543" class="fil6" d="M1831.81 2082.37c-0.5,-4.18 -1.29,-8.39 -2.28,-12.49 -2.91,-9.77 -9.04,-18.27 -17.37,-24.13 -8.58,-5.55 -17.6,-10.55 -26.9,-14.82 -3.96,-1.69 -7.7,-3.88 -11.13,-6.47 4,1.48 7.95,3.21 11.78,5.1 9.59,3.91 18.85,8.78 27.51,14.46 8.74,6.1 14.98,15.15 17.57,25.47 0.78,3.03 1.18,6.14 1.18,9.26 0,0.05 0,0.12 0,0.17 0.01,0.23 0.03,0.47 0.03,0.71 0,0.92 -0.13,1.85 -0.38,2.75l0 -0.01z" data-name="Path 1543"/>
   <path id="Path_1544" class="fil6" d="M1835.86 2273.98c-0.01,-0.52 -0.02,-1.07 -0.02,-1.6 0,-5.45 0.73,-10.88 2.14,-16.13 0.88,-5.89 2.67,-11.66 5.27,-17.02 -0.53,5.91 -1.61,11.77 -3.16,17.49 -0.85,5.86 -2.27,11.67 -4.22,17.26l-0.01 0z" data-name="Path 1544"/>
   <path id="Path_1545" class="fil6" d="M1861.09 2351.35c-1.4,2.55 -3.35,4.78 -5.68,6.52 -8.55,7.28 -19.43,11.29 -30.67,11.29 -2.95,0 -5.92,-0.29 -8.82,-0.84 -2.89,-0.35 -5.67,-1.34 -8.14,-2.87 0,-0.35 3.22,0.71 8.41,1.38 2.2,0.28 4.42,0.42 6.63,0.42 11.41,0 22.52,-3.71 31.64,-10.55 4.19,-3.15 6.35,-5.63 6.63,-5.35z" data-name="Path 1545"/>
   <path id="Path_1546" class="fil6" d="M1978.28 2564.1c-1.79,0.5 -3.64,0.8 -5.5,0.9 -1.77,0.24 -3.93,0.43 -6.48,0.55 -2.55,0.12 -5.42,0.32 -8.6,0.24 -0.09,0 -0.22,0 -0.32,0 -7.38,0 -14.81,-0.53 -22.12,-1.56 -18.23,-2.58 -35.95,-8.18 -52.35,-16.51 -6.67,-3.36 -13.13,-7.24 -19.27,-11.52 -2.67,-1.76 -4.87,-3.61 -6.92,-5.14 -2.05,-1.54 -3.65,-2.95 -4.98,-4.16 -1.45,-1.18 -2.77,-2.51 -3.94,-3.94 0.23,-0.31 6.17,4.91 16.74,11.79 21.44,14.11 45.7,23.47 71.08,27.36 7.3,1.12 14.74,1.82 22.11,2.05 12.7,0.48 20.56,-0.43 20.56,-0.04z" data-name="Path 1546"/>
   <path id="Path_1547" class="fil6" d="M2035.14 2619.04c-0.51,-0.31 -0.99,-0.66 -1.45,-1.02 -1.22,-1.12 -2.54,-2.15 -3.93,-3.07 -5.24,-3.31 -11.05,-5.65 -17.13,-6.88 -6.6,-1.36 -13.36,-2.05 -20.1,-2.05 -2.46,0 -4.96,0.12 -7.41,0.29 -11.26,0.62 -22.42,2.83 -33.12,6.48 -19.22,7.35 -36.92,18.3 -52.11,32.18l-14.19 12.33c-1.65,1.61 -3.45,3.07 -5.34,4.36 1.45,-1.79 3.07,-3.46 4.8,-4.99 3.15,-3.1 7.86,-7.54 13.75,-12.85 6.91,-6.19 14.25,-12.07 21.83,-17.45 9.39,-6.66 19.69,-11.96 30.55,-15.72 10.85,-3.7 22.24,-5.88 33.71,-6.43 2.08,-0.14 4.18,-0.21 6.26,-0.21 7.3,0 14.59,0.84 21.68,2.48 6.2,1.39 12.07,4 17.26,7.66 1.42,0.99 2.74,2.14 3.93,3.41 0.71,0.95 1.12,1.42 1.02,1.46z" data-name="Path 1547"/>
   <path id="Path_1548" class="fil6" d="M1886.01 2424.53c-0.06,0.43 -0.24,0.84 -0.51,1.18 -0.61,1.07 -1.3,2.1 -2.05,3.07 -2.86,3.59 -6.42,6.6 -10.45,8.8 -5.28,2.89 -11.21,4.4 -17.23,4.4 -0.81,0 -1.62,-0.03 -2.42,-0.08 -8.41,-0.83 -16.32,-4.44 -22.48,-10.22 -6.14,-5.61 -10.99,-12.52 -14.19,-20.2 -2.57,-6.21 -4.54,-12.7 -5.82,-19.3 -1.09,-5.63 -1.73,-10.18 -2.12,-13.33 -0.25,-1.45 -0.39,-2.93 -0.39,-4.41 0,-0.18 0,-0.37 0.01,-0.55 0.58,1.55 0.99,3.16 1.22,4.8 0.63,3.1 1.49,7.66 2.79,13.16 1.45,6.43 3.52,12.76 6.12,18.82 3.17,7.39 7.88,14.02 13.8,19.45 5.83,5.46 13.27,8.91 21.21,9.82 0.97,0.08 1.94,0.12 2.91,0.12 5.55,0 11.03,-1.33 15.95,-3.85 5.32,-2.87 9.98,-6.86 13.63,-11.68l0.01 -0.01z" data-name="Path 1548"/>
   <polygon id="Path_1549" class="fil9" points="1609.64,2489.41 1535.13,3445.87 1583.54,3445.01 1667.37,2488.78 " data-name="Path 1549"/>
   <polygon id="Path_1550" class="fil9" points="1682.68,2488.62 1625.94,2489.4 1908.4,3444.78 1964.12,3444.78 " data-name="Path 1550"/>
   <polygon id="Path_1551" class="fil9" points="1614.11,2929.49 1770.55,2929.49 1783.64,2966.7 1603.5,2966.7 " data-name="Path 1551"/>
   <path id="Path_1552" class="fil12" d="M1652.58 2466.11l-46.11 5.11 -28.17 17.64c0,0 -0.55,5.74 7.46,4.83l15.72 -6.72 -12.58 13.75c1.22,1.98 3.39,3.19 5.72,3.19 1.54,0 3.03,-0.53 4.23,-1.5 4.3,-2.48 8.11,-5.78 11.2,-9.67l27.75 -1.97c0,0 -20.99,20.16 -17.14,25.43 3.85,5.27 6.37,4.13 9.39,2.2 3.03,-1.92 4.67,-8.56 11.59,-10.74 6.91,-2.17 18.32,-8.64 30.65,-14.53 10.62,-5.05 21.41,-41.03 21.41,-41.03l-35.37 -6.91 -5.75 20.92z" data-name="Path 1552"/>
   <path id="Path_1553" class="fil13" d="M1634.21 2477.89c-8.61,2.34 -17.39,4.04 -26.25,5.04l-0.4 0.01 0.59 -0.32c-5.86,6.51 -12.32,12.6 -19.15,18.08 5.33,-6.98 11.26,-13.6 17.61,-19.64l0.27 -0.27 0.76 -0.01c8.74,-1.67 17.67,-2.66 26.56,-2.9l0.01 0z" data-name="Path 1553"/>
   <path id="Path_1554" class="fil6" d="M2047.39 3444.78c0,0.58 -371.47,1.09 -829.59,1.09 -458.11,0 -829.66,-0.51 -829.66,-1.09 0,-0.59 371.39,-1.07 829.66,-1.07 458.28,0 829.59,0.48 829.59,1.07z" data-name="Path 1554"/>
   <circle class="fil14" cx="530.83" cy="1830.8" r="32.72"/>
   <circle class="fil14" cx="787.12" cy="1825.77" r="53.36"/>
   <circle class="fil14" cx="2023.87" cy="2160.18" r="42.93"/>
   <circle class="fil14" cx="2039.94" cy="2379.05" r="22.39"/>
  </g>
 </g>
</svg>
