<svg xmlns="http://www.w3.org/2000/svg" xmlns:xlink="http://www.w3.org/1999/xlink" width="412" height="847" viewBox="0 0 412 847">
  <defs>
    <linearGradient id="linear-gradient" x1="0.5" x2="0.5" y2="1" gradientUnits="objectBoundingBox">
      <stop offset="0" stop-color="#37aadd"/>
      <stop offset="1" stop-color="#1f64cc"/>
    </linearGradient>
    <clipPath id="clip-path">
      <rect x="-8" y="-25" width="350" height="622" fill="none"/>
    </clipPath>
    <linearGradient id="linear-gradient-2" x1="0.5" y1="1" x2="0.5" y2="0.001" gradientUnits="objectBoundingBox">
      <stop offset="0" stop-color="gray" stop-opacity="0.251"/>
      <stop offset="0.54" stop-color="gray" stop-opacity="0.122"/>
      <stop offset="1" stop-color="gray" stop-opacity="0.102"/>
    </linearGradient>
    <linearGradient id="linear-gradient-3" x1="0.5" y1="1" x2="0.5" y2="0" xlink:href="#linear-gradient-2"/>
    <clipPath id="clip-Onboarding_6">
      <rect width="412" height="847"/>
    </clipPath>
  </defs>
  <g id="Onboarding_6" data-name="Onboarding – 6" clip-path="url(#clip-Onboarding_6)">
    <rect width="412" height="847" fill="#f2f5f7"/>
    <path id="Path_1434" data-name="Path 1434" d="M0,2573s185.673,312.374,415.2,0C561.664,2373.682,0,2573,0,2573Z" transform="translate(1418.427 -2262.721) rotate(34)" fill="url(#linear-gradient)"/>
    <path id="Path_1430" data-name="Path 1430" d="M51.3,2866.542s117.364,113.673,103.153,183.617S21.787,3165.447,43.068,3249.384" transform="translate(4 -2573)" fill="none" stroke="#808495" stroke-width="1" stroke-dasharray="10"/>
    <text id="Self_Help_zenquip_Assist" data-name="Self Help + zenquip Assist" transform="translate(72 61)" fill="#fff" font-size="22" font-family="Arial-BoldMT, Arial" font-weight="700"><tspan x="0" y="0">Self Help + zenquip Assist</tspan></text>
    <text id="How_it_works" data-name="How it works" transform="translate(206 99)" fill="#fff" font-size="20" font-family="ArialMT, Arial"><tspan x="-56.675" y="0">How it works</tspan></text>
    <g id="Scroll_Group_1" data-name="Scroll Group 1" transform="translate(38 164)" clip-path="url(#clip-path)" style="isolation: isolate">
      <g id="Group_1196" data-name="Group 1196" transform="translate(-136 -484)">
        <g id="Group_1216" data-name="Group 1216" transform="translate(30 -31)">
          <text id="Choose_your_therapy" data-name="Choose your therapy" transform="translate(152 647)" fill="#2e5b9f" font-size="16" font-family="Arial-BoldMT, Arial" font-weight="700"><tspan x="0" y="0">Choose your therapy</tspan></text>
          <g id="Group_1194" data-name="Group 1194" transform="translate(61.906 79.906)">
            <circle id="Ellipse_14" data-name="Ellipse 14" cx="18" cy="18" r="18" transform="translate(36.094 543.094)" fill="#ff7600"/>
            <text id="_1" data-name="1" transform="translate(51.094 565.094)" fill="#fff" font-size="12" font-family="ArialMT, Arial"><tspan x="0" y="0">1</tspan></text>
          </g>
        </g>
        <g id="Group_1195" data-name="Group 1195" transform="translate(168 481.901)">
          <path id="Path_782" data-name="Path 782" d="M824.688,353.62l-4.018,7.955-12.015,5.462c-1.283,2.168-5.36,2.334-5.657.932-.333-1.573,4.951-4.105,4.951-4.105l10.049-6.8.879-5.852Z" transform="translate(-686.032 -321.199)" fill="#a0616a"/>
          <path id="Path_783" data-name="Path 783" d="M729.935,464.215l.741,5.928-4.3.3-.445-6.225Z" transform="translate(-591.752 -378.41)" fill="#a0616a"/>
          <path id="Path_784" data-name="Path 784" d="M865.253,667.851a11.639,11.639,0,0,0,1.061-1.3c.616-.852,1.162,3.52,1.162,3.52a7.934,7.934,0,0,1,.445,2.668c-.148.889-3.557.889-4.15.741a28.03,28.03,0,0,0-3.557,0h-4.446c-3.853-1.779,0-2.964,0-2.964,1.186-.148,5.187-3.853,5.187-3.853l.889-1.63c.593-.148,1.186,2.075,1.186,2.075Z" transform="translate(-727.663 -577.007)" fill="#2f2e41"/>
          <path id="Path_785" data-name="Path 785" d="M790.071,464.616l.741,5.928-4.3.3-.445-6.225Z" transform="translate(-640.773 -378.737)" fill="#a0616a"/>
          <path id="Path_786" data-name="Path 786" d="M925.389,668.252a11.639,11.639,0,0,0,1.061-1.3c.616-.852,1.163,3.52,1.163,3.52a6.874,6.874,0,0,1,.445,2.52c-.148.889-3.557.889-4.15.741a24.116,24.116,0,0,0-3.557.148H915.9c-3.853-1.779,0-2.964,0-2.964,1.186-.148,5.187-3.853,5.187-3.853l.889-1.63c.593-.148,1.186,2.075,1.186,2.075Z" transform="translate(-776.684 -577.333)" fill="#2f2e41"/>
          <path id="Path_787" data-name="Path 787" d="M877.662,445.118c.593.741.3,3.261.3,3.261s1.037,8.151.593,8.893.3,1.334.741,2.371a23.674,23.674,0,0,1,.889,3.557c2.52,2.075,2.371,11.56,2.371,11.56l.889,8.448c-.3.889-4.446,1.037-5.039.889s-2.371-13.487-2.371-13.487l-4-7.559s.3,20.156.3,21.046-4,.445-4.891.445-.889-14.821-.889-14.821l-.889-3.853-4.743-17.637v-2.075l.741-1.037S877.069,444.377,877.662,445.118Z" transform="translate(-733.255 -397.476)" fill="#2f2e41"/>
          <circle id="Ellipse_15" data-name="Ellipse 15" cx="4.594" cy="4.594" r="4.594" transform="translate(133.292 4.81)" fill="#a0616a"/>
          <path id="Path_788" data-name="Path 788" d="M897.276,251.326c.931,2.074.38,4.97-1.482,8.151l7.559-3.557-1.186-1.037.3-2.964Z" transform="translate(-761.687 -239.773)" fill="#a0616a"/>
          <path id="Path_789" data-name="Path 789" d="M869.171,271.756a4.742,4.742,0,0,0-1.922,2.77,26.25,26.25,0,0,0-1.128,6.271l-.359,6.372-4.446,16.9c3.853,3.261,6.077,2.52,11.264-.148s5.78.889,5.78.889.445-.148,0-.593,0,0,.445-.445,0,0-.148-.445,0-.148.148-.3-.593-1.482-.593-1.482L879.4,290.43l1.482-15.71c-1.779-2.223-6.818-4.15-6.818-4.15l-4.594,3.261c-1.482.593-.3-1.779-.3-1.779Z" transform="translate(-733.582 -255.46)" fill="#0e58c7"/>
          <path id="Path_790" data-name="Path 790" d="M936.827,343.937l.593,8.892-7.559,10.819c0,2.52-1.334,3.112-1.334,3.112a19.593,19.593,0,0,1-1.334-2.52,2.877,2.877,0,0,1,.445-2.964l5.187-10.967-2.223-5.484Z" transform="translate(-787.084 -315.266)" fill="#a0616a"/>
          <path id="Path_791" data-name="Path 791" d="M942.872,292.074c2.52.889,2.964,10.523,2.964,10.523-2.964-1.63-6.521,1.037-6.521,1.037s-.741-2.52-1.63-5.78a5.664,5.664,0,0,1,1.186-5.335A4.036,4.036,0,0,1,942.872,292.074Z" transform="translate(-795.649 -272.74)" fill="#0e58c7"/>
          <path id="Path_792" data-name="Path 792" d="M899.835,212.945c-.585-.468-1.383.383-1.383.383l-.468-4.211a16.7,16.7,0,0,1-4.8-.117c-1.872-.468-2.164,1.7-2.164,1.7a15.028,15.028,0,0,1-.058-2.632c.117-1.053,1.638-2.106,4.328-2.807s4.094,2.34,4.094,2.34C901.26,208.531,900.42,213.413,899.835,212.945Z" transform="translate(-757.725 -202.133)" fill="#2f2e41"/>
          <path id="Path_793" data-name="Path 793" d="M210.665,472.927c.505,2.005,4.812,6.515,9.257,10.749-6.854-16.929-2.948-35.456-2.948-35.456-1.273,7.276,16.169,43.894,16.169,43.894l-3.972,2.342-1.342,1.888C214.375,490.166,210.665,472.927,210.665,472.927Z" transform="translate(-193.197 -400.273)" fill="#e6e6e6"/>
          <rect id="Rectangle_178" data-name="Rectangle 178" width="56.186" height="11.093" transform="translate(67.187 35.114)" fill="#e6e6e6"/>
          <rect id="Rectangle_179" data-name="Rectangle 179" width="56.186" height="11.093" transform="translate(67.187 17.586)" fill="#e6e6e6"/>
          <rect id="Rectangle_180" data-name="Rectangle 180" width="56.186" height="11.093" transform="translate(67.187)" fill="#e6e6e6"/>
          <path id="Path_794" data-name="Path 794" d="M540.23,204h53.79v-8.7H540.23Z" transform="translate(-471.845 -194.106)" fill="#fff"/>
          <path id="Path_795" data-name="Path 795" d="M540.23,299.352h53.79v-8.7H540.23Z" transform="translate(-471.845 -271.833)" fill="#fff"/>
          <path id="Path_796" data-name="Path 796" d="M540.23,393.973h53.79v-8.7H540.23Z" transform="translate(-471.845 -348.964)" fill="#fff"/>
          <circle id="Ellipse_16" data-name="Ellipse 16" cx="3.314" cy="3.314" r="3.314" transform="translate(69.78 2.161)" fill="#0e58c7"/>
          <rect id="Rectangle_181" data-name="Rectangle 181" width="32.703" height="0.72" transform="translate(81.017 4.178)" fill="#0e58c7"/>
          <rect id="Rectangle_182" data-name="Rectangle 182" width="32.703" height="0.72" transform="translate(81.017 6.051)" fill="#0e58c7"/>
          <circle id="Ellipse_17" data-name="Ellipse 17" cx="3.314" cy="3.314" r="3.314" transform="translate(69.78 19.891)" fill="#ccc"/>
          <rect id="Rectangle_183" data-name="Rectangle 183" width="32.703" height="0.72" transform="translate(81.017 21.908)" fill="#ccc"/>
          <rect id="Rectangle_184" data-name="Rectangle 184" width="32.703" height="0.72" transform="translate(81.017 23.781)" fill="#ccc"/>
          <circle id="Ellipse_18" data-name="Ellipse 18" cx="3.314" cy="3.314" r="3.314" transform="translate(69.78 37.419)" fill="#ccc"/>
          <rect id="Rectangle_185" data-name="Rectangle 185" width="32.703" height="0.72" transform="translate(81.017 39.436)" fill="#ccc"/>
          <rect id="Rectangle_186" data-name="Rectangle 186" width="32.703" height="0.72" transform="translate(81.017 41.309)" fill="#ccc"/>
          <path id="Path_797" data-name="Path 797" d="M309.279,355.988s-.775,4.87,2.435,4.427c0,0,12.727-2.877,13.391-2.213s4.792.89,4.577-1.909-4.355-1.189-4.355-1.189-6.419.885-7.747.221-5.091-.443-5.091-.443Z" transform="translate(-273.516 -323.989)" fill="#a0616a"/>
          <path id="Path_798" data-name="Path 798" d="M321.214,447.853,319.45,464.6s-.553,6.64-2.213,8.079c0,0,0,2.1-.553,2.767l-.775,8.743a20.172,20.172,0,0,1,1,3.763c-.111.553.443,2.324.332,2.545s-5.312,0-5.312,0l1.107-17.818,3.431-24.79Z" transform="translate(-275.739 -399.974)" fill="#2f2e41"/>
          <path id="Path_799" data-name="Path 799" d="M303.292,671.539s-2.321,5.853-1.11,6.559,13.926.2,13.926.2,2.119-1.312-.3-2.22a8.313,8.313,0,0,1-3.33-.908,19.3,19.3,0,0,1-2.826-2.321s-.1-2.22-.908-1.716a2.074,2.074,0,0,0-.908,1.413Z" transform="translate(-267.513 -581.924)" fill="#2f2e41"/>
          <path id="Path_800" data-name="Path 800" d="M283.308,667.042s-2.545,6.419-1.217,7.194,15.273.221,15.273.221,2.324-1.439-.332-2.435a9.116,9.116,0,0,1-3.652-1,21.157,21.157,0,0,1-3.1-2.545s-.111-2.435-1-1.881a2.274,2.274,0,0,0-1,1.549Z" transform="translate(-251.108 -578.221)" fill="#2f2e41"/>
          <path id="Path_801" data-name="Path 801" d="M292.863,433.934s-1.217,11.4-1.771,13.834a31.478,31.478,0,0,0-.664,4.87s-.111,3.541-1.107,4.538a2.991,2.991,0,0,0-.885,2.213s-1,11.178-.443,12.506,1.3,3.053.751,3.939-6.838.267-6.838-.4,0-1.217-.332-1.549,0-2.435,0-2.435-1.328-9.85-.111-12.727,1.771-10.735,1.771-10.735-.885-8.964-1.992-10.4.221-6.53.221-6.53Z" transform="translate(-250.37 -386.282)" fill="#2f2e41"/>
          <path id="Path_802" data-name="Path 802" d="M329.2,241.072a1.488,1.488,0,0,0,.717.611,21.443,21.443,0,0,1,4.325,3.476,5.077,5.077,0,0,1,.2-3.434,1.77,1.77,0,0,0,.255-1.156,1.439,1.439,0,0,0-.561-.671,17.4,17.4,0,0,0-1.711-1.168c-.414-.248-1.266-.908-1.742-.836a4.417,4.417,0,0,1-.319,1.817C330.293,239.854,329.244,241.184,329.2,241.072Z" transform="translate(-289.818 -228.819)" fill="#a0616a"/>
          <circle id="Ellipse_19" data-name="Ellipse 19" cx="4.538" cy="4.538" r="4.538" transform="translate(40.501 4.601)" fill="#a0616a"/>
          <path id="Path_803" data-name="Path 803" d="M289.827,260.7s.775-3.874-1.439-5.2-4.759-2.877-4.759-2.877-.775-.111-1.107,1.549c0,0-6.308,1.217-6.972,7.194s.443,14.719.443,14.719a101.04,101.04,0,0,1-2.213,11.731s-1,.885,3.431-.443,12.174,3.763,12.174,3.763.775-.775.775-1.328,1.66-17.375,1.992-18.925S290.824,260.925,289.827,260.7Z" transform="translate(-244.568 -240.83)" fill="#e6e6e6"/>
          <path id="Path_804" data-name="Path 804" d="M332.307,207.4a1.892,1.892,0,0,1,.89-.237,1.694,1.694,0,0,0,.88-.262c.429-.329.46-.965.774-1.405a2.42,2.42,0,0,1,2.141-.682,2.372,2.372,0,0,0,1.4-.211,2.1,2.1,0,0,0,.74-1.237,1.676,1.676,0,0,0-.137-1.651c-.284-.287-.731-.344-1.046-.6a46.111,46.111,0,0,0-4.54-1.176,4.422,4.422,0,0,0-5.158,2.8,13.7,13.7,0,0,0-.864,2.878c.207,1.3,1.361,2.342,1.44,3.661a2.247,2.247,0,0,1,1.372-1.631.429.429,0,0,1,.279-.034c.115.037.182.151.254.247.19.252.785.634,1.123.456C332.153,208.157,331.927,207.655,332.307,207.4Z" transform="translate(-288.338 -197.791)" fill="#3f3d56"/>
          <path id="Path_805" data-name="Path 805" d="M364.6,330.033a.5.5,0,0,0-.01.71l3.191,3.3a.5.5,0,0,0,.718.007l9.736-9.694a.5.5,0,0,0-.081-.779l-3.828-2.494a.5.5,0,0,0-.627.062Z" transform="translate(-318.552 -296.571)" fill="#3f3d56"/>
          <path id="Path_806" data-name="Path 806" d="M378.182,335.737a.51.51,0,0,1-.067.082L368.4,345.7a.5.5,0,0,1-.718-.007l-3.259-3.44a.5.5,0,0,1-.06-.075.452.452,0,0,0,.105.579l3.191,3.3a.5.5,0,0,0,.718.007l9.736-9.694A.5.5,0,0,0,378.182,335.737Z" transform="translate(-318.437 -308.581)" fill="#0e58c7"/>
          <path id="Path_807" data-name="Path 807" d="M379.629,326.054l-.4-.253a.378.378,0,0,1-.543.5l-2.564-1.763a.377.377,0,0,1,.1-.671l-.2-.13a.137.137,0,0,0-.172.019l-8.625,8.476a.137.137,0,0,0,0,.2l3.132,3.052a.137.137,0,0,0,.191,0l9.1-9.208a.137.137,0,0,0-.023-.213Z" transform="translate(-320.786 -298.779)" fill="#fff"/>
          <path id="Path_808" data-name="Path 808" d="M210.391,145.253l2.646,2.495,6.293-6.218-3.194-2.079Z" transform="translate(-161.502 -113.675)" fill="#e6e6e6"/>
          <path id="Path_809" data-name="Path 809" d="M427.575,344.711a.094.094,0,0,0,.129,0l.55-.55a.092.092,0,0,0,0-.13.094.094,0,0,0-.13,0l-.55.55a.092.092,0,0,0,0,.129Z" transform="translate(-379.992 -315.321)" fill="#3f3d56"/>
          <path id="Path_810" data-name="Path 810" d="M422.559,349.723a.092.092,0,0,0,.13,0l.55-.55a.092.092,0,0,0-.13-.13l-.55.55A.092.092,0,0,0,422.559,349.723Z" transform="translate(-375.903 -319.406)" fill="#3f3d56"/>
          <circle id="Ellipse_20" data-name="Ellipse 20" cx="0.618" cy="0.618" r="0.618" transform="translate(48.332 33.101)" fill="#0e58c7"/>
          <path id="Path_811" data-name="Path 811" d="M291.8,346.668s-.775,4.87,2.435,4.427c0,0,12.727-2.877,13.391-2.213s4.792.89,4.577-1.909-4.356-1.189-4.356-1.189-6.419.885-7.747.221-5.091-.443-5.091-.443Z" transform="translate(-259.271 -316.392)" fill="#a0616a"/>
          <path id="Path_812" data-name="Path 812" d="M294.751,269.4s-4.98.553-4.98,7.747v9.186l6.087-2.545s2.545-5.976,2.324-7.636S298.071,269.617,294.751,269.4Z" transform="translate(-257.681 -254.503)" fill="#e6e6e6"/>
        </g>
      </g>
      <g id="Group_1212" data-name="Group 1212" transform="translate(-6 -324)">
        <g id="Group_1217" data-name="Group 1217" transform="translate(26 14)">
          <text id="Create_a_Plan_Set_Goals_Track_activity" data-name="Create a Plan / Set Goals
Track activity" transform="translate(133 630)" fill="#2e5b9f" font-size="16" font-family="Arial-BoldMT, Arial" font-weight="700"><tspan x="0" y="0">Create a Plan / Set Goals</tspan><tspan x="0" y="29">Track activity</tspan></text>
          <g id="Group_1194-2" data-name="Group 1194" transform="translate(44.906 62.906)">
            <circle id="Ellipse_14-2" data-name="Ellipse 14" cx="18" cy="18" r="18" transform="translate(36.094 543.094)" fill="#ff7600"/>
            <text id="_2" data-name="2" transform="translate(51.094 565.094)" fill="#fff" font-size="12" font-family="ArialMT, Arial"><tspan x="0" y="0">2</tspan></text>
          </g>
        </g>
        <g id="Group_1213" data-name="Group 1213" transform="translate(158.46 515.048)">
          <circle id="Ellipse_21" data-name="Ellipse 21" cx="1.205" cy="1.205" r="1.205" transform="translate(51.026 8.293)" fill="#f2f2f2"/>
          <circle id="Ellipse_22" data-name="Ellipse 22" cx="1.205" cy="1.205" r="1.205" transform="translate(46.225 8.293)" fill="#f2f2f2"/>
          <circle id="Ellipse_23" data-name="Ellipse 23" cx="1.205" cy="1.205" r="1.205" transform="translate(41.423 8.293)" fill="#f2f2f2"/>
          <circle id="Ellipse_24" data-name="Ellipse 24" cx="1.205" cy="1.205" r="1.205" transform="translate(36.621 8.293)" fill="#f2f2f2"/>
          <circle id="Ellipse_25" data-name="Ellipse 25" cx="1.205" cy="1.205" r="1.205" transform="translate(51.026 13.323)" fill="#f2f2f2"/>
          <circle id="Ellipse_26" data-name="Ellipse 26" cx="1.205" cy="1.205" r="1.205" transform="translate(46.225 13.323)" fill="#f2f2f2"/>
          <circle id="Ellipse_27" data-name="Ellipse 27" cx="1.205" cy="1.205" r="1.205" transform="translate(41.423 13.323)" fill="#f2f2f2"/>
          <circle id="Ellipse_28" data-name="Ellipse 28" cx="1.205" cy="1.205" r="1.205" transform="translate(36.621 13.323)" fill="#f2f2f2"/>
          <circle id="Ellipse_29" data-name="Ellipse 29" cx="1.205" cy="1.205" r="1.205" transform="translate(51.026 18.354)" fill="#f2f2f2"/>
          <circle id="Ellipse_30" data-name="Ellipse 30" cx="1.205" cy="1.205" r="1.205" transform="translate(46.225 18.354)" fill="#f2f2f2"/>
          <circle id="Ellipse_31" data-name="Ellipse 31" cx="1.205" cy="1.205" r="1.205" transform="translate(41.423 18.354)" fill="#f2f2f2"/>
          <circle id="Ellipse_32" data-name="Ellipse 32" cx="1.205" cy="1.205" r="1.205" transform="translate(36.621 18.354)" fill="#f2f2f2"/>
          <circle id="Ellipse_33" data-name="Ellipse 33" cx="1.205" cy="1.205" r="1.205" transform="translate(51.026 23.384)" fill="#f2f2f2"/>
          <circle id="Ellipse_34" data-name="Ellipse 34" cx="1.205" cy="1.205" r="1.205" transform="translate(46.225 23.384)" fill="#f2f2f2"/>
          <circle id="Ellipse_35" data-name="Ellipse 35" cx="1.205" cy="1.205" r="1.205" transform="translate(41.423 23.384)" fill="#f2f2f2"/>
          <circle id="Ellipse_36" data-name="Ellipse 36" cx="1.205" cy="1.205" r="1.205" transform="translate(36.621 23.384)" fill="#f2f2f2"/>
          <circle id="Ellipse_37" data-name="Ellipse 37" cx="1.205" cy="1.205" r="1.205" transform="translate(51.026 28.414)" fill="#f2f2f2"/>
          <circle id="Ellipse_38" data-name="Ellipse 38" cx="1.205" cy="1.205" r="1.205" transform="translate(46.225 28.414)" fill="#f2f2f2"/>
          <circle id="Ellipse_39" data-name="Ellipse 39" cx="1.205" cy="1.205" r="1.205" transform="translate(41.423 28.414)" fill="#f2f2f2"/>
          <circle id="Ellipse_40" data-name="Ellipse 40" cx="1.205" cy="1.205" r="1.205" transform="translate(36.621 28.414)" fill="#f2f2f2"/>
          <circle id="Ellipse_41" data-name="Ellipse 41" cx="1.205" cy="1.205" r="1.205" transform="translate(51.026 33.444)" fill="#f2f2f2"/>
          <circle id="Ellipse_42" data-name="Ellipse 42" cx="1.205" cy="1.205" r="1.205" transform="translate(46.225 33.444)" fill="#f2f2f2"/>
          <circle id="Ellipse_43" data-name="Ellipse 43" cx="1.205" cy="1.205" r="1.205" transform="translate(41.423 33.444)" fill="#f2f2f2"/>
          <circle id="Ellipse_44" data-name="Ellipse 44" cx="1.205" cy="1.205" r="1.205" transform="translate(36.621 33.444)" fill="#f2f2f2"/>
          <path id="Path_814" data-name="Path 814" d="M375.19,571.093v.373a2.331,2.331,0,0,0,2.329,2.329h16.767a2.33,2.33,0,0,0,2.329-2.329v-.373a2.312,2.312,0,0,0-.54-1.49,2.392,2.392,0,0,0-.393-.373s-9.218-.209-9.218-.466h-8.944A2.332,2.332,0,0,0,375.19,571.093Z" transform="translate(-333.546 -503.576)" fill="#ccc"/>
          <rect id="Rectangle_187" data-name="Rectangle 187" width="2.422" height="15.65" transform="translate(51.281 70.126)" fill="#ccc"/>
          <path id="Path_815" data-name="Path 815" d="M405.309,668.6c0,.262-3.67.1-8.2.1s-8.2.161-8.2-.1,3.67-2.337,8.2-2.337S405.309,668.343,405.309,668.6Z" transform="translate(-344.713 -582.914)" fill="#ccc"/>
          <path id="Path_816" data-name="Path 816" d="M416.451,490.133a2,2,0,0,0-.709-2.986l-5.133-17.491L406.7,471.57l6.275,16.591a2.012,2.012,0,0,0,3.476,1.971Z" transform="translate(-359.185 -422.932)" fill="#a0616a"/>
          <path id="Path_817" data-name="Path 817" d="M407.217,453.882l-4.375,1.184a.9.9,0,0,1-1.126-.761l-.529-4.488A2.492,2.492,0,0,1,406,448.529l1.8,4.128a.9.9,0,0,1-.588,1.225Z" transform="translate(-354.63 -404.237)" fill="#0e58c7"/>
          <path id="Path_818" data-name="Path 818" d="M313.514,424.228H315.8l1.087-5.924h-3.371Z" transform="translate(-255.105 -340.372)" fill="#a0616a"/>
          <path id="Path_819" data-name="Path 819" d="M462.051,664.962h4.5a2.867,2.867,0,0,1,2.867,2.867v.093h-7.365Z" transform="translate(-404.224 -581.851)" fill="#2f2e41"/>
          <path id="Path_820" data-name="Path 820" d="M412.007,557.711q-.04,0-.08,0l-3.161-.23a.838.838,0,0,1-.71-1.123l4.23-9.5a.652.652,0,0,0-.037-.521.643.643,0,0,0-.412-.328c-1.989-.52-7.093-1.9-11.511-3.525-1.893-.694-3.085-1.7-3.543-2.981a4.208,4.208,0,0,1,.328-3.3l.03-.051,4.157.378,4.507.383,9.877,5.3a3.742,3.742,0,0,1,1.643,4.8l-4.553,10.211A.838.838,0,0,1,412.007,557.711Z" transform="translate(-350.946 -477.031)" fill="#2f2e41"/>
          <circle id="Ellipse_45" data-name="Ellipse 45" cx="4.576" cy="4.576" r="4.576" transform="translate(46.5 31.533)" fill="#a0616a"/>
          <path id="Path_821" data-name="Path 821" d="M306.514,423.228H308.8l1.087-5.924h-3.371Z" transform="translate(-249.409 -339.558)" fill="#a0616a"/>
          <path id="Path_822" data-name="Path 822" d="M455.051,663.962h4.5a2.867,2.867,0,0,1,2.867,2.867v.093h-7.365Z" transform="translate(-398.528 -581.038)" fill="#2f2e41"/>
          <path id="Path_823" data-name="Path 823" d="M405.007,560.711q-.04,0-.08,0l-3.161-.23a.838.838,0,0,1-.71-1.123l4.23-9.5a.652.652,0,0,0-.037-.521.643.643,0,0,0-.412-.328c-1.989-.52-7.093-1.9-11.511-3.525-1.893-.694-3.085-1.7-3.543-2.981a4.208,4.208,0,0,1,.328-3.3l.03-.051,4.157.378,4.507.383,9.877,5.3a3.742,3.742,0,0,1,1.643,4.8l-4.553,10.211A.838.838,0,0,1,405.007,560.711Z" transform="translate(-345.25 -479.472)" fill="#2f2e41"/>
          <path id="Path_824" data-name="Path 824" d="M400.433,443.845l-4.844-1.677s-3.041,2.336-1.58,8.132a14.348,14.348,0,0,1-.633,9,9.285,9.285,0,0,1-.488,1.031s5.4,6.521,10.433,1.677l-1.956-9.408S404.438,446.36,400.433,443.845Z" transform="translate(-347.946 -400.565)" fill="#2f2e41"/>
          <path id="Path_825" data-name="Path 825" d="M396.9,385.091c-.651-.975-1.165-2.327-.448-3.254s2.1-.781,3.188-1.186a3.609,3.609,0,0,0,2.112-3.927,4.659,4.659,0,0,0-3.067-3.444,6.641,6.641,0,0,0-4.72.257,7.207,7.207,0,0,0-4.061,4.113,5.541,5.541,0,0,0,1.06,5.557c1.465,1.542,3.764,1.953,5.891,1.928" transform="translate(-345.258 -344.251)" fill="#2f2e41"/>
          <path id="Path_826" data-name="Path 826" d="M313.578,382.553a2.576,2.576,0,0,1-2.954-.215,23.137,23.137,0,0,0-2.549-1.881c-1.68-.81-3.712-.272-5.347.626a48.876,48.876,0,0,1-4.812,2.842c-1.727.7-3.932.739-5.24-.591a4.794,4.794,0,0,0,7.026,5.658c1.893-1.153,2.938-3.57,5.061-4.207a6.812,6.812,0,0,1,3.624.239,7.911,7.911,0,0,0,3.623.378,2.577,2.577,0,0,0,2.167-2.555Z" transform="translate(-266.191 -350.028)" fill="#2f2e41"/>
          <path id="Path_827" data-name="Path 827" d="M484.382,580.458a31.208,31.208,0,0,1,0-9.5.8.8,0,0,1,.789-.672H492.6a.791.791,0,0,1,.625.3.805.805,0,0,1,.15.69,19.065,19.065,0,0,0,0,8.854.8.8,0,0,1-.15.69.791.791,0,0,1-.625.3h-7.428A.8.8,0,0,1,484.382,580.458Z" transform="translate(-422.099 -504.817)" fill="#0e58c7"/>
          <path id="Path_828" data-name="Path 828" d="M498.342,589.131h-3.9a.56.56,0,0,1-.559-.559v-.218a.56.56,0,0,1,.559-.559h3.9a.56.56,0,0,1,.559.559v.218A.56.56,0,0,1,498.342,589.131Z" transform="translate(-430.127 -519.061)" fill="#fff"/>
          <path id="Path_829" data-name="Path 829" d="M498.342,601.475h-3.9a.559.559,0,0,1-.559-.559V600.7a.56.56,0,0,1,.559-.559h3.9a.56.56,0,0,1,.559.559v.218A.559.559,0,0,1,498.342,601.475Z" transform="translate(-430.127 -529.105)" fill="#fff"/>
          <path id="Path_830" data-name="Path 830" d="M434.96,494.845a2,2,0,0,0-1.433-2.714l-9.34-15.654-3.307,2.83L431.1,493.8a2.012,2.012,0,0,0,3.859,1.04Z" transform="translate(-370.723 -428.482)" fill="#a0616a"/>
          <path id="Path_831" data-name="Path 831" d="M417.248,463.251l-3.94,2.24a.9.9,0,0,1-1.28-.456l-1.633-4.213a2.492,2.492,0,0,1,4.341-2.451l2.776,3.547a.9.9,0,0,1-.263,1.333Z" transform="translate(-361.929 -412.719)" fill="#2f2e41"/>
          <path id="Path_832" data-name="Path 832" d="M337.98,519.614h-75.64a1.211,1.211,0,1,0,0,2.422h2.142V548.4a1.211,1.211,0,1,0,2.422,0V524.363l13.576,24.607a1.211,1.211,0,0,0,2.1-1.211l-14.192-25.723H333.23v.016l-14.183,25.707a1.211,1.211,0,0,0,2.1,1.211l12.086-21.905V548.4a1.211,1.211,0,1,0,2.422,0V522.674l.352-.639h1.976a1.211,1.211,0,1,0,0-2.422Z" transform="translate(-240.735 -463.583)" fill="#3f3d56"/>
          <rect id="Rectangle_188" data-name="Rectangle 188" width="16.022" height="1.304" rx="0.652" transform="translate(50.576 55.286)" fill="#ccc"/>
          <path id="Path_833" data-name="Path 833" d="M480.922,472.165H464.341a1.212,1.212,0,0,1-1.211-1.211v-9.129a1.212,1.212,0,0,1,1.211-1.211h16.581a1.212,1.212,0,0,1,1.211,1.211v9.129A1.212,1.212,0,0,1,480.922,472.165Z" transform="translate(-405.102 -415.575)" fill="#ccc"/>
          <circle id="Ellipse_46" data-name="Ellipse 46" cx="1.118" cy="1.118" r="1.118" transform="translate(66.412 49.697)" fill="#fff"/>
          <path id="Path_834" data-name="Path 834" d="M626.55,252.962v-32.7a1.4,1.4,0,0,1,1.4-1.4H653.8a1.4,1.4,0,0,1,1.4,1.4v32.7a1.4,1.4,0,0,1-1.4,1.4H627.952a1.4,1.4,0,0,1-1.4-1.4Zm1.4-33.786a1.091,1.091,0,0,0-1.09,1.09v32.7a1.091,1.091,0,0,0,1.09,1.09H653.8a1.091,1.091,0,0,0,1.09-1.09v-32.7a1.091,1.091,0,0,0-1.09-1.09Z" transform="translate(-538.076 -218.864)" fill="#e6e6e6"/>
          <path id="Path_835" data-name="Path 835" d="M711.216,267.08v-6.714a.7.7,0,0,1,.7-.7h5.689a.7.7,0,0,1,.7.7v6.714a.7.7,0,0,1-.7.7h-5.689a.7.7,0,0,1-.7-.7Z" transform="translate(-606.968 -252.064)" fill="#0e58c7"/>
          <path id="Path_836" data-name="Path 836" d="M651.88,283.794V277.08a.7.7,0,0,1,.7-.7h5.689a.7.7,0,0,1,.7.7v6.714a.7.7,0,0,1-.7.7H652.58A.7.7,0,0,1,651.88,283.794Z" transform="translate(-558.687 -265.664)" fill="#ccc"/>
          <path id="Path_837" data-name="Path 837" d="M699.516,334.773v-6.714a.7.7,0,0,1,.7-.7h5.689a.7.7,0,0,1,.7.7v6.714a.7.7,0,0,1-.7.7h-5.689A.7.7,0,0,1,699.516,334.773Z" transform="translate(-597.448 -307.145)" fill="#ff6584"/>
          <circle id="Ellipse_47" data-name="Ellipse 47" cx="1.205" cy="1.205" r="1.205" transform="translate(144.251 0.997)" fill="#f2f2f2"/>
          <circle id="Ellipse_48" data-name="Ellipse 48" cx="1.205" cy="1.205" r="1.205" transform="translate(144.251 5.799)" fill="#f2f2f2"/>
          <circle id="Ellipse_49" data-name="Ellipse 49" cx="1.205" cy="1.205" r="1.205" transform="translate(144.251 10.601)" fill="#f2f2f2"/>
          <circle id="Ellipse_50" data-name="Ellipse 50" cx="1.205" cy="1.205" r="1.205" transform="translate(144.251 15.402)" fill="#f2f2f2"/>
          <circle id="Ellipse_51" data-name="Ellipse 51" cx="1.205" cy="1.205" r="1.205" transform="translate(139.221 0.997)" fill="#f2f2f2"/>
          <circle id="Ellipse_52" data-name="Ellipse 52" cx="1.205" cy="1.205" r="1.205" transform="translate(139.221 5.799)" fill="#f2f2f2"/>
          <circle id="Ellipse_53" data-name="Ellipse 53" cx="1.205" cy="1.205" r="1.205" transform="translate(139.221 10.601)" fill="#f2f2f2"/>
          <circle id="Ellipse_54" data-name="Ellipse 54" cx="1.205" cy="1.205" r="1.205" transform="translate(139.221 15.402)" fill="#f2f2f2"/>
          <circle id="Ellipse_55" data-name="Ellipse 55" cx="1.205" cy="1.205" r="1.205" transform="translate(134.191 0.997)" fill="#f2f2f2"/>
          <circle id="Ellipse_56" data-name="Ellipse 56" cx="1.205" cy="1.205" r="1.205" transform="translate(134.191 5.799)" fill="#f2f2f2"/>
          <circle id="Ellipse_57" data-name="Ellipse 57" cx="1.205" cy="1.205" r="1.205" transform="translate(134.191 10.601)" fill="#f2f2f2"/>
          <circle id="Ellipse_58" data-name="Ellipse 58" cx="1.205" cy="1.205" r="1.205" transform="translate(134.191 15.402)" fill="#f2f2f2"/>
          <circle id="Ellipse_59" data-name="Ellipse 59" cx="1.205" cy="1.205" r="1.205" transform="translate(129.161 0.997)" fill="#f2f2f2"/>
          <circle id="Ellipse_60" data-name="Ellipse 60" cx="1.205" cy="1.205" r="1.205" transform="translate(129.161 5.799)" fill="#f2f2f2"/>
          <circle id="Ellipse_61" data-name="Ellipse 61" cx="1.205" cy="1.205" r="1.205" transform="translate(129.161 10.601)" fill="#f2f2f2"/>
          <circle id="Ellipse_62" data-name="Ellipse 62" cx="1.205" cy="1.205" r="1.205" transform="translate(129.161 15.402)" fill="#f2f2f2"/>
          <circle id="Ellipse_63" data-name="Ellipse 63" cx="1.205" cy="1.205" r="1.205" transform="translate(124.13 0.997)" fill="#f2f2f2"/>
          <circle id="Ellipse_64" data-name="Ellipse 64" cx="1.205" cy="1.205" r="1.205" transform="translate(124.13 5.799)" fill="#f2f2f2"/>
          <circle id="Ellipse_65" data-name="Ellipse 65" cx="1.205" cy="1.205" r="1.205" transform="translate(124.13 10.601)" fill="#f2f2f2"/>
          <circle id="Ellipse_66" data-name="Ellipse 66" cx="1.205" cy="1.205" r="1.205" transform="translate(124.13 15.402)" fill="#f2f2f2"/>
          <circle id="Ellipse_67" data-name="Ellipse 67" cx="1.205" cy="1.205" r="1.205" transform="translate(119.1 0.997)" fill="#f2f2f2"/>
          <circle id="Ellipse_68" data-name="Ellipse 68" cx="1.205" cy="1.205" r="1.205" transform="translate(119.1 5.799)" fill="#f2f2f2"/>
          <circle id="Ellipse_69" data-name="Ellipse 69" cx="1.205" cy="1.205" r="1.205" transform="translate(119.1 10.601)" fill="#f2f2f2"/>
          <circle id="Ellipse_70" data-name="Ellipse 70" cx="1.205" cy="1.205" r="1.205" transform="translate(119.1 15.402)" fill="#f2f2f2"/>
          <path id="Path_838" data-name="Path 838" d="M822.917,395.325a2.05,2.05,0,0,1,1.447-2.695,1.97,1.97,0,0,1,.27-.044l4.528-7.936-1.143-1.964,2.846-2.2,2.177,3.024a2.077,2.077,0,0,1-.049,2.479l-6.216,7.958a1.925,1.925,0,0,1,.058.193,2.05,2.05,0,0,1-1.744,2.513,1.992,1.992,0,0,1-.251.016A2.056,2.056,0,0,1,822.917,395.325Z" transform="translate(-697.758 -350.379)" fill="#ffb8b8"/>
          <path id="Path_839" data-name="Path 839" d="M609.659,412.409h-2.284l-1.087-8.81h3.371Z" transform="translate(-493.334 -328.406)" fill="#ffb8b8"/>
          <path id="Path_840" data-name="Path 840" d="M591.25,447.384h4.4v2.773h-7.178A2.773,2.773,0,0,1,591.25,447.384Z" transform="translate(-478.84 -364.034)" fill="#2f2e41"/>
          <path id="Path_841" data-name="Path 841" d="M710.659,412.409h-2.284l-1.087-8.81h3.371Z" transform="translate(-575.517 -328.406)" fill="#ffb8b8"/>
          <path id="Path_842" data-name="Path 842" d="M692.25,447.384h4.4v2.773h-7.178A2.773,2.773,0,0,1,692.25,447.384Z" transform="translate(-561.023 -364.034)" fill="#2f2e41"/>
          <path id="Path_843" data-name="Path 843" d="M841.115,363.949l-5.128,1.949-1.252-3.478a2.081,2.081,0,0,1,.932-2.515h0a2.081,2.081,0,0,1,2.657.519Z" transform="translate(-707.375 -333.408)" fill="#0e58c7"/>
          <path id="Path_844" data-name="Path 844" d="M755.167,478.577l-4.3-.981a.929.929,0,0,1-.71-1.047c1.726-10.938,3.386-17.343,7.665-25.478.06-.152.728-3.23,1.164-5.27a.926.926,0,0,1,.785-.936l8.02-1.234a1.037,1.037,0,0,1,.377-.057l.08.015v.079c0,.082-.082.094-.113.1l-.107.016a1.247,1.247,0,0,1,.331.225c3.514,4.226,5.341,18.079,7.661,33.383a.835.835,0,0,1-.243.68.919.919,0,0,1-.659.3l-5.124.125a.928.928,0,0,1-.938-.786L765.6,457.765a.74.74,0,0,0-1.4-.215c-2.784,5.67-5.38,10.574-7.938,20.357a.923.923,0,0,1-.893.694A.936.936,0,0,1,755.167,478.577Z" transform="translate(-638.645 -401.71)" fill="#2f2e41"/>
          <path id="Path_845" data-name="Path 845" d="M796.547,377.348a.931.931,0,0,1-.388-.661c-.657-6.131-.2-10.929,1.4-14.669a4.656,4.656,0,0,1,3.087-2.642l4.145-.209.021.01a4.844,4.844,0,0,1,2.649,5.14c-1.333,3.514-2.45,7.173-1.6,10.125a.954.954,0,0,1-.09.742.91.91,0,0,1-.581.43l-7.9,1.878A.924.924,0,0,1,796.547,377.348Z" transform="translate(-675.85 -333.028)" fill="#0e58c7"/>
          <path id="Path_846" data-name="Path 846" d="M743.364,364.716l-7.95-6.272a1.964,1.964,0,0,1-.193.057,2.055,2.055,0,0,1-1.643-.315,2.033,2.033,0,0,1-.862-1.441,2.05,2.05,0,0,1,4.031-.708,1.977,1.977,0,0,1,.043.271l7.914,4.566,1.97-1.134,2.182,2.856-3.058,2.18A2.039,2.039,0,0,1,743.364,364.716Z" transform="translate(-624.451 -329.195)" fill="#ffb8b8"/>
          <path id="Path_847" data-name="Path 847" d="M804.8,372.413l-4.536-3.085,2.132-3.019a2.081,2.081,0,0,1,2.6-.678h0a2.081,2.081,0,0,1,1.1,2.475Z" transform="translate(-679.425 -338.122)" fill="#0e58c7"/>
          <circle id="Ellipse_71" data-name="Ellipse 71" cx="4.576" cy="4.576" r="4.576" transform="translate(122.98 15.439)" fill="#ffb8b8"/>
          <path id="Path_848" data-name="Path 848" d="M806.464,297.978c-1.176.8-2.72,1.632-3.922.775a2.186,2.186,0,0,1-.717-2.52c.575-1.645,2.156-2.369,3.667-2.924a10.529,10.529,0,0,1,6.131-.779c2.028.517,3.82,2.48,3.454,4.541-.294,1.657-1.857,3.036-1.636,4.7s2.112,2.563,3.779,2.863,3.532.4,4.73,1.594c1.528,1.527,1.147,4.258-.291,5.87a10.714,10.714,0,0,1-5.711,2.841c-2.786.658-5.8,1-8.445-.088s-4.705-4.034-3.939-6.793a9.476,9.476,0,0,1,1.824-3.108,8.66,8.66,0,0,0,1.765-3.137,3.261,3.261,0,0,0-.589-2.853.827.827,0,0,1-.111-.966Z" transform="translate(-680.586 -278.645)" fill="#2f2e41"/>
        </g>
      </g>
      <g id="Group_1214" data-name="Group 1214" transform="translate(-101 -95)">
        <g id="Group_1218" data-name="Group 1218" transform="translate(25)">
          <text id="zenquip_will_Assist_to_complete_therapy" data-name="zenquip will Assist to
complete therapy" transform="translate(126 630)" fill="#2e5b9f" font-size="16" font-family="Arial-BoldMT, Arial" font-weight="700"><tspan x="0" y="0">zenquip will Assist to</tspan><tspan x="0" y="23">complete therapy</tspan></text>
          <g id="Group_1194-3" data-name="Group 1194" transform="translate(31.906 64.906)">
            <circle id="Ellipse_14-3" data-name="Ellipse 14" cx="18" cy="18" r="18" transform="translate(36.094 543.094)" fill="#ff7600"/>
            <text id="_3" data-name="3" transform="translate(51.094 565.094)" fill="#fff" font-size="12" font-family="ArialMT, Arial"><tspan x="0" y="0">3</tspan></text>
          </g>
        </g>
        <g id="Group_1215" data-name="Group 1215" transform="translate(151.953 488.067)">
          <ellipse id="Ellipse_74" data-name="Ellipse 74" cx="16.254" cy="2.796" rx="16.254" ry="2.796" transform="translate(86.783 100.338)" fill="#0e58c7" opacity="0.1"/>
          <ellipse id="Ellipse_75" data-name="Ellipse 75" cx="24.063" cy="1.702" rx="24.063" ry="1.702" transform="translate(29.762 98.697)" fill="#0e58c7" opacity="0.1"/>
          <line id="Line_1" data-name="Line 1" x1="1.03" transform="translate(21.393 24.189)" fill="#0e58c7"/>
          <g id="Group_1201" data-name="Group 1201" transform="translate(32.684 15.968)" opacity="0.1">
            <path id="Path_876" data-name="Path 876" d="M399.948,542.41a2.7,2.7,0,0,0,2.275,1.468c1.583,0,2.871-1.678,2.871-3.749s-1.292-3.735-2.871-3.735a2.53,2.53,0,0,0-1.935.983,3.705,3.705,0,0,0-.488.764l-.027.163a1.263,1.263,0,0,1-1.444.042V526.2H386.472a.957.957,0,0,1-.144-.894,1.143,1.143,0,0,1,.535-.652,2.7,2.7,0,0,0,1.47-2.275c0-1.583-1.679-2.871-3.749-2.871s-3.749,1.284-3.749,2.871a2.535,2.535,0,0,0,.984,1.936,3.722,3.722,0,0,0,.763.487l.016.027a1.166,1.166,0,0,1,.228,1.367H377.48v22.488a5.332,5.332,0,0,0,5.332,5.332h15.521V542.086a.945.945,0,0,1,.967-.205A1.132,1.132,0,0,1,399.948,542.41Z" transform="translate(-377.033 -470.007)"/>
            <path id="Path_877" data-name="Path 877" d="M377.17,213.534h1.857a3.747,3.747,0,0,1-1.464-2.941,4.164,4.164,0,0,1,8.306,0,3.747,3.747,0,0,1-1.464,2.941h11.129V201.553a.957.957,0,0,1,.967-.205,1.139,1.139,0,0,1,.654.535,2.7,2.7,0,0,0,2.275,1.468c1.583,0,2.871-1.678,2.871-3.748s-1.282-3.749-2.871-3.749a2.536,2.536,0,0,0-1.936.983,3.78,3.78,0,0,0-.488.764l-.026.016a1.168,1.168,0,0,1-1.445.193V185.67H384.118a.957.957,0,0,1-.143-.894,1.136,1.136,0,0,1,.535-.652,2.7,2.7,0,0,0,1.468-2.275c0-1.583-1.678-2.871-3.748-2.871s-3.749,1.284-3.749,2.871a2.536,2.536,0,0,0,.983,1.936,3.779,3.779,0,0,0,.764.488l.016.026a1.166,1.166,0,0,1,.228,1.367h-3.3v-.615h2.439a3.747,3.747,0,0,1-1.463-2.935,4.164,4.164,0,0,1,8.306,0,3.746,3.746,0,0,1-1.47,2.94h10.541V172.927a.949.949,0,0,1,.968-.205,1.14,1.14,0,0,1,.652.535,2.7,2.7,0,0,0,2.275,1.468c1.583,0,2.871-1.678,2.871-3.749s-1.282-3.748-2.871-3.748a2.531,2.531,0,0,0-1.936.983,3.708,3.708,0,0,0-.488.764l-.026.163a1.265,1.265,0,0,1-1.445.042V157.87H380.01a5.332,5.332,0,0,0-5.332,5.332v5.772H374.6a.313.313,0,0,0-.313.313v2.734a.315.315,0,0,0,.313.313h.081v2.792h-.105a.315.315,0,0,0-.314.313v5.221a.315.315,0,0,0,.314.313h.105v2.051h-.086a.313.313,0,0,0-.313.313v1.682h-.068v3.544a.312.312,0,0,0,.313.313h.093v24.657Z" transform="translate(-374.21 -157.811)"/>
            <path id="Path_878" data-name="Path 878" d="M559.283,176.863a.314.314,0,0,0-.313-.314h-.189v-.343h-.1V162.567a5.126,5.126,0,0,0-5.127-5.127H538.17v10.391a3.794,3.794,0,0,1,3.008-1.511,4.164,4.164,0,0,1,0,8.31,3.791,3.791,0,0,1-3.008-1.511v11.53h12.442a3.756,3.756,0,0,1-1.461-2.944,4.011,4.011,0,0,1,4.145-3.864,4.3,4.3,0,0,1,2.785,1,3.653,3.653,0,0,1,0,5.708v.092h2.7v-.01h.5Z" transform="translate(-515.753 -157.44)"/>
            <path id="Path_879" data-name="Path 879" d="M554.22,525.3V523.93h0a2.6,2.6,0,0,0,.155-.256,2.278,2.278,0,0,0,.282-1.087,2.238,2.238,0,0,0-.128-.744,2.464,2.464,0,0,0-.308-.6h0a4.018,4.018,0,0,0-3.311-1.524c-2.071,0-3.749,1.284-3.749,2.871a2.535,2.535,0,0,0,.983,1.936,3.769,3.769,0,0,0,.764.488l.016.026a1.167,1.167,0,0,1,.228,1.367H537.09V537.62a3.748,3.748,0,0,1,2.977-1.5,4.164,4.164,0,0,1,0,8.306,3.747,3.747,0,0,1-2.977-1.5v9.05H550.93a3.29,3.29,0,0,0,3.289-3.281V526.413h0v22.258a3.289,3.289,0,0,1-3.289,3.29H537.09v2.188h14.356a5.332,5.332,0,0,0,5.332-5.332v-22.4h0v-.588H554.22Z" transform="translate(-514.821 -470.188)"/>
          </g>
          <path id="Path_880" data-name="Path 880" d="M384.328,590.082a3.29,3.29,0,0,1-3.29-3.289V564.46H378.48v22.484a5.332,5.332,0,0,0,5.332,5.332h15.521v-2.187Z" transform="translate(-345.213 -492.844)" fill="#3a3768"/>
          <path id="Path_881" data-name="Path 881" d="M416.442,537.88a1.132,1.132,0,0,1,.652.535,2.7,2.7,0,0,0,2.275,1.468c1.583,0,2.871-1.678,2.871-3.749s-1.287-3.741-2.866-3.741a2.531,2.531,0,0,0-1.935.983,3.709,3.709,0,0,0-.488.764l-.027.163a1.263,1.263,0,0,1-1.444.042V522.2H403.624a.957.957,0,0,1-.144-.894,1.143,1.143,0,0,1,.535-.652,2.7,2.7,0,0,0,1.47-2.275c0-1.583-1.679-2.871-3.749-2.871s-3.749,1.284-3.749,2.871a2.535,2.535,0,0,0,.984,1.936,3.722,3.722,0,0,0,.763.487l.016.027a1.166,1.166,0,0,1,.228,1.367H397.19v22.336a3.29,3.29,0,0,0,3.29,3.29h15.005v-9.739A.945.945,0,0,1,416.442,537.88Z" transform="translate(-361.365 -450.586)" fill="#b9c7e0"/>
          <rect id="Rectangle_191" data-name="Rectangle 191" width="0.406" height="0.662" transform="translate(32.816 42.619)" fill="#3a3768"/>
          <rect id="Rectangle_192" data-name="Rectangle 192" width="2.219" height="0.662" transform="translate(33.561 42.619)" fill="#3a3768"/>
          <rect id="Rectangle_193" data-name="Rectangle 193" width="0.339" height="0.662" transform="translate(33.222 42.619)" fill="#3a3768"/>
          <path id="Path_882" data-name="Path 882" d="M537.09,566.33" transform="translate(-482.137 -494.458)" fill="#0e58c7"/>
          <path id="Path_883" data-name="Path 883" d="M375.467,360.4h.093v-3.2h-.41v2.883a.312.312,0,0,0,.317.313Z" transform="translate(-342.338 -313.921)" fill="#3a3768"/>
          <path id="Path_884" data-name="Path 884" d="M380.708,357.2h-2.219v2.883a.313.313,0,0,1-.314.313h-.025v24.668h2.558Z" transform="translate(-344.928 -313.921)" fill="#3a3768"/>
          <path id="Path_885" data-name="Path 885" d="M378.15,360.4h.025a.313.313,0,0,0,.314-.313V357.2h-.339Z" transform="translate(-344.928 -313.921)" fill="#3a3768"/>
          <path id="Path_886" data-name="Path 886" d="M397.252,339.86a4.164,4.164,0,0,1,8.306,0,3.748,3.748,0,0,1-1.464,2.946h11.129V330.826a.957.957,0,0,1,.967-.205,1.139,1.139,0,0,1,.654.535,2.7,2.7,0,0,0,2.275,1.468c1.583,0,2.871-1.678,2.871-3.748s-1.282-3.749-2.871-3.749a2.536,2.536,0,0,0-1.936.983,3.774,3.774,0,0,0-.488.764l-.026.016a1.168,1.168,0,0,1-1.445.193V314.943H403.808a.957.957,0,0,1-.144-.894,1.136,1.136,0,0,1,.535-.652,2.7,2.7,0,0,0,1.468-2.275c0-1.583-1.678-2.871-3.748-2.871s-3.749,1.284-3.749,2.871a2.536,2.536,0,0,0,.983,1.936,3.777,3.777,0,0,0,.764.488l.016.026a1.166,1.166,0,0,1,.228,1.367h-3.3v27.868h1.857A3.748,3.748,0,0,1,397.252,339.86Z" transform="translate(-361.08 -271.663)" fill="#b9c7e0"/>
          <path id="Path_887" data-name="Path 887" d="M378.989,337.763a.313.313,0,0,0-.314-.313h-.025v2.04h.339Z" transform="translate(-345.359 -296.871)" fill="#3a3768"/>
          <path id="Path_888" data-name="Path 888" d="M376.151,235.07h-.068a.313.313,0,0,0-.313.313v2.734a.315.315,0,0,0,.313.313h.081v-3.359Z" transform="translate(-342.873 -208.489)" fill="#3a3768"/>
          <path id="Path_889" data-name="Path 889" d="M375.894,280.05a.314.314,0,0,0-.314.313v5.221a.314.314,0,0,0,.314.313H376V280.05Z" transform="translate(-342.709 -247.319)" fill="#3a3768"/>
          <path id="Path_890" data-name="Path 890" d="M376.112,337.78h-.089a.313.313,0,0,0-.313.313v1.727h.41Z" transform="translate(-342.821 -297.156)" fill="#3a3768"/>
          <path id="Path_891" data-name="Path 891" d="M378.633,159.2v5.772a.312.312,0,0,1,.3.312v2.734a.313.313,0,0,1-.3.312v2.792h.048a.313.313,0,0,1,.313.313v5.221a.313.313,0,0,1-.313.313h-.051v2.051h.025a.314.314,0,0,1,.314.313v1.72h2.219v-21.7a3.29,3.29,0,0,1,3.288-3.29h4.459v.571a2.708,2.708,0,0,0,2.708,2.708h7.844v-1.788h-3.611a.532.532,0,0,1-.529-.526v-.115a.531.531,0,0,1,.529-.529h3.6V153.87H383.962A5.332,5.332,0,0,0,378.633,159.2Z" transform="translate(-345.342 -138.391)" fill="#3a3768"/>
          <path id="Path_892" data-name="Path 892" d="M378.951,238.116v-2.734a.312.312,0,0,0-.3-.312v3.357a.313.313,0,0,0,.3-.31Z" transform="translate(-345.359 -208.489)" fill="#3a3768"/>
          <path id="Path_893" data-name="Path 893" d="M379.014,285.585v-5.221a.313.313,0,0,0-.313-.313h-.051V285.9h.048a.313.313,0,0,0,.316-.313Z" transform="translate(-345.359 -247.319)" fill="#3a3768"/>
          <path id="Path_894" data-name="Path 894" d="M398.268,191.962a4.164,4.164,0,0,1,8.306,0,3.746,3.746,0,0,1-1.47,2.94h10.541V182.774a.949.949,0,0,1,.968-.205,1.14,1.14,0,0,1,.652.535,2.7,2.7,0,0,0,2.275,1.468c1.583,0,2.871-1.678,2.871-3.749s-1.282-3.748-2.871-3.748a2.531,2.531,0,0,0-1.936.983,3.7,3.7,0,0,0-.488.764l-.026.163a1.265,1.265,0,0,1-1.445.042V173.19h-7.84a2.708,2.708,0,0,1-2.7-2.708v-.572h-4.456a3.289,3.289,0,0,0-3.288,3.294v21.7h2.371A3.746,3.746,0,0,1,398.268,191.962Z" transform="translate(-361.511 -152.238)" fill="#b9c7e0"/>
          <path id="Path_895" data-name="Path 895" d="M501.429,172.26a.53.53,0,0,0-.529.529v.119a.532.532,0,0,0,.529.53h3.6v-1.174Z" transform="translate(-450.895 -154.266)" fill="#e6e8ec"/>
          <path id="Path_896" data-name="Path 896" d="M683.17,291.017v8.116h.923V290.69h-.5A.385.385,0,0,0,683.17,291.017Z" transform="translate(-608.245 -256.504)" fill="#3a3768"/>
          <rect id="Rectangle_194" data-name="Rectangle 194" width="1.094" height="2.461" transform="translate(55.237 15.421)" fill="#3a3768"/>
          <rect id="Rectangle_195" data-name="Rectangle 195" width="1.094" height="1.777" transform="translate(55.237 19.112)" fill="#3a3768"/>
          <rect id="Rectangle_196" data-name="Rectangle 196" width="1.094" height="1.231" transform="translate(55.237 17.882)" fill="#e6e8ec"/>
          <path id="Path_897" data-name="Path 897" d="M689.677,293.2h-.257v8.09h.57v-7.775a.315.315,0,0,0-.313-.314Z" transform="translate(-613.64 -258.671)" fill="#3a3768"/>
          <path id="Path_898" data-name="Path 898" d="M546.305,155.9c.291.066.547.6.547.6v.115s-.257.529-.547.52h0v1.777h6.179a2.71,2.71,0,0,0,2.708-2.71v-.571h4.649a3.288,3.288,0,0,1,3.281,3.288v15.93a3.653,3.653,0,0,1,0,5.708v.092h1.914v-8.024a.04.04,0,0,1,.041-.04h.643V158.567a5.126,5.126,0,0,0-5.127-5.127H546.17V155.9Zm2.07-.012a.666.666,0,1,1-.666.666A.666.666,0,0,1,548.375,155.889Z" transform="translate(-489.976 -138.019)" fill="#3a3768"/>
          <path id="Path_899" data-name="Path 899" d="M542.128,176.131a4.164,4.164,0,0,1,0,8.31,3.791,3.791,0,0,1-3.008-1.511v11.53h12.442a3.756,3.756,0,0,1-1.462-2.944,4.011,4.011,0,0,1,4.145-3.864,4.3,4.3,0,0,1,2.792,1v-15.93a3.288,3.288,0,0,0-3.281-3.288h-4.649v.572a2.71,2.71,0,0,1-2.708,2.71h-7.272v4.922A3.794,3.794,0,0,1,542.128,176.131Z" transform="translate(-483.889 -151.832)" fill="#b9c7e0"/>
          <path id="Path_900" data-name="Path 900" d="M546.3,172.671a.547.547,0,0,0,.547-.52v-.115a.684.684,0,0,0-.547-.6h-.137v1.231Z" transform="translate(-489.967 -153.558)" fill="#e6e8ec"/>
          <circle id="Ellipse_76" data-name="Ellipse 76" cx="0.666" cy="0.666" r="0.666" transform="translate(57.636 17.981) rotate(-9.22)" fill="#e6e8ec"/>
          <path id="Path_901" data-name="Path 901" d="M663.38,530.922v-1.367a2.284,2.284,0,0,0,0-2.685Z" transform="translate(-591.16 -460.393)" fill="#3a3768"/>
          <rect id="Rectangle_197" data-name="Rectangle 197" width="2.558" height="0.588" transform="translate(72.22 71.057)" fill="#3a3768"/>
          <path id="Path_902" data-name="Path 902" d="M652.119,547.445a1.141,1.141,0,0,0-.535.652.957.957,0,0,0,.144.9h1.423V548.4H652.6a4.1,4.1,0,0,0,.547-.528V546.51a3.237,3.237,0,0,1-1.032.935Z" transform="translate(-580.932 -477.348)" fill="#0e58c7"/>
          <path id="Path_903" data-name="Path 903" d="M659.36,557.038h.547v-.528a4.117,4.117,0,0,1-.547.528Z" transform="translate(-587.69 -485.981)" fill="#0e58c7"/>
          <path id="Path_904" data-name="Path 904" d="M663.816,528.233a2.334,2.334,0,0,0-.436-1.343v2.684A2.339,2.339,0,0,0,663.816,528.233Z" transform="translate(-591.16 -460.41)" fill="#3a3768"/>
          <path id="Path_905" data-name="Path 905" d="M557.778,564.67v22.41a5.332,5.332,0,0,1-5.332,5.332H538.09v-2.187h13.84a3.29,3.29,0,0,0,3.29-3.29V564.67Z" transform="translate(-483 -493.025)" fill="#3a3768"/>
          <path id="Path_906" data-name="Path 906" d="M553.653,521.534a1.14,1.14,0,0,1,.535-.652,3.238,3.238,0,0,0,1.032-.934v-2.684a4.018,4.018,0,0,0-3.311-1.524c-2.071,0-3.749,1.284-3.749,2.871a2.535,2.535,0,0,0,.983,1.936,3.771,3.771,0,0,0,.764.488l.016.026a1.168,1.168,0,0,1,.228,1.367H538.09V533.64a3.748,3.748,0,0,1,2.977-1.5,4.164,4.164,0,0,1,0,8.306,3.747,3.747,0,0,1-2.977-1.5v9.05h13.84a3.29,3.29,0,0,0,3.29-3.281V522.43H553.8A.957.957,0,0,1,553.653,521.534Z" transform="translate(-483 -450.785)" fill="#b9c7e0"/>
          <path id="Path_907" data-name="Path 907" d="M842.18,282.218a2.582,2.582,0,0,0,1.52-1.663,2.11,2.11,0,0,0,.052-.273,2.415,2.415,0,0,0,.088-.261,2.515,2.515,0,0,0-.522-2.171l-1,3.828h0Z" transform="translate(-745.514 -245.42)" fill="url(#linear-gradient-2)"/>
          <path id="Path_908" data-name="Path 908" d="M709.533,189.381c-.156-.915-3.044-2.9-3.044-2.9a8.107,8.107,0,0,1-1.951-1.474c-.432-.5-.567-.5-.608-.429a.2.2,0,0,0-.093-.031c-.027-.019-.053-.037-.078-.057h0a.185.185,0,0,0-.108-.187c-.033-.019-.066-.044-.1-.067a3.1,3.1,0,0,1-.323-1.343c-.033-.573-.684-.429-.906-.365-.153-.287-.3-.585-.443-.883a1.62,1.62,0,0,0,.154-.308,11.634,11.634,0,0,0,.49-2.8,8.118,8.118,0,0,0,.336-2.018v-.038a1.733,1.733,0,0,0-.111-.476c-.116-.293-.319-.547-.41-.849-.146-.442-.053-.928-.175-1.375a2.055,2.055,0,0,0-1.172-1.254,5.822,5.822,0,0,0-1.738-.41,8.145,8.145,0,0,0-4.413.327.793.793,0,0,1-.41.111,1.26,1.26,0,0,1-.375-.174,1.14,1.14,0,0,0-1.146.175,3.294,3.294,0,0,0-.762.924,2.876,2.876,0,0,1-.786.9c-.4.264-.917.353-1.23.708a1.143,1.143,0,0,0-.254.591v-.01a.755.755,0,0,0,0,.078v.287a3.736,3.736,0,0,0,.264.971,1.352,1.352,0,0,0,.358.61c.476.387,1.231.022,1.8.238.05.018.1.041.146.063a.276.276,0,0,1-.022.067,4.538,4.538,0,0,0-.185,1.287,4.706,4.706,0,0,0,4.761,4.649,2.6,2.6,0,0,0,.293-.011c.014.051.029.1.041.152a5.038,5.038,0,0,1,.137,1.739l-.029-.254a1.258,1.258,0,0,0-.2-.075,1.77,1.77,0,0,0-.591-.09A3.428,3.428,0,0,0,694,186.9s-1.326.737-1.716.915a.183.183,0,0,0-.072.082h0a18.028,18.028,0,0,0-1.957,3.7c-.183,1.019-.41,2.188-.41,2.188s-.443,1.321-.729,1.906a6.284,6.284,0,0,0-.571,1.4,1.206,1.206,0,0,1-.443,1.168,2.171,2.171,0,0,0-.684,1.321s-.273.257-.66.582h-.014l1.429-5.478.256.064a.328.328,0,0,0,.336-.115.3.3,0,0,0,.056-.113l.288-1.11.116-.442.023-.09.168-.644-.569-.137-.666-.165-1.881-.474.164-.629h0l.137-.533h0l.86-3.3h0l.137-.532a4.506,4.506,0,0,0-2.488-1.55c-2.064-.513-4.063.321-4.465,1.862a2.084,2.084,0,0,0-.053.273,2,2,0,0,0-.086.26,2.2,2.2,0,0,0-.055.82q.008.067.02.137a2.816,2.816,0,0,0,.524,1.172,3.735,3.735,0,0,0,.639.663l.01.03a1.25,1.25,0,0,1,.179.547v.085a1.251,1.251,0,0,1-.164.23l-12.614-3.135-.137.532h0l-2.841,10.917h0a4.118,4.118,0,0,1,1.23-.649,4.007,4.007,0,0,1,.533-.137l.064-.011a3.81,3.81,0,0,1,1.529.063,3.911,3.911,0,0,1,2.9,3.351,4.08,4.08,0,0,1,.034.608,4.292,4.292,0,0,1-.082.772,4.118,4.118,0,0,1-4.824,2.822,3.828,3.828,0,0,1-2.584-2.208l-.137.533h0l-2.931,11.2,11.172,2.778h0l.12-.537h.018a3.712,3.712,0,0,1-.771-2.956.157.157,0,0,1,.018-.052c.014-.04.029-.078.044-.116a3.761,3.761,0,0,1,.273-.54c.055-.089.112-.175.174-.258q.057-.078.119-.152a3.882,3.882,0,0,1,.669-.637l.079-.057c.09-.064.183-.126.273-.183.056-.033.113-.066.171-.1a4.434,4.434,0,0,1,2.149-.513,4.721,4.721,0,0,1,1.067.137,4.422,4.422,0,0,1,2.637,1.833,4.026,4.026,0,0,1,.224.383,3.748,3.748,0,0,1,.387,1.25,3.541,3.541,0,0,1-.027,1.046,3.722,3.722,0,0,1-1.447,1.872l-.137.514h.015l-.02.015-.137.513,2.551.634,3.614-13.816a2.2,2.2,0,0,0,1.474-.61,7.149,7.149,0,0,1,1.821-.89c.323-.088.7-.15.993-.213-.35,1.738-.683,3.418-.654,3.517.01.038.072-.022.168-.153a.745.745,0,0,0-.012.153c0,.026.037.007.085-.046l-.007.033s-2.029,3.925-2.188,4.375a2.042,2.042,0,0,0,.663,1.982,1.336,1.336,0,0,1,.32.283l-.074.146a2.96,2.96,0,0,0-.4,1.324,1.792,1.792,0,0,1-.273,1.181s-1.757,5.429-1.717,6.992a34.274,34.274,0,0,1-.625,4.992s-.722,2.209-.293,2.838a16.009,16.009,0,0,1,.917,3.373,2.783,2.783,0,0,1,.312,1.162,5.747,5.747,0,0,0,.313,1.5l1.094,3.943a3.5,3.5,0,0,0,.293,1.791c.41.742.371.514.175,1.81a2.835,2.835,0,0,0,.937,2.871.429.429,0,0,1,.2.593h0c-.179-.07-.328.3-.417.6l-.09.086.06.015c-.038.137-.06.252-.06.252s-1.833,1.524-1.951,2.077-1.406.838-1.406.838a22.662,22.662,0,0,0-2.461.8.93.93,0,0,0-.539.74,2.03,2.03,0,0,0,.071.746c.194.781,2.926.857,4.238.648s4.018-.972,4.018-.972a23.267,23.267,0,0,0,3.692-.61c.842-.336.175-1.22.175-1.22v-.082a4.778,4.778,0,0,0-.123-1.777,2.583,2.583,0,0,1-.126-1.192c.57-1.025-.653-4.1-.653-4.1a23.743,23.743,0,0,0,.078-3.448c-.156-.44-.82-4.173-.82-4.173a6.888,6.888,0,0,1-.253-1.981c.157-.286-.1-1.106-.1-1.106s-.669-.912-.608-1.2a1.707,1.707,0,0,0-.2-.8s1.991-2.972,1.814-3.525a3.174,3.174,0,0,1,.079-1.448s.25-.421.547-.926c.369-.618.82-1.358.968-1.589a19.931,19.931,0,0,0,.909-2.266c.109-.306.183-.517.183-.517a58.35,58.35,0,0,0,.585,6.173,44.638,44.638,0,0,1,.684,5.087,3.094,3.094,0,0,1,.2,1.258,31.336,31.336,0,0,0,.625,3.772,11.408,11.408,0,0,1,.1,2.743,39.7,39.7,0,0,0-.038,4.785,5.44,5.44,0,0,0-1.347,1.448,6.257,6.257,0,0,0,.038,2.343l.126.059a3.618,3.618,0,0,0-.223.741c-.038.362-.625,2-.566,2.23a8.737,8.737,0,0,1-.293,1.295c-.04.361-.526.9-.566,1.087a4.67,4.67,0,0,1-.215.5,4.78,4.78,0,0,0-.253.774c-.2.8,2.126.934,2.126.934,3.435.629,4.059-1.943,4.059-1.943a19.133,19.133,0,0,1,.585-2.461.273.273,0,0,0,.026-.217h0a2.9,2.9,0,0,0-.495-1.076,1.28,1.28,0,0,1-.1-.746,1.725,1.725,0,0,0,.294-.055c1.385-.4.82-2.706.82-2.706a7.265,7.265,0,0,0,.937-2.114,23.406,23.406,0,0,1,.332-2.4c1.191-2.134.722-7.316.917-7.736s-.41-1.981-.9-2.687a4.411,4.411,0,0,1,0-3.162c.293-.552-.293-2.461-.293-2.461s.566-3.691.547-4.268a12.394,12.394,0,0,1,.488-2.267s.507-.876.39-1.143.39-.957.254-1.258a3.378,3.378,0,0,1,.371-1.791,10.157,10.157,0,0,0,.41-1.756c.014-.077.027-.153.04-.228.569.36,1.094.628,1.28.555.349-.137-.206-1.914-.587-3.022.066-.049.093-.086.066-.1-.234-.153.026-.84.026-.84,1.38-.812.911-1.422.469-1.777s-.156-1.367-.287-1.777a16.122,16.122,0,0,1,.391-3.607,2.579,2.579,0,0,0-.007-.883c.25-.381.509-.781.735-1.15.779-1.27,2.445-7.316,2.445-7.316l-.011-.031c.163-.321.284-.582.35-.756C710.625,194.263,709.688,190.3,709.533,189.381ZM697.408,185.9l.036-.016v.029Zm-24.862,31.856Zm17.291,33a.625.625,0,0,1-.247-.049Z" transform="translate(-589.796 -154.019)" fill="url(#linear-gradient-3)"/>
          <path id="Path_909" data-name="Path 909" d="M753.67,407.58a18.968,18.968,0,0,0,4.9.473h.571l.745-1.518-.745-1.265s-.684-.189-1.591-.353c-1.34-.241-3.173-.429-4.047.112C752.04,405.936,752.2,407.023,753.67,407.58Z" transform="translate(-668.083 -354.909)" fill="#fec2be"/>
          <path id="Path_910" data-name="Path 910" d="M790.569,409.555h.571l.745-1.518-.744-1.265s-.684-.189-1.591-.353C790.287,406.961,792.059,408.14,790.569,409.555Z" transform="translate(-700.08 -356.411)" opacity="0.1"/>
          <path id="Path_911" data-name="Path 911" d="M801.991,290.72l-.328-.38a18.543,18.543,0,0,0-1.872,3.692c-.178,1.012-.41,2.174-.41,2.174s-.429,1.315-.708,1.9a6.291,6.291,0,0,0-.555,1.39,1.22,1.22,0,0,1-.431,1.164,2.155,2.155,0,0,0-.656,1.315s-1.922,1.87-2.934,1.914-3.918.556-3.817,1.062-1.213.808-1.745.935,3.418,1.641,1.113,3.59c0,0,1.466.3,1.618.656s1.694-.2,1.694-.2a1.6,1.6,0,0,1,1.467-.835,2.3,2.3,0,0,0,1.719-.632,6.431,6.431,0,0,1,1.777-.885c.64-.176,1.466-.253,1.492-.431s3.793-16.433,3.793-16.433Z" transform="translate(-699.161 -256.202)" fill="#4c4981"/>
          <path id="Path_912" data-name="Path 912" d="M801.991,290.72l-.328-.38a18.543,18.543,0,0,0-1.872,3.692c-.178,1.012-.41,2.174-.41,2.174s-.429,1.315-.708,1.9a6.291,6.291,0,0,0-.555,1.39,1.22,1.22,0,0,1-.431,1.164,2.155,2.155,0,0,0-.656,1.315s-1.922,1.87-2.934,1.914-3.918.556-3.817,1.062-1.213.808-1.745.935,3.418,1.641,1.113,3.59c0,0,1.466.3,1.618.656s1.694-.2,1.694-.2a1.6,1.6,0,0,1,1.467-.835,2.3,2.3,0,0,0,1.719-.632,6.431,6.431,0,0,1,1.777-.885c.64-.176,1.466-.253,1.492-.431s3.793-16.433,3.793-16.433Z" transform="translate(-699.161 -256.202)" opacity="0.05"/>
          <path id="Path_913" data-name="Path 913" d="M902.985,756.234c3.337.626,3.944-1.935,3.944-1.935a19.23,19.23,0,0,1,.569-2.446.273.273,0,0,0,.026-.216h0a2.975,2.975,0,0,0-.481-1.072c-.208-.246-.038-1.27-.038-1.27l-3.868-.986a5.785,5.785,0,0,0-.379,1.137c-.037.361-.607,1.991-.547,2.219a8.543,8.543,0,0,1-.284,1.289c-.038.361-.511.891-.547,1.08a4.47,4.47,0,0,1-.209.5,5,5,0,0,0-.246.77C900.729,756.1,902.985,756.234,902.985,756.234Z" transform="translate(-796.216 -651.557)" fill="#ca8496"/>
          <path id="Path_914" data-name="Path 914" d="M902.946,777.247c3.338.626,3.945-1.935,3.945-1.935a19.234,19.234,0,0,1,.569-2.446.273.273,0,0,0,.026-.216l-.8,2.3s-.663,1.384-3.128,1.176a5.786,5.786,0,0,1-2.428-.581,5.014,5.014,0,0,0-.246.77C900.691,777.114,902.946,777.247,902.946,777.247Z" transform="translate(-796.178 -672.569)" opacity="0.1"/>
          <path id="Path_915" data-name="Path 915" d="M929.442,775.733s-.834.019-.892-.663Z" transform="translate(-820.076 -674.659)" opacity="0.1"/>
          <path id="Path_916" data-name="Path 916" d="M609.658,467.07l.529.135-.116.537-.491-.124Z" transform="translate(-526.237 -403.21)" fill="#0e58c7"/>
          <path id="Path_917" data-name="Path 917" d="M609.658,467.07l.529.135-.116.537-.491-.124Z" transform="translate(-526.237 -403.21)" opacity="0.1"/>
          <rect id="Rectangle_198" data-name="Rectangle 198" width="0.662" height="0.57" transform="translate(98.961 39.484) rotate(-75.72)" fill="#3a3768"/>
          <rect id="Rectangle_199" data-name="Rectangle 199" width="0.662" height="1.891" transform="translate(96.481 38.852) rotate(-75.72)" fill="#3a3768"/>
          <rect id="Rectangle_200" data-name="Rectangle 200" width="0.662" height="0.669" transform="translate(98.312 39.32) rotate(-75.72)" fill="#3a3768"/>
          <path id="Path_918" data-name="Path 918" d="M835.459,312.778c-.044.02-.086.042-.128.06l.107.027-.164.641-.811-.206a.957.957,0,0,1,.083-.9,1.131,1.131,0,0,1,.684-.5,3.55,3.55,0,0,0,.507-.189Z" transform="translate(-738.787 -274.65)" fill="#0e58c7"/>
          <path id="Path_919" data-name="Path 919" d="M856.38,330.9l.247.064a.313.313,0,0,0,.381-.227l.276-1.1-.547-.137Z" transform="translate(-757.773 -290.008)" fill="#3a3768"/>
          <path id="Path_920" data-name="Path 920" d="M845.668,285.97a2.549,2.549,0,0,1-1.478,1.654l.971-3.815A2.524,2.524,0,0,1,845.668,285.97Z" transform="translate(-747.25 -250.565)" fill="#3a3768"/>
          <path id="Path_921" data-name="Path 921" d="M799.025,326.8a.313.313,0,0,1-.226-.38l.282-1.106-1.832-.466L791.661,346.8a3.645,3.645,0,0,1-1.191,4.679l-.13.511,2.479.636,6.55-25.73Z" transform="translate(-700.762 -285.994)" fill="#3a3768"/>
          <path id="Path_922" data-name="Path 922" d="M852.149,329.366a.313.313,0,0,0,.226.38l.345.087.358-1.408-.647-.165Z" transform="translate(-754.112 -288.938)" fill="#3a3768"/>
          <path id="Path_923" data-name="Path 923" d="M691.692,277.623a1.142,1.142,0,0,1,.684-.5,3.657,3.657,0,0,0,.506-.189l.972-3.815a4.347,4.347,0,0,0-2.419-1.542c-2.006-.511-3.95.319-4.34,1.853a2.533,2.533,0,0,0,.476,2.119,3.7,3.7,0,0,0,.619.66l.01.03a1.168,1.168,0,0,1-.118,1.386L675.824,274.5l-2.766,10.867a3.752,3.752,0,0,1,3.247-.73,4.167,4.167,0,0,1-2.044,8.056,3.75,3.75,0,0,1-2.512-2.2l-2.84,11.151,10.858,2.763a3.743,3.743,0,0,1-.695-3.21,4.015,4.015,0,0,1,4.977-2.715,4.276,4.276,0,0,1,2.782,2.192l5.588-21.949-.8-.206a.957.957,0,0,1,.074-.9Z" transform="translate(-595.934 -239.874)" fill="#0e58c7"/>
          <path id="Path_924" data-name="Path 924" d="M841.4,319.607l.023-.087c-.042.021-.085.042-.129.061Z" transform="translate(-744.746 -281.392)" fill="#0e58c7"/>
          <g id="Group_1202" data-name="Group 1202" transform="translate(72.976 31.552)" opacity="0.1">
            <path id="Path_925" data-name="Path 925" d="M695.062,278.721l-.647-.165-1.831-.466h0l.023-.087h0l.273-1.068a3.548,3.548,0,0,1-.507.189,1.131,1.131,0,0,0-.684.5,1.33,1.33,0,0,0-.1.216,1.323,1.323,0,0,1,.1-.216,1.142,1.142,0,0,1,.684-.5,3.658,3.658,0,0,0,.506-.189l.972-3.815a4.347,4.347,0,0,0-2.419-1.542c-2.006-.511-3.95.319-4.34,1.853a2.533,2.533,0,0,0,.476,2.119,3.7,3.7,0,0,0,.619.66l.01.03a1.167,1.167,0,0,1-.118,1.386L675.821,274.5l-2.766,10.867a3.752,3.752,0,0,1,3.25-.73,4.167,4.167,0,0,1-2.044,8.056,3.75,3.75,0,0,1-2.512-2.2l-2.84,11.151,10.858,2.763a3.743,3.743,0,0,1-.695-3.21,4.015,4.015,0,0,1,4.977-2.715,4.276,4.276,0,0,1,2.782,2.192,3.645,3.645,0,0,1-1.191,4.679l-.13.511,2.479.636,6.55-25.73.247.064a.313.313,0,0,0,.381-.227l.276-1.11.163-.641Zm-2.521-.684c-.02.01-.041.021-.062.029h0Zm-.93.491h0l.811.206h0Z" transform="translate(-668.91 -271.426)"/>
            <path id="Path_926" data-name="Path 926" d="M845.668,285.97a2.552,2.552,0,0,0-.507-2.16l-.971,3.815A2.531,2.531,0,0,0,845.668,285.97Z" transform="translate(-820.225 -282.117)"/>
          </g>
          <rect id="Rectangle_201" data-name="Rectangle 201" width="0.662" height="0.57" transform="translate(99.095 38.955) rotate(-75.72)" fill="#3a3768"/>
          <rect id="Rectangle_202" data-name="Rectangle 202" width="0.662" height="1.891" transform="translate(96.615 38.323) rotate(-75.72)" fill="#3a3768"/>
          <rect id="Rectangle_203" data-name="Rectangle 203" width="0.662" height="0.669" transform="translate(98.447 38.789) rotate(-75.72)" fill="#3a3768"/>
          <path id="Path_927" data-name="Path 927" d="M836.439,308.924l-.129.062.105.026-.163.645-.811-.206a.949.949,0,0,1,.082-.9,1.137,1.137,0,0,1,.684-.5,3.541,3.541,0,0,0,.506-.189Z" transform="translate(-739.632 -271.327)" fill="#0e58c7"/>
          <path id="Path_928" data-name="Path 928" d="M857.36,327.026l.249.063a.313.313,0,0,0,.385-.227l.282-1.1-.547-.137Z" transform="translate(-758.619 -286.659)" fill="#3a3768"/>
          <path id="Path_929" data-name="Path 929" d="M846.668,282.092a2.543,2.543,0,0,1-1.478,1.653l.972-3.815A2.54,2.54,0,0,1,846.668,282.092Z" transform="translate(-748.113 -247.215)" fill="#3a3768"/>
          <path id="Path_930" data-name="Path 930" d="M800.023,322.95a.313.313,0,0,1-.226-.381l.273-1.1L798.247,321l-5.586,21.947a3.64,3.64,0,0,1-1.191,4.677l-.13.511,2.48.632,6.549-25.73Z" transform="translate(-701.625 -282.67)" fill="#3a3768"/>
          <path id="Path_931" data-name="Path 931" d="M853.138,325.495a.313.313,0,0,0,.226.381l.343.087.361-1.41-.648-.164Z" transform="translate(-754.965 -285.597)" fill="#3a3768"/>
          <path id="Path_932" data-name="Path 932" d="M692.682,273.746a1.138,1.138,0,0,1,.684-.5,3.54,3.54,0,0,0,.506-.189l.971-3.815a4.345,4.345,0,0,0-2.417-1.542c-2.007-.51-3.95.319-4.341,1.854a2.531,2.531,0,0,0,.477,2.118,3.7,3.7,0,0,0,.619.662l.01.029a1.17,1.17,0,0,1-.117,1.386l-12.26-3.12-2.77,10.865a3.749,3.749,0,0,1,3.254-.729,4.164,4.164,0,0,1-2.051,8.049,3.754,3.754,0,0,1-2.507-2.2L669.9,297.767l10.857,2.765a3.743,3.743,0,0,1-.693-3.21,4.013,4.013,0,0,1,4.977-2.715,4.266,4.266,0,0,1,2.784,2.2l5.586-21.947-.811-.206A.957.957,0,0,1,692.682,273.746Z" transform="translate(-596.789 -236.528)" fill="#fff"/>
          <path id="Path_933" data-name="Path 933" d="M842.385,315.729l.022-.089c-.042.021-.085.042-.127.061Z" transform="translate(-745.601 -278.043)" fill="#0e58c7"/>
          <path id="Path_934" data-name="Path 934" d="M828.15,472.212a16.678,16.678,0,0,1,.892,3.357,2.823,2.823,0,0,1,.3,1.157,5.951,5.951,0,0,0,.3,1.5l1.062,3.925a3.528,3.528,0,0,0,.284,1.777c.4.734.359.511.171,1.8a2.9,2.9,0,0,0,.909,2.871c.682.387-.3,1.27-.3,1.27s4.361,1.176,5.272.455-.474-4.286-.474-4.286a24.152,24.152,0,0,0,.077-3.432c-.152-.436-.8-4.152-.8-4.152a7.059,7.059,0,0,1-.246-1.973c.152-.284-.094-1.094-.094-1.094s-.645-.91-.588-1.195a1.749,1.749,0,0,0-.19-.8s1.931-2.967,1.76-3.523a3.24,3.24,0,0,1,.075-1.441l.539-.922c.36-.615.794-1.352.941-1.582a20.164,20.164,0,0,0,.885-2.255l.178-.514a59.668,59.668,0,0,0,.569,6.144,45.57,45.57,0,0,1,.663,5.059,3.146,3.146,0,0,1,.19,1.251,31.628,31.628,0,0,0,.607,3.754,11.655,11.655,0,0,1,.094,2.734,40.453,40.453,0,0,0-.038,4.761,5.42,5.42,0,0,0-1.309,1.441,6.338,6.338,0,0,0,.038,2.324s3.034,1.518,4.375,1.12.8-2.693.8-2.693a7.317,7.317,0,0,0,.911-2.1,23.094,23.094,0,0,1,.331-2.383c1.157-2.123.7-7.281.891-7.7s-.4-1.973-.872-2.674a4.489,4.489,0,0,1,0-3.145c.284-.547-.293-2.449-.293-2.449s.547-3.679.53-4.248a12.9,12.9,0,0,1,.474-2.256s.492-.872.379-1.139.379-.948.246-1.251a3.4,3.4,0,0,1,.361-1.777,11.424,11.424,0,0,0,.41-1.746c.116-.655.2-1.23.2-1.23l-3.13-2.523-7.812-2.051-2.938-.948-2.864,4.512a11.417,11.417,0,0,0-.557,1.016,3,3,0,0,0-.391,1.317,1.821,1.821,0,0,1-.265,1.176s-1.708,5.4-1.669,6.959a34.877,34.877,0,0,1-.607,4.967S827.729,471.585,828.15,472.212Z" transform="translate(-733.286 -393.549)" fill="#ceddf9"/>
          <path id="Path_935" data-name="Path 935" d="M911.763,235.074c.12-.049,8.369-3.456,7.233-4.133-.674-.4-1.5-2.106-2.073-3.439-.4-.931-.666-1.682-.666-1.682s-6.62-1.176-4.251,2.882a7.519,7.519,0,0,1,.836,2A4.491,4.491,0,0,1,911.763,235.074Z" transform="translate(-805.351 -200.367)" fill="#fec2be"/>
          <path id="Path_936" data-name="Path 936" d="M912.006,228.7a7.519,7.519,0,0,1,.836,2,4.622,4.622,0,0,0,3.909-2.747,4.39,4.39,0,0,0,.172-.453c-.4-.931-.666-1.682-.666-1.682S909.637,224.645,912.006,228.7Z" transform="translate(-805.351 -200.367)" opacity="0.1"/>
          <path id="Path_937" data-name="Path 937" d="M885.14,198.43a4.625,4.625,0,1,0,.18-1.281A4.625,4.625,0,0,0,885.14,198.43Z" transform="translate(-782.601 -172.863)" fill="#fec2be"/>
          <path id="Path_938" data-name="Path 938" d="M852.5,454.975a2.83,2.83,0,0,1,.67,1.278s2.276,1.555,2.125.569,1.176-4.968,1.176-4.968l-.152,5.424s7.281-.342,7.812-.872a18.344,18.344,0,0,1,3.641-1.548s.957.764,1.827,1.344c.116-.655.2-1.231.2-1.231l-3.13-2.523-7.812-2.051-2.938-.948-2.864,4.512A11.467,11.467,0,0,0,852.5,454.975Z" transform="translate(-754.423 -393.558)" opacity="0.1"/>
          <path id="Path_939" data-name="Path 939" d="M846.328,283.13a2.546,2.546,0,0,1,.834,1.4s2.275,1.555,2.123.569,1.176-4.968,1.176-4.968l-.152,5.424s7.282-.339,7.811-.872a18.227,18.227,0,0,1,3.641-1.554s2.693,2.162,3.186,1.971-.872-3.868-.872-3.868l-1.4-21.541s.379-6.41-.19-6.638a.819.819,0,0,1-.239-.149,2.419,2.419,0,0,1-.52-1.594c-.037-.684-.948-.342-.948-.342l.53.684-4.7,2.857-.041.025a5.188,5.188,0,0,0-.565-.256,2.045,2.045,0,0,0-1.332-.161,1.288,1.288,0,0,0-.5.448,5.633,5.633,0,0,0-.64,1.3l-1.7,2.881s-.872,3.828-.872,3.983a20.415,20.415,0,0,1-.569,4.02,6.343,6.343,0,0,0-.494,2.844,15.508,15.508,0,0,1-.19,2.693c-1.251,1.024-1.895,4.512-1.895,4.512s-1.977,3.91-2.133,4.361A2.055,2.055,0,0,0,846.328,283.13Z" transform="translate(-748.491 -222.141)" fill="#fff"/>
          <path id="Path_940" data-name="Path 940" d="M925.94,255.6a9.608,9.608,0,0,0,1.792,1.641l3.843-3.247a2.42,2.42,0,0,1-.519-1.6c-.037-.684-.948-.34-.948-.34l.111.137a.612.612,0,0,1-.166.9Z" transform="translate(-817.822 -223.078)" opacity="0.1"/>
          <path id="Path_941" data-name="Path 941" d="M925.94,254.493a9.608,9.608,0,0,0,1.792,1.641l3.843-3.247a2.418,2.418,0,0,1-.519-1.594c-.037-.684-.948-.342-.948-.342l.111.137a.611.611,0,0,1-.166.9Z" transform="translate(-817.822 -222.124)" fill="#fff"/>
          <path id="Path_942" data-name="Path 942" d="M912.94,277.448c.5.593,1.2,1.267,1.168.93a2.933,2.933,0,0,1,.708-1.416,2.1,2.1,0,0,0-1.378.038A1.278,1.278,0,0,0,912.94,277.448Z" transform="translate(-806.6 -244.568)" opacity="0.1"/>
          <path id="Path_943" data-name="Path 943" d="M912.39,276.255c.5.595,1.2,1.267,1.166.931s.373-.885.662-1.218a2.034,2.034,0,0,0-1.332-.16A1.271,1.271,0,0,0,912.39,276.255Z" transform="translate(-806.125 -243.603)" fill="#fff"/>
          <circle id="Ellipse_77" data-name="Ellipse 77" cx="0.304" cy="0.304" r="0.304" transform="translate(107.204 35.2)" fill="#ff718d"/>
          <circle id="Ellipse_78" data-name="Ellipse 78" cx="0.304" cy="0.304" r="0.304" transform="translate(104.903 43.391)" fill="#ff718d"/>
          <circle id="Ellipse_79" data-name="Ellipse 79" cx="0.304" cy="0.304" r="0.304" transform="translate(102.3 51.685)" fill="#ff718d"/>
          <circle id="Ellipse_80" data-name="Ellipse 80" cx="0.304" cy="0.304" r="0.304" transform="translate(102.223 60.71)" fill="#ff718d"/>
          <circle id="Ellipse_81" data-name="Ellipse 81" cx="0.304" cy="0.304" r="0.304" transform="translate(105.864 39.068)" fill="#ff718d"/>
          <circle id="Ellipse_82" data-name="Ellipse 82" cx="0.304" cy="0.304" r="0.304" transform="translate(103.816 47.488)" fill="#ff718d"/>
          <circle id="Ellipse_83" data-name="Ellipse 83" cx="0.304" cy="0.304" r="0.304" transform="translate(101.819 55.755)" fill="#ff718d"/>
          <circle id="Ellipse_84" data-name="Ellipse 84" cx="0.304" cy="0.304" r="0.304" transform="translate(102.274 61.722)" fill="#ff718d"/>
          <path id="Path_944" data-name="Path 944" d="M924.42,266.171s-.051-.455.606.329a7.916,7.916,0,0,0,1.9,1.466s2.807,1.973,2.959,2.882,1.061,4.855.581,6.169-4.15,7.611-4.15,7.611a3.42,3.42,0,0,1,.734,2.479,16.849,16.849,0,0,0-.38,3.59c.126.4-.152,1.415.273,1.769s.885.957-.455,1.769c0,0-.253.684-.026.835s-3.362,1.719-4.785.885-3.965-7.509-4.02-9a35.428,35.428,0,0,1,1.239-7.585c.455-1.159,1.821-5.689,2.4-6.7S924.42,266.171,924.42,266.171Z" transform="translate(-810.667 -235.224)" opacity="0.1"/>
          <path id="Path_945" data-name="Path 945" d="M925.546,266.171s-.051-.455.607.329a7.944,7.944,0,0,0,1.9,1.466s2.807,1.973,2.959,2.882,1.061,4.855.581,6.169-4.147,7.611-4.147,7.611a3.421,3.421,0,0,1,.734,2.479,16.859,16.859,0,0,0-.38,3.59c.126.4-.152,1.415.274,1.769s.885.957-.455,1.769c0,0-.253.684-.026.835s-3.362,1.719-4.785.885-3.965-7.509-4.02-9a35.447,35.447,0,0,1,1.239-7.585c.455-1.159,1.821-5.689,2.4-6.7S925.546,266.171,925.546,266.171Z" transform="translate(-811.643 -235.224)" fill="#4c4981"/>
          <path id="Path_946" data-name="Path 946" d="M962.4,298.48s-2.174,2.4-2.1,4A5.085,5.085,0,0,1,962.4,298.48Z" transform="translate(-847.481 -263.229)" opacity="0.1"/>
          <path id="Path_947" data-name="Path 947" d="M937.845,327.33c0,.075-1.467,5.536-1.391,6.22a13.238,13.238,0,0,1-.431,2.7l-.684-.176s.531-2.807.632-3.843A32.75,32.75,0,0,1,937.845,327.33Z" transform="translate(-825.937 -288.135)" opacity="0.1"/>
          <path id="Path_948" data-name="Path 948" d="M949.4,441.24c.05.075,3.464,3.943,2.5,4.222S949.4,441.24,949.4,441.24Z" transform="translate(-838.075 -386.471)" opacity="0.1"/>
          <path id="Path_949" data-name="Path 949" d="M969.93,434c.075.051,1.367,2.781,1.516,2.051s-1.112,2-1.314-.025Z" transform="translate(-855.798 -380.22)" opacity="0.1"/>
          <path id="Path_950" data-name="Path 950" d="M869.332,272.285s-1.41-.86-3.18,1.34c0,0-1.289.733-1.668.911s-.81,4.88-.81,4.88a7.531,7.531,0,0,0-.607,3.186c.227,1.163-.656,5.157-.656,5.157s-1.468,7.178-1.419,7.383a7.234,7.234,0,0,0,1.467-3.465,21.543,21.543,0,0,1,1.39-5.234c.178-.228,1.391-6.724,1.391-6.724a24.428,24.428,0,0,1,1.617-3.667c.632-.911,1.417-2.629,1.745-2.933a3.343,3.343,0,0,1,.784-.506Z" transform="translate(-761.754 -240.472)" opacity="0.1"/>
          <path id="Path_951" data-name="Path 951" d="M868.4,272.285s-1.581-.86-3.35,1.34c0,0-1.291.733-1.669.911s-.809,4.88-.809,4.88a7.531,7.531,0,0,0-.607,3.186c.227,1.163-.656,5.157-.656,5.157s-1.467,7.181-1.417,7.383a7.231,7.231,0,0,0,1.467-3.465,21.541,21.541,0,0,1,1.391-5.234c.178-.228,1.395-6.724,1.395-6.724a24.433,24.433,0,0,1,1.617-3.667c.632-.911,1.417-2.629,1.745-2.933a3.107,3.107,0,0,1,.935-.506Z" transform="translate(-760.804 -240.472)" fill="#4c4981"/>
          <path id="Path_952" data-name="Path 952" d="M827.566,380.893s-3.008-1.971-4.463-1-3.828,2.352-1.492,3.35a14.61,14.61,0,0,0,5.574.807Z" transform="translate(-726.909 -333.28)" fill="#fec2be"/>
          <path id="Path_953" data-name="Path 953" d="M885.621,515.827c.448.957.82,5.794,1.069,7.327.359-.615.794-1.352.941-1.582a20.1,20.1,0,0,0,.885-2.255,15.121,15.121,0,0,1-1.075-3.418c0-.891-1.441-2.01-1.441-2.01A1.679,1.679,0,0,0,885.621,515.827Z" transform="translate(-782.872 -449.188)" opacity="0.1"/>
          <path id="Path_954" data-name="Path 954" d="M929.333,631.766s-3.337-1.422-4.323-.41S929.333,631.766,929.333,631.766Z" transform="translate(-816.914 -550.279)" opacity="0.1"/>
          <path id="Path_955" data-name="Path 955" d="M943.67,640.81s3.376,1.9,2.219,2.214S943.67,640.81,943.67,640.81Z" transform="translate(-833.128 -558.755)" opacity="0.1"/>
          <path id="Path_956" data-name="Path 956" d="M869.89,628.75s1.441.094.891.379S869.89,628.75,869.89,628.75Z" transform="translate(-769.436 -548.344)" opacity="0.1"/>
          <path id="Path_957" data-name="Path 957" d="M856.71,631.94c.019.094,4.191,1.441,3.376,2.051S856.71,631.94,856.71,631.94Z" transform="translate(-758.058 -551.098)" opacity="0.1"/>
          <path id="Path_958" data-name="Path 958" d="M934.448,710.724c-.625-.1-4.114-1.708-2.749-.547A2.7,2.7,0,0,0,934.448,710.724Z" transform="translate(-822.523 -618.277)" opacity="0.1"/>
          <path id="Path_959" data-name="Path 959" d="M930.087,726.11a1.356,1.356,0,0,1-1.46,1.024C927.47,726.982,930.087,726.11,930.087,726.11Z" transform="translate(-819.887 -632.392)" opacity="0.1"/>
          <path id="Path_960" data-name="Path 960" d="M930.883,738.505c-.209-.056-2.693-1.194-2.75-.663s2.369,1.46,2.56,1.176A1.017,1.017,0,0,0,930.883,738.505Z" transform="translate(-819.716 -642.399)" opacity="0.1"/>
          <path id="Path_961" data-name="Path 961" d="M865.976,730.738c-.3-.019-3.145-.93-3.716-.115Z" transform="translate(-762.849 -635.997)" opacity="0.1"/>
          <path id="Path_962" data-name="Path 962" d="M863.722,735.746a1.009,1.009,0,0,0-.986-.209C862.244,735.764,863.722,735.746,863.722,735.746Z" transform="translate(-763.174 -640.474)" opacity="0.1"/>
          <path id="Path_963" data-name="Path 963" d="M912.555,771.88a.849.849,0,0,1-.645.663Z" transform="translate(-805.711 -671.905)" opacity="0.1"/>
          <path id="Path_964" data-name="Path 964" d="M810.281,746.181c.19.778,2.845.853,4.115.645s3.906-.968,3.906-.968a21.379,21.379,0,0,0,3.584-.606c.815-.34.171-1.214.171-1.214v-.082a4.967,4.967,0,0,0-.119-1.777,3.777,3.777,0,0,1-.094-1.537s-3.925.759-4,.4a2.047,2.047,0,0,0-.967-.986c-.283-.114-.494.947-.494.947s-1.777,1.518-1.9,2.067-1.367.834-1.367.834a21.53,21.53,0,0,0-2.39.8.918.918,0,0,0-.522.737A2.051,2.051,0,0,0,810.281,746.181Z" transform="translate(-717.906 -644.425)" fill="#ca8496"/>
          <path id="Path_965" data-name="Path 965" d="M810.308,770.865c.19.778,2.845.853,4.115.645s3.906-.968,3.906-.968a21.369,21.369,0,0,0,3.584-.606c.815-.341.171-1.214.171-1.214v-.082l-3.965.879a10.8,10.8,0,0,1-3.2.834c-1.094,0-3.541.447-4.676-.231A2.049,2.049,0,0,0,810.308,770.865Z" transform="translate(-717.933 -669.108)" opacity="0.1"/>
          <path id="Path_966" data-name="Path 966" d="M850.05,763a2.583,2.583,0,0,0,.949,1.668Z" transform="translate(-752.308 -664.239)" opacity="0.1"/>
          <path id="Path_967" data-name="Path 967" d="M886.46,197.139a1.352,1.352,0,0,0,.226.094,1.4,1.4,0,0,0,1.019-.336c.316-.191.752-.334,1.025-.085.357.324.1,1.016.466,1.329.233.2.6.13.86.293a1.233,1.233,0,0,1,.4.827c.066.308.2.659.5.749s.581-.108.878-.1c.062,0,.137.01.175-.034a.185.185,0,0,0,.029-.137,2.918,2.918,0,0,1,.1-1.094,1.054,1.054,0,0,1,.771-.722c.532-.082.979.384,1.292.82a13.4,13.4,0,0,1,.9,1.444.912.912,0,0,1,.045.1,4.627,4.627,0,1,0-8.679-3.145Z" transform="translate(-783.74 -172.853)" opacity="0.1"/>
          <path id="Path_968" data-name="Path 968" d="M878.477,182.011c-.313-.44-.76-.905-1.294-.82a1.049,1.049,0,0,0-.77.721,2.9,2.9,0,0,0-.1,1.094.191.191,0,0,1-.03.137c-.042.045-.114.038-.175.036-.3-.011-.592.182-.878.1s-.432-.442-.5-.749a1.216,1.216,0,0,0-.4-.827c-.265-.168-.628-.094-.86-.294-.368-.312-.108-1-.466-1.329-.273-.247-.71-.105-1.025.086a1.4,1.4,0,0,1-1.02.335c-.12-.033-.228-.1-.346-.146-.562-.215-1.291.149-1.753-.237a1.354,1.354,0,0,1-.35-.606,3.855,3.855,0,0,1-.256-.967,1.293,1.293,0,0,1,.257-.942c.3-.354.809-.443,1.194-.7a3,3,0,0,0,.763-.9,3.361,3.361,0,0,1,.741-.92,1.091,1.091,0,0,1,1.111-.175,1.232,1.232,0,0,0,.365.174.754.754,0,0,0,.4-.111,7.754,7.754,0,0,1,4.289-.325,5.526,5.526,0,0,1,1.689.41,2.029,2.029,0,0,1,1.139,1.247c.118.446.027.931.169,1.367.1.3.293.547.41.846a4.736,4.736,0,0,1-.216,2.52,11.8,11.8,0,0,1-.476,2.786c-.077.171-.163.47-.356.358-.137-.083-.282-.569-.364-.721A13.262,13.262,0,0,0,878.477,182.011Z" transform="translate(-768.021 -156.194)" fill="#9a5e7f"/>
          <path id="Path_969" data-name="Path 969" d="M882.1,310.3l.684,1.947s-1.619,6.016-2.378,7.281-1.87,2.882-1.87,2.882a6.931,6.931,0,0,1-4.046.506c-2.175-.431-8.523-1.567-8.523-1.567a.844.844,0,0,1-.809-.3c-.278-.4-1.723-.61-1.723-.61s-1.668-2.427.38-3.439c0,0,.253.556,1.34.178s1.415.3,1.415.3a11.562,11.562,0,0,0,2.756.228,29.874,29.874,0,0,0,3.691-.38.325.325,0,0,1,.455.026,2.743,2.743,0,0,0,.808-.455c.2-.228.481.253.481.253s.354-.2.253-.455.328-1.213.328-1.213a2.472,2.472,0,0,0,.077-1.139,7.508,7.508,0,0,1,.632-2.324,3.212,3.212,0,0,0-.1-.911c-.127-.454.957-1.367.957-1.367s1.061-5.159,3.311-3.465A4.448,4.448,0,0,1,882.1,310.3Z" transform="translate(-763.312 -269.662)" opacity="0.1"/>
          <path id="Path_970" data-name="Path 970" d="M883.205,310.3l.684,1.947s-1.619,6.016-2.378,7.281-1.869,2.882-1.869,2.882a6.931,6.931,0,0,1-4.046.506c-2.175-.431-8.521-1.567-8.521-1.567a.842.842,0,0,1-.808-.3c-.278-.4-1.721-.61-1.721-.61s-1.668-2.427.38-3.439c0,0,.253.556,1.34.178s1.415.3,1.415.3a11.562,11.562,0,0,0,2.756.228,29.871,29.871,0,0,0,3.691-.38.326.326,0,0,1,.455.026,2.743,2.743,0,0,0,.808-.455c.2-.228.481.253.481.253s.354-.2.253-.455.328-1.213.328-1.213a2.461,2.461,0,0,0,.075-1.139,7.469,7.469,0,0,1,.633-2.324,3.218,3.218,0,0,0-.1-.911c-.127-.454.957-1.367.957-1.367s1.061-5.159,3.311-3.465A4.433,4.433,0,0,1,883.205,310.3Z" transform="translate(-764.27 -269.662)" fill="#4c4981"/>
          <path id="Path_971" data-name="Path 971" d="M882.954,397.41c.025.178.581.885.379,1.012s-.531.051-.227.455.273,1.01.075.935a2.444,2.444,0,0,1-.53-1.34A3.979,3.979,0,0,1,882.954,397.41Z" transform="translate(-780.451 -348.633)" opacity="0.1"/>
          <path id="Path_972" data-name="Path 972" d="M939.79,394.45s.152,1.771,1.4,2.276S939.79,394.45,939.79,394.45Z" transform="translate(-829.779 -346.078)" opacity="0.1"/>
          <path id="Path_973" data-name="Path 973" d="M958.65,390c.075.026,1.769.936,1.012,1.467S958.65,390,958.65,390Z" transform="translate(-846.06 -342.236)" opacity="0.1"/>
          <path id="Path_974" data-name="Path 974" d="M959.39,380.77s2.478.506,1.641.935S959.39,380.77,959.39,380.77Z" transform="translate(-846.699 -334.268)" opacity="0.1"/>
          <g id="Group_1203" data-name="Group 1203" transform="translate(100.234 21.979)" opacity="0.1">
            <path id="Path_975" data-name="Path 975" d="M927.3,209.747a1.058,1.058,0,0,1,.77-.721c.533-.082.98.384,1.294.82a13.447,13.447,0,0,1,.9,1.444c.082.152.221.636.364.719.193.113.273-.186.355-.357a11.78,11.78,0,0,0,.476-2.786,16.154,16.154,0,0,0,.325-1.627,7.9,7.9,0,0,1-.325,2.03,11.827,11.827,0,0,1-.476,2.788c-.077.171-.163.47-.355.357-.137-.083-.282-.567-.364-.719a13.447,13.447,0,0,0-.9-1.444c-.313-.439-.76-.905-1.294-.82a1.049,1.049,0,0,0-.77.721,2.006,2.006,0,0,0-.1.569A2.647,2.647,0,0,1,927.3,209.747Z" transform="translate(-919.139 -206.443)"/>
            <path id="Path_976" data-name="Path 976" d="M868.541,202.311a1.352,1.352,0,0,0,.35.607c.462.386,1.191.022,1.753.237.117.044.225.113.346.146a1.4,1.4,0,0,0,1.02-.336c.315-.191.753-.332,1.026-.085.358.324.1,1.016.466,1.329.232.2.6.137.86.294a1.218,1.218,0,0,1,.4.82c.065.3.2.659.5.749s.581-.107.878-.1c.062,0,.137.01.175-.036a.12.12,0,0,0,.021-.038c0,.1,0,.2.01.3a.192.192,0,0,1-.03.137c-.042.044-.113.037-.175.034-.3-.01-.592.182-.878.1s-.432-.44-.5-.749a1.185,1.185,0,0,0-.4-.82c-.265-.161-.628-.1-.86-.294-.368-.313-.108-1.006-.466-1.329-.273-.249-.71-.107-1.026.085a1.4,1.4,0,0,1-1.02.336c-.12-.033-.228-.1-.346-.146-.562-.215-1.291.149-1.753-.237a1.36,1.36,0,0,1-.35-.607,3.863,3.863,0,0,1-.256-.965,1.544,1.544,0,0,1,.008-.339A4.061,4.061,0,0,0,868.541,202.311Z" transform="translate(-868.279 -201.41)"/>
          </g>
          <path id="Path_977" data-name="Path 977" d="M202.388,767.193s-5.781-.349-5.1,3.7a.987.987,0,0,0,.514,1.042s.01-.3.593-.2a2.728,2.728,0,0,0,.628.032,1.308,1.308,0,0,0,.767-.317h0s1.626-.671,2.257-3.328c0,0,.468-.578.448-.727l-.975.41a1.749,1.749,0,0,1,.071,1.289s-.031-1.263-.219-1.23c-.038,0-.507.243-.507.243a2.872,2.872,0,0,1,.137,2.118s.164-1.511-.32-2.029l-.684.4a3.034,3.034,0,0,1,.216,2.3,4.308,4.308,0,0,0-.361-2.2l-.622.485a2.961,2.961,0,0,1,.246,2.1s-.051-1.844-.38-1.984a3.581,3.581,0,0,0-.628.684s.431.906.163,1.385c0,0-.164-1.231-.3-1.231a3.992,3.992,0,0,0-.6,1.367,2.961,2.961,0,0,1,.468-1.451,1.628,1.628,0,0,0-.83.431s.083-.576.964-.626a3.784,3.784,0,0,1,.567-.655,3.557,3.557,0,0,0-1.405.161,1.568,1.568,0,0,1,1.567-.3l.614-.5a5.084,5.084,0,0,0-1.641.016,2,2,0,0,1,1.806-.13l.669-.4a6.088,6.088,0,0,0-1.567-.137,2.406,2.406,0,0,1,1.764.029l.477-.215s-.719-.137-.93-.164-.223-.081-.223-.081a2.5,2.5,0,0,1,1.352.15A6.239,6.239,0,0,0,202.388,767.193Z" transform="translate(-188.746 -667.852)" fill="#0e58c7"/>
          <ellipse id="Ellipse_85" data-name="Ellipse 85" cx="4.091" cy="0.692" rx="4.091" ry="0.692" transform="translate(5.57 103.745)" fill="#0e58c7" opacity="0.1"/>
          <path id="Path_978" data-name="Path 978" d="M297.668,689.143s-3.259-.2-2.871,2.088a.558.558,0,0,0,.29.586s0-.17.335-.112a1.6,1.6,0,0,0,.354.018.748.748,0,0,0,.432-.179h0a2.584,2.584,0,0,0,1.274-1.877s.264-.327.253-.41l-.547.234a.991.991,0,0,1,.04.727s-.018-.712-.123-.7c-.022,0-.286.137-.286.137a1.622,1.622,0,0,1,.079,1.194s.092-.852-.181-1.144l-.39.232a1.711,1.711,0,0,1,.122,1.3,2.428,2.428,0,0,0-.2-1.241l-.35.273a1.671,1.671,0,0,1,.137,1.187s-.029-1.04-.215-1.118a2.186,2.186,0,0,0-.354.381s.243.511.093.781c0,0-.093-.693-.168-.7a2.283,2.283,0,0,0-.338.774,1.668,1.668,0,0,1,.263-.82.927.927,0,0,0-.468.243s.048-.325.547-.353a2.068,2.068,0,0,1,.32-.369,2,2,0,0,0-.793.09.89.89,0,0,1,.883-.167l.346-.283a2.85,2.85,0,0,0-.924.01,1.116,1.116,0,0,1,1.019-.074l.376-.224a3.384,3.384,0,0,0-.883-.077,1.351,1.351,0,0,1,.994.015l.273-.12s-.41-.081-.524-.093-.126-.045-.126-.045a1.41,1.41,0,0,1,.763.085A3.174,3.174,0,0,0,297.668,689.143Z" transform="translate(-272.943 -600.476)" fill="#0e58c7"/>
          <ellipse id="Ellipse_86" data-name="Ellipse 86" cx="2.307" cy="0.39" rx="2.307" ry="0.39" transform="translate(20.179 91.15)" fill="#0e58c7" opacity="0.1"/>
          <path id="Path_979" data-name="Path 979" d="M153.221,703.638s-3.935-.238-3.466,2.52a.673.673,0,0,0,.35.708s0-.205.4-.137a1.791,1.791,0,0,0,.428.021.884.884,0,0,0,.522-.216h0A3.122,3.122,0,0,0,153,704.269s.317-.394.3-.5l-.674.284a1.194,1.194,0,0,1,.048.876s-.022-.859-.149-.838c-.026,0-.345.165-.345.165a1.966,1.966,0,0,1,.1,1.441s.111-1.028-.219-1.381l-.466.273a2.064,2.064,0,0,1,.146,1.564,2.964,2.964,0,0,0-.245-1.5l-.424.331a2.02,2.02,0,0,1,.167,1.433s-.034-1.257-.258-1.351a2.625,2.625,0,0,0-.428.461s.294.617.112.942c0,0-.112-.837-.2-.841a2.829,2.829,0,0,0-.41.935,2.017,2.017,0,0,1,.319-.987,1.106,1.106,0,0,0-.566.293s.057-.392.658-.427a2.617,2.617,0,0,1,.386-.446,2.423,2.423,0,0,0-.957.109,1.076,1.076,0,0,1,1.066-.2l.418-.342a3.454,3.454,0,0,0-1.117.012,1.356,1.356,0,0,1,1.23-.089l.455-.273a4.113,4.113,0,0,0-1.066-.093,1.633,1.633,0,0,1,1.2.019L152.4,704s-.489-.1-.633-.111-.152-.055-.152-.055a1.691,1.691,0,0,1,.92.1A4.021,4.021,0,0,0,153.221,703.638Z" transform="translate(-147.726 -612.988)" fill="#0e58c7"/>
          <ellipse id="Ellipse_87" data-name="Ellipse 87" cx="2.785" cy="0.47" rx="2.785" ry="0.47" transform="translate(0 93.648)" fill="#0e58c7" opacity="0.1"/>
          <ellipse id="Ellipse_88" data-name="Ellipse 88" cx="4.091" cy="0.692" rx="4.091" ry="0.692" transform="translate(78.998 110.549)" fill="#0e58c7" opacity="0.1"/>
          <path id="Path_980" data-name="Path 980" d="M722.79,822.832a8.562,8.562,0,0,0,3.037-.573c.7-.5,3.589-1.094,3.764-.3s3.507,3.994.872,4.016-6.121-.41-6.824-.838S722.79,822.832,722.79,822.832Z" transform="translate(-642.448 -714.804)" fill="#a8a8a8"/>
          <path id="Path_981" data-name="Path 981" d="M730.5,833.63c-2.635.022-6.121-.41-6.822-.837-.534-.327-.748-1.494-.82-2.033h-.078s.148,1.881.849,2.309,4.189.859,6.824.838c.76,0,1.023-.273,1.009-.684C731.358,833.474,731.067,833.626,730.5,833.63Z" transform="translate(-642.439 -722.734)" opacity="0.2"/>
        </g>
      </g>
    </g>
    <g id="Group_1193" data-name="Group 1193" transform="translate(3.371 5.358)">
      <g id="Ellipse_12" data-name="Ellipse 12" transform="translate(177.629 798.642)" fill="none" stroke="#0e58c7" stroke-width="1">
        <circle cx="4" cy="4" r="4" stroke="none"/>
        <circle cx="4" cy="4" r="3.5" fill="none"/>
      </g>
      <g id="Ellipse_13" data-name="Ellipse 13" transform="translate(191.629 798.642)" fill="none" stroke="#0e58c7" stroke-width="1">
        <circle cx="4" cy="4" r="4" stroke="none"/>
        <circle cx="4" cy="4" r="3.5" fill="none"/>
      </g>
      <g id="Ellipse_91" data-name="Ellipse 91" transform="translate(206.629 798.642)" fill="#0e58c7" stroke="#0e58c7" stroke-width="1">
        <circle cx="4" cy="4" r="4" stroke="none"/>
        <circle cx="4" cy="4" r="3.5" fill="none"/>
      </g>
      <g id="Ellipse_92" data-name="Ellipse 92" transform="translate(220.629 798.642)" fill="none" stroke="#0e58c7" stroke-width="1">
        <circle cx="4" cy="4" r="4" stroke="none"/>
        <circle cx="4" cy="4" r="3.5" fill="none"/>
      </g>
    </g>
  </g>
</svg>
